%TF.GenerationSoftware,KiCad,Pcbnew,(6.0.0)*%
%TF.CreationDate,2022-03-07T21:34:01-05:00*%
%TF.ProjectId,custom_keyboard plate v3 foot,63757374-6f6d-45f6-9b65-79626f617264,rev?*%
%TF.SameCoordinates,Original*%
%TF.FileFunction,Legend,Top*%
%TF.FilePolarity,Positive*%
%FSLAX46Y46*%
G04 Gerber Fmt 4.6, Leading zero omitted, Abs format (unit mm)*
G04 Created by KiCad (PCBNEW (6.0.0)) date 2022-03-07 21:34:01*
%MOMM*%
%LPD*%
G01*
G04 APERTURE LIST*
%ADD10C,0.150000*%
%ADD11C,3.200000*%
G04 APERTURE END LIST*
D10*
X154202380Y-90878690D02*
X154916666Y-90878690D01*
X155059523Y-90926309D01*
X155154761Y-91021547D01*
X155202380Y-91164404D01*
X155202380Y-91259642D01*
X155202380Y-89926309D02*
X155202380Y-90402500D01*
X154202380Y-90402500D01*
X155107142Y-89021547D02*
X155154761Y-89069166D01*
X155202380Y-89212023D01*
X155202380Y-89307261D01*
X155154761Y-89450119D01*
X155059523Y-89545357D01*
X154964285Y-89592976D01*
X154773809Y-89640595D01*
X154630952Y-89640595D01*
X154440476Y-89592976D01*
X154345238Y-89545357D01*
X154250000Y-89450119D01*
X154202380Y-89307261D01*
X154202380Y-89212023D01*
X154250000Y-89069166D01*
X154297619Y-89021547D01*
X154202380Y-88307261D02*
X154916666Y-88307261D01*
X155059523Y-88354880D01*
X155154761Y-88450119D01*
X155202380Y-88592976D01*
X155202380Y-88688214D01*
X155202380Y-87354880D02*
X155202380Y-87831071D01*
X154202380Y-87831071D01*
X155107142Y-86450119D02*
X155154761Y-86497738D01*
X155202380Y-86640595D01*
X155202380Y-86735833D01*
X155154761Y-86878690D01*
X155059523Y-86973928D01*
X154964285Y-87021547D01*
X154773809Y-87069166D01*
X154630952Y-87069166D01*
X154440476Y-87021547D01*
X154345238Y-86973928D01*
X154250000Y-86878690D01*
X154202380Y-86735833D01*
X154202380Y-86640595D01*
X154250000Y-86497738D01*
X154297619Y-86450119D01*
X154202380Y-85735833D02*
X154916666Y-85735833D01*
X155059523Y-85783452D01*
X155154761Y-85878690D01*
X155202380Y-86021547D01*
X155202380Y-86116785D01*
X155202380Y-84783452D02*
X155202380Y-85259642D01*
X154202380Y-85259642D01*
X155107142Y-83878690D02*
X155154761Y-83926309D01*
X155202380Y-84069166D01*
X155202380Y-84164404D01*
X155154761Y-84307261D01*
X155059523Y-84402500D01*
X154964285Y-84450119D01*
X154773809Y-84497738D01*
X154630952Y-84497738D01*
X154440476Y-84450119D01*
X154345238Y-84402500D01*
X154250000Y-84307261D01*
X154202380Y-84164404D01*
X154202380Y-84069166D01*
X154250000Y-83926309D01*
X154297619Y-83878690D01*
X154202380Y-83164404D02*
X154916666Y-83164404D01*
X155059523Y-83212023D01*
X155154761Y-83307261D01*
X155202380Y-83450119D01*
X155202380Y-83545357D01*
X155202380Y-82212023D02*
X155202380Y-82688214D01*
X154202380Y-82688214D01*
X155107142Y-81307261D02*
X155154761Y-81354880D01*
X155202380Y-81497738D01*
X155202380Y-81592976D01*
X155154761Y-81735833D01*
X155059523Y-81831071D01*
X154964285Y-81878690D01*
X154773809Y-81926309D01*
X154630952Y-81926309D01*
X154440476Y-81878690D01*
X154345238Y-81831071D01*
X154250000Y-81735833D01*
X154202380Y-81592976D01*
X154202380Y-81497738D01*
X154250000Y-81354880D01*
X154297619Y-81307261D01*
%LPC*%
D11*
%TO.C,M3*%
X160000000Y-57000000D03*
%TD*%
%TO.C,M3*%
X160000000Y-97500000D03*
%TD*%
M02*
