%TF.GenerationSoftware,KiCad,Pcbnew,(6.0.0)*%
%TF.CreationDate,2022-03-07T21:34:01-05:00*%
%TF.ProjectId,custom_keyboard plate v3 foot,63757374-6f6d-45f6-9b65-79626f617264,rev?*%
%TF.SameCoordinates,Original*%
%TF.FileFunction,Legend,Bot*%
%TF.FilePolarity,Positive*%
%FSLAX46Y46*%
G04 Gerber Fmt 4.6, Leading zero omitted, Abs format (unit mm)*
G04 Created by KiCad (PCBNEW (6.0.0)) date 2022-03-07 21:34:01*
%MOMM*%
%LPD*%
G01*
G04 APERTURE LIST*
%ADD10C,0.150000*%
%ADD11C,3.200000*%
G04 APERTURE END LIST*
D10*
X154440257Y-74966048D02*
X154392638Y-74870810D01*
X154392638Y-74680334D01*
X154440257Y-74585096D01*
X154535495Y-74489858D01*
X154630733Y-74442239D01*
X154821209Y-74442239D01*
X154916447Y-74489858D01*
X155011685Y-74585096D01*
X155059304Y-74680334D01*
X155059304Y-74870810D01*
X155011685Y-74966048D01*
X154059304Y-74775572D02*
X154106923Y-74537477D01*
X154249781Y-74299381D01*
X154487876Y-74156524D01*
X154725971Y-74108905D01*
X154964066Y-74156524D01*
X155202161Y-74299381D01*
X155345019Y-74537477D01*
X155392638Y-74775572D01*
X155345019Y-75013667D01*
X155202161Y-75251762D01*
X154964066Y-75394620D01*
X154725971Y-75442239D01*
X154487876Y-75394620D01*
X154249781Y-75251762D01*
X154106923Y-75013667D01*
X154059304Y-74775572D01*
X154297400Y-76585096D02*
X154249781Y-76632715D01*
X154202161Y-76727953D01*
X154202161Y-76966048D01*
X154249781Y-77061286D01*
X154297400Y-77108905D01*
X154392638Y-77156524D01*
X154487876Y-77156524D01*
X154630733Y-77108905D01*
X155202161Y-76537477D01*
X155202161Y-77156524D01*
X154202161Y-77775572D02*
X154202161Y-77870810D01*
X154249781Y-77966048D01*
X154297400Y-78013667D01*
X154392638Y-78061286D01*
X154583114Y-78108905D01*
X154821209Y-78108905D01*
X155011685Y-78061286D01*
X155106923Y-78013667D01*
X155154542Y-77966048D01*
X155202161Y-77870810D01*
X155202161Y-77775572D01*
X155154542Y-77680334D01*
X155106923Y-77632715D01*
X155011685Y-77585096D01*
X154821209Y-77537477D01*
X154583114Y-77537477D01*
X154392638Y-77585096D01*
X154297400Y-77632715D01*
X154249781Y-77680334D01*
X154202161Y-77775572D01*
X154297400Y-78489858D02*
X154249781Y-78537477D01*
X154202161Y-78632715D01*
X154202161Y-78870810D01*
X154249781Y-78966048D01*
X154297400Y-79013667D01*
X154392638Y-79061286D01*
X154487876Y-79061286D01*
X154630733Y-79013667D01*
X155202161Y-78442239D01*
X155202161Y-79061286D01*
X154297400Y-79442239D02*
X154249781Y-79489858D01*
X154202161Y-79585096D01*
X154202161Y-79823191D01*
X154249781Y-79918429D01*
X154297400Y-79966048D01*
X154392638Y-80013667D01*
X154487876Y-80013667D01*
X154630733Y-79966048D01*
X155202161Y-79394620D01*
X155202161Y-80013667D01*
X155202161Y-81204143D02*
X154202161Y-81204143D01*
X154678352Y-81204143D02*
X154678352Y-81775572D01*
X155202161Y-81775572D02*
X154202161Y-81775572D01*
X155202161Y-82394620D02*
X155154542Y-82299381D01*
X155106923Y-82251762D01*
X155011685Y-82204143D01*
X154725971Y-82204143D01*
X154630733Y-82251762D01*
X154583114Y-82299381D01*
X154535495Y-82394620D01*
X154535495Y-82537477D01*
X154583114Y-82632715D01*
X154630733Y-82680334D01*
X154725971Y-82727953D01*
X155011685Y-82727953D01*
X155106923Y-82680334D01*
X155154542Y-82632715D01*
X155202161Y-82537477D01*
X155202161Y-82394620D01*
X154535495Y-83061286D02*
X155202161Y-83251762D01*
X154725971Y-83442239D01*
X155202161Y-83632715D01*
X154535495Y-83823191D01*
X155202161Y-84632715D02*
X154678352Y-84632715D01*
X154583114Y-84585096D01*
X154535495Y-84489858D01*
X154535495Y-84299381D01*
X154583114Y-84204143D01*
X155154542Y-84632715D02*
X155202161Y-84537477D01*
X155202161Y-84299381D01*
X155154542Y-84204143D01*
X155059304Y-84156524D01*
X154964066Y-84156524D01*
X154868828Y-84204143D01*
X154821209Y-84299381D01*
X154821209Y-84537477D01*
X154773590Y-84632715D01*
X155202161Y-85108905D02*
X154535495Y-85108905D01*
X154725971Y-85108905D02*
X154630733Y-85156524D01*
X154583114Y-85204143D01*
X154535495Y-85299381D01*
X154535495Y-85394620D01*
X155202161Y-86156524D02*
X154202161Y-86156524D01*
X155154542Y-86156524D02*
X155202161Y-86061286D01*
X155202161Y-85870810D01*
X155154542Y-85775572D01*
X155106923Y-85727953D01*
X155011685Y-85680334D01*
X154725971Y-85680334D01*
X154630733Y-85727953D01*
X154583114Y-85775572D01*
X154535495Y-85870810D01*
X154535495Y-86061286D01*
X154583114Y-86156524D01*
X154202161Y-87251762D02*
X154202161Y-87823191D01*
X155202161Y-87537477D02*
X154202161Y-87537477D01*
X155154542Y-88108905D02*
X155202161Y-88204143D01*
X155202161Y-88394620D01*
X155154542Y-88489858D01*
X155059304Y-88537477D01*
X155011685Y-88537477D01*
X154916447Y-88489858D01*
X154868828Y-88394620D01*
X154868828Y-88251762D01*
X154821209Y-88156524D01*
X154725971Y-88108905D01*
X154678352Y-88108905D01*
X154583114Y-88156524D01*
X154535495Y-88251762D01*
X154535495Y-88394620D01*
X154583114Y-88489858D01*
X155154542Y-89347000D02*
X155202161Y-89251762D01*
X155202161Y-89061286D01*
X155154542Y-88966048D01*
X155059304Y-88918429D01*
X154678352Y-88918429D01*
X154583114Y-88966048D01*
X154535495Y-89061286D01*
X154535495Y-89251762D01*
X154583114Y-89347000D01*
X154678352Y-89394620D01*
X154773590Y-89394620D01*
X154868828Y-88918429D01*
X154535495Y-89823191D02*
X155202161Y-89823191D01*
X154630733Y-89823191D02*
X154583114Y-89870810D01*
X154535495Y-89966048D01*
X154535495Y-90108905D01*
X154583114Y-90204143D01*
X154678352Y-90251762D01*
X155202161Y-90251762D01*
X154535495Y-91156524D02*
X155345019Y-91156524D01*
X155440257Y-91108905D01*
X155487876Y-91061286D01*
X155535495Y-90966048D01*
X155535495Y-90823191D01*
X155487876Y-90727953D01*
X155154542Y-91156524D02*
X155202161Y-91061286D01*
X155202161Y-90870810D01*
X155154542Y-90775572D01*
X155106923Y-90727953D01*
X155011685Y-90680334D01*
X154725971Y-90680334D01*
X154630733Y-90727953D01*
X154583114Y-90775572D01*
X154535495Y-90870810D01*
X154535495Y-91061286D01*
X154583114Y-91156524D01*
%LPC*%
D11*
%TO.C,M3*%
X160000000Y-57000000D03*
%TD*%
%TO.C,M3*%
X160000000Y-97500000D03*
%TD*%
M02*
