%FSLAX45Y45*%
G04 Gerber Fmt 4.5, Leading zero omitted, Abs format (unit mm)*
G04 Created by KiCad (PCBNEW (6.0.0)) date 2022-03-07 21:34:06*
%MOMM*%
%LPD*%
G01*
G04 APERTURE LIST*
%TA.AperFunction,Profile*%
%ADD10C,0.100000*%
%TD*%
%ADD11C,0.200000*%
G04 APERTURE END LIST*
D10*
X15400000Y-4200000D02*
X15550000Y-4200000D01*
X15560000Y-14140000D02*
X16050000Y-13750000D01*
X15390000Y-9200000D02*
X15560000Y-9200000D01*
X15400000Y-5000000D02*
X15400000Y-4200000D01*
X15390000Y-9200000D02*
X15390000Y-14140000D01*
X15560000Y-14140000D02*
X15560000Y-9200000D01*
X15550000Y-4200000D02*
X16900000Y-5550000D01*
X15390000Y-14140000D02*
X14900000Y-13650000D01*
X15400000Y-5000000D02*
X14900000Y-5000000D01*
X14900000Y-8400000D02*
X14900000Y-5000000D01*
X14900000Y-8900000D02*
X14900000Y-13650000D01*
X15200000Y-8900000D02*
X14900000Y-8900000D01*
X14900000Y-8400000D02*
X15200000Y-8400000D01*
X15200000Y-8400000D02*
X15200000Y-8900000D01*
X16900000Y-5550000D02*
X16050000Y-13750000D01*
D11*
X15152619Y-14455476D02*
X15152619Y-14255476D01*
X15200238Y-14255476D01*
X15228809Y-14265000D01*
X15247857Y-14284048D01*
X15257381Y-14303095D01*
X15266905Y-14341190D01*
X15266905Y-14369762D01*
X15257381Y-14407857D01*
X15247857Y-14426905D01*
X15228809Y-14445952D01*
X15200238Y-14455476D01*
X15152619Y-14455476D01*
X15352619Y-14455476D02*
X15352619Y-14322143D01*
X15352619Y-14360238D02*
X15362143Y-14341190D01*
X15371667Y-14331667D01*
X15390714Y-14322143D01*
X15409762Y-14322143D01*
X15476428Y-14455476D02*
X15476428Y-14322143D01*
X15476428Y-14255476D02*
X15466905Y-14265000D01*
X15476428Y-14274524D01*
X15485952Y-14265000D01*
X15476428Y-14255476D01*
X15476428Y-14274524D01*
X15600238Y-14455476D02*
X15581190Y-14445952D01*
X15571667Y-14426905D01*
X15571667Y-14255476D01*
X15705000Y-14455476D02*
X15685952Y-14445952D01*
X15676428Y-14426905D01*
X15676428Y-14255476D01*
X15933571Y-14455476D02*
X15933571Y-14255476D01*
X16000238Y-14398333D01*
X16066905Y-14255476D01*
X16066905Y-14455476D01*
X16247857Y-14455476D02*
X16247857Y-14350714D01*
X16238333Y-14331667D01*
X16219286Y-14322143D01*
X16181190Y-14322143D01*
X16162143Y-14331667D01*
X16247857Y-14445952D02*
X16228809Y-14455476D01*
X16181190Y-14455476D01*
X16162143Y-14445952D01*
X16152619Y-14426905D01*
X16152619Y-14407857D01*
X16162143Y-14388809D01*
X16181190Y-14379286D01*
X16228809Y-14379286D01*
X16247857Y-14369762D01*
X16343095Y-14322143D02*
X16343095Y-14522143D01*
X16343095Y-14331667D02*
X16362143Y-14322143D01*
X16400238Y-14322143D01*
X16419286Y-14331667D01*
X16428809Y-14341190D01*
X16438333Y-14360238D01*
X16438333Y-14417381D01*
X16428809Y-14436428D01*
X16419286Y-14445952D01*
X16400238Y-14455476D01*
X16362143Y-14455476D01*
X16343095Y-14445952D01*
X16524048Y-14436428D02*
X16533571Y-14445952D01*
X16524048Y-14455476D01*
X16514524Y-14445952D01*
X16524048Y-14436428D01*
X16524048Y-14455476D01*
X16524048Y-14331667D02*
X16533571Y-14341190D01*
X16524048Y-14350714D01*
X16514524Y-14341190D01*
X16524048Y-14331667D01*
X16524048Y-14350714D01*
M02*
