%FSLAX45Y45*%
G04 Gerber Fmt 4.5, Leading zero omitted, Abs format (unit mm)*
G04 Created by KiCad (PCBNEW (6.0.0)) date 2022-03-05 17:09:39*
%MOMM*%
%LPD*%
G01*
G04 APERTURE LIST*
%TA.AperFunction,Profile*%
%ADD10C,0.100000*%
%TD*%
%ADD11C,0.200000*%
%ADD12C,0.320000*%
G04 APERTURE END LIST*
D10*
X14900000Y-8900000D02*
X14900000Y-13650000D01*
X14900000Y-8400000D02*
X14900000Y-5000000D01*
X14900000Y-8400000D02*
X15200000Y-8400000D01*
X15200000Y-8900000D02*
X14900000Y-8900000D01*
X15200000Y-8400000D02*
X15200000Y-8900000D01*
X15550000Y-14150000D02*
X15550000Y-9200000D01*
X15400000Y-9200000D02*
X15400000Y-14150000D01*
X16900000Y-5550000D02*
X16050000Y-13750000D01*
X15550000Y-4200000D02*
X16900000Y-5550000D01*
X15400000Y-9200000D02*
X15550000Y-9200000D01*
X15400000Y-14150000D02*
X14900000Y-13650000D01*
X15400000Y-5000000D02*
X14900000Y-5000000D01*
X15400000Y-5000000D02*
X15400000Y-4200000D01*
X15400000Y-4200000D02*
X15550000Y-4200000D01*
X15550000Y-14150000D02*
X16050000Y-13750000D01*
D11*
D12*
X15840000Y-5540000D02*
X16160000Y-5860000D01*
X16160000Y-5540000D02*
X15840000Y-5860000D01*
X15840000Y-9590000D02*
X16160000Y-9910000D01*
X16160000Y-9590000D02*
X15840000Y-9910000D01*
D11*
X15152619Y-14465476D02*
X15152619Y-14265476D01*
X15200238Y-14265476D01*
X15228809Y-14275000D01*
X15247857Y-14294048D01*
X15257381Y-14313095D01*
X15266905Y-14351190D01*
X15266905Y-14379762D01*
X15257381Y-14417857D01*
X15247857Y-14436905D01*
X15228809Y-14455952D01*
X15200238Y-14465476D01*
X15152619Y-14465476D01*
X15352619Y-14465476D02*
X15352619Y-14332143D01*
X15352619Y-14370238D02*
X15362143Y-14351190D01*
X15371667Y-14341667D01*
X15390714Y-14332143D01*
X15409762Y-14332143D01*
X15476428Y-14465476D02*
X15476428Y-14332143D01*
X15476428Y-14265476D02*
X15466905Y-14275000D01*
X15476428Y-14284524D01*
X15485952Y-14275000D01*
X15476428Y-14265476D01*
X15476428Y-14284524D01*
X15600238Y-14465476D02*
X15581190Y-14455952D01*
X15571667Y-14436905D01*
X15571667Y-14265476D01*
X15705000Y-14465476D02*
X15685952Y-14455952D01*
X15676428Y-14436905D01*
X15676428Y-14265476D01*
X15933571Y-14465476D02*
X15933571Y-14265476D01*
X16000238Y-14408333D01*
X16066905Y-14265476D01*
X16066905Y-14465476D01*
X16247857Y-14465476D02*
X16247857Y-14360714D01*
X16238333Y-14341667D01*
X16219286Y-14332143D01*
X16181190Y-14332143D01*
X16162143Y-14341667D01*
X16247857Y-14455952D02*
X16228809Y-14465476D01*
X16181190Y-14465476D01*
X16162143Y-14455952D01*
X16152619Y-14436905D01*
X16152619Y-14417857D01*
X16162143Y-14398809D01*
X16181190Y-14389286D01*
X16228809Y-14389286D01*
X16247857Y-14379762D01*
X16343095Y-14332143D02*
X16343095Y-14532143D01*
X16343095Y-14341667D02*
X16362143Y-14332143D01*
X16400238Y-14332143D01*
X16419286Y-14341667D01*
X16428809Y-14351190D01*
X16438333Y-14370238D01*
X16438333Y-14427381D01*
X16428809Y-14446428D01*
X16419286Y-14455952D01*
X16400238Y-14465476D01*
X16362143Y-14465476D01*
X16343095Y-14455952D01*
X16524048Y-14446428D02*
X16533571Y-14455952D01*
X16524048Y-14465476D01*
X16514524Y-14455952D01*
X16524048Y-14446428D01*
X16524048Y-14465476D01*
X16524048Y-14341667D02*
X16533571Y-14351190D01*
X16524048Y-14360714D01*
X16514524Y-14351190D01*
X16524048Y-14341667D01*
X16524048Y-14360714D01*
X14695000Y-14695000D02*
X14895000Y-14895000D01*
X14895000Y-14695000D02*
X14695000Y-14895000D01*
X15133571Y-14685476D02*
X15257381Y-14685476D01*
X15190714Y-14761667D01*
X15219286Y-14761667D01*
X15238333Y-14771190D01*
X15247857Y-14780714D01*
X15257381Y-14799762D01*
X15257381Y-14847381D01*
X15247857Y-14866428D01*
X15238333Y-14875952D01*
X15219286Y-14885476D01*
X15162143Y-14885476D01*
X15143095Y-14875952D01*
X15133571Y-14866428D01*
X15343095Y-14866428D02*
X15352619Y-14875952D01*
X15343095Y-14885476D01*
X15333571Y-14875952D01*
X15343095Y-14866428D01*
X15343095Y-14885476D01*
X15428809Y-14704524D02*
X15438333Y-14695000D01*
X15457381Y-14685476D01*
X15505000Y-14685476D01*
X15524048Y-14695000D01*
X15533571Y-14704524D01*
X15543095Y-14723571D01*
X15543095Y-14742619D01*
X15533571Y-14771190D01*
X15419286Y-14885476D01*
X15543095Y-14885476D01*
X15666905Y-14685476D02*
X15685952Y-14685476D01*
X15705000Y-14695000D01*
X15714524Y-14704524D01*
X15724048Y-14723571D01*
X15733571Y-14761667D01*
X15733571Y-14809286D01*
X15724048Y-14847381D01*
X15714524Y-14866428D01*
X15705000Y-14875952D01*
X15685952Y-14885476D01*
X15666905Y-14885476D01*
X15647857Y-14875952D01*
X15638333Y-14866428D01*
X15628809Y-14847381D01*
X15619286Y-14809286D01*
X15619286Y-14761667D01*
X15628809Y-14723571D01*
X15638333Y-14704524D01*
X15647857Y-14695000D01*
X15666905Y-14685476D01*
X15857381Y-14685476D02*
X15876428Y-14685476D01*
X15895476Y-14695000D01*
X15905000Y-14704524D01*
X15914524Y-14723571D01*
X15924048Y-14761667D01*
X15924048Y-14809286D01*
X15914524Y-14847381D01*
X15905000Y-14866428D01*
X15895476Y-14875952D01*
X15876428Y-14885476D01*
X15857381Y-14885476D01*
X15838333Y-14875952D01*
X15828809Y-14866428D01*
X15819286Y-14847381D01*
X15809762Y-14809286D01*
X15809762Y-14761667D01*
X15819286Y-14723571D01*
X15828809Y-14704524D01*
X15838333Y-14695000D01*
X15857381Y-14685476D01*
X16009762Y-14885476D02*
X16009762Y-14752143D01*
X16009762Y-14771190D02*
X16019286Y-14761667D01*
X16038333Y-14752143D01*
X16066905Y-14752143D01*
X16085952Y-14761667D01*
X16095476Y-14780714D01*
X16095476Y-14885476D01*
X16095476Y-14780714D02*
X16105000Y-14761667D01*
X16124048Y-14752143D01*
X16152619Y-14752143D01*
X16171667Y-14761667D01*
X16181190Y-14780714D01*
X16181190Y-14885476D01*
X16276428Y-14885476D02*
X16276428Y-14752143D01*
X16276428Y-14771190D02*
X16285952Y-14761667D01*
X16305000Y-14752143D01*
X16333571Y-14752143D01*
X16352619Y-14761667D01*
X16362143Y-14780714D01*
X16362143Y-14885476D01*
X16362143Y-14780714D02*
X16371667Y-14761667D01*
X16390714Y-14752143D01*
X16419286Y-14752143D01*
X16438333Y-14761667D01*
X16447857Y-14780714D01*
X16447857Y-14885476D01*
X16838333Y-14675952D02*
X16666905Y-14933095D01*
X17095476Y-14685476D02*
X17114524Y-14685476D01*
X17133571Y-14695000D01*
X17143095Y-14704524D01*
X17152619Y-14723571D01*
X17162143Y-14761667D01*
X17162143Y-14809286D01*
X17152619Y-14847381D01*
X17143095Y-14866428D01*
X17133571Y-14875952D01*
X17114524Y-14885476D01*
X17095476Y-14885476D01*
X17076429Y-14875952D01*
X17066905Y-14866428D01*
X17057381Y-14847381D01*
X17047857Y-14809286D01*
X17047857Y-14761667D01*
X17057381Y-14723571D01*
X17066905Y-14704524D01*
X17076429Y-14695000D01*
X17095476Y-14685476D01*
X17247857Y-14866428D02*
X17257381Y-14875952D01*
X17247857Y-14885476D01*
X17238333Y-14875952D01*
X17247857Y-14866428D01*
X17247857Y-14885476D01*
X17447857Y-14885476D02*
X17333571Y-14885476D01*
X17390714Y-14885476D02*
X17390714Y-14685476D01*
X17371667Y-14714048D01*
X17352619Y-14733095D01*
X17333571Y-14742619D01*
X17524048Y-14704524D02*
X17533571Y-14695000D01*
X17552619Y-14685476D01*
X17600238Y-14685476D01*
X17619286Y-14695000D01*
X17628810Y-14704524D01*
X17638333Y-14723571D01*
X17638333Y-14742619D01*
X17628810Y-14771190D01*
X17514524Y-14885476D01*
X17638333Y-14885476D01*
X17809762Y-14685476D02*
X17771667Y-14685476D01*
X17752619Y-14695000D01*
X17743095Y-14704524D01*
X17724048Y-14733095D01*
X17714524Y-14771190D01*
X17714524Y-14847381D01*
X17724048Y-14866428D01*
X17733571Y-14875952D01*
X17752619Y-14885476D01*
X17790714Y-14885476D01*
X17809762Y-14875952D01*
X17819286Y-14866428D01*
X17828810Y-14847381D01*
X17828810Y-14799762D01*
X17819286Y-14780714D01*
X17809762Y-14771190D01*
X17790714Y-14761667D01*
X17752619Y-14761667D01*
X17733571Y-14771190D01*
X17724048Y-14780714D01*
X17714524Y-14799762D01*
X17952619Y-14685476D02*
X17971667Y-14685476D01*
X17990714Y-14695000D01*
X18000238Y-14704524D01*
X18009762Y-14723571D01*
X18019286Y-14761667D01*
X18019286Y-14809286D01*
X18009762Y-14847381D01*
X18000238Y-14866428D01*
X17990714Y-14875952D01*
X17971667Y-14885476D01*
X17952619Y-14885476D01*
X17933571Y-14875952D01*
X17924048Y-14866428D01*
X17914524Y-14847381D01*
X17905000Y-14809286D01*
X17905000Y-14761667D01*
X17914524Y-14723571D01*
X17924048Y-14704524D01*
X17933571Y-14695000D01*
X17952619Y-14685476D01*
X18095476Y-14685476D02*
X18095476Y-14723571D01*
X18171667Y-14685476D02*
X18171667Y-14723571D01*
X18466905Y-14961667D02*
X18457381Y-14952143D01*
X18438333Y-14923571D01*
X18428810Y-14904524D01*
X18419286Y-14875952D01*
X18409762Y-14828333D01*
X18409762Y-14790238D01*
X18419286Y-14742619D01*
X18428810Y-14714048D01*
X18438333Y-14695000D01*
X18457381Y-14666428D01*
X18466905Y-14656905D01*
X18533571Y-14704524D02*
X18543095Y-14695000D01*
X18562143Y-14685476D01*
X18609762Y-14685476D01*
X18628810Y-14695000D01*
X18638333Y-14704524D01*
X18647857Y-14723571D01*
X18647857Y-14742619D01*
X18638333Y-14771190D01*
X18524048Y-14885476D01*
X18647857Y-14885476D01*
X18885952Y-14885476D02*
X18885952Y-14685476D01*
X18971667Y-14885476D02*
X18971667Y-14780714D01*
X18962143Y-14761667D01*
X18943095Y-14752143D01*
X18914524Y-14752143D01*
X18895476Y-14761667D01*
X18885952Y-14771190D01*
X19095476Y-14885476D02*
X19076429Y-14875952D01*
X19066905Y-14866428D01*
X19057381Y-14847381D01*
X19057381Y-14790238D01*
X19066905Y-14771190D01*
X19076429Y-14761667D01*
X19095476Y-14752143D01*
X19124048Y-14752143D01*
X19143095Y-14761667D01*
X19152619Y-14771190D01*
X19162143Y-14790238D01*
X19162143Y-14847381D01*
X19152619Y-14866428D01*
X19143095Y-14875952D01*
X19124048Y-14885476D01*
X19095476Y-14885476D01*
X19276429Y-14885476D02*
X19257381Y-14875952D01*
X19247857Y-14856905D01*
X19247857Y-14685476D01*
X19428810Y-14875952D02*
X19409762Y-14885476D01*
X19371667Y-14885476D01*
X19352619Y-14875952D01*
X19343095Y-14856905D01*
X19343095Y-14780714D01*
X19352619Y-14761667D01*
X19371667Y-14752143D01*
X19409762Y-14752143D01*
X19428810Y-14761667D01*
X19438333Y-14780714D01*
X19438333Y-14799762D01*
X19343095Y-14818809D01*
X19514524Y-14875952D02*
X19533571Y-14885476D01*
X19571667Y-14885476D01*
X19590714Y-14875952D01*
X19600238Y-14856905D01*
X19600238Y-14847381D01*
X19590714Y-14828333D01*
X19571667Y-14818809D01*
X19543095Y-14818809D01*
X19524048Y-14809286D01*
X19514524Y-14790238D01*
X19514524Y-14780714D01*
X19524048Y-14761667D01*
X19543095Y-14752143D01*
X19571667Y-14752143D01*
X19590714Y-14761667D01*
X19666905Y-14961667D02*
X19676429Y-14952143D01*
X19695476Y-14923571D01*
X19705000Y-14904524D01*
X19714524Y-14875952D01*
X19724048Y-14828333D01*
X19724048Y-14790238D01*
X19714524Y-14742619D01*
X19705000Y-14714048D01*
X19695476Y-14695000D01*
X19676429Y-14666428D01*
X19666905Y-14656905D01*
X20028810Y-14961667D02*
X20019286Y-14952143D01*
X20000238Y-14923571D01*
X19990714Y-14904524D01*
X19981190Y-14875952D01*
X19971667Y-14828333D01*
X19971667Y-14790238D01*
X19981190Y-14742619D01*
X19990714Y-14714048D01*
X20000238Y-14695000D01*
X20019286Y-14666428D01*
X20028810Y-14656905D01*
X20105000Y-14752143D02*
X20105000Y-14885476D01*
X20105000Y-14771190D02*
X20114524Y-14761667D01*
X20133571Y-14752143D01*
X20162143Y-14752143D01*
X20181190Y-14761667D01*
X20190714Y-14780714D01*
X20190714Y-14885476D01*
X20314524Y-14885476D02*
X20295476Y-14875952D01*
X20285952Y-14866428D01*
X20276429Y-14847381D01*
X20276429Y-14790238D01*
X20285952Y-14771190D01*
X20295476Y-14761667D01*
X20314524Y-14752143D01*
X20343095Y-14752143D01*
X20362143Y-14761667D01*
X20371667Y-14771190D01*
X20381190Y-14790238D01*
X20381190Y-14847381D01*
X20371667Y-14866428D01*
X20362143Y-14875952D01*
X20343095Y-14885476D01*
X20314524Y-14885476D01*
X20438333Y-14752143D02*
X20514524Y-14752143D01*
X20466905Y-14685476D02*
X20466905Y-14856905D01*
X20476429Y-14875952D01*
X20495476Y-14885476D01*
X20514524Y-14885476D01*
X20733571Y-14752143D02*
X20733571Y-14952143D01*
X20733571Y-14761667D02*
X20752619Y-14752143D01*
X20790714Y-14752143D01*
X20809762Y-14761667D01*
X20819286Y-14771190D01*
X20828810Y-14790238D01*
X20828810Y-14847381D01*
X20819286Y-14866428D01*
X20809762Y-14875952D01*
X20790714Y-14885476D01*
X20752619Y-14885476D01*
X20733571Y-14875952D01*
X20943095Y-14885476D02*
X20924048Y-14875952D01*
X20914524Y-14856905D01*
X20914524Y-14685476D01*
X21105000Y-14885476D02*
X21105000Y-14780714D01*
X21095476Y-14761667D01*
X21076429Y-14752143D01*
X21038333Y-14752143D01*
X21019286Y-14761667D01*
X21105000Y-14875952D02*
X21085952Y-14885476D01*
X21038333Y-14885476D01*
X21019286Y-14875952D01*
X21009762Y-14856905D01*
X21009762Y-14837857D01*
X21019286Y-14818809D01*
X21038333Y-14809286D01*
X21085952Y-14809286D01*
X21105000Y-14799762D01*
X21171667Y-14752143D02*
X21247857Y-14752143D01*
X21200238Y-14685476D02*
X21200238Y-14856905D01*
X21209762Y-14875952D01*
X21228810Y-14885476D01*
X21247857Y-14885476D01*
X21390714Y-14875952D02*
X21371667Y-14885476D01*
X21333571Y-14885476D01*
X21314524Y-14875952D01*
X21305000Y-14856905D01*
X21305000Y-14780714D01*
X21314524Y-14761667D01*
X21333571Y-14752143D01*
X21371667Y-14752143D01*
X21390714Y-14761667D01*
X21400238Y-14780714D01*
X21400238Y-14799762D01*
X21305000Y-14818809D01*
X21571667Y-14885476D02*
X21571667Y-14685476D01*
X21571667Y-14875952D02*
X21552619Y-14885476D01*
X21514524Y-14885476D01*
X21495476Y-14875952D01*
X21485952Y-14866428D01*
X21476429Y-14847381D01*
X21476429Y-14790238D01*
X21485952Y-14771190D01*
X21495476Y-14761667D01*
X21514524Y-14752143D01*
X21552619Y-14752143D01*
X21571667Y-14761667D01*
X21647857Y-14961667D02*
X21657381Y-14952143D01*
X21676429Y-14923571D01*
X21685952Y-14904524D01*
X21695476Y-14875952D01*
X21705000Y-14828333D01*
X21705000Y-14790238D01*
X21695476Y-14742619D01*
X21685952Y-14714048D01*
X21676429Y-14695000D01*
X21657381Y-14666428D01*
X21647857Y-14656905D01*
M02*
