M48
; DRILL file {KiCad (6.0.0)} date Fri Mar  4 19:43:27 2022
; FORMAT={-:-/ absolute / inch / decimal}
; #@! TF.CreationDate,2022-03-04T19:43:27-05:00
; #@! TF.GenerationSoftware,Kicad,Pcbnew,(6.0.0)
; #@! TF.FileFunction,Plated,1,2,PTH
FMAT,2
INCH
; #@! TA.AperFunction,Plated,PTH,ViaDrill
T1C0.0157
; #@! TA.AperFunction,Plated,PTH,ComponentDrill
T2C0.0157
; #@! TA.AperFunction,Plated,PTH,ComponentDrill
T3C0.0197
; #@! TA.AperFunction,Plated,PTH,ComponentDrill
T4C0.0236
; #@! TA.AperFunction,Plated,PTH,ComponentDrill
T5C0.0300
; #@! TA.AperFunction,Plated,PTH,ComponentDrill
T6C0.0320
; #@! TA.AperFunction,Plated,PTH,ComponentDrill
T7C0.0394
; #@! TA.AperFunction,Plated,PTH,ComponentDrill
T8C0.0591
; #@! TA.AperFunction,Plated,PTH,ComponentDrill
T9C0.1181
%
G90
G05
T1
X0.8437Y-5.2809
X0.8437Y-6.0309
X0.8437Y-6.7808
X0.8437Y-7.5308
X0.8749Y-5.3434
X0.8749Y-5.9684
X0.8749Y-6.0934
X0.8749Y-6.7183
X0.8749Y-6.8433
X0.8749Y-7.4683
X0.8749Y-7.5933
X0.8749Y-8.2182
X0.9062Y-5.4997
X0.9062Y-6.2496
X0.9062Y-6.9996
X0.9062Y-7.7495
X0.9687Y-5.4059
X0.9687Y-6.1559
X0.9687Y-6.8433
X0.9687Y-7.5933
X0.9999Y-5.1559
X0.9999Y-5.2184
X0.9999Y-5.9059
X0.9999Y-5.9684
X0.9999Y-6.6558
X0.9999Y-6.7183
X0.9999Y-7.4058
X0.9999Y-7.4683
X0.9999Y-8.1557
X0.9999Y-8.2182
X1.0312Y-4.3747
X1.0624Y-6.5308
X1.1249Y-4.7497
X1.1249Y-5.4997
X1.1249Y-6.2496
X1.1249Y-6.9996
X1.1249Y-7.7495
X1.1874Y-3.8435
X1.3124Y-5.3434
X1.3124Y-6.0934
X1.3124Y-6.8433
X1.3124Y-7.5933
X1.4999Y-5.0934
X1.4999Y-5.8434
X1.4999Y-6.5933
X1.4999Y-7.3433
X1.4999Y-8.0932
X1.5312Y-5.2184
X1.5312Y-5.9684
X1.5312Y-6.7183
X1.5312Y-7.4683
X1.5312Y-8.2182
X1.8124Y-3.6248
X1.9061Y-6.2496
X1.9061Y-7.7495
X1.9374Y-4.031
X1.9374Y-5.1559
X1.9686Y-4.2185
X1.9999Y-5.4997
X1.9999Y-7.562
X2.0311Y-6.6558
X2.0311Y-8.1557
X2.0624Y-3.6248
X2.0624Y-4.7497
X2.1249Y-5.9059
X2.1249Y-7.2183
X2.1561Y-6.2496
X2.1561Y-7.7495
X2.2499Y-5.4997
X2.2499Y-7.562
X2.2655Y-4.3279
X2.2811Y-6.9996
X2.3124Y-7.4683
X2.3749Y-4.5935
X2.4061Y-7.4058
X2.4373Y-3.9685
X2.4373Y-5.0934
X2.4686Y-4.0935
X2.4686Y-5.2184
X2.5311Y-6.5933
X2.5311Y-6.9996
X2.5311Y-8.0932
X2.5623Y-3.6248
X2.5623Y-6.7183
X2.5623Y-8.2182
X2.6248Y-5.8434
X2.6561Y-5.9684
X2.6873Y-5.1559
X2.8123Y-3.6248
X2.8123Y-4.7497
X2.8436Y-7.7495
X2.8748Y-4.281
X2.9061Y-7.3433
X2.9373Y-5.4997
X2.9373Y-7.438
X2.9373Y-7.562
X2.9686Y-8.1557
X3.0623Y-5.9059
X3.0623Y-7.2183
X3.0936Y-7.7495
X3.1248Y-4.5935
X3.1248Y-6.2496
X3.1873Y-3.9685
X3.1873Y-5.0934
X3.1873Y-5.4997
X3.1873Y-7.562
X3.2185Y-5.2184
X3.2498Y-6.6558
X3.3123Y-3.6248
X3.3748Y-6.2496
X3.3748Y-6.9683
X3.4373Y-4.031
X3.4373Y-5.1559
X3.4373Y-7.4683
X3.4685Y-8.0932
X3.4998Y-8.2182
X3.5623Y-3.6248
X3.5623Y-4.7497
X3.5623Y-5.8434
X3.5623Y-6.9996
X3.5935Y-5.9684
X3.6248Y-4.281
X3.6248Y-7.4058
X3.6873Y-5.4997
X3.7498Y-6.5933
X3.7498Y-6.9996
X3.781Y-6.7183
X3.781Y-7.7495
X3.8123Y-5.9059
X3.8748Y-4.5935
X3.8748Y-6.2496
X3.906Y-8.1557
X3.9373Y-3.9685
X3.9373Y-5.0934
X3.9373Y-5.4997
X3.9685Y-4.0935
X3.9685Y-5.2184
X3.9997Y-6.6558
X4.031Y-7.7495
X4.0622Y-3.6248
X4.1247Y-6.2496
X4.1247Y-7.3433
X4.156Y-7.4683
X4.1872Y-4.031
X4.1872Y-5.1559
X4.3122Y-3.6248
X4.3122Y-4.7497
X4.3122Y-5.8434
X4.3122Y-6.9996
X4.3435Y-5.9684
X4.3747Y-4.281
X4.3747Y-7.4058
X4.406Y-8.0932
X4.4372Y-5.4997
X4.4372Y-8.2182
X4.4997Y-6.5933
X4.4997Y-6.9996
X4.531Y-6.7183
X4.5622Y-5.9059
X4.6247Y-4.5935
X4.6247Y-6.2496
X4.6872Y-3.9685
X4.6872Y-5.0934
X4.6872Y-5.4997
X4.7185Y-4.0935
X4.7185Y-5.2184
X4.7497Y-6.6558
X4.7809Y-7.5933
X4.8122Y-3.6248
X4.8278Y-8.2182
X4.8747Y-6.2496
X4.8747Y-7.3433
X4.9059Y-7.4683
X4.9372Y-4.031
X4.9372Y-5.1559
X4.9372Y-7.9682
X5.0622Y-3.6248
X5.0622Y-4.7497
X5.0622Y-5.8434
X5.0622Y-6.9996
X5.0622Y-8.2182
X5.0934Y-5.9684
X5.0934Y-7.5933
X5.1247Y-4.281
X5.1247Y-7.4058
X5.1872Y-5.4997
X5.2497Y-6.5933
X5.2497Y-6.9996
X5.2809Y-6.7183
X5.3122Y-5.9059
X5.3747Y-4.5935
X5.3747Y-6.2496
X5.4372Y-3.9685
X5.4372Y-5.0934
X5.4372Y-5.4997
X5.4684Y-4.0935
X5.4684Y-5.2184
X5.4997Y-6.6558
X5.5621Y-3.6248
X5.6246Y-6.2496
X5.6246Y-7.3433
X5.6559Y-7.4683
X5.6871Y-4.031
X5.6871Y-5.1559
X5.8121Y-3.6248
X5.8121Y-4.7497
X5.8121Y-5.8434
X5.8121Y-6.9996
X5.8434Y-5.9684
X5.8746Y-4.281
X5.8746Y-7.4058
X5.9371Y-5.4997
X5.9996Y-6.5933
X5.9996Y-6.9996
X6.0309Y-6.7183
X6.0621Y-5.9059
X6.1246Y-4.5935
X6.1246Y-6.2496
X6.1871Y-3.9685
X6.1871Y-5.0934
X6.1871Y-5.4997
X6.2184Y-4.0935
X6.2184Y-5.2184
X6.2496Y-6.6558
X6.3746Y-6.2496
X6.3746Y-7.3433
X6.4058Y-7.4683
X6.4371Y-3.8435
X6.4371Y-5.1559
X6.5621Y-4.7497
X6.5621Y-5.8434
X6.5621Y-6.9996
X6.5933Y-5.9684
X6.5933Y-7.7495
X6.5933Y-8.2182
X6.6246Y-4.281
X6.6246Y-7.4058
X6.6871Y-3.6248
X6.6871Y-5.4997
X6.7183Y-8.1557
X6.7496Y-6.5933
X6.7496Y-6.9996
X6.7808Y-6.7183
X6.8121Y-4.031
X6.8121Y-5.9059
X6.8433Y-7.7495
X6.8746Y-4.5935
X6.8746Y-6.2496
X6.9371Y-3.6248
X6.9371Y-5.0934
X6.9371Y-5.4997
X6.9683Y-5.2184
X6.9996Y-6.6558
X7.1246Y-6.2496
X7.1246Y-7.3433
X7.1558Y-7.4683
X7.187Y-5.1559
X7.2183Y-8.0932
X7.2495Y-8.2182
X7.312Y-3.9685
X7.312Y-4.7497
X7.312Y-5.8434
X7.312Y-6.9996
X7.3433Y-4.0935
X7.3433Y-5.9684
X7.3745Y-3.656
X7.3745Y-4.281
X7.3745Y-7.4058
X7.437Y-3.6248
X7.437Y-5.4997
X7.4995Y-6.5933
X7.4995Y-6.9996
X7.5308Y-6.7183
X7.562Y-4.031
X7.562Y-5.9059
X7.6245Y-4.5935
X7.6245Y-6.2496
X7.687Y-3.6248
X7.687Y-5.0934
X7.687Y-5.4997
X7.7183Y-5.2184
X7.7495Y-6.6558
X7.8745Y-6.2496
X7.8745Y-7.3433
X7.9058Y-7.4683
X7.937Y-5.1559
X8.062Y-3.9685
X8.062Y-4.7497
X8.062Y-5.8434
X8.062Y-6.9996
X8.0932Y-4.0935
X8.0932Y-5.9684
X8.1245Y-4.281
X8.1245Y-7.4058
X8.187Y-3.6248
X8.187Y-5.4997
X8.2495Y-6.5933
X8.2495Y-6.9996
X8.2807Y-6.7183
X8.312Y-4.031
X8.312Y-5.9059
X8.3745Y-4.5935
X8.3745Y-6.2496
X8.437Y-3.6248
X8.437Y-5.0934
X8.437Y-5.4997
X8.4682Y-5.2184
X8.4995Y-6.6558
X8.6245Y-6.2496
X8.6245Y-7.3433
X8.6557Y-7.4683
X8.687Y-5.1559
X8.7182Y-7.5933
X8.7651Y-8.2182
X8.8119Y-3.9685
X8.8119Y-4.7497
X8.8119Y-5.8434
X8.8119Y-6.9996
X8.8432Y-4.0935
X8.8432Y-5.9684
X8.8744Y-3.656
X8.8744Y-7.4058
X8.8744Y-7.9682
X8.9369Y-3.6248
X8.9369Y-5.4997
X8.9838Y-8.2182
X8.9994Y-6.5933
X8.9994Y-6.9996
X9.0307Y-6.7183
X9.0307Y-7.5933
X9.0619Y-4.031
X9.0619Y-5.9059
X9.1244Y-6.2496
X9.1869Y-3.6248
X9.1869Y-5.0934
X9.1869Y-5.4997
X9.2182Y-5.2184
X9.2494Y-6.6558
X9.2494Y-8.2182
X9.3744Y-6.2496
X9.3744Y-7.3433
X9.4057Y-7.4683
X9.4057Y-7.7495
X9.4369Y-5.1559
X9.5306Y-8.1557
X9.5619Y-3.9685
X9.5619Y-4.7497
X9.5619Y-5.8434
X9.5619Y-6.9996
X9.5931Y-3.6091
X9.5931Y-4.0935
X9.5931Y-5.9684
X9.6244Y-3.7654
X9.6244Y-3.9685
X9.6244Y-4.0622
X9.6244Y-7.4058
X9.64Y-3.4373
X9.6556Y-7.7495
X9.6869Y-4.1872
X9.6869Y-4.3122
X9.6869Y-5.4997
X9.7494Y-3.9213
X9.7494Y-4.2185
X9.7494Y-6.5933
X9.7494Y-6.9996
X9.7806Y-6.7183
X9.8119Y-5.9059
X9.8431Y-4.3122
X9.8744Y-3.9216
X9.8744Y-4.2185
X9.8744Y-6.2496
X9.9062Y-3.6873
X9.9369Y-3.9685
X9.9369Y-4.156
X9.9369Y-5.0934
X9.9369Y-5.4997
X9.9369Y-4.0622
X9.9681Y-5.2184
X9.9994Y-6.6558
X10.0306Y-8.0932
X10.0619Y-3.6248
X10.0619Y-8.2182
X10.1244Y-4.3122
X10.1244Y-6.2496
X10.1244Y-7.3433
X10.1556Y-7.4683
X10.1869Y-4.031
X10.1869Y-5.1559
X10.3119Y-3.6248
X10.3119Y-4.7497
X10.3119Y-5.8434
X10.3119Y-6.9996
X10.3275Y-4.2185
X10.3275Y-4.3122
X10.3431Y-5.9684
X10.3431Y-7.7495
X10.3743Y-7.4058
X10.4368Y-5.4997
X10.4681Y-8.1557
X10.4993Y-6.5933
X10.4993Y-6.9996
X10.5306Y-6.7183
X10.5618Y-5.9059
X10.5931Y-7.7495
X10.6087Y-4.2185
X10.6087Y-4.3122
X10.6243Y-6.2496
X10.6868Y-3.9685
X10.6868Y-5.0934
X10.6868Y-5.4997
X10.7181Y-4.0935
X10.7181Y-5.2184
X10.7493Y-6.6558
X10.8118Y-3.6248
X10.8743Y-6.2496
X10.8743Y-7.3433
X10.9056Y-7.4683
X10.9368Y-4.031
X10.9368Y-5.1559
X10.9681Y-8.0932
X10.9993Y-8.2182
X11.0618Y-3.6248
X11.0618Y-4.7497
X11.0618Y-5.8434
X11.0774Y-4.2185
X11.0774Y-4.3122
X11.0931Y-5.9684
X11.1868Y-5.4997
X11.2493Y-6.5933
X11.2805Y-6.7183
X11.2805Y-7.7495
X11.3118Y-5.9059
X11.3587Y-4.2185
X11.3587Y-4.3122
X11.3743Y-7.562
X11.4055Y-8.1557
X11.4368Y-3.9685
X11.4368Y-5.0934
X11.4368Y-5.4997
X11.468Y-4.0935
X11.468Y-5.2184
X11.4993Y-7.2183
X11.5305Y-7.7495
X11.5618Y-3.6248
X11.5618Y-6.0934
X11.593Y-6.7183
X11.6243Y-7.562
X11.6555Y-5.3122
X11.6555Y-6.9996
X11.6868Y-4.031
X11.6868Y-6.4683
X11.6868Y-7.4683
X11.7805Y-4.9684
X11.7805Y-6.7183
X11.7851Y-7.4012
X11.8118Y-3.6248
X11.8118Y-5.8434
X11.8118Y-6.0934
X11.843Y-5.9684
X11.843Y-6.2496
X11.9055Y-6.9996
X11.9055Y-8.0932
X11.9367Y-8.2182
X11.968Y-6.6558
X11.9836Y-5.234
X12.0617Y-5.1559
X12.093Y-6.2496
X12.1242Y-5.4997
X12.1867Y-3.9685
X12.1867Y-4.7497
X12.1867Y-7.6558
X12.218Y-4.0935
X12.218Y-4.2185
X12.218Y-4.3122
X12.2492Y-5.9059
X12.2805Y-7.3433
X12.3054Y-7.4619
X12.3117Y-3.6248
X12.3117Y-7.562
X12.343Y-8.1557
X12.3742Y-5.4997
X12.4055Y-4.2185
X12.4055Y-4.3122
X12.4367Y-4.031
X12.4367Y-7.2183
X12.468Y-6.0934
X12.468Y-6.5933
X12.468Y-7.7495
X12.4992Y-6.7183
X12.5617Y-3.6248
X12.5617Y-5.0934
X12.5617Y-7.562
X12.5866Y-5.2121
X12.593Y-5.3122
X12.6242Y-6.4683
X12.7179Y-4.9684
X12.7492Y-5.8434
X12.7804Y-5.9684
X12.8117Y-4.2185
X12.8117Y-4.3122
X12.8117Y-6.1246
X12.8429Y-4.7497
X12.8429Y-5.0934
X12.8429Y-5.1872
X12.8429Y-5.8434
X12.8429Y-5.9059
X12.8429Y-8.0932
X12.8679Y-5.2809
X12.8679Y-5.3434
X12.8742Y-4.7185
X12.8742Y-8.2182
X12.9054Y-4.6872
X12.9367Y-3.9685
X12.9679Y-4.0935
X12.9992Y-6.9683
X12.9992Y-7.4683
X12.9992Y-7.812
X13.0617Y-4.3122
X13.0929Y-4.2185
X13.1085Y-6.6402
X13.1867Y-3.8435
X13.2172Y-7.0913
X13.2179Y-4.2497
X13.2453Y-6.9971
X13.2648Y-4.5153
X13.2648Y-5.0309
X13.2648Y-5.4059
X13.2648Y-5.7809
X13.2648Y-6.0623
X13.2813Y-7.0195
X13.3117Y-7.3433
X13.3117Y-7.4058
X13.3117Y-7.5933
X13.3273Y-6.6715
X13.3456Y-6.8362
X13.3585Y-4.4841
X13.3585Y-5.0309
X13.3585Y-5.4059
X13.3585Y-5.7809
X13.3742Y-7.1558
X13.4054Y-5.0934
X13.4054Y-5.1872
X13.4054Y-5.2809
X13.4054Y-5.3434
X13.4054Y-5.8434
X13.4054Y-5.9059
X13.4054Y-5.9684
X13.4367Y-6.3434
X13.4367Y-6.7496
X13.4367Y-7.437
X13.4375Y-3.6248
X13.4375Y-5.4998
X13.4991Y-6.0309
X13.5304Y-6.2809
X13.535Y-7.0979
X13.5616Y-4.031
X13.5616Y-5.1559
X13.5616Y-5.9059
X13.5616Y-8.1557
X13.5929Y-6.6871
X13.5989Y-7.0561
X13.6241Y-5.0309
X13.6241Y-7.3433
X13.6241Y-7.5308
X13.6554Y-6.2809
X13.6866Y-3.6248
X13.6866Y-4.7497
X13.6866Y-5.4997
X13.6866Y-6.8746
X13.6866Y-7.7495
X13.7491Y-4.406
X13.7617Y-7.1558
X13.7804Y-6.3121
X13.7804Y-6.7808
X13.7804Y-6.9683
X13.8116Y-7.437
X13.8741Y-6.0309
X13.8741Y-6.5465
X13.8741Y-6.8746
X13.8897Y-6.5933
X13.9366Y-6.3277
X13.9366Y-7.0621
X13.9679Y-6.6871
X13.9835Y-6.3746
X13.9991Y-7.0621
X13.9991Y-7.3433
X13.9991Y-7.5308
X14.0616Y-3.9685
X14.0616Y-5.0934
X14.0616Y-5.8434
X14.0616Y-8.0932
X14.0929Y-4.0935
X14.0929Y-5.2184
X14.0929Y-5.9684
X14.0929Y-8.2182
X14.1241Y-6.6246
X14.1599Y-7.0041
X14.1866Y-5.4997
X14.1866Y-7.2183
X14.1866Y-7.3433
X14.1866Y-7.4683
X14.1866Y-7.5933
X14.2179Y-6.2184
X14.2179Y-6.9996
X14.2179Y-7.7495
X14.2695Y-6.3434
X14.2804Y-7.5308
X14.3116Y-5.1559
X14.3116Y-5.9059
X14.3116Y-7.4058
X14.3116Y-8.1557
X14.3741Y-7.2808
X14.3741Y-8.0307
X14.4366Y-3.6248
X14.4366Y-4.7497
X14.4366Y-5.4997
X14.4366Y-6.7496
X14.4366Y-6.9996
X14.4366Y-7.7495
X14.4371Y-6.7894
X14.4678Y-6.7183
X14.4991Y-4.406
X14.5303Y-6.3746
X14.6241Y-7.5308
X14.7178Y-6.8121
X14.8116Y-3.9685
X14.8116Y-5.8434
X14.8116Y-7.3433
X14.8116Y-8.0932
X14.8428Y-5.2184
X14.8428Y-5.9684
X14.8428Y-6.3746
X14.8428Y-7.4683
X14.8428Y-7.5308
X14.8428Y-8.2182
X14.8726Y-5.8434
X14.8741Y-4.5935
X14.9053Y-5.0934
X14.9053Y-6.9996
X14.9366Y-5.4997
X14.9366Y-7.7495
X14.9366Y-8.0932
X14.9991Y-6.3746
X15.0616Y-5.1559
X15.0616Y-5.9059
X15.0616Y-8.1557
X15.1865Y-4.7497
X15.1865Y-5.4997
X15.1865Y-7.7495
X15.249Y-3.8435
X15.249Y-7.2183
X15.4678Y-6.4683
X15.5615Y-5.0934
X15.5615Y-5.8434
X15.5615Y-8.0932
X15.5928Y-5.2184
X15.5928Y-5.9684
X15.5928Y-8.2182
T2
X0.8374Y-4.8384
X0.8374Y-4.8984
X0.8374Y-5.5884
X0.8374Y-5.6484
X0.8374Y-6.3383
X0.8374Y-6.3983
X0.8374Y-7.0883
X0.8374Y-7.1483
X0.8374Y-7.8382
X0.8374Y-7.8982
X1.4874Y-4.7384
X1.4874Y-4.7984
X1.4874Y-5.4884
X1.4874Y-5.5484
X1.4874Y-6.2383
X1.4874Y-6.2983
X1.4874Y-6.9883
X1.4874Y-7.0483
X1.4874Y-7.7382
X1.4874Y-7.7982
X1.7749Y-3.7135
X1.7749Y-3.7735
X1.7749Y-4.8384
X1.7749Y-4.8984
X1.8686Y-6.3383
X1.8686Y-6.3983
X1.8686Y-7.8382
X1.8686Y-7.8982
X1.9624Y-5.5884
X1.9624Y-5.6484
X2.2436Y-7.0883
X2.2436Y-7.1483
X2.4249Y-3.6135
X2.4249Y-3.6735
X2.4249Y-4.7384
X2.4249Y-4.7984
X2.5186Y-6.2383
X2.5186Y-6.2983
X2.5186Y-7.7382
X2.5186Y-7.7982
X2.5248Y-3.7135
X2.5248Y-3.7735
X2.5248Y-4.8384
X2.5248Y-4.8984
X2.6124Y-5.4884
X2.6124Y-5.5484
X2.8061Y-7.8382
X2.8061Y-7.8982
X2.8936Y-6.9883
X2.8936Y-7.0483
X2.8998Y-5.5884
X2.8998Y-5.6484
X3.085Y-6.3383
X3.085Y-6.3983
X3.1748Y-3.6135
X3.1748Y-3.6735
X3.1748Y-4.7384
X3.1748Y-4.7984
X3.2748Y-3.7135
X3.2748Y-3.7735
X3.2748Y-4.8384
X3.2748Y-4.8984
X3.4561Y-7.7382
X3.4561Y-7.7982
X3.4623Y-7.0883
X3.4623Y-7.1483
X3.5498Y-5.4884
X3.5498Y-5.5484
X3.6497Y-5.5884
X3.6497Y-5.6484
X3.735Y-6.2383
X3.735Y-6.2983
X3.7435Y-7.8382
X3.7435Y-7.8982
X3.8372Y-6.3383
X3.8372Y-6.3983
X3.9248Y-3.6135
X3.9248Y-3.6735
X3.9248Y-4.7384
X3.9248Y-4.7984
X4.0247Y-3.7135
X4.0247Y-3.7735
X4.0247Y-4.8384
X4.0247Y-4.8984
X4.1123Y-6.9883
X4.1123Y-7.0483
X4.2122Y-7.0883
X4.2122Y-7.1483
X4.2997Y-5.4884
X4.2997Y-5.5484
X4.3935Y-7.7382
X4.3935Y-7.7982
X4.3997Y-5.5884
X4.3997Y-5.6484
X4.4872Y-6.2383
X4.4872Y-6.2983
X4.5872Y-6.3383
X4.5872Y-6.3983
X4.6747Y-3.6135
X4.6747Y-3.6735
X4.6747Y-4.7384
X4.6747Y-4.7984
X4.7747Y-3.7135
X4.7747Y-3.7735
X4.7747Y-4.8384
X4.7747Y-4.8984
X4.8622Y-6.9883
X4.8622Y-7.0483
X4.9622Y-7.0883
X4.9622Y-7.1483
X5.0497Y-5.4884
X5.0497Y-5.5484
X5.1497Y-5.5884
X5.1497Y-5.6484
X5.2372Y-6.2383
X5.2372Y-6.2983
X5.3371Y-6.3383
X5.3371Y-6.3983
X5.4247Y-3.6135
X5.4247Y-3.6735
X5.4247Y-4.7384
X5.4247Y-4.7984
X5.5246Y-3.7135
X5.5246Y-3.7735
X5.5246Y-4.8384
X5.5246Y-4.8984
X5.6122Y-6.9883
X5.6122Y-7.0483
X5.7121Y-7.0883
X5.7121Y-7.1483
X5.7997Y-5.4884
X5.7997Y-5.5484
X5.8996Y-5.5884
X5.8996Y-5.6484
X5.9871Y-6.2383
X5.9871Y-6.2983
X6.0871Y-6.3383
X6.0871Y-6.3983
X6.1746Y-3.6135
X6.1746Y-3.6735
X6.1746Y-4.7384
X6.1746Y-4.7984
X6.2746Y-4.8384
X6.2746Y-4.8984
X6.3621Y-6.9883
X6.3621Y-7.0483
X6.4621Y-7.0883
X6.4621Y-7.1483
X6.5496Y-5.4884
X6.5496Y-5.5484
X6.5558Y-7.8382
X6.5558Y-7.8982
X6.6496Y-3.7135
X6.6496Y-3.7735
X6.6496Y-5.5884
X6.6496Y-5.6484
X6.7371Y-6.2383
X6.7371Y-6.2983
X6.837Y-6.3383
X6.837Y-6.3983
X6.9246Y-4.7384
X6.9246Y-4.7984
X7.0245Y-4.8384
X7.0245Y-4.8984
X7.1121Y-6.9883
X7.1121Y-7.0483
X7.2058Y-7.7382
X7.2058Y-7.7982
X7.212Y-7.0883
X7.212Y-7.1483
X7.2996Y-3.6135
X7.2996Y-3.6735
X7.2996Y-5.4884
X7.2996Y-5.5484
X7.3995Y-3.7135
X7.3995Y-3.7735
X7.3995Y-5.5884
X7.3995Y-5.6484
X7.487Y-6.2383
X7.487Y-6.2983
X7.587Y-6.3383
X7.587Y-6.3983
X7.6745Y-4.7384
X7.6745Y-4.7984
X7.7745Y-4.8384
X7.7745Y-4.8984
X7.862Y-6.9883
X7.862Y-7.0483
X7.962Y-7.0883
X7.962Y-7.1483
X8.0495Y-3.6135
X8.0495Y-3.6735
X8.0495Y-5.4884
X8.0495Y-5.5484
X8.1495Y-3.7135
X8.1495Y-3.7735
X8.1495Y-5.5884
X8.1495Y-5.6484
X8.237Y-6.2383
X8.237Y-6.2983
X8.337Y-6.3383
X8.337Y-6.3983
X8.4245Y-4.7384
X8.4245Y-4.7984
X8.5244Y-4.8384
X8.5244Y-4.8984
X8.612Y-6.9883
X8.612Y-7.0483
X8.7119Y-7.0883
X8.7119Y-7.1483
X8.7995Y-3.6135
X8.7995Y-3.6735
X8.7995Y-5.4884
X8.7995Y-5.5484
X8.8994Y-3.7135
X8.8994Y-3.7735
X8.8994Y-5.5884
X8.8994Y-5.6484
X8.987Y-6.2383
X8.987Y-6.2983
X9.0869Y-6.3383
X9.0869Y-6.3983
X9.1744Y-4.7384
X9.1744Y-4.7984
X9.2744Y-4.8384
X9.2744Y-4.8984
X9.3619Y-6.9883
X9.3619Y-7.0483
X9.3681Y-7.8382
X9.3681Y-7.8982
X9.4619Y-7.0883
X9.4619Y-7.1483
X9.5494Y-3.6135
X9.5494Y-3.6735
X9.5494Y-5.4884
X9.5494Y-5.5484
X9.6494Y-5.5884
X9.6494Y-5.6484
X9.7369Y-6.2383
X9.7369Y-6.2983
X9.8369Y-6.3383
X9.8369Y-6.3983
X9.9244Y-4.7384
X9.9244Y-4.7984
X10.0181Y-7.7382
X10.0181Y-7.7982
X10.0243Y-3.7135
X10.0243Y-3.7735
X10.0243Y-4.8384
X10.0243Y-4.8984
X10.1119Y-6.9883
X10.1119Y-7.0483
X10.2118Y-7.0883
X10.2118Y-7.1483
X10.2994Y-5.4884
X10.2994Y-5.5484
X10.3056Y-7.8382
X10.3056Y-7.8982
X10.3993Y-5.5884
X10.3993Y-5.6484
X10.4869Y-6.2383
X10.4869Y-6.2983
X10.5868Y-6.3383
X10.5868Y-6.3983
X10.6743Y-3.6135
X10.6743Y-3.6735
X10.6743Y-4.7384
X10.6743Y-4.7984
X10.7743Y-3.7135
X10.7743Y-3.7735
X10.7743Y-4.8384
X10.7743Y-4.8984
X10.8618Y-6.9883
X10.8618Y-7.0483
X10.9556Y-7.7382
X10.9556Y-7.7982
X11.0493Y-5.4884
X11.0493Y-5.5484
X11.1493Y-5.5884
X11.1493Y-5.6484
X11.2368Y-6.2383
X11.2368Y-6.2983
X11.243Y-7.8382
X11.243Y-7.8982
X11.4243Y-3.6135
X11.4243Y-3.6735
X11.4243Y-4.7384
X11.4243Y-4.7984
X11.5243Y-3.7135
X11.5243Y-3.7735
X11.6176Y-7.0883
X11.6176Y-7.1483
X11.7993Y-5.4884
X11.7993Y-5.5484
X11.8055Y-6.3383
X11.8055Y-6.3983
X11.893Y-7.7382
X11.893Y-7.7982
X11.8992Y-4.8384
X11.8992Y-4.8984
X12.0867Y-5.5884
X12.0867Y-5.6484
X12.1743Y-3.6135
X12.1743Y-3.6735
X12.1805Y-7.8382
X12.1805Y-7.8982
X12.2676Y-6.9883
X12.2676Y-7.0483
X12.2742Y-3.7135
X12.2742Y-3.7735
X12.4555Y-6.2383
X12.4555Y-6.2983
X12.5492Y-4.7384
X12.5492Y-4.7984
X12.7367Y-5.4884
X12.7367Y-5.5484
X12.8305Y-7.7382
X12.8305Y-7.7982
X12.9242Y-3.6135
X12.9242Y-3.6735
X13.3991Y-3.7135
X13.3991Y-3.7735
X13.3991Y-4.8384
X13.3991Y-4.8984
X13.3991Y-5.5884
X13.3991Y-5.6484
X13.3991Y-7.8382
X13.3991Y-7.8982
X14.0491Y-3.6135
X14.0491Y-3.6735
X14.0491Y-4.7384
X14.0491Y-4.7984
X14.0491Y-5.4884
X14.0491Y-5.5484
X14.0491Y-7.7382
X14.0491Y-7.7982
X14.1491Y-3.7135
X14.1491Y-3.7735
X14.1491Y-4.8384
X14.1491Y-4.8984
X14.1491Y-5.5884
X14.1491Y-5.6484
X14.1491Y-7.0883
X14.1491Y-7.1483
X14.1491Y-7.8382
X14.1491Y-7.8982
X14.7991Y-3.6135
X14.7991Y-3.6735
X14.7991Y-4.7384
X14.7991Y-4.7984
X14.7991Y-5.4884
X14.7991Y-5.5484
X14.7991Y-6.9883
X14.7991Y-7.0483
X14.7991Y-7.7382
X14.7991Y-7.7982
X14.899Y-4.8384
X14.899Y-4.8984
X14.899Y-5.5884
X14.899Y-5.6484
X14.899Y-7.8382
X14.899Y-7.8982
X15.549Y-4.7384
X15.549Y-4.7984
X15.549Y-5.4884
X15.549Y-5.5484
X15.549Y-7.7382
X15.549Y-7.7982
T3
X0.8749Y-4.7185
X1.6874Y-3.9685
X1.6874Y-5.0934
X1.6874Y-5.8434
X1.6874Y-6.5933
X1.6874Y-7.3433
X1.6874Y-8.0932
X1.8124Y-4.7185
X2.5623Y-4.7185
X3.3123Y-4.7185
X4.0622Y-4.7185
X4.8122Y-4.7185
X5.5621Y-4.7185
X6.3121Y-4.7185
X7.0621Y-4.7185
X7.812Y-4.7185
X8.562Y-4.7185
X9.3119Y-4.7185
X10.0619Y-4.7185
X10.8118Y-4.7185
X11.9367Y-4.7185
X13.2335Y-6.2652
X13.4375Y-4.7498
X13.7491Y-7.312
X13.8741Y-7.312
X14.1866Y-4.7497
X14.4366Y-6.3746
X14.9366Y-4.7497
X14.9991Y-6.8433
T5
X14.9754Y-7.4348
X14.9754Y-7.5136
T6
X15.2178Y-6.3183
X15.2178Y-6.4183
X15.2178Y-6.5183
X15.2178Y-6.6183
T7
X1.0843Y-3.5467
X1.0843Y-4.1175
X1.1827Y-3.5467
X1.2812Y-3.5467
X1.2812Y-4.1175
X13.0861Y-7.2495
X13.1861Y-7.2495
X13.2861Y-7.2495
X14.2179Y-6.4371
X14.2179Y-6.5371
X14.2179Y-6.6371
X14.2179Y-6.7371
X15.0935Y-7.4486
X15.1459Y-3.5467
X15.1459Y-4.1175
X15.1935Y-7.4486
X15.2444Y-3.5467
X15.2935Y-7.4486
X15.3428Y-3.5467
X15.3428Y-4.1175
X15.3935Y-7.4486
T9
X1.0374Y-4.8684
X1.0374Y-5.6184
X1.0374Y-6.3683
X1.0374Y-7.1183
X1.0374Y-7.8682
X1.2874Y-4.7684
X1.2874Y-5.5184
X1.2874Y-6.2683
X1.2874Y-7.0183
X1.2874Y-7.7682
X1.9749Y-3.7435
X1.9749Y-4.8684
X2.0686Y-6.3683
X2.0686Y-7.8682
X2.1624Y-5.6184
X2.2249Y-3.6435
X2.2249Y-4.7684
X2.3186Y-6.2683
X2.3186Y-7.7682
X2.4124Y-5.5184
X2.4436Y-7.1183
X2.6936Y-7.0183
X2.7248Y-3.7435
X2.7248Y-4.8684
X2.9748Y-3.6435
X2.9748Y-4.7684
X3.0061Y-7.8682
X3.0998Y-5.6184
X3.2561Y-7.7682
X3.285Y-6.3683
X3.3498Y-5.5184
X3.4748Y-3.7435
X3.4748Y-4.8684
X3.535Y-6.2683
X3.6623Y-7.1183
X3.7248Y-3.6435
X3.7248Y-4.7684
X3.8497Y-5.6184
X3.9123Y-7.0183
X3.9435Y-7.8682
X4.0372Y-6.3683
X4.0997Y-5.5184
X4.1935Y-7.7682
X4.2247Y-3.7435
X4.2247Y-4.8684
X4.2872Y-6.2683
X4.4122Y-7.1183
X4.4747Y-3.6435
X4.4747Y-4.7684
X4.5997Y-5.6184
X4.6622Y-7.0183
X4.7872Y-6.3683
X4.8497Y-5.5184
X4.9747Y-3.7435
X4.9747Y-4.8684
X5.0372Y-6.2683
X5.1622Y-7.1183
X5.2247Y-3.6435
X5.2247Y-4.7684
X5.3497Y-5.6184
X5.4122Y-7.0183
X5.5371Y-6.3683
X5.5997Y-5.5184
X5.7246Y-3.7435
X5.7246Y-4.8684
X5.7871Y-6.2683
X5.9121Y-7.1183
X5.9746Y-3.6435
X5.9746Y-4.7684
X6.0996Y-5.6184
X6.1621Y-7.0183
X6.2871Y-6.3683
X6.3496Y-5.5184
X6.4746Y-4.8684
X6.5371Y-6.2683
X6.6621Y-7.1183
X6.7246Y-4.7684
X6.7558Y-7.8682
X6.8496Y-3.7435
X6.8496Y-5.6184
X6.9121Y-7.0183
X7.0058Y-7.7682
X7.037Y-6.3683
X7.0996Y-3.6435
X7.0996Y-5.5184
X7.2245Y-4.8684
X7.287Y-6.2683
X7.412Y-7.1183
X7.4745Y-4.7684
X7.5995Y-3.7435
X7.5995Y-5.6184
X7.662Y-7.0183
X7.787Y-6.3683
X7.8495Y-3.6435
X7.8495Y-5.5184
X7.9745Y-4.8684
X8.037Y-6.2683
X8.162Y-7.1183
X8.2245Y-4.7684
X8.3495Y-3.7435
X8.3495Y-5.6184
X8.412Y-7.0183
X8.537Y-6.3683
X8.5995Y-3.6435
X8.5995Y-5.5184
X8.7244Y-4.8684
X8.787Y-6.2683
X8.9119Y-7.1183
X8.9744Y-4.7684
X9.0994Y-3.7435
X9.0994Y-5.6184
X9.1619Y-7.0183
X9.2869Y-6.3683
X9.3494Y-3.6435
X9.3494Y-5.5184
X9.4744Y-4.8684
X9.5369Y-6.2683
X9.5681Y-7.8682
X9.6619Y-7.1183
X9.7244Y-4.7684
X9.8181Y-7.7682
X9.8494Y-5.6184
X9.9119Y-7.0183
X10.0369Y-6.3683
X10.0994Y-5.5184
X10.2243Y-3.7435
X10.2243Y-4.8684
X10.2869Y-6.2683
X10.4118Y-7.1183
X10.4743Y-3.6435
X10.4743Y-4.7684
X10.5056Y-7.8682
X10.5993Y-5.6184
X10.6618Y-7.0183
X10.7556Y-7.7682
X10.7868Y-6.3683
X10.8493Y-5.5184
X10.9743Y-3.7435
X10.9743Y-4.8684
X11.0368Y-6.2683
X11.2243Y-3.6435
X11.2243Y-4.7684
X11.3493Y-5.6184
X11.443Y-7.8682
X11.5993Y-5.5184
X11.693Y-7.7682
X11.7243Y-3.7435
X11.8176Y-7.1183
X11.9743Y-3.6435
X12.0055Y-6.3683
X12.0676Y-7.0183
X12.0992Y-4.8684
X12.2555Y-6.2683
X12.2867Y-5.6184
X12.3492Y-4.7684
X12.3805Y-7.8682
X12.4742Y-3.7435
X12.5367Y-5.5184
X12.6305Y-7.7682
X12.7242Y-3.6435
X13.5991Y-3.7435
X13.5991Y-4.8684
X13.5991Y-5.6184
X13.5991Y-7.8682
X13.8491Y-3.6435
X13.8491Y-4.7684
X13.8491Y-5.5184
X13.8491Y-7.7682
X14.3491Y-3.7435
X14.3491Y-4.8684
X14.3491Y-5.6184
X14.3491Y-7.1183
X14.3491Y-7.8682
X14.5991Y-3.6435
X14.5991Y-4.7684
X14.5991Y-5.5184
X14.5991Y-7.0183
X14.5991Y-7.7682
X15.099Y-4.8684
X15.099Y-5.6184
X15.099Y-7.8682
X15.349Y-4.7684
X15.349Y-5.5184
X15.349Y-7.7682
T4
G00X9.6418Y-3.1529
M15
G01X9.6418Y-3.1765
M16
G05
G00X9.6418Y-3.3076
M15
G01X9.6418Y-3.3509
M16
G05
G00X9.982Y-3.1529
M15
G01X9.982Y-3.1765
M16
G05
G00X9.982Y-3.3076
M15
G01X9.982Y-3.3509
M16
G05
T8
G00X0.9623Y-3.8163
M15
G01X0.9623Y-3.8675
M16
G05
G00X1.4032Y-3.8163
M15
G01X1.4032Y-3.8675
M16
G05
G00X15.0239Y-3.8163
M15
G01X15.0239Y-3.8675
M16
G05
G00X15.4648Y-3.8163
M15
G01X15.4648Y-3.8675
M16
G05
T0
M30
