%TF.GenerationSoftware,KiCad,Pcbnew,(6.0.0)*%
%TF.CreationDate,2022-02-20T21:07:46-05:00*%
%TF.ProjectId,keyboard0,6b657962-6f61-4726-9430-2e6b69636164,rev?*%
%TF.SameCoordinates,Original*%
%TF.FileFunction,Soldermask,Top*%
%TF.FilePolarity,Negative*%
%FSLAX46Y46*%
G04 Gerber Fmt 4.6, Leading zero omitted, Abs format (unit mm)*
G04 Created by KiCad (PCBNEW (6.0.0)) date 2022-02-20 21:07:46*
%MOMM*%
%LPD*%
G01*
G04 APERTURE LIST*
%ADD10C,3.987800*%
%ADD11C,4.000000*%
%ADD12C,3.050000*%
%ADD13C,1.750000*%
%ADD14C,2.000000*%
%ADD15R,2.000000X3.200000*%
%ADD16R,2.000000X2.000000*%
%ADD17C,1.000000*%
%ADD18R,1.700000X1.700000*%
%ADD19O,1.700000X1.700000*%
%ADD20O,1.000000X1.600000*%
%ADD21O,1.000000X2.100000*%
%ADD22C,0.650000*%
G04 APERTURE END LIST*
D10*
%TO.C,MX83*%
X175407700Y-202393500D03*
D11*
X125407700Y-194153500D03*
D12*
X225407700Y-209393500D03*
D13*
X180487700Y-202393500D03*
D11*
X225407700Y-194153500D03*
D12*
X125407700Y-209393500D03*
D13*
X170327700Y-202393500D03*
%TD*%
D12*
%TO.C,MX64*%
X296811300Y-171295900D03*
D11*
X296811300Y-156055900D03*
D13*
X313829300Y-164295900D03*
D11*
X320687300Y-156055900D03*
D12*
X320687300Y-171295900D03*
D13*
X303669300Y-164295900D03*
D10*
X308749300Y-164295900D03*
%TD*%
D13*
%TO.C,MX14-1*%
X373356800Y-97625100D03*
D10*
X368276800Y-97625100D03*
D13*
X363196800Y-97625100D03*
%TD*%
%TO.C,MX1-1*%
X78100400Y-97625100D03*
D10*
X73020400Y-97625100D03*
D13*
X67940400Y-97625100D03*
%TD*%
D10*
%TO.C,MX84*%
X246840700Y-202393500D03*
D13*
X251920700Y-202393500D03*
X241760700Y-202393500D03*
%TD*%
D10*
%TO.C,MX85*%
X270651700Y-202393500D03*
D13*
X275731700Y-202393500D03*
X265571700Y-202393500D03*
%TD*%
%TO.C,MX52*%
X51272700Y-164295900D03*
D10*
X56352700Y-164295900D03*
D13*
X61432700Y-164295900D03*
%TD*%
%TO.C,MX2*%
X97149200Y-97625100D03*
D10*
X92069200Y-97625100D03*
D13*
X86989200Y-97625100D03*
%TD*%
%TO.C,MX15*%
X35240600Y-126198300D03*
D10*
X30160600Y-126198300D03*
D13*
X25080600Y-126198300D03*
%TD*%
%TO.C,MX33*%
X35240600Y-145247100D03*
D10*
X30160600Y-145247100D03*
D13*
X25080600Y-145247100D03*
%TD*%
%TO.C,MX51*%
X35240600Y-164295900D03*
D10*
X30160600Y-164295900D03*
D13*
X25080600Y-164295900D03*
%TD*%
%TO.C,MX65*%
X35240600Y-183344700D03*
D10*
X30160600Y-183344700D03*
D13*
X25080600Y-183344700D03*
%TD*%
%TO.C,MX1*%
X59051600Y-97625100D03*
D10*
X53971600Y-97625100D03*
D13*
X48891600Y-97625100D03*
%TD*%
%TO.C,MX16*%
X59051600Y-126198300D03*
D10*
X53971600Y-126198300D03*
D13*
X48891600Y-126198300D03*
%TD*%
D10*
%TO.C,MX34*%
X58733800Y-145247100D03*
D13*
X63813800Y-145247100D03*
X53653800Y-145247100D03*
%TD*%
%TO.C,MX79*%
X35240600Y-202393500D03*
D10*
X30160600Y-202393500D03*
D13*
X25080600Y-202393500D03*
%TD*%
%TO.C,MX18*%
X97149200Y-126198300D03*
D10*
X92069200Y-126198300D03*
D13*
X86989200Y-126198300D03*
%TD*%
%TO.C,MX36*%
X106673600Y-145247100D03*
D10*
X101593600Y-145247100D03*
D13*
X96513600Y-145247100D03*
%TD*%
%TO.C,MX54*%
X111435800Y-164295900D03*
D10*
X106355800Y-164295900D03*
D13*
X101275800Y-164295900D03*
%TD*%
%TO.C,MX67*%
X101911400Y-183344700D03*
D10*
X96831400Y-183344700D03*
D13*
X91751400Y-183344700D03*
%TD*%
D10*
%TO.C,MX82*%
X103974700Y-202393500D03*
D13*
X109054700Y-202393500D03*
X98894700Y-202393500D03*
%TD*%
%TO.C,MX17*%
X78100400Y-126198300D03*
D10*
X73020400Y-126198300D03*
D13*
X67940400Y-126198300D03*
%TD*%
%TO.C,MX35*%
X87624800Y-145247100D03*
D10*
X82544800Y-145247100D03*
D13*
X77464800Y-145247100D03*
%TD*%
%TO.C,MX53*%
X92328700Y-164295900D03*
D10*
X87248700Y-164295900D03*
D13*
X82168700Y-164295900D03*
%TD*%
%TO.C,MX66*%
X70957100Y-183344700D03*
D11*
X77815100Y-191584700D03*
X53939100Y-191584700D03*
D12*
X53939100Y-176344700D03*
D13*
X60797100Y-183344700D03*
D10*
X65877100Y-183344700D03*
D12*
X77815100Y-176344700D03*
%TD*%
D10*
%TO.C,MX81*%
X80163700Y-202393500D03*
D13*
X85243700Y-202393500D03*
X75083700Y-202393500D03*
%TD*%
%TO.C,MX3*%
X116198000Y-97625100D03*
D10*
X111118000Y-97625100D03*
D13*
X106038000Y-97625100D03*
%TD*%
%TO.C,MX37*%
X125722400Y-145247100D03*
D10*
X120642400Y-145247100D03*
D13*
X115562400Y-145247100D03*
%TD*%
%TO.C,MX55*%
X130484600Y-164295900D03*
D10*
X125404600Y-164295900D03*
D13*
X120324600Y-164295900D03*
%TD*%
%TO.C,MX68*%
X120960200Y-183344700D03*
D10*
X115880200Y-183344700D03*
D13*
X110800200Y-183344700D03*
%TD*%
%TO.C,MX70*%
X159057800Y-183344700D03*
D10*
X153977800Y-183344700D03*
D13*
X148897800Y-183344700D03*
%TD*%
%TO.C,MX4*%
X135246800Y-97625100D03*
D10*
X130166800Y-97625100D03*
D13*
X125086800Y-97625100D03*
%TD*%
%TO.C,MX20*%
X135246800Y-126198300D03*
D10*
X130166800Y-126198300D03*
D13*
X125086800Y-126198300D03*
%TD*%
%TO.C,MX38*%
X144771200Y-145247100D03*
D10*
X139691200Y-145247100D03*
D13*
X134611200Y-145247100D03*
%TD*%
%TO.C,MX56*%
X149533400Y-164295900D03*
D10*
X144453400Y-164295900D03*
D13*
X139373400Y-164295900D03*
%TD*%
%TO.C,MX69*%
X140009000Y-183344700D03*
D10*
X134929000Y-183344700D03*
D13*
X129849000Y-183344700D03*
%TD*%
%TO.C,MX5*%
X154295600Y-97625100D03*
D10*
X149215600Y-97625100D03*
D13*
X144135600Y-97625100D03*
%TD*%
%TO.C,MX39*%
X163820000Y-145247100D03*
D10*
X158740000Y-145247100D03*
D13*
X153660000Y-145247100D03*
%TD*%
%TO.C,MX57*%
X168582200Y-164295900D03*
D10*
X163502200Y-164295900D03*
D13*
X158422200Y-164295900D03*
%TD*%
%TO.C,MX71*%
X178106600Y-183344700D03*
D10*
X173026600Y-183344700D03*
D13*
X167946600Y-183344700D03*
%TD*%
%TO.C,MX22*%
X173344400Y-126198300D03*
D10*
X168264400Y-126198300D03*
D13*
X163184400Y-126198300D03*
%TD*%
%TO.C,MX40*%
X182868800Y-145247100D03*
D10*
X177788800Y-145247100D03*
D13*
X172708800Y-145247100D03*
%TD*%
%TO.C,MX58*%
X187631000Y-164295900D03*
D10*
X182551000Y-164295900D03*
D13*
X177471000Y-164295900D03*
%TD*%
%TO.C,MX72*%
X197155400Y-183344700D03*
D10*
X192075400Y-183344700D03*
D13*
X186995400Y-183344700D03*
%TD*%
%TO.C,MX7*%
X201917600Y-97625100D03*
D10*
X196837600Y-97625100D03*
D13*
X191757600Y-97625100D03*
%TD*%
%TO.C,MX23*%
X192393200Y-126198300D03*
D10*
X187313200Y-126198300D03*
D13*
X182233200Y-126198300D03*
%TD*%
%TO.C,MX41*%
X201917600Y-145247100D03*
D10*
X196837600Y-145247100D03*
D13*
X191757600Y-145247100D03*
%TD*%
%TO.C,MX59*%
X206679800Y-164295900D03*
D10*
X201599800Y-164295900D03*
D13*
X196519800Y-164295900D03*
%TD*%
%TO.C,MX73*%
X216204200Y-183344700D03*
D10*
X211124200Y-183344700D03*
D13*
X206044200Y-183344700D03*
%TD*%
%TO.C,MX8*%
X220966400Y-97625100D03*
D10*
X215886400Y-97625100D03*
D13*
X210806400Y-97625100D03*
%TD*%
%TO.C,MX24*%
X211442000Y-126198300D03*
D10*
X206362000Y-126198300D03*
D13*
X201282000Y-126198300D03*
%TD*%
%TO.C,MX42*%
X220966400Y-145247100D03*
D10*
X215886400Y-145247100D03*
D13*
X210806400Y-145247100D03*
%TD*%
%TO.C,MX60*%
X225728600Y-164295900D03*
D10*
X220648600Y-164295900D03*
D13*
X215568600Y-164295900D03*
%TD*%
%TO.C,MX74*%
X235253000Y-183344700D03*
D10*
X230173000Y-183344700D03*
D13*
X225093000Y-183344700D03*
%TD*%
%TO.C,MX9*%
X240015200Y-97625100D03*
D10*
X234935200Y-97625100D03*
D13*
X229855200Y-97625100D03*
%TD*%
%TO.C,MX25*%
X230490800Y-126198300D03*
D10*
X225410800Y-126198300D03*
D13*
X220330800Y-126198300D03*
%TD*%
%TO.C,MX43*%
X240015200Y-145247100D03*
D10*
X234935200Y-145247100D03*
D13*
X229855200Y-145247100D03*
%TD*%
%TO.C,MX61*%
X244777400Y-164295900D03*
D10*
X239697400Y-164295900D03*
D13*
X234617400Y-164295900D03*
%TD*%
%TO.C,MX10*%
X268588400Y-97625100D03*
D10*
X263508400Y-97625100D03*
D13*
X258428400Y-97625100D03*
%TD*%
%TO.C,MX26*%
X249539600Y-126198300D03*
D10*
X244459600Y-126198300D03*
D13*
X239379600Y-126198300D03*
%TD*%
%TO.C,MX44*%
X259064000Y-145247100D03*
D10*
X253984000Y-145247100D03*
D13*
X248904000Y-145247100D03*
%TD*%
%TO.C,MX62*%
X263826200Y-164295900D03*
D10*
X258746200Y-164295900D03*
D13*
X253666200Y-164295900D03*
%TD*%
%TO.C,MX76*%
X273350600Y-183344700D03*
D10*
X268270600Y-183344700D03*
D13*
X263190600Y-183344700D03*
%TD*%
%TO.C,MX11*%
X287637200Y-97625100D03*
D10*
X282557200Y-97625100D03*
D13*
X277477200Y-97625100D03*
%TD*%
%TO.C,MX27*%
X268588400Y-126198300D03*
D10*
X263508400Y-126198300D03*
D13*
X258428400Y-126198300D03*
%TD*%
%TO.C,MX45*%
X278112800Y-145247100D03*
D10*
X273032800Y-145247100D03*
D13*
X267952800Y-145247100D03*
%TD*%
%TO.C,MX63*%
X282875000Y-164295900D03*
D10*
X277795000Y-164295900D03*
D13*
X272715000Y-164295900D03*
%TD*%
D10*
%TO.C,MX86*%
X294462700Y-202393500D03*
D13*
X299542700Y-202393500D03*
X289382700Y-202393500D03*
%TD*%
%TO.C,MX12*%
X306686000Y-97625100D03*
D10*
X301606000Y-97625100D03*
D13*
X296526000Y-97625100D03*
%TD*%
%TO.C,MX28*%
X287637200Y-126198300D03*
D10*
X282557200Y-126198300D03*
D13*
X277477200Y-126198300D03*
%TD*%
%TO.C,MX46*%
X297161600Y-145247100D03*
D10*
X292081600Y-145247100D03*
D13*
X287001600Y-145247100D03*
%TD*%
D10*
%TO.C,MX87*%
X318273700Y-202393500D03*
D13*
X323353700Y-202393500D03*
X313193700Y-202393500D03*
%TD*%
%TO.C,MX13*%
X325734800Y-97625100D03*
D10*
X320654800Y-97625100D03*
D13*
X315574800Y-97625100D03*
%TD*%
D12*
%TO.C,MX29*%
X299192400Y-119198300D03*
X323068400Y-119198300D03*
D13*
X306050400Y-126198300D03*
D10*
X311130400Y-126198300D03*
D11*
X323068400Y-134438300D03*
X299192400Y-134438300D03*
D13*
X316210400Y-126198300D03*
%TD*%
D10*
%TO.C,MX47*%
X315892600Y-145247100D03*
D13*
X320972600Y-145247100D03*
X310812600Y-145247100D03*
%TD*%
D10*
%TO.C,MX77*%
X303977562Y-183343844D03*
D11*
X292049100Y-191584700D03*
X315925100Y-191584700D03*
D12*
X315925100Y-176344700D03*
D13*
X298897562Y-183343844D03*
X309057562Y-183343844D03*
D12*
X292049100Y-176344700D03*
%TD*%
D13*
%TO.C,MX88*%
X354308000Y-202393500D03*
D10*
X349228000Y-202393500D03*
D13*
X344148000Y-202393500D03*
%TD*%
%TO.C,MX30*%
X354308000Y-126198300D03*
D10*
X349228000Y-126198300D03*
D13*
X344148000Y-126198300D03*
%TD*%
%TO.C,MX48*%
X354308000Y-145247100D03*
D10*
X349228000Y-145247100D03*
D13*
X344148000Y-145247100D03*
%TD*%
%TO.C,MX31*%
X373356800Y-126198300D03*
D10*
X368276800Y-126198300D03*
D13*
X363196800Y-126198300D03*
%TD*%
%TO.C,MX49*%
X373356800Y-145247100D03*
D10*
X368276800Y-145247100D03*
D13*
X363196800Y-145247100D03*
%TD*%
%TO.C,MX78*%
X373356800Y-183344700D03*
D10*
X368276800Y-183344700D03*
D13*
X363196800Y-183344700D03*
%TD*%
%TO.C,MX89*%
X373356800Y-202393500D03*
D10*
X368276800Y-202393500D03*
D13*
X363196800Y-202393500D03*
%TD*%
%TO.C,MX50*%
X392405600Y-145247100D03*
D10*
X387325600Y-145247100D03*
D13*
X382245600Y-145247100D03*
%TD*%
%TO.C,MX90*%
X392405600Y-202393500D03*
D10*
X387325600Y-202393500D03*
D13*
X382245600Y-202393500D03*
%TD*%
D14*
%TO.C,ROT2*%
X384706700Y-104584950D03*
X389706700Y-104584950D03*
D15*
X381606700Y-97584950D03*
X392806700Y-97584950D03*
D14*
X384706700Y-90084950D03*
X387206700Y-90084950D03*
D16*
X389706700Y-90084950D03*
%TD*%
D13*
%TO.C,MX6*%
X182868800Y-97625100D03*
D10*
X177788800Y-97625100D03*
D13*
X172708800Y-97625100D03*
%TD*%
%TO.C,MX21*%
X154295600Y-126198300D03*
D10*
X149215600Y-126198300D03*
D13*
X144135600Y-126198300D03*
%TD*%
%TO.C,MX32*%
X392405600Y-126198300D03*
D10*
X387325600Y-126198300D03*
D13*
X382245600Y-126198300D03*
%TD*%
%TO.C,MX19*%
X116198000Y-126198300D03*
D10*
X111118000Y-126198300D03*
D13*
X106038000Y-126198300D03*
%TD*%
D14*
%TO.C,ROT1*%
X27541700Y-104584950D03*
X32541700Y-104584950D03*
D15*
X24441700Y-97584950D03*
X35641700Y-97584950D03*
D14*
X27541700Y-90084950D03*
X30041700Y-90084950D03*
D16*
X32541700Y-90084950D03*
%TD*%
D13*
%TO.C,MX14*%
X354308000Y-97625100D03*
D10*
X349228000Y-97625100D03*
D13*
X344148000Y-97625100D03*
%TD*%
D10*
%TO.C,MX80*%
X56352700Y-202393500D03*
D13*
X61432700Y-202393500D03*
X51272700Y-202393500D03*
%TD*%
%TO.C,MX75*%
X254301800Y-183344700D03*
D10*
X249221800Y-183344700D03*
D13*
X244141800Y-183344700D03*
%TD*%
D17*
%TO.C,COL12*%
X255571400Y-119848700D03*
%TD*%
%TO.C,COL13*%
X274620200Y-119848700D03*
%TD*%
%TO.C,COL3*%
X84132200Y-119848700D03*
%TD*%
%TO.C,COL0*%
X22223600Y-119848700D03*
%TD*%
%TO.C,ROW5*%
X42859800Y-205568300D03*
%TD*%
%TO.C,ROW4*%
X42859800Y-186519500D03*
%TD*%
%TO.C,ROW3*%
X42859800Y-167470700D03*
%TD*%
%TO.C,ROW2*%
X42859800Y-148421900D03*
%TD*%
%TO.C,ROW1*%
X42859800Y-129373100D03*
%TD*%
%TO.C,ROW0*%
X42859800Y-100799900D03*
%TD*%
%TO.C,COL16*%
X360339800Y-120642400D03*
%TD*%
%TO.C,COL17*%
X379388600Y-120642400D03*
%TD*%
%TO.C,COL4*%
X103181000Y-119848700D03*
%TD*%
%TO.C,COL5*%
X122229800Y-119848700D03*
%TD*%
%TO.C,COL6*%
X141278600Y-119848700D03*
%TD*%
%TO.C,COL7*%
X160327400Y-119848700D03*
%TD*%
%TO.C,COL8*%
X179376200Y-119848700D03*
%TD*%
%TO.C,COL9*%
X198425000Y-119848700D03*
%TD*%
%TO.C,COL10*%
X217473800Y-119848700D03*
%TD*%
%TO.C,COL11*%
X236522600Y-119848700D03*
%TD*%
%TO.C,COL14*%
X303193400Y-119848700D03*
%TD*%
%TO.C,COL2*%
X65083400Y-119848700D03*
%TD*%
%TO.C,COL1*%
X46034600Y-119848700D03*
%TD*%
%TO.C,BOOT0*%
X380976000Y-173820300D03*
%TD*%
%TO.C,BKL1*%
X336131950Y-159136838D03*
%TD*%
D18*
%TO.C,J1*%
X361133500Y-163502200D03*
D19*
X361133500Y-166042200D03*
X361133500Y-168582200D03*
X361133500Y-171122200D03*
%TD*%
D17*
%TO.C,X1*%
X352402800Y-185725800D03*
%TD*%
%TO.C,X2*%
X349228000Y-185725800D03*
%TD*%
D20*
%TO.C,USB1*%
X253541800Y-80382600D03*
X244901800Y-80382600D03*
D21*
X253541800Y-84562600D03*
X244901800Y-84562600D03*
D22*
X246331800Y-84032600D03*
X252111800Y-84032600D03*
%TD*%
D17*
%TO.C,RST1*%
X366689400Y-161914800D03*
%TD*%
%TO.C,COL15*%
X341311250Y-120644488D03*
%TD*%
D18*
%TO.C,J3*%
X337466400Y-184138388D03*
D19*
X334926400Y-184138388D03*
X332386400Y-184138388D03*
%TD*%
M02*
