%TF.GenerationSoftware,KiCad,Pcbnew,(5.1.10)-1*%
%TF.CreationDate,2021-10-20T23:33:35-04:00*%
%TF.ProjectId,custom_keyboard (f303_ fe2.1),63757374-6f6d-45f6-9b65-79626f617264,rev?*%
%TF.SameCoordinates,Original*%
%TF.FileFunction,Soldermask,Top*%
%TF.FilePolarity,Negative*%
%FSLAX46Y46*%
G04 Gerber Fmt 4.6, Leading zero omitted, Abs format (unit mm)*
G04 Created by KiCad (PCBNEW (5.1.10)-1) date 2021-10-20 23:33:35*
%MOMM*%
%LPD*%
G01*
G04 APERTURE LIST*
%ADD10C,4.000000*%
%ADD11C,1.750000*%
%ADD12C,3.000000*%
%ADD13C,3.987800*%
%ADD14C,3.048000*%
%ADD15C,3.500000*%
%ADD16O,2.000000X1.500000*%
%ADD17C,0.650000*%
%ADD18O,2.100000X1.000000*%
%ADD19O,1.600000X1.000000*%
%ADD20C,2.000000*%
%ADD21R,3.200000X2.000000*%
%ADD22R,2.000000X2.000000*%
%ADD23O,1.000000X2.100000*%
%ADD24O,1.000000X1.600000*%
%ADD25O,1.500000X2.000000*%
%ADD26C,1.397000*%
%ADD27C,6.400000*%
G04 APERTURE END LIST*
D10*
%TO.C,MX83*%
X234141500Y-273032800D03*
D11*
X229061500Y-273032800D03*
X239221500Y-273032800D03*
D12*
X230331500Y-270492800D03*
X236681500Y-267952800D03*
D13*
X184135250Y-281313200D03*
D14*
X184135250Y-266073200D03*
D13*
X284135050Y-281313200D03*
D14*
X284135050Y-266073200D03*
%TD*%
D10*
%TO.C,MX84*%
X305574500Y-273032800D03*
D11*
X300494500Y-273032800D03*
X310654500Y-273032800D03*
D12*
X301764500Y-270492800D03*
X308114500Y-267952800D03*
%TD*%
D15*
%TO.C,USB4*%
X452737900Y-246984000D03*
D16*
X450027900Y-257484000D03*
X450027900Y-254984000D03*
X450027900Y-252984000D03*
D15*
X452737900Y-260984000D03*
D16*
X450027900Y-250484000D03*
%TD*%
D10*
%TO.C,MX32*%
X446059400Y-196837600D03*
D11*
X440979400Y-196837600D03*
X451139400Y-196837600D03*
D12*
X442249400Y-194297600D03*
X448599400Y-191757600D03*
%TD*%
D17*
%TO.C,USB7*%
X457270800Y-185441000D03*
X457270800Y-179661000D03*
D18*
X456740800Y-178231000D03*
X456740800Y-186871000D03*
D19*
X460920800Y-178231000D03*
X460920800Y-186871000D03*
%TD*%
D20*
%TO.C,ROT1*%
X82331400Y-166439200D03*
X82331400Y-171439200D03*
D21*
X89331400Y-163339200D03*
X89331400Y-174539200D03*
D20*
X96831400Y-166439200D03*
X96831400Y-168939200D03*
D22*
X96831400Y-171439200D03*
%TD*%
D20*
%TO.C,ROT2*%
X437909000Y-166439200D03*
X437909000Y-171439200D03*
D21*
X444909000Y-163339200D03*
X444909000Y-174539200D03*
D20*
X452409000Y-166439200D03*
X452409000Y-168939200D03*
D22*
X452409000Y-171439200D03*
%TD*%
D17*
%TO.C,USB1*%
X225126000Y-157053000D03*
X219346000Y-157053000D03*
D23*
X217916000Y-157583000D03*
X226556000Y-157583000D03*
D24*
X217916000Y-153403000D03*
X226556000Y-153403000D03*
%TD*%
D15*
%TO.C,USB6*%
X420010600Y-160792200D03*
D25*
X430510600Y-163502200D03*
X428010600Y-163502200D03*
X426010600Y-163502200D03*
D15*
X434010600Y-160792200D03*
D25*
X423510600Y-163502200D03*
%TD*%
%TO.C,USB3*%
X128254200Y-164295900D03*
D15*
X138754200Y-161585900D03*
D25*
X130754200Y-164295900D03*
X132754200Y-164295900D03*
X135254200Y-164295900D03*
D15*
X124754200Y-161585900D03*
%TD*%
D19*
%TO.C,USB2*%
X74033000Y-178231000D03*
X74033000Y-186871000D03*
D18*
X78213000Y-178231000D03*
X78213000Y-186871000D03*
D17*
X77683000Y-185441000D03*
X77683000Y-179661000D03*
%TD*%
D24*
%TO.C,USB5*%
X312275600Y-153403000D03*
X303635600Y-153403000D03*
D23*
X312275600Y-157583000D03*
X303635600Y-157583000D03*
D17*
X305065600Y-157053000D03*
X310845600Y-157053000D03*
%TD*%
D26*
%TO.C,OL1*%
X445265700Y-231125200D03*
X445265700Y-233665200D03*
X445265700Y-236205200D03*
X445265700Y-238745200D03*
%TD*%
D10*
%TO.C,MX1*%
X112705400Y-168264400D03*
D11*
X107625400Y-168264400D03*
X117785400Y-168264400D03*
D12*
X108895400Y-165724400D03*
X115245400Y-163184400D03*
%TD*%
D10*
%TO.C,MX2*%
X150803000Y-168264400D03*
D11*
X145723000Y-168264400D03*
X155883000Y-168264400D03*
D12*
X146993000Y-165724400D03*
X153343000Y-163184400D03*
%TD*%
D10*
%TO.C,MX3*%
X169851800Y-168264400D03*
D11*
X164771800Y-168264400D03*
X174931800Y-168264400D03*
D12*
X166041800Y-165724400D03*
X172391800Y-163184400D03*
%TD*%
D10*
%TO.C,MX4*%
X188900600Y-168264400D03*
D11*
X183820600Y-168264400D03*
X193980600Y-168264400D03*
D12*
X185090600Y-165724400D03*
X191440600Y-163184400D03*
%TD*%
D10*
%TO.C,MX5*%
X207949400Y-168264400D03*
D11*
X202869400Y-168264400D03*
X213029400Y-168264400D03*
D12*
X204139400Y-165724400D03*
X210489400Y-163184400D03*
%TD*%
D10*
%TO.C,MX6*%
X236522600Y-168264400D03*
D11*
X231442600Y-168264400D03*
X241602600Y-168264400D03*
D12*
X232712600Y-165724400D03*
X239062600Y-163184400D03*
%TD*%
D10*
%TO.C,MX7*%
X255571400Y-168264400D03*
D11*
X250491400Y-168264400D03*
X260651400Y-168264400D03*
D12*
X251761400Y-165724400D03*
X258111400Y-163184400D03*
%TD*%
D10*
%TO.C,MX8*%
X274620200Y-168264400D03*
D11*
X269540200Y-168264400D03*
X279700200Y-168264400D03*
D12*
X270810200Y-165724400D03*
X277160200Y-163184400D03*
%TD*%
D10*
%TO.C,MX9*%
X293669000Y-168264400D03*
D11*
X288589000Y-168264400D03*
X298749000Y-168264400D03*
D12*
X289859000Y-165724400D03*
X296209000Y-163184400D03*
%TD*%
D10*
%TO.C,MX10*%
X322242200Y-168264400D03*
D11*
X317162200Y-168264400D03*
X327322200Y-168264400D03*
D12*
X318432200Y-165724400D03*
X324782200Y-163184400D03*
%TD*%
D10*
%TO.C,MX11*%
X341291000Y-168264400D03*
D11*
X336211000Y-168264400D03*
X346371000Y-168264400D03*
D12*
X337481000Y-165724400D03*
X343831000Y-163184400D03*
%TD*%
D10*
%TO.C,MX12*%
X360339800Y-168264400D03*
D11*
X355259800Y-168264400D03*
X365419800Y-168264400D03*
D12*
X356529800Y-165724400D03*
X362879800Y-163184400D03*
%TD*%
D10*
%TO.C,MX13*%
X379388600Y-168264400D03*
D11*
X374308600Y-168264400D03*
X384468600Y-168264400D03*
D12*
X375578600Y-165724400D03*
X381928600Y-163184400D03*
%TD*%
D10*
%TO.C,MX14*%
X407961800Y-168264400D03*
D11*
X402881800Y-168264400D03*
X413041800Y-168264400D03*
D12*
X404151800Y-165724400D03*
X410501800Y-163184400D03*
%TD*%
D10*
%TO.C,MX15*%
X88894400Y-196837600D03*
D11*
X83814400Y-196837600D03*
X93974400Y-196837600D03*
D12*
X85084400Y-194297600D03*
X91434400Y-191757600D03*
%TD*%
D10*
%TO.C,MX16*%
X112705400Y-196837600D03*
D11*
X107625400Y-196837600D03*
X117785400Y-196837600D03*
D12*
X108895400Y-194297600D03*
X115245400Y-191757600D03*
%TD*%
D10*
%TO.C,MX17*%
X131754200Y-196837600D03*
D11*
X126674200Y-196837600D03*
X136834200Y-196837600D03*
D12*
X127944200Y-194297600D03*
X134294200Y-191757600D03*
%TD*%
D10*
%TO.C,MX18*%
X150803000Y-196837600D03*
D11*
X145723000Y-196837600D03*
X155883000Y-196837600D03*
D12*
X146993000Y-194297600D03*
X153343000Y-191757600D03*
%TD*%
D10*
%TO.C,MX19*%
X169851800Y-196837600D03*
D11*
X164771800Y-196837600D03*
X174931800Y-196837600D03*
D12*
X166041800Y-194297600D03*
X172391800Y-191757600D03*
%TD*%
D10*
%TO.C,MX20*%
X188900600Y-196837600D03*
D11*
X183820600Y-196837600D03*
X193980600Y-196837600D03*
D12*
X185090600Y-194297600D03*
X191440600Y-191757600D03*
%TD*%
D10*
%TO.C,MX21*%
X207949400Y-196837600D03*
D11*
X202869400Y-196837600D03*
X213029400Y-196837600D03*
D12*
X204139400Y-194297600D03*
X210489400Y-191757600D03*
%TD*%
D10*
%TO.C,MX22*%
X226998200Y-196837600D03*
D11*
X221918200Y-196837600D03*
X232078200Y-196837600D03*
D12*
X223188200Y-194297600D03*
X229538200Y-191757600D03*
%TD*%
D10*
%TO.C,MX23*%
X246047000Y-196837600D03*
D11*
X240967000Y-196837600D03*
X251127000Y-196837600D03*
D12*
X242237000Y-194297600D03*
X248587000Y-191757600D03*
%TD*%
D10*
%TO.C,MX24*%
X265095800Y-196837600D03*
D11*
X260015800Y-196837600D03*
X270175800Y-196837600D03*
D12*
X261285800Y-194297600D03*
X267635800Y-191757600D03*
%TD*%
D10*
%TO.C,MX25*%
X284144600Y-196837600D03*
D11*
X279064600Y-196837600D03*
X289224600Y-196837600D03*
D12*
X280334600Y-194297600D03*
X286684600Y-191757600D03*
%TD*%
D10*
%TO.C,MX26*%
X303193400Y-196837600D03*
D11*
X298113400Y-196837600D03*
X308273400Y-196837600D03*
D12*
X299383400Y-194297600D03*
X305733400Y-191757600D03*
%TD*%
D10*
%TO.C,MX27*%
X322242200Y-196837600D03*
D11*
X317162200Y-196837600D03*
X327322200Y-196837600D03*
D12*
X318432200Y-194297600D03*
X324782200Y-191757600D03*
%TD*%
D10*
%TO.C,MX28*%
X341291000Y-196837600D03*
D11*
X336211000Y-196837600D03*
X346371000Y-196837600D03*
D12*
X337481000Y-194297600D03*
X343831000Y-191757600D03*
%TD*%
D10*
%TO.C,MX29*%
X369864200Y-196837600D03*
D11*
X364784200Y-196837600D03*
X374944200Y-196837600D03*
D12*
X366054200Y-194297600D03*
X372404200Y-191757600D03*
D14*
X357926200Y-189852600D03*
D13*
X357926200Y-205092600D03*
X381802200Y-205092600D03*
D14*
X381802200Y-189852600D03*
%TD*%
D10*
%TO.C,MX30*%
X407961800Y-196837600D03*
D11*
X402881800Y-196837600D03*
X413041800Y-196837600D03*
D12*
X404151800Y-194297600D03*
X410501800Y-191757600D03*
%TD*%
D10*
%TO.C,MX31*%
X427010600Y-196837600D03*
D11*
X421930600Y-196837600D03*
X432090600Y-196837600D03*
D12*
X423200600Y-194297600D03*
X429550600Y-191757600D03*
%TD*%
D10*
%TO.C,MX33*%
X88894400Y-215886400D03*
D11*
X83814400Y-215886400D03*
X93974400Y-215886400D03*
D12*
X85084400Y-213346400D03*
X91434400Y-210806400D03*
%TD*%
D10*
%TO.C,MX34*%
X117467600Y-215886400D03*
D11*
X112387600Y-215886400D03*
X122547600Y-215886400D03*
D12*
X113657600Y-213346400D03*
X120007600Y-210806400D03*
%TD*%
D10*
%TO.C,MX35*%
X141278600Y-215886400D03*
D11*
X136198600Y-215886400D03*
X146358600Y-215886400D03*
D12*
X137468600Y-213346400D03*
X143818600Y-210806400D03*
%TD*%
D10*
%TO.C,MX36*%
X160327400Y-215886400D03*
D11*
X155247400Y-215886400D03*
X165407400Y-215886400D03*
D12*
X156517400Y-213346400D03*
X162867400Y-210806400D03*
%TD*%
D10*
%TO.C,MX37*%
X179376200Y-215886400D03*
D11*
X174296200Y-215886400D03*
X184456200Y-215886400D03*
D12*
X175566200Y-213346400D03*
X181916200Y-210806400D03*
%TD*%
D10*
%TO.C,MX38*%
X198425000Y-215886400D03*
D11*
X193345000Y-215886400D03*
X203505000Y-215886400D03*
D12*
X194615000Y-213346400D03*
X200965000Y-210806400D03*
%TD*%
D10*
%TO.C,MX39*%
X217473800Y-215886400D03*
D11*
X212393800Y-215886400D03*
X222553800Y-215886400D03*
D12*
X213663800Y-213346400D03*
X220013800Y-210806400D03*
%TD*%
D10*
%TO.C,MX40*%
X236522600Y-215886400D03*
D11*
X231442600Y-215886400D03*
X241602600Y-215886400D03*
D12*
X232712600Y-213346400D03*
X239062600Y-210806400D03*
%TD*%
D10*
%TO.C,MX41*%
X255571400Y-215886400D03*
D11*
X250491400Y-215886400D03*
X260651400Y-215886400D03*
D12*
X251761400Y-213346400D03*
X258111400Y-210806400D03*
%TD*%
D10*
%TO.C,MX42*%
X274620200Y-215886400D03*
D11*
X269540200Y-215886400D03*
X279700200Y-215886400D03*
D12*
X270810200Y-213346400D03*
X277160200Y-210806400D03*
%TD*%
D10*
%TO.C,MX43*%
X293669000Y-215886400D03*
D11*
X288589000Y-215886400D03*
X298749000Y-215886400D03*
D12*
X289859000Y-213346400D03*
X296209000Y-210806400D03*
%TD*%
D10*
%TO.C,MX45*%
X331766600Y-215886400D03*
D11*
X326686600Y-215886400D03*
X336846600Y-215886400D03*
D12*
X327956600Y-213346400D03*
X334306600Y-210806400D03*
%TD*%
D10*
%TO.C,MX46*%
X350815400Y-215886400D03*
D11*
X345735400Y-215886400D03*
X355895400Y-215886400D03*
D12*
X347005400Y-213346400D03*
X353355400Y-210806400D03*
%TD*%
D10*
%TO.C,MX48*%
X407961800Y-215886400D03*
D11*
X402881800Y-215886400D03*
X413041800Y-215886400D03*
D12*
X404151800Y-213346400D03*
X410501800Y-210806400D03*
%TD*%
D10*
%TO.C,MX49*%
X427010600Y-215886400D03*
D11*
X421930600Y-215886400D03*
X432090600Y-215886400D03*
D12*
X423200600Y-213346400D03*
X429550600Y-210806400D03*
%TD*%
D10*
%TO.C,MX51*%
X88894400Y-234935200D03*
D11*
X83814400Y-234935200D03*
X93974400Y-234935200D03*
D12*
X85084400Y-232395200D03*
X91434400Y-229855200D03*
%TD*%
D10*
%TO.C,MX52*%
X119848700Y-234935200D03*
D11*
X114768700Y-234935200D03*
X124928700Y-234935200D03*
D12*
X116038700Y-232395200D03*
X122388700Y-229855200D03*
%TD*%
D10*
%TO.C,MX53*%
X145982500Y-234935200D03*
D11*
X140902500Y-234935200D03*
X151062500Y-234935200D03*
D12*
X142172500Y-232395200D03*
X148522500Y-229855200D03*
%TD*%
D10*
%TO.C,MX54*%
X165089600Y-234935200D03*
D11*
X160009600Y-234935200D03*
X170169600Y-234935200D03*
D12*
X161279600Y-232395200D03*
X167629600Y-229855200D03*
%TD*%
D10*
%TO.C,MX55*%
X184138400Y-234935200D03*
D11*
X179058400Y-234935200D03*
X189218400Y-234935200D03*
D12*
X180328400Y-232395200D03*
X186678400Y-229855200D03*
%TD*%
D10*
%TO.C,MX56*%
X203187200Y-234935200D03*
D11*
X198107200Y-234935200D03*
X208267200Y-234935200D03*
D12*
X199377200Y-232395200D03*
X205727200Y-229855200D03*
%TD*%
D10*
%TO.C,MX57*%
X222236000Y-234935200D03*
D11*
X217156000Y-234935200D03*
X227316000Y-234935200D03*
D12*
X218426000Y-232395200D03*
X224776000Y-229855200D03*
%TD*%
D10*
%TO.C,MX59*%
X260333600Y-234935200D03*
D11*
X255253600Y-234935200D03*
X265413600Y-234935200D03*
D12*
X256523600Y-232395200D03*
X262873600Y-229855200D03*
%TD*%
D10*
%TO.C,MX60*%
X279382400Y-234935200D03*
D11*
X274302400Y-234935200D03*
X284462400Y-234935200D03*
D12*
X275572400Y-232395200D03*
X281922400Y-229855200D03*
%TD*%
D10*
%TO.C,MX61*%
X298431200Y-234935200D03*
D11*
X293351200Y-234935200D03*
X303511200Y-234935200D03*
D12*
X294621200Y-232395200D03*
X300971200Y-229855200D03*
%TD*%
D10*
%TO.C,MX63*%
X336528800Y-234935200D03*
D11*
X331448800Y-234935200D03*
X341608800Y-234935200D03*
D12*
X332718800Y-232395200D03*
X339068800Y-229855200D03*
%TD*%
D10*
%TO.C,MX65*%
X88894400Y-253984000D03*
D11*
X83814400Y-253984000D03*
X93974400Y-253984000D03*
D12*
X85084400Y-251444000D03*
X91434400Y-248904000D03*
%TD*%
D10*
%TO.C,MX66*%
X124610900Y-253984000D03*
D11*
X119530900Y-253984000D03*
X129690900Y-253984000D03*
D12*
X120800900Y-251444000D03*
X127150900Y-248904000D03*
D13*
X112672900Y-262239000D03*
X136548900Y-262239000D03*
D14*
X112672900Y-246999000D03*
X136548900Y-246999000D03*
%TD*%
D10*
%TO.C,MX67*%
X155565200Y-253984000D03*
D11*
X150485200Y-253984000D03*
X160645200Y-253984000D03*
D12*
X151755200Y-251444000D03*
X158105200Y-248904000D03*
%TD*%
D10*
%TO.C,MX68*%
X174614000Y-253984000D03*
D11*
X169534000Y-253984000D03*
X179694000Y-253984000D03*
D12*
X170804000Y-251444000D03*
X177154000Y-248904000D03*
%TD*%
D10*
%TO.C,MX69*%
X193662800Y-253984000D03*
D11*
X188582800Y-253984000D03*
X198742800Y-253984000D03*
D12*
X189852800Y-251444000D03*
X196202800Y-248904000D03*
%TD*%
D10*
%TO.C,MX70*%
X212711600Y-253984000D03*
D11*
X207631600Y-253984000D03*
X217791600Y-253984000D03*
D12*
X208901600Y-251444000D03*
X215251600Y-248904000D03*
%TD*%
D10*
%TO.C,MX71*%
X231760400Y-253984000D03*
D11*
X226680400Y-253984000D03*
X236840400Y-253984000D03*
D12*
X227950400Y-251444000D03*
X234300400Y-248904000D03*
%TD*%
D10*
%TO.C,MX72*%
X250809200Y-253984000D03*
D11*
X245729200Y-253984000D03*
X255889200Y-253984000D03*
D12*
X246999200Y-251444000D03*
X253349200Y-248904000D03*
%TD*%
D10*
%TO.C,MX73*%
X269858000Y-253984000D03*
D11*
X264778000Y-253984000D03*
X274938000Y-253984000D03*
D12*
X266048000Y-251444000D03*
X272398000Y-248904000D03*
%TD*%
D10*
%TO.C,MX74*%
X288906800Y-253984000D03*
D11*
X283826800Y-253984000D03*
X293986800Y-253984000D03*
D12*
X285096800Y-251444000D03*
X291446800Y-248904000D03*
%TD*%
D10*
%TO.C,MX75*%
X307955600Y-253984000D03*
D11*
X302875600Y-253984000D03*
X313035600Y-253984000D03*
D12*
X304145600Y-251444000D03*
X310495600Y-248904000D03*
%TD*%
D10*
%TO.C,MX76*%
X327004400Y-253984000D03*
D11*
X321924400Y-253984000D03*
X332084400Y-253984000D03*
D12*
X323194400Y-251444000D03*
X329544400Y-248904000D03*
%TD*%
D14*
%TO.C,MX77*%
X374690650Y-246999000D03*
X350814650Y-246999000D03*
D13*
X374690650Y-262239000D03*
X350814650Y-262239000D03*
D12*
X365260900Y-248904000D03*
X358910900Y-251444000D03*
D11*
X367800900Y-253984000D03*
X357640900Y-253984000D03*
D10*
X362720900Y-253984000D03*
%TD*%
%TO.C,MX78*%
X427010600Y-253984000D03*
D11*
X421930600Y-253984000D03*
X432090600Y-253984000D03*
D12*
X423200600Y-251444000D03*
X429550600Y-248904000D03*
%TD*%
D10*
%TO.C,MX79*%
X88894400Y-273032800D03*
D11*
X83814400Y-273032800D03*
X93974400Y-273032800D03*
D12*
X85084400Y-270492800D03*
X91434400Y-267952800D03*
%TD*%
D10*
%TO.C,MX80*%
X115086500Y-273032800D03*
D11*
X110006500Y-273032800D03*
X120166500Y-273032800D03*
D12*
X111276500Y-270492800D03*
X117626500Y-267952800D03*
%TD*%
D10*
%TO.C,MX81*%
X138897500Y-273032800D03*
D11*
X133817500Y-273032800D03*
X143977500Y-273032800D03*
D12*
X135087500Y-270492800D03*
X141437500Y-267952800D03*
%TD*%
D10*
%TO.C,MX82*%
X162708500Y-273032800D03*
D11*
X157628500Y-273032800D03*
X167788500Y-273032800D03*
D12*
X158898500Y-270492800D03*
X165248500Y-267952800D03*
%TD*%
D10*
%TO.C,MX85*%
X329385500Y-273032800D03*
D11*
X324305500Y-273032800D03*
X334465500Y-273032800D03*
D12*
X325575500Y-270492800D03*
X331925500Y-267952800D03*
%TD*%
D10*
%TO.C,MX86*%
X353196500Y-273032800D03*
D11*
X348116500Y-273032800D03*
X358276500Y-273032800D03*
D12*
X349386500Y-270492800D03*
X355736500Y-267952800D03*
%TD*%
D10*
%TO.C,MX89*%
X427010600Y-273032800D03*
D11*
X421930600Y-273032800D03*
X432090600Y-273032800D03*
D12*
X423200600Y-270492800D03*
X429550600Y-267952800D03*
%TD*%
D10*
%TO.C,MX64*%
X367483100Y-234935200D03*
D11*
X362403100Y-234935200D03*
X372563100Y-234935200D03*
D12*
X363673100Y-232395200D03*
X370023100Y-229855200D03*
D13*
X355545100Y-243190200D03*
X379421100Y-243190200D03*
D14*
X355545100Y-227950200D03*
X379421100Y-227950200D03*
%TD*%
D10*
%TO.C,MX47*%
X374626400Y-215886400D03*
D11*
X369546400Y-215886400D03*
X379706400Y-215886400D03*
D12*
X370816400Y-213346400D03*
X377166400Y-210806400D03*
%TD*%
D10*
%TO.C,MX44*%
X312717800Y-215886400D03*
D11*
X307637800Y-215886400D03*
X317797800Y-215886400D03*
D12*
X308907800Y-213346400D03*
X315257800Y-210806400D03*
%TD*%
D27*
%TO.C,H1*%
X79370000Y-158740000D03*
%TD*%
%TO.C,H3*%
X79370000Y-282557200D03*
%TD*%
%TO.C,H4*%
X455583800Y-158740000D03*
%TD*%
%TO.C,H6*%
X455583800Y-282557200D03*
%TD*%
D10*
%TO.C,MX88*%
X407961800Y-273032800D03*
D11*
X402881800Y-273032800D03*
X413041800Y-273032800D03*
D12*
X404151800Y-270492800D03*
X410501800Y-267952800D03*
%TD*%
D10*
%TO.C,MX87*%
X377007500Y-273032800D03*
D11*
X371927500Y-273032800D03*
X382087500Y-273032800D03*
D12*
X373197500Y-270492800D03*
X379547500Y-267952800D03*
%TD*%
D10*
%TO.C,MX50*%
X446059400Y-215886400D03*
D11*
X440979400Y-215886400D03*
X451139400Y-215886400D03*
D12*
X442249400Y-213346400D03*
X448599400Y-210806400D03*
%TD*%
D10*
%TO.C,MX90*%
X446059400Y-273032800D03*
D11*
X440979400Y-273032800D03*
X451139400Y-273032800D03*
D12*
X442249400Y-270492800D03*
X448599400Y-267952800D03*
%TD*%
D10*
%TO.C,MX58*%
X241284800Y-234935200D03*
D11*
X236204800Y-234935200D03*
X246364800Y-234935200D03*
D12*
X237474800Y-232395200D03*
X243824800Y-229855200D03*
%TD*%
D10*
%TO.C,MX62*%
X317480000Y-234935200D03*
D11*
X312400000Y-234935200D03*
X322560000Y-234935200D03*
D12*
X313670000Y-232395200D03*
X320020000Y-229855200D03*
%TD*%
M02*
