%TF.GenerationSoftware,KiCad,Pcbnew,(5.1.10)-1*%
%TF.CreationDate,2022-01-09T14:06:06-05:00*%
%TF.ProjectId,custom_keyboard plate v2,63757374-6f6d-45f6-9b65-79626f617264,rev?*%
%TF.SameCoordinates,Original*%
%TF.FileFunction,Legend,Bot*%
%TF.FilePolarity,Positive*%
%FSLAX46Y46*%
G04 Gerber Fmt 4.6, Leading zero omitted, Abs format (unit mm)*
G04 Created by KiCad (PCBNEW (5.1.10)-1) date 2022-01-09 14:06:06*
%MOMM*%
%LPD*%
G01*
G04 APERTURE LIST*
%ADD10C,0.150000*%
%ADD11C,0.100000*%
G04 APERTURE END LIST*
D10*
X441154047Y-289946580D02*
X441154047Y-290660866D01*
X441201666Y-290803723D01*
X441296904Y-290898961D01*
X441439761Y-290946580D01*
X441535000Y-290946580D01*
X440201666Y-290946580D02*
X440677857Y-290946580D01*
X440677857Y-289946580D01*
X439296904Y-290851342D02*
X439344523Y-290898961D01*
X439487380Y-290946580D01*
X439582619Y-290946580D01*
X439725476Y-290898961D01*
X439820714Y-290803723D01*
X439868333Y-290708485D01*
X439915952Y-290518009D01*
X439915952Y-290375152D01*
X439868333Y-290184676D01*
X439820714Y-290089438D01*
X439725476Y-289994200D01*
X439582619Y-289946580D01*
X439487380Y-289946580D01*
X439344523Y-289994200D01*
X439296904Y-290041819D01*
X438582619Y-289946580D02*
X438582619Y-290660866D01*
X438630238Y-290803723D01*
X438725476Y-290898961D01*
X438868333Y-290946580D01*
X438963571Y-290946580D01*
X437630238Y-290946580D02*
X438106428Y-290946580D01*
X438106428Y-289946580D01*
X436725476Y-290851342D02*
X436773095Y-290898961D01*
X436915952Y-290946580D01*
X437011190Y-290946580D01*
X437154047Y-290898961D01*
X437249285Y-290803723D01*
X437296904Y-290708485D01*
X437344523Y-290518009D01*
X437344523Y-290375152D01*
X437296904Y-290184676D01*
X437249285Y-290089438D01*
X437154047Y-289994200D01*
X437011190Y-289946580D01*
X436915952Y-289946580D01*
X436773095Y-289994200D01*
X436725476Y-290041819D01*
X436011190Y-289946580D02*
X436011190Y-290660866D01*
X436058809Y-290803723D01*
X436154047Y-290898961D01*
X436296904Y-290946580D01*
X436392142Y-290946580D01*
X435058809Y-290946580D02*
X435535000Y-290946580D01*
X435535000Y-289946580D01*
X434154047Y-290851342D02*
X434201666Y-290898961D01*
X434344523Y-290946580D01*
X434439761Y-290946580D01*
X434582619Y-290898961D01*
X434677857Y-290803723D01*
X434725476Y-290708485D01*
X434773095Y-290518009D01*
X434773095Y-290375152D01*
X434725476Y-290184676D01*
X434677857Y-290089438D01*
X434582619Y-289994200D01*
X434439761Y-289946580D01*
X434344523Y-289946580D01*
X434201666Y-289994200D01*
X434154047Y-290041819D01*
X433439761Y-289946580D02*
X433439761Y-290660866D01*
X433487380Y-290803723D01*
X433582619Y-290898961D01*
X433725476Y-290946580D01*
X433820714Y-290946580D01*
X432487380Y-290946580D02*
X432963571Y-290946580D01*
X432963571Y-289946580D01*
X431582619Y-290851342D02*
X431630238Y-290898961D01*
X431773095Y-290946580D01*
X431868333Y-290946580D01*
X432011190Y-290898961D01*
X432106428Y-290803723D01*
X432154047Y-290708485D01*
X432201666Y-290518009D01*
X432201666Y-290375152D01*
X432154047Y-290184676D01*
X432106428Y-290089438D01*
X432011190Y-289994200D01*
X431868333Y-289946580D01*
X431773095Y-289946580D01*
X431630238Y-289994200D01*
X431582619Y-290041819D01*
X421103280Y-263992576D02*
X421198519Y-263944957D01*
X421388995Y-263944957D01*
X421484233Y-263992576D01*
X421579471Y-264087814D01*
X421627090Y-264183052D01*
X421627090Y-264373528D01*
X421579471Y-264468766D01*
X421484233Y-264564004D01*
X421388995Y-264611623D01*
X421198519Y-264611623D01*
X421103280Y-264564004D01*
X421293757Y-263611623D02*
X421531852Y-263659242D01*
X421769947Y-263802100D01*
X421912804Y-264040195D01*
X421960423Y-264278290D01*
X421912804Y-264516385D01*
X421769947Y-264754480D01*
X421531852Y-264897338D01*
X421293757Y-264944957D01*
X421055661Y-264897338D01*
X420817566Y-264754480D01*
X420674709Y-264516385D01*
X420627090Y-264278290D01*
X420674709Y-264040195D01*
X420817566Y-263802100D01*
X421055661Y-263659242D01*
X421293757Y-263611623D01*
X419484233Y-263849719D02*
X419436614Y-263802100D01*
X419341376Y-263754480D01*
X419103280Y-263754480D01*
X419008042Y-263802100D01*
X418960423Y-263849719D01*
X418912804Y-263944957D01*
X418912804Y-264040195D01*
X418960423Y-264183052D01*
X419531852Y-264754480D01*
X418912804Y-264754480D01*
X418293757Y-263754480D02*
X418198519Y-263754480D01*
X418103280Y-263802100D01*
X418055661Y-263849719D01*
X418008042Y-263944957D01*
X417960423Y-264135433D01*
X417960423Y-264373528D01*
X418008042Y-264564004D01*
X418055661Y-264659242D01*
X418103280Y-264706861D01*
X418198519Y-264754480D01*
X418293757Y-264754480D01*
X418388995Y-264706861D01*
X418436614Y-264659242D01*
X418484233Y-264564004D01*
X418531852Y-264373528D01*
X418531852Y-264135433D01*
X418484233Y-263944957D01*
X418436614Y-263849719D01*
X418388995Y-263802100D01*
X418293757Y-263754480D01*
X417579471Y-263849719D02*
X417531852Y-263802100D01*
X417436614Y-263754480D01*
X417198519Y-263754480D01*
X417103280Y-263802100D01*
X417055661Y-263849719D01*
X417008042Y-263944957D01*
X417008042Y-264040195D01*
X417055661Y-264183052D01*
X417627090Y-264754480D01*
X417008042Y-264754480D01*
X416627090Y-263849719D02*
X416579471Y-263802100D01*
X416484233Y-263754480D01*
X416246138Y-263754480D01*
X416150900Y-263802100D01*
X416103280Y-263849719D01*
X416055661Y-263944957D01*
X416055661Y-264040195D01*
X416103280Y-264183052D01*
X416674709Y-264754480D01*
X416055661Y-264754480D01*
X414865185Y-264754480D02*
X414865185Y-263754480D01*
X414865185Y-264230671D02*
X414293757Y-264230671D01*
X414293757Y-264754480D02*
X414293757Y-263754480D01*
X413674709Y-264754480D02*
X413769947Y-264706861D01*
X413817566Y-264659242D01*
X413865185Y-264564004D01*
X413865185Y-264278290D01*
X413817566Y-264183052D01*
X413769947Y-264135433D01*
X413674709Y-264087814D01*
X413531852Y-264087814D01*
X413436614Y-264135433D01*
X413388995Y-264183052D01*
X413341376Y-264278290D01*
X413341376Y-264564004D01*
X413388995Y-264659242D01*
X413436614Y-264706861D01*
X413531852Y-264754480D01*
X413674709Y-264754480D01*
X413008042Y-264087814D02*
X412817566Y-264754480D01*
X412627090Y-264278290D01*
X412436614Y-264754480D01*
X412246138Y-264087814D01*
X411436614Y-264754480D02*
X411436614Y-264230671D01*
X411484233Y-264135433D01*
X411579471Y-264087814D01*
X411769947Y-264087814D01*
X411865185Y-264135433D01*
X411436614Y-264706861D02*
X411531852Y-264754480D01*
X411769947Y-264754480D01*
X411865185Y-264706861D01*
X411912804Y-264611623D01*
X411912804Y-264516385D01*
X411865185Y-264421147D01*
X411769947Y-264373528D01*
X411531852Y-264373528D01*
X411436614Y-264325909D01*
X410960423Y-264754480D02*
X410960423Y-264087814D01*
X410960423Y-264278290D02*
X410912804Y-264183052D01*
X410865185Y-264135433D01*
X410769947Y-264087814D01*
X410674709Y-264087814D01*
X409912804Y-264754480D02*
X409912804Y-263754480D01*
X409912804Y-264706861D02*
X410008042Y-264754480D01*
X410198519Y-264754480D01*
X410293757Y-264706861D01*
X410341376Y-264659242D01*
X410388995Y-264564004D01*
X410388995Y-264278290D01*
X410341376Y-264183052D01*
X410293757Y-264135433D01*
X410198519Y-264087814D01*
X410008042Y-264087814D01*
X409912804Y-264135433D01*
X408817566Y-263754480D02*
X408246138Y-263754480D01*
X408531852Y-264754480D02*
X408531852Y-263754480D01*
X407960423Y-264706861D02*
X407865185Y-264754480D01*
X407674709Y-264754480D01*
X407579471Y-264706861D01*
X407531852Y-264611623D01*
X407531852Y-264564004D01*
X407579471Y-264468766D01*
X407674709Y-264421147D01*
X407817566Y-264421147D01*
X407912804Y-264373528D01*
X407960423Y-264278290D01*
X407960423Y-264230671D01*
X407912804Y-264135433D01*
X407817566Y-264087814D01*
X407674709Y-264087814D01*
X407579471Y-264135433D01*
X406722328Y-264706861D02*
X406817566Y-264754480D01*
X407008042Y-264754480D01*
X407103280Y-264706861D01*
X407150900Y-264611623D01*
X407150900Y-264230671D01*
X407103280Y-264135433D01*
X407008042Y-264087814D01*
X406817566Y-264087814D01*
X406722328Y-264135433D01*
X406674709Y-264230671D01*
X406674709Y-264325909D01*
X407150900Y-264421147D01*
X406246138Y-264087814D02*
X406246138Y-264754480D01*
X406246138Y-264183052D02*
X406198519Y-264135433D01*
X406103280Y-264087814D01*
X405960423Y-264087814D01*
X405865185Y-264135433D01*
X405817566Y-264230671D01*
X405817566Y-264754480D01*
X404912804Y-264087814D02*
X404912804Y-264897338D01*
X404960423Y-264992576D01*
X405008042Y-265040195D01*
X405103280Y-265087814D01*
X405246138Y-265087814D01*
X405341376Y-265040195D01*
X404912804Y-264706861D02*
X405008042Y-264754480D01*
X405198519Y-264754480D01*
X405293757Y-264706861D01*
X405341376Y-264659242D01*
X405388995Y-264564004D01*
X405388995Y-264278290D01*
X405341376Y-264183052D01*
X405293757Y-264135433D01*
X405198519Y-264087814D01*
X405008042Y-264087814D01*
X404912804Y-264135433D01*
X421912804Y-263167080D02*
X421912804Y-262167080D01*
X421817566Y-262786128D02*
X421531852Y-263167080D01*
X421531852Y-262500414D02*
X421912804Y-262881366D01*
X421103280Y-263167080D02*
X421103280Y-262167080D01*
X421103280Y-262548033D02*
X421008042Y-262500414D01*
X420817566Y-262500414D01*
X420722328Y-262548033D01*
X420674709Y-262595652D01*
X420627090Y-262690890D01*
X420627090Y-262976604D01*
X420674709Y-263071842D01*
X420722328Y-263119461D01*
X420817566Y-263167080D01*
X421008042Y-263167080D01*
X421103280Y-263119461D01*
X420198519Y-263071842D02*
X420150900Y-263119461D01*
X420198519Y-263167080D01*
X420246138Y-263119461D01*
X420198519Y-263071842D01*
X420198519Y-263167080D01*
X419722328Y-263167080D02*
X419722328Y-262167080D01*
X419293757Y-263167080D02*
X419293757Y-262643271D01*
X419341376Y-262548033D01*
X419436614Y-262500414D01*
X419579471Y-262500414D01*
X419674709Y-262548033D01*
X419722328Y-262595652D01*
X418960423Y-262500414D02*
X418579471Y-262500414D01*
X418817566Y-262167080D02*
X418817566Y-263024223D01*
X418769947Y-263119461D01*
X418674709Y-263167080D01*
X418579471Y-263167080D01*
X417722328Y-263167080D02*
X418293757Y-263167080D01*
X418008042Y-263167080D02*
X418008042Y-262167080D01*
X418103280Y-262309938D01*
X418198519Y-262405176D01*
X418293757Y-262452795D01*
X417341376Y-262262319D02*
X417293757Y-262214700D01*
X417198519Y-262167080D01*
X416960423Y-262167080D01*
X416865185Y-262214700D01*
X416817566Y-262262319D01*
X416769947Y-262357557D01*
X416769947Y-262452795D01*
X416817566Y-262595652D01*
X417388995Y-263167080D01*
X416769947Y-263167080D01*
X416436614Y-262167080D02*
X415817566Y-262167080D01*
X416150900Y-262548033D01*
X416008042Y-262548033D01*
X415912804Y-262595652D01*
X415865185Y-262643271D01*
X415817566Y-262738509D01*
X415817566Y-262976604D01*
X415865185Y-263071842D01*
X415912804Y-263119461D01*
X416008042Y-263167080D01*
X416293757Y-263167080D01*
X416388995Y-263119461D01*
X416436614Y-263071842D01*
X414960423Y-262500414D02*
X414960423Y-263167080D01*
X415198519Y-262119461D02*
X415436614Y-262833747D01*
X414817566Y-262833747D01*
X413960423Y-262167080D02*
X414436614Y-262167080D01*
X414484233Y-262643271D01*
X414436614Y-262595652D01*
X414341376Y-262548033D01*
X414103280Y-262548033D01*
X414008042Y-262595652D01*
X413960423Y-262643271D01*
X413912804Y-262738509D01*
X413912804Y-262976604D01*
X413960423Y-263071842D01*
X414008042Y-263119461D01*
X414103280Y-263167080D01*
X414341376Y-263167080D01*
X414436614Y-263119461D01*
X414484233Y-263071842D01*
X413484233Y-263071842D02*
X413436614Y-263119461D01*
X413484233Y-263167080D01*
X413531852Y-263119461D01*
X413484233Y-263071842D01*
X413484233Y-263167080D01*
X413103280Y-263167080D02*
X412579471Y-262500414D01*
X413103280Y-262500414D02*
X412579471Y-263167080D01*
X412293757Y-262500414D02*
X412055661Y-263167080D01*
X411817566Y-262500414D02*
X412055661Y-263167080D01*
X412150900Y-263405176D01*
X412198519Y-263452795D01*
X412293757Y-263500414D01*
X411531852Y-262500414D02*
X411008042Y-262500414D01*
X411531852Y-263167080D01*
X411008042Y-263167080D01*
X409912804Y-262119461D02*
X410769947Y-263405176D01*
X409388995Y-262167080D02*
X409293757Y-262167080D01*
X409198519Y-262214700D01*
X409150900Y-262262319D01*
X409103280Y-262357557D01*
X409055661Y-262548033D01*
X409055661Y-262786128D01*
X409103280Y-262976604D01*
X409150900Y-263071842D01*
X409198519Y-263119461D01*
X409293757Y-263167080D01*
X409388995Y-263167080D01*
X409484233Y-263119461D01*
X409531852Y-263071842D01*
X409579471Y-262976604D01*
X409627090Y-262786128D01*
X409627090Y-262548033D01*
X409579471Y-262357557D01*
X409531852Y-262262319D01*
X409484233Y-262214700D01*
X409388995Y-262167080D01*
X421912804Y-261579680D02*
X421912804Y-260579680D01*
X421817566Y-261198728D02*
X421531852Y-261579680D01*
X421531852Y-260913014D02*
X421912804Y-261293966D01*
X420722328Y-261532061D02*
X420817566Y-261579680D01*
X421008042Y-261579680D01*
X421103280Y-261532061D01*
X421150900Y-261436823D01*
X421150900Y-261055871D01*
X421103280Y-260960633D01*
X421008042Y-260913014D01*
X420817566Y-260913014D01*
X420722328Y-260960633D01*
X420674709Y-261055871D01*
X420674709Y-261151109D01*
X421150900Y-261246347D01*
X420341376Y-260913014D02*
X420103280Y-261579680D01*
X419865185Y-260913014D02*
X420103280Y-261579680D01*
X420198519Y-261817776D01*
X420246138Y-261865395D01*
X420341376Y-261913014D01*
X419484233Y-261579680D02*
X419484233Y-260579680D01*
X419484233Y-260960633D02*
X419388995Y-260913014D01*
X419198519Y-260913014D01*
X419103280Y-260960633D01*
X419055661Y-261008252D01*
X419008042Y-261103490D01*
X419008042Y-261389204D01*
X419055661Y-261484442D01*
X419103280Y-261532061D01*
X419198519Y-261579680D01*
X419388995Y-261579680D01*
X419484233Y-261532061D01*
X418436614Y-261579680D02*
X418531852Y-261532061D01*
X418579471Y-261484442D01*
X418627090Y-261389204D01*
X418627090Y-261103490D01*
X418579471Y-261008252D01*
X418531852Y-260960633D01*
X418436614Y-260913014D01*
X418293757Y-260913014D01*
X418198519Y-260960633D01*
X418150900Y-261008252D01*
X418103280Y-261103490D01*
X418103280Y-261389204D01*
X418150900Y-261484442D01*
X418198519Y-261532061D01*
X418293757Y-261579680D01*
X418436614Y-261579680D01*
X417246138Y-261579680D02*
X417246138Y-261055871D01*
X417293757Y-260960633D01*
X417388995Y-260913014D01*
X417579471Y-260913014D01*
X417674709Y-260960633D01*
X417246138Y-261532061D02*
X417341376Y-261579680D01*
X417579471Y-261579680D01*
X417674709Y-261532061D01*
X417722328Y-261436823D01*
X417722328Y-261341585D01*
X417674709Y-261246347D01*
X417579471Y-261198728D01*
X417341376Y-261198728D01*
X417246138Y-261151109D01*
X416769947Y-261579680D02*
X416769947Y-260913014D01*
X416769947Y-261103490D02*
X416722328Y-261008252D01*
X416674709Y-260960633D01*
X416579471Y-260913014D01*
X416484233Y-260913014D01*
X415722328Y-261579680D02*
X415722328Y-260579680D01*
X415722328Y-261532061D02*
X415817566Y-261579680D01*
X416008042Y-261579680D01*
X416103280Y-261532061D01*
X416150900Y-261484442D01*
X416198519Y-261389204D01*
X416198519Y-261103490D01*
X416150900Y-261008252D01*
X416103280Y-260960633D01*
X416008042Y-260913014D01*
X415817566Y-260913014D01*
X415722328Y-260960633D01*
X415055661Y-260579680D02*
X414960423Y-260579680D01*
X414865185Y-260627300D01*
X414817566Y-260674919D01*
X414769947Y-260770157D01*
X414722328Y-260960633D01*
X414722328Y-261198728D01*
X414769947Y-261389204D01*
X414817566Y-261484442D01*
X414865185Y-261532061D01*
X414960423Y-261579680D01*
X415055661Y-261579680D01*
X415150900Y-261532061D01*
X415198519Y-261484442D01*
X415246138Y-261389204D01*
X415293757Y-261198728D01*
X415293757Y-260960633D01*
X415246138Y-260770157D01*
X415198519Y-260674919D01*
X415150900Y-260627300D01*
X415055661Y-260579680D01*
X413198519Y-261055871D02*
X413531852Y-261055871D01*
X413531852Y-261579680D02*
X413531852Y-260579680D01*
X413055661Y-260579680D01*
X412103280Y-261579680D02*
X412436614Y-261103490D01*
X412674709Y-261579680D02*
X412674709Y-260579680D01*
X412293757Y-260579680D01*
X412198519Y-260627300D01*
X412150900Y-260674919D01*
X412103280Y-260770157D01*
X412103280Y-260913014D01*
X412150900Y-261008252D01*
X412198519Y-261055871D01*
X412293757Y-261103490D01*
X412674709Y-261103490D01*
X411246138Y-260913014D02*
X411246138Y-261579680D01*
X411484233Y-260532061D02*
X411722328Y-261246347D01*
X411103280Y-261246347D01*
X409960423Y-260913014D02*
X409960423Y-261913014D01*
X409960423Y-260960633D02*
X409865185Y-260913014D01*
X409674709Y-260913014D01*
X409579471Y-260960633D01*
X409531852Y-261008252D01*
X409484233Y-261103490D01*
X409484233Y-261389204D01*
X409531852Y-261484442D01*
X409579471Y-261532061D01*
X409674709Y-261579680D01*
X409865185Y-261579680D01*
X409960423Y-261532061D01*
X408912804Y-261579680D02*
X409008042Y-261532061D01*
X409055661Y-261436823D01*
X409055661Y-260579680D01*
X408103280Y-261579680D02*
X408103280Y-261055871D01*
X408150900Y-260960633D01*
X408246138Y-260913014D01*
X408436614Y-260913014D01*
X408531852Y-260960633D01*
X408103280Y-261532061D02*
X408198519Y-261579680D01*
X408436614Y-261579680D01*
X408531852Y-261532061D01*
X408579471Y-261436823D01*
X408579471Y-261341585D01*
X408531852Y-261246347D01*
X408436614Y-261198728D01*
X408198519Y-261198728D01*
X408103280Y-261151109D01*
X407769947Y-260913014D02*
X407388995Y-260913014D01*
X407627090Y-260579680D02*
X407627090Y-261436823D01*
X407579471Y-261532061D01*
X407484233Y-261579680D01*
X407388995Y-261579680D01*
X406674709Y-261532061D02*
X406769947Y-261579680D01*
X406960423Y-261579680D01*
X407055661Y-261532061D01*
X407103280Y-261436823D01*
X407103280Y-261055871D01*
X407055661Y-260960633D01*
X406960423Y-260913014D01*
X406769947Y-260913014D01*
X406674709Y-260960633D01*
X406627090Y-261055871D01*
X406627090Y-261151109D01*
X407103280Y-261246347D01*
X405531852Y-260913014D02*
X405293757Y-261579680D01*
X405055661Y-260913014D01*
X404722328Y-260674919D02*
X404674709Y-260627300D01*
X404579471Y-260579680D01*
X404341376Y-260579680D01*
X404246138Y-260627300D01*
X404198519Y-260674919D01*
X404150900Y-260770157D01*
X404150900Y-260865395D01*
X404198519Y-261008252D01*
X404769947Y-261579680D01*
X404150900Y-261579680D01*
D11*
%TO.C,logo*%
G36*
X413708050Y-255568954D02*
G01*
X414602342Y-254674663D01*
X414284842Y-254343933D01*
X412088800Y-256542621D01*
X412419529Y-256870704D01*
X413308529Y-255979058D01*
X416136925Y-258823329D01*
X416547029Y-258410579D01*
X413708050Y-255568954D01*
G37*
G36*
X416401508Y-258003121D02*
G01*
X419576508Y-254828121D01*
X419163758Y-254423308D01*
X417798508Y-255791204D01*
X416192487Y-254182538D01*
X417560383Y-252811996D01*
X417144987Y-252396600D01*
X413969987Y-255571600D01*
X414390675Y-255981704D01*
X415851175Y-254515913D01*
X417459842Y-256119288D01*
X415994050Y-257585079D01*
X416401508Y-258003121D01*
G37*
%TD*%
%LPC*%
M02*
