0
SECTION
2
HEADER
9
$INSUNITS
70
4
9
$ACADVER
1
AC1014
9
$HANDSEED
5
FFFF
0
ENDSEC
0
SECTION
2
TABLES
0
TABLE
2
VPORT
5
8
100
AcDbSymbolTable
0
ENDTAB
0
TABLE
2
LTYPE
5
5
100
AcDbSymbolTable
0
LTYPE
5
14
100
AcDbSymbolTableRecord
100
AcDbLinetypeTableRecord
2
BYBLOCK
70
0
0
LTYPE
5
15
100
AcDbSymbolTableRecord
100
AcDbLinetypeTableRecord
2
BYLAYER
70
0
0
ENDTAB
0
TABLE
2
LAYER
5
2
100
AcDbSymbolTable
70
2
0
LAYER
5
50
100
AcDbSymbolTableRecord
100
AcDbLayerTableRecord
2
0
70
0
6
CONTINUOUS
0
ENDTAB
0
TABLE
2
STYLE
5
3
100
AcDbSymbolTable
70
1
0
STYLE
5
11
100
AcDbSymbolTableRecord
100
AcDbTextStyleTableRecord
2
STANDARD
70
0
0
ENDTAB
0
TABLE
2
VIEW
5
6
100
AcDbSymbolTable
70
0
0
ENDTAB
0
TABLE
2
UCS
5
7
100
AcDbSymbolTable
70
0
0
ENDTAB
0
TABLE
2
APPID
5
9
100
AcDbSymbolTable
70
2
0
APPID
5
12
100
AcDbSymbolTableRecord
100
AcDbRegAppTableRecord
2
ACAD
70
0
0
ENDTAB
0
TABLE
2
DIMSTYLE
5
A
100
AcDbSymbolTable
70
1
0
ENDTAB
0
TABLE
2
BLOCK_RECORD
5
1
100
AcDbSymbolTable
70
1
0
BLOCK_RECORD
5
1F
100
AcDbSymbolTableRecord
100
AcDbBlockTableRecord
2
*MODEL_SPACE
0
BLOCK_RECORD
5
1B
100
AcDbSymbolTableRecord
100
AcDbBlockTableRecord
2
*PAPER_SPACE
0
ENDTAB
0
ENDSEC
0
SECTION
2
BLOCKS
0
BLOCK
5
20
100
AcDbEntity
100
AcDbBlockBegin
2
*MODEL_SPACE
0
ENDBLK
5
21
100
AcDbEntity
100
AcDbBlockEnd
0
BLOCK
5
1C
100
AcDbEntity
100
AcDbBlockBegin
2
*PAPER_SPACE
0
ENDBLK
5
1D
100
AcDbEntity
100
AcDbBlockEnd
0
ENDSEC
0
SECTION
2
ENTITIES
0
LINE
5
100
100
AcDbEntity
8
0
100
AcDbLine
10
-233.48050127069951
20
-63.495999574661255
30
2.7228558793839425e-48
11
-452.54169978201389
21
-63.495999574661255
31
7.4719740862107006e-48
0
LWPOLYLINE
5
101
100
AcDbEntity
8
0
100
AcDbPolyline
90
6
70
1
43
0.0
10
-226.30570871582029
20
-43.198480259950358
10
-228.7557087158203
20
-44.612988419464941
10
-228.7557087158203
20
-47.442004738494106
10
-226.30570871582029
20
-48.856512898008688
10
-223.8557087158203
20
-47.442004738494106
10
-223.8557087158203
20
-44.612988419464941
0
LWPOLYLINE
5
102
100
AcDbEntity
8
0
100
AcDbPolyline
90
6
70
1
43
0.0
10
-223.60458045652422
20
-66.732307058217202
10
-225.60500163204529
20
-64.731894987202764
10
-228.33761989134138
20
-65.464104507965146
10
-229.0698169751164
20
-68.196726099741937
10
-227.06939579959533
20
-70.197138170756375
10
-224.33677754029924
20
-69.464928649993993
0
LWPOLYLINE
5
103
100
AcDbEntity
8
0
100
AcDbPolyline
90
6
70
1
43
0.0
10
-224.33677972098693
20
69.464927672730312
10
-227.0693987784766
20
70.197134214614152
10
-229.06981777330995
20
68.196719962904524
10
-228.33761771065369
20
65.464099169311083
10
-225.60499865316402
20
64.731892627427243
10
-223.60457965833064
20
66.732306879136871
0
LWPOLYLINE
5
104
100
AcDbEntity
8
0
100
AcDbPolyline
90
6
70
1
43
0.0
10
-270.17099239679118
20
-67.464496578979549
10
-271.58550055630576
20
-65.014496578979575
10
-274.41451687533493
20
-65.014496578979575
10
-275.82902503484951
20
-67.464496578979549
10
-274.41451687533493
20
-69.914496578979566
10
-271.58550055630576
20
-69.914496578979566
0
LWPOLYLINE
5
105
100
AcDbEntity
8
0
100
AcDbPolyline
90
6
70
1
43
0.0
10
-223.8242087158203
20
-7.6129884194648767
10
-226.27420871582032
20
-6.1984802599502942
10
-228.72420871582034
20
-7.6129884194648767
10
-228.72420871582034
20
-10.442004738494042
10
-226.27420871582032
20
-11.856512898008624
10
-223.8242087158203
20
-10.442004738494042
0
LINE
5
106
100
AcDbEntity
8
0
100
AcDbLine
10
-230.3057012706995
20
60.321199574661257
30
1.2311751116457484e-33
11
-230.30570127069953
21
-60.321199574661293
31
0
0
LWPOLYLINE
5
107
100
AcDbEntity
8
0
100
AcDbPolyline
90
6
70
1
43
0.0
10
-509.06730055630578
20
-65.014496578979532
10
-511.89631687533495
20
-65.014496578979532
10
-513.31082503484947
20
-67.464496578979549
10
-511.89631687533495
20
-69.914496578979566
10
-509.06730055630578
20
-69.914496578979566
10
-507.65279239679114
20
-67.464496578979549
0
LWPOLYLINE
5
108
100
AcDbEntity
8
0
100
AcDbPolyline
90
6
70
1
43
0.0
10
-611.2128087158203
20
-10.442004738494042
10
-611.2128087158203
20
-7.6129884194648412
10
-613.66280871582035
20
-6.1984802599502586
10
-616.11280871582039
20
-7.6129884194648412
10
-616.11280871582039
20
-10.442004738494042
10
-613.66280871582035
20
-11.856512898008624
0
LINE
5
109
100
AcDbEntity
8
0
100
AcDbLine
10
-443.0172998458147
20
63.495999574661255
30
-3.0814879110194241e-32
11
-439.84249986708164
21
65.083399564027786
31
0
0
LWPOLYLINE
5
110
100
AcDbEntity
8
0
100
AcDbPolyline
90
6
70
1
43
0.0
10
-474.91451687533481
20
-65.014496578979532
10
-476.32902503484945
20
-67.464496578979549
10
-474.91451687533481
20
-69.914496578979566
10
-472.08550055630565
20
-69.914496578979566
10
-470.67099239679112
20
-67.464496578979549
10
-472.08550055630565
20
-65.014496578979532
0
LWPOLYLINE
5
111
100
AcDbEntity
8
0
100
AcDbPolyline
90
6
70
1
43
0.0
10
-564.17099239679112
20
-67.464496578979549
10
-565.58550055630565
20
-65.014496578979532
10
-568.41451687533481
20
-65.014496578979532
10
-569.82902503484945
20
-67.464496578979549
10
-568.41451687533481
20
-69.914496578979566
10
-565.58550055630565
20
-69.914496578979566
0
LWPOLYLINE
5
112
100
AcDbEntity
8
0
100
AcDbPolyline
90
6
70
1
43
0.0
10
-615.66321439956255
20
-69.464914141782714
10
-612.93059413012725
20
-70.197116160630657
10
-610.93017844638518
20
-68.196698597827464
10
-611.6623830320782
20
-65.464079016176299
10
-614.39500330151338
20
-64.731876997328357
10
-616.39541898525556
20
-66.732294560131578
0
LWPOLYLINE
5
113
100
AcDbEntity
8
0
100
AcDbPolyline
90
6
70
1
43
0.0
10
-615.66322340465467
20
69.464921978730445
10
-616.39542934941596
20
66.732302761241584
10
-614.39501466058164
20
64.731884203531848
10
-611.66239402698602
20
65.464084863311001
10
-610.93018808222484
20
68.196704080799861
10
-612.93060277105906
20
70.197122638509597
0
LWPOLYLINE
5
114
100
AcDbEntity
8
0
100
AcDbPolyline
90
6
70
1
43
0.0
10
-616.11280871582039
20
-47.449104738494086
10
-613.66280871582035
20
-48.863612898008668
10
-611.2128087158203
20
-47.449104738494086
10
-611.2128087158203
20
-44.620088419464921
10
-613.66280871582035
20
-43.205580259950338
10
-616.11280871582039
20
-44.620088419464921
0
LWPOLYLINE
5
115
100
AcDbEntity
8
0
100
AcDbPolyline
90
6
70
1
43
0.0
10
-435.91451687533493
20
-65.014496578979575
10
-437.32902503484951
20
-67.464496578979549
10
-435.91451687533493
20
-69.914496578979566
10
-433.08550055630576
20
-69.914496578979566
10
-431.67099239679118
20
-67.464496578979549
10
-433.08550055630576
20
-65.014496578979575
0
LWPOLYLINE
5
116
100
AcDbEntity
8
0
100
AcDbPolyline
90
6
70
1
43
0.0
10
-529.08550055630576
20
-65.014496578979532
10
-531.91451687533481
20
-65.014496578979532
10
-533.32902503484945
20
-67.464496578979549
10
-531.91451687533481
20
-69.914496578979566
10
-529.08550055630576
20
-69.914496578979566
10
-527.67099239679112
20
-67.464496578979549
0
LINE
5
117
100
AcDbEntity
8
0
100
AcDbLine
10
-468.41569967567921
20
-63.495999574661255
30
0
11
-606.51949872930049
21
-63.495999574661255
31
4.7105923584299671e-48
0
ARC
5
118
100
AcDbEntity
8
0
100
AcDbCircle
10
-613.6627920710896
20
67.464492071089694
30
2.2204460492503131e-15
40
3.968510000012635
210
-2.4821319746542888e-17
220
1.1187572934829849e-15
230
1
100
AcDbArc
50
91.270984861972039
51
179.99985562387235
0
ARC
5
119
100
AcDbEntity
8
0
100
AcDbCircle
10
-606.51949872930049
20
-60.321199574661222
30
-9.2744935440199189e-48
40
3.1748000000000332
210
2.9212843467367327e-48
220
1.2045703198402792e-48
230
1
100
AcDbArc
50
180
51
270
0
LWPOLYLINE
5
120
100
AcDbEntity
8
0
100
AcDbPolyline
90
6
70
1
43
0.0
10
-507.67099239679112
20
67.46450342102068
10
-509.0855005563057
20
69.914503421020697
10
-511.91451687533487
20
69.914503421020697
10
-513.32902503484945
20
67.46450342102068
10
-511.91451687533487
20
65.014503421020677
10
-509.0855005563057
20
65.014503421020677
0
LINE
5
121
100
AcDbEntity
8
0
100
AcDbLine
10
-617.63130207108964
20
67.464502071089711
30
2.2204460492503131e-15
11
-617.63130207108998
21
-67.46449792891049
31
2.2204460492503131e-15
0
ARC
5
122
100
AcDbEntity
8
0
100
AcDbCircle
10
-613.66281207108966
20
-67.464507928910507
30
0
40
3.9684900000129857
210
5.5951912420996352e-16
220
-1.409904333373276e-21
230
1
100
AcDbArc
50
179.99985562387235
51
270.00004844137277
0
ARC
5
123
100
AcDbEntity
8
0
100
AcDbCircle
10
-606.51949872930049
20
60.321199574661222
30
-4.91788706656964e-48
40
3.1748000000000154
210
3.079360662128563e-34
220
-4.9678154938096107e-48
230
1
100
AcDbArc
50
90
51
180
0
LINE
5
124
100
AcDbEntity
8
0
100
AcDbLine
10
-609.6942987293005
20
-60.321199574661257
30
0
11
-609.6942987293005
21
60.321199574661279
31
0
0
ARC
5
125
100
AcDbEntity
8
0
100
AcDbCircle
10
-233.48050127069951
20
-60.321199574661222
30
-3.2607729463124787e-48
40
3.1748000000000332
210
-7.7249922664590691e-35
220
1.8847262270682746e-48
230
1
100
AcDbArc
50
270
51
360
0
ARC
5
126
100
AcDbEntity
8
0
100
AcDbCircle
10
-233.48050127069953
20
60.321199574661222
30
1.3684555315672042e-46
40
3.1748000000000332
210
-3.8779611680939722e-34
220
2.4651903288156613e-32
230
1
100
AcDbArc
50
0
51
89.999999999999503
0
LINE
5
127
100
AcDbEntity
8
0
100
AcDbLine
10
-226.33720207108962
20
71.433002071089675
30
-9.7830828787367817e-32
11
-613.75081779513903
21
71.432025699441937
31
-2.2204460492503131e-15
0
LINE
5
128
100
AcDbEntity
8
0
100
AcDbLine
10
-606.51949872930049
20
63.495999574661241
30
1.0853933563177188e-47
11
-443.0172998458147
21
63.495999574661255
31
-3.0814879110194241e-32
0
LINE
5
129
100
AcDbEntity
8
0
100
AcDbLine
10
-430.31809993088245
20
63.495999574661255
30
0
11
-343.01110051572323
21
63.495999574661255
31
-2.9779606868223568e-48
0
LINE
5
130
100
AcDbEntity
8
0
100
AcDbLine
10
-468.41569966882133
20
-71.432997928910495
30
-1.6656927130300484e-48
11
-468.41569967567921
21
-63.495999574661255
31
0
0
LINE
5
131
100
AcDbEntity
8
0
100
AcDbLine
10
-439.84249986708164
20
65.083399564027786
30
0
11
-433.49289990961552
21
65.083399564027786
31
-2.1657895904162598e-49
0
LINE
5
132
100
AcDbEntity
8
0
100
AcDbLine
10
-333.48670057952404
20
65.083399564027786
30
-2.1657895904162598e-49
11
-330.31190060079098
21
63.495999574661255
31
0
0
LWPOLYLINE
5
133
100
AcDbEntity
8
0
100
AcDbPolyline
90
6
70
1
43
0.0
10
-365.0855005563057
20
-65.014496578979575
10
-367.91451687533487
20
-65.014496578979575
10
-369.32902503484945
20
-67.464496578979549
10
-367.91451687533487
20
-69.914496578979566
10
-365.0855005563057
20
-69.914496578979566
10
-363.67099239679112
20
-67.464496578979549
0
LWPOLYLINE
5
134
100
AcDbEntity
8
0
100
AcDbPolyline
90
6
70
1
43
0.0
10
-404.0855005563057
20
-69.914496578979566
10
-402.67099239679112
20
-67.464496578979549
10
-404.0855005563057
20
-65.014496578979575
10
-406.91451687533493
20
-65.014496578979575
10
-408.32902503484951
20
-67.464496578979549
10
-406.91451687533487
20
-69.914496578979566
0
LINE
5
135
100
AcDbEntity
8
0
100
AcDbLine
10
-452.54169978201389
20
-63.495999574661255
30
7.4719740862107006e-48
11
-452.54169978201389
21
-71.432999521493912
31
1.2325951644078309e-31
0
LINE
5
136
100
AcDbEntity
8
0
100
AcDbLine
10
-433.49289990961552
20
65.083399564027786
30
-2.1657895904162598e-49
11
-430.31809993088245
21
63.495999574661255
31
0
0
LINE
5
137
100
AcDbEntity
8
0
100
AcDbLine
10
-330.31190060079098
20
63.495999574661255
30
0
11
-233.48050127069951
21
63.495999574661255
31
-3.3028291246594009e-48
0
LWPOLYLINE
5
138
100
AcDbEntity
8
0
100
AcDbPolyline
90
6
70
1
43
0.0
10
-326.67099239679118
20
67.46450342102068
10
-328.08550055630576
20
69.914503421020697
10
-330.91451687533493
20
69.914503421020697
10
-332.32902503484951
20
67.46450342102068
10
-330.91451687533493
20
65.014503421020677
10
-328.08550055630576
20
65.014503421020677
0
ARC
5
139
100
AcDbEntity
8
0
100
AcDbCircle
10
-226.33719871582031
20
-67.46451657897957
30
-2.2204460492503131e-15
40
3.9684900000525984
210
1.4099043333203484e-21
220
5.5951912420437849e-16
230
1
100
AcDbArc
50
-90.000144376776902
51
0.00028875351752671521
0
LINE
5
140
100
AcDbEntity
8
0
100
AcDbLine
10
-222.36870871581812
20
-67.464496578979578
30
-2.2204460492503131e-15
11
-222.3687087158203
21
67.464503421020652
31
-2.2204460492503131e-15
0
ARC
5
141
100
AcDbEntity
8
0
100
AcDbCircle
10
-226.33719207108959
20
67.464512071089729
30
0
40
3.9684833552787198
210
5.5952006105594195e-16
220
-1.2195810693304317e-21
230
1
100
AcDbArc
50
-0.00012488464388784204
51
90.000144376777286
0
LWPOLYLINE
5
142
100
AcDbEntity
8
0
100
AcDbPolyline
90
6
70
1
43
0.0
10
-330.9327168753349
20
-69.914496578979566
10
-328.10370055630574
20
-69.914496578979566
10
-326.6891923967911
20
-67.464496578979549
10
-328.10370055630574
20
-65.014496578979575
10
-330.9327168753349
20
-65.014496578979575
10
-332.34722503484943
20
-67.464496578979549
0
LINE
5
143
100
AcDbEntity
8
0
100
AcDbLine
10
-343.01110051572323
20
63.495999574661255
30
-2.9779606868223568e-48
11
-339.83630053699017
21
65.083399564027786
31
0
0
LWPOLYLINE
5
144
100
AcDbEntity
8
0
100
AcDbPolyline
90
6
70
1
43
0.0
10
-310.91451687533493
20
-65.014496578979575
10
-312.32902503484951
20
-67.464496578979549
10
-310.91451687533493
20
-69.914496578979566
10
-308.08550055630576
20
-69.914496578979566
10
-306.67099239679118
20
-67.464496578979549
10
-308.08550055630576
20
-65.014496578979575
0
LINE
5
145
100
AcDbEntity
8
0
100
AcDbLine
10
-339.83630053699017
20
65.083399564027786
30
0
11
-333.48670057952404
21
65.083399564027786
31
-2.1657895904162598e-49
0
LWPOLYLINE
5
146
100
AcDbEntity
8
0
100
AcDbPolyline
90
6
70
1
43
0.0
10
-613.69430871588429
20
-99.667524247991324
10
-611.24430871588436
20
-98.253016088476741
10
-611.24430871588436
20
-95.423999769447576
10
-613.69430871588429
20
-94.009491609932994
10
-616.14430871588434
20
-95.423999769447576
10
-616.14430871588434
20
-98.253016088476741
0
LWPOLYLINE
5
147
100
AcDbEntity
8
0
100
AcDbPolyline
90
6
70
1
43
0.0
10
-616.39543697518047
20
-76.133697449724451
10
-614.3950157996594
20
-78.134109520738946
10
-611.66239754036326
20
-77.401899999976536
10
-610.9302004565883
20
-74.669278408199773
10
-612.93062163210936
20
-72.668866337185278
10
-615.6632398914054
20
-73.401075857947689
0
LWPOLYLINE
5
148
100
AcDbEntity
8
0
100
AcDbPolyline
90
6
70
1
43
0.0
10
-615.66323771071779
20
-212.33093218067197
10
-612.93061865322807
20
-213.06313872255578
10
-610.93019965839471
20
-211.06272447084621
10
-611.66239972105109
20
-208.33010367725274
10
-614.3950187785407
20
-207.5978971353689
10
-616.39543777337406
20
-209.59831138707855
0
LWPOLYLINE
5
149
100
AcDbEntity
8
0
100
AcDbPolyline
90
6
70
1
43
0.0
10
-569.82902503491357
20
-75.401507928962133
10
-568.41451687539893
20
-77.851507928962107
10
-565.58550055636977
20
-77.851507928962107
10
-564.17099239685524
20
-75.401507928962133
10
-565.58550055636977
20
-72.951507928962087
10
-568.41451687539893
20
-72.951507928962087
0
LWPOLYLINE
5
150
100
AcDbEntity
8
0
100
AcDbPolyline
90
6
70
1
43
0.0
10
-616.17580871588439
20
-135.25301608847684
10
-613.72580871588434
20
-136.66752424799142
10
-611.2758087158843
20
-135.25301608847678
10
-611.2758087158843
20
-132.42399976944762
10
-613.72580871588434
20
-131.00949160993304
10
-616.17580871588439
20
-132.42399976944762
0
LWPOLYLINE
5
151
100
AcDbEntity
8
0
100
AcDbPolyline
90
16
70
1
43
0.0
10
-609.69431616100508
20
-82.544804933280389
10
-609.69431616100519
20
-203.1872040826029
42
0.41421356237309503
10
-606.51951616100519
20
-206.36200408260294
10
-509.68811683091371
20
-206.36200408260294
10
-506.51331685218065
20
-207.94940407196947
10
-500.16371689471453
20
-207.94940407196947
10
-496.98891691598146
20
-206.36200408260294
10
-409.68191750082218
20
-206.36200408260294
10
-406.50711752208912
20
-207.94940407196947
10
-400.15751756462299
20
-207.94940407196947
10
-396.98271758588993
20
-206.36200408260294
10
-233.4805187024042
20
-206.36200408260294
42
0.41421356237308193
10
-230.30571870240422
20
-203.18720408260305
10
-230.30571870240408
20
-82.54480493328046
42
0.41421356237310819
10
-233.48051870240425
20
-79.370004933280427
10
-606.51951616100519
20
-79.370004933280427
42
0.41421356237308848
0
LWPOLYLINE
5
152
100
AcDbEntity
8
0
100
AcDbPolyline
90
6
70
1
43
0.0
10
-330.93271687539891
20
-77.851507928962107
10
-328.10370055636974
20
-77.851507928962107
10
-326.68919239685516
20
-75.401507928962133
10
-328.10370055636974
20
-72.951507928962158
10
-330.93271687539891
20
-72.951507928962158
10
-332.34722503491349
20
-75.401507928962133
0
LWPOLYLINE
5
153
100
AcDbEntity
8
0
100
AcDbPolyline
90
6
70
1
43
0.0
10
-228.78720871588433
20
-132.42399976944768
10
-228.78720871588433
20
-135.25301608847684
10
-226.33720871588437
20
-136.66752424799142
10
-223.88720871588433
20
-135.25301608847684
10
-223.88720871588433
20
-132.42399976944768
10
-226.33720871588437
20
-131.00949160993309
0
LWPOLYLINE
5
154
100
AcDbEntity
8
0
100
AcDbPolyline
90
6
70
1
43
0.0
10
-365.08550055636982
20
-77.851507928962107
10
-363.67099239685524
20
-75.401507928962133
10
-365.08550055636982
20
-72.951507928962158
10
-367.91451687539899
20
-72.951507928962158
10
-369.32902503491357
20
-75.401507928962133
10
-367.91451687539899
20
-77.851507928962107
0
LWPOLYLINE
5
155
100
AcDbEntity
8
0
100
AcDbPolyline
90
6
70
1
43
0.0
10
-275.82902503491357
20
-75.401507928962133
10
-274.41451687539893
20
-77.851507928962107
10
-271.58550055636977
20
-77.851507928962107
10
-270.17099239685524
20
-75.401507928962133
10
-271.58550055636977
20
-72.951507928962158
10
-274.41451687539893
20
-72.951507928962158
0
LWPOLYLINE
5
156
100
AcDbEntity
8
0
100
AcDbPolyline
90
6
70
1
43
0.0
10
-224.33680303214209
20
-73.401090366158996
10
-227.0694233015773
20
-72.668888347311054
10
-229.06983898531948
20
-74.66930591011419
10
-228.33763439962644
20
-77.401925491765411
10
-225.60501413019125
20
-78.134127510613354
10
-223.60459844644907
20
-76.133709947810075
0
LWPOLYLINE
5
157
100
AcDbEntity
8
0
100
AcDbPolyline
90
6
70
1
43
0.0
10
-224.3367940270501
20
-212.33092648667218
10
-223.6045880822887
20
-209.59830726918327
10
-225.60500277112297
20
-207.59788871147356
10
-228.33762340471856
20
-208.33008937125271
10
-229.0698293494799
20
-211.06270858874154
10
-227.06941466064563
20
-213.06312714645131
0
LWPOLYLINE
5
158
100
AcDbEntity
8
0
100
AcDbPolyline
90
6
70
1
43
0.0
10
-223.88720871588433
20
-95.416899769447596
10
-226.33720871588437
20
-94.002391609933014
10
-228.78720871588433
20
-95.416899769447596
10
-228.78720871588433
20
-98.245916088476761
10
-226.33720871588437
20
-99.660424247991344
10
-223.88720871588433
20
-98.245916088476761
0
LWPOLYLINE
5
159
100
AcDbEntity
8
0
100
AcDbPolyline
90
6
70
1
43
0.0
10
-404.08550055636971
20
-77.851507928962107
10
-402.67099239685513
20
-75.401507928962133
10
-404.08550055636971
20
-72.951507928962087
10
-406.91451687539887
20
-72.951507928962087
10
-408.32902503491346
20
-75.401507928962133
10
-406.91451687539887
20
-77.851507928962107
0
LWPOLYLINE
5
160
100
AcDbEntity
8
0
100
AcDbPolyline
90
6
70
1
43
0.0
10
-310.91451687539893
20
-77.851507928962107
10
-308.08550055636977
20
-77.851507928962107
10
-306.67099239685518
20
-75.401507928962133
10
-308.08550055636977
20
-72.951507928962158
10
-310.91451687539893
20
-72.951507928962158
10
-312.32902503491351
20
-75.401507928962133
0
ARC
5
161
100
AcDbEntity
8
0
100
AcDbCircle
10
-226.33722536061512
20
-210.33049657903143
30
2.2204460492503131e-15
40
3.9685100000126012
210
2.4821319746542897e-17
220
-1.1187572934829944e-15
230
1
100
AcDbArc
50
271.27098486197326
51
359.99985562387235
0
LWPOLYLINE
5
162
100
AcDbEntity
8
0
100
AcDbPolyline
90
6
70
1
43
0.0
10
-332.32902503491357
20
-210.33050792896233
10
-330.91451687539904
20
-212.78050792896238
10
-328.08550055636988
20
-212.78050792896238
10
-326.67099239685524
20
-210.33050792896233
10
-328.08550055636988
20
-207.88050792896234
10
-330.91451687539904
20
-207.88050792896234
0
LINE
5
163
100
AcDbEntity
8
0
100
AcDbLine
10
-222.368715360615
20
-210.33050657903146
30
2.2204460492503131e-15
11
-222.36871536061466
21
-75.401506579031192
31
2.2204460492503131e-15
0
ARC
5
164
100
AcDbEntity
8
0
100
AcDbCircle
10
-226.33720536061503
20
-75.401496579031146
30
0
40
3.9684900000129857
210
-5.5951912420996352e-16
220
1.4099043334417906e-21
230
1
100
AcDbArc
50
-0.00014437612767356336
51
90.000048441371973
0
LINE
5
165
100
AcDbEntity
8
0
100
AcDbLine
10
-613.66281536061501
20
-214.29900657903133
30
-9.7830828787367817e-32
11
-226.24919963656561
21
-214.29803020738362
31
-2.2204460492503131e-15
0
LWPOLYLINE
5
166
100
AcDbEntity
8
0
100
AcDbPolyline
90
6
70
1
43
0.0
10
-474.91451687539893
20
-77.851507928962107
10
-472.08550055636977
20
-77.851507928962107
10
-470.67099239685518
20
-75.401507928962133
10
-472.08550055636977
20
-72.951507928962087
10
-474.91451687539893
20
-72.951507928962087
10
-476.32902503491351
20
-75.401507928962133
0
LWPOLYLINE
5
167
100
AcDbEntity
8
0
100
AcDbPolyline
90
6
70
1
43
0.0
10
-435.91451687539893
20
-72.951507928962087
10
-437.32902503491351
20
-75.401507928962133
10
-435.91451687539893
20
-77.851507928962107
10
-433.08550055636977
20
-77.851507928962107
10
-431.67099239685518
20
-75.401507928962133
10
-433.08550055636977
20
-72.951507928962087
0
LWPOLYLINE
5
168
100
AcDbEntity
8
0
100
AcDbPolyline
90
6
70
1
43
0.0
10
-513.32902503491357
20
-210.33050792896233
10
-511.91451687539893
20
-212.78050792896238
10
-509.08550055636977
20
-212.78050792896238
10
-507.67099239685524
20
-210.33050792896233
10
-509.08550055636977
20
-207.88050792896234
10
-511.91451687539893
20
-207.88050792896234
0
ARC
5
169
100
AcDbEntity
8
0
100
AcDbCircle
10
-613.66281871588433
20
-75.401487928962112
30
-2.2204460492503131e-15
40
3.968490000052634
210
-1.4099043333888566e-21
220
-5.5951912420437346e-16
230
1
100
AcDbArc
50
89.99985562322189
51
180.00028875351751
0
LINE
5
170
100
AcDbEntity
8
0
100
AcDbLine
10
-617.63130871588658
20
-75.401507928962133
30
-2.2204460492503131e-15
11
-617.63130871588442
21
-210.33050792896233
31
-2.2204460492503131e-15
0
ARC
5
171
100
AcDbEntity
8
0
100
AcDbCircle
10
-613.66282536061499
20
-210.33051657903138
30
0
40
3.9684833552787548
210
-5.5952006105593692e-16
220
1.219581069398938e-21
230
1
100
AcDbArc
50
179.99987511243773
51
270.00014437677646
0
LWPOLYLINE
5
172
100
AcDbEntity
8
0
100
AcDbPolyline
90
6
70
1
43
0.0
10
-509.06730055636979
20
-72.951507928962087
10
-511.89631687539895
20
-72.951507928962087
10
-513.31082503491348
20
-75.401507928962133
10
-511.89631687539895
20
-77.851507928962107
10
-509.06730055636979
20
-77.851507928962107
10
-507.6527923968552
20
-75.401507928962133
0
LWPOLYLINE
5
173
100
AcDbEntity
8
0
100
AcDbPolyline
90
6
70
1
43
0.0
10
-529.08550055636977
20
-77.851507928962107
10
-527.67099239685524
20
-75.401507928962133
10
-529.08550055636977
20
-72.951507928962087
10
-531.91451687539893
20
-72.951507928962087
10
-533.32902503491357
20
-75.401507928962133
10
-531.91451687539893
20
-77.851507928962107
0
LINE
5
174
100
AcDbEntity
8
0
100
AcDbLine
10
-613.66280871588424
20
-71.432997928922077
30
-5.8774717541114375e-38
11
-226.33720871582028
21
-71.433006579019604
31
-9.7830831352616293e-32
0
ENDSEC
0
SECTION
2
OBJECTS
0
DICTIONARY
5
C
100
AcDbDictionary
3
ACAD_GROUP
350
D
3
ACAD_MLINESTYLE
350
17
0
DICTIONARY
5
D
100
AcDbDictionary
0
DICTIONARY
5
1A
330
C
100
AcDbDictionary
0
DICTIONARY
5
17
100
AcDbDictionary
0
ENDSEC
0
EOF
