0
SECTION
2
HEADER
9
$INSUNITS
70
4
9
$ACADVER
1
AC1014
9
$HANDSEED
5
FFFF
0
ENDSEC
0
SECTION
2
TABLES
0
TABLE
2
VPORT
5
8
100
AcDbSymbolTable
0
ENDTAB
0
TABLE
2
LTYPE
5
5
100
AcDbSymbolTable
0
LTYPE
5
14
100
AcDbSymbolTableRecord
100
AcDbLinetypeTableRecord
2
BYBLOCK
70
0
0
LTYPE
5
15
100
AcDbSymbolTableRecord
100
AcDbLinetypeTableRecord
2
BYLAYER
70
0
0
ENDTAB
0
TABLE
2
LAYER
5
2
100
AcDbSymbolTable
70
2
0
LAYER
5
50
100
AcDbSymbolTableRecord
100
AcDbLayerTableRecord
2
0
70
0
6
CONTINUOUS
0
ENDTAB
0
TABLE
2
STYLE
5
3
100
AcDbSymbolTable
70
1
0
STYLE
5
11
100
AcDbSymbolTableRecord
100
AcDbTextStyleTableRecord
2
STANDARD
70
0
0
ENDTAB
0
TABLE
2
VIEW
5
6
100
AcDbSymbolTable
70
0
0
ENDTAB
0
TABLE
2
UCS
5
7
100
AcDbSymbolTable
70
0
0
ENDTAB
0
TABLE
2
APPID
5
9
100
AcDbSymbolTable
70
2
0
APPID
5
12
100
AcDbSymbolTableRecord
100
AcDbRegAppTableRecord
2
ACAD
70
0
0
ENDTAB
0
TABLE
2
DIMSTYLE
5
A
100
AcDbSymbolTable
70
1
0
ENDTAB
0
TABLE
2
BLOCK_RECORD
5
1
100
AcDbSymbolTable
70
1
0
BLOCK_RECORD
5
1F
100
AcDbSymbolTableRecord
100
AcDbBlockTableRecord
2
*MODEL_SPACE
0
BLOCK_RECORD
5
1B
100
AcDbSymbolTableRecord
100
AcDbBlockTableRecord
2
*PAPER_SPACE
0
ENDTAB
0
ENDSEC
0
SECTION
2
BLOCKS
0
BLOCK
5
20
100
AcDbEntity
100
AcDbBlockBegin
2
*MODEL_SPACE
0
ENDBLK
5
21
100
AcDbEntity
100
AcDbBlockEnd
0
BLOCK
5
1C
100
AcDbEntity
100
AcDbBlockBegin
2
*PAPER_SPACE
0
ENDBLK
5
1D
100
AcDbEntity
100
AcDbBlockEnd
0
ENDSEC
0
SECTION
2
ENTITIES
0
LWPOLYLINE
5
100
100
AcDbEntity
8
0
100
AcDbPolyline
90
6
70
1
43
0.0
10
-191.18778220486382
20
-229.2946427938208
10
-191.18778220486382
20
-226.46562647479163
10
-193.63778220486384
20
-225.05111831527705
10
-196.08778220486386
20
-226.46562647479163
10
-196.08778220486386
20
-229.2946427938208
10
-193.63778220486384
20
-230.70915095333538
0
LWPOLYLINE
5
101
100
AcDbEntity
8
0
100
AcDbPolyline
90
6
70
1
43
0.0
10
-91.826490364378444
20
-301.92213463430625
10
-93.240998523893026
20
-304.37213463430629
10
-91.826490364378444
20
-306.82213463430634
10
-88.997474045349279
20
-306.82213463430634
10
-87.582965885834696
20
-304.37213463430629
10
-88.997474045349279
20
-301.92213463430625
0
LWPOLYLINE
5
102
100
AcDbEntity
8
0
100
AcDbPolyline
90
6
70
1
43
0.0
10
-196.30741126235353
20
-303.63993809242254
10
-195.57521119969724
20
-306.37255888601595
10
-192.84259214220756
20
-307.10476542789985
10
-190.84217314737424
20
-305.10435117619016
10
-191.57437321003047
20
-302.37173038259675
10
-194.30699226752014
20
-301.63952384071285
0
ARC
5
103
100
AcDbEntity
8
0
100
AcDbCircle
10
-193.57479220486385
20
-304.37214463430627
30
0
40
3.9684900000126304
210
4.1106973001714422e-61
220
1.631326116994452e-55
230
1
100
AcDbArc
50
179.99985562387235
51
270.00014437677692
0
LINE
5
104
100
AcDbEntity
8
0
100
AcDbLine
10
-189.60628964998463
20
-217.85883134088726
30
0
11
-197.54328220486357
21
-217.85883134088726
31
-5.254869241218064e-45
0
LINE
5
105
100
AcDbEntity
8
0
100
AcDbLine
10
-197.54328220486357
20
-217.85883134088726
30
-5.254869241218064e-45
11
-197.54328220486389
21
-304.37213463430629
31
0
0
LINE
5
106
100
AcDbEntity
8
0
100
AcDbLine
10
-193.57478220486385
20
-308.3406346343063
30
-6.5601988855623207e-39
11
193.83882687445873
21
-308.33965841007631
31
-2.2204460492503131e-15
0
ARC
5
107
100
AcDbEntity
8
0
100
AcDbCircle
10
-185.63778964998454
20
-296.43513078794689
30
-6.0939035390102061e-48
40
3.968500000000077
210
9.4575284651947179e-35
220
-1.681177601441672e-48
230
1
100
AcDbArc
50
180
51
269.99999999999756
0
LWPOLYLINE
5
108
100
AcDbEntity
8
0
100
AcDbPolyline
90
6
70
1
43
0.0
10
177.90831525373704
20
-269.8901301025777
10
180.35831525373706
20
-268.47562194306312
10
180.35831525373706
20
-265.64660562403395
10
177.90831525373704
20
-264.23209746451937
10
175.45831525373703
20
-265.64660562403395
10
175.45831525373703
20
-268.47562194306312
0
LWPOLYLINE
5
109
100
AcDbEntity
8
0
100
AcDbPolyline
90
6
70
1
43
0.0
10
92.002525954650707
20
-301.92213463430625
10
89.173509635621542
20
-301.92213463430625
10
87.75900147610696
20
-304.37213463430629
10
89.173509635621542
20
-306.82213463430634
10
92.002525954650707
20
-306.82213463430634
10
93.41703411416529
20
-304.37213463430629
0
LWPOLYLINE
5
110
100
AcDbEntity
8
0
100
AcDbPolyline
90
6
70
1
43
0.0
10
-146.91935449962469
20
-228.24584132752122
10
-145.50484634011011
20
-225.79584132752117
10
-146.91935449962469
20
-223.34584132752113
10
-149.74837081865385
20
-223.34584132752113
10
-151.16287897816844
20
-225.79584132752117
10
-149.74837081865385
20
-228.24584132752122
0
LWPOLYLINE
5
111
100
AcDbEntity
8
0
100
AcDbPolyline
90
6
70
1
43
0.0
10
-51.05738447315801
20
-298.88512078790689
10
-49.642876313643427
20
-296.43512078790684
10
-51.05738447315801
20
-293.98512078790679
10
-53.886400792187175
20
-293.98512078790679
10
-55.300908951701757
20
-296.43512078790684
10
-53.886400792187175
20
-298.88512078790689
0
LWPOLYLINE
5
112
100
AcDbEntity
8
0
100
AcDbPolyline
90
6
70
1
43
0.0
10
177.14462816996203
20
-291.23075537532537
10
179.87724642925812
20
-290.49854585456296
10
180.60944351303311
20
-287.7659242627862
10
178.60902233751204
20
-285.76551219177168
10
175.87640407821596
20
-286.49772171253409
10
175.14420699444094
20
-289.23034330431085
0
LWPOLYLINE
5
113
100
AcDbEntity
8
0
100
AcDbPolyline
90
6
70
1
43
0.0
10
-33.868200792187224
20
-298.88512078790689
10
-31.039184473158059
20
-298.88512078790689
10
-29.624676313643477
20
-296.43512078790684
10
-31.039184473158059
20
-293.98512078790679
10
-33.868200792187224
20
-293.98512078790679
10
-35.282708951701807
20
-296.43512078790684
0
LINE
5
114
100
AcDbEntity
8
0
100
AcDbLine
10
-62.61428310870869
20
-292.46662378358855
30
1.3806908638903646e-48
11
-62.614283101850816
21
-300.40363072481489
31
0
0
LWPOLYLINE
5
115
100
AcDbEntity
8
0
100
AcDbPolyline
90
6
70
1
43
0.0
10
8.1573912662842929
20
-296.43512078790684
10
9.5718994257988754
20
-298.88512078790689
10
12.40091574482804
20
-298.88512078790689
10
13.815423904342623
20
-296.43512078790684
10
12.40091574482804
20
-293.98512078790679
10
9.5718994257988754
20
-293.98512078790679
0
LWPOLYLINE
5
116
100
AcDbEntity
8
0
100
AcDbPolyline
90
6
70
1
43
0.0
10
196.20081779513623
20
-229.2946427938208
10
196.20081779513623
20
-226.46562647479163
10
193.75081779513619
20
-225.05111831527705
10
191.30081779513614
20
-226.46562647479163
10
191.30081779513614
20
-229.2946427938208
10
193.75081779513619
20
-230.70915095333538
0
LINE
5
117
100
AcDbEntity
8
0
100
AcDbLine
10
-138.01576584090665
20
-229.76435131404102
30
0
11
-138.01576584090608
21
-221.82734132751358
31
1.1210387714598537e-43
0
LWPOLYLINE
5
118
100
AcDbEntity
8
0
100
AcDbPolyline
90
6
70
1
43
0.0
10
-167.03114307748803
20
-225.06364674182811
10
-169.0315606402913
20
-223.06323105808593
10
-171.76418022194238
20
-223.79543564377897
10
-172.49638224079033
20
-226.52805591321425
10
-170.49596467798719
20
-228.52847159695636
10
-167.76334509633597
20
-227.79626701126332
0
LWPOLYLINE
5
119
100
AcDbEntity
8
0
100
AcDbPolyline
90
6
70
1
43
0.0
10
-172.21376265913935
20
-273.87314948703585
10
-169.7637626591393
20
-275.28765764655043
10
-167.31376265913926
20
-273.87314948703585
10
-167.31376265913926
20
-271.04413316800668
10
-169.7637626591393
20
-269.6296250084921
10
-172.21376265913935
20
-271.04413316800668
0
ARC
5
120
100
AcDbEntity
8
0
100
AcDbCircle
10
-169.76376265913925
20
-225.79585132752115
30
0
40
3.9685100000099283
210
-2.4651903288156613e-32
220
0
230
1
100
AcDbArc
50
90
51
179.99985562387235
0
LINE
5
121
100
AcDbEntity
8
0
100
AcDbLine
10
-173.73227261044892
20
-282.1485509699944
30
2.2204460492503131e-15
11
-165.79526565482101
21
-282.14855096313659
31
0
0
LINE
5
122
100
AcDbEntity
8
0
100
AcDbLine
10
197.71931779514264
20
-217.85883134088783
30
2.2204460492503131e-15
11
189.78230780861639
21
-217.85883134088726
31
1.4637067577331782e-31
0
LINE
5
123
100
AcDbEntity
8
0
100
AcDbLine
10
-173.73227265913965
20
-225.79584132746447
30
-9.7831326748567648e-32
11
-173.73227261044892
21
-282.1485509699944
31
2.2204460492503131e-15
0
LWPOLYLINE
5
124
100
AcDbEntity
8
0
100
AcDbPolyline
90
6
70
1
43
0.0
10
100.71501585647951
20
-293.98512078790679
10
97.885999537450346
20
-293.98512078790679
10
96.471491377935763
20
-296.43512078790684
10
97.885999537450346
20
-298.88512078790689
10
100.71501585647951
20
-298.88512078790689
10
102.12952401599409
20
-296.43512078790684
0
LWPOLYLINE
5
125
100
AcDbEntity
8
0
100
AcDbPolyline
90
6
70
1
43
0.0
10
194.4830237398975
20
-301.63951541681746
10
191.75040310630192
20
-302.37171607659667
10
191.01819716154066
20
-305.1043352940855
10
193.01861185037484
20
-307.10475385179529
10
195.75123248397045
20
-306.37255319201608
10
196.48343842873177
20
-303.63993397452725
0
LINE
5
126
100
AcDbEntity
8
0
100
AcDbLine
10
129.46111561149948
20
-300.40363051633625
30
6.8876622118493409e-39
11
129.46111560464161
21
-292.46662378358855
31
0
0
LWPOLYLINE
5
127
100
AcDbEntity
8
0
100
AcDbPolyline
90
6
70
1
43
0.0
10
122.14772401599404
20
-296.43512078790684
10
120.73321585647946
20
-293.98512078790679
10
117.9041995374503
20
-293.98512078790679
10
116.48969137793571
20
-296.43512078790684
10
117.9041995374503
20
-298.88512078790689
10
120.73321585647946
20
-298.88512078790689
0
LINE
5
128
100
AcDbEntity
8
0
100
AcDbLine
10
88.982415875795056
20
-292.46662378358855
30
1.3806908638903646e-48
11
88.98241588265293
21
-300.40363055131132
31
0
0
LWPOLYLINE
5
129
100
AcDbEntity
8
0
100
AcDbPolyline
90
6
70
1
43
0.0
10
42.81542390434268
20
-296.43512078790684
10
41.400915744828097
20
-293.98512078790679
10
38.571899425798861
20
-293.98512078790679
10
37.157391266284279
20
-296.43512078790684
10
38.571899425798932
20
-298.88512078790689
10
41.400915744828097
20
-298.88512078790689
0
LINE
5
130
100
AcDbEntity
8
0
100
AcDbLine
10
-161.82676565482095
20
-229.76435131404102
30
-1.9430379683883997e-65
11
-138.01576584090665
21
-229.76435131404102
31
0
0
LWPOLYLINE
5
131
100
AcDbEntity
8
0
100
AcDbPolyline
90
6
70
1
43
0.0
10
80.400915744828083
20
-293.98512078790679
10
77.571899425798918
20
-293.98512078790679
10
76.157391266284336
20
-296.43512078790684
10
77.571899425798918
20
-298.88512078790689
10
80.400915744828083
20
-298.88512078790689
10
81.815423904342666
20
-296.43512078790684
0
LINE
5
132
100
AcDbEntity
8
0
100
AcDbLine
10
197.71931779513619
20
-304.37213463430629
30
2.2204460492503131e-15
11
197.71931779514264
21
-217.85883134088783
31
2.2204460492503131e-15
0
ARC
5
133
100
AcDbEntity
8
0
100
AcDbCircle
10
193.75080779513621
20
-304.37212463430649
30
2.2204460492503131e-15
40
3.9685100000125177
210
2.48194460795508e-17
220
-1.1187573350515792e-15
230
1
100
AcDbArc
50
271.27088890442354
51
359.99985562387235
0
ARC
5
134
100
AcDbEntity
8
0
100
AcDbCircle
10
185.81380780861639
20
-296.43513078794689
30
-1.0958335311378002e-48
40
3.9685000000000059
210
5.9924560687393071e-35
220
-7.9679037365917539e-49
230
1
100
AcDbArc
50
-90.00000000000081
51
0
0
LINE
5
135
100
AcDbEntity
8
0
100
AcDbLine
10
189.78230780861639
20
-217.85883134088726
30
1.4637067577331782e-31
11
189.78230780861634
21
-296.43513078794689
31
0
0
ARC
5
136
100
AcDbEntity
8
0
100
AcDbCircle
10
-161.82676565482095
20
-233.73285131404103
30
2.1084395886461046e-80
40
3.9685000000000059
210
-9.3289502944480445e-82
220
4.8961521189073931e-66
230
1
100
AcDbArc
50
90
51
180
0
LINE
5
137
100
AcDbEntity
8
0
100
AcDbLine
10
-165.79526565482101
20
-282.14855096313659
30
0
11
-165.79526565482095
21
-233.73285131404103
31
3.5032461608120427e-45
0
LINE
5
138
100
AcDbEntity
8
0
100
AcDbLine
10
181.84531525373666
20
-288.49811378354849
30
-2.2204460492503131e-15
11
181.84531525373674
21
-256.7501169653159
31
-2.2204460492503127e-15
0
LWPOLYLINE
5
139
100
AcDbEntity
8
0
100
AcDbPolyline
90
6
70
1
43
0.0
10
-10.725084361506561
20
-293.98512078790679
10
-13.554100680535726
20
-293.98512078790679
10
-14.968608840050308
20
-296.43512078790684
10
-13.554100680535726
20
-298.88512078790689
10
-10.725084361506561
20
-298.88512078790689
10
-9.310576201991978
20
-296.43512078790684
0
LINE
5
140
100
AcDbEntity
8
0
100
AcDbLine
10
-7.0552834808800924
20
-292.46662378358855
30
3.2757567555045909e-48
11
-7.0552834808800924
21
-300.4036237304212
31
0
0
LINE
5
141
100
AcDbEntity
8
0
100
AcDbLine
10
177.74403429601165
20
-292.46662344900051
30
9.1835496157991212e-39
11
177.87681525373702
21
-292.46662378358855
31
-6.6121557233753672e-38
0
ARC
5
142
100
AcDbEntity
8
0
100
AcDbCircle
10
177.87682525373702
20
-288.49813378354844
30
-2.2204460492503131e-15
40
3.968490000052705
210
1.4099043333201577e-21
220
5.595191242043634e-16
230
1
100
AcDbArc
50
-90.000144376776902
51
0.00028875351752671521
0
LWPOLYLINE
5
143
100
AcDbEntity
8
0
100
AcDbPolyline
90
6
70
1
43
0.0
10
132.6285234132516
20
-290.94811378354854
10
134.04303157276618
20
-288.49811378354849
10
132.6285234132516
20
-286.04811378354844
10
129.79950709422243
20
-286.04811378354844
10
128.38499893470785
20
-288.49811378354849
10
129.79950709422243
20
-290.94811378354854
0
LINE
5
144
100
AcDbEntity
8
0
100
AcDbLine
10
-22.13558337986214
20
-292.46662378358855
30
5.1437502772386139e-49
11
-22.13558337986214
21
-300.4036237304212
31
-1.2325951644078309e-31
0
ARC
5
145
100
AcDbEntity
8
0
100
AcDbCircle
10
169.9398226988578
20
-280.56111677923019
30
8.6212698488733863e-46
40
3.9685000000000059
210
-2.01255675425484e-34
220
-2.4651903288156624e-32
230
1
100
AcDbArc
50
-90.00000000000081
51
0
0
LINE
5
146
100
AcDbEntity
8
0
100
AcDbLine
10
181.84531525373674
20
-256.7501169653159
30
-2.2204460492503127e-15
11
173.90832269885783
21
-256.7501169653159
31
0
0
LINE
5
147
100
AcDbEntity
8
0
100
AcDbLine
10
169.93982269885774
20
-284.5296167792302
30
-9.7831078199048856e-32
11
121.52412304976231
21
-284.5296167792302
31
-7.0064923216240854e-45
0
LINE
5
148
100
AcDbEntity
8
0
100
AcDbLine
10
121.52412304976231
20
-284.5296167792302
30
-7.0064923216240854e-45
11
121.52412305662018
21
-292.46662349757634
31
0
0
LINE
5
149
100
AcDbEntity
8
0
100
AcDbLine
10
173.90832269885783
20
-256.7501169653159
30
0
11
173.9083226988578
21
-280.56111677923019
31
0
0
LINE
5
150
100
AcDbEntity
8
0
100
AcDbLine
10
181.75729143893005
20
-179.76218517733491
30
0
11
181.757291390354
21
-123.54227393794345
31
9.1835496157991212e-39
0
LWPOLYLINE
5
151
100
AcDbEntity
8
0
100
AcDbPolyline
90
6
70
1
43
0.0
10
-191.21280871582033
20
-182.61298841946484
10
-193.66280871582035
20
-181.19848025995026
10
-196.11280871582036
20
-182.61298841946484
10
-196.11280871582036
20
-185.44200473849403
10
-193.66280871582035
20
-186.85651289800862
10
-191.21280871582033
20
-185.44200473849401
0
LWPOLYLINE
5
152
100
AcDbEntity
8
0
100
AcDbPolyline
90
6
70
1
43
0.0
10
-21.664422163756498
20
-194.04878988679945
10
-20.249914004241845
20
-196.49878988679947
10
-17.42089768521268
20
-196.49878988679947
10
-16.006389525698097
20
-194.04878988679945
10
-17.42089768521268
20
-191.59878988679949
10
-20.249914004241916
20
-191.59878988679949
0
LWPOLYLINE
5
153
100
AcDbEntity
8
0
100
AcDbPolyline
90
6
70
1
43
0.0
10
21.579102314787306
20
-196.49878988679947
10
22.993610474301889
20
-194.04878988679945
10
21.579102314787306
20
-191.59878988679949
10
18.750085995758141
20
-191.59878988679949
10
17.335577836243559
20
-194.04878988679945
10
18.750085995758141
20
-196.49878988679947
0
LINE
5
154
100
AcDbEntity
8
0
100
AcDbLine
10
30.160602452612153
20
-198.01729966460542
30
9.1835496157991212e-39
11
30.160602445754279
21
-190.08029288248116
31
0
0
LWPOLYLINE
5
155
100
AcDbEntity
8
0
100
AcDbPolyline
90
6
70
1
43
0.0
10
-177.78880617436488
20
-175.44790619142708
10
-175.33880617436483
20
-174.0333980319125
10
-175.33880617436483
20
-171.20438171288333
10
-177.78880617436488
20
-169.78987355336875
10
-180.23880617436492
20
-171.20438171288333
10
-180.23880617436492
20
-174.0333980319125
0
LWPOLYLINE
5
156
100
AcDbEntity
8
0
100
AcDbPolyline
90
6
70
1
43
0.0
10
-129.71149801485024
20
-196.49878987239799
10
-128.29698985533565
20
-194.04878987239798
10
-129.71149801485024
20
-191.59878987239796
10
-132.5405143338794
20
-191.59878987239796
10
-133.95502249339398
20
-194.04878987239798
10
-132.5405143338794
20
-196.49878987239799
0
LWPOLYLINE
5
157
100
AcDbEntity
8
0
100
AcDbPolyline
90
6
70
1
43
0.0
10
-175.05617590492972
20
-194.78099189124589
10
-175.78838049062273
20
-192.04837230959473
10
-178.52100076005794
20
-191.31617029074678
10
-180.52141644380012
20
-193.31658785355
10
-179.78921185810708
20
-196.04920743520114
10
-177.05659158867181
20
-196.78140945404908
0
LINE
5
158
100
AcDbEntity
8
0
100
AcDbLine
10
70.639302181458703
20
-198.01729961522886
30
6.8876622118493409e-39
11
70.639302174600829
21
-190.08029288248116
31
0
0
ARC
5
159
100
AcDbEntity
8
0
100
AcDbCircle
10
-177.7887961743649
20
-194.04878987239795
30
0
40
3.9685100000099283
210
-2.2069026919443813e-46
220
-2.4651903288156619e-32
230
1
100
AcDbArc
50
180
51
269.99985562313253
0
LWPOLYLINE
5
160
100
AcDbEntity
8
0
100
AcDbPolyline
90
6
70
1
43
0.0
10
43.307710585953316
20
-194.04878988679945
10
41.893202426438734
20
-191.59878988679949
10
39.064186107409569
20
-191.59878988679949
10
37.649677947894986
20
-194.04878988679945
10
39.064186107409569
20
-196.49878988679947
10
41.893202426438734
20
-196.49878988679947
0
LINE
5
161
100
AcDbEntity
8
0
100
AcDbLine
10
-173.82029618784503
20
-162.30079305416538
30
0
11
-181.7573061743725
21
-162.30079305416481
31
1.1210387714598537e-43
0
LINE
5
162
100
AcDbEntity
8
0
100
AcDbLine
10
-197.63130871582672
20
-194.04879987239781
30
2.2204460492503131e-15
11
-189.6942987293005
21
-194.04879987239838
31
-1.1210387714598537e-43
0
LWPOLYLINE
5
163
100
AcDbEntity
8
0
100
AcDbPolyline
90
6
70
1
43
0.0
10
61.911402426438684
20
-196.49878988679947
10
63.325910585953267
20
-194.04878988679945
10
61.911402426438684
20
-191.59878988679949
10
59.082386107409519
20
-191.59878988679949
10
57.667877947894937
20
-194.04878988679945
10
59.082386107409519
20
-196.49878988679947
0
ARC
5
164
100
AcDbEntity
8
0
100
AcDbCircle
10
177.7888017249021
20
-123.40948298021806
30
-2.2204460492503131e-15
40
3.9684900000525984
210
-5.5951912420437849e-16
220
1.4099043331959561e-21
230
1
100
AcDbArc
50
-0.00014437612767356336
51
90.000003818105341
0
LINE
5
165
100
AcDbEntity
8
0
100
AcDbLine
10
146.0407849066695
20
-119.44099298021838
30
-2.2204460492503127e-15
11
146.04078490666947
21
-127.37798553509728
31
0
0
LWPOLYLINE
5
166
100
AcDbEntity
8
0
100
AcDbPolyline
90
6
70
1
43
0.0
10
-89.860997903198836
20
-191.59878988679947
10
-92.690014222228001
20
-191.59878988679947
10
-94.104522381742584
20
-194.04878988679945
10
-92.690014222228001
20
-196.49878988679947
10
-89.860997903198836
20
-196.49878988679947
10
-88.446489743684253
20
-194.04878988679945
0
LWPOLYLINE
5
167
100
AcDbEntity
8
0
100
AcDbPolyline
90
6
70
1
43
0.0
10
-109.87919790319879
20
-191.59878988679947
10
-112.70821422222795
20
-191.59878988679947
10
-114.12272238174253
20
-194.04878988679945
10
-112.70821422222795
20
-196.49878988679947
10
-109.87919790319879
20
-196.49878988679947
10
-108.4646897436842
20
-194.04878988679945
0
LINE
5
168
100
AcDbEntity
8
0
100
AcDbLine
10
173.82028472058374
20
-131.3464855350974
30
-9.7831078199048856e-32
11
173.82028472058377
21
-179.76218518419279
31
-7.0064923216240854e-45
0
ARC
5
169
100
AcDbEntity
8
0
100
AcDbCircle
10
169.85178472058374
20
-131.34648553509732
30
8.6212698488733863e-46
40
3.9685000000000059
210
2.4651903288156624e-32
220
-2.0125567542547848e-34
230
1
100
AcDbArc
50
0
51
89.999999999999588
0
LINE
5
170
100
AcDbEntity
8
0
100
AcDbLine
10
197.63129128417941
20
-115.47250042533884
30
-1.1210387714598537e-43
11
197.63129128417975
21
-107.53549657897935
31
0
0
LWPOLYLINE
5
171
100
AcDbEntity
8
0
100
AcDbPolyline
90
6
70
1
43
0.0
10
175.33878172490211
20
-168.65778482070345
10
175.33878172490211
20
-171.48680113973262
10
177.78878172490209
20
-172.9013092992472
10
180.23878172490211
20
-171.48680113973262
10
180.23878172490211
20
-168.65778482070345
10
177.78878172490209
20
-167.24327666118887
0
LWPOLYLINE
5
172
100
AcDbEntity
8
0
100
AcDbPolyline
90
6
70
1
43
0.0
10
-30.546897791547423
20
-191.59878988679949
10
-33.375914110576588
20
-191.59878988679949
10
-34.79042227009117
20
-194.04878988679945
10
-33.375914110576588
20
-196.49878988679947
10
-30.546897791547423
20
-196.49878988679947
10
-29.13238963203284
20
-194.04878988679945
0
LWPOLYLINE
5
173
100
AcDbEntity
8
0
100
AcDbPolyline
90
6
70
1
43
0.0
10
-69.546897791547337
20
-196.49878988679947
10
-68.132389632032755
20
-194.04878988679945
10
-69.546897791547337
20
-191.59878988679947
10
-72.375914110576502
20
-191.59878988679947
10
-73.790422270091085
20
-194.04878988679945
10
-72.375914110576502
20
-196.49878988679947
0
LINE
5
174
100
AcDbEntity
8
0
100
AcDbLine
10
193.66279128417969
20
-103.5669965789789
30
6.7050197931096585e-40
11
-193.75081779514292
21
-103.56797280320934
31
-2.2204460492503131e-15
0
LWPOLYLINE
5
175
100
AcDbEntity
8
0
100
AcDbPolyline
90
6
70
1
43
0.0
10
196.1757912841797
20
-182.61298841946487
10
193.72579128417968
20
-181.19848025995029
10
191.27579128417966
20
-182.61298841946487
10
191.27579128417966
20
-185.44200473849403
10
193.72579128417968
20
-186.85651289800862
10
196.1757912841797
20
-185.44200473849403
0
LWPOLYLINE
5
176
100
AcDbEntity
8
0
100
AcDbPolyline
90
6
70
1
43
0.0
10
89.085483124665103
20
-109.98549657897932
10
91.914499443694268
20
-109.98549657897932
10
93.329007603208851
20
-107.53549657897932
10
91.914499443694268
20
-105.0854965789793
10
89.085483124665103
20
-105.0854965789793
10
87.670974965150521
20
-107.53549657897932
0
LWPOLYLINE
5
177
100
AcDbEntity
8
0
100
AcDbPolyline
90
6
70
1
43
0.0
10
-196.39542934941596
20
-108.26769723875842
10
-194.39501466058169
20
-110.26811579646815
10
-191.66239402698611
20
-109.535915136689
10
-190.93018808222479
20
-106.80329591920014
10
-192.930602771059
20
-104.8028773614904
10
-195.66322340465462
20
-105.53507802126956
0
ARC
5
178
100
AcDbEntity
8
0
100
AcDbCircle
10
-193.66279871582037
20
-107.53550657897921
30
2.2204460492503131e-15
40
3.9685100000125368
210
-2.4819446079570894e-17
220
1.1187573350515737e-15
230
1
100
AcDbArc
50
91.270888904423899
51
179.99985562387235
0
ARC
5
179
100
AcDbEntity
8
0
100
AcDbCircle
10
185.72579872930044
20
-115.47250042533881
30
-5.3369765731120963e-46
40
3.9685000000000414
210
1.7325361982264238e-35
220
-2.4651903288156624e-32
230
1
100
AcDbArc
50
0
51
89.999999999998778
0
LINE
5
180
100
AcDbEntity
8
0
100
AcDbLine
10
189.69429844328832
20
-171.82519262245563
30
0
11
189.69429872930053
21
-194.04879987239838
31
0
0
LINE
5
181
100
AcDbEntity
8
0
100
AcDbLine
10
-121.43609653189162
20
-198.01729982370762
30
2.2204460492503131e-15
11
-121.4360965387495
21
-190.08029286807968
31
0
0
ARC
5
182
100
AcDbEntity
8
0
100
AcDbCircle
10
-185.72579872930052
20
-115.47250042533881
30
0
40
3.9685000000000059
210
0
220
-0
230
1
100
AcDbArc
50
89.999999999999588
51
180
0
LINE
5
183
100
AcDbEntity
8
0
100
AcDbLine
10
189.69429872930053
20
-194.04879987239838
30
0
11
197.63129128417947
21
-194.0487998723984
31
-5.254869241218064e-45
0
LINE
5
184
100
AcDbEntity
8
0
100
AcDbLine
10
-197.63130871582032
20
-107.53549657897928
30
2.2204460492503131e-15
11
-197.63130871582672
21
-194.04879987239781
31
2.2204460492503131e-15
0
LWPOLYLINE
5
185
100
AcDbEntity
8
0
100
AcDbPolyline
90
6
70
1
43
0.0
10
190.93018222669005
20
-106.80328003709548
10
191.66238228934631
20
-109.53590083068892
10
194.39500134683598
20
-110.26810737257276
10
196.39542034166936
20
-108.26769312086313
10
195.66322027901307
20
-105.53507232726969
10
192.9306012215234
20
-104.80286578538585
0
ARC
5
186
100
AcDbEntity
8
0
100
AcDbCircle
10
193.66280128417969
20
-107.5354865789793
30
0
40
3.9684900000126659
210
-1.9754611158720874e-55
220
-7.839597647816742e-50
230
1
100
AcDbArc
50
-0.00014437612767356336
51
90.000144376776888
0
LINE
5
187
100
AcDbEntity
8
0
100
AcDbLine
10
146.04078490666947
20
-127.37798553509728
30
0
11
169.85178472058377
21
-127.37798553509732
31
0
0
LINE
5
188
100
AcDbEntity
8
0
100
AcDbLine
10
181.757291390354
20
-123.54227393794345
30
9.1835496157991212e-39
11
181.75729172494212
21
-123.40949298021806
31
-6.6121557233753672e-38
0
LWPOLYLINE
5
189
100
AcDbEntity
8
0
100
AcDbPolyline
90
6
70
1
43
0.0
10
175.78838965388769
20
-125.40990415573914
10
178.52101124566448
20
-126.14210123951415
10
180.52142331667892
20
-124.14168006399306
10
179.78921379591654
20
-121.40906180469698
10
177.05659220413975
20
-120.67686472092197
10
175.05618013312528
20
-122.67728589644308
0
LWPOLYLINE
5
190
100
AcDbEntity
8
0
100
AcDbPolyline
90
6
70
1
43
0.0
10
-91.914516875334868
20
-109.98549657897932
10
-89.085500556305703
20
-109.98549657897932
10
-87.670992396791121
20
-107.53549657897932
10
-89.085500556305703
20
-105.0854965789793
10
-91.914516875334868
20
-105.0854965789793
10
-93.329025034849451
20
-107.53549657897932
0
LWPOLYLINE
5
191
100
AcDbEntity
8
0
100
AcDbPolyline
90
6
70
1
43
0.0
10
157.76628988441661
20
-125.8279929802181
10
159.18079804393119
20
-123.37799298021808
10
157.76628988441661
20
-120.92799298021808
10
154.93727356538744
20
-120.92799298021808
10
153.52276540587286
20
-123.37799298021808
10
154.93727356538744
20
-125.8279929802181
0
LINE
5
192
100
AcDbEntity
8
0
100
AcDbLine
10
173.82028472058377
20
-179.76218518419279
30
-7.0064923216240854e-45
11
181.75729143893005
21
-179.76218517733491
31
0
0
LINE
5
193
100
AcDbEntity
8
0
100
AcDbLine
10
-25.398397175216445
20
-198.01729972632612
30
0
11
-25.398397182074319
21
-190.08029288248116
31
0
0
LINE
5
194
100
AcDbEntity
8
0
100
AcDbLine
10
-80.957396809902917
20
-190.08029288248116
30
1.8950658916142263e-48
11
-80.957396803045043
21
-198.01729977433109
31
0
0
LINE
5
195
100
AcDbEntity
8
0
100
AcDbLine
10
189.69429844328832
20
-171.82519262245563
30
0
11
189.69429839471235
21
-115.60528138306415
31
9.1835496157991212e-39
0
LWPOLYLINE
5
196
100
AcDbEntity
8
0
100
AcDbPolyline
90
6
70
1
43
0.0
10
-169.85179618778832
20
-167.51089918710841
10
-167.40179618778828
20
-166.09639102759382
10
-167.40179618778828
20
-163.26737470856466
10
-169.85179618778832
20
-161.85286654905008
10
-172.30179618778837
20
-163.26737470856466
10
-172.30179618778837
20
-166.09639102759382
0
LWPOLYLINE
5
197
100
AcDbEntity
8
0
100
AcDbPolyline
90
6
70
1
43
0.0
10
-121.77448802827368
20
-188.56178286807926
10
-120.3599798687591
20
-186.11178286807927
10
-121.77448802827368
20
-183.66178286807929
10
-124.60350434730285
20
-183.66178286807929
10
-126.01801250681743
20
-186.11178286807927
10
-124.60350434730285
20
-188.56178286807926
0
LWPOLYLINE
5
198
100
AcDbEntity
8
0
100
AcDbPolyline
90
6
70
1
43
0.0
10
-167.11916591835316
20
-186.84398488692722
10
-167.85137050404617
20
-184.111365305276
10
-170.58399077348139
20
-183.37916328642805
10
-172.58440645722357
20
-185.37958084923133
10
-171.85220187153053
20
-188.11220043088241
10
-169.11958160209525
20
-188.84440244973035
0
ARC
5
199
100
AcDbEntity
8
0
100
AcDbCircle
10
-169.85178618778835
20
-186.11178286807927
30
0
40
3.9685100000099283
210
-4.4138053838887626e-46
220
-2.4651903288156619e-32
230
1
100
AcDbArc
50
180
51
269.99985562313253
0
LINE
5
200
100
AcDbEntity
8
0
100
AcDbLine
10
-113.49908655217294
20
-182.14328586376098
30
0
11
-161.91478620126847
21
-182.14328586376098
31
3.5032461608120427e-45
0
LINE
5
201
100
AcDbEntity
8
0
100
AcDbLine
10
-165.88328620126848
20
-154.36378604984668
30
0
11
-173.82029618779595
21
-154.36378604984611
31
1.1210387714598537e-43
0
ARC
5
202
100
AcDbEntity
8
0
100
AcDbCircle
10
-161.91478620126847
20
-178.17478586376097
30
2.1084395886461046e-80
40
3.9685000000000059
210
-4.8961521189073931e-66
220
-2.0200591923404515e-81
230
1
100
AcDbArc
50
180
51
270
0
ARC
5
203
100
AcDbEntity
8
0
100
AcDbCircle
10
185.72580872926042
20
-115.47249042533876
30
-2.2204460492503131e-15
40
3.9684900000125771
210
-5.5951771429859003e-16
220
-5.5952053410869926e-16
230
1
100
AcDbArc
50
90.000144376197909
51
90.001588143966572
0
LWPOLYLINE
5
204
100
AcDbEntity
8
0
100
AcDbPolyline
90
6
70
1
43
0.0
10
183.27578872926043
20
-160.72079226582417
10
183.27578872926043
20
-163.54980858485334
10
185.72578872926042
20
-164.96431674436792
10
188.17578872926046
20
-163.54980858485334
10
188.17578872926046
20
-160.72079226582417
10
185.72578872926042
20
-159.30628410630962
0
LINE
5
205
100
AcDbEntity
8
0
100
AcDbLine
10
-113.49908654531507
20
-190.08029281938889
30
2.2204460492503131e-15
11
-113.49908655217294
21
-182.14328586376098
31
0
0
LINE
5
206
100
AcDbEntity
8
0
100
AcDbLine
10
-173.82029618779595
20
-154.36378604984611
30
1.1210387714598537e-43
11
-173.82029618779828
21
-186.11178286807922
31
0
0
LINE
5
207
100
AcDbEntity
8
0
100
AcDbLine
10
-165.88328620126848
20
-178.17478586376097
30
-1.9430379683883997e-65
11
-165.88328620126848
21
-154.36378604984668
31
0
0
LINE
5
208
100
AcDbEntity
8
0
100
AcDbLine
10
189.69429839471235
20
-115.60528138306415
30
9.1835496157991212e-39
11
189.69429872930047
21
-115.47250042533877
31
-6.6121557233753672e-38
0
LWPOLYLINE
5
209
100
AcDbEntity
8
0
100
AcDbPolyline
90
6
70
1
43
0.0
10
183.72539665824601
20
-117.47291160085985
10
186.45801825002277
20
-118.20510868463485
10
188.45843032103727
20
-116.20468750911377
10
187.72622080027486
20
-113.47206924981768
10
184.9935992084981
20
-112.73987216604267
10
182.9931871374836
20
-114.74029334156376
0
LWPOLYLINE
5
210
100
AcDbEntity
8
0
100
AcDbPolyline
90
6
70
1
43
0.0
10
165.70329688877496
20
-117.8910004253388
10
167.11780504828954
20
-115.44100042533879
10
165.70329688877496
20
-112.99100042533878
10
162.87428056974579
20
-112.99100042533878
10
161.45977241023121
20
-115.44100042533879
10
162.87428056974579
20
-117.8910004253388
0
LINE
5
211
100
AcDbEntity
8
0
100
AcDbLine
10
181.75729172494212
20
-171.82519262931351
30
-7.0064923216240854e-45
11
189.69429844328832
21
-171.82519262245563
31
0
0
LWPOLYLINE
5
212
100
AcDbEntity
8
0
100
AcDbPolyline
90
6
70
1
43
0.0
10
-46.181098470231845
20
-217.85882834525529
10
-44.766590310717191
20
-220.30882834525534
10
-41.937573991688026
20
-220.30882834525534
10
-40.523065832173444
20
-217.85882834525529
10
-41.937573991688026
20
-215.40882834525533
10
-44.766590310717262
20
-215.40882834525533
0
LWPOLYLINE
5
213
100
AcDbEntity
8
0
100
AcDbPolyline
90
6
70
1
43
0.0
10
-2.9375739916880406
20
-220.30882834525534
10
-1.523065832173458
20
-217.85882834525529
10
-2.9375739916880406
20
-215.40882834525533
10
-5.7665903107172056
20
-215.40882834525533
10
-7.1810984702317882
20
-217.85882834525529
10
-5.7665903107172056
20
-220.30882834525534
0
LINE
5
214
100
AcDbEntity
8
0
100
AcDbLine
10
5.6439261461368062
20
-221.82733812306125
30
9.1835496157991212e-39
11
5.6439261392789319
21
-213.890331340937
31
0
0
LWPOLYLINE
5
215
100
AcDbEntity
8
0
100
AcDbPolyline
90
6
70
1
43
0.0
10
-159.09988598248705
20
-217.85883134094462
10
-157.68537782297247
20
-220.30883134094466
10
-154.8563615039433
20
-220.30883134094466
10
-153.44185334442872
20
-217.85883134094462
10
-154.8563615039433
20
-215.40883134094457
10
-157.68537782297247
20
-215.40883134094457
0
LWPOLYLINE
5
216
100
AcDbEntity
8
0
100
AcDbPolyline
90
6
70
1
43
0.0
10
-180.15076966345799
20
-265.93613950045926
10
-177.700769663458
20
-267.35064765997384
10
-175.25076966345804
20
-265.93613950045926
10
-175.25076966345804
20
-263.1071231814301
10
-177.700769663458
20
-261.69261502191551
10
-180.15076966345799
20
-263.1071231814301
0
LWPOLYLINE
5
217
100
AcDbEntity
8
0
100
AcDbPolyline
90
6
70
1
43
0.0
10
-178.43297168230589
20
-220.59146161037978
10
-175.70035210065467
20
-219.85925702468677
10
-174.96815008180673
20
-217.12663675525158
10
-176.96856764461
20
-215.12622107150941
10
-179.70118722626108
20
-215.85842565720242
10
-180.43338924510903
20
-218.59104592663769
0
LINE
5
218
100
AcDbEntity
8
0
100
AcDbLine
10
46.122625874983356
20
-221.8273380736847
30
6.8876622118493409e-39
11
46.122625868125482
21
-213.890331340937
31
0
0
ARC
5
219
100
AcDbEntity
8
0
100
AcDbCircle
10
-177.70076966345795
20
-217.85884134094459
30
0
40
3.9685100000099283
210
-2.4651903288156613e-32
220
4.4138053838887618e-46
230
1
100
AcDbArc
50
89.999999999998778
51
179.99985562387235
0
LWPOLYLINE
5
220
100
AcDbEntity
8
0
100
AcDbPolyline
90
6
70
1
43
0.0
10
18.791034279477969
20
-217.85882834525529
10
17.376526119963387
20
-215.40882834525533
10
14.547509800934222
20
-215.40882834525533
10
13.133001641419639
20
-217.85882834525529
10
14.547509800934222
20
-220.30882834525534
10
17.376526119963387
20
-220.30882834525534
0
LINE
5
221
100
AcDbEntity
8
0
100
AcDbLine
10
-173.73227265913971
20
-274.21154097656
30
0
11
-173.73227265913965
21
-225.79584132746447
31
3.5032461608120427e-45
0
LINE
5
222
100
AcDbEntity
8
0
100
AcDbLine
10
-145.95277284522535
20
-221.82734132746447
30
0
11
-145.95277284522479
21
-213.890331340937
31
1.1210387714598537e-43
0
LWPOLYLINE
5
223
100
AcDbEntity
8
0
100
AcDbPolyline
90
6
70
1
43
0.0
10
37.394726119963337
20
-220.30882834525534
10
38.80923427947792
20
-217.85882834525529
10
37.394726119963337
20
-215.40882834525533
10
34.565709800934172
20
-215.40882834525533
10
33.15120164141959
20
-217.85882834525529
10
34.565709800934172
20
-220.30882834525534
0
ARC
5
224
100
AcDbEntity
8
0
100
AcDbCircle
10
185.81381780861634
20
-296.4351407879069
30
-2.2204460492503131e-15
40
3.9684900000125949
210
-5.5952053410870676e-16
220
5.5951771429857978e-16
230
1
100
AcDbArc
50
0.00014437612766181223
51
0.00028875351752671521
0
LINE
5
225
100
AcDbEntity
8
0
100
AcDbLine
10
189.78230780861605
20
-264.68712396967425
30
-2.2204460492503127e-15
11
181.84531525373714
21
-264.68712396967425
31
0
0
LWPOLYLINE
5
226
100
AcDbEntity
8
0
100
AcDbPolyline
90
6
70
1
43
0.0
10
-114.37767420967418
20
-215.40882834525533
10
-117.20669052870335
20
-215.40882834525533
10
-118.62119868821793
20
-217.85882834525529
10
-117.20669052870335
20
-220.30882834525528
10
-114.37767420967418
20
-220.30882834525528
10
-112.9631660501596
20
-217.85882834525529
0
LWPOLYLINE
5
227
100
AcDbEntity
8
0
100
AcDbPolyline
90
6
70
1
43
0.0
10
-134.39587420967413
20
-215.40882834525533
10
-137.2248905287033
20
-215.40882834525533
10
-138.63939868821788
20
-217.85882834525529
10
-137.2248905287033
20
-220.30882834525528
10
-134.39587420967413
20
-220.30882834525528
10
-132.98136605015955
20
-217.85882834525529
0
LWPOLYLINE
5
228
100
AcDbEntity
8
0
100
AcDbPolyline
90
6
70
1
43
0.0
10
140.56551596813091
20
-293.98512078790691
10
137.73649964910175
20
-293.98512078790691
10
136.32199148958716
20
-296.43512078790684
10
137.73649964910175
20
-298.88512078790689
10
140.56551596813091
20
-298.88512078790689
10
141.98002412764549
20
-296.43512078790684
0
LWPOLYLINE
5
229
100
AcDbEntity
8
0
100
AcDbPolyline
90
6
70
1
43
0.0
10
-55.063574098022769
20
-215.40882834525533
10
-57.892590417051935
20
-215.40882834525533
10
-59.307098576566517
20
-217.85882834525529
10
-57.892590417051935
20
-220.30882834525534
10
-55.063574098022769
20
-220.30882834525534
10
-53.649065938508187
20
-217.85882834525529
0
LWPOLYLINE
5
230
100
AcDbEntity
8
0
100
AcDbPolyline
90
6
70
1
43
0.0
10
-94.063574098022684
20
-220.30882834525528
10
-92.649065938508102
20
-217.85882834525529
10
-94.063574098022684
20
-215.40882834525533
10
-96.892590417051849
20
-215.40882834525533
10
-98.307098576566432
20
-217.85882834525529
10
-96.892590417051849
20
-220.30882834525528
0
LINE
5
231
100
AcDbEntity
8
0
100
AcDbLine
10
-181.66927961476762
20
-274.21154098341788
30
2.2204460492503131e-15
11
-173.73227265913971
21
-274.21154097656
31
0
0
LINE
5
232
100
AcDbEntity
8
0
100
AcDbLine
10
-181.66927966345835
20
-217.85883134088792
30
-9.7831326748567648e-32
11
-181.66927961476762
21
-274.21154098341788
31
2.2204460492503131e-15
0
LINE
5
233
100
AcDbEntity
8
0
100
AcDbLine
10
-145.95277284522481
20
-213.890331340937
30
1.3806908638903646e-48
11
-145.95277284522479
21
-213.89037245510002
31
1.1210329644152771e-43
0
LINE
5
234
100
AcDbEntity
8
0
100
AcDbLine
10
185.68102685089093
20
-300.4036304533588
30
9.1835496157991212e-39
11
185.81380780861633
21
-300.40363078794689
31
-6.6121557233753672e-38
0
LWPOLYLINE
5
235
100
AcDbEntity
8
0
100
AcDbPolyline
90
6
70
1
43
0.0
10
183.81339663309524
20
-294.43472871689244
10
183.08119954932025
20
-297.1673503086692
10
185.08162072484134
20
-299.16776237968372
10
187.81423898413743
20
-298.43555285892131
10
188.54643606791242
20
-295.70293126714455
10
186.54601489239133
20
-293.70251919613003
0
LWPOLYLINE
5
236
100
AcDbEntity
8
0
100
AcDbPolyline
90
6
70
1
43
0.0
10
183.39530780861634
20
-276.41262894742141
10
185.84530780861633
20
-277.82713710693599
10
188.29530780861634
20
-276.41262894742141
10
188.29530780861634
20
-273.58361262839225
10
185.84530780861633
20
-272.16910446887766
10
183.39530780861634
20
-273.58361262839225
0
LINE
5
237
100
AcDbEntity
8
0
100
AcDbLine
10
-49.915073481691792
20
-221.82733818478192
30
0
11
-49.915073488549666
21
-213.890331340937
31
0
0
LINE
5
238
100
AcDbEntity
8
0
100
AcDbLine
10
-105.47407311637826
20
-213.890331340937
30
1.8950658916142263e-48
11
-105.47407310952039
21
-221.82733823278687
31
0
0
LWPOLYLINE
5
239
100
AcDbEntity
8
0
100
AcDbPolyline
90
6
70
1
43
0.0
10
95.607984951670034
20
-201.98580371875792
10
97.022493111184616
20
-204.43580371875788
10
99.851509430213781
20
-204.43580371875788
10
101.26601758972836
20
-201.98580371875792
10
99.851509430213781
20
-199.53580371875788
10
97.022493111184616
20
-199.53580371875788
0
LINE
5
240
100
AcDbEntity
8
0
100
AcDbLine
10
-181.75730617442153
20
-194.04879987239843
30
-6.8755699026274235e-35
11
-181.75730617442159
21
-115.47250042533884
31
0
0
LWPOLYLINE
5
241
100
AcDbEntity
8
0
100
AcDbPolyline
90
6
70
1
43
0.0
10
-185.78879872930074
20
-122.66478739972862
10
-188.23879872930075
20
-124.07929555924321
10
-188.23879872930075
20
-126.90831187827237
10
-185.78879872930074
20
-128.32282003778695
10
-183.33879872930072
20
-126.90831187827237
10
-183.33879872930072
20
-124.07929555924321
0
LWPOLYLINE
5
242
100
AcDbEntity
8
0
100
AcDbPolyline
90
6
70
1
43
0.0
10
201.59980127069926
20
-128.32282003778695
10
204.04980127069931
20
-126.90831187827237
10
204.04980127069931
20
-124.07929555924321
10
201.59980127069926
20
-122.66478739972862
10
199.14980127069927
20
-124.07929555924321
10
199.14980127069927
20
-126.90831187827237
0
LINE
5
243
100
AcDbEntity
8
0
100
AcDbLine
10
205.56830127070566
20
-115.4725004253394
30
2.2204460492503131e-15
11
197.63129128417941
21
-115.47250042533884
31
-1.1210387714598537e-43
0
LWPOLYLINE
5
244
100
AcDbEntity
8
0
100
AcDbPolyline
90
6
70
1
43
0.0
10
-183.72538973446737
20
-199.98539946704824
10
-186.45800879195704
20
-199.2531929251644
10
-188.45842778679042
20
-201.25360717687408
10
-187.72622772413413
20
-203.9862279704675
10
-184.99360866664446
20
-204.71843451235131
10
-182.99318967181111
20
-202.71802026064171
0
LINE
5
245
100
AcDbEntity
8
0
100
AcDbLine
10
-181.75730617442159
20
-115.47250042533884
30
0
11
-189.69429872930053
21
-115.47250042533884
31
-5.254869241218064e-45
0
LINE
5
246
100
AcDbEntity
8
0
100
AcDbLine
10
197.63129128417941
20
-115.47250042533884
30
-1.1210387714598537e-43
11
197.63129128417947
21
-194.04879987239843
31
0
0
LINE
5
247
100
AcDbEntity
8
0
100
AcDbLine
10
205.56830127069927
20
-201.98580371875801
30
2.2204460492503131e-15
11
205.56830127070566
21
-115.4725004253394
31
2.2204460492503131e-15
0
ARC
5
248
100
AcDbEntity
8
0
100
AcDbCircle
10
-185.72580872930075
20
-201.9858137187579
30
0
40
3.9684900000126659
210
1.9754611158720972e-55
220
7.839597647816781e-50
230
1
100
AcDbArc
50
179.99985562387235
51
270.00014437677692
0
LINE
5
249
100
AcDbEntity
8
0
100
AcDbLine
10
-189.69429872930053
20
-115.47250042533884
30
-5.254869241218064e-45
11
-189.69429872930081
21
-201.98580371875784
31
0
0
LWPOLYLINE
5
250
100
AcDbEntity
8
0
100
AcDbPolyline
90
6
70
1
43
0.0
10
-79.73398241027158
20
-201.98580371875792
10
-81.148490569786162
20
-199.53580371875788
10
-83.977506888815327
20
-199.53580371875788
10
-85.39201504832991
20
-201.98580371875792
10
-83.977506888815327
20
-204.43580371875788
10
-81.148490569786162
20
-204.43580371875788
0
LWPOLYLINE
5
251
100
AcDbEntity
8
0
100
AcDbPolyline
90
6
70
1
43
0.0
10
200.867595325938
20
-204.71842293624684
10
203.60021595953353
20
-203.98622227646769
10
204.33242190429493
20
-201.25360305897885
10
202.33200721546066
20
-199.25318450126909
10
199.59938658186505
20
-199.98538516104821
10
198.86718063710373
20
-202.71800437853713
0
ARC
5
252
100
AcDbEntity
8
0
100
AcDbCircle
10
193.66279128417946
20
-194.04879987239843
30
0
40
3.9685000000000059
210
0
220
0
230
1
100
AcDbArc
50
-90.00000000000081
51
0
0
ARC
5
253
100
AcDbEntity
8
0
100
AcDbCircle
10
201.59979127069928
20
-201.98579371875803
30
2.2204460492503131e-15
40
3.9685100000125906
210
2.4819446079570361e-17
220
-1.1187573350515585e-15
230
1
100
AcDbArc
50
271.27088890442428
51
359.99985562387235
0
LINE
5
254
100
AcDbEntity
8
0
100
AcDbLine
10
-81.060481490463516
20
-207.47182749452838
30
0
11
-79.645973330948934
21
-209.92182749452837
31
1.2325951644078309e-31
0
LWPOLYLINE
5
255
100
AcDbEntity
8
0
100
AcDbPolyline
90
6
70
1
43
0.0
10
201.75081035002188
20
-289.24284381355767
10
204.20081035002187
20
-287.82833565404309
10
204.20081035002187
20
-284.99931933501392
10
201.75081035002188
20
-283.58481117549934
10
199.30081035002186
20
-284.99931933501392
10
199.30081035002186
20
-287.82833565404309
0
LWPOLYLINE
5
256
100
AcDbEntity
8
0
100
AcDbPolyline
90
6
70
1
43
0.0
10
-185.63778964997817
20
-283.58481117549934
10
-188.08778964997816
20
-284.99931933501392
10
-188.08778964997816
20
-287.82833565404309
10
-185.63778964997817
20
-289.24284381355767
10
-183.18778964997816
20
-287.82833565404309
10
-183.18778964997816
20
-284.99931933501392
0
LINE
5
257
100
AcDbEntity
8
0
100
AcDbLine
10
-189.60628964998452
20
-296.43513078794689
30
2.2204460492503131e-15
11
-181.66927966345833
21
-296.43513078794746
31
-1.1210387714598537e-43
0
LINE
5
258
100
AcDbEntity
8
0
100
AcDbLine
10
-79.645973330948934
20
-209.92182749452837
30
1.2325951644078309e-31
11
-81.060481490463516
21
-212.37182749452836
31
2.2204460492503131e-15
0
LINE
5
259
100
AcDbEntity
8
0
100
AcDbLine
10
193.75081779514272
20
-213.89033134088783
30
4.2038953929744512e-44
11
-177.70077966345832
21
-213.89033134088783
31
0
0
LWPOLYLINE
5
260
100
AcDbEntity
8
0
100
AcDbPolyline
90
6
70
1
43
0.0
10
199.68740135518851
20
-211.92223174623797
10
202.42002041267818
20
-212.65443828812181
10
204.42043940751154
20
-210.65402403641224
10
203.68823934485528
20
-207.92140324281874
10
200.9556202873656
20
-207.18919670093493
10
198.95520129253225
20
-209.18961095264456
0
LINE
5
261
100
AcDbEntity
8
0
100
AcDbLine
10
197.71931779514273
20
-296.43513078794746
30
0
11
205.65631035002167
21
-296.43513078794746
31
-5.254869241218064e-45
0
ARC
5
262
100
AcDbEntity
8
0
100
AcDbCircle
10
193.75081779514261
20
-217.85883134088783
30
-5.3369765731120963e-46
40
3.9685000000000414
210
1.7325361982043548e-35
220
-2.4651903288156624e-32
230
1
100
AcDbArc
50
0
51
89.999999999998352
0
LINE
5
263
100
AcDbEntity
8
0
100
AcDbLine
10
-181.66927966345833
20
-296.43513078794746
30
-1.1210387714598537e-43
11
-181.66927966345835
21
-217.85883134088792
31
0
0
LINE
5
264
100
AcDbEntity
8
0
100
AcDbLine
10
-189.60628964997812
20
-209.92182749452832
30
2.2204460492503131e-15
11
-189.60628964998452
21
-296.43513078794689
31
2.2204460492503131e-15
0
ARC
5
265
100
AcDbEntity
8
0
100
AcDbCircle
10
201.68782035002187
20
-209.92181749452834
30
0
40
3.9684900000126659
210
-1.9754611299085867e-55
220
-7.8395976478167572e-50
230
1
100
AcDbArc
50
-0.00014437612767356336
51
90.000144376776888
0
LINE
5
266
100
AcDbEntity
8
0
100
AcDbLine
10
205.65631035002167
20
-296.43513078794746
30
-5.254869241218064e-45
11
205.65631035002195
21
-209.92182749452843
31
0
0
LINE
5
267
100
AcDbEntity
8
0
100
AcDbLine
10
201.68781035002186
20
-205.95332749452794
30
6.7050197931096585e-40
11
-185.72579872930075
21
-205.95430371875841
31
-2.2204460492503131e-15
0
LINE
5
268
100
AcDbEntity
8
0
100
AcDbLine
10
-83.889497809492681
20
-212.37182749452836
30
9.6495119943212156e-50
11
-85.304005969007264
21
-209.92182749452837
31
0
0
LINE
5
269
100
AcDbEntity
8
0
100
AcDbLine
10
-83.889497809492681
20
-207.47182749452838
30
2.2204460492503131e-15
11
-81.060481490463516
21
-207.47182749452838
31
0
0
LWPOLYLINE
5
270
100
AcDbEntity
8
0
100
AcDbPolyline
90
6
70
1
43
0.0
10
95.695994030992722
20
-209.92182749452837
10
97.110502190507304
20
-212.37182749452836
10
99.93951850953647
20
-212.37182749452836
10
101.35402666905105
20
-209.92182749452837
10
99.93951850953647
20
-207.47182749452838
10
97.110502190507304
20
-207.47182749452838
0
LINE
5
271
100
AcDbEntity
8
0
100
AcDbLine
10
-85.304005969007264
20
-209.92182749452837
30
0
11
-83.889497809492681
21
-207.47182749452838
31
2.2204460492503131e-15
0
LWPOLYLINE
5
272
100
AcDbEntity
8
0
100
AcDbPolyline
90
6
70
1
43
0.0
10
-184.90558370521683
20
-207.18920827703948
10
-187.63820433881244
20
-207.92140893681861
10
-188.37041028357376
20
-210.65402815430753
10
-186.36999559473949
20
-212.6544467120172
10
-183.63737496114393
20
-211.92224605223805
10
-182.90516901638259
20
-209.18962683474922
0
ARC
5
273
100
AcDbEntity
8
0
100
AcDbCircle
10
-185.6377796499782
20
-209.92183749452829
30
2.2204460492503131e-15
40
3.9685100000125191
210
-2.4819446079571033e-17
220
1.1187573350515784e-15
230
1
100
AcDbArc
50
91.270888904423899
51
179.99985562387235
0
LWPOLYLINE
5
274
100
AcDbEntity
8
0
100
AcDbPolyline
90
6
70
1
43
0.0
10
52.791591944879599
20
-117.92249742965738
10
54.206100104394181
20
-115.47249742965738
10
52.791591944879599
20
-113.02249742965741
10
49.962575625850434
20
-113.02249742965741
10
48.548067466335851
20
-115.47249742965738
10
49.962575625850434
20
-117.92249742965738
0
LWPOLYLINE
5
275
100
AcDbEntity
8
0
100
AcDbPolyline
90
6
70
1
43
0.0
10
125.23169216286576
20
-117.92249742965738
10
126.64620032238034
20
-115.47249742965738
10
125.23169216286576
20
-113.02249742965741
10
122.40267584383659
20
-113.02249742965741
10
120.98816768432201
20
-115.47249742965738
10
122.40267584383659
20
-117.92249742965738
0
LWPOLYLINE
5
276
100
AcDbEntity
8
0
100
AcDbPolyline
90
6
70
1
43
0.0
10
104.91759205121433
20
-117.92249742965738
10
106.33210021072891
20
-115.47249742965738
10
104.91759205121433
20
-113.02249742965741
10
102.08857573218516
20
-113.02249742965741
10
100.67406757267058
20
-115.47249742965738
10
102.08857573218516
20
-117.92249742965738
0
LWPOLYLINE
5
277
100
AcDbEntity
8
0
100
AcDbPolyline
90
6
70
1
43
0.0
10
15.206100104394267
20
-115.47249742965738
10
13.791591944879684
20
-113.02249742965736
10
10.962575625850519
20
-113.02249742965736
10
9.5480674663359366
20
-115.47249742965738
10
10.962575625850519
20
-117.92249742965738
10
13.791591944879684
20
-117.92249742965738
0
LINE
5
278
100
AcDbEntity
8
0
100
AcDbLine
10
57.940092561210577
20
-119.44100726918401
30
0
11
57.940092554352702
21
-111.50400042533909
31
0
0
LWPOLYLINE
5
279
100
AcDbEntity
8
0
100
AcDbPolyline
90
6
70
1
43
0.0
10
65.917592051214342
20
-117.92249742965738
10
67.332100210728925
20
-115.47249742965738
10
65.917592051214342
20
-113.02249742965741
10
63.088575732185106
20
-113.02249742965741
10
61.674067572670523
20
-115.47249742965738
10
63.088575732185177
20
-117.92249742965738
0
LWPOLYLINE
5
280
100
AcDbEntity
8
0
100
AcDbPolyline
90
6
70
1
43
0.0
10
142.42087584383654
20
-117.92249742965738
10
145.24989216286571
20
-117.92249742965738
10
146.66440032238029
20
-115.47249742965738
10
145.24989216286571
20
-113.02249742965741
10
142.42087584383654
20
-113.02249742965741
10
141.00636768432196
20
-115.47249742965738
0
LWPOLYLINE
5
281
100
AcDbEntity
8
0
100
AcDbPolyline
90
6
70
1
43
0.0
10
-9.3515244858009794
20
-113.02249742965736
10
-10.766032645315562
20
-115.47249742965738
10
-9.3515244858009794
20
-117.92249742965738
10
-6.5225081667718143
20
-117.92249742965738
10
-5.1080000072572318
20
-115.47249742965738
10
-6.5225081667718143
20
-113.02249742965736
0
LINE
5
282
100
AcDbEntity
8
0
100
AcDbLine
10
-38.097606802322446
20
-111.50400042533909
30
1.3806908638903646e-48
11
-38.097606795464571
21
-119.44100736656553
31
0
0
LINE
5
283
100
AcDbEntity
8
0
100
AcDbLine
10
2.3810929333819786
20
-119.44100733159048
30
6.8876622118493409e-39
11
2.3810929265241043
21
-111.50400042533909
31
0
0
LWPOLYLINE
5
284
100
AcDbEntity
8
0
100
AcDbPolyline
90
6
70
1
43
0.0
10
-25.126200007257182
20
-115.47249742965738
10
-26.540708166771765
20
-113.02249742965736
10
-29.36972448580093
20
-113.02249742965736
10
-30.784232645315512
20
-115.47249742965738
10
-29.36972448580093
20
-117.92249742965738
10
-26.540708166771765
20
-117.92249742965738
0
LINE
5
285
100
AcDbEntity
8
0
100
AcDbLine
10
153.97779191788572
20
-119.44100715808679
30
6.8876622118493409e-39
11
153.97779191102785
21
-111.50400042533909
31
0
0
LINE
5
286
100
AcDbEntity
8
0
100
AcDbLine
10
113.49909218903917
20
-119.44100720746333
30
9.1835496157991212e-39
11
113.4990921821813
21
-111.50400042533909
31
0
0
LINE
5
287
100
AcDbEntity
8
0
100
AcDbLine
10
-185.72579872930049
20
-111.5040004253388
30
0
11
185.72579872930052
21
-111.50400042533877
31
4.2038953929744512e-44
0
LINE
5
288
100
AcDbEntity
8
0
100
AcDbLine
10
-38.097606795464571
20
-119.44100736656553
30
0
11
177.78880146044784
21
-119.44099298021713
31
-2.2204460492503131e-15
0
LINE
5
289
100
AcDbEntity
8
0
100
AcDbLine
10
-177.78880617442158
20
-198.01729987239838
30
-9.7831326748567648e-32
11
193.66279128417941
21
-198.01729987239844
31
0
0
LINE
5
290
100
AcDbEntity
8
0
100
AcDbLine
10
70.639302174600829
20
-190.08029288248116
30
0
11
-169.85179618784503
21
-190.08029286807968
31
-9.7831326748567648e-32
0
LINE
5
291
100
AcDbEntity
8
0
100
AcDbLine
10
-185.63778964998471
20
-300.40363078794689
30
4.2038953929744512e-44
11
185.68102685089093
21
-300.4036304533588
31
9.1835496157991212e-39
0
LINE
5
292
100
AcDbEntity
8
0
100
AcDbLine
10
177.87681525373702
20
-292.46662378358855
30
-9.7831078199048856e-32
11
-62.61428310870869
21
-292.46662378358855
31
1.3806908638903646e-48
0
LINE
5
293
100
AcDbEntity
8
0
100
AcDbLine
10
-169.76376265913925
20
-221.82734132751122
30
0
11
46.122625874983356
21
-221.8273380736847
31
6.8876622118493409e-39
0
ENDSEC
0
SECTION
2
OBJECTS
0
DICTIONARY
5
C
100
AcDbDictionary
3
ACAD_GROUP
350
D
3
ACAD_MLINESTYLE
350
17
0
DICTIONARY
5
D
100
AcDbDictionary
0
DICTIONARY
5
1A
330
C
100
AcDbDictionary
0
DICTIONARY
5
17
100
AcDbDictionary
0
ENDSEC
0
EOF
