0
SECTION
2
HEADER
9
$INSUNITS
70
4
9
$ACADVER
1
AC1014
9
$HANDSEED
5
FFFF
0
ENDSEC
0
SECTION
2
TABLES
0
TABLE
2
VPORT
5
8
100
AcDbSymbolTable
0
ENDTAB
0
TABLE
2
LTYPE
5
5
100
AcDbSymbolTable
0
LTYPE
5
14
100
AcDbSymbolTableRecord
100
AcDbLinetypeTableRecord
2
BYBLOCK
70
0
0
LTYPE
5
15
100
AcDbSymbolTableRecord
100
AcDbLinetypeTableRecord
2
BYLAYER
70
0
0
ENDTAB
0
TABLE
2
LAYER
5
2
100
AcDbSymbolTable
70
2
0
LAYER
5
50
100
AcDbSymbolTableRecord
100
AcDbLayerTableRecord
2
0
70
0
6
CONTINUOUS
0
ENDTAB
0
TABLE
2
STYLE
5
3
100
AcDbSymbolTable
70
1
0
STYLE
5
11
100
AcDbSymbolTableRecord
100
AcDbTextStyleTableRecord
2
STANDARD
70
0
0
ENDTAB
0
TABLE
2
VIEW
5
6
100
AcDbSymbolTable
70
0
0
ENDTAB
0
TABLE
2
UCS
5
7
100
AcDbSymbolTable
70
0
0
ENDTAB
0
TABLE
2
APPID
5
9
100
AcDbSymbolTable
70
2
0
APPID
5
12
100
AcDbSymbolTableRecord
100
AcDbRegAppTableRecord
2
ACAD
70
0
0
ENDTAB
0
TABLE
2
DIMSTYLE
5
A
100
AcDbSymbolTable
70
1
0
ENDTAB
0
TABLE
2
BLOCK_RECORD
5
1
100
AcDbSymbolTable
70
1
0
BLOCK_RECORD
5
1F
100
AcDbSymbolTableRecord
100
AcDbBlockTableRecord
2
*MODEL_SPACE
0
BLOCK_RECORD
5
1B
100
AcDbSymbolTableRecord
100
AcDbBlockTableRecord
2
*PAPER_SPACE
0
ENDTAB
0
ENDSEC
0
SECTION
2
BLOCKS
0
BLOCK
5
20
100
AcDbEntity
100
AcDbBlockBegin
2
*MODEL_SPACE
0
ENDBLK
5
21
100
AcDbEntity
100
AcDbBlockEnd
0
BLOCK
5
1C
100
AcDbEntity
100
AcDbBlockBegin
2
*PAPER_SPACE
0
ENDBLK
5
1D
100
AcDbEntity
100
AcDbBlockEnd
0
ENDSEC
0
SECTION
2
ENTITIES
0
LWPOLYLINE
5
100
100
AcDbEntity
8
0
100
AcDbPolyline
90
6
70
1
43
0.0
10
398.88719128417961
20
63.820011102029071
10
398.88719128417961
20
60.99099478299987
10
401.33719128417965
20
59.576486623485287
10
403.7871912841797
20
60.99099478299987
10
403.7871912841797
20
63.820011102029071
10
401.33719128417965
20
65.234519261543653
0
LWPOLYLINE
5
101
100
AcDbEntity
8
0
100
AcDbPolyline
90
6
70
1
43
0.0
10
404.06981191777516
20
139.62970360229377
10
402.069397228941
20
141.63012216000351
10
399.33677659534538
20
140.89792150022436
10
398.60457065058404
20
138.1653022827355
10
400.60498533941831
20
136.16488372502576
10
403.33760597301392
20
136.89708438480491
0
LWPOLYLINE
5
102
100
AcDbEntity
8
0
100
AcDbPolyline
90
6
70
1
43
0.0
10
402.069397228941
20
141.63012216000351
10
399.33677659534538
20
140.89792150022436
10
398.60457065058404
20
138.1653022827355
10
400.60498533941831
20
136.16488372502576
10
403.33760597301392
20
136.89708438480491
10
404.06981191777516
20
139.62970360229377
0
ARC
5
103
100
AcDbEntity
8
0
100
AcDbCircle
10
408.48050127069951
20
131.75419909615513
30
-4.91788706656964e-48
40
3.1748000000000154
210
3.079360662128563e-34
220
-4.9678154938096107e-48
230
1
100
AcDbArc
50
90
51
180
0
ARC
5
104
100
AcDbEntity
8
0
100
AcDbCircle
10
408.48050127069951
20
131.75419909615513
30
-4.91788706656964e-48
40
3.1748000000000154
210
3.079360662128563e-34
220
-4.9678154938096107e-48
230
1
100
AcDbArc
50
90
51
180
0
LWPOLYLINE
5
105
100
AcDbEntity
8
0
100
AcDbPolyline
90
6
70
1
43
0.0
10
403.7871912841797
20
60.99099478299987
10
403.7871912841797
20
63.820011102029071
10
401.33719128417965
20
65.234519261543653
10
398.88719128417961
20
63.820011102029071
10
398.88719128417961
20
60.99099478299987
10
401.33719128417965
20
59.576486623485287
0
ARC
5
106
100
AcDbEntity
8
0
100
AcDbCircle
10
401.3372079289104
20
138.89749159258361
30
2.2204460492503131e-15
40
3.968510000012635
210
-2.4821319746542851e-17
220
1.1187572934829849e-15
230
1
100
AcDbArc
50
91.270984861972039
51
179.99985562387235
0
ARC
5
107
100
AcDbEntity
8
0
100
AcDbCircle
10
401.3372079289104
20
138.89749159258361
30
2.2204460492503131e-15
40
3.968510000012635
210
-2.4821319746542875e-17
220
1.1187572934829849e-15
230
1
100
AcDbArc
50
91.270984861972039
51
179.99985562387235
0
LWPOLYLINE
5
108
100
AcDbEntity
8
0
100
AcDbPolyline
90
6
70
1
43
0.0
10
507.32900760320888
20
138.89750294251459
10
505.9144994436943
20
141.34750294251461
10
503.08548312466513
20
141.34750294251461
10
501.67097496515055
20
138.89750294251459
10
503.08548312466513
20
136.44750294251457
10
505.9144994436943
20
136.44750294251457
0
LWPOLYLINE
5
109
100
AcDbEntity
8
0
100
AcDbPolyline
90
6
70
1
43
0.0
10
786.24429128417978
20
26.820011102028971
10
786.24429128417978
20
23.990994782999806
10
788.69429128417983
20
22.576486623485224
10
791.14429128417964
20
23.990994782999806
10
791.14429128417964
20
26.820011102028971
10
788.69429128417983
20
28.234519261543554
0
LWPOLYLINE
5
110
100
AcDbEntity
8
0
100
AcDbPolyline
90
6
70
1
43
0.0
10
505.93269944369422
20
1.5185029425143526
10
507.34720760320886
20
3.9685029425143625
10
505.93269944369422
20
6.4185029425143725
10
503.10368312466505
20
6.4185029425143725
10
501.68917496515053
20
3.9685029425143625
10
503.10368312466505
20
1.5185029425143526
0
LWPOLYLINE
5
111
100
AcDbEntity
8
0
100
AcDbPolyline
90
6
70
1
43
0.0
10
542.91449944369435
20
6.4185029425143725
10
540.08548312466519
20
6.4185029425143725
10
538.67097496515055
20
3.9685029425143625
10
540.08548312466519
20
1.5185029425143526
10
542.91449944369435
20
1.5185029425143526
10
544.32900760320888
20
3.9685029425143625
0
LWPOLYLINE
5
112
100
AcDbEntity
8
0
100
AcDbPolyline
90
6
70
1
43
0.0
10
450.82900760320888
20
-3.9685029425143625
10
449.4144994436943
20
-6.4185029425143725
10
446.58548312466513
20
-6.4185029425143725
10
445.17097496515055
20
-3.9685029425143625
10
446.58548312466513
20
-1.5185029425143526
10
449.4144994436943
20
-1.5185029425143526
0
LWPOLYLINE
5
113
100
AcDbEntity
8
0
100
AcDbPolyline
90
6
70
1
43
0.0
10
688.32900760320877
20
138.89750294251459
10
686.91449944369424
20
141.34750294251461
10
684.08548312466507
20
141.34750294251461
10
682.67097496515044
20
138.89750294251459
10
684.08548312466507
20
136.44750294251457
10
686.91449944369424
20
136.44750294251457
0
LWPOLYLINE
5
114
100
AcDbEntity
8
0
100
AcDbPolyline
90
6
70
1
43
0.0
10
542.91449944369435
20
-6.4185029425143725
10
540.08548312466519
20
-6.4185029425143725
10
538.67097496515055
20
-3.9685029425143625
10
540.08548312466519
20
-1.5185029425143526
10
542.91449944369435
20
-1.5185029425143526
10
544.32900760320888
20
-3.9685029425143625
0
LWPOLYLINE
5
115
100
AcDbEntity
8
0
100
AcDbPolyline
90
6
70
1
43
0.0
10
542.91449944369435
20
-6.4185029425143725
10
540.08548312466519
20
-6.4185029425143725
10
538.67097496515055
20
-3.9685029425143625
10
540.08548312466519
20
-1.5185029425143526
10
542.91449944369435
20
-1.5185029425143526
10
544.32900760320888
20
-3.9685029425143625
0
LWPOLYLINE
5
116
100
AcDbEntity
8
0
100
AcDbPolyline
90
6
70
1
43
0.0
10
791.1757912841797
20
60.99099478299987
10
791.1757912841797
20
63.820011102029035
10
788.72579128417965
20
65.234519261543625
10
786.2757912841796
20
63.820011102029035
10
786.2757912841796
20
60.99099478299987
10
788.72579128417965
20
59.576486623485287
0
LWPOLYLINE
5
117
100
AcDbEntity
8
0
100
AcDbPolyline
90
6
70
1
43
0.0
10
684.08548312466507
20
136.44750294251457
10
686.91449944369424
20
136.44750294251457
10
688.32900760320877
20
138.89750294251459
10
686.91449944369424
20
141.34750294251461
10
684.08548312466507
20
141.34750294251461
10
682.67097496515044
20
138.89750294251459
0
LWPOLYLINE
5
118
100
AcDbEntity
8
0
100
AcDbPolyline
90
6
70
1
43
0.0
10
577.67097496515044
20
3.9685029425143625
10
579.08548312466507
20
1.5185029425143526
10
581.91449944369424
20
1.5185029425143526
10
583.32900760320877
20
3.9685029425143625
10
581.91449944369424
20
6.418502942514337
10
579.08548312466507
20
6.418502942514337
0
LINE
5
119
100
AcDbEntity
8
0
100
AcDbLine
10
546.58430033117861
20
-1.5925834162544561e-06
30
-1.6656927130300484e-48
11
546.58430032432079
21
-7.9369999468326569
31
0
0
LWPOLYLINE
5
120
100
AcDbEntity
8
0
100
AcDbPolyline
90
6
70
1
43
0.0
10
449.4144994436943
20
1.5185029425143526
10
450.82900760320888
20
3.9685029425143625
10
449.4144994436943
20
6.4185029425143725
10
446.58548312466513
20
6.4185029425143725
10
445.17097496515055
20
3.9685029425143625
10
446.58548312466513
20
1.5185029425143526
0
LWPOLYLINE
5
121
100
AcDbEntity
8
0
100
AcDbPolyline
90
6
70
1
43
0.0
10
581.91449944369424
20
-1.5185029425143526
10
583.32900760320877
20
-3.9685029425143625
10
581.91449944369424
20
-6.418502942514337
10
579.08548312466507
20
-6.418502942514337
10
577.67097496515044
20
-3.9685029425143625
10
579.08548312466507
20
-1.5185029425143526
0
LWPOLYLINE
5
122
100
AcDbEntity
8
0
100
AcDbPolyline
90
6
70
1
43
0.0
10
481.67097496515055
20
3.9685029425143625
10
483.08548312466513
20
1.5185029425143526
10
485.9144994436943
20
1.5185029425143526
10
487.32900760320888
20
3.9685029425143625
10
485.9144994436943
20
6.4185029425143725
10
483.08548312466513
20
6.4185029425143725
0
LWPOLYLINE
5
123
100
AcDbEntity
8
0
100
AcDbPolyline
90
6
70
1
43
0.0
10
686.89629944369426
20
6.418502942514337
10
684.0672831246651
20
6.418502942514337
10
682.65277496515057
20
3.9685029425143625
10
684.0672831246651
20
1.5185029425143526
10
686.89629944369426
20
1.5185029425143526
10
688.3108076032089
20
3.9685029425143625
0
LWPOLYLINE
5
124
100
AcDbEntity
8
0
100
AcDbPolyline
90
6
70
1
43
0.0
10
612.32900760320888
20
-3.9685029425143625
10
610.91449944369424
20
-6.418502942514337
10
608.08548312466507
20
-6.418502942514337
10
606.67097496515044
20
-3.9685029425143625
10
608.08548312466519
20
-1.5185029425143526
10
610.91449944369424
20
-1.5185029425143526
0
LWPOLYLINE
5
125
100
AcDbEntity
8
0
100
AcDbPolyline
90
6
70
1
43
0.0
10
791.1757912841797
20
63.820011102029035
10
788.72579128417965
20
65.234519261543625
10
786.2757912841796
20
63.820011102029035
10
786.2757912841796
20
60.99099478299987
10
788.72579128417965
20
59.576486623485287
10
791.1757912841797
20
60.99099478299987
0
LWPOLYLINE
5
126
100
AcDbEntity
8
0
100
AcDbPolyline
90
6
70
1
43
0.0
10
612.32900760320888
20
3.9685029425143625
10
610.91449944369424
20
6.418502942514337
10
608.08548312466507
20
6.418502942514337
10
606.67097496515044
20
3.9685029425143625
10
608.08548312466519
20
1.5185029425143526
10
610.91449944369424
20
1.5185029425143526
0
LWPOLYLINE
5
127
100
AcDbEntity
8
0
100
AcDbPolyline
90
6
70
1
43
0.0
10
485.9144994436943
20
6.4185029425143725
10
483.08548312466513
20
6.4185029425143725
10
481.67097496515055
20
3.9685029425143625
10
483.08548312466513
20
1.5185029425143526
10
485.9144994436943
20
1.5185029425143526
10
487.32900760320888
20
3.9685029425143625
0
LINE
5
128
100
AcDbEntity
8
0
100
AcDbLine
10
681.51329942047596
20
136.5163990855217
30
-2.1657895904162598e-49
11
684.68809939920902
21
134.92899909615517
31
0
0
LWPOLYLINE
5
129
100
AcDbEntity
8
0
100
AcDbPolyline
90
6
70
1
43
0.0
10
610.91449944369424
20
-1.5185029425143526
10
612.32900760320888
20
-3.9685029425143625
10
610.91449944369424
20
-6.418502942514337
10
608.08548312466507
20
-6.418502942514337
10
606.67097496515044
20
-3.9685029425143625
10
608.08548312466519
20
-1.5185029425143526
0
LWPOLYLINE
5
130
100
AcDbEntity
8
0
100
AcDbPolyline
90
6
70
1
43
0.0
10
503.10368312466505
20
6.4185029425143725
10
501.68917496515053
20
3.9685029425143625
10
503.10368312466505
20
1.5185029425143526
10
505.93269944369422
20
1.5185029425143526
10
507.34720760320886
20
3.9685029425143625
10
505.93269944369422
20
6.4185029425143725
0
LWPOLYLINE
5
131
100
AcDbEntity
8
0
100
AcDbPolyline
90
6
70
1
43
0.0
10
684.0672831246651
20
1.5185029425143526
10
686.89629944369426
20
1.5185029425143526
10
688.3108076032089
20
3.9685029425143625
10
686.89629944369426
20
6.418502942514337
10
684.0672831246651
20
6.418502942514337
10
682.65277496515057
20
3.9685029425143625
0
LWPOLYLINE
5
132
100
AcDbEntity
8
0
100
AcDbPolyline
90
6
70
1
43
0.0
10
579.08548312466507
20
6.418502942514337
10
577.67097496515044
20
3.9685029425143625
10
579.08548312466507
20
1.5185029425143526
10
581.91449944369424
20
1.5185029425143526
10
583.32900760320877
20
3.9685029425143625
10
581.91449944369424
20
6.418502942514337
0
LINE
5
133
100
AcDbEntity
8
0
100
AcDbLine
10
671.98889948427677
20
134.92899909615517
30
-2.9779606868223568e-48
11
675.16369946300983
21
136.5163990855217
31
0
0
LINE
5
134
100
AcDbEntity
8
0
100
AcDbLine
10
681.51329942047596
20
136.5163990855217
30
-2.1657895904162598e-49
11
684.68809939920902
21
134.92899909615517
31
0
0
LINE
5
135
100
AcDbEntity
8
0
100
AcDbLine
10
571.9827001541853
20
134.92899909615517
30
-3.0814879110194241e-32
11
575.15750013291836
21
136.5163990855217
31
0
0
LWPOLYLINE
5
136
100
AcDbEntity
8
0
100
AcDbPolyline
90
6
70
1
43
0.0
10
789.39500134683601
20
136.16489214892115
10
791.39542034166936
20
138.16530640063078
10
790.6632202790131
20
140.89792719422422
10
787.93060122152337
20
141.63013373610806
10
785.93018222669002
20
139.62971948439844
10
786.66238228934628
20
136.897098690805
0
LWPOLYLINE
5
137
100
AcDbEntity
8
0
100
AcDbPolyline
90
6
70
1
43
0.0
10
446.58548312466513
20
6.4185029425143725
10
445.17097496515055
20
3.9685029425143625
10
446.58548312466513
20
1.5185029425143526
10
449.4144994436943
20
1.5185029425143526
10
450.82900760320888
20
3.9685029425143625
10
449.4144994436943
20
6.4185029425143725
0
LWPOLYLINE
5
138
100
AcDbEntity
8
0
100
AcDbPolyline
90
6
70
1
43
0.0
10
704.08548312466507
20
6.418502942514337
10
702.67097496515044
20
3.9685029425143625
10
704.08548312466507
20
1.5185029425143526
10
706.91449944369424
20
1.5185029425143526
10
708.32900760320877
20
3.9685029425143625
10
706.91449944369424
20
6.418502942514337
0
LWPOLYLINE
5
139
100
AcDbEntity
8
0
100
AcDbPolyline
90
6
70
1
43
0.0
10
706.91449944369424
20
6.418502942514337
10
704.08548312466507
20
6.418502942514337
10
702.67097496515044
20
3.9685029425143625
10
704.08548312466507
20
1.5185029425143526
10
706.91449944369424
20
1.5185029425143526
10
708.32900760320877
20
3.9685029425143625
0
LINE
5
140
100
AcDbEntity
8
0
100
AcDbLine
10
781.51949872930049
20
-7.9369999468326569
30
2.7228558793839425e-48
11
562.45830021798611
21
-7.9369999468326569
31
7.4719740862107006e-48
0
LWPOLYLINE
5
141
100
AcDbEntity
8
0
100
AcDbPolyline
90
6
70
1
43
0.0
10
791.1757912841797
20
-63.820011102029035
10
788.72579128417965
20
-65.234519261543625
10
786.2757912841796
20
-63.820011102029035
10
786.2757912841796
20
-60.99099478299987
10
788.72579128417965
20
-59.576486623485287
10
791.1757912841797
20
-60.99099478299987
0
LWPOLYLINE
5
142
100
AcDbEntity
8
0
100
AcDbPolyline
90
6
70
1
43
0.0
10
785.93018222669002
20
-139.62971948439844
10
786.66238228934628
20
-136.897098690805
10
789.39500134683601
20
-136.16489214892115
10
791.39542034166936
20
-138.16530640063078
10
790.6632202790131
20
-140.89792719422422
10
787.93060122152337
20
-141.63013373610806
0
LWPOLYLINE
5
143
100
AcDbEntity
8
0
100
AcDbPolyline
90
6
70
1
43
0.0
10
505.9144994436943
20
-141.34750294251461
10
503.08548312466513
20
-141.34750294251461
10
501.67097496515055
20
-138.89750294251459
10
503.08548312466513
20
-136.44750294251457
10
505.9144994436943
20
-136.44750294251457
10
507.32900760320888
20
-138.89750294251459
0
LWPOLYLINE
5
144
100
AcDbEntity
8
0
100
AcDbPolyline
90
6
70
1
43
0.0
10
403.7871912841797
20
-23.983894782999826
10
403.7871912841797
20
-26.812911102028991
10
401.33719128417965
20
-28.227419261543574
10
398.88719128417961
20
-26.812911102028991
10
398.88719128417961
20
-23.983894782999826
10
401.33719128417965
20
-22.569386623485244
0
LWPOLYLINE
5
145
100
AcDbEntity
8
0
100
AcDbPolyline
90
6
70
1
43
0.0
10
400.60499669848662
20
-6.7011225241655481
10
398.60458101474444
20
-4.7007049613623408
10
399.33678560043745
20
-1.9680853797111908
10
402.06940586987275
20
-1.235883360863248
10
404.06982155361482
20
-3.2363009236664553
10
403.3376169679218
20
-5.9689205053176053
0
LWPOLYLINE
5
146
100
AcDbEntity
8
0
100
AcDbPolyline
90
6
70
1
43
0.0
10
789.39500134683601
20
-136.16489214892115
10
791.39542034166936
20
-138.16530640063078
10
790.6632202790131
20
-140.89792719422422
10
787.93060122152337
20
-141.63013373610806
10
785.93018222669002
20
-139.62971948439844
10
786.66238228934628
20
-136.897098690805
0
LWPOLYLINE
5
147
100
AcDbEntity
8
0
100
AcDbPolyline
90
6
70
1
43
0.0
10
688.32900760320877
20
-138.89750294251459
10
686.91449944369424
20
-141.34750294251461
10
684.08548312466507
20
-141.34750294251461
10
682.67097496515044
20
-138.89750294251459
10
684.08548312466507
20
-136.44750294251457
10
686.91449944369424
20
-136.44750294251457
0
LINE
5
148
100
AcDbEntity
8
0
100
AcDbLine
10
681.51329942047596
20
-136.5163990855217
30
-2.1657895904162598e-49
11
684.68809939920902
21
-134.92899909615517
31
0
0
LWPOLYLINE
5
149
100
AcDbEntity
8
0
100
AcDbPolyline
90
6
70
1
43
0.0
10
684.08548312466507
20
-141.34750294251461
10
682.67097496515044
20
-138.89750294251459
10
684.08548312466507
20
-136.44750294251457
10
686.91449944369424
20
-136.44750294251457
10
688.32900760320877
20
-138.89750294251459
10
686.91449944369424
20
-141.34750294251461
0
LWPOLYLINE
5
150
100
AcDbEntity
8
0
100
AcDbPolyline
90
6
70
1
43
0.0
10
505.9144994436943
20
-136.44750294251457
10
507.32900760320888
20
-138.89750294251459
10
505.9144994436943
20
-141.34750294251461
10
503.08548312466513
20
-141.34750294251461
10
501.67097496515055
20
-138.89750294251459
10
503.08548312466513
20
-136.44750294251457
0
LWPOLYLINE
5
151
100
AcDbEntity
8
0
100
AcDbPolyline
90
6
70
1
43
0.0
10
505.9144994436943
20
141.34750294251461
10
503.08548312466513
20
141.34750294251461
10
501.67097496515055
20
138.89750294251459
10
503.08548312466513
20
136.44750294251457
10
505.9144994436943
20
136.44750294251457
10
507.32900760320888
20
138.89750294251459
0
LINE
5
152
100
AcDbEntity
8
0
100
AcDbLine
10
681.51329942047596
20
-136.5163990855217
30
-2.1657895904162598e-49
11
684.68809939920902
21
-134.92899909615517
31
0
0
LINE
5
153
100
AcDbEntity
8
0
100
AcDbLine
10
671.98889948427677
20
-134.92899909615517
30
-2.9779606868223568e-48
11
675.16369946300983
21
-136.5163990855217
31
0
0
ARC
5
154
100
AcDbEntity
8
0
100
AcDbCircle
10
401.3371879289104
20
-3.9684915925834119
30
0
40
3.9684900000129959
210
5.5951912421075623e-16
220
-4.7305184181206107e-22
230
1
100
AcDbArc
50
89.999951558628013
51
180.00014437612762
0
LWPOLYLINE
5
155
100
AcDbEntity
8
0
100
AcDbPolyline
90
6
70
1
43
0.0
10
786.2757912841796
20
-63.820011102029035
10
786.2757912841796
20
-60.99099478299987
10
788.72579128417965
20
-59.576486623485287
10
791.1757912841797
20
-60.99099478299987
10
791.1757912841797
20
-63.820011102029035
10
788.72579128417965
20
-65.234519261543625
0
LWPOLYLINE
5
156
100
AcDbEntity
8
0
100
AcDbPolyline
90
6
70
1
43
0.0
10
401.33719128417965
20
-65.234519261543653
10
398.88719128417961
20
-63.820011102029071
10
398.88719128417961
20
-60.99099478299987
10
401.33719128417965
20
-59.576486623485287
10
403.7871912841797
20
-60.99099478299987
10
403.7871912841797
20
-63.820011102029071
0
LWPOLYLINE
5
157
100
AcDbEntity
8
0
100
AcDbPolyline
90
6
70
1
43
0.0
10
403.7871912841797
20
-26.812911102028991
10
401.33719128417965
20
-28.227419261543574
10
398.88719128417961
20
-26.812911102028991
10
398.88719128417961
20
-23.983894782999826
10
401.33719128417965
20
-22.569386623485244
10
403.7871912841797
20
-23.983894782999826
0
LWPOLYLINE
5
158
100
AcDbEntity
8
0
100
AcDbPolyline
90
6
70
1
43
0.0
10
403.3376169679218
20
-5.9689205053176053
10
400.60499669848662
20
-6.7011225241655481
10
398.60458101474444
20
-4.7007049613623408
10
399.33678560043745
20
-1.9680853797111908
10
402.06940586987275
20
-1.235883360863248
10
404.06982155361482
20
-3.2363009236664553
0
LINE
5
159
100
AcDbEntity
8
0
100
AcDbLine
10
781.51949872930049
20
7.9369999468326569
30
2.7228558793839425e-48
11
562.45830021798611
21
7.9369999468326569
31
7.4719740862107006e-48
0
LINE
5
160
100
AcDbEntity
8
0
100
AcDbLine
10
784.6942987293005
20
131.75419909615516
30
1.2311751116457484e-33
11
784.6942987293005
21
11.111799946832619
31
0
0
ARC
5
161
100
AcDbEntity
8
0
100
AcDbCircle
10
788.66280792891052
20
-138.89751159258364
30
0
40
3.9684900000125594
210
5.5952006105546735e-16
220
-1.4099067091106743e-21
230
1
100
AcDbArc
50
-90.000144376779772
51
0.00012488756225906224
0
LINE
5
162
100
AcDbEntity
8
0
100
AcDbLine
10
781.51949872930049
20
-7.9369999468326569
30
2.7228558793839425e-48
11
562.45830021798611
21
-7.9369999468326569
31
7.4719740862107006e-48
0
LINE
5
163
100
AcDbEntity
8
0
100
AcDbLine
10
671.98889948427677
20
-134.92899909615517
30
-2.9779606868223568e-48
11
675.16369946300983
21
-136.5163990855217
31
0
0
LWPOLYLINE
5
164
100
AcDbEntity
8
0
100
AcDbPolyline
90
6
70
1
43
0.0
10
400.60498533941831
20
-136.16488372502576
10
403.33760597301392
20
-136.89708438480491
10
404.06981191777516
20
-139.62970360229377
10
402.069397228941
20
-141.63012216000351
10
399.33677659534538
20
-140.89792150022436
10
398.60457065058404
20
-138.1653022827355
0
LINE
5
165
100
AcDbEntity
8
0
100
AcDbLine
10
792.63129128418188
20
3.968502942514327
30
-2.2204460492503131e-15
11
792.63129128417972
21
138.89750294251456
31
-2.2204460492503131e-15
0
LWPOLYLINE
5
166
100
AcDbEntity
8
0
100
AcDbPolyline
90
6
70
1
43
0.0
10
449.4144994436943
20
-1.5185029425143526
10
450.82900760320888
20
-3.9685029425143625
10
449.4144994436943
20
-6.4185029425143725
10
446.58548312466513
20
-6.4185029425143725
10
445.17097496515055
20
-3.9685029425143625
10
446.58548312466513
20
-1.5185029425143526
0
LINE
5
167
100
AcDbEntity
8
0
100
AcDbLine
10
581.50710009038448
20
136.5163990855217
30
-2.1657895904162598e-49
11
584.68190006911755
21
134.92899909615517
31
0
0
LINE
5
168
100
AcDbEntity
8
0
100
AcDbLine
10
562.45830021798611
20
-7.9369999468326569
30
7.4719740862107006e-48
11
562.45830021798611
21
0
31
1.2325951644078309e-31
0
LINE
5
169
100
AcDbEntity
8
0
100
AcDbLine
10
671.98889948427677
20
134.92899909615517
30
-2.9779606868223568e-48
11
675.16369946300983
21
136.5163990855217
31
0
0
ARC
5
170
100
AcDbEntity
8
0
100
AcDbCircle
10
781.51949872930049
20
-131.75419909615513
30
1.3684555315672042e-46
40
3.1748000000000332
210
-3.8779611680939722e-34
220
-4.4144003490417768e-47
230
1
100
AcDbArc
50
270
51
360
0
LINE
5
171
100
AcDbEntity
8
0
100
AcDbLine
10
562.45830021798611
20
7.9369999468326569
30
7.4719740862107006e-48
11
562.45830021798611
21
0
31
1.2325951644078309e-31
0
ARC
5
172
100
AcDbEntity
8
0
100
AcDbCircle
10
408.48050127069951
20
-11.11179994683269
30
-9.2744935440199189e-48
40
3.1748000000000332
210
2.9212843467367327e-48
220
-4.4050289474769246e-48
230
1
100
AcDbArc
50
90
51
180
0
LINE
5
173
100
AcDbEntity
8
0
100
AcDbLine
10
584.68190006911755
20
134.92899909615517
30
0
11
671.98889948427677
21
134.92899909615517
31
-2.9779606868223568e-48
0
LWPOLYLINE
5
174
100
AcDbEntity
8
0
100
AcDbPolyline
90
6
70
1
43
0.0
10
791.14429128417964
20
26.820011102028971
10
788.69429128417983
20
28.234519261543554
10
786.24429128417978
20
26.820011102028971
10
786.24429128417978
20
23.990994782999806
10
788.69429128417983
20
22.576486623485224
10
791.14429128417964
20
23.990994782999806
0
LINE
5
175
100
AcDbEntity
8
0
100
AcDbLine
10
792.63129128418188
20
3.968502942514327
30
-2.2204460492503131e-15
11
792.63129128417972
21
138.89750294251456
31
-2.2204460492503131e-15
0
LINE
5
176
100
AcDbEntity
8
0
100
AcDbLine
10
675.16369946300983
20
-136.5163990855217
30
0
11
681.51329942047596
21
-136.5163990855217
31
-2.1657895904162598e-49
0
LINE
5
177
100
AcDbEntity
8
0
100
AcDbLine
10
575.15750013291836
20
136.5163990855217
30
0
11
581.50710009038448
21
136.5163990855217
31
-2.1657895904162598e-49
0
LINE
5
178
100
AcDbEntity
8
0
100
AcDbLine
10
575.15750013291836
20
136.5163990855217
30
0
11
581.50710009038448
21
136.5163990855217
31
-2.1657895904162598e-49
0
LINE
5
179
100
AcDbEntity
8
0
100
AcDbLine
10
784.6942987293005
20
131.75419909615516
30
1.2311751116457484e-33
11
784.6942987293005
21
11.111799946832619
31
0
0
LINE
5
180
100
AcDbEntity
8
0
100
AcDbLine
10
562.45830021798611
20
-7.9369999468326569
30
7.4719740862107006e-48
11
562.45830021798611
21
0
31
1.2325951644078309e-31
0
LINE
5
181
100
AcDbEntity
8
0
100
AcDbLine
10
584.68190006911755
20
134.92899909615517
30
0
11
671.98889948427677
21
134.92899909615517
31
-2.9779606868223568e-48
0
LINE
5
182
100
AcDbEntity
8
0
100
AcDbLine
10
562.45830021798611
20
7.9369999468326569
30
7.4719740862107006e-48
11
562.45830021798611
21
0
31
1.2325951644078309e-31
0
ARC
5
183
100
AcDbEntity
8
0
100
AcDbCircle
10
788.66280792891052
20
-138.89751159258364
30
0
40
3.9684900000125594
210
5.5952006105546735e-16
220
-1.4099067091106743e-21
230
1
100
AcDbArc
50
-90.000144376779772
51
0.00012488756225906224
0
LINE
5
184
100
AcDbEntity
8
0
100
AcDbLine
10
571.9827001541853
20
134.92899909615517
30
-3.0814879110194241e-32
11
575.15750013291836
21
136.5163990855217
31
0
0
LINE
5
185
100
AcDbEntity
8
0
100
AcDbLine
10
546.58430033117861
20
1.5925834162544561e-06
30
-1.6656927130300484e-48
11
546.58430032432079
21
7.9369999468326569
31
0
0
ARC
5
186
100
AcDbEntity
8
0
100
AcDbCircle
10
788.66280792891052
20
138.89751159258364
30
0
40
3.9684833552786838
210
5.5952006105594688e-16
220
-1.2195810693304443e-21
230
1
100
AcDbArc
50
-0.00012488756226304001
51
90.000144376779772
0
ARC
5
187
100
AcDbEntity
8
0
100
AcDbCircle
10
781.51949872930049
20
-131.75419909615513
30
1.3684555315672042e-46
40
3.1748000000000332
210
-3.8779611680939722e-34
220
-4.4144003490417768e-47
230
1
100
AcDbArc
50
270
51
360
0
LINE
5
188
100
AcDbEntity
8
0
100
AcDbLine
10
581.50710009038448
20
136.5163990855217
30
-2.1657895904162598e-49
11
584.68190006911755
21
134.92899909615517
31
0
0
LWPOLYLINE
5
189
100
AcDbEntity
8
0
100
AcDbPolyline
90
6
70
1
43
0.0
10
542.91449944369435
20
1.5185029425143526
10
544.32900760320888
20
3.9685029425143625
10
542.91449944369435
20
6.4185029425143725
10
540.08548312466519
20
6.4185029425143725
10
538.67097496515055
20
3.9685029425143625
10
540.08548312466519
20
1.5185029425143526
0
LWPOLYLINE
5
190
100
AcDbEntity
8
0
100
AcDbPolyline
90
6
70
1
43
0.0
10
608.08548312466519
20
1.5185029425143526
10
610.91449944369424
20
1.5185029425143526
10
612.32900760320888
20
3.9685029425143625
10
610.91449944369424
20
6.418502942514337
10
608.08548312466507
20
6.418502942514337
10
606.67097496515044
20
3.9685029425143625
0
LINE
5
191
100
AcDbEntity
8
0
100
AcDbLine
10
684.68809939920902
20
-134.92899909615517
30
0
11
781.51949872930049
21
-134.92899909615517
31
-3.3028291246594009e-48
0
ARC
5
192
100
AcDbEntity
8
0
100
AcDbCircle
10
408.48050127069951
20
-131.75419909615513
30
-4.91788706656964e-48
40
3.1748000000000332
210
1.5490383855896839e-48
220
-1.0136686011466225e-47
230
1
100
AcDbArc
50
180
51
270
0
LINE
5
193
100
AcDbEntity
8
0
100
AcDbLine
10
584.68190006911755
20
-134.92899909615517
30
0
11
671.98889948427677
21
-134.92899909615517
31
-2.9779606868223568e-48
0
LWPOLYLINE
5
194
100
AcDbEntity
8
0
100
AcDbPolyline
90
6
70
1
43
0.0
10
403.7871912841797
20
-60.99099478299987
10
403.7871912841797
20
-63.820011102029071
10
401.33719128417965
20
-65.234519261543653
10
398.88719128417961
20
-63.820011102029071
10
398.88719128417961
20
-60.99099478299987
10
401.33719128417965
20
-59.576486623485287
0
LINE
5
195
100
AcDbEntity
8
0
100
AcDbLine
10
584.68190006911755
20
-134.92899909615517
30
0
11
671.98889948427677
21
-134.92899909615517
31
-2.9779606868223568e-48
0
ARC
5
196
100
AcDbEntity
8
0
100
AcDbCircle
10
408.48050127069951
20
-131.75419909615513
30
-4.91788706656964e-48
40
3.1748000000000332
210
1.5490383855896839e-48
220
-1.0136686011466225e-47
230
1
100
AcDbArc
50
180
51
270
0
LINE
5
197
100
AcDbEntity
8
0
100
AcDbLine
10
397.36869792891036
20
138.89750159258364
30
2.2204460492503131e-15
11
397.36869792891002
21
3.9685015925834222
31
2.2204460492503131e-15
0
LINE
5
198
100
AcDbEntity
8
0
100
AcDbLine
10
571.9827001541853
20
-134.92899909615517
30
-3.0814879110194241e-32
11
575.15750013291836
21
-136.5163990855217
31
0
0
LINE
5
199
100
AcDbEntity
8
0
100
AcDbLine
10
675.16369946300983
20
136.5163990855217
30
0
11
681.51329942047596
21
136.5163990855217
31
-2.1657895904162598e-49
0
LWPOLYLINE
5
200
100
AcDbEntity
8
0
100
AcDbPolyline
90
6
70
1
43
0.0
10
398.60457065058404
20
-138.1653022827355
10
400.60498533941831
20
-136.16488372502576
10
403.33760597301392
20
-136.89708438480491
10
404.06981191777516
20
-139.62970360229377
10
402.069397228941
20
-141.63012216000351
10
399.33677659534538
20
-140.89792150022436
0
LINE
5
201
100
AcDbEntity
8
0
100
AcDbLine
10
405.3057012706995
20
11.111799946832654
30
0
11
405.3057012706995
21
131.75419909615519
31
0
0
LINE
5
202
100
AcDbEntity
8
0
100
AcDbLine
10
405.3057012706995
20
11.111799946832654
30
0
11
405.3057012706995
21
131.75419909615519
31
0
0
LINE
5
203
100
AcDbEntity
8
0
100
AcDbLine
10
575.15750013291836
20
-136.5163990855217
30
0
11
581.50710009038448
21
-136.5163990855217
31
-2.1657895904162598e-49
0
LINE
5
204
100
AcDbEntity
8
0
100
AcDbLine
10
571.9827001541853
20
-134.92899909615517
30
-3.0814879110194241e-32
11
575.15750013291836
21
-136.5163990855217
31
0
0
LINE
5
205
100
AcDbEntity
8
0
100
AcDbLine
10
675.16369946300983
20
136.5163990855217
30
0
11
681.51329942047596
21
136.5163990855217
31
-2.1657895904162598e-49
0
LINE
5
206
100
AcDbEntity
8
0
100
AcDbLine
10
581.50710009038448
20
-136.5163990855217
30
-2.1657895904162598e-49
11
584.68190006911755
21
-134.92899909615517
31
0
0
LINE
5
207
100
AcDbEntity
8
0
100
AcDbLine
10
684.68809939920902
20
-134.92899909615517
30
0
11
781.51949872930049
21
-134.92899909615517
31
-3.3028291246594009e-48
0
ARC
5
208
100
AcDbEntity
8
0
100
AcDbCircle
10
401.3371879289104
20
-3.9684915925834119
30
0
40
3.9684900000129959
210
5.5951912421075623e-16
220
-4.7305184181206107e-22
230
1
100
AcDbArc
50
89.999951558628013
51
180.00014437612762
0
LINE
5
209
100
AcDbEntity
8
0
100
AcDbLine
10
781.51949872930049
20
7.9369999468326569
30
2.7228558793839425e-48
11
562.45830021798611
21
7.9369999468326569
31
7.4719740862107006e-48
0
LINE
5
210
100
AcDbEntity
8
0
100
AcDbLine
10
575.15750013291836
20
-136.5163990855217
30
0
11
581.50710009038448
21
-136.5163990855217
31
-2.1657895904162598e-49
0
LINE
5
211
100
AcDbEntity
8
0
100
AcDbLine
10
397.36869792891036
20
138.89750159258364
30
2.2204460492503131e-15
11
397.36869792891002
21
3.9685015925834222
31
2.2204460492503131e-15
0
ARC
5
212
100
AcDbEntity
8
0
100
AcDbCircle
10
401.3372079289104
20
-138.89749159258361
30
2.2204460492503131e-15
40
3.968510000012651
210
-2.8190866526015833e-21
220
1.1187573560215721e-15
230
1
100
AcDbArc
50
180.00014437612762
51
268.72901513802793
0
ARC
5
213
100
AcDbEntity
8
0
100
AcDbCircle
10
408.48050127069951
20
-11.11179994683269
30
-9.2744935440199189e-48
40
3.1748000000000332
210
2.9212843467367327e-48
220
-4.4050289474769246e-48
230
1
100
AcDbArc
50
90
51
180
0
ARC
5
214
100
AcDbEntity
8
0
100
AcDbCircle
10
401.3372079289104
20
-138.89749159258361
30
2.2204460492503131e-15
40
3.968510000012651
210
-2.8190866526015833e-21
220
1.1187573560215721e-15
230
1
100
AcDbArc
50
180.00014437612762
51
268.72901513802793
0
LINE
5
215
100
AcDbEntity
8
0
100
AcDbLine
10
581.50710009038448
20
-136.5163990855217
30
-2.1657895904162598e-49
11
584.68190006911755
21
-134.92899909615517
31
0
0
LINE
5
216
100
AcDbEntity
8
0
100
AcDbLine
10
675.16369946300983
20
-136.5163990855217
30
0
11
681.51329942047596
21
-136.5163990855217
31
-2.1657895904162598e-49
0
LINE
5
217
100
AcDbEntity
8
0
100
AcDbLine
10
408.48050127069951
20
-134.92899909615514
30
1.0853933563177188e-47
11
571.9827001541853
21
-134.92899909615517
31
-3.0814879110194241e-32
0
LINE
5
218
100
AcDbEntity
8
0
100
AcDbLine
10
546.58430032432079
20
-7.9369999468326569
30
0
11
408.48050127069951
21
-7.9369999468326569
31
4.7105923584299671e-48
0
LINE
5
219
100
AcDbEntity
8
0
100
AcDbLine
10
546.58430032432079
20
-7.9369999468326569
30
0
11
408.48050127069951
21
-7.9369999468326569
31
4.7105923584299671e-48
0
LINE
5
220
100
AcDbEntity
8
0
100
AcDbLine
10
788.66279792891032
20
-142.86600159258359
30
-9.7830828787367817e-32
11
401.24918220486097
21
-142.86502522093585
31
-2.2204460492503131e-15
0
LINE
5
221
100
AcDbEntity
8
0
100
AcDbLine
10
546.58430032432079
20
7.9369999468326569
30
0
11
408.48050127069951
21
7.9369999468326569
31
4.7105923584299671e-48
0
LINE
5
222
100
AcDbEntity
8
0
100
AcDbLine
10
788.66279792891032
20
142.86600159258359
30
-9.7830828787367817e-32
11
401.24918220486097
21
142.86502522093585
31
-2.2204460492503131e-15
0
LINE
5
223
100
AcDbEntity
8
0
100
AcDbLine
10
788.66279792891032
20
-142.86600159258359
30
-9.7830828787367817e-32
11
401.24918220486097
21
-142.86502522093585
31
-2.2204460492503131e-15
0
LINE
5
224
100
AcDbEntity
8
0
100
AcDbLine
10
788.66279792891032
20
142.86600159258359
30
-9.7830828787367817e-32
11
401.24918220486097
21
142.86502522093585
31
-2.2204460492503131e-15
0
LINE
5
225
100
AcDbEntity
8
0
100
AcDbLine
10
408.48050127069951
20
134.92899909615514
30
1.0853933563177188e-47
11
571.9827001541853
21
134.92899909615517
31
-3.0814879110194241e-32
0
LINE
5
226
100
AcDbEntity
8
0
100
AcDbLine
10
408.48050127069951
20
-134.92899909615514
30
1.0853933563177188e-47
11
571.9827001541853
21
-134.92899909615517
31
-3.0814879110194241e-32
0
ARC
5
227
100
AcDbEntity
8
0
100
AcDbCircle
10
788.66280128417975
20
-3.968482942514342
30
-2.2204460492503131e-15
40
3.9684900000525598
210
2.8198086616230558e-21
220
5.5951912419727341e-16
230
1
100
AcDbArc
50
-0.00028875351754389098
51
90.000144376776475
0
LWPOLYLINE
5
228
100
AcDbEntity
8
0
100
AcDbPolyline
90
6
70
1
43
0.0
10
688.3108076032089
20
-3.9685029425143625
10
686.89629944369426
20
-6.418502942514337
10
684.0672831246651
20
-6.418502942514337
10
682.65277496515057
20
-3.9685029425143625
10
684.0672831246651
20
-1.5185029425143526
10
686.89629944369426
20
-1.5185029425143526
0
LWPOLYLINE
5
229
100
AcDbEntity
8
0
100
AcDbPolyline
90
6
70
1
43
0.0
10
740.58548312466519
20
1.5185029425143526
10
743.41449944369424
20
1.5185029425143526
10
744.82900760320888
20
3.9685029425143625
10
743.41449944369424
20
6.418502942514337
10
740.58548312466519
20
6.418502942514337
10
739.17097496515055
20
3.9685029425143625
0
LWPOLYLINE
5
230
100
AcDbEntity
8
0
100
AcDbPolyline
90
6
70
1
43
0.0
10
740.58548312466519
20
1.5185029425143526
10
743.41449944369424
20
1.5185029425143526
10
744.82900760320888
20
3.9685029425143625
10
743.41449944369424
20
6.418502942514337
10
740.58548312466519
20
6.418502942514337
10
739.17097496515055
20
3.9685029425143625
0
LWPOLYLINE
5
231
100
AcDbEntity
8
0
100
AcDbPolyline
90
6
70
1
43
0.0
10
786.24429128417978
20
-23.990994782999806
10
788.69429128417983
20
-22.576486623485224
10
791.14429128417964
20
-23.990994782999806
10
791.14429128417964
20
-26.820011102028971
10
788.69429128417983
20
-28.234519261543554
10
786.24429128417978
20
-26.820011102028971
0
LWPOLYLINE
5
232
100
AcDbEntity
8
0
100
AcDbPolyline
90
6
70
1
43
0.0
10
791.14429128417964
20
-26.820011102028971
10
788.69429128417983
20
-28.234519261543554
10
786.24429128417978
20
-26.820011102028971
10
786.24429128417978
20
-23.990994782999806
10
788.69429128417983
20
-22.576486623485224
10
791.14429128417964
20
-23.990994782999806
0
LWPOLYLINE
5
233
100
AcDbEntity
8
0
100
AcDbPolyline
90
6
70
1
43
0.0
10
789.39499836795471
20
6.7011045342911402
10
786.66238010865868
20
5.9688950135287655
10
785.9301830248836
20
3.2362734217519673
10
787.93060420040456
20
1.2358613507375438
10
790.66322245970071
20
1.9680708714999184
10
791.39541954347578
20
4.7006924632767166
0
LWPOLYLINE
5
234
100
AcDbEntity
8
0
100
AcDbPolyline
90
6
70
1
43
0.0
10
505.93269944369422
20
-1.5185029425143526
10
507.34720760320886
20
-3.9685029425143625
10
505.93269944369422
20
-6.4185029425143725
10
503.10368312466505
20
-6.4185029425143725
10
501.68917496515053
20
-3.9685029425143625
10
503.10368312466505
20
-1.5185029425143526
0
LWPOLYLINE
5
235
100
AcDbEntity
8
0
100
AcDbPolyline
90
6
70
1
43
0.0
10
702.67097496515044
20
-3.9685029425143625
10
704.08548312466507
20
-1.5185029425143526
10
706.91449944369424
20
-1.5185029425143526
10
708.32900760320877
20
-3.9685029425143625
10
706.91449944369424
20
-6.418502942514337
10
704.08548312466507
20
-6.418502942514337
0
LWPOLYLINE
5
236
100
AcDbEntity
8
0
100
AcDbPolyline
90
6
70
1
43
0.0
10
481.67097496515055
20
-3.9685029425143625
10
483.08548312466513
20
-1.5185029425143526
10
485.9144994436943
20
-1.5185029425143526
10
487.32900760320888
20
-3.9685029425143625
10
485.9144994436943
20
-6.4185029425143725
10
483.08548312466513
20
-6.4185029425143725
0
LWPOLYLINE
5
237
100
AcDbEntity
8
0
100
AcDbPolyline
90
6
70
1
43
0.0
10
507.34720760320886
20
-3.9685029425143625
10
505.93269944369422
20
-6.4185029425143725
10
503.10368312466505
20
-6.4185029425143725
10
501.68917496515053
20
-3.9685029425143625
10
503.10368312466505
20
-1.5185029425143526
10
505.93269944369422
20
-1.5185029425143526
0
LWPOLYLINE
5
238
100
AcDbEntity
8
0
100
AcDbPolyline
90
6
70
1
43
0.0
10
485.9144994436943
20
-1.5185029425143526
10
487.32900760320888
20
-3.9685029425143625
10
485.9144994436943
20
-6.4185029425143725
10
483.08548312466513
20
-6.4185029425143725
10
481.67097496515055
20
-3.9685029425143625
10
483.08548312466513
20
-1.5185029425143526
0
LWPOLYLINE
5
239
100
AcDbEntity
8
0
100
AcDbPolyline
90
6
70
1
43
0.0
10
702.67097496515044
20
-3.9685029425143625
10
704.08548312466507
20
-1.5185029425143526
10
706.91449944369424
20
-1.5185029425143526
10
708.32900760320877
20
-3.9685029425143625
10
706.91449944369424
20
-6.418502942514337
10
704.08548312466507
20
-6.418502942514337
0
LINE
5
240
100
AcDbEntity
8
0
100
AcDbLine
10
788.53001032645443
20
-6.7229375488864207e-06
30
1.4693679385278594e-38
11
788.66279128417978
21
-7.0575256572169565e-06
31
-5.8774717541114375e-38
0
LWPOLYLINE
5
241
100
AcDbEntity
8
0
100
AcDbPolyline
90
6
70
1
43
0.0
10
785.9301830248836
20
-3.2362734217519673
10
787.93060420040456
20
-1.2358613507375438
10
790.66322245970071
20
-1.9680708714999184
10
791.39541954347578
20
-4.7006924632767166
10
789.39499836795471
20
-6.7011045342911402
10
786.66238010865868
20
-5.9688950135287655
0
LWPOLYLINE
5
242
100
AcDbEntity
8
0
100
AcDbPolyline
90
6
70
1
43
0.0
10
686.89629944369426
20
-1.5185029425143526
10
688.3108076032089
20
-3.9685029425143625
10
686.89629944369426
20
-6.418502942514337
10
684.0672831246651
20
-6.418502942514337
10
682.65277496515057
20
-3.9685029425143625
10
684.0672831246651
20
-1.5185029425143526
0
ARC
5
243
100
AcDbEntity
8
0
100
AcDbCircle
10
781.51949872930049
20
11.11179994683269
30
-3.2607729463124787e-48
40
3.1748000000000332
210
-7.7249922664590691e-35
220
1.8847262270682746e-48
230
1
100
AcDbArc
50
270
51
360
0
LWPOLYLINE
5
244
100
AcDbEntity
8
0
100
AcDbPolyline
90
6
70
1
43
0.0
10
645.67097496515066
20
3.9685029425143625
10
647.08548312466519
20
1.5185029425143526
10
649.91449944369435
20
1.5185029425143526
10
651.32900760320899
20
3.9685029425143625
10
649.91449944369435
20
6.418502942514337
10
647.08548312466519
20
6.418502942514337
0
ARC
5
245
100
AcDbEntity
8
0
100
AcDbCircle
10
788.66280128417975
20
3.968482942514342
30
-2.2204460492503131e-15
40
3.9684900000525984
210
1.4099043333203484e-21
220
5.5951912420437849e-16
230
1
100
AcDbArc
50
-90.000144376776504
51
0.00028875351752671521
0
LWPOLYLINE
5
246
100
AcDbEntity
8
0
100
AcDbPolyline
90
6
70
1
43
0.0
10
740.58548312466519
20
-1.5185029425143526
10
743.41449944369424
20
-1.5185029425143526
10
744.82900760320888
20
-3.9685029425143625
10
743.41449944369424
20
-6.418502942514337
10
740.58548312466519
20
-6.418502942514337
10
739.17097496515055
20
-3.9685029425143625
0
LWPOLYLINE
5
247
100
AcDbEntity
8
0
100
AcDbPolyline
90
6
70
1
43
0.0
10
740.58548312466519
20
-6.418502942514337
10
739.17097496515055
20
-3.9685029425143625
10
740.58548312466519
20
-1.5185029425143526
10
743.41449944369424
20
-1.5185029425143526
10
744.82900760320888
20
-3.9685029425143625
10
743.41449944369424
20
-6.418502942514337
0
LWPOLYLINE
5
248
100
AcDbEntity
8
0
100
AcDbPolyline
90
6
70
1
43
0.0
10
791.39541954347578
20
-4.7006924632767166
10
789.39499836795471
20
-6.7011045342911402
10
786.66238010865868
20
-5.9688950135287655
10
785.9301830248836
20
-3.2362734217519673
10
787.93060420040456
20
-1.2358613507375438
10
790.66322245970071
20
-1.9680708714999184
0
ARC
5
249
100
AcDbEntity
8
0
100
AcDbCircle
10
788.66280128417975
20
-3.968482942514342
30
-2.2204460492503131e-15
40
3.9684900000525598
210
2.8198086616230558e-21
220
5.5951912419727341e-16
230
1
100
AcDbArc
50
-0.00028875351754389098
51
90.000144376776475
0
LINE
5
250
100
AcDbEntity
8
0
100
AcDbLine
10
546.58430033117861
20
1.5925834162544561e-06
30
-1.6656927130300484e-48
11
546.58430032432079
21
7.9369999468326569
31
0
0
LWPOLYLINE
5
251
100
AcDbEntity
8
0
100
AcDbPolyline
90
6
70
1
43
0.0
10
791.39542034166936
20
138.16530640063078
10
790.6632202790131
20
140.89792719422422
10
787.93060122152337
20
141.63013373610806
10
785.93018222669002
20
139.62971948439844
10
786.66238228934628
20
136.897098690805
10
789.39500134683601
20
136.16489214892115
0
LWPOLYLINE
5
252
100
AcDbEntity
8
0
100
AcDbPolyline
90
6
70
1
43
0.0
10
645.67097496515066
20
3.9685029425143625
10
647.08548312466519
20
1.5185029425143526
10
649.91449944369435
20
1.5185029425143526
10
651.32900760320899
20
3.9685029425143625
10
649.91449944369435
20
6.418502942514337
10
647.08548312466519
20
6.418502942514337
0
ARC
5
253
100
AcDbEntity
8
0
100
AcDbCircle
10
788.66280792891052
20
138.89751159258364
30
0
40
3.9684833552786838
210
5.5952006105594688e-16
220
-1.2195810693304458e-21
230
1
100
AcDbArc
50
-0.00012488756226304001
51
90.000144376779772
0
LWPOLYLINE
5
254
100
AcDbEntity
8
0
100
AcDbPolyline
90
6
70
1
43
0.0
10
581.91449944369424
20
-6.418502942514337
10
579.08548312466507
20
-6.418502942514337
10
577.67097496515044
20
-3.9685029425143625
10
579.08548312466507
20
-1.5185029425143526
10
581.91449944369424
20
-1.5185029425143526
10
583.32900760320877
20
-3.9685029425143625
0
LWPOLYLINE
5
255
100
AcDbEntity
8
0
100
AcDbPolyline
90
6
70
1
43
0.0
10
647.08548312466519
20
-1.5185029425143526
10
649.91449944369435
20
-1.5185029425143526
10
651.32900760320899
20
-3.9685029425143625
10
649.91449944369435
20
-6.418502942514337
10
647.08548312466519
20
-6.418502942514337
10
645.67097496515066
20
-3.9685029425143625
0
LWPOLYLINE
5
256
100
AcDbEntity
8
0
100
AcDbPolyline
90
6
70
1
43
0.0
10
649.91449944369435
20
-1.5185029425143526
10
651.32900760320899
20
-3.9685029425143625
10
649.91449944369435
20
-6.418502942514337
10
647.08548312466519
20
-6.418502942514337
10
645.67097496515066
20
-3.9685029425143625
10
647.08548312466519
20
-1.5185029425143526
0
ARC
5
257
100
AcDbEntity
8
0
100
AcDbCircle
10
781.51949872930049
20
131.75419909615513
30
1.3684555315672042e-46
40
3.1748000000000332
210
-3.8779611680939722e-34
220
2.4651903288156613e-32
230
1
100
AcDbArc
50
0
51
90
0
LINE
5
258
100
AcDbEntity
8
0
100
AcDbLine
10
684.68809939920902
20
134.92899909615517
30
0
11
781.51949872930049
21
134.92899909615517
31
-3.3028291246594009e-48
0
ARC
5
259
100
AcDbEntity
8
0
100
AcDbCircle
10
781.51949872930049
20
131.75419909615513
30
1.3684555315672042e-46
40
3.1748000000000332
210
-3.8779611680939722e-34
220
2.4651903288156613e-32
230
1
100
AcDbArc
50
0
51
90
0
LINE
5
260
100
AcDbEntity
8
0
100
AcDbLine
10
546.58430033117861
20
-1.5925834162544561e-06
30
-1.6656927130300484e-48
11
546.58430032432079
21
-7.9369999468326569
31
0
0
LINE
5
261
100
AcDbEntity
8
0
100
AcDbLine
10
684.68809939920902
20
134.92899909615517
30
0
11
781.51949872930049
21
134.92899909615517
31
-3.3028291246594009e-48
0
LWPOLYLINE
5
262
100
AcDbEntity
8
0
100
AcDbPolyline
90
6
70
1
43
0.0
10
401.33719128417965
20
22.569386623485244
10
403.7871912841797
20
23.983894782999826
10
403.7871912841797
20
26.812911102028991
10
401.33719128417965
20
28.227419261543574
10
398.88719128417961
20
26.812911102028991
10
398.88719128417961
20
23.983894782999826
0
LINE
5
263
100
AcDbEntity
8
0
100
AcDbLine
10
397.36869792891036
20
-138.89750159258364
30
2.2204460492503131e-15
11
397.36869792891002
21
-3.9685015925834222
31
2.2204460492503131e-15
0
ARC
5
264
100
AcDbEntity
8
0
100
AcDbCircle
10
408.48050127069951
20
11.11179994683269
30
-9.2744935440199189e-48
40
3.1748000000000332
210
2.9212843467367327e-48
220
1.2045703198402792e-48
230
1
100
AcDbArc
50
180
51
270
0
LWPOLYLINE
5
265
100
AcDbEntity
8
0
100
AcDbPolyline
90
6
70
1
43
0.0
10
403.3376169679218
20
5.9689205053176053
10
400.60499669848662
20
6.7011225241655481
10
398.60458101474444
20
4.7007049613623408
10
399.33678560043745
20
1.9680853797111908
10
402.06940586987275
20
1.235883360863248
10
404.06982155361482
20
3.2363009236664553
0
ARC
5
266
100
AcDbEntity
8
0
100
AcDbCircle
10
401.3371879289104
20
3.9684915925834119
30
0
40
3.9684900000129857
210
5.5951912420996352e-16
220
-1.4099043333732724e-21
230
1
100
AcDbArc
50
179.99985562387235
51
270.00004844137197
0
LWPOLYLINE
5
267
100
AcDbEntity
8
0
100
AcDbPolyline
90
6
70
1
43
0.0
10
403.7871912841797
20
26.812911102028991
10
401.33719128417965
20
28.227419261543574
10
398.88719128417961
20
26.812911102028991
10
398.88719128417961
20
23.983894782999826
10
401.33719128417965
20
22.569386623485244
10
403.7871912841797
20
23.983894782999826
0
LWPOLYLINE
5
268
100
AcDbEntity
8
0
100
AcDbPolyline
90
6
70
1
43
0.0
10
404.06982155361482
20
3.2363009236664553
10
403.3376169679218
20
5.9689205053176053
10
400.60499669848662
20
6.7011225241655481
10
398.60458101474444
20
4.7007049613623408
10
399.33678560043745
20
1.9680853797111908
10
402.06940586987275
20
1.235883360863248
0
ARC
5
269
100
AcDbEntity
8
0
100
AcDbCircle
10
408.48050127069951
20
11.11179994683269
30
-9.2744935440199189e-48
40
3.1748000000000332
210
2.9212843467367327e-48
220
1.2045703198402792e-48
230
1
100
AcDbArc
50
180
51
270
0
LINE
5
270
100
AcDbEntity
8
0
100
AcDbLine
10
405.3057012706995
20
-11.111799946832654
30
0
11
405.3057012706995
21
-131.75419909615519
31
0
0
LINE
5
271
100
AcDbEntity
8
0
100
AcDbLine
10
546.58430032432079
20
7.9369999468326569
30
0
11
408.48050127069951
21
7.9369999468326569
31
4.7105923584299671e-48
0
LINE
5
272
100
AcDbEntity
8
0
100
AcDbLine
10
784.6942987293005
20
-131.75419909615516
30
1.2311751116457484e-33
11
784.6942987293005
21
-11.111799946832619
31
0
0
LINE
5
273
100
AcDbEntity
8
0
100
AcDbLine
10
792.63129128418188
20
-3.968502942514327
30
-2.2204460492503131e-15
11
792.63129128417972
21
-138.89750294251456
31
-2.2204460492503131e-15
0
LINE
5
274
100
AcDbEntity
8
0
100
AcDbLine
10
408.48050127069951
20
134.92899909615514
30
1.0853933563177188e-47
11
571.9827001541853
21
134.92899909615517
31
-3.0814879110194241e-32
0
LINE
5
275
100
AcDbEntity
8
0
100
AcDbLine
10
792.63129128418188
20
-3.968502942514327
30
-2.2204460492503131e-15
11
792.63129128417972
21
-138.89750294251456
31
-2.2204460492503131e-15
0
LINE
5
276
100
AcDbEntity
8
0
100
AcDbLine
10
784.6942987293005
20
-131.75419909615516
30
1.2311751116457484e-33
11
784.6942987293005
21
-11.111799946832619
31
0
0
LINE
5
277
100
AcDbEntity
8
0
100
AcDbLine
10
405.3057012706995
20
-11.111799946832654
30
0
11
405.3057012706995
21
-131.75419909615519
31
0
0
LINE
5
278
100
AcDbEntity
8
0
100
AcDbLine
10
397.36869792891036
20
-138.89750159258364
30
2.2204460492503131e-15
11
397.36869792891002
21
-3.9685015925834222
31
2.2204460492503131e-15
0
LWPOLYLINE
5
279
100
AcDbEntity
8
0
100
AcDbPolyline
90
6
70
1
43
0.0
10
786.66238010865868
20
5.9688950135287655
10
785.9301830248836
20
3.2362734217519673
10
787.93060420040456
20
1.2358613507375438
10
790.66322245970071
20
1.9680708714999184
10
791.39541954347578
20
4.7006924632767166
10
789.39499836795471
20
6.7011045342911402
0
LINE
5
280
100
AcDbEntity
8
0
100
AcDbLine
10
788.53001032645443
20
6.7229375488864207e-06
30
1.4693679385278594e-38
11
788.66279128417978
21
7.0575256572169565e-06
31
-5.8774717541114375e-38
0
LINE
5
281
100
AcDbEntity
8
0
100
AcDbLine
10
788.53001032645443
20
6.7229375488864207e-06
30
1.4693679385278594e-38
11
788.66279128417978
21
7.0575256572169565e-06
31
-5.8774717541114375e-38
0
ARC
5
282
100
AcDbEntity
8
0
100
AcDbCircle
10
781.51949872930049
20
-11.11179994683269
30
-3.2607729463124787e-48
40
3.1748000000000332
210
-1.0270797991409542e-48
220
3.613634233473501e-48
230
1
100
AcDbArc
50
0
51
90
0
ARC
5
283
100
AcDbEntity
8
0
100
AcDbCircle
10
781.51949872930049
20
-11.11179994683269
30
-3.2607729463124787e-48
40
3.1748000000000332
210
-1.0270797991409542e-48
220
3.613634233473501e-48
230
1
100
AcDbArc
50
0
51
90
0
LINE
5
284
100
AcDbEntity
8
0
100
AcDbLine
10
788.53001032645443
20
-6.7229375488864207e-06
30
1.4693679385278594e-38
11
788.66279128417978
21
-7.0575256572169565e-06
31
-5.8774717541114375e-38
0
ARC
5
285
100
AcDbEntity
8
0
100
AcDbCircle
10
781.51949872930049
20
11.11179994683269
30
-3.2607729463124787e-48
40
3.1748000000000332
210
-7.7249922664590691e-35
220
1.8847262270682746e-48
230
1
100
AcDbArc
50
270
51
360
0
ARC
5
286
100
AcDbEntity
8
0
100
AcDbCircle
10
788.66280128417975
20
3.968482942514342
30
-2.2204460492503131e-15
40
3.9684900000525984
210
1.4099043333203484e-21
220
5.5951912420437849e-16
230
1
100
AcDbArc
50
-90.000144376776504
51
0.00028875351752671521
0
ARC
5
287
100
AcDbEntity
8
0
100
AcDbCircle
10
401.3371879289104
20
3.9684915925834119
30
0
40
3.9684900000129857
210
5.5951912420996352e-16
220
-1.4099043333732739e-21
230
1
100
AcDbArc
50
179.99985562387235
51
270.00004844137197
0
LINE
5
288
100
AcDbEntity
8
0
100
AcDbLine
10
788.66279128417978
20
7.0575256572169565e-06
30
-5.8774717541114375e-38
11
562.45830021798611
21
0
31
1.2325951644078309e-31
0
LINE
5
289
100
AcDbEntity
8
0
100
AcDbLine
10
546.58430033117861
20
1.5925834162544561e-06
30
-1.6656927130300484e-48
11
401.33719128411565
21
1.5925718344078632e-06
31
-9.7830831352616293e-32
0
ENDSEC
0
SECTION
2
OBJECTS
0
DICTIONARY
5
C
100
AcDbDictionary
3
ACAD_GROUP
350
D
3
ACAD_MLINESTYLE
350
17
0
DICTIONARY
5
D
100
AcDbDictionary
0
DICTIONARY
5
1A
330
C
100
AcDbDictionary
0
DICTIONARY
5
17
100
AcDbDictionary
0
ENDSEC
0
EOF
