%FSLAX45Y45*%
G04 Gerber Fmt 4.5, Leading zero omitted, Abs format (unit mm)*
G04 Created by KiCad (PCBNEW (6.0.0)) date 2022-03-05 23:14:36*
%MOMM*%
%LPD*%
G01*
G04 APERTURE LIST*
%TA.AperFunction,Profile*%
%ADD10C,0.200000*%
%TD*%
%ADD11C,0.200000*%
%ADD12C,0.220000*%
%ADD13C,0.250000*%
%ADD14C,0.320000*%
G04 APERTURE END LIST*
D10*
X36425550Y-5875820D02*
X36425550Y-10875820D01*
X40191830Y-20162420D02*
G75*
G03*
X40588680Y-19765570I0J396850D01*
G01*
X1459270Y-5875820D02*
G75*
G03*
X1062420Y-6272670I0J-396850D01*
G01*
X11100550Y-5875820D02*
X30550550Y-5875820D01*
X36425550Y-10875820D02*
X37075550Y-10875820D01*
X31200550Y-5875820D02*
X31200550Y-10875820D01*
X4575550Y-5875820D02*
X1459270Y-5875820D01*
X40588680Y-19765570D02*
X40588680Y-6272670D01*
X5225550Y-5875820D02*
X5225550Y-10875820D01*
X11100550Y-10875820D02*
X10450550Y-10875820D01*
X11100550Y-5875820D02*
X11100550Y-10875820D01*
X31200550Y-5875820D02*
X36425550Y-5875820D01*
X5225550Y-5875820D02*
X10450550Y-5875820D01*
X31200550Y-10875820D02*
X30550550Y-10875820D01*
X37075550Y-5875820D02*
X40191830Y-5875820D01*
X1062420Y-19765570D02*
G75*
G03*
X1459270Y-20162420I396850J0D01*
G01*
X5225550Y-10875820D02*
X4575550Y-10875820D01*
X1459270Y-20162420D02*
X40191830Y-20162420D01*
X10450550Y-10875820D02*
X10450550Y-5875820D01*
X37075550Y-10875820D02*
X37075550Y-5875820D01*
X1062420Y-6272670D02*
X1062420Y-19765570D01*
X40588680Y-6272670D02*
G75*
G03*
X40191830Y-5875820I-396850J0D01*
G01*
X4575550Y-10875820D02*
X4575550Y-5875820D01*
X30550550Y-10875820D02*
X30550550Y-5875820D01*
D11*
D12*
X20015550Y-6784520D02*
X20235550Y-7004520D01*
X20235550Y-6784520D02*
X20015550Y-7004520D01*
X20015550Y-8034520D02*
X20235550Y-8254520D01*
X20235550Y-8034520D02*
X20015550Y-8254520D01*
X21415550Y-6784520D02*
X21635550Y-7004520D01*
X21635550Y-6784520D02*
X21415550Y-7004520D01*
X21415550Y-8034520D02*
X21635550Y-8254520D01*
X21635550Y-8034520D02*
X21415550Y-8254520D01*
D13*
X2306120Y-9066370D02*
G75*
G03*
X2306120Y-9066370I-125000J0D01*
G01*
X2306120Y-11466370D02*
G75*
G03*
X2306120Y-11466370I-125000J0D01*
G01*
X3506120Y-9066370D02*
G75*
G03*
X3506120Y-9066370I-125000J0D01*
G01*
X3506120Y-11466370D02*
G75*
G03*
X3506120Y-11466370I-125000J0D01*
G01*
X6850550Y-6994520D02*
G75*
G03*
X6850550Y-6994520I-125000J0D01*
G01*
X6850550Y-8194520D02*
G75*
G03*
X6850550Y-8194520I-125000J0D01*
G01*
X9250550Y-6994520D02*
G75*
G03*
X9250550Y-6994520I-125000J0D01*
G01*
X9250550Y-8194520D02*
G75*
G03*
X9250550Y-8194520I-125000J0D01*
G01*
X12550550Y-6994520D02*
G75*
G03*
X12550550Y-6994520I-125000J0D01*
G01*
X12550550Y-8194520D02*
G75*
G03*
X12550550Y-8194520I-125000J0D01*
G01*
X14950550Y-6994520D02*
G75*
G03*
X14950550Y-6994520I-125000J0D01*
G01*
X14950550Y-8194520D02*
G75*
G03*
X14950550Y-8194520I-125000J0D01*
G01*
X18250550Y-6994520D02*
G75*
G03*
X18250550Y-6994520I-125000J0D01*
G01*
X18250550Y-10194520D02*
G75*
G03*
X18250550Y-10194520I-125000J0D01*
G01*
X19550550Y-6994520D02*
G75*
G03*
X19550550Y-6994520I-125000J0D01*
G01*
X19550550Y-10194520D02*
G75*
G03*
X19550550Y-10194520I-125000J0D01*
G01*
X22350550Y-6994520D02*
G75*
G03*
X22350550Y-6994520I-125000J0D01*
G01*
X22350550Y-10194520D02*
G75*
G03*
X22350550Y-10194520I-125000J0D01*
G01*
X23650550Y-6994520D02*
G75*
G03*
X23650550Y-6994520I-125000J0D01*
G01*
X23650550Y-10194520D02*
G75*
G03*
X23650550Y-10194520I-125000J0D01*
G01*
X26950550Y-6994520D02*
G75*
G03*
X26950550Y-6994520I-125000J0D01*
G01*
X26950550Y-8194520D02*
G75*
G03*
X26950550Y-8194520I-125000J0D01*
G01*
X29350550Y-6994520D02*
G75*
G03*
X29350550Y-6994520I-125000J0D01*
G01*
X29350550Y-8194520D02*
G75*
G03*
X29350550Y-8194520I-125000J0D01*
G01*
X32650550Y-6994520D02*
G75*
G03*
X32650550Y-6994520I-125000J0D01*
G01*
X32650550Y-8194520D02*
G75*
G03*
X32650550Y-8194520I-125000J0D01*
G01*
X35050550Y-6994520D02*
G75*
G03*
X35050550Y-6994520I-125000J0D01*
G01*
X35050550Y-8194520D02*
G75*
G03*
X35050550Y-8194520I-125000J0D01*
G01*
X38394980Y-9066370D02*
G75*
G03*
X38394980Y-9066370I-125000J0D01*
G01*
X38394980Y-11466370D02*
G75*
G03*
X38394980Y-11466370I-125000J0D01*
G01*
X39594980Y-9066370D02*
G75*
G03*
X39594980Y-9066370I-125000J0D01*
G01*
X39594980Y-11466370D02*
G75*
G03*
X39594980Y-11466370I-125000J0D01*
G01*
D14*
X1452970Y-11956370D02*
X1452970Y-12276370D01*
X1292970Y-12116370D02*
X1612970Y-12116370D01*
X1456120Y-8256370D02*
X1456120Y-8576370D01*
X1296120Y-8416370D02*
X1616120Y-8416370D01*
X1459270Y-6112670D02*
X1459270Y-6432670D01*
X1299270Y-6272670D02*
X1619270Y-6272670D01*
X1459270Y-19605570D02*
X1459270Y-19925570D01*
X1299270Y-19765570D02*
X1619270Y-19765570D01*
X6125550Y-6112670D02*
X6125550Y-6432670D01*
X5965550Y-6272670D02*
X6285550Y-6272670D01*
X9775550Y-6112670D02*
X9775550Y-6432670D01*
X9615550Y-6272670D02*
X9935550Y-6272670D01*
X11775550Y-19605570D02*
X11775550Y-19925570D01*
X11615550Y-19765570D02*
X11935550Y-19765570D01*
X11777370Y-6112670D02*
X11777370Y-6432670D01*
X11617370Y-6272670D02*
X11937370Y-6272670D01*
X15475550Y-6112670D02*
X15475550Y-6432670D01*
X15315550Y-6272670D02*
X15635550Y-6272670D01*
X19375550Y-6112670D02*
X19375550Y-6432670D01*
X19215550Y-6272670D02*
X19535550Y-6272670D01*
X22275550Y-6112670D02*
X22275550Y-6432670D01*
X22115550Y-6272670D02*
X22435550Y-6272670D01*
X26175550Y-6112670D02*
X26175550Y-6432670D01*
X26015550Y-6272670D02*
X26335550Y-6272670D01*
X29873730Y-6112670D02*
X29873730Y-6432670D01*
X29713730Y-6272670D02*
X30033730Y-6272670D01*
X29875550Y-19605570D02*
X29875550Y-19925570D01*
X29715550Y-19765570D02*
X30035550Y-19765570D01*
X31875550Y-6112670D02*
X31875550Y-6432670D01*
X31715550Y-6272670D02*
X32035550Y-6272670D01*
X35525550Y-6112670D02*
X35525550Y-6432670D01*
X35365550Y-6272670D02*
X35685550Y-6272670D01*
X40191830Y-6112670D02*
X40191830Y-6432670D01*
X40031830Y-6272670D02*
X40351830Y-6272670D01*
X40191830Y-8255660D02*
X40191830Y-8575660D01*
X40031830Y-8415660D02*
X40351830Y-8415660D01*
X40191830Y-11956370D02*
X40191830Y-12276370D01*
X40031830Y-12116370D02*
X40351830Y-12116370D01*
X40191830Y-19605570D02*
X40191830Y-19925570D01*
X40031830Y-19765570D02*
X40351830Y-19765570D01*
D11*
X1310039Y-20482896D02*
X1310039Y-20282896D01*
X1357658Y-20282896D01*
X1386230Y-20292420D01*
X1405277Y-20311468D01*
X1414801Y-20330515D01*
X1424325Y-20368610D01*
X1424325Y-20397182D01*
X1414801Y-20435277D01*
X1405277Y-20454325D01*
X1386230Y-20473372D01*
X1357658Y-20482896D01*
X1310039Y-20482896D01*
X1510039Y-20482896D02*
X1510039Y-20349563D01*
X1510039Y-20387658D02*
X1519563Y-20368610D01*
X1529087Y-20359087D01*
X1548134Y-20349563D01*
X1567182Y-20349563D01*
X1633848Y-20482896D02*
X1633848Y-20349563D01*
X1633848Y-20282896D02*
X1624325Y-20292420D01*
X1633848Y-20301944D01*
X1643372Y-20292420D01*
X1633848Y-20282896D01*
X1633848Y-20301944D01*
X1757658Y-20482896D02*
X1738610Y-20473372D01*
X1729087Y-20454325D01*
X1729087Y-20282896D01*
X1862420Y-20482896D02*
X1843372Y-20473372D01*
X1833848Y-20454325D01*
X1833848Y-20282896D01*
X2090991Y-20482896D02*
X2090991Y-20282896D01*
X2157658Y-20425753D01*
X2224325Y-20282896D01*
X2224325Y-20482896D01*
X2405277Y-20482896D02*
X2405277Y-20378134D01*
X2395753Y-20359087D01*
X2376706Y-20349563D01*
X2338610Y-20349563D01*
X2319563Y-20359087D01*
X2405277Y-20473372D02*
X2386230Y-20482896D01*
X2338610Y-20482896D01*
X2319563Y-20473372D01*
X2310039Y-20454325D01*
X2310039Y-20435277D01*
X2319563Y-20416230D01*
X2338610Y-20406706D01*
X2386230Y-20406706D01*
X2405277Y-20397182D01*
X2500515Y-20349563D02*
X2500515Y-20549563D01*
X2500515Y-20359087D02*
X2519563Y-20349563D01*
X2557658Y-20349563D01*
X2576706Y-20359087D01*
X2586230Y-20368610D01*
X2595753Y-20387658D01*
X2595753Y-20444801D01*
X2586230Y-20463849D01*
X2576706Y-20473372D01*
X2557658Y-20482896D01*
X2519563Y-20482896D01*
X2500515Y-20473372D01*
X2681468Y-20463849D02*
X2690991Y-20473372D01*
X2681468Y-20482896D01*
X2671944Y-20473372D01*
X2681468Y-20463849D01*
X2681468Y-20482896D01*
X2681468Y-20359087D02*
X2690991Y-20368610D01*
X2681468Y-20378134D01*
X2671944Y-20368610D01*
X2681468Y-20359087D01*
X2681468Y-20378134D01*
X852420Y-20712420D02*
X1052420Y-20912420D01*
X1052420Y-20712420D02*
X852420Y-20912420D01*
X1300515Y-20721944D02*
X1310039Y-20712420D01*
X1329087Y-20702896D01*
X1376706Y-20702896D01*
X1395753Y-20712420D01*
X1405277Y-20721944D01*
X1414801Y-20740991D01*
X1414801Y-20760039D01*
X1405277Y-20788610D01*
X1290991Y-20902896D01*
X1414801Y-20902896D01*
X1500515Y-20883849D02*
X1510039Y-20893372D01*
X1500515Y-20902896D01*
X1490991Y-20893372D01*
X1500515Y-20883849D01*
X1500515Y-20902896D01*
X1586229Y-20721944D02*
X1595753Y-20712420D01*
X1614801Y-20702896D01*
X1662420Y-20702896D01*
X1681468Y-20712420D01*
X1690991Y-20721944D01*
X1700515Y-20740991D01*
X1700515Y-20760039D01*
X1690991Y-20788610D01*
X1576706Y-20902896D01*
X1700515Y-20902896D01*
X1824325Y-20702896D02*
X1843372Y-20702896D01*
X1862420Y-20712420D01*
X1871944Y-20721944D01*
X1881468Y-20740991D01*
X1890991Y-20779087D01*
X1890991Y-20826706D01*
X1881468Y-20864801D01*
X1871944Y-20883849D01*
X1862420Y-20893372D01*
X1843372Y-20902896D01*
X1824325Y-20902896D01*
X1805277Y-20893372D01*
X1795753Y-20883849D01*
X1786229Y-20864801D01*
X1776706Y-20826706D01*
X1776706Y-20779087D01*
X1786229Y-20740991D01*
X1795753Y-20721944D01*
X1805277Y-20712420D01*
X1824325Y-20702896D01*
X2014801Y-20702896D02*
X2033848Y-20702896D01*
X2052896Y-20712420D01*
X2062420Y-20721944D01*
X2071944Y-20740991D01*
X2081468Y-20779087D01*
X2081468Y-20826706D01*
X2071944Y-20864801D01*
X2062420Y-20883849D01*
X2052896Y-20893372D01*
X2033848Y-20902896D01*
X2014801Y-20902896D01*
X1995753Y-20893372D01*
X1986229Y-20883849D01*
X1976706Y-20864801D01*
X1967182Y-20826706D01*
X1967182Y-20779087D01*
X1976706Y-20740991D01*
X1986229Y-20721944D01*
X1995753Y-20712420D01*
X2014801Y-20702896D01*
X2167182Y-20902896D02*
X2167182Y-20769563D01*
X2167182Y-20788610D02*
X2176706Y-20779087D01*
X2195753Y-20769563D01*
X2224325Y-20769563D01*
X2243372Y-20779087D01*
X2252896Y-20798134D01*
X2252896Y-20902896D01*
X2252896Y-20798134D02*
X2262420Y-20779087D01*
X2281468Y-20769563D01*
X2310039Y-20769563D01*
X2329087Y-20779087D01*
X2338610Y-20798134D01*
X2338610Y-20902896D01*
X2433849Y-20902896D02*
X2433849Y-20769563D01*
X2433849Y-20788610D02*
X2443372Y-20779087D01*
X2462420Y-20769563D01*
X2490991Y-20769563D01*
X2510039Y-20779087D01*
X2519563Y-20798134D01*
X2519563Y-20902896D01*
X2519563Y-20798134D02*
X2529087Y-20779087D01*
X2548134Y-20769563D01*
X2576706Y-20769563D01*
X2595753Y-20779087D01*
X2605277Y-20798134D01*
X2605277Y-20902896D01*
X2995753Y-20693372D02*
X2824325Y-20950515D01*
X3252896Y-20702896D02*
X3271944Y-20702896D01*
X3290991Y-20712420D01*
X3300515Y-20721944D01*
X3310039Y-20740991D01*
X3319563Y-20779087D01*
X3319563Y-20826706D01*
X3310039Y-20864801D01*
X3300515Y-20883849D01*
X3290991Y-20893372D01*
X3271944Y-20902896D01*
X3252896Y-20902896D01*
X3233848Y-20893372D01*
X3224325Y-20883849D01*
X3214801Y-20864801D01*
X3205277Y-20826706D01*
X3205277Y-20779087D01*
X3214801Y-20740991D01*
X3224325Y-20721944D01*
X3233848Y-20712420D01*
X3252896Y-20702896D01*
X3405277Y-20883849D02*
X3414801Y-20893372D01*
X3405277Y-20902896D01*
X3395753Y-20893372D01*
X3405277Y-20883849D01*
X3405277Y-20902896D01*
X3538610Y-20702896D02*
X3557658Y-20702896D01*
X3576706Y-20712420D01*
X3586229Y-20721944D01*
X3595753Y-20740991D01*
X3605277Y-20779087D01*
X3605277Y-20826706D01*
X3595753Y-20864801D01*
X3586229Y-20883849D01*
X3576706Y-20893372D01*
X3557658Y-20902896D01*
X3538610Y-20902896D01*
X3519563Y-20893372D01*
X3510039Y-20883849D01*
X3500515Y-20864801D01*
X3490991Y-20826706D01*
X3490991Y-20779087D01*
X3500515Y-20740991D01*
X3510039Y-20721944D01*
X3519563Y-20712420D01*
X3538610Y-20702896D01*
X3719563Y-20788610D02*
X3700515Y-20779087D01*
X3690991Y-20769563D01*
X3681468Y-20750515D01*
X3681468Y-20740991D01*
X3690991Y-20721944D01*
X3700515Y-20712420D01*
X3719563Y-20702896D01*
X3757658Y-20702896D01*
X3776706Y-20712420D01*
X3786229Y-20721944D01*
X3795753Y-20740991D01*
X3795753Y-20750515D01*
X3786229Y-20769563D01*
X3776706Y-20779087D01*
X3757658Y-20788610D01*
X3719563Y-20788610D01*
X3700515Y-20798134D01*
X3690991Y-20807658D01*
X3681468Y-20826706D01*
X3681468Y-20864801D01*
X3690991Y-20883849D01*
X3700515Y-20893372D01*
X3719563Y-20902896D01*
X3757658Y-20902896D01*
X3776706Y-20893372D01*
X3786229Y-20883849D01*
X3795753Y-20864801D01*
X3795753Y-20826706D01*
X3786229Y-20807658D01*
X3776706Y-20798134D01*
X3757658Y-20788610D01*
X3967182Y-20702896D02*
X3929087Y-20702896D01*
X3910039Y-20712420D01*
X3900515Y-20721944D01*
X3881468Y-20750515D01*
X3871944Y-20788610D01*
X3871944Y-20864801D01*
X3881468Y-20883849D01*
X3890991Y-20893372D01*
X3910039Y-20902896D01*
X3948134Y-20902896D01*
X3967182Y-20893372D01*
X3976706Y-20883849D01*
X3986229Y-20864801D01*
X3986229Y-20817182D01*
X3976706Y-20798134D01*
X3967182Y-20788610D01*
X3948134Y-20779087D01*
X3910039Y-20779087D01*
X3890991Y-20788610D01*
X3881468Y-20798134D01*
X3871944Y-20817182D01*
X4157658Y-20702896D02*
X4119563Y-20702896D01*
X4100515Y-20712420D01*
X4090991Y-20721944D01*
X4071944Y-20750515D01*
X4062420Y-20788610D01*
X4062420Y-20864801D01*
X4071944Y-20883849D01*
X4081468Y-20893372D01*
X4100515Y-20902896D01*
X4138610Y-20902896D01*
X4157658Y-20893372D01*
X4167182Y-20883849D01*
X4176706Y-20864801D01*
X4176706Y-20817182D01*
X4167182Y-20798134D01*
X4157658Y-20788610D01*
X4138610Y-20779087D01*
X4100515Y-20779087D01*
X4081468Y-20788610D01*
X4071944Y-20798134D01*
X4062420Y-20817182D01*
X4252896Y-20702896D02*
X4252896Y-20740991D01*
X4329087Y-20702896D02*
X4329087Y-20740991D01*
X4624325Y-20979087D02*
X4614801Y-20969563D01*
X4595753Y-20940991D01*
X4586230Y-20921944D01*
X4576706Y-20893372D01*
X4567182Y-20845753D01*
X4567182Y-20807658D01*
X4576706Y-20760039D01*
X4586230Y-20731468D01*
X4595753Y-20712420D01*
X4614801Y-20683849D01*
X4624325Y-20674325D01*
X4786230Y-20769563D02*
X4786230Y-20902896D01*
X4738610Y-20693372D02*
X4690991Y-20836230D01*
X4814801Y-20836230D01*
X5043372Y-20902896D02*
X5043372Y-20702896D01*
X5129087Y-20902896D02*
X5129087Y-20798134D01*
X5119563Y-20779087D01*
X5100515Y-20769563D01*
X5071944Y-20769563D01*
X5052896Y-20779087D01*
X5043372Y-20788610D01*
X5252896Y-20902896D02*
X5233849Y-20893372D01*
X5224325Y-20883849D01*
X5214801Y-20864801D01*
X5214801Y-20807658D01*
X5224325Y-20788610D01*
X5233849Y-20779087D01*
X5252896Y-20769563D01*
X5281468Y-20769563D01*
X5300515Y-20779087D01*
X5310039Y-20788610D01*
X5319563Y-20807658D01*
X5319563Y-20864801D01*
X5310039Y-20883849D01*
X5300515Y-20893372D01*
X5281468Y-20902896D01*
X5252896Y-20902896D01*
X5433849Y-20902896D02*
X5414801Y-20893372D01*
X5405277Y-20874325D01*
X5405277Y-20702896D01*
X5586230Y-20893372D02*
X5567182Y-20902896D01*
X5529087Y-20902896D01*
X5510039Y-20893372D01*
X5500515Y-20874325D01*
X5500515Y-20798134D01*
X5510039Y-20779087D01*
X5529087Y-20769563D01*
X5567182Y-20769563D01*
X5586230Y-20779087D01*
X5595753Y-20798134D01*
X5595753Y-20817182D01*
X5500515Y-20836230D01*
X5671944Y-20893372D02*
X5690991Y-20902896D01*
X5729087Y-20902896D01*
X5748134Y-20893372D01*
X5757658Y-20874325D01*
X5757658Y-20864801D01*
X5748134Y-20845753D01*
X5729087Y-20836230D01*
X5700515Y-20836230D01*
X5681468Y-20826706D01*
X5671944Y-20807658D01*
X5671944Y-20798134D01*
X5681468Y-20779087D01*
X5700515Y-20769563D01*
X5729087Y-20769563D01*
X5748134Y-20779087D01*
X5824325Y-20979087D02*
X5833848Y-20969563D01*
X5852896Y-20940991D01*
X5862420Y-20921944D01*
X5871944Y-20893372D01*
X5881468Y-20845753D01*
X5881468Y-20807658D01*
X5871944Y-20760039D01*
X5862420Y-20731468D01*
X5852896Y-20712420D01*
X5833848Y-20683849D01*
X5824325Y-20674325D01*
X6186229Y-20979087D02*
X6176706Y-20969563D01*
X6157658Y-20940991D01*
X6148134Y-20921944D01*
X6138610Y-20893372D01*
X6129087Y-20845753D01*
X6129087Y-20807658D01*
X6138610Y-20760039D01*
X6148134Y-20731468D01*
X6157658Y-20712420D01*
X6176706Y-20683849D01*
X6186229Y-20674325D01*
X6262420Y-20769563D02*
X6262420Y-20902896D01*
X6262420Y-20788610D02*
X6271944Y-20779087D01*
X6290991Y-20769563D01*
X6319563Y-20769563D01*
X6338610Y-20779087D01*
X6348134Y-20798134D01*
X6348134Y-20902896D01*
X6471944Y-20902896D02*
X6452896Y-20893372D01*
X6443372Y-20883849D01*
X6433848Y-20864801D01*
X6433848Y-20807658D01*
X6443372Y-20788610D01*
X6452896Y-20779087D01*
X6471944Y-20769563D01*
X6500515Y-20769563D01*
X6519563Y-20779087D01*
X6529087Y-20788610D01*
X6538610Y-20807658D01*
X6538610Y-20864801D01*
X6529087Y-20883849D01*
X6519563Y-20893372D01*
X6500515Y-20902896D01*
X6471944Y-20902896D01*
X6595753Y-20769563D02*
X6671944Y-20769563D01*
X6624325Y-20702896D02*
X6624325Y-20874325D01*
X6633848Y-20893372D01*
X6652896Y-20902896D01*
X6671944Y-20902896D01*
X6890991Y-20769563D02*
X6890991Y-20969563D01*
X6890991Y-20779087D02*
X6910039Y-20769563D01*
X6948134Y-20769563D01*
X6967182Y-20779087D01*
X6976706Y-20788610D01*
X6986229Y-20807658D01*
X6986229Y-20864801D01*
X6976706Y-20883849D01*
X6967182Y-20893372D01*
X6948134Y-20902896D01*
X6910039Y-20902896D01*
X6890991Y-20893372D01*
X7100515Y-20902896D02*
X7081468Y-20893372D01*
X7071944Y-20874325D01*
X7071944Y-20702896D01*
X7262420Y-20902896D02*
X7262420Y-20798134D01*
X7252896Y-20779087D01*
X7233848Y-20769563D01*
X7195753Y-20769563D01*
X7176706Y-20779087D01*
X7262420Y-20893372D02*
X7243372Y-20902896D01*
X7195753Y-20902896D01*
X7176706Y-20893372D01*
X7167182Y-20874325D01*
X7167182Y-20855277D01*
X7176706Y-20836230D01*
X7195753Y-20826706D01*
X7243372Y-20826706D01*
X7262420Y-20817182D01*
X7329087Y-20769563D02*
X7405277Y-20769563D01*
X7357658Y-20702896D02*
X7357658Y-20874325D01*
X7367182Y-20893372D01*
X7386229Y-20902896D01*
X7405277Y-20902896D01*
X7548134Y-20893372D02*
X7529087Y-20902896D01*
X7490991Y-20902896D01*
X7471944Y-20893372D01*
X7462420Y-20874325D01*
X7462420Y-20798134D01*
X7471944Y-20779087D01*
X7490991Y-20769563D01*
X7529087Y-20769563D01*
X7548134Y-20779087D01*
X7557658Y-20798134D01*
X7557658Y-20817182D01*
X7462420Y-20836230D01*
X7729087Y-20902896D02*
X7729087Y-20702896D01*
X7729087Y-20893372D02*
X7710039Y-20902896D01*
X7671944Y-20902896D01*
X7652896Y-20893372D01*
X7643372Y-20883849D01*
X7633848Y-20864801D01*
X7633848Y-20807658D01*
X7643372Y-20788610D01*
X7652896Y-20779087D01*
X7671944Y-20769563D01*
X7710039Y-20769563D01*
X7729087Y-20779087D01*
X7805277Y-20979087D02*
X7814801Y-20969563D01*
X7833848Y-20940991D01*
X7843372Y-20921944D01*
X7852896Y-20893372D01*
X7862420Y-20845753D01*
X7862420Y-20807658D01*
X7852896Y-20760039D01*
X7843372Y-20731468D01*
X7833848Y-20712420D01*
X7814801Y-20683849D01*
X7805277Y-20674325D01*
X1052420Y-21132420D02*
G75*
G03*
X1052420Y-21132420I-100000J0D01*
G01*
X1300515Y-21041944D02*
X1310039Y-21032420D01*
X1329087Y-21022896D01*
X1376706Y-21022896D01*
X1395753Y-21032420D01*
X1405277Y-21041944D01*
X1414801Y-21060991D01*
X1414801Y-21080039D01*
X1405277Y-21108610D01*
X1290991Y-21222896D01*
X1414801Y-21222896D01*
X1500515Y-21203849D02*
X1510039Y-21213372D01*
X1500515Y-21222896D01*
X1490991Y-21213372D01*
X1500515Y-21203849D01*
X1500515Y-21222896D01*
X1690991Y-21022896D02*
X1595753Y-21022896D01*
X1586229Y-21118134D01*
X1595753Y-21108610D01*
X1614801Y-21099087D01*
X1662420Y-21099087D01*
X1681468Y-21108610D01*
X1690991Y-21118134D01*
X1700515Y-21137182D01*
X1700515Y-21184801D01*
X1690991Y-21203849D01*
X1681468Y-21213372D01*
X1662420Y-21222896D01*
X1614801Y-21222896D01*
X1595753Y-21213372D01*
X1586229Y-21203849D01*
X1824325Y-21022896D02*
X1843372Y-21022896D01*
X1862420Y-21032420D01*
X1871944Y-21041944D01*
X1881468Y-21060991D01*
X1890991Y-21099087D01*
X1890991Y-21146706D01*
X1881468Y-21184801D01*
X1871944Y-21203849D01*
X1862420Y-21213372D01*
X1843372Y-21222896D01*
X1824325Y-21222896D01*
X1805277Y-21213372D01*
X1795753Y-21203849D01*
X1786229Y-21184801D01*
X1776706Y-21146706D01*
X1776706Y-21099087D01*
X1786229Y-21060991D01*
X1795753Y-21041944D01*
X1805277Y-21032420D01*
X1824325Y-21022896D01*
X2014801Y-21022896D02*
X2033848Y-21022896D01*
X2052896Y-21032420D01*
X2062420Y-21041944D01*
X2071944Y-21060991D01*
X2081468Y-21099087D01*
X2081468Y-21146706D01*
X2071944Y-21184801D01*
X2062420Y-21203849D01*
X2052896Y-21213372D01*
X2033848Y-21222896D01*
X2014801Y-21222896D01*
X1995753Y-21213372D01*
X1986229Y-21203849D01*
X1976706Y-21184801D01*
X1967182Y-21146706D01*
X1967182Y-21099087D01*
X1976706Y-21060991D01*
X1986229Y-21041944D01*
X1995753Y-21032420D01*
X2014801Y-21022896D01*
X2167182Y-21222896D02*
X2167182Y-21089563D01*
X2167182Y-21108610D02*
X2176706Y-21099087D01*
X2195753Y-21089563D01*
X2224325Y-21089563D01*
X2243372Y-21099087D01*
X2252896Y-21118134D01*
X2252896Y-21222896D01*
X2252896Y-21118134D02*
X2262420Y-21099087D01*
X2281468Y-21089563D01*
X2310039Y-21089563D01*
X2329087Y-21099087D01*
X2338610Y-21118134D01*
X2338610Y-21222896D01*
X2433849Y-21222896D02*
X2433849Y-21089563D01*
X2433849Y-21108610D02*
X2443372Y-21099087D01*
X2462420Y-21089563D01*
X2490991Y-21089563D01*
X2510039Y-21099087D01*
X2519563Y-21118134D01*
X2519563Y-21222896D01*
X2519563Y-21118134D02*
X2529087Y-21099087D01*
X2548134Y-21089563D01*
X2576706Y-21089563D01*
X2595753Y-21099087D01*
X2605277Y-21118134D01*
X2605277Y-21222896D01*
X2995753Y-21013372D02*
X2824325Y-21270515D01*
X3252896Y-21022896D02*
X3271944Y-21022896D01*
X3290991Y-21032420D01*
X3300515Y-21041944D01*
X3310039Y-21060991D01*
X3319563Y-21099087D01*
X3319563Y-21146706D01*
X3310039Y-21184801D01*
X3300515Y-21203849D01*
X3290991Y-21213372D01*
X3271944Y-21222896D01*
X3252896Y-21222896D01*
X3233848Y-21213372D01*
X3224325Y-21203849D01*
X3214801Y-21184801D01*
X3205277Y-21146706D01*
X3205277Y-21099087D01*
X3214801Y-21060991D01*
X3224325Y-21041944D01*
X3233848Y-21032420D01*
X3252896Y-21022896D01*
X3405277Y-21203849D02*
X3414801Y-21213372D01*
X3405277Y-21222896D01*
X3395753Y-21213372D01*
X3405277Y-21203849D01*
X3405277Y-21222896D01*
X3538610Y-21022896D02*
X3557658Y-21022896D01*
X3576706Y-21032420D01*
X3586229Y-21041944D01*
X3595753Y-21060991D01*
X3605277Y-21099087D01*
X3605277Y-21146706D01*
X3595753Y-21184801D01*
X3586229Y-21203849D01*
X3576706Y-21213372D01*
X3557658Y-21222896D01*
X3538610Y-21222896D01*
X3519563Y-21213372D01*
X3510039Y-21203849D01*
X3500515Y-21184801D01*
X3490991Y-21146706D01*
X3490991Y-21099087D01*
X3500515Y-21060991D01*
X3510039Y-21041944D01*
X3519563Y-21032420D01*
X3538610Y-21022896D01*
X3700515Y-21222896D02*
X3738610Y-21222896D01*
X3757658Y-21213372D01*
X3767182Y-21203849D01*
X3786229Y-21175277D01*
X3795753Y-21137182D01*
X3795753Y-21060991D01*
X3786229Y-21041944D01*
X3776706Y-21032420D01*
X3757658Y-21022896D01*
X3719563Y-21022896D01*
X3700515Y-21032420D01*
X3690991Y-21041944D01*
X3681468Y-21060991D01*
X3681468Y-21108610D01*
X3690991Y-21127658D01*
X3700515Y-21137182D01*
X3719563Y-21146706D01*
X3757658Y-21146706D01*
X3776706Y-21137182D01*
X3786229Y-21127658D01*
X3795753Y-21108610D01*
X3910039Y-21108610D02*
X3890991Y-21099087D01*
X3881468Y-21089563D01*
X3871944Y-21070515D01*
X3871944Y-21060991D01*
X3881468Y-21041944D01*
X3890991Y-21032420D01*
X3910039Y-21022896D01*
X3948134Y-21022896D01*
X3967182Y-21032420D01*
X3976706Y-21041944D01*
X3986229Y-21060991D01*
X3986229Y-21070515D01*
X3976706Y-21089563D01*
X3967182Y-21099087D01*
X3948134Y-21108610D01*
X3910039Y-21108610D01*
X3890991Y-21118134D01*
X3881468Y-21127658D01*
X3871944Y-21146706D01*
X3871944Y-21184801D01*
X3881468Y-21203849D01*
X3890991Y-21213372D01*
X3910039Y-21222896D01*
X3948134Y-21222896D01*
X3967182Y-21213372D01*
X3976706Y-21203849D01*
X3986229Y-21184801D01*
X3986229Y-21146706D01*
X3976706Y-21127658D01*
X3967182Y-21118134D01*
X3948134Y-21108610D01*
X4157658Y-21089563D02*
X4157658Y-21222896D01*
X4110039Y-21013372D02*
X4062420Y-21156230D01*
X4186229Y-21156230D01*
X4252896Y-21022896D02*
X4252896Y-21060991D01*
X4329087Y-21022896D02*
X4329087Y-21060991D01*
X4624325Y-21299087D02*
X4614801Y-21289563D01*
X4595753Y-21260991D01*
X4586230Y-21241944D01*
X4576706Y-21213372D01*
X4567182Y-21165753D01*
X4567182Y-21127658D01*
X4576706Y-21080039D01*
X4586230Y-21051468D01*
X4595753Y-21032420D01*
X4614801Y-21003849D01*
X4624325Y-20994325D01*
X4681468Y-21022896D02*
X4805277Y-21022896D01*
X4738610Y-21099087D01*
X4767182Y-21099087D01*
X4786230Y-21108610D01*
X4795753Y-21118134D01*
X4805277Y-21137182D01*
X4805277Y-21184801D01*
X4795753Y-21203849D01*
X4786230Y-21213372D01*
X4767182Y-21222896D01*
X4710039Y-21222896D01*
X4690991Y-21213372D01*
X4681468Y-21203849D01*
X4881468Y-21041944D02*
X4890991Y-21032420D01*
X4910039Y-21022896D01*
X4957658Y-21022896D01*
X4976706Y-21032420D01*
X4986230Y-21041944D01*
X4995753Y-21060991D01*
X4995753Y-21080039D01*
X4986230Y-21108610D01*
X4871944Y-21222896D01*
X4995753Y-21222896D01*
X5233849Y-21222896D02*
X5233849Y-21022896D01*
X5319563Y-21222896D02*
X5319563Y-21118134D01*
X5310039Y-21099087D01*
X5290991Y-21089563D01*
X5262420Y-21089563D01*
X5243372Y-21099087D01*
X5233849Y-21108610D01*
X5443372Y-21222896D02*
X5424325Y-21213372D01*
X5414801Y-21203849D01*
X5405277Y-21184801D01*
X5405277Y-21127658D01*
X5414801Y-21108610D01*
X5424325Y-21099087D01*
X5443372Y-21089563D01*
X5471944Y-21089563D01*
X5490991Y-21099087D01*
X5500515Y-21108610D01*
X5510039Y-21127658D01*
X5510039Y-21184801D01*
X5500515Y-21203849D01*
X5490991Y-21213372D01*
X5471944Y-21222896D01*
X5443372Y-21222896D01*
X5624325Y-21222896D02*
X5605277Y-21213372D01*
X5595753Y-21194325D01*
X5595753Y-21022896D01*
X5776706Y-21213372D02*
X5757658Y-21222896D01*
X5719563Y-21222896D01*
X5700515Y-21213372D01*
X5690991Y-21194325D01*
X5690991Y-21118134D01*
X5700515Y-21099087D01*
X5719563Y-21089563D01*
X5757658Y-21089563D01*
X5776706Y-21099087D01*
X5786229Y-21118134D01*
X5786229Y-21137182D01*
X5690991Y-21156230D01*
X5862420Y-21213372D02*
X5881468Y-21222896D01*
X5919563Y-21222896D01*
X5938610Y-21213372D01*
X5948134Y-21194325D01*
X5948134Y-21184801D01*
X5938610Y-21165753D01*
X5919563Y-21156230D01*
X5890991Y-21156230D01*
X5871944Y-21146706D01*
X5862420Y-21127658D01*
X5862420Y-21118134D01*
X5871944Y-21099087D01*
X5890991Y-21089563D01*
X5919563Y-21089563D01*
X5938610Y-21099087D01*
X6014801Y-21299087D02*
X6024325Y-21289563D01*
X6043372Y-21260991D01*
X6052896Y-21241944D01*
X6062420Y-21213372D01*
X6071944Y-21165753D01*
X6071944Y-21127658D01*
X6062420Y-21080039D01*
X6052896Y-21051468D01*
X6043372Y-21032420D01*
X6024325Y-21003849D01*
X6014801Y-20994325D01*
X6376706Y-21299087D02*
X6367182Y-21289563D01*
X6348134Y-21260991D01*
X6338610Y-21241944D01*
X6329087Y-21213372D01*
X6319563Y-21165753D01*
X6319563Y-21127658D01*
X6329087Y-21080039D01*
X6338610Y-21051468D01*
X6348134Y-21032420D01*
X6367182Y-21003849D01*
X6376706Y-20994325D01*
X6452896Y-21089563D02*
X6452896Y-21222896D01*
X6452896Y-21108610D02*
X6462420Y-21099087D01*
X6481468Y-21089563D01*
X6510039Y-21089563D01*
X6529087Y-21099087D01*
X6538610Y-21118134D01*
X6538610Y-21222896D01*
X6662420Y-21222896D02*
X6643372Y-21213372D01*
X6633848Y-21203849D01*
X6624325Y-21184801D01*
X6624325Y-21127658D01*
X6633848Y-21108610D01*
X6643372Y-21099087D01*
X6662420Y-21089563D01*
X6690991Y-21089563D01*
X6710039Y-21099087D01*
X6719563Y-21108610D01*
X6729087Y-21127658D01*
X6729087Y-21184801D01*
X6719563Y-21203849D01*
X6710039Y-21213372D01*
X6690991Y-21222896D01*
X6662420Y-21222896D01*
X6786229Y-21089563D02*
X6862420Y-21089563D01*
X6814801Y-21022896D02*
X6814801Y-21194325D01*
X6824325Y-21213372D01*
X6843372Y-21222896D01*
X6862420Y-21222896D01*
X7081468Y-21089563D02*
X7081468Y-21289563D01*
X7081468Y-21099087D02*
X7100515Y-21089563D01*
X7138610Y-21089563D01*
X7157658Y-21099087D01*
X7167182Y-21108610D01*
X7176706Y-21127658D01*
X7176706Y-21184801D01*
X7167182Y-21203849D01*
X7157658Y-21213372D01*
X7138610Y-21222896D01*
X7100515Y-21222896D01*
X7081468Y-21213372D01*
X7290991Y-21222896D02*
X7271944Y-21213372D01*
X7262420Y-21194325D01*
X7262420Y-21022896D01*
X7452896Y-21222896D02*
X7452896Y-21118134D01*
X7443372Y-21099087D01*
X7424325Y-21089563D01*
X7386229Y-21089563D01*
X7367182Y-21099087D01*
X7452896Y-21213372D02*
X7433848Y-21222896D01*
X7386229Y-21222896D01*
X7367182Y-21213372D01*
X7357658Y-21194325D01*
X7357658Y-21175277D01*
X7367182Y-21156230D01*
X7386229Y-21146706D01*
X7433848Y-21146706D01*
X7452896Y-21137182D01*
X7519563Y-21089563D02*
X7595753Y-21089563D01*
X7548134Y-21022896D02*
X7548134Y-21194325D01*
X7557658Y-21213372D01*
X7576706Y-21222896D01*
X7595753Y-21222896D01*
X7738610Y-21213372D02*
X7719563Y-21222896D01*
X7681468Y-21222896D01*
X7662420Y-21213372D01*
X7652896Y-21194325D01*
X7652896Y-21118134D01*
X7662420Y-21099087D01*
X7681468Y-21089563D01*
X7719563Y-21089563D01*
X7738610Y-21099087D01*
X7748134Y-21118134D01*
X7748134Y-21137182D01*
X7652896Y-21156230D01*
X7919563Y-21222896D02*
X7919563Y-21022896D01*
X7919563Y-21213372D02*
X7900515Y-21222896D01*
X7862420Y-21222896D01*
X7843372Y-21213372D01*
X7833848Y-21203849D01*
X7824325Y-21184801D01*
X7824325Y-21127658D01*
X7833848Y-21108610D01*
X7843372Y-21099087D01*
X7862420Y-21089563D01*
X7900515Y-21089563D01*
X7919563Y-21099087D01*
X7995753Y-21299087D02*
X8005277Y-21289563D01*
X8024325Y-21260991D01*
X8033848Y-21241944D01*
X8043372Y-21213372D01*
X8052896Y-21165753D01*
X8052896Y-21127658D01*
X8043372Y-21080039D01*
X8033848Y-21051468D01*
X8024325Y-21032420D01*
X8005277Y-21003849D01*
X7995753Y-20994325D01*
X952420Y-21352420D02*
X952420Y-21552420D01*
X852420Y-21452420D02*
X1052420Y-21452420D01*
X1290991Y-21342896D02*
X1414801Y-21342896D01*
X1348134Y-21419087D01*
X1376706Y-21419087D01*
X1395753Y-21428610D01*
X1405277Y-21438134D01*
X1414801Y-21457182D01*
X1414801Y-21504801D01*
X1405277Y-21523849D01*
X1395753Y-21533372D01*
X1376706Y-21542896D01*
X1319563Y-21542896D01*
X1300515Y-21533372D01*
X1290991Y-21523849D01*
X1500515Y-21523849D02*
X1510039Y-21533372D01*
X1500515Y-21542896D01*
X1490991Y-21533372D01*
X1500515Y-21523849D01*
X1500515Y-21542896D01*
X1586229Y-21361944D02*
X1595753Y-21352420D01*
X1614801Y-21342896D01*
X1662420Y-21342896D01*
X1681468Y-21352420D01*
X1690991Y-21361944D01*
X1700515Y-21380991D01*
X1700515Y-21400039D01*
X1690991Y-21428610D01*
X1576706Y-21542896D01*
X1700515Y-21542896D01*
X1824325Y-21342896D02*
X1843372Y-21342896D01*
X1862420Y-21352420D01*
X1871944Y-21361944D01*
X1881468Y-21380991D01*
X1890991Y-21419087D01*
X1890991Y-21466706D01*
X1881468Y-21504801D01*
X1871944Y-21523849D01*
X1862420Y-21533372D01*
X1843372Y-21542896D01*
X1824325Y-21542896D01*
X1805277Y-21533372D01*
X1795753Y-21523849D01*
X1786229Y-21504801D01*
X1776706Y-21466706D01*
X1776706Y-21419087D01*
X1786229Y-21380991D01*
X1795753Y-21361944D01*
X1805277Y-21352420D01*
X1824325Y-21342896D01*
X2014801Y-21342896D02*
X2033848Y-21342896D01*
X2052896Y-21352420D01*
X2062420Y-21361944D01*
X2071944Y-21380991D01*
X2081468Y-21419087D01*
X2081468Y-21466706D01*
X2071944Y-21504801D01*
X2062420Y-21523849D01*
X2052896Y-21533372D01*
X2033848Y-21542896D01*
X2014801Y-21542896D01*
X1995753Y-21533372D01*
X1986229Y-21523849D01*
X1976706Y-21504801D01*
X1967182Y-21466706D01*
X1967182Y-21419087D01*
X1976706Y-21380991D01*
X1986229Y-21361944D01*
X1995753Y-21352420D01*
X2014801Y-21342896D01*
X2167182Y-21542896D02*
X2167182Y-21409563D01*
X2167182Y-21428610D02*
X2176706Y-21419087D01*
X2195753Y-21409563D01*
X2224325Y-21409563D01*
X2243372Y-21419087D01*
X2252896Y-21438134D01*
X2252896Y-21542896D01*
X2252896Y-21438134D02*
X2262420Y-21419087D01*
X2281468Y-21409563D01*
X2310039Y-21409563D01*
X2329087Y-21419087D01*
X2338610Y-21438134D01*
X2338610Y-21542896D01*
X2433849Y-21542896D02*
X2433849Y-21409563D01*
X2433849Y-21428610D02*
X2443372Y-21419087D01*
X2462420Y-21409563D01*
X2490991Y-21409563D01*
X2510039Y-21419087D01*
X2519563Y-21438134D01*
X2519563Y-21542896D01*
X2519563Y-21438134D02*
X2529087Y-21419087D01*
X2548134Y-21409563D01*
X2576706Y-21409563D01*
X2595753Y-21419087D01*
X2605277Y-21438134D01*
X2605277Y-21542896D01*
X2995753Y-21333372D02*
X2824325Y-21590515D01*
X3252896Y-21342896D02*
X3271944Y-21342896D01*
X3290991Y-21352420D01*
X3300515Y-21361944D01*
X3310039Y-21380991D01*
X3319563Y-21419087D01*
X3319563Y-21466706D01*
X3310039Y-21504801D01*
X3300515Y-21523849D01*
X3290991Y-21533372D01*
X3271944Y-21542896D01*
X3252896Y-21542896D01*
X3233848Y-21533372D01*
X3224325Y-21523849D01*
X3214801Y-21504801D01*
X3205277Y-21466706D01*
X3205277Y-21419087D01*
X3214801Y-21380991D01*
X3224325Y-21361944D01*
X3233848Y-21352420D01*
X3252896Y-21342896D01*
X3405277Y-21523849D02*
X3414801Y-21533372D01*
X3405277Y-21542896D01*
X3395753Y-21533372D01*
X3405277Y-21523849D01*
X3405277Y-21542896D01*
X3605277Y-21542896D02*
X3490991Y-21542896D01*
X3548134Y-21542896D02*
X3548134Y-21342896D01*
X3529087Y-21371468D01*
X3510039Y-21390515D01*
X3490991Y-21400039D01*
X3681468Y-21361944D02*
X3690991Y-21352420D01*
X3710039Y-21342896D01*
X3757658Y-21342896D01*
X3776706Y-21352420D01*
X3786229Y-21361944D01*
X3795753Y-21380991D01*
X3795753Y-21400039D01*
X3786229Y-21428610D01*
X3671944Y-21542896D01*
X3795753Y-21542896D01*
X3967182Y-21342896D02*
X3929087Y-21342896D01*
X3910039Y-21352420D01*
X3900515Y-21361944D01*
X3881468Y-21390515D01*
X3871944Y-21428610D01*
X3871944Y-21504801D01*
X3881468Y-21523849D01*
X3890991Y-21533372D01*
X3910039Y-21542896D01*
X3948134Y-21542896D01*
X3967182Y-21533372D01*
X3976706Y-21523849D01*
X3986229Y-21504801D01*
X3986229Y-21457182D01*
X3976706Y-21438134D01*
X3967182Y-21428610D01*
X3948134Y-21419087D01*
X3910039Y-21419087D01*
X3890991Y-21428610D01*
X3881468Y-21438134D01*
X3871944Y-21457182D01*
X4110039Y-21342896D02*
X4129087Y-21342896D01*
X4148134Y-21352420D01*
X4157658Y-21361944D01*
X4167182Y-21380991D01*
X4176706Y-21419087D01*
X4176706Y-21466706D01*
X4167182Y-21504801D01*
X4157658Y-21523849D01*
X4148134Y-21533372D01*
X4129087Y-21542896D01*
X4110039Y-21542896D01*
X4090991Y-21533372D01*
X4081468Y-21523849D01*
X4071944Y-21504801D01*
X4062420Y-21466706D01*
X4062420Y-21419087D01*
X4071944Y-21380991D01*
X4081468Y-21361944D01*
X4090991Y-21352420D01*
X4110039Y-21342896D01*
X4252896Y-21342896D02*
X4252896Y-21380991D01*
X4329087Y-21342896D02*
X4329087Y-21380991D01*
X4624325Y-21619087D02*
X4614801Y-21609563D01*
X4595753Y-21580991D01*
X4586230Y-21561944D01*
X4576706Y-21533372D01*
X4567182Y-21485753D01*
X4567182Y-21447658D01*
X4576706Y-21400039D01*
X4586230Y-21371468D01*
X4595753Y-21352420D01*
X4614801Y-21323849D01*
X4624325Y-21314325D01*
X4690991Y-21361944D02*
X4700515Y-21352420D01*
X4719563Y-21342896D01*
X4767182Y-21342896D01*
X4786230Y-21352420D01*
X4795753Y-21361944D01*
X4805277Y-21380991D01*
X4805277Y-21400039D01*
X4795753Y-21428610D01*
X4681468Y-21542896D01*
X4805277Y-21542896D01*
X4929087Y-21342896D02*
X4948134Y-21342896D01*
X4967182Y-21352420D01*
X4976706Y-21361944D01*
X4986230Y-21380991D01*
X4995753Y-21419087D01*
X4995753Y-21466706D01*
X4986230Y-21504801D01*
X4976706Y-21523849D01*
X4967182Y-21533372D01*
X4948134Y-21542896D01*
X4929087Y-21542896D01*
X4910039Y-21533372D01*
X4900515Y-21523849D01*
X4890991Y-21504801D01*
X4881468Y-21466706D01*
X4881468Y-21419087D01*
X4890991Y-21380991D01*
X4900515Y-21361944D01*
X4910039Y-21352420D01*
X4929087Y-21342896D01*
X5233849Y-21542896D02*
X5233849Y-21342896D01*
X5319563Y-21542896D02*
X5319563Y-21438134D01*
X5310039Y-21419087D01*
X5290991Y-21409563D01*
X5262420Y-21409563D01*
X5243372Y-21419087D01*
X5233849Y-21428610D01*
X5443372Y-21542896D02*
X5424325Y-21533372D01*
X5414801Y-21523849D01*
X5405277Y-21504801D01*
X5405277Y-21447658D01*
X5414801Y-21428610D01*
X5424325Y-21419087D01*
X5443372Y-21409563D01*
X5471944Y-21409563D01*
X5490991Y-21419087D01*
X5500515Y-21428610D01*
X5510039Y-21447658D01*
X5510039Y-21504801D01*
X5500515Y-21523849D01*
X5490991Y-21533372D01*
X5471944Y-21542896D01*
X5443372Y-21542896D01*
X5624325Y-21542896D02*
X5605277Y-21533372D01*
X5595753Y-21514325D01*
X5595753Y-21342896D01*
X5776706Y-21533372D02*
X5757658Y-21542896D01*
X5719563Y-21542896D01*
X5700515Y-21533372D01*
X5690991Y-21514325D01*
X5690991Y-21438134D01*
X5700515Y-21419087D01*
X5719563Y-21409563D01*
X5757658Y-21409563D01*
X5776706Y-21419087D01*
X5786229Y-21438134D01*
X5786229Y-21457182D01*
X5690991Y-21476230D01*
X5862420Y-21533372D02*
X5881468Y-21542896D01*
X5919563Y-21542896D01*
X5938610Y-21533372D01*
X5948134Y-21514325D01*
X5948134Y-21504801D01*
X5938610Y-21485753D01*
X5919563Y-21476230D01*
X5890991Y-21476230D01*
X5871944Y-21466706D01*
X5862420Y-21447658D01*
X5862420Y-21438134D01*
X5871944Y-21419087D01*
X5890991Y-21409563D01*
X5919563Y-21409563D01*
X5938610Y-21419087D01*
X6014801Y-21619087D02*
X6024325Y-21609563D01*
X6043372Y-21580991D01*
X6052896Y-21561944D01*
X6062420Y-21533372D01*
X6071944Y-21485753D01*
X6071944Y-21447658D01*
X6062420Y-21400039D01*
X6052896Y-21371468D01*
X6043372Y-21352420D01*
X6024325Y-21323849D01*
X6014801Y-21314325D01*
X6376706Y-21619087D02*
X6367182Y-21609563D01*
X6348134Y-21580991D01*
X6338610Y-21561944D01*
X6329087Y-21533372D01*
X6319563Y-21485753D01*
X6319563Y-21447658D01*
X6329087Y-21400039D01*
X6338610Y-21371468D01*
X6348134Y-21352420D01*
X6367182Y-21323849D01*
X6376706Y-21314325D01*
X6452896Y-21409563D02*
X6452896Y-21542896D01*
X6452896Y-21428610D02*
X6462420Y-21419087D01*
X6481468Y-21409563D01*
X6510039Y-21409563D01*
X6529087Y-21419087D01*
X6538610Y-21438134D01*
X6538610Y-21542896D01*
X6662420Y-21542896D02*
X6643372Y-21533372D01*
X6633848Y-21523849D01*
X6624325Y-21504801D01*
X6624325Y-21447658D01*
X6633848Y-21428610D01*
X6643372Y-21419087D01*
X6662420Y-21409563D01*
X6690991Y-21409563D01*
X6710039Y-21419087D01*
X6719563Y-21428610D01*
X6729087Y-21447658D01*
X6729087Y-21504801D01*
X6719563Y-21523849D01*
X6710039Y-21533372D01*
X6690991Y-21542896D01*
X6662420Y-21542896D01*
X6786229Y-21409563D02*
X6862420Y-21409563D01*
X6814801Y-21342896D02*
X6814801Y-21514325D01*
X6824325Y-21533372D01*
X6843372Y-21542896D01*
X6862420Y-21542896D01*
X7081468Y-21409563D02*
X7081468Y-21609563D01*
X7081468Y-21419087D02*
X7100515Y-21409563D01*
X7138610Y-21409563D01*
X7157658Y-21419087D01*
X7167182Y-21428610D01*
X7176706Y-21447658D01*
X7176706Y-21504801D01*
X7167182Y-21523849D01*
X7157658Y-21533372D01*
X7138610Y-21542896D01*
X7100515Y-21542896D01*
X7081468Y-21533372D01*
X7290991Y-21542896D02*
X7271944Y-21533372D01*
X7262420Y-21514325D01*
X7262420Y-21342896D01*
X7452896Y-21542896D02*
X7452896Y-21438134D01*
X7443372Y-21419087D01*
X7424325Y-21409563D01*
X7386229Y-21409563D01*
X7367182Y-21419087D01*
X7452896Y-21533372D02*
X7433848Y-21542896D01*
X7386229Y-21542896D01*
X7367182Y-21533372D01*
X7357658Y-21514325D01*
X7357658Y-21495277D01*
X7367182Y-21476230D01*
X7386229Y-21466706D01*
X7433848Y-21466706D01*
X7452896Y-21457182D01*
X7519563Y-21409563D02*
X7595753Y-21409563D01*
X7548134Y-21342896D02*
X7548134Y-21514325D01*
X7557658Y-21533372D01*
X7576706Y-21542896D01*
X7595753Y-21542896D01*
X7738610Y-21533372D02*
X7719563Y-21542896D01*
X7681468Y-21542896D01*
X7662420Y-21533372D01*
X7652896Y-21514325D01*
X7652896Y-21438134D01*
X7662420Y-21419087D01*
X7681468Y-21409563D01*
X7719563Y-21409563D01*
X7738610Y-21419087D01*
X7748134Y-21438134D01*
X7748134Y-21457182D01*
X7652896Y-21476230D01*
X7919563Y-21542896D02*
X7919563Y-21342896D01*
X7919563Y-21533372D02*
X7900515Y-21542896D01*
X7862420Y-21542896D01*
X7843372Y-21533372D01*
X7833848Y-21523849D01*
X7824325Y-21504801D01*
X7824325Y-21447658D01*
X7833848Y-21428610D01*
X7843372Y-21419087D01*
X7862420Y-21409563D01*
X7900515Y-21409563D01*
X7919563Y-21419087D01*
X7995753Y-21619087D02*
X8005277Y-21609563D01*
X8024325Y-21580991D01*
X8033848Y-21561944D01*
X8043372Y-21533372D01*
X8052896Y-21485753D01*
X8052896Y-21447658D01*
X8043372Y-21400039D01*
X8033848Y-21371468D01*
X8024325Y-21352420D01*
X8005277Y-21323849D01*
X7995753Y-21314325D01*
M02*
