%TF.GenerationSoftware,KiCad,Pcbnew,(6.0.0)*%
%TF.CreationDate,2022-03-05T23:14:33-05:00*%
%TF.ProjectId,custom_keyboard plate v3 bottom - map,63757374-6f6d-45f6-9b65-79626f617264,rev?*%
%TF.SameCoordinates,Original*%
%TF.FileFunction,Soldermask,Top*%
%TF.FilePolarity,Negative*%
%FSLAX46Y46*%
G04 Gerber Fmt 4.6, Leading zero omitted, Abs format (unit mm)*
G04 Created by KiCad (PCBNEW (6.0.0)) date 2022-03-05 23:14:33*
%MOMM*%
%LPD*%
G01*
G04 APERTURE LIST*
%ADD10C,3.200000*%
%ADD11C,2.500000*%
%ADD12C,2.200000*%
G04 APERTURE END LIST*
D10*
%TO.C,M3*%
X193755500Y-62726700D03*
%TD*%
%TO.C,M3*%
X14592700Y-197655700D03*
%TD*%
D11*
%TO.C,M2.5*%
X268255500Y-81945200D03*
%TD*%
D10*
%TO.C,M3*%
X154755500Y-62726700D03*
%TD*%
D11*
%TO.C,M2.5*%
X91255500Y-69945200D03*
%TD*%
D10*
%TO.C,M3*%
X298737300Y-62726700D03*
%TD*%
D11*
%TO.C,M2.5*%
X148255500Y-69945200D03*
%TD*%
D10*
%TO.C,M3*%
X401918300Y-62726700D03*
%TD*%
D11*
%TO.C,M2.5*%
X194255500Y-69945200D03*
%TD*%
D10*
%TO.C,M3*%
X355255500Y-62726700D03*
%TD*%
D11*
%TO.C,M2.5*%
X91255500Y-81945200D03*
%TD*%
%TO.C,M2.5*%
X394699800Y-90663700D03*
%TD*%
D12*
%TO.C,M2*%
X215255500Y-68945200D03*
%TD*%
D11*
%TO.C,M2.5*%
X222255500Y-69945200D03*
%TD*%
%TO.C,M2.5*%
X194255500Y-101945200D03*
%TD*%
%TO.C,M2.5*%
X349255500Y-69945200D03*
%TD*%
%TO.C,M2.5*%
X124255500Y-69945200D03*
%TD*%
D10*
%TO.C,M3*%
X117755500Y-197655700D03*
%TD*%
D11*
%TO.C,M2.5*%
X67255500Y-81945200D03*
%TD*%
D10*
%TO.C,M3*%
X14529700Y-121163700D03*
%TD*%
D11*
%TO.C,M2.5*%
X235255500Y-69945200D03*
%TD*%
%TO.C,M2.5*%
X33811201Y-90663700D03*
%TD*%
%TO.C,M2.5*%
X21811201Y-114663700D03*
%TD*%
D12*
%TO.C,M2*%
X201255500Y-68945200D03*
%TD*%
D11*
%TO.C,M2.5*%
X325255500Y-81945200D03*
%TD*%
D12*
%TO.C,M2*%
X215255500Y-81445200D03*
%TD*%
D11*
%TO.C,M2.5*%
X235255500Y-101945200D03*
%TD*%
D10*
%TO.C,M3*%
X401918300Y-197655700D03*
%TD*%
%TO.C,M3*%
X117773700Y-62726700D03*
%TD*%
D11*
%TO.C,M2.5*%
X67255500Y-69945200D03*
%TD*%
D10*
%TO.C,M3*%
X97755500Y-62726700D03*
%TD*%
%TO.C,M3*%
X261755500Y-62726700D03*
%TD*%
D11*
%TO.C,M2.5*%
X148255500Y-81945200D03*
%TD*%
D10*
%TO.C,M3*%
X401918300Y-121163700D03*
%TD*%
D11*
%TO.C,M2.5*%
X292255500Y-81945200D03*
%TD*%
%TO.C,M2.5*%
X325255500Y-69945200D03*
%TD*%
D10*
%TO.C,M3*%
X14592700Y-62726700D03*
%TD*%
D11*
%TO.C,M2.5*%
X21811201Y-90663700D03*
%TD*%
D10*
%TO.C,M3*%
X222755500Y-62726700D03*
%TD*%
D11*
%TO.C,M2.5*%
X33811201Y-114663700D03*
%TD*%
%TO.C,M2.5*%
X268255500Y-69945200D03*
%TD*%
%TO.C,M2.5*%
X181255500Y-101945200D03*
%TD*%
D10*
%TO.C,M3*%
X61255500Y-62726700D03*
%TD*%
%TO.C,M3*%
X401918300Y-84156600D03*
%TD*%
D11*
%TO.C,M2.5*%
X382699800Y-90663700D03*
%TD*%
%TO.C,M2.5*%
X382699800Y-114663700D03*
%TD*%
D10*
%TO.C,M3*%
X14561200Y-84163700D03*
%TD*%
%TO.C,M3*%
X298755500Y-197655700D03*
%TD*%
D11*
%TO.C,M2.5*%
X292255500Y-69945200D03*
%TD*%
%TO.C,M2.5*%
X181255500Y-69945200D03*
%TD*%
%TO.C,M2.5*%
X222255500Y-101945200D03*
%TD*%
D10*
%TO.C,M3*%
X318755500Y-62726700D03*
%TD*%
D11*
%TO.C,M2.5*%
X124255500Y-81945200D03*
%TD*%
D12*
%TO.C,M2*%
X201255500Y-81445200D03*
%TD*%
D11*
%TO.C,M2.5*%
X394699800Y-114663700D03*
%TD*%
%TO.C,M2.5*%
X349255500Y-81945200D03*
%TD*%
M02*
