%TF.GenerationSoftware,KiCad,Pcbnew,(6.0.0)*%
%TF.CreationDate,2022-03-05T22:59:55-05:00*%
%TF.ProjectId,custom_keyboard plate v3 bottom - map,63757374-6f6d-45f6-9b65-79626f617264,rev?*%
%TF.SameCoordinates,Original*%
%TF.FileFunction,Copper,L2,Bot*%
%TF.FilePolarity,Positive*%
%FSLAX46Y46*%
G04 Gerber Fmt 4.6, Leading zero omitted, Abs format (unit mm)*
G04 Created by KiCad (PCBNEW (6.0.0)) date 2022-03-05 22:59:55*
%MOMM*%
%LPD*%
G01*
G04 APERTURE LIST*
%TA.AperFunction,NonConductor*%
%ADD10C,0.200000*%
%TD*%
%ADD11C,0.200000*%
G04 APERTURE END LIST*
D10*
X300812300Y-206362000D02*
X297637500Y-207949400D01*
X36679900Y-101132200D02*
X24679900Y-101132200D01*
X396850000Y-206362000D02*
G75*
G03*
X400024800Y-203187200I1J3174799D01*
G01*
X184124200Y-118413700D02*
X238124200Y-118413700D01*
X67124200Y-83413700D02*
X67124200Y-95413700D01*
X94124200Y-98413700D02*
G75*
G03*
X97124200Y-95413700I-1J3000001D01*
G01*
X94124200Y-80413700D02*
X70124200Y-80413700D01*
X271124200Y-80413700D02*
G75*
G03*
X268124200Y-83413700I1J-3000001D01*
G01*
X113874200Y-171726700D02*
X113874200Y-122726700D01*
X36679900Y-131132200D02*
G75*
G03*
X39679900Y-128132200I-1J3000001D01*
G01*
X124124200Y-83413700D02*
X124124200Y-95413700D01*
X24679900Y-101132200D02*
G75*
G03*
X21679900Y-104132200I1J-3000001D01*
G01*
X176201400Y-79370000D02*
X176201400Y-72726700D01*
X288113100Y-206362000D02*
X300812300Y-206362000D01*
X120272009Y-114286650D02*
X120272009Y-138286650D01*
X154124200Y-83413700D02*
G75*
G03*
X151124200Y-80413700I-3000001J-1D01*
G01*
X318716309Y-92568150D02*
G75*
G03*
X316716309Y-90568150I-1999999J1D01*
G01*
X24679900Y-131132200D02*
X36679900Y-131132200D01*
X48624200Y-171726700D02*
X55124200Y-171726700D01*
X116898360Y-10900135D02*
X139624160Y-10900135D01*
X295124200Y-98413700D02*
G75*
G03*
X298124200Y-95413700I-1J3000001D01*
G01*
X75124200Y-86913700D02*
X89124200Y-86913700D01*
X89124200Y-86913700D02*
X89124200Y-72913700D01*
X89124200Y-72913700D02*
X75124200Y-72913700D01*
X75124200Y-72913700D02*
X75124200Y-86913700D01*
X314874200Y-171726700D02*
X314874200Y-122726700D01*
X308374200Y-122726700D02*
X308374200Y-171726700D01*
X48624200Y-122726700D02*
X48624200Y-171726700D01*
X202124200Y-94913700D02*
G75*
G03*
X204124200Y-96913700I1999999J-1D01*
G01*
X200806100Y-206362000D02*
X197631300Y-207949400D01*
X394068499Y-109132200D02*
X408068499Y-109132200D01*
X408068499Y-109132200D02*
X408068499Y-123132200D01*
X408068499Y-123132200D02*
X394068499Y-123132200D01*
X394068499Y-123132200D02*
X394068499Y-109132200D01*
X367124200Y-122726700D02*
X367124200Y-171726700D01*
X97124200Y-83413700D02*
G75*
G03*
X94124200Y-80413700I-3000001J-1D01*
G01*
X194124200Y-115413700D02*
G75*
G03*
X197124200Y-118413700I3000001J1D01*
G01*
X268124200Y-95413700D02*
G75*
G03*
X271124200Y-98413700I3000001J1D01*
G01*
X220124200Y-94913700D02*
X220124200Y-82413700D01*
X70124200Y-80413700D02*
G75*
G03*
X67124200Y-83413700I1J-3000001D01*
G01*
X21679900Y-128132200D02*
G75*
G03*
X24679900Y-131132200I3000001J1D01*
G01*
X127124200Y-98413700D02*
X151124200Y-98413700D01*
X373624200Y-171726700D02*
X373624200Y-122726700D01*
X154124200Y-95413700D02*
X154124200Y-83413700D01*
X168716309Y-108568150D02*
X192716309Y-108568150D01*
X399874160Y-101669435D02*
X406374160Y-101669435D01*
X352124200Y-80413700D02*
X328124200Y-80413700D01*
X268124200Y-83413700D02*
X268124200Y-95413700D01*
X288113100Y-206362000D02*
X200806100Y-206362000D01*
X202124200Y-82413700D02*
X202124200Y-94913700D01*
X458624160Y-101669435D02*
X465124160Y-101669435D01*
X163502200Y-80957400D02*
G75*
G03*
X165089600Y-79370000I-1J1587401D01*
G01*
X204124200Y-96913700D02*
X218124200Y-96913700D01*
X195716309Y-105568150D02*
X195716309Y-93568150D01*
X25398400Y-80957400D02*
G75*
G03*
X22223600Y-84132200I-1J-3174799D01*
G01*
X188106900Y-206362000D02*
X191281700Y-207949400D01*
X385568499Y-101132200D02*
G75*
G03*
X382568499Y-104132200I1J-3000001D01*
G01*
X184124200Y-80413700D02*
G75*
G03*
X181124200Y-83413700I1J-3000001D01*
G01*
X70124200Y-98413700D02*
X94124200Y-98413700D01*
X400024800Y-84132200D02*
X400024800Y-203187200D01*
X39679900Y-104132200D02*
G75*
G03*
X36679900Y-101132200I-3000001J-1D01*
G01*
X132124200Y-86913700D02*
X146124200Y-86913700D01*
X146124200Y-86913700D02*
X146124200Y-72913700D01*
X146124200Y-72913700D02*
X132124200Y-72913700D01*
X132124200Y-72913700D02*
X132124200Y-86913700D01*
X325124200Y-95413700D02*
G75*
G03*
X328124200Y-98413700I3000001J1D01*
G01*
X67124200Y-95413700D02*
G75*
G03*
X70124200Y-98413700I3000001J1D01*
G01*
X484160608Y-141286650D02*
X496160608Y-141286650D01*
X302716309Y-107068150D02*
X316716309Y-107068150D01*
X295124200Y-80413700D02*
X271124200Y-80413700D01*
X21679900Y-104132200D02*
X21679900Y-128132200D01*
X325124200Y-83413700D02*
X325124200Y-95413700D01*
X333124200Y-72913700D02*
X347124200Y-72913700D01*
X347124200Y-72913700D02*
X347124200Y-86913700D01*
X347124200Y-86913700D02*
X333124200Y-86913700D01*
X333124200Y-86913700D02*
X333124200Y-72913700D01*
X198874160Y-101669435D02*
X205374160Y-101669435D01*
X382568499Y-128132200D02*
G75*
G03*
X385568499Y-131132200I3000001J1D01*
G01*
X188106900Y-206362000D02*
X25398400Y-206362000D01*
X385568499Y-131132200D02*
X397568499Y-131132200D01*
X291287900Y-207949400D02*
X297637500Y-207949400D01*
X288113100Y-206362000D02*
X291287900Y-207949400D01*
X188106900Y-206362000D02*
X200806100Y-206362000D01*
X39679900Y-128132200D02*
X39679900Y-104132200D01*
X124124200Y-95413700D02*
G75*
G03*
X127124200Y-98413700I3000001J1D01*
G01*
X225716309Y-108568150D02*
X249716309Y-108568150D01*
X22223600Y-203187200D02*
G75*
G03*
X25398400Y-206362000I3174799J-1D01*
G01*
X151124200Y-80413700D02*
X127124200Y-80413700D01*
X197124200Y-80413700D02*
G75*
G03*
X194124200Y-83413700I1J-3000001D01*
G01*
X55124200Y-171726700D02*
X55124200Y-122726700D01*
X181124200Y-83413700D02*
X181124200Y-115413700D01*
X366624200Y-80957400D02*
X315374200Y-80957400D01*
X355124200Y-83413700D02*
G75*
G03*
X352124200Y-80413700I-3000001J-1D01*
G01*
X307874200Y-80957400D02*
X177788800Y-80957400D01*
X218124200Y-96913700D02*
G75*
G03*
X220124200Y-94913700I1J1999999D01*
G01*
X298124200Y-83413700D02*
G75*
G03*
X295124200Y-80413700I-3000001J-1D01*
G01*
X400024800Y-84132200D02*
G75*
G03*
X396850000Y-80957400I-3174799J1D01*
G01*
X138272009Y-114286650D02*
G75*
G03*
X135272009Y-111286650I-3000001J-1D01*
G01*
X220124200Y-82413700D02*
G75*
G03*
X218124200Y-80413700I-1999999J1D01*
G01*
X271124200Y-98413700D02*
X295124200Y-98413700D01*
X181124200Y-115413700D02*
G75*
G03*
X184124200Y-118413700I3000001J1D01*
G01*
X194124200Y-83413700D02*
X194124200Y-115413700D01*
X228124200Y-83413700D02*
G75*
G03*
X225124200Y-80413700I-3000001J-1D01*
G01*
X204124200Y-80413700D02*
G75*
G03*
X202124200Y-82413700I-1J-1999999D01*
G01*
X225124200Y-118413700D02*
G75*
G03*
X228124200Y-115413700I-1J3000001D01*
G01*
X138272009Y-138286650D02*
X138272009Y-114286650D01*
X241124200Y-115413700D02*
X241124200Y-83413700D01*
X238124200Y-118413700D02*
G75*
G03*
X241124200Y-115413700I-1J3000001D01*
G01*
X352124200Y-98413700D02*
G75*
G03*
X355124200Y-95413700I-1J3000001D01*
G01*
X397568499Y-101132200D02*
X385568499Y-101132200D01*
X396850000Y-206362000D02*
X300812300Y-206362000D01*
X176201400Y-79370000D02*
G75*
G03*
X177788800Y-80957400I1587401J1D01*
G01*
X241124200Y-83413700D02*
G75*
G03*
X238124200Y-80413700I-3000001J-1D01*
G01*
X328124200Y-80413700D02*
G75*
G03*
X325124200Y-83413700I1J-3000001D01*
G01*
X28179900Y-123132200D02*
X14179900Y-123132200D01*
X14179900Y-123132200D02*
X14179900Y-109132200D01*
X14179900Y-109132200D02*
X28179900Y-109132200D01*
X28179900Y-109132200D02*
X28179900Y-123132200D01*
X400568499Y-128132200D02*
X400568499Y-104132200D01*
X400568499Y-104132200D02*
G75*
G03*
X397568499Y-101132200I-3000001J-1D01*
G01*
X97124200Y-95413700D02*
X97124200Y-83413700D01*
X496160608Y-141286650D02*
G75*
G03*
X499160608Y-138286650I-1J3000001D01*
G01*
X195716309Y-93568150D02*
G75*
G03*
X192716309Y-90568150I-3000001J-1D01*
G01*
X151124200Y-98413700D02*
G75*
G03*
X154124200Y-95413700I-1J3000001D01*
G01*
X374124200Y-80957400D02*
X396850000Y-80957400D01*
X382568499Y-104132200D02*
X382568499Y-128132200D01*
X222716309Y-105568150D02*
G75*
G03*
X225716309Y-108568150I3000001J1D01*
G01*
X191281700Y-207949400D02*
X197631300Y-207949400D01*
X355124200Y-95413700D02*
X355124200Y-83413700D01*
X397568499Y-131132200D02*
G75*
G03*
X400568499Y-128132200I-1J3000001D01*
G01*
X238124200Y-80413700D02*
X184124200Y-80413700D01*
X192716309Y-90568150D02*
X168716309Y-90568150D01*
X127124200Y-80413700D02*
G75*
G03*
X124124200Y-83413700I1J-3000001D01*
G01*
X165089600Y-79370000D02*
X165089600Y-72726700D01*
X107374200Y-122726700D02*
X107374200Y-171726700D01*
X298124200Y-95413700D02*
X298124200Y-83413700D01*
X228124200Y-115413700D02*
X228124200Y-83413700D01*
X328124200Y-98413700D02*
X352124200Y-98413700D01*
X499160608Y-114286650D02*
G75*
G03*
X496160608Y-111286650I-3000001J-1D01*
G01*
X276124200Y-72913700D02*
X290124200Y-72913700D01*
X290124200Y-72913700D02*
X290124200Y-86913700D01*
X290124200Y-86913700D02*
X276124200Y-86913700D01*
X276124200Y-86913700D02*
X276124200Y-72913700D01*
X22223600Y-203187200D02*
X22223600Y-84132200D01*
D11*
D10*
X384116118Y-119084580D02*
X383306594Y-119084580D01*
X383211356Y-119036961D01*
X383163737Y-118989342D01*
X383116118Y-118894104D01*
X383116118Y-118703628D01*
X383163737Y-118608390D01*
X383211356Y-118560771D01*
X383306594Y-118513152D01*
X384116118Y-118513152D01*
X383163737Y-118084580D02*
X383116118Y-117941723D01*
X383116118Y-117703628D01*
X383163737Y-117608390D01*
X383211356Y-117560771D01*
X383306594Y-117513152D01*
X383401832Y-117513152D01*
X383497070Y-117560771D01*
X383544689Y-117608390D01*
X383592308Y-117703628D01*
X383639927Y-117894104D01*
X383687546Y-117989342D01*
X383735165Y-118036961D01*
X383830403Y-118084580D01*
X383925641Y-118084580D01*
X384020879Y-118036961D01*
X384068499Y-117989342D01*
X384116118Y-117894104D01*
X384116118Y-117656009D01*
X384068499Y-117513152D01*
X383639927Y-116751247D02*
X383592308Y-116608390D01*
X383544689Y-116560771D01*
X383449451Y-116513152D01*
X383306594Y-116513152D01*
X383211356Y-116560771D01*
X383163737Y-116608390D01*
X383116118Y-116703628D01*
X383116118Y-117084580D01*
X384116118Y-117084580D01*
X384116118Y-116751247D01*
X384068499Y-116656009D01*
X384020879Y-116608390D01*
X383925641Y-116560771D01*
X383830403Y-116560771D01*
X383735165Y-116608390D01*
X383687546Y-116656009D01*
X383639927Y-116751247D01*
X383639927Y-117084580D01*
X383401832Y-115370295D02*
X383401832Y-114894104D01*
X383116118Y-115465533D02*
X384116118Y-115132200D01*
X383116118Y-114798866D01*
X383116118Y-113703628D02*
X384116118Y-113703628D01*
X384116118Y-113465533D01*
X384068499Y-113322676D01*
X383973260Y-113227438D01*
X383878022Y-113179819D01*
X383687546Y-113132200D01*
X383544689Y-113132200D01*
X383354213Y-113179819D01*
X383258975Y-113227438D01*
X383163737Y-113322676D01*
X383116118Y-113465533D01*
X383116118Y-113703628D01*
X383639927Y-112370295D02*
X383592308Y-112227438D01*
X383544689Y-112179819D01*
X383449451Y-112132200D01*
X383306594Y-112132200D01*
X383211356Y-112179819D01*
X383163737Y-112227438D01*
X383116118Y-112322676D01*
X383116118Y-112703628D01*
X384116118Y-112703628D01*
X384116118Y-112370295D01*
X384068499Y-112275057D01*
X384020879Y-112227438D01*
X383925641Y-112179819D01*
X383830403Y-112179819D01*
X383735165Y-112227438D01*
X383687546Y-112275057D01*
X383639927Y-112370295D01*
X383639927Y-112703628D01*
D11*
D10*
X182195628Y-100388252D02*
X182195628Y-100721585D01*
X181671819Y-100721585D02*
X182671819Y-100721585D01*
X182671819Y-100245394D01*
X182195628Y-99864442D02*
X182195628Y-99531109D01*
X181671819Y-99388252D02*
X181671819Y-99864442D01*
X182671819Y-99864442D01*
X182671819Y-99388252D01*
X182576580Y-99007299D02*
X182624200Y-98959680D01*
X182671819Y-98864442D01*
X182671819Y-98626347D01*
X182624200Y-98531109D01*
X182576580Y-98483490D01*
X182481342Y-98435871D01*
X182386104Y-98435871D01*
X182243247Y-98483490D01*
X181671819Y-99054918D01*
X181671819Y-98435871D01*
X181767057Y-98007299D02*
X181719438Y-97959680D01*
X181671819Y-98007299D01*
X181719438Y-98054918D01*
X181767057Y-98007299D01*
X181671819Y-98007299D01*
X181671819Y-97007299D02*
X181671819Y-97578728D01*
X181671819Y-97293013D02*
X182671819Y-97293013D01*
X182528961Y-97388252D01*
X182433723Y-97483490D01*
X182386104Y-97578728D01*
D11*
D10*
X142076580Y-96866080D02*
X142076580Y-97675604D01*
X142028961Y-97770842D01*
X141981342Y-97818461D01*
X141886104Y-97866080D01*
X141695628Y-97866080D01*
X141600390Y-97818461D01*
X141552771Y-97770842D01*
X141505152Y-97675604D01*
X141505152Y-96866080D01*
X141076580Y-97818461D02*
X140933723Y-97866080D01*
X140695628Y-97866080D01*
X140600390Y-97818461D01*
X140552771Y-97770842D01*
X140505152Y-97675604D01*
X140505152Y-97580366D01*
X140552771Y-97485128D01*
X140600390Y-97437509D01*
X140695628Y-97389890D01*
X140886104Y-97342271D01*
X140981342Y-97294652D01*
X141028961Y-97247033D01*
X141076580Y-97151795D01*
X141076580Y-97056557D01*
X141028961Y-96961319D01*
X140981342Y-96913700D01*
X140886104Y-96866080D01*
X140648009Y-96866080D01*
X140505152Y-96913700D01*
X139743247Y-97342271D02*
X139600390Y-97389890D01*
X139552771Y-97437509D01*
X139505152Y-97532747D01*
X139505152Y-97675604D01*
X139552771Y-97770842D01*
X139600390Y-97818461D01*
X139695628Y-97866080D01*
X140076580Y-97866080D01*
X140076580Y-96866080D01*
X139743247Y-96866080D01*
X139648009Y-96913700D01*
X139600390Y-96961319D01*
X139552771Y-97056557D01*
X139552771Y-97151795D01*
X139600390Y-97247033D01*
X139648009Y-97294652D01*
X139743247Y-97342271D01*
X140076580Y-97342271D01*
X138362295Y-97580366D02*
X137886104Y-97580366D01*
X138457533Y-97866080D02*
X138124200Y-96866080D01*
X137790866Y-97866080D01*
X136695628Y-97866080D02*
X136695628Y-96866080D01*
X136457533Y-96866080D01*
X136314676Y-96913700D01*
X136219438Y-97008938D01*
X136171819Y-97104176D01*
X136124200Y-97294652D01*
X136124200Y-97437509D01*
X136171819Y-97627985D01*
X136219438Y-97723223D01*
X136314676Y-97818461D01*
X136457533Y-97866080D01*
X136695628Y-97866080D01*
X135362295Y-97342271D02*
X135219438Y-97389890D01*
X135171819Y-97437509D01*
X135124200Y-97532747D01*
X135124200Y-97675604D01*
X135171819Y-97770842D01*
X135219438Y-97818461D01*
X135314676Y-97866080D01*
X135695628Y-97866080D01*
X135695628Y-96866080D01*
X135362295Y-96866080D01*
X135267057Y-96913700D01*
X135219438Y-96961319D01*
X135171819Y-97056557D01*
X135171819Y-97151795D01*
X135219438Y-97247033D01*
X135267057Y-97294652D01*
X135362295Y-97342271D01*
X135695628Y-97342271D01*
D11*
D10*
X136724389Y-123334269D02*
X137533913Y-123334269D01*
X137629151Y-123381888D01*
X137676770Y-123429507D01*
X137724389Y-123524745D01*
X137724389Y-123715221D01*
X137676770Y-123810459D01*
X137629151Y-123858078D01*
X137533913Y-123905697D01*
X136724389Y-123905697D01*
X137676770Y-124334269D02*
X137724389Y-124477126D01*
X137724389Y-124715221D01*
X137676770Y-124810459D01*
X137629151Y-124858078D01*
X137533913Y-124905697D01*
X137438675Y-124905697D01*
X137343437Y-124858078D01*
X137295818Y-124810459D01*
X137248199Y-124715221D01*
X137200580Y-124524745D01*
X137152961Y-124429507D01*
X137105342Y-124381888D01*
X137010104Y-124334269D01*
X136914866Y-124334269D01*
X136819628Y-124381888D01*
X136772009Y-124429507D01*
X136724389Y-124524745D01*
X136724389Y-124762840D01*
X136772009Y-124905697D01*
X137200580Y-125667602D02*
X137248199Y-125810459D01*
X137295818Y-125858078D01*
X137391056Y-125905697D01*
X137533913Y-125905697D01*
X137629151Y-125858078D01*
X137676770Y-125810459D01*
X137724389Y-125715221D01*
X137724389Y-125334269D01*
X136724389Y-125334269D01*
X136724389Y-125667602D01*
X136772009Y-125762840D01*
X136819628Y-125810459D01*
X136914866Y-125858078D01*
X137010104Y-125858078D01*
X137105342Y-125810459D01*
X137152961Y-125762840D01*
X137200580Y-125667602D01*
X137200580Y-125334269D01*
X137438675Y-127048554D02*
X137438675Y-127524745D01*
X137724389Y-126953316D02*
X136724389Y-127286650D01*
X137724389Y-127619983D01*
X137724389Y-128715221D02*
X136724389Y-128715221D01*
X136724389Y-128953316D01*
X136772009Y-129096173D01*
X136867247Y-129191411D01*
X136962485Y-129239030D01*
X137152961Y-129286650D01*
X137295818Y-129286650D01*
X137486294Y-129239030D01*
X137581532Y-129191411D01*
X137676770Y-129096173D01*
X137724389Y-128953316D01*
X137724389Y-128715221D01*
X137200580Y-130048554D02*
X137248199Y-130191411D01*
X137295818Y-130239030D01*
X137391056Y-130286650D01*
X137533913Y-130286650D01*
X137629151Y-130239030D01*
X137676770Y-130191411D01*
X137724389Y-130096173D01*
X137724389Y-129715221D01*
X136724389Y-129715221D01*
X136724389Y-130048554D01*
X136772009Y-130143792D01*
X136819628Y-130191411D01*
X136914866Y-130239030D01*
X137010104Y-130239030D01*
X137105342Y-130191411D01*
X137152961Y-130143792D01*
X137200580Y-130048554D01*
X137200580Y-129715221D01*
D11*
D10*
X38132280Y-113179819D02*
X38941804Y-113179819D01*
X39037042Y-113227438D01*
X39084661Y-113275057D01*
X39132280Y-113370295D01*
X39132280Y-113560771D01*
X39084661Y-113656009D01*
X39037042Y-113703628D01*
X38941804Y-113751247D01*
X38132280Y-113751247D01*
X39084661Y-114179819D02*
X39132280Y-114322676D01*
X39132280Y-114560771D01*
X39084661Y-114656009D01*
X39037042Y-114703628D01*
X38941804Y-114751247D01*
X38846566Y-114751247D01*
X38751328Y-114703628D01*
X38703709Y-114656009D01*
X38656090Y-114560771D01*
X38608471Y-114370295D01*
X38560852Y-114275057D01*
X38513233Y-114227438D01*
X38417995Y-114179819D01*
X38322757Y-114179819D01*
X38227519Y-114227438D01*
X38179900Y-114275057D01*
X38132280Y-114370295D01*
X38132280Y-114608390D01*
X38179900Y-114751247D01*
X38608471Y-115513152D02*
X38656090Y-115656009D01*
X38703709Y-115703628D01*
X38798947Y-115751247D01*
X38941804Y-115751247D01*
X39037042Y-115703628D01*
X39084661Y-115656009D01*
X39132280Y-115560771D01*
X39132280Y-115179819D01*
X38132280Y-115179819D01*
X38132280Y-115513152D01*
X38179900Y-115608390D01*
X38227519Y-115656009D01*
X38322757Y-115703628D01*
X38417995Y-115703628D01*
X38513233Y-115656009D01*
X38560852Y-115608390D01*
X38608471Y-115513152D01*
X38608471Y-115179819D01*
X38846566Y-116894104D02*
X38846566Y-117370295D01*
X39132280Y-116798866D02*
X38132280Y-117132200D01*
X39132280Y-117465533D01*
X39132280Y-118560771D02*
X38132280Y-118560771D01*
X38132280Y-118798866D01*
X38179900Y-118941723D01*
X38275138Y-119036961D01*
X38370376Y-119084580D01*
X38560852Y-119132200D01*
X38703709Y-119132200D01*
X38894185Y-119084580D01*
X38989423Y-119036961D01*
X39084661Y-118941723D01*
X39132280Y-118798866D01*
X39132280Y-118560771D01*
X38608471Y-119894104D02*
X38656090Y-120036961D01*
X38703709Y-120084580D01*
X38798947Y-120132200D01*
X38941804Y-120132200D01*
X39037042Y-120084580D01*
X39084661Y-120036961D01*
X39132280Y-119941723D01*
X39132280Y-119560771D01*
X38132280Y-119560771D01*
X38132280Y-119894104D01*
X38179900Y-119989342D01*
X38227519Y-120036961D01*
X38322757Y-120084580D01*
X38417995Y-120084580D01*
X38513233Y-120036961D01*
X38560852Y-119989342D01*
X38608471Y-119894104D01*
X38608471Y-119560771D01*
D11*
D10*
X287076580Y-96866080D02*
X287076580Y-97675604D01*
X287028961Y-97770842D01*
X286981342Y-97818461D01*
X286886104Y-97866080D01*
X286695628Y-97866080D01*
X286600390Y-97818461D01*
X286552771Y-97770842D01*
X286505152Y-97675604D01*
X286505152Y-96866080D01*
X286076580Y-97818461D02*
X285933723Y-97866080D01*
X285695628Y-97866080D01*
X285600390Y-97818461D01*
X285552771Y-97770842D01*
X285505152Y-97675604D01*
X285505152Y-97580366D01*
X285552771Y-97485128D01*
X285600390Y-97437509D01*
X285695628Y-97389890D01*
X285886104Y-97342271D01*
X285981342Y-97294652D01*
X286028961Y-97247033D01*
X286076580Y-97151795D01*
X286076580Y-97056557D01*
X286028961Y-96961319D01*
X285981342Y-96913700D01*
X285886104Y-96866080D01*
X285648009Y-96866080D01*
X285505152Y-96913700D01*
X284743247Y-97342271D02*
X284600390Y-97389890D01*
X284552771Y-97437509D01*
X284505152Y-97532747D01*
X284505152Y-97675604D01*
X284552771Y-97770842D01*
X284600390Y-97818461D01*
X284695628Y-97866080D01*
X285076580Y-97866080D01*
X285076580Y-96866080D01*
X284743247Y-96866080D01*
X284648009Y-96913700D01*
X284600390Y-96961319D01*
X284552771Y-97056557D01*
X284552771Y-97151795D01*
X284600390Y-97247033D01*
X284648009Y-97294652D01*
X284743247Y-97342271D01*
X285076580Y-97342271D01*
X283362295Y-97580366D02*
X282886104Y-97580366D01*
X283457533Y-97866080D02*
X283124200Y-96866080D01*
X282790866Y-97866080D01*
X281695628Y-97866080D02*
X281695628Y-96866080D01*
X281457533Y-96866080D01*
X281314676Y-96913700D01*
X281219438Y-97008938D01*
X281171819Y-97104176D01*
X281124200Y-97294652D01*
X281124200Y-97437509D01*
X281171819Y-97627985D01*
X281219438Y-97723223D01*
X281314676Y-97818461D01*
X281457533Y-97866080D01*
X281695628Y-97866080D01*
X280362295Y-97342271D02*
X280219438Y-97389890D01*
X280171819Y-97437509D01*
X280124200Y-97532747D01*
X280124200Y-97675604D01*
X280171819Y-97770842D01*
X280219438Y-97818461D01*
X280314676Y-97866080D01*
X280695628Y-97866080D01*
X280695628Y-96866080D01*
X280362295Y-96866080D01*
X280267057Y-96913700D01*
X280219438Y-96961319D01*
X280171819Y-97056557D01*
X280171819Y-97151795D01*
X280219438Y-97247033D01*
X280267057Y-97294652D01*
X280362295Y-97342271D01*
X280695628Y-97342271D01*
D11*
D10*
X195194595Y-205679080D02*
X195194595Y-204679080D01*
X194813642Y-204679080D01*
X194718404Y-204726700D01*
X194670785Y-204774319D01*
X194623166Y-204869557D01*
X194623166Y-205012414D01*
X194670785Y-205107652D01*
X194718404Y-205155271D01*
X194813642Y-205202890D01*
X195194595Y-205202890D01*
X194289833Y-204679080D02*
X193670785Y-204679080D01*
X194004119Y-205060033D01*
X193861261Y-205060033D01*
X193766023Y-205107652D01*
X193718404Y-205155271D01*
X193670785Y-205250509D01*
X193670785Y-205488604D01*
X193718404Y-205583842D01*
X193766023Y-205631461D01*
X193861261Y-205679080D01*
X194146976Y-205679080D01*
X194242214Y-205631461D01*
X194289833Y-205583842D01*
D11*
D10*
X212659914Y-95366080D02*
X212659914Y-96175604D01*
X212612295Y-96270842D01*
X212564676Y-96318461D01*
X212469438Y-96366080D01*
X212278961Y-96366080D01*
X212183723Y-96318461D01*
X212136104Y-96270842D01*
X212088485Y-96175604D01*
X212088485Y-95366080D01*
X211612295Y-96366080D02*
X211612295Y-95366080D01*
X211374200Y-95366080D01*
X211231342Y-95413700D01*
X211136104Y-95508938D01*
X211088485Y-95604176D01*
X211040866Y-95794652D01*
X211040866Y-95937509D01*
X211088485Y-96127985D01*
X211136104Y-96223223D01*
X211231342Y-96318461D01*
X211374200Y-96366080D01*
X211612295Y-96366080D01*
X210278961Y-95842271D02*
X210136104Y-95889890D01*
X210088485Y-95937509D01*
X210040866Y-96032747D01*
X210040866Y-96175604D01*
X210088485Y-96270842D01*
X210136104Y-96318461D01*
X210231342Y-96366080D01*
X210612295Y-96366080D01*
X210612295Y-95366080D01*
X210278961Y-95366080D01*
X210183723Y-95413700D01*
X210136104Y-95461319D01*
X210088485Y-95556557D01*
X210088485Y-95651795D01*
X210136104Y-95747033D01*
X210183723Y-95794652D01*
X210278961Y-95842271D01*
X210612295Y-95842271D01*
D11*
D10*
X195194595Y-209679080D02*
X195194595Y-208679080D01*
X194813642Y-208679080D01*
X194718404Y-208726700D01*
X194670785Y-208774319D01*
X194623166Y-208869557D01*
X194623166Y-209012414D01*
X194670785Y-209107652D01*
X194718404Y-209155271D01*
X194813642Y-209202890D01*
X195194595Y-209202890D01*
X194242214Y-208774319D02*
X194194595Y-208726700D01*
X194099357Y-208679080D01*
X193861261Y-208679080D01*
X193766023Y-208726700D01*
X193718404Y-208774319D01*
X193670785Y-208869557D01*
X193670785Y-208964795D01*
X193718404Y-209107652D01*
X194289833Y-209679080D01*
X193670785Y-209679080D01*
D11*
D10*
X239576580Y-96626347D02*
X239576580Y-97293013D01*
X240576580Y-96864442D01*
X240576580Y-98435871D02*
X239576580Y-98435871D01*
X239576580Y-98816823D01*
X239624200Y-98912061D01*
X239671819Y-98959680D01*
X239767057Y-99007299D01*
X239909914Y-99007299D01*
X240005152Y-98959680D01*
X240052771Y-98912061D01*
X240100390Y-98816823D01*
X240100390Y-98435871D01*
X240576580Y-99578728D02*
X240528961Y-99483490D01*
X240481342Y-99435871D01*
X240386104Y-99388252D01*
X240100390Y-99388252D01*
X240005152Y-99435871D01*
X239957533Y-99483490D01*
X239909914Y-99578728D01*
X239909914Y-99721585D01*
X239957533Y-99816823D01*
X240005152Y-99864442D01*
X240100390Y-99912061D01*
X240386104Y-99912061D01*
X240481342Y-99864442D01*
X240528961Y-99816823D01*
X240576580Y-99721585D01*
X240576580Y-99578728D01*
X240576580Y-100340632D02*
X239909914Y-100340632D01*
X240100390Y-100340632D02*
X240005152Y-100388252D01*
X239957533Y-100435871D01*
X239909914Y-100531109D01*
X239909914Y-100626347D01*
X239909914Y-100816823D02*
X239909914Y-101197775D01*
X239576580Y-100959680D02*
X240433723Y-100959680D01*
X240528961Y-101007299D01*
X240576580Y-101102537D01*
X240576580Y-101197775D01*
D11*
D10*
X215409914Y-208679080D02*
X215409914Y-207679080D01*
X215028961Y-207679080D01*
X214933723Y-207726700D01*
X214886104Y-207774319D01*
X214838485Y-207869557D01*
X214838485Y-208012414D01*
X214886104Y-208107652D01*
X214933723Y-208155271D01*
X215028961Y-208202890D01*
X215409914Y-208202890D01*
X213838485Y-208583842D02*
X213886104Y-208631461D01*
X214028961Y-208679080D01*
X214124200Y-208679080D01*
X214267057Y-208631461D01*
X214362295Y-208536223D01*
X214409914Y-208440985D01*
X214457533Y-208250509D01*
X214457533Y-208107652D01*
X214409914Y-207917176D01*
X214362295Y-207821938D01*
X214267057Y-207726700D01*
X214124200Y-207679080D01*
X214028961Y-207679080D01*
X213886104Y-207726700D01*
X213838485Y-207774319D01*
X213076580Y-208155271D02*
X212933723Y-208202890D01*
X212886104Y-208250509D01*
X212838485Y-208345747D01*
X212838485Y-208488604D01*
X212886104Y-208583842D01*
X212933723Y-208631461D01*
X213028961Y-208679080D01*
X213409914Y-208679080D01*
X213409914Y-207679080D01*
X213076580Y-207679080D01*
X212981342Y-207726700D01*
X212933723Y-207774319D01*
X212886104Y-207869557D01*
X212886104Y-207964795D01*
X212933723Y-208060033D01*
X212981342Y-208107652D01*
X213076580Y-208155271D01*
X213409914Y-208155271D01*
X211457533Y-207679080D02*
X211267057Y-207679080D01*
X211171819Y-207726700D01*
X211076580Y-207821938D01*
X211028961Y-208012414D01*
X211028961Y-208345747D01*
X211076580Y-208536223D01*
X211171819Y-208631461D01*
X211267057Y-208679080D01*
X211457533Y-208679080D01*
X211552771Y-208631461D01*
X211648009Y-208536223D01*
X211695628Y-208345747D01*
X211695628Y-208012414D01*
X211648009Y-207821938D01*
X211552771Y-207726700D01*
X211457533Y-207679080D01*
X210171819Y-208012414D02*
X210171819Y-208679080D01*
X210600390Y-208012414D02*
X210600390Y-208536223D01*
X210552771Y-208631461D01*
X210457533Y-208679080D01*
X210314676Y-208679080D01*
X210219438Y-208631461D01*
X210171819Y-208583842D01*
X209838485Y-208012414D02*
X209457533Y-208012414D01*
X209695628Y-207679080D02*
X209695628Y-208536223D01*
X209648009Y-208631461D01*
X209552771Y-208679080D01*
X209457533Y-208679080D01*
X208981342Y-208679080D02*
X209076580Y-208631461D01*
X209124200Y-208536223D01*
X209124200Y-207679080D01*
X208600390Y-208679080D02*
X208600390Y-208012414D01*
X208600390Y-207679080D02*
X208648009Y-207726700D01*
X208600390Y-207774319D01*
X208552771Y-207726700D01*
X208600390Y-207679080D01*
X208600390Y-207774319D01*
X208124200Y-208012414D02*
X208124200Y-208679080D01*
X208124200Y-208107652D02*
X208076580Y-208060033D01*
X207981342Y-208012414D01*
X207838485Y-208012414D01*
X207743247Y-208060033D01*
X207695628Y-208155271D01*
X207695628Y-208679080D01*
X206838485Y-208631461D02*
X206933723Y-208679080D01*
X207124200Y-208679080D01*
X207219438Y-208631461D01*
X207267057Y-208536223D01*
X207267057Y-208155271D01*
X207219438Y-208060033D01*
X207124200Y-208012414D01*
X206933723Y-208012414D01*
X206838485Y-208060033D01*
X206790866Y-208155271D01*
X206790866Y-208250509D01*
X207267057Y-208345747D01*
D11*
D10*
X226909914Y-97175604D02*
X227576580Y-97175604D01*
X226528961Y-96937509D02*
X227243247Y-96699414D01*
X227243247Y-97318461D01*
X227576580Y-98461319D02*
X226576580Y-98461319D01*
X226576580Y-98842271D01*
X226624200Y-98937509D01*
X226671819Y-98985128D01*
X226767057Y-99032747D01*
X226909914Y-99032747D01*
X227005152Y-98985128D01*
X227052771Y-98937509D01*
X227100390Y-98842271D01*
X227100390Y-98461319D01*
X227576580Y-99604176D02*
X227528961Y-99508938D01*
X227481342Y-99461319D01*
X227386104Y-99413700D01*
X227100390Y-99413700D01*
X227005152Y-99461319D01*
X226957533Y-99508938D01*
X226909914Y-99604176D01*
X226909914Y-99747033D01*
X226957533Y-99842271D01*
X227005152Y-99889890D01*
X227100390Y-99937509D01*
X227386104Y-99937509D01*
X227481342Y-99889890D01*
X227528961Y-99842271D01*
X227576580Y-99747033D01*
X227576580Y-99604176D01*
X227576580Y-100366080D02*
X226909914Y-100366080D01*
X227100390Y-100366080D02*
X227005152Y-100413700D01*
X226957533Y-100461319D01*
X226909914Y-100556557D01*
X226909914Y-100651795D01*
X226909914Y-100842271D02*
X226909914Y-101223223D01*
X226576580Y-100985128D02*
X227433723Y-100985128D01*
X227528961Y-101032747D01*
X227576580Y-101127985D01*
X227576580Y-101223223D01*
D11*
D10*
X295200795Y-209679080D02*
X295200795Y-208679080D01*
X294819842Y-208679080D01*
X294724604Y-208726700D01*
X294676985Y-208774319D01*
X294629366Y-208869557D01*
X294629366Y-209012414D01*
X294676985Y-209107652D01*
X294724604Y-209155271D01*
X294819842Y-209202890D01*
X295200795Y-209202890D01*
X294248414Y-208774319D02*
X294200795Y-208726700D01*
X294105557Y-208679080D01*
X293867461Y-208679080D01*
X293772223Y-208726700D01*
X293724604Y-208774319D01*
X293676985Y-208869557D01*
X293676985Y-208964795D01*
X293724604Y-209107652D01*
X294296033Y-209679080D01*
X293676985Y-209679080D01*
D11*
D10*
X213695628Y-117866080D02*
X213695628Y-116866080D01*
X213695628Y-117342271D02*
X213124200Y-117342271D01*
X213124200Y-117866080D02*
X213124200Y-116866080D01*
X212219438Y-117199414D02*
X212219438Y-117866080D01*
X212648009Y-117199414D02*
X212648009Y-117723223D01*
X212600390Y-117818461D01*
X212505152Y-117866080D01*
X212362295Y-117866080D01*
X212267057Y-117818461D01*
X212219438Y-117770842D01*
X211743247Y-117866080D02*
X211743247Y-116866080D01*
X211743247Y-117247033D02*
X211648009Y-117199414D01*
X211457533Y-117199414D01*
X211362295Y-117247033D01*
X211314676Y-117294652D01*
X211267057Y-117389890D01*
X211267057Y-117675604D01*
X211314676Y-117770842D01*
X211362295Y-117818461D01*
X211457533Y-117866080D01*
X211648009Y-117866080D01*
X211743247Y-117818461D01*
X210076580Y-117866080D02*
X210076580Y-116866080D01*
X209838485Y-116866080D01*
X209695628Y-116913700D01*
X209600390Y-117008938D01*
X209552771Y-117104176D01*
X209505152Y-117294652D01*
X209505152Y-117437509D01*
X209552771Y-117627985D01*
X209600390Y-117723223D01*
X209695628Y-117818461D01*
X209838485Y-117866080D01*
X210076580Y-117866080D01*
X208743247Y-117342271D02*
X208600390Y-117389890D01*
X208552771Y-117437509D01*
X208505152Y-117532747D01*
X208505152Y-117675604D01*
X208552771Y-117770842D01*
X208600390Y-117818461D01*
X208695628Y-117866080D01*
X209076580Y-117866080D01*
X209076580Y-116866080D01*
X208743247Y-116866080D01*
X208648009Y-116913700D01*
X208600390Y-116961319D01*
X208552771Y-117056557D01*
X208552771Y-117151795D01*
X208600390Y-117247033D01*
X208648009Y-117294652D01*
X208743247Y-117342271D01*
X209076580Y-117342271D01*
D11*
D10*
X312287737Y-128020530D02*
X312287737Y-127020530D01*
X312287737Y-127496721D02*
X311716309Y-127496721D01*
X311716309Y-128020530D02*
X311716309Y-127020530D01*
X310811547Y-127353864D02*
X310811547Y-128020530D01*
X311240118Y-127353864D02*
X311240118Y-127877673D01*
X311192499Y-127972911D01*
X311097261Y-128020530D01*
X310954404Y-128020530D01*
X310859166Y-127972911D01*
X310811547Y-127925292D01*
X310335356Y-128020530D02*
X310335356Y-127020530D01*
X310335356Y-127401483D02*
X310240118Y-127353864D01*
X310049642Y-127353864D01*
X309954404Y-127401483D01*
X309906785Y-127449102D01*
X309859166Y-127544340D01*
X309859166Y-127830054D01*
X309906785Y-127925292D01*
X309954404Y-127972911D01*
X310049642Y-128020530D01*
X310240118Y-128020530D01*
X310335356Y-127972911D01*
X308668689Y-128020530D02*
X308668689Y-127020530D01*
X308430594Y-127020530D01*
X308287737Y-127068150D01*
X308192499Y-127163388D01*
X308144880Y-127258626D01*
X308097261Y-127449102D01*
X308097261Y-127591959D01*
X308144880Y-127782435D01*
X308192499Y-127877673D01*
X308287737Y-127972911D01*
X308430594Y-128020530D01*
X308668689Y-128020530D01*
X307335356Y-127496721D02*
X307192499Y-127544340D01*
X307144880Y-127591959D01*
X307097261Y-127687197D01*
X307097261Y-127830054D01*
X307144880Y-127925292D01*
X307192499Y-127972911D01*
X307287737Y-128020530D01*
X307668689Y-128020530D01*
X307668689Y-127020530D01*
X307335356Y-127020530D01*
X307240118Y-127068150D01*
X307192499Y-127115769D01*
X307144880Y-127211007D01*
X307144880Y-127306245D01*
X307192499Y-127401483D01*
X307240118Y-127449102D01*
X307335356Y-127496721D01*
X307668689Y-127496721D01*
D11*
D10*
X195195628Y-100818461D02*
X195195628Y-101151795D01*
X194671819Y-101151795D02*
X195671819Y-101151795D01*
X195671819Y-100675604D01*
X195195628Y-100294652D02*
X195195628Y-99961319D01*
X194671819Y-99818461D02*
X194671819Y-100294652D01*
X195671819Y-100294652D01*
X195671819Y-99818461D01*
X194671819Y-98866080D02*
X194671819Y-99437509D01*
X194671819Y-99151795D02*
X195671819Y-99151795D01*
X195528961Y-99247033D01*
X195433723Y-99342271D01*
X195386104Y-99437509D01*
X194767057Y-98437509D02*
X194719438Y-98389890D01*
X194671819Y-98437509D01*
X194719438Y-98485128D01*
X194767057Y-98437509D01*
X194671819Y-98437509D01*
X194671819Y-97437509D02*
X194671819Y-98008938D01*
X194671819Y-97723223D02*
X195671819Y-97723223D01*
X195528961Y-97818461D01*
X195433723Y-97913700D01*
X195386104Y-98008938D01*
X194719438Y-97056557D02*
X194671819Y-96961319D01*
X194671819Y-96770842D01*
X194719438Y-96675604D01*
X194814676Y-96627985D01*
X194862295Y-96627985D01*
X194957533Y-96675604D01*
X195005152Y-96770842D01*
X195005152Y-96913700D01*
X195052771Y-97008938D01*
X195148009Y-97056557D01*
X195195628Y-97056557D01*
X195290866Y-97008938D01*
X195338485Y-96913700D01*
X195338485Y-96770842D01*
X195290866Y-96675604D01*
D11*
D10*
X295200795Y-205679080D02*
X295200795Y-204679080D01*
X294819842Y-204679080D01*
X294724604Y-204726700D01*
X294676985Y-204774319D01*
X294629366Y-204869557D01*
X294629366Y-205012414D01*
X294676985Y-205107652D01*
X294724604Y-205155271D01*
X294819842Y-205202890D01*
X295200795Y-205202890D01*
X294296033Y-204679080D02*
X293676985Y-204679080D01*
X294010319Y-205060033D01*
X293867461Y-205060033D01*
X293772223Y-205107652D01*
X293724604Y-205155271D01*
X293676985Y-205250509D01*
X293676985Y-205488604D01*
X293724604Y-205583842D01*
X293772223Y-205631461D01*
X293867461Y-205679080D01*
X294153176Y-205679080D01*
X294248414Y-205631461D01*
X294296033Y-205583842D01*
D11*
D10*
X85076580Y-96866080D02*
X85076580Y-97675604D01*
X85028961Y-97770842D01*
X84981342Y-97818461D01*
X84886104Y-97866080D01*
X84695628Y-97866080D01*
X84600390Y-97818461D01*
X84552771Y-97770842D01*
X84505152Y-97675604D01*
X84505152Y-96866080D01*
X84076580Y-97818461D02*
X83933723Y-97866080D01*
X83695628Y-97866080D01*
X83600390Y-97818461D01*
X83552771Y-97770842D01*
X83505152Y-97675604D01*
X83505152Y-97580366D01*
X83552771Y-97485128D01*
X83600390Y-97437509D01*
X83695628Y-97389890D01*
X83886104Y-97342271D01*
X83981342Y-97294652D01*
X84028961Y-97247033D01*
X84076580Y-97151795D01*
X84076580Y-97056557D01*
X84028961Y-96961319D01*
X83981342Y-96913700D01*
X83886104Y-96866080D01*
X83648009Y-96866080D01*
X83505152Y-96913700D01*
X82743247Y-97342271D02*
X82600390Y-97389890D01*
X82552771Y-97437509D01*
X82505152Y-97532747D01*
X82505152Y-97675604D01*
X82552771Y-97770842D01*
X82600390Y-97818461D01*
X82695628Y-97866080D01*
X83076580Y-97866080D01*
X83076580Y-96866080D01*
X82743247Y-96866080D01*
X82648009Y-96913700D01*
X82600390Y-96961319D01*
X82552771Y-97056557D01*
X82552771Y-97151795D01*
X82600390Y-97247033D01*
X82648009Y-97294652D01*
X82743247Y-97342271D01*
X83076580Y-97342271D01*
X81362295Y-97580366D02*
X80886104Y-97580366D01*
X81457533Y-97866080D02*
X81124200Y-96866080D01*
X80790866Y-97866080D01*
X79695628Y-97866080D02*
X79695628Y-96866080D01*
X79457533Y-96866080D01*
X79314676Y-96913700D01*
X79219438Y-97008938D01*
X79171819Y-97104176D01*
X79124200Y-97294652D01*
X79124200Y-97437509D01*
X79171819Y-97627985D01*
X79219438Y-97723223D01*
X79314676Y-97818461D01*
X79457533Y-97866080D01*
X79695628Y-97866080D01*
X78362295Y-97342271D02*
X78219438Y-97389890D01*
X78171819Y-97437509D01*
X78124200Y-97532747D01*
X78124200Y-97675604D01*
X78171819Y-97770842D01*
X78219438Y-97818461D01*
X78314676Y-97866080D01*
X78695628Y-97866080D01*
X78695628Y-96866080D01*
X78362295Y-96866080D01*
X78267057Y-96913700D01*
X78219438Y-96961319D01*
X78171819Y-97056557D01*
X78171819Y-97151795D01*
X78219438Y-97247033D01*
X78267057Y-97294652D01*
X78362295Y-97342271D01*
X78695628Y-97342271D01*
D11*
D10*
X344076580Y-96866080D02*
X344076580Y-97675604D01*
X344028961Y-97770842D01*
X343981342Y-97818461D01*
X343886104Y-97866080D01*
X343695628Y-97866080D01*
X343600390Y-97818461D01*
X343552771Y-97770842D01*
X343505152Y-97675604D01*
X343505152Y-96866080D01*
X343076580Y-97818461D02*
X342933723Y-97866080D01*
X342695628Y-97866080D01*
X342600390Y-97818461D01*
X342552771Y-97770842D01*
X342505152Y-97675604D01*
X342505152Y-97580366D01*
X342552771Y-97485128D01*
X342600390Y-97437509D01*
X342695628Y-97389890D01*
X342886104Y-97342271D01*
X342981342Y-97294652D01*
X343028961Y-97247033D01*
X343076580Y-97151795D01*
X343076580Y-97056557D01*
X343028961Y-96961319D01*
X342981342Y-96913700D01*
X342886104Y-96866080D01*
X342648009Y-96866080D01*
X342505152Y-96913700D01*
X341743247Y-97342271D02*
X341600390Y-97389890D01*
X341552771Y-97437509D01*
X341505152Y-97532747D01*
X341505152Y-97675604D01*
X341552771Y-97770842D01*
X341600390Y-97818461D01*
X341695628Y-97866080D01*
X342076580Y-97866080D01*
X342076580Y-96866080D01*
X341743247Y-96866080D01*
X341648009Y-96913700D01*
X341600390Y-96961319D01*
X341552771Y-97056557D01*
X341552771Y-97151795D01*
X341600390Y-97247033D01*
X341648009Y-97294652D01*
X341743247Y-97342271D01*
X342076580Y-97342271D01*
X340362295Y-97580366D02*
X339886104Y-97580366D01*
X340457533Y-97866080D02*
X340124200Y-96866080D01*
X339790866Y-97866080D01*
X338695628Y-97866080D02*
X338695628Y-96866080D01*
X338457533Y-96866080D01*
X338314676Y-96913700D01*
X338219438Y-97008938D01*
X338171819Y-97104176D01*
X338124200Y-97294652D01*
X338124200Y-97437509D01*
X338171819Y-97627985D01*
X338219438Y-97723223D01*
X338314676Y-97818461D01*
X338457533Y-97866080D01*
X338695628Y-97866080D01*
X337362295Y-97342271D02*
X337219438Y-97389890D01*
X337171819Y-97437509D01*
X337124200Y-97532747D01*
X337124200Y-97675604D01*
X337171819Y-97770842D01*
X337219438Y-97818461D01*
X337314676Y-97866080D01*
X337695628Y-97866080D01*
X337695628Y-96866080D01*
X337362295Y-96866080D01*
X337267057Y-96913700D01*
X337219438Y-96961319D01*
X337171819Y-97056557D01*
X337171819Y-97151795D01*
X337219438Y-97247033D01*
X337267057Y-97294652D01*
X337362295Y-97342271D01*
X337695628Y-97342271D01*
D11*
D10*
X215267057Y-123666080D02*
X215457533Y-123666080D01*
X215552771Y-123713700D01*
X215600390Y-123761319D01*
X215695628Y-123904176D01*
X215743247Y-124094652D01*
X215743247Y-124475604D01*
X215695628Y-124570842D01*
X215648009Y-124618461D01*
X215552771Y-124666080D01*
X215362295Y-124666080D01*
X215267057Y-124618461D01*
X215219438Y-124570842D01*
X215171819Y-124475604D01*
X215171819Y-124237509D01*
X215219438Y-124142271D01*
X215267057Y-124094652D01*
X215362295Y-124047033D01*
X215552771Y-124047033D01*
X215648009Y-124094652D01*
X215695628Y-124142271D01*
X215743247Y-124237509D01*
X214552771Y-123666080D02*
X214457533Y-123666080D01*
X214362295Y-123713700D01*
X214314676Y-123761319D01*
X214267057Y-123856557D01*
X214219438Y-124047033D01*
X214219438Y-124285128D01*
X214267057Y-124475604D01*
X214314676Y-124570842D01*
X214362295Y-124618461D01*
X214457533Y-124666080D01*
X214552771Y-124666080D01*
X214648009Y-124618461D01*
X214695628Y-124570842D01*
X214743247Y-124475604D01*
X214790866Y-124285128D01*
X214790866Y-124047033D01*
X214743247Y-123856557D01*
X214695628Y-123761319D01*
X214648009Y-123713700D01*
X214552771Y-123666080D01*
X213790866Y-124570842D02*
X213743247Y-124618461D01*
X213790866Y-124666080D01*
X213838485Y-124618461D01*
X213790866Y-124570842D01*
X213790866Y-124666080D01*
X213124200Y-123666080D02*
X213028961Y-123666080D01*
X212933723Y-123713700D01*
X212886104Y-123761319D01*
X212838485Y-123856557D01*
X212790866Y-124047033D01*
X212790866Y-124285128D01*
X212838485Y-124475604D01*
X212886104Y-124570842D01*
X212933723Y-124618461D01*
X213028961Y-124666080D01*
X213124200Y-124666080D01*
X213219438Y-124618461D01*
X213267057Y-124570842D01*
X213314676Y-124475604D01*
X213362295Y-124285128D01*
X213362295Y-124047033D01*
X213314676Y-123856557D01*
X213267057Y-123761319D01*
X213219438Y-123713700D01*
X213124200Y-123666080D01*
X212171819Y-123666080D02*
X212076580Y-123666080D01*
X211981342Y-123713700D01*
X211933723Y-123761319D01*
X211886104Y-123856557D01*
X211838485Y-124047033D01*
X211838485Y-124285128D01*
X211886104Y-124475604D01*
X211933723Y-124570842D01*
X211981342Y-124618461D01*
X212076580Y-124666080D01*
X212171819Y-124666080D01*
X212267057Y-124618461D01*
X212314676Y-124570842D01*
X212362295Y-124475604D01*
X212409914Y-124285128D01*
X212409914Y-124047033D01*
X212362295Y-123856557D01*
X212314676Y-123761319D01*
X212267057Y-123713700D01*
X212171819Y-123666080D01*
X211219438Y-123666080D02*
X211124200Y-123666080D01*
X211028961Y-123713700D01*
X210981342Y-123761319D01*
X210933723Y-123856557D01*
X210886104Y-124047033D01*
X210886104Y-124285128D01*
X210933723Y-124475604D01*
X210981342Y-124570842D01*
X211028961Y-124618461D01*
X211124200Y-124666080D01*
X211219438Y-124666080D01*
X211314676Y-124618461D01*
X211362295Y-124570842D01*
X211409914Y-124475604D01*
X211457533Y-124285128D01*
X211457533Y-124047033D01*
X211409914Y-123856557D01*
X211362295Y-123761319D01*
X211314676Y-123713700D01*
X211219438Y-123666080D01*
X210267057Y-123666080D02*
X210171819Y-123666080D01*
X210076580Y-123713700D01*
X210028961Y-123761319D01*
X209981342Y-123856557D01*
X209933723Y-124047033D01*
X209933723Y-124285128D01*
X209981342Y-124475604D01*
X210028961Y-124570842D01*
X210076580Y-124618461D01*
X210171819Y-124666080D01*
X210267057Y-124666080D01*
X210362295Y-124618461D01*
X210409914Y-124570842D01*
X210457533Y-124475604D01*
X210505152Y-124285128D01*
X210505152Y-124047033D01*
X210457533Y-123856557D01*
X210409914Y-123761319D01*
X210362295Y-123713700D01*
X210267057Y-123666080D01*
X208743247Y-124666080D02*
X208743247Y-123999414D01*
X208743247Y-124094652D02*
X208695628Y-124047033D01*
X208600390Y-123999414D01*
X208457533Y-123999414D01*
X208362295Y-124047033D01*
X208314676Y-124142271D01*
X208314676Y-124666080D01*
X208314676Y-124142271D02*
X208267057Y-124047033D01*
X208171819Y-123999414D01*
X208028961Y-123999414D01*
X207933723Y-124047033D01*
X207886104Y-124142271D01*
X207886104Y-124666080D01*
X207409914Y-124666080D02*
X207409914Y-123999414D01*
X207409914Y-124094652D02*
X207362295Y-124047033D01*
X207267057Y-123999414D01*
X207124200Y-123999414D01*
X207028961Y-124047033D01*
X206981342Y-124142271D01*
X206981342Y-124666080D01*
X206981342Y-124142271D02*
X206933723Y-124047033D01*
X206838485Y-123999414D01*
X206695628Y-123999414D01*
X206600390Y-124047033D01*
X206552771Y-124142271D01*
X206552771Y-124666080D01*
X181124200Y-118913700D02*
X181124200Y-126000120D01*
X241124200Y-118913700D02*
X241124200Y-126000120D01*
X181124200Y-125413700D02*
X205714676Y-125413700D01*
X216533724Y-125413700D02*
X241124200Y-125413700D01*
X181124200Y-125413700D02*
X182250704Y-126000121D01*
X181124200Y-125413700D02*
X182250704Y-124827279D01*
X241124200Y-125413700D02*
X239997696Y-124827279D01*
X241124200Y-125413700D02*
X239997696Y-126000121D01*
D11*
D10*
X215790866Y-121666080D02*
X215171819Y-121666080D01*
X215505152Y-122047033D01*
X215362295Y-122047033D01*
X215267057Y-122094652D01*
X215219438Y-122142271D01*
X215171819Y-122237509D01*
X215171819Y-122475604D01*
X215219438Y-122570842D01*
X215267057Y-122618461D01*
X215362295Y-122666080D01*
X215648009Y-122666080D01*
X215743247Y-122618461D01*
X215790866Y-122570842D01*
X214314676Y-121999414D02*
X214314676Y-122666080D01*
X214552771Y-121618461D02*
X214790866Y-122332747D01*
X214171819Y-122332747D01*
X213790866Y-122570842D02*
X213743247Y-122618461D01*
X213790866Y-122666080D01*
X213838485Y-122618461D01*
X213790866Y-122570842D01*
X213790866Y-122666080D01*
X213124200Y-121666080D02*
X213028961Y-121666080D01*
X212933723Y-121713700D01*
X212886104Y-121761319D01*
X212838485Y-121856557D01*
X212790866Y-122047033D01*
X212790866Y-122285128D01*
X212838485Y-122475604D01*
X212886104Y-122570842D01*
X212933723Y-122618461D01*
X213028961Y-122666080D01*
X213124200Y-122666080D01*
X213219438Y-122618461D01*
X213267057Y-122570842D01*
X213314676Y-122475604D01*
X213362295Y-122285128D01*
X213362295Y-122047033D01*
X213314676Y-121856557D01*
X213267057Y-121761319D01*
X213219438Y-121713700D01*
X213124200Y-121666080D01*
X212171819Y-121666080D02*
X212076580Y-121666080D01*
X211981342Y-121713700D01*
X211933723Y-121761319D01*
X211886104Y-121856557D01*
X211838485Y-122047033D01*
X211838485Y-122285128D01*
X211886104Y-122475604D01*
X211933723Y-122570842D01*
X211981342Y-122618461D01*
X212076580Y-122666080D01*
X212171819Y-122666080D01*
X212267057Y-122618461D01*
X212314676Y-122570842D01*
X212362295Y-122475604D01*
X212409914Y-122285128D01*
X212409914Y-122047033D01*
X212362295Y-121856557D01*
X212314676Y-121761319D01*
X212267057Y-121713700D01*
X212171819Y-121666080D01*
X211219438Y-121666080D02*
X211124200Y-121666080D01*
X211028961Y-121713700D01*
X210981342Y-121761319D01*
X210933723Y-121856557D01*
X210886104Y-122047033D01*
X210886104Y-122285128D01*
X210933723Y-122475604D01*
X210981342Y-122570842D01*
X211028961Y-122618461D01*
X211124200Y-122666080D01*
X211219438Y-122666080D01*
X211314676Y-122618461D01*
X211362295Y-122570842D01*
X211409914Y-122475604D01*
X211457533Y-122285128D01*
X211457533Y-122047033D01*
X211409914Y-121856557D01*
X211362295Y-121761319D01*
X211314676Y-121713700D01*
X211219438Y-121666080D01*
X210267057Y-121666080D02*
X210171819Y-121666080D01*
X210076580Y-121713700D01*
X210028961Y-121761319D01*
X209981342Y-121856557D01*
X209933723Y-122047033D01*
X209933723Y-122285128D01*
X209981342Y-122475604D01*
X210028961Y-122570842D01*
X210076580Y-122618461D01*
X210171819Y-122666080D01*
X210267057Y-122666080D01*
X210362295Y-122618461D01*
X210409914Y-122570842D01*
X210457533Y-122475604D01*
X210505152Y-122285128D01*
X210505152Y-122047033D01*
X210457533Y-121856557D01*
X210409914Y-121761319D01*
X210362295Y-121713700D01*
X210267057Y-121666080D01*
X208743247Y-122666080D02*
X208743247Y-121999414D01*
X208743247Y-122094652D02*
X208695628Y-122047033D01*
X208600390Y-121999414D01*
X208457533Y-121999414D01*
X208362295Y-122047033D01*
X208314676Y-122142271D01*
X208314676Y-122666080D01*
X208314676Y-122142271D02*
X208267057Y-122047033D01*
X208171819Y-121999414D01*
X208028961Y-121999414D01*
X207933723Y-122047033D01*
X207886104Y-122142271D01*
X207886104Y-122666080D01*
X207409914Y-122666080D02*
X207409914Y-121999414D01*
X207409914Y-122094652D02*
X207362295Y-122047033D01*
X207267057Y-121999414D01*
X207124200Y-121999414D01*
X207028961Y-122047033D01*
X206981342Y-122142271D01*
X206981342Y-122666080D01*
X206981342Y-122142271D02*
X206933723Y-122047033D01*
X206838485Y-121999414D01*
X206695628Y-121999414D01*
X206600390Y-122047033D01*
X206552771Y-122142271D01*
X206552771Y-122666080D01*
X194124200Y-118913700D02*
X194124200Y-124000120D01*
X228124200Y-118913700D02*
X228124200Y-124000120D01*
X194124200Y-123413700D02*
X205714676Y-123413700D01*
X216533724Y-123413700D02*
X228124200Y-123413700D01*
X194124200Y-123413700D02*
X195250704Y-124000121D01*
X194124200Y-123413700D02*
X195250704Y-122827279D01*
X228124200Y-123413700D02*
X226997696Y-122827279D01*
X228124200Y-123413700D02*
X226997696Y-124000121D01*
D11*
%TO.C,M3*%
D10*
X504188632Y-217531030D02*
X504188632Y-216531030D01*
X503855299Y-217245316D01*
X503521966Y-216531030D01*
X503521966Y-217531030D01*
X503141013Y-216531030D02*
X502521966Y-216531030D01*
X502855299Y-216911983D01*
X502712442Y-216911983D01*
X502617204Y-216959602D01*
X502569585Y-217007221D01*
X502521966Y-217102459D01*
X502521966Y-217340554D01*
X502569585Y-217435792D01*
X502617204Y-217483411D01*
X502712442Y-217531030D01*
X502998156Y-217531030D01*
X503093394Y-217483411D01*
X503141013Y-217435792D01*
D11*
D10*
X224721651Y-86802030D02*
X224721651Y-85802030D01*
X224388318Y-86516316D01*
X224054985Y-85802030D01*
X224054985Y-86802030D01*
X223674032Y-85802030D02*
X223054985Y-85802030D01*
X223388318Y-86182983D01*
X223245461Y-86182983D01*
X223150223Y-86230602D01*
X223102604Y-86278221D01*
X223054985Y-86373459D01*
X223054985Y-86611554D01*
X223102604Y-86706792D01*
X223150223Y-86754411D01*
X223245461Y-86802030D01*
X223531175Y-86802030D01*
X223626413Y-86754411D01*
X223674032Y-86706792D01*
D11*
%TO.C,M2.5*%
D10*
X127224389Y-112762840D02*
X126224389Y-112762840D01*
X126938675Y-113096173D01*
X126224389Y-113429507D01*
X127224389Y-113429507D01*
X126319628Y-113858078D02*
X126272009Y-113905697D01*
X126224389Y-114000935D01*
X126224389Y-114239030D01*
X126272009Y-114334269D01*
X126319628Y-114381888D01*
X126414866Y-114429507D01*
X126510104Y-114429507D01*
X126652961Y-114381888D01*
X127224389Y-113810459D01*
X127224389Y-114429507D01*
X127129151Y-114858078D02*
X127176770Y-114905697D01*
X127224389Y-114858078D01*
X127176770Y-114810459D01*
X127129151Y-114858078D01*
X127224389Y-114858078D01*
X126224389Y-115810459D02*
X126224389Y-115334269D01*
X126700580Y-115286650D01*
X126652961Y-115334269D01*
X126605342Y-115429507D01*
X126605342Y-115667602D01*
X126652961Y-115762840D01*
X126700580Y-115810459D01*
X126795818Y-115858078D01*
X127033913Y-115858078D01*
X127129151Y-115810459D01*
X127176770Y-115762840D01*
X127224389Y-115667602D01*
X127224389Y-115429507D01*
X127176770Y-115334269D01*
X127129151Y-115286650D01*
D11*
D10*
X297240118Y-97520530D02*
X297240118Y-96520530D01*
X296906785Y-97234816D01*
X296573451Y-96520530D01*
X296573451Y-97520530D01*
X296144880Y-96615769D02*
X296097261Y-96568150D01*
X296002023Y-96520530D01*
X295763928Y-96520530D01*
X295668689Y-96568150D01*
X295621070Y-96615769D01*
X295573451Y-96711007D01*
X295573451Y-96806245D01*
X295621070Y-96949102D01*
X296192499Y-97520530D01*
X295573451Y-97520530D01*
X295144880Y-97425292D02*
X295097261Y-97472911D01*
X295144880Y-97520530D01*
X295192499Y-97472911D01*
X295144880Y-97425292D01*
X295144880Y-97520530D01*
X294192499Y-96520530D02*
X294668689Y-96520530D01*
X294716309Y-96996721D01*
X294668689Y-96949102D01*
X294573451Y-96901483D01*
X294335356Y-96901483D01*
X294240118Y-96949102D01*
X294192499Y-96996721D01*
X294144880Y-97091959D01*
X294144880Y-97330054D01*
X294192499Y-97425292D01*
X294240118Y-97472911D01*
X294335356Y-97520530D01*
X294573451Y-97520530D01*
X294668689Y-97472911D01*
X294716309Y-97425292D01*
D11*
%TO.C,M3*%
D10*
X396348213Y-221731030D02*
X396348213Y-220731030D01*
X396014880Y-221445316D01*
X395681547Y-220731030D01*
X395681547Y-221731030D01*
X395300594Y-220731030D02*
X394681547Y-220731030D01*
X395014880Y-221111983D01*
X394872023Y-221111983D01*
X394776785Y-221159602D01*
X394729166Y-221207221D01*
X394681547Y-221302459D01*
X394681547Y-221540554D01*
X394729166Y-221635792D01*
X394776785Y-221683411D01*
X394872023Y-221731030D01*
X395157737Y-221731030D01*
X395252975Y-221683411D01*
X395300594Y-221635792D01*
D11*
D10*
X503894489Y-139299507D02*
X502894489Y-139299507D01*
X503608775Y-139632840D01*
X502894489Y-139966173D01*
X503894489Y-139966173D01*
X502894489Y-140347126D02*
X502894489Y-140966173D01*
X503275442Y-140632840D01*
X503275442Y-140775697D01*
X503323061Y-140870935D01*
X503370680Y-140918554D01*
X503465918Y-140966173D01*
X503704013Y-140966173D01*
X503799251Y-140918554D01*
X503846870Y-140870935D01*
X503894489Y-140775697D01*
X503894489Y-140489983D01*
X503846870Y-140394745D01*
X503799251Y-140347126D01*
D11*
D10*
X116863032Y-217531030D02*
X116863032Y-216531030D01*
X116529699Y-217245316D01*
X116196366Y-216531030D01*
X116196366Y-217531030D01*
X115815413Y-216531030D02*
X115196366Y-216531030D01*
X115529699Y-216911983D01*
X115386842Y-216911983D01*
X115291604Y-216959602D01*
X115243985Y-217007221D01*
X115196366Y-217102459D01*
X115196366Y-217340554D01*
X115243985Y-217435792D01*
X115291604Y-217483411D01*
X115386842Y-217531030D01*
X115672556Y-217531030D01*
X115767794Y-217483411D01*
X115815413Y-217435792D01*
D11*
D10*
X252348213Y-86802030D02*
X252348213Y-85802030D01*
X252014880Y-86516316D01*
X251681547Y-85802030D01*
X251681547Y-86802030D01*
X251300594Y-85802030D02*
X250681547Y-85802030D01*
X251014880Y-86182983D01*
X250872023Y-86182983D01*
X250776785Y-86230602D01*
X250729166Y-86278221D01*
X250681547Y-86373459D01*
X250681547Y-86611554D01*
X250729166Y-86706792D01*
X250776785Y-86754411D01*
X250872023Y-86802030D01*
X251157737Y-86802030D01*
X251252975Y-86754411D01*
X251300594Y-86706792D01*
D11*
%TO.C,M2.5*%
D10*
X132224389Y-112762840D02*
X131224389Y-112762840D01*
X131938675Y-113096173D01*
X131224389Y-113429507D01*
X132224389Y-113429507D01*
X131319628Y-113858078D02*
X131272009Y-113905697D01*
X131224389Y-114000935D01*
X131224389Y-114239030D01*
X131272009Y-114334269D01*
X131319628Y-114381888D01*
X131414866Y-114429507D01*
X131510104Y-114429507D01*
X131652961Y-114381888D01*
X132224389Y-113810459D01*
X132224389Y-114429507D01*
X132129151Y-114858078D02*
X132176770Y-114905697D01*
X132224389Y-114858078D01*
X132176770Y-114810459D01*
X132129151Y-114858078D01*
X132224389Y-114858078D01*
X131224389Y-115810459D02*
X131224389Y-115334269D01*
X131700580Y-115286650D01*
X131652961Y-115334269D01*
X131605342Y-115429507D01*
X131605342Y-115667602D01*
X131652961Y-115762840D01*
X131700580Y-115810459D01*
X131795818Y-115858078D01*
X132033913Y-115858078D01*
X132129151Y-115810459D01*
X132176770Y-115762840D01*
X132224389Y-115667602D01*
X132224389Y-115429507D01*
X132176770Y-115334269D01*
X132129151Y-115286650D01*
D11*
D10*
X132224389Y-136762840D02*
X131224389Y-136762840D01*
X131938675Y-137096173D01*
X131224389Y-137429507D01*
X132224389Y-137429507D01*
X131319628Y-137858078D02*
X131272009Y-137905697D01*
X131224389Y-138000935D01*
X131224389Y-138239030D01*
X131272009Y-138334269D01*
X131319628Y-138381888D01*
X131414866Y-138429507D01*
X131510104Y-138429507D01*
X131652961Y-138381888D01*
X132224389Y-137810459D01*
X132224389Y-138429507D01*
X132129151Y-138858078D02*
X132176770Y-138905697D01*
X132224389Y-138858078D01*
X132176770Y-138810459D01*
X132129151Y-138858078D01*
X132224389Y-138858078D01*
X131224389Y-139810459D02*
X131224389Y-139334269D01*
X131700580Y-139286650D01*
X131652961Y-139334269D01*
X131605342Y-139429507D01*
X131605342Y-139667602D01*
X131652961Y-139762840D01*
X131700580Y-139810459D01*
X131795818Y-139858078D01*
X132033913Y-139858078D01*
X132129151Y-139810459D01*
X132176770Y-139762840D01*
X132224389Y-139667602D01*
X132224389Y-139429507D01*
X132176770Y-139334269D01*
X132129151Y-139286650D01*
D11*
%TO.C,M3*%
D10*
X503862989Y-111654745D02*
X502862989Y-111654745D01*
X503577275Y-111988078D01*
X502862989Y-112321411D01*
X503862989Y-112321411D01*
X502862989Y-112702364D02*
X502862989Y-113321411D01*
X503243942Y-112988078D01*
X503243942Y-113130935D01*
X503291561Y-113226173D01*
X503339180Y-113273792D01*
X503434418Y-113321411D01*
X503672513Y-113321411D01*
X503767751Y-113273792D01*
X503815370Y-113226173D01*
X503862989Y-113130935D01*
X503862989Y-112845221D01*
X503815370Y-112749983D01*
X503767751Y-112702364D01*
D11*
D10*
X224703451Y-221731030D02*
X224703451Y-220731030D01*
X224370118Y-221445316D01*
X224036785Y-220731030D01*
X224036785Y-221731030D01*
X223655832Y-220731030D02*
X223036785Y-220731030D01*
X223370118Y-221111983D01*
X223227261Y-221111983D01*
X223132023Y-221159602D01*
X223084404Y-221207221D01*
X223036785Y-221302459D01*
X223036785Y-221540554D01*
X223084404Y-221635792D01*
X223132023Y-221683411D01*
X223227261Y-221731030D01*
X223512975Y-221731030D01*
X223608213Y-221683411D01*
X223655832Y-221635792D01*
D11*
%TO.C,M2.5*%
D10*
X297240118Y-122520530D02*
X297240118Y-121520530D01*
X296906785Y-122234816D01*
X296573451Y-121520530D01*
X296573451Y-122520530D01*
X296144880Y-121615769D02*
X296097261Y-121568150D01*
X296002023Y-121520530D01*
X295763928Y-121520530D01*
X295668689Y-121568150D01*
X295621070Y-121615769D01*
X295573451Y-121711007D01*
X295573451Y-121806245D01*
X295621070Y-121949102D01*
X296192499Y-122520530D01*
X295573451Y-122520530D01*
X295144880Y-122425292D02*
X295097261Y-122472911D01*
X295144880Y-122520530D01*
X295192499Y-122472911D01*
X295144880Y-122425292D01*
X295144880Y-122520530D01*
X294192499Y-121520530D02*
X294668689Y-121520530D01*
X294716309Y-121996721D01*
X294668689Y-121949102D01*
X294573451Y-121901483D01*
X294335356Y-121901483D01*
X294240118Y-121949102D01*
X294192499Y-121996721D01*
X294144880Y-122091959D01*
X294144880Y-122330054D01*
X294192499Y-122425292D01*
X294240118Y-122472911D01*
X294335356Y-122520530D01*
X294573451Y-122520530D01*
X294668689Y-122472911D01*
X294716309Y-122425292D01*
D11*
%TO.C,M3*%
D10*
X195348213Y-86802030D02*
X195348213Y-85802030D01*
X195014880Y-86516316D01*
X194681547Y-85802030D01*
X194681547Y-86802030D01*
X194300594Y-85802030D02*
X193681547Y-85802030D01*
X194014880Y-86182983D01*
X193872023Y-86182983D01*
X193776785Y-86230602D01*
X193729166Y-86278221D01*
X193681547Y-86373459D01*
X193681547Y-86611554D01*
X193729166Y-86706792D01*
X193776785Y-86754411D01*
X193872023Y-86802030D01*
X194157737Y-86802030D01*
X194252975Y-86754411D01*
X194300594Y-86706792D01*
D11*
%TO.C,M2*%
D10*
X317525832Y-102770530D02*
X317525832Y-101770530D01*
X317192499Y-102484816D01*
X316859166Y-101770530D01*
X316859166Y-102770530D01*
X316430594Y-101865769D02*
X316382975Y-101818150D01*
X316287737Y-101770530D01*
X316049642Y-101770530D01*
X315954404Y-101818150D01*
X315906785Y-101865769D01*
X315859166Y-101961007D01*
X315859166Y-102056245D01*
X315906785Y-102199102D01*
X316478213Y-102770530D01*
X315859166Y-102770530D01*
D11*
%TO.C,M2.5*%
D10*
X127224389Y-136762840D02*
X126224389Y-136762840D01*
X126938675Y-137096173D01*
X126224389Y-137429507D01*
X127224389Y-137429507D01*
X126319628Y-137858078D02*
X126272009Y-137905697D01*
X126224389Y-138000935D01*
X126224389Y-138239030D01*
X126272009Y-138334269D01*
X126319628Y-138381888D01*
X126414866Y-138429507D01*
X126510104Y-138429507D01*
X126652961Y-138381888D01*
X127224389Y-137810459D01*
X127224389Y-138429507D01*
X127129151Y-138858078D02*
X127176770Y-138905697D01*
X127224389Y-138858078D01*
X127176770Y-138810459D01*
X127129151Y-138858078D01*
X127224389Y-138858078D01*
X126224389Y-139810459D02*
X126224389Y-139334269D01*
X126700580Y-139286650D01*
X126652961Y-139334269D01*
X126605342Y-139429507D01*
X126605342Y-139667602D01*
X126652961Y-139762840D01*
X126700580Y-139810459D01*
X126795818Y-139858078D01*
X127033913Y-139858078D01*
X127129151Y-139810459D01*
X127176770Y-139762840D01*
X127224389Y-139667602D01*
X127224389Y-139429507D01*
X127176770Y-139334269D01*
X127129151Y-139286650D01*
%TD*%
M02*
