M48
; DRILL file {KiCad (6.0.0)} date Sat Mar  5 23:00:05 2022
; FORMAT={-:-/ absolute / metric / decimal}
; #@! TF.CreationDate,2022-03-05T23:00:05-05:00
; #@! TF.GenerationSoftware,Kicad,Pcbnew,(6.0.0)
; #@! TF.FileFunction,NonPlated,1,2,NPTH
FMAT,2
METRIC
; #@! TA.AperFunction,NonPlated,NPTH,ComponentDrill
T1C2.200
; #@! TA.AperFunction,NonPlated,NPTH,ComponentDrill
T2C2.500
; #@! TA.AperFunction,NonPlated,NPTH,ComponentDrill
T3C3.200
%
G90
G05
T1
X204.124Y-82.414
X218.124Y-82.414
X218.124Y-94.914
X316.716Y-105.068
T2
X24.68Y-104.132
X24.68Y-128.132
X36.68Y-104.132
X36.68Y-128.132
X70.124Y-83.414
X70.124Y-95.414
X94.124Y-83.414
X94.124Y-95.414
X123.272Y-114.287
X123.272Y-138.287
X127.124Y-83.414
X127.124Y-95.414
X135.272Y-114.287
X135.272Y-138.287
X151.124Y-83.414
X151.124Y-95.414
X184.124Y-83.414
X184.124Y-115.414
X197.124Y-83.414
X197.124Y-115.414
X238.124Y-83.414
X238.124Y-115.414
X271.124Y-83.414
X271.124Y-95.414
X295.124Y-83.414
X295.124Y-95.414
X295.716Y-93.568
X295.716Y-125.568
X328.124Y-83.414
X328.124Y-95.414
X352.124Y-83.414
X352.124Y-95.414
T3
X17.461Y-76.195
X64.124Y-76.195
X100.624Y-76.195
X116.054Y-221.279
X120.642Y-76.195
X157.624Y-76.195
X196.624Y-76.195
X199.216Y-86.35
X219.216Y-221.279
X219.235Y-86.35
X225.624Y-76.195
X256.216Y-86.35
X358.124Y-76.195
X400.216Y-221.279
X404.787Y-76.195
X404.787Y-97.625
X404.787Y-134.632
X503.379Y-221.279
X503.411Y-107.787
X503.442Y-144.787
T0
M30
