%TF.GenerationSoftware,KiCad,Pcbnew,(6.0.0)*%
%TF.CreationDate,2022-03-08T21:45:30-05:00*%
%TF.ProjectId,custom_keyboard plate v3 bottom - map,63757374-6f6d-45f6-9b65-79626f617264,rev?*%
%TF.SameCoordinates,Original*%
%TF.FileFunction,Profile,NP*%
%FSLAX46Y46*%
G04 Gerber Fmt 4.6, Leading zero omitted, Abs format (unit mm)*
G04 Created by KiCad (PCBNEW (6.0.0)) date 2022-03-08 21:45:30*
%MOMM*%
%LPD*%
G01*
G04 APERTURE LIST*
%TA.AperFunction,Profile*%
%ADD10C,0.200000*%
%TD*%
G04 APERTURE END LIST*
D10*
X373005500Y-66937200D02*
X404168300Y-66937200D01*
X408136800Y-205834700D02*
X408136800Y-70905700D01*
X113255500Y-116937200D02*
X106755500Y-116937200D01*
X366505500Y-66937200D02*
X366505500Y-116937200D01*
X314255500Y-116937200D02*
X307755500Y-116937200D01*
X54505500Y-116937200D02*
X48005500Y-116937200D01*
X113255500Y-66937200D02*
X113255500Y-116937200D01*
X113255500Y-66937200D02*
X307755500Y-66937200D01*
X16842700Y-209803200D02*
X404168300Y-209803200D01*
X48005500Y-66937200D02*
X16842700Y-66937200D01*
X307755500Y-116937200D02*
X307755500Y-66937200D01*
X408136800Y-70905700D02*
G75*
G03*
X404168300Y-66937200I-3968501J-1D01*
G01*
X366505500Y-116937200D02*
X373005500Y-116937200D01*
X373005500Y-116937200D02*
X373005500Y-66937200D01*
X314255500Y-66937200D02*
X366505500Y-66937200D01*
X12874200Y-70905700D02*
X12874200Y-205834700D01*
X16842700Y-66937200D02*
G75*
G03*
X12874200Y-70905700I1J-3968501D01*
G01*
X404168300Y-209803200D02*
G75*
G03*
X408136800Y-205834700I-1J3968501D01*
G01*
X12874200Y-205834700D02*
G75*
G03*
X16842700Y-209803200I3968501J1D01*
G01*
X54505500Y-66937200D02*
X106755500Y-66937200D01*
X54505500Y-66937200D02*
X54505500Y-116937200D01*
X106755500Y-116937200D02*
X106755500Y-66937200D01*
X48005500Y-116937200D02*
X48005500Y-66937200D01*
X314255500Y-66937200D02*
X314255500Y-116937200D01*
M02*
