%TF.GenerationSoftware,KiCad,Pcbnew,(6.0.0)*%
%TF.CreationDate,2022-03-05T22:59:55-05:00*%
%TF.ProjectId,custom_keyboard plate v3 bottom - map,63757374-6f6d-45f6-9b65-79626f617264,rev?*%
%TF.SameCoordinates,Original*%
%TF.FileFunction,Copper,L1,Top*%
%TF.FilePolarity,Positive*%
%FSLAX46Y46*%
G04 Gerber Fmt 4.6, Leading zero omitted, Abs format (unit mm)*
G04 Created by KiCad (PCBNEW (6.0.0)) date 2022-03-05 22:59:55*
%MOMM*%
%LPD*%
G01*
G04 APERTURE LIST*
%TA.AperFunction,NonConductor*%
%ADD10C,0.200000*%
%TD*%
%ADD11C,0.200000*%
G04 APERTURE END LIST*
D10*
X295124200Y-80413700D02*
X271124200Y-80413700D01*
X36679901Y-131132200D02*
G75*
G03*
X39679901Y-128132200I-1J3000001D01*
G01*
X113874200Y-171726700D02*
X107374200Y-171726700D01*
X241124200Y-83413700D02*
G75*
G03*
X238124200Y-80413700I-3000001J-1D01*
G01*
X121436100Y-206362000D02*
X25398400Y-206362000D01*
X333124200Y-72913700D02*
X347124200Y-72913700D01*
X347124200Y-72913700D02*
X347124200Y-86913700D01*
X347124200Y-86913700D02*
X333124200Y-86913700D01*
X333124200Y-86913700D02*
X333124200Y-72913700D01*
X298124200Y-95413700D02*
X298124200Y-83413700D01*
X396850000Y-206362000D02*
X234141500Y-206362000D01*
X397568500Y-101132200D02*
X385568500Y-101132200D01*
X241124200Y-115413700D02*
X241124200Y-83413700D01*
X184124200Y-118413700D02*
X238124200Y-118413700D01*
X22223600Y-203187200D02*
X22223600Y-84132200D01*
X314874200Y-171726700D02*
X308374200Y-171726700D01*
X355124200Y-95413700D02*
X355124200Y-83413700D01*
X221442300Y-206362000D02*
X234141500Y-206362000D01*
X154124200Y-95413700D02*
X154124200Y-83413700D01*
X400024800Y-84132200D02*
G75*
G03*
X396850000Y-80957400I-3174799J1D01*
G01*
X308374200Y-122726700D02*
X308374200Y-171726700D01*
X465124160Y-101669435D02*
X458624160Y-101669435D01*
X22223600Y-203187200D02*
G75*
G03*
X25398400Y-206362000I3174799J-1D01*
G01*
X55624200Y-80957400D02*
X106874200Y-80957400D01*
X258746200Y-80957400D02*
X307874200Y-80957400D01*
X202124200Y-82413700D02*
X202124200Y-94913700D01*
X181124200Y-115413700D02*
G75*
G03*
X184124200Y-118413700I3000001J1D01*
G01*
X257158800Y-72726700D02*
X257158800Y-79370000D01*
X48624200Y-122726700D02*
X48624200Y-171726700D01*
X400568500Y-104132200D02*
G75*
G03*
X397568500Y-101132200I-3000001J-1D01*
G01*
X396850000Y-206362000D02*
G75*
G03*
X400024800Y-203187200I1J3174799D01*
G01*
X314874200Y-171726700D02*
X314874200Y-122726700D01*
X355124200Y-83413700D02*
G75*
G03*
X352124200Y-80413700I-3000001J-1D01*
G01*
X315374200Y-80957400D02*
X366624200Y-80957400D01*
X21679901Y-104132200D02*
X21679901Y-128132200D01*
X130960500Y-207949400D02*
X134135300Y-206362000D01*
X97124200Y-95413700D02*
X97124200Y-83413700D01*
X373624200Y-171726700D02*
X373624200Y-122726700D01*
X276124200Y-72913700D02*
X290124200Y-72913700D01*
X290124200Y-72913700D02*
X290124200Y-86913700D01*
X290124200Y-86913700D02*
X276124200Y-86913700D01*
X276124200Y-86913700D02*
X276124200Y-72913700D01*
X224617100Y-207949400D02*
X230966700Y-207949400D01*
X75124200Y-86913700D02*
X89124200Y-86913700D01*
X89124200Y-86913700D02*
X89124200Y-72913700D01*
X89124200Y-72913700D02*
X75124200Y-72913700D01*
X75124200Y-72913700D02*
X75124200Y-86913700D01*
X400024800Y-84132200D02*
X400024800Y-203187200D01*
X124124200Y-95413700D02*
G75*
G03*
X127124200Y-98413700I3000001J1D01*
G01*
X151124200Y-98413700D02*
G75*
G03*
X154124200Y-95413700I-1J3000001D01*
G01*
X94124200Y-98413700D02*
G75*
G03*
X97124200Y-95413700I-1J3000001D01*
G01*
X67124200Y-83413700D02*
X67124200Y-95413700D01*
X396850000Y-80957400D02*
X374124200Y-80957400D01*
X408068500Y-109132200D02*
X394068500Y-109132200D01*
X394068500Y-109132200D02*
X394068500Y-123132200D01*
X394068500Y-123132200D02*
X408068500Y-123132200D01*
X408068500Y-123132200D02*
X408068500Y-109132200D01*
X48124200Y-80957400D02*
X24898400Y-80957400D01*
X228124200Y-83413700D02*
G75*
G03*
X225124200Y-80413700I-3000001J-1D01*
G01*
X244459600Y-80957400D02*
G75*
G03*
X246047000Y-79370000I-1J1587401D01*
G01*
X194124200Y-115413700D02*
G75*
G03*
X197124200Y-118413700I3000001J1D01*
G01*
X238124200Y-80413700D02*
X184124200Y-80413700D01*
X121436100Y-206362000D02*
X134135300Y-206362000D01*
X325124200Y-95413700D02*
G75*
G03*
X328124200Y-98413700I3000001J1D01*
G01*
X385568500Y-131132200D02*
X397568500Y-131132200D01*
X39679901Y-128132200D02*
X39679901Y-104132200D01*
X352124200Y-98413700D02*
G75*
G03*
X355124200Y-95413700I-1J3000001D01*
G01*
X70124200Y-98413700D02*
X94124200Y-98413700D01*
X220124200Y-94913700D02*
X220124200Y-82413700D01*
X154124200Y-83413700D02*
G75*
G03*
X151124200Y-80413700I-3000001J-1D01*
G01*
X127124200Y-80413700D02*
G75*
G03*
X124124200Y-83413700I1J-3000001D01*
G01*
X55124200Y-171726700D02*
X55124200Y-122726700D01*
X228124200Y-115413700D02*
X228124200Y-83413700D01*
X221442300Y-206362000D02*
X134135300Y-206362000D01*
X146624160Y-101669435D02*
X140124160Y-101669435D01*
X14179901Y-123132200D02*
X28179901Y-123132200D01*
X28179901Y-123132200D02*
X28179901Y-109132200D01*
X28179901Y-109132200D02*
X14179901Y-109132200D01*
X14179901Y-109132200D02*
X14179901Y-123132200D01*
X67124200Y-95413700D02*
G75*
G03*
X70124200Y-98413700I3000001J1D01*
G01*
X25398400Y-80957400D02*
G75*
G03*
X22223600Y-84132200I-1J-3174799D01*
G01*
X70124200Y-80413700D02*
G75*
G03*
X67124200Y-83413700I1J-3000001D01*
G01*
X127124200Y-98413700D02*
X151124200Y-98413700D01*
X94124200Y-80413700D02*
X70124200Y-80413700D01*
X238124200Y-118413700D02*
G75*
G03*
X241124200Y-115413700I-1J3000001D01*
G01*
X107374200Y-122726700D02*
X107374200Y-171726700D01*
X271124200Y-80413700D02*
G75*
G03*
X268124200Y-83413700I1J-3000001D01*
G01*
X124124200Y-83413700D02*
X124124200Y-95413700D01*
X218124200Y-96913700D02*
G75*
G03*
X220124200Y-94913700I1J1999999D01*
G01*
X151124200Y-80413700D02*
X127124200Y-80413700D01*
X202124200Y-94913700D02*
G75*
G03*
X204124200Y-96913700I1999999J-1D01*
G01*
X268124200Y-95413700D02*
G75*
G03*
X271124200Y-98413700I3000001J1D01*
G01*
X114374200Y-80957400D02*
X244459600Y-80957400D01*
X406466309Y-91111850D02*
X357338309Y-91111850D01*
X220124200Y-82413700D02*
G75*
G03*
X218124200Y-80413700I-1999999J1D01*
G01*
X113874200Y-171726700D02*
X113874200Y-122726700D01*
X197124200Y-80413700D02*
G75*
G03*
X194124200Y-83413700I1J-3000001D01*
G01*
X298124200Y-83413700D02*
G75*
G03*
X295124200Y-80413700I-3000001J-1D01*
G01*
X124610900Y-207949400D02*
X130960500Y-207949400D01*
X230966700Y-207949400D02*
X234141500Y-206362000D01*
X382568500Y-128132200D02*
G75*
G03*
X385568500Y-131132200I3000001J1D01*
G01*
X465216309Y-91111850D02*
X413966309Y-91111850D01*
X397568500Y-131132200D02*
G75*
G03*
X400568500Y-128132200I-1J3000001D01*
G01*
X194124200Y-83413700D02*
X194124200Y-115413700D01*
X257158800Y-79370000D02*
G75*
G03*
X258746200Y-80957400I1587401J1D01*
G01*
X124610900Y-207949400D02*
X121436100Y-206362000D01*
X36679901Y-101132200D02*
X24679901Y-101132200D01*
X39679901Y-104132200D02*
G75*
G03*
X36679901Y-101132200I-3000001J-1D01*
G01*
X246047000Y-72726700D02*
X246047000Y-79370000D01*
X268124200Y-83413700D02*
X268124200Y-95413700D01*
X367124200Y-122726700D02*
X367124200Y-171726700D01*
X224617100Y-207949400D02*
X221442300Y-206362000D01*
X184124200Y-80413700D02*
G75*
G03*
X181124200Y-83413700I1J-3000001D01*
G01*
X181124200Y-83413700D02*
X181124200Y-115413700D01*
X132124200Y-86913700D02*
X146124200Y-86913700D01*
X146124200Y-86913700D02*
X146124200Y-72913700D01*
X146124200Y-72913700D02*
X132124200Y-72913700D01*
X132124200Y-72913700D02*
X132124200Y-86913700D01*
X225124200Y-118413700D02*
G75*
G03*
X228124200Y-115413700I-1J3000001D01*
G01*
X97124200Y-83413700D02*
G75*
G03*
X94124200Y-80413700I-3000001J-1D01*
G01*
D11*
D10*
X127047604Y-205679080D02*
X127047604Y-204679080D01*
X127428557Y-204679080D01*
X127523795Y-204726700D01*
X127571414Y-204774319D01*
X127619033Y-204869557D01*
X127619033Y-205012414D01*
X127571414Y-205107652D01*
X127523795Y-205155271D01*
X127428557Y-205202890D01*
X127047604Y-205202890D01*
X127952366Y-204679080D02*
X128571414Y-204679080D01*
X128238080Y-205060033D01*
X128380938Y-205060033D01*
X128476176Y-205107652D01*
X128523795Y-205155271D01*
X128571414Y-205250509D01*
X128571414Y-205488604D01*
X128523795Y-205583842D01*
X128476176Y-205631461D01*
X128380938Y-205679080D01*
X128095223Y-205679080D01*
X127999985Y-205631461D01*
X127952366Y-205583842D01*
D11*
D10*
X240052771Y-100388252D02*
X240052771Y-100721585D01*
X240576580Y-100721585D02*
X239576580Y-100721585D01*
X239576580Y-100245394D01*
X240052771Y-99864442D02*
X240052771Y-99531109D01*
X240576580Y-99388252D02*
X240576580Y-99864442D01*
X239576580Y-99864442D01*
X239576580Y-99388252D01*
X239671819Y-99007299D02*
X239624200Y-98959680D01*
X239576580Y-98864442D01*
X239576580Y-98626347D01*
X239624200Y-98531109D01*
X239671819Y-98483490D01*
X239767057Y-98435871D01*
X239862295Y-98435871D01*
X240005152Y-98483490D01*
X240576580Y-99054918D01*
X240576580Y-98435871D01*
X240481342Y-98007299D02*
X240528961Y-97959680D01*
X240576580Y-98007299D01*
X240528961Y-98054918D01*
X240481342Y-98007299D01*
X240576580Y-98007299D01*
X240576580Y-97007299D02*
X240576580Y-97578728D01*
X240576580Y-97293013D02*
X239576580Y-97293013D01*
X239719438Y-97388252D01*
X239814676Y-97483490D01*
X239862295Y-97578728D01*
D11*
D10*
X337171819Y-96866080D02*
X337171819Y-97675604D01*
X337219438Y-97770842D01*
X337267057Y-97818461D01*
X337362295Y-97866080D01*
X337552771Y-97866080D01*
X337648009Y-97818461D01*
X337695628Y-97770842D01*
X337743247Y-97675604D01*
X337743247Y-96866080D01*
X338171819Y-97818461D02*
X338314676Y-97866080D01*
X338552771Y-97866080D01*
X338648009Y-97818461D01*
X338695628Y-97770842D01*
X338743247Y-97675604D01*
X338743247Y-97580366D01*
X338695628Y-97485128D01*
X338648009Y-97437509D01*
X338552771Y-97389890D01*
X338362295Y-97342271D01*
X338267057Y-97294652D01*
X338219438Y-97247033D01*
X338171819Y-97151795D01*
X338171819Y-97056557D01*
X338219438Y-96961319D01*
X338267057Y-96913700D01*
X338362295Y-96866080D01*
X338600390Y-96866080D01*
X338743247Y-96913700D01*
X339505152Y-97342271D02*
X339648009Y-97389890D01*
X339695628Y-97437509D01*
X339743247Y-97532747D01*
X339743247Y-97675604D01*
X339695628Y-97770842D01*
X339648009Y-97818461D01*
X339552771Y-97866080D01*
X339171819Y-97866080D01*
X339171819Y-96866080D01*
X339505152Y-96866080D01*
X339600390Y-96913700D01*
X339648009Y-96961319D01*
X339695628Y-97056557D01*
X339695628Y-97151795D01*
X339648009Y-97247033D01*
X339600390Y-97294652D01*
X339505152Y-97342271D01*
X339171819Y-97342271D01*
X340886104Y-97580366D02*
X341362295Y-97580366D01*
X340790866Y-97866080D02*
X341124200Y-96866080D01*
X341457533Y-97866080D01*
X342552771Y-97866080D02*
X342552771Y-96866080D01*
X342790866Y-96866080D01*
X342933723Y-96913700D01*
X343028961Y-97008938D01*
X343076580Y-97104176D01*
X343124200Y-97294652D01*
X343124200Y-97437509D01*
X343076580Y-97627985D01*
X343028961Y-97723223D01*
X342933723Y-97818461D01*
X342790866Y-97866080D01*
X342552771Y-97866080D01*
X343886104Y-97342271D02*
X344028961Y-97389890D01*
X344076580Y-97437509D01*
X344124200Y-97532747D01*
X344124200Y-97675604D01*
X344076580Y-97770842D01*
X344028961Y-97818461D01*
X343933723Y-97866080D01*
X343552771Y-97866080D01*
X343552771Y-96866080D01*
X343886104Y-96866080D01*
X343981342Y-96913700D01*
X344028961Y-96961319D01*
X344076580Y-97056557D01*
X344076580Y-97151795D01*
X344028961Y-97247033D01*
X343981342Y-97294652D01*
X343886104Y-97342271D01*
X343552771Y-97342271D01*
D11*
D10*
X182671819Y-96626347D02*
X182671819Y-97293013D01*
X181671819Y-96864442D01*
X181671819Y-98435871D02*
X182671819Y-98435871D01*
X182671819Y-98816823D01*
X182624200Y-98912061D01*
X182576580Y-98959680D01*
X182481342Y-99007299D01*
X182338485Y-99007299D01*
X182243247Y-98959680D01*
X182195628Y-98912061D01*
X182148009Y-98816823D01*
X182148009Y-98435871D01*
X181671819Y-99578728D02*
X181719438Y-99483490D01*
X181767057Y-99435871D01*
X181862295Y-99388252D01*
X182148009Y-99388252D01*
X182243247Y-99435871D01*
X182290866Y-99483490D01*
X182338485Y-99578728D01*
X182338485Y-99721585D01*
X182290866Y-99816823D01*
X182243247Y-99864442D01*
X182148009Y-99912061D01*
X181862295Y-99912061D01*
X181767057Y-99864442D01*
X181719438Y-99816823D01*
X181671819Y-99721585D01*
X181671819Y-99578728D01*
X181671819Y-100340632D02*
X182338485Y-100340632D01*
X182148009Y-100340632D02*
X182243247Y-100388252D01*
X182290866Y-100435871D01*
X182338485Y-100531109D01*
X182338485Y-100626347D01*
X182338485Y-100816823D02*
X182338485Y-101197775D01*
X182671819Y-100959680D02*
X181814676Y-100959680D01*
X181719438Y-101007299D01*
X181671819Y-101102537D01*
X181671819Y-101197775D01*
D11*
D10*
X209588485Y-95366080D02*
X209588485Y-96175604D01*
X209636104Y-96270842D01*
X209683723Y-96318461D01*
X209778961Y-96366080D01*
X209969438Y-96366080D01*
X210064676Y-96318461D01*
X210112295Y-96270842D01*
X210159914Y-96175604D01*
X210159914Y-95366080D01*
X210636104Y-96366080D02*
X210636104Y-95366080D01*
X210874200Y-95366080D01*
X211017057Y-95413700D01*
X211112295Y-95508938D01*
X211159914Y-95604176D01*
X211207533Y-95794652D01*
X211207533Y-95937509D01*
X211159914Y-96127985D01*
X211112295Y-96223223D01*
X211017057Y-96318461D01*
X210874200Y-96366080D01*
X210636104Y-96366080D01*
X211969438Y-95842271D02*
X212112295Y-95889890D01*
X212159914Y-95937509D01*
X212207533Y-96032747D01*
X212207533Y-96175604D01*
X212159914Y-96270842D01*
X212112295Y-96318461D01*
X212017057Y-96366080D01*
X211636104Y-96366080D01*
X211636104Y-95366080D01*
X211969438Y-95366080D01*
X212064676Y-95413700D01*
X212112295Y-95461319D01*
X212159914Y-95556557D01*
X212159914Y-95651795D01*
X212112295Y-95747033D01*
X212064676Y-95794652D01*
X211969438Y-95842271D01*
X211636104Y-95842271D01*
D11*
D10*
X227053804Y-205679080D02*
X227053804Y-204679080D01*
X227434757Y-204679080D01*
X227529995Y-204726700D01*
X227577614Y-204774319D01*
X227625233Y-204869557D01*
X227625233Y-205012414D01*
X227577614Y-205107652D01*
X227529995Y-205155271D01*
X227434757Y-205202890D01*
X227053804Y-205202890D01*
X227958566Y-204679080D02*
X228577614Y-204679080D01*
X228244280Y-205060033D01*
X228387138Y-205060033D01*
X228482376Y-205107652D01*
X228529995Y-205155271D01*
X228577614Y-205250509D01*
X228577614Y-205488604D01*
X228529995Y-205583842D01*
X228482376Y-205631461D01*
X228387138Y-205679080D01*
X228101423Y-205679080D01*
X228006185Y-205631461D01*
X227958566Y-205583842D01*
D11*
D10*
X206838485Y-208679080D02*
X206838485Y-207679080D01*
X207219438Y-207679080D01*
X207314676Y-207726700D01*
X207362295Y-207774319D01*
X207409914Y-207869557D01*
X207409914Y-208012414D01*
X207362295Y-208107652D01*
X207314676Y-208155271D01*
X207219438Y-208202890D01*
X206838485Y-208202890D01*
X208409914Y-208583842D02*
X208362295Y-208631461D01*
X208219438Y-208679080D01*
X208124200Y-208679080D01*
X207981342Y-208631461D01*
X207886104Y-208536223D01*
X207838485Y-208440985D01*
X207790866Y-208250509D01*
X207790866Y-208107652D01*
X207838485Y-207917176D01*
X207886104Y-207821938D01*
X207981342Y-207726700D01*
X208124200Y-207679080D01*
X208219438Y-207679080D01*
X208362295Y-207726700D01*
X208409914Y-207774319D01*
X209171819Y-208155271D02*
X209314676Y-208202890D01*
X209362295Y-208250509D01*
X209409914Y-208345747D01*
X209409914Y-208488604D01*
X209362295Y-208583842D01*
X209314676Y-208631461D01*
X209219438Y-208679080D01*
X208838485Y-208679080D01*
X208838485Y-207679080D01*
X209171819Y-207679080D01*
X209267057Y-207726700D01*
X209314676Y-207774319D01*
X209362295Y-207869557D01*
X209362295Y-207964795D01*
X209314676Y-208060033D01*
X209267057Y-208107652D01*
X209171819Y-208155271D01*
X208838485Y-208155271D01*
X210790866Y-207679080D02*
X210981342Y-207679080D01*
X211076580Y-207726700D01*
X211171819Y-207821938D01*
X211219438Y-208012414D01*
X211219438Y-208345747D01*
X211171819Y-208536223D01*
X211076580Y-208631461D01*
X210981342Y-208679080D01*
X210790866Y-208679080D01*
X210695628Y-208631461D01*
X210600390Y-208536223D01*
X210552771Y-208345747D01*
X210552771Y-208012414D01*
X210600390Y-207821938D01*
X210695628Y-207726700D01*
X210790866Y-207679080D01*
X212076580Y-208012414D02*
X212076580Y-208679080D01*
X211648009Y-208012414D02*
X211648009Y-208536223D01*
X211695628Y-208631461D01*
X211790866Y-208679080D01*
X211933723Y-208679080D01*
X212028961Y-208631461D01*
X212076580Y-208583842D01*
X212409914Y-208012414D02*
X212790866Y-208012414D01*
X212552771Y-207679080D02*
X212552771Y-208536223D01*
X212600390Y-208631461D01*
X212695628Y-208679080D01*
X212790866Y-208679080D01*
X213267057Y-208679080D02*
X213171819Y-208631461D01*
X213124200Y-208536223D01*
X213124200Y-207679080D01*
X213648009Y-208679080D02*
X213648009Y-208012414D01*
X213648009Y-207679080D02*
X213600390Y-207726700D01*
X213648009Y-207774319D01*
X213695628Y-207726700D01*
X213648009Y-207679080D01*
X213648009Y-207774319D01*
X214124200Y-208012414D02*
X214124200Y-208679080D01*
X214124200Y-208107652D02*
X214171819Y-208060033D01*
X214267057Y-208012414D01*
X214409914Y-208012414D01*
X214505152Y-208060033D01*
X214552771Y-208155271D01*
X214552771Y-208679080D01*
X215409914Y-208631461D02*
X215314676Y-208679080D01*
X215124200Y-208679080D01*
X215028961Y-208631461D01*
X214981342Y-208536223D01*
X214981342Y-208155271D01*
X215028961Y-208060033D01*
X215124200Y-208012414D01*
X215314676Y-208012414D01*
X215409914Y-208060033D01*
X215457533Y-208155271D01*
X215457533Y-208250509D01*
X214981342Y-208345747D01*
D11*
D10*
X227052771Y-100818461D02*
X227052771Y-101151795D01*
X227576580Y-101151795D02*
X226576580Y-101151795D01*
X226576580Y-100675604D01*
X227052771Y-100294652D02*
X227052771Y-99961319D01*
X227576580Y-99818461D02*
X227576580Y-100294652D01*
X226576580Y-100294652D01*
X226576580Y-99818461D01*
X227576580Y-98866080D02*
X227576580Y-99437509D01*
X227576580Y-99151795D02*
X226576580Y-99151795D01*
X226719438Y-99247033D01*
X226814676Y-99342271D01*
X226862295Y-99437509D01*
X227481342Y-98437509D02*
X227528961Y-98389890D01*
X227576580Y-98437509D01*
X227528961Y-98485128D01*
X227481342Y-98437509D01*
X227576580Y-98437509D01*
X227576580Y-97437509D02*
X227576580Y-98008938D01*
X227576580Y-97723223D02*
X226576580Y-97723223D01*
X226719438Y-97818461D01*
X226814676Y-97913700D01*
X226862295Y-98008938D01*
X227528961Y-97056557D02*
X227576580Y-96961319D01*
X227576580Y-96770842D01*
X227528961Y-96675604D01*
X227433723Y-96627985D01*
X227386104Y-96627985D01*
X227290866Y-96675604D01*
X227243247Y-96770842D01*
X227243247Y-96913700D01*
X227195628Y-97008938D01*
X227100390Y-97056557D01*
X227052771Y-97056557D01*
X226957533Y-97008938D01*
X226909914Y-96913700D01*
X226909914Y-96770842D01*
X226957533Y-96675604D01*
D11*
D10*
X142076580Y-96866080D02*
X142076580Y-97675604D01*
X142028961Y-97770842D01*
X141981342Y-97818461D01*
X141886104Y-97866080D01*
X141695628Y-97866080D01*
X141600390Y-97818461D01*
X141552771Y-97770842D01*
X141505152Y-97675604D01*
X141505152Y-96866080D01*
X141076580Y-97818461D02*
X140933723Y-97866080D01*
X140695628Y-97866080D01*
X140600390Y-97818461D01*
X140552771Y-97770842D01*
X140505152Y-97675604D01*
X140505152Y-97580366D01*
X140552771Y-97485128D01*
X140600390Y-97437509D01*
X140695628Y-97389890D01*
X140886104Y-97342271D01*
X140981342Y-97294652D01*
X141028961Y-97247033D01*
X141076580Y-97151795D01*
X141076580Y-97056557D01*
X141028961Y-96961319D01*
X140981342Y-96913700D01*
X140886104Y-96866080D01*
X140648009Y-96866080D01*
X140505152Y-96913700D01*
X139743247Y-97342271D02*
X139600390Y-97389890D01*
X139552771Y-97437509D01*
X139505152Y-97532747D01*
X139505152Y-97675604D01*
X139552771Y-97770842D01*
X139600390Y-97818461D01*
X139695628Y-97866080D01*
X140076580Y-97866080D01*
X140076580Y-96866080D01*
X139743247Y-96866080D01*
X139648009Y-96913700D01*
X139600390Y-96961319D01*
X139552771Y-97056557D01*
X139552771Y-97151795D01*
X139600390Y-97247033D01*
X139648009Y-97294652D01*
X139743247Y-97342271D01*
X140076580Y-97342271D01*
X138362295Y-97580366D02*
X137886104Y-97580366D01*
X138457533Y-97866080D02*
X138124200Y-96866080D01*
X137790866Y-97866080D01*
X136695628Y-97866080D02*
X136695628Y-96866080D01*
X136457533Y-96866080D01*
X136314676Y-96913700D01*
X136219438Y-97008938D01*
X136171819Y-97104176D01*
X136124200Y-97294652D01*
X136124200Y-97437509D01*
X136171819Y-97627985D01*
X136219438Y-97723223D01*
X136314676Y-97818461D01*
X136457533Y-97866080D01*
X136695628Y-97866080D01*
X135362295Y-97342271D02*
X135219438Y-97389890D01*
X135171819Y-97437509D01*
X135124200Y-97532747D01*
X135124200Y-97675604D01*
X135171819Y-97770842D01*
X135219438Y-97818461D01*
X135314676Y-97866080D01*
X135695628Y-97866080D01*
X135695628Y-96866080D01*
X135362295Y-96866080D01*
X135267057Y-96913700D01*
X135219438Y-96961319D01*
X135171819Y-97056557D01*
X135171819Y-97151795D01*
X135219438Y-97247033D01*
X135267057Y-97294652D01*
X135362295Y-97342271D01*
X135695628Y-97342271D01*
D11*
D10*
X195338485Y-97175604D02*
X194671819Y-97175604D01*
X195719438Y-96937509D02*
X195005152Y-96699414D01*
X195005152Y-97318461D01*
X194671819Y-98461319D02*
X195671819Y-98461319D01*
X195671819Y-98842271D01*
X195624200Y-98937509D01*
X195576580Y-98985128D01*
X195481342Y-99032747D01*
X195338485Y-99032747D01*
X195243247Y-98985128D01*
X195195628Y-98937509D01*
X195148009Y-98842271D01*
X195148009Y-98461319D01*
X194671819Y-99604176D02*
X194719438Y-99508938D01*
X194767057Y-99461319D01*
X194862295Y-99413700D01*
X195148009Y-99413700D01*
X195243247Y-99461319D01*
X195290866Y-99508938D01*
X195338485Y-99604176D01*
X195338485Y-99747033D01*
X195290866Y-99842271D01*
X195243247Y-99889890D01*
X195148009Y-99937509D01*
X194862295Y-99937509D01*
X194767057Y-99889890D01*
X194719438Y-99842271D01*
X194671819Y-99747033D01*
X194671819Y-99604176D01*
X194671819Y-100366080D02*
X195338485Y-100366080D01*
X195148009Y-100366080D02*
X195243247Y-100413700D01*
X195290866Y-100461319D01*
X195338485Y-100556557D01*
X195338485Y-100651795D01*
X195338485Y-100842271D02*
X195338485Y-101223223D01*
X195671819Y-100985128D02*
X194814676Y-100985128D01*
X194719438Y-101032747D01*
X194671819Y-101127985D01*
X194671819Y-101223223D01*
D11*
D10*
X227053804Y-209679080D02*
X227053804Y-208679080D01*
X227434757Y-208679080D01*
X227529995Y-208726700D01*
X227577614Y-208774319D01*
X227625233Y-208869557D01*
X227625233Y-209012414D01*
X227577614Y-209107652D01*
X227529995Y-209155271D01*
X227434757Y-209202890D01*
X227053804Y-209202890D01*
X228006185Y-208774319D02*
X228053804Y-208726700D01*
X228149042Y-208679080D01*
X228387138Y-208679080D01*
X228482376Y-208726700D01*
X228529995Y-208774319D01*
X228577614Y-208869557D01*
X228577614Y-208964795D01*
X228529995Y-209107652D01*
X227958566Y-209679080D01*
X228577614Y-209679080D01*
D11*
D10*
X38132281Y-119616080D02*
X38941805Y-119616080D01*
X39037043Y-119568461D01*
X39084662Y-119520842D01*
X39132281Y-119425604D01*
X39132281Y-119235128D01*
X39084662Y-119139890D01*
X39037043Y-119092271D01*
X38941805Y-119044652D01*
X38132281Y-119044652D01*
X39084662Y-118616080D02*
X39132281Y-118473223D01*
X39132281Y-118235128D01*
X39084662Y-118139890D01*
X39037043Y-118092271D01*
X38941805Y-118044652D01*
X38846567Y-118044652D01*
X38751329Y-118092271D01*
X38703710Y-118139890D01*
X38656091Y-118235128D01*
X38608472Y-118425604D01*
X38560853Y-118520842D01*
X38513234Y-118568461D01*
X38417996Y-118616080D01*
X38322758Y-118616080D01*
X38227520Y-118568461D01*
X38179901Y-118520842D01*
X38132281Y-118425604D01*
X38132281Y-118187509D01*
X38179901Y-118044652D01*
X38608472Y-117282747D02*
X38656091Y-117139890D01*
X38703710Y-117092271D01*
X38798948Y-117044652D01*
X38941805Y-117044652D01*
X39037043Y-117092271D01*
X39084662Y-117139890D01*
X39132281Y-117235128D01*
X39132281Y-117616080D01*
X38132281Y-117616080D01*
X38132281Y-117282747D01*
X38179901Y-117187509D01*
X38227520Y-117139890D01*
X38322758Y-117092271D01*
X38417996Y-117092271D01*
X38513234Y-117139890D01*
X38560853Y-117187509D01*
X38608472Y-117282747D01*
X38608472Y-117616080D01*
X38846567Y-115901795D02*
X38846567Y-115425604D01*
X39132281Y-115997033D02*
X38132281Y-115663700D01*
X39132281Y-115330366D01*
X39132281Y-114235128D02*
X38132281Y-114235128D01*
X38132281Y-113997033D01*
X38179901Y-113854176D01*
X38275139Y-113758938D01*
X38370377Y-113711319D01*
X38560853Y-113663700D01*
X38703710Y-113663700D01*
X38894186Y-113711319D01*
X38989424Y-113758938D01*
X39084662Y-113854176D01*
X39132281Y-113997033D01*
X39132281Y-114235128D01*
X38608472Y-112901795D02*
X38656091Y-112758938D01*
X38703710Y-112711319D01*
X38798948Y-112663700D01*
X38941805Y-112663700D01*
X39037043Y-112711319D01*
X39084662Y-112758938D01*
X39132281Y-112854176D01*
X39132281Y-113235128D01*
X38132281Y-113235128D01*
X38132281Y-112901795D01*
X38179901Y-112806557D01*
X38227520Y-112758938D01*
X38322758Y-112711319D01*
X38417996Y-112711319D01*
X38513234Y-112758938D01*
X38560853Y-112806557D01*
X38608472Y-112901795D01*
X38608472Y-113235128D01*
D11*
D10*
X127047604Y-209679080D02*
X127047604Y-208679080D01*
X127428557Y-208679080D01*
X127523795Y-208726700D01*
X127571414Y-208774319D01*
X127619033Y-208869557D01*
X127619033Y-209012414D01*
X127571414Y-209107652D01*
X127523795Y-209155271D01*
X127428557Y-209202890D01*
X127047604Y-209202890D01*
X127999985Y-208774319D02*
X128047604Y-208726700D01*
X128142842Y-208679080D01*
X128380938Y-208679080D01*
X128476176Y-208726700D01*
X128523795Y-208774319D01*
X128571414Y-208869557D01*
X128571414Y-208964795D01*
X128523795Y-209107652D01*
X127952366Y-209679080D01*
X128571414Y-209679080D01*
D11*
D10*
X280171819Y-96866080D02*
X280171819Y-97675604D01*
X280219438Y-97770842D01*
X280267057Y-97818461D01*
X280362295Y-97866080D01*
X280552771Y-97866080D01*
X280648009Y-97818461D01*
X280695628Y-97770842D01*
X280743247Y-97675604D01*
X280743247Y-96866080D01*
X281171819Y-97818461D02*
X281314676Y-97866080D01*
X281552771Y-97866080D01*
X281648009Y-97818461D01*
X281695628Y-97770842D01*
X281743247Y-97675604D01*
X281743247Y-97580366D01*
X281695628Y-97485128D01*
X281648009Y-97437509D01*
X281552771Y-97389890D01*
X281362295Y-97342271D01*
X281267057Y-97294652D01*
X281219438Y-97247033D01*
X281171819Y-97151795D01*
X281171819Y-97056557D01*
X281219438Y-96961319D01*
X281267057Y-96913700D01*
X281362295Y-96866080D01*
X281600390Y-96866080D01*
X281743247Y-96913700D01*
X282505152Y-97342271D02*
X282648009Y-97389890D01*
X282695628Y-97437509D01*
X282743247Y-97532747D01*
X282743247Y-97675604D01*
X282695628Y-97770842D01*
X282648009Y-97818461D01*
X282552771Y-97866080D01*
X282171819Y-97866080D01*
X282171819Y-96866080D01*
X282505152Y-96866080D01*
X282600390Y-96913700D01*
X282648009Y-96961319D01*
X282695628Y-97056557D01*
X282695628Y-97151795D01*
X282648009Y-97247033D01*
X282600390Y-97294652D01*
X282505152Y-97342271D01*
X282171819Y-97342271D01*
X283886104Y-97580366D02*
X284362295Y-97580366D01*
X283790866Y-97866080D02*
X284124200Y-96866080D01*
X284457533Y-97866080D01*
X285552771Y-97866080D02*
X285552771Y-96866080D01*
X285790866Y-96866080D01*
X285933723Y-96913700D01*
X286028961Y-97008938D01*
X286076580Y-97104176D01*
X286124200Y-97294652D01*
X286124200Y-97437509D01*
X286076580Y-97627985D01*
X286028961Y-97723223D01*
X285933723Y-97818461D01*
X285790866Y-97866080D01*
X285552771Y-97866080D01*
X286886104Y-97342271D02*
X287028961Y-97389890D01*
X287076580Y-97437509D01*
X287124200Y-97532747D01*
X287124200Y-97675604D01*
X287076580Y-97770842D01*
X287028961Y-97818461D01*
X286933723Y-97866080D01*
X286552771Y-97866080D01*
X286552771Y-96866080D01*
X286886104Y-96866080D01*
X286981342Y-96913700D01*
X287028961Y-96961319D01*
X287076580Y-97056557D01*
X287076580Y-97151795D01*
X287028961Y-97247033D01*
X286981342Y-97294652D01*
X286886104Y-97342271D01*
X286552771Y-97342271D01*
D11*
D10*
X85076580Y-96866080D02*
X85076580Y-97675604D01*
X85028961Y-97770842D01*
X84981342Y-97818461D01*
X84886104Y-97866080D01*
X84695628Y-97866080D01*
X84600390Y-97818461D01*
X84552771Y-97770842D01*
X84505152Y-97675604D01*
X84505152Y-96866080D01*
X84076580Y-97818461D02*
X83933723Y-97866080D01*
X83695628Y-97866080D01*
X83600390Y-97818461D01*
X83552771Y-97770842D01*
X83505152Y-97675604D01*
X83505152Y-97580366D01*
X83552771Y-97485128D01*
X83600390Y-97437509D01*
X83695628Y-97389890D01*
X83886104Y-97342271D01*
X83981342Y-97294652D01*
X84028961Y-97247033D01*
X84076580Y-97151795D01*
X84076580Y-97056557D01*
X84028961Y-96961319D01*
X83981342Y-96913700D01*
X83886104Y-96866080D01*
X83648009Y-96866080D01*
X83505152Y-96913700D01*
X82743247Y-97342271D02*
X82600390Y-97389890D01*
X82552771Y-97437509D01*
X82505152Y-97532747D01*
X82505152Y-97675604D01*
X82552771Y-97770842D01*
X82600390Y-97818461D01*
X82695628Y-97866080D01*
X83076580Y-97866080D01*
X83076580Y-96866080D01*
X82743247Y-96866080D01*
X82648009Y-96913700D01*
X82600390Y-96961319D01*
X82552771Y-97056557D01*
X82552771Y-97151795D01*
X82600390Y-97247033D01*
X82648009Y-97294652D01*
X82743247Y-97342271D01*
X83076580Y-97342271D01*
X81362295Y-97580366D02*
X80886104Y-97580366D01*
X81457533Y-97866080D02*
X81124200Y-96866080D01*
X80790866Y-97866080D01*
X79695628Y-97866080D02*
X79695628Y-96866080D01*
X79457533Y-96866080D01*
X79314676Y-96913700D01*
X79219438Y-97008938D01*
X79171819Y-97104176D01*
X79124200Y-97294652D01*
X79124200Y-97437509D01*
X79171819Y-97627985D01*
X79219438Y-97723223D01*
X79314676Y-97818461D01*
X79457533Y-97866080D01*
X79695628Y-97866080D01*
X78362295Y-97342271D02*
X78219438Y-97389890D01*
X78171819Y-97437509D01*
X78124200Y-97532747D01*
X78124200Y-97675604D01*
X78171819Y-97770842D01*
X78219438Y-97818461D01*
X78314676Y-97866080D01*
X78695628Y-97866080D01*
X78695628Y-96866080D01*
X78362295Y-96866080D01*
X78267057Y-96913700D01*
X78219438Y-96961319D01*
X78171819Y-97056557D01*
X78171819Y-97151795D01*
X78219438Y-97247033D01*
X78267057Y-97294652D01*
X78362295Y-97342271D01*
X78695628Y-97342271D01*
D11*
D10*
X206981342Y-123666080D02*
X206790866Y-123666080D01*
X206695628Y-123713700D01*
X206648009Y-123761319D01*
X206552771Y-123904176D01*
X206505152Y-124094652D01*
X206505152Y-124475604D01*
X206552771Y-124570842D01*
X206600390Y-124618461D01*
X206695628Y-124666080D01*
X206886104Y-124666080D01*
X206981342Y-124618461D01*
X207028961Y-124570842D01*
X207076580Y-124475604D01*
X207076580Y-124237509D01*
X207028961Y-124142271D01*
X206981342Y-124094652D01*
X206886104Y-124047033D01*
X206695628Y-124047033D01*
X206600390Y-124094652D01*
X206552771Y-124142271D01*
X206505152Y-124237509D01*
X207695628Y-123666080D02*
X207790866Y-123666080D01*
X207886104Y-123713700D01*
X207933723Y-123761319D01*
X207981342Y-123856557D01*
X208028961Y-124047033D01*
X208028961Y-124285128D01*
X207981342Y-124475604D01*
X207933723Y-124570842D01*
X207886104Y-124618461D01*
X207790866Y-124666080D01*
X207695628Y-124666080D01*
X207600390Y-124618461D01*
X207552771Y-124570842D01*
X207505152Y-124475604D01*
X207457533Y-124285128D01*
X207457533Y-124047033D01*
X207505152Y-123856557D01*
X207552771Y-123761319D01*
X207600390Y-123713700D01*
X207695628Y-123666080D01*
X208457533Y-124570842D02*
X208505152Y-124618461D01*
X208457533Y-124666080D01*
X208409914Y-124618461D01*
X208457533Y-124570842D01*
X208457533Y-124666080D01*
X209124200Y-123666080D02*
X209219438Y-123666080D01*
X209314676Y-123713700D01*
X209362295Y-123761319D01*
X209409914Y-123856557D01*
X209457533Y-124047033D01*
X209457533Y-124285128D01*
X209409914Y-124475604D01*
X209362295Y-124570842D01*
X209314676Y-124618461D01*
X209219438Y-124666080D01*
X209124200Y-124666080D01*
X209028961Y-124618461D01*
X208981342Y-124570842D01*
X208933723Y-124475604D01*
X208886104Y-124285128D01*
X208886104Y-124047033D01*
X208933723Y-123856557D01*
X208981342Y-123761319D01*
X209028961Y-123713700D01*
X209124200Y-123666080D01*
X210076580Y-123666080D02*
X210171819Y-123666080D01*
X210267057Y-123713700D01*
X210314676Y-123761319D01*
X210362295Y-123856557D01*
X210409914Y-124047033D01*
X210409914Y-124285128D01*
X210362295Y-124475604D01*
X210314676Y-124570842D01*
X210267057Y-124618461D01*
X210171819Y-124666080D01*
X210076580Y-124666080D01*
X209981342Y-124618461D01*
X209933723Y-124570842D01*
X209886104Y-124475604D01*
X209838485Y-124285128D01*
X209838485Y-124047033D01*
X209886104Y-123856557D01*
X209933723Y-123761319D01*
X209981342Y-123713700D01*
X210076580Y-123666080D01*
X211028961Y-123666080D02*
X211124200Y-123666080D01*
X211219438Y-123713700D01*
X211267057Y-123761319D01*
X211314676Y-123856557D01*
X211362295Y-124047033D01*
X211362295Y-124285128D01*
X211314676Y-124475604D01*
X211267057Y-124570842D01*
X211219438Y-124618461D01*
X211124200Y-124666080D01*
X211028961Y-124666080D01*
X210933723Y-124618461D01*
X210886104Y-124570842D01*
X210838485Y-124475604D01*
X210790866Y-124285128D01*
X210790866Y-124047033D01*
X210838485Y-123856557D01*
X210886104Y-123761319D01*
X210933723Y-123713700D01*
X211028961Y-123666080D01*
X211981342Y-123666080D02*
X212076580Y-123666080D01*
X212171819Y-123713700D01*
X212219438Y-123761319D01*
X212267057Y-123856557D01*
X212314676Y-124047033D01*
X212314676Y-124285128D01*
X212267057Y-124475604D01*
X212219438Y-124570842D01*
X212171819Y-124618461D01*
X212076580Y-124666080D01*
X211981342Y-124666080D01*
X211886104Y-124618461D01*
X211838485Y-124570842D01*
X211790866Y-124475604D01*
X211743247Y-124285128D01*
X211743247Y-124047033D01*
X211790866Y-123856557D01*
X211838485Y-123761319D01*
X211886104Y-123713700D01*
X211981342Y-123666080D01*
X213505152Y-124666080D02*
X213505152Y-123999414D01*
X213505152Y-124094652D02*
X213552771Y-124047033D01*
X213648009Y-123999414D01*
X213790866Y-123999414D01*
X213886104Y-124047033D01*
X213933723Y-124142271D01*
X213933723Y-124666080D01*
X213933723Y-124142271D02*
X213981342Y-124047033D01*
X214076580Y-123999414D01*
X214219438Y-123999414D01*
X214314676Y-124047033D01*
X214362295Y-124142271D01*
X214362295Y-124666080D01*
X214838485Y-124666080D02*
X214838485Y-123999414D01*
X214838485Y-124094652D02*
X214886104Y-124047033D01*
X214981342Y-123999414D01*
X215124200Y-123999414D01*
X215219438Y-124047033D01*
X215267057Y-124142271D01*
X215267057Y-124666080D01*
X215267057Y-124142271D02*
X215314676Y-124047033D01*
X215409914Y-123999414D01*
X215552771Y-123999414D01*
X215648009Y-124047033D01*
X215695628Y-124142271D01*
X215695628Y-124666080D01*
X181124200Y-118913700D02*
X181124200Y-126000120D01*
X241124200Y-118913700D02*
X241124200Y-126000120D01*
X181124200Y-125413700D02*
X205714676Y-125413700D01*
X216533724Y-125413700D02*
X241124200Y-125413700D01*
X181124200Y-125413700D02*
X182250704Y-126000121D01*
X181124200Y-125413700D02*
X182250704Y-124827279D01*
X241124200Y-125413700D02*
X239997696Y-124827279D01*
X241124200Y-125413700D02*
X239997696Y-126000121D01*
D11*
D10*
X206457533Y-121666080D02*
X207076580Y-121666080D01*
X206743247Y-122047033D01*
X206886104Y-122047033D01*
X206981342Y-122094652D01*
X207028961Y-122142271D01*
X207076580Y-122237509D01*
X207076580Y-122475604D01*
X207028961Y-122570842D01*
X206981342Y-122618461D01*
X206886104Y-122666080D01*
X206600390Y-122666080D01*
X206505152Y-122618461D01*
X206457533Y-122570842D01*
X207933723Y-121999414D02*
X207933723Y-122666080D01*
X207695628Y-121618461D02*
X207457533Y-122332747D01*
X208076580Y-122332747D01*
X208457533Y-122570842D02*
X208505152Y-122618461D01*
X208457533Y-122666080D01*
X208409914Y-122618461D01*
X208457533Y-122570842D01*
X208457533Y-122666080D01*
X209124200Y-121666080D02*
X209219438Y-121666080D01*
X209314676Y-121713700D01*
X209362295Y-121761319D01*
X209409914Y-121856557D01*
X209457533Y-122047033D01*
X209457533Y-122285128D01*
X209409914Y-122475604D01*
X209362295Y-122570842D01*
X209314676Y-122618461D01*
X209219438Y-122666080D01*
X209124200Y-122666080D01*
X209028961Y-122618461D01*
X208981342Y-122570842D01*
X208933723Y-122475604D01*
X208886104Y-122285128D01*
X208886104Y-122047033D01*
X208933723Y-121856557D01*
X208981342Y-121761319D01*
X209028961Y-121713700D01*
X209124200Y-121666080D01*
X210076580Y-121666080D02*
X210171819Y-121666080D01*
X210267057Y-121713700D01*
X210314676Y-121761319D01*
X210362295Y-121856557D01*
X210409914Y-122047033D01*
X210409914Y-122285128D01*
X210362295Y-122475604D01*
X210314676Y-122570842D01*
X210267057Y-122618461D01*
X210171819Y-122666080D01*
X210076580Y-122666080D01*
X209981342Y-122618461D01*
X209933723Y-122570842D01*
X209886104Y-122475604D01*
X209838485Y-122285128D01*
X209838485Y-122047033D01*
X209886104Y-121856557D01*
X209933723Y-121761319D01*
X209981342Y-121713700D01*
X210076580Y-121666080D01*
X211028961Y-121666080D02*
X211124200Y-121666080D01*
X211219438Y-121713700D01*
X211267057Y-121761319D01*
X211314676Y-121856557D01*
X211362295Y-122047033D01*
X211362295Y-122285128D01*
X211314676Y-122475604D01*
X211267057Y-122570842D01*
X211219438Y-122618461D01*
X211124200Y-122666080D01*
X211028961Y-122666080D01*
X210933723Y-122618461D01*
X210886104Y-122570842D01*
X210838485Y-122475604D01*
X210790866Y-122285128D01*
X210790866Y-122047033D01*
X210838485Y-121856557D01*
X210886104Y-121761319D01*
X210933723Y-121713700D01*
X211028961Y-121666080D01*
X211981342Y-121666080D02*
X212076580Y-121666080D01*
X212171819Y-121713700D01*
X212219438Y-121761319D01*
X212267057Y-121856557D01*
X212314676Y-122047033D01*
X212314676Y-122285128D01*
X212267057Y-122475604D01*
X212219438Y-122570842D01*
X212171819Y-122618461D01*
X212076580Y-122666080D01*
X211981342Y-122666080D01*
X211886104Y-122618461D01*
X211838485Y-122570842D01*
X211790866Y-122475604D01*
X211743247Y-122285128D01*
X211743247Y-122047033D01*
X211790866Y-121856557D01*
X211838485Y-121761319D01*
X211886104Y-121713700D01*
X211981342Y-121666080D01*
X213505152Y-122666080D02*
X213505152Y-121999414D01*
X213505152Y-122094652D02*
X213552771Y-122047033D01*
X213648009Y-121999414D01*
X213790866Y-121999414D01*
X213886104Y-122047033D01*
X213933723Y-122142271D01*
X213933723Y-122666080D01*
X213933723Y-122142271D02*
X213981342Y-122047033D01*
X214076580Y-121999414D01*
X214219438Y-121999414D01*
X214314676Y-122047033D01*
X214362295Y-122142271D01*
X214362295Y-122666080D01*
X214838485Y-122666080D02*
X214838485Y-121999414D01*
X214838485Y-122094652D02*
X214886104Y-122047033D01*
X214981342Y-121999414D01*
X215124200Y-121999414D01*
X215219438Y-122047033D01*
X215267057Y-122142271D01*
X215267057Y-122666080D01*
X215267057Y-122142271D02*
X215314676Y-122047033D01*
X215409914Y-121999414D01*
X215552771Y-121999414D01*
X215648009Y-122047033D01*
X215695628Y-122142271D01*
X215695628Y-122666080D01*
X194124200Y-118913700D02*
X194124200Y-124000120D01*
X228124200Y-118913700D02*
X228124200Y-124000120D01*
X194124200Y-123413700D02*
X205714676Y-123413700D01*
X216533724Y-123413700D02*
X228124200Y-123413700D01*
X194124200Y-123413700D02*
X195250704Y-124000121D01*
X194124200Y-123413700D02*
X195250704Y-122827279D01*
X228124200Y-123413700D02*
X226997696Y-122827279D01*
X228124200Y-123413700D02*
X226997696Y-124000121D01*
D11*
%TO.C,M3*%
D10*
X200492295Y-76647580D02*
X200492295Y-75647580D01*
X200825628Y-76361866D01*
X201158961Y-75647580D01*
X201158961Y-76647580D01*
X201539914Y-75647580D02*
X202158961Y-75647580D01*
X201825628Y-76028533D01*
X201968485Y-76028533D01*
X202063723Y-76076152D01*
X202111342Y-76123771D01*
X202158961Y-76219009D01*
X202158961Y-76457104D01*
X202111342Y-76552342D01*
X202063723Y-76599961D01*
X201968485Y-76647580D01*
X201682771Y-76647580D01*
X201587533Y-76599961D01*
X201539914Y-76552342D01*
D11*
%TO.C,M2.5*%
D10*
X269600390Y-92366080D02*
X269600390Y-91366080D01*
X269933723Y-92080366D01*
X270267057Y-91366080D01*
X270267057Y-92366080D01*
X270695628Y-91461319D02*
X270743247Y-91413700D01*
X270838485Y-91366080D01*
X271076580Y-91366080D01*
X271171819Y-91413700D01*
X271219438Y-91461319D01*
X271267057Y-91556557D01*
X271267057Y-91651795D01*
X271219438Y-91794652D01*
X270648009Y-92366080D01*
X271267057Y-92366080D01*
X271695628Y-92270842D02*
X271743247Y-92318461D01*
X271695628Y-92366080D01*
X271648009Y-92318461D01*
X271695628Y-92270842D01*
X271695628Y-92366080D01*
X272648009Y-91366080D02*
X272171819Y-91366080D01*
X272124200Y-91842271D01*
X272171819Y-91794652D01*
X272267057Y-91747033D01*
X272505152Y-91747033D01*
X272600390Y-91794652D01*
X272648009Y-91842271D01*
X272695628Y-91937509D01*
X272695628Y-92175604D01*
X272648009Y-92270842D01*
X272600390Y-92318461D01*
X272505152Y-92366080D01*
X272267057Y-92366080D01*
X272171819Y-92318461D01*
X272124200Y-92270842D01*
D11*
%TO.C,M3*%
D10*
X152137057Y-76647580D02*
X152137057Y-75647580D01*
X152470390Y-76361866D01*
X152803723Y-75647580D01*
X152803723Y-76647580D01*
X153184676Y-75647580D02*
X153803723Y-75647580D01*
X153470390Y-76028533D01*
X153613247Y-76028533D01*
X153708485Y-76076152D01*
X153756104Y-76123771D01*
X153803723Y-76219009D01*
X153803723Y-76457104D01*
X153756104Y-76552342D01*
X153708485Y-76599961D01*
X153613247Y-76647580D01*
X153327533Y-76647580D01*
X153232295Y-76599961D01*
X153184676Y-76552342D01*
D11*
%TO.C,M2.5*%
D10*
X92600390Y-87366080D02*
X92600390Y-86366080D01*
X92933723Y-87080366D01*
X93267057Y-86366080D01*
X93267057Y-87366080D01*
X93695628Y-86461319D02*
X93743247Y-86413700D01*
X93838485Y-86366080D01*
X94076580Y-86366080D01*
X94171819Y-86413700D01*
X94219438Y-86461319D01*
X94267057Y-86556557D01*
X94267057Y-86651795D01*
X94219438Y-86794652D01*
X93648009Y-87366080D01*
X94267057Y-87366080D01*
X94695628Y-87270842D02*
X94743247Y-87318461D01*
X94695628Y-87366080D01*
X94648009Y-87318461D01*
X94695628Y-87270842D01*
X94695628Y-87366080D01*
X95648009Y-86366080D02*
X95171819Y-86366080D01*
X95124200Y-86842271D01*
X95171819Y-86794652D01*
X95267057Y-86747033D01*
X95505152Y-86747033D01*
X95600390Y-86794652D01*
X95648009Y-86842271D01*
X95695628Y-86937509D01*
X95695628Y-87175604D01*
X95648009Y-87270842D01*
X95600390Y-87318461D01*
X95505152Y-87366080D01*
X95267057Y-87366080D01*
X95171819Y-87318461D01*
X95124200Y-87270842D01*
D11*
D10*
X149600390Y-87366080D02*
X149600390Y-86366080D01*
X149933723Y-87080366D01*
X150267057Y-86366080D01*
X150267057Y-87366080D01*
X150695628Y-86461319D02*
X150743247Y-86413700D01*
X150838485Y-86366080D01*
X151076580Y-86366080D01*
X151171819Y-86413700D01*
X151219438Y-86461319D01*
X151267057Y-86556557D01*
X151267057Y-86651795D01*
X151219438Y-86794652D01*
X150648009Y-87366080D01*
X151267057Y-87366080D01*
X151695628Y-87270842D02*
X151743247Y-87318461D01*
X151695628Y-87366080D01*
X151648009Y-87318461D01*
X151695628Y-87270842D01*
X151695628Y-87366080D01*
X152648009Y-86366080D02*
X152171819Y-86366080D01*
X152124200Y-86842271D01*
X152171819Y-86794652D01*
X152267057Y-86747033D01*
X152505152Y-86747033D01*
X152600390Y-86794652D01*
X152648009Y-86842271D01*
X152695628Y-86937509D01*
X152695628Y-87175604D01*
X152648009Y-87270842D01*
X152600390Y-87318461D01*
X152505152Y-87366080D01*
X152267057Y-87366080D01*
X152171819Y-87318461D01*
X152124200Y-87270842D01*
D11*
%TO.C,M3*%
D10*
X403977476Y-80847580D02*
X403977476Y-79847580D01*
X404310809Y-80561866D01*
X404644142Y-79847580D01*
X404644142Y-80847580D01*
X405025095Y-79847580D02*
X405644142Y-79847580D01*
X405310809Y-80228533D01*
X405453666Y-80228533D01*
X405548904Y-80276152D01*
X405596523Y-80323771D01*
X405644142Y-80419009D01*
X405644142Y-80657104D01*
X405596523Y-80752342D01*
X405548904Y-80799961D01*
X405453666Y-80847580D01*
X405167952Y-80847580D01*
X405072714Y-80799961D01*
X405025095Y-80752342D01*
D11*
%TO.C,M2.5*%
D10*
X195600390Y-87366080D02*
X195600390Y-86366080D01*
X195933723Y-87080366D01*
X196267057Y-86366080D01*
X196267057Y-87366080D01*
X196695628Y-86461319D02*
X196743247Y-86413700D01*
X196838485Y-86366080D01*
X197076580Y-86366080D01*
X197171819Y-86413700D01*
X197219438Y-86461319D01*
X197267057Y-86556557D01*
X197267057Y-86651795D01*
X197219438Y-86794652D01*
X196648009Y-87366080D01*
X197267057Y-87366080D01*
X197695628Y-87270842D02*
X197743247Y-87318461D01*
X197695628Y-87366080D01*
X197648009Y-87318461D01*
X197695628Y-87270842D01*
X197695628Y-87366080D01*
X198648009Y-86366080D02*
X198171819Y-86366080D01*
X198124200Y-86842271D01*
X198171819Y-86794652D01*
X198267057Y-86747033D01*
X198505152Y-86747033D01*
X198600390Y-86794652D01*
X198648009Y-86842271D01*
X198695628Y-86937509D01*
X198695628Y-87175604D01*
X198648009Y-87270842D01*
X198600390Y-87318461D01*
X198505152Y-87366080D01*
X198267057Y-87366080D01*
X198171819Y-87318461D01*
X198124200Y-87270842D01*
D11*
%TO.C,M3*%
D10*
X352637057Y-76647580D02*
X352637057Y-75647580D01*
X352970390Y-76361866D01*
X353303723Y-75647580D01*
X353303723Y-76647580D01*
X353684676Y-75647580D02*
X354303723Y-75647580D01*
X353970390Y-76028533D01*
X354113247Y-76028533D01*
X354208485Y-76076152D01*
X354256104Y-76123771D01*
X354303723Y-76219009D01*
X354303723Y-76457104D01*
X354256104Y-76552342D01*
X354208485Y-76599961D01*
X354113247Y-76647580D01*
X353827533Y-76647580D01*
X353732295Y-76599961D01*
X353684676Y-76552342D01*
D11*
%TO.C,M2.5*%
D10*
X92600390Y-92366080D02*
X92600390Y-91366080D01*
X92933723Y-92080366D01*
X93267057Y-91366080D01*
X93267057Y-92366080D01*
X93695628Y-91461319D02*
X93743247Y-91413700D01*
X93838485Y-91366080D01*
X94076580Y-91366080D01*
X94171819Y-91413700D01*
X94219438Y-91461319D01*
X94267057Y-91556557D01*
X94267057Y-91651795D01*
X94219438Y-91794652D01*
X93648009Y-92366080D01*
X94267057Y-92366080D01*
X94695628Y-92270842D02*
X94743247Y-92318461D01*
X94695628Y-92366080D01*
X94648009Y-92318461D01*
X94695628Y-92270842D01*
X94695628Y-92366080D01*
X95648009Y-91366080D02*
X95171819Y-91366080D01*
X95124200Y-91842271D01*
X95171819Y-91794652D01*
X95267057Y-91747033D01*
X95505152Y-91747033D01*
X95600390Y-91794652D01*
X95648009Y-91842271D01*
X95695628Y-91937509D01*
X95695628Y-92175604D01*
X95648009Y-92270842D01*
X95600390Y-92318461D01*
X95505152Y-92366080D01*
X95267057Y-92366080D01*
X95171819Y-92318461D01*
X95124200Y-92270842D01*
D11*
%TO.C,M2*%
D10*
X217314676Y-85616080D02*
X217314676Y-84616080D01*
X217648009Y-85330366D01*
X217981342Y-84616080D01*
X217981342Y-85616080D01*
X218409914Y-84711319D02*
X218457533Y-84663700D01*
X218552771Y-84616080D01*
X218790866Y-84616080D01*
X218886104Y-84663700D01*
X218933723Y-84711319D01*
X218981342Y-84806557D01*
X218981342Y-84901795D01*
X218933723Y-85044652D01*
X218362295Y-85616080D01*
X218981342Y-85616080D01*
D11*
%TO.C,M2.5*%
D10*
X195600390Y-112366080D02*
X195600390Y-111366080D01*
X195933723Y-112080366D01*
X196267057Y-111366080D01*
X196267057Y-112366080D01*
X196695628Y-111461319D02*
X196743247Y-111413700D01*
X196838485Y-111366080D01*
X197076580Y-111366080D01*
X197171819Y-111413700D01*
X197219438Y-111461319D01*
X197267057Y-111556557D01*
X197267057Y-111651795D01*
X197219438Y-111794652D01*
X196648009Y-112366080D01*
X197267057Y-112366080D01*
X197695628Y-112270842D02*
X197743247Y-112318461D01*
X197695628Y-112366080D01*
X197648009Y-112318461D01*
X197695628Y-112270842D01*
X197695628Y-112366080D01*
X198648009Y-111366080D02*
X198171819Y-111366080D01*
X198124200Y-111842271D01*
X198171819Y-111794652D01*
X198267057Y-111747033D01*
X198505152Y-111747033D01*
X198600390Y-111794652D01*
X198648009Y-111842271D01*
X198695628Y-111937509D01*
X198695628Y-112175604D01*
X198648009Y-112270842D01*
X198600390Y-112318461D01*
X198505152Y-112366080D01*
X198267057Y-112366080D01*
X198171819Y-112318461D01*
X198124200Y-112270842D01*
D11*
D10*
X350600390Y-87366080D02*
X350600390Y-86366080D01*
X350933723Y-87080366D01*
X351267057Y-86366080D01*
X351267057Y-87366080D01*
X351695628Y-86461319D02*
X351743247Y-86413700D01*
X351838485Y-86366080D01*
X352076580Y-86366080D01*
X352171819Y-86413700D01*
X352219438Y-86461319D01*
X352267057Y-86556557D01*
X352267057Y-86651795D01*
X352219438Y-86794652D01*
X351648009Y-87366080D01*
X352267057Y-87366080D01*
X352695628Y-87270842D02*
X352743247Y-87318461D01*
X352695628Y-87366080D01*
X352648009Y-87318461D01*
X352695628Y-87270842D01*
X352695628Y-87366080D01*
X353648009Y-86366080D02*
X353171819Y-86366080D01*
X353124200Y-86842271D01*
X353171819Y-86794652D01*
X353267057Y-86747033D01*
X353505152Y-86747033D01*
X353600390Y-86794652D01*
X353648009Y-86842271D01*
X353695628Y-86937509D01*
X353695628Y-87175604D01*
X353648009Y-87270842D01*
X353600390Y-87318461D01*
X353505152Y-87366080D01*
X353267057Y-87366080D01*
X353171819Y-87318461D01*
X353124200Y-87270842D01*
D11*
D10*
X125600390Y-87366080D02*
X125600390Y-86366080D01*
X125933723Y-87080366D01*
X126267057Y-86366080D01*
X126267057Y-87366080D01*
X126695628Y-86461319D02*
X126743247Y-86413700D01*
X126838485Y-86366080D01*
X127076580Y-86366080D01*
X127171819Y-86413700D01*
X127219438Y-86461319D01*
X127267057Y-86556557D01*
X127267057Y-86651795D01*
X127219438Y-86794652D01*
X126648009Y-87366080D01*
X127267057Y-87366080D01*
X127695628Y-87270842D02*
X127743247Y-87318461D01*
X127695628Y-87366080D01*
X127648009Y-87318461D01*
X127695628Y-87270842D01*
X127695628Y-87366080D01*
X128648009Y-86366080D02*
X128171819Y-86366080D01*
X128124200Y-86842271D01*
X128171819Y-86794652D01*
X128267057Y-86747033D01*
X128505152Y-86747033D01*
X128600390Y-86794652D01*
X128648009Y-86842271D01*
X128695628Y-86937509D01*
X128695628Y-87175604D01*
X128648009Y-87270842D01*
X128600390Y-87318461D01*
X128505152Y-87366080D01*
X128267057Y-87366080D01*
X128171819Y-87318461D01*
X128124200Y-87270842D01*
D11*
D10*
X68600390Y-92366080D02*
X68600390Y-91366080D01*
X68933723Y-92080366D01*
X69267057Y-91366080D01*
X69267057Y-92366080D01*
X69695628Y-91461319D02*
X69743247Y-91413700D01*
X69838485Y-91366080D01*
X70076580Y-91366080D01*
X70171819Y-91413700D01*
X70219438Y-91461319D01*
X70267057Y-91556557D01*
X70267057Y-91651795D01*
X70219438Y-91794652D01*
X69648009Y-92366080D01*
X70267057Y-92366080D01*
X70695628Y-92270842D02*
X70743247Y-92318461D01*
X70695628Y-92366080D01*
X70648009Y-92318461D01*
X70695628Y-92270842D01*
X70695628Y-92366080D01*
X71648009Y-91366080D02*
X71171819Y-91366080D01*
X71124200Y-91842271D01*
X71171819Y-91794652D01*
X71267057Y-91747033D01*
X71505152Y-91747033D01*
X71600390Y-91794652D01*
X71648009Y-91842271D01*
X71695628Y-91937509D01*
X71695628Y-92175604D01*
X71648009Y-92270842D01*
X71600390Y-92318461D01*
X71505152Y-92366080D01*
X71267057Y-92366080D01*
X71171819Y-92318461D01*
X71124200Y-92270842D01*
D11*
D10*
X236600390Y-87366080D02*
X236600390Y-86366080D01*
X236933723Y-87080366D01*
X237267057Y-86366080D01*
X237267057Y-87366080D01*
X237695628Y-86461319D02*
X237743247Y-86413700D01*
X237838485Y-86366080D01*
X238076580Y-86366080D01*
X238171819Y-86413700D01*
X238219438Y-86461319D01*
X238267057Y-86556557D01*
X238267057Y-86651795D01*
X238219438Y-86794652D01*
X237648009Y-87366080D01*
X238267057Y-87366080D01*
X238695628Y-87270842D02*
X238743247Y-87318461D01*
X238695628Y-87366080D01*
X238648009Y-87318461D01*
X238695628Y-87270842D01*
X238695628Y-87366080D01*
X239648009Y-86366080D02*
X239171819Y-86366080D01*
X239124200Y-86842271D01*
X239171819Y-86794652D01*
X239267057Y-86747033D01*
X239505152Y-86747033D01*
X239600390Y-86794652D01*
X239648009Y-86842271D01*
X239695628Y-86937509D01*
X239695628Y-87175604D01*
X239648009Y-87270842D01*
X239600390Y-87318461D01*
X239505152Y-87366080D01*
X239267057Y-87366080D01*
X239171819Y-87318461D01*
X239124200Y-87270842D01*
D11*
D10*
X33632281Y-105656009D02*
X32632281Y-105656009D01*
X33346567Y-105322676D01*
X32632281Y-104989342D01*
X33632281Y-104989342D01*
X32727520Y-104560771D02*
X32679901Y-104513152D01*
X32632281Y-104417914D01*
X32632281Y-104179819D01*
X32679901Y-104084580D01*
X32727520Y-104036961D01*
X32822758Y-103989342D01*
X32917996Y-103989342D01*
X33060853Y-104036961D01*
X33632281Y-104608390D01*
X33632281Y-103989342D01*
X33537043Y-103560771D02*
X33584662Y-103513152D01*
X33632281Y-103560771D01*
X33584662Y-103608390D01*
X33537043Y-103560771D01*
X33632281Y-103560771D01*
X32632281Y-102608390D02*
X32632281Y-103084580D01*
X33108472Y-103132200D01*
X33060853Y-103084580D01*
X33013234Y-102989342D01*
X33013234Y-102751247D01*
X33060853Y-102656009D01*
X33108472Y-102608390D01*
X33203710Y-102560771D01*
X33441805Y-102560771D01*
X33537043Y-102608390D01*
X33584662Y-102656009D01*
X33632281Y-102751247D01*
X33632281Y-102989342D01*
X33584662Y-103084580D01*
X33537043Y-103132200D01*
D11*
D10*
X28632281Y-129656009D02*
X27632281Y-129656009D01*
X28346567Y-129322676D01*
X27632281Y-128989342D01*
X28632281Y-128989342D01*
X27727520Y-128560771D02*
X27679901Y-128513152D01*
X27632281Y-128417914D01*
X27632281Y-128179819D01*
X27679901Y-128084580D01*
X27727520Y-128036961D01*
X27822758Y-127989342D01*
X27917996Y-127989342D01*
X28060853Y-128036961D01*
X28632281Y-128608390D01*
X28632281Y-127989342D01*
X28537043Y-127560771D02*
X28584662Y-127513152D01*
X28632281Y-127560771D01*
X28584662Y-127608390D01*
X28537043Y-127560771D01*
X28632281Y-127560771D01*
X27632281Y-126608390D02*
X27632281Y-127084580D01*
X28108472Y-127132200D01*
X28060853Y-127084580D01*
X28013234Y-126989342D01*
X28013234Y-126751247D01*
X28060853Y-126656009D01*
X28108472Y-126608390D01*
X28203710Y-126560771D01*
X28441805Y-126560771D01*
X28537043Y-126608390D01*
X28584662Y-126656009D01*
X28632281Y-126751247D01*
X28632281Y-126989342D01*
X28584662Y-127084580D01*
X28537043Y-127132200D01*
D11*
%TO.C,M2*%
D10*
X203314676Y-85616080D02*
X203314676Y-84616080D01*
X203648009Y-85330366D01*
X203981342Y-84616080D01*
X203981342Y-85616080D01*
X204409914Y-84711319D02*
X204457533Y-84663700D01*
X204552771Y-84616080D01*
X204790866Y-84616080D01*
X204886104Y-84663700D01*
X204933723Y-84711319D01*
X204981342Y-84806557D01*
X204981342Y-84901795D01*
X204933723Y-85044652D01*
X204362295Y-85616080D01*
X204981342Y-85616080D01*
D11*
%TO.C,M2.5*%
D10*
X326600390Y-92366080D02*
X326600390Y-91366080D01*
X326933723Y-92080366D01*
X327267057Y-91366080D01*
X327267057Y-92366080D01*
X327695628Y-91461319D02*
X327743247Y-91413700D01*
X327838485Y-91366080D01*
X328076580Y-91366080D01*
X328171819Y-91413700D01*
X328219438Y-91461319D01*
X328267057Y-91556557D01*
X328267057Y-91651795D01*
X328219438Y-91794652D01*
X327648009Y-92366080D01*
X328267057Y-92366080D01*
X328695628Y-92270842D02*
X328743247Y-92318461D01*
X328695628Y-92366080D01*
X328648009Y-92318461D01*
X328695628Y-92270842D01*
X328695628Y-92366080D01*
X329648009Y-91366080D02*
X329171819Y-91366080D01*
X329124200Y-91842271D01*
X329171819Y-91794652D01*
X329267057Y-91747033D01*
X329505152Y-91747033D01*
X329600390Y-91794652D01*
X329648009Y-91842271D01*
X329695628Y-91937509D01*
X329695628Y-92175604D01*
X329648009Y-92270842D01*
X329600390Y-92318461D01*
X329505152Y-92366080D01*
X329267057Y-92366080D01*
X329171819Y-92318461D01*
X329124200Y-92270842D01*
D11*
%TO.C,M2*%
D10*
X217314676Y-92616080D02*
X217314676Y-91616080D01*
X217648009Y-92330366D01*
X217981342Y-91616080D01*
X217981342Y-92616080D01*
X218409914Y-91711319D02*
X218457533Y-91663700D01*
X218552771Y-91616080D01*
X218790866Y-91616080D01*
X218886104Y-91663700D01*
X218933723Y-91711319D01*
X218981342Y-91806557D01*
X218981342Y-91901795D01*
X218933723Y-92044652D01*
X218362295Y-92616080D01*
X218981342Y-92616080D01*
D11*
%TO.C,M2.5*%
D10*
X236600390Y-112366080D02*
X236600390Y-111366080D01*
X236933723Y-112080366D01*
X237267057Y-111366080D01*
X237267057Y-112366080D01*
X237695628Y-111461319D02*
X237743247Y-111413700D01*
X237838485Y-111366080D01*
X238076580Y-111366080D01*
X238171819Y-111413700D01*
X238219438Y-111461319D01*
X238267057Y-111556557D01*
X238267057Y-111651795D01*
X238219438Y-111794652D01*
X237648009Y-112366080D01*
X238267057Y-112366080D01*
X238695628Y-112270842D02*
X238743247Y-112318461D01*
X238695628Y-112366080D01*
X238648009Y-112318461D01*
X238695628Y-112270842D01*
X238695628Y-112366080D01*
X239648009Y-111366080D02*
X239171819Y-111366080D01*
X239124200Y-111842271D01*
X239171819Y-111794652D01*
X239267057Y-111747033D01*
X239505152Y-111747033D01*
X239600390Y-111794652D01*
X239648009Y-111842271D01*
X239695628Y-111937509D01*
X239695628Y-112175604D01*
X239648009Y-112270842D01*
X239600390Y-112318461D01*
X239505152Y-112366080D01*
X239267057Y-112366080D01*
X239171819Y-112318461D01*
X239124200Y-112270842D01*
D11*
%TO.C,M3*%
D10*
X124510495Y-76647580D02*
X124510495Y-75647580D01*
X124843828Y-76361866D01*
X125177161Y-75647580D01*
X125177161Y-76647580D01*
X125558114Y-75647580D02*
X126177161Y-75647580D01*
X125843828Y-76028533D01*
X125986685Y-76028533D01*
X126081923Y-76076152D01*
X126129542Y-76123771D01*
X126177161Y-76219009D01*
X126177161Y-76457104D01*
X126129542Y-76552342D01*
X126081923Y-76599961D01*
X125986685Y-76647580D01*
X125700971Y-76647580D01*
X125605733Y-76599961D01*
X125558114Y-76552342D01*
D11*
%TO.C,M2.5*%
D10*
X68600390Y-87366080D02*
X68600390Y-86366080D01*
X68933723Y-87080366D01*
X69267057Y-86366080D01*
X69267057Y-87366080D01*
X69695628Y-86461319D02*
X69743247Y-86413700D01*
X69838485Y-86366080D01*
X70076580Y-86366080D01*
X70171819Y-86413700D01*
X70219438Y-86461319D01*
X70267057Y-86556557D01*
X70267057Y-86651795D01*
X70219438Y-86794652D01*
X69648009Y-87366080D01*
X70267057Y-87366080D01*
X70695628Y-87270842D02*
X70743247Y-87318461D01*
X70695628Y-87366080D01*
X70648009Y-87318461D01*
X70695628Y-87270842D01*
X70695628Y-87366080D01*
X71648009Y-86366080D02*
X71171819Y-86366080D01*
X71124200Y-86842271D01*
X71171819Y-86794652D01*
X71267057Y-86747033D01*
X71505152Y-86747033D01*
X71600390Y-86794652D01*
X71648009Y-86842271D01*
X71695628Y-86937509D01*
X71695628Y-87175604D01*
X71648009Y-87270842D01*
X71600390Y-87318461D01*
X71505152Y-87366080D01*
X71267057Y-87366080D01*
X71171819Y-87318461D01*
X71124200Y-87270842D01*
D11*
%TO.C,M3*%
D10*
X95137057Y-76647580D02*
X95137057Y-75647580D01*
X95470390Y-76361866D01*
X95803723Y-75647580D01*
X95803723Y-76647580D01*
X96184676Y-75647580D02*
X96803723Y-75647580D01*
X96470390Y-76028533D01*
X96613247Y-76028533D01*
X96708485Y-76076152D01*
X96756104Y-76123771D01*
X96803723Y-76219009D01*
X96803723Y-76457104D01*
X96756104Y-76552342D01*
X96708485Y-76599961D01*
X96613247Y-76647580D01*
X96327533Y-76647580D01*
X96232295Y-76599961D01*
X96184676Y-76552342D01*
D11*
%TO.C,M2.5*%
D10*
X149600390Y-92366080D02*
X149600390Y-91366080D01*
X149933723Y-92080366D01*
X150267057Y-91366080D01*
X150267057Y-92366080D01*
X150695628Y-91461319D02*
X150743247Y-91413700D01*
X150838485Y-91366080D01*
X151076580Y-91366080D01*
X151171819Y-91413700D01*
X151219438Y-91461319D01*
X151267057Y-91556557D01*
X151267057Y-91651795D01*
X151219438Y-91794652D01*
X150648009Y-92366080D01*
X151267057Y-92366080D01*
X151695628Y-92270842D02*
X151743247Y-92318461D01*
X151695628Y-92366080D01*
X151648009Y-92318461D01*
X151695628Y-92270842D01*
X151695628Y-92366080D01*
X152648009Y-91366080D02*
X152171819Y-91366080D01*
X152124200Y-91842271D01*
X152171819Y-91794652D01*
X152267057Y-91747033D01*
X152505152Y-91747033D01*
X152600390Y-91794652D01*
X152648009Y-91842271D01*
X152695628Y-91937509D01*
X152695628Y-92175604D01*
X152648009Y-92270842D01*
X152600390Y-92318461D01*
X152505152Y-92366080D01*
X152267057Y-92366080D01*
X152171819Y-92318461D01*
X152124200Y-92270842D01*
D11*
%TO.C,M3*%
D10*
X405239380Y-130764104D02*
X404239380Y-130764104D01*
X404953666Y-130430771D01*
X404239380Y-130097438D01*
X405239380Y-130097438D01*
X404239380Y-129716485D02*
X404239380Y-129097438D01*
X404620333Y-129430771D01*
X404620333Y-129287914D01*
X404667952Y-129192676D01*
X404715571Y-129145057D01*
X404810809Y-129097438D01*
X405048904Y-129097438D01*
X405144142Y-129145057D01*
X405191761Y-129192676D01*
X405239380Y-129287914D01*
X405239380Y-129573628D01*
X405191761Y-129668866D01*
X405144142Y-129716485D01*
D11*
%TO.C,M2.5*%
D10*
X293600390Y-92366080D02*
X293600390Y-91366080D01*
X293933723Y-92080366D01*
X294267057Y-91366080D01*
X294267057Y-92366080D01*
X294695628Y-91461319D02*
X294743247Y-91413700D01*
X294838485Y-91366080D01*
X295076580Y-91366080D01*
X295171819Y-91413700D01*
X295219438Y-91461319D01*
X295267057Y-91556557D01*
X295267057Y-91651795D01*
X295219438Y-91794652D01*
X294648009Y-92366080D01*
X295267057Y-92366080D01*
X295695628Y-92270842D02*
X295743247Y-92318461D01*
X295695628Y-92366080D01*
X295648009Y-92318461D01*
X295695628Y-92270842D01*
X295695628Y-92366080D01*
X296648009Y-91366080D02*
X296171819Y-91366080D01*
X296124200Y-91842271D01*
X296171819Y-91794652D01*
X296267057Y-91747033D01*
X296505152Y-91747033D01*
X296600390Y-91794652D01*
X296648009Y-91842271D01*
X296695628Y-91937509D01*
X296695628Y-92175604D01*
X296648009Y-92270842D01*
X296600390Y-92318461D01*
X296505152Y-92366080D01*
X296267057Y-92366080D01*
X296171819Y-92318461D01*
X296124200Y-92270842D01*
D11*
D10*
X326600390Y-87366080D02*
X326600390Y-86366080D01*
X326933723Y-87080366D01*
X327267057Y-86366080D01*
X327267057Y-87366080D01*
X327695628Y-86461319D02*
X327743247Y-86413700D01*
X327838485Y-86366080D01*
X328076580Y-86366080D01*
X328171819Y-86413700D01*
X328219438Y-86461319D01*
X328267057Y-86556557D01*
X328267057Y-86651795D01*
X328219438Y-86794652D01*
X327648009Y-87366080D01*
X328267057Y-87366080D01*
X328695628Y-87270842D02*
X328743247Y-87318461D01*
X328695628Y-87366080D01*
X328648009Y-87318461D01*
X328695628Y-87270842D01*
X328695628Y-87366080D01*
X329648009Y-86366080D02*
X329171819Y-86366080D01*
X329124200Y-86842271D01*
X329171819Y-86794652D01*
X329267057Y-86747033D01*
X329505152Y-86747033D01*
X329600390Y-86794652D01*
X329648009Y-86842271D01*
X329695628Y-86937509D01*
X329695628Y-87175604D01*
X329648009Y-87270842D01*
X329600390Y-87318461D01*
X329505152Y-87366080D01*
X329267057Y-87366080D01*
X329171819Y-87318461D01*
X329124200Y-87270842D01*
D11*
%TO.C,M3*%
D10*
X16651876Y-80847580D02*
X16651876Y-79847580D01*
X16985209Y-80561866D01*
X17318542Y-79847580D01*
X17318542Y-80847580D01*
X17699495Y-79847580D02*
X18318542Y-79847580D01*
X17985209Y-80228533D01*
X18128066Y-80228533D01*
X18223304Y-80276152D01*
X18270923Y-80323771D01*
X18318542Y-80419009D01*
X18318542Y-80657104D01*
X18270923Y-80752342D01*
X18223304Y-80799961D01*
X18128066Y-80847580D01*
X17842352Y-80847580D01*
X17747114Y-80799961D01*
X17699495Y-80752342D01*
D11*
%TO.C,M2.5*%
D10*
X28632281Y-105656009D02*
X27632281Y-105656009D01*
X28346567Y-105322676D01*
X27632281Y-104989342D01*
X28632281Y-104989342D01*
X27727520Y-104560771D02*
X27679901Y-104513152D01*
X27632281Y-104417914D01*
X27632281Y-104179819D01*
X27679901Y-104084580D01*
X27727520Y-104036961D01*
X27822758Y-103989342D01*
X27917996Y-103989342D01*
X28060853Y-104036961D01*
X28632281Y-104608390D01*
X28632281Y-103989342D01*
X28537043Y-103560771D02*
X28584662Y-103513152D01*
X28632281Y-103560771D01*
X28584662Y-103608390D01*
X28537043Y-103560771D01*
X28632281Y-103560771D01*
X27632281Y-102608390D02*
X27632281Y-103084580D01*
X28108472Y-103132200D01*
X28060853Y-103084580D01*
X28013234Y-102989342D01*
X28013234Y-102751247D01*
X28060853Y-102656009D01*
X28108472Y-102608390D01*
X28203710Y-102560771D01*
X28441805Y-102560771D01*
X28537043Y-102608390D01*
X28584662Y-102656009D01*
X28632281Y-102751247D01*
X28632281Y-102989342D01*
X28584662Y-103084580D01*
X28537043Y-103132200D01*
D11*
%TO.C,M3*%
D10*
X220137057Y-76647580D02*
X220137057Y-75647580D01*
X220470390Y-76361866D01*
X220803723Y-75647580D01*
X220803723Y-76647580D01*
X221184676Y-75647580D02*
X221803723Y-75647580D01*
X221470390Y-76028533D01*
X221613247Y-76028533D01*
X221708485Y-76076152D01*
X221756104Y-76123771D01*
X221803723Y-76219009D01*
X221803723Y-76457104D01*
X221756104Y-76552342D01*
X221708485Y-76599961D01*
X221613247Y-76647580D01*
X221327533Y-76647580D01*
X221232295Y-76599961D01*
X221184676Y-76552342D01*
D11*
%TO.C,M2.5*%
D10*
X33632281Y-129656009D02*
X32632281Y-129656009D01*
X33346567Y-129322676D01*
X32632281Y-128989342D01*
X33632281Y-128989342D01*
X32727520Y-128560771D02*
X32679901Y-128513152D01*
X32632281Y-128417914D01*
X32632281Y-128179819D01*
X32679901Y-128084580D01*
X32727520Y-128036961D01*
X32822758Y-127989342D01*
X32917996Y-127989342D01*
X33060853Y-128036961D01*
X33632281Y-128608390D01*
X33632281Y-127989342D01*
X33537043Y-127560771D02*
X33584662Y-127513152D01*
X33632281Y-127560771D01*
X33584662Y-127608390D01*
X33537043Y-127560771D01*
X33632281Y-127560771D01*
X32632281Y-126608390D02*
X32632281Y-127084580D01*
X33108472Y-127132200D01*
X33060853Y-127084580D01*
X33013234Y-126989342D01*
X33013234Y-126751247D01*
X33060853Y-126656009D01*
X33108472Y-126608390D01*
X33203710Y-126560771D01*
X33441805Y-126560771D01*
X33537043Y-126608390D01*
X33584662Y-126656009D01*
X33632281Y-126751247D01*
X33632281Y-126989342D01*
X33584662Y-127084580D01*
X33537043Y-127132200D01*
D11*
D10*
X269600390Y-87366080D02*
X269600390Y-86366080D01*
X269933723Y-87080366D01*
X270267057Y-86366080D01*
X270267057Y-87366080D01*
X270695628Y-86461319D02*
X270743247Y-86413700D01*
X270838485Y-86366080D01*
X271076580Y-86366080D01*
X271171819Y-86413700D01*
X271219438Y-86461319D01*
X271267057Y-86556557D01*
X271267057Y-86651795D01*
X271219438Y-86794652D01*
X270648009Y-87366080D01*
X271267057Y-87366080D01*
X271695628Y-87270842D02*
X271743247Y-87318461D01*
X271695628Y-87366080D01*
X271648009Y-87318461D01*
X271695628Y-87270842D01*
X271695628Y-87366080D01*
X272648009Y-86366080D02*
X272171819Y-86366080D01*
X272124200Y-86842271D01*
X272171819Y-86794652D01*
X272267057Y-86747033D01*
X272505152Y-86747033D01*
X272600390Y-86794652D01*
X272648009Y-86842271D01*
X272695628Y-86937509D01*
X272695628Y-87175604D01*
X272648009Y-87270842D01*
X272600390Y-87318461D01*
X272505152Y-87366080D01*
X272267057Y-87366080D01*
X272171819Y-87318461D01*
X272124200Y-87270842D01*
D11*
D10*
X182600390Y-112366080D02*
X182600390Y-111366080D01*
X182933723Y-112080366D01*
X183267057Y-111366080D01*
X183267057Y-112366080D01*
X183695628Y-111461319D02*
X183743247Y-111413700D01*
X183838485Y-111366080D01*
X184076580Y-111366080D01*
X184171819Y-111413700D01*
X184219438Y-111461319D01*
X184267057Y-111556557D01*
X184267057Y-111651795D01*
X184219438Y-111794652D01*
X183648009Y-112366080D01*
X184267057Y-112366080D01*
X184695628Y-112270842D02*
X184743247Y-112318461D01*
X184695628Y-112366080D01*
X184648009Y-112318461D01*
X184695628Y-112270842D01*
X184695628Y-112366080D01*
X185648009Y-111366080D02*
X185171819Y-111366080D01*
X185124200Y-111842271D01*
X185171819Y-111794652D01*
X185267057Y-111747033D01*
X185505152Y-111747033D01*
X185600390Y-111794652D01*
X185648009Y-111842271D01*
X185695628Y-111937509D01*
X185695628Y-112175604D01*
X185648009Y-112270842D01*
X185600390Y-112318461D01*
X185505152Y-112366080D01*
X185267057Y-112366080D01*
X185171819Y-112318461D01*
X185124200Y-112270842D01*
D11*
%TO.C,M3*%
D10*
X67992295Y-76647580D02*
X67992295Y-75647580D01*
X68325628Y-76361866D01*
X68658961Y-75647580D01*
X68658961Y-76647580D01*
X69039914Y-75647580D02*
X69658961Y-75647580D01*
X69325628Y-76028533D01*
X69468485Y-76028533D01*
X69563723Y-76076152D01*
X69611342Y-76123771D01*
X69658961Y-76219009D01*
X69658961Y-76457104D01*
X69611342Y-76552342D01*
X69563723Y-76599961D01*
X69468485Y-76647580D01*
X69182771Y-76647580D01*
X69087533Y-76599961D01*
X69039914Y-76552342D01*
D11*
D10*
X405239380Y-103112242D02*
X404239380Y-103112242D01*
X404953666Y-102778909D01*
X404239380Y-102445576D01*
X405239380Y-102445576D01*
X404239380Y-102064623D02*
X404239380Y-101445576D01*
X404620333Y-101778909D01*
X404620333Y-101636052D01*
X404667952Y-101540814D01*
X404715571Y-101493195D01*
X404810809Y-101445576D01*
X405048904Y-101445576D01*
X405144142Y-101493195D01*
X405191761Y-101540814D01*
X405239380Y-101636052D01*
X405239380Y-101921766D01*
X405191761Y-102017004D01*
X405144142Y-102064623D01*
D11*
%TO.C,M2.5*%
D10*
X293600390Y-87366080D02*
X293600390Y-86366080D01*
X293933723Y-87080366D01*
X294267057Y-86366080D01*
X294267057Y-87366080D01*
X294695628Y-86461319D02*
X294743247Y-86413700D01*
X294838485Y-86366080D01*
X295076580Y-86366080D01*
X295171819Y-86413700D01*
X295219438Y-86461319D01*
X295267057Y-86556557D01*
X295267057Y-86651795D01*
X295219438Y-86794652D01*
X294648009Y-87366080D01*
X295267057Y-87366080D01*
X295695628Y-87270842D02*
X295743247Y-87318461D01*
X295695628Y-87366080D01*
X295648009Y-87318461D01*
X295695628Y-87270842D01*
X295695628Y-87366080D01*
X296648009Y-86366080D02*
X296171819Y-86366080D01*
X296124200Y-86842271D01*
X296171819Y-86794652D01*
X296267057Y-86747033D01*
X296505152Y-86747033D01*
X296600390Y-86794652D01*
X296648009Y-86842271D01*
X296695628Y-86937509D01*
X296695628Y-87175604D01*
X296648009Y-87270842D01*
X296600390Y-87318461D01*
X296505152Y-87366080D01*
X296267057Y-87366080D01*
X296171819Y-87318461D01*
X296124200Y-87270842D01*
D11*
D10*
X182600390Y-87366080D02*
X182600390Y-86366080D01*
X182933723Y-87080366D01*
X183267057Y-86366080D01*
X183267057Y-87366080D01*
X183695628Y-86461319D02*
X183743247Y-86413700D01*
X183838485Y-86366080D01*
X184076580Y-86366080D01*
X184171819Y-86413700D01*
X184219438Y-86461319D01*
X184267057Y-86556557D01*
X184267057Y-86651795D01*
X184219438Y-86794652D01*
X183648009Y-87366080D01*
X184267057Y-87366080D01*
X184695628Y-87270842D02*
X184743247Y-87318461D01*
X184695628Y-87366080D01*
X184648009Y-87318461D01*
X184695628Y-87270842D01*
X184695628Y-87366080D01*
X185648009Y-86366080D02*
X185171819Y-86366080D01*
X185124200Y-86842271D01*
X185171819Y-86794652D01*
X185267057Y-86747033D01*
X185505152Y-86747033D01*
X185600390Y-86794652D01*
X185648009Y-86842271D01*
X185695628Y-86937509D01*
X185695628Y-87175604D01*
X185648009Y-87270842D01*
X185600390Y-87318461D01*
X185505152Y-87366080D01*
X185267057Y-87366080D01*
X185171819Y-87318461D01*
X185124200Y-87270842D01*
D11*
D10*
X125600390Y-92366080D02*
X125600390Y-91366080D01*
X125933723Y-92080366D01*
X126267057Y-91366080D01*
X126267057Y-92366080D01*
X126695628Y-91461319D02*
X126743247Y-91413700D01*
X126838485Y-91366080D01*
X127076580Y-91366080D01*
X127171819Y-91413700D01*
X127219438Y-91461319D01*
X127267057Y-91556557D01*
X127267057Y-91651795D01*
X127219438Y-91794652D01*
X126648009Y-92366080D01*
X127267057Y-92366080D01*
X127695628Y-92270842D02*
X127743247Y-92318461D01*
X127695628Y-92366080D01*
X127648009Y-92318461D01*
X127695628Y-92270842D01*
X127695628Y-92366080D01*
X128648009Y-91366080D02*
X128171819Y-91366080D01*
X128124200Y-91842271D01*
X128171819Y-91794652D01*
X128267057Y-91747033D01*
X128505152Y-91747033D01*
X128600390Y-91794652D01*
X128648009Y-91842271D01*
X128695628Y-91937509D01*
X128695628Y-92175604D01*
X128648009Y-92270842D01*
X128600390Y-92318461D01*
X128505152Y-92366080D01*
X128267057Y-92366080D01*
X128171819Y-92318461D01*
X128124200Y-92270842D01*
D11*
D10*
X350600390Y-92366080D02*
X350600390Y-91366080D01*
X350933723Y-92080366D01*
X351267057Y-91366080D01*
X351267057Y-92366080D01*
X351695628Y-91461319D02*
X351743247Y-91413700D01*
X351838485Y-91366080D01*
X352076580Y-91366080D01*
X352171819Y-91413700D01*
X352219438Y-91461319D01*
X352267057Y-91556557D01*
X352267057Y-91651795D01*
X352219438Y-91794652D01*
X351648009Y-92366080D01*
X352267057Y-92366080D01*
X352695628Y-92270842D02*
X352743247Y-92318461D01*
X352695628Y-92366080D01*
X352648009Y-92318461D01*
X352695628Y-92270842D01*
X352695628Y-92366080D01*
X353648009Y-91366080D02*
X353171819Y-91366080D01*
X353124200Y-91842271D01*
X353171819Y-91794652D01*
X353267057Y-91747033D01*
X353505152Y-91747033D01*
X353600390Y-91794652D01*
X353648009Y-91842271D01*
X353695628Y-91937509D01*
X353695628Y-92175604D01*
X353648009Y-92270842D01*
X353600390Y-92318461D01*
X353505152Y-92366080D01*
X353267057Y-92366080D01*
X353171819Y-92318461D01*
X353124200Y-92270842D01*
%TD*%
M02*
