%TF.GenerationSoftware,KiCad,Pcbnew,(6.0.0)*%
%TF.CreationDate,2022-03-08T21:45:30-05:00*%
%TF.ProjectId,custom_keyboard plate v3 bottom - map,63757374-6f6d-45f6-9b65-79626f617264,rev?*%
%TF.SameCoordinates,Original*%
%TF.FileFunction,Soldermask,Bot*%
%TF.FilePolarity,Negative*%
%FSLAX46Y46*%
G04 Gerber Fmt 4.6, Leading zero omitted, Abs format (unit mm)*
G04 Created by KiCad (PCBNEW (6.0.0)) date 2022-03-08 21:45:30*
%MOMM*%
%LPD*%
G01*
G04 APERTURE LIST*
%ADD10C,2.500000*%
%ADD11C,3.200000*%
%ADD12C,2.200000*%
G04 APERTURE END LIST*
D10*
%TO.C,M2.5*%
X396949800Y-122842700D03*
%TD*%
D11*
%TO.C,M3*%
X321005500Y-70905700D03*
%TD*%
D10*
%TO.C,M2.5*%
X126505500Y-78124200D03*
%TD*%
D11*
%TO.C,M3*%
X404168300Y-205834700D03*
%TD*%
D10*
%TO.C,M2.5*%
X69505500Y-90124200D03*
%TD*%
D12*
%TO.C,M2*%
X203505500Y-89624200D03*
%TD*%
D11*
%TO.C,M3*%
X16811200Y-92342700D03*
%TD*%
%TO.C,M3*%
X404168300Y-129342700D03*
%TD*%
D10*
%TO.C,M2.5*%
X384949800Y-98842700D03*
%TD*%
%TO.C,M2.5*%
X183505500Y-78124200D03*
%TD*%
D11*
%TO.C,M3*%
X264005500Y-70905700D03*
%TD*%
D10*
%TO.C,M2.5*%
X24061201Y-98842700D03*
%TD*%
%TO.C,M2.5*%
X93505500Y-90124200D03*
%TD*%
D11*
%TO.C,M3*%
X16842700Y-205834700D03*
%TD*%
%TO.C,M3*%
X404168300Y-92335600D03*
%TD*%
%TO.C,M3*%
X16842700Y-70905700D03*
%TD*%
D10*
%TO.C,M2.5*%
X36061201Y-122842700D03*
%TD*%
D11*
%TO.C,M3*%
X120023700Y-70905700D03*
%TD*%
D10*
%TO.C,M2.5*%
X294505500Y-78124200D03*
%TD*%
D11*
%TO.C,M3*%
X301005500Y-205834700D03*
%TD*%
D10*
%TO.C,M2.5*%
X384949800Y-122842700D03*
%TD*%
%TO.C,M2.5*%
X327505500Y-78124200D03*
%TD*%
%TO.C,M2.5*%
X396949800Y-98842700D03*
%TD*%
%TO.C,M2.5*%
X270505500Y-78124200D03*
%TD*%
%TO.C,M2.5*%
X150505500Y-90124200D03*
%TD*%
%TO.C,M2.5*%
X224505500Y-78124200D03*
%TD*%
D11*
%TO.C,M3*%
X357505500Y-70905700D03*
%TD*%
%TO.C,M3*%
X300987300Y-70905700D03*
%TD*%
%TO.C,M3*%
X196005500Y-70905700D03*
%TD*%
%TO.C,M3*%
X16779700Y-129342700D03*
%TD*%
D10*
%TO.C,M2.5*%
X196505500Y-110124200D03*
%TD*%
%TO.C,M2.5*%
X237505500Y-110124200D03*
%TD*%
%TO.C,M2.5*%
X36061201Y-98842700D03*
%TD*%
D11*
%TO.C,M3*%
X225005500Y-70905700D03*
%TD*%
D10*
%TO.C,M2.5*%
X270505500Y-90124200D03*
%TD*%
%TO.C,M2.5*%
X237505500Y-78124200D03*
%TD*%
D11*
%TO.C,M3*%
X120005500Y-205834700D03*
%TD*%
D10*
%TO.C,M2.5*%
X224505500Y-110124200D03*
%TD*%
%TO.C,M2.5*%
X150505500Y-78124200D03*
%TD*%
%TO.C,M2.5*%
X327505500Y-90124200D03*
%TD*%
%TO.C,M2.5*%
X24061201Y-122842700D03*
%TD*%
%TO.C,M2.5*%
X351505500Y-78124200D03*
%TD*%
D12*
%TO.C,M2*%
X203505500Y-77124200D03*
%TD*%
D10*
%TO.C,M2.5*%
X351505500Y-90124200D03*
%TD*%
D12*
%TO.C,M2*%
X217505500Y-77124200D03*
%TD*%
D10*
%TO.C,M2.5*%
X126505500Y-90124200D03*
%TD*%
%TO.C,M2.5*%
X183505500Y-110124200D03*
%TD*%
D11*
%TO.C,M3*%
X157005500Y-70905700D03*
%TD*%
D10*
%TO.C,M2.5*%
X69505500Y-78124200D03*
%TD*%
D11*
%TO.C,M3*%
X404168300Y-70905700D03*
%TD*%
D10*
%TO.C,M2.5*%
X196505500Y-78124200D03*
%TD*%
%TO.C,M2.5*%
X93505500Y-78124200D03*
%TD*%
D11*
%TO.C,M3*%
X63505500Y-70905700D03*
%TD*%
%TO.C,M3*%
X100005500Y-70905700D03*
%TD*%
D12*
%TO.C,M2*%
X217505500Y-89624200D03*
%TD*%
D10*
%TO.C,M2.5*%
X294505500Y-90124200D03*
%TD*%
M02*
