M48
; DRILL file {KiCad (6.0.0)} date Tue Mar  8 21:45:34 2022
; FORMAT={-:-/ absolute / metric / decimal}
; #@! TF.CreationDate,2022-03-08T21:45:34-05:00
; #@! TF.GenerationSoftware,Kicad,Pcbnew,(6.0.0)
; #@! TF.FileFunction,NonPlated,1,2,NPTH
FMAT,2
METRIC
; #@! TA.AperFunction,NonPlated,NPTH,ComponentDrill
T1C2.200
; #@! TA.AperFunction,NonPlated,NPTH,ComponentDrill
T2C2.500
; #@! TA.AperFunction,NonPlated,NPTH,ComponentDrill
T3C3.200
%
G90
G05
T1
X203.505Y-77.124
X203.505Y-89.624
X217.505Y-77.124
X217.505Y-89.624
T2
X24.061Y-98.843
X24.061Y-122.843
X36.061Y-98.843
X36.061Y-122.843
X69.505Y-78.124
X69.505Y-90.124
X93.505Y-78.124
X93.505Y-90.124
X126.505Y-78.124
X126.505Y-90.124
X150.505Y-78.124
X150.505Y-90.124
X183.505Y-78.124
X183.505Y-110.124
X196.505Y-78.124
X196.505Y-110.124
X224.505Y-78.124
X224.505Y-110.124
X237.505Y-78.124
X237.505Y-110.124
X270.505Y-78.124
X270.505Y-90.124
X294.505Y-78.124
X294.505Y-90.124
X327.505Y-78.124
X327.505Y-90.124
X351.505Y-78.124
X351.505Y-90.124
X384.95Y-98.843
X384.95Y-122.843
X396.95Y-98.843
X396.95Y-122.843
T3
X16.78Y-129.343
X16.811Y-92.343
X16.843Y-70.906
X16.843Y-205.835
X63.505Y-70.906
X100.005Y-70.906
X120.005Y-205.835
X120.024Y-70.906
X157.005Y-70.906
X196.005Y-70.906
X225.005Y-70.906
X264.005Y-70.906
X300.987Y-70.906
X301.005Y-205.835
X321.005Y-70.906
X357.505Y-70.906
X404.168Y-70.906
X404.168Y-92.336
X404.168Y-129.343
X404.168Y-205.835
T0
M30
