%TF.GenerationSoftware,KiCad,Pcbnew,(6.0.0)*%
%TF.CreationDate,2022-03-07T23:27:38-05:00*%
%TF.ProjectId,custom_keyboard plate v3 bottom - map,63757374-6f6d-45f6-9b65-79626f617264,rev?*%
%TF.SameCoordinates,Original*%
%TF.FileFunction,Copper,L1,Top*%
%TF.FilePolarity,Positive*%
%FSLAX46Y46*%
G04 Gerber Fmt 4.6, Leading zero omitted, Abs format (unit mm)*
G04 Created by KiCad (PCBNEW (6.0.0)) date 2022-03-07 23:27:38*
%MOMM*%
%LPD*%
G01*
G04 APERTURE LIST*
%TA.AperFunction,NonConductor*%
%ADD10C,0.200000*%
%TD*%
%ADD11C,0.200000*%
%TA.AperFunction,ViaPad*%
%ADD12C,0.800000*%
%TD*%
G04 APERTURE END LIST*
D10*
X148255500Y-66945200D02*
X124255500Y-66945200D01*
X268255500Y-66945200D02*
G75*
G03*
X265255500Y-69945200I1J-3000001D01*
G01*
X221748400Y-194480900D02*
X218573600Y-192893500D01*
X235255500Y-66945200D02*
X181255500Y-66945200D01*
X312005500Y-158258200D02*
X312005500Y-109258200D01*
X405199800Y-95663700D02*
X391199800Y-95663700D01*
X391199800Y-95663700D02*
X391199800Y-109663700D01*
X391199800Y-109663700D02*
X405199800Y-109663700D01*
X405199800Y-109663700D02*
X405199800Y-95663700D01*
X241590900Y-67488900D02*
G75*
G03*
X243178300Y-65901500I-1J1587401D01*
G01*
X364255500Y-109258200D02*
X364255500Y-158258200D01*
X393981300Y-192893500D02*
X231272800Y-192893500D01*
X191255500Y-69945200D02*
X191255500Y-101945200D01*
X148255500Y-84945200D02*
G75*
G03*
X151255500Y-81945200I-1J3000001D01*
G01*
X67255500Y-66945200D02*
G75*
G03*
X64255500Y-69945200I1J-3000001D01*
G01*
X238255500Y-69945200D02*
G75*
G03*
X235255500Y-66945200I-3000001J-1D01*
G01*
X379699800Y-90663700D02*
X379699800Y-114663700D01*
X91255500Y-66945200D02*
X67255500Y-66945200D01*
X36811201Y-90663700D02*
G75*
G03*
X33811201Y-87663700I-3000001J-1D01*
G01*
X397699800Y-90663700D02*
G75*
G03*
X394699800Y-87663700I-3000001J-1D01*
G01*
X305505500Y-109258200D02*
X305505500Y-158258200D01*
X111005500Y-158258200D02*
X111005500Y-109258200D01*
X111505500Y-67488900D02*
X241590900Y-67488900D01*
X349255500Y-66945200D02*
X325255500Y-66945200D01*
X325255500Y-84945200D02*
X349255500Y-84945200D01*
X64255500Y-81945200D02*
G75*
G03*
X67255500Y-84945200I3000001J1D01*
G01*
X194255500Y-66945200D02*
G75*
G03*
X191255500Y-69945200I1J-3000001D01*
G01*
X121255500Y-69945200D02*
X121255500Y-81945200D01*
X181255500Y-66945200D02*
G75*
G03*
X178255500Y-69945200I1J-3000001D01*
G01*
X201255500Y-83445200D02*
X215255500Y-83445200D01*
X151255500Y-69945200D02*
G75*
G03*
X148255500Y-66945200I-3000001J-1D01*
G01*
X104505500Y-109258200D02*
X104505500Y-158258200D01*
X312005500Y-158258200D02*
X305505500Y-158258200D01*
X394699800Y-87663700D02*
X382699800Y-87663700D01*
X118567400Y-192893500D02*
X131266600Y-192893500D01*
X322255500Y-81945200D02*
G75*
G03*
X325255500Y-84945200I3000001J1D01*
G01*
X295255500Y-69945200D02*
G75*
G03*
X292255500Y-66945200I-3000001J-1D01*
G01*
X52255500Y-158258200D02*
X45755500Y-158258200D01*
X397156100Y-70663700D02*
X397156100Y-189718700D01*
X18811201Y-114663700D02*
G75*
G03*
X21811201Y-117663700I3000001J1D01*
G01*
X33811201Y-87663700D02*
X21811201Y-87663700D01*
X222255500Y-104945200D02*
G75*
G03*
X225255500Y-101945200I-1J3000001D01*
G01*
X225255500Y-101945200D02*
X225255500Y-69945200D01*
X254290100Y-59258200D02*
X254290100Y-65901500D01*
X124255500Y-66945200D02*
G75*
G03*
X121255500Y-69945200I1J-3000001D01*
G01*
X225255500Y-69945200D02*
G75*
G03*
X222255500Y-66945200I-3000001J-1D01*
G01*
X393981300Y-192893500D02*
G75*
G03*
X397156100Y-189718700I1J3174799D01*
G01*
X118567400Y-192893500D02*
X22529700Y-192893500D01*
X292255500Y-66945200D02*
X268255500Y-66945200D01*
X382699800Y-117663700D02*
X394699800Y-117663700D01*
X255877500Y-67488900D02*
X305005500Y-67488900D01*
X191255500Y-101945200D02*
G75*
G03*
X194255500Y-104945200I3000001J1D01*
G01*
X21811201Y-87663700D02*
G75*
G03*
X18811201Y-90663700I1J-3000001D01*
G01*
X45255500Y-67488900D02*
X22029700Y-67488900D01*
X72255500Y-73445200D02*
X86255500Y-73445200D01*
X86255500Y-73445200D02*
X86255500Y-59445200D01*
X86255500Y-59445200D02*
X72255500Y-59445200D01*
X72255500Y-59445200D02*
X72255500Y-73445200D01*
X352255500Y-69945200D02*
G75*
G03*
X349255500Y-66945200I-3000001J-1D01*
G01*
X199255500Y-81445200D02*
G75*
G03*
X201255500Y-83445200I1999999J-1D01*
G01*
X111005500Y-158258200D02*
X104505500Y-158258200D01*
X52255500Y-158258200D02*
X52255500Y-109258200D01*
X18811201Y-90663700D02*
X18811201Y-114663700D01*
X45755500Y-109258200D02*
X45755500Y-158258200D01*
X221748400Y-194480900D02*
X228098000Y-194480900D01*
X124255500Y-84945200D02*
X148255500Y-84945200D01*
X201255500Y-66945200D02*
G75*
G03*
X199255500Y-68945200I-1J-1999999D01*
G01*
X217255500Y-68945200D02*
G75*
G03*
X215255500Y-66945200I-1999999J1D01*
G01*
X178255500Y-101945200D02*
G75*
G03*
X181255500Y-104945200I3000001J1D01*
G01*
X22529700Y-67488900D02*
G75*
G03*
X19354900Y-70663700I-1J-3174799D01*
G01*
X215255500Y-83445200D02*
G75*
G03*
X217255500Y-81445200I1J1999999D01*
G01*
X235255500Y-104945200D02*
G75*
G03*
X238255500Y-101945200I-1J3000001D01*
G01*
X228098000Y-194480900D02*
X231272800Y-192893500D01*
X19354900Y-189718700D02*
G75*
G03*
X22529700Y-192893500I3174799J-1D01*
G01*
X218573600Y-192893500D02*
X131266600Y-192893500D01*
X94255500Y-81945200D02*
X94255500Y-69945200D01*
X129255500Y-73445200D02*
X143255500Y-73445200D01*
X143255500Y-73445200D02*
X143255500Y-59445200D01*
X143255500Y-59445200D02*
X129255500Y-59445200D01*
X129255500Y-59445200D02*
X129255500Y-73445200D01*
X325255500Y-66945200D02*
G75*
G03*
X322255500Y-69945200I1J-3000001D01*
G01*
X11311201Y-109663700D02*
X25311201Y-109663700D01*
X25311201Y-109663700D02*
X25311201Y-95663700D01*
X25311201Y-95663700D02*
X11311201Y-95663700D01*
X11311201Y-95663700D02*
X11311201Y-109663700D01*
X273255500Y-59445200D02*
X287255500Y-59445200D01*
X287255500Y-59445200D02*
X287255500Y-73445200D01*
X287255500Y-73445200D02*
X273255500Y-73445200D01*
X273255500Y-73445200D02*
X273255500Y-59445200D01*
X217255500Y-81445200D02*
X217255500Y-68945200D01*
X181255500Y-104945200D02*
X235255500Y-104945200D01*
X21811201Y-117663700D02*
X33811201Y-117663700D01*
X265255500Y-81945200D02*
G75*
G03*
X268255500Y-84945200I3000001J1D01*
G01*
X151255500Y-81945200D02*
X151255500Y-69945200D01*
X64255500Y-69945200D02*
X64255500Y-81945200D01*
X295255500Y-81945200D02*
X295255500Y-69945200D01*
X254290100Y-65901500D02*
G75*
G03*
X255877500Y-67488900I1587401J1D01*
G01*
X349255500Y-84945200D02*
G75*
G03*
X352255500Y-81945200I-1J3000001D01*
G01*
X330255500Y-59445200D02*
X344255500Y-59445200D01*
X344255500Y-59445200D02*
X344255500Y-73445200D01*
X344255500Y-73445200D02*
X330255500Y-73445200D01*
X330255500Y-73445200D02*
X330255500Y-59445200D01*
X393981300Y-67488900D02*
X371255500Y-67488900D01*
X397699800Y-114663700D02*
X397699800Y-90663700D01*
X199255500Y-68945200D02*
X199255500Y-81445200D01*
X292255500Y-84945200D02*
G75*
G03*
X295255500Y-81945200I-1J3000001D01*
G01*
X52755500Y-67488900D02*
X104005500Y-67488900D01*
X265255500Y-69945200D02*
X265255500Y-81945200D01*
X94255500Y-69945200D02*
G75*
G03*
X91255500Y-66945200I-3000001J-1D01*
G01*
X243178300Y-59258200D02*
X243178300Y-65901500D01*
X91255500Y-84945200D02*
G75*
G03*
X94255500Y-81945200I-1J3000001D01*
G01*
X121255500Y-81945200D02*
G75*
G03*
X124255500Y-84945200I3000001J1D01*
G01*
X312505500Y-67488900D02*
X363755500Y-67488900D01*
X178255500Y-69945200D02*
X178255500Y-101945200D01*
X36811201Y-114663700D02*
X36811201Y-90663700D01*
X268255500Y-84945200D02*
X292255500Y-84945200D01*
X67255500Y-84945200D02*
X91255500Y-84945200D01*
X121742200Y-194480900D02*
X128091800Y-194480900D01*
X322255500Y-69945200D02*
X322255500Y-81945200D01*
X397156100Y-70663700D02*
G75*
G03*
X393981300Y-67488900I-3174799J1D01*
G01*
X33811201Y-117663700D02*
G75*
G03*
X36811201Y-114663700I-1J3000001D01*
G01*
X218573600Y-192893500D02*
X231272800Y-192893500D01*
X382699800Y-87663700D02*
G75*
G03*
X379699800Y-90663700I1J-3000001D01*
G01*
X128091800Y-194480900D02*
X131266600Y-192893500D01*
X394699800Y-117663700D02*
G75*
G03*
X397699800Y-114663700I-1J3000001D01*
G01*
X370755500Y-158258200D02*
X364255500Y-158258200D01*
X352255500Y-81945200D02*
X352255500Y-69945200D01*
X121742200Y-194480900D02*
X118567400Y-192893500D01*
X379699800Y-114663700D02*
G75*
G03*
X382699800Y-117663700I3000001J1D01*
G01*
X19354900Y-189718700D02*
X19354900Y-70663700D01*
X370755500Y-158258200D02*
X370755500Y-109258200D01*
X238255500Y-101945200D02*
X238255500Y-69945200D01*
D11*
D10*
X203969785Y-195210580D02*
X203969785Y-194210580D01*
X204350738Y-194210580D01*
X204445976Y-194258200D01*
X204493595Y-194305819D01*
X204541214Y-194401057D01*
X204541214Y-194543914D01*
X204493595Y-194639152D01*
X204445976Y-194686771D01*
X204350738Y-194734390D01*
X203969785Y-194734390D01*
X205541214Y-195115342D02*
X205493595Y-195162961D01*
X205350738Y-195210580D01*
X205255500Y-195210580D01*
X205112642Y-195162961D01*
X205017404Y-195067723D01*
X204969785Y-194972485D01*
X204922166Y-194782009D01*
X204922166Y-194639152D01*
X204969785Y-194448676D01*
X205017404Y-194353438D01*
X205112642Y-194258200D01*
X205255500Y-194210580D01*
X205350738Y-194210580D01*
X205493595Y-194258200D01*
X205541214Y-194305819D01*
X206303119Y-194686771D02*
X206445976Y-194734390D01*
X206493595Y-194782009D01*
X206541214Y-194877247D01*
X206541214Y-195020104D01*
X206493595Y-195115342D01*
X206445976Y-195162961D01*
X206350738Y-195210580D01*
X205969785Y-195210580D01*
X205969785Y-194210580D01*
X206303119Y-194210580D01*
X206398357Y-194258200D01*
X206445976Y-194305819D01*
X206493595Y-194401057D01*
X206493595Y-194496295D01*
X206445976Y-194591533D01*
X206398357Y-194639152D01*
X206303119Y-194686771D01*
X205969785Y-194686771D01*
X207922166Y-194210580D02*
X208112642Y-194210580D01*
X208207880Y-194258200D01*
X208303119Y-194353438D01*
X208350738Y-194543914D01*
X208350738Y-194877247D01*
X208303119Y-195067723D01*
X208207880Y-195162961D01*
X208112642Y-195210580D01*
X207922166Y-195210580D01*
X207826928Y-195162961D01*
X207731690Y-195067723D01*
X207684071Y-194877247D01*
X207684071Y-194543914D01*
X207731690Y-194353438D01*
X207826928Y-194258200D01*
X207922166Y-194210580D01*
X209207880Y-194543914D02*
X209207880Y-195210580D01*
X208779309Y-194543914D02*
X208779309Y-195067723D01*
X208826928Y-195162961D01*
X208922166Y-195210580D01*
X209065023Y-195210580D01*
X209160261Y-195162961D01*
X209207880Y-195115342D01*
X209541214Y-194543914D02*
X209922166Y-194543914D01*
X209684071Y-194210580D02*
X209684071Y-195067723D01*
X209731690Y-195162961D01*
X209826928Y-195210580D01*
X209922166Y-195210580D01*
X210398357Y-195210580D02*
X210303119Y-195162961D01*
X210255500Y-195067723D01*
X210255500Y-194210580D01*
X210779309Y-195210580D02*
X210779309Y-194543914D01*
X210779309Y-194210580D02*
X210731690Y-194258200D01*
X210779309Y-194305819D01*
X210826928Y-194258200D01*
X210779309Y-194210580D01*
X210779309Y-194305819D01*
X211255500Y-194543914D02*
X211255500Y-195210580D01*
X211255500Y-194639152D02*
X211303119Y-194591533D01*
X211398357Y-194543914D01*
X211541214Y-194543914D01*
X211636452Y-194591533D01*
X211684071Y-194686771D01*
X211684071Y-195210580D01*
X212541214Y-195162961D02*
X212445976Y-195210580D01*
X212255500Y-195210580D01*
X212160261Y-195162961D01*
X212112642Y-195067723D01*
X212112642Y-194686771D01*
X212160261Y-194591533D01*
X212255500Y-194543914D01*
X212445976Y-194543914D01*
X212541214Y-194591533D01*
X212588833Y-194686771D01*
X212588833Y-194782009D01*
X212112642Y-194877247D01*
D11*
D10*
X75303119Y-83397580D02*
X75303119Y-84207104D01*
X75350738Y-84302342D01*
X75398357Y-84349961D01*
X75493595Y-84397580D01*
X75684071Y-84397580D01*
X75779309Y-84349961D01*
X75826928Y-84302342D01*
X75874547Y-84207104D01*
X75874547Y-83397580D01*
X76303119Y-84349961D02*
X76445976Y-84397580D01*
X76684071Y-84397580D01*
X76779309Y-84349961D01*
X76826928Y-84302342D01*
X76874547Y-84207104D01*
X76874547Y-84111866D01*
X76826928Y-84016628D01*
X76779309Y-83969009D01*
X76684071Y-83921390D01*
X76493595Y-83873771D01*
X76398357Y-83826152D01*
X76350738Y-83778533D01*
X76303119Y-83683295D01*
X76303119Y-83588057D01*
X76350738Y-83492819D01*
X76398357Y-83445200D01*
X76493595Y-83397580D01*
X76731690Y-83397580D01*
X76874547Y-83445200D01*
X77636452Y-83873771D02*
X77779309Y-83921390D01*
X77826928Y-83969009D01*
X77874547Y-84064247D01*
X77874547Y-84207104D01*
X77826928Y-84302342D01*
X77779309Y-84349961D01*
X77684071Y-84397580D01*
X77303119Y-84397580D01*
X77303119Y-83397580D01*
X77636452Y-83397580D01*
X77731690Y-83445200D01*
X77779309Y-83492819D01*
X77826928Y-83588057D01*
X77826928Y-83683295D01*
X77779309Y-83778533D01*
X77731690Y-83826152D01*
X77636452Y-83873771D01*
X77303119Y-83873771D01*
X79017404Y-84111866D02*
X79493595Y-84111866D01*
X78922166Y-84397580D02*
X79255500Y-83397580D01*
X79588833Y-84397580D01*
X80684071Y-84397580D02*
X80684071Y-83397580D01*
X80922166Y-83397580D01*
X81065023Y-83445200D01*
X81160261Y-83540438D01*
X81207880Y-83635676D01*
X81255500Y-83826152D01*
X81255500Y-83969009D01*
X81207880Y-84159485D01*
X81160261Y-84254723D01*
X81065023Y-84349961D01*
X80922166Y-84397580D01*
X80684071Y-84397580D01*
X82017404Y-83873771D02*
X82160261Y-83921390D01*
X82207880Y-83969009D01*
X82255500Y-84064247D01*
X82255500Y-84207104D01*
X82207880Y-84302342D01*
X82160261Y-84349961D01*
X82065023Y-84397580D01*
X81684071Y-84397580D01*
X81684071Y-83397580D01*
X82017404Y-83397580D01*
X82112642Y-83445200D01*
X82160261Y-83492819D01*
X82207880Y-83588057D01*
X82207880Y-83683295D01*
X82160261Y-83778533D01*
X82112642Y-83826152D01*
X82017404Y-83873771D01*
X81684071Y-83873771D01*
D11*
D10*
X206719785Y-81897580D02*
X206719785Y-82707104D01*
X206767404Y-82802342D01*
X206815023Y-82849961D01*
X206910261Y-82897580D01*
X207100738Y-82897580D01*
X207195976Y-82849961D01*
X207243595Y-82802342D01*
X207291214Y-82707104D01*
X207291214Y-81897580D01*
X207767404Y-82897580D02*
X207767404Y-81897580D01*
X208005500Y-81897580D01*
X208148357Y-81945200D01*
X208243595Y-82040438D01*
X208291214Y-82135676D01*
X208338833Y-82326152D01*
X208338833Y-82469009D01*
X208291214Y-82659485D01*
X208243595Y-82754723D01*
X208148357Y-82849961D01*
X208005500Y-82897580D01*
X207767404Y-82897580D01*
X209100738Y-82373771D02*
X209243595Y-82421390D01*
X209291214Y-82469009D01*
X209338833Y-82564247D01*
X209338833Y-82707104D01*
X209291214Y-82802342D01*
X209243595Y-82849961D01*
X209148357Y-82897580D01*
X208767404Y-82897580D01*
X208767404Y-81897580D01*
X209100738Y-81897580D01*
X209195976Y-81945200D01*
X209243595Y-81992819D01*
X209291214Y-82088057D01*
X209291214Y-82183295D01*
X209243595Y-82278533D01*
X209195976Y-82326152D01*
X209100738Y-82373771D01*
X208767404Y-82373771D01*
D11*
D10*
X277303119Y-83397580D02*
X277303119Y-84207104D01*
X277350738Y-84302342D01*
X277398357Y-84349961D01*
X277493595Y-84397580D01*
X277684071Y-84397580D01*
X277779309Y-84349961D01*
X277826928Y-84302342D01*
X277874547Y-84207104D01*
X277874547Y-83397580D01*
X278303119Y-84349961D02*
X278445976Y-84397580D01*
X278684071Y-84397580D01*
X278779309Y-84349961D01*
X278826928Y-84302342D01*
X278874547Y-84207104D01*
X278874547Y-84111866D01*
X278826928Y-84016628D01*
X278779309Y-83969009D01*
X278684071Y-83921390D01*
X278493595Y-83873771D01*
X278398357Y-83826152D01*
X278350738Y-83778533D01*
X278303119Y-83683295D01*
X278303119Y-83588057D01*
X278350738Y-83492819D01*
X278398357Y-83445200D01*
X278493595Y-83397580D01*
X278731690Y-83397580D01*
X278874547Y-83445200D01*
X279636452Y-83873771D02*
X279779309Y-83921390D01*
X279826928Y-83969009D01*
X279874547Y-84064247D01*
X279874547Y-84207104D01*
X279826928Y-84302342D01*
X279779309Y-84349961D01*
X279684071Y-84397580D01*
X279303119Y-84397580D01*
X279303119Y-83397580D01*
X279636452Y-83397580D01*
X279731690Y-83445200D01*
X279779309Y-83492819D01*
X279826928Y-83588057D01*
X279826928Y-83683295D01*
X279779309Y-83778533D01*
X279731690Y-83826152D01*
X279636452Y-83873771D01*
X279303119Y-83873771D01*
X281017404Y-84111866D02*
X281493595Y-84111866D01*
X280922166Y-84397580D02*
X281255500Y-83397580D01*
X281588833Y-84397580D01*
X282684071Y-84397580D02*
X282684071Y-83397580D01*
X282922166Y-83397580D01*
X283065023Y-83445200D01*
X283160261Y-83540438D01*
X283207880Y-83635676D01*
X283255500Y-83826152D01*
X283255500Y-83969009D01*
X283207880Y-84159485D01*
X283160261Y-84254723D01*
X283065023Y-84349961D01*
X282922166Y-84397580D01*
X282684071Y-84397580D01*
X284017404Y-83873771D02*
X284160261Y-83921390D01*
X284207880Y-83969009D01*
X284255500Y-84064247D01*
X284255500Y-84207104D01*
X284207880Y-84302342D01*
X284160261Y-84349961D01*
X284065023Y-84397580D01*
X283684071Y-84397580D01*
X283684071Y-83397580D01*
X284017404Y-83397580D01*
X284112642Y-83445200D01*
X284160261Y-83492819D01*
X284207880Y-83588057D01*
X284207880Y-83683295D01*
X284160261Y-83778533D01*
X284112642Y-83826152D01*
X284017404Y-83873771D01*
X283684071Y-83873771D01*
D11*
D10*
X224185104Y-192210580D02*
X224185104Y-191210580D01*
X224566057Y-191210580D01*
X224661295Y-191258200D01*
X224708914Y-191305819D01*
X224756533Y-191401057D01*
X224756533Y-191543914D01*
X224708914Y-191639152D01*
X224661295Y-191686771D01*
X224566057Y-191734390D01*
X224185104Y-191734390D01*
X225089866Y-191210580D02*
X225708914Y-191210580D01*
X225375580Y-191591533D01*
X225518438Y-191591533D01*
X225613676Y-191639152D01*
X225661295Y-191686771D01*
X225708914Y-191782009D01*
X225708914Y-192020104D01*
X225661295Y-192115342D01*
X225613676Y-192162961D01*
X225518438Y-192210580D01*
X225232723Y-192210580D01*
X225137485Y-192162961D01*
X225089866Y-192115342D01*
D11*
D10*
X132303119Y-83397580D02*
X132303119Y-84207104D01*
X132350738Y-84302342D01*
X132398357Y-84349961D01*
X132493595Y-84397580D01*
X132684071Y-84397580D01*
X132779309Y-84349961D01*
X132826928Y-84302342D01*
X132874547Y-84207104D01*
X132874547Y-83397580D01*
X133303119Y-84349961D02*
X133445976Y-84397580D01*
X133684071Y-84397580D01*
X133779309Y-84349961D01*
X133826928Y-84302342D01*
X133874547Y-84207104D01*
X133874547Y-84111866D01*
X133826928Y-84016628D01*
X133779309Y-83969009D01*
X133684071Y-83921390D01*
X133493595Y-83873771D01*
X133398357Y-83826152D01*
X133350738Y-83778533D01*
X133303119Y-83683295D01*
X133303119Y-83588057D01*
X133350738Y-83492819D01*
X133398357Y-83445200D01*
X133493595Y-83397580D01*
X133731690Y-83397580D01*
X133874547Y-83445200D01*
X134636452Y-83873771D02*
X134779309Y-83921390D01*
X134826928Y-83969009D01*
X134874547Y-84064247D01*
X134874547Y-84207104D01*
X134826928Y-84302342D01*
X134779309Y-84349961D01*
X134684071Y-84397580D01*
X134303119Y-84397580D01*
X134303119Y-83397580D01*
X134636452Y-83397580D01*
X134731690Y-83445200D01*
X134779309Y-83492819D01*
X134826928Y-83588057D01*
X134826928Y-83683295D01*
X134779309Y-83778533D01*
X134731690Y-83826152D01*
X134636452Y-83873771D01*
X134303119Y-83873771D01*
X136017404Y-84111866D02*
X136493595Y-84111866D01*
X135922166Y-84397580D02*
X136255500Y-83397580D01*
X136588833Y-84397580D01*
X137684071Y-84397580D02*
X137684071Y-83397580D01*
X137922166Y-83397580D01*
X138065023Y-83445200D01*
X138160261Y-83540438D01*
X138207880Y-83635676D01*
X138255500Y-83826152D01*
X138255500Y-83969009D01*
X138207880Y-84159485D01*
X138160261Y-84254723D01*
X138065023Y-84349961D01*
X137922166Y-84397580D01*
X137684071Y-84397580D01*
X139017404Y-83873771D02*
X139160261Y-83921390D01*
X139207880Y-83969009D01*
X139255500Y-84064247D01*
X139255500Y-84207104D01*
X139207880Y-84302342D01*
X139160261Y-84349961D01*
X139065023Y-84397580D01*
X138684071Y-84397580D01*
X138684071Y-83397580D01*
X139017404Y-83397580D01*
X139112642Y-83445200D01*
X139160261Y-83492819D01*
X139207880Y-83588057D01*
X139207880Y-83683295D01*
X139160261Y-83778533D01*
X139112642Y-83826152D01*
X139017404Y-83873771D01*
X138684071Y-83873771D01*
D11*
D10*
X124178904Y-192210580D02*
X124178904Y-191210580D01*
X124559857Y-191210580D01*
X124655095Y-191258200D01*
X124702714Y-191305819D01*
X124750333Y-191401057D01*
X124750333Y-191543914D01*
X124702714Y-191639152D01*
X124655095Y-191686771D01*
X124559857Y-191734390D01*
X124178904Y-191734390D01*
X125083666Y-191210580D02*
X125702714Y-191210580D01*
X125369380Y-191591533D01*
X125512238Y-191591533D01*
X125607476Y-191639152D01*
X125655095Y-191686771D01*
X125702714Y-191782009D01*
X125702714Y-192020104D01*
X125655095Y-192115342D01*
X125607476Y-192162961D01*
X125512238Y-192210580D01*
X125226523Y-192210580D01*
X125131285Y-192162961D01*
X125083666Y-192115342D01*
D11*
D10*
X334303119Y-83397580D02*
X334303119Y-84207104D01*
X334350738Y-84302342D01*
X334398357Y-84349961D01*
X334493595Y-84397580D01*
X334684071Y-84397580D01*
X334779309Y-84349961D01*
X334826928Y-84302342D01*
X334874547Y-84207104D01*
X334874547Y-83397580D01*
X335303119Y-84349961D02*
X335445976Y-84397580D01*
X335684071Y-84397580D01*
X335779309Y-84349961D01*
X335826928Y-84302342D01*
X335874547Y-84207104D01*
X335874547Y-84111866D01*
X335826928Y-84016628D01*
X335779309Y-83969009D01*
X335684071Y-83921390D01*
X335493595Y-83873771D01*
X335398357Y-83826152D01*
X335350738Y-83778533D01*
X335303119Y-83683295D01*
X335303119Y-83588057D01*
X335350738Y-83492819D01*
X335398357Y-83445200D01*
X335493595Y-83397580D01*
X335731690Y-83397580D01*
X335874547Y-83445200D01*
X336636452Y-83873771D02*
X336779309Y-83921390D01*
X336826928Y-83969009D01*
X336874547Y-84064247D01*
X336874547Y-84207104D01*
X336826928Y-84302342D01*
X336779309Y-84349961D01*
X336684071Y-84397580D01*
X336303119Y-84397580D01*
X336303119Y-83397580D01*
X336636452Y-83397580D01*
X336731690Y-83445200D01*
X336779309Y-83492819D01*
X336826928Y-83588057D01*
X336826928Y-83683295D01*
X336779309Y-83778533D01*
X336731690Y-83826152D01*
X336636452Y-83873771D01*
X336303119Y-83873771D01*
X338017404Y-84111866D02*
X338493595Y-84111866D01*
X337922166Y-84397580D02*
X338255500Y-83397580D01*
X338588833Y-84397580D01*
X339684071Y-84397580D02*
X339684071Y-83397580D01*
X339922166Y-83397580D01*
X340065023Y-83445200D01*
X340160261Y-83540438D01*
X340207880Y-83635676D01*
X340255500Y-83826152D01*
X340255500Y-83969009D01*
X340207880Y-84159485D01*
X340160261Y-84254723D01*
X340065023Y-84349961D01*
X339922166Y-84397580D01*
X339684071Y-84397580D01*
X341017404Y-83873771D02*
X341160261Y-83921390D01*
X341207880Y-83969009D01*
X341255500Y-84064247D01*
X341255500Y-84207104D01*
X341207880Y-84302342D01*
X341160261Y-84349961D01*
X341065023Y-84397580D01*
X340684071Y-84397580D01*
X340684071Y-83397580D01*
X341017404Y-83397580D01*
X341112642Y-83445200D01*
X341160261Y-83492819D01*
X341207880Y-83588057D01*
X341207880Y-83683295D01*
X341160261Y-83778533D01*
X341112642Y-83826152D01*
X341017404Y-83873771D01*
X340684071Y-83873771D01*
D11*
D10*
X192469785Y-83707104D02*
X191803119Y-83707104D01*
X192850738Y-83469009D02*
X192136452Y-83230914D01*
X192136452Y-83849961D01*
X191803119Y-84992819D02*
X192803119Y-84992819D01*
X192803119Y-85373771D01*
X192755500Y-85469009D01*
X192707880Y-85516628D01*
X192612642Y-85564247D01*
X192469785Y-85564247D01*
X192374547Y-85516628D01*
X192326928Y-85469009D01*
X192279309Y-85373771D01*
X192279309Y-84992819D01*
X191803119Y-86135676D02*
X191850738Y-86040438D01*
X191898357Y-85992819D01*
X191993595Y-85945200D01*
X192279309Y-85945200D01*
X192374547Y-85992819D01*
X192422166Y-86040438D01*
X192469785Y-86135676D01*
X192469785Y-86278533D01*
X192422166Y-86373771D01*
X192374547Y-86421390D01*
X192279309Y-86469009D01*
X191993595Y-86469009D01*
X191898357Y-86421390D01*
X191850738Y-86373771D01*
X191803119Y-86278533D01*
X191803119Y-86135676D01*
X191803119Y-86897580D02*
X192469785Y-86897580D01*
X192279309Y-86897580D02*
X192374547Y-86945200D01*
X192422166Y-86992819D01*
X192469785Y-87088057D01*
X192469785Y-87183295D01*
X192469785Y-87373771D02*
X192469785Y-87754723D01*
X192803119Y-87516628D02*
X191945976Y-87516628D01*
X191850738Y-87564247D01*
X191803119Y-87659485D01*
X191803119Y-87754723D01*
D11*
D10*
X224185104Y-196210580D02*
X224185104Y-195210580D01*
X224566057Y-195210580D01*
X224661295Y-195258200D01*
X224708914Y-195305819D01*
X224756533Y-195401057D01*
X224756533Y-195543914D01*
X224708914Y-195639152D01*
X224661295Y-195686771D01*
X224566057Y-195734390D01*
X224185104Y-195734390D01*
X225137485Y-195305819D02*
X225185104Y-195258200D01*
X225280342Y-195210580D01*
X225518438Y-195210580D01*
X225613676Y-195258200D01*
X225661295Y-195305819D01*
X225708914Y-195401057D01*
X225708914Y-195496295D01*
X225661295Y-195639152D01*
X225089866Y-196210580D01*
X225708914Y-196210580D01*
D11*
D10*
X237184071Y-86919752D02*
X237184071Y-87253085D01*
X237707880Y-87253085D02*
X236707880Y-87253085D01*
X236707880Y-86776894D01*
X237184071Y-86395942D02*
X237184071Y-86062609D01*
X237707880Y-85919752D02*
X237707880Y-86395942D01*
X236707880Y-86395942D01*
X236707880Y-85919752D01*
X236803119Y-85538799D02*
X236755500Y-85491180D01*
X236707880Y-85395942D01*
X236707880Y-85157847D01*
X236755500Y-85062609D01*
X236803119Y-85014990D01*
X236898357Y-84967371D01*
X236993595Y-84967371D01*
X237136452Y-85014990D01*
X237707880Y-85586418D01*
X237707880Y-84967371D01*
X237612642Y-84538799D02*
X237660261Y-84491180D01*
X237707880Y-84538799D01*
X237660261Y-84586418D01*
X237612642Y-84538799D01*
X237707880Y-84538799D01*
X237707880Y-83538799D02*
X237707880Y-84110228D01*
X237707880Y-83824513D02*
X236707880Y-83824513D01*
X236850738Y-83919752D01*
X236945976Y-84014990D01*
X236993595Y-84110228D01*
D11*
D10*
X205684071Y-104397580D02*
X205684071Y-103397580D01*
X205684071Y-103873771D02*
X206255500Y-103873771D01*
X206255500Y-104397580D02*
X206255500Y-103397580D01*
X207160261Y-103730914D02*
X207160261Y-104397580D01*
X206731690Y-103730914D02*
X206731690Y-104254723D01*
X206779309Y-104349961D01*
X206874547Y-104397580D01*
X207017404Y-104397580D01*
X207112642Y-104349961D01*
X207160261Y-104302342D01*
X207636452Y-104397580D02*
X207636452Y-103397580D01*
X207636452Y-103778533D02*
X207731690Y-103730914D01*
X207922166Y-103730914D01*
X208017404Y-103778533D01*
X208065023Y-103826152D01*
X208112642Y-103921390D01*
X208112642Y-104207104D01*
X208065023Y-104302342D01*
X208017404Y-104349961D01*
X207922166Y-104397580D01*
X207731690Y-104397580D01*
X207636452Y-104349961D01*
X209303119Y-104397580D02*
X209303119Y-103397580D01*
X209541214Y-103397580D01*
X209684071Y-103445200D01*
X209779309Y-103540438D01*
X209826928Y-103635676D01*
X209874547Y-103826152D01*
X209874547Y-103969009D01*
X209826928Y-104159485D01*
X209779309Y-104254723D01*
X209684071Y-104349961D01*
X209541214Y-104397580D01*
X209303119Y-104397580D01*
X210636452Y-103873771D02*
X210779309Y-103921390D01*
X210826928Y-103969009D01*
X210874547Y-104064247D01*
X210874547Y-104207104D01*
X210826928Y-104302342D01*
X210779309Y-104349961D01*
X210684071Y-104397580D01*
X210303119Y-104397580D01*
X210303119Y-103397580D01*
X210636452Y-103397580D01*
X210731690Y-103445200D01*
X210779309Y-103492819D01*
X210826928Y-103588057D01*
X210826928Y-103683295D01*
X210779309Y-103778533D01*
X210731690Y-103826152D01*
X210636452Y-103873771D01*
X210303119Y-103873771D01*
D11*
D10*
X381247419Y-99711319D02*
X380437895Y-99711319D01*
X380342657Y-99758938D01*
X380295038Y-99806557D01*
X380247419Y-99901795D01*
X380247419Y-100092271D01*
X380295038Y-100187509D01*
X380342657Y-100235128D01*
X380437895Y-100282747D01*
X381247419Y-100282747D01*
X380295038Y-100711319D02*
X380247419Y-100854176D01*
X380247419Y-101092271D01*
X380295038Y-101187509D01*
X380342657Y-101235128D01*
X380437895Y-101282747D01*
X380533133Y-101282747D01*
X380628371Y-101235128D01*
X380675990Y-101187509D01*
X380723609Y-101092271D01*
X380771228Y-100901795D01*
X380818847Y-100806557D01*
X380866466Y-100758938D01*
X380961704Y-100711319D01*
X381056942Y-100711319D01*
X381152180Y-100758938D01*
X381199800Y-100806557D01*
X381247419Y-100901795D01*
X381247419Y-101139890D01*
X381199800Y-101282747D01*
X380771228Y-102044652D02*
X380723609Y-102187509D01*
X380675990Y-102235128D01*
X380580752Y-102282747D01*
X380437895Y-102282747D01*
X380342657Y-102235128D01*
X380295038Y-102187509D01*
X380247419Y-102092271D01*
X380247419Y-101711319D01*
X381247419Y-101711319D01*
X381247419Y-102044652D01*
X381199800Y-102139890D01*
X381152180Y-102187509D01*
X381056942Y-102235128D01*
X380961704Y-102235128D01*
X380866466Y-102187509D01*
X380818847Y-102139890D01*
X380771228Y-102044652D01*
X380771228Y-101711319D01*
X380533133Y-103425604D02*
X380533133Y-103901795D01*
X380247419Y-103330366D02*
X381247419Y-103663700D01*
X380247419Y-103997033D01*
X380247419Y-105092271D02*
X381247419Y-105092271D01*
X381247419Y-105330366D01*
X381199800Y-105473223D01*
X381104561Y-105568461D01*
X381009323Y-105616080D01*
X380818847Y-105663700D01*
X380675990Y-105663700D01*
X380485514Y-105616080D01*
X380390276Y-105568461D01*
X380295038Y-105473223D01*
X380247419Y-105330366D01*
X380247419Y-105092271D01*
X380771228Y-106425604D02*
X380723609Y-106568461D01*
X380675990Y-106616080D01*
X380580752Y-106663700D01*
X380437895Y-106663700D01*
X380342657Y-106616080D01*
X380295038Y-106568461D01*
X380247419Y-106473223D01*
X380247419Y-106092271D01*
X381247419Y-106092271D01*
X381247419Y-106425604D01*
X381199800Y-106520842D01*
X381152180Y-106568461D01*
X381056942Y-106616080D01*
X380961704Y-106616080D01*
X380866466Y-106568461D01*
X380818847Y-106520842D01*
X380771228Y-106425604D01*
X380771228Y-106092271D01*
D11*
D10*
X35263581Y-106147580D02*
X36073105Y-106147580D01*
X36168343Y-106099961D01*
X36215962Y-106052342D01*
X36263581Y-105957104D01*
X36263581Y-105766628D01*
X36215962Y-105671390D01*
X36168343Y-105623771D01*
X36073105Y-105576152D01*
X35263581Y-105576152D01*
X36215962Y-105147580D02*
X36263581Y-105004723D01*
X36263581Y-104766628D01*
X36215962Y-104671390D01*
X36168343Y-104623771D01*
X36073105Y-104576152D01*
X35977867Y-104576152D01*
X35882629Y-104623771D01*
X35835010Y-104671390D01*
X35787391Y-104766628D01*
X35739772Y-104957104D01*
X35692153Y-105052342D01*
X35644534Y-105099961D01*
X35549296Y-105147580D01*
X35454058Y-105147580D01*
X35358820Y-105099961D01*
X35311201Y-105052342D01*
X35263581Y-104957104D01*
X35263581Y-104719009D01*
X35311201Y-104576152D01*
X35739772Y-103814247D02*
X35787391Y-103671390D01*
X35835010Y-103623771D01*
X35930248Y-103576152D01*
X36073105Y-103576152D01*
X36168343Y-103623771D01*
X36215962Y-103671390D01*
X36263581Y-103766628D01*
X36263581Y-104147580D01*
X35263581Y-104147580D01*
X35263581Y-103814247D01*
X35311201Y-103719009D01*
X35358820Y-103671390D01*
X35454058Y-103623771D01*
X35549296Y-103623771D01*
X35644534Y-103671390D01*
X35692153Y-103719009D01*
X35739772Y-103814247D01*
X35739772Y-104147580D01*
X35977867Y-102433295D02*
X35977867Y-101957104D01*
X36263581Y-102528533D02*
X35263581Y-102195200D01*
X36263581Y-101861866D01*
X36263581Y-100766628D02*
X35263581Y-100766628D01*
X35263581Y-100528533D01*
X35311201Y-100385676D01*
X35406439Y-100290438D01*
X35501677Y-100242819D01*
X35692153Y-100195200D01*
X35835010Y-100195200D01*
X36025486Y-100242819D01*
X36120724Y-100290438D01*
X36215962Y-100385676D01*
X36263581Y-100528533D01*
X36263581Y-100766628D01*
X35739772Y-99433295D02*
X35787391Y-99290438D01*
X35835010Y-99242819D01*
X35930248Y-99195200D01*
X36073105Y-99195200D01*
X36168343Y-99242819D01*
X36215962Y-99290438D01*
X36263581Y-99385676D01*
X36263581Y-99766628D01*
X35263581Y-99766628D01*
X35263581Y-99433295D01*
X35311201Y-99338057D01*
X35358820Y-99290438D01*
X35454058Y-99242819D01*
X35549296Y-99242819D01*
X35644534Y-99290438D01*
X35692153Y-99338057D01*
X35739772Y-99433295D01*
X35739772Y-99766628D01*
D11*
D10*
X224184071Y-87349961D02*
X224184071Y-87683295D01*
X224707880Y-87683295D02*
X223707880Y-87683295D01*
X223707880Y-87207104D01*
X224184071Y-86826152D02*
X224184071Y-86492819D01*
X224707880Y-86349961D02*
X224707880Y-86826152D01*
X223707880Y-86826152D01*
X223707880Y-86349961D01*
X224707880Y-85397580D02*
X224707880Y-85969009D01*
X224707880Y-85683295D02*
X223707880Y-85683295D01*
X223850738Y-85778533D01*
X223945976Y-85873771D01*
X223993595Y-85969009D01*
X224612642Y-84969009D02*
X224660261Y-84921390D01*
X224707880Y-84969009D01*
X224660261Y-85016628D01*
X224612642Y-84969009D01*
X224707880Y-84969009D01*
X224707880Y-83969009D02*
X224707880Y-84540438D01*
X224707880Y-84254723D02*
X223707880Y-84254723D01*
X223850738Y-84349961D01*
X223945976Y-84445200D01*
X223993595Y-84540438D01*
X224660261Y-83588057D02*
X224707880Y-83492819D01*
X224707880Y-83302342D01*
X224660261Y-83207104D01*
X224565023Y-83159485D01*
X224517404Y-83159485D01*
X224422166Y-83207104D01*
X224374547Y-83302342D01*
X224374547Y-83445200D01*
X224326928Y-83540438D01*
X224231690Y-83588057D01*
X224184071Y-83588057D01*
X224088833Y-83540438D01*
X224041214Y-83445200D01*
X224041214Y-83302342D01*
X224088833Y-83207104D01*
D11*
D10*
X179803119Y-83157847D02*
X179803119Y-83824513D01*
X178803119Y-83395942D01*
X178803119Y-84967371D02*
X179803119Y-84967371D01*
X179803119Y-85348323D01*
X179755500Y-85443561D01*
X179707880Y-85491180D01*
X179612642Y-85538799D01*
X179469785Y-85538799D01*
X179374547Y-85491180D01*
X179326928Y-85443561D01*
X179279309Y-85348323D01*
X179279309Y-84967371D01*
X178803119Y-86110228D02*
X178850738Y-86014990D01*
X178898357Y-85967371D01*
X178993595Y-85919752D01*
X179279309Y-85919752D01*
X179374547Y-85967371D01*
X179422166Y-86014990D01*
X179469785Y-86110228D01*
X179469785Y-86253085D01*
X179422166Y-86348323D01*
X179374547Y-86395942D01*
X179279309Y-86443561D01*
X178993595Y-86443561D01*
X178898357Y-86395942D01*
X178850738Y-86348323D01*
X178803119Y-86253085D01*
X178803119Y-86110228D01*
X178803119Y-86872132D02*
X179469785Y-86872132D01*
X179279309Y-86872132D02*
X179374547Y-86919752D01*
X179422166Y-86967371D01*
X179469785Y-87062609D01*
X179469785Y-87157847D01*
X179469785Y-87348323D02*
X179469785Y-87729275D01*
X179803119Y-87491180D02*
X178945976Y-87491180D01*
X178850738Y-87538799D01*
X178803119Y-87634037D01*
X178803119Y-87729275D01*
D11*
D10*
X124178904Y-196210580D02*
X124178904Y-195210580D01*
X124559857Y-195210580D01*
X124655095Y-195258200D01*
X124702714Y-195305819D01*
X124750333Y-195401057D01*
X124750333Y-195543914D01*
X124702714Y-195639152D01*
X124655095Y-195686771D01*
X124559857Y-195734390D01*
X124178904Y-195734390D01*
X125131285Y-195305819D02*
X125178904Y-195258200D01*
X125274142Y-195210580D01*
X125512238Y-195210580D01*
X125607476Y-195258200D01*
X125655095Y-195305819D01*
X125702714Y-195401057D01*
X125702714Y-195496295D01*
X125655095Y-195639152D01*
X125083666Y-196210580D01*
X125702714Y-196210580D01*
D11*
D10*
X204112642Y-110197580D02*
X203922166Y-110197580D01*
X203826928Y-110245200D01*
X203779309Y-110292819D01*
X203684071Y-110435676D01*
X203636452Y-110626152D01*
X203636452Y-111007104D01*
X203684071Y-111102342D01*
X203731690Y-111149961D01*
X203826928Y-111197580D01*
X204017404Y-111197580D01*
X204112642Y-111149961D01*
X204160261Y-111102342D01*
X204207880Y-111007104D01*
X204207880Y-110769009D01*
X204160261Y-110673771D01*
X204112642Y-110626152D01*
X204017404Y-110578533D01*
X203826928Y-110578533D01*
X203731690Y-110626152D01*
X203684071Y-110673771D01*
X203636452Y-110769009D01*
X204826928Y-110197580D02*
X204922166Y-110197580D01*
X205017404Y-110245200D01*
X205065023Y-110292819D01*
X205112642Y-110388057D01*
X205160261Y-110578533D01*
X205160261Y-110816628D01*
X205112642Y-111007104D01*
X205065023Y-111102342D01*
X205017404Y-111149961D01*
X204922166Y-111197580D01*
X204826928Y-111197580D01*
X204731690Y-111149961D01*
X204684071Y-111102342D01*
X204636452Y-111007104D01*
X204588833Y-110816628D01*
X204588833Y-110578533D01*
X204636452Y-110388057D01*
X204684071Y-110292819D01*
X204731690Y-110245200D01*
X204826928Y-110197580D01*
X205588833Y-111102342D02*
X205636452Y-111149961D01*
X205588833Y-111197580D01*
X205541214Y-111149961D01*
X205588833Y-111102342D01*
X205588833Y-111197580D01*
X206255500Y-110197580D02*
X206350738Y-110197580D01*
X206445976Y-110245200D01*
X206493595Y-110292819D01*
X206541214Y-110388057D01*
X206588833Y-110578533D01*
X206588833Y-110816628D01*
X206541214Y-111007104D01*
X206493595Y-111102342D01*
X206445976Y-111149961D01*
X206350738Y-111197580D01*
X206255500Y-111197580D01*
X206160261Y-111149961D01*
X206112642Y-111102342D01*
X206065023Y-111007104D01*
X206017404Y-110816628D01*
X206017404Y-110578533D01*
X206065023Y-110388057D01*
X206112642Y-110292819D01*
X206160261Y-110245200D01*
X206255500Y-110197580D01*
X207207880Y-110197580D02*
X207303119Y-110197580D01*
X207398357Y-110245200D01*
X207445976Y-110292819D01*
X207493595Y-110388057D01*
X207541214Y-110578533D01*
X207541214Y-110816628D01*
X207493595Y-111007104D01*
X207445976Y-111102342D01*
X207398357Y-111149961D01*
X207303119Y-111197580D01*
X207207880Y-111197580D01*
X207112642Y-111149961D01*
X207065023Y-111102342D01*
X207017404Y-111007104D01*
X206969785Y-110816628D01*
X206969785Y-110578533D01*
X207017404Y-110388057D01*
X207065023Y-110292819D01*
X207112642Y-110245200D01*
X207207880Y-110197580D01*
X208160261Y-110197580D02*
X208255500Y-110197580D01*
X208350738Y-110245200D01*
X208398357Y-110292819D01*
X208445976Y-110388057D01*
X208493595Y-110578533D01*
X208493595Y-110816628D01*
X208445976Y-111007104D01*
X208398357Y-111102342D01*
X208350738Y-111149961D01*
X208255500Y-111197580D01*
X208160261Y-111197580D01*
X208065023Y-111149961D01*
X208017404Y-111102342D01*
X207969785Y-111007104D01*
X207922166Y-110816628D01*
X207922166Y-110578533D01*
X207969785Y-110388057D01*
X208017404Y-110292819D01*
X208065023Y-110245200D01*
X208160261Y-110197580D01*
X209112642Y-110197580D02*
X209207880Y-110197580D01*
X209303119Y-110245200D01*
X209350738Y-110292819D01*
X209398357Y-110388057D01*
X209445976Y-110578533D01*
X209445976Y-110816628D01*
X209398357Y-111007104D01*
X209350738Y-111102342D01*
X209303119Y-111149961D01*
X209207880Y-111197580D01*
X209112642Y-111197580D01*
X209017404Y-111149961D01*
X208969785Y-111102342D01*
X208922166Y-111007104D01*
X208874547Y-110816628D01*
X208874547Y-110578533D01*
X208922166Y-110388057D01*
X208969785Y-110292819D01*
X209017404Y-110245200D01*
X209112642Y-110197580D01*
X210636452Y-111197580D02*
X210636452Y-110530914D01*
X210636452Y-110626152D02*
X210684071Y-110578533D01*
X210779309Y-110530914D01*
X210922166Y-110530914D01*
X211017404Y-110578533D01*
X211065023Y-110673771D01*
X211065023Y-111197580D01*
X211065023Y-110673771D02*
X211112642Y-110578533D01*
X211207880Y-110530914D01*
X211350738Y-110530914D01*
X211445976Y-110578533D01*
X211493595Y-110673771D01*
X211493595Y-111197580D01*
X211969785Y-111197580D02*
X211969785Y-110530914D01*
X211969785Y-110626152D02*
X212017404Y-110578533D01*
X212112642Y-110530914D01*
X212255500Y-110530914D01*
X212350738Y-110578533D01*
X212398357Y-110673771D01*
X212398357Y-111197580D01*
X212398357Y-110673771D02*
X212445976Y-110578533D01*
X212541214Y-110530914D01*
X212684071Y-110530914D01*
X212779309Y-110578533D01*
X212826928Y-110673771D01*
X212826928Y-111197580D01*
X178255500Y-105445200D02*
X178255500Y-112531620D01*
X238255500Y-105445200D02*
X238255500Y-112531620D01*
X178255500Y-111945200D02*
X202845976Y-111945200D01*
X213665024Y-111945200D02*
X238255500Y-111945200D01*
X178255500Y-111945200D02*
X179382004Y-112531621D01*
X178255500Y-111945200D02*
X179382004Y-111358779D01*
X238255500Y-111945200D02*
X237128996Y-111358779D01*
X238255500Y-111945200D02*
X237128996Y-112531621D01*
D11*
D10*
X203588833Y-108197580D02*
X204207880Y-108197580D01*
X203874547Y-108578533D01*
X204017404Y-108578533D01*
X204112642Y-108626152D01*
X204160261Y-108673771D01*
X204207880Y-108769009D01*
X204207880Y-109007104D01*
X204160261Y-109102342D01*
X204112642Y-109149961D01*
X204017404Y-109197580D01*
X203731690Y-109197580D01*
X203636452Y-109149961D01*
X203588833Y-109102342D01*
X205065023Y-108530914D02*
X205065023Y-109197580D01*
X204826928Y-108149961D02*
X204588833Y-108864247D01*
X205207880Y-108864247D01*
X205588833Y-109102342D02*
X205636452Y-109149961D01*
X205588833Y-109197580D01*
X205541214Y-109149961D01*
X205588833Y-109102342D01*
X205588833Y-109197580D01*
X206255500Y-108197580D02*
X206350738Y-108197580D01*
X206445976Y-108245200D01*
X206493595Y-108292819D01*
X206541214Y-108388057D01*
X206588833Y-108578533D01*
X206588833Y-108816628D01*
X206541214Y-109007104D01*
X206493595Y-109102342D01*
X206445976Y-109149961D01*
X206350738Y-109197580D01*
X206255500Y-109197580D01*
X206160261Y-109149961D01*
X206112642Y-109102342D01*
X206065023Y-109007104D01*
X206017404Y-108816628D01*
X206017404Y-108578533D01*
X206065023Y-108388057D01*
X206112642Y-108292819D01*
X206160261Y-108245200D01*
X206255500Y-108197580D01*
X207207880Y-108197580D02*
X207303119Y-108197580D01*
X207398357Y-108245200D01*
X207445976Y-108292819D01*
X207493595Y-108388057D01*
X207541214Y-108578533D01*
X207541214Y-108816628D01*
X207493595Y-109007104D01*
X207445976Y-109102342D01*
X207398357Y-109149961D01*
X207303119Y-109197580D01*
X207207880Y-109197580D01*
X207112642Y-109149961D01*
X207065023Y-109102342D01*
X207017404Y-109007104D01*
X206969785Y-108816628D01*
X206969785Y-108578533D01*
X207017404Y-108388057D01*
X207065023Y-108292819D01*
X207112642Y-108245200D01*
X207207880Y-108197580D01*
X208160261Y-108197580D02*
X208255500Y-108197580D01*
X208350738Y-108245200D01*
X208398357Y-108292819D01*
X208445976Y-108388057D01*
X208493595Y-108578533D01*
X208493595Y-108816628D01*
X208445976Y-109007104D01*
X208398357Y-109102342D01*
X208350738Y-109149961D01*
X208255500Y-109197580D01*
X208160261Y-109197580D01*
X208065023Y-109149961D01*
X208017404Y-109102342D01*
X207969785Y-109007104D01*
X207922166Y-108816628D01*
X207922166Y-108578533D01*
X207969785Y-108388057D01*
X208017404Y-108292819D01*
X208065023Y-108245200D01*
X208160261Y-108197580D01*
X209112642Y-108197580D02*
X209207880Y-108197580D01*
X209303119Y-108245200D01*
X209350738Y-108292819D01*
X209398357Y-108388057D01*
X209445976Y-108578533D01*
X209445976Y-108816628D01*
X209398357Y-109007104D01*
X209350738Y-109102342D01*
X209303119Y-109149961D01*
X209207880Y-109197580D01*
X209112642Y-109197580D01*
X209017404Y-109149961D01*
X208969785Y-109102342D01*
X208922166Y-109007104D01*
X208874547Y-108816628D01*
X208874547Y-108578533D01*
X208922166Y-108388057D01*
X208969785Y-108292819D01*
X209017404Y-108245200D01*
X209112642Y-108197580D01*
X210636452Y-109197580D02*
X210636452Y-108530914D01*
X210636452Y-108626152D02*
X210684071Y-108578533D01*
X210779309Y-108530914D01*
X210922166Y-108530914D01*
X211017404Y-108578533D01*
X211065023Y-108673771D01*
X211065023Y-109197580D01*
X211065023Y-108673771D02*
X211112642Y-108578533D01*
X211207880Y-108530914D01*
X211350738Y-108530914D01*
X211445976Y-108578533D01*
X211493595Y-108673771D01*
X211493595Y-109197580D01*
X211969785Y-109197580D02*
X211969785Y-108530914D01*
X211969785Y-108626152D02*
X212017404Y-108578533D01*
X212112642Y-108530914D01*
X212255500Y-108530914D01*
X212350738Y-108578533D01*
X212398357Y-108673771D01*
X212398357Y-109197580D01*
X212398357Y-108673771D02*
X212445976Y-108578533D01*
X212541214Y-108530914D01*
X212684071Y-108530914D01*
X212779309Y-108578533D01*
X212826928Y-108673771D01*
X212826928Y-109197580D01*
X191255500Y-105445200D02*
X191255500Y-110531620D01*
X225255500Y-105445200D02*
X225255500Y-110531620D01*
X191255500Y-109945200D02*
X202845976Y-109945200D01*
X213665024Y-109945200D02*
X225255500Y-109945200D01*
X191255500Y-109945200D02*
X192382004Y-110531621D01*
X191255500Y-109945200D02*
X192382004Y-109358779D01*
X225255500Y-109945200D02*
X224128996Y-109358779D01*
X225255500Y-109945200D02*
X224128996Y-110531621D01*
D11*
%TO.C,M3*%
D10*
X92268357Y-63179080D02*
X92268357Y-62179080D01*
X92601690Y-62893366D01*
X92935023Y-62179080D01*
X92935023Y-63179080D01*
X93315976Y-62179080D02*
X93935023Y-62179080D01*
X93601690Y-62560033D01*
X93744547Y-62560033D01*
X93839785Y-62607652D01*
X93887404Y-62655271D01*
X93935023Y-62750509D01*
X93935023Y-62988604D01*
X93887404Y-63083842D01*
X93839785Y-63131461D01*
X93744547Y-63179080D01*
X93458833Y-63179080D01*
X93363595Y-63131461D01*
X93315976Y-63083842D01*
D11*
D10*
X13783176Y-67379080D02*
X13783176Y-66379080D01*
X14116509Y-67093366D01*
X14449842Y-66379080D01*
X14449842Y-67379080D01*
X14830795Y-66379080D02*
X15449842Y-66379080D01*
X15116509Y-66760033D01*
X15259366Y-66760033D01*
X15354604Y-66807652D01*
X15402223Y-66855271D01*
X15449842Y-66950509D01*
X15449842Y-67188604D01*
X15402223Y-67283842D01*
X15354604Y-67331461D01*
X15259366Y-67379080D01*
X14973652Y-67379080D01*
X14878414Y-67331461D01*
X14830795Y-67283842D01*
D11*
%TO.C,M2.5*%
D10*
X146731690Y-78897580D02*
X146731690Y-77897580D01*
X147065023Y-78611866D01*
X147398357Y-77897580D01*
X147398357Y-78897580D01*
X147826928Y-77992819D02*
X147874547Y-77945200D01*
X147969785Y-77897580D01*
X148207880Y-77897580D01*
X148303119Y-77945200D01*
X148350738Y-77992819D01*
X148398357Y-78088057D01*
X148398357Y-78183295D01*
X148350738Y-78326152D01*
X147779309Y-78897580D01*
X148398357Y-78897580D01*
X148826928Y-78802342D02*
X148874547Y-78849961D01*
X148826928Y-78897580D01*
X148779309Y-78849961D01*
X148826928Y-78802342D01*
X148826928Y-78897580D01*
X149779309Y-77897580D02*
X149303119Y-77897580D01*
X149255500Y-78373771D01*
X149303119Y-78326152D01*
X149398357Y-78278533D01*
X149636452Y-78278533D01*
X149731690Y-78326152D01*
X149779309Y-78373771D01*
X149826928Y-78469009D01*
X149826928Y-78707104D01*
X149779309Y-78802342D01*
X149731690Y-78849961D01*
X149636452Y-78897580D01*
X149398357Y-78897580D01*
X149303119Y-78849961D01*
X149255500Y-78802342D01*
D11*
%TO.C,M3*%
D10*
X402370680Y-117295604D02*
X401370680Y-117295604D01*
X402084966Y-116962271D01*
X401370680Y-116628938D01*
X402370680Y-116628938D01*
X401370680Y-116247985D02*
X401370680Y-115628938D01*
X401751633Y-115962271D01*
X401751633Y-115819414D01*
X401799252Y-115724176D01*
X401846871Y-115676557D01*
X401942109Y-115628938D01*
X402180204Y-115628938D01*
X402275442Y-115676557D01*
X402323061Y-115724176D01*
X402370680Y-115819414D01*
X402370680Y-116105128D01*
X402323061Y-116200366D01*
X402275442Y-116247985D01*
D11*
D10*
X121641795Y-63179080D02*
X121641795Y-62179080D01*
X121975128Y-62893366D01*
X122308461Y-62179080D01*
X122308461Y-63179080D01*
X122689414Y-62179080D02*
X123308461Y-62179080D01*
X122975128Y-62560033D01*
X123117985Y-62560033D01*
X123213223Y-62607652D01*
X123260842Y-62655271D01*
X123308461Y-62750509D01*
X123308461Y-62988604D01*
X123260842Y-63083842D01*
X123213223Y-63131461D01*
X123117985Y-63179080D01*
X122832271Y-63179080D01*
X122737033Y-63131461D01*
X122689414Y-63083842D01*
D11*
%TO.C,M2.5*%
D10*
X386652180Y-92187509D02*
X385652180Y-92187509D01*
X386366466Y-91854176D01*
X385652180Y-91520842D01*
X386652180Y-91520842D01*
X385747419Y-91092271D02*
X385699800Y-91044652D01*
X385652180Y-90949414D01*
X385652180Y-90711319D01*
X385699800Y-90616080D01*
X385747419Y-90568461D01*
X385842657Y-90520842D01*
X385937895Y-90520842D01*
X386080752Y-90568461D01*
X386652180Y-91139890D01*
X386652180Y-90520842D01*
X386556942Y-90092271D02*
X386604561Y-90044652D01*
X386652180Y-90092271D01*
X386604561Y-90139890D01*
X386556942Y-90092271D01*
X386652180Y-90092271D01*
X385652180Y-89139890D02*
X385652180Y-89616080D01*
X386128371Y-89663700D01*
X386080752Y-89616080D01*
X386033133Y-89520842D01*
X386033133Y-89282747D01*
X386080752Y-89187509D01*
X386128371Y-89139890D01*
X386223609Y-89092271D01*
X386461704Y-89092271D01*
X386556942Y-89139890D01*
X386604561Y-89187509D01*
X386652180Y-89282747D01*
X386652180Y-89520842D01*
X386604561Y-89616080D01*
X386556942Y-89663700D01*
D11*
%TO.C,M3*%
D10*
X197623595Y-63179080D02*
X197623595Y-62179080D01*
X197956928Y-62893366D01*
X198290261Y-62179080D01*
X198290261Y-63179080D01*
X198671214Y-62179080D02*
X199290261Y-62179080D01*
X198956928Y-62560033D01*
X199099785Y-62560033D01*
X199195023Y-62607652D01*
X199242642Y-62655271D01*
X199290261Y-62750509D01*
X199290261Y-62988604D01*
X199242642Y-63083842D01*
X199195023Y-63131461D01*
X199099785Y-63179080D01*
X198814071Y-63179080D01*
X198718833Y-63131461D01*
X198671214Y-63083842D01*
D11*
D10*
X217268357Y-63179080D02*
X217268357Y-62179080D01*
X217601690Y-62893366D01*
X217935023Y-62179080D01*
X217935023Y-63179080D01*
X218315976Y-62179080D02*
X218935023Y-62179080D01*
X218601690Y-62560033D01*
X218744547Y-62560033D01*
X218839785Y-62607652D01*
X218887404Y-62655271D01*
X218935023Y-62750509D01*
X218935023Y-62988604D01*
X218887404Y-63083842D01*
X218839785Y-63131461D01*
X218744547Y-63179080D01*
X218458833Y-63179080D01*
X218363595Y-63131461D01*
X218315976Y-63083842D01*
D11*
D10*
X402370680Y-89643742D02*
X401370680Y-89643742D01*
X402084966Y-89310409D01*
X401370680Y-88977076D01*
X402370680Y-88977076D01*
X401370680Y-88596123D02*
X401370680Y-87977076D01*
X401751633Y-88310409D01*
X401751633Y-88167552D01*
X401799252Y-88072314D01*
X401846871Y-88024695D01*
X401942109Y-87977076D01*
X402180204Y-87977076D01*
X402275442Y-88024695D01*
X402323061Y-88072314D01*
X402370680Y-88167552D01*
X402370680Y-88453266D01*
X402323061Y-88548504D01*
X402275442Y-88596123D01*
D11*
%TO.C,M2.5*%
D10*
X25763581Y-92187509D02*
X24763581Y-92187509D01*
X25477867Y-91854176D01*
X24763581Y-91520842D01*
X25763581Y-91520842D01*
X24858820Y-91092271D02*
X24811201Y-91044652D01*
X24763581Y-90949414D01*
X24763581Y-90711319D01*
X24811201Y-90616080D01*
X24858820Y-90568461D01*
X24954058Y-90520842D01*
X25049296Y-90520842D01*
X25192153Y-90568461D01*
X25763581Y-91139890D01*
X25763581Y-90520842D01*
X25668343Y-90092271D02*
X25715962Y-90044652D01*
X25763581Y-90092271D01*
X25715962Y-90139890D01*
X25668343Y-90092271D01*
X25763581Y-90092271D01*
X24763581Y-89139890D02*
X24763581Y-89616080D01*
X25239772Y-89663700D01*
X25192153Y-89616080D01*
X25144534Y-89520842D01*
X25144534Y-89282747D01*
X25192153Y-89187509D01*
X25239772Y-89139890D01*
X25335010Y-89092271D01*
X25573105Y-89092271D01*
X25668343Y-89139890D01*
X25715962Y-89187509D01*
X25763581Y-89282747D01*
X25763581Y-89520842D01*
X25715962Y-89616080D01*
X25668343Y-89663700D01*
D11*
D10*
X89731690Y-73897580D02*
X89731690Y-72897580D01*
X90065023Y-73611866D01*
X90398357Y-72897580D01*
X90398357Y-73897580D01*
X90826928Y-72992819D02*
X90874547Y-72945200D01*
X90969785Y-72897580D01*
X91207880Y-72897580D01*
X91303119Y-72945200D01*
X91350738Y-72992819D01*
X91398357Y-73088057D01*
X91398357Y-73183295D01*
X91350738Y-73326152D01*
X90779309Y-73897580D01*
X91398357Y-73897580D01*
X91826928Y-73802342D02*
X91874547Y-73849961D01*
X91826928Y-73897580D01*
X91779309Y-73849961D01*
X91826928Y-73802342D01*
X91826928Y-73897580D01*
X92779309Y-72897580D02*
X92303119Y-72897580D01*
X92255500Y-73373771D01*
X92303119Y-73326152D01*
X92398357Y-73278533D01*
X92636452Y-73278533D01*
X92731690Y-73326152D01*
X92779309Y-73373771D01*
X92826928Y-73469009D01*
X92826928Y-73707104D01*
X92779309Y-73802342D01*
X92731690Y-73849961D01*
X92636452Y-73897580D01*
X92398357Y-73897580D01*
X92303119Y-73849961D01*
X92255500Y-73802342D01*
D11*
%TO.C,M3*%
D10*
X265623595Y-63179080D02*
X265623595Y-62179080D01*
X265956928Y-62893366D01*
X266290261Y-62179080D01*
X266290261Y-63179080D01*
X266671214Y-62179080D02*
X267290261Y-62179080D01*
X266956928Y-62560033D01*
X267099785Y-62560033D01*
X267195023Y-62607652D01*
X267242642Y-62655271D01*
X267290261Y-62750509D01*
X267290261Y-62988604D01*
X267242642Y-63083842D01*
X267195023Y-63131461D01*
X267099785Y-63179080D01*
X266814071Y-63179080D01*
X266718833Y-63131461D01*
X266671214Y-63083842D01*
D11*
D10*
X149268357Y-63179080D02*
X149268357Y-62179080D01*
X149601690Y-62893366D01*
X149935023Y-62179080D01*
X149935023Y-63179080D01*
X150315976Y-62179080D02*
X150935023Y-62179080D01*
X150601690Y-62560033D01*
X150744547Y-62560033D01*
X150839785Y-62607652D01*
X150887404Y-62655271D01*
X150935023Y-62750509D01*
X150935023Y-62988604D01*
X150887404Y-63083842D01*
X150839785Y-63131461D01*
X150744547Y-63179080D01*
X150458833Y-63179080D01*
X150363595Y-63131461D01*
X150315976Y-63083842D01*
D11*
%TO.C,M2.5*%
D10*
X347731690Y-73897580D02*
X347731690Y-72897580D01*
X348065023Y-73611866D01*
X348398357Y-72897580D01*
X348398357Y-73897580D01*
X348826928Y-72992819D02*
X348874547Y-72945200D01*
X348969785Y-72897580D01*
X349207880Y-72897580D01*
X349303119Y-72945200D01*
X349350738Y-72992819D01*
X349398357Y-73088057D01*
X349398357Y-73183295D01*
X349350738Y-73326152D01*
X348779309Y-73897580D01*
X349398357Y-73897580D01*
X349826928Y-73802342D02*
X349874547Y-73849961D01*
X349826928Y-73897580D01*
X349779309Y-73849961D01*
X349826928Y-73802342D01*
X349826928Y-73897580D01*
X350779309Y-72897580D02*
X350303119Y-72897580D01*
X350255500Y-73373771D01*
X350303119Y-73326152D01*
X350398357Y-73278533D01*
X350636452Y-73278533D01*
X350731690Y-73326152D01*
X350779309Y-73373771D01*
X350826928Y-73469009D01*
X350826928Y-73707104D01*
X350779309Y-73802342D01*
X350731690Y-73849961D01*
X350636452Y-73897580D01*
X350398357Y-73897580D01*
X350303119Y-73849961D01*
X350255500Y-73802342D01*
D11*
D10*
X179731690Y-73897580D02*
X179731690Y-72897580D01*
X180065023Y-73611866D01*
X180398357Y-72897580D01*
X180398357Y-73897580D01*
X180826928Y-72992819D02*
X180874547Y-72945200D01*
X180969785Y-72897580D01*
X181207880Y-72897580D01*
X181303119Y-72945200D01*
X181350738Y-72992819D01*
X181398357Y-73088057D01*
X181398357Y-73183295D01*
X181350738Y-73326152D01*
X180779309Y-73897580D01*
X181398357Y-73897580D01*
X181826928Y-73802342D02*
X181874547Y-73849961D01*
X181826928Y-73897580D01*
X181779309Y-73849961D01*
X181826928Y-73802342D01*
X181826928Y-73897580D01*
X182779309Y-72897580D02*
X182303119Y-72897580D01*
X182255500Y-73373771D01*
X182303119Y-73326152D01*
X182398357Y-73278533D01*
X182636452Y-73278533D01*
X182731690Y-73326152D01*
X182779309Y-73373771D01*
X182826928Y-73469009D01*
X182826928Y-73707104D01*
X182779309Y-73802342D01*
X182731690Y-73849961D01*
X182636452Y-73897580D01*
X182398357Y-73897580D01*
X182303119Y-73849961D01*
X182255500Y-73802342D01*
D11*
D10*
X179731690Y-98897580D02*
X179731690Y-97897580D01*
X180065023Y-98611866D01*
X180398357Y-97897580D01*
X180398357Y-98897580D01*
X180826928Y-97992819D02*
X180874547Y-97945200D01*
X180969785Y-97897580D01*
X181207880Y-97897580D01*
X181303119Y-97945200D01*
X181350738Y-97992819D01*
X181398357Y-98088057D01*
X181398357Y-98183295D01*
X181350738Y-98326152D01*
X180779309Y-98897580D01*
X181398357Y-98897580D01*
X181826928Y-98802342D02*
X181874547Y-98849961D01*
X181826928Y-98897580D01*
X181779309Y-98849961D01*
X181826928Y-98802342D01*
X181826928Y-98897580D01*
X182779309Y-97897580D02*
X182303119Y-97897580D01*
X182255500Y-98373771D01*
X182303119Y-98326152D01*
X182398357Y-98278533D01*
X182636452Y-98278533D01*
X182731690Y-98326152D01*
X182779309Y-98373771D01*
X182826928Y-98469009D01*
X182826928Y-98707104D01*
X182779309Y-98802342D01*
X182731690Y-98849961D01*
X182636452Y-98897580D01*
X182398357Y-98897580D01*
X182303119Y-98849961D01*
X182255500Y-98802342D01*
D11*
D10*
X192731690Y-98897580D02*
X192731690Y-97897580D01*
X193065023Y-98611866D01*
X193398357Y-97897580D01*
X193398357Y-98897580D01*
X193826928Y-97992819D02*
X193874547Y-97945200D01*
X193969785Y-97897580D01*
X194207880Y-97897580D01*
X194303119Y-97945200D01*
X194350738Y-97992819D01*
X194398357Y-98088057D01*
X194398357Y-98183295D01*
X194350738Y-98326152D01*
X193779309Y-98897580D01*
X194398357Y-98897580D01*
X194826928Y-98802342D02*
X194874547Y-98849961D01*
X194826928Y-98897580D01*
X194779309Y-98849961D01*
X194826928Y-98802342D01*
X194826928Y-98897580D01*
X195779309Y-97897580D02*
X195303119Y-97897580D01*
X195255500Y-98373771D01*
X195303119Y-98326152D01*
X195398357Y-98278533D01*
X195636452Y-98278533D01*
X195731690Y-98326152D01*
X195779309Y-98373771D01*
X195826928Y-98469009D01*
X195826928Y-98707104D01*
X195779309Y-98802342D01*
X195731690Y-98849961D01*
X195636452Y-98897580D01*
X195398357Y-98897580D01*
X195303119Y-98849961D01*
X195255500Y-98802342D01*
D11*
D10*
X146731690Y-73897580D02*
X146731690Y-72897580D01*
X147065023Y-73611866D01*
X147398357Y-72897580D01*
X147398357Y-73897580D01*
X147826928Y-72992819D02*
X147874547Y-72945200D01*
X147969785Y-72897580D01*
X148207880Y-72897580D01*
X148303119Y-72945200D01*
X148350738Y-72992819D01*
X148398357Y-73088057D01*
X148398357Y-73183295D01*
X148350738Y-73326152D01*
X147779309Y-73897580D01*
X148398357Y-73897580D01*
X148826928Y-73802342D02*
X148874547Y-73849961D01*
X148826928Y-73897580D01*
X148779309Y-73849961D01*
X148826928Y-73802342D01*
X148826928Y-73897580D01*
X149779309Y-72897580D02*
X149303119Y-72897580D01*
X149255500Y-73373771D01*
X149303119Y-73326152D01*
X149398357Y-73278533D01*
X149636452Y-73278533D01*
X149731690Y-73326152D01*
X149779309Y-73373771D01*
X149826928Y-73469009D01*
X149826928Y-73707104D01*
X149779309Y-73802342D01*
X149731690Y-73849961D01*
X149636452Y-73897580D01*
X149398357Y-73897580D01*
X149303119Y-73849961D01*
X149255500Y-73802342D01*
D11*
D10*
X233731690Y-98897580D02*
X233731690Y-97897580D01*
X234065023Y-98611866D01*
X234398357Y-97897580D01*
X234398357Y-98897580D01*
X234826928Y-97992819D02*
X234874547Y-97945200D01*
X234969785Y-97897580D01*
X235207880Y-97897580D01*
X235303119Y-97945200D01*
X235350738Y-97992819D01*
X235398357Y-98088057D01*
X235398357Y-98183295D01*
X235350738Y-98326152D01*
X234779309Y-98897580D01*
X235398357Y-98897580D01*
X235826928Y-98802342D02*
X235874547Y-98849961D01*
X235826928Y-98897580D01*
X235779309Y-98849961D01*
X235826928Y-98802342D01*
X235826928Y-98897580D01*
X236779309Y-97897580D02*
X236303119Y-97897580D01*
X236255500Y-98373771D01*
X236303119Y-98326152D01*
X236398357Y-98278533D01*
X236636452Y-98278533D01*
X236731690Y-98326152D01*
X236779309Y-98373771D01*
X236826928Y-98469009D01*
X236826928Y-98707104D01*
X236779309Y-98802342D01*
X236731690Y-98849961D01*
X236636452Y-98897580D01*
X236398357Y-98897580D01*
X236303119Y-98849961D01*
X236255500Y-98802342D01*
D11*
%TO.C,M3*%
D10*
X15013580Y-89650842D02*
X14013580Y-89650842D01*
X14727866Y-89317509D01*
X14013580Y-88984176D01*
X15013580Y-88984176D01*
X14013580Y-88603223D02*
X14013580Y-87984176D01*
X14394533Y-88317509D01*
X14394533Y-88174652D01*
X14442152Y-88079414D01*
X14489771Y-88031795D01*
X14585009Y-87984176D01*
X14823104Y-87984176D01*
X14918342Y-88031795D01*
X14965961Y-88079414D01*
X15013580Y-88174652D01*
X15013580Y-88460366D01*
X14965961Y-88555604D01*
X14918342Y-88603223D01*
D11*
%TO.C,M2*%
D10*
X214445976Y-79147580D02*
X214445976Y-78147580D01*
X214779309Y-78861866D01*
X215112642Y-78147580D01*
X215112642Y-79147580D01*
X215541214Y-78242819D02*
X215588833Y-78195200D01*
X215684071Y-78147580D01*
X215922166Y-78147580D01*
X216017404Y-78195200D01*
X216065023Y-78242819D01*
X216112642Y-78338057D01*
X216112642Y-78433295D01*
X216065023Y-78576152D01*
X215493595Y-79147580D01*
X216112642Y-79147580D01*
D11*
%TO.C,M2.5*%
D10*
X266731690Y-73897580D02*
X266731690Y-72897580D01*
X267065023Y-73611866D01*
X267398357Y-72897580D01*
X267398357Y-73897580D01*
X267826928Y-72992819D02*
X267874547Y-72945200D01*
X267969785Y-72897580D01*
X268207880Y-72897580D01*
X268303119Y-72945200D01*
X268350738Y-72992819D01*
X268398357Y-73088057D01*
X268398357Y-73183295D01*
X268350738Y-73326152D01*
X267779309Y-73897580D01*
X268398357Y-73897580D01*
X268826928Y-73802342D02*
X268874547Y-73849961D01*
X268826928Y-73897580D01*
X268779309Y-73849961D01*
X268826928Y-73802342D01*
X268826928Y-73897580D01*
X269779309Y-72897580D02*
X269303119Y-72897580D01*
X269255500Y-73373771D01*
X269303119Y-73326152D01*
X269398357Y-73278533D01*
X269636452Y-73278533D01*
X269731690Y-73326152D01*
X269779309Y-73373771D01*
X269826928Y-73469009D01*
X269826928Y-73707104D01*
X269779309Y-73802342D01*
X269731690Y-73849961D01*
X269636452Y-73897580D01*
X269398357Y-73897580D01*
X269303119Y-73849961D01*
X269255500Y-73802342D01*
D11*
D10*
X220731690Y-98897580D02*
X220731690Y-97897580D01*
X221065023Y-98611866D01*
X221398357Y-97897580D01*
X221398357Y-98897580D01*
X221826928Y-97992819D02*
X221874547Y-97945200D01*
X221969785Y-97897580D01*
X222207880Y-97897580D01*
X222303119Y-97945200D01*
X222350738Y-97992819D01*
X222398357Y-98088057D01*
X222398357Y-98183295D01*
X222350738Y-98326152D01*
X221779309Y-98897580D01*
X222398357Y-98897580D01*
X222826928Y-98802342D02*
X222874547Y-98849961D01*
X222826928Y-98897580D01*
X222779309Y-98849961D01*
X222826928Y-98802342D01*
X222826928Y-98897580D01*
X223779309Y-97897580D02*
X223303119Y-97897580D01*
X223255500Y-98373771D01*
X223303119Y-98326152D01*
X223398357Y-98278533D01*
X223636452Y-98278533D01*
X223731690Y-98326152D01*
X223779309Y-98373771D01*
X223826928Y-98469009D01*
X223826928Y-98707104D01*
X223779309Y-98802342D01*
X223731690Y-98849961D01*
X223636452Y-98897580D01*
X223398357Y-98897580D01*
X223303119Y-98849961D01*
X223255500Y-98802342D01*
D11*
%TO.C,M3*%
D10*
X121623595Y-198108080D02*
X121623595Y-197108080D01*
X121956928Y-197822366D01*
X122290261Y-197108080D01*
X122290261Y-198108080D01*
X122671214Y-197108080D02*
X123290261Y-197108080D01*
X122956928Y-197489033D01*
X123099785Y-197489033D01*
X123195023Y-197536652D01*
X123242642Y-197584271D01*
X123290261Y-197679509D01*
X123290261Y-197917604D01*
X123242642Y-198012842D01*
X123195023Y-198060461D01*
X123099785Y-198108080D01*
X122814071Y-198108080D01*
X122718833Y-198060461D01*
X122671214Y-198012842D01*
D11*
%TO.C,M2.5*%
D10*
X65731690Y-73897580D02*
X65731690Y-72897580D01*
X66065023Y-73611866D01*
X66398357Y-72897580D01*
X66398357Y-73897580D01*
X66826928Y-72992819D02*
X66874547Y-72945200D01*
X66969785Y-72897580D01*
X67207880Y-72897580D01*
X67303119Y-72945200D01*
X67350738Y-72992819D01*
X67398357Y-73088057D01*
X67398357Y-73183295D01*
X67350738Y-73326152D01*
X66779309Y-73897580D01*
X67398357Y-73897580D01*
X67826928Y-73802342D02*
X67874547Y-73849961D01*
X67826928Y-73897580D01*
X67779309Y-73849961D01*
X67826928Y-73802342D01*
X67826928Y-73897580D01*
X68779309Y-72897580D02*
X68303119Y-72897580D01*
X68255500Y-73373771D01*
X68303119Y-73326152D01*
X68398357Y-73278533D01*
X68636452Y-73278533D01*
X68731690Y-73326152D01*
X68779309Y-73373771D01*
X68826928Y-73469009D01*
X68826928Y-73707104D01*
X68779309Y-73802342D01*
X68731690Y-73849961D01*
X68636452Y-73897580D01*
X68398357Y-73897580D01*
X68303119Y-73849961D01*
X68255500Y-73802342D01*
D11*
%TO.C,M2*%
D10*
X200445976Y-79147580D02*
X200445976Y-78147580D01*
X200779309Y-78861866D01*
X201112642Y-78147580D01*
X201112642Y-79147580D01*
X201541214Y-78242819D02*
X201588833Y-78195200D01*
X201684071Y-78147580D01*
X201922166Y-78147580D01*
X202017404Y-78195200D01*
X202065023Y-78242819D01*
X202112642Y-78338057D01*
X202112642Y-78433295D01*
X202065023Y-78576152D01*
X201493595Y-79147580D01*
X202112642Y-79147580D01*
D11*
%TO.C,M2.5*%
D10*
X323731690Y-78897580D02*
X323731690Y-77897580D01*
X324065023Y-78611866D01*
X324398357Y-77897580D01*
X324398357Y-78897580D01*
X324826928Y-77992819D02*
X324874547Y-77945200D01*
X324969785Y-77897580D01*
X325207880Y-77897580D01*
X325303119Y-77945200D01*
X325350738Y-77992819D01*
X325398357Y-78088057D01*
X325398357Y-78183295D01*
X325350738Y-78326152D01*
X324779309Y-78897580D01*
X325398357Y-78897580D01*
X325826928Y-78802342D02*
X325874547Y-78849961D01*
X325826928Y-78897580D01*
X325779309Y-78849961D01*
X325826928Y-78802342D01*
X325826928Y-78897580D01*
X326779309Y-77897580D02*
X326303119Y-77897580D01*
X326255500Y-78373771D01*
X326303119Y-78326152D01*
X326398357Y-78278533D01*
X326636452Y-78278533D01*
X326731690Y-78326152D01*
X326779309Y-78373771D01*
X326826928Y-78469009D01*
X326826928Y-78707104D01*
X326779309Y-78802342D01*
X326731690Y-78849961D01*
X326636452Y-78897580D01*
X326398357Y-78897580D01*
X326303119Y-78849961D01*
X326255500Y-78802342D01*
D11*
%TO.C,M2*%
D10*
X214445976Y-72147580D02*
X214445976Y-71147580D01*
X214779309Y-71861866D01*
X215112642Y-71147580D01*
X215112642Y-72147580D01*
X215541214Y-71242819D02*
X215588833Y-71195200D01*
X215684071Y-71147580D01*
X215922166Y-71147580D01*
X216017404Y-71195200D01*
X216065023Y-71242819D01*
X216112642Y-71338057D01*
X216112642Y-71433295D01*
X216065023Y-71576152D01*
X215493595Y-72147580D01*
X216112642Y-72147580D01*
D11*
%TO.C,M2.5*%
D10*
X25763581Y-116187509D02*
X24763581Y-116187509D01*
X25477867Y-115854176D01*
X24763581Y-115520842D01*
X25763581Y-115520842D01*
X24858820Y-115092271D02*
X24811201Y-115044652D01*
X24763581Y-114949414D01*
X24763581Y-114711319D01*
X24811201Y-114616080D01*
X24858820Y-114568461D01*
X24954058Y-114520842D01*
X25049296Y-114520842D01*
X25192153Y-114568461D01*
X25763581Y-115139890D01*
X25763581Y-114520842D01*
X25668343Y-114092271D02*
X25715962Y-114044652D01*
X25763581Y-114092271D01*
X25715962Y-114139890D01*
X25668343Y-114092271D01*
X25763581Y-114092271D01*
X24763581Y-113139890D02*
X24763581Y-113616080D01*
X25239772Y-113663700D01*
X25192153Y-113616080D01*
X25144534Y-113520842D01*
X25144534Y-113282747D01*
X25192153Y-113187509D01*
X25239772Y-113139890D01*
X25335010Y-113092271D01*
X25573105Y-113092271D01*
X25668343Y-113139890D01*
X25715962Y-113187509D01*
X25763581Y-113282747D01*
X25763581Y-113520842D01*
X25715962Y-113616080D01*
X25668343Y-113663700D01*
D11*
%TO.C,M3*%
D10*
X322623595Y-63179080D02*
X322623595Y-62179080D01*
X322956928Y-62893366D01*
X323290261Y-62179080D01*
X323290261Y-63179080D01*
X323671214Y-62179080D02*
X324290261Y-62179080D01*
X323956928Y-62560033D01*
X324099785Y-62560033D01*
X324195023Y-62607652D01*
X324242642Y-62655271D01*
X324290261Y-62750509D01*
X324290261Y-62988604D01*
X324242642Y-63083842D01*
X324195023Y-63131461D01*
X324099785Y-63179080D01*
X323814071Y-63179080D01*
X323718833Y-63131461D01*
X323671214Y-63083842D01*
D11*
%TO.C,M2.5*%
D10*
X122731690Y-73897580D02*
X122731690Y-72897580D01*
X123065023Y-73611866D01*
X123398357Y-72897580D01*
X123398357Y-73897580D01*
X123826928Y-72992819D02*
X123874547Y-72945200D01*
X123969785Y-72897580D01*
X124207880Y-72897580D01*
X124303119Y-72945200D01*
X124350738Y-72992819D01*
X124398357Y-73088057D01*
X124398357Y-73183295D01*
X124350738Y-73326152D01*
X123779309Y-73897580D01*
X124398357Y-73897580D01*
X124826928Y-73802342D02*
X124874547Y-73849961D01*
X124826928Y-73897580D01*
X124779309Y-73849961D01*
X124826928Y-73802342D01*
X124826928Y-73897580D01*
X125779309Y-72897580D02*
X125303119Y-72897580D01*
X125255500Y-73373771D01*
X125303119Y-73326152D01*
X125398357Y-73278533D01*
X125636452Y-73278533D01*
X125731690Y-73326152D01*
X125779309Y-73373771D01*
X125826928Y-73469009D01*
X125826928Y-73707104D01*
X125779309Y-73802342D01*
X125731690Y-73849961D01*
X125636452Y-73897580D01*
X125398357Y-73897580D01*
X125303119Y-73849961D01*
X125255500Y-73802342D01*
D11*
D10*
X122731690Y-78897580D02*
X122731690Y-77897580D01*
X123065023Y-78611866D01*
X123398357Y-77897580D01*
X123398357Y-78897580D01*
X123826928Y-77992819D02*
X123874547Y-77945200D01*
X123969785Y-77897580D01*
X124207880Y-77897580D01*
X124303119Y-77945200D01*
X124350738Y-77992819D01*
X124398357Y-78088057D01*
X124398357Y-78183295D01*
X124350738Y-78326152D01*
X123779309Y-78897580D01*
X124398357Y-78897580D01*
X124826928Y-78802342D02*
X124874547Y-78849961D01*
X124826928Y-78897580D01*
X124779309Y-78849961D01*
X124826928Y-78802342D01*
X124826928Y-78897580D01*
X125779309Y-77897580D02*
X125303119Y-77897580D01*
X125255500Y-78373771D01*
X125303119Y-78326152D01*
X125398357Y-78278533D01*
X125636452Y-78278533D01*
X125731690Y-78326152D01*
X125779309Y-78373771D01*
X125826928Y-78469009D01*
X125826928Y-78707104D01*
X125779309Y-78802342D01*
X125731690Y-78849961D01*
X125636452Y-78897580D01*
X125398357Y-78897580D01*
X125303119Y-78849961D01*
X125255500Y-78802342D01*
D11*
D10*
X220731690Y-73897580D02*
X220731690Y-72897580D01*
X221065023Y-73611866D01*
X221398357Y-72897580D01*
X221398357Y-73897580D01*
X221826928Y-72992819D02*
X221874547Y-72945200D01*
X221969785Y-72897580D01*
X222207880Y-72897580D01*
X222303119Y-72945200D01*
X222350738Y-72992819D01*
X222398357Y-73088057D01*
X222398357Y-73183295D01*
X222350738Y-73326152D01*
X221779309Y-73897580D01*
X222398357Y-73897580D01*
X222826928Y-73802342D02*
X222874547Y-73849961D01*
X222826928Y-73897580D01*
X222779309Y-73849961D01*
X222826928Y-73802342D01*
X222826928Y-73897580D01*
X223779309Y-72897580D02*
X223303119Y-72897580D01*
X223255500Y-73373771D01*
X223303119Y-73326152D01*
X223398357Y-73278533D01*
X223636452Y-73278533D01*
X223731690Y-73326152D01*
X223779309Y-73373771D01*
X223826928Y-73469009D01*
X223826928Y-73707104D01*
X223779309Y-73802342D01*
X223731690Y-73849961D01*
X223636452Y-73897580D01*
X223398357Y-73897580D01*
X223303119Y-73849961D01*
X223255500Y-73802342D01*
D11*
D10*
X347731690Y-78897580D02*
X347731690Y-77897580D01*
X348065023Y-78611866D01*
X348398357Y-77897580D01*
X348398357Y-78897580D01*
X348826928Y-77992819D02*
X348874547Y-77945200D01*
X348969785Y-77897580D01*
X349207880Y-77897580D01*
X349303119Y-77945200D01*
X349350738Y-77992819D01*
X349398357Y-78088057D01*
X349398357Y-78183295D01*
X349350738Y-78326152D01*
X348779309Y-78897580D01*
X349398357Y-78897580D01*
X349826928Y-78802342D02*
X349874547Y-78849961D01*
X349826928Y-78897580D01*
X349779309Y-78849961D01*
X349826928Y-78802342D01*
X349826928Y-78897580D01*
X350779309Y-77897580D02*
X350303119Y-77897580D01*
X350255500Y-78373771D01*
X350303119Y-78326152D01*
X350398357Y-78278533D01*
X350636452Y-78278533D01*
X350731690Y-78326152D01*
X350779309Y-78373771D01*
X350826928Y-78469009D01*
X350826928Y-78707104D01*
X350779309Y-78802342D01*
X350731690Y-78849961D01*
X350636452Y-78897580D01*
X350398357Y-78897580D01*
X350303119Y-78849961D01*
X350255500Y-78802342D01*
D11*
%TO.C,M3*%
D10*
X349768357Y-63179080D02*
X349768357Y-62179080D01*
X350101690Y-62893366D01*
X350435023Y-62179080D01*
X350435023Y-63179080D01*
X350815976Y-62179080D02*
X351435023Y-62179080D01*
X351101690Y-62560033D01*
X351244547Y-62560033D01*
X351339785Y-62607652D01*
X351387404Y-62655271D01*
X351435023Y-62750509D01*
X351435023Y-62988604D01*
X351387404Y-63083842D01*
X351339785Y-63131461D01*
X351244547Y-63179080D01*
X350958833Y-63179080D01*
X350863595Y-63131461D01*
X350815976Y-63083842D01*
D11*
%TO.C,M2.5*%
D10*
X386652180Y-116187509D02*
X385652180Y-116187509D01*
X386366466Y-115854176D01*
X385652180Y-115520842D01*
X386652180Y-115520842D01*
X385747419Y-115092271D02*
X385699800Y-115044652D01*
X385652180Y-114949414D01*
X385652180Y-114711319D01*
X385699800Y-114616080D01*
X385747419Y-114568461D01*
X385842657Y-114520842D01*
X385937895Y-114520842D01*
X386080752Y-114568461D01*
X386652180Y-115139890D01*
X386652180Y-114520842D01*
X386556942Y-114092271D02*
X386604561Y-114044652D01*
X386652180Y-114092271D01*
X386604561Y-114139890D01*
X386556942Y-114092271D01*
X386652180Y-114092271D01*
X385652180Y-113139890D02*
X385652180Y-113616080D01*
X386128371Y-113663700D01*
X386080752Y-113616080D01*
X386033133Y-113520842D01*
X386033133Y-113282747D01*
X386080752Y-113187509D01*
X386128371Y-113139890D01*
X386223609Y-113092271D01*
X386461704Y-113092271D01*
X386556942Y-113139890D01*
X386604561Y-113187509D01*
X386652180Y-113282747D01*
X386652180Y-113520842D01*
X386604561Y-113616080D01*
X386556942Y-113663700D01*
D11*
D10*
X192731690Y-73897580D02*
X192731690Y-72897580D01*
X193065023Y-73611866D01*
X193398357Y-72897580D01*
X193398357Y-73897580D01*
X193826928Y-72992819D02*
X193874547Y-72945200D01*
X193969785Y-72897580D01*
X194207880Y-72897580D01*
X194303119Y-72945200D01*
X194350738Y-72992819D01*
X194398357Y-73088057D01*
X194398357Y-73183295D01*
X194350738Y-73326152D01*
X193779309Y-73897580D01*
X194398357Y-73897580D01*
X194826928Y-73802342D02*
X194874547Y-73849961D01*
X194826928Y-73897580D01*
X194779309Y-73849961D01*
X194826928Y-73802342D01*
X194826928Y-73897580D01*
X195779309Y-72897580D02*
X195303119Y-72897580D01*
X195255500Y-73373771D01*
X195303119Y-73326152D01*
X195398357Y-73278533D01*
X195636452Y-73278533D01*
X195731690Y-73326152D01*
X195779309Y-73373771D01*
X195826928Y-73469009D01*
X195826928Y-73707104D01*
X195779309Y-73802342D01*
X195731690Y-73849961D01*
X195636452Y-73897580D01*
X195398357Y-73897580D01*
X195303119Y-73849961D01*
X195255500Y-73802342D01*
D11*
D10*
X30763581Y-116187509D02*
X29763581Y-116187509D01*
X30477867Y-115854176D01*
X29763581Y-115520842D01*
X30763581Y-115520842D01*
X29858820Y-115092271D02*
X29811201Y-115044652D01*
X29763581Y-114949414D01*
X29763581Y-114711319D01*
X29811201Y-114616080D01*
X29858820Y-114568461D01*
X29954058Y-114520842D01*
X30049296Y-114520842D01*
X30192153Y-114568461D01*
X30763581Y-115139890D01*
X30763581Y-114520842D01*
X30668343Y-114092271D02*
X30715962Y-114044652D01*
X30763581Y-114092271D01*
X30715962Y-114139890D01*
X30668343Y-114092271D01*
X30763581Y-114092271D01*
X29763581Y-113139890D02*
X29763581Y-113616080D01*
X30239772Y-113663700D01*
X30192153Y-113616080D01*
X30144534Y-113520842D01*
X30144534Y-113282747D01*
X30192153Y-113187509D01*
X30239772Y-113139890D01*
X30335010Y-113092271D01*
X30573105Y-113092271D01*
X30668343Y-113139890D01*
X30715962Y-113187509D01*
X30763581Y-113282747D01*
X30763581Y-113520842D01*
X30715962Y-113616080D01*
X30668343Y-113663700D01*
D11*
%TO.C,M3*%
D10*
X293250157Y-63179080D02*
X293250157Y-62179080D01*
X293583490Y-62893366D01*
X293916823Y-62179080D01*
X293916823Y-63179080D01*
X294297776Y-62179080D02*
X294916823Y-62179080D01*
X294583490Y-62560033D01*
X294726347Y-62560033D01*
X294821585Y-62607652D01*
X294869204Y-62655271D01*
X294916823Y-62750509D01*
X294916823Y-62988604D01*
X294869204Y-63083842D01*
X294821585Y-63131461D01*
X294726347Y-63179080D01*
X294440633Y-63179080D01*
X294345395Y-63131461D01*
X294297776Y-63083842D01*
D11*
%TO.C,M2.5*%
D10*
X233731690Y-73897580D02*
X233731690Y-72897580D01*
X234065023Y-73611866D01*
X234398357Y-72897580D01*
X234398357Y-73897580D01*
X234826928Y-72992819D02*
X234874547Y-72945200D01*
X234969785Y-72897580D01*
X235207880Y-72897580D01*
X235303119Y-72945200D01*
X235350738Y-72992819D01*
X235398357Y-73088057D01*
X235398357Y-73183295D01*
X235350738Y-73326152D01*
X234779309Y-73897580D01*
X235398357Y-73897580D01*
X235826928Y-73802342D02*
X235874547Y-73849961D01*
X235826928Y-73897580D01*
X235779309Y-73849961D01*
X235826928Y-73802342D01*
X235826928Y-73897580D01*
X236779309Y-72897580D02*
X236303119Y-72897580D01*
X236255500Y-73373771D01*
X236303119Y-73326152D01*
X236398357Y-73278533D01*
X236636452Y-73278533D01*
X236731690Y-73326152D01*
X236779309Y-73373771D01*
X236826928Y-73469009D01*
X236826928Y-73707104D01*
X236779309Y-73802342D01*
X236731690Y-73849961D01*
X236636452Y-73897580D01*
X236398357Y-73897580D01*
X236303119Y-73849961D01*
X236255500Y-73802342D01*
D11*
%TO.C,M3*%
D10*
X14982080Y-117295604D02*
X13982080Y-117295604D01*
X14696366Y-116962271D01*
X13982080Y-116628938D01*
X14982080Y-116628938D01*
X13982080Y-116247985D02*
X13982080Y-115628938D01*
X14363033Y-115962271D01*
X14363033Y-115819414D01*
X14410652Y-115724176D01*
X14458271Y-115676557D01*
X14553509Y-115628938D01*
X14791604Y-115628938D01*
X14886842Y-115676557D01*
X14934461Y-115724176D01*
X14982080Y-115819414D01*
X14982080Y-116105128D01*
X14934461Y-116200366D01*
X14886842Y-116247985D01*
D11*
%TO.C,M2*%
D10*
X200445976Y-72147580D02*
X200445976Y-71147580D01*
X200779309Y-71861866D01*
X201112642Y-71147580D01*
X201112642Y-72147580D01*
X201541214Y-71242819D02*
X201588833Y-71195200D01*
X201684071Y-71147580D01*
X201922166Y-71147580D01*
X202017404Y-71195200D01*
X202065023Y-71242819D01*
X202112642Y-71338057D01*
X202112642Y-71433295D01*
X202065023Y-71576152D01*
X201493595Y-72147580D01*
X202112642Y-72147580D01*
D11*
%TO.C,M2.5*%
D10*
X391652180Y-116187509D02*
X390652180Y-116187509D01*
X391366466Y-115854176D01*
X390652180Y-115520842D01*
X391652180Y-115520842D01*
X390747419Y-115092271D02*
X390699800Y-115044652D01*
X390652180Y-114949414D01*
X390652180Y-114711319D01*
X390699800Y-114616080D01*
X390747419Y-114568461D01*
X390842657Y-114520842D01*
X390937895Y-114520842D01*
X391080752Y-114568461D01*
X391652180Y-115139890D01*
X391652180Y-114520842D01*
X391556942Y-114092271D02*
X391604561Y-114044652D01*
X391652180Y-114092271D01*
X391604561Y-114139890D01*
X391556942Y-114092271D01*
X391652180Y-114092271D01*
X390652180Y-113139890D02*
X390652180Y-113616080D01*
X391128371Y-113663700D01*
X391080752Y-113616080D01*
X391033133Y-113520842D01*
X391033133Y-113282747D01*
X391080752Y-113187509D01*
X391128371Y-113139890D01*
X391223609Y-113092271D01*
X391461704Y-113092271D01*
X391556942Y-113139890D01*
X391604561Y-113187509D01*
X391652180Y-113282747D01*
X391652180Y-113520842D01*
X391604561Y-113616080D01*
X391556942Y-113663700D01*
D11*
D10*
X290731690Y-73897580D02*
X290731690Y-72897580D01*
X291065023Y-73611866D01*
X291398357Y-72897580D01*
X291398357Y-73897580D01*
X291826928Y-72992819D02*
X291874547Y-72945200D01*
X291969785Y-72897580D01*
X292207880Y-72897580D01*
X292303119Y-72945200D01*
X292350738Y-72992819D01*
X292398357Y-73088057D01*
X292398357Y-73183295D01*
X292350738Y-73326152D01*
X291779309Y-73897580D01*
X292398357Y-73897580D01*
X292826928Y-73802342D02*
X292874547Y-73849961D01*
X292826928Y-73897580D01*
X292779309Y-73849961D01*
X292826928Y-73802342D01*
X292826928Y-73897580D01*
X293779309Y-72897580D02*
X293303119Y-72897580D01*
X293255500Y-73373771D01*
X293303119Y-73326152D01*
X293398357Y-73278533D01*
X293636452Y-73278533D01*
X293731690Y-73326152D01*
X293779309Y-73373771D01*
X293826928Y-73469009D01*
X293826928Y-73707104D01*
X293779309Y-73802342D01*
X293731690Y-73849961D01*
X293636452Y-73897580D01*
X293398357Y-73897580D01*
X293303119Y-73849961D01*
X293255500Y-73802342D01*
D11*
D10*
X323731690Y-73897580D02*
X323731690Y-72897580D01*
X324065023Y-73611866D01*
X324398357Y-72897580D01*
X324398357Y-73897580D01*
X324826928Y-72992819D02*
X324874547Y-72945200D01*
X324969785Y-72897580D01*
X325207880Y-72897580D01*
X325303119Y-72945200D01*
X325350738Y-72992819D01*
X325398357Y-73088057D01*
X325398357Y-73183295D01*
X325350738Y-73326152D01*
X324779309Y-73897580D01*
X325398357Y-73897580D01*
X325826928Y-73802342D02*
X325874547Y-73849961D01*
X325826928Y-73897580D01*
X325779309Y-73849961D01*
X325826928Y-73802342D01*
X325826928Y-73897580D01*
X326779309Y-72897580D02*
X326303119Y-72897580D01*
X326255500Y-73373771D01*
X326303119Y-73326152D01*
X326398357Y-73278533D01*
X326636452Y-73278533D01*
X326731690Y-73326152D01*
X326779309Y-73373771D01*
X326826928Y-73469009D01*
X326826928Y-73707104D01*
X326779309Y-73802342D01*
X326731690Y-73849961D01*
X326636452Y-73897580D01*
X326398357Y-73897580D01*
X326303119Y-73849961D01*
X326255500Y-73802342D01*
D11*
D10*
X30763581Y-92187509D02*
X29763581Y-92187509D01*
X30477867Y-91854176D01*
X29763581Y-91520842D01*
X30763581Y-91520842D01*
X29858820Y-91092271D02*
X29811201Y-91044652D01*
X29763581Y-90949414D01*
X29763581Y-90711319D01*
X29811201Y-90616080D01*
X29858820Y-90568461D01*
X29954058Y-90520842D01*
X30049296Y-90520842D01*
X30192153Y-90568461D01*
X30763581Y-91139890D01*
X30763581Y-90520842D01*
X30668343Y-90092271D02*
X30715962Y-90044652D01*
X30763581Y-90092271D01*
X30715962Y-90139890D01*
X30668343Y-90092271D01*
X30763581Y-90092271D01*
X29763581Y-89139890D02*
X29763581Y-89616080D01*
X30239772Y-89663700D01*
X30192153Y-89616080D01*
X30144534Y-89520842D01*
X30144534Y-89282747D01*
X30192153Y-89187509D01*
X30239772Y-89139890D01*
X30335010Y-89092271D01*
X30573105Y-89092271D01*
X30668343Y-89139890D01*
X30715962Y-89187509D01*
X30763581Y-89282747D01*
X30763581Y-89520842D01*
X30715962Y-89616080D01*
X30668343Y-89663700D01*
D11*
D10*
X290731690Y-78897580D02*
X290731690Y-77897580D01*
X291065023Y-78611866D01*
X291398357Y-77897580D01*
X291398357Y-78897580D01*
X291826928Y-77992819D02*
X291874547Y-77945200D01*
X291969785Y-77897580D01*
X292207880Y-77897580D01*
X292303119Y-77945200D01*
X292350738Y-77992819D01*
X292398357Y-78088057D01*
X292398357Y-78183295D01*
X292350738Y-78326152D01*
X291779309Y-78897580D01*
X292398357Y-78897580D01*
X292826928Y-78802342D02*
X292874547Y-78849961D01*
X292826928Y-78897580D01*
X292779309Y-78849961D01*
X292826928Y-78802342D01*
X292826928Y-78897580D01*
X293779309Y-77897580D02*
X293303119Y-77897580D01*
X293255500Y-78373771D01*
X293303119Y-78326152D01*
X293398357Y-78278533D01*
X293636452Y-78278533D01*
X293731690Y-78326152D01*
X293779309Y-78373771D01*
X293826928Y-78469009D01*
X293826928Y-78707104D01*
X293779309Y-78802342D01*
X293731690Y-78849961D01*
X293636452Y-78897580D01*
X293398357Y-78897580D01*
X293303119Y-78849961D01*
X293255500Y-78802342D01*
D11*
D10*
X391652180Y-92187509D02*
X390652180Y-92187509D01*
X391366466Y-91854176D01*
X390652180Y-91520842D01*
X391652180Y-91520842D01*
X390747419Y-91092271D02*
X390699800Y-91044652D01*
X390652180Y-90949414D01*
X390652180Y-90711319D01*
X390699800Y-90616080D01*
X390747419Y-90568461D01*
X390842657Y-90520842D01*
X390937895Y-90520842D01*
X391080752Y-90568461D01*
X391652180Y-91139890D01*
X391652180Y-90520842D01*
X391556942Y-90092271D02*
X391604561Y-90044652D01*
X391652180Y-90092271D01*
X391604561Y-90139890D01*
X391556942Y-90092271D01*
X391652180Y-90092271D01*
X390652180Y-89139890D02*
X390652180Y-89616080D01*
X391128371Y-89663700D01*
X391080752Y-89616080D01*
X391033133Y-89520842D01*
X391033133Y-89282747D01*
X391080752Y-89187509D01*
X391128371Y-89139890D01*
X391223609Y-89092271D01*
X391461704Y-89092271D01*
X391556942Y-89139890D01*
X391604561Y-89187509D01*
X391652180Y-89282747D01*
X391652180Y-89520842D01*
X391604561Y-89616080D01*
X391556942Y-89663700D01*
D11*
%TO.C,M3*%
D10*
X293268357Y-198108080D02*
X293268357Y-197108080D01*
X293601690Y-197822366D01*
X293935023Y-197108080D01*
X293935023Y-198108080D01*
X294315976Y-197108080D02*
X294935023Y-197108080D01*
X294601690Y-197489033D01*
X294744547Y-197489033D01*
X294839785Y-197536652D01*
X294887404Y-197584271D01*
X294935023Y-197679509D01*
X294935023Y-197917604D01*
X294887404Y-198012842D01*
X294839785Y-198060461D01*
X294744547Y-198108080D01*
X294458833Y-198108080D01*
X294363595Y-198060461D01*
X294315976Y-198012842D01*
D11*
D10*
X401108776Y-193908080D02*
X401108776Y-192908080D01*
X401442109Y-193622366D01*
X401775442Y-192908080D01*
X401775442Y-193908080D01*
X402156395Y-192908080D02*
X402775442Y-192908080D01*
X402442109Y-193289033D01*
X402584966Y-193289033D01*
X402680204Y-193336652D01*
X402727823Y-193384271D01*
X402775442Y-193479509D01*
X402775442Y-193717604D01*
X402727823Y-193812842D01*
X402680204Y-193860461D01*
X402584966Y-193908080D01*
X402299252Y-193908080D01*
X402204014Y-193860461D01*
X402156395Y-193812842D01*
D11*
D10*
X401108776Y-67379080D02*
X401108776Y-66379080D01*
X401442109Y-67093366D01*
X401775442Y-66379080D01*
X401775442Y-67379080D01*
X402156395Y-66379080D02*
X402775442Y-66379080D01*
X402442109Y-66760033D01*
X402584966Y-66760033D01*
X402680204Y-66807652D01*
X402727823Y-66855271D01*
X402775442Y-66950509D01*
X402775442Y-67188604D01*
X402727823Y-67283842D01*
X402680204Y-67331461D01*
X402584966Y-67379080D01*
X402299252Y-67379080D01*
X402204014Y-67331461D01*
X402156395Y-67283842D01*
D11*
D10*
X65123595Y-63179080D02*
X65123595Y-62179080D01*
X65456928Y-62893366D01*
X65790261Y-62179080D01*
X65790261Y-63179080D01*
X66171214Y-62179080D02*
X66790261Y-62179080D01*
X66456928Y-62560033D01*
X66599785Y-62560033D01*
X66695023Y-62607652D01*
X66742642Y-62655271D01*
X66790261Y-62750509D01*
X66790261Y-62988604D01*
X66742642Y-63083842D01*
X66695023Y-63131461D01*
X66599785Y-63179080D01*
X66314071Y-63179080D01*
X66218833Y-63131461D01*
X66171214Y-63083842D01*
D11*
D10*
X13783176Y-193908080D02*
X13783176Y-192908080D01*
X14116509Y-193622366D01*
X14449842Y-192908080D01*
X14449842Y-193908080D01*
X14830795Y-192908080D02*
X15449842Y-192908080D01*
X15116509Y-193289033D01*
X15259366Y-193289033D01*
X15354604Y-193336652D01*
X15402223Y-193384271D01*
X15449842Y-193479509D01*
X15449842Y-193717604D01*
X15402223Y-193812842D01*
X15354604Y-193860461D01*
X15259366Y-193908080D01*
X14973652Y-193908080D01*
X14878414Y-193860461D01*
X14830795Y-193812842D01*
D11*
%TO.C,M2.5*%
D10*
X65731690Y-78897580D02*
X65731690Y-77897580D01*
X66065023Y-78611866D01*
X66398357Y-77897580D01*
X66398357Y-78897580D01*
X66826928Y-77992819D02*
X66874547Y-77945200D01*
X66969785Y-77897580D01*
X67207880Y-77897580D01*
X67303119Y-77945200D01*
X67350738Y-77992819D01*
X67398357Y-78088057D01*
X67398357Y-78183295D01*
X67350738Y-78326152D01*
X66779309Y-78897580D01*
X67398357Y-78897580D01*
X67826928Y-78802342D02*
X67874547Y-78849961D01*
X67826928Y-78897580D01*
X67779309Y-78849961D01*
X67826928Y-78802342D01*
X67826928Y-78897580D01*
X68779309Y-77897580D02*
X68303119Y-77897580D01*
X68255500Y-78373771D01*
X68303119Y-78326152D01*
X68398357Y-78278533D01*
X68636452Y-78278533D01*
X68731690Y-78326152D01*
X68779309Y-78373771D01*
X68826928Y-78469009D01*
X68826928Y-78707104D01*
X68779309Y-78802342D01*
X68731690Y-78849961D01*
X68636452Y-78897580D01*
X68398357Y-78897580D01*
X68303119Y-78849961D01*
X68255500Y-78802342D01*
D11*
D10*
X266731690Y-78897580D02*
X266731690Y-77897580D01*
X267065023Y-78611866D01*
X267398357Y-77897580D01*
X267398357Y-78897580D01*
X267826928Y-77992819D02*
X267874547Y-77945200D01*
X267969785Y-77897580D01*
X268207880Y-77897580D01*
X268303119Y-77945200D01*
X268350738Y-77992819D01*
X268398357Y-78088057D01*
X268398357Y-78183295D01*
X268350738Y-78326152D01*
X267779309Y-78897580D01*
X268398357Y-78897580D01*
X268826928Y-78802342D02*
X268874547Y-78849961D01*
X268826928Y-78897580D01*
X268779309Y-78849961D01*
X268826928Y-78802342D01*
X268826928Y-78897580D01*
X269779309Y-77897580D02*
X269303119Y-77897580D01*
X269255500Y-78373771D01*
X269303119Y-78326152D01*
X269398357Y-78278533D01*
X269636452Y-78278533D01*
X269731690Y-78326152D01*
X269779309Y-78373771D01*
X269826928Y-78469009D01*
X269826928Y-78707104D01*
X269779309Y-78802342D01*
X269731690Y-78849961D01*
X269636452Y-78897580D01*
X269398357Y-78897580D01*
X269303119Y-78849961D01*
X269255500Y-78802342D01*
D11*
D10*
X89731690Y-78897580D02*
X89731690Y-77897580D01*
X90065023Y-78611866D01*
X90398357Y-77897580D01*
X90398357Y-78897580D01*
X90826928Y-77992819D02*
X90874547Y-77945200D01*
X90969785Y-77897580D01*
X91207880Y-77897580D01*
X91303119Y-77945200D01*
X91350738Y-77992819D01*
X91398357Y-78088057D01*
X91398357Y-78183295D01*
X91350738Y-78326152D01*
X90779309Y-78897580D01*
X91398357Y-78897580D01*
X91826928Y-78802342D02*
X91874547Y-78849961D01*
X91826928Y-78897580D01*
X91779309Y-78849961D01*
X91826928Y-78802342D01*
X91826928Y-78897580D01*
X92779309Y-77897580D02*
X92303119Y-77897580D01*
X92255500Y-78373771D01*
X92303119Y-78326152D01*
X92398357Y-78278533D01*
X92636452Y-78278533D01*
X92731690Y-78326152D01*
X92779309Y-78373771D01*
X92826928Y-78469009D01*
X92826928Y-78707104D01*
X92779309Y-78802342D01*
X92731690Y-78849961D01*
X92636452Y-78897580D01*
X92398357Y-78897580D01*
X92303119Y-78849961D01*
X92255500Y-78802342D01*
%TD*%
D12*
%TO.N,*%
X17767500Y-194480900D03*
%TD*%
M02*
