%TF.GenerationSoftware,KiCad,Pcbnew,(6.0.0)*%
%TF.CreationDate,2022-03-05T22:59:03-05:00*%
%TF.ProjectId,custom_keyboard plate v3 bottom,63757374-6f6d-45f6-9b65-79626f617264,rev?*%
%TF.SameCoordinates,Original*%
%TF.FileFunction,Legend,Bot*%
%TF.FilePolarity,Positive*%
%FSLAX46Y46*%
G04 Gerber Fmt 4.6, Leading zero omitted, Abs format (unit mm)*
G04 Created by KiCad (PCBNEW (6.0.0)) date 2022-03-05 22:59:03*
%MOMM*%
%LPD*%
G01*
G04 APERTURE LIST*
%ADD10C,0.200000*%
%ADD11C,0.150000*%
%ADD12C,3.200000*%
%ADD13C,2.500000*%
%ADD14C,2.200000*%
G04 APERTURE END LIST*
D10*
X400818499Y-203980900D02*
X400818499Y-83338500D01*
X397643700Y-80163700D02*
X374124200Y-80163700D01*
D11*
X366624200Y-80163700D02*
X315374200Y-80163700D01*
D10*
X21429900Y-203980900D02*
G75*
G03*
X24604700Y-207155700I3174799J-1D01*
G01*
X397643700Y-207155699D02*
X24604700Y-207155700D01*
X21429900Y-83338500D02*
X21429900Y-203980900D01*
X397643700Y-207155699D02*
G75*
G03*
X400818500Y-203980899I1J3174799D01*
G01*
D11*
X307874200Y-80163700D02*
X114374200Y-80163700D01*
D10*
X48124200Y-80163700D02*
X24604701Y-80163700D01*
D11*
X106874200Y-80163700D02*
X55624200Y-80163700D01*
D10*
X24604700Y-80163700D02*
G75*
G03*
X21429900Y-83338500I-1J-3174799D01*
G01*
X400818499Y-83338500D02*
G75*
G03*
X397643699Y-80163700I-3174799J1D01*
G01*
D11*
X44379538Y-205020680D02*
X44379538Y-204020680D01*
X44284300Y-204639728D02*
X43998586Y-205020680D01*
X43998586Y-204354014D02*
X44379538Y-204734966D01*
X43570014Y-205020680D02*
X43570014Y-204020680D01*
X43570014Y-204401633D02*
X43474776Y-204354014D01*
X43284300Y-204354014D01*
X43189062Y-204401633D01*
X43141443Y-204449252D01*
X43093824Y-204544490D01*
X43093824Y-204830204D01*
X43141443Y-204925442D01*
X43189062Y-204973061D01*
X43284300Y-205020680D01*
X43474776Y-205020680D01*
X43570014Y-204973061D01*
X42665253Y-204925442D02*
X42617634Y-204973061D01*
X42665253Y-205020680D01*
X42712872Y-204973061D01*
X42665253Y-204925442D01*
X42665253Y-205020680D01*
X42189062Y-205020680D02*
X42189062Y-204020680D01*
X41760491Y-205020680D02*
X41760491Y-204496871D01*
X41808110Y-204401633D01*
X41903348Y-204354014D01*
X42046205Y-204354014D01*
X42141443Y-204401633D01*
X42189062Y-204449252D01*
X41427157Y-204354014D02*
X41046205Y-204354014D01*
X41284300Y-204020680D02*
X41284300Y-204877823D01*
X41236681Y-204973061D01*
X41141443Y-205020680D01*
X41046205Y-205020680D01*
X40189062Y-205020680D02*
X40760491Y-205020680D01*
X40474776Y-205020680D02*
X40474776Y-204020680D01*
X40570014Y-204163538D01*
X40665253Y-204258776D01*
X40760491Y-204306395D01*
X39808110Y-204115919D02*
X39760491Y-204068300D01*
X39665253Y-204020680D01*
X39427157Y-204020680D01*
X39331919Y-204068300D01*
X39284300Y-204115919D01*
X39236681Y-204211157D01*
X39236681Y-204306395D01*
X39284300Y-204449252D01*
X39855729Y-205020680D01*
X39236681Y-205020680D01*
X38903348Y-204020680D02*
X38284300Y-204020680D01*
X38617634Y-204401633D01*
X38474776Y-204401633D01*
X38379538Y-204449252D01*
X38331919Y-204496871D01*
X38284300Y-204592109D01*
X38284300Y-204830204D01*
X38331919Y-204925442D01*
X38379538Y-204973061D01*
X38474776Y-205020680D01*
X38760491Y-205020680D01*
X38855729Y-204973061D01*
X38903348Y-204925442D01*
X37427157Y-204354014D02*
X37427157Y-205020680D01*
X37665253Y-203973061D02*
X37903348Y-204687347D01*
X37284300Y-204687347D01*
X36427157Y-204020680D02*
X36903348Y-204020680D01*
X36950967Y-204496871D01*
X36903348Y-204449252D01*
X36808110Y-204401633D01*
X36570014Y-204401633D01*
X36474776Y-204449252D01*
X36427157Y-204496871D01*
X36379538Y-204592109D01*
X36379538Y-204830204D01*
X36427157Y-204925442D01*
X36474776Y-204973061D01*
X36570014Y-205020680D01*
X36808110Y-205020680D01*
X36903348Y-204973061D01*
X36950967Y-204925442D01*
X35950967Y-204925442D02*
X35903348Y-204973061D01*
X35950967Y-205020680D01*
X35998586Y-204973061D01*
X35950967Y-204925442D01*
X35950967Y-205020680D01*
X35570014Y-205020680D02*
X35046205Y-204354014D01*
X35570014Y-204354014D02*
X35046205Y-205020680D01*
X34760491Y-204354014D02*
X34522395Y-205020680D01*
X34284300Y-204354014D02*
X34522395Y-205020680D01*
X34617634Y-205258776D01*
X34665253Y-205306395D01*
X34760491Y-205354014D01*
X33998586Y-204354014D02*
X33474776Y-204354014D01*
X33998586Y-205020680D01*
X33474776Y-205020680D01*
X32379538Y-203973061D02*
X33236681Y-205258776D01*
X31855729Y-204020680D02*
X31760491Y-204020680D01*
X31665253Y-204068300D01*
X31617634Y-204115919D01*
X31570014Y-204211157D01*
X31522395Y-204401633D01*
X31522395Y-204639728D01*
X31570014Y-204830204D01*
X31617634Y-204925442D01*
X31665253Y-204973061D01*
X31760491Y-205020680D01*
X31855729Y-205020680D01*
X31950967Y-204973061D01*
X31998586Y-204925442D01*
X32046205Y-204830204D01*
X32093824Y-204639728D01*
X32093824Y-204401633D01*
X32046205Y-204211157D01*
X31998586Y-204115919D01*
X31950967Y-204068300D01*
X31855729Y-204020680D01*
X44379538Y-203433280D02*
X44379538Y-202433280D01*
X44284300Y-203052328D02*
X43998586Y-203433280D01*
X43998586Y-202766614D02*
X44379538Y-203147566D01*
X43189062Y-203385661D02*
X43284300Y-203433280D01*
X43474776Y-203433280D01*
X43570014Y-203385661D01*
X43617634Y-203290423D01*
X43617634Y-202909471D01*
X43570014Y-202814233D01*
X43474776Y-202766614D01*
X43284300Y-202766614D01*
X43189062Y-202814233D01*
X43141443Y-202909471D01*
X43141443Y-203004709D01*
X43617634Y-203099947D01*
X42808110Y-202766614D02*
X42570014Y-203433280D01*
X42331919Y-202766614D02*
X42570014Y-203433280D01*
X42665253Y-203671376D01*
X42712872Y-203718995D01*
X42808110Y-203766614D01*
X41950967Y-203433280D02*
X41950967Y-202433280D01*
X41950967Y-202814233D02*
X41855729Y-202766614D01*
X41665253Y-202766614D01*
X41570014Y-202814233D01*
X41522395Y-202861852D01*
X41474776Y-202957090D01*
X41474776Y-203242804D01*
X41522395Y-203338042D01*
X41570014Y-203385661D01*
X41665253Y-203433280D01*
X41855729Y-203433280D01*
X41950967Y-203385661D01*
X40903348Y-203433280D02*
X40998586Y-203385661D01*
X41046205Y-203338042D01*
X41093824Y-203242804D01*
X41093824Y-202957090D01*
X41046205Y-202861852D01*
X40998586Y-202814233D01*
X40903348Y-202766614D01*
X40760491Y-202766614D01*
X40665253Y-202814233D01*
X40617634Y-202861852D01*
X40570014Y-202957090D01*
X40570014Y-203242804D01*
X40617634Y-203338042D01*
X40665253Y-203385661D01*
X40760491Y-203433280D01*
X40903348Y-203433280D01*
X39712872Y-203433280D02*
X39712872Y-202909471D01*
X39760491Y-202814233D01*
X39855729Y-202766614D01*
X40046205Y-202766614D01*
X40141443Y-202814233D01*
X39712872Y-203385661D02*
X39808110Y-203433280D01*
X40046205Y-203433280D01*
X40141443Y-203385661D01*
X40189062Y-203290423D01*
X40189062Y-203195185D01*
X40141443Y-203099947D01*
X40046205Y-203052328D01*
X39808110Y-203052328D01*
X39712872Y-203004709D01*
X39236681Y-203433280D02*
X39236681Y-202766614D01*
X39236681Y-202957090D02*
X39189062Y-202861852D01*
X39141443Y-202814233D01*
X39046205Y-202766614D01*
X38950967Y-202766614D01*
X38189062Y-203433280D02*
X38189062Y-202433280D01*
X38189062Y-203385661D02*
X38284300Y-203433280D01*
X38474776Y-203433280D01*
X38570014Y-203385661D01*
X38617634Y-203338042D01*
X38665253Y-203242804D01*
X38665253Y-202957090D01*
X38617634Y-202861852D01*
X38570014Y-202814233D01*
X38474776Y-202766614D01*
X38284300Y-202766614D01*
X38189062Y-202814233D01*
X37522395Y-202433280D02*
X37427157Y-202433280D01*
X37331919Y-202480900D01*
X37284300Y-202528519D01*
X37236681Y-202623757D01*
X37189062Y-202814233D01*
X37189062Y-203052328D01*
X37236681Y-203242804D01*
X37284300Y-203338042D01*
X37331919Y-203385661D01*
X37427157Y-203433280D01*
X37522395Y-203433280D01*
X37617634Y-203385661D01*
X37665253Y-203338042D01*
X37712872Y-203242804D01*
X37760491Y-203052328D01*
X37760491Y-202814233D01*
X37712872Y-202623757D01*
X37665253Y-202528519D01*
X37617634Y-202480900D01*
X37522395Y-202433280D01*
X35665253Y-202909471D02*
X35998586Y-202909471D01*
X35998586Y-203433280D02*
X35998586Y-202433280D01*
X35522395Y-202433280D01*
X34570014Y-203433280D02*
X34903348Y-202957090D01*
X35141443Y-203433280D02*
X35141443Y-202433280D01*
X34760491Y-202433280D01*
X34665253Y-202480900D01*
X34617634Y-202528519D01*
X34570014Y-202623757D01*
X34570014Y-202766614D01*
X34617634Y-202861852D01*
X34665253Y-202909471D01*
X34760491Y-202957090D01*
X35141443Y-202957090D01*
X33712872Y-202766614D02*
X33712872Y-203433280D01*
X33950967Y-202385661D02*
X34189062Y-203099947D01*
X33570014Y-203099947D01*
X32427157Y-203433280D02*
X32427157Y-202433280D01*
X32427157Y-202814233D02*
X32331919Y-202766614D01*
X32141443Y-202766614D01*
X32046205Y-202814233D01*
X31998586Y-202861852D01*
X31950967Y-202957090D01*
X31950967Y-203242804D01*
X31998586Y-203338042D01*
X32046205Y-203385661D01*
X32141443Y-203433280D01*
X32331919Y-203433280D01*
X32427157Y-203385661D01*
X31379538Y-203433280D02*
X31474776Y-203385661D01*
X31522395Y-203338042D01*
X31570014Y-203242804D01*
X31570014Y-202957090D01*
X31522395Y-202861852D01*
X31474776Y-202814233D01*
X31379538Y-202766614D01*
X31236681Y-202766614D01*
X31141443Y-202814233D01*
X31093824Y-202861852D01*
X31046205Y-202957090D01*
X31046205Y-203242804D01*
X31093824Y-203338042D01*
X31141443Y-203385661D01*
X31236681Y-203433280D01*
X31379538Y-203433280D01*
X30760491Y-202766614D02*
X30379538Y-202766614D01*
X30617634Y-202433280D02*
X30617634Y-203290423D01*
X30570014Y-203385661D01*
X30474776Y-203433280D01*
X30379538Y-203433280D01*
X30189062Y-202766614D02*
X29808110Y-202766614D01*
X30046205Y-202433280D02*
X30046205Y-203290423D01*
X29998586Y-203385661D01*
X29903348Y-203433280D01*
X29808110Y-203433280D01*
X29331919Y-203433280D02*
X29427157Y-203385661D01*
X29474776Y-203338042D01*
X29522395Y-203242804D01*
X29522395Y-202957090D01*
X29474776Y-202861852D01*
X29427157Y-202814233D01*
X29331919Y-202766614D01*
X29189062Y-202766614D01*
X29093824Y-202814233D01*
X29046205Y-202861852D01*
X28998586Y-202957090D01*
X28998586Y-203242804D01*
X29046205Y-203338042D01*
X29093824Y-203385661D01*
X29189062Y-203433280D01*
X29331919Y-203433280D01*
X28570014Y-203433280D02*
X28570014Y-202766614D01*
X28570014Y-202861852D02*
X28522395Y-202814233D01*
X28427157Y-202766614D01*
X28284300Y-202766614D01*
X28189062Y-202814233D01*
X28141443Y-202909471D01*
X28141443Y-203433280D01*
X28141443Y-202909471D02*
X28093824Y-202814233D01*
X27998586Y-202766614D01*
X27855729Y-202766614D01*
X27760491Y-202814233D01*
X27712872Y-202909471D01*
X27712872Y-203433280D01*
X26617634Y-202433280D02*
X26046205Y-202433280D01*
X26331919Y-203433280D02*
X26331919Y-202433280D01*
X25712872Y-203433280D02*
X25712872Y-202433280D01*
X25331919Y-202433280D01*
X25236681Y-202480900D01*
X25189062Y-202528519D01*
X25141443Y-202623757D01*
X25141443Y-202766614D01*
X25189062Y-202861852D01*
X25236681Y-202909471D01*
X25331919Y-202957090D01*
X25712872Y-202957090D01*
X24712872Y-202909471D02*
X24379538Y-202909471D01*
X24236681Y-203433280D02*
X24712872Y-203433280D01*
X24712872Y-202433280D01*
X24236681Y-202433280D01*
%TO.C,logo_small*%
G36*
X46971905Y-203369931D02*
G01*
X46524759Y-203817077D01*
X47944249Y-205237890D01*
X47739196Y-205444265D01*
X46324999Y-204022129D01*
X45880499Y-204467952D01*
X45715134Y-204303910D01*
X46813155Y-203204567D01*
X46971905Y-203369931D01*
G37*
G36*
X48450926Y-202438598D02*
G01*
X47766978Y-203123869D01*
X48569988Y-203928202D01*
X49252613Y-203244254D01*
X49458988Y-203446660D01*
X47871488Y-205034160D01*
X47667759Y-204825140D01*
X48400655Y-204092244D01*
X47596321Y-203290556D01*
X46866071Y-204023452D01*
X46655728Y-203818400D01*
X48243228Y-202230900D01*
X48450926Y-202438598D01*
G37*
%TD*%
%LPC*%
D12*
%TO.C,M3*%
X196624200Y-76195200D03*
%TD*%
%TO.C,M3*%
X17461400Y-211124200D03*
%TD*%
D13*
%TO.C,M2.5*%
X271124200Y-95413700D03*
%TD*%
D12*
%TO.C,M3*%
X157624200Y-76195200D03*
%TD*%
D13*
%TO.C,M2.5*%
X94124200Y-83413700D03*
%TD*%
D12*
%TO.C,M3*%
X301606000Y-76195200D03*
%TD*%
D13*
%TO.C,M2.5*%
X151124200Y-83413700D03*
%TD*%
D12*
%TO.C,M3*%
X404787000Y-76195200D03*
%TD*%
D13*
%TO.C,M2.5*%
X197124200Y-83413700D03*
%TD*%
D12*
%TO.C,M3*%
X358124200Y-76195200D03*
%TD*%
D13*
%TO.C,M2.5*%
X94124200Y-95413700D03*
%TD*%
%TO.C,M2.5*%
X397568500Y-104132200D03*
%TD*%
D14*
%TO.C,M2*%
X218124200Y-82413700D03*
%TD*%
D13*
%TO.C,M2.5*%
X225124200Y-83413700D03*
%TD*%
%TO.C,M2.5*%
X197124200Y-115413700D03*
%TD*%
%TO.C,M2.5*%
X352124200Y-83413700D03*
%TD*%
%TO.C,M2.5*%
X127124200Y-83413700D03*
%TD*%
D12*
%TO.C,M3*%
X120624200Y-211124200D03*
%TD*%
D13*
%TO.C,M2.5*%
X70124200Y-95413700D03*
%TD*%
D12*
%TO.C,M3*%
X17398400Y-134632200D03*
%TD*%
D13*
%TO.C,M2.5*%
X238124200Y-83413700D03*
%TD*%
%TO.C,M2.5*%
X36679901Y-104132200D03*
%TD*%
%TO.C,M2.5*%
X24679901Y-128132200D03*
%TD*%
D14*
%TO.C,M2*%
X204124200Y-82413700D03*
%TD*%
D13*
%TO.C,M2.5*%
X328124200Y-95413700D03*
%TD*%
D14*
%TO.C,M2*%
X218124200Y-94913700D03*
%TD*%
D13*
%TO.C,M2.5*%
X238124200Y-115413700D03*
%TD*%
D12*
%TO.C,M3*%
X404787000Y-211124200D03*
%TD*%
%TO.C,M3*%
X120642400Y-76195200D03*
%TD*%
D13*
%TO.C,M2.5*%
X70124200Y-83413700D03*
%TD*%
D12*
%TO.C,M3*%
X100624200Y-76195200D03*
%TD*%
%TO.C,M3*%
X264624200Y-76195200D03*
%TD*%
D13*
%TO.C,M2.5*%
X151124200Y-95413700D03*
%TD*%
D12*
%TO.C,M3*%
X404787000Y-134632200D03*
%TD*%
D13*
%TO.C,M2.5*%
X295124200Y-95413700D03*
%TD*%
%TO.C,M2.5*%
X328124200Y-83413700D03*
%TD*%
D12*
%TO.C,M3*%
X17461400Y-76195200D03*
%TD*%
D13*
%TO.C,M2.5*%
X24679901Y-104132200D03*
%TD*%
D12*
%TO.C,M3*%
X225624200Y-76195200D03*
%TD*%
D13*
%TO.C,M2.5*%
X36679901Y-128132200D03*
%TD*%
%TO.C,M2.5*%
X271124200Y-83413700D03*
%TD*%
%TO.C,M2.5*%
X184124200Y-115413700D03*
%TD*%
D12*
%TO.C,M3*%
X64124200Y-76195200D03*
%TD*%
%TO.C,M3*%
X404787000Y-97625100D03*
%TD*%
D13*
%TO.C,M2.5*%
X385568500Y-104132200D03*
%TD*%
%TO.C,M2.5*%
X385568500Y-128132200D03*
%TD*%
D12*
%TO.C,M3*%
X17429900Y-97632200D03*
%TD*%
%TO.C,M3*%
X301624200Y-211124200D03*
%TD*%
D13*
%TO.C,M2.5*%
X295124200Y-83413700D03*
%TD*%
%TO.C,M2.5*%
X184124200Y-83413700D03*
%TD*%
%TO.C,M2.5*%
X225124200Y-115413700D03*
%TD*%
D12*
%TO.C,M3*%
X321624200Y-76195200D03*
%TD*%
D13*
%TO.C,M2.5*%
X127124200Y-95413700D03*
%TD*%
D14*
%TO.C,M2*%
X204124200Y-94913700D03*
%TD*%
D13*
%TO.C,M2.5*%
X397568500Y-128132200D03*
%TD*%
%TO.C,M2.5*%
X352124200Y-95413700D03*
%TD*%
M02*
