%TF.GenerationSoftware,KiCad,Pcbnew,(6.0.0)*%
%TF.CreationDate,2022-03-08T21:45:30-05:00*%
%TF.ProjectId,custom_keyboard plate v3 bottom - map,63757374-6f6d-45f6-9b65-79626f617264,rev?*%
%TF.SameCoordinates,Original*%
%TF.FileFunction,Copper,L2,Bot*%
%TF.FilePolarity,Positive*%
%FSLAX46Y46*%
G04 Gerber Fmt 4.6, Leading zero omitted, Abs format (unit mm)*
G04 Created by KiCad (PCBNEW (6.0.0)) date 2022-03-08 21:45:30*
%MOMM*%
%LPD*%
G01*
G04 APERTURE LIST*
%TA.AperFunction,NonConductor*%
%ADD10C,0.200000*%
%TD*%
%ADD11C,0.200000*%
G04 APERTURE END LIST*
D10*
X237505500Y-75124200D02*
X183505500Y-75124200D01*
X175582700Y-74080500D02*
G75*
G03*
X177170100Y-75667900I1587401J1D01*
G01*
X54505500Y-166437200D02*
X54505500Y-117437200D01*
X267505500Y-90124200D02*
G75*
G03*
X270505500Y-93124200I3000001J1D01*
G01*
X183505500Y-75124200D02*
G75*
G03*
X180505500Y-78124200I1J-3000001D01*
G01*
X384949799Y-125842700D02*
X396949799Y-125842700D01*
X190663000Y-202659900D02*
X197012600Y-202659900D01*
X175582700Y-74080500D02*
X175582700Y-67437200D01*
X351505500Y-75124200D02*
X327505500Y-75124200D01*
X126505500Y-75124200D02*
G75*
G03*
X123505500Y-78124200I1J-3000001D01*
G01*
X219505500Y-77124200D02*
G75*
G03*
X217505500Y-75124200I-1999999J1D01*
G01*
X324505500Y-90124200D02*
G75*
G03*
X327505500Y-93124200I3000001J1D01*
G01*
X36061200Y-95842700D02*
X24061200Y-95842700D01*
X297505500Y-90124200D02*
X297505500Y-78124200D01*
X224505500Y-113124200D02*
G75*
G03*
X227505500Y-110124200I-1J3000001D01*
G01*
X69505500Y-75124200D02*
G75*
G03*
X66505500Y-78124200I1J-3000001D01*
G01*
X399949799Y-122842700D02*
X399949799Y-98842700D01*
X48005500Y-117437200D02*
X48005500Y-166437200D01*
X193505500Y-110124200D02*
G75*
G03*
X196505500Y-113124200I3000001J1D01*
G01*
X153505500Y-90124200D02*
X153505500Y-78124200D01*
X150505500Y-75124200D02*
X126505500Y-75124200D01*
X183505500Y-113124200D02*
X237505500Y-113124200D01*
X180505500Y-78124200D02*
X180505500Y-110124200D01*
X21061200Y-98842700D02*
X21061200Y-122842700D01*
X240505500Y-78124200D02*
G75*
G03*
X237505500Y-75124200I-3000001J-1D01*
G01*
X162883500Y-75667900D02*
X113755500Y-75667900D01*
X66505500Y-90124200D02*
G75*
G03*
X69505500Y-93124200I3000001J1D01*
G01*
X24061200Y-95842700D02*
G75*
G03*
X21061200Y-98842700I1J-3000001D01*
G01*
X314255500Y-166437200D02*
X314255500Y-117437200D01*
X396231300Y-201072500D02*
X300193600Y-201072500D01*
X96505500Y-90124200D02*
X96505500Y-78124200D01*
X164470900Y-74080500D02*
X164470900Y-67437200D01*
X153505500Y-78124200D02*
G75*
G03*
X150505500Y-75124200I-3000001J-1D01*
G01*
X74505500Y-81624200D02*
X88505500Y-81624200D01*
X88505500Y-81624200D02*
X88505500Y-67624200D01*
X88505500Y-67624200D02*
X74505500Y-67624200D01*
X74505500Y-67624200D02*
X74505500Y-81624200D01*
X240505500Y-110124200D02*
X240505500Y-78124200D01*
X196505500Y-75124200D02*
G75*
G03*
X193505500Y-78124200I1J-3000001D01*
G01*
X27561200Y-117842700D02*
X13561200Y-117842700D01*
X13561200Y-117842700D02*
X13561200Y-103842700D01*
X13561200Y-103842700D02*
X27561200Y-103842700D01*
X27561200Y-103842700D02*
X27561200Y-117842700D01*
X24061200Y-125842700D02*
X36061200Y-125842700D01*
X399949799Y-98842700D02*
G75*
G03*
X396949799Y-95842700I-3000001J-1D01*
G01*
X187488200Y-201072500D02*
X200187400Y-201072500D01*
X290669200Y-202659900D02*
X297018800Y-202659900D01*
X200187400Y-201072500D02*
X197012600Y-202659900D01*
X294505500Y-93124200D02*
G75*
G03*
X297505500Y-90124200I-1J3000001D01*
G01*
X217505500Y-91624200D02*
G75*
G03*
X219505500Y-89624200I1J1999999D01*
G01*
X113255500Y-166437200D02*
X113255500Y-117437200D01*
X39061200Y-98842700D02*
G75*
G03*
X36061200Y-95842700I-3000001J-1D01*
G01*
X294505500Y-75124200D02*
X270505500Y-75124200D01*
X21061200Y-122842700D02*
G75*
G03*
X24061200Y-125842700I3000001J1D01*
G01*
X270505500Y-93124200D02*
X294505500Y-93124200D01*
X219505500Y-89624200D02*
X219505500Y-77124200D01*
X300193600Y-201072500D02*
X297018800Y-202659900D01*
X307755500Y-166437200D02*
X314255500Y-166437200D01*
X36061200Y-125842700D02*
G75*
G03*
X39061200Y-122842700I-1J3000001D01*
G01*
X267505500Y-78124200D02*
X267505500Y-90124200D01*
X354505500Y-90124200D02*
X354505500Y-78124200D01*
X373005500Y-166437200D02*
X373005500Y-117437200D01*
X93505500Y-93124200D02*
G75*
G03*
X96505500Y-90124200I-1J3000001D01*
G01*
X366505500Y-117437200D02*
X366505500Y-166437200D01*
X366005500Y-75667900D02*
X314755500Y-75667900D01*
X332505500Y-67624200D02*
X346505500Y-67624200D01*
X346505500Y-67624200D02*
X346505500Y-81624200D01*
X346505500Y-81624200D02*
X332505500Y-81624200D01*
X332505500Y-81624200D02*
X332505500Y-67624200D01*
X39061200Y-122842700D02*
X39061200Y-98842700D01*
X201505500Y-89624200D02*
G75*
G03*
X203505500Y-91624200I1999999J-1D01*
G01*
X126505500Y-93124200D02*
X150505500Y-93124200D01*
X381949799Y-122842700D02*
G75*
G03*
X384949799Y-125842700I3000001J1D01*
G01*
X106755500Y-166437200D02*
X113255500Y-166437200D01*
X21604900Y-197897700D02*
G75*
G03*
X24779700Y-201072500I3174799J-1D01*
G01*
X93505500Y-75124200D02*
X69505500Y-75124200D01*
X399406100Y-78842700D02*
X399406100Y-197897700D01*
X270505500Y-75124200D02*
G75*
G03*
X267505500Y-78124200I1J-3000001D01*
G01*
X24779700Y-75667900D02*
X47505500Y-75667900D01*
X123505500Y-90124200D02*
G75*
G03*
X126505500Y-93124200I3000001J1D01*
G01*
X66505500Y-78124200D02*
X66505500Y-90124200D01*
X227505500Y-78124200D02*
G75*
G03*
X224505500Y-75124200I-3000001J-1D01*
G01*
X307755500Y-117437200D02*
X307755500Y-166437200D01*
X203505500Y-75124200D02*
G75*
G03*
X201505500Y-77124200I-1J-1999999D01*
G01*
X324505500Y-78124200D02*
X324505500Y-90124200D01*
X96505500Y-78124200D02*
G75*
G03*
X93505500Y-75124200I-3000001J-1D01*
G01*
X287494400Y-201072500D02*
X200187400Y-201072500D01*
X396231300Y-201072500D02*
G75*
G03*
X399406100Y-197897700I1J3174799D01*
G01*
X396949799Y-95842700D02*
X384949799Y-95842700D01*
X106255500Y-75667900D02*
X55005500Y-75667900D01*
X203505500Y-91624200D02*
X217505500Y-91624200D01*
X237505500Y-113124200D02*
G75*
G03*
X240505500Y-110124200I-1J3000001D01*
G01*
X373505500Y-75667900D02*
X396231300Y-75667900D01*
X381949799Y-98842700D02*
X381949799Y-122842700D01*
X48005500Y-166437200D02*
X54505500Y-166437200D01*
X307255500Y-75667900D02*
X177170100Y-75667900D01*
X69505500Y-93124200D02*
X93505500Y-93124200D01*
X187488200Y-201072500D02*
X24779700Y-201072500D01*
X354505500Y-78124200D02*
G75*
G03*
X351505500Y-75124200I-3000001J-1D01*
G01*
X366505500Y-166437200D02*
X373005500Y-166437200D01*
X150505500Y-93124200D02*
G75*
G03*
X153505500Y-90124200I-1J3000001D01*
G01*
X327505500Y-93124200D02*
X351505500Y-93124200D01*
X21604900Y-197897700D02*
X21604900Y-78842700D01*
X227505500Y-110124200D02*
X227505500Y-78124200D01*
X193505500Y-78124200D02*
X193505500Y-110124200D01*
X399406100Y-78842700D02*
G75*
G03*
X396231300Y-75667900I-3174799J1D01*
G01*
X351505500Y-93124200D02*
G75*
G03*
X354505500Y-90124200I-1J3000001D01*
G01*
X201505500Y-77124200D02*
X201505500Y-89624200D01*
X180505500Y-110124200D02*
G75*
G03*
X183505500Y-113124200I3000001J1D01*
G01*
X123505500Y-78124200D02*
X123505500Y-90124200D01*
X327505500Y-75124200D02*
G75*
G03*
X324505500Y-78124200I1J-3000001D01*
G01*
X393449799Y-103842700D02*
X407449799Y-103842700D01*
X407449799Y-103842700D02*
X407449799Y-117842700D01*
X407449799Y-117842700D02*
X393449799Y-117842700D01*
X393449799Y-117842700D02*
X393449799Y-103842700D01*
X106755500Y-117437200D02*
X106755500Y-166437200D01*
X297505500Y-78124200D02*
G75*
G03*
X294505500Y-75124200I-3000001J-1D01*
G01*
X275505500Y-67624200D02*
X289505500Y-67624200D01*
X289505500Y-67624200D02*
X289505500Y-81624200D01*
X289505500Y-81624200D02*
X275505500Y-81624200D01*
X275505500Y-81624200D02*
X275505500Y-67624200D01*
X187488200Y-201072500D02*
X190663000Y-202659900D01*
X396949799Y-125842700D02*
G75*
G03*
X399949799Y-122842700I-1J3000001D01*
G01*
X131505500Y-81624200D02*
X145505500Y-81624200D01*
X145505500Y-81624200D02*
X145505500Y-67624200D01*
X145505500Y-67624200D02*
X131505500Y-67624200D01*
X131505500Y-67624200D02*
X131505500Y-81624200D01*
X287494400Y-201072500D02*
X290669200Y-202659900D01*
X384949799Y-95842700D02*
G75*
G03*
X381949799Y-98842700I1J-3000001D01*
G01*
X24779700Y-75667900D02*
G75*
G03*
X21604900Y-78842700I-1J-3174799D01*
G01*
X162883500Y-75667900D02*
G75*
G03*
X164470900Y-74080500I-1J1587401D01*
G01*
X287494400Y-201072500D02*
X300193600Y-201072500D01*
D11*
D10*
X213076928Y-112576580D02*
X213076928Y-111576580D01*
X213076928Y-112052771D02*
X212505500Y-112052771D01*
X212505500Y-112576580D02*
X212505500Y-111576580D01*
X211600738Y-111909914D02*
X211600738Y-112576580D01*
X212029309Y-111909914D02*
X212029309Y-112433723D01*
X211981690Y-112528961D01*
X211886452Y-112576580D01*
X211743595Y-112576580D01*
X211648357Y-112528961D01*
X211600738Y-112481342D01*
X211124547Y-112576580D02*
X211124547Y-111576580D01*
X211124547Y-111957533D02*
X211029309Y-111909914D01*
X210838833Y-111909914D01*
X210743595Y-111957533D01*
X210695976Y-112005152D01*
X210648357Y-112100390D01*
X210648357Y-112386104D01*
X210695976Y-112481342D01*
X210743595Y-112528961D01*
X210838833Y-112576580D01*
X211029309Y-112576580D01*
X211124547Y-112528961D01*
X209457880Y-112576580D02*
X209457880Y-111576580D01*
X209219785Y-111576580D01*
X209076928Y-111624200D01*
X208981690Y-111719438D01*
X208934071Y-111814676D01*
X208886452Y-112005152D01*
X208886452Y-112148009D01*
X208934071Y-112338485D01*
X208981690Y-112433723D01*
X209076928Y-112528961D01*
X209219785Y-112576580D01*
X209457880Y-112576580D01*
X208124547Y-112052771D02*
X207981690Y-112100390D01*
X207934071Y-112148009D01*
X207886452Y-112243247D01*
X207886452Y-112386104D01*
X207934071Y-112481342D01*
X207981690Y-112528961D01*
X208076928Y-112576580D01*
X208457880Y-112576580D01*
X208457880Y-111576580D01*
X208124547Y-111576580D01*
X208029309Y-111624200D01*
X207981690Y-111671819D01*
X207934071Y-111767057D01*
X207934071Y-111862295D01*
X207981690Y-111957533D01*
X208029309Y-112005152D01*
X208124547Y-112052771D01*
X208457880Y-112052771D01*
D11*
D10*
X194576928Y-95528961D02*
X194576928Y-95862295D01*
X194053119Y-95862295D02*
X195053119Y-95862295D01*
X195053119Y-95386104D01*
X194576928Y-95005152D02*
X194576928Y-94671819D01*
X194053119Y-94528961D02*
X194053119Y-95005152D01*
X195053119Y-95005152D01*
X195053119Y-94528961D01*
X194053119Y-93576580D02*
X194053119Y-94148009D01*
X194053119Y-93862295D02*
X195053119Y-93862295D01*
X194910261Y-93957533D01*
X194815023Y-94052771D01*
X194767404Y-94148009D01*
X194148357Y-93148009D02*
X194100738Y-93100390D01*
X194053119Y-93148009D01*
X194100738Y-93195628D01*
X194148357Y-93148009D01*
X194053119Y-93148009D01*
X194053119Y-92148009D02*
X194053119Y-92719438D01*
X194053119Y-92433723D02*
X195053119Y-92433723D01*
X194910261Y-92528961D01*
X194815023Y-92624200D01*
X194767404Y-92719438D01*
X194100738Y-91767057D02*
X194053119Y-91671819D01*
X194053119Y-91481342D01*
X194100738Y-91386104D01*
X194195976Y-91338485D01*
X194243595Y-91338485D01*
X194338833Y-91386104D01*
X194386452Y-91481342D01*
X194386452Y-91624200D01*
X194434071Y-91719438D01*
X194529309Y-91767057D01*
X194576928Y-91767057D01*
X194672166Y-91719438D01*
X194719785Y-91624200D01*
X194719785Y-91481342D01*
X194672166Y-91386104D01*
D11*
D10*
X343457880Y-91576580D02*
X343457880Y-92386104D01*
X343410261Y-92481342D01*
X343362642Y-92528961D01*
X343267404Y-92576580D01*
X343076928Y-92576580D01*
X342981690Y-92528961D01*
X342934071Y-92481342D01*
X342886452Y-92386104D01*
X342886452Y-91576580D01*
X342457880Y-92528961D02*
X342315023Y-92576580D01*
X342076928Y-92576580D01*
X341981690Y-92528961D01*
X341934071Y-92481342D01*
X341886452Y-92386104D01*
X341886452Y-92290866D01*
X341934071Y-92195628D01*
X341981690Y-92148009D01*
X342076928Y-92100390D01*
X342267404Y-92052771D01*
X342362642Y-92005152D01*
X342410261Y-91957533D01*
X342457880Y-91862295D01*
X342457880Y-91767057D01*
X342410261Y-91671819D01*
X342362642Y-91624200D01*
X342267404Y-91576580D01*
X342029309Y-91576580D01*
X341886452Y-91624200D01*
X341124547Y-92052771D02*
X340981690Y-92100390D01*
X340934071Y-92148009D01*
X340886452Y-92243247D01*
X340886452Y-92386104D01*
X340934071Y-92481342D01*
X340981690Y-92528961D01*
X341076928Y-92576580D01*
X341457880Y-92576580D01*
X341457880Y-91576580D01*
X341124547Y-91576580D01*
X341029309Y-91624200D01*
X340981690Y-91671819D01*
X340934071Y-91767057D01*
X340934071Y-91862295D01*
X340981690Y-91957533D01*
X341029309Y-92005152D01*
X341124547Y-92052771D01*
X341457880Y-92052771D01*
X339743595Y-92290866D02*
X339267404Y-92290866D01*
X339838833Y-92576580D02*
X339505500Y-91576580D01*
X339172166Y-92576580D01*
X338076928Y-92576580D02*
X338076928Y-91576580D01*
X337838833Y-91576580D01*
X337695976Y-91624200D01*
X337600738Y-91719438D01*
X337553119Y-91814676D01*
X337505500Y-92005152D01*
X337505500Y-92148009D01*
X337553119Y-92338485D01*
X337600738Y-92433723D01*
X337695976Y-92528961D01*
X337838833Y-92576580D01*
X338076928Y-92576580D01*
X336743595Y-92052771D02*
X336600738Y-92100390D01*
X336553119Y-92148009D01*
X336505500Y-92243247D01*
X336505500Y-92386104D01*
X336553119Y-92481342D01*
X336600738Y-92528961D01*
X336695976Y-92576580D01*
X337076928Y-92576580D01*
X337076928Y-91576580D01*
X336743595Y-91576580D01*
X336648357Y-91624200D01*
X336600738Y-91671819D01*
X336553119Y-91767057D01*
X336553119Y-91862295D01*
X336600738Y-91957533D01*
X336648357Y-92005152D01*
X336743595Y-92052771D01*
X337076928Y-92052771D01*
D11*
D10*
X37513580Y-107890319D02*
X38323104Y-107890319D01*
X38418342Y-107937938D01*
X38465961Y-107985557D01*
X38513580Y-108080795D01*
X38513580Y-108271271D01*
X38465961Y-108366509D01*
X38418342Y-108414128D01*
X38323104Y-108461747D01*
X37513580Y-108461747D01*
X38465961Y-108890319D02*
X38513580Y-109033176D01*
X38513580Y-109271271D01*
X38465961Y-109366509D01*
X38418342Y-109414128D01*
X38323104Y-109461747D01*
X38227866Y-109461747D01*
X38132628Y-109414128D01*
X38085009Y-109366509D01*
X38037390Y-109271271D01*
X37989771Y-109080795D01*
X37942152Y-108985557D01*
X37894533Y-108937938D01*
X37799295Y-108890319D01*
X37704057Y-108890319D01*
X37608819Y-108937938D01*
X37561200Y-108985557D01*
X37513580Y-109080795D01*
X37513580Y-109318890D01*
X37561200Y-109461747D01*
X37989771Y-110223652D02*
X38037390Y-110366509D01*
X38085009Y-110414128D01*
X38180247Y-110461747D01*
X38323104Y-110461747D01*
X38418342Y-110414128D01*
X38465961Y-110366509D01*
X38513580Y-110271271D01*
X38513580Y-109890319D01*
X37513580Y-109890319D01*
X37513580Y-110223652D01*
X37561200Y-110318890D01*
X37608819Y-110366509D01*
X37704057Y-110414128D01*
X37799295Y-110414128D01*
X37894533Y-110366509D01*
X37942152Y-110318890D01*
X37989771Y-110223652D01*
X37989771Y-109890319D01*
X38227866Y-111604604D02*
X38227866Y-112080795D01*
X38513580Y-111509366D02*
X37513580Y-111842700D01*
X38513580Y-112176033D01*
X38513580Y-113271271D02*
X37513580Y-113271271D01*
X37513580Y-113509366D01*
X37561200Y-113652223D01*
X37656438Y-113747461D01*
X37751676Y-113795080D01*
X37942152Y-113842700D01*
X38085009Y-113842700D01*
X38275485Y-113795080D01*
X38370723Y-113747461D01*
X38465961Y-113652223D01*
X38513580Y-113509366D01*
X38513580Y-113271271D01*
X37989771Y-114604604D02*
X38037390Y-114747461D01*
X38085009Y-114795080D01*
X38180247Y-114842700D01*
X38323104Y-114842700D01*
X38418342Y-114795080D01*
X38465961Y-114747461D01*
X38513580Y-114652223D01*
X38513580Y-114271271D01*
X37513580Y-114271271D01*
X37513580Y-114604604D01*
X37561200Y-114699842D01*
X37608819Y-114747461D01*
X37704057Y-114795080D01*
X37799295Y-114795080D01*
X37894533Y-114747461D01*
X37942152Y-114699842D01*
X37989771Y-114604604D01*
X37989771Y-114271271D01*
D11*
D10*
X212041214Y-90076580D02*
X212041214Y-90886104D01*
X211993595Y-90981342D01*
X211945976Y-91028961D01*
X211850738Y-91076580D01*
X211660261Y-91076580D01*
X211565023Y-91028961D01*
X211517404Y-90981342D01*
X211469785Y-90886104D01*
X211469785Y-90076580D01*
X210993595Y-91076580D02*
X210993595Y-90076580D01*
X210755500Y-90076580D01*
X210612642Y-90124200D01*
X210517404Y-90219438D01*
X210469785Y-90314676D01*
X210422166Y-90505152D01*
X210422166Y-90648009D01*
X210469785Y-90838485D01*
X210517404Y-90933723D01*
X210612642Y-91028961D01*
X210755500Y-91076580D01*
X210993595Y-91076580D01*
X209660261Y-90552771D02*
X209517404Y-90600390D01*
X209469785Y-90648009D01*
X209422166Y-90743247D01*
X209422166Y-90886104D01*
X209469785Y-90981342D01*
X209517404Y-91028961D01*
X209612642Y-91076580D01*
X209993595Y-91076580D01*
X209993595Y-90076580D01*
X209660261Y-90076580D01*
X209565023Y-90124200D01*
X209517404Y-90171819D01*
X209469785Y-90267057D01*
X209469785Y-90362295D01*
X209517404Y-90457533D01*
X209565023Y-90505152D01*
X209660261Y-90552771D01*
X209993595Y-90552771D01*
D11*
D10*
X383497418Y-113795080D02*
X382687894Y-113795080D01*
X382592656Y-113747461D01*
X382545037Y-113699842D01*
X382497418Y-113604604D01*
X382497418Y-113414128D01*
X382545037Y-113318890D01*
X382592656Y-113271271D01*
X382687894Y-113223652D01*
X383497418Y-113223652D01*
X382545037Y-112795080D02*
X382497418Y-112652223D01*
X382497418Y-112414128D01*
X382545037Y-112318890D01*
X382592656Y-112271271D01*
X382687894Y-112223652D01*
X382783132Y-112223652D01*
X382878370Y-112271271D01*
X382925989Y-112318890D01*
X382973608Y-112414128D01*
X383021227Y-112604604D01*
X383068846Y-112699842D01*
X383116465Y-112747461D01*
X383211703Y-112795080D01*
X383306941Y-112795080D01*
X383402179Y-112747461D01*
X383449799Y-112699842D01*
X383497418Y-112604604D01*
X383497418Y-112366509D01*
X383449799Y-112223652D01*
X383021227Y-111461747D02*
X382973608Y-111318890D01*
X382925989Y-111271271D01*
X382830751Y-111223652D01*
X382687894Y-111223652D01*
X382592656Y-111271271D01*
X382545037Y-111318890D01*
X382497418Y-111414128D01*
X382497418Y-111795080D01*
X383497418Y-111795080D01*
X383497418Y-111461747D01*
X383449799Y-111366509D01*
X383402179Y-111318890D01*
X383306941Y-111271271D01*
X383211703Y-111271271D01*
X383116465Y-111318890D01*
X383068846Y-111366509D01*
X383021227Y-111461747D01*
X383021227Y-111795080D01*
X382783132Y-110080795D02*
X382783132Y-109604604D01*
X382497418Y-110176033D02*
X383497418Y-109842700D01*
X382497418Y-109509366D01*
X382497418Y-108414128D02*
X383497418Y-108414128D01*
X383497418Y-108176033D01*
X383449799Y-108033176D01*
X383354560Y-107937938D01*
X383259322Y-107890319D01*
X383068846Y-107842700D01*
X382925989Y-107842700D01*
X382735513Y-107890319D01*
X382640275Y-107937938D01*
X382545037Y-108033176D01*
X382497418Y-108176033D01*
X382497418Y-108414128D01*
X383021227Y-107080795D02*
X382973608Y-106937938D01*
X382925989Y-106890319D01*
X382830751Y-106842700D01*
X382687894Y-106842700D01*
X382592656Y-106890319D01*
X382545037Y-106937938D01*
X382497418Y-107033176D01*
X382497418Y-107414128D01*
X383497418Y-107414128D01*
X383497418Y-107080795D01*
X383449799Y-106985557D01*
X383402179Y-106937938D01*
X383306941Y-106890319D01*
X383211703Y-106890319D01*
X383116465Y-106937938D01*
X383068846Y-106985557D01*
X383021227Y-107080795D01*
X383021227Y-107414128D01*
D11*
D10*
X238957880Y-91336847D02*
X238957880Y-92003513D01*
X239957880Y-91574942D01*
X239957880Y-93146371D02*
X238957880Y-93146371D01*
X238957880Y-93527323D01*
X239005500Y-93622561D01*
X239053119Y-93670180D01*
X239148357Y-93717799D01*
X239291214Y-93717799D01*
X239386452Y-93670180D01*
X239434071Y-93622561D01*
X239481690Y-93527323D01*
X239481690Y-93146371D01*
X239957880Y-94289228D02*
X239910261Y-94193990D01*
X239862642Y-94146371D01*
X239767404Y-94098752D01*
X239481690Y-94098752D01*
X239386452Y-94146371D01*
X239338833Y-94193990D01*
X239291214Y-94289228D01*
X239291214Y-94432085D01*
X239338833Y-94527323D01*
X239386452Y-94574942D01*
X239481690Y-94622561D01*
X239767404Y-94622561D01*
X239862642Y-94574942D01*
X239910261Y-94527323D01*
X239957880Y-94432085D01*
X239957880Y-94289228D01*
X239957880Y-95051132D02*
X239291214Y-95051132D01*
X239481690Y-95051132D02*
X239386452Y-95098752D01*
X239338833Y-95146371D01*
X239291214Y-95241609D01*
X239291214Y-95336847D01*
X239291214Y-95527323D02*
X239291214Y-95908275D01*
X238957880Y-95670180D02*
X239815023Y-95670180D01*
X239910261Y-95717799D01*
X239957880Y-95813037D01*
X239957880Y-95908275D01*
D11*
D10*
X141457880Y-91576580D02*
X141457880Y-92386104D01*
X141410261Y-92481342D01*
X141362642Y-92528961D01*
X141267404Y-92576580D01*
X141076928Y-92576580D01*
X140981690Y-92528961D01*
X140934071Y-92481342D01*
X140886452Y-92386104D01*
X140886452Y-91576580D01*
X140457880Y-92528961D02*
X140315023Y-92576580D01*
X140076928Y-92576580D01*
X139981690Y-92528961D01*
X139934071Y-92481342D01*
X139886452Y-92386104D01*
X139886452Y-92290866D01*
X139934071Y-92195628D01*
X139981690Y-92148009D01*
X140076928Y-92100390D01*
X140267404Y-92052771D01*
X140362642Y-92005152D01*
X140410261Y-91957533D01*
X140457880Y-91862295D01*
X140457880Y-91767057D01*
X140410261Y-91671819D01*
X140362642Y-91624200D01*
X140267404Y-91576580D01*
X140029309Y-91576580D01*
X139886452Y-91624200D01*
X139124547Y-92052771D02*
X138981690Y-92100390D01*
X138934071Y-92148009D01*
X138886452Y-92243247D01*
X138886452Y-92386104D01*
X138934071Y-92481342D01*
X138981690Y-92528961D01*
X139076928Y-92576580D01*
X139457880Y-92576580D01*
X139457880Y-91576580D01*
X139124547Y-91576580D01*
X139029309Y-91624200D01*
X138981690Y-91671819D01*
X138934071Y-91767057D01*
X138934071Y-91862295D01*
X138981690Y-91957533D01*
X139029309Y-92005152D01*
X139124547Y-92052771D01*
X139457880Y-92052771D01*
X137743595Y-92290866D02*
X137267404Y-92290866D01*
X137838833Y-92576580D02*
X137505500Y-91576580D01*
X137172166Y-92576580D01*
X136076928Y-92576580D02*
X136076928Y-91576580D01*
X135838833Y-91576580D01*
X135695976Y-91624200D01*
X135600738Y-91719438D01*
X135553119Y-91814676D01*
X135505500Y-92005152D01*
X135505500Y-92148009D01*
X135553119Y-92338485D01*
X135600738Y-92433723D01*
X135695976Y-92528961D01*
X135838833Y-92576580D01*
X136076928Y-92576580D01*
X134743595Y-92052771D02*
X134600738Y-92100390D01*
X134553119Y-92148009D01*
X134505500Y-92243247D01*
X134505500Y-92386104D01*
X134553119Y-92481342D01*
X134600738Y-92528961D01*
X134695976Y-92576580D01*
X135076928Y-92576580D01*
X135076928Y-91576580D01*
X134743595Y-91576580D01*
X134648357Y-91624200D01*
X134600738Y-91671819D01*
X134553119Y-91767057D01*
X134553119Y-91862295D01*
X134600738Y-91957533D01*
X134648357Y-92005152D01*
X134743595Y-92052771D01*
X135076928Y-92052771D01*
D11*
D10*
X286457880Y-91576580D02*
X286457880Y-92386104D01*
X286410261Y-92481342D01*
X286362642Y-92528961D01*
X286267404Y-92576580D01*
X286076928Y-92576580D01*
X285981690Y-92528961D01*
X285934071Y-92481342D01*
X285886452Y-92386104D01*
X285886452Y-91576580D01*
X285457880Y-92528961D02*
X285315023Y-92576580D01*
X285076928Y-92576580D01*
X284981690Y-92528961D01*
X284934071Y-92481342D01*
X284886452Y-92386104D01*
X284886452Y-92290866D01*
X284934071Y-92195628D01*
X284981690Y-92148009D01*
X285076928Y-92100390D01*
X285267404Y-92052771D01*
X285362642Y-92005152D01*
X285410261Y-91957533D01*
X285457880Y-91862295D01*
X285457880Y-91767057D01*
X285410261Y-91671819D01*
X285362642Y-91624200D01*
X285267404Y-91576580D01*
X285029309Y-91576580D01*
X284886452Y-91624200D01*
X284124547Y-92052771D02*
X283981690Y-92100390D01*
X283934071Y-92148009D01*
X283886452Y-92243247D01*
X283886452Y-92386104D01*
X283934071Y-92481342D01*
X283981690Y-92528961D01*
X284076928Y-92576580D01*
X284457880Y-92576580D01*
X284457880Y-91576580D01*
X284124547Y-91576580D01*
X284029309Y-91624200D01*
X283981690Y-91671819D01*
X283934071Y-91767057D01*
X283934071Y-91862295D01*
X283981690Y-91957533D01*
X284029309Y-92005152D01*
X284124547Y-92052771D01*
X284457880Y-92052771D01*
X282743595Y-92290866D02*
X282267404Y-92290866D01*
X282838833Y-92576580D02*
X282505500Y-91576580D01*
X282172166Y-92576580D01*
X281076928Y-92576580D02*
X281076928Y-91576580D01*
X280838833Y-91576580D01*
X280695976Y-91624200D01*
X280600738Y-91719438D01*
X280553119Y-91814676D01*
X280505500Y-92005152D01*
X280505500Y-92148009D01*
X280553119Y-92338485D01*
X280600738Y-92433723D01*
X280695976Y-92528961D01*
X280838833Y-92576580D01*
X281076928Y-92576580D01*
X279743595Y-92052771D02*
X279600738Y-92100390D01*
X279553119Y-92148009D01*
X279505500Y-92243247D01*
X279505500Y-92386104D01*
X279553119Y-92481342D01*
X279600738Y-92528961D01*
X279695976Y-92576580D01*
X280076928Y-92576580D01*
X280076928Y-91576580D01*
X279743595Y-91576580D01*
X279648357Y-91624200D01*
X279600738Y-91671819D01*
X279553119Y-91767057D01*
X279553119Y-91862295D01*
X279600738Y-91957533D01*
X279648357Y-92005152D01*
X279743595Y-92052771D01*
X280076928Y-92052771D01*
D11*
D10*
X294582095Y-204389580D02*
X294582095Y-203389580D01*
X294201142Y-203389580D01*
X294105904Y-203437200D01*
X294058285Y-203484819D01*
X294010666Y-203580057D01*
X294010666Y-203722914D01*
X294058285Y-203818152D01*
X294105904Y-203865771D01*
X294201142Y-203913390D01*
X294582095Y-203913390D01*
X293629714Y-203484819D02*
X293582095Y-203437200D01*
X293486857Y-203389580D01*
X293248761Y-203389580D01*
X293153523Y-203437200D01*
X293105904Y-203484819D01*
X293058285Y-203580057D01*
X293058285Y-203675295D01*
X293105904Y-203818152D01*
X293677333Y-204389580D01*
X293058285Y-204389580D01*
D11*
D10*
X226291214Y-91886104D02*
X226957880Y-91886104D01*
X225910261Y-91648009D02*
X226624547Y-91409914D01*
X226624547Y-92028961D01*
X226957880Y-93171819D02*
X225957880Y-93171819D01*
X225957880Y-93552771D01*
X226005500Y-93648009D01*
X226053119Y-93695628D01*
X226148357Y-93743247D01*
X226291214Y-93743247D01*
X226386452Y-93695628D01*
X226434071Y-93648009D01*
X226481690Y-93552771D01*
X226481690Y-93171819D01*
X226957880Y-94314676D02*
X226910261Y-94219438D01*
X226862642Y-94171819D01*
X226767404Y-94124200D01*
X226481690Y-94124200D01*
X226386452Y-94171819D01*
X226338833Y-94219438D01*
X226291214Y-94314676D01*
X226291214Y-94457533D01*
X226338833Y-94552771D01*
X226386452Y-94600390D01*
X226481690Y-94648009D01*
X226767404Y-94648009D01*
X226862642Y-94600390D01*
X226910261Y-94552771D01*
X226957880Y-94457533D01*
X226957880Y-94314676D01*
X226957880Y-95076580D02*
X226291214Y-95076580D01*
X226481690Y-95076580D02*
X226386452Y-95124200D01*
X226338833Y-95171819D01*
X226291214Y-95267057D01*
X226291214Y-95362295D01*
X226291214Y-95552771D02*
X226291214Y-95933723D01*
X225957880Y-95695628D02*
X226815023Y-95695628D01*
X226910261Y-95743247D01*
X226957880Y-95838485D01*
X226957880Y-95933723D01*
D11*
D10*
X84457880Y-91576580D02*
X84457880Y-92386104D01*
X84410261Y-92481342D01*
X84362642Y-92528961D01*
X84267404Y-92576580D01*
X84076928Y-92576580D01*
X83981690Y-92528961D01*
X83934071Y-92481342D01*
X83886452Y-92386104D01*
X83886452Y-91576580D01*
X83457880Y-92528961D02*
X83315023Y-92576580D01*
X83076928Y-92576580D01*
X82981690Y-92528961D01*
X82934071Y-92481342D01*
X82886452Y-92386104D01*
X82886452Y-92290866D01*
X82934071Y-92195628D01*
X82981690Y-92148009D01*
X83076928Y-92100390D01*
X83267404Y-92052771D01*
X83362642Y-92005152D01*
X83410261Y-91957533D01*
X83457880Y-91862295D01*
X83457880Y-91767057D01*
X83410261Y-91671819D01*
X83362642Y-91624200D01*
X83267404Y-91576580D01*
X83029309Y-91576580D01*
X82886452Y-91624200D01*
X82124547Y-92052771D02*
X81981690Y-92100390D01*
X81934071Y-92148009D01*
X81886452Y-92243247D01*
X81886452Y-92386104D01*
X81934071Y-92481342D01*
X81981690Y-92528961D01*
X82076928Y-92576580D01*
X82457880Y-92576580D01*
X82457880Y-91576580D01*
X82124547Y-91576580D01*
X82029309Y-91624200D01*
X81981690Y-91671819D01*
X81934071Y-91767057D01*
X81934071Y-91862295D01*
X81981690Y-91957533D01*
X82029309Y-92005152D01*
X82124547Y-92052771D01*
X82457880Y-92052771D01*
X80743595Y-92290866D02*
X80267404Y-92290866D01*
X80838833Y-92576580D02*
X80505500Y-91576580D01*
X80172166Y-92576580D01*
X79076928Y-92576580D02*
X79076928Y-91576580D01*
X78838833Y-91576580D01*
X78695976Y-91624200D01*
X78600738Y-91719438D01*
X78553119Y-91814676D01*
X78505500Y-92005152D01*
X78505500Y-92148009D01*
X78553119Y-92338485D01*
X78600738Y-92433723D01*
X78695976Y-92528961D01*
X78838833Y-92576580D01*
X79076928Y-92576580D01*
X77743595Y-92052771D02*
X77600738Y-92100390D01*
X77553119Y-92148009D01*
X77505500Y-92243247D01*
X77505500Y-92386104D01*
X77553119Y-92481342D01*
X77600738Y-92528961D01*
X77695976Y-92576580D01*
X78076928Y-92576580D01*
X78076928Y-91576580D01*
X77743595Y-91576580D01*
X77648357Y-91624200D01*
X77600738Y-91671819D01*
X77553119Y-91767057D01*
X77553119Y-91862295D01*
X77600738Y-91957533D01*
X77648357Y-92005152D01*
X77743595Y-92052771D01*
X78076928Y-92052771D01*
D11*
D10*
X181576928Y-95098752D02*
X181576928Y-95432085D01*
X181053119Y-95432085D02*
X182053119Y-95432085D01*
X182053119Y-94955894D01*
X181576928Y-94574942D02*
X181576928Y-94241609D01*
X181053119Y-94098752D02*
X181053119Y-94574942D01*
X182053119Y-94574942D01*
X182053119Y-94098752D01*
X181957880Y-93717799D02*
X182005500Y-93670180D01*
X182053119Y-93574942D01*
X182053119Y-93336847D01*
X182005500Y-93241609D01*
X181957880Y-93193990D01*
X181862642Y-93146371D01*
X181767404Y-93146371D01*
X181624547Y-93193990D01*
X181053119Y-93765418D01*
X181053119Y-93146371D01*
X181148357Y-92717799D02*
X181100738Y-92670180D01*
X181053119Y-92717799D01*
X181100738Y-92765418D01*
X181148357Y-92717799D01*
X181053119Y-92717799D01*
X181053119Y-91717799D02*
X181053119Y-92289228D01*
X181053119Y-92003513D02*
X182053119Y-92003513D01*
X181910261Y-92098752D01*
X181815023Y-92193990D01*
X181767404Y-92289228D01*
D11*
D10*
X214791214Y-203389580D02*
X214791214Y-202389580D01*
X214410261Y-202389580D01*
X214315023Y-202437200D01*
X214267404Y-202484819D01*
X214219785Y-202580057D01*
X214219785Y-202722914D01*
X214267404Y-202818152D01*
X214315023Y-202865771D01*
X214410261Y-202913390D01*
X214791214Y-202913390D01*
X213219785Y-203294342D02*
X213267404Y-203341961D01*
X213410261Y-203389580D01*
X213505500Y-203389580D01*
X213648357Y-203341961D01*
X213743595Y-203246723D01*
X213791214Y-203151485D01*
X213838833Y-202961009D01*
X213838833Y-202818152D01*
X213791214Y-202627676D01*
X213743595Y-202532438D01*
X213648357Y-202437200D01*
X213505500Y-202389580D01*
X213410261Y-202389580D01*
X213267404Y-202437200D01*
X213219785Y-202484819D01*
X212457880Y-202865771D02*
X212315023Y-202913390D01*
X212267404Y-202961009D01*
X212219785Y-203056247D01*
X212219785Y-203199104D01*
X212267404Y-203294342D01*
X212315023Y-203341961D01*
X212410261Y-203389580D01*
X212791214Y-203389580D01*
X212791214Y-202389580D01*
X212457880Y-202389580D01*
X212362642Y-202437200D01*
X212315023Y-202484819D01*
X212267404Y-202580057D01*
X212267404Y-202675295D01*
X212315023Y-202770533D01*
X212362642Y-202818152D01*
X212457880Y-202865771D01*
X212791214Y-202865771D01*
X210838833Y-202389580D02*
X210648357Y-202389580D01*
X210553119Y-202437200D01*
X210457880Y-202532438D01*
X210410261Y-202722914D01*
X210410261Y-203056247D01*
X210457880Y-203246723D01*
X210553119Y-203341961D01*
X210648357Y-203389580D01*
X210838833Y-203389580D01*
X210934071Y-203341961D01*
X211029309Y-203246723D01*
X211076928Y-203056247D01*
X211076928Y-202722914D01*
X211029309Y-202532438D01*
X210934071Y-202437200D01*
X210838833Y-202389580D01*
X209553119Y-202722914D02*
X209553119Y-203389580D01*
X209981690Y-202722914D02*
X209981690Y-203246723D01*
X209934071Y-203341961D01*
X209838833Y-203389580D01*
X209695976Y-203389580D01*
X209600738Y-203341961D01*
X209553119Y-203294342D01*
X209219785Y-202722914D02*
X208838833Y-202722914D01*
X209076928Y-202389580D02*
X209076928Y-203246723D01*
X209029309Y-203341961D01*
X208934071Y-203389580D01*
X208838833Y-203389580D01*
X208362642Y-203389580D02*
X208457880Y-203341961D01*
X208505500Y-203246723D01*
X208505500Y-202389580D01*
X207981690Y-203389580D02*
X207981690Y-202722914D01*
X207981690Y-202389580D02*
X208029309Y-202437200D01*
X207981690Y-202484819D01*
X207934071Y-202437200D01*
X207981690Y-202389580D01*
X207981690Y-202484819D01*
X207505500Y-202722914D02*
X207505500Y-203389580D01*
X207505500Y-202818152D02*
X207457880Y-202770533D01*
X207362642Y-202722914D01*
X207219785Y-202722914D01*
X207124547Y-202770533D01*
X207076928Y-202865771D01*
X207076928Y-203389580D01*
X206219785Y-203341961D02*
X206315023Y-203389580D01*
X206505500Y-203389580D01*
X206600738Y-203341961D01*
X206648357Y-203246723D01*
X206648357Y-202865771D01*
X206600738Y-202770533D01*
X206505500Y-202722914D01*
X206315023Y-202722914D01*
X206219785Y-202770533D01*
X206172166Y-202865771D01*
X206172166Y-202961009D01*
X206648357Y-203056247D01*
D11*
D10*
X194575895Y-204389580D02*
X194575895Y-203389580D01*
X194194942Y-203389580D01*
X194099704Y-203437200D01*
X194052085Y-203484819D01*
X194004466Y-203580057D01*
X194004466Y-203722914D01*
X194052085Y-203818152D01*
X194099704Y-203865771D01*
X194194942Y-203913390D01*
X194575895Y-203913390D01*
X193623514Y-203484819D02*
X193575895Y-203437200D01*
X193480657Y-203389580D01*
X193242561Y-203389580D01*
X193147323Y-203437200D01*
X193099704Y-203484819D01*
X193052085Y-203580057D01*
X193052085Y-203675295D01*
X193099704Y-203818152D01*
X193671133Y-204389580D01*
X193052085Y-204389580D01*
D11*
D10*
X194575895Y-200389580D02*
X194575895Y-199389580D01*
X194194942Y-199389580D01*
X194099704Y-199437200D01*
X194052085Y-199484819D01*
X194004466Y-199580057D01*
X194004466Y-199722914D01*
X194052085Y-199818152D01*
X194099704Y-199865771D01*
X194194942Y-199913390D01*
X194575895Y-199913390D01*
X193671133Y-199389580D02*
X193052085Y-199389580D01*
X193385419Y-199770533D01*
X193242561Y-199770533D01*
X193147323Y-199818152D01*
X193099704Y-199865771D01*
X193052085Y-199961009D01*
X193052085Y-200199104D01*
X193099704Y-200294342D01*
X193147323Y-200341961D01*
X193242561Y-200389580D01*
X193528276Y-200389580D01*
X193623514Y-200341961D01*
X193671133Y-200294342D01*
D11*
D10*
X294582095Y-200389580D02*
X294582095Y-199389580D01*
X294201142Y-199389580D01*
X294105904Y-199437200D01*
X294058285Y-199484819D01*
X294010666Y-199580057D01*
X294010666Y-199722914D01*
X294058285Y-199818152D01*
X294105904Y-199865771D01*
X294201142Y-199913390D01*
X294582095Y-199913390D01*
X293677333Y-199389580D02*
X293058285Y-199389580D01*
X293391619Y-199770533D01*
X293248761Y-199770533D01*
X293153523Y-199818152D01*
X293105904Y-199865771D01*
X293058285Y-199961009D01*
X293058285Y-200199104D01*
X293105904Y-200294342D01*
X293153523Y-200341961D01*
X293248761Y-200389580D01*
X293534476Y-200389580D01*
X293629714Y-200341961D01*
X293677333Y-200294342D01*
D11*
D10*
X215172166Y-116376580D02*
X214553119Y-116376580D01*
X214886452Y-116757533D01*
X214743595Y-116757533D01*
X214648357Y-116805152D01*
X214600738Y-116852771D01*
X214553119Y-116948009D01*
X214553119Y-117186104D01*
X214600738Y-117281342D01*
X214648357Y-117328961D01*
X214743595Y-117376580D01*
X215029309Y-117376580D01*
X215124547Y-117328961D01*
X215172166Y-117281342D01*
X213695976Y-116709914D02*
X213695976Y-117376580D01*
X213934071Y-116328961D02*
X214172166Y-117043247D01*
X213553119Y-117043247D01*
X213172166Y-117281342D02*
X213124547Y-117328961D01*
X213172166Y-117376580D01*
X213219785Y-117328961D01*
X213172166Y-117281342D01*
X213172166Y-117376580D01*
X212505500Y-116376580D02*
X212410261Y-116376580D01*
X212315023Y-116424200D01*
X212267404Y-116471819D01*
X212219785Y-116567057D01*
X212172166Y-116757533D01*
X212172166Y-116995628D01*
X212219785Y-117186104D01*
X212267404Y-117281342D01*
X212315023Y-117328961D01*
X212410261Y-117376580D01*
X212505500Y-117376580D01*
X212600738Y-117328961D01*
X212648357Y-117281342D01*
X212695976Y-117186104D01*
X212743595Y-116995628D01*
X212743595Y-116757533D01*
X212695976Y-116567057D01*
X212648357Y-116471819D01*
X212600738Y-116424200D01*
X212505500Y-116376580D01*
X211553119Y-116376580D02*
X211457880Y-116376580D01*
X211362642Y-116424200D01*
X211315023Y-116471819D01*
X211267404Y-116567057D01*
X211219785Y-116757533D01*
X211219785Y-116995628D01*
X211267404Y-117186104D01*
X211315023Y-117281342D01*
X211362642Y-117328961D01*
X211457880Y-117376580D01*
X211553119Y-117376580D01*
X211648357Y-117328961D01*
X211695976Y-117281342D01*
X211743595Y-117186104D01*
X211791214Y-116995628D01*
X211791214Y-116757533D01*
X211743595Y-116567057D01*
X211695976Y-116471819D01*
X211648357Y-116424200D01*
X211553119Y-116376580D01*
X210600738Y-116376580D02*
X210505500Y-116376580D01*
X210410261Y-116424200D01*
X210362642Y-116471819D01*
X210315023Y-116567057D01*
X210267404Y-116757533D01*
X210267404Y-116995628D01*
X210315023Y-117186104D01*
X210362642Y-117281342D01*
X210410261Y-117328961D01*
X210505500Y-117376580D01*
X210600738Y-117376580D01*
X210695976Y-117328961D01*
X210743595Y-117281342D01*
X210791214Y-117186104D01*
X210838833Y-116995628D01*
X210838833Y-116757533D01*
X210791214Y-116567057D01*
X210743595Y-116471819D01*
X210695976Y-116424200D01*
X210600738Y-116376580D01*
X209648357Y-116376580D02*
X209553119Y-116376580D01*
X209457880Y-116424200D01*
X209410261Y-116471819D01*
X209362642Y-116567057D01*
X209315023Y-116757533D01*
X209315023Y-116995628D01*
X209362642Y-117186104D01*
X209410261Y-117281342D01*
X209457880Y-117328961D01*
X209553119Y-117376580D01*
X209648357Y-117376580D01*
X209743595Y-117328961D01*
X209791214Y-117281342D01*
X209838833Y-117186104D01*
X209886452Y-116995628D01*
X209886452Y-116757533D01*
X209838833Y-116567057D01*
X209791214Y-116471819D01*
X209743595Y-116424200D01*
X209648357Y-116376580D01*
X208124547Y-117376580D02*
X208124547Y-116709914D01*
X208124547Y-116805152D02*
X208076928Y-116757533D01*
X207981690Y-116709914D01*
X207838833Y-116709914D01*
X207743595Y-116757533D01*
X207695976Y-116852771D01*
X207695976Y-117376580D01*
X207695976Y-116852771D02*
X207648357Y-116757533D01*
X207553119Y-116709914D01*
X207410261Y-116709914D01*
X207315023Y-116757533D01*
X207267404Y-116852771D01*
X207267404Y-117376580D01*
X206791214Y-117376580D02*
X206791214Y-116709914D01*
X206791214Y-116805152D02*
X206743595Y-116757533D01*
X206648357Y-116709914D01*
X206505500Y-116709914D01*
X206410261Y-116757533D01*
X206362642Y-116852771D01*
X206362642Y-117376580D01*
X206362642Y-116852771D02*
X206315023Y-116757533D01*
X206219785Y-116709914D01*
X206076928Y-116709914D01*
X205981690Y-116757533D01*
X205934071Y-116852771D01*
X205934071Y-117376580D01*
X193505500Y-113624200D02*
X193505500Y-118710620D01*
X227505500Y-113624200D02*
X227505500Y-118710620D01*
X193505500Y-118124200D02*
X205095976Y-118124200D01*
X215915024Y-118124200D02*
X227505500Y-118124200D01*
X193505500Y-118124200D02*
X194632004Y-118710621D01*
X193505500Y-118124200D02*
X194632004Y-117537779D01*
X227505500Y-118124200D02*
X226378996Y-117537779D01*
X227505500Y-118124200D02*
X226378996Y-118710621D01*
D11*
D10*
X214648357Y-118376580D02*
X214838833Y-118376580D01*
X214934071Y-118424200D01*
X214981690Y-118471819D01*
X215076928Y-118614676D01*
X215124547Y-118805152D01*
X215124547Y-119186104D01*
X215076928Y-119281342D01*
X215029309Y-119328961D01*
X214934071Y-119376580D01*
X214743595Y-119376580D01*
X214648357Y-119328961D01*
X214600738Y-119281342D01*
X214553119Y-119186104D01*
X214553119Y-118948009D01*
X214600738Y-118852771D01*
X214648357Y-118805152D01*
X214743595Y-118757533D01*
X214934071Y-118757533D01*
X215029309Y-118805152D01*
X215076928Y-118852771D01*
X215124547Y-118948009D01*
X213934071Y-118376580D02*
X213838833Y-118376580D01*
X213743595Y-118424200D01*
X213695976Y-118471819D01*
X213648357Y-118567057D01*
X213600738Y-118757533D01*
X213600738Y-118995628D01*
X213648357Y-119186104D01*
X213695976Y-119281342D01*
X213743595Y-119328961D01*
X213838833Y-119376580D01*
X213934071Y-119376580D01*
X214029309Y-119328961D01*
X214076928Y-119281342D01*
X214124547Y-119186104D01*
X214172166Y-118995628D01*
X214172166Y-118757533D01*
X214124547Y-118567057D01*
X214076928Y-118471819D01*
X214029309Y-118424200D01*
X213934071Y-118376580D01*
X213172166Y-119281342D02*
X213124547Y-119328961D01*
X213172166Y-119376580D01*
X213219785Y-119328961D01*
X213172166Y-119281342D01*
X213172166Y-119376580D01*
X212505500Y-118376580D02*
X212410261Y-118376580D01*
X212315023Y-118424200D01*
X212267404Y-118471819D01*
X212219785Y-118567057D01*
X212172166Y-118757533D01*
X212172166Y-118995628D01*
X212219785Y-119186104D01*
X212267404Y-119281342D01*
X212315023Y-119328961D01*
X212410261Y-119376580D01*
X212505500Y-119376580D01*
X212600738Y-119328961D01*
X212648357Y-119281342D01*
X212695976Y-119186104D01*
X212743595Y-118995628D01*
X212743595Y-118757533D01*
X212695976Y-118567057D01*
X212648357Y-118471819D01*
X212600738Y-118424200D01*
X212505500Y-118376580D01*
X211553119Y-118376580D02*
X211457880Y-118376580D01*
X211362642Y-118424200D01*
X211315023Y-118471819D01*
X211267404Y-118567057D01*
X211219785Y-118757533D01*
X211219785Y-118995628D01*
X211267404Y-119186104D01*
X211315023Y-119281342D01*
X211362642Y-119328961D01*
X211457880Y-119376580D01*
X211553119Y-119376580D01*
X211648357Y-119328961D01*
X211695976Y-119281342D01*
X211743595Y-119186104D01*
X211791214Y-118995628D01*
X211791214Y-118757533D01*
X211743595Y-118567057D01*
X211695976Y-118471819D01*
X211648357Y-118424200D01*
X211553119Y-118376580D01*
X210600738Y-118376580D02*
X210505500Y-118376580D01*
X210410261Y-118424200D01*
X210362642Y-118471819D01*
X210315023Y-118567057D01*
X210267404Y-118757533D01*
X210267404Y-118995628D01*
X210315023Y-119186104D01*
X210362642Y-119281342D01*
X210410261Y-119328961D01*
X210505500Y-119376580D01*
X210600738Y-119376580D01*
X210695976Y-119328961D01*
X210743595Y-119281342D01*
X210791214Y-119186104D01*
X210838833Y-118995628D01*
X210838833Y-118757533D01*
X210791214Y-118567057D01*
X210743595Y-118471819D01*
X210695976Y-118424200D01*
X210600738Y-118376580D01*
X209648357Y-118376580D02*
X209553119Y-118376580D01*
X209457880Y-118424200D01*
X209410261Y-118471819D01*
X209362642Y-118567057D01*
X209315023Y-118757533D01*
X209315023Y-118995628D01*
X209362642Y-119186104D01*
X209410261Y-119281342D01*
X209457880Y-119328961D01*
X209553119Y-119376580D01*
X209648357Y-119376580D01*
X209743595Y-119328961D01*
X209791214Y-119281342D01*
X209838833Y-119186104D01*
X209886452Y-118995628D01*
X209886452Y-118757533D01*
X209838833Y-118567057D01*
X209791214Y-118471819D01*
X209743595Y-118424200D01*
X209648357Y-118376580D01*
X208124547Y-119376580D02*
X208124547Y-118709914D01*
X208124547Y-118805152D02*
X208076928Y-118757533D01*
X207981690Y-118709914D01*
X207838833Y-118709914D01*
X207743595Y-118757533D01*
X207695976Y-118852771D01*
X207695976Y-119376580D01*
X207695976Y-118852771D02*
X207648357Y-118757533D01*
X207553119Y-118709914D01*
X207410261Y-118709914D01*
X207315023Y-118757533D01*
X207267404Y-118852771D01*
X207267404Y-119376580D01*
X206791214Y-119376580D02*
X206791214Y-118709914D01*
X206791214Y-118805152D02*
X206743595Y-118757533D01*
X206648357Y-118709914D01*
X206505500Y-118709914D01*
X206410261Y-118757533D01*
X206362642Y-118852771D01*
X206362642Y-119376580D01*
X206362642Y-118852771D02*
X206315023Y-118757533D01*
X206219785Y-118709914D01*
X206076928Y-118709914D01*
X205981690Y-118757533D01*
X205934071Y-118852771D01*
X205934071Y-119376580D01*
X180505500Y-113624200D02*
X180505500Y-120710620D01*
X240505500Y-113624200D02*
X240505500Y-120710620D01*
X180505500Y-120124200D02*
X205095976Y-120124200D01*
X215915024Y-120124200D02*
X240505500Y-120124200D01*
X180505500Y-120124200D02*
X181632004Y-120710621D01*
X180505500Y-120124200D02*
X181632004Y-119537779D01*
X240505500Y-120124200D02*
X239378996Y-119537779D01*
X240505500Y-120124200D02*
X239378996Y-120710621D01*
M02*
