%TF.GenerationSoftware,KiCad,Pcbnew,(6.0.0)*%
%TF.CreationDate,2022-03-07T23:27:40-05:00*%
%TF.ProjectId,custom_keyboard plate v3 bottom - map,63757374-6f6d-45f6-9b65-79626f617264,rev?*%
%TF.SameCoordinates,Original*%
%TF.FileFunction,Profile,NP*%
%FSLAX46Y46*%
G04 Gerber Fmt 4.6, Leading zero omitted, Abs format (unit mm)*
G04 Created by KiCad (PCBNEW (6.0.0)) date 2022-03-07 23:27:40*
%MOMM*%
%LPD*%
G01*
G04 APERTURE LIST*
%TA.AperFunction,Profile*%
%ADD10C,0.200000*%
%TD*%
G04 APERTURE END LIST*
D10*
X14592700Y-58758200D02*
G75*
G03*
X10624200Y-62726700I1J-3968501D01*
G01*
X370755500Y-108758200D02*
X370755500Y-58758200D01*
X401918300Y-201624200D02*
G75*
G03*
X405886800Y-197655700I-1J3968501D01*
G01*
X111005500Y-58758200D02*
X305505500Y-58758200D01*
X52255500Y-108758200D02*
X45755500Y-108758200D01*
X45755500Y-108758200D02*
X45755500Y-58758200D01*
X52255500Y-58758200D02*
X52255500Y-108758200D01*
X312005500Y-58758200D02*
X312005500Y-108758200D01*
X370755500Y-58758200D02*
X401918300Y-58758200D01*
X45755500Y-58758200D02*
X14592700Y-58758200D01*
X364255500Y-58758200D02*
X364255500Y-108758200D01*
X10624200Y-62726700D02*
X10624200Y-197655700D01*
X111005500Y-58758200D02*
X111005500Y-108758200D01*
X104505500Y-108758200D02*
X104505500Y-58758200D01*
X111005500Y-108758200D02*
X104505500Y-108758200D01*
X312005500Y-58758200D02*
X364255500Y-58758200D01*
X10624200Y-197655700D02*
G75*
G03*
X14592700Y-201624200I3968501J1D01*
G01*
X312005500Y-108758200D02*
X305505500Y-108758200D01*
X364255500Y-108758200D02*
X370755500Y-108758200D01*
X405886800Y-197655700D02*
X405886800Y-62726700D01*
X52255500Y-58758200D02*
X104505500Y-58758200D01*
X14592700Y-201624200D02*
X401918300Y-201624200D01*
X305505500Y-108758200D02*
X305505500Y-58758200D01*
X405886800Y-62726700D02*
G75*
G03*
X401918300Y-58758200I-3968501J-1D01*
G01*
M02*
