%TF.GenerationSoftware,KiCad,Pcbnew,(5.1.10)-1*%
%TF.CreationDate,2021-12-02T22:39:20-05:00*%
%TF.ProjectId,custom_keyboard (f303),63757374-6f6d-45f6-9b65-79626f617264,rev?*%
%TF.SameCoordinates,Original*%
%TF.FileFunction,Paste,Bot*%
%TF.FilePolarity,Positive*%
%FSLAX46Y46*%
G04 Gerber Fmt 4.6, Leading zero omitted, Abs format (unit mm)*
G04 Created by KiCad (PCBNEW (5.1.10)-1) date 2021-12-02 22:39:20*
%MOMM*%
%LPD*%
G01*
G04 APERTURE LIST*
%ADD10R,1.060000X0.650000*%
%ADD11R,1.800000X0.900000*%
%ADD12R,2.550000X2.500000*%
%ADD13R,0.600000X1.450000*%
%ADD14R,0.300000X1.450000*%
%ADD15R,4.500000X2.000000*%
%ADD16R,0.900000X0.800000*%
%ADD17R,1.800000X1.100000*%
%ADD18R,1.800000X1.200000*%
%ADD19R,1.550000X0.600000*%
%ADD20R,0.900000X1.200000*%
%ADD21R,1.200000X0.900000*%
G04 APERTURE END LIST*
%TO.C,U14*%
G36*
G01*
X413580500Y-248153300D02*
X412255500Y-248153300D01*
G75*
G02*
X412180500Y-248078300I0J75000D01*
G01*
X412180500Y-247928300D01*
G75*
G02*
X412255500Y-247853300I75000J0D01*
G01*
X413580500Y-247853300D01*
G75*
G02*
X413655500Y-247928300I0J-75000D01*
G01*
X413655500Y-248078300D01*
G75*
G02*
X413580500Y-248153300I-75000J0D01*
G01*
G37*
G36*
G01*
X413580500Y-247653300D02*
X412255500Y-247653300D01*
G75*
G02*
X412180500Y-247578300I0J75000D01*
G01*
X412180500Y-247428300D01*
G75*
G02*
X412255500Y-247353300I75000J0D01*
G01*
X413580500Y-247353300D01*
G75*
G02*
X413655500Y-247428300I0J-75000D01*
G01*
X413655500Y-247578300D01*
G75*
G02*
X413580500Y-247653300I-75000J0D01*
G01*
G37*
G36*
G01*
X413580500Y-247153300D02*
X412255500Y-247153300D01*
G75*
G02*
X412180500Y-247078300I0J75000D01*
G01*
X412180500Y-246928300D01*
G75*
G02*
X412255500Y-246853300I75000J0D01*
G01*
X413580500Y-246853300D01*
G75*
G02*
X413655500Y-246928300I0J-75000D01*
G01*
X413655500Y-247078300D01*
G75*
G02*
X413580500Y-247153300I-75000J0D01*
G01*
G37*
G36*
G01*
X413580500Y-246653300D02*
X412255500Y-246653300D01*
G75*
G02*
X412180500Y-246578300I0J75000D01*
G01*
X412180500Y-246428300D01*
G75*
G02*
X412255500Y-246353300I75000J0D01*
G01*
X413580500Y-246353300D01*
G75*
G02*
X413655500Y-246428300I0J-75000D01*
G01*
X413655500Y-246578300D01*
G75*
G02*
X413580500Y-246653300I-75000J0D01*
G01*
G37*
G36*
G01*
X413580500Y-246153300D02*
X412255500Y-246153300D01*
G75*
G02*
X412180500Y-246078300I0J75000D01*
G01*
X412180500Y-245928300D01*
G75*
G02*
X412255500Y-245853300I75000J0D01*
G01*
X413580500Y-245853300D01*
G75*
G02*
X413655500Y-245928300I0J-75000D01*
G01*
X413655500Y-246078300D01*
G75*
G02*
X413580500Y-246153300I-75000J0D01*
G01*
G37*
G36*
G01*
X413580500Y-245653300D02*
X412255500Y-245653300D01*
G75*
G02*
X412180500Y-245578300I0J75000D01*
G01*
X412180500Y-245428300D01*
G75*
G02*
X412255500Y-245353300I75000J0D01*
G01*
X413580500Y-245353300D01*
G75*
G02*
X413655500Y-245428300I0J-75000D01*
G01*
X413655500Y-245578300D01*
G75*
G02*
X413580500Y-245653300I-75000J0D01*
G01*
G37*
G36*
G01*
X413580500Y-245153300D02*
X412255500Y-245153300D01*
G75*
G02*
X412180500Y-245078300I0J75000D01*
G01*
X412180500Y-244928300D01*
G75*
G02*
X412255500Y-244853300I75000J0D01*
G01*
X413580500Y-244853300D01*
G75*
G02*
X413655500Y-244928300I0J-75000D01*
G01*
X413655500Y-245078300D01*
G75*
G02*
X413580500Y-245153300I-75000J0D01*
G01*
G37*
G36*
G01*
X413580500Y-244653300D02*
X412255500Y-244653300D01*
G75*
G02*
X412180500Y-244578300I0J75000D01*
G01*
X412180500Y-244428300D01*
G75*
G02*
X412255500Y-244353300I75000J0D01*
G01*
X413580500Y-244353300D01*
G75*
G02*
X413655500Y-244428300I0J-75000D01*
G01*
X413655500Y-244578300D01*
G75*
G02*
X413580500Y-244653300I-75000J0D01*
G01*
G37*
G36*
G01*
X413580500Y-244153300D02*
X412255500Y-244153300D01*
G75*
G02*
X412180500Y-244078300I0J75000D01*
G01*
X412180500Y-243928300D01*
G75*
G02*
X412255500Y-243853300I75000J0D01*
G01*
X413580500Y-243853300D01*
G75*
G02*
X413655500Y-243928300I0J-75000D01*
G01*
X413655500Y-244078300D01*
G75*
G02*
X413580500Y-244153300I-75000J0D01*
G01*
G37*
G36*
G01*
X413580500Y-243653300D02*
X412255500Y-243653300D01*
G75*
G02*
X412180500Y-243578300I0J75000D01*
G01*
X412180500Y-243428300D01*
G75*
G02*
X412255500Y-243353300I75000J0D01*
G01*
X413580500Y-243353300D01*
G75*
G02*
X413655500Y-243428300I0J-75000D01*
G01*
X413655500Y-243578300D01*
G75*
G02*
X413580500Y-243653300I-75000J0D01*
G01*
G37*
G36*
G01*
X413580500Y-243153300D02*
X412255500Y-243153300D01*
G75*
G02*
X412180500Y-243078300I0J75000D01*
G01*
X412180500Y-242928300D01*
G75*
G02*
X412255500Y-242853300I75000J0D01*
G01*
X413580500Y-242853300D01*
G75*
G02*
X413655500Y-242928300I0J-75000D01*
G01*
X413655500Y-243078300D01*
G75*
G02*
X413580500Y-243153300I-75000J0D01*
G01*
G37*
G36*
G01*
X413580500Y-242653300D02*
X412255500Y-242653300D01*
G75*
G02*
X412180500Y-242578300I0J75000D01*
G01*
X412180500Y-242428300D01*
G75*
G02*
X412255500Y-242353300I75000J0D01*
G01*
X413580500Y-242353300D01*
G75*
G02*
X413655500Y-242428300I0J-75000D01*
G01*
X413655500Y-242578300D01*
G75*
G02*
X413580500Y-242653300I-75000J0D01*
G01*
G37*
G36*
G01*
X411580500Y-241828300D02*
X411430500Y-241828300D01*
G75*
G02*
X411355500Y-241753300I0J75000D01*
G01*
X411355500Y-240428300D01*
G75*
G02*
X411430500Y-240353300I75000J0D01*
G01*
X411580500Y-240353300D01*
G75*
G02*
X411655500Y-240428300I0J-75000D01*
G01*
X411655500Y-241753300D01*
G75*
G02*
X411580500Y-241828300I-75000J0D01*
G01*
G37*
G36*
G01*
X411080500Y-241828300D02*
X410930500Y-241828300D01*
G75*
G02*
X410855500Y-241753300I0J75000D01*
G01*
X410855500Y-240428300D01*
G75*
G02*
X410930500Y-240353300I75000J0D01*
G01*
X411080500Y-240353300D01*
G75*
G02*
X411155500Y-240428300I0J-75000D01*
G01*
X411155500Y-241753300D01*
G75*
G02*
X411080500Y-241828300I-75000J0D01*
G01*
G37*
G36*
G01*
X410580500Y-241828300D02*
X410430500Y-241828300D01*
G75*
G02*
X410355500Y-241753300I0J75000D01*
G01*
X410355500Y-240428300D01*
G75*
G02*
X410430500Y-240353300I75000J0D01*
G01*
X410580500Y-240353300D01*
G75*
G02*
X410655500Y-240428300I0J-75000D01*
G01*
X410655500Y-241753300D01*
G75*
G02*
X410580500Y-241828300I-75000J0D01*
G01*
G37*
G36*
G01*
X410080500Y-241828300D02*
X409930500Y-241828300D01*
G75*
G02*
X409855500Y-241753300I0J75000D01*
G01*
X409855500Y-240428300D01*
G75*
G02*
X409930500Y-240353300I75000J0D01*
G01*
X410080500Y-240353300D01*
G75*
G02*
X410155500Y-240428300I0J-75000D01*
G01*
X410155500Y-241753300D01*
G75*
G02*
X410080500Y-241828300I-75000J0D01*
G01*
G37*
G36*
G01*
X409580500Y-241828300D02*
X409430500Y-241828300D01*
G75*
G02*
X409355500Y-241753300I0J75000D01*
G01*
X409355500Y-240428300D01*
G75*
G02*
X409430500Y-240353300I75000J0D01*
G01*
X409580500Y-240353300D01*
G75*
G02*
X409655500Y-240428300I0J-75000D01*
G01*
X409655500Y-241753300D01*
G75*
G02*
X409580500Y-241828300I-75000J0D01*
G01*
G37*
G36*
G01*
X409080500Y-241828300D02*
X408930500Y-241828300D01*
G75*
G02*
X408855500Y-241753300I0J75000D01*
G01*
X408855500Y-240428300D01*
G75*
G02*
X408930500Y-240353300I75000J0D01*
G01*
X409080500Y-240353300D01*
G75*
G02*
X409155500Y-240428300I0J-75000D01*
G01*
X409155500Y-241753300D01*
G75*
G02*
X409080500Y-241828300I-75000J0D01*
G01*
G37*
G36*
G01*
X408580500Y-241828300D02*
X408430500Y-241828300D01*
G75*
G02*
X408355500Y-241753300I0J75000D01*
G01*
X408355500Y-240428300D01*
G75*
G02*
X408430500Y-240353300I75000J0D01*
G01*
X408580500Y-240353300D01*
G75*
G02*
X408655500Y-240428300I0J-75000D01*
G01*
X408655500Y-241753300D01*
G75*
G02*
X408580500Y-241828300I-75000J0D01*
G01*
G37*
G36*
G01*
X408080500Y-241828300D02*
X407930500Y-241828300D01*
G75*
G02*
X407855500Y-241753300I0J75000D01*
G01*
X407855500Y-240428300D01*
G75*
G02*
X407930500Y-240353300I75000J0D01*
G01*
X408080500Y-240353300D01*
G75*
G02*
X408155500Y-240428300I0J-75000D01*
G01*
X408155500Y-241753300D01*
G75*
G02*
X408080500Y-241828300I-75000J0D01*
G01*
G37*
G36*
G01*
X407580500Y-241828300D02*
X407430500Y-241828300D01*
G75*
G02*
X407355500Y-241753300I0J75000D01*
G01*
X407355500Y-240428300D01*
G75*
G02*
X407430500Y-240353300I75000J0D01*
G01*
X407580500Y-240353300D01*
G75*
G02*
X407655500Y-240428300I0J-75000D01*
G01*
X407655500Y-241753300D01*
G75*
G02*
X407580500Y-241828300I-75000J0D01*
G01*
G37*
G36*
G01*
X407080500Y-241828300D02*
X406930500Y-241828300D01*
G75*
G02*
X406855500Y-241753300I0J75000D01*
G01*
X406855500Y-240428300D01*
G75*
G02*
X406930500Y-240353300I75000J0D01*
G01*
X407080500Y-240353300D01*
G75*
G02*
X407155500Y-240428300I0J-75000D01*
G01*
X407155500Y-241753300D01*
G75*
G02*
X407080500Y-241828300I-75000J0D01*
G01*
G37*
G36*
G01*
X406580500Y-241828300D02*
X406430500Y-241828300D01*
G75*
G02*
X406355500Y-241753300I0J75000D01*
G01*
X406355500Y-240428300D01*
G75*
G02*
X406430500Y-240353300I75000J0D01*
G01*
X406580500Y-240353300D01*
G75*
G02*
X406655500Y-240428300I0J-75000D01*
G01*
X406655500Y-241753300D01*
G75*
G02*
X406580500Y-241828300I-75000J0D01*
G01*
G37*
G36*
G01*
X406080500Y-241828300D02*
X405930500Y-241828300D01*
G75*
G02*
X405855500Y-241753300I0J75000D01*
G01*
X405855500Y-240428300D01*
G75*
G02*
X405930500Y-240353300I75000J0D01*
G01*
X406080500Y-240353300D01*
G75*
G02*
X406155500Y-240428300I0J-75000D01*
G01*
X406155500Y-241753300D01*
G75*
G02*
X406080500Y-241828300I-75000J0D01*
G01*
G37*
G36*
G01*
X405255500Y-242653300D02*
X403930500Y-242653300D01*
G75*
G02*
X403855500Y-242578300I0J75000D01*
G01*
X403855500Y-242428300D01*
G75*
G02*
X403930500Y-242353300I75000J0D01*
G01*
X405255500Y-242353300D01*
G75*
G02*
X405330500Y-242428300I0J-75000D01*
G01*
X405330500Y-242578300D01*
G75*
G02*
X405255500Y-242653300I-75000J0D01*
G01*
G37*
G36*
G01*
X405255500Y-243153300D02*
X403930500Y-243153300D01*
G75*
G02*
X403855500Y-243078300I0J75000D01*
G01*
X403855500Y-242928300D01*
G75*
G02*
X403930500Y-242853300I75000J0D01*
G01*
X405255500Y-242853300D01*
G75*
G02*
X405330500Y-242928300I0J-75000D01*
G01*
X405330500Y-243078300D01*
G75*
G02*
X405255500Y-243153300I-75000J0D01*
G01*
G37*
G36*
G01*
X405255500Y-243653300D02*
X403930500Y-243653300D01*
G75*
G02*
X403855500Y-243578300I0J75000D01*
G01*
X403855500Y-243428300D01*
G75*
G02*
X403930500Y-243353300I75000J0D01*
G01*
X405255500Y-243353300D01*
G75*
G02*
X405330500Y-243428300I0J-75000D01*
G01*
X405330500Y-243578300D01*
G75*
G02*
X405255500Y-243653300I-75000J0D01*
G01*
G37*
G36*
G01*
X405255500Y-244153300D02*
X403930500Y-244153300D01*
G75*
G02*
X403855500Y-244078300I0J75000D01*
G01*
X403855500Y-243928300D01*
G75*
G02*
X403930500Y-243853300I75000J0D01*
G01*
X405255500Y-243853300D01*
G75*
G02*
X405330500Y-243928300I0J-75000D01*
G01*
X405330500Y-244078300D01*
G75*
G02*
X405255500Y-244153300I-75000J0D01*
G01*
G37*
G36*
G01*
X405255500Y-244653300D02*
X403930500Y-244653300D01*
G75*
G02*
X403855500Y-244578300I0J75000D01*
G01*
X403855500Y-244428300D01*
G75*
G02*
X403930500Y-244353300I75000J0D01*
G01*
X405255500Y-244353300D01*
G75*
G02*
X405330500Y-244428300I0J-75000D01*
G01*
X405330500Y-244578300D01*
G75*
G02*
X405255500Y-244653300I-75000J0D01*
G01*
G37*
G36*
G01*
X405255500Y-245153300D02*
X403930500Y-245153300D01*
G75*
G02*
X403855500Y-245078300I0J75000D01*
G01*
X403855500Y-244928300D01*
G75*
G02*
X403930500Y-244853300I75000J0D01*
G01*
X405255500Y-244853300D01*
G75*
G02*
X405330500Y-244928300I0J-75000D01*
G01*
X405330500Y-245078300D01*
G75*
G02*
X405255500Y-245153300I-75000J0D01*
G01*
G37*
G36*
G01*
X405255500Y-245653300D02*
X403930500Y-245653300D01*
G75*
G02*
X403855500Y-245578300I0J75000D01*
G01*
X403855500Y-245428300D01*
G75*
G02*
X403930500Y-245353300I75000J0D01*
G01*
X405255500Y-245353300D01*
G75*
G02*
X405330500Y-245428300I0J-75000D01*
G01*
X405330500Y-245578300D01*
G75*
G02*
X405255500Y-245653300I-75000J0D01*
G01*
G37*
G36*
G01*
X405255500Y-246153300D02*
X403930500Y-246153300D01*
G75*
G02*
X403855500Y-246078300I0J75000D01*
G01*
X403855500Y-245928300D01*
G75*
G02*
X403930500Y-245853300I75000J0D01*
G01*
X405255500Y-245853300D01*
G75*
G02*
X405330500Y-245928300I0J-75000D01*
G01*
X405330500Y-246078300D01*
G75*
G02*
X405255500Y-246153300I-75000J0D01*
G01*
G37*
G36*
G01*
X405255500Y-246653300D02*
X403930500Y-246653300D01*
G75*
G02*
X403855500Y-246578300I0J75000D01*
G01*
X403855500Y-246428300D01*
G75*
G02*
X403930500Y-246353300I75000J0D01*
G01*
X405255500Y-246353300D01*
G75*
G02*
X405330500Y-246428300I0J-75000D01*
G01*
X405330500Y-246578300D01*
G75*
G02*
X405255500Y-246653300I-75000J0D01*
G01*
G37*
G36*
G01*
X405255500Y-247153300D02*
X403930500Y-247153300D01*
G75*
G02*
X403855500Y-247078300I0J75000D01*
G01*
X403855500Y-246928300D01*
G75*
G02*
X403930500Y-246853300I75000J0D01*
G01*
X405255500Y-246853300D01*
G75*
G02*
X405330500Y-246928300I0J-75000D01*
G01*
X405330500Y-247078300D01*
G75*
G02*
X405255500Y-247153300I-75000J0D01*
G01*
G37*
G36*
G01*
X405255500Y-247653300D02*
X403930500Y-247653300D01*
G75*
G02*
X403855500Y-247578300I0J75000D01*
G01*
X403855500Y-247428300D01*
G75*
G02*
X403930500Y-247353300I75000J0D01*
G01*
X405255500Y-247353300D01*
G75*
G02*
X405330500Y-247428300I0J-75000D01*
G01*
X405330500Y-247578300D01*
G75*
G02*
X405255500Y-247653300I-75000J0D01*
G01*
G37*
G36*
G01*
X405255500Y-248153300D02*
X403930500Y-248153300D01*
G75*
G02*
X403855500Y-248078300I0J75000D01*
G01*
X403855500Y-247928300D01*
G75*
G02*
X403930500Y-247853300I75000J0D01*
G01*
X405255500Y-247853300D01*
G75*
G02*
X405330500Y-247928300I0J-75000D01*
G01*
X405330500Y-248078300D01*
G75*
G02*
X405255500Y-248153300I-75000J0D01*
G01*
G37*
G36*
G01*
X406080500Y-250153300D02*
X405930500Y-250153300D01*
G75*
G02*
X405855500Y-250078300I0J75000D01*
G01*
X405855500Y-248753300D01*
G75*
G02*
X405930500Y-248678300I75000J0D01*
G01*
X406080500Y-248678300D01*
G75*
G02*
X406155500Y-248753300I0J-75000D01*
G01*
X406155500Y-250078300D01*
G75*
G02*
X406080500Y-250153300I-75000J0D01*
G01*
G37*
G36*
G01*
X406580500Y-250153300D02*
X406430500Y-250153300D01*
G75*
G02*
X406355500Y-250078300I0J75000D01*
G01*
X406355500Y-248753300D01*
G75*
G02*
X406430500Y-248678300I75000J0D01*
G01*
X406580500Y-248678300D01*
G75*
G02*
X406655500Y-248753300I0J-75000D01*
G01*
X406655500Y-250078300D01*
G75*
G02*
X406580500Y-250153300I-75000J0D01*
G01*
G37*
G36*
G01*
X407080500Y-250153300D02*
X406930500Y-250153300D01*
G75*
G02*
X406855500Y-250078300I0J75000D01*
G01*
X406855500Y-248753300D01*
G75*
G02*
X406930500Y-248678300I75000J0D01*
G01*
X407080500Y-248678300D01*
G75*
G02*
X407155500Y-248753300I0J-75000D01*
G01*
X407155500Y-250078300D01*
G75*
G02*
X407080500Y-250153300I-75000J0D01*
G01*
G37*
G36*
G01*
X407580500Y-250153300D02*
X407430500Y-250153300D01*
G75*
G02*
X407355500Y-250078300I0J75000D01*
G01*
X407355500Y-248753300D01*
G75*
G02*
X407430500Y-248678300I75000J0D01*
G01*
X407580500Y-248678300D01*
G75*
G02*
X407655500Y-248753300I0J-75000D01*
G01*
X407655500Y-250078300D01*
G75*
G02*
X407580500Y-250153300I-75000J0D01*
G01*
G37*
G36*
G01*
X408080500Y-250153300D02*
X407930500Y-250153300D01*
G75*
G02*
X407855500Y-250078300I0J75000D01*
G01*
X407855500Y-248753300D01*
G75*
G02*
X407930500Y-248678300I75000J0D01*
G01*
X408080500Y-248678300D01*
G75*
G02*
X408155500Y-248753300I0J-75000D01*
G01*
X408155500Y-250078300D01*
G75*
G02*
X408080500Y-250153300I-75000J0D01*
G01*
G37*
G36*
G01*
X408580500Y-250153300D02*
X408430500Y-250153300D01*
G75*
G02*
X408355500Y-250078300I0J75000D01*
G01*
X408355500Y-248753300D01*
G75*
G02*
X408430500Y-248678300I75000J0D01*
G01*
X408580500Y-248678300D01*
G75*
G02*
X408655500Y-248753300I0J-75000D01*
G01*
X408655500Y-250078300D01*
G75*
G02*
X408580500Y-250153300I-75000J0D01*
G01*
G37*
G36*
G01*
X409080500Y-250153300D02*
X408930500Y-250153300D01*
G75*
G02*
X408855500Y-250078300I0J75000D01*
G01*
X408855500Y-248753300D01*
G75*
G02*
X408930500Y-248678300I75000J0D01*
G01*
X409080500Y-248678300D01*
G75*
G02*
X409155500Y-248753300I0J-75000D01*
G01*
X409155500Y-250078300D01*
G75*
G02*
X409080500Y-250153300I-75000J0D01*
G01*
G37*
G36*
G01*
X409580500Y-250153300D02*
X409430500Y-250153300D01*
G75*
G02*
X409355500Y-250078300I0J75000D01*
G01*
X409355500Y-248753300D01*
G75*
G02*
X409430500Y-248678300I75000J0D01*
G01*
X409580500Y-248678300D01*
G75*
G02*
X409655500Y-248753300I0J-75000D01*
G01*
X409655500Y-250078300D01*
G75*
G02*
X409580500Y-250153300I-75000J0D01*
G01*
G37*
G36*
G01*
X410080500Y-250153300D02*
X409930500Y-250153300D01*
G75*
G02*
X409855500Y-250078300I0J75000D01*
G01*
X409855500Y-248753300D01*
G75*
G02*
X409930500Y-248678300I75000J0D01*
G01*
X410080500Y-248678300D01*
G75*
G02*
X410155500Y-248753300I0J-75000D01*
G01*
X410155500Y-250078300D01*
G75*
G02*
X410080500Y-250153300I-75000J0D01*
G01*
G37*
G36*
G01*
X410580500Y-250153300D02*
X410430500Y-250153300D01*
G75*
G02*
X410355500Y-250078300I0J75000D01*
G01*
X410355500Y-248753300D01*
G75*
G02*
X410430500Y-248678300I75000J0D01*
G01*
X410580500Y-248678300D01*
G75*
G02*
X410655500Y-248753300I0J-75000D01*
G01*
X410655500Y-250078300D01*
G75*
G02*
X410580500Y-250153300I-75000J0D01*
G01*
G37*
G36*
G01*
X411080500Y-250153300D02*
X410930500Y-250153300D01*
G75*
G02*
X410855500Y-250078300I0J75000D01*
G01*
X410855500Y-248753300D01*
G75*
G02*
X410930500Y-248678300I75000J0D01*
G01*
X411080500Y-248678300D01*
G75*
G02*
X411155500Y-248753300I0J-75000D01*
G01*
X411155500Y-250078300D01*
G75*
G02*
X411080500Y-250153300I-75000J0D01*
G01*
G37*
G36*
G01*
X411580500Y-250153300D02*
X411430500Y-250153300D01*
G75*
G02*
X411355500Y-250078300I0J75000D01*
G01*
X411355500Y-248753300D01*
G75*
G02*
X411430500Y-248678300I75000J0D01*
G01*
X411580500Y-248678300D01*
G75*
G02*
X411655500Y-248753300I0J-75000D01*
G01*
X411655500Y-250078300D01*
G75*
G02*
X411580500Y-250153300I-75000J0D01*
G01*
G37*
%TD*%
%TO.C,R2*%
G36*
G01*
X392431499Y-254384000D02*
X393331501Y-254384000D01*
G75*
G02*
X393581500Y-254633999I0J-249999D01*
G01*
X393581500Y-255159001D01*
G75*
G02*
X393331501Y-255409000I-249999J0D01*
G01*
X392431499Y-255409000D01*
G75*
G02*
X392181500Y-255159001I0J249999D01*
G01*
X392181500Y-254633999D01*
G75*
G02*
X392431499Y-254384000I249999J0D01*
G01*
G37*
G36*
G01*
X392431499Y-252559000D02*
X393331501Y-252559000D01*
G75*
G02*
X393581500Y-252808999I0J-249999D01*
G01*
X393581500Y-253334001D01*
G75*
G02*
X393331501Y-253584000I-249999J0D01*
G01*
X392431499Y-253584000D01*
G75*
G02*
X392181500Y-253334001I0J249999D01*
G01*
X392181500Y-252808999D01*
G75*
G02*
X392431499Y-252559000I249999J0D01*
G01*
G37*
%TD*%
%TO.C,D1*%
G36*
G01*
X395718850Y-253534000D02*
X394806350Y-253534000D01*
G75*
G02*
X394562600Y-253290250I0J243750D01*
G01*
X394562600Y-252802750D01*
G75*
G02*
X394806350Y-252559000I243750J0D01*
G01*
X395718850Y-252559000D01*
G75*
G02*
X395962600Y-252802750I0J-243750D01*
G01*
X395962600Y-253290250D01*
G75*
G02*
X395718850Y-253534000I-243750J0D01*
G01*
G37*
G36*
G01*
X395718850Y-255409000D02*
X394806350Y-255409000D01*
G75*
G02*
X394562600Y-255165250I0J243750D01*
G01*
X394562600Y-254677750D01*
G75*
G02*
X394806350Y-254434000I243750J0D01*
G01*
X395718850Y-254434000D01*
G75*
G02*
X395962600Y-254677750I0J-243750D01*
G01*
X395962600Y-255165250D01*
G75*
G02*
X395718850Y-255409000I-243750J0D01*
G01*
G37*
%TD*%
%TO.C,R13*%
G36*
G01*
X303587100Y-159877398D02*
X303587100Y-160777402D01*
G75*
G02*
X303337102Y-161027400I-249998J0D01*
G01*
X302812098Y-161027400D01*
G75*
G02*
X302562100Y-160777402I0J249998D01*
G01*
X302562100Y-159877398D01*
G75*
G02*
X302812098Y-159627400I249998J0D01*
G01*
X303337102Y-159627400D01*
G75*
G02*
X303587100Y-159877398I0J-249998D01*
G01*
G37*
G36*
G01*
X305412100Y-159877398D02*
X305412100Y-160777402D01*
G75*
G02*
X305162102Y-161027400I-249998J0D01*
G01*
X304637098Y-161027400D01*
G75*
G02*
X304387100Y-160777402I0J249998D01*
G01*
X304387100Y-159877398D01*
G75*
G02*
X304637098Y-159627400I249998J0D01*
G01*
X305162102Y-159627400D01*
G75*
G02*
X305412100Y-159877398I0J-249998D01*
G01*
G37*
%TD*%
%TO.C,R8*%
G36*
G01*
X306014500Y-174270302D02*
X306014500Y-173370298D01*
G75*
G02*
X306264498Y-173120300I249998J0D01*
G01*
X306789502Y-173120300D01*
G75*
G02*
X307039500Y-173370298I0J-249998D01*
G01*
X307039500Y-174270302D01*
G75*
G02*
X306789502Y-174520300I-249998J0D01*
G01*
X306264498Y-174520300D01*
G75*
G02*
X306014500Y-174270302I0J249998D01*
G01*
G37*
G36*
G01*
X304189500Y-174270302D02*
X304189500Y-173370298D01*
G75*
G02*
X304439498Y-173120300I249998J0D01*
G01*
X304964502Y-173120300D01*
G75*
G02*
X305214500Y-173370298I0J-249998D01*
G01*
X305214500Y-174270302D01*
G75*
G02*
X304964502Y-174520300I-249998J0D01*
G01*
X304439498Y-174520300D01*
G75*
G02*
X304189500Y-174270302I0J249998D01*
G01*
G37*
%TD*%
%TO.C,D2*%
G36*
G01*
X305124500Y-170982950D02*
X305124500Y-171895450D01*
G75*
G02*
X304880750Y-172139200I-243750J0D01*
G01*
X304393250Y-172139200D01*
G75*
G02*
X304149500Y-171895450I0J243750D01*
G01*
X304149500Y-170982950D01*
G75*
G02*
X304393250Y-170739200I243750J0D01*
G01*
X304880750Y-170739200D01*
G75*
G02*
X305124500Y-170982950I0J-243750D01*
G01*
G37*
G36*
G01*
X306999500Y-170982950D02*
X306999500Y-171895450D01*
G75*
G02*
X306755750Y-172139200I-243750J0D01*
G01*
X306268250Y-172139200D01*
G75*
G02*
X306024500Y-171895450I0J243750D01*
G01*
X306024500Y-170982950D01*
G75*
G02*
X306268250Y-170739200I243750J0D01*
G01*
X306755750Y-170739200D01*
G75*
G02*
X306999500Y-170982950I0J-243750D01*
G01*
G37*
%TD*%
D10*
%TO.C,U1*%
X306855600Y-161121100D03*
X306855600Y-160171100D03*
X306855600Y-162071100D03*
X309055600Y-162071100D03*
X309055600Y-161121100D03*
X309055600Y-160171100D03*
%TD*%
%TO.C,C13*%
G36*
G01*
X425741900Y-232210400D02*
X426691900Y-232210400D01*
G75*
G02*
X426941900Y-232460400I0J-250000D01*
G01*
X426941900Y-232960400D01*
G75*
G02*
X426691900Y-233210400I-250000J0D01*
G01*
X425741900Y-233210400D01*
G75*
G02*
X425491900Y-232960400I0J250000D01*
G01*
X425491900Y-232460400D01*
G75*
G02*
X425741900Y-232210400I250000J0D01*
G01*
G37*
G36*
G01*
X425741900Y-230310400D02*
X426691900Y-230310400D01*
G75*
G02*
X426941900Y-230560400I0J-250000D01*
G01*
X426941900Y-231060400D01*
G75*
G02*
X426691900Y-231310400I-250000J0D01*
G01*
X425741900Y-231310400D01*
G75*
G02*
X425491900Y-231060400I0J250000D01*
G01*
X425491900Y-230560400D01*
G75*
G02*
X425741900Y-230310400I250000J0D01*
G01*
G37*
%TD*%
D11*
%TO.C,MX83*%
X236741500Y-278832800D03*
X236741500Y-277332800D03*
X231541500Y-278832800D03*
X231541500Y-277332800D03*
D12*
X240156500Y-267952800D03*
X226731500Y-270492800D03*
%TD*%
%TO.C,MX29*%
X362454200Y-194297600D03*
X375879200Y-191757600D03*
D11*
X367264200Y-201137600D03*
X367264200Y-202637600D03*
X372464200Y-201137600D03*
X372464200Y-202637600D03*
%TD*%
D13*
%TO.C,USB1*%
X311180600Y-156116900D03*
X304730600Y-156116900D03*
X310405600Y-156116900D03*
X305505600Y-156116900D03*
D14*
X306205600Y-156116900D03*
X309705600Y-156116900D03*
X306705600Y-156116900D03*
X309205600Y-156116900D03*
X307205600Y-156116900D03*
X308705600Y-156116900D03*
X308205600Y-156116900D03*
X307705600Y-156116900D03*
%TD*%
%TO.C,R12*%
G36*
G01*
X312324100Y-160777402D02*
X312324100Y-159877398D01*
G75*
G02*
X312574098Y-159627400I249998J0D01*
G01*
X313099102Y-159627400D01*
G75*
G02*
X313349100Y-159877398I0J-249998D01*
G01*
X313349100Y-160777402D01*
G75*
G02*
X313099102Y-161027400I-249998J0D01*
G01*
X312574098Y-161027400D01*
G75*
G02*
X312324100Y-160777402I0J249998D01*
G01*
G37*
G36*
G01*
X310499100Y-160777402D02*
X310499100Y-159877398D01*
G75*
G02*
X310749098Y-159627400I249998J0D01*
G01*
X311274102Y-159627400D01*
G75*
G02*
X311524100Y-159877398I0J-249998D01*
G01*
X311524100Y-160777402D01*
G75*
G02*
X311274102Y-161027400I-249998J0D01*
G01*
X310749098Y-161027400D01*
G75*
G02*
X310499100Y-160777402I0J249998D01*
G01*
G37*
%TD*%
%TO.C,FB5*%
G36*
G01*
X315267600Y-159946150D02*
X315267600Y-160708650D01*
G75*
G02*
X315048850Y-160927400I-218750J0D01*
G01*
X314611350Y-160927400D01*
G75*
G02*
X314392600Y-160708650I0J218750D01*
G01*
X314392600Y-159946150D01*
G75*
G02*
X314611350Y-159727400I218750J0D01*
G01*
X315048850Y-159727400D01*
G75*
G02*
X315267600Y-159946150I0J-218750D01*
G01*
G37*
G36*
G01*
X317392600Y-159946150D02*
X317392600Y-160708650D01*
G75*
G02*
X317173850Y-160927400I-218750J0D01*
G01*
X316736350Y-160927400D01*
G75*
G02*
X316517600Y-160708650I0J218750D01*
G01*
X316517600Y-159946150D01*
G75*
G02*
X316736350Y-159727400I218750J0D01*
G01*
X317173850Y-159727400D01*
G75*
G02*
X317392600Y-159946150I0J-218750D01*
G01*
G37*
%TD*%
%TO.C,C1*%
G36*
G01*
X281657200Y-177932499D02*
X281657200Y-179232501D01*
G75*
G02*
X281407201Y-179482500I-249999J0D01*
G01*
X280757199Y-179482500D01*
G75*
G02*
X280507200Y-179232501I0J249999D01*
G01*
X280507200Y-177932499D01*
G75*
G02*
X280757199Y-177682500I249999J0D01*
G01*
X281407201Y-177682500D01*
G75*
G02*
X281657200Y-177932499I0J-249999D01*
G01*
G37*
G36*
G01*
X284607200Y-177932499D02*
X284607200Y-179232501D01*
G75*
G02*
X284357201Y-179482500I-249999J0D01*
G01*
X283707199Y-179482500D01*
G75*
G02*
X283457200Y-179232501I0J249999D01*
G01*
X283457200Y-177932499D01*
G75*
G02*
X283707199Y-177682500I249999J0D01*
G01*
X284357201Y-177682500D01*
G75*
G02*
X284607200Y-177932499I0J-249999D01*
G01*
G37*
%TD*%
%TO.C,F1*%
G36*
G01*
X291269200Y-179207500D02*
X291269200Y-177957500D01*
G75*
G02*
X291519200Y-177707500I250000J0D01*
G01*
X292269200Y-177707500D01*
G75*
G02*
X292519200Y-177957500I0J-250000D01*
G01*
X292519200Y-179207500D01*
G75*
G02*
X292269200Y-179457500I-250000J0D01*
G01*
X291519200Y-179457500D01*
G75*
G02*
X291269200Y-179207500I0J250000D01*
G01*
G37*
G36*
G01*
X288469200Y-179207500D02*
X288469200Y-177957500D01*
G75*
G02*
X288719200Y-177707500I250000J0D01*
G01*
X289469200Y-177707500D01*
G75*
G02*
X289719200Y-177957500I0J-250000D01*
G01*
X289719200Y-179207500D01*
G75*
G02*
X289469200Y-179457500I-250000J0D01*
G01*
X288719200Y-179457500D01*
G75*
G02*
X288469200Y-179207500I0J250000D01*
G01*
G37*
%TD*%
%TO.C,R3*%
G36*
G01*
X409496048Y-234541500D02*
X410396052Y-234541500D01*
G75*
G02*
X410646050Y-234791498I0J-249998D01*
G01*
X410646050Y-235316502D01*
G75*
G02*
X410396052Y-235566500I-249998J0D01*
G01*
X409496048Y-235566500D01*
G75*
G02*
X409246050Y-235316502I0J249998D01*
G01*
X409246050Y-234791498D01*
G75*
G02*
X409496048Y-234541500I249998J0D01*
G01*
G37*
G36*
G01*
X409496048Y-232716500D02*
X410396052Y-232716500D01*
G75*
G02*
X410646050Y-232966498I0J-249998D01*
G01*
X410646050Y-233491502D01*
G75*
G02*
X410396052Y-233741500I-249998J0D01*
G01*
X409496048Y-233741500D01*
G75*
G02*
X409246050Y-233491502I0J249998D01*
G01*
X409246050Y-232966498D01*
G75*
G02*
X409496048Y-232716500I249998J0D01*
G01*
G37*
%TD*%
D15*
%TO.C,Y2*%
X405299200Y-261127300D03*
X413799200Y-261127300D03*
%TD*%
D10*
%TO.C,U13*%
X401124800Y-233985200D03*
X401124800Y-234935200D03*
X401124800Y-235885200D03*
X398924800Y-235885200D03*
X398924800Y-233985200D03*
%TD*%
D16*
%TO.C,U12*%
X410136600Y-230173000D03*
X412136600Y-231123000D03*
X412136600Y-229223000D03*
%TD*%
D17*
%TO.C,SW2*%
X431053900Y-237053700D03*
X437253900Y-240753700D03*
X431053900Y-240753700D03*
X437253900Y-237053700D03*
%TD*%
%TO.C,SW1*%
X431053900Y-228323000D03*
X437253900Y-232023000D03*
X431053900Y-232023000D03*
X437253900Y-228323000D03*
%TD*%
%TO.C,R64*%
G36*
G01*
X415555102Y-227391900D02*
X414655098Y-227391900D01*
G75*
G02*
X414405100Y-227141902I0J249998D01*
G01*
X414405100Y-226616898D01*
G75*
G02*
X414655098Y-226366900I249998J0D01*
G01*
X415555102Y-226366900D01*
G75*
G02*
X415805100Y-226616898I0J-249998D01*
G01*
X415805100Y-227141902D01*
G75*
G02*
X415555102Y-227391900I-249998J0D01*
G01*
G37*
G36*
G01*
X415555102Y-229216900D02*
X414655098Y-229216900D01*
G75*
G02*
X414405100Y-228966902I0J249998D01*
G01*
X414405100Y-228441898D01*
G75*
G02*
X414655098Y-228191900I249998J0D01*
G01*
X415555102Y-228191900D01*
G75*
G02*
X415805100Y-228441898I0J-249998D01*
G01*
X415805100Y-228966902D01*
G75*
G02*
X415555102Y-229216900I-249998J0D01*
G01*
G37*
%TD*%
%TO.C,R58*%
G36*
G01*
X414258248Y-234541500D02*
X415158252Y-234541500D01*
G75*
G02*
X415408250Y-234791498I0J-249998D01*
G01*
X415408250Y-235316502D01*
G75*
G02*
X415158252Y-235566500I-249998J0D01*
G01*
X414258248Y-235566500D01*
G75*
G02*
X414008250Y-235316502I0J249998D01*
G01*
X414008250Y-234791498D01*
G75*
G02*
X414258248Y-234541500I249998J0D01*
G01*
G37*
G36*
G01*
X414258248Y-232716500D02*
X415158252Y-232716500D01*
G75*
G02*
X415408250Y-232966498I0J-249998D01*
G01*
X415408250Y-233491502D01*
G75*
G02*
X415158252Y-233741500I-249998J0D01*
G01*
X414258248Y-233741500D01*
G75*
G02*
X414008250Y-233491502I0J249998D01*
G01*
X414008250Y-232966498D01*
G75*
G02*
X414258248Y-232716500I249998J0D01*
G01*
G37*
%TD*%
%TO.C,R27*%
G36*
G01*
X398781098Y-241684800D02*
X399681102Y-241684800D01*
G75*
G02*
X399931100Y-241934798I0J-249998D01*
G01*
X399931100Y-242459802D01*
G75*
G02*
X399681102Y-242709800I-249998J0D01*
G01*
X398781098Y-242709800D01*
G75*
G02*
X398531100Y-242459802I0J249998D01*
G01*
X398531100Y-241934798D01*
G75*
G02*
X398781098Y-241684800I249998J0D01*
G01*
G37*
G36*
G01*
X398781098Y-239859800D02*
X399681102Y-239859800D01*
G75*
G02*
X399931100Y-240109798I0J-249998D01*
G01*
X399931100Y-240634802D01*
G75*
G02*
X399681102Y-240884800I-249998J0D01*
G01*
X398781098Y-240884800D01*
G75*
G02*
X398531100Y-240634802I0J249998D01*
G01*
X398531100Y-240109798D01*
G75*
G02*
X398781098Y-239859800I249998J0D01*
G01*
G37*
%TD*%
%TO.C,R25*%
G36*
G01*
X429048002Y-239297400D02*
X428147998Y-239297400D01*
G75*
G02*
X427898000Y-239047402I0J249998D01*
G01*
X427898000Y-238522398D01*
G75*
G02*
X428147998Y-238272400I249998J0D01*
G01*
X429048002Y-238272400D01*
G75*
G02*
X429298000Y-238522398I0J-249998D01*
G01*
X429298000Y-239047402D01*
G75*
G02*
X429048002Y-239297400I-249998J0D01*
G01*
G37*
G36*
G01*
X429048002Y-241122400D02*
X428147998Y-241122400D01*
G75*
G02*
X427898000Y-240872402I0J249998D01*
G01*
X427898000Y-240347398D01*
G75*
G02*
X428147998Y-240097400I249998J0D01*
G01*
X429048002Y-240097400D01*
G75*
G02*
X429298000Y-240347398I0J-249998D01*
G01*
X429298000Y-240872402D01*
G75*
G02*
X429048002Y-241122400I-249998J0D01*
G01*
G37*
%TD*%
%TO.C,R24*%
G36*
G01*
X440159802Y-228979300D02*
X439259798Y-228979300D01*
G75*
G02*
X439009800Y-228729302I0J249998D01*
G01*
X439009800Y-228204298D01*
G75*
G02*
X439259798Y-227954300I249998J0D01*
G01*
X440159802Y-227954300D01*
G75*
G02*
X440409800Y-228204298I0J-249998D01*
G01*
X440409800Y-228729302D01*
G75*
G02*
X440159802Y-228979300I-249998J0D01*
G01*
G37*
G36*
G01*
X440159802Y-230804300D02*
X439259798Y-230804300D01*
G75*
G02*
X439009800Y-230554302I0J249998D01*
G01*
X439009800Y-230029298D01*
G75*
G02*
X439259798Y-229779300I249998J0D01*
G01*
X440159802Y-229779300D01*
G75*
G02*
X440409800Y-230029298I0J-249998D01*
G01*
X440409800Y-230554302D01*
G75*
G02*
X440159802Y-230804300I-249998J0D01*
G01*
G37*
%TD*%
%TO.C,R22*%
G36*
G01*
X429048002Y-231360400D02*
X428147998Y-231360400D01*
G75*
G02*
X427898000Y-231110402I0J249998D01*
G01*
X427898000Y-230585398D01*
G75*
G02*
X428147998Y-230335400I249998J0D01*
G01*
X429048002Y-230335400D01*
G75*
G02*
X429298000Y-230585398I0J-249998D01*
G01*
X429298000Y-231110402D01*
G75*
G02*
X429048002Y-231360400I-249998J0D01*
G01*
G37*
G36*
G01*
X429048002Y-233185400D02*
X428147998Y-233185400D01*
G75*
G02*
X427898000Y-232935402I0J249998D01*
G01*
X427898000Y-232410398D01*
G75*
G02*
X428147998Y-232160400I249998J0D01*
G01*
X429048002Y-232160400D01*
G75*
G02*
X429298000Y-232410398I0J-249998D01*
G01*
X429298000Y-232935402D01*
G75*
G02*
X429048002Y-233185400I-249998J0D01*
G01*
G37*
%TD*%
%TO.C,R19*%
G36*
G01*
X440159802Y-237591200D02*
X439259798Y-237591200D01*
G75*
G02*
X439009800Y-237341202I0J249998D01*
G01*
X439009800Y-236816198D01*
G75*
G02*
X439259798Y-236566200I249998J0D01*
G01*
X440159802Y-236566200D01*
G75*
G02*
X440409800Y-236816198I0J-249998D01*
G01*
X440409800Y-237341202D01*
G75*
G02*
X440159802Y-237591200I-249998J0D01*
G01*
G37*
G36*
G01*
X440159802Y-239416200D02*
X439259798Y-239416200D01*
G75*
G02*
X439009800Y-239166202I0J249998D01*
G01*
X439009800Y-238641198D01*
G75*
G02*
X439259798Y-238391200I249998J0D01*
G01*
X440159802Y-238391200D01*
G75*
G02*
X440409800Y-238641198I0J-249998D01*
G01*
X440409800Y-239166202D01*
G75*
G02*
X440159802Y-239416200I-249998J0D01*
G01*
G37*
%TD*%
D18*
%TO.C,J2*%
X397750000Y-224991900D03*
X397750000Y-230591900D03*
D19*
X401625000Y-229291900D03*
X401625000Y-228291900D03*
X401625000Y-226291900D03*
X401625000Y-227291900D03*
%TD*%
%TO.C,FB15*%
G36*
G01*
X403368300Y-231379150D02*
X403368300Y-232141650D01*
G75*
G02*
X403149550Y-232360400I-218750J0D01*
G01*
X402712050Y-232360400D01*
G75*
G02*
X402493300Y-232141650I0J218750D01*
G01*
X402493300Y-231379150D01*
G75*
G02*
X402712050Y-231160400I218750J0D01*
G01*
X403149550Y-231160400D01*
G75*
G02*
X403368300Y-231379150I0J-218750D01*
G01*
G37*
G36*
G01*
X405493300Y-231379150D02*
X405493300Y-232141650D01*
G75*
G02*
X405274550Y-232360400I-218750J0D01*
G01*
X404837050Y-232360400D01*
G75*
G02*
X404618300Y-232141650I0J218750D01*
G01*
X404618300Y-231379150D01*
G75*
G02*
X404837050Y-231160400I218750J0D01*
G01*
X405274550Y-231160400D01*
G75*
G02*
X405493300Y-231379150I0J-218750D01*
G01*
G37*
%TD*%
%TO.C,F8*%
G36*
G01*
X407793100Y-230985400D02*
X406543100Y-230985400D01*
G75*
G02*
X406293100Y-230735400I0J250000D01*
G01*
X406293100Y-229985400D01*
G75*
G02*
X406543100Y-229735400I250000J0D01*
G01*
X407793100Y-229735400D01*
G75*
G02*
X408043100Y-229985400I0J-250000D01*
G01*
X408043100Y-230735400D01*
G75*
G02*
X407793100Y-230985400I-250000J0D01*
G01*
G37*
G36*
G01*
X407793100Y-233785400D02*
X406543100Y-233785400D01*
G75*
G02*
X406293100Y-233535400I0J250000D01*
G01*
X406293100Y-232785400D01*
G75*
G02*
X406543100Y-232535400I250000J0D01*
G01*
X407793100Y-232535400D01*
G75*
G02*
X408043100Y-232785400I0J-250000D01*
G01*
X408043100Y-233535400D01*
G75*
G02*
X407793100Y-233785400I-250000J0D01*
G01*
G37*
%TD*%
%TO.C,D11*%
G36*
G01*
X417029950Y-228241900D02*
X417942450Y-228241900D01*
G75*
G02*
X418186200Y-228485650I0J-243750D01*
G01*
X418186200Y-228973150D01*
G75*
G02*
X417942450Y-229216900I-243750J0D01*
G01*
X417029950Y-229216900D01*
G75*
G02*
X416786200Y-228973150I0J243750D01*
G01*
X416786200Y-228485650D01*
G75*
G02*
X417029950Y-228241900I243750J0D01*
G01*
G37*
G36*
G01*
X417029950Y-226366900D02*
X417942450Y-226366900D01*
G75*
G02*
X418186200Y-226610650I0J-243750D01*
G01*
X418186200Y-227098150D01*
G75*
G02*
X417942450Y-227341900I-243750J0D01*
G01*
X417029950Y-227341900D01*
G75*
G02*
X416786200Y-227098150I0J243750D01*
G01*
X416786200Y-226610650D01*
G75*
G02*
X417029950Y-226366900I243750J0D01*
G01*
G37*
%TD*%
%TO.C,C44*%
G36*
G01*
X415555100Y-231441700D02*
X415555100Y-230491700D01*
G75*
G02*
X415805100Y-230241700I250000J0D01*
G01*
X416305100Y-230241700D01*
G75*
G02*
X416555100Y-230491700I0J-250000D01*
G01*
X416555100Y-231441700D01*
G75*
G02*
X416305100Y-231691700I-250000J0D01*
G01*
X415805100Y-231691700D01*
G75*
G02*
X415555100Y-231441700I0J250000D01*
G01*
G37*
G36*
G01*
X413655100Y-231441700D02*
X413655100Y-230491700D01*
G75*
G02*
X413905100Y-230241700I250000J0D01*
G01*
X414405100Y-230241700D01*
G75*
G02*
X414655100Y-230491700I0J-250000D01*
G01*
X414655100Y-231441700D01*
G75*
G02*
X414405100Y-231691700I-250000J0D01*
G01*
X413905100Y-231691700D01*
G75*
G02*
X413655100Y-231441700I0J250000D01*
G01*
G37*
%TD*%
%TO.C,C43*%
G36*
G01*
X404312000Y-235385200D02*
X405262000Y-235385200D01*
G75*
G02*
X405512000Y-235635200I0J-250000D01*
G01*
X405512000Y-236135200D01*
G75*
G02*
X405262000Y-236385200I-250000J0D01*
G01*
X404312000Y-236385200D01*
G75*
G02*
X404062000Y-236135200I0J250000D01*
G01*
X404062000Y-235635200D01*
G75*
G02*
X404312000Y-235385200I250000J0D01*
G01*
G37*
G36*
G01*
X404312000Y-233485200D02*
X405262000Y-233485200D01*
G75*
G02*
X405512000Y-233735200I0J-250000D01*
G01*
X405512000Y-234235200D01*
G75*
G02*
X405262000Y-234485200I-250000J0D01*
G01*
X404312000Y-234485200D01*
G75*
G02*
X404062000Y-234235200I0J250000D01*
G01*
X404062000Y-233735200D01*
G75*
G02*
X404312000Y-233485200I250000J0D01*
G01*
G37*
%TD*%
%TO.C,C24*%
G36*
G01*
X402803400Y-253640300D02*
X403753400Y-253640300D01*
G75*
G02*
X404003400Y-253890300I0J-250000D01*
G01*
X404003400Y-254390300D01*
G75*
G02*
X403753400Y-254640300I-250000J0D01*
G01*
X402803400Y-254640300D01*
G75*
G02*
X402553400Y-254390300I0J250000D01*
G01*
X402553400Y-253890300D01*
G75*
G02*
X402803400Y-253640300I250000J0D01*
G01*
G37*
G36*
G01*
X402803400Y-251740300D02*
X403753400Y-251740300D01*
G75*
G02*
X404003400Y-251990300I0J-250000D01*
G01*
X404003400Y-252490300D01*
G75*
G02*
X403753400Y-252740300I-250000J0D01*
G01*
X402803400Y-252740300D01*
G75*
G02*
X402553400Y-252490300I0J250000D01*
G01*
X402553400Y-251990300D01*
G75*
G02*
X402803400Y-251740300I250000J0D01*
G01*
G37*
%TD*%
%TO.C,C23*%
G36*
G01*
X406055700Y-252740300D02*
X405105700Y-252740300D01*
G75*
G02*
X404855700Y-252490300I0J250000D01*
G01*
X404855700Y-251990300D01*
G75*
G02*
X405105700Y-251740300I250000J0D01*
G01*
X406055700Y-251740300D01*
G75*
G02*
X406305700Y-251990300I0J-250000D01*
G01*
X406305700Y-252490300D01*
G75*
G02*
X406055700Y-252740300I-250000J0D01*
G01*
G37*
G36*
G01*
X406055700Y-254640300D02*
X405105700Y-254640300D01*
G75*
G02*
X404855700Y-254390300I0J250000D01*
G01*
X404855700Y-253890300D01*
G75*
G02*
X405105700Y-253640300I250000J0D01*
G01*
X406055700Y-253640300D01*
G75*
G02*
X406305700Y-253890300I0J-250000D01*
G01*
X406305700Y-254390300D01*
G75*
G02*
X406055700Y-254640300I-250000J0D01*
G01*
G37*
%TD*%
%TO.C,C22*%
G36*
G01*
X416552873Y-248445778D02*
X415881122Y-247774027D01*
G75*
G02*
X415881122Y-247420473I176777J176777D01*
G01*
X416234675Y-247066920D01*
G75*
G02*
X416588229Y-247066920I176777J-176777D01*
G01*
X417259980Y-247738671D01*
G75*
G02*
X417259980Y-248092225I-176777J-176777D01*
G01*
X416906427Y-248445778D01*
G75*
G02*
X416552873Y-248445778I-176777J176777D01*
G01*
G37*
G36*
G01*
X415209371Y-249789280D02*
X414537620Y-249117529D01*
G75*
G02*
X414537620Y-248763975I176777J176777D01*
G01*
X414891173Y-248410422D01*
G75*
G02*
X415244727Y-248410422I176777J-176777D01*
G01*
X415916478Y-249082173D01*
G75*
G02*
X415916478Y-249435727I-176777J-176777D01*
G01*
X415562925Y-249789280D01*
G75*
G02*
X415209371Y-249789280I-176777J176777D01*
G01*
G37*
%TD*%
%TO.C,C21*%
G36*
G01*
X416373800Y-251946600D02*
X415423800Y-251946600D01*
G75*
G02*
X415173800Y-251696600I0J250000D01*
G01*
X415173800Y-251196600D01*
G75*
G02*
X415423800Y-250946600I250000J0D01*
G01*
X416373800Y-250946600D01*
G75*
G02*
X416623800Y-251196600I0J-250000D01*
G01*
X416623800Y-251696600D01*
G75*
G02*
X416373800Y-251946600I-250000J0D01*
G01*
G37*
G36*
G01*
X416373800Y-253846600D02*
X415423800Y-253846600D01*
G75*
G02*
X415173800Y-253596600I0J250000D01*
G01*
X415173800Y-253096600D01*
G75*
G02*
X415423800Y-252846600I250000J0D01*
G01*
X416373800Y-252846600D01*
G75*
G02*
X416623800Y-253096600I0J-250000D01*
G01*
X416623800Y-253596600D01*
G75*
G02*
X416373800Y-253846600I-250000J0D01*
G01*
G37*
%TD*%
%TO.C,C20*%
G36*
G01*
X414451027Y-238371576D02*
X413779276Y-239043327D01*
G75*
G02*
X413425722Y-239043327I-176777J176777D01*
G01*
X413072169Y-238689774D01*
G75*
G02*
X413072169Y-238336220I176777J176777D01*
G01*
X413743920Y-237664469D01*
G75*
G02*
X414097474Y-237664469I176777J-176777D01*
G01*
X414451027Y-238018022D01*
G75*
G02*
X414451027Y-238371576I-176777J-176777D01*
G01*
G37*
G36*
G01*
X415794529Y-239715078D02*
X415122778Y-240386829D01*
G75*
G02*
X414769224Y-240386829I-176777J176777D01*
G01*
X414415671Y-240033276D01*
G75*
G02*
X414415671Y-239679722I176777J176777D01*
G01*
X415087422Y-239007971D01*
G75*
G02*
X415440976Y-239007971I176777J-176777D01*
G01*
X415794529Y-239361524D01*
G75*
G02*
X415794529Y-239715078I-176777J-176777D01*
G01*
G37*
%TD*%
%TO.C,C19*%
G36*
G01*
X401137200Y-241734800D02*
X402087200Y-241734800D01*
G75*
G02*
X402337200Y-241984800I0J-250000D01*
G01*
X402337200Y-242484800D01*
G75*
G02*
X402087200Y-242734800I-250000J0D01*
G01*
X401137200Y-242734800D01*
G75*
G02*
X400887200Y-242484800I0J250000D01*
G01*
X400887200Y-241984800D01*
G75*
G02*
X401137200Y-241734800I250000J0D01*
G01*
G37*
G36*
G01*
X401137200Y-239834800D02*
X402087200Y-239834800D01*
G75*
G02*
X402337200Y-240084800I0J-250000D01*
G01*
X402337200Y-240584800D01*
G75*
G02*
X402087200Y-240834800I-250000J0D01*
G01*
X401137200Y-240834800D01*
G75*
G02*
X400887200Y-240584800I0J250000D01*
G01*
X400887200Y-240084800D01*
G75*
G02*
X401137200Y-239834800I250000J0D01*
G01*
G37*
%TD*%
%TO.C,C18*%
G36*
G01*
X413992700Y-251946600D02*
X413042700Y-251946600D01*
G75*
G02*
X412792700Y-251696600I0J250000D01*
G01*
X412792700Y-251196600D01*
G75*
G02*
X413042700Y-250946600I250000J0D01*
G01*
X413992700Y-250946600D01*
G75*
G02*
X414242700Y-251196600I0J-250000D01*
G01*
X414242700Y-251696600D01*
G75*
G02*
X413992700Y-251946600I-250000J0D01*
G01*
G37*
G36*
G01*
X413992700Y-253846600D02*
X413042700Y-253846600D01*
G75*
G02*
X412792700Y-253596600I0J250000D01*
G01*
X412792700Y-253096600D01*
G75*
G02*
X413042700Y-252846600I250000J0D01*
G01*
X413992700Y-252846600D01*
G75*
G02*
X414242700Y-253096600I0J-250000D01*
G01*
X414242700Y-253596600D01*
G75*
G02*
X413992700Y-253846600I-250000J0D01*
G01*
G37*
%TD*%
%TO.C,C7*%
G36*
G01*
X404180700Y-256683800D02*
X404180700Y-257633800D01*
G75*
G02*
X403930700Y-257883800I-250000J0D01*
G01*
X403430700Y-257883800D01*
G75*
G02*
X403180700Y-257633800I0J250000D01*
G01*
X403180700Y-256683800D01*
G75*
G02*
X403430700Y-256433800I250000J0D01*
G01*
X403930700Y-256433800D01*
G75*
G02*
X404180700Y-256683800I0J-250000D01*
G01*
G37*
G36*
G01*
X406080700Y-256683800D02*
X406080700Y-257633800D01*
G75*
G02*
X405830700Y-257883800I-250000J0D01*
G01*
X405330700Y-257883800D01*
G75*
G02*
X405080700Y-257633800I0J250000D01*
G01*
X405080700Y-256683800D01*
G75*
G02*
X405330700Y-256433800I250000J0D01*
G01*
X405830700Y-256433800D01*
G75*
G02*
X406080700Y-256683800I0J-250000D01*
G01*
G37*
%TD*%
%TO.C,C3*%
G36*
G01*
X414761400Y-257633800D02*
X414761400Y-256683800D01*
G75*
G02*
X415011400Y-256433800I250000J0D01*
G01*
X415511400Y-256433800D01*
G75*
G02*
X415761400Y-256683800I0J-250000D01*
G01*
X415761400Y-257633800D01*
G75*
G02*
X415511400Y-257883800I-250000J0D01*
G01*
X415011400Y-257883800D01*
G75*
G02*
X414761400Y-257633800I0J250000D01*
G01*
G37*
G36*
G01*
X412861400Y-257633800D02*
X412861400Y-256683800D01*
G75*
G02*
X413111400Y-256433800I250000J0D01*
G01*
X413611400Y-256433800D01*
G75*
G02*
X413861400Y-256683800I0J-250000D01*
G01*
X413861400Y-257633800D01*
G75*
G02*
X413611400Y-257883800I-250000J0D01*
G01*
X413111400Y-257883800D01*
G75*
G02*
X412861400Y-257633800I0J250000D01*
G01*
G37*
%TD*%
D12*
%TO.C,MX27*%
X314832200Y-194297600D03*
X328257200Y-191757600D03*
D11*
X319642200Y-201137600D03*
X319642200Y-202637600D03*
X324842200Y-201137600D03*
X324842200Y-202637600D03*
%TD*%
D12*
%TO.C,MX28*%
X333881000Y-194297600D03*
X347306000Y-191757600D03*
D11*
X338691000Y-201137600D03*
X338691000Y-202637600D03*
X343891000Y-201137600D03*
X343891000Y-202637600D03*
%TD*%
%TO.C,R38*%
G36*
G01*
X449627900Y-238453698D02*
X449627900Y-239353702D01*
G75*
G02*
X449377902Y-239603700I-249998J0D01*
G01*
X448852898Y-239603700D01*
G75*
G02*
X448602900Y-239353702I0J249998D01*
G01*
X448602900Y-238453698D01*
G75*
G02*
X448852898Y-238203700I249998J0D01*
G01*
X449377902Y-238203700D01*
G75*
G02*
X449627900Y-238453698I0J-249998D01*
G01*
G37*
G36*
G01*
X451452900Y-238453698D02*
X451452900Y-239353702D01*
G75*
G02*
X451202902Y-239603700I-249998J0D01*
G01*
X450677898Y-239603700D01*
G75*
G02*
X450427900Y-239353702I0J249998D01*
G01*
X450427900Y-238453698D01*
G75*
G02*
X450677898Y-238203700I249998J0D01*
G01*
X451202902Y-238203700D01*
G75*
G02*
X451452900Y-238453698I0J-249998D01*
G01*
G37*
%TD*%
%TO.C,R4*%
G36*
G01*
X411877148Y-234541500D02*
X412777152Y-234541500D01*
G75*
G02*
X413027150Y-234791498I0J-249998D01*
G01*
X413027150Y-235316502D01*
G75*
G02*
X412777152Y-235566500I-249998J0D01*
G01*
X411877148Y-235566500D01*
G75*
G02*
X411627150Y-235316502I0J249998D01*
G01*
X411627150Y-234791498D01*
G75*
G02*
X411877148Y-234541500I249998J0D01*
G01*
G37*
G36*
G01*
X411877148Y-232716500D02*
X412777152Y-232716500D01*
G75*
G02*
X413027150Y-232966498I0J-249998D01*
G01*
X413027150Y-233491502D01*
G75*
G02*
X412777152Y-233741500I-249998J0D01*
G01*
X411877148Y-233741500D01*
G75*
G02*
X411627150Y-233491502I0J249998D01*
G01*
X411627150Y-232966498D01*
G75*
G02*
X411877148Y-232716500I249998J0D01*
G01*
G37*
%TD*%
D12*
%TO.C,MX87*%
X369597500Y-270492800D03*
X383022500Y-267952800D03*
D11*
X374407500Y-277332800D03*
X374407500Y-278832800D03*
X379607500Y-277332800D03*
X379607500Y-278832800D03*
%TD*%
D12*
%TO.C,MX86*%
X345786500Y-270492800D03*
X359211500Y-267952800D03*
D11*
X350596500Y-277332800D03*
X350596500Y-278832800D03*
X355796500Y-277332800D03*
X355796500Y-278832800D03*
%TD*%
D12*
%TO.C,MX85*%
X321975500Y-270492800D03*
X335400500Y-267952800D03*
D11*
X326785500Y-277332800D03*
X326785500Y-278832800D03*
X331985500Y-277332800D03*
X331985500Y-278832800D03*
%TD*%
D12*
%TO.C,MX84*%
X298164500Y-270492800D03*
X311589500Y-267952800D03*
D11*
X302974500Y-277332800D03*
X302974500Y-278832800D03*
X308174500Y-277332800D03*
X308174500Y-278832800D03*
%TD*%
D12*
%TO.C,MX82*%
X155298500Y-270492800D03*
X168723500Y-267952800D03*
D11*
X160108500Y-277332800D03*
X160108500Y-278832800D03*
X165308500Y-277332800D03*
X165308500Y-278832800D03*
%TD*%
D12*
%TO.C,MX81*%
X131487500Y-270492800D03*
X144912500Y-267952800D03*
D11*
X136297500Y-277332800D03*
X136297500Y-278832800D03*
X141497500Y-277332800D03*
X141497500Y-278832800D03*
%TD*%
D12*
%TO.C,MX80*%
X107676500Y-270492800D03*
X121101500Y-267952800D03*
D11*
X112486500Y-277332800D03*
X112486500Y-278832800D03*
X117686500Y-277332800D03*
X117686500Y-278832800D03*
%TD*%
D12*
%TO.C,MX53*%
X138572500Y-232395200D03*
X151997500Y-229855200D03*
D11*
X143382500Y-239235200D03*
X143382500Y-240735200D03*
X148582500Y-239235200D03*
X148582500Y-240735200D03*
%TD*%
D12*
%TO.C,MX90*%
X438649400Y-270492800D03*
X452074400Y-267952800D03*
D11*
X443459400Y-277332800D03*
X443459400Y-278832800D03*
X448659400Y-277332800D03*
X448659400Y-278832800D03*
%TD*%
D12*
%TO.C,MX89*%
X419600600Y-270492800D03*
X433025600Y-267952800D03*
D11*
X424410600Y-277332800D03*
X424410600Y-278832800D03*
X429610600Y-277332800D03*
X429610600Y-278832800D03*
%TD*%
D12*
%TO.C,MX88*%
X400551800Y-270492800D03*
X413976800Y-267952800D03*
D11*
X405361800Y-277332800D03*
X405361800Y-278832800D03*
X410561800Y-277332800D03*
X410561800Y-278832800D03*
%TD*%
D12*
%TO.C,MX79*%
X81484400Y-270492800D03*
X94909400Y-267952800D03*
D11*
X86294400Y-277332800D03*
X86294400Y-278832800D03*
X91494400Y-277332800D03*
X91494400Y-278832800D03*
%TD*%
D12*
%TO.C,MX78*%
X419600600Y-251444000D03*
X433025600Y-248904000D03*
D11*
X424410600Y-258284000D03*
X424410600Y-259784000D03*
X429610600Y-258284000D03*
X429610600Y-259784000D03*
%TD*%
D12*
%TO.C,MX77*%
X355310900Y-251444000D03*
X368735900Y-248904000D03*
D11*
X360120900Y-258284000D03*
X360120900Y-259784000D03*
X365320900Y-258284000D03*
X365320900Y-259784000D03*
%TD*%
D12*
%TO.C,MX76*%
X319594400Y-251444000D03*
X333019400Y-248904000D03*
D11*
X324404400Y-258284000D03*
X324404400Y-259784000D03*
X329604400Y-258284000D03*
X329604400Y-259784000D03*
%TD*%
D12*
%TO.C,MX75*%
X300545600Y-251444000D03*
X313970600Y-248904000D03*
D11*
X305355600Y-258284000D03*
X305355600Y-259784000D03*
X310555600Y-258284000D03*
X310555600Y-259784000D03*
%TD*%
D12*
%TO.C,MX74*%
X281496800Y-251444000D03*
X294921800Y-248904000D03*
D11*
X286306800Y-258284000D03*
X286306800Y-259784000D03*
X291506800Y-258284000D03*
X291506800Y-259784000D03*
%TD*%
D12*
%TO.C,MX73*%
X262448000Y-251444000D03*
X275873000Y-248904000D03*
D11*
X267258000Y-258284000D03*
X267258000Y-259784000D03*
X272458000Y-258284000D03*
X272458000Y-259784000D03*
%TD*%
D12*
%TO.C,MX72*%
X243399200Y-251444000D03*
X256824200Y-248904000D03*
D11*
X248209200Y-258284000D03*
X248209200Y-259784000D03*
X253409200Y-258284000D03*
X253409200Y-259784000D03*
%TD*%
D12*
%TO.C,MX71*%
X224350400Y-251444000D03*
X237775400Y-248904000D03*
D11*
X229160400Y-258284000D03*
X229160400Y-259784000D03*
X234360400Y-258284000D03*
X234360400Y-259784000D03*
%TD*%
D12*
%TO.C,MX70*%
X205301600Y-251444000D03*
X218726600Y-248904000D03*
D11*
X210111600Y-258284000D03*
X210111600Y-259784000D03*
X215311600Y-258284000D03*
X215311600Y-259784000D03*
%TD*%
D12*
%TO.C,MX69*%
X186252800Y-251444000D03*
X199677800Y-248904000D03*
D11*
X191062800Y-258284000D03*
X191062800Y-259784000D03*
X196262800Y-258284000D03*
X196262800Y-259784000D03*
%TD*%
D12*
%TO.C,MX68*%
X167204000Y-251444000D03*
X180629000Y-248904000D03*
D11*
X172014000Y-258284000D03*
X172014000Y-259784000D03*
X177214000Y-258284000D03*
X177214000Y-259784000D03*
%TD*%
D12*
%TO.C,MX67*%
X148155200Y-251444000D03*
X161580200Y-248904000D03*
D11*
X152965200Y-258284000D03*
X152965200Y-259784000D03*
X158165200Y-258284000D03*
X158165200Y-259784000D03*
%TD*%
D12*
%TO.C,MX66*%
X117200900Y-251444000D03*
X130625900Y-248904000D03*
D11*
X122010900Y-258284000D03*
X122010900Y-259784000D03*
X127210900Y-258284000D03*
X127210900Y-259784000D03*
%TD*%
D12*
%TO.C,MX65*%
X81484400Y-251444000D03*
X94909400Y-248904000D03*
D11*
X86294400Y-258284000D03*
X86294400Y-259784000D03*
X91494400Y-258284000D03*
X91494400Y-259784000D03*
%TD*%
D12*
%TO.C,MX64*%
X360073100Y-232395200D03*
X373498100Y-229855200D03*
D11*
X364883100Y-239235200D03*
X364883100Y-240735200D03*
X370083100Y-239235200D03*
X370083100Y-240735200D03*
%TD*%
D12*
%TO.C,MX63*%
X329118800Y-232395200D03*
X342543800Y-229855200D03*
D11*
X333928800Y-239235200D03*
X333928800Y-240735200D03*
X339128800Y-239235200D03*
X339128800Y-240735200D03*
%TD*%
D12*
%TO.C,MX62*%
X310070000Y-232395200D03*
X323495000Y-229855200D03*
D11*
X314880000Y-239235200D03*
X314880000Y-240735200D03*
X320080000Y-239235200D03*
X320080000Y-240735200D03*
%TD*%
D12*
%TO.C,MX61*%
X291021200Y-232395200D03*
X304446200Y-229855200D03*
D11*
X295831200Y-239235200D03*
X295831200Y-240735200D03*
X301031200Y-239235200D03*
X301031200Y-240735200D03*
%TD*%
D12*
%TO.C,MX60*%
X271972400Y-232395200D03*
X285397400Y-229855200D03*
D11*
X276782400Y-239235200D03*
X276782400Y-240735200D03*
X281982400Y-239235200D03*
X281982400Y-240735200D03*
%TD*%
D12*
%TO.C,MX59*%
X252923600Y-232395200D03*
X266348600Y-229855200D03*
D11*
X257733600Y-239235200D03*
X257733600Y-240735200D03*
X262933600Y-239235200D03*
X262933600Y-240735200D03*
%TD*%
D12*
%TO.C,MX58*%
X233874800Y-232395200D03*
X247299800Y-229855200D03*
D11*
X238684800Y-239235200D03*
X238684800Y-240735200D03*
X243884800Y-239235200D03*
X243884800Y-240735200D03*
%TD*%
D12*
%TO.C,MX57*%
X214826000Y-232395200D03*
X228251000Y-229855200D03*
D11*
X219636000Y-239235200D03*
X219636000Y-240735200D03*
X224836000Y-239235200D03*
X224836000Y-240735200D03*
%TD*%
D12*
%TO.C,MX56*%
X195777200Y-232395200D03*
X209202200Y-229855200D03*
D11*
X200587200Y-239235200D03*
X200587200Y-240735200D03*
X205787200Y-239235200D03*
X205787200Y-240735200D03*
%TD*%
D12*
%TO.C,MX55*%
X176728400Y-232395200D03*
X190153400Y-229855200D03*
D11*
X181538400Y-239235200D03*
X181538400Y-240735200D03*
X186738400Y-239235200D03*
X186738400Y-240735200D03*
%TD*%
D12*
%TO.C,MX54*%
X157679600Y-232395200D03*
X171104600Y-229855200D03*
D11*
X162489600Y-239235200D03*
X162489600Y-240735200D03*
X167689600Y-239235200D03*
X167689600Y-240735200D03*
%TD*%
D12*
%TO.C,MX52*%
X112438700Y-232395200D03*
X125863700Y-229855200D03*
D11*
X117248700Y-239235200D03*
X117248700Y-240735200D03*
X122448700Y-239235200D03*
X122448700Y-240735200D03*
%TD*%
D12*
%TO.C,MX51*%
X81484400Y-232395200D03*
X94909400Y-229855200D03*
D11*
X86294400Y-239235200D03*
X86294400Y-240735200D03*
X91494400Y-239235200D03*
X91494400Y-240735200D03*
%TD*%
D12*
%TO.C,MX50*%
X438649400Y-213346400D03*
X452074400Y-210806400D03*
D11*
X443459400Y-220186400D03*
X443459400Y-221686400D03*
X448659400Y-220186400D03*
X448659400Y-221686400D03*
%TD*%
D12*
%TO.C,MX49*%
X419600600Y-213346400D03*
X433025600Y-210806400D03*
D11*
X424410600Y-220186400D03*
X424410600Y-221686400D03*
X429610600Y-220186400D03*
X429610600Y-221686400D03*
%TD*%
D12*
%TO.C,MX48*%
X400551800Y-213346400D03*
X413976800Y-210806400D03*
D11*
X405361800Y-220186400D03*
X405361800Y-221686400D03*
X410561800Y-220186400D03*
X410561800Y-221686400D03*
%TD*%
D12*
%TO.C,MX47*%
X367216400Y-213346400D03*
X380641400Y-210806400D03*
D11*
X372026400Y-220186400D03*
X372026400Y-221686400D03*
X377226400Y-220186400D03*
X377226400Y-221686400D03*
%TD*%
D12*
%TO.C,MX46*%
X343405400Y-213346400D03*
X356830400Y-210806400D03*
D11*
X348215400Y-220186400D03*
X348215400Y-221686400D03*
X353415400Y-220186400D03*
X353415400Y-221686400D03*
%TD*%
D12*
%TO.C,MX45*%
X324356600Y-213346400D03*
X337781600Y-210806400D03*
D11*
X329166600Y-220186400D03*
X329166600Y-221686400D03*
X334366600Y-220186400D03*
X334366600Y-221686400D03*
%TD*%
D12*
%TO.C,MX44*%
X305307800Y-213346400D03*
X318732800Y-210806400D03*
D11*
X310117800Y-220186400D03*
X310117800Y-221686400D03*
X315317800Y-220186400D03*
X315317800Y-221686400D03*
%TD*%
D12*
%TO.C,MX43*%
X286259000Y-213346400D03*
X299684000Y-210806400D03*
D11*
X291069000Y-220186400D03*
X291069000Y-221686400D03*
X296269000Y-220186400D03*
X296269000Y-221686400D03*
%TD*%
D12*
%TO.C,MX42*%
X267210200Y-213346400D03*
X280635200Y-210806400D03*
D11*
X272020200Y-220186400D03*
X272020200Y-221686400D03*
X277220200Y-220186400D03*
X277220200Y-221686400D03*
%TD*%
D12*
%TO.C,MX41*%
X248161400Y-213346400D03*
X261586400Y-210806400D03*
D11*
X252971400Y-220186400D03*
X252971400Y-221686400D03*
X258171400Y-220186400D03*
X258171400Y-221686400D03*
%TD*%
D12*
%TO.C,MX40*%
X229112600Y-213346400D03*
X242537600Y-210806400D03*
D11*
X233922600Y-220186400D03*
X233922600Y-221686400D03*
X239122600Y-220186400D03*
X239122600Y-221686400D03*
%TD*%
D12*
%TO.C,MX39*%
X210063800Y-213346400D03*
X223488800Y-210806400D03*
D11*
X214873800Y-220186400D03*
X214873800Y-221686400D03*
X220073800Y-220186400D03*
X220073800Y-221686400D03*
%TD*%
D12*
%TO.C,MX38*%
X191015000Y-213346400D03*
X204440000Y-210806400D03*
D11*
X195825000Y-220186400D03*
X195825000Y-221686400D03*
X201025000Y-220186400D03*
X201025000Y-221686400D03*
%TD*%
D12*
%TO.C,MX37*%
X171966200Y-213346400D03*
X185391200Y-210806400D03*
D11*
X176776200Y-220186400D03*
X176776200Y-221686400D03*
X181976200Y-220186400D03*
X181976200Y-221686400D03*
%TD*%
D12*
%TO.C,MX36*%
X152917400Y-213346400D03*
X166342400Y-210806400D03*
D11*
X157727400Y-220186400D03*
X157727400Y-221686400D03*
X162927400Y-220186400D03*
X162927400Y-221686400D03*
%TD*%
D12*
%TO.C,MX35*%
X133868600Y-213346400D03*
X147293600Y-210806400D03*
D11*
X138678600Y-220186400D03*
X138678600Y-221686400D03*
X143878600Y-220186400D03*
X143878600Y-221686400D03*
%TD*%
D12*
%TO.C,MX34*%
X110057600Y-213346400D03*
X123482600Y-210806400D03*
D11*
X114867600Y-220186400D03*
X114867600Y-221686400D03*
X120067600Y-220186400D03*
X120067600Y-221686400D03*
%TD*%
D12*
%TO.C,MX33*%
X81484400Y-213346400D03*
X94909400Y-210806400D03*
D11*
X86294400Y-220186400D03*
X86294400Y-221686400D03*
X91494400Y-220186400D03*
X91494400Y-221686400D03*
%TD*%
D12*
%TO.C,MX32*%
X438649400Y-194297600D03*
X452074400Y-191757600D03*
D11*
X443459400Y-201137600D03*
X443459400Y-202637600D03*
X448659400Y-201137600D03*
X448659400Y-202637600D03*
%TD*%
D12*
%TO.C,MX31*%
X419600600Y-194297600D03*
X433025600Y-191757600D03*
D11*
X424410600Y-201137600D03*
X424410600Y-202637600D03*
X429610600Y-201137600D03*
X429610600Y-202637600D03*
%TD*%
D12*
%TO.C,MX30*%
X400551800Y-194297600D03*
X413976800Y-191757600D03*
D11*
X405361800Y-201137600D03*
X405361800Y-202637600D03*
X410561800Y-201137600D03*
X410561800Y-202637600D03*
%TD*%
D12*
%TO.C,MX26*%
X295783400Y-194297600D03*
X309208400Y-191757600D03*
D11*
X300593400Y-201137600D03*
X300593400Y-202637600D03*
X305793400Y-201137600D03*
X305793400Y-202637600D03*
%TD*%
D12*
%TO.C,MX25*%
X276734600Y-194297600D03*
X290159600Y-191757600D03*
D11*
X281544600Y-201137600D03*
X281544600Y-202637600D03*
X286744600Y-201137600D03*
X286744600Y-202637600D03*
%TD*%
D12*
%TO.C,MX24*%
X257685800Y-194297600D03*
X271110800Y-191757600D03*
D11*
X262495800Y-201137600D03*
X262495800Y-202637600D03*
X267695800Y-201137600D03*
X267695800Y-202637600D03*
%TD*%
D12*
%TO.C,MX23*%
X238637000Y-194297600D03*
X252062000Y-191757600D03*
D11*
X243447000Y-201137600D03*
X243447000Y-202637600D03*
X248647000Y-201137600D03*
X248647000Y-202637600D03*
%TD*%
D12*
%TO.C,MX22*%
X219588200Y-194297600D03*
X233013200Y-191757600D03*
D11*
X224398200Y-201137600D03*
X224398200Y-202637600D03*
X229598200Y-201137600D03*
X229598200Y-202637600D03*
%TD*%
D12*
%TO.C,MX21*%
X200539400Y-194297600D03*
X213964400Y-191757600D03*
D11*
X205349400Y-201137600D03*
X205349400Y-202637600D03*
X210549400Y-201137600D03*
X210549400Y-202637600D03*
%TD*%
D12*
%TO.C,MX20*%
X181490600Y-194297600D03*
X194915600Y-191757600D03*
D11*
X186300600Y-201137600D03*
X186300600Y-202637600D03*
X191500600Y-201137600D03*
X191500600Y-202637600D03*
%TD*%
D12*
%TO.C,MX19*%
X162441800Y-194297600D03*
X175866800Y-191757600D03*
D11*
X167251800Y-201137600D03*
X167251800Y-202637600D03*
X172451800Y-201137600D03*
X172451800Y-202637600D03*
%TD*%
D12*
%TO.C,MX18*%
X143393000Y-194297600D03*
X156818000Y-191757600D03*
D11*
X148203000Y-201137600D03*
X148203000Y-202637600D03*
X153403000Y-201137600D03*
X153403000Y-202637600D03*
%TD*%
D12*
%TO.C,MX17*%
X124344200Y-194297600D03*
X137769200Y-191757600D03*
D11*
X129154200Y-201137600D03*
X129154200Y-202637600D03*
X134354200Y-201137600D03*
X134354200Y-202637600D03*
%TD*%
D12*
%TO.C,MX16*%
X105295400Y-194297600D03*
X118720400Y-191757600D03*
D11*
X110105400Y-201137600D03*
X110105400Y-202637600D03*
X115305400Y-201137600D03*
X115305400Y-202637600D03*
%TD*%
D12*
%TO.C,MX15*%
X81484400Y-194297600D03*
X94909400Y-191757600D03*
D11*
X86294400Y-201137600D03*
X86294400Y-202637600D03*
X91494400Y-201137600D03*
X91494400Y-202637600D03*
%TD*%
D12*
%TO.C,MX14*%
X400551800Y-165724400D03*
X413976800Y-163184400D03*
D11*
X405361800Y-172564400D03*
X405361800Y-174064400D03*
X410561800Y-172564400D03*
X410561800Y-174064400D03*
%TD*%
D12*
%TO.C,MX13*%
X371978600Y-165724400D03*
X385403600Y-163184400D03*
D11*
X376788600Y-172564400D03*
X376788600Y-174064400D03*
X381988600Y-172564400D03*
X381988600Y-174064400D03*
%TD*%
D12*
%TO.C,MX12*%
X352929800Y-165724400D03*
X366354800Y-163184400D03*
D11*
X357739800Y-172564400D03*
X357739800Y-174064400D03*
X362939800Y-172564400D03*
X362939800Y-174064400D03*
%TD*%
D12*
%TO.C,MX11*%
X333881000Y-165724400D03*
X347306000Y-163184400D03*
D11*
X338691000Y-172564400D03*
X338691000Y-174064400D03*
X343891000Y-172564400D03*
X343891000Y-174064400D03*
%TD*%
D12*
%TO.C,MX10*%
X314832200Y-165724400D03*
X328257200Y-163184400D03*
D11*
X319642200Y-172564400D03*
X319642200Y-174064400D03*
X324842200Y-172564400D03*
X324842200Y-174064400D03*
%TD*%
D12*
%TO.C,MX9*%
X286259000Y-165724400D03*
X299684000Y-163184400D03*
D11*
X291069000Y-172564400D03*
X291069000Y-174064400D03*
X296269000Y-172564400D03*
X296269000Y-174064400D03*
%TD*%
D12*
%TO.C,MX8*%
X267210200Y-165724400D03*
X280635200Y-163184400D03*
D11*
X272020200Y-172564400D03*
X272020200Y-174064400D03*
X277220200Y-172564400D03*
X277220200Y-174064400D03*
%TD*%
D12*
%TO.C,MX7*%
X248161400Y-165724400D03*
X261586400Y-163184400D03*
D11*
X252971400Y-172564400D03*
X252971400Y-174064400D03*
X258171400Y-172564400D03*
X258171400Y-174064400D03*
%TD*%
D12*
%TO.C,MX6*%
X229112600Y-165724400D03*
X242537600Y-163184400D03*
D11*
X233922600Y-172564400D03*
X233922600Y-174064400D03*
X239122600Y-172564400D03*
X239122600Y-174064400D03*
%TD*%
D12*
%TO.C,MX5*%
X200539400Y-165724400D03*
X213964400Y-163184400D03*
D11*
X205349400Y-172564400D03*
X205349400Y-174064400D03*
X210549400Y-172564400D03*
X210549400Y-174064400D03*
%TD*%
D12*
%TO.C,MX4*%
X181490600Y-165724400D03*
X194915600Y-163184400D03*
D11*
X186300600Y-172564400D03*
X186300600Y-174064400D03*
X191500600Y-172564400D03*
X191500600Y-174064400D03*
%TD*%
D12*
%TO.C,MX3*%
X162441800Y-165724400D03*
X175866800Y-163184400D03*
D11*
X167251800Y-172564400D03*
X167251800Y-174064400D03*
X172451800Y-172564400D03*
X172451800Y-174064400D03*
%TD*%
D12*
%TO.C,MX2*%
X143393000Y-165724400D03*
X156818000Y-163184400D03*
D11*
X148203000Y-172564400D03*
X148203000Y-174064400D03*
X153403000Y-172564400D03*
X153403000Y-174064400D03*
%TD*%
D12*
%TO.C,MX1*%
X105295400Y-165724400D03*
X118720400Y-163184400D03*
D11*
X110105400Y-172564400D03*
X110105400Y-174064400D03*
X115305400Y-172564400D03*
X115305400Y-174064400D03*
%TD*%
D20*
%TO.C,D4*%
X440566100Y-176995100D03*
X437266100Y-176995100D03*
%TD*%
%TO.C,R39*%
G36*
G01*
X449627900Y-236072598D02*
X449627900Y-236972602D01*
G75*
G02*
X449377902Y-237222600I-249998J0D01*
G01*
X448852898Y-237222600D01*
G75*
G02*
X448602900Y-236972602I0J249998D01*
G01*
X448602900Y-236072598D01*
G75*
G02*
X448852898Y-235822600I249998J0D01*
G01*
X449377902Y-235822600D01*
G75*
G02*
X449627900Y-236072598I0J-249998D01*
G01*
G37*
G36*
G01*
X451452900Y-236072598D02*
X451452900Y-236972602D01*
G75*
G02*
X451202902Y-237222600I-249998J0D01*
G01*
X450677898Y-237222600D01*
G75*
G02*
X450427900Y-236972602I0J249998D01*
G01*
X450427900Y-236072598D01*
G75*
G02*
X450677898Y-235822600I249998J0D01*
G01*
X451202902Y-235822600D01*
G75*
G02*
X451452900Y-236072598I0J-249998D01*
G01*
G37*
%TD*%
D21*
%TO.C,KD15*%
X96831400Y-195125000D03*
X96831400Y-198425000D03*
%TD*%
%TO.C,KD33*%
X96831400Y-214173800D03*
X96831400Y-217473800D03*
%TD*%
%TO.C,KD51*%
X96831400Y-233285200D03*
X96831400Y-236585200D03*
%TD*%
%TO.C,KD65*%
X96831400Y-252334000D03*
X96831400Y-255634000D03*
%TD*%
%TO.C,KD80*%
X123023500Y-271382800D03*
X123023500Y-274682800D03*
%TD*%
%TO.C,KD1*%
X120642400Y-166614400D03*
X120642400Y-169914400D03*
%TD*%
%TO.C,KD16*%
X120642400Y-195187600D03*
X120642400Y-198487600D03*
%TD*%
%TO.C,KD34*%
X125404600Y-214236400D03*
X125404600Y-217536400D03*
%TD*%
%TO.C,KD52*%
X127785700Y-233285200D03*
X127785700Y-236585200D03*
%TD*%
%TO.C,KD79*%
X96831400Y-271320200D03*
X96831400Y-274620200D03*
%TD*%
%TO.C,KD2*%
X158740000Y-166614400D03*
X158740000Y-169914400D03*
%TD*%
%TO.C,KD18*%
X158740000Y-195187600D03*
X158740000Y-198487600D03*
%TD*%
%TO.C,KD36*%
X168264400Y-214236400D03*
X168264400Y-217536400D03*
%TD*%
%TO.C,KD54*%
X173026600Y-233285200D03*
X173026600Y-236585200D03*
%TD*%
%TO.C,KD67*%
X163502200Y-252334000D03*
X163502200Y-255634000D03*
%TD*%
%TO.C,KD82*%
X170645500Y-271382800D03*
X170645500Y-274682800D03*
%TD*%
%TO.C,KD17*%
X139691200Y-195187600D03*
X139691200Y-198487600D03*
%TD*%
%TO.C,KD35*%
X149215600Y-214236400D03*
X149215600Y-217536400D03*
%TD*%
%TO.C,KD53*%
X153977800Y-233285200D03*
X153977800Y-236585200D03*
%TD*%
%TO.C,KD66*%
X132547900Y-252334000D03*
X132547900Y-255634000D03*
%TD*%
%TO.C,KD81*%
X146834500Y-271382800D03*
X146834500Y-274682800D03*
%TD*%
%TO.C,KD3*%
X177788800Y-166614400D03*
X177788800Y-169914400D03*
%TD*%
%TO.C,KD19*%
X177788800Y-195187600D03*
X177788800Y-198487600D03*
%TD*%
%TO.C,KD37*%
X187313200Y-214236400D03*
X187313200Y-217536400D03*
%TD*%
%TO.C,KD55*%
X192075400Y-233285200D03*
X192075400Y-236585200D03*
%TD*%
%TO.C,KD68*%
X182551000Y-252334000D03*
X182551000Y-255634000D03*
%TD*%
%TO.C,KD70*%
X220648600Y-252334000D03*
X220648600Y-255634000D03*
%TD*%
%TO.C,KD4*%
X196837600Y-166614400D03*
X196837600Y-169914400D03*
%TD*%
%TO.C,KD20*%
X196837600Y-195187600D03*
X196837600Y-198487600D03*
%TD*%
%TO.C,KD38*%
X206362000Y-214236400D03*
X206362000Y-217536400D03*
%TD*%
%TO.C,KD56*%
X211124200Y-233285200D03*
X211124200Y-236585200D03*
%TD*%
%TO.C,KD69*%
X201599800Y-252334000D03*
X201599800Y-255634000D03*
%TD*%
%TO.C,KD5*%
X215886400Y-166614400D03*
X215886400Y-169914400D03*
%TD*%
%TO.C,KD21*%
X215886400Y-195187600D03*
X215886400Y-198487600D03*
%TD*%
%TO.C,KD39*%
X225410800Y-214236400D03*
X225410800Y-217536400D03*
%TD*%
%TO.C,KD57*%
X230173000Y-233285200D03*
X230173000Y-236585200D03*
%TD*%
%TO.C,KD71*%
X239697400Y-252334000D03*
X239697400Y-255634000D03*
%TD*%
%TO.C,KD83*%
X242078500Y-271382800D03*
X242078500Y-274682800D03*
%TD*%
%TO.C,KD6*%
X244459600Y-166614400D03*
X244459600Y-169914400D03*
%TD*%
%TO.C,KD22*%
X234935200Y-195187600D03*
X234935200Y-198487600D03*
%TD*%
%TO.C,KD40*%
X244459600Y-214236400D03*
X244459600Y-217536400D03*
%TD*%
%TO.C,KD58*%
X249221800Y-233285200D03*
X249221800Y-236585200D03*
%TD*%
%TO.C,KD72*%
X258746200Y-252334000D03*
X258746200Y-255634000D03*
%TD*%
%TO.C,KD7*%
X263508400Y-166614400D03*
X263508400Y-169914400D03*
%TD*%
%TO.C,KD23*%
X253984000Y-195187600D03*
X253984000Y-198487600D03*
%TD*%
%TO.C,KD41*%
X263508400Y-214236400D03*
X263508400Y-217536400D03*
%TD*%
%TO.C,KD59*%
X268270600Y-233285200D03*
X268270600Y-236585200D03*
%TD*%
%TO.C,KD73*%
X277795000Y-252334000D03*
X277795000Y-255634000D03*
%TD*%
%TO.C,KD8*%
X282557200Y-166614400D03*
X282557200Y-169914400D03*
%TD*%
%TO.C,KD24*%
X273032800Y-195187600D03*
X273032800Y-198487600D03*
%TD*%
%TO.C,KD42*%
X282557200Y-214236400D03*
X282557200Y-217536400D03*
%TD*%
%TO.C,KD60*%
X287319400Y-233285200D03*
X287319400Y-236585200D03*
%TD*%
%TO.C,KD74*%
X296843800Y-252334000D03*
X296843800Y-255634000D03*
%TD*%
%TO.C,KD9*%
X301606000Y-166614400D03*
X301606000Y-169914400D03*
%TD*%
%TO.C,KD25*%
X292081600Y-195187600D03*
X292081600Y-198487600D03*
%TD*%
%TO.C,KD43*%
X301606000Y-214236400D03*
X301606000Y-217536400D03*
%TD*%
%TO.C,KD61*%
X306368200Y-233285200D03*
X306368200Y-236585200D03*
%TD*%
%TO.C,KD75*%
X315892600Y-252334000D03*
X315892600Y-255634000D03*
%TD*%
%TO.C,KD84*%
X313511500Y-271382800D03*
X313511500Y-274682800D03*
%TD*%
%TO.C,KD10*%
X330179200Y-166614400D03*
X330179200Y-169914400D03*
%TD*%
%TO.C,KD26*%
X311130400Y-195187600D03*
X311130400Y-198487600D03*
%TD*%
%TO.C,KD44*%
X320654800Y-214236400D03*
X320654800Y-217536400D03*
%TD*%
%TO.C,KD62*%
X325417000Y-233285200D03*
X325417000Y-236585200D03*
%TD*%
%TO.C,KD76*%
X334941400Y-252334000D03*
X334941400Y-255634000D03*
%TD*%
%TO.C,KD11*%
X349228000Y-166614400D03*
X349228000Y-169914400D03*
%TD*%
%TO.C,KD27*%
X330179200Y-195187600D03*
X330179200Y-198487600D03*
%TD*%
%TO.C,KD45*%
X339703600Y-214236400D03*
X339703600Y-217536400D03*
%TD*%
%TO.C,KD63*%
X344465800Y-233285200D03*
X344465800Y-236585200D03*
%TD*%
%TO.C,KD85*%
X337322500Y-271382800D03*
X337322500Y-274682800D03*
%TD*%
%TO.C,KD86*%
X361133500Y-271382800D03*
X361133500Y-274682800D03*
%TD*%
%TO.C,KD12*%
X368276800Y-166614400D03*
X368276800Y-169914400D03*
%TD*%
%TO.C,KD28*%
X349228000Y-195187600D03*
X349228000Y-198487600D03*
%TD*%
%TO.C,KD46*%
X358752400Y-214236400D03*
X358752400Y-217536400D03*
%TD*%
%TO.C,KD87*%
X384944500Y-271382800D03*
X384944500Y-274682800D03*
%TD*%
%TO.C,KD13*%
X387325600Y-166614400D03*
X387325600Y-169914400D03*
%TD*%
%TO.C,KD29*%
X377801200Y-195187600D03*
X377801200Y-198487600D03*
%TD*%
%TO.C,KD47*%
X382563400Y-214236400D03*
X382563400Y-217536400D03*
%TD*%
%TO.C,KD64*%
X375420100Y-233285200D03*
X375420100Y-236585200D03*
%TD*%
%TO.C,KD77*%
X370657900Y-252334000D03*
X370657900Y-255634000D03*
%TD*%
%TO.C,KD88*%
X415898800Y-271382800D03*
X415898800Y-274682800D03*
%TD*%
%TO.C,KD14*%
X415898800Y-166614400D03*
X415898800Y-169914400D03*
%TD*%
%TO.C,KD30*%
X415898800Y-195187600D03*
X415898800Y-198487600D03*
%TD*%
%TO.C,KD48*%
X415898800Y-214236400D03*
X415898800Y-217536400D03*
%TD*%
%TO.C,KD31*%
X434947600Y-195187600D03*
X434947600Y-198487600D03*
%TD*%
%TO.C,KD49*%
X434947600Y-214236400D03*
X434947600Y-217536400D03*
%TD*%
%TO.C,KD78*%
X434947600Y-252334000D03*
X434947600Y-255634000D03*
%TD*%
%TO.C,KD89*%
X434947600Y-271382800D03*
X434947600Y-274682800D03*
%TD*%
%TO.C,KD32*%
X453996400Y-195187600D03*
X453996400Y-198487600D03*
%TD*%
%TO.C,KD50*%
X453996400Y-214236400D03*
X453996400Y-217536400D03*
%TD*%
%TO.C,KD90*%
X453996400Y-271382800D03*
X453996400Y-274682800D03*
%TD*%
%TO.C,D3*%
X96037700Y-176264000D03*
X96037700Y-172964000D03*
%TD*%
%TO.C,LC2*%
G36*
G01*
X156702600Y-174139000D02*
X156702600Y-175089000D01*
G75*
G02*
X156452600Y-175339000I-250000J0D01*
G01*
X155952600Y-175339000D01*
G75*
G02*
X155702600Y-175089000I0J250000D01*
G01*
X155702600Y-174139000D01*
G75*
G02*
X155952600Y-173889000I250000J0D01*
G01*
X156452600Y-173889000D01*
G75*
G02*
X156702600Y-174139000I0J-250000D01*
G01*
G37*
G36*
G01*
X158602600Y-174139000D02*
X158602600Y-175089000D01*
G75*
G02*
X158352600Y-175339000I-250000J0D01*
G01*
X157852600Y-175339000D01*
G75*
G02*
X157602600Y-175089000I0J250000D01*
G01*
X157602600Y-174139000D01*
G75*
G02*
X157852600Y-173889000I250000J0D01*
G01*
X158352600Y-173889000D01*
G75*
G02*
X158602600Y-174139000I0J-250000D01*
G01*
G37*
%TD*%
%TO.C,LC3*%
G36*
G01*
X175751400Y-174139000D02*
X175751400Y-175089000D01*
G75*
G02*
X175501400Y-175339000I-250000J0D01*
G01*
X175001400Y-175339000D01*
G75*
G02*
X174751400Y-175089000I0J250000D01*
G01*
X174751400Y-174139000D01*
G75*
G02*
X175001400Y-173889000I250000J0D01*
G01*
X175501400Y-173889000D01*
G75*
G02*
X175751400Y-174139000I0J-250000D01*
G01*
G37*
G36*
G01*
X177651400Y-174139000D02*
X177651400Y-175089000D01*
G75*
G02*
X177401400Y-175339000I-250000J0D01*
G01*
X176901400Y-175339000D01*
G75*
G02*
X176651400Y-175089000I0J250000D01*
G01*
X176651400Y-174139000D01*
G75*
G02*
X176901400Y-173889000I250000J0D01*
G01*
X177401400Y-173889000D01*
G75*
G02*
X177651400Y-174139000I0J-250000D01*
G01*
G37*
%TD*%
%TO.C,LC4*%
G36*
G01*
X194800200Y-174139000D02*
X194800200Y-175089000D01*
G75*
G02*
X194550200Y-175339000I-250000J0D01*
G01*
X194050200Y-175339000D01*
G75*
G02*
X193800200Y-175089000I0J250000D01*
G01*
X193800200Y-174139000D01*
G75*
G02*
X194050200Y-173889000I250000J0D01*
G01*
X194550200Y-173889000D01*
G75*
G02*
X194800200Y-174139000I0J-250000D01*
G01*
G37*
G36*
G01*
X196700200Y-174139000D02*
X196700200Y-175089000D01*
G75*
G02*
X196450200Y-175339000I-250000J0D01*
G01*
X195950200Y-175339000D01*
G75*
G02*
X195700200Y-175089000I0J250000D01*
G01*
X195700200Y-174139000D01*
G75*
G02*
X195950200Y-173889000I250000J0D01*
G01*
X196450200Y-173889000D01*
G75*
G02*
X196700200Y-174139000I0J-250000D01*
G01*
G37*
%TD*%
%TO.C,LC5*%
G36*
G01*
X213849000Y-174139000D02*
X213849000Y-175089000D01*
G75*
G02*
X213599000Y-175339000I-250000J0D01*
G01*
X213099000Y-175339000D01*
G75*
G02*
X212849000Y-175089000I0J250000D01*
G01*
X212849000Y-174139000D01*
G75*
G02*
X213099000Y-173889000I250000J0D01*
G01*
X213599000Y-173889000D01*
G75*
G02*
X213849000Y-174139000I0J-250000D01*
G01*
G37*
G36*
G01*
X215749000Y-174139000D02*
X215749000Y-175089000D01*
G75*
G02*
X215499000Y-175339000I-250000J0D01*
G01*
X214999000Y-175339000D01*
G75*
G02*
X214749000Y-175089000I0J250000D01*
G01*
X214749000Y-174139000D01*
G75*
G02*
X214999000Y-173889000I250000J0D01*
G01*
X215499000Y-173889000D01*
G75*
G02*
X215749000Y-174139000I0J-250000D01*
G01*
G37*
%TD*%
%TO.C,LC6*%
G36*
G01*
X242422200Y-174139000D02*
X242422200Y-175089000D01*
G75*
G02*
X242172200Y-175339000I-250000J0D01*
G01*
X241672200Y-175339000D01*
G75*
G02*
X241422200Y-175089000I0J250000D01*
G01*
X241422200Y-174139000D01*
G75*
G02*
X241672200Y-173889000I250000J0D01*
G01*
X242172200Y-173889000D01*
G75*
G02*
X242422200Y-174139000I0J-250000D01*
G01*
G37*
G36*
G01*
X244322200Y-174139000D02*
X244322200Y-175089000D01*
G75*
G02*
X244072200Y-175339000I-250000J0D01*
G01*
X243572200Y-175339000D01*
G75*
G02*
X243322200Y-175089000I0J250000D01*
G01*
X243322200Y-174139000D01*
G75*
G02*
X243572200Y-173889000I250000J0D01*
G01*
X244072200Y-173889000D01*
G75*
G02*
X244322200Y-174139000I0J-250000D01*
G01*
G37*
%TD*%
%TO.C,LC7*%
G36*
G01*
X261471000Y-174139000D02*
X261471000Y-175089000D01*
G75*
G02*
X261221000Y-175339000I-250000J0D01*
G01*
X260721000Y-175339000D01*
G75*
G02*
X260471000Y-175089000I0J250000D01*
G01*
X260471000Y-174139000D01*
G75*
G02*
X260721000Y-173889000I250000J0D01*
G01*
X261221000Y-173889000D01*
G75*
G02*
X261471000Y-174139000I0J-250000D01*
G01*
G37*
G36*
G01*
X263371000Y-174139000D02*
X263371000Y-175089000D01*
G75*
G02*
X263121000Y-175339000I-250000J0D01*
G01*
X262621000Y-175339000D01*
G75*
G02*
X262371000Y-175089000I0J250000D01*
G01*
X262371000Y-174139000D01*
G75*
G02*
X262621000Y-173889000I250000J0D01*
G01*
X263121000Y-173889000D01*
G75*
G02*
X263371000Y-174139000I0J-250000D01*
G01*
G37*
%TD*%
%TO.C,LC8*%
G36*
G01*
X280519800Y-174139000D02*
X280519800Y-175089000D01*
G75*
G02*
X280269800Y-175339000I-250000J0D01*
G01*
X279769800Y-175339000D01*
G75*
G02*
X279519800Y-175089000I0J250000D01*
G01*
X279519800Y-174139000D01*
G75*
G02*
X279769800Y-173889000I250000J0D01*
G01*
X280269800Y-173889000D01*
G75*
G02*
X280519800Y-174139000I0J-250000D01*
G01*
G37*
G36*
G01*
X282419800Y-174139000D02*
X282419800Y-175089000D01*
G75*
G02*
X282169800Y-175339000I-250000J0D01*
G01*
X281669800Y-175339000D01*
G75*
G02*
X281419800Y-175089000I0J250000D01*
G01*
X281419800Y-174139000D01*
G75*
G02*
X281669800Y-173889000I250000J0D01*
G01*
X282169800Y-173889000D01*
G75*
G02*
X282419800Y-174139000I0J-250000D01*
G01*
G37*
%TD*%
%TO.C,LC9*%
G36*
G01*
X299568600Y-174139000D02*
X299568600Y-175089000D01*
G75*
G02*
X299318600Y-175339000I-250000J0D01*
G01*
X298818600Y-175339000D01*
G75*
G02*
X298568600Y-175089000I0J250000D01*
G01*
X298568600Y-174139000D01*
G75*
G02*
X298818600Y-173889000I250000J0D01*
G01*
X299318600Y-173889000D01*
G75*
G02*
X299568600Y-174139000I0J-250000D01*
G01*
G37*
G36*
G01*
X301468600Y-174139000D02*
X301468600Y-175089000D01*
G75*
G02*
X301218600Y-175339000I-250000J0D01*
G01*
X300718600Y-175339000D01*
G75*
G02*
X300468600Y-175089000I0J250000D01*
G01*
X300468600Y-174139000D01*
G75*
G02*
X300718600Y-173889000I250000J0D01*
G01*
X301218600Y-173889000D01*
G75*
G02*
X301468600Y-174139000I0J-250000D01*
G01*
G37*
%TD*%
%TO.C,LC10*%
G36*
G01*
X328141800Y-174139000D02*
X328141800Y-175089000D01*
G75*
G02*
X327891800Y-175339000I-250000J0D01*
G01*
X327391800Y-175339000D01*
G75*
G02*
X327141800Y-175089000I0J250000D01*
G01*
X327141800Y-174139000D01*
G75*
G02*
X327391800Y-173889000I250000J0D01*
G01*
X327891800Y-173889000D01*
G75*
G02*
X328141800Y-174139000I0J-250000D01*
G01*
G37*
G36*
G01*
X330041800Y-174139000D02*
X330041800Y-175089000D01*
G75*
G02*
X329791800Y-175339000I-250000J0D01*
G01*
X329291800Y-175339000D01*
G75*
G02*
X329041800Y-175089000I0J250000D01*
G01*
X329041800Y-174139000D01*
G75*
G02*
X329291800Y-173889000I250000J0D01*
G01*
X329791800Y-173889000D01*
G75*
G02*
X330041800Y-174139000I0J-250000D01*
G01*
G37*
%TD*%
%TO.C,LC11*%
G36*
G01*
X347190600Y-174139000D02*
X347190600Y-175089000D01*
G75*
G02*
X346940600Y-175339000I-250000J0D01*
G01*
X346440600Y-175339000D01*
G75*
G02*
X346190600Y-175089000I0J250000D01*
G01*
X346190600Y-174139000D01*
G75*
G02*
X346440600Y-173889000I250000J0D01*
G01*
X346940600Y-173889000D01*
G75*
G02*
X347190600Y-174139000I0J-250000D01*
G01*
G37*
G36*
G01*
X349090600Y-174139000D02*
X349090600Y-175089000D01*
G75*
G02*
X348840600Y-175339000I-250000J0D01*
G01*
X348340600Y-175339000D01*
G75*
G02*
X348090600Y-175089000I0J250000D01*
G01*
X348090600Y-174139000D01*
G75*
G02*
X348340600Y-173889000I250000J0D01*
G01*
X348840600Y-173889000D01*
G75*
G02*
X349090600Y-174139000I0J-250000D01*
G01*
G37*
%TD*%
%TO.C,LC12*%
G36*
G01*
X366239400Y-174139000D02*
X366239400Y-175089000D01*
G75*
G02*
X365989400Y-175339000I-250000J0D01*
G01*
X365489400Y-175339000D01*
G75*
G02*
X365239400Y-175089000I0J250000D01*
G01*
X365239400Y-174139000D01*
G75*
G02*
X365489400Y-173889000I250000J0D01*
G01*
X365989400Y-173889000D01*
G75*
G02*
X366239400Y-174139000I0J-250000D01*
G01*
G37*
G36*
G01*
X368139400Y-174139000D02*
X368139400Y-175089000D01*
G75*
G02*
X367889400Y-175339000I-250000J0D01*
G01*
X367389400Y-175339000D01*
G75*
G02*
X367139400Y-175089000I0J250000D01*
G01*
X367139400Y-174139000D01*
G75*
G02*
X367389400Y-173889000I250000J0D01*
G01*
X367889400Y-173889000D01*
G75*
G02*
X368139400Y-174139000I0J-250000D01*
G01*
G37*
%TD*%
%TO.C,LC13*%
G36*
G01*
X385288200Y-174139000D02*
X385288200Y-175089000D01*
G75*
G02*
X385038200Y-175339000I-250000J0D01*
G01*
X384538200Y-175339000D01*
G75*
G02*
X384288200Y-175089000I0J250000D01*
G01*
X384288200Y-174139000D01*
G75*
G02*
X384538200Y-173889000I250000J0D01*
G01*
X385038200Y-173889000D01*
G75*
G02*
X385288200Y-174139000I0J-250000D01*
G01*
G37*
G36*
G01*
X387188200Y-174139000D02*
X387188200Y-175089000D01*
G75*
G02*
X386938200Y-175339000I-250000J0D01*
G01*
X386438200Y-175339000D01*
G75*
G02*
X386188200Y-175089000I0J250000D01*
G01*
X386188200Y-174139000D01*
G75*
G02*
X386438200Y-173889000I250000J0D01*
G01*
X386938200Y-173889000D01*
G75*
G02*
X387188200Y-174139000I0J-250000D01*
G01*
G37*
%TD*%
%TO.C,LC14*%
G36*
G01*
X413861400Y-174139000D02*
X413861400Y-175089000D01*
G75*
G02*
X413611400Y-175339000I-250000J0D01*
G01*
X413111400Y-175339000D01*
G75*
G02*
X412861400Y-175089000I0J250000D01*
G01*
X412861400Y-174139000D01*
G75*
G02*
X413111400Y-173889000I250000J0D01*
G01*
X413611400Y-173889000D01*
G75*
G02*
X413861400Y-174139000I0J-250000D01*
G01*
G37*
G36*
G01*
X415761400Y-174139000D02*
X415761400Y-175089000D01*
G75*
G02*
X415511400Y-175339000I-250000J0D01*
G01*
X415011400Y-175339000D01*
G75*
G02*
X414761400Y-175089000I0J250000D01*
G01*
X414761400Y-174139000D01*
G75*
G02*
X415011400Y-173889000I250000J0D01*
G01*
X415511400Y-173889000D01*
G75*
G02*
X415761400Y-174139000I0J-250000D01*
G01*
G37*
%TD*%
%TO.C,LC18*%
G36*
G01*
X156702600Y-202712200D02*
X156702600Y-203662200D01*
G75*
G02*
X156452600Y-203912200I-250000J0D01*
G01*
X155952600Y-203912200D01*
G75*
G02*
X155702600Y-203662200I0J250000D01*
G01*
X155702600Y-202712200D01*
G75*
G02*
X155952600Y-202462200I250000J0D01*
G01*
X156452600Y-202462200D01*
G75*
G02*
X156702600Y-202712200I0J-250000D01*
G01*
G37*
G36*
G01*
X158602600Y-202712200D02*
X158602600Y-203662200D01*
G75*
G02*
X158352600Y-203912200I-250000J0D01*
G01*
X157852600Y-203912200D01*
G75*
G02*
X157602600Y-203662200I0J250000D01*
G01*
X157602600Y-202712200D01*
G75*
G02*
X157852600Y-202462200I250000J0D01*
G01*
X158352600Y-202462200D01*
G75*
G02*
X158602600Y-202712200I0J-250000D01*
G01*
G37*
%TD*%
%TO.C,LC19*%
G36*
G01*
X175751400Y-202712200D02*
X175751400Y-203662200D01*
G75*
G02*
X175501400Y-203912200I-250000J0D01*
G01*
X175001400Y-203912200D01*
G75*
G02*
X174751400Y-203662200I0J250000D01*
G01*
X174751400Y-202712200D01*
G75*
G02*
X175001400Y-202462200I250000J0D01*
G01*
X175501400Y-202462200D01*
G75*
G02*
X175751400Y-202712200I0J-250000D01*
G01*
G37*
G36*
G01*
X177651400Y-202712200D02*
X177651400Y-203662200D01*
G75*
G02*
X177401400Y-203912200I-250000J0D01*
G01*
X176901400Y-203912200D01*
G75*
G02*
X176651400Y-203662200I0J250000D01*
G01*
X176651400Y-202712200D01*
G75*
G02*
X176901400Y-202462200I250000J0D01*
G01*
X177401400Y-202462200D01*
G75*
G02*
X177651400Y-202712200I0J-250000D01*
G01*
G37*
%TD*%
%TO.C,LC20*%
G36*
G01*
X194800200Y-202712200D02*
X194800200Y-203662200D01*
G75*
G02*
X194550200Y-203912200I-250000J0D01*
G01*
X194050200Y-203912200D01*
G75*
G02*
X193800200Y-203662200I0J250000D01*
G01*
X193800200Y-202712200D01*
G75*
G02*
X194050200Y-202462200I250000J0D01*
G01*
X194550200Y-202462200D01*
G75*
G02*
X194800200Y-202712200I0J-250000D01*
G01*
G37*
G36*
G01*
X196700200Y-202712200D02*
X196700200Y-203662200D01*
G75*
G02*
X196450200Y-203912200I-250000J0D01*
G01*
X195950200Y-203912200D01*
G75*
G02*
X195700200Y-203662200I0J250000D01*
G01*
X195700200Y-202712200D01*
G75*
G02*
X195950200Y-202462200I250000J0D01*
G01*
X196450200Y-202462200D01*
G75*
G02*
X196700200Y-202712200I0J-250000D01*
G01*
G37*
%TD*%
%TO.C,LC21*%
G36*
G01*
X213849000Y-202712200D02*
X213849000Y-203662200D01*
G75*
G02*
X213599000Y-203912200I-250000J0D01*
G01*
X213099000Y-203912200D01*
G75*
G02*
X212849000Y-203662200I0J250000D01*
G01*
X212849000Y-202712200D01*
G75*
G02*
X213099000Y-202462200I250000J0D01*
G01*
X213599000Y-202462200D01*
G75*
G02*
X213849000Y-202712200I0J-250000D01*
G01*
G37*
G36*
G01*
X215749000Y-202712200D02*
X215749000Y-203662200D01*
G75*
G02*
X215499000Y-203912200I-250000J0D01*
G01*
X214999000Y-203912200D01*
G75*
G02*
X214749000Y-203662200I0J250000D01*
G01*
X214749000Y-202712200D01*
G75*
G02*
X214999000Y-202462200I250000J0D01*
G01*
X215499000Y-202462200D01*
G75*
G02*
X215749000Y-202712200I0J-250000D01*
G01*
G37*
%TD*%
%TO.C,LC22*%
G36*
G01*
X232897800Y-202712200D02*
X232897800Y-203662200D01*
G75*
G02*
X232647800Y-203912200I-250000J0D01*
G01*
X232147800Y-203912200D01*
G75*
G02*
X231897800Y-203662200I0J250000D01*
G01*
X231897800Y-202712200D01*
G75*
G02*
X232147800Y-202462200I250000J0D01*
G01*
X232647800Y-202462200D01*
G75*
G02*
X232897800Y-202712200I0J-250000D01*
G01*
G37*
G36*
G01*
X234797800Y-202712200D02*
X234797800Y-203662200D01*
G75*
G02*
X234547800Y-203912200I-250000J0D01*
G01*
X234047800Y-203912200D01*
G75*
G02*
X233797800Y-203662200I0J250000D01*
G01*
X233797800Y-202712200D01*
G75*
G02*
X234047800Y-202462200I250000J0D01*
G01*
X234547800Y-202462200D01*
G75*
G02*
X234797800Y-202712200I0J-250000D01*
G01*
G37*
%TD*%
%TO.C,LC23*%
G36*
G01*
X251946600Y-202712200D02*
X251946600Y-203662200D01*
G75*
G02*
X251696600Y-203912200I-250000J0D01*
G01*
X251196600Y-203912200D01*
G75*
G02*
X250946600Y-203662200I0J250000D01*
G01*
X250946600Y-202712200D01*
G75*
G02*
X251196600Y-202462200I250000J0D01*
G01*
X251696600Y-202462200D01*
G75*
G02*
X251946600Y-202712200I0J-250000D01*
G01*
G37*
G36*
G01*
X253846600Y-202712200D02*
X253846600Y-203662200D01*
G75*
G02*
X253596600Y-203912200I-250000J0D01*
G01*
X253096600Y-203912200D01*
G75*
G02*
X252846600Y-203662200I0J250000D01*
G01*
X252846600Y-202712200D01*
G75*
G02*
X253096600Y-202462200I250000J0D01*
G01*
X253596600Y-202462200D01*
G75*
G02*
X253846600Y-202712200I0J-250000D01*
G01*
G37*
%TD*%
%TO.C,LC24*%
G36*
G01*
X270995400Y-202712200D02*
X270995400Y-203662200D01*
G75*
G02*
X270745400Y-203912200I-250000J0D01*
G01*
X270245400Y-203912200D01*
G75*
G02*
X269995400Y-203662200I0J250000D01*
G01*
X269995400Y-202712200D01*
G75*
G02*
X270245400Y-202462200I250000J0D01*
G01*
X270745400Y-202462200D01*
G75*
G02*
X270995400Y-202712200I0J-250000D01*
G01*
G37*
G36*
G01*
X272895400Y-202712200D02*
X272895400Y-203662200D01*
G75*
G02*
X272645400Y-203912200I-250000J0D01*
G01*
X272145400Y-203912200D01*
G75*
G02*
X271895400Y-203662200I0J250000D01*
G01*
X271895400Y-202712200D01*
G75*
G02*
X272145400Y-202462200I250000J0D01*
G01*
X272645400Y-202462200D01*
G75*
G02*
X272895400Y-202712200I0J-250000D01*
G01*
G37*
%TD*%
%TO.C,LC25*%
G36*
G01*
X290044200Y-202712200D02*
X290044200Y-203662200D01*
G75*
G02*
X289794200Y-203912200I-250000J0D01*
G01*
X289294200Y-203912200D01*
G75*
G02*
X289044200Y-203662200I0J250000D01*
G01*
X289044200Y-202712200D01*
G75*
G02*
X289294200Y-202462200I250000J0D01*
G01*
X289794200Y-202462200D01*
G75*
G02*
X290044200Y-202712200I0J-250000D01*
G01*
G37*
G36*
G01*
X291944200Y-202712200D02*
X291944200Y-203662200D01*
G75*
G02*
X291694200Y-203912200I-250000J0D01*
G01*
X291194200Y-203912200D01*
G75*
G02*
X290944200Y-203662200I0J250000D01*
G01*
X290944200Y-202712200D01*
G75*
G02*
X291194200Y-202462200I250000J0D01*
G01*
X291694200Y-202462200D01*
G75*
G02*
X291944200Y-202712200I0J-250000D01*
G01*
G37*
%TD*%
%TO.C,LC26*%
G36*
G01*
X309093000Y-202712200D02*
X309093000Y-203662200D01*
G75*
G02*
X308843000Y-203912200I-250000J0D01*
G01*
X308343000Y-203912200D01*
G75*
G02*
X308093000Y-203662200I0J250000D01*
G01*
X308093000Y-202712200D01*
G75*
G02*
X308343000Y-202462200I250000J0D01*
G01*
X308843000Y-202462200D01*
G75*
G02*
X309093000Y-202712200I0J-250000D01*
G01*
G37*
G36*
G01*
X310993000Y-202712200D02*
X310993000Y-203662200D01*
G75*
G02*
X310743000Y-203912200I-250000J0D01*
G01*
X310243000Y-203912200D01*
G75*
G02*
X309993000Y-203662200I0J250000D01*
G01*
X309993000Y-202712200D01*
G75*
G02*
X310243000Y-202462200I250000J0D01*
G01*
X310743000Y-202462200D01*
G75*
G02*
X310993000Y-202712200I0J-250000D01*
G01*
G37*
%TD*%
%TO.C,LC27*%
G36*
G01*
X328141800Y-202712200D02*
X328141800Y-203662200D01*
G75*
G02*
X327891800Y-203912200I-250000J0D01*
G01*
X327391800Y-203912200D01*
G75*
G02*
X327141800Y-203662200I0J250000D01*
G01*
X327141800Y-202712200D01*
G75*
G02*
X327391800Y-202462200I250000J0D01*
G01*
X327891800Y-202462200D01*
G75*
G02*
X328141800Y-202712200I0J-250000D01*
G01*
G37*
G36*
G01*
X330041800Y-202712200D02*
X330041800Y-203662200D01*
G75*
G02*
X329791800Y-203912200I-250000J0D01*
G01*
X329291800Y-203912200D01*
G75*
G02*
X329041800Y-203662200I0J250000D01*
G01*
X329041800Y-202712200D01*
G75*
G02*
X329291800Y-202462200I250000J0D01*
G01*
X329791800Y-202462200D01*
G75*
G02*
X330041800Y-202712200I0J-250000D01*
G01*
G37*
%TD*%
%TO.C,LC28*%
G36*
G01*
X347190600Y-202712200D02*
X347190600Y-203662200D01*
G75*
G02*
X346940600Y-203912200I-250000J0D01*
G01*
X346440600Y-203912200D01*
G75*
G02*
X346190600Y-203662200I0J250000D01*
G01*
X346190600Y-202712200D01*
G75*
G02*
X346440600Y-202462200I250000J0D01*
G01*
X346940600Y-202462200D01*
G75*
G02*
X347190600Y-202712200I0J-250000D01*
G01*
G37*
G36*
G01*
X349090600Y-202712200D02*
X349090600Y-203662200D01*
G75*
G02*
X348840600Y-203912200I-250000J0D01*
G01*
X348340600Y-203912200D01*
G75*
G02*
X348090600Y-203662200I0J250000D01*
G01*
X348090600Y-202712200D01*
G75*
G02*
X348340600Y-202462200I250000J0D01*
G01*
X348840600Y-202462200D01*
G75*
G02*
X349090600Y-202712200I0J-250000D01*
G01*
G37*
%TD*%
%TO.C,LC29*%
G36*
G01*
X375763800Y-202712200D02*
X375763800Y-203662200D01*
G75*
G02*
X375513800Y-203912200I-250000J0D01*
G01*
X375013800Y-203912200D01*
G75*
G02*
X374763800Y-203662200I0J250000D01*
G01*
X374763800Y-202712200D01*
G75*
G02*
X375013800Y-202462200I250000J0D01*
G01*
X375513800Y-202462200D01*
G75*
G02*
X375763800Y-202712200I0J-250000D01*
G01*
G37*
G36*
G01*
X377663800Y-202712200D02*
X377663800Y-203662200D01*
G75*
G02*
X377413800Y-203912200I-250000J0D01*
G01*
X376913800Y-203912200D01*
G75*
G02*
X376663800Y-203662200I0J250000D01*
G01*
X376663800Y-202712200D01*
G75*
G02*
X376913800Y-202462200I250000J0D01*
G01*
X377413800Y-202462200D01*
G75*
G02*
X377663800Y-202712200I0J-250000D01*
G01*
G37*
%TD*%
%TO.C,LC30*%
G36*
G01*
X413861400Y-202712200D02*
X413861400Y-203662200D01*
G75*
G02*
X413611400Y-203912200I-250000J0D01*
G01*
X413111400Y-203912200D01*
G75*
G02*
X412861400Y-203662200I0J250000D01*
G01*
X412861400Y-202712200D01*
G75*
G02*
X413111400Y-202462200I250000J0D01*
G01*
X413611400Y-202462200D01*
G75*
G02*
X413861400Y-202712200I0J-250000D01*
G01*
G37*
G36*
G01*
X415761400Y-202712200D02*
X415761400Y-203662200D01*
G75*
G02*
X415511400Y-203912200I-250000J0D01*
G01*
X415011400Y-203912200D01*
G75*
G02*
X414761400Y-203662200I0J250000D01*
G01*
X414761400Y-202712200D01*
G75*
G02*
X415011400Y-202462200I250000J0D01*
G01*
X415511400Y-202462200D01*
G75*
G02*
X415761400Y-202712200I0J-250000D01*
G01*
G37*
%TD*%
%TO.C,LC31*%
G36*
G01*
X432910200Y-202712200D02*
X432910200Y-203662200D01*
G75*
G02*
X432660200Y-203912200I-250000J0D01*
G01*
X432160200Y-203912200D01*
G75*
G02*
X431910200Y-203662200I0J250000D01*
G01*
X431910200Y-202712200D01*
G75*
G02*
X432160200Y-202462200I250000J0D01*
G01*
X432660200Y-202462200D01*
G75*
G02*
X432910200Y-202712200I0J-250000D01*
G01*
G37*
G36*
G01*
X434810200Y-202712200D02*
X434810200Y-203662200D01*
G75*
G02*
X434560200Y-203912200I-250000J0D01*
G01*
X434060200Y-203912200D01*
G75*
G02*
X433810200Y-203662200I0J250000D01*
G01*
X433810200Y-202712200D01*
G75*
G02*
X434060200Y-202462200I250000J0D01*
G01*
X434560200Y-202462200D01*
G75*
G02*
X434810200Y-202712200I0J-250000D01*
G01*
G37*
%TD*%
%TO.C,LC32*%
G36*
G01*
X451959000Y-202712200D02*
X451959000Y-203662200D01*
G75*
G02*
X451709000Y-203912200I-250000J0D01*
G01*
X451209000Y-203912200D01*
G75*
G02*
X450959000Y-203662200I0J250000D01*
G01*
X450959000Y-202712200D01*
G75*
G02*
X451209000Y-202462200I250000J0D01*
G01*
X451709000Y-202462200D01*
G75*
G02*
X451959000Y-202712200I0J-250000D01*
G01*
G37*
G36*
G01*
X453859000Y-202712200D02*
X453859000Y-203662200D01*
G75*
G02*
X453609000Y-203912200I-250000J0D01*
G01*
X453109000Y-203912200D01*
G75*
G02*
X452859000Y-203662200I0J250000D01*
G01*
X452859000Y-202712200D01*
G75*
G02*
X453109000Y-202462200I250000J0D01*
G01*
X453609000Y-202462200D01*
G75*
G02*
X453859000Y-202712200I0J-250000D01*
G01*
G37*
%TD*%
%TO.C,LC36*%
G36*
G01*
X166227000Y-221761000D02*
X166227000Y-222711000D01*
G75*
G02*
X165977000Y-222961000I-250000J0D01*
G01*
X165477000Y-222961000D01*
G75*
G02*
X165227000Y-222711000I0J250000D01*
G01*
X165227000Y-221761000D01*
G75*
G02*
X165477000Y-221511000I250000J0D01*
G01*
X165977000Y-221511000D01*
G75*
G02*
X166227000Y-221761000I0J-250000D01*
G01*
G37*
G36*
G01*
X168127000Y-221761000D02*
X168127000Y-222711000D01*
G75*
G02*
X167877000Y-222961000I-250000J0D01*
G01*
X167377000Y-222961000D01*
G75*
G02*
X167127000Y-222711000I0J250000D01*
G01*
X167127000Y-221761000D01*
G75*
G02*
X167377000Y-221511000I250000J0D01*
G01*
X167877000Y-221511000D01*
G75*
G02*
X168127000Y-221761000I0J-250000D01*
G01*
G37*
%TD*%
%TO.C,LC37*%
G36*
G01*
X185275800Y-221761000D02*
X185275800Y-222711000D01*
G75*
G02*
X185025800Y-222961000I-250000J0D01*
G01*
X184525800Y-222961000D01*
G75*
G02*
X184275800Y-222711000I0J250000D01*
G01*
X184275800Y-221761000D01*
G75*
G02*
X184525800Y-221511000I250000J0D01*
G01*
X185025800Y-221511000D01*
G75*
G02*
X185275800Y-221761000I0J-250000D01*
G01*
G37*
G36*
G01*
X187175800Y-221761000D02*
X187175800Y-222711000D01*
G75*
G02*
X186925800Y-222961000I-250000J0D01*
G01*
X186425800Y-222961000D01*
G75*
G02*
X186175800Y-222711000I0J250000D01*
G01*
X186175800Y-221761000D01*
G75*
G02*
X186425800Y-221511000I250000J0D01*
G01*
X186925800Y-221511000D01*
G75*
G02*
X187175800Y-221761000I0J-250000D01*
G01*
G37*
%TD*%
%TO.C,LC38*%
G36*
G01*
X204324600Y-221761000D02*
X204324600Y-222711000D01*
G75*
G02*
X204074600Y-222961000I-250000J0D01*
G01*
X203574600Y-222961000D01*
G75*
G02*
X203324600Y-222711000I0J250000D01*
G01*
X203324600Y-221761000D01*
G75*
G02*
X203574600Y-221511000I250000J0D01*
G01*
X204074600Y-221511000D01*
G75*
G02*
X204324600Y-221761000I0J-250000D01*
G01*
G37*
G36*
G01*
X206224600Y-221761000D02*
X206224600Y-222711000D01*
G75*
G02*
X205974600Y-222961000I-250000J0D01*
G01*
X205474600Y-222961000D01*
G75*
G02*
X205224600Y-222711000I0J250000D01*
G01*
X205224600Y-221761000D01*
G75*
G02*
X205474600Y-221511000I250000J0D01*
G01*
X205974600Y-221511000D01*
G75*
G02*
X206224600Y-221761000I0J-250000D01*
G01*
G37*
%TD*%
%TO.C,LC39*%
G36*
G01*
X223373400Y-221761000D02*
X223373400Y-222711000D01*
G75*
G02*
X223123400Y-222961000I-250000J0D01*
G01*
X222623400Y-222961000D01*
G75*
G02*
X222373400Y-222711000I0J250000D01*
G01*
X222373400Y-221761000D01*
G75*
G02*
X222623400Y-221511000I250000J0D01*
G01*
X223123400Y-221511000D01*
G75*
G02*
X223373400Y-221761000I0J-250000D01*
G01*
G37*
G36*
G01*
X225273400Y-221761000D02*
X225273400Y-222711000D01*
G75*
G02*
X225023400Y-222961000I-250000J0D01*
G01*
X224523400Y-222961000D01*
G75*
G02*
X224273400Y-222711000I0J250000D01*
G01*
X224273400Y-221761000D01*
G75*
G02*
X224523400Y-221511000I250000J0D01*
G01*
X225023400Y-221511000D01*
G75*
G02*
X225273400Y-221761000I0J-250000D01*
G01*
G37*
%TD*%
%TO.C,LC40*%
G36*
G01*
X242422200Y-221761000D02*
X242422200Y-222711000D01*
G75*
G02*
X242172200Y-222961000I-250000J0D01*
G01*
X241672200Y-222961000D01*
G75*
G02*
X241422200Y-222711000I0J250000D01*
G01*
X241422200Y-221761000D01*
G75*
G02*
X241672200Y-221511000I250000J0D01*
G01*
X242172200Y-221511000D01*
G75*
G02*
X242422200Y-221761000I0J-250000D01*
G01*
G37*
G36*
G01*
X244322200Y-221761000D02*
X244322200Y-222711000D01*
G75*
G02*
X244072200Y-222961000I-250000J0D01*
G01*
X243572200Y-222961000D01*
G75*
G02*
X243322200Y-222711000I0J250000D01*
G01*
X243322200Y-221761000D01*
G75*
G02*
X243572200Y-221511000I250000J0D01*
G01*
X244072200Y-221511000D01*
G75*
G02*
X244322200Y-221761000I0J-250000D01*
G01*
G37*
%TD*%
%TO.C,LC41*%
G36*
G01*
X261471000Y-221761000D02*
X261471000Y-222711000D01*
G75*
G02*
X261221000Y-222961000I-250000J0D01*
G01*
X260721000Y-222961000D01*
G75*
G02*
X260471000Y-222711000I0J250000D01*
G01*
X260471000Y-221761000D01*
G75*
G02*
X260721000Y-221511000I250000J0D01*
G01*
X261221000Y-221511000D01*
G75*
G02*
X261471000Y-221761000I0J-250000D01*
G01*
G37*
G36*
G01*
X263371000Y-221761000D02*
X263371000Y-222711000D01*
G75*
G02*
X263121000Y-222961000I-250000J0D01*
G01*
X262621000Y-222961000D01*
G75*
G02*
X262371000Y-222711000I0J250000D01*
G01*
X262371000Y-221761000D01*
G75*
G02*
X262621000Y-221511000I250000J0D01*
G01*
X263121000Y-221511000D01*
G75*
G02*
X263371000Y-221761000I0J-250000D01*
G01*
G37*
%TD*%
%TO.C,LC42*%
G36*
G01*
X280519800Y-221761000D02*
X280519800Y-222711000D01*
G75*
G02*
X280269800Y-222961000I-250000J0D01*
G01*
X279769800Y-222961000D01*
G75*
G02*
X279519800Y-222711000I0J250000D01*
G01*
X279519800Y-221761000D01*
G75*
G02*
X279769800Y-221511000I250000J0D01*
G01*
X280269800Y-221511000D01*
G75*
G02*
X280519800Y-221761000I0J-250000D01*
G01*
G37*
G36*
G01*
X282419800Y-221761000D02*
X282419800Y-222711000D01*
G75*
G02*
X282169800Y-222961000I-250000J0D01*
G01*
X281669800Y-222961000D01*
G75*
G02*
X281419800Y-222711000I0J250000D01*
G01*
X281419800Y-221761000D01*
G75*
G02*
X281669800Y-221511000I250000J0D01*
G01*
X282169800Y-221511000D01*
G75*
G02*
X282419800Y-221761000I0J-250000D01*
G01*
G37*
%TD*%
%TO.C,LC43*%
G36*
G01*
X299568600Y-221761000D02*
X299568600Y-222711000D01*
G75*
G02*
X299318600Y-222961000I-250000J0D01*
G01*
X298818600Y-222961000D01*
G75*
G02*
X298568600Y-222711000I0J250000D01*
G01*
X298568600Y-221761000D01*
G75*
G02*
X298818600Y-221511000I250000J0D01*
G01*
X299318600Y-221511000D01*
G75*
G02*
X299568600Y-221761000I0J-250000D01*
G01*
G37*
G36*
G01*
X301468600Y-221761000D02*
X301468600Y-222711000D01*
G75*
G02*
X301218600Y-222961000I-250000J0D01*
G01*
X300718600Y-222961000D01*
G75*
G02*
X300468600Y-222711000I0J250000D01*
G01*
X300468600Y-221761000D01*
G75*
G02*
X300718600Y-221511000I250000J0D01*
G01*
X301218600Y-221511000D01*
G75*
G02*
X301468600Y-221761000I0J-250000D01*
G01*
G37*
%TD*%
%TO.C,LC44*%
G36*
G01*
X318617400Y-221761000D02*
X318617400Y-222711000D01*
G75*
G02*
X318367400Y-222961000I-250000J0D01*
G01*
X317867400Y-222961000D01*
G75*
G02*
X317617400Y-222711000I0J250000D01*
G01*
X317617400Y-221761000D01*
G75*
G02*
X317867400Y-221511000I250000J0D01*
G01*
X318367400Y-221511000D01*
G75*
G02*
X318617400Y-221761000I0J-250000D01*
G01*
G37*
G36*
G01*
X320517400Y-221761000D02*
X320517400Y-222711000D01*
G75*
G02*
X320267400Y-222961000I-250000J0D01*
G01*
X319767400Y-222961000D01*
G75*
G02*
X319517400Y-222711000I0J250000D01*
G01*
X319517400Y-221761000D01*
G75*
G02*
X319767400Y-221511000I250000J0D01*
G01*
X320267400Y-221511000D01*
G75*
G02*
X320517400Y-221761000I0J-250000D01*
G01*
G37*
%TD*%
%TO.C,LC45*%
G36*
G01*
X337666200Y-221761000D02*
X337666200Y-222711000D01*
G75*
G02*
X337416200Y-222961000I-250000J0D01*
G01*
X336916200Y-222961000D01*
G75*
G02*
X336666200Y-222711000I0J250000D01*
G01*
X336666200Y-221761000D01*
G75*
G02*
X336916200Y-221511000I250000J0D01*
G01*
X337416200Y-221511000D01*
G75*
G02*
X337666200Y-221761000I0J-250000D01*
G01*
G37*
G36*
G01*
X339566200Y-221761000D02*
X339566200Y-222711000D01*
G75*
G02*
X339316200Y-222961000I-250000J0D01*
G01*
X338816200Y-222961000D01*
G75*
G02*
X338566200Y-222711000I0J250000D01*
G01*
X338566200Y-221761000D01*
G75*
G02*
X338816200Y-221511000I250000J0D01*
G01*
X339316200Y-221511000D01*
G75*
G02*
X339566200Y-221761000I0J-250000D01*
G01*
G37*
%TD*%
%TO.C,LC46*%
G36*
G01*
X356715000Y-221761000D02*
X356715000Y-222711000D01*
G75*
G02*
X356465000Y-222961000I-250000J0D01*
G01*
X355965000Y-222961000D01*
G75*
G02*
X355715000Y-222711000I0J250000D01*
G01*
X355715000Y-221761000D01*
G75*
G02*
X355965000Y-221511000I250000J0D01*
G01*
X356465000Y-221511000D01*
G75*
G02*
X356715000Y-221761000I0J-250000D01*
G01*
G37*
G36*
G01*
X358615000Y-221761000D02*
X358615000Y-222711000D01*
G75*
G02*
X358365000Y-222961000I-250000J0D01*
G01*
X357865000Y-222961000D01*
G75*
G02*
X357615000Y-222711000I0J250000D01*
G01*
X357615000Y-221761000D01*
G75*
G02*
X357865000Y-221511000I250000J0D01*
G01*
X358365000Y-221511000D01*
G75*
G02*
X358615000Y-221761000I0J-250000D01*
G01*
G37*
%TD*%
%TO.C,LC47*%
G36*
G01*
X380526000Y-221761000D02*
X380526000Y-222711000D01*
G75*
G02*
X380276000Y-222961000I-250000J0D01*
G01*
X379776000Y-222961000D01*
G75*
G02*
X379526000Y-222711000I0J250000D01*
G01*
X379526000Y-221761000D01*
G75*
G02*
X379776000Y-221511000I250000J0D01*
G01*
X380276000Y-221511000D01*
G75*
G02*
X380526000Y-221761000I0J-250000D01*
G01*
G37*
G36*
G01*
X382426000Y-221761000D02*
X382426000Y-222711000D01*
G75*
G02*
X382176000Y-222961000I-250000J0D01*
G01*
X381676000Y-222961000D01*
G75*
G02*
X381426000Y-222711000I0J250000D01*
G01*
X381426000Y-221761000D01*
G75*
G02*
X381676000Y-221511000I250000J0D01*
G01*
X382176000Y-221511000D01*
G75*
G02*
X382426000Y-221761000I0J-250000D01*
G01*
G37*
%TD*%
%TO.C,LC48*%
G36*
G01*
X413861400Y-221761000D02*
X413861400Y-222711000D01*
G75*
G02*
X413611400Y-222961000I-250000J0D01*
G01*
X413111400Y-222961000D01*
G75*
G02*
X412861400Y-222711000I0J250000D01*
G01*
X412861400Y-221761000D01*
G75*
G02*
X413111400Y-221511000I250000J0D01*
G01*
X413611400Y-221511000D01*
G75*
G02*
X413861400Y-221761000I0J-250000D01*
G01*
G37*
G36*
G01*
X415761400Y-221761000D02*
X415761400Y-222711000D01*
G75*
G02*
X415511400Y-222961000I-250000J0D01*
G01*
X415011400Y-222961000D01*
G75*
G02*
X414761400Y-222711000I0J250000D01*
G01*
X414761400Y-221761000D01*
G75*
G02*
X415011400Y-221511000I250000J0D01*
G01*
X415511400Y-221511000D01*
G75*
G02*
X415761400Y-221761000I0J-250000D01*
G01*
G37*
%TD*%
%TO.C,LC49*%
G36*
G01*
X433066500Y-221761000D02*
X433066500Y-222711000D01*
G75*
G02*
X432816500Y-222961000I-250000J0D01*
G01*
X432316500Y-222961000D01*
G75*
G02*
X432066500Y-222711000I0J250000D01*
G01*
X432066500Y-221761000D01*
G75*
G02*
X432316500Y-221511000I250000J0D01*
G01*
X432816500Y-221511000D01*
G75*
G02*
X433066500Y-221761000I0J-250000D01*
G01*
G37*
G36*
G01*
X434966500Y-221761000D02*
X434966500Y-222711000D01*
G75*
G02*
X434716500Y-222961000I-250000J0D01*
G01*
X434216500Y-222961000D01*
G75*
G02*
X433966500Y-222711000I0J250000D01*
G01*
X433966500Y-221761000D01*
G75*
G02*
X434216500Y-221511000I250000J0D01*
G01*
X434716500Y-221511000D01*
G75*
G02*
X434966500Y-221761000I0J-250000D01*
G01*
G37*
%TD*%
%TO.C,LC50*%
G36*
G01*
X451959000Y-221766600D02*
X451959000Y-222716600D01*
G75*
G02*
X451709000Y-222966600I-250000J0D01*
G01*
X451209000Y-222966600D01*
G75*
G02*
X450959000Y-222716600I0J250000D01*
G01*
X450959000Y-221766600D01*
G75*
G02*
X451209000Y-221516600I250000J0D01*
G01*
X451709000Y-221516600D01*
G75*
G02*
X451959000Y-221766600I0J-250000D01*
G01*
G37*
G36*
G01*
X453859000Y-221766600D02*
X453859000Y-222716600D01*
G75*
G02*
X453609000Y-222966600I-250000J0D01*
G01*
X453109000Y-222966600D01*
G75*
G02*
X452859000Y-222716600I0J250000D01*
G01*
X452859000Y-221766600D01*
G75*
G02*
X453109000Y-221516600I250000J0D01*
G01*
X453609000Y-221516600D01*
G75*
G02*
X453859000Y-221766600I0J-250000D01*
G01*
G37*
%TD*%
%TO.C,LC54*%
G36*
G01*
X170989200Y-240809800D02*
X170989200Y-241759800D01*
G75*
G02*
X170739200Y-242009800I-250000J0D01*
G01*
X170239200Y-242009800D01*
G75*
G02*
X169989200Y-241759800I0J250000D01*
G01*
X169989200Y-240809800D01*
G75*
G02*
X170239200Y-240559800I250000J0D01*
G01*
X170739200Y-240559800D01*
G75*
G02*
X170989200Y-240809800I0J-250000D01*
G01*
G37*
G36*
G01*
X172889200Y-240809800D02*
X172889200Y-241759800D01*
G75*
G02*
X172639200Y-242009800I-250000J0D01*
G01*
X172139200Y-242009800D01*
G75*
G02*
X171889200Y-241759800I0J250000D01*
G01*
X171889200Y-240809800D01*
G75*
G02*
X172139200Y-240559800I250000J0D01*
G01*
X172639200Y-240559800D01*
G75*
G02*
X172889200Y-240809800I0J-250000D01*
G01*
G37*
%TD*%
%TO.C,LC55*%
G36*
G01*
X190038000Y-240809800D02*
X190038000Y-241759800D01*
G75*
G02*
X189788000Y-242009800I-250000J0D01*
G01*
X189288000Y-242009800D01*
G75*
G02*
X189038000Y-241759800I0J250000D01*
G01*
X189038000Y-240809800D01*
G75*
G02*
X189288000Y-240559800I250000J0D01*
G01*
X189788000Y-240559800D01*
G75*
G02*
X190038000Y-240809800I0J-250000D01*
G01*
G37*
G36*
G01*
X191938000Y-240809800D02*
X191938000Y-241759800D01*
G75*
G02*
X191688000Y-242009800I-250000J0D01*
G01*
X191188000Y-242009800D01*
G75*
G02*
X190938000Y-241759800I0J250000D01*
G01*
X190938000Y-240809800D01*
G75*
G02*
X191188000Y-240559800I250000J0D01*
G01*
X191688000Y-240559800D01*
G75*
G02*
X191938000Y-240809800I0J-250000D01*
G01*
G37*
%TD*%
%TO.C,LC56*%
G36*
G01*
X209086800Y-240809800D02*
X209086800Y-241759800D01*
G75*
G02*
X208836800Y-242009800I-250000J0D01*
G01*
X208336800Y-242009800D01*
G75*
G02*
X208086800Y-241759800I0J250000D01*
G01*
X208086800Y-240809800D01*
G75*
G02*
X208336800Y-240559800I250000J0D01*
G01*
X208836800Y-240559800D01*
G75*
G02*
X209086800Y-240809800I0J-250000D01*
G01*
G37*
G36*
G01*
X210986800Y-240809800D02*
X210986800Y-241759800D01*
G75*
G02*
X210736800Y-242009800I-250000J0D01*
G01*
X210236800Y-242009800D01*
G75*
G02*
X209986800Y-241759800I0J250000D01*
G01*
X209986800Y-240809800D01*
G75*
G02*
X210236800Y-240559800I250000J0D01*
G01*
X210736800Y-240559800D01*
G75*
G02*
X210986800Y-240809800I0J-250000D01*
G01*
G37*
%TD*%
%TO.C,LC57*%
G36*
G01*
X228135600Y-240809800D02*
X228135600Y-241759800D01*
G75*
G02*
X227885600Y-242009800I-250000J0D01*
G01*
X227385600Y-242009800D01*
G75*
G02*
X227135600Y-241759800I0J250000D01*
G01*
X227135600Y-240809800D01*
G75*
G02*
X227385600Y-240559800I250000J0D01*
G01*
X227885600Y-240559800D01*
G75*
G02*
X228135600Y-240809800I0J-250000D01*
G01*
G37*
G36*
G01*
X230035600Y-240809800D02*
X230035600Y-241759800D01*
G75*
G02*
X229785600Y-242009800I-250000J0D01*
G01*
X229285600Y-242009800D01*
G75*
G02*
X229035600Y-241759800I0J250000D01*
G01*
X229035600Y-240809800D01*
G75*
G02*
X229285600Y-240559800I250000J0D01*
G01*
X229785600Y-240559800D01*
G75*
G02*
X230035600Y-240809800I0J-250000D01*
G01*
G37*
%TD*%
%TO.C,LC58*%
G36*
G01*
X247184400Y-240809800D02*
X247184400Y-241759800D01*
G75*
G02*
X246934400Y-242009800I-250000J0D01*
G01*
X246434400Y-242009800D01*
G75*
G02*
X246184400Y-241759800I0J250000D01*
G01*
X246184400Y-240809800D01*
G75*
G02*
X246434400Y-240559800I250000J0D01*
G01*
X246934400Y-240559800D01*
G75*
G02*
X247184400Y-240809800I0J-250000D01*
G01*
G37*
G36*
G01*
X249084400Y-240809800D02*
X249084400Y-241759800D01*
G75*
G02*
X248834400Y-242009800I-250000J0D01*
G01*
X248334400Y-242009800D01*
G75*
G02*
X248084400Y-241759800I0J250000D01*
G01*
X248084400Y-240809800D01*
G75*
G02*
X248334400Y-240559800I250000J0D01*
G01*
X248834400Y-240559800D01*
G75*
G02*
X249084400Y-240809800I0J-250000D01*
G01*
G37*
%TD*%
%TO.C,LC59*%
G36*
G01*
X265595800Y-240809800D02*
X265595800Y-241759800D01*
G75*
G02*
X265345800Y-242009800I-250000J0D01*
G01*
X264845800Y-242009800D01*
G75*
G02*
X264595800Y-241759800I0J250000D01*
G01*
X264595800Y-240809800D01*
G75*
G02*
X264845800Y-240559800I250000J0D01*
G01*
X265345800Y-240559800D01*
G75*
G02*
X265595800Y-240809800I0J-250000D01*
G01*
G37*
G36*
G01*
X267495800Y-240809800D02*
X267495800Y-241759800D01*
G75*
G02*
X267245800Y-242009800I-250000J0D01*
G01*
X266745800Y-242009800D01*
G75*
G02*
X266495800Y-241759800I0J250000D01*
G01*
X266495800Y-240809800D01*
G75*
G02*
X266745800Y-240559800I250000J0D01*
G01*
X267245800Y-240559800D01*
G75*
G02*
X267495800Y-240809800I0J-250000D01*
G01*
G37*
%TD*%
%TO.C,LC60*%
G36*
G01*
X285282000Y-240809800D02*
X285282000Y-241759800D01*
G75*
G02*
X285032000Y-242009800I-250000J0D01*
G01*
X284532000Y-242009800D01*
G75*
G02*
X284282000Y-241759800I0J250000D01*
G01*
X284282000Y-240809800D01*
G75*
G02*
X284532000Y-240559800I250000J0D01*
G01*
X285032000Y-240559800D01*
G75*
G02*
X285282000Y-240809800I0J-250000D01*
G01*
G37*
G36*
G01*
X287182000Y-240809800D02*
X287182000Y-241759800D01*
G75*
G02*
X286932000Y-242009800I-250000J0D01*
G01*
X286432000Y-242009800D01*
G75*
G02*
X286182000Y-241759800I0J250000D01*
G01*
X286182000Y-240809800D01*
G75*
G02*
X286432000Y-240559800I250000J0D01*
G01*
X286932000Y-240559800D01*
G75*
G02*
X287182000Y-240809800I0J-250000D01*
G01*
G37*
%TD*%
%TO.C,LC61*%
G36*
G01*
X304330800Y-240809800D02*
X304330800Y-241759800D01*
G75*
G02*
X304080800Y-242009800I-250000J0D01*
G01*
X303580800Y-242009800D01*
G75*
G02*
X303330800Y-241759800I0J250000D01*
G01*
X303330800Y-240809800D01*
G75*
G02*
X303580800Y-240559800I250000J0D01*
G01*
X304080800Y-240559800D01*
G75*
G02*
X304330800Y-240809800I0J-250000D01*
G01*
G37*
G36*
G01*
X306230800Y-240809800D02*
X306230800Y-241759800D01*
G75*
G02*
X305980800Y-242009800I-250000J0D01*
G01*
X305480800Y-242009800D01*
G75*
G02*
X305230800Y-241759800I0J250000D01*
G01*
X305230800Y-240809800D01*
G75*
G02*
X305480800Y-240559800I250000J0D01*
G01*
X305980800Y-240559800D01*
G75*
G02*
X306230800Y-240809800I0J-250000D01*
G01*
G37*
%TD*%
%TO.C,LC62*%
G36*
G01*
X323379600Y-240809800D02*
X323379600Y-241759800D01*
G75*
G02*
X323129600Y-242009800I-250000J0D01*
G01*
X322629600Y-242009800D01*
G75*
G02*
X322379600Y-241759800I0J250000D01*
G01*
X322379600Y-240809800D01*
G75*
G02*
X322629600Y-240559800I250000J0D01*
G01*
X323129600Y-240559800D01*
G75*
G02*
X323379600Y-240809800I0J-250000D01*
G01*
G37*
G36*
G01*
X325279600Y-240809800D02*
X325279600Y-241759800D01*
G75*
G02*
X325029600Y-242009800I-250000J0D01*
G01*
X324529600Y-242009800D01*
G75*
G02*
X324279600Y-241759800I0J250000D01*
G01*
X324279600Y-240809800D01*
G75*
G02*
X324529600Y-240559800I250000J0D01*
G01*
X325029600Y-240559800D01*
G75*
G02*
X325279600Y-240809800I0J-250000D01*
G01*
G37*
%TD*%
%TO.C,LC63*%
G36*
G01*
X342428400Y-240809800D02*
X342428400Y-241759800D01*
G75*
G02*
X342178400Y-242009800I-250000J0D01*
G01*
X341678400Y-242009800D01*
G75*
G02*
X341428400Y-241759800I0J250000D01*
G01*
X341428400Y-240809800D01*
G75*
G02*
X341678400Y-240559800I250000J0D01*
G01*
X342178400Y-240559800D01*
G75*
G02*
X342428400Y-240809800I0J-250000D01*
G01*
G37*
G36*
G01*
X344328400Y-240809800D02*
X344328400Y-241759800D01*
G75*
G02*
X344078400Y-242009800I-250000J0D01*
G01*
X343578400Y-242009800D01*
G75*
G02*
X343328400Y-241759800I0J250000D01*
G01*
X343328400Y-240809800D01*
G75*
G02*
X343578400Y-240559800I250000J0D01*
G01*
X344078400Y-240559800D01*
G75*
G02*
X344328400Y-240809800I0J-250000D01*
G01*
G37*
%TD*%
%TO.C,LC64*%
G36*
G01*
X373382700Y-240809800D02*
X373382700Y-241759800D01*
G75*
G02*
X373132700Y-242009800I-250000J0D01*
G01*
X372632700Y-242009800D01*
G75*
G02*
X372382700Y-241759800I0J250000D01*
G01*
X372382700Y-240809800D01*
G75*
G02*
X372632700Y-240559800I250000J0D01*
G01*
X373132700Y-240559800D01*
G75*
G02*
X373382700Y-240809800I0J-250000D01*
G01*
G37*
G36*
G01*
X375282700Y-240809800D02*
X375282700Y-241759800D01*
G75*
G02*
X375032700Y-242009800I-250000J0D01*
G01*
X374532700Y-242009800D01*
G75*
G02*
X374282700Y-241759800I0J250000D01*
G01*
X374282700Y-240809800D01*
G75*
G02*
X374532700Y-240559800I250000J0D01*
G01*
X375032700Y-240559800D01*
G75*
G02*
X375282700Y-240809800I0J-250000D01*
G01*
G37*
%TD*%
%TO.C,LC68*%
G36*
G01*
X180513600Y-259858600D02*
X180513600Y-260808600D01*
G75*
G02*
X180263600Y-261058600I-250000J0D01*
G01*
X179763600Y-261058600D01*
G75*
G02*
X179513600Y-260808600I0J250000D01*
G01*
X179513600Y-259858600D01*
G75*
G02*
X179763600Y-259608600I250000J0D01*
G01*
X180263600Y-259608600D01*
G75*
G02*
X180513600Y-259858600I0J-250000D01*
G01*
G37*
G36*
G01*
X182413600Y-259858600D02*
X182413600Y-260808600D01*
G75*
G02*
X182163600Y-261058600I-250000J0D01*
G01*
X181663600Y-261058600D01*
G75*
G02*
X181413600Y-260808600I0J250000D01*
G01*
X181413600Y-259858600D01*
G75*
G02*
X181663600Y-259608600I250000J0D01*
G01*
X182163600Y-259608600D01*
G75*
G02*
X182413600Y-259858600I0J-250000D01*
G01*
G37*
%TD*%
%TO.C,LC69*%
G36*
G01*
X199562400Y-259858600D02*
X199562400Y-260808600D01*
G75*
G02*
X199312400Y-261058600I-250000J0D01*
G01*
X198812400Y-261058600D01*
G75*
G02*
X198562400Y-260808600I0J250000D01*
G01*
X198562400Y-259858600D01*
G75*
G02*
X198812400Y-259608600I250000J0D01*
G01*
X199312400Y-259608600D01*
G75*
G02*
X199562400Y-259858600I0J-250000D01*
G01*
G37*
G36*
G01*
X201462400Y-259858600D02*
X201462400Y-260808600D01*
G75*
G02*
X201212400Y-261058600I-250000J0D01*
G01*
X200712400Y-261058600D01*
G75*
G02*
X200462400Y-260808600I0J250000D01*
G01*
X200462400Y-259858600D01*
G75*
G02*
X200712400Y-259608600I250000J0D01*
G01*
X201212400Y-259608600D01*
G75*
G02*
X201462400Y-259858600I0J-250000D01*
G01*
G37*
%TD*%
%TO.C,LC70*%
G36*
G01*
X218611200Y-259858600D02*
X218611200Y-260808600D01*
G75*
G02*
X218361200Y-261058600I-250000J0D01*
G01*
X217861200Y-261058600D01*
G75*
G02*
X217611200Y-260808600I0J250000D01*
G01*
X217611200Y-259858600D01*
G75*
G02*
X217861200Y-259608600I250000J0D01*
G01*
X218361200Y-259608600D01*
G75*
G02*
X218611200Y-259858600I0J-250000D01*
G01*
G37*
G36*
G01*
X220511200Y-259858600D02*
X220511200Y-260808600D01*
G75*
G02*
X220261200Y-261058600I-250000J0D01*
G01*
X219761200Y-261058600D01*
G75*
G02*
X219511200Y-260808600I0J250000D01*
G01*
X219511200Y-259858600D01*
G75*
G02*
X219761200Y-259608600I250000J0D01*
G01*
X220261200Y-259608600D01*
G75*
G02*
X220511200Y-259858600I0J-250000D01*
G01*
G37*
%TD*%
%TO.C,LC71*%
G36*
G01*
X237660000Y-259858600D02*
X237660000Y-260808600D01*
G75*
G02*
X237410000Y-261058600I-250000J0D01*
G01*
X236910000Y-261058600D01*
G75*
G02*
X236660000Y-260808600I0J250000D01*
G01*
X236660000Y-259858600D01*
G75*
G02*
X236910000Y-259608600I250000J0D01*
G01*
X237410000Y-259608600D01*
G75*
G02*
X237660000Y-259858600I0J-250000D01*
G01*
G37*
G36*
G01*
X239560000Y-259858600D02*
X239560000Y-260808600D01*
G75*
G02*
X239310000Y-261058600I-250000J0D01*
G01*
X238810000Y-261058600D01*
G75*
G02*
X238560000Y-260808600I0J250000D01*
G01*
X238560000Y-259858600D01*
G75*
G02*
X238810000Y-259608600I250000J0D01*
G01*
X239310000Y-259608600D01*
G75*
G02*
X239560000Y-259858600I0J-250000D01*
G01*
G37*
%TD*%
%TO.C,LC72*%
G36*
G01*
X256708800Y-259858600D02*
X256708800Y-260808600D01*
G75*
G02*
X256458800Y-261058600I-250000J0D01*
G01*
X255958800Y-261058600D01*
G75*
G02*
X255708800Y-260808600I0J250000D01*
G01*
X255708800Y-259858600D01*
G75*
G02*
X255958800Y-259608600I250000J0D01*
G01*
X256458800Y-259608600D01*
G75*
G02*
X256708800Y-259858600I0J-250000D01*
G01*
G37*
G36*
G01*
X258608800Y-259858600D02*
X258608800Y-260808600D01*
G75*
G02*
X258358800Y-261058600I-250000J0D01*
G01*
X257858800Y-261058600D01*
G75*
G02*
X257608800Y-260808600I0J250000D01*
G01*
X257608800Y-259858600D01*
G75*
G02*
X257858800Y-259608600I250000J0D01*
G01*
X258358800Y-259608600D01*
G75*
G02*
X258608800Y-259858600I0J-250000D01*
G01*
G37*
%TD*%
%TO.C,LC73*%
G36*
G01*
X275757600Y-259858600D02*
X275757600Y-260808600D01*
G75*
G02*
X275507600Y-261058600I-250000J0D01*
G01*
X275007600Y-261058600D01*
G75*
G02*
X274757600Y-260808600I0J250000D01*
G01*
X274757600Y-259858600D01*
G75*
G02*
X275007600Y-259608600I250000J0D01*
G01*
X275507600Y-259608600D01*
G75*
G02*
X275757600Y-259858600I0J-250000D01*
G01*
G37*
G36*
G01*
X277657600Y-259858600D02*
X277657600Y-260808600D01*
G75*
G02*
X277407600Y-261058600I-250000J0D01*
G01*
X276907600Y-261058600D01*
G75*
G02*
X276657600Y-260808600I0J250000D01*
G01*
X276657600Y-259858600D01*
G75*
G02*
X276907600Y-259608600I250000J0D01*
G01*
X277407600Y-259608600D01*
G75*
G02*
X277657600Y-259858600I0J-250000D01*
G01*
G37*
%TD*%
%TO.C,LC74*%
G36*
G01*
X294806400Y-259858600D02*
X294806400Y-260808600D01*
G75*
G02*
X294556400Y-261058600I-250000J0D01*
G01*
X294056400Y-261058600D01*
G75*
G02*
X293806400Y-260808600I0J250000D01*
G01*
X293806400Y-259858600D01*
G75*
G02*
X294056400Y-259608600I250000J0D01*
G01*
X294556400Y-259608600D01*
G75*
G02*
X294806400Y-259858600I0J-250000D01*
G01*
G37*
G36*
G01*
X296706400Y-259858600D02*
X296706400Y-260808600D01*
G75*
G02*
X296456400Y-261058600I-250000J0D01*
G01*
X295956400Y-261058600D01*
G75*
G02*
X295706400Y-260808600I0J250000D01*
G01*
X295706400Y-259858600D01*
G75*
G02*
X295956400Y-259608600I250000J0D01*
G01*
X296456400Y-259608600D01*
G75*
G02*
X296706400Y-259858600I0J-250000D01*
G01*
G37*
%TD*%
%TO.C,LC75*%
G36*
G01*
X313855200Y-259858600D02*
X313855200Y-260808600D01*
G75*
G02*
X313605200Y-261058600I-250000J0D01*
G01*
X313105200Y-261058600D01*
G75*
G02*
X312855200Y-260808600I0J250000D01*
G01*
X312855200Y-259858600D01*
G75*
G02*
X313105200Y-259608600I250000J0D01*
G01*
X313605200Y-259608600D01*
G75*
G02*
X313855200Y-259858600I0J-250000D01*
G01*
G37*
G36*
G01*
X315755200Y-259858600D02*
X315755200Y-260808600D01*
G75*
G02*
X315505200Y-261058600I-250000J0D01*
G01*
X315005200Y-261058600D01*
G75*
G02*
X314755200Y-260808600I0J250000D01*
G01*
X314755200Y-259858600D01*
G75*
G02*
X315005200Y-259608600I250000J0D01*
G01*
X315505200Y-259608600D01*
G75*
G02*
X315755200Y-259858600I0J-250000D01*
G01*
G37*
%TD*%
%TO.C,LC76*%
G36*
G01*
X332904000Y-259858600D02*
X332904000Y-260808600D01*
G75*
G02*
X332654000Y-261058600I-250000J0D01*
G01*
X332154000Y-261058600D01*
G75*
G02*
X331904000Y-260808600I0J250000D01*
G01*
X331904000Y-259858600D01*
G75*
G02*
X332154000Y-259608600I250000J0D01*
G01*
X332654000Y-259608600D01*
G75*
G02*
X332904000Y-259858600I0J-250000D01*
G01*
G37*
G36*
G01*
X334804000Y-259858600D02*
X334804000Y-260808600D01*
G75*
G02*
X334554000Y-261058600I-250000J0D01*
G01*
X334054000Y-261058600D01*
G75*
G02*
X333804000Y-260808600I0J250000D01*
G01*
X333804000Y-259858600D01*
G75*
G02*
X334054000Y-259608600I250000J0D01*
G01*
X334554000Y-259608600D01*
G75*
G02*
X334804000Y-259858600I0J-250000D01*
G01*
G37*
%TD*%
%TO.C,LC77*%
G36*
G01*
X368620500Y-259858600D02*
X368620500Y-260808600D01*
G75*
G02*
X368370500Y-261058600I-250000J0D01*
G01*
X367870500Y-261058600D01*
G75*
G02*
X367620500Y-260808600I0J250000D01*
G01*
X367620500Y-259858600D01*
G75*
G02*
X367870500Y-259608600I250000J0D01*
G01*
X368370500Y-259608600D01*
G75*
G02*
X368620500Y-259858600I0J-250000D01*
G01*
G37*
G36*
G01*
X370520500Y-259858600D02*
X370520500Y-260808600D01*
G75*
G02*
X370270500Y-261058600I-250000J0D01*
G01*
X369770500Y-261058600D01*
G75*
G02*
X369520500Y-260808600I0J250000D01*
G01*
X369520500Y-259858600D01*
G75*
G02*
X369770500Y-259608600I250000J0D01*
G01*
X370270500Y-259608600D01*
G75*
G02*
X370520500Y-259858600I0J-250000D01*
G01*
G37*
%TD*%
%TO.C,LC78*%
G36*
G01*
X432910200Y-259858600D02*
X432910200Y-260808600D01*
G75*
G02*
X432660200Y-261058600I-250000J0D01*
G01*
X432160200Y-261058600D01*
G75*
G02*
X431910200Y-260808600I0J250000D01*
G01*
X431910200Y-259858600D01*
G75*
G02*
X432160200Y-259608600I250000J0D01*
G01*
X432660200Y-259608600D01*
G75*
G02*
X432910200Y-259858600I0J-250000D01*
G01*
G37*
G36*
G01*
X434810200Y-259858600D02*
X434810200Y-260808600D01*
G75*
G02*
X434560200Y-261058600I-250000J0D01*
G01*
X434060200Y-261058600D01*
G75*
G02*
X433810200Y-260808600I0J250000D01*
G01*
X433810200Y-259858600D01*
G75*
G02*
X434060200Y-259608600I250000J0D01*
G01*
X434560200Y-259608600D01*
G75*
G02*
X434810200Y-259858600I0J-250000D01*
G01*
G37*
%TD*%
%TO.C,LC82*%
G36*
G01*
X168608100Y-278907400D02*
X168608100Y-279857400D01*
G75*
G02*
X168358100Y-280107400I-250000J0D01*
G01*
X167858100Y-280107400D01*
G75*
G02*
X167608100Y-279857400I0J250000D01*
G01*
X167608100Y-278907400D01*
G75*
G02*
X167858100Y-278657400I250000J0D01*
G01*
X168358100Y-278657400D01*
G75*
G02*
X168608100Y-278907400I0J-250000D01*
G01*
G37*
G36*
G01*
X170508100Y-278907400D02*
X170508100Y-279857400D01*
G75*
G02*
X170258100Y-280107400I-250000J0D01*
G01*
X169758100Y-280107400D01*
G75*
G02*
X169508100Y-279857400I0J250000D01*
G01*
X169508100Y-278907400D01*
G75*
G02*
X169758100Y-278657400I250000J0D01*
G01*
X170258100Y-278657400D01*
G75*
G02*
X170508100Y-278907400I0J-250000D01*
G01*
G37*
%TD*%
%TO.C,LC83*%
G36*
G01*
X240041100Y-278907400D02*
X240041100Y-279857400D01*
G75*
G02*
X239791100Y-280107400I-250000J0D01*
G01*
X239291100Y-280107400D01*
G75*
G02*
X239041100Y-279857400I0J250000D01*
G01*
X239041100Y-278907400D01*
G75*
G02*
X239291100Y-278657400I250000J0D01*
G01*
X239791100Y-278657400D01*
G75*
G02*
X240041100Y-278907400I0J-250000D01*
G01*
G37*
G36*
G01*
X241941100Y-278907400D02*
X241941100Y-279857400D01*
G75*
G02*
X241691100Y-280107400I-250000J0D01*
G01*
X241191100Y-280107400D01*
G75*
G02*
X240941100Y-279857400I0J250000D01*
G01*
X240941100Y-278907400D01*
G75*
G02*
X241191100Y-278657400I250000J0D01*
G01*
X241691100Y-278657400D01*
G75*
G02*
X241941100Y-278907400I0J-250000D01*
G01*
G37*
%TD*%
%TO.C,LC84*%
G36*
G01*
X311474100Y-278907400D02*
X311474100Y-279857400D01*
G75*
G02*
X311224100Y-280107400I-250000J0D01*
G01*
X310724100Y-280107400D01*
G75*
G02*
X310474100Y-279857400I0J250000D01*
G01*
X310474100Y-278907400D01*
G75*
G02*
X310724100Y-278657400I250000J0D01*
G01*
X311224100Y-278657400D01*
G75*
G02*
X311474100Y-278907400I0J-250000D01*
G01*
G37*
G36*
G01*
X313374100Y-278907400D02*
X313374100Y-279857400D01*
G75*
G02*
X313124100Y-280107400I-250000J0D01*
G01*
X312624100Y-280107400D01*
G75*
G02*
X312374100Y-279857400I0J250000D01*
G01*
X312374100Y-278907400D01*
G75*
G02*
X312624100Y-278657400I250000J0D01*
G01*
X313124100Y-278657400D01*
G75*
G02*
X313374100Y-278907400I0J-250000D01*
G01*
G37*
%TD*%
%TO.C,LC85*%
G36*
G01*
X335285100Y-278907400D02*
X335285100Y-279857400D01*
G75*
G02*
X335035100Y-280107400I-250000J0D01*
G01*
X334535100Y-280107400D01*
G75*
G02*
X334285100Y-279857400I0J250000D01*
G01*
X334285100Y-278907400D01*
G75*
G02*
X334535100Y-278657400I250000J0D01*
G01*
X335035100Y-278657400D01*
G75*
G02*
X335285100Y-278907400I0J-250000D01*
G01*
G37*
G36*
G01*
X337185100Y-278907400D02*
X337185100Y-279857400D01*
G75*
G02*
X336935100Y-280107400I-250000J0D01*
G01*
X336435100Y-280107400D01*
G75*
G02*
X336185100Y-279857400I0J250000D01*
G01*
X336185100Y-278907400D01*
G75*
G02*
X336435100Y-278657400I250000J0D01*
G01*
X336935100Y-278657400D01*
G75*
G02*
X337185100Y-278907400I0J-250000D01*
G01*
G37*
%TD*%
%TO.C,LC86*%
G36*
G01*
X359096100Y-278907400D02*
X359096100Y-279857400D01*
G75*
G02*
X358846100Y-280107400I-250000J0D01*
G01*
X358346100Y-280107400D01*
G75*
G02*
X358096100Y-279857400I0J250000D01*
G01*
X358096100Y-278907400D01*
G75*
G02*
X358346100Y-278657400I250000J0D01*
G01*
X358846100Y-278657400D01*
G75*
G02*
X359096100Y-278907400I0J-250000D01*
G01*
G37*
G36*
G01*
X360996100Y-278907400D02*
X360996100Y-279857400D01*
G75*
G02*
X360746100Y-280107400I-250000J0D01*
G01*
X360246100Y-280107400D01*
G75*
G02*
X359996100Y-279857400I0J250000D01*
G01*
X359996100Y-278907400D01*
G75*
G02*
X360246100Y-278657400I250000J0D01*
G01*
X360746100Y-278657400D01*
G75*
G02*
X360996100Y-278907400I0J-250000D01*
G01*
G37*
%TD*%
%TO.C,LC87*%
G36*
G01*
X382907100Y-278907400D02*
X382907100Y-279857400D01*
G75*
G02*
X382657100Y-280107400I-250000J0D01*
G01*
X382157100Y-280107400D01*
G75*
G02*
X381907100Y-279857400I0J250000D01*
G01*
X381907100Y-278907400D01*
G75*
G02*
X382157100Y-278657400I250000J0D01*
G01*
X382657100Y-278657400D01*
G75*
G02*
X382907100Y-278907400I0J-250000D01*
G01*
G37*
G36*
G01*
X384807100Y-278907400D02*
X384807100Y-279857400D01*
G75*
G02*
X384557100Y-280107400I-250000J0D01*
G01*
X384057100Y-280107400D01*
G75*
G02*
X383807100Y-279857400I0J250000D01*
G01*
X383807100Y-278907400D01*
G75*
G02*
X384057100Y-278657400I250000J0D01*
G01*
X384557100Y-278657400D01*
G75*
G02*
X384807100Y-278907400I0J-250000D01*
G01*
G37*
%TD*%
%TO.C,LC88*%
G36*
G01*
X413861400Y-278907400D02*
X413861400Y-279857400D01*
G75*
G02*
X413611400Y-280107400I-250000J0D01*
G01*
X413111400Y-280107400D01*
G75*
G02*
X412861400Y-279857400I0J250000D01*
G01*
X412861400Y-278907400D01*
G75*
G02*
X413111400Y-278657400I250000J0D01*
G01*
X413611400Y-278657400D01*
G75*
G02*
X413861400Y-278907400I0J-250000D01*
G01*
G37*
G36*
G01*
X415761400Y-278907400D02*
X415761400Y-279857400D01*
G75*
G02*
X415511400Y-280107400I-250000J0D01*
G01*
X415011400Y-280107400D01*
G75*
G02*
X414761400Y-279857400I0J250000D01*
G01*
X414761400Y-278907400D01*
G75*
G02*
X415011400Y-278657400I250000J0D01*
G01*
X415511400Y-278657400D01*
G75*
G02*
X415761400Y-278907400I0J-250000D01*
G01*
G37*
%TD*%
%TO.C,LC89*%
G36*
G01*
X432910200Y-278907400D02*
X432910200Y-279857400D01*
G75*
G02*
X432660200Y-280107400I-250000J0D01*
G01*
X432160200Y-280107400D01*
G75*
G02*
X431910200Y-279857400I0J250000D01*
G01*
X431910200Y-278907400D01*
G75*
G02*
X432160200Y-278657400I250000J0D01*
G01*
X432660200Y-278657400D01*
G75*
G02*
X432910200Y-278907400I0J-250000D01*
G01*
G37*
G36*
G01*
X434810200Y-278907400D02*
X434810200Y-279857400D01*
G75*
G02*
X434560200Y-280107400I-250000J0D01*
G01*
X434060200Y-280107400D01*
G75*
G02*
X433810200Y-279857400I0J250000D01*
G01*
X433810200Y-278907400D01*
G75*
G02*
X434060200Y-278657400I250000J0D01*
G01*
X434560200Y-278657400D01*
G75*
G02*
X434810200Y-278907400I0J-250000D01*
G01*
G37*
%TD*%
%TO.C,LC90*%
G36*
G01*
X451959000Y-278914440D02*
X451959000Y-279864440D01*
G75*
G02*
X451709000Y-280114440I-250000J0D01*
G01*
X451209000Y-280114440D01*
G75*
G02*
X450959000Y-279864440I0J250000D01*
G01*
X450959000Y-278914440D01*
G75*
G02*
X451209000Y-278664440I250000J0D01*
G01*
X451709000Y-278664440D01*
G75*
G02*
X451959000Y-278914440I0J-250000D01*
G01*
G37*
G36*
G01*
X453859000Y-278914440D02*
X453859000Y-279864440D01*
G75*
G02*
X453609000Y-280114440I-250000J0D01*
G01*
X453109000Y-280114440D01*
G75*
G02*
X452859000Y-279864440I0J250000D01*
G01*
X452859000Y-278914440D01*
G75*
G02*
X453109000Y-278664440I250000J0D01*
G01*
X453609000Y-278664440D01*
G75*
G02*
X453859000Y-278914440I0J-250000D01*
G01*
G37*
%TD*%
%TO.C,LC1*%
G36*
G01*
X118605000Y-174139000D02*
X118605000Y-175089000D01*
G75*
G02*
X118355000Y-175339000I-250000J0D01*
G01*
X117855000Y-175339000D01*
G75*
G02*
X117605000Y-175089000I0J250000D01*
G01*
X117605000Y-174139000D01*
G75*
G02*
X117855000Y-173889000I250000J0D01*
G01*
X118355000Y-173889000D01*
G75*
G02*
X118605000Y-174139000I0J-250000D01*
G01*
G37*
G36*
G01*
X120505000Y-174139000D02*
X120505000Y-175089000D01*
G75*
G02*
X120255000Y-175339000I-250000J0D01*
G01*
X119755000Y-175339000D01*
G75*
G02*
X119505000Y-175089000I0J250000D01*
G01*
X119505000Y-174139000D01*
G75*
G02*
X119755000Y-173889000I250000J0D01*
G01*
X120255000Y-173889000D01*
G75*
G02*
X120505000Y-174139000I0J-250000D01*
G01*
G37*
%TD*%
%TO.C,LC15*%
G36*
G01*
X94794000Y-202712200D02*
X94794000Y-203662200D01*
G75*
G02*
X94544000Y-203912200I-250000J0D01*
G01*
X94044000Y-203912200D01*
G75*
G02*
X93794000Y-203662200I0J250000D01*
G01*
X93794000Y-202712200D01*
G75*
G02*
X94044000Y-202462200I250000J0D01*
G01*
X94544000Y-202462200D01*
G75*
G02*
X94794000Y-202712200I0J-250000D01*
G01*
G37*
G36*
G01*
X96694000Y-202712200D02*
X96694000Y-203662200D01*
G75*
G02*
X96444000Y-203912200I-250000J0D01*
G01*
X95944000Y-203912200D01*
G75*
G02*
X95694000Y-203662200I0J250000D01*
G01*
X95694000Y-202712200D01*
G75*
G02*
X95944000Y-202462200I250000J0D01*
G01*
X96444000Y-202462200D01*
G75*
G02*
X96694000Y-202712200I0J-250000D01*
G01*
G37*
%TD*%
%TO.C,LC16*%
G36*
G01*
X118605000Y-202712200D02*
X118605000Y-203662200D01*
G75*
G02*
X118355000Y-203912200I-250000J0D01*
G01*
X117855000Y-203912200D01*
G75*
G02*
X117605000Y-203662200I0J250000D01*
G01*
X117605000Y-202712200D01*
G75*
G02*
X117855000Y-202462200I250000J0D01*
G01*
X118355000Y-202462200D01*
G75*
G02*
X118605000Y-202712200I0J-250000D01*
G01*
G37*
G36*
G01*
X120505000Y-202712200D02*
X120505000Y-203662200D01*
G75*
G02*
X120255000Y-203912200I-250000J0D01*
G01*
X119755000Y-203912200D01*
G75*
G02*
X119505000Y-203662200I0J250000D01*
G01*
X119505000Y-202712200D01*
G75*
G02*
X119755000Y-202462200I250000J0D01*
G01*
X120255000Y-202462200D01*
G75*
G02*
X120505000Y-202712200I0J-250000D01*
G01*
G37*
%TD*%
%TO.C,LC17*%
G36*
G01*
X137653800Y-202712200D02*
X137653800Y-203662200D01*
G75*
G02*
X137403800Y-203912200I-250000J0D01*
G01*
X136903800Y-203912200D01*
G75*
G02*
X136653800Y-203662200I0J250000D01*
G01*
X136653800Y-202712200D01*
G75*
G02*
X136903800Y-202462200I250000J0D01*
G01*
X137403800Y-202462200D01*
G75*
G02*
X137653800Y-202712200I0J-250000D01*
G01*
G37*
G36*
G01*
X139553800Y-202712200D02*
X139553800Y-203662200D01*
G75*
G02*
X139303800Y-203912200I-250000J0D01*
G01*
X138803800Y-203912200D01*
G75*
G02*
X138553800Y-203662200I0J250000D01*
G01*
X138553800Y-202712200D01*
G75*
G02*
X138803800Y-202462200I250000J0D01*
G01*
X139303800Y-202462200D01*
G75*
G02*
X139553800Y-202712200I0J-250000D01*
G01*
G37*
%TD*%
%TO.C,LC33*%
G36*
G01*
X94794000Y-221761000D02*
X94794000Y-222711000D01*
G75*
G02*
X94544000Y-222961000I-250000J0D01*
G01*
X94044000Y-222961000D01*
G75*
G02*
X93794000Y-222711000I0J250000D01*
G01*
X93794000Y-221761000D01*
G75*
G02*
X94044000Y-221511000I250000J0D01*
G01*
X94544000Y-221511000D01*
G75*
G02*
X94794000Y-221761000I0J-250000D01*
G01*
G37*
G36*
G01*
X96694000Y-221761000D02*
X96694000Y-222711000D01*
G75*
G02*
X96444000Y-222961000I-250000J0D01*
G01*
X95944000Y-222961000D01*
G75*
G02*
X95694000Y-222711000I0J250000D01*
G01*
X95694000Y-221761000D01*
G75*
G02*
X95944000Y-221511000I250000J0D01*
G01*
X96444000Y-221511000D01*
G75*
G02*
X96694000Y-221761000I0J-250000D01*
G01*
G37*
%TD*%
%TO.C,LC34*%
G36*
G01*
X123367200Y-221761000D02*
X123367200Y-222711000D01*
G75*
G02*
X123117200Y-222961000I-250000J0D01*
G01*
X122617200Y-222961000D01*
G75*
G02*
X122367200Y-222711000I0J250000D01*
G01*
X122367200Y-221761000D01*
G75*
G02*
X122617200Y-221511000I250000J0D01*
G01*
X123117200Y-221511000D01*
G75*
G02*
X123367200Y-221761000I0J-250000D01*
G01*
G37*
G36*
G01*
X125267200Y-221761000D02*
X125267200Y-222711000D01*
G75*
G02*
X125017200Y-222961000I-250000J0D01*
G01*
X124517200Y-222961000D01*
G75*
G02*
X124267200Y-222711000I0J250000D01*
G01*
X124267200Y-221761000D01*
G75*
G02*
X124517200Y-221511000I250000J0D01*
G01*
X125017200Y-221511000D01*
G75*
G02*
X125267200Y-221761000I0J-250000D01*
G01*
G37*
%TD*%
%TO.C,LC35*%
G36*
G01*
X147178200Y-221761000D02*
X147178200Y-222711000D01*
G75*
G02*
X146928200Y-222961000I-250000J0D01*
G01*
X146428200Y-222961000D01*
G75*
G02*
X146178200Y-222711000I0J250000D01*
G01*
X146178200Y-221761000D01*
G75*
G02*
X146428200Y-221511000I250000J0D01*
G01*
X146928200Y-221511000D01*
G75*
G02*
X147178200Y-221761000I0J-250000D01*
G01*
G37*
G36*
G01*
X149078200Y-221761000D02*
X149078200Y-222711000D01*
G75*
G02*
X148828200Y-222961000I-250000J0D01*
G01*
X148328200Y-222961000D01*
G75*
G02*
X148078200Y-222711000I0J250000D01*
G01*
X148078200Y-221761000D01*
G75*
G02*
X148328200Y-221511000I250000J0D01*
G01*
X148828200Y-221511000D01*
G75*
G02*
X149078200Y-221761000I0J-250000D01*
G01*
G37*
%TD*%
%TO.C,LC51*%
G36*
G01*
X94794000Y-240809800D02*
X94794000Y-241759800D01*
G75*
G02*
X94544000Y-242009800I-250000J0D01*
G01*
X94044000Y-242009800D01*
G75*
G02*
X93794000Y-241759800I0J250000D01*
G01*
X93794000Y-240809800D01*
G75*
G02*
X94044000Y-240559800I250000J0D01*
G01*
X94544000Y-240559800D01*
G75*
G02*
X94794000Y-240809800I0J-250000D01*
G01*
G37*
G36*
G01*
X96694000Y-240809800D02*
X96694000Y-241759800D01*
G75*
G02*
X96444000Y-242009800I-250000J0D01*
G01*
X95944000Y-242009800D01*
G75*
G02*
X95694000Y-241759800I0J250000D01*
G01*
X95694000Y-240809800D01*
G75*
G02*
X95944000Y-240559800I250000J0D01*
G01*
X96444000Y-240559800D01*
G75*
G02*
X96694000Y-240809800I0J-250000D01*
G01*
G37*
%TD*%
%TO.C,LC52*%
G36*
G01*
X125748300Y-240809800D02*
X125748300Y-241759800D01*
G75*
G02*
X125498300Y-242009800I-250000J0D01*
G01*
X124998300Y-242009800D01*
G75*
G02*
X124748300Y-241759800I0J250000D01*
G01*
X124748300Y-240809800D01*
G75*
G02*
X124998300Y-240559800I250000J0D01*
G01*
X125498300Y-240559800D01*
G75*
G02*
X125748300Y-240809800I0J-250000D01*
G01*
G37*
G36*
G01*
X127648300Y-240809800D02*
X127648300Y-241759800D01*
G75*
G02*
X127398300Y-242009800I-250000J0D01*
G01*
X126898300Y-242009800D01*
G75*
G02*
X126648300Y-241759800I0J250000D01*
G01*
X126648300Y-240809800D01*
G75*
G02*
X126898300Y-240559800I250000J0D01*
G01*
X127398300Y-240559800D01*
G75*
G02*
X127648300Y-240809800I0J-250000D01*
G01*
G37*
%TD*%
%TO.C,LC53*%
G36*
G01*
X151940400Y-240809800D02*
X151940400Y-241759800D01*
G75*
G02*
X151690400Y-242009800I-250000J0D01*
G01*
X151190400Y-242009800D01*
G75*
G02*
X150940400Y-241759800I0J250000D01*
G01*
X150940400Y-240809800D01*
G75*
G02*
X151190400Y-240559800I250000J0D01*
G01*
X151690400Y-240559800D01*
G75*
G02*
X151940400Y-240809800I0J-250000D01*
G01*
G37*
G36*
G01*
X153840400Y-240809800D02*
X153840400Y-241759800D01*
G75*
G02*
X153590400Y-242009800I-250000J0D01*
G01*
X153090400Y-242009800D01*
G75*
G02*
X152840400Y-241759800I0J250000D01*
G01*
X152840400Y-240809800D01*
G75*
G02*
X153090400Y-240559800I250000J0D01*
G01*
X153590400Y-240559800D01*
G75*
G02*
X153840400Y-240809800I0J-250000D01*
G01*
G37*
%TD*%
%TO.C,LC65*%
G36*
G01*
X94794000Y-259858600D02*
X94794000Y-260808600D01*
G75*
G02*
X94544000Y-261058600I-250000J0D01*
G01*
X94044000Y-261058600D01*
G75*
G02*
X93794000Y-260808600I0J250000D01*
G01*
X93794000Y-259858600D01*
G75*
G02*
X94044000Y-259608600I250000J0D01*
G01*
X94544000Y-259608600D01*
G75*
G02*
X94794000Y-259858600I0J-250000D01*
G01*
G37*
G36*
G01*
X96694000Y-259858600D02*
X96694000Y-260808600D01*
G75*
G02*
X96444000Y-261058600I-250000J0D01*
G01*
X95944000Y-261058600D01*
G75*
G02*
X95694000Y-260808600I0J250000D01*
G01*
X95694000Y-259858600D01*
G75*
G02*
X95944000Y-259608600I250000J0D01*
G01*
X96444000Y-259608600D01*
G75*
G02*
X96694000Y-259858600I0J-250000D01*
G01*
G37*
%TD*%
%TO.C,LC66*%
G36*
G01*
X130510500Y-259858600D02*
X130510500Y-260808600D01*
G75*
G02*
X130260500Y-261058600I-250000J0D01*
G01*
X129760500Y-261058600D01*
G75*
G02*
X129510500Y-260808600I0J250000D01*
G01*
X129510500Y-259858600D01*
G75*
G02*
X129760500Y-259608600I250000J0D01*
G01*
X130260500Y-259608600D01*
G75*
G02*
X130510500Y-259858600I0J-250000D01*
G01*
G37*
G36*
G01*
X132410500Y-259858600D02*
X132410500Y-260808600D01*
G75*
G02*
X132160500Y-261058600I-250000J0D01*
G01*
X131660500Y-261058600D01*
G75*
G02*
X131410500Y-260808600I0J250000D01*
G01*
X131410500Y-259858600D01*
G75*
G02*
X131660500Y-259608600I250000J0D01*
G01*
X132160500Y-259608600D01*
G75*
G02*
X132410500Y-259858600I0J-250000D01*
G01*
G37*
%TD*%
%TO.C,LC67*%
G36*
G01*
X161464800Y-259858600D02*
X161464800Y-260808600D01*
G75*
G02*
X161214800Y-261058600I-250000J0D01*
G01*
X160714800Y-261058600D01*
G75*
G02*
X160464800Y-260808600I0J250000D01*
G01*
X160464800Y-259858600D01*
G75*
G02*
X160714800Y-259608600I250000J0D01*
G01*
X161214800Y-259608600D01*
G75*
G02*
X161464800Y-259858600I0J-250000D01*
G01*
G37*
G36*
G01*
X163364800Y-259858600D02*
X163364800Y-260808600D01*
G75*
G02*
X163114800Y-261058600I-250000J0D01*
G01*
X162614800Y-261058600D01*
G75*
G02*
X162364800Y-260808600I0J250000D01*
G01*
X162364800Y-259858600D01*
G75*
G02*
X162614800Y-259608600I250000J0D01*
G01*
X163114800Y-259608600D01*
G75*
G02*
X163364800Y-259858600I0J-250000D01*
G01*
G37*
%TD*%
%TO.C,LC79*%
G36*
G01*
X94794000Y-278907400D02*
X94794000Y-279857400D01*
G75*
G02*
X94544000Y-280107400I-250000J0D01*
G01*
X94044000Y-280107400D01*
G75*
G02*
X93794000Y-279857400I0J250000D01*
G01*
X93794000Y-278907400D01*
G75*
G02*
X94044000Y-278657400I250000J0D01*
G01*
X94544000Y-278657400D01*
G75*
G02*
X94794000Y-278907400I0J-250000D01*
G01*
G37*
G36*
G01*
X96694000Y-278907400D02*
X96694000Y-279857400D01*
G75*
G02*
X96444000Y-280107400I-250000J0D01*
G01*
X95944000Y-280107400D01*
G75*
G02*
X95694000Y-279857400I0J250000D01*
G01*
X95694000Y-278907400D01*
G75*
G02*
X95944000Y-278657400I250000J0D01*
G01*
X96444000Y-278657400D01*
G75*
G02*
X96694000Y-278907400I0J-250000D01*
G01*
G37*
%TD*%
%TO.C,LC80*%
G36*
G01*
X120986100Y-278907400D02*
X120986100Y-279857400D01*
G75*
G02*
X120736100Y-280107400I-250000J0D01*
G01*
X120236100Y-280107400D01*
G75*
G02*
X119986100Y-279857400I0J250000D01*
G01*
X119986100Y-278907400D01*
G75*
G02*
X120236100Y-278657400I250000J0D01*
G01*
X120736100Y-278657400D01*
G75*
G02*
X120986100Y-278907400I0J-250000D01*
G01*
G37*
G36*
G01*
X122886100Y-278907400D02*
X122886100Y-279857400D01*
G75*
G02*
X122636100Y-280107400I-250000J0D01*
G01*
X122136100Y-280107400D01*
G75*
G02*
X121886100Y-279857400I0J250000D01*
G01*
X121886100Y-278907400D01*
G75*
G02*
X122136100Y-278657400I250000J0D01*
G01*
X122636100Y-278657400D01*
G75*
G02*
X122886100Y-278907400I0J-250000D01*
G01*
G37*
%TD*%
%TO.C,LC81*%
G36*
G01*
X144797100Y-278907400D02*
X144797100Y-279857400D01*
G75*
G02*
X144547100Y-280107400I-250000J0D01*
G01*
X144047100Y-280107400D01*
G75*
G02*
X143797100Y-279857400I0J250000D01*
G01*
X143797100Y-278907400D01*
G75*
G02*
X144047100Y-278657400I250000J0D01*
G01*
X144547100Y-278657400D01*
G75*
G02*
X144797100Y-278907400I0J-250000D01*
G01*
G37*
G36*
G01*
X146697100Y-278907400D02*
X146697100Y-279857400D01*
G75*
G02*
X146447100Y-280107400I-250000J0D01*
G01*
X145947100Y-280107400D01*
G75*
G02*
X145697100Y-279857400I0J250000D01*
G01*
X145697100Y-278907400D01*
G75*
G02*
X145947100Y-278657400I250000J0D01*
G01*
X146447100Y-278657400D01*
G75*
G02*
X146697100Y-278907400I0J-250000D01*
G01*
G37*
%TD*%
%TO.C,R1*%
G36*
G01*
X103631002Y-173420300D02*
X102730998Y-173420300D01*
G75*
G02*
X102481000Y-173170302I0J249998D01*
G01*
X102481000Y-172645298D01*
G75*
G02*
X102730998Y-172395300I249998J0D01*
G01*
X103631002Y-172395300D01*
G75*
G02*
X103881000Y-172645298I0J-249998D01*
G01*
X103881000Y-173170302D01*
G75*
G02*
X103631002Y-173420300I-249998J0D01*
G01*
G37*
G36*
G01*
X103631002Y-175245300D02*
X102730998Y-175245300D01*
G75*
G02*
X102481000Y-174995302I0J249998D01*
G01*
X102481000Y-174470298D01*
G75*
G02*
X102730998Y-174220300I249998J0D01*
G01*
X103631002Y-174220300D01*
G75*
G02*
X103881000Y-174470298I0J-249998D01*
G01*
X103881000Y-174995302D01*
G75*
G02*
X103631002Y-175245300I-249998J0D01*
G01*
G37*
%TD*%
M02*
