%FSLAX45Y45*%
G04 Gerber Fmt 4.5, Leading zero omitted, Abs format (unit mm)*
G04 Created by KiCad (PCBNEW (5.1.10)-1) date 2021-12-20 12:43:56*
%MOMM*%
%LPD*%
G01*
G04 APERTURE LIST*
%TA.AperFunction,Profile*%
%ADD10C,0.100000*%
%TD*%
%ADD11C,0.200000*%
%ADD12C,0.300000*%
G04 APERTURE END LIST*
D10*
X31509890Y-15794630D02*
X45320270Y-15794630D01*
X8175110Y-15794630D02*
X30081230Y-15794630D01*
X7857630Y-28017610D02*
X7857630Y-16112110D01*
X17778880Y-28335090D02*
X8175110Y-28335090D01*
X45320270Y-28335090D02*
X29049420Y-28335090D01*
X45637750Y-16112110D02*
X45637750Y-28017610D01*
X7857630Y-16112110D02*
G75*
G02*
X8175110Y-15794630I317480J0D01*
G01*
X8175110Y-28335090D02*
G75*
G02*
X7857630Y-28017610I0J317480D01*
G01*
X45637750Y-28017610D02*
G75*
G02*
X45320270Y-28335090I-317480J0D01*
G01*
X45320270Y-15794630D02*
G75*
G02*
X45637750Y-16112110I0J-317480D01*
G01*
X27779500Y-28335090D02*
X19048800Y-28335090D01*
X28096980Y-28493830D02*
X27779500Y-28335090D01*
X28731940Y-28493830D02*
X29049420Y-28335090D01*
X28096980Y-28493830D02*
X28731940Y-28493830D01*
X18096360Y-28493830D02*
X17778880Y-28335090D01*
X18731320Y-28493830D02*
X19048800Y-28335090D01*
X18096360Y-28493830D02*
X18731320Y-28493830D01*
X30239970Y-15635890D02*
G75*
G02*
X30081230Y-15794630I-158740J0D01*
G01*
X31509890Y-15794630D02*
G75*
G02*
X31351150Y-15635890I0J158740D01*
G01*
X31351150Y-14921560D02*
X31351150Y-15635890D01*
X30239970Y-14921560D02*
X30239970Y-15635890D01*
X31351150Y-14921560D02*
X30239970Y-14921560D01*
D11*
X30474060Y-15434690D02*
X30539060Y-15499690D01*
X30539060Y-15434690D02*
X30474060Y-15499690D01*
X31052060Y-15434690D02*
X31117060Y-15499690D01*
X31117060Y-15434690D02*
X31052060Y-15499690D01*
X8468940Y-19683760D02*
G75*
G03*
X8468940Y-19683760I-87500J0D01*
G01*
X8468940Y-21588640D02*
G75*
G03*
X8468940Y-21588640I-87500J0D01*
G01*
X8468940Y-23493520D02*
G75*
G03*
X8468940Y-23493520I-87500J0D01*
G01*
X8468940Y-25398400D02*
G75*
G03*
X8468940Y-25398400I-87500J0D01*
G01*
X8468940Y-27303280D02*
G75*
G03*
X8468940Y-27303280I-87500J0D01*
G01*
X9484940Y-19683760D02*
G75*
G03*
X9484940Y-19683760I-87500J0D01*
G01*
X9484940Y-21588640D02*
G75*
G03*
X9484940Y-21588640I-87500J0D01*
G01*
X9484940Y-23493520D02*
G75*
G03*
X9484940Y-23493520I-87500J0D01*
G01*
X9484940Y-25398400D02*
G75*
G03*
X9484940Y-25398400I-87500J0D01*
G01*
X9484940Y-27303280D02*
G75*
G03*
X9484940Y-27303280I-87500J0D01*
G01*
X10850040Y-16826440D02*
G75*
G03*
X10850040Y-16826440I-87500J0D01*
G01*
X10850040Y-19683760D02*
G75*
G03*
X10850040Y-19683760I-87500J0D01*
G01*
X11088150Y-27303280D02*
G75*
G03*
X11088150Y-27303280I-87500J0D01*
G01*
X11326260Y-21588640D02*
G75*
G03*
X11326260Y-21588640I-87500J0D01*
G01*
X11564370Y-23493520D02*
G75*
G03*
X11564370Y-23493520I-87500J0D01*
G01*
X11866040Y-16826440D02*
G75*
G03*
X11866040Y-16826440I-87500J0D01*
G01*
X11866040Y-19683760D02*
G75*
G03*
X11866040Y-19683760I-87500J0D01*
G01*
X12040590Y-25398400D02*
G75*
G03*
X12040590Y-25398400I-87500J0D01*
G01*
X12104150Y-27303280D02*
G75*
G03*
X12104150Y-27303280I-87500J0D01*
G01*
X12342260Y-21588640D02*
G75*
G03*
X12342260Y-21588640I-87500J0D01*
G01*
X12580370Y-23493520D02*
G75*
G03*
X12580370Y-23493520I-87500J0D01*
G01*
X12754920Y-19683760D02*
G75*
G03*
X12754920Y-19683760I-87500J0D01*
G01*
X13056590Y-25398400D02*
G75*
G03*
X13056590Y-25398400I-87500J0D01*
G01*
X13469250Y-27303280D02*
G75*
G03*
X13469250Y-27303280I-87500J0D01*
G01*
X13707360Y-21588640D02*
G75*
G03*
X13707360Y-21588640I-87500J0D01*
G01*
X13770920Y-19683760D02*
G75*
G03*
X13770920Y-19683760I-87500J0D01*
G01*
X14177750Y-23493520D02*
G75*
G03*
X14177750Y-23493520I-87500J0D01*
G01*
X14485250Y-27303280D02*
G75*
G03*
X14485250Y-27303280I-87500J0D01*
G01*
X14659800Y-16826440D02*
G75*
G03*
X14659800Y-16826440I-87500J0D01*
G01*
X14659800Y-19683760D02*
G75*
G03*
X14659800Y-19683760I-87500J0D01*
G01*
X14723360Y-21588640D02*
G75*
G03*
X14723360Y-21588640I-87500J0D01*
G01*
X15136020Y-25398400D02*
G75*
G03*
X15136020Y-25398400I-87500J0D01*
G01*
X15193750Y-23493520D02*
G75*
G03*
X15193750Y-23493520I-87500J0D01*
G01*
X15612240Y-21588640D02*
G75*
G03*
X15612240Y-21588640I-87500J0D01*
G01*
X15675800Y-16826440D02*
G75*
G03*
X15675800Y-16826440I-87500J0D01*
G01*
X15675800Y-19683760D02*
G75*
G03*
X15675800Y-19683760I-87500J0D01*
G01*
X15850350Y-27303280D02*
G75*
G03*
X15850350Y-27303280I-87500J0D01*
G01*
X16088460Y-23493520D02*
G75*
G03*
X16088460Y-23493520I-87500J0D01*
G01*
X16152020Y-25398400D02*
G75*
G03*
X16152020Y-25398400I-87500J0D01*
G01*
X16564680Y-16826440D02*
G75*
G03*
X16564680Y-16826440I-87500J0D01*
G01*
X16564680Y-19683760D02*
G75*
G03*
X16564680Y-19683760I-87500J0D01*
G01*
X16628240Y-21588640D02*
G75*
G03*
X16628240Y-21588640I-87500J0D01*
G01*
X16866350Y-27303280D02*
G75*
G03*
X16866350Y-27303280I-87500J0D01*
G01*
X17040900Y-25398400D02*
G75*
G03*
X17040900Y-25398400I-87500J0D01*
G01*
X17104460Y-23493520D02*
G75*
G03*
X17104460Y-23493520I-87500J0D01*
G01*
X17517120Y-21588640D02*
G75*
G03*
X17517120Y-21588640I-87500J0D01*
G01*
X17580680Y-16826440D02*
G75*
G03*
X17580680Y-16826440I-87500J0D01*
G01*
X17580680Y-19683760D02*
G75*
G03*
X17580680Y-19683760I-87500J0D01*
G01*
X17993340Y-23493520D02*
G75*
G03*
X17993340Y-23493520I-87500J0D01*
G01*
X18056900Y-25398400D02*
G75*
G03*
X18056900Y-25398400I-87500J0D01*
G01*
X18469560Y-16826440D02*
G75*
G03*
X18469560Y-16826440I-87500J0D01*
G01*
X18469560Y-19683760D02*
G75*
G03*
X18469560Y-19683760I-87500J0D01*
G01*
X18533120Y-21588640D02*
G75*
G03*
X18533120Y-21588640I-87500J0D01*
G01*
X18945780Y-25398400D02*
G75*
G03*
X18945780Y-25398400I-87500J0D01*
G01*
X19009340Y-23493520D02*
G75*
G03*
X19009340Y-23493520I-87500J0D01*
G01*
X19422000Y-21588640D02*
G75*
G03*
X19422000Y-21588640I-87500J0D01*
G01*
X19485560Y-16826440D02*
G75*
G03*
X19485560Y-16826440I-87500J0D01*
G01*
X19485560Y-19683760D02*
G75*
G03*
X19485560Y-19683760I-87500J0D01*
G01*
X19898220Y-23493520D02*
G75*
G03*
X19898220Y-23493520I-87500J0D01*
G01*
X19961780Y-25398400D02*
G75*
G03*
X19961780Y-25398400I-87500J0D01*
G01*
X20374440Y-16826440D02*
G75*
G03*
X20374440Y-16826440I-87500J0D01*
G01*
X20374440Y-19683760D02*
G75*
G03*
X20374440Y-19683760I-87500J0D01*
G01*
X20438000Y-21588640D02*
G75*
G03*
X20438000Y-21588640I-87500J0D01*
G01*
X20850660Y-25398400D02*
G75*
G03*
X20850660Y-25398400I-87500J0D01*
G01*
X20914220Y-23493520D02*
G75*
G03*
X20914220Y-23493520I-87500J0D01*
G01*
X21326880Y-21588640D02*
G75*
G03*
X21326880Y-21588640I-87500J0D01*
G01*
X21390440Y-16826440D02*
G75*
G03*
X21390440Y-16826440I-87500J0D01*
G01*
X21390440Y-19683760D02*
G75*
G03*
X21390440Y-19683760I-87500J0D01*
G01*
X21803100Y-23493520D02*
G75*
G03*
X21803100Y-23493520I-87500J0D01*
G01*
X21866660Y-25398400D02*
G75*
G03*
X21866660Y-25398400I-87500J0D01*
G01*
X22279320Y-19683760D02*
G75*
G03*
X22279320Y-19683760I-87500J0D01*
G01*
X22342880Y-21588640D02*
G75*
G03*
X22342880Y-21588640I-87500J0D01*
G01*
X22755540Y-25398400D02*
G75*
G03*
X22755540Y-25398400I-87500J0D01*
G01*
X22819100Y-23493520D02*
G75*
G03*
X22819100Y-23493520I-87500J0D01*
G01*
X22993650Y-27303280D02*
G75*
G03*
X22993650Y-27303280I-87500J0D01*
G01*
X23231760Y-16826440D02*
G75*
G03*
X23231760Y-16826440I-87500J0D01*
G01*
X23231760Y-21588640D02*
G75*
G03*
X23231760Y-21588640I-87500J0D01*
G01*
X23295320Y-19683760D02*
G75*
G03*
X23295320Y-19683760I-87500J0D01*
G01*
X23707980Y-23493520D02*
G75*
G03*
X23707980Y-23493520I-87500J0D01*
G01*
X23771540Y-25398400D02*
G75*
G03*
X23771540Y-25398400I-87500J0D01*
G01*
X24009650Y-27303280D02*
G75*
G03*
X24009650Y-27303280I-87500J0D01*
G01*
X24184200Y-19683760D02*
G75*
G03*
X24184200Y-19683760I-87500J0D01*
G01*
X24247760Y-16826440D02*
G75*
G03*
X24247760Y-16826440I-87500J0D01*
G01*
X24247760Y-21588640D02*
G75*
G03*
X24247760Y-21588640I-87500J0D01*
G01*
X24660420Y-25398400D02*
G75*
G03*
X24660420Y-25398400I-87500J0D01*
G01*
X24723980Y-23493520D02*
G75*
G03*
X24723980Y-23493520I-87500J0D01*
G01*
X25136640Y-16826440D02*
G75*
G03*
X25136640Y-16826440I-87500J0D01*
G01*
X25136640Y-21588640D02*
G75*
G03*
X25136640Y-21588640I-87500J0D01*
G01*
X25200200Y-19683760D02*
G75*
G03*
X25200200Y-19683760I-87500J0D01*
G01*
X25612860Y-23493520D02*
G75*
G03*
X25612860Y-23493520I-87500J0D01*
G01*
X25676420Y-25398400D02*
G75*
G03*
X25676420Y-25398400I-87500J0D01*
G01*
X26089080Y-19683760D02*
G75*
G03*
X26089080Y-19683760I-87500J0D01*
G01*
X26152640Y-16826440D02*
G75*
G03*
X26152640Y-16826440I-87500J0D01*
G01*
X26152640Y-21588640D02*
G75*
G03*
X26152640Y-21588640I-87500J0D01*
G01*
X26565300Y-25398400D02*
G75*
G03*
X26565300Y-25398400I-87500J0D01*
G01*
X26628860Y-23493520D02*
G75*
G03*
X26628860Y-23493520I-87500J0D01*
G01*
X27041520Y-16826440D02*
G75*
G03*
X27041520Y-16826440I-87500J0D01*
G01*
X27041520Y-21588640D02*
G75*
G03*
X27041520Y-21588640I-87500J0D01*
G01*
X27105080Y-19683760D02*
G75*
G03*
X27105080Y-19683760I-87500J0D01*
G01*
X27517740Y-23493520D02*
G75*
G03*
X27517740Y-23493520I-87500J0D01*
G01*
X27581300Y-25398400D02*
G75*
G03*
X27581300Y-25398400I-87500J0D01*
G01*
X27993960Y-19683760D02*
G75*
G03*
X27993960Y-19683760I-87500J0D01*
G01*
X28057520Y-16826440D02*
G75*
G03*
X28057520Y-16826440I-87500J0D01*
G01*
X28057520Y-21588640D02*
G75*
G03*
X28057520Y-21588640I-87500J0D01*
G01*
X28470180Y-25398400D02*
G75*
G03*
X28470180Y-25398400I-87500J0D01*
G01*
X28533740Y-23493520D02*
G75*
G03*
X28533740Y-23493520I-87500J0D01*
G01*
X28946400Y-16826440D02*
G75*
G03*
X28946400Y-16826440I-87500J0D01*
G01*
X28946400Y-21588640D02*
G75*
G03*
X28946400Y-21588640I-87500J0D01*
G01*
X29009960Y-19683760D02*
G75*
G03*
X29009960Y-19683760I-87500J0D01*
G01*
X29422620Y-23493520D02*
G75*
G03*
X29422620Y-23493520I-87500J0D01*
G01*
X29486180Y-25398400D02*
G75*
G03*
X29486180Y-25398400I-87500J0D01*
G01*
X29898840Y-19683760D02*
G75*
G03*
X29898840Y-19683760I-87500J0D01*
G01*
X29962400Y-16826440D02*
G75*
G03*
X29962400Y-16826440I-87500J0D01*
G01*
X29962400Y-21588640D02*
G75*
G03*
X29962400Y-21588640I-87500J0D01*
G01*
X30136950Y-27303280D02*
G75*
G03*
X30136950Y-27303280I-87500J0D01*
G01*
X30375060Y-25398400D02*
G75*
G03*
X30375060Y-25398400I-87500J0D01*
G01*
X30438620Y-23493520D02*
G75*
G03*
X30438620Y-23493520I-87500J0D01*
G01*
X30851280Y-21588640D02*
G75*
G03*
X30851280Y-21588640I-87500J0D01*
G01*
X30914840Y-19683760D02*
G75*
G03*
X30914840Y-19683760I-87500J0D01*
G01*
X31152950Y-27303280D02*
G75*
G03*
X31152950Y-27303280I-87500J0D01*
G01*
X31327500Y-23493520D02*
G75*
G03*
X31327500Y-23493520I-87500J0D01*
G01*
X31391060Y-25398400D02*
G75*
G03*
X31391060Y-25398400I-87500J0D01*
G01*
X31803720Y-16826440D02*
G75*
G03*
X31803720Y-16826440I-87500J0D01*
G01*
X31803720Y-19683760D02*
G75*
G03*
X31803720Y-19683760I-87500J0D01*
G01*
X31867280Y-21588640D02*
G75*
G03*
X31867280Y-21588640I-87500J0D01*
G01*
X32279940Y-25398400D02*
G75*
G03*
X32279940Y-25398400I-87500J0D01*
G01*
X32343500Y-23493520D02*
G75*
G03*
X32343500Y-23493520I-87500J0D01*
G01*
X32518050Y-27303280D02*
G75*
G03*
X32518050Y-27303280I-87500J0D01*
G01*
X32756160Y-21588640D02*
G75*
G03*
X32756160Y-21588640I-87500J0D01*
G01*
X32819720Y-16826440D02*
G75*
G03*
X32819720Y-16826440I-87500J0D01*
G01*
X32819720Y-19683760D02*
G75*
G03*
X32819720Y-19683760I-87500J0D01*
G01*
X33232380Y-23493520D02*
G75*
G03*
X33232380Y-23493520I-87500J0D01*
G01*
X33295940Y-25398400D02*
G75*
G03*
X33295940Y-25398400I-87500J0D01*
G01*
X33534050Y-27303280D02*
G75*
G03*
X33534050Y-27303280I-87500J0D01*
G01*
X33708600Y-16826440D02*
G75*
G03*
X33708600Y-16826440I-87500J0D01*
G01*
X33708600Y-19683760D02*
G75*
G03*
X33708600Y-19683760I-87500J0D01*
G01*
X33772160Y-21588640D02*
G75*
G03*
X33772160Y-21588640I-87500J0D01*
G01*
X34248380Y-23493520D02*
G75*
G03*
X34248380Y-23493520I-87500J0D01*
G01*
X34661040Y-21588640D02*
G75*
G03*
X34661040Y-21588640I-87500J0D01*
G01*
X34724600Y-16826440D02*
G75*
G03*
X34724600Y-16826440I-87500J0D01*
G01*
X34724600Y-19683760D02*
G75*
G03*
X34724600Y-19683760I-87500J0D01*
G01*
X34899150Y-27303280D02*
G75*
G03*
X34899150Y-27303280I-87500J0D01*
G01*
X35613480Y-16826440D02*
G75*
G03*
X35613480Y-16826440I-87500J0D01*
G01*
X35677040Y-21588640D02*
G75*
G03*
X35677040Y-21588640I-87500J0D01*
G01*
X35851590Y-25398400D02*
G75*
G03*
X35851590Y-25398400I-87500J0D01*
G01*
X35915150Y-27303280D02*
G75*
G03*
X35915150Y-27303280I-87500J0D01*
G01*
X36327810Y-23493520D02*
G75*
G03*
X36327810Y-23493520I-87500J0D01*
G01*
X36565920Y-19683760D02*
G75*
G03*
X36565920Y-19683760I-87500J0D01*
G01*
X36629480Y-16826440D02*
G75*
G03*
X36629480Y-16826440I-87500J0D01*
G01*
X36867590Y-25398400D02*
G75*
G03*
X36867590Y-25398400I-87500J0D01*
G01*
X37042140Y-21588640D02*
G75*
G03*
X37042140Y-21588640I-87500J0D01*
G01*
X37280250Y-27303280D02*
G75*
G03*
X37280250Y-27303280I-87500J0D01*
G01*
X37343810Y-23493520D02*
G75*
G03*
X37343810Y-23493520I-87500J0D01*
G01*
X37518360Y-16826440D02*
G75*
G03*
X37518360Y-16826440I-87500J0D01*
G01*
X37581920Y-19683760D02*
G75*
G03*
X37581920Y-19683760I-87500J0D01*
G01*
X38058140Y-21588640D02*
G75*
G03*
X38058140Y-21588640I-87500J0D01*
G01*
X38296250Y-27303280D02*
G75*
G03*
X38296250Y-27303280I-87500J0D01*
G01*
X38534360Y-16826440D02*
G75*
G03*
X38534360Y-16826440I-87500J0D01*
G01*
X40375680Y-16826440D02*
G75*
G03*
X40375680Y-16826440I-87500J0D01*
G01*
X40375680Y-19683760D02*
G75*
G03*
X40375680Y-19683760I-87500J0D01*
G01*
X40375680Y-21588640D02*
G75*
G03*
X40375680Y-21588640I-87500J0D01*
G01*
X40375680Y-27303280D02*
G75*
G03*
X40375680Y-27303280I-87500J0D01*
G01*
X41391680Y-16826440D02*
G75*
G03*
X41391680Y-16826440I-87500J0D01*
G01*
X41391680Y-19683760D02*
G75*
G03*
X41391680Y-19683760I-87500J0D01*
G01*
X41391680Y-21588640D02*
G75*
G03*
X41391680Y-21588640I-87500J0D01*
G01*
X41391680Y-27303280D02*
G75*
G03*
X41391680Y-27303280I-87500J0D01*
G01*
X42280560Y-19683760D02*
G75*
G03*
X42280560Y-19683760I-87500J0D01*
G01*
X42280560Y-21588640D02*
G75*
G03*
X42280560Y-21588640I-87500J0D01*
G01*
X42280560Y-25398400D02*
G75*
G03*
X42280560Y-25398400I-87500J0D01*
G01*
X42280560Y-27303280D02*
G75*
G03*
X42280560Y-27303280I-87500J0D01*
G01*
X43296560Y-19683760D02*
G75*
G03*
X43296560Y-19683760I-87500J0D01*
G01*
X43296560Y-21588640D02*
G75*
G03*
X43296560Y-21588640I-87500J0D01*
G01*
X43296560Y-25398400D02*
G75*
G03*
X43296560Y-25398400I-87500J0D01*
G01*
X43296560Y-27303280D02*
G75*
G03*
X43296560Y-27303280I-87500J0D01*
G01*
X44185440Y-19683760D02*
G75*
G03*
X44185440Y-19683760I-87500J0D01*
G01*
X44185440Y-21588640D02*
G75*
G03*
X44185440Y-21588640I-87500J0D01*
G01*
X44185440Y-27303280D02*
G75*
G03*
X44185440Y-27303280I-87500J0D01*
G01*
X45201440Y-19683760D02*
G75*
G03*
X45201440Y-19683760I-87500J0D01*
G01*
X45201440Y-21588640D02*
G75*
G03*
X45201440Y-21588640I-87500J0D01*
G01*
X45201440Y-27303280D02*
G75*
G03*
X45201440Y-27303280I-87500J0D01*
G01*
X8889440Y-20086260D02*
X8889440Y-20296260D01*
X8784440Y-20191260D02*
X8994440Y-20191260D01*
X8889440Y-21991140D02*
X8889440Y-22201140D01*
X8784440Y-22096140D02*
X8994440Y-22096140D01*
X8889440Y-23896020D02*
X8889440Y-24106020D01*
X8784440Y-24001020D02*
X8994440Y-24001020D01*
X8889440Y-25800900D02*
X8889440Y-26010900D01*
X8784440Y-25905900D02*
X8994440Y-25905900D01*
X8889440Y-27705780D02*
X8889440Y-27915780D01*
X8784440Y-27810780D02*
X8994440Y-27810780D01*
X11270540Y-17228940D02*
X11270540Y-17438940D01*
X11165540Y-17333940D02*
X11375540Y-17333940D01*
X11270540Y-20086260D02*
X11270540Y-20296260D01*
X11165540Y-20191260D02*
X11375540Y-20191260D01*
X11508650Y-27705780D02*
X11508650Y-27915780D01*
X11403650Y-27810780D02*
X11613650Y-27810780D01*
X11746760Y-21991140D02*
X11746760Y-22201140D01*
X11641760Y-22096140D02*
X11851760Y-22096140D01*
X11984870Y-23896020D02*
X11984870Y-24106020D01*
X11879870Y-24001020D02*
X12089870Y-24001020D01*
X12461090Y-25800900D02*
X12461090Y-26010900D01*
X12356090Y-25905900D02*
X12566090Y-25905900D01*
X13175420Y-20086260D02*
X13175420Y-20296260D01*
X13070420Y-20191260D02*
X13280420Y-20191260D01*
X13889750Y-27705780D02*
X13889750Y-27915780D01*
X13784750Y-27810780D02*
X13994750Y-27810780D01*
X14127860Y-21991140D02*
X14127860Y-22201140D01*
X14022860Y-22096140D02*
X14232860Y-22096140D01*
X14604080Y-23896020D02*
X14604080Y-24106020D01*
X14499080Y-24001020D02*
X14709080Y-24001020D01*
X15080300Y-17228940D02*
X15080300Y-17438940D01*
X14975300Y-17333940D02*
X15185300Y-17333940D01*
X15080300Y-20086260D02*
X15080300Y-20296260D01*
X14975300Y-20191260D02*
X15185300Y-20191260D01*
X15556520Y-25800900D02*
X15556520Y-26010900D01*
X15451520Y-25905900D02*
X15661520Y-25905900D01*
X16032740Y-21991140D02*
X16032740Y-22201140D01*
X15927740Y-22096140D02*
X16137740Y-22096140D01*
X16270850Y-27705780D02*
X16270850Y-27915780D01*
X16165850Y-27810780D02*
X16375850Y-27810780D01*
X16508960Y-23896020D02*
X16508960Y-24106020D01*
X16403960Y-24001020D02*
X16613960Y-24001020D01*
X16985180Y-17228940D02*
X16985180Y-17438940D01*
X16880180Y-17333940D02*
X17090180Y-17333940D01*
X16985180Y-20086260D02*
X16985180Y-20296260D01*
X16880180Y-20191260D02*
X17090180Y-20191260D01*
X17461400Y-25800900D02*
X17461400Y-26010900D01*
X17356400Y-25905900D02*
X17566400Y-25905900D01*
X17937620Y-21991140D02*
X17937620Y-22201140D01*
X17832620Y-22096140D02*
X18042620Y-22096140D01*
X18413840Y-23896020D02*
X18413840Y-24106020D01*
X18308840Y-24001020D02*
X18518840Y-24001020D01*
X18890060Y-17228940D02*
X18890060Y-17438940D01*
X18785060Y-17333940D02*
X18995060Y-17333940D01*
X18890060Y-20086260D02*
X18890060Y-20296260D01*
X18785060Y-20191260D02*
X18995060Y-20191260D01*
X19366280Y-25800900D02*
X19366280Y-26010900D01*
X19261280Y-25905900D02*
X19471280Y-25905900D01*
X19842500Y-21991140D02*
X19842500Y-22201140D01*
X19737500Y-22096140D02*
X19947500Y-22096140D01*
X20318720Y-23896020D02*
X20318720Y-24106020D01*
X20213720Y-24001020D02*
X20423720Y-24001020D01*
X20794940Y-17228940D02*
X20794940Y-17438940D01*
X20689940Y-17333940D02*
X20899940Y-17333940D01*
X20794940Y-20086260D02*
X20794940Y-20296260D01*
X20689940Y-20191260D02*
X20899940Y-20191260D01*
X21271160Y-25800900D02*
X21271160Y-26010900D01*
X21166160Y-25905900D02*
X21376160Y-25905900D01*
X21747380Y-21991140D02*
X21747380Y-22201140D01*
X21642380Y-22096140D02*
X21852380Y-22096140D01*
X22223600Y-23896020D02*
X22223600Y-24106020D01*
X22118600Y-24001020D02*
X22328600Y-24001020D01*
X22699820Y-20086260D02*
X22699820Y-20296260D01*
X22594820Y-20191260D02*
X22804820Y-20191260D01*
X23176040Y-25800900D02*
X23176040Y-26010900D01*
X23071040Y-25905900D02*
X23281040Y-25905900D01*
X23414150Y-27705780D02*
X23414150Y-27915780D01*
X23309150Y-27810780D02*
X23519150Y-27810780D01*
X23652260Y-17228940D02*
X23652260Y-17438940D01*
X23547260Y-17333940D02*
X23757260Y-17333940D01*
X23652260Y-21991140D02*
X23652260Y-22201140D01*
X23547260Y-22096140D02*
X23757260Y-22096140D01*
X24128480Y-23896020D02*
X24128480Y-24106020D01*
X24023480Y-24001020D02*
X24233480Y-24001020D01*
X24604700Y-20086260D02*
X24604700Y-20296260D01*
X24499700Y-20191260D02*
X24709700Y-20191260D01*
X25080920Y-25800900D02*
X25080920Y-26010900D01*
X24975920Y-25905900D02*
X25185920Y-25905900D01*
X25557140Y-17228940D02*
X25557140Y-17438940D01*
X25452140Y-17333940D02*
X25662140Y-17333940D01*
X25557140Y-21991140D02*
X25557140Y-22201140D01*
X25452140Y-22096140D02*
X25662140Y-22096140D01*
X26033360Y-23896020D02*
X26033360Y-24106020D01*
X25928360Y-24001020D02*
X26138360Y-24001020D01*
X26509580Y-20086260D02*
X26509580Y-20296260D01*
X26404580Y-20191260D02*
X26614580Y-20191260D01*
X26985800Y-25800900D02*
X26985800Y-26010900D01*
X26880800Y-25905900D02*
X27090800Y-25905900D01*
X27462020Y-17228940D02*
X27462020Y-17438940D01*
X27357020Y-17333940D02*
X27567020Y-17333940D01*
X27462020Y-21991140D02*
X27462020Y-22201140D01*
X27357020Y-22096140D02*
X27567020Y-22096140D01*
X27938240Y-23896020D02*
X27938240Y-24106020D01*
X27833240Y-24001020D02*
X28043240Y-24001020D01*
X28414460Y-20086260D02*
X28414460Y-20296260D01*
X28309460Y-20191260D02*
X28519460Y-20191260D01*
X28890680Y-25800900D02*
X28890680Y-26010900D01*
X28785680Y-25905900D02*
X28995680Y-25905900D01*
X29366900Y-17228940D02*
X29366900Y-17438940D01*
X29261900Y-17333940D02*
X29471900Y-17333940D01*
X29366900Y-21991140D02*
X29366900Y-22201140D01*
X29261900Y-22096140D02*
X29471900Y-22096140D01*
X29843120Y-23896020D02*
X29843120Y-24106020D01*
X29738120Y-24001020D02*
X29948120Y-24001020D01*
X30319340Y-20086260D02*
X30319340Y-20296260D01*
X30214340Y-20191260D02*
X30424340Y-20191260D01*
X30557450Y-27705780D02*
X30557450Y-27915780D01*
X30452450Y-27810780D02*
X30662450Y-27810780D01*
X30795560Y-25800900D02*
X30795560Y-26010900D01*
X30690560Y-25905900D02*
X30900560Y-25905900D01*
X31271780Y-21991140D02*
X31271780Y-22201140D01*
X31166780Y-22096140D02*
X31376780Y-22096140D01*
X31748000Y-23896020D02*
X31748000Y-24106020D01*
X31643000Y-24001020D02*
X31853000Y-24001020D01*
X32224220Y-17228940D02*
X32224220Y-17438940D01*
X32119220Y-17333940D02*
X32329220Y-17333940D01*
X32224220Y-20086260D02*
X32224220Y-20296260D01*
X32119220Y-20191260D02*
X32329220Y-20191260D01*
X32700440Y-25800900D02*
X32700440Y-26010900D01*
X32595440Y-25905900D02*
X32805440Y-25905900D01*
X32938550Y-27705780D02*
X32938550Y-27915780D01*
X32833550Y-27810780D02*
X33043550Y-27810780D01*
X33176660Y-21991140D02*
X33176660Y-22201140D01*
X33071660Y-22096140D02*
X33281660Y-22096140D01*
X33652880Y-23896020D02*
X33652880Y-24106020D01*
X33547880Y-24001020D02*
X33757880Y-24001020D01*
X34129100Y-17228940D02*
X34129100Y-17438940D01*
X34024100Y-17333940D02*
X34234100Y-17333940D01*
X34129100Y-20086260D02*
X34129100Y-20296260D01*
X34024100Y-20191260D02*
X34234100Y-20191260D01*
X35081540Y-21991140D02*
X35081540Y-22201140D01*
X34976540Y-22096140D02*
X35186540Y-22096140D01*
X35319650Y-27705780D02*
X35319650Y-27915780D01*
X35214650Y-27810780D02*
X35424650Y-27810780D01*
X36033980Y-17228940D02*
X36033980Y-17438940D01*
X35928980Y-17333940D02*
X36138980Y-17333940D01*
X36272090Y-25800900D02*
X36272090Y-26010900D01*
X36167090Y-25905900D02*
X36377090Y-25905900D01*
X36748310Y-23896020D02*
X36748310Y-24106020D01*
X36643310Y-24001020D02*
X36853310Y-24001020D01*
X36986420Y-20086260D02*
X36986420Y-20296260D01*
X36881420Y-20191260D02*
X37091420Y-20191260D01*
X37462640Y-21991140D02*
X37462640Y-22201140D01*
X37357640Y-22096140D02*
X37567640Y-22096140D01*
X37700750Y-27705780D02*
X37700750Y-27915780D01*
X37595750Y-27810780D02*
X37805750Y-27810780D01*
X37938860Y-17228940D02*
X37938860Y-17438940D01*
X37833860Y-17333940D02*
X38043860Y-17333940D01*
X40796180Y-17228940D02*
X40796180Y-17438940D01*
X40691180Y-17333940D02*
X40901180Y-17333940D01*
X40796180Y-20086260D02*
X40796180Y-20296260D01*
X40691180Y-20191260D02*
X40901180Y-20191260D01*
X40796180Y-21991140D02*
X40796180Y-22201140D01*
X40691180Y-22096140D02*
X40901180Y-22096140D01*
X40796180Y-27705780D02*
X40796180Y-27915780D01*
X40691180Y-27810780D02*
X40901180Y-27810780D01*
X42701060Y-20086260D02*
X42701060Y-20296260D01*
X42596060Y-20191260D02*
X42806060Y-20191260D01*
X42701060Y-21991140D02*
X42701060Y-22201140D01*
X42596060Y-22096140D02*
X42806060Y-22096140D01*
X42701060Y-25800900D02*
X42701060Y-26010900D01*
X42596060Y-25905900D02*
X42806060Y-25905900D01*
X42701060Y-27705780D02*
X42701060Y-27915780D01*
X42596060Y-27810780D02*
X42806060Y-27810780D01*
X44605940Y-20086260D02*
X44605940Y-20296260D01*
X44500940Y-20191260D02*
X44710940Y-20191260D01*
X44605940Y-21991140D02*
X44605940Y-22201140D01*
X44500940Y-22096140D02*
X44710940Y-22096140D01*
X44605940Y-27705780D02*
X44605940Y-27915780D01*
X44500940Y-27810780D02*
X44710940Y-27810780D01*
X8614507Y-19535827D02*
X8614507Y-19323693D01*
X8402373Y-19323693D01*
X8402373Y-19535827D01*
X8614507Y-19535827D01*
X8614507Y-21440707D02*
X8614507Y-21228573D01*
X8402373Y-21228573D01*
X8402373Y-21440707D01*
X8614507Y-21440707D01*
X8614507Y-23345587D02*
X8614507Y-23133453D01*
X8402373Y-23133453D01*
X8402373Y-23345587D01*
X8614507Y-23345587D01*
X8614507Y-25250467D02*
X8614507Y-25038333D01*
X8402373Y-25038333D01*
X8402373Y-25250467D01*
X8614507Y-25250467D01*
X8614507Y-27155347D02*
X8614507Y-26943213D01*
X8402373Y-26943213D01*
X8402373Y-27155347D01*
X8614507Y-27155347D01*
X9249507Y-19281827D02*
X9249507Y-19069693D01*
X9037373Y-19069693D01*
X9037373Y-19281827D01*
X9249507Y-19281827D01*
X9249507Y-21186707D02*
X9249507Y-20974573D01*
X9037373Y-20974573D01*
X9037373Y-21186707D01*
X9249507Y-21186707D01*
X9249507Y-23091587D02*
X9249507Y-22879453D01*
X9037373Y-22879453D01*
X9037373Y-23091587D01*
X9249507Y-23091587D01*
X9249507Y-24996467D02*
X9249507Y-24784333D01*
X9037373Y-24784333D01*
X9037373Y-24996467D01*
X9249507Y-24996467D01*
X9249507Y-26901347D02*
X9249507Y-26689213D01*
X9037373Y-26689213D01*
X9037373Y-26901347D01*
X9249507Y-26901347D01*
X10995607Y-16678507D02*
X10995607Y-16466373D01*
X10783473Y-16466373D01*
X10783473Y-16678507D01*
X10995607Y-16678507D01*
X10995607Y-19535827D02*
X10995607Y-19323693D01*
X10783473Y-19323693D01*
X10783473Y-19535827D01*
X10995607Y-19535827D01*
X11233717Y-27155347D02*
X11233717Y-26943213D01*
X11021583Y-26943213D01*
X11021583Y-27155347D01*
X11233717Y-27155347D01*
X11471827Y-21440707D02*
X11471827Y-21228573D01*
X11259693Y-21228573D01*
X11259693Y-21440707D01*
X11471827Y-21440707D01*
X11630607Y-16424507D02*
X11630607Y-16212373D01*
X11418473Y-16212373D01*
X11418473Y-16424507D01*
X11630607Y-16424507D01*
X11630607Y-19281827D02*
X11630607Y-19069693D01*
X11418473Y-19069693D01*
X11418473Y-19281827D01*
X11630607Y-19281827D01*
X11709937Y-23345587D02*
X11709937Y-23133453D01*
X11497803Y-23133453D01*
X11497803Y-23345587D01*
X11709937Y-23345587D01*
X11868717Y-26901347D02*
X11868717Y-26689213D01*
X11656583Y-26689213D01*
X11656583Y-26901347D01*
X11868717Y-26901347D01*
X12106827Y-21186707D02*
X12106827Y-20974573D01*
X11894693Y-20974573D01*
X11894693Y-21186707D01*
X12106827Y-21186707D01*
X12186157Y-25250467D02*
X12186157Y-25038333D01*
X11974023Y-25038333D01*
X11974023Y-25250467D01*
X12186157Y-25250467D01*
X12344937Y-23091587D02*
X12344937Y-22879453D01*
X12132803Y-22879453D01*
X12132803Y-23091587D01*
X12344937Y-23091587D01*
X12821157Y-24996467D02*
X12821157Y-24784333D01*
X12609023Y-24784333D01*
X12609023Y-24996467D01*
X12821157Y-24996467D01*
X12900487Y-19535827D02*
X12900487Y-19323693D01*
X12688353Y-19323693D01*
X12688353Y-19535827D01*
X12900487Y-19535827D01*
X13535487Y-19281827D02*
X13535487Y-19069693D01*
X13323353Y-19069693D01*
X13323353Y-19281827D01*
X13535487Y-19281827D01*
X13614817Y-27155347D02*
X13614817Y-26943213D01*
X13402683Y-26943213D01*
X13402683Y-27155347D01*
X13614817Y-27155347D01*
X13852927Y-21440707D02*
X13852927Y-21228573D01*
X13640793Y-21228573D01*
X13640793Y-21440707D01*
X13852927Y-21440707D01*
X14249817Y-26901347D02*
X14249817Y-26689213D01*
X14037683Y-26689213D01*
X14037683Y-26901347D01*
X14249817Y-26901347D01*
X14323317Y-23345587D02*
X14323317Y-23133453D01*
X14111183Y-23133453D01*
X14111183Y-23345587D01*
X14323317Y-23345587D01*
X14487927Y-21186707D02*
X14487927Y-20974573D01*
X14275793Y-20974573D01*
X14275793Y-21186707D01*
X14487927Y-21186707D01*
X14805367Y-16678507D02*
X14805367Y-16466373D01*
X14593233Y-16466373D01*
X14593233Y-16678507D01*
X14805367Y-16678507D01*
X14805367Y-19535827D02*
X14805367Y-19323693D01*
X14593233Y-19323693D01*
X14593233Y-19535827D01*
X14805367Y-19535827D01*
X14958317Y-23091587D02*
X14958317Y-22879453D01*
X14746183Y-22879453D01*
X14746183Y-23091587D01*
X14958317Y-23091587D01*
X15281587Y-25250467D02*
X15281587Y-25038333D01*
X15069453Y-25038333D01*
X15069453Y-25250467D01*
X15281587Y-25250467D01*
X15440367Y-16424507D02*
X15440367Y-16212373D01*
X15228233Y-16212373D01*
X15228233Y-16424507D01*
X15440367Y-16424507D01*
X15440367Y-19281827D02*
X15440367Y-19069693D01*
X15228233Y-19069693D01*
X15228233Y-19281827D01*
X15440367Y-19281827D01*
X15757807Y-21440707D02*
X15757807Y-21228573D01*
X15545673Y-21228573D01*
X15545673Y-21440707D01*
X15757807Y-21440707D01*
X15916587Y-24996467D02*
X15916587Y-24784333D01*
X15704453Y-24784333D01*
X15704453Y-24996467D01*
X15916587Y-24996467D01*
X15995917Y-27155347D02*
X15995917Y-26943213D01*
X15783783Y-26943213D01*
X15783783Y-27155347D01*
X15995917Y-27155347D01*
X16234027Y-23345587D02*
X16234027Y-23133453D01*
X16021893Y-23133453D01*
X16021893Y-23345587D01*
X16234027Y-23345587D01*
X16392807Y-21186707D02*
X16392807Y-20974573D01*
X16180673Y-20974573D01*
X16180673Y-21186707D01*
X16392807Y-21186707D01*
X16630917Y-26901347D02*
X16630917Y-26689213D01*
X16418783Y-26689213D01*
X16418783Y-26901347D01*
X16630917Y-26901347D01*
X16710247Y-16678507D02*
X16710247Y-16466373D01*
X16498113Y-16466373D01*
X16498113Y-16678507D01*
X16710247Y-16678507D01*
X16710247Y-19535827D02*
X16710247Y-19323693D01*
X16498113Y-19323693D01*
X16498113Y-19535827D01*
X16710247Y-19535827D01*
X16869027Y-23091587D02*
X16869027Y-22879453D01*
X16656893Y-22879453D01*
X16656893Y-23091587D01*
X16869027Y-23091587D01*
X17186467Y-25250467D02*
X17186467Y-25038333D01*
X16974333Y-25038333D01*
X16974333Y-25250467D01*
X17186467Y-25250467D01*
X17345247Y-16424507D02*
X17345247Y-16212373D01*
X17133113Y-16212373D01*
X17133113Y-16424507D01*
X17345247Y-16424507D01*
X17345247Y-19281827D02*
X17345247Y-19069693D01*
X17133113Y-19069693D01*
X17133113Y-19281827D01*
X17345247Y-19281827D01*
X17662687Y-21440707D02*
X17662687Y-21228573D01*
X17450553Y-21228573D01*
X17450553Y-21440707D01*
X17662687Y-21440707D01*
X17821467Y-24996467D02*
X17821467Y-24784333D01*
X17609333Y-24784333D01*
X17609333Y-24996467D01*
X17821467Y-24996467D01*
X18138907Y-23345587D02*
X18138907Y-23133453D01*
X17926773Y-23133453D01*
X17926773Y-23345587D01*
X18138907Y-23345587D01*
X18297687Y-21186707D02*
X18297687Y-20974573D01*
X18085553Y-20974573D01*
X18085553Y-21186707D01*
X18297687Y-21186707D01*
X18615127Y-16678507D02*
X18615127Y-16466373D01*
X18402993Y-16466373D01*
X18402993Y-16678507D01*
X18615127Y-16678507D01*
X18615127Y-19535827D02*
X18615127Y-19323693D01*
X18402993Y-19323693D01*
X18402993Y-19535827D01*
X18615127Y-19535827D01*
X18773907Y-23091587D02*
X18773907Y-22879453D01*
X18561773Y-22879453D01*
X18561773Y-23091587D01*
X18773907Y-23091587D01*
X19091347Y-25250467D02*
X19091347Y-25038333D01*
X18879213Y-25038333D01*
X18879213Y-25250467D01*
X19091347Y-25250467D01*
X19250127Y-16424507D02*
X19250127Y-16212373D01*
X19037993Y-16212373D01*
X19037993Y-16424507D01*
X19250127Y-16424507D01*
X19250127Y-19281827D02*
X19250127Y-19069693D01*
X19037993Y-19069693D01*
X19037993Y-19281827D01*
X19250127Y-19281827D01*
X19567567Y-21440707D02*
X19567567Y-21228573D01*
X19355433Y-21228573D01*
X19355433Y-21440707D01*
X19567567Y-21440707D01*
X19726347Y-24996467D02*
X19726347Y-24784333D01*
X19514213Y-24784333D01*
X19514213Y-24996467D01*
X19726347Y-24996467D01*
X20043787Y-23345587D02*
X20043787Y-23133453D01*
X19831653Y-23133453D01*
X19831653Y-23345587D01*
X20043787Y-23345587D01*
X20202567Y-21186707D02*
X20202567Y-20974573D01*
X19990433Y-20974573D01*
X19990433Y-21186707D01*
X20202567Y-21186707D01*
X20520007Y-16678507D02*
X20520007Y-16466373D01*
X20307873Y-16466373D01*
X20307873Y-16678507D01*
X20520007Y-16678507D01*
X20520007Y-19535827D02*
X20520007Y-19323693D01*
X20307873Y-19323693D01*
X20307873Y-19535827D01*
X20520007Y-19535827D01*
X20678787Y-23091587D02*
X20678787Y-22879453D01*
X20466653Y-22879453D01*
X20466653Y-23091587D01*
X20678787Y-23091587D01*
X20996227Y-25250467D02*
X20996227Y-25038333D01*
X20784093Y-25038333D01*
X20784093Y-25250467D01*
X20996227Y-25250467D01*
X21155007Y-16424507D02*
X21155007Y-16212373D01*
X20942873Y-16212373D01*
X20942873Y-16424507D01*
X21155007Y-16424507D01*
X21155007Y-19281827D02*
X21155007Y-19069693D01*
X20942873Y-19069693D01*
X20942873Y-19281827D01*
X21155007Y-19281827D01*
X21472447Y-21440707D02*
X21472447Y-21228573D01*
X21260313Y-21228573D01*
X21260313Y-21440707D01*
X21472447Y-21440707D01*
X21631227Y-24996467D02*
X21631227Y-24784333D01*
X21419093Y-24784333D01*
X21419093Y-24996467D01*
X21631227Y-24996467D01*
X21948667Y-23345587D02*
X21948667Y-23133453D01*
X21736533Y-23133453D01*
X21736533Y-23345587D01*
X21948667Y-23345587D01*
X22107447Y-21186707D02*
X22107447Y-20974573D01*
X21895313Y-20974573D01*
X21895313Y-21186707D01*
X22107447Y-21186707D01*
X22424887Y-19535827D02*
X22424887Y-19323693D01*
X22212753Y-19323693D01*
X22212753Y-19535827D01*
X22424887Y-19535827D01*
X22583667Y-23091587D02*
X22583667Y-22879453D01*
X22371533Y-22879453D01*
X22371533Y-23091587D01*
X22583667Y-23091587D01*
X22901107Y-25250467D02*
X22901107Y-25038333D01*
X22688973Y-25038333D01*
X22688973Y-25250467D01*
X22901107Y-25250467D01*
X23059887Y-19281827D02*
X23059887Y-19069693D01*
X22847753Y-19069693D01*
X22847753Y-19281827D01*
X23059887Y-19281827D01*
X23139217Y-27155347D02*
X23139217Y-26943213D01*
X22927083Y-26943213D01*
X22927083Y-27155347D01*
X23139217Y-27155347D01*
X23377327Y-16678507D02*
X23377327Y-16466373D01*
X23165193Y-16466373D01*
X23165193Y-16678507D01*
X23377327Y-16678507D01*
X23377327Y-21440707D02*
X23377327Y-21228573D01*
X23165193Y-21228573D01*
X23165193Y-21440707D01*
X23377327Y-21440707D01*
X23536107Y-24996467D02*
X23536107Y-24784333D01*
X23323973Y-24784333D01*
X23323973Y-24996467D01*
X23536107Y-24996467D01*
X23774217Y-26901347D02*
X23774217Y-26689213D01*
X23562083Y-26689213D01*
X23562083Y-26901347D01*
X23774217Y-26901347D01*
X23853547Y-23345587D02*
X23853547Y-23133453D01*
X23641413Y-23133453D01*
X23641413Y-23345587D01*
X23853547Y-23345587D01*
X24012327Y-16424507D02*
X24012327Y-16212373D01*
X23800193Y-16212373D01*
X23800193Y-16424507D01*
X24012327Y-16424507D01*
X24012327Y-21186707D02*
X24012327Y-20974573D01*
X23800193Y-20974573D01*
X23800193Y-21186707D01*
X24012327Y-21186707D01*
X24329767Y-19535827D02*
X24329767Y-19323693D01*
X24117633Y-19323693D01*
X24117633Y-19535827D01*
X24329767Y-19535827D01*
X24488547Y-23091587D02*
X24488547Y-22879453D01*
X24276413Y-22879453D01*
X24276413Y-23091587D01*
X24488547Y-23091587D01*
X24805987Y-25250467D02*
X24805987Y-25038333D01*
X24593853Y-25038333D01*
X24593853Y-25250467D01*
X24805987Y-25250467D01*
X24964767Y-19281827D02*
X24964767Y-19069693D01*
X24752633Y-19069693D01*
X24752633Y-19281827D01*
X24964767Y-19281827D01*
X25282207Y-16678507D02*
X25282207Y-16466373D01*
X25070073Y-16466373D01*
X25070073Y-16678507D01*
X25282207Y-16678507D01*
X25282207Y-21440707D02*
X25282207Y-21228573D01*
X25070073Y-21228573D01*
X25070073Y-21440707D01*
X25282207Y-21440707D01*
X25440987Y-24996467D02*
X25440987Y-24784333D01*
X25228853Y-24784333D01*
X25228853Y-24996467D01*
X25440987Y-24996467D01*
X25758427Y-23345587D02*
X25758427Y-23133453D01*
X25546293Y-23133453D01*
X25546293Y-23345587D01*
X25758427Y-23345587D01*
X25917207Y-16424507D02*
X25917207Y-16212373D01*
X25705073Y-16212373D01*
X25705073Y-16424507D01*
X25917207Y-16424507D01*
X25917207Y-21186707D02*
X25917207Y-20974573D01*
X25705073Y-20974573D01*
X25705073Y-21186707D01*
X25917207Y-21186707D01*
X26234647Y-19535827D02*
X26234647Y-19323693D01*
X26022513Y-19323693D01*
X26022513Y-19535827D01*
X26234647Y-19535827D01*
X26393427Y-23091587D02*
X26393427Y-22879453D01*
X26181293Y-22879453D01*
X26181293Y-23091587D01*
X26393427Y-23091587D01*
X26710867Y-25250467D02*
X26710867Y-25038333D01*
X26498733Y-25038333D01*
X26498733Y-25250467D01*
X26710867Y-25250467D01*
X26869647Y-19281827D02*
X26869647Y-19069693D01*
X26657513Y-19069693D01*
X26657513Y-19281827D01*
X26869647Y-19281827D01*
X27187087Y-16678507D02*
X27187087Y-16466373D01*
X26974953Y-16466373D01*
X26974953Y-16678507D01*
X27187087Y-16678507D01*
X27187087Y-21440707D02*
X27187087Y-21228573D01*
X26974953Y-21228573D01*
X26974953Y-21440707D01*
X27187087Y-21440707D01*
X27345867Y-24996467D02*
X27345867Y-24784333D01*
X27133733Y-24784333D01*
X27133733Y-24996467D01*
X27345867Y-24996467D01*
X27663307Y-23345587D02*
X27663307Y-23133453D01*
X27451173Y-23133453D01*
X27451173Y-23345587D01*
X27663307Y-23345587D01*
X27822087Y-16424507D02*
X27822087Y-16212373D01*
X27609953Y-16212373D01*
X27609953Y-16424507D01*
X27822087Y-16424507D01*
X27822087Y-21186707D02*
X27822087Y-20974573D01*
X27609953Y-20974573D01*
X27609953Y-21186707D01*
X27822087Y-21186707D01*
X28139527Y-19535827D02*
X28139527Y-19323693D01*
X27927393Y-19323693D01*
X27927393Y-19535827D01*
X28139527Y-19535827D01*
X28298307Y-23091587D02*
X28298307Y-22879453D01*
X28086173Y-22879453D01*
X28086173Y-23091587D01*
X28298307Y-23091587D01*
X28615747Y-25250467D02*
X28615747Y-25038333D01*
X28403613Y-25038333D01*
X28403613Y-25250467D01*
X28615747Y-25250467D01*
X28774527Y-19281827D02*
X28774527Y-19069693D01*
X28562393Y-19069693D01*
X28562393Y-19281827D01*
X28774527Y-19281827D01*
X29091967Y-16678507D02*
X29091967Y-16466373D01*
X28879833Y-16466373D01*
X28879833Y-16678507D01*
X29091967Y-16678507D01*
X29091967Y-21440707D02*
X29091967Y-21228573D01*
X28879833Y-21228573D01*
X28879833Y-21440707D01*
X29091967Y-21440707D01*
X29250747Y-24996467D02*
X29250747Y-24784333D01*
X29038613Y-24784333D01*
X29038613Y-24996467D01*
X29250747Y-24996467D01*
X29568187Y-23345587D02*
X29568187Y-23133453D01*
X29356053Y-23133453D01*
X29356053Y-23345587D01*
X29568187Y-23345587D01*
X29726967Y-16424507D02*
X29726967Y-16212373D01*
X29514833Y-16212373D01*
X29514833Y-16424507D01*
X29726967Y-16424507D01*
X29726967Y-21186707D02*
X29726967Y-20974573D01*
X29514833Y-20974573D01*
X29514833Y-21186707D01*
X29726967Y-21186707D01*
X30044407Y-19535827D02*
X30044407Y-19323693D01*
X29832273Y-19323693D01*
X29832273Y-19535827D01*
X30044407Y-19535827D01*
X30203187Y-23091587D02*
X30203187Y-22879453D01*
X29991053Y-22879453D01*
X29991053Y-23091587D01*
X30203187Y-23091587D01*
X30282517Y-27155347D02*
X30282517Y-26943213D01*
X30070383Y-26943213D01*
X30070383Y-27155347D01*
X30282517Y-27155347D01*
X30520627Y-25250467D02*
X30520627Y-25038333D01*
X30308493Y-25038333D01*
X30308493Y-25250467D01*
X30520627Y-25250467D01*
X30679407Y-19281827D02*
X30679407Y-19069693D01*
X30467273Y-19069693D01*
X30467273Y-19281827D01*
X30679407Y-19281827D01*
X30917517Y-26901347D02*
X30917517Y-26689213D01*
X30705383Y-26689213D01*
X30705383Y-26901347D01*
X30917517Y-26901347D01*
X30996847Y-21440707D02*
X30996847Y-21228573D01*
X30784713Y-21228573D01*
X30784713Y-21440707D01*
X30996847Y-21440707D01*
X31155627Y-24996467D02*
X31155627Y-24784333D01*
X30943493Y-24784333D01*
X30943493Y-24996467D01*
X31155627Y-24996467D01*
X31473067Y-23345587D02*
X31473067Y-23133453D01*
X31260933Y-23133453D01*
X31260933Y-23345587D01*
X31473067Y-23345587D01*
X31631847Y-21186707D02*
X31631847Y-20974573D01*
X31419713Y-20974573D01*
X31419713Y-21186707D01*
X31631847Y-21186707D01*
X31949287Y-16678507D02*
X31949287Y-16466373D01*
X31737153Y-16466373D01*
X31737153Y-16678507D01*
X31949287Y-16678507D01*
X31949287Y-19535827D02*
X31949287Y-19323693D01*
X31737153Y-19323693D01*
X31737153Y-19535827D01*
X31949287Y-19535827D01*
X32108067Y-23091587D02*
X32108067Y-22879453D01*
X31895933Y-22879453D01*
X31895933Y-23091587D01*
X32108067Y-23091587D01*
X32425507Y-25250467D02*
X32425507Y-25038333D01*
X32213373Y-25038333D01*
X32213373Y-25250467D01*
X32425507Y-25250467D01*
X32584287Y-16424507D02*
X32584287Y-16212373D01*
X32372153Y-16212373D01*
X32372153Y-16424507D01*
X32584287Y-16424507D01*
X32584287Y-19281827D02*
X32584287Y-19069693D01*
X32372153Y-19069693D01*
X32372153Y-19281827D01*
X32584287Y-19281827D01*
X32663617Y-27155347D02*
X32663617Y-26943213D01*
X32451483Y-26943213D01*
X32451483Y-27155347D01*
X32663617Y-27155347D01*
X32901727Y-21440707D02*
X32901727Y-21228573D01*
X32689593Y-21228573D01*
X32689593Y-21440707D01*
X32901727Y-21440707D01*
X33060507Y-24996467D02*
X33060507Y-24784333D01*
X32848373Y-24784333D01*
X32848373Y-24996467D01*
X33060507Y-24996467D01*
X33298617Y-26901347D02*
X33298617Y-26689213D01*
X33086483Y-26689213D01*
X33086483Y-26901347D01*
X33298617Y-26901347D01*
X33377947Y-23345587D02*
X33377947Y-23133453D01*
X33165813Y-23133453D01*
X33165813Y-23345587D01*
X33377947Y-23345587D01*
X33536727Y-21186707D02*
X33536727Y-20974573D01*
X33324593Y-20974573D01*
X33324593Y-21186707D01*
X33536727Y-21186707D01*
X33854167Y-16678507D02*
X33854167Y-16466373D01*
X33642033Y-16466373D01*
X33642033Y-16678507D01*
X33854167Y-16678507D01*
X33854167Y-19535827D02*
X33854167Y-19323693D01*
X33642033Y-19323693D01*
X33642033Y-19535827D01*
X33854167Y-19535827D01*
X34012947Y-23091587D02*
X34012947Y-22879453D01*
X33800813Y-22879453D01*
X33800813Y-23091587D01*
X34012947Y-23091587D01*
X34489167Y-16424507D02*
X34489167Y-16212373D01*
X34277033Y-16212373D01*
X34277033Y-16424507D01*
X34489167Y-16424507D01*
X34489167Y-19281827D02*
X34489167Y-19069693D01*
X34277033Y-19069693D01*
X34277033Y-19281827D01*
X34489167Y-19281827D01*
X34806607Y-21440707D02*
X34806607Y-21228573D01*
X34594473Y-21228573D01*
X34594473Y-21440707D01*
X34806607Y-21440707D01*
X35044717Y-27155347D02*
X35044717Y-26943213D01*
X34832583Y-26943213D01*
X34832583Y-27155347D01*
X35044717Y-27155347D01*
X35441607Y-21186707D02*
X35441607Y-20974573D01*
X35229473Y-20974573D01*
X35229473Y-21186707D01*
X35441607Y-21186707D01*
X35679717Y-26901347D02*
X35679717Y-26689213D01*
X35467583Y-26689213D01*
X35467583Y-26901347D01*
X35679717Y-26901347D01*
X35759047Y-16678507D02*
X35759047Y-16466373D01*
X35546913Y-16466373D01*
X35546913Y-16678507D01*
X35759047Y-16678507D01*
X35997157Y-25250467D02*
X35997157Y-25038333D01*
X35785023Y-25038333D01*
X35785023Y-25250467D01*
X35997157Y-25250467D01*
X36394047Y-16424507D02*
X36394047Y-16212373D01*
X36181913Y-16212373D01*
X36181913Y-16424507D01*
X36394047Y-16424507D01*
X36473377Y-23345587D02*
X36473377Y-23133453D01*
X36261243Y-23133453D01*
X36261243Y-23345587D01*
X36473377Y-23345587D01*
X36632157Y-24996467D02*
X36632157Y-24784333D01*
X36420023Y-24784333D01*
X36420023Y-24996467D01*
X36632157Y-24996467D01*
X36711487Y-19535827D02*
X36711487Y-19323693D01*
X36499353Y-19323693D01*
X36499353Y-19535827D01*
X36711487Y-19535827D01*
X37108377Y-23091587D02*
X37108377Y-22879453D01*
X36896243Y-22879453D01*
X36896243Y-23091587D01*
X37108377Y-23091587D01*
X37187707Y-21440707D02*
X37187707Y-21228573D01*
X36975573Y-21228573D01*
X36975573Y-21440707D01*
X37187707Y-21440707D01*
X37346487Y-19281827D02*
X37346487Y-19069693D01*
X37134353Y-19069693D01*
X37134353Y-19281827D01*
X37346487Y-19281827D01*
X37425817Y-27155347D02*
X37425817Y-26943213D01*
X37213683Y-26943213D01*
X37213683Y-27155347D01*
X37425817Y-27155347D01*
X37663927Y-16678507D02*
X37663927Y-16466373D01*
X37451793Y-16466373D01*
X37451793Y-16678507D01*
X37663927Y-16678507D01*
X37822707Y-21186707D02*
X37822707Y-20974573D01*
X37610573Y-20974573D01*
X37610573Y-21186707D01*
X37822707Y-21186707D01*
X38060817Y-26901347D02*
X38060817Y-26689213D01*
X37848683Y-26689213D01*
X37848683Y-26901347D01*
X38060817Y-26901347D01*
X38298927Y-16424507D02*
X38298927Y-16212373D01*
X38086793Y-16212373D01*
X38086793Y-16424507D01*
X38298927Y-16424507D01*
X40521247Y-16678507D02*
X40521247Y-16466373D01*
X40309113Y-16466373D01*
X40309113Y-16678507D01*
X40521247Y-16678507D01*
X40521247Y-19535827D02*
X40521247Y-19323693D01*
X40309113Y-19323693D01*
X40309113Y-19535827D01*
X40521247Y-19535827D01*
X40521247Y-21440707D02*
X40521247Y-21228573D01*
X40309113Y-21228573D01*
X40309113Y-21440707D01*
X40521247Y-21440707D01*
X40521247Y-27155347D02*
X40521247Y-26943213D01*
X40309113Y-26943213D01*
X40309113Y-27155347D01*
X40521247Y-27155347D01*
X41156247Y-16424507D02*
X41156247Y-16212373D01*
X40944113Y-16212373D01*
X40944113Y-16424507D01*
X41156247Y-16424507D01*
X41156247Y-19281827D02*
X41156247Y-19069693D01*
X40944113Y-19069693D01*
X40944113Y-19281827D01*
X41156247Y-19281827D01*
X41156247Y-21186707D02*
X41156247Y-20974573D01*
X40944113Y-20974573D01*
X40944113Y-21186707D01*
X41156247Y-21186707D01*
X41156247Y-26901347D02*
X41156247Y-26689213D01*
X40944113Y-26689213D01*
X40944113Y-26901347D01*
X41156247Y-26901347D01*
X42426127Y-19535827D02*
X42426127Y-19323693D01*
X42213993Y-19323693D01*
X42213993Y-19535827D01*
X42426127Y-19535827D01*
X42426127Y-21440707D02*
X42426127Y-21228573D01*
X42213993Y-21228573D01*
X42213993Y-21440707D01*
X42426127Y-21440707D01*
X42426127Y-25250467D02*
X42426127Y-25038333D01*
X42213993Y-25038333D01*
X42213993Y-25250467D01*
X42426127Y-25250467D01*
X42426127Y-27155347D02*
X42426127Y-26943213D01*
X42213993Y-26943213D01*
X42213993Y-27155347D01*
X42426127Y-27155347D01*
X43061127Y-19281827D02*
X43061127Y-19069693D01*
X42848993Y-19069693D01*
X42848993Y-19281827D01*
X43061127Y-19281827D01*
X43061127Y-21186707D02*
X43061127Y-20974573D01*
X42848993Y-20974573D01*
X42848993Y-21186707D01*
X43061127Y-21186707D01*
X43061127Y-24996467D02*
X43061127Y-24784333D01*
X42848993Y-24784333D01*
X42848993Y-24996467D01*
X43061127Y-24996467D01*
X43061127Y-26901347D02*
X43061127Y-26689213D01*
X42848993Y-26689213D01*
X42848993Y-26901347D01*
X43061127Y-26901347D01*
X44331007Y-19535827D02*
X44331007Y-19323693D01*
X44118873Y-19323693D01*
X44118873Y-19535827D01*
X44331007Y-19535827D01*
X44331007Y-21440707D02*
X44331007Y-21228573D01*
X44118873Y-21228573D01*
X44118873Y-21440707D01*
X44331007Y-21440707D01*
X44331007Y-27155347D02*
X44331007Y-26943213D01*
X44118873Y-26943213D01*
X44118873Y-27155347D01*
X44331007Y-27155347D01*
X44966007Y-19281827D02*
X44966007Y-19069693D01*
X44753873Y-19069693D01*
X44753873Y-19281827D01*
X44966007Y-19281827D01*
X44966007Y-21186707D02*
X44966007Y-20974573D01*
X44753873Y-20974573D01*
X44753873Y-21186707D01*
X44966007Y-21186707D01*
X44966007Y-26901347D02*
X44966007Y-26689213D01*
X44753873Y-26689213D01*
X44753873Y-26901347D01*
X44966007Y-26901347D01*
X11267290Y-24850900D02*
X11419790Y-24698400D01*
X11267290Y-24545900D01*
X11114790Y-24698400D01*
X11267290Y-24850900D01*
X13654890Y-24850900D02*
X13807390Y-24698400D01*
X13654890Y-24545900D01*
X13502390Y-24698400D01*
X13654890Y-24850900D01*
X18414150Y-26755780D02*
X18566650Y-26603280D01*
X18414150Y-26450780D01*
X18261650Y-26603280D01*
X18414150Y-26755780D01*
X28414150Y-26755780D02*
X28566650Y-26603280D01*
X28414150Y-26450780D01*
X28261650Y-26603280D01*
X28414150Y-26755780D01*
X35078290Y-24850900D02*
X35230790Y-24698400D01*
X35078290Y-24545900D01*
X34925790Y-24698400D01*
X35078290Y-24850900D01*
X35554510Y-22946020D02*
X35707010Y-22793520D01*
X35554510Y-22641020D01*
X35402010Y-22793520D01*
X35554510Y-22946020D01*
X35792620Y-19136260D02*
X35945120Y-18983760D01*
X35792620Y-18831260D01*
X35640120Y-18983760D01*
X35792620Y-19136260D01*
X37465890Y-24850900D02*
X37618390Y-24698400D01*
X37465890Y-24545900D01*
X37313390Y-24698400D01*
X37465890Y-24850900D01*
X37942110Y-22946020D02*
X38094610Y-22793520D01*
X37942110Y-22641020D01*
X37789610Y-22793520D01*
X37942110Y-22946020D01*
X38180220Y-19136260D02*
X38332720Y-18983760D01*
X38180220Y-18831260D01*
X38027720Y-18983760D01*
X38180220Y-19136260D01*
X8689440Y-19483760D02*
X9089440Y-19883760D01*
X9089440Y-19483760D02*
X8689440Y-19883760D01*
X9089440Y-19683760D02*
G75*
G03*
X9089440Y-19683760I-200000J0D01*
G01*
X8689440Y-21388640D02*
X9089440Y-21788640D01*
X9089440Y-21388640D02*
X8689440Y-21788640D01*
X9089440Y-21588640D02*
G75*
G03*
X9089440Y-21588640I-200000J0D01*
G01*
X8689440Y-23293520D02*
X9089440Y-23693520D01*
X9089440Y-23293520D02*
X8689440Y-23693520D01*
X9089440Y-23493520D02*
G75*
G03*
X9089440Y-23493520I-200000J0D01*
G01*
X8689440Y-25198400D02*
X9089440Y-25598400D01*
X9089440Y-25198400D02*
X8689440Y-25598400D01*
X9089440Y-25398400D02*
G75*
G03*
X9089440Y-25398400I-200000J0D01*
G01*
X8689440Y-27103280D02*
X9089440Y-27503280D01*
X9089440Y-27103280D02*
X8689440Y-27503280D01*
X9089440Y-27303280D02*
G75*
G03*
X9089440Y-27303280I-200000J0D01*
G01*
X11067290Y-26022400D02*
X11467290Y-26422400D01*
X11467290Y-26022400D02*
X11067290Y-26422400D01*
X11467290Y-26222400D02*
G75*
G03*
X11467290Y-26222400I-200000J0D01*
G01*
X11070540Y-16626440D02*
X11470540Y-17026440D01*
X11470540Y-16626440D02*
X11070540Y-17026440D01*
X11470540Y-16826440D02*
G75*
G03*
X11470540Y-16826440I-200000J0D01*
G01*
X11070540Y-19483760D02*
X11470540Y-19883760D01*
X11470540Y-19483760D02*
X11070540Y-19883760D01*
X11470540Y-19683760D02*
G75*
G03*
X11470540Y-19683760I-200000J0D01*
G01*
X11308650Y-27103280D02*
X11708650Y-27503280D01*
X11708650Y-27103280D02*
X11308650Y-27503280D01*
X11708650Y-27303280D02*
G75*
G03*
X11708650Y-27303280I-200000J0D01*
G01*
X11546760Y-21388640D02*
X11946760Y-21788640D01*
X11946760Y-21388640D02*
X11546760Y-21788640D01*
X11946760Y-21588640D02*
G75*
G03*
X11946760Y-21588640I-200000J0D01*
G01*
X11784870Y-23293520D02*
X12184870Y-23693520D01*
X12184870Y-23293520D02*
X11784870Y-23693520D01*
X12184870Y-23493520D02*
G75*
G03*
X12184870Y-23493520I-200000J0D01*
G01*
X12261090Y-25198400D02*
X12661090Y-25598400D01*
X12661090Y-25198400D02*
X12261090Y-25598400D01*
X12661090Y-25398400D02*
G75*
G03*
X12661090Y-25398400I-200000J0D01*
G01*
X12975420Y-19483760D02*
X13375420Y-19883760D01*
X13375420Y-19483760D02*
X12975420Y-19883760D01*
X13375420Y-19683760D02*
G75*
G03*
X13375420Y-19683760I-200000J0D01*
G01*
X13454890Y-26022400D02*
X13854890Y-26422400D01*
X13854890Y-26022400D02*
X13454890Y-26422400D01*
X13854890Y-26222400D02*
G75*
G03*
X13854890Y-26222400I-200000J0D01*
G01*
X13689750Y-27103280D02*
X14089750Y-27503280D01*
X14089750Y-27103280D02*
X13689750Y-27503280D01*
X14089750Y-27303280D02*
G75*
G03*
X14089750Y-27303280I-200000J0D01*
G01*
X13927860Y-21388640D02*
X14327860Y-21788640D01*
X14327860Y-21388640D02*
X13927860Y-21788640D01*
X14327860Y-21588640D02*
G75*
G03*
X14327860Y-21588640I-200000J0D01*
G01*
X14398250Y-23293520D02*
X14798250Y-23693520D01*
X14798250Y-23293520D02*
X14398250Y-23693520D01*
X14798250Y-23493520D02*
G75*
G03*
X14798250Y-23493520I-200000J0D01*
G01*
X14880300Y-16626440D02*
X15280300Y-17026440D01*
X15280300Y-16626440D02*
X14880300Y-17026440D01*
X15280300Y-16826440D02*
G75*
G03*
X15280300Y-16826440I-200000J0D01*
G01*
X14880300Y-19483760D02*
X15280300Y-19883760D01*
X15280300Y-19483760D02*
X14880300Y-19883760D01*
X15280300Y-19683760D02*
G75*
G03*
X15280300Y-19683760I-200000J0D01*
G01*
X15356520Y-25198400D02*
X15756520Y-25598400D01*
X15756520Y-25198400D02*
X15356520Y-25598400D01*
X15756520Y-25398400D02*
G75*
G03*
X15756520Y-25398400I-200000J0D01*
G01*
X15832740Y-21388640D02*
X16232740Y-21788640D01*
X16232740Y-21388640D02*
X15832740Y-21788640D01*
X16232740Y-21588640D02*
G75*
G03*
X16232740Y-21588640I-200000J0D01*
G01*
X16070850Y-27103280D02*
X16470850Y-27503280D01*
X16470850Y-27103280D02*
X16070850Y-27503280D01*
X16470850Y-27303280D02*
G75*
G03*
X16470850Y-27303280I-200000J0D01*
G01*
X16308960Y-23293520D02*
X16708960Y-23693520D01*
X16708960Y-23293520D02*
X16308960Y-23693520D01*
X16708960Y-23493520D02*
G75*
G03*
X16708960Y-23493520I-200000J0D01*
G01*
X16785180Y-16626440D02*
X17185180Y-17026440D01*
X17185180Y-16626440D02*
X16785180Y-17026440D01*
X17185180Y-16826440D02*
G75*
G03*
X17185180Y-16826440I-200000J0D01*
G01*
X16785180Y-19483760D02*
X17185180Y-19883760D01*
X17185180Y-19483760D02*
X16785180Y-19883760D01*
X17185180Y-19683760D02*
G75*
G03*
X17185180Y-19683760I-200000J0D01*
G01*
X17261400Y-25198400D02*
X17661400Y-25598400D01*
X17661400Y-25198400D02*
X17261400Y-25598400D01*
X17661400Y-25398400D02*
G75*
G03*
X17661400Y-25398400I-200000J0D01*
G01*
X17737620Y-21388640D02*
X18137620Y-21788640D01*
X18137620Y-21388640D02*
X17737620Y-21788640D01*
X18137620Y-21588640D02*
G75*
G03*
X18137620Y-21588640I-200000J0D01*
G01*
X18213840Y-23293520D02*
X18613840Y-23693520D01*
X18613840Y-23293520D02*
X18213840Y-23693520D01*
X18613840Y-23493520D02*
G75*
G03*
X18613840Y-23493520I-200000J0D01*
G01*
X18214150Y-27927280D02*
X18614150Y-28327280D01*
X18614150Y-27927280D02*
X18214150Y-28327280D01*
X18614150Y-28127280D02*
G75*
G03*
X18614150Y-28127280I-200000J0D01*
G01*
X18690060Y-16626440D02*
X19090060Y-17026440D01*
X19090060Y-16626440D02*
X18690060Y-17026440D01*
X19090060Y-16826440D02*
G75*
G03*
X19090060Y-16826440I-200000J0D01*
G01*
X18690060Y-19483760D02*
X19090060Y-19883760D01*
X19090060Y-19483760D02*
X18690060Y-19883760D01*
X19090060Y-19683760D02*
G75*
G03*
X19090060Y-19683760I-200000J0D01*
G01*
X19166280Y-25198400D02*
X19566280Y-25598400D01*
X19566280Y-25198400D02*
X19166280Y-25598400D01*
X19566280Y-25398400D02*
G75*
G03*
X19566280Y-25398400I-200000J0D01*
G01*
X19642500Y-21388640D02*
X20042500Y-21788640D01*
X20042500Y-21388640D02*
X19642500Y-21788640D01*
X20042500Y-21588640D02*
G75*
G03*
X20042500Y-21588640I-200000J0D01*
G01*
X20118720Y-23293520D02*
X20518720Y-23693520D01*
X20518720Y-23293520D02*
X20118720Y-23693520D01*
X20518720Y-23493520D02*
G75*
G03*
X20518720Y-23493520I-200000J0D01*
G01*
X20594940Y-16626440D02*
X20994940Y-17026440D01*
X20994940Y-16626440D02*
X20594940Y-17026440D01*
X20994940Y-16826440D02*
G75*
G03*
X20994940Y-16826440I-200000J0D01*
G01*
X20594940Y-19483760D02*
X20994940Y-19883760D01*
X20994940Y-19483760D02*
X20594940Y-19883760D01*
X20994940Y-19683760D02*
G75*
G03*
X20994940Y-19683760I-200000J0D01*
G01*
X21071160Y-25198400D02*
X21471160Y-25598400D01*
X21471160Y-25198400D02*
X21071160Y-25598400D01*
X21471160Y-25398400D02*
G75*
G03*
X21471160Y-25398400I-200000J0D01*
G01*
X21547380Y-21388640D02*
X21947380Y-21788640D01*
X21947380Y-21388640D02*
X21547380Y-21788640D01*
X21947380Y-21588640D02*
G75*
G03*
X21947380Y-21588640I-200000J0D01*
G01*
X22023600Y-23293520D02*
X22423600Y-23693520D01*
X22423600Y-23293520D02*
X22023600Y-23693520D01*
X22423600Y-23493520D02*
G75*
G03*
X22423600Y-23493520I-200000J0D01*
G01*
X22499820Y-19483760D02*
X22899820Y-19883760D01*
X22899820Y-19483760D02*
X22499820Y-19883760D01*
X22899820Y-19683760D02*
G75*
G03*
X22899820Y-19683760I-200000J0D01*
G01*
X22976040Y-25198400D02*
X23376040Y-25598400D01*
X23376040Y-25198400D02*
X22976040Y-25598400D01*
X23376040Y-25398400D02*
G75*
G03*
X23376040Y-25398400I-200000J0D01*
G01*
X23214150Y-27103280D02*
X23614150Y-27503280D01*
X23614150Y-27103280D02*
X23214150Y-27503280D01*
X23614150Y-27303280D02*
G75*
G03*
X23614150Y-27303280I-200000J0D01*
G01*
X23452260Y-16626440D02*
X23852260Y-17026440D01*
X23852260Y-16626440D02*
X23452260Y-17026440D01*
X23852260Y-16826440D02*
G75*
G03*
X23852260Y-16826440I-200000J0D01*
G01*
X23452260Y-21388640D02*
X23852260Y-21788640D01*
X23852260Y-21388640D02*
X23452260Y-21788640D01*
X23852260Y-21588640D02*
G75*
G03*
X23852260Y-21588640I-200000J0D01*
G01*
X23928480Y-23293520D02*
X24328480Y-23693520D01*
X24328480Y-23293520D02*
X23928480Y-23693520D01*
X24328480Y-23493520D02*
G75*
G03*
X24328480Y-23493520I-200000J0D01*
G01*
X24404700Y-19483760D02*
X24804700Y-19883760D01*
X24804700Y-19483760D02*
X24404700Y-19883760D01*
X24804700Y-19683760D02*
G75*
G03*
X24804700Y-19683760I-200000J0D01*
G01*
X24880920Y-25198400D02*
X25280920Y-25598400D01*
X25280920Y-25198400D02*
X24880920Y-25598400D01*
X25280920Y-25398400D02*
G75*
G03*
X25280920Y-25398400I-200000J0D01*
G01*
X25357140Y-16626440D02*
X25757140Y-17026440D01*
X25757140Y-16626440D02*
X25357140Y-17026440D01*
X25757140Y-16826440D02*
G75*
G03*
X25757140Y-16826440I-200000J0D01*
G01*
X25357140Y-21388640D02*
X25757140Y-21788640D01*
X25757140Y-21388640D02*
X25357140Y-21788640D01*
X25757140Y-21588640D02*
G75*
G03*
X25757140Y-21588640I-200000J0D01*
G01*
X25833360Y-23293520D02*
X26233360Y-23693520D01*
X26233360Y-23293520D02*
X25833360Y-23693520D01*
X26233360Y-23493520D02*
G75*
G03*
X26233360Y-23493520I-200000J0D01*
G01*
X26309580Y-19483760D02*
X26709580Y-19883760D01*
X26709580Y-19483760D02*
X26309580Y-19883760D01*
X26709580Y-19683760D02*
G75*
G03*
X26709580Y-19683760I-200000J0D01*
G01*
X26785800Y-25198400D02*
X27185800Y-25598400D01*
X27185800Y-25198400D02*
X26785800Y-25598400D01*
X27185800Y-25398400D02*
G75*
G03*
X27185800Y-25398400I-200000J0D01*
G01*
X27262020Y-16626440D02*
X27662020Y-17026440D01*
X27662020Y-16626440D02*
X27262020Y-17026440D01*
X27662020Y-16826440D02*
G75*
G03*
X27662020Y-16826440I-200000J0D01*
G01*
X27262020Y-21388640D02*
X27662020Y-21788640D01*
X27662020Y-21388640D02*
X27262020Y-21788640D01*
X27662020Y-21588640D02*
G75*
G03*
X27662020Y-21588640I-200000J0D01*
G01*
X27738240Y-23293520D02*
X28138240Y-23693520D01*
X28138240Y-23293520D02*
X27738240Y-23693520D01*
X28138240Y-23493520D02*
G75*
G03*
X28138240Y-23493520I-200000J0D01*
G01*
X28214150Y-27927280D02*
X28614150Y-28327280D01*
X28614150Y-27927280D02*
X28214150Y-28327280D01*
X28614150Y-28127280D02*
G75*
G03*
X28614150Y-28127280I-200000J0D01*
G01*
X28214460Y-19483760D02*
X28614460Y-19883760D01*
X28614460Y-19483760D02*
X28214460Y-19883760D01*
X28614460Y-19683760D02*
G75*
G03*
X28614460Y-19683760I-200000J0D01*
G01*
X28690680Y-25198400D02*
X29090680Y-25598400D01*
X29090680Y-25198400D02*
X28690680Y-25598400D01*
X29090680Y-25398400D02*
G75*
G03*
X29090680Y-25398400I-200000J0D01*
G01*
X29166900Y-16626440D02*
X29566900Y-17026440D01*
X29566900Y-16626440D02*
X29166900Y-17026440D01*
X29566900Y-16826440D02*
G75*
G03*
X29566900Y-16826440I-200000J0D01*
G01*
X29166900Y-21388640D02*
X29566900Y-21788640D01*
X29566900Y-21388640D02*
X29166900Y-21788640D01*
X29566900Y-21588640D02*
G75*
G03*
X29566900Y-21588640I-200000J0D01*
G01*
X29643120Y-23293520D02*
X30043120Y-23693520D01*
X30043120Y-23293520D02*
X29643120Y-23693520D01*
X30043120Y-23493520D02*
G75*
G03*
X30043120Y-23493520I-200000J0D01*
G01*
X30119340Y-19483760D02*
X30519340Y-19883760D01*
X30519340Y-19483760D02*
X30119340Y-19883760D01*
X30519340Y-19683760D02*
G75*
G03*
X30519340Y-19683760I-200000J0D01*
G01*
X30357450Y-27103280D02*
X30757450Y-27503280D01*
X30757450Y-27103280D02*
X30357450Y-27503280D01*
X30757450Y-27303280D02*
G75*
G03*
X30757450Y-27303280I-200000J0D01*
G01*
X30595560Y-25198400D02*
X30995560Y-25598400D01*
X30995560Y-25198400D02*
X30595560Y-25598400D01*
X30995560Y-25398400D02*
G75*
G03*
X30995560Y-25398400I-200000J0D01*
G01*
X31071780Y-21388640D02*
X31471780Y-21788640D01*
X31471780Y-21388640D02*
X31071780Y-21788640D01*
X31471780Y-21588640D02*
G75*
G03*
X31471780Y-21588640I-200000J0D01*
G01*
X31548000Y-23293520D02*
X31948000Y-23693520D01*
X31948000Y-23293520D02*
X31548000Y-23693520D01*
X31948000Y-23493520D02*
G75*
G03*
X31948000Y-23493520I-200000J0D01*
G01*
X32024220Y-16626440D02*
X32424220Y-17026440D01*
X32424220Y-16626440D02*
X32024220Y-17026440D01*
X32424220Y-16826440D02*
G75*
G03*
X32424220Y-16826440I-200000J0D01*
G01*
X32024220Y-19483760D02*
X32424220Y-19883760D01*
X32424220Y-19483760D02*
X32024220Y-19883760D01*
X32424220Y-19683760D02*
G75*
G03*
X32424220Y-19683760I-200000J0D01*
G01*
X32500440Y-25198400D02*
X32900440Y-25598400D01*
X32900440Y-25198400D02*
X32500440Y-25598400D01*
X32900440Y-25398400D02*
G75*
G03*
X32900440Y-25398400I-200000J0D01*
G01*
X32738550Y-27103280D02*
X33138550Y-27503280D01*
X33138550Y-27103280D02*
X32738550Y-27503280D01*
X33138550Y-27303280D02*
G75*
G03*
X33138550Y-27303280I-200000J0D01*
G01*
X32976660Y-21388640D02*
X33376660Y-21788640D01*
X33376660Y-21388640D02*
X32976660Y-21788640D01*
X33376660Y-21588640D02*
G75*
G03*
X33376660Y-21588640I-200000J0D01*
G01*
X33452880Y-23293520D02*
X33852880Y-23693520D01*
X33852880Y-23293520D02*
X33452880Y-23693520D01*
X33852880Y-23493520D02*
G75*
G03*
X33852880Y-23493520I-200000J0D01*
G01*
X33929100Y-16626440D02*
X34329100Y-17026440D01*
X34329100Y-16626440D02*
X33929100Y-17026440D01*
X34329100Y-16826440D02*
G75*
G03*
X34329100Y-16826440I-200000J0D01*
G01*
X33929100Y-19483760D02*
X34329100Y-19883760D01*
X34329100Y-19483760D02*
X33929100Y-19883760D01*
X34329100Y-19683760D02*
G75*
G03*
X34329100Y-19683760I-200000J0D01*
G01*
X34878290Y-26022400D02*
X35278290Y-26422400D01*
X35278290Y-26022400D02*
X34878290Y-26422400D01*
X35278290Y-26222400D02*
G75*
G03*
X35278290Y-26222400I-200000J0D01*
G01*
X34881540Y-21388640D02*
X35281540Y-21788640D01*
X35281540Y-21388640D02*
X34881540Y-21788640D01*
X35281540Y-21588640D02*
G75*
G03*
X35281540Y-21588640I-200000J0D01*
G01*
X35119650Y-27103280D02*
X35519650Y-27503280D01*
X35519650Y-27103280D02*
X35119650Y-27503280D01*
X35519650Y-27303280D02*
G75*
G03*
X35519650Y-27303280I-200000J0D01*
G01*
X35354510Y-24117520D02*
X35754510Y-24517520D01*
X35754510Y-24117520D02*
X35354510Y-24517520D01*
X35754510Y-24317520D02*
G75*
G03*
X35754510Y-24317520I-200000J0D01*
G01*
X35592620Y-20307760D02*
X35992620Y-20707760D01*
X35992620Y-20307760D02*
X35592620Y-20707760D01*
X35992620Y-20507760D02*
G75*
G03*
X35992620Y-20507760I-200000J0D01*
G01*
X35833980Y-16626440D02*
X36233980Y-17026440D01*
X36233980Y-16626440D02*
X35833980Y-17026440D01*
X36233980Y-16826440D02*
G75*
G03*
X36233980Y-16826440I-200000J0D01*
G01*
X36072090Y-25198400D02*
X36472090Y-25598400D01*
X36472090Y-25198400D02*
X36072090Y-25598400D01*
X36472090Y-25398400D02*
G75*
G03*
X36472090Y-25398400I-200000J0D01*
G01*
X36548310Y-23293520D02*
X36948310Y-23693520D01*
X36948310Y-23293520D02*
X36548310Y-23693520D01*
X36948310Y-23493520D02*
G75*
G03*
X36948310Y-23493520I-200000J0D01*
G01*
X36786420Y-19483760D02*
X37186420Y-19883760D01*
X37186420Y-19483760D02*
X36786420Y-19883760D01*
X37186420Y-19683760D02*
G75*
G03*
X37186420Y-19683760I-200000J0D01*
G01*
X37262640Y-21388640D02*
X37662640Y-21788640D01*
X37662640Y-21388640D02*
X37262640Y-21788640D01*
X37662640Y-21588640D02*
G75*
G03*
X37662640Y-21588640I-200000J0D01*
G01*
X37265890Y-26022400D02*
X37665890Y-26422400D01*
X37665890Y-26022400D02*
X37265890Y-26422400D01*
X37665890Y-26222400D02*
G75*
G03*
X37665890Y-26222400I-200000J0D01*
G01*
X37500750Y-27103280D02*
X37900750Y-27503280D01*
X37900750Y-27103280D02*
X37500750Y-27503280D01*
X37900750Y-27303280D02*
G75*
G03*
X37900750Y-27303280I-200000J0D01*
G01*
X37738860Y-16626440D02*
X38138860Y-17026440D01*
X38138860Y-16626440D02*
X37738860Y-17026440D01*
X38138860Y-16826440D02*
G75*
G03*
X38138860Y-16826440I-200000J0D01*
G01*
X37742110Y-24117520D02*
X38142110Y-24517520D01*
X38142110Y-24117520D02*
X37742110Y-24517520D01*
X38142110Y-24317520D02*
G75*
G03*
X38142110Y-24317520I-200000J0D01*
G01*
X37980220Y-20307760D02*
X38380220Y-20707760D01*
X38380220Y-20307760D02*
X37980220Y-20707760D01*
X38380220Y-20507760D02*
G75*
G03*
X38380220Y-20507760I-200000J0D01*
G01*
X40596180Y-16626440D02*
X40996180Y-17026440D01*
X40996180Y-16626440D02*
X40596180Y-17026440D01*
X40996180Y-16826440D02*
G75*
G03*
X40996180Y-16826440I-200000J0D01*
G01*
X40596180Y-19483760D02*
X40996180Y-19883760D01*
X40996180Y-19483760D02*
X40596180Y-19883760D01*
X40996180Y-19683760D02*
G75*
G03*
X40996180Y-19683760I-200000J0D01*
G01*
X40596180Y-21388640D02*
X40996180Y-21788640D01*
X40996180Y-21388640D02*
X40596180Y-21788640D01*
X40996180Y-21588640D02*
G75*
G03*
X40996180Y-21588640I-200000J0D01*
G01*
X40596180Y-27103280D02*
X40996180Y-27503280D01*
X40996180Y-27103280D02*
X40596180Y-27503280D01*
X40996180Y-27303280D02*
G75*
G03*
X40996180Y-27303280I-200000J0D01*
G01*
X42501060Y-19483760D02*
X42901060Y-19883760D01*
X42901060Y-19483760D02*
X42501060Y-19883760D01*
X42901060Y-19683760D02*
G75*
G03*
X42901060Y-19683760I-200000J0D01*
G01*
X42501060Y-21388640D02*
X42901060Y-21788640D01*
X42901060Y-21388640D02*
X42501060Y-21788640D01*
X42901060Y-21588640D02*
G75*
G03*
X42901060Y-21588640I-200000J0D01*
G01*
X42501060Y-25198400D02*
X42901060Y-25598400D01*
X42901060Y-25198400D02*
X42501060Y-25598400D01*
X42901060Y-25398400D02*
G75*
G03*
X42901060Y-25398400I-200000J0D01*
G01*
X42501060Y-27103280D02*
X42901060Y-27503280D01*
X42901060Y-27103280D02*
X42501060Y-27503280D01*
X42901060Y-27303280D02*
G75*
G03*
X42901060Y-27303280I-200000J0D01*
G01*
X44405940Y-19483760D02*
X44805940Y-19883760D01*
X44805940Y-19483760D02*
X44405940Y-19883760D01*
X44805940Y-19683760D02*
G75*
G03*
X44805940Y-19683760I-200000J0D01*
G01*
X44405940Y-21388640D02*
X44805940Y-21788640D01*
X44805940Y-21388640D02*
X44405940Y-21788640D01*
X44805940Y-21588640D02*
G75*
G03*
X44805940Y-21588640I-200000J0D01*
G01*
X44405940Y-27103280D02*
X44805940Y-27503280D01*
X44805940Y-27103280D02*
X44405940Y-27503280D01*
X44805940Y-27303280D02*
G75*
G03*
X44805940Y-27303280I-200000J0D01*
G01*
D12*
X8139058Y-28964544D02*
X8139058Y-28664544D01*
X8210487Y-28664544D01*
X8253344Y-28678830D01*
X8281916Y-28707401D01*
X8296201Y-28735973D01*
X8310487Y-28793116D01*
X8310487Y-28835973D01*
X8296201Y-28893116D01*
X8281916Y-28921687D01*
X8253344Y-28950259D01*
X8210487Y-28964544D01*
X8139058Y-28964544D01*
X8439058Y-28964544D02*
X8439058Y-28764544D01*
X8439058Y-28821687D02*
X8453344Y-28793116D01*
X8467630Y-28778830D01*
X8496201Y-28764544D01*
X8524773Y-28764544D01*
X8624773Y-28964544D02*
X8624773Y-28764544D01*
X8624773Y-28664544D02*
X8610487Y-28678830D01*
X8624773Y-28693116D01*
X8639058Y-28678830D01*
X8624773Y-28664544D01*
X8624773Y-28693116D01*
X8810487Y-28964544D02*
X8781916Y-28950259D01*
X8767630Y-28921687D01*
X8767630Y-28664544D01*
X8967630Y-28964544D02*
X8939058Y-28950259D01*
X8924773Y-28921687D01*
X8924773Y-28664544D01*
X9310487Y-28964544D02*
X9310487Y-28664544D01*
X9410487Y-28878830D01*
X9510487Y-28664544D01*
X9510487Y-28964544D01*
X9781916Y-28964544D02*
X9781916Y-28807401D01*
X9767630Y-28778830D01*
X9739058Y-28764544D01*
X9681916Y-28764544D01*
X9653344Y-28778830D01*
X9781916Y-28950259D02*
X9753344Y-28964544D01*
X9681916Y-28964544D01*
X9653344Y-28950259D01*
X9639058Y-28921687D01*
X9639058Y-28893116D01*
X9653344Y-28864544D01*
X9681916Y-28850259D01*
X9753344Y-28850259D01*
X9781916Y-28835973D01*
X9924773Y-28764544D02*
X9924773Y-29064544D01*
X9924773Y-28778830D02*
X9953344Y-28764544D01*
X10010487Y-28764544D01*
X10039058Y-28778830D01*
X10053344Y-28793116D01*
X10067630Y-28821687D01*
X10067630Y-28907401D01*
X10053344Y-28935973D01*
X10039058Y-28950259D01*
X10010487Y-28964544D01*
X9953344Y-28964544D01*
X9924773Y-28950259D01*
X10196201Y-28935973D02*
X10210487Y-28950259D01*
X10196201Y-28964544D01*
X10181916Y-28950259D01*
X10196201Y-28935973D01*
X10196201Y-28964544D01*
X10196201Y-28778830D02*
X10210487Y-28793116D01*
X10196201Y-28807401D01*
X10181916Y-28793116D01*
X10196201Y-28778830D01*
X10196201Y-28807401D01*
X7787630Y-29426330D02*
X7852630Y-29491330D01*
X7852630Y-29426330D02*
X7787630Y-29491330D01*
X8196201Y-29294544D02*
X8224773Y-29294544D01*
X8253344Y-29308830D01*
X8267630Y-29323116D01*
X8281916Y-29351687D01*
X8296201Y-29408830D01*
X8296201Y-29480259D01*
X8281916Y-29537401D01*
X8267630Y-29565973D01*
X8253344Y-29580259D01*
X8224773Y-29594544D01*
X8196201Y-29594544D01*
X8167630Y-29580259D01*
X8153344Y-29565973D01*
X8139058Y-29537401D01*
X8124773Y-29480259D01*
X8124773Y-29408830D01*
X8139058Y-29351687D01*
X8153344Y-29323116D01*
X8167630Y-29308830D01*
X8196201Y-29294544D01*
X8424773Y-29565973D02*
X8439058Y-29580259D01*
X8424773Y-29594544D01*
X8410487Y-29580259D01*
X8424773Y-29565973D01*
X8424773Y-29594544D01*
X8696201Y-29294544D02*
X8639058Y-29294544D01*
X8610487Y-29308830D01*
X8596201Y-29323116D01*
X8567630Y-29365973D01*
X8553344Y-29423116D01*
X8553344Y-29537401D01*
X8567630Y-29565973D01*
X8581916Y-29580259D01*
X8610487Y-29594544D01*
X8667630Y-29594544D01*
X8696201Y-29580259D01*
X8710487Y-29565973D01*
X8724773Y-29537401D01*
X8724773Y-29465973D01*
X8710487Y-29437401D01*
X8696201Y-29423116D01*
X8667630Y-29408830D01*
X8610487Y-29408830D01*
X8581916Y-29423116D01*
X8567630Y-29437401D01*
X8553344Y-29465973D01*
X8996201Y-29294544D02*
X8853344Y-29294544D01*
X8839058Y-29437401D01*
X8853344Y-29423116D01*
X8881916Y-29408830D01*
X8953344Y-29408830D01*
X8981916Y-29423116D01*
X8996201Y-29437401D01*
X9010487Y-29465973D01*
X9010487Y-29537401D01*
X8996201Y-29565973D01*
X8981916Y-29580259D01*
X8953344Y-29594544D01*
X8881916Y-29594544D01*
X8853344Y-29580259D01*
X8839058Y-29565973D01*
X9196201Y-29294544D02*
X9224773Y-29294544D01*
X9253344Y-29308830D01*
X9267630Y-29323116D01*
X9281916Y-29351687D01*
X9296201Y-29408830D01*
X9296201Y-29480259D01*
X9281916Y-29537401D01*
X9267630Y-29565973D01*
X9253344Y-29580259D01*
X9224773Y-29594544D01*
X9196201Y-29594544D01*
X9167630Y-29580259D01*
X9153344Y-29565973D01*
X9139058Y-29537401D01*
X9124773Y-29480259D01*
X9124773Y-29408830D01*
X9139058Y-29351687D01*
X9153344Y-29323116D01*
X9167630Y-29308830D01*
X9196201Y-29294544D01*
X9424773Y-29594544D02*
X9424773Y-29394544D01*
X9424773Y-29423116D02*
X9439058Y-29408830D01*
X9467630Y-29394544D01*
X9510487Y-29394544D01*
X9539058Y-29408830D01*
X9553344Y-29437401D01*
X9553344Y-29594544D01*
X9553344Y-29437401D02*
X9567630Y-29408830D01*
X9596201Y-29394544D01*
X9639058Y-29394544D01*
X9667630Y-29408830D01*
X9681916Y-29437401D01*
X9681916Y-29594544D01*
X9824773Y-29594544D02*
X9824773Y-29394544D01*
X9824773Y-29423116D02*
X9839058Y-29408830D01*
X9867630Y-29394544D01*
X9910487Y-29394544D01*
X9939058Y-29408830D01*
X9953344Y-29437401D01*
X9953344Y-29594544D01*
X9953344Y-29437401D02*
X9967630Y-29408830D01*
X9996201Y-29394544D01*
X10039058Y-29394544D01*
X10067630Y-29408830D01*
X10081916Y-29437401D01*
X10081916Y-29594544D01*
X10667630Y-29280259D02*
X10410487Y-29665973D01*
X11053344Y-29294544D02*
X11081916Y-29294544D01*
X11110487Y-29308830D01*
X11124773Y-29323116D01*
X11139058Y-29351687D01*
X11153344Y-29408830D01*
X11153344Y-29480259D01*
X11139058Y-29537401D01*
X11124773Y-29565973D01*
X11110487Y-29580259D01*
X11081916Y-29594544D01*
X11053344Y-29594544D01*
X11024773Y-29580259D01*
X11010487Y-29565973D01*
X10996201Y-29537401D01*
X10981916Y-29480259D01*
X10981916Y-29408830D01*
X10996201Y-29351687D01*
X11010487Y-29323116D01*
X11024773Y-29308830D01*
X11053344Y-29294544D01*
X11281916Y-29565973D02*
X11296201Y-29580259D01*
X11281916Y-29594544D01*
X11267630Y-29580259D01*
X11281916Y-29565973D01*
X11281916Y-29594544D01*
X11481916Y-29294544D02*
X11510487Y-29294544D01*
X11539058Y-29308830D01*
X11553344Y-29323116D01*
X11567630Y-29351687D01*
X11581916Y-29408830D01*
X11581916Y-29480259D01*
X11567630Y-29537401D01*
X11553344Y-29565973D01*
X11539058Y-29580259D01*
X11510487Y-29594544D01*
X11481916Y-29594544D01*
X11453344Y-29580259D01*
X11439058Y-29565973D01*
X11424773Y-29537401D01*
X11410487Y-29480259D01*
X11410487Y-29408830D01*
X11424773Y-29351687D01*
X11439058Y-29323116D01*
X11453344Y-29308830D01*
X11481916Y-29294544D01*
X11696201Y-29323116D02*
X11710487Y-29308830D01*
X11739058Y-29294544D01*
X11810487Y-29294544D01*
X11839058Y-29308830D01*
X11853344Y-29323116D01*
X11867630Y-29351687D01*
X11867630Y-29380259D01*
X11853344Y-29423116D01*
X11681916Y-29594544D01*
X11867630Y-29594544D01*
X12139058Y-29294544D02*
X11996201Y-29294544D01*
X11981916Y-29437401D01*
X11996201Y-29423116D01*
X12024773Y-29408830D01*
X12096201Y-29408830D01*
X12124773Y-29423116D01*
X12139058Y-29437401D01*
X12153344Y-29465973D01*
X12153344Y-29537401D01*
X12139058Y-29565973D01*
X12124773Y-29580259D01*
X12096201Y-29594544D01*
X12024773Y-29594544D01*
X11996201Y-29580259D01*
X11981916Y-29565973D01*
X12410487Y-29294544D02*
X12353344Y-29294544D01*
X12324773Y-29308830D01*
X12310487Y-29323116D01*
X12281916Y-29365973D01*
X12267630Y-29423116D01*
X12267630Y-29537401D01*
X12281916Y-29565973D01*
X12296201Y-29580259D01*
X12324773Y-29594544D01*
X12381916Y-29594544D01*
X12410487Y-29580259D01*
X12424773Y-29565973D01*
X12439058Y-29537401D01*
X12439058Y-29465973D01*
X12424773Y-29437401D01*
X12410487Y-29423116D01*
X12381916Y-29408830D01*
X12324773Y-29408830D01*
X12296201Y-29423116D01*
X12281916Y-29437401D01*
X12267630Y-29465973D01*
X12553344Y-29294544D02*
X12553344Y-29351687D01*
X12667630Y-29294544D02*
X12667630Y-29351687D01*
X13110487Y-29708830D02*
X13096201Y-29694544D01*
X13067630Y-29651687D01*
X13053344Y-29623116D01*
X13039058Y-29580259D01*
X13024773Y-29508830D01*
X13024773Y-29451687D01*
X13039058Y-29380259D01*
X13053344Y-29337401D01*
X13067630Y-29308830D01*
X13096201Y-29265973D01*
X13110487Y-29251687D01*
X13210487Y-29323116D02*
X13224773Y-29308830D01*
X13253344Y-29294544D01*
X13324773Y-29294544D01*
X13353344Y-29308830D01*
X13367630Y-29323116D01*
X13381916Y-29351687D01*
X13381916Y-29380259D01*
X13367630Y-29423116D01*
X13196201Y-29594544D01*
X13381916Y-29594544D01*
X13739058Y-29594544D02*
X13739058Y-29294544D01*
X13867630Y-29594544D02*
X13867630Y-29437401D01*
X13853344Y-29408830D01*
X13824773Y-29394544D01*
X13781916Y-29394544D01*
X13753344Y-29408830D01*
X13739058Y-29423116D01*
X14053344Y-29594544D02*
X14024773Y-29580259D01*
X14010487Y-29565973D01*
X13996201Y-29537401D01*
X13996201Y-29451687D01*
X14010487Y-29423116D01*
X14024773Y-29408830D01*
X14053344Y-29394544D01*
X14096201Y-29394544D01*
X14124773Y-29408830D01*
X14139058Y-29423116D01*
X14153344Y-29451687D01*
X14153344Y-29537401D01*
X14139058Y-29565973D01*
X14124773Y-29580259D01*
X14096201Y-29594544D01*
X14053344Y-29594544D01*
X14324773Y-29594544D02*
X14296201Y-29580259D01*
X14281916Y-29551687D01*
X14281916Y-29294544D01*
X14553344Y-29580259D02*
X14524773Y-29594544D01*
X14467630Y-29594544D01*
X14439058Y-29580259D01*
X14424773Y-29551687D01*
X14424773Y-29437401D01*
X14439058Y-29408830D01*
X14467630Y-29394544D01*
X14524773Y-29394544D01*
X14553344Y-29408830D01*
X14567630Y-29437401D01*
X14567630Y-29465973D01*
X14424773Y-29494544D01*
X14681916Y-29580259D02*
X14710487Y-29594544D01*
X14767630Y-29594544D01*
X14796201Y-29580259D01*
X14810487Y-29551687D01*
X14810487Y-29537401D01*
X14796201Y-29508830D01*
X14767630Y-29494544D01*
X14724773Y-29494544D01*
X14696201Y-29480259D01*
X14681916Y-29451687D01*
X14681916Y-29437401D01*
X14696201Y-29408830D01*
X14724773Y-29394544D01*
X14767630Y-29394544D01*
X14796201Y-29408830D01*
X14910487Y-29708830D02*
X14924773Y-29694544D01*
X14953344Y-29651687D01*
X14967630Y-29623116D01*
X14981916Y-29580259D01*
X14996201Y-29508830D01*
X14996201Y-29451687D01*
X14981916Y-29380259D01*
X14967630Y-29337401D01*
X14953344Y-29308830D01*
X14924773Y-29265973D01*
X14910487Y-29251687D01*
X15453344Y-29708830D02*
X15439058Y-29694544D01*
X15410487Y-29651687D01*
X15396201Y-29623116D01*
X15381916Y-29580259D01*
X15367630Y-29508830D01*
X15367630Y-29451687D01*
X15381916Y-29380259D01*
X15396201Y-29337401D01*
X15410487Y-29308830D01*
X15439058Y-29265973D01*
X15453344Y-29251687D01*
X15567630Y-29394544D02*
X15567630Y-29594544D01*
X15567630Y-29423116D02*
X15581916Y-29408830D01*
X15610487Y-29394544D01*
X15653344Y-29394544D01*
X15681916Y-29408830D01*
X15696201Y-29437401D01*
X15696201Y-29594544D01*
X15881916Y-29594544D02*
X15853344Y-29580259D01*
X15839058Y-29565973D01*
X15824773Y-29537401D01*
X15824773Y-29451687D01*
X15839058Y-29423116D01*
X15853344Y-29408830D01*
X15881916Y-29394544D01*
X15924773Y-29394544D01*
X15953344Y-29408830D01*
X15967630Y-29423116D01*
X15981916Y-29451687D01*
X15981916Y-29537401D01*
X15967630Y-29565973D01*
X15953344Y-29580259D01*
X15924773Y-29594544D01*
X15881916Y-29594544D01*
X16067630Y-29394544D02*
X16181916Y-29394544D01*
X16110487Y-29294544D02*
X16110487Y-29551687D01*
X16124773Y-29580259D01*
X16153344Y-29594544D01*
X16181916Y-29594544D01*
X16510487Y-29394544D02*
X16510487Y-29694544D01*
X16510487Y-29408830D02*
X16539058Y-29394544D01*
X16596201Y-29394544D01*
X16624773Y-29408830D01*
X16639058Y-29423116D01*
X16653344Y-29451687D01*
X16653344Y-29537401D01*
X16639058Y-29565973D01*
X16624773Y-29580259D01*
X16596201Y-29594544D01*
X16539058Y-29594544D01*
X16510487Y-29580259D01*
X16824773Y-29594544D02*
X16796201Y-29580259D01*
X16781916Y-29551687D01*
X16781916Y-29294544D01*
X17067630Y-29594544D02*
X17067630Y-29437401D01*
X17053344Y-29408830D01*
X17024773Y-29394544D01*
X16967630Y-29394544D01*
X16939058Y-29408830D01*
X17067630Y-29580259D02*
X17039058Y-29594544D01*
X16967630Y-29594544D01*
X16939058Y-29580259D01*
X16924773Y-29551687D01*
X16924773Y-29523116D01*
X16939058Y-29494544D01*
X16967630Y-29480259D01*
X17039058Y-29480259D01*
X17067630Y-29465973D01*
X17167630Y-29394544D02*
X17281916Y-29394544D01*
X17210487Y-29294544D02*
X17210487Y-29551687D01*
X17224773Y-29580259D01*
X17253344Y-29594544D01*
X17281916Y-29594544D01*
X17496201Y-29580259D02*
X17467630Y-29594544D01*
X17410487Y-29594544D01*
X17381916Y-29580259D01*
X17367630Y-29551687D01*
X17367630Y-29437401D01*
X17381916Y-29408830D01*
X17410487Y-29394544D01*
X17467630Y-29394544D01*
X17496201Y-29408830D01*
X17510487Y-29437401D01*
X17510487Y-29465973D01*
X17367630Y-29494544D01*
X17767630Y-29594544D02*
X17767630Y-29294544D01*
X17767630Y-29580259D02*
X17739058Y-29594544D01*
X17681916Y-29594544D01*
X17653344Y-29580259D01*
X17639058Y-29565973D01*
X17624773Y-29537401D01*
X17624773Y-29451687D01*
X17639058Y-29423116D01*
X17653344Y-29408830D01*
X17681916Y-29394544D01*
X17739058Y-29394544D01*
X17767630Y-29408830D01*
X17881916Y-29708830D02*
X17896201Y-29694544D01*
X17924773Y-29651687D01*
X17939058Y-29623116D01*
X17953344Y-29580259D01*
X17967630Y-29508830D01*
X17967630Y-29451687D01*
X17953344Y-29380259D01*
X17939058Y-29337401D01*
X17924773Y-29308830D01*
X17896201Y-29265973D01*
X17881916Y-29251687D01*
X7852630Y-29854830D02*
G75*
G03*
X7852630Y-29854830I-87500J0D01*
G01*
X8296201Y-29990544D02*
X8124773Y-29990544D01*
X8210487Y-29990544D02*
X8210487Y-29690544D01*
X8181916Y-29733401D01*
X8153344Y-29761973D01*
X8124773Y-29776259D01*
X8424773Y-29961973D02*
X8439058Y-29976259D01*
X8424773Y-29990544D01*
X8410487Y-29976259D01*
X8424773Y-29961973D01*
X8424773Y-29990544D01*
X8539058Y-29690544D02*
X8739058Y-29690544D01*
X8610487Y-29990544D01*
X8996201Y-29690544D02*
X8853344Y-29690544D01*
X8839058Y-29833401D01*
X8853344Y-29819116D01*
X8881916Y-29804830D01*
X8953344Y-29804830D01*
X8981916Y-29819116D01*
X8996201Y-29833401D01*
X9010487Y-29861973D01*
X9010487Y-29933401D01*
X8996201Y-29961973D01*
X8981916Y-29976259D01*
X8953344Y-29990544D01*
X8881916Y-29990544D01*
X8853344Y-29976259D01*
X8839058Y-29961973D01*
X9196201Y-29690544D02*
X9224773Y-29690544D01*
X9253344Y-29704830D01*
X9267630Y-29719116D01*
X9281916Y-29747687D01*
X9296201Y-29804830D01*
X9296201Y-29876259D01*
X9281916Y-29933401D01*
X9267630Y-29961973D01*
X9253344Y-29976259D01*
X9224773Y-29990544D01*
X9196201Y-29990544D01*
X9167630Y-29976259D01*
X9153344Y-29961973D01*
X9139058Y-29933401D01*
X9124773Y-29876259D01*
X9124773Y-29804830D01*
X9139058Y-29747687D01*
X9153344Y-29719116D01*
X9167630Y-29704830D01*
X9196201Y-29690544D01*
X9424773Y-29990544D02*
X9424773Y-29790544D01*
X9424773Y-29819116D02*
X9439058Y-29804830D01*
X9467630Y-29790544D01*
X9510487Y-29790544D01*
X9539058Y-29804830D01*
X9553344Y-29833401D01*
X9553344Y-29990544D01*
X9553344Y-29833401D02*
X9567630Y-29804830D01*
X9596201Y-29790544D01*
X9639058Y-29790544D01*
X9667630Y-29804830D01*
X9681916Y-29833401D01*
X9681916Y-29990544D01*
X9824773Y-29990544D02*
X9824773Y-29790544D01*
X9824773Y-29819116D02*
X9839058Y-29804830D01*
X9867630Y-29790544D01*
X9910487Y-29790544D01*
X9939058Y-29804830D01*
X9953344Y-29833401D01*
X9953344Y-29990544D01*
X9953344Y-29833401D02*
X9967630Y-29804830D01*
X9996201Y-29790544D01*
X10039058Y-29790544D01*
X10067630Y-29804830D01*
X10081916Y-29833401D01*
X10081916Y-29990544D01*
X10667630Y-29676259D02*
X10410487Y-30061973D01*
X11053344Y-29690544D02*
X11081916Y-29690544D01*
X11110487Y-29704830D01*
X11124773Y-29719116D01*
X11139058Y-29747687D01*
X11153344Y-29804830D01*
X11153344Y-29876259D01*
X11139058Y-29933401D01*
X11124773Y-29961973D01*
X11110487Y-29976259D01*
X11081916Y-29990544D01*
X11053344Y-29990544D01*
X11024773Y-29976259D01*
X11010487Y-29961973D01*
X10996201Y-29933401D01*
X10981916Y-29876259D01*
X10981916Y-29804830D01*
X10996201Y-29747687D01*
X11010487Y-29719116D01*
X11024773Y-29704830D01*
X11053344Y-29690544D01*
X11281916Y-29961973D02*
X11296201Y-29976259D01*
X11281916Y-29990544D01*
X11267630Y-29976259D01*
X11281916Y-29961973D01*
X11281916Y-29990544D01*
X11481916Y-29690544D02*
X11510487Y-29690544D01*
X11539058Y-29704830D01*
X11553344Y-29719116D01*
X11567630Y-29747687D01*
X11581916Y-29804830D01*
X11581916Y-29876259D01*
X11567630Y-29933401D01*
X11553344Y-29961973D01*
X11539058Y-29976259D01*
X11510487Y-29990544D01*
X11481916Y-29990544D01*
X11453344Y-29976259D01*
X11439058Y-29961973D01*
X11424773Y-29933401D01*
X11410487Y-29876259D01*
X11410487Y-29804830D01*
X11424773Y-29747687D01*
X11439058Y-29719116D01*
X11453344Y-29704830D01*
X11481916Y-29690544D01*
X11839058Y-29690544D02*
X11781916Y-29690544D01*
X11753344Y-29704830D01*
X11739058Y-29719116D01*
X11710487Y-29761973D01*
X11696201Y-29819116D01*
X11696201Y-29933401D01*
X11710487Y-29961973D01*
X11724773Y-29976259D01*
X11753344Y-29990544D01*
X11810487Y-29990544D01*
X11839058Y-29976259D01*
X11853344Y-29961973D01*
X11867630Y-29933401D01*
X11867630Y-29861973D01*
X11853344Y-29833401D01*
X11839058Y-29819116D01*
X11810487Y-29804830D01*
X11753344Y-29804830D01*
X11724773Y-29819116D01*
X11710487Y-29833401D01*
X11696201Y-29861973D01*
X12039058Y-29819116D02*
X12010487Y-29804830D01*
X11996201Y-29790544D01*
X11981916Y-29761973D01*
X11981916Y-29747687D01*
X11996201Y-29719116D01*
X12010487Y-29704830D01*
X12039058Y-29690544D01*
X12096201Y-29690544D01*
X12124773Y-29704830D01*
X12139058Y-29719116D01*
X12153344Y-29747687D01*
X12153344Y-29761973D01*
X12139058Y-29790544D01*
X12124773Y-29804830D01*
X12096201Y-29819116D01*
X12039058Y-29819116D01*
X12010487Y-29833401D01*
X11996201Y-29847687D01*
X11981916Y-29876259D01*
X11981916Y-29933401D01*
X11996201Y-29961973D01*
X12010487Y-29976259D01*
X12039058Y-29990544D01*
X12096201Y-29990544D01*
X12124773Y-29976259D01*
X12139058Y-29961973D01*
X12153344Y-29933401D01*
X12153344Y-29876259D01*
X12139058Y-29847687D01*
X12124773Y-29833401D01*
X12096201Y-29819116D01*
X12296201Y-29990544D02*
X12353344Y-29990544D01*
X12381916Y-29976259D01*
X12396201Y-29961973D01*
X12424773Y-29919116D01*
X12439058Y-29861973D01*
X12439058Y-29747687D01*
X12424773Y-29719116D01*
X12410487Y-29704830D01*
X12381916Y-29690544D01*
X12324773Y-29690544D01*
X12296201Y-29704830D01*
X12281916Y-29719116D01*
X12267630Y-29747687D01*
X12267630Y-29819116D01*
X12281916Y-29847687D01*
X12296201Y-29861973D01*
X12324773Y-29876259D01*
X12381916Y-29876259D01*
X12410487Y-29861973D01*
X12424773Y-29847687D01*
X12439058Y-29819116D01*
X12553344Y-29690544D02*
X12553344Y-29747687D01*
X12667630Y-29690544D02*
X12667630Y-29747687D01*
X13110487Y-30104830D02*
X13096201Y-30090544D01*
X13067630Y-30047687D01*
X13053344Y-30019116D01*
X13039058Y-29976259D01*
X13024773Y-29904830D01*
X13024773Y-29847687D01*
X13039058Y-29776259D01*
X13053344Y-29733401D01*
X13067630Y-29704830D01*
X13096201Y-29661973D01*
X13110487Y-29647687D01*
X13381916Y-29990544D02*
X13210487Y-29990544D01*
X13296201Y-29990544D02*
X13296201Y-29690544D01*
X13267630Y-29733401D01*
X13239058Y-29761973D01*
X13210487Y-29776259D01*
X13553344Y-29819116D02*
X13524773Y-29804830D01*
X13510487Y-29790544D01*
X13496201Y-29761973D01*
X13496201Y-29747687D01*
X13510487Y-29719116D01*
X13524773Y-29704830D01*
X13553344Y-29690544D01*
X13610487Y-29690544D01*
X13639058Y-29704830D01*
X13653344Y-29719116D01*
X13667630Y-29747687D01*
X13667630Y-29761973D01*
X13653344Y-29790544D01*
X13639058Y-29804830D01*
X13610487Y-29819116D01*
X13553344Y-29819116D01*
X13524773Y-29833401D01*
X13510487Y-29847687D01*
X13496201Y-29876259D01*
X13496201Y-29933401D01*
X13510487Y-29961973D01*
X13524773Y-29976259D01*
X13553344Y-29990544D01*
X13610487Y-29990544D01*
X13639058Y-29976259D01*
X13653344Y-29961973D01*
X13667630Y-29933401D01*
X13667630Y-29876259D01*
X13653344Y-29847687D01*
X13639058Y-29833401D01*
X13610487Y-29819116D01*
X13853344Y-29690544D02*
X13881916Y-29690544D01*
X13910487Y-29704830D01*
X13924773Y-29719116D01*
X13939058Y-29747687D01*
X13953344Y-29804830D01*
X13953344Y-29876259D01*
X13939058Y-29933401D01*
X13924773Y-29961973D01*
X13910487Y-29976259D01*
X13881916Y-29990544D01*
X13853344Y-29990544D01*
X13824773Y-29976259D01*
X13810487Y-29961973D01*
X13796201Y-29933401D01*
X13781916Y-29876259D01*
X13781916Y-29804830D01*
X13796201Y-29747687D01*
X13810487Y-29719116D01*
X13824773Y-29704830D01*
X13853344Y-29690544D01*
X14310487Y-29990544D02*
X14310487Y-29690544D01*
X14439058Y-29990544D02*
X14439058Y-29833401D01*
X14424773Y-29804830D01*
X14396201Y-29790544D01*
X14353344Y-29790544D01*
X14324773Y-29804830D01*
X14310487Y-29819116D01*
X14624773Y-29990544D02*
X14596201Y-29976259D01*
X14581916Y-29961973D01*
X14567630Y-29933401D01*
X14567630Y-29847687D01*
X14581916Y-29819116D01*
X14596201Y-29804830D01*
X14624773Y-29790544D01*
X14667630Y-29790544D01*
X14696201Y-29804830D01*
X14710487Y-29819116D01*
X14724773Y-29847687D01*
X14724773Y-29933401D01*
X14710487Y-29961973D01*
X14696201Y-29976259D01*
X14667630Y-29990544D01*
X14624773Y-29990544D01*
X14896201Y-29990544D02*
X14867630Y-29976259D01*
X14853344Y-29947687D01*
X14853344Y-29690544D01*
X15124773Y-29976259D02*
X15096201Y-29990544D01*
X15039058Y-29990544D01*
X15010487Y-29976259D01*
X14996201Y-29947687D01*
X14996201Y-29833401D01*
X15010487Y-29804830D01*
X15039058Y-29790544D01*
X15096201Y-29790544D01*
X15124773Y-29804830D01*
X15139058Y-29833401D01*
X15139058Y-29861973D01*
X14996201Y-29890544D01*
X15253344Y-29976259D02*
X15281916Y-29990544D01*
X15339058Y-29990544D01*
X15367630Y-29976259D01*
X15381916Y-29947687D01*
X15381916Y-29933401D01*
X15367630Y-29904830D01*
X15339058Y-29890544D01*
X15296201Y-29890544D01*
X15267630Y-29876259D01*
X15253344Y-29847687D01*
X15253344Y-29833401D01*
X15267630Y-29804830D01*
X15296201Y-29790544D01*
X15339058Y-29790544D01*
X15367630Y-29804830D01*
X15481916Y-30104830D02*
X15496201Y-30090544D01*
X15524773Y-30047687D01*
X15539058Y-30019116D01*
X15553344Y-29976259D01*
X15567630Y-29904830D01*
X15567630Y-29847687D01*
X15553344Y-29776259D01*
X15539058Y-29733401D01*
X15524773Y-29704830D01*
X15496201Y-29661973D01*
X15481916Y-29647687D01*
X16024773Y-30104830D02*
X16010487Y-30090544D01*
X15981916Y-30047687D01*
X15967630Y-30019116D01*
X15953344Y-29976259D01*
X15939058Y-29904830D01*
X15939058Y-29847687D01*
X15953344Y-29776259D01*
X15967630Y-29733401D01*
X15981916Y-29704830D01*
X16010487Y-29661973D01*
X16024773Y-29647687D01*
X16139058Y-29790544D02*
X16139058Y-29990544D01*
X16139058Y-29819116D02*
X16153344Y-29804830D01*
X16181916Y-29790544D01*
X16224773Y-29790544D01*
X16253344Y-29804830D01*
X16267630Y-29833401D01*
X16267630Y-29990544D01*
X16453344Y-29990544D02*
X16424773Y-29976259D01*
X16410487Y-29961973D01*
X16396201Y-29933401D01*
X16396201Y-29847687D01*
X16410487Y-29819116D01*
X16424773Y-29804830D01*
X16453344Y-29790544D01*
X16496201Y-29790544D01*
X16524773Y-29804830D01*
X16539058Y-29819116D01*
X16553344Y-29847687D01*
X16553344Y-29933401D01*
X16539058Y-29961973D01*
X16524773Y-29976259D01*
X16496201Y-29990544D01*
X16453344Y-29990544D01*
X16639058Y-29790544D02*
X16753344Y-29790544D01*
X16681916Y-29690544D02*
X16681916Y-29947687D01*
X16696201Y-29976259D01*
X16724773Y-29990544D01*
X16753344Y-29990544D01*
X17081916Y-29790544D02*
X17081916Y-30090544D01*
X17081916Y-29804830D02*
X17110487Y-29790544D01*
X17167630Y-29790544D01*
X17196201Y-29804830D01*
X17210487Y-29819116D01*
X17224773Y-29847687D01*
X17224773Y-29933401D01*
X17210487Y-29961973D01*
X17196201Y-29976259D01*
X17167630Y-29990544D01*
X17110487Y-29990544D01*
X17081916Y-29976259D01*
X17396201Y-29990544D02*
X17367630Y-29976259D01*
X17353344Y-29947687D01*
X17353344Y-29690544D01*
X17639058Y-29990544D02*
X17639058Y-29833401D01*
X17624773Y-29804830D01*
X17596201Y-29790544D01*
X17539058Y-29790544D01*
X17510487Y-29804830D01*
X17639058Y-29976259D02*
X17610487Y-29990544D01*
X17539058Y-29990544D01*
X17510487Y-29976259D01*
X17496201Y-29947687D01*
X17496201Y-29919116D01*
X17510487Y-29890544D01*
X17539058Y-29876259D01*
X17610487Y-29876259D01*
X17639058Y-29861973D01*
X17739058Y-29790544D02*
X17853344Y-29790544D01*
X17781916Y-29690544D02*
X17781916Y-29947687D01*
X17796201Y-29976259D01*
X17824773Y-29990544D01*
X17853344Y-29990544D01*
X18067630Y-29976259D02*
X18039058Y-29990544D01*
X17981916Y-29990544D01*
X17953344Y-29976259D01*
X17939058Y-29947687D01*
X17939058Y-29833401D01*
X17953344Y-29804830D01*
X17981916Y-29790544D01*
X18039058Y-29790544D01*
X18067630Y-29804830D01*
X18081916Y-29833401D01*
X18081916Y-29861973D01*
X17939058Y-29890544D01*
X18339058Y-29990544D02*
X18339058Y-29690544D01*
X18339058Y-29976259D02*
X18310487Y-29990544D01*
X18253344Y-29990544D01*
X18224773Y-29976259D01*
X18210487Y-29961973D01*
X18196201Y-29933401D01*
X18196201Y-29847687D01*
X18210487Y-29819116D01*
X18224773Y-29804830D01*
X18253344Y-29790544D01*
X18310487Y-29790544D01*
X18339058Y-29804830D01*
X18453344Y-30104830D02*
X18467630Y-30090544D01*
X18496201Y-30047687D01*
X18510487Y-30019116D01*
X18524773Y-29976259D01*
X18539058Y-29904830D01*
X18539058Y-29847687D01*
X18524773Y-29776259D01*
X18510487Y-29733401D01*
X18496201Y-29704830D01*
X18467630Y-29661973D01*
X18453344Y-29647687D01*
X7747630Y-30145830D02*
X7747630Y-30355830D01*
X7642630Y-30250830D02*
X7852630Y-30250830D01*
X8124773Y-30115116D02*
X8139058Y-30100830D01*
X8167630Y-30086544D01*
X8239058Y-30086544D01*
X8267630Y-30100830D01*
X8281916Y-30115116D01*
X8296201Y-30143687D01*
X8296201Y-30172259D01*
X8281916Y-30215116D01*
X8110487Y-30386544D01*
X8296201Y-30386544D01*
X8424773Y-30357973D02*
X8439058Y-30372259D01*
X8424773Y-30386544D01*
X8410487Y-30372259D01*
X8424773Y-30357973D01*
X8424773Y-30386544D01*
X8724773Y-30386544D02*
X8553344Y-30386544D01*
X8639058Y-30386544D02*
X8639058Y-30086544D01*
X8610487Y-30129401D01*
X8581916Y-30157973D01*
X8553344Y-30172259D01*
X8910487Y-30086544D02*
X8939058Y-30086544D01*
X8967630Y-30100830D01*
X8981916Y-30115116D01*
X8996201Y-30143687D01*
X9010487Y-30200830D01*
X9010487Y-30272259D01*
X8996201Y-30329401D01*
X8981916Y-30357973D01*
X8967630Y-30372259D01*
X8939058Y-30386544D01*
X8910487Y-30386544D01*
X8881916Y-30372259D01*
X8867630Y-30357973D01*
X8853344Y-30329401D01*
X8839058Y-30272259D01*
X8839058Y-30200830D01*
X8853344Y-30143687D01*
X8867630Y-30115116D01*
X8881916Y-30100830D01*
X8910487Y-30086544D01*
X9196201Y-30086544D02*
X9224773Y-30086544D01*
X9253344Y-30100830D01*
X9267630Y-30115116D01*
X9281916Y-30143687D01*
X9296201Y-30200830D01*
X9296201Y-30272259D01*
X9281916Y-30329401D01*
X9267630Y-30357973D01*
X9253344Y-30372259D01*
X9224773Y-30386544D01*
X9196201Y-30386544D01*
X9167630Y-30372259D01*
X9153344Y-30357973D01*
X9139058Y-30329401D01*
X9124773Y-30272259D01*
X9124773Y-30200830D01*
X9139058Y-30143687D01*
X9153344Y-30115116D01*
X9167630Y-30100830D01*
X9196201Y-30086544D01*
X9424773Y-30386544D02*
X9424773Y-30186544D01*
X9424773Y-30215116D02*
X9439058Y-30200830D01*
X9467630Y-30186544D01*
X9510487Y-30186544D01*
X9539058Y-30200830D01*
X9553344Y-30229401D01*
X9553344Y-30386544D01*
X9553344Y-30229401D02*
X9567630Y-30200830D01*
X9596201Y-30186544D01*
X9639058Y-30186544D01*
X9667630Y-30200830D01*
X9681916Y-30229401D01*
X9681916Y-30386544D01*
X9824773Y-30386544D02*
X9824773Y-30186544D01*
X9824773Y-30215116D02*
X9839058Y-30200830D01*
X9867630Y-30186544D01*
X9910487Y-30186544D01*
X9939058Y-30200830D01*
X9953344Y-30229401D01*
X9953344Y-30386544D01*
X9953344Y-30229401D02*
X9967630Y-30200830D01*
X9996201Y-30186544D01*
X10039058Y-30186544D01*
X10067630Y-30200830D01*
X10081916Y-30229401D01*
X10081916Y-30386544D01*
X10667630Y-30072259D02*
X10410487Y-30457973D01*
X11053344Y-30086544D02*
X11081916Y-30086544D01*
X11110487Y-30100830D01*
X11124773Y-30115116D01*
X11139058Y-30143687D01*
X11153344Y-30200830D01*
X11153344Y-30272259D01*
X11139058Y-30329401D01*
X11124773Y-30357973D01*
X11110487Y-30372259D01*
X11081916Y-30386544D01*
X11053344Y-30386544D01*
X11024773Y-30372259D01*
X11010487Y-30357973D01*
X10996201Y-30329401D01*
X10981916Y-30272259D01*
X10981916Y-30200830D01*
X10996201Y-30143687D01*
X11010487Y-30115116D01*
X11024773Y-30100830D01*
X11053344Y-30086544D01*
X11281916Y-30357973D02*
X11296201Y-30372259D01*
X11281916Y-30386544D01*
X11267630Y-30372259D01*
X11281916Y-30357973D01*
X11281916Y-30386544D01*
X11481916Y-30086544D02*
X11510487Y-30086544D01*
X11539058Y-30100830D01*
X11553344Y-30115116D01*
X11567630Y-30143687D01*
X11581916Y-30200830D01*
X11581916Y-30272259D01*
X11567630Y-30329401D01*
X11553344Y-30357973D01*
X11539058Y-30372259D01*
X11510487Y-30386544D01*
X11481916Y-30386544D01*
X11453344Y-30372259D01*
X11439058Y-30357973D01*
X11424773Y-30329401D01*
X11410487Y-30272259D01*
X11410487Y-30200830D01*
X11424773Y-30143687D01*
X11439058Y-30115116D01*
X11453344Y-30100830D01*
X11481916Y-30086544D01*
X11753344Y-30215116D02*
X11724773Y-30200830D01*
X11710487Y-30186544D01*
X11696201Y-30157973D01*
X11696201Y-30143687D01*
X11710487Y-30115116D01*
X11724773Y-30100830D01*
X11753344Y-30086544D01*
X11810487Y-30086544D01*
X11839058Y-30100830D01*
X11853344Y-30115116D01*
X11867630Y-30143687D01*
X11867630Y-30157973D01*
X11853344Y-30186544D01*
X11839058Y-30200830D01*
X11810487Y-30215116D01*
X11753344Y-30215116D01*
X11724773Y-30229401D01*
X11710487Y-30243687D01*
X11696201Y-30272259D01*
X11696201Y-30329401D01*
X11710487Y-30357973D01*
X11724773Y-30372259D01*
X11753344Y-30386544D01*
X11810487Y-30386544D01*
X11839058Y-30372259D01*
X11853344Y-30357973D01*
X11867630Y-30329401D01*
X11867630Y-30272259D01*
X11853344Y-30243687D01*
X11839058Y-30229401D01*
X11810487Y-30215116D01*
X11981916Y-30115116D02*
X11996201Y-30100830D01*
X12024773Y-30086544D01*
X12096201Y-30086544D01*
X12124773Y-30100830D01*
X12139058Y-30115116D01*
X12153344Y-30143687D01*
X12153344Y-30172259D01*
X12139058Y-30215116D01*
X11967630Y-30386544D01*
X12153344Y-30386544D01*
X12253344Y-30086544D02*
X12453344Y-30086544D01*
X12324773Y-30386544D01*
X12553344Y-30086544D02*
X12553344Y-30143687D01*
X12667630Y-30086544D02*
X12667630Y-30143687D01*
X13110487Y-30500830D02*
X13096201Y-30486544D01*
X13067630Y-30443687D01*
X13053344Y-30415116D01*
X13039058Y-30372259D01*
X13024773Y-30300830D01*
X13024773Y-30243687D01*
X13039058Y-30172259D01*
X13053344Y-30129401D01*
X13067630Y-30100830D01*
X13096201Y-30057973D01*
X13110487Y-30043687D01*
X13239058Y-30386544D02*
X13296201Y-30386544D01*
X13324773Y-30372259D01*
X13339058Y-30357973D01*
X13367630Y-30315116D01*
X13381916Y-30257973D01*
X13381916Y-30143687D01*
X13367630Y-30115116D01*
X13353344Y-30100830D01*
X13324773Y-30086544D01*
X13267630Y-30086544D01*
X13239058Y-30100830D01*
X13224773Y-30115116D01*
X13210487Y-30143687D01*
X13210487Y-30215116D01*
X13224773Y-30243687D01*
X13239058Y-30257973D01*
X13267630Y-30272259D01*
X13324773Y-30272259D01*
X13353344Y-30257973D01*
X13367630Y-30243687D01*
X13381916Y-30215116D01*
X13567630Y-30086544D02*
X13596201Y-30086544D01*
X13624773Y-30100830D01*
X13639058Y-30115116D01*
X13653344Y-30143687D01*
X13667630Y-30200830D01*
X13667630Y-30272259D01*
X13653344Y-30329401D01*
X13639058Y-30357973D01*
X13624773Y-30372259D01*
X13596201Y-30386544D01*
X13567630Y-30386544D01*
X13539058Y-30372259D01*
X13524773Y-30357973D01*
X13510487Y-30329401D01*
X13496201Y-30272259D01*
X13496201Y-30200830D01*
X13510487Y-30143687D01*
X13524773Y-30115116D01*
X13539058Y-30100830D01*
X13567630Y-30086544D01*
X14024773Y-30386544D02*
X14024773Y-30086544D01*
X14153344Y-30386544D02*
X14153344Y-30229401D01*
X14139058Y-30200830D01*
X14110487Y-30186544D01*
X14067630Y-30186544D01*
X14039058Y-30200830D01*
X14024773Y-30215116D01*
X14339058Y-30386544D02*
X14310487Y-30372259D01*
X14296201Y-30357973D01*
X14281916Y-30329401D01*
X14281916Y-30243687D01*
X14296201Y-30215116D01*
X14310487Y-30200830D01*
X14339058Y-30186544D01*
X14381916Y-30186544D01*
X14410487Y-30200830D01*
X14424773Y-30215116D01*
X14439058Y-30243687D01*
X14439058Y-30329401D01*
X14424773Y-30357973D01*
X14410487Y-30372259D01*
X14381916Y-30386544D01*
X14339058Y-30386544D01*
X14610487Y-30386544D02*
X14581916Y-30372259D01*
X14567630Y-30343687D01*
X14567630Y-30086544D01*
X14839058Y-30372259D02*
X14810487Y-30386544D01*
X14753344Y-30386544D01*
X14724773Y-30372259D01*
X14710487Y-30343687D01*
X14710487Y-30229401D01*
X14724773Y-30200830D01*
X14753344Y-30186544D01*
X14810487Y-30186544D01*
X14839058Y-30200830D01*
X14853344Y-30229401D01*
X14853344Y-30257973D01*
X14710487Y-30286544D01*
X14967630Y-30372259D02*
X14996201Y-30386544D01*
X15053344Y-30386544D01*
X15081916Y-30372259D01*
X15096201Y-30343687D01*
X15096201Y-30329401D01*
X15081916Y-30300830D01*
X15053344Y-30286544D01*
X15010487Y-30286544D01*
X14981916Y-30272259D01*
X14967630Y-30243687D01*
X14967630Y-30229401D01*
X14981916Y-30200830D01*
X15010487Y-30186544D01*
X15053344Y-30186544D01*
X15081916Y-30200830D01*
X15196201Y-30500830D02*
X15210487Y-30486544D01*
X15239058Y-30443687D01*
X15253344Y-30415116D01*
X15267630Y-30372259D01*
X15281916Y-30300830D01*
X15281916Y-30243687D01*
X15267630Y-30172259D01*
X15253344Y-30129401D01*
X15239058Y-30100830D01*
X15210487Y-30057973D01*
X15196201Y-30043687D01*
X15739058Y-30500830D02*
X15724773Y-30486544D01*
X15696201Y-30443687D01*
X15681916Y-30415116D01*
X15667630Y-30372259D01*
X15653344Y-30300830D01*
X15653344Y-30243687D01*
X15667630Y-30172259D01*
X15681916Y-30129401D01*
X15696201Y-30100830D01*
X15724773Y-30057973D01*
X15739058Y-30043687D01*
X15853344Y-30186544D02*
X15853344Y-30386544D01*
X15853344Y-30215116D02*
X15867630Y-30200830D01*
X15896201Y-30186544D01*
X15939058Y-30186544D01*
X15967630Y-30200830D01*
X15981916Y-30229401D01*
X15981916Y-30386544D01*
X16167630Y-30386544D02*
X16139058Y-30372259D01*
X16124773Y-30357973D01*
X16110487Y-30329401D01*
X16110487Y-30243687D01*
X16124773Y-30215116D01*
X16139058Y-30200830D01*
X16167630Y-30186544D01*
X16210487Y-30186544D01*
X16239058Y-30200830D01*
X16253344Y-30215116D01*
X16267630Y-30243687D01*
X16267630Y-30329401D01*
X16253344Y-30357973D01*
X16239058Y-30372259D01*
X16210487Y-30386544D01*
X16167630Y-30386544D01*
X16353344Y-30186544D02*
X16467630Y-30186544D01*
X16396201Y-30086544D02*
X16396201Y-30343687D01*
X16410487Y-30372259D01*
X16439058Y-30386544D01*
X16467630Y-30386544D01*
X16796201Y-30186544D02*
X16796201Y-30486544D01*
X16796201Y-30200830D02*
X16824773Y-30186544D01*
X16881916Y-30186544D01*
X16910487Y-30200830D01*
X16924773Y-30215116D01*
X16939058Y-30243687D01*
X16939058Y-30329401D01*
X16924773Y-30357973D01*
X16910487Y-30372259D01*
X16881916Y-30386544D01*
X16824773Y-30386544D01*
X16796201Y-30372259D01*
X17110487Y-30386544D02*
X17081916Y-30372259D01*
X17067630Y-30343687D01*
X17067630Y-30086544D01*
X17353344Y-30386544D02*
X17353344Y-30229401D01*
X17339058Y-30200830D01*
X17310487Y-30186544D01*
X17253344Y-30186544D01*
X17224773Y-30200830D01*
X17353344Y-30372259D02*
X17324773Y-30386544D01*
X17253344Y-30386544D01*
X17224773Y-30372259D01*
X17210487Y-30343687D01*
X17210487Y-30315116D01*
X17224773Y-30286544D01*
X17253344Y-30272259D01*
X17324773Y-30272259D01*
X17353344Y-30257973D01*
X17453344Y-30186544D02*
X17567630Y-30186544D01*
X17496201Y-30086544D02*
X17496201Y-30343687D01*
X17510487Y-30372259D01*
X17539058Y-30386544D01*
X17567630Y-30386544D01*
X17781916Y-30372259D02*
X17753344Y-30386544D01*
X17696201Y-30386544D01*
X17667630Y-30372259D01*
X17653344Y-30343687D01*
X17653344Y-30229401D01*
X17667630Y-30200830D01*
X17696201Y-30186544D01*
X17753344Y-30186544D01*
X17781916Y-30200830D01*
X17796201Y-30229401D01*
X17796201Y-30257973D01*
X17653344Y-30286544D01*
X18053344Y-30386544D02*
X18053344Y-30086544D01*
X18053344Y-30372259D02*
X18024773Y-30386544D01*
X17967630Y-30386544D01*
X17939058Y-30372259D01*
X17924773Y-30357973D01*
X17910487Y-30329401D01*
X17910487Y-30243687D01*
X17924773Y-30215116D01*
X17939058Y-30200830D01*
X17967630Y-30186544D01*
X18024773Y-30186544D01*
X18053344Y-30200830D01*
X18167630Y-30500830D02*
X18181916Y-30486544D01*
X18210487Y-30443687D01*
X18224773Y-30415116D01*
X18239058Y-30372259D01*
X18253344Y-30300830D01*
X18253344Y-30243687D01*
X18239058Y-30172259D01*
X18224773Y-30129401D01*
X18210487Y-30100830D01*
X18181916Y-30057973D01*
X18167630Y-30043687D01*
X7808697Y-30752897D02*
X7808697Y-30540763D01*
X7596563Y-30540763D01*
X7596563Y-30752897D01*
X7808697Y-30752897D01*
X8110487Y-30482544D02*
X8296201Y-30482544D01*
X8196201Y-30596830D01*
X8239058Y-30596830D01*
X8267630Y-30611116D01*
X8281916Y-30625401D01*
X8296201Y-30653973D01*
X8296201Y-30725401D01*
X8281916Y-30753973D01*
X8267630Y-30768259D01*
X8239058Y-30782544D01*
X8153344Y-30782544D01*
X8124773Y-30768259D01*
X8110487Y-30753973D01*
X8424773Y-30753973D02*
X8439058Y-30768259D01*
X8424773Y-30782544D01*
X8410487Y-30768259D01*
X8424773Y-30753973D01*
X8424773Y-30782544D01*
X8624773Y-30482544D02*
X8653344Y-30482544D01*
X8681916Y-30496830D01*
X8696201Y-30511116D01*
X8710487Y-30539687D01*
X8724773Y-30596830D01*
X8724773Y-30668259D01*
X8710487Y-30725401D01*
X8696201Y-30753973D01*
X8681916Y-30768259D01*
X8653344Y-30782544D01*
X8624773Y-30782544D01*
X8596201Y-30768259D01*
X8581916Y-30753973D01*
X8567630Y-30725401D01*
X8553344Y-30668259D01*
X8553344Y-30596830D01*
X8567630Y-30539687D01*
X8581916Y-30511116D01*
X8596201Y-30496830D01*
X8624773Y-30482544D01*
X8910487Y-30482544D02*
X8939058Y-30482544D01*
X8967630Y-30496830D01*
X8981916Y-30511116D01*
X8996201Y-30539687D01*
X9010487Y-30596830D01*
X9010487Y-30668259D01*
X8996201Y-30725401D01*
X8981916Y-30753973D01*
X8967630Y-30768259D01*
X8939058Y-30782544D01*
X8910487Y-30782544D01*
X8881916Y-30768259D01*
X8867630Y-30753973D01*
X8853344Y-30725401D01*
X8839058Y-30668259D01*
X8839058Y-30596830D01*
X8853344Y-30539687D01*
X8867630Y-30511116D01*
X8881916Y-30496830D01*
X8910487Y-30482544D01*
X9196201Y-30482544D02*
X9224773Y-30482544D01*
X9253344Y-30496830D01*
X9267630Y-30511116D01*
X9281916Y-30539687D01*
X9296201Y-30596830D01*
X9296201Y-30668259D01*
X9281916Y-30725401D01*
X9267630Y-30753973D01*
X9253344Y-30768259D01*
X9224773Y-30782544D01*
X9196201Y-30782544D01*
X9167630Y-30768259D01*
X9153344Y-30753973D01*
X9139058Y-30725401D01*
X9124773Y-30668259D01*
X9124773Y-30596830D01*
X9139058Y-30539687D01*
X9153344Y-30511116D01*
X9167630Y-30496830D01*
X9196201Y-30482544D01*
X9424773Y-30782544D02*
X9424773Y-30582544D01*
X9424773Y-30611116D02*
X9439058Y-30596830D01*
X9467630Y-30582544D01*
X9510487Y-30582544D01*
X9539058Y-30596830D01*
X9553344Y-30625401D01*
X9553344Y-30782544D01*
X9553344Y-30625401D02*
X9567630Y-30596830D01*
X9596201Y-30582544D01*
X9639058Y-30582544D01*
X9667630Y-30596830D01*
X9681916Y-30625401D01*
X9681916Y-30782544D01*
X9824773Y-30782544D02*
X9824773Y-30582544D01*
X9824773Y-30611116D02*
X9839058Y-30596830D01*
X9867630Y-30582544D01*
X9910487Y-30582544D01*
X9939058Y-30596830D01*
X9953344Y-30625401D01*
X9953344Y-30782544D01*
X9953344Y-30625401D02*
X9967630Y-30596830D01*
X9996201Y-30582544D01*
X10039058Y-30582544D01*
X10067630Y-30596830D01*
X10081916Y-30625401D01*
X10081916Y-30782544D01*
X10667630Y-30468259D02*
X10410487Y-30853973D01*
X11053344Y-30482544D02*
X11081916Y-30482544D01*
X11110487Y-30496830D01*
X11124773Y-30511116D01*
X11139058Y-30539687D01*
X11153344Y-30596830D01*
X11153344Y-30668259D01*
X11139058Y-30725401D01*
X11124773Y-30753973D01*
X11110487Y-30768259D01*
X11081916Y-30782544D01*
X11053344Y-30782544D01*
X11024773Y-30768259D01*
X11010487Y-30753973D01*
X10996201Y-30725401D01*
X10981916Y-30668259D01*
X10981916Y-30596830D01*
X10996201Y-30539687D01*
X11010487Y-30511116D01*
X11024773Y-30496830D01*
X11053344Y-30482544D01*
X11281916Y-30753973D02*
X11296201Y-30768259D01*
X11281916Y-30782544D01*
X11267630Y-30768259D01*
X11281916Y-30753973D01*
X11281916Y-30782544D01*
X11581916Y-30782544D02*
X11410487Y-30782544D01*
X11496201Y-30782544D02*
X11496201Y-30482544D01*
X11467630Y-30525401D01*
X11439058Y-30553973D01*
X11410487Y-30568259D01*
X11867630Y-30782544D02*
X11696201Y-30782544D01*
X11781916Y-30782544D02*
X11781916Y-30482544D01*
X11753344Y-30525401D01*
X11724773Y-30553973D01*
X11696201Y-30568259D01*
X12039058Y-30611116D02*
X12010487Y-30596830D01*
X11996201Y-30582544D01*
X11981916Y-30553973D01*
X11981916Y-30539687D01*
X11996201Y-30511116D01*
X12010487Y-30496830D01*
X12039058Y-30482544D01*
X12096201Y-30482544D01*
X12124773Y-30496830D01*
X12139058Y-30511116D01*
X12153344Y-30539687D01*
X12153344Y-30553973D01*
X12139058Y-30582544D01*
X12124773Y-30596830D01*
X12096201Y-30611116D01*
X12039058Y-30611116D01*
X12010487Y-30625401D01*
X11996201Y-30639687D01*
X11981916Y-30668259D01*
X11981916Y-30725401D01*
X11996201Y-30753973D01*
X12010487Y-30768259D01*
X12039058Y-30782544D01*
X12096201Y-30782544D01*
X12124773Y-30768259D01*
X12139058Y-30753973D01*
X12153344Y-30725401D01*
X12153344Y-30668259D01*
X12139058Y-30639687D01*
X12124773Y-30625401D01*
X12096201Y-30611116D01*
X12439058Y-30782544D02*
X12267630Y-30782544D01*
X12353344Y-30782544D02*
X12353344Y-30482544D01*
X12324773Y-30525401D01*
X12296201Y-30553973D01*
X12267630Y-30568259D01*
X12553344Y-30482544D02*
X12553344Y-30539687D01*
X12667630Y-30482544D02*
X12667630Y-30539687D01*
X13110487Y-30896830D02*
X13096201Y-30882544D01*
X13067630Y-30839687D01*
X13053344Y-30811116D01*
X13039058Y-30768259D01*
X13024773Y-30696830D01*
X13024773Y-30639687D01*
X13039058Y-30568259D01*
X13053344Y-30525401D01*
X13067630Y-30496830D01*
X13096201Y-30453973D01*
X13110487Y-30439687D01*
X13381916Y-30782544D02*
X13210487Y-30782544D01*
X13296201Y-30782544D02*
X13296201Y-30482544D01*
X13267630Y-30525401D01*
X13239058Y-30553973D01*
X13210487Y-30568259D01*
X13553344Y-30611116D02*
X13524773Y-30596830D01*
X13510487Y-30582544D01*
X13496201Y-30553973D01*
X13496201Y-30539687D01*
X13510487Y-30511116D01*
X13524773Y-30496830D01*
X13553344Y-30482544D01*
X13610487Y-30482544D01*
X13639058Y-30496830D01*
X13653344Y-30511116D01*
X13667630Y-30539687D01*
X13667630Y-30553973D01*
X13653344Y-30582544D01*
X13639058Y-30596830D01*
X13610487Y-30611116D01*
X13553344Y-30611116D01*
X13524773Y-30625401D01*
X13510487Y-30639687D01*
X13496201Y-30668259D01*
X13496201Y-30725401D01*
X13510487Y-30753973D01*
X13524773Y-30768259D01*
X13553344Y-30782544D01*
X13610487Y-30782544D01*
X13639058Y-30768259D01*
X13653344Y-30753973D01*
X13667630Y-30725401D01*
X13667630Y-30668259D01*
X13653344Y-30639687D01*
X13639058Y-30625401D01*
X13610487Y-30611116D01*
X13853344Y-30482544D02*
X13881916Y-30482544D01*
X13910487Y-30496830D01*
X13924773Y-30511116D01*
X13939058Y-30539687D01*
X13953344Y-30596830D01*
X13953344Y-30668259D01*
X13939058Y-30725401D01*
X13924773Y-30753973D01*
X13910487Y-30768259D01*
X13881916Y-30782544D01*
X13853344Y-30782544D01*
X13824773Y-30768259D01*
X13810487Y-30753973D01*
X13796201Y-30725401D01*
X13781916Y-30668259D01*
X13781916Y-30596830D01*
X13796201Y-30539687D01*
X13810487Y-30511116D01*
X13824773Y-30496830D01*
X13853344Y-30482544D01*
X14310487Y-30782544D02*
X14310487Y-30482544D01*
X14439058Y-30782544D02*
X14439058Y-30625401D01*
X14424773Y-30596830D01*
X14396201Y-30582544D01*
X14353344Y-30582544D01*
X14324773Y-30596830D01*
X14310487Y-30611116D01*
X14624773Y-30782544D02*
X14596201Y-30768259D01*
X14581916Y-30753973D01*
X14567630Y-30725401D01*
X14567630Y-30639687D01*
X14581916Y-30611116D01*
X14596201Y-30596830D01*
X14624773Y-30582544D01*
X14667630Y-30582544D01*
X14696201Y-30596830D01*
X14710487Y-30611116D01*
X14724773Y-30639687D01*
X14724773Y-30725401D01*
X14710487Y-30753973D01*
X14696201Y-30768259D01*
X14667630Y-30782544D01*
X14624773Y-30782544D01*
X14896201Y-30782544D02*
X14867630Y-30768259D01*
X14853344Y-30739687D01*
X14853344Y-30482544D01*
X15124773Y-30768259D02*
X15096201Y-30782544D01*
X15039058Y-30782544D01*
X15010487Y-30768259D01*
X14996201Y-30739687D01*
X14996201Y-30625401D01*
X15010487Y-30596830D01*
X15039058Y-30582544D01*
X15096201Y-30582544D01*
X15124773Y-30596830D01*
X15139058Y-30625401D01*
X15139058Y-30653973D01*
X14996201Y-30682544D01*
X15253344Y-30768259D02*
X15281916Y-30782544D01*
X15339058Y-30782544D01*
X15367630Y-30768259D01*
X15381916Y-30739687D01*
X15381916Y-30725401D01*
X15367630Y-30696830D01*
X15339058Y-30682544D01*
X15296201Y-30682544D01*
X15267630Y-30668259D01*
X15253344Y-30639687D01*
X15253344Y-30625401D01*
X15267630Y-30596830D01*
X15296201Y-30582544D01*
X15339058Y-30582544D01*
X15367630Y-30596830D01*
X15481916Y-30896830D02*
X15496201Y-30882544D01*
X15524773Y-30839687D01*
X15539058Y-30811116D01*
X15553344Y-30768259D01*
X15567630Y-30696830D01*
X15567630Y-30639687D01*
X15553344Y-30568259D01*
X15539058Y-30525401D01*
X15524773Y-30496830D01*
X15496201Y-30453973D01*
X15481916Y-30439687D01*
X16024773Y-30896830D02*
X16010487Y-30882544D01*
X15981916Y-30839687D01*
X15967630Y-30811116D01*
X15953344Y-30768259D01*
X15939058Y-30696830D01*
X15939058Y-30639687D01*
X15953344Y-30568259D01*
X15967630Y-30525401D01*
X15981916Y-30496830D01*
X16010487Y-30453973D01*
X16024773Y-30439687D01*
X16139058Y-30582544D02*
X16139058Y-30782544D01*
X16139058Y-30611116D02*
X16153344Y-30596830D01*
X16181916Y-30582544D01*
X16224773Y-30582544D01*
X16253344Y-30596830D01*
X16267630Y-30625401D01*
X16267630Y-30782544D01*
X16453344Y-30782544D02*
X16424773Y-30768259D01*
X16410487Y-30753973D01*
X16396201Y-30725401D01*
X16396201Y-30639687D01*
X16410487Y-30611116D01*
X16424773Y-30596830D01*
X16453344Y-30582544D01*
X16496201Y-30582544D01*
X16524773Y-30596830D01*
X16539058Y-30611116D01*
X16553344Y-30639687D01*
X16553344Y-30725401D01*
X16539058Y-30753973D01*
X16524773Y-30768259D01*
X16496201Y-30782544D01*
X16453344Y-30782544D01*
X16639058Y-30582544D02*
X16753344Y-30582544D01*
X16681916Y-30482544D02*
X16681916Y-30739687D01*
X16696201Y-30768259D01*
X16724773Y-30782544D01*
X16753344Y-30782544D01*
X17081916Y-30582544D02*
X17081916Y-30882544D01*
X17081916Y-30596830D02*
X17110487Y-30582544D01*
X17167630Y-30582544D01*
X17196201Y-30596830D01*
X17210487Y-30611116D01*
X17224773Y-30639687D01*
X17224773Y-30725401D01*
X17210487Y-30753973D01*
X17196201Y-30768259D01*
X17167630Y-30782544D01*
X17110487Y-30782544D01*
X17081916Y-30768259D01*
X17396201Y-30782544D02*
X17367630Y-30768259D01*
X17353344Y-30739687D01*
X17353344Y-30482544D01*
X17639058Y-30782544D02*
X17639058Y-30625401D01*
X17624773Y-30596830D01*
X17596201Y-30582544D01*
X17539058Y-30582544D01*
X17510487Y-30596830D01*
X17639058Y-30768259D02*
X17610487Y-30782544D01*
X17539058Y-30782544D01*
X17510487Y-30768259D01*
X17496201Y-30739687D01*
X17496201Y-30711116D01*
X17510487Y-30682544D01*
X17539058Y-30668259D01*
X17610487Y-30668259D01*
X17639058Y-30653973D01*
X17739058Y-30582544D02*
X17853344Y-30582544D01*
X17781916Y-30482544D02*
X17781916Y-30739687D01*
X17796201Y-30768259D01*
X17824773Y-30782544D01*
X17853344Y-30782544D01*
X18067630Y-30768259D02*
X18039058Y-30782544D01*
X17981916Y-30782544D01*
X17953344Y-30768259D01*
X17939058Y-30739687D01*
X17939058Y-30625401D01*
X17953344Y-30596830D01*
X17981916Y-30582544D01*
X18039058Y-30582544D01*
X18067630Y-30596830D01*
X18081916Y-30625401D01*
X18081916Y-30653973D01*
X17939058Y-30682544D01*
X18339058Y-30782544D02*
X18339058Y-30482544D01*
X18339058Y-30768259D02*
X18310487Y-30782544D01*
X18253344Y-30782544D01*
X18224773Y-30768259D01*
X18210487Y-30753973D01*
X18196201Y-30725401D01*
X18196201Y-30639687D01*
X18210487Y-30611116D01*
X18224773Y-30596830D01*
X18253344Y-30582544D01*
X18310487Y-30582544D01*
X18339058Y-30596830D01*
X18453344Y-30896830D02*
X18467630Y-30882544D01*
X18496201Y-30839687D01*
X18510487Y-30811116D01*
X18524773Y-30768259D01*
X18539058Y-30696830D01*
X18539058Y-30639687D01*
X18524773Y-30568259D01*
X18510487Y-30525401D01*
X18496201Y-30496830D01*
X18467630Y-30453973D01*
X18453344Y-30439687D01*
X7700130Y-31229330D02*
X7852630Y-31076830D01*
X7700130Y-30924330D01*
X7547630Y-31076830D01*
X7700130Y-31229330D01*
X8110487Y-30912544D02*
X8296201Y-30912544D01*
X8196201Y-31026830D01*
X8239058Y-31026830D01*
X8267630Y-31041116D01*
X8281916Y-31055401D01*
X8296201Y-31083973D01*
X8296201Y-31155401D01*
X8281916Y-31183973D01*
X8267630Y-31198259D01*
X8239058Y-31212544D01*
X8153344Y-31212544D01*
X8124773Y-31198259D01*
X8110487Y-31183973D01*
X8424773Y-31183973D02*
X8439058Y-31198259D01*
X8424773Y-31212544D01*
X8410487Y-31198259D01*
X8424773Y-31183973D01*
X8424773Y-31212544D01*
X8624773Y-30912544D02*
X8653344Y-30912544D01*
X8681916Y-30926830D01*
X8696201Y-30941116D01*
X8710487Y-30969687D01*
X8724773Y-31026830D01*
X8724773Y-31098259D01*
X8710487Y-31155401D01*
X8696201Y-31183973D01*
X8681916Y-31198259D01*
X8653344Y-31212544D01*
X8624773Y-31212544D01*
X8596201Y-31198259D01*
X8581916Y-31183973D01*
X8567630Y-31155401D01*
X8553344Y-31098259D01*
X8553344Y-31026830D01*
X8567630Y-30969687D01*
X8581916Y-30941116D01*
X8596201Y-30926830D01*
X8624773Y-30912544D01*
X8996201Y-30912544D02*
X8853344Y-30912544D01*
X8839058Y-31055401D01*
X8853344Y-31041116D01*
X8881916Y-31026830D01*
X8953344Y-31026830D01*
X8981916Y-31041116D01*
X8996201Y-31055401D01*
X9010487Y-31083973D01*
X9010487Y-31155401D01*
X8996201Y-31183973D01*
X8981916Y-31198259D01*
X8953344Y-31212544D01*
X8881916Y-31212544D01*
X8853344Y-31198259D01*
X8839058Y-31183973D01*
X9196201Y-30912544D02*
X9224773Y-30912544D01*
X9253344Y-30926830D01*
X9267630Y-30941116D01*
X9281916Y-30969687D01*
X9296201Y-31026830D01*
X9296201Y-31098259D01*
X9281916Y-31155401D01*
X9267630Y-31183973D01*
X9253344Y-31198259D01*
X9224773Y-31212544D01*
X9196201Y-31212544D01*
X9167630Y-31198259D01*
X9153344Y-31183973D01*
X9139058Y-31155401D01*
X9124773Y-31098259D01*
X9124773Y-31026830D01*
X9139058Y-30969687D01*
X9153344Y-30941116D01*
X9167630Y-30926830D01*
X9196201Y-30912544D01*
X9424773Y-31212544D02*
X9424773Y-31012544D01*
X9424773Y-31041116D02*
X9439058Y-31026830D01*
X9467630Y-31012544D01*
X9510487Y-31012544D01*
X9539058Y-31026830D01*
X9553344Y-31055401D01*
X9553344Y-31212544D01*
X9553344Y-31055401D02*
X9567630Y-31026830D01*
X9596201Y-31012544D01*
X9639058Y-31012544D01*
X9667630Y-31026830D01*
X9681916Y-31055401D01*
X9681916Y-31212544D01*
X9824773Y-31212544D02*
X9824773Y-31012544D01*
X9824773Y-31041116D02*
X9839058Y-31026830D01*
X9867630Y-31012544D01*
X9910487Y-31012544D01*
X9939058Y-31026830D01*
X9953344Y-31055401D01*
X9953344Y-31212544D01*
X9953344Y-31055401D02*
X9967630Y-31026830D01*
X9996201Y-31012544D01*
X10039058Y-31012544D01*
X10067630Y-31026830D01*
X10081916Y-31055401D01*
X10081916Y-31212544D01*
X10667630Y-30898259D02*
X10410487Y-31283973D01*
X11053344Y-30912544D02*
X11081916Y-30912544D01*
X11110487Y-30926830D01*
X11124773Y-30941116D01*
X11139058Y-30969687D01*
X11153344Y-31026830D01*
X11153344Y-31098259D01*
X11139058Y-31155401D01*
X11124773Y-31183973D01*
X11110487Y-31198259D01*
X11081916Y-31212544D01*
X11053344Y-31212544D01*
X11024773Y-31198259D01*
X11010487Y-31183973D01*
X10996201Y-31155401D01*
X10981916Y-31098259D01*
X10981916Y-31026830D01*
X10996201Y-30969687D01*
X11010487Y-30941116D01*
X11024773Y-30926830D01*
X11053344Y-30912544D01*
X11281916Y-31183973D02*
X11296201Y-31198259D01*
X11281916Y-31212544D01*
X11267630Y-31198259D01*
X11281916Y-31183973D01*
X11281916Y-31212544D01*
X11581916Y-31212544D02*
X11410487Y-31212544D01*
X11496201Y-31212544D02*
X11496201Y-30912544D01*
X11467630Y-30955401D01*
X11439058Y-30983973D01*
X11410487Y-30998259D01*
X11696201Y-30941116D02*
X11710487Y-30926830D01*
X11739058Y-30912544D01*
X11810487Y-30912544D01*
X11839058Y-30926830D01*
X11853344Y-30941116D01*
X11867630Y-30969687D01*
X11867630Y-30998259D01*
X11853344Y-31041116D01*
X11681916Y-31212544D01*
X11867630Y-31212544D01*
X12053344Y-30912544D02*
X12081916Y-30912544D01*
X12110487Y-30926830D01*
X12124773Y-30941116D01*
X12139058Y-30969687D01*
X12153344Y-31026830D01*
X12153344Y-31098259D01*
X12139058Y-31155401D01*
X12124773Y-31183973D01*
X12110487Y-31198259D01*
X12081916Y-31212544D01*
X12053344Y-31212544D01*
X12024773Y-31198259D01*
X12010487Y-31183973D01*
X11996201Y-31155401D01*
X11981916Y-31098259D01*
X11981916Y-31026830D01*
X11996201Y-30969687D01*
X12010487Y-30941116D01*
X12024773Y-30926830D01*
X12053344Y-30912544D01*
X12439058Y-31212544D02*
X12267630Y-31212544D01*
X12353344Y-31212544D02*
X12353344Y-30912544D01*
X12324773Y-30955401D01*
X12296201Y-30983973D01*
X12267630Y-30998259D01*
X12553344Y-30912544D02*
X12553344Y-30969687D01*
X12667630Y-30912544D02*
X12667630Y-30969687D01*
X13110487Y-31326830D02*
X13096201Y-31312544D01*
X13067630Y-31269687D01*
X13053344Y-31241116D01*
X13039058Y-31198259D01*
X13024773Y-31126830D01*
X13024773Y-31069687D01*
X13039058Y-30998259D01*
X13053344Y-30955401D01*
X13067630Y-30926830D01*
X13096201Y-30883973D01*
X13110487Y-30869687D01*
X13381916Y-31212544D02*
X13210487Y-31212544D01*
X13296201Y-31212544D02*
X13296201Y-30912544D01*
X13267630Y-30955401D01*
X13239058Y-30983973D01*
X13210487Y-30998259D01*
X13567630Y-30912544D02*
X13596201Y-30912544D01*
X13624773Y-30926830D01*
X13639058Y-30941116D01*
X13653344Y-30969687D01*
X13667630Y-31026830D01*
X13667630Y-31098259D01*
X13653344Y-31155401D01*
X13639058Y-31183973D01*
X13624773Y-31198259D01*
X13596201Y-31212544D01*
X13567630Y-31212544D01*
X13539058Y-31198259D01*
X13524773Y-31183973D01*
X13510487Y-31155401D01*
X13496201Y-31098259D01*
X13496201Y-31026830D01*
X13510487Y-30969687D01*
X13524773Y-30941116D01*
X13539058Y-30926830D01*
X13567630Y-30912544D01*
X14024773Y-31212544D02*
X14024773Y-30912544D01*
X14153344Y-31212544D02*
X14153344Y-31055401D01*
X14139058Y-31026830D01*
X14110487Y-31012544D01*
X14067630Y-31012544D01*
X14039058Y-31026830D01*
X14024773Y-31041116D01*
X14339058Y-31212544D02*
X14310487Y-31198259D01*
X14296201Y-31183973D01*
X14281916Y-31155401D01*
X14281916Y-31069687D01*
X14296201Y-31041116D01*
X14310487Y-31026830D01*
X14339058Y-31012544D01*
X14381916Y-31012544D01*
X14410487Y-31026830D01*
X14424773Y-31041116D01*
X14439058Y-31069687D01*
X14439058Y-31155401D01*
X14424773Y-31183973D01*
X14410487Y-31198259D01*
X14381916Y-31212544D01*
X14339058Y-31212544D01*
X14610487Y-31212544D02*
X14581916Y-31198259D01*
X14567630Y-31169687D01*
X14567630Y-30912544D01*
X14839058Y-31198259D02*
X14810487Y-31212544D01*
X14753344Y-31212544D01*
X14724773Y-31198259D01*
X14710487Y-31169687D01*
X14710487Y-31055401D01*
X14724773Y-31026830D01*
X14753344Y-31012544D01*
X14810487Y-31012544D01*
X14839058Y-31026830D01*
X14853344Y-31055401D01*
X14853344Y-31083973D01*
X14710487Y-31112544D01*
X14967630Y-31198259D02*
X14996201Y-31212544D01*
X15053344Y-31212544D01*
X15081916Y-31198259D01*
X15096201Y-31169687D01*
X15096201Y-31155401D01*
X15081916Y-31126830D01*
X15053344Y-31112544D01*
X15010487Y-31112544D01*
X14981916Y-31098259D01*
X14967630Y-31069687D01*
X14967630Y-31055401D01*
X14981916Y-31026830D01*
X15010487Y-31012544D01*
X15053344Y-31012544D01*
X15081916Y-31026830D01*
X15196201Y-31326830D02*
X15210487Y-31312544D01*
X15239058Y-31269687D01*
X15253344Y-31241116D01*
X15267630Y-31198259D01*
X15281916Y-31126830D01*
X15281916Y-31069687D01*
X15267630Y-30998259D01*
X15253344Y-30955401D01*
X15239058Y-30926830D01*
X15210487Y-30883973D01*
X15196201Y-30869687D01*
X15739058Y-31326830D02*
X15724773Y-31312544D01*
X15696201Y-31269687D01*
X15681916Y-31241116D01*
X15667630Y-31198259D01*
X15653344Y-31126830D01*
X15653344Y-31069687D01*
X15667630Y-30998259D01*
X15681916Y-30955401D01*
X15696201Y-30926830D01*
X15724773Y-30883973D01*
X15739058Y-30869687D01*
X15853344Y-31012544D02*
X15853344Y-31212544D01*
X15853344Y-31041116D02*
X15867630Y-31026830D01*
X15896201Y-31012544D01*
X15939058Y-31012544D01*
X15967630Y-31026830D01*
X15981916Y-31055401D01*
X15981916Y-31212544D01*
X16167630Y-31212544D02*
X16139058Y-31198259D01*
X16124773Y-31183973D01*
X16110487Y-31155401D01*
X16110487Y-31069687D01*
X16124773Y-31041116D01*
X16139058Y-31026830D01*
X16167630Y-31012544D01*
X16210487Y-31012544D01*
X16239058Y-31026830D01*
X16253344Y-31041116D01*
X16267630Y-31069687D01*
X16267630Y-31155401D01*
X16253344Y-31183973D01*
X16239058Y-31198259D01*
X16210487Y-31212544D01*
X16167630Y-31212544D01*
X16353344Y-31012544D02*
X16467630Y-31012544D01*
X16396201Y-30912544D02*
X16396201Y-31169687D01*
X16410487Y-31198259D01*
X16439058Y-31212544D01*
X16467630Y-31212544D01*
X16796201Y-31012544D02*
X16796201Y-31312544D01*
X16796201Y-31026830D02*
X16824773Y-31012544D01*
X16881916Y-31012544D01*
X16910487Y-31026830D01*
X16924773Y-31041116D01*
X16939058Y-31069687D01*
X16939058Y-31155401D01*
X16924773Y-31183973D01*
X16910487Y-31198259D01*
X16881916Y-31212544D01*
X16824773Y-31212544D01*
X16796201Y-31198259D01*
X17110487Y-31212544D02*
X17081916Y-31198259D01*
X17067630Y-31169687D01*
X17067630Y-30912544D01*
X17353344Y-31212544D02*
X17353344Y-31055401D01*
X17339058Y-31026830D01*
X17310487Y-31012544D01*
X17253344Y-31012544D01*
X17224773Y-31026830D01*
X17353344Y-31198259D02*
X17324773Y-31212544D01*
X17253344Y-31212544D01*
X17224773Y-31198259D01*
X17210487Y-31169687D01*
X17210487Y-31141116D01*
X17224773Y-31112544D01*
X17253344Y-31098259D01*
X17324773Y-31098259D01*
X17353344Y-31083973D01*
X17453344Y-31012544D02*
X17567630Y-31012544D01*
X17496201Y-30912544D02*
X17496201Y-31169687D01*
X17510487Y-31198259D01*
X17539058Y-31212544D01*
X17567630Y-31212544D01*
X17781916Y-31198259D02*
X17753344Y-31212544D01*
X17696201Y-31212544D01*
X17667630Y-31198259D01*
X17653344Y-31169687D01*
X17653344Y-31055401D01*
X17667630Y-31026830D01*
X17696201Y-31012544D01*
X17753344Y-31012544D01*
X17781916Y-31026830D01*
X17796201Y-31055401D01*
X17796201Y-31083973D01*
X17653344Y-31112544D01*
X18053344Y-31212544D02*
X18053344Y-30912544D01*
X18053344Y-31198259D02*
X18024773Y-31212544D01*
X17967630Y-31212544D01*
X17939058Y-31198259D01*
X17924773Y-31183973D01*
X17910487Y-31155401D01*
X17910487Y-31069687D01*
X17924773Y-31041116D01*
X17939058Y-31026830D01*
X17967630Y-31012544D01*
X18024773Y-31012544D01*
X18053344Y-31026830D01*
X18167630Y-31326830D02*
X18181916Y-31312544D01*
X18210487Y-31269687D01*
X18224773Y-31241116D01*
X18239058Y-31198259D01*
X18253344Y-31126830D01*
X18253344Y-31069687D01*
X18239058Y-30998259D01*
X18224773Y-30955401D01*
X18210487Y-30926830D01*
X18181916Y-30883973D01*
X18167630Y-30869687D01*
X7452630Y-31311830D02*
X7852630Y-31711830D01*
X7852630Y-31311830D02*
X7452630Y-31711830D01*
X7852630Y-31511830D02*
G75*
G03*
X7852630Y-31511830I-200000J0D01*
G01*
X8267630Y-31447544D02*
X8267630Y-31647544D01*
X8196201Y-31333259D02*
X8124773Y-31547544D01*
X8310487Y-31547544D01*
X8424773Y-31618973D02*
X8439058Y-31633259D01*
X8424773Y-31647544D01*
X8410487Y-31633259D01*
X8424773Y-31618973D01*
X8424773Y-31647544D01*
X8624773Y-31347544D02*
X8653344Y-31347544D01*
X8681916Y-31361830D01*
X8696201Y-31376116D01*
X8710487Y-31404687D01*
X8724773Y-31461830D01*
X8724773Y-31533259D01*
X8710487Y-31590401D01*
X8696201Y-31618973D01*
X8681916Y-31633259D01*
X8653344Y-31647544D01*
X8624773Y-31647544D01*
X8596201Y-31633259D01*
X8581916Y-31618973D01*
X8567630Y-31590401D01*
X8553344Y-31533259D01*
X8553344Y-31461830D01*
X8567630Y-31404687D01*
X8581916Y-31376116D01*
X8596201Y-31361830D01*
X8624773Y-31347544D01*
X8910487Y-31347544D02*
X8939058Y-31347544D01*
X8967630Y-31361830D01*
X8981916Y-31376116D01*
X8996201Y-31404687D01*
X9010487Y-31461830D01*
X9010487Y-31533259D01*
X8996201Y-31590401D01*
X8981916Y-31618973D01*
X8967630Y-31633259D01*
X8939058Y-31647544D01*
X8910487Y-31647544D01*
X8881916Y-31633259D01*
X8867630Y-31618973D01*
X8853344Y-31590401D01*
X8839058Y-31533259D01*
X8839058Y-31461830D01*
X8853344Y-31404687D01*
X8867630Y-31376116D01*
X8881916Y-31361830D01*
X8910487Y-31347544D01*
X9196201Y-31347544D02*
X9224773Y-31347544D01*
X9253344Y-31361830D01*
X9267630Y-31376116D01*
X9281916Y-31404687D01*
X9296201Y-31461830D01*
X9296201Y-31533259D01*
X9281916Y-31590401D01*
X9267630Y-31618973D01*
X9253344Y-31633259D01*
X9224773Y-31647544D01*
X9196201Y-31647544D01*
X9167630Y-31633259D01*
X9153344Y-31618973D01*
X9139058Y-31590401D01*
X9124773Y-31533259D01*
X9124773Y-31461830D01*
X9139058Y-31404687D01*
X9153344Y-31376116D01*
X9167630Y-31361830D01*
X9196201Y-31347544D01*
X9424773Y-31647544D02*
X9424773Y-31447544D01*
X9424773Y-31476116D02*
X9439058Y-31461830D01*
X9467630Y-31447544D01*
X9510487Y-31447544D01*
X9539058Y-31461830D01*
X9553344Y-31490401D01*
X9553344Y-31647544D01*
X9553344Y-31490401D02*
X9567630Y-31461830D01*
X9596201Y-31447544D01*
X9639058Y-31447544D01*
X9667630Y-31461830D01*
X9681916Y-31490401D01*
X9681916Y-31647544D01*
X9824773Y-31647544D02*
X9824773Y-31447544D01*
X9824773Y-31476116D02*
X9839058Y-31461830D01*
X9867630Y-31447544D01*
X9910487Y-31447544D01*
X9939058Y-31461830D01*
X9953344Y-31490401D01*
X9953344Y-31647544D01*
X9953344Y-31490401D02*
X9967630Y-31461830D01*
X9996201Y-31447544D01*
X10039058Y-31447544D01*
X10067630Y-31461830D01*
X10081916Y-31490401D01*
X10081916Y-31647544D01*
X10667630Y-31333259D02*
X10410487Y-31718973D01*
X11053344Y-31347544D02*
X11081916Y-31347544D01*
X11110487Y-31361830D01*
X11124773Y-31376116D01*
X11139058Y-31404687D01*
X11153344Y-31461830D01*
X11153344Y-31533259D01*
X11139058Y-31590401D01*
X11124773Y-31618973D01*
X11110487Y-31633259D01*
X11081916Y-31647544D01*
X11053344Y-31647544D01*
X11024773Y-31633259D01*
X11010487Y-31618973D01*
X10996201Y-31590401D01*
X10981916Y-31533259D01*
X10981916Y-31461830D01*
X10996201Y-31404687D01*
X11010487Y-31376116D01*
X11024773Y-31361830D01*
X11053344Y-31347544D01*
X11281916Y-31618973D02*
X11296201Y-31633259D01*
X11281916Y-31647544D01*
X11267630Y-31633259D01*
X11281916Y-31618973D01*
X11281916Y-31647544D01*
X11581916Y-31647544D02*
X11410487Y-31647544D01*
X11496201Y-31647544D02*
X11496201Y-31347544D01*
X11467630Y-31390401D01*
X11439058Y-31418973D01*
X11410487Y-31433259D01*
X11853344Y-31347544D02*
X11710487Y-31347544D01*
X11696201Y-31490401D01*
X11710487Y-31476116D01*
X11739058Y-31461830D01*
X11810487Y-31461830D01*
X11839058Y-31476116D01*
X11853344Y-31490401D01*
X11867630Y-31518973D01*
X11867630Y-31590401D01*
X11853344Y-31618973D01*
X11839058Y-31633259D01*
X11810487Y-31647544D01*
X11739058Y-31647544D01*
X11710487Y-31633259D01*
X11696201Y-31618973D01*
X11967630Y-31347544D02*
X12167630Y-31347544D01*
X12039058Y-31647544D01*
X12424773Y-31347544D02*
X12281916Y-31347544D01*
X12267630Y-31490401D01*
X12281916Y-31476116D01*
X12310487Y-31461830D01*
X12381916Y-31461830D01*
X12410487Y-31476116D01*
X12424773Y-31490401D01*
X12439058Y-31518973D01*
X12439058Y-31590401D01*
X12424773Y-31618973D01*
X12410487Y-31633259D01*
X12381916Y-31647544D01*
X12310487Y-31647544D01*
X12281916Y-31633259D01*
X12267630Y-31618973D01*
X12553344Y-31347544D02*
X12553344Y-31404687D01*
X12667630Y-31347544D02*
X12667630Y-31404687D01*
X13110487Y-31761830D02*
X13096201Y-31747544D01*
X13067630Y-31704687D01*
X13053344Y-31676116D01*
X13039058Y-31633259D01*
X13024773Y-31561830D01*
X13024773Y-31504687D01*
X13039058Y-31433259D01*
X13053344Y-31390401D01*
X13067630Y-31361830D01*
X13096201Y-31318973D01*
X13110487Y-31304687D01*
X13381916Y-31647544D02*
X13210487Y-31647544D01*
X13296201Y-31647544D02*
X13296201Y-31347544D01*
X13267630Y-31390401D01*
X13239058Y-31418973D01*
X13210487Y-31433259D01*
X13567630Y-31347544D02*
X13596201Y-31347544D01*
X13624773Y-31361830D01*
X13639058Y-31376116D01*
X13653344Y-31404687D01*
X13667630Y-31461830D01*
X13667630Y-31533259D01*
X13653344Y-31590401D01*
X13639058Y-31618973D01*
X13624773Y-31633259D01*
X13596201Y-31647544D01*
X13567630Y-31647544D01*
X13539058Y-31633259D01*
X13524773Y-31618973D01*
X13510487Y-31590401D01*
X13496201Y-31533259D01*
X13496201Y-31461830D01*
X13510487Y-31404687D01*
X13524773Y-31376116D01*
X13539058Y-31361830D01*
X13567630Y-31347544D01*
X13853344Y-31347544D02*
X13881916Y-31347544D01*
X13910487Y-31361830D01*
X13924773Y-31376116D01*
X13939058Y-31404687D01*
X13953344Y-31461830D01*
X13953344Y-31533259D01*
X13939058Y-31590401D01*
X13924773Y-31618973D01*
X13910487Y-31633259D01*
X13881916Y-31647544D01*
X13853344Y-31647544D01*
X13824773Y-31633259D01*
X13810487Y-31618973D01*
X13796201Y-31590401D01*
X13781916Y-31533259D01*
X13781916Y-31461830D01*
X13796201Y-31404687D01*
X13810487Y-31376116D01*
X13824773Y-31361830D01*
X13853344Y-31347544D01*
X14310487Y-31647544D02*
X14310487Y-31347544D01*
X14439058Y-31647544D02*
X14439058Y-31490401D01*
X14424773Y-31461830D01*
X14396201Y-31447544D01*
X14353344Y-31447544D01*
X14324773Y-31461830D01*
X14310487Y-31476116D01*
X14624773Y-31647544D02*
X14596201Y-31633259D01*
X14581916Y-31618973D01*
X14567630Y-31590401D01*
X14567630Y-31504687D01*
X14581916Y-31476116D01*
X14596201Y-31461830D01*
X14624773Y-31447544D01*
X14667630Y-31447544D01*
X14696201Y-31461830D01*
X14710487Y-31476116D01*
X14724773Y-31504687D01*
X14724773Y-31590401D01*
X14710487Y-31618973D01*
X14696201Y-31633259D01*
X14667630Y-31647544D01*
X14624773Y-31647544D01*
X14896201Y-31647544D02*
X14867630Y-31633259D01*
X14853344Y-31604687D01*
X14853344Y-31347544D01*
X15124773Y-31633259D02*
X15096201Y-31647544D01*
X15039058Y-31647544D01*
X15010487Y-31633259D01*
X14996201Y-31604687D01*
X14996201Y-31490401D01*
X15010487Y-31461830D01*
X15039058Y-31447544D01*
X15096201Y-31447544D01*
X15124773Y-31461830D01*
X15139058Y-31490401D01*
X15139058Y-31518973D01*
X14996201Y-31547544D01*
X15253344Y-31633259D02*
X15281916Y-31647544D01*
X15339058Y-31647544D01*
X15367630Y-31633259D01*
X15381916Y-31604687D01*
X15381916Y-31590401D01*
X15367630Y-31561830D01*
X15339058Y-31547544D01*
X15296201Y-31547544D01*
X15267630Y-31533259D01*
X15253344Y-31504687D01*
X15253344Y-31490401D01*
X15267630Y-31461830D01*
X15296201Y-31447544D01*
X15339058Y-31447544D01*
X15367630Y-31461830D01*
X15481916Y-31761830D02*
X15496201Y-31747544D01*
X15524773Y-31704687D01*
X15539058Y-31676116D01*
X15553344Y-31633259D01*
X15567630Y-31561830D01*
X15567630Y-31504687D01*
X15553344Y-31433259D01*
X15539058Y-31390401D01*
X15524773Y-31361830D01*
X15496201Y-31318973D01*
X15481916Y-31304687D01*
X16024773Y-31761830D02*
X16010487Y-31747544D01*
X15981916Y-31704687D01*
X15967630Y-31676116D01*
X15953344Y-31633259D01*
X15939058Y-31561830D01*
X15939058Y-31504687D01*
X15953344Y-31433259D01*
X15967630Y-31390401D01*
X15981916Y-31361830D01*
X16010487Y-31318973D01*
X16024773Y-31304687D01*
X16139058Y-31447544D02*
X16139058Y-31647544D01*
X16139058Y-31476116D02*
X16153344Y-31461830D01*
X16181916Y-31447544D01*
X16224773Y-31447544D01*
X16253344Y-31461830D01*
X16267630Y-31490401D01*
X16267630Y-31647544D01*
X16453344Y-31647544D02*
X16424773Y-31633259D01*
X16410487Y-31618973D01*
X16396201Y-31590401D01*
X16396201Y-31504687D01*
X16410487Y-31476116D01*
X16424773Y-31461830D01*
X16453344Y-31447544D01*
X16496201Y-31447544D01*
X16524773Y-31461830D01*
X16539058Y-31476116D01*
X16553344Y-31504687D01*
X16553344Y-31590401D01*
X16539058Y-31618973D01*
X16524773Y-31633259D01*
X16496201Y-31647544D01*
X16453344Y-31647544D01*
X16639058Y-31447544D02*
X16753344Y-31447544D01*
X16681916Y-31347544D02*
X16681916Y-31604687D01*
X16696201Y-31633259D01*
X16724773Y-31647544D01*
X16753344Y-31647544D01*
X17081916Y-31447544D02*
X17081916Y-31747544D01*
X17081916Y-31461830D02*
X17110487Y-31447544D01*
X17167630Y-31447544D01*
X17196201Y-31461830D01*
X17210487Y-31476116D01*
X17224773Y-31504687D01*
X17224773Y-31590401D01*
X17210487Y-31618973D01*
X17196201Y-31633259D01*
X17167630Y-31647544D01*
X17110487Y-31647544D01*
X17081916Y-31633259D01*
X17396201Y-31647544D02*
X17367630Y-31633259D01*
X17353344Y-31604687D01*
X17353344Y-31347544D01*
X17639058Y-31647544D02*
X17639058Y-31490401D01*
X17624773Y-31461830D01*
X17596201Y-31447544D01*
X17539058Y-31447544D01*
X17510487Y-31461830D01*
X17639058Y-31633259D02*
X17610487Y-31647544D01*
X17539058Y-31647544D01*
X17510487Y-31633259D01*
X17496201Y-31604687D01*
X17496201Y-31576116D01*
X17510487Y-31547544D01*
X17539058Y-31533259D01*
X17610487Y-31533259D01*
X17639058Y-31518973D01*
X17739058Y-31447544D02*
X17853344Y-31447544D01*
X17781916Y-31347544D02*
X17781916Y-31604687D01*
X17796201Y-31633259D01*
X17824773Y-31647544D01*
X17853344Y-31647544D01*
X18067630Y-31633259D02*
X18039058Y-31647544D01*
X17981916Y-31647544D01*
X17953344Y-31633259D01*
X17939058Y-31604687D01*
X17939058Y-31490401D01*
X17953344Y-31461830D01*
X17981916Y-31447544D01*
X18039058Y-31447544D01*
X18067630Y-31461830D01*
X18081916Y-31490401D01*
X18081916Y-31518973D01*
X17939058Y-31547544D01*
X18339058Y-31647544D02*
X18339058Y-31347544D01*
X18339058Y-31633259D02*
X18310487Y-31647544D01*
X18253344Y-31647544D01*
X18224773Y-31633259D01*
X18210487Y-31618973D01*
X18196201Y-31590401D01*
X18196201Y-31504687D01*
X18210487Y-31476116D01*
X18224773Y-31461830D01*
X18253344Y-31447544D01*
X18310487Y-31447544D01*
X18339058Y-31461830D01*
X18453344Y-31761830D02*
X18467630Y-31747544D01*
X18496201Y-31704687D01*
X18510487Y-31676116D01*
X18524773Y-31633259D01*
X18539058Y-31561830D01*
X18539058Y-31504687D01*
X18524773Y-31433259D01*
X18510487Y-31390401D01*
X18496201Y-31361830D01*
X18467630Y-31318973D01*
X18453344Y-31304687D01*
M02*
