M48
; DRILL file {KiCad (5.1.10)-1} date 12/22/21 19:33:33
; FORMAT={-:-/ absolute / metric / decimal}
; #@! TF.CreationDate,2021-12-22T19:33:33-05:00
; #@! TF.GenerationSoftware,Kicad,Pcbnew,(5.1.10)-1
; #@! TF.FileFunction,Plated,1,2,PTH
FMAT,2
METRIC
T1C0.400
T2C0.500
T3C0.600
T4C0.813
T5C1.000
T6C1.500
%
G90
G05
T1
X22.224Y-139.696
X22.224Y-158.746
X22.224Y-177.795
X22.224Y-196.838
X26.192Y-113.499
X26.986Y-165.883
X27.086Y-189.204
X27.383Y-130.623
X27.383Y-149.672
X27.383Y-150.803
X27.383Y-206.818
X27.383Y-208.253
X32.84Y-208.048
X32.939Y-130.564
X32.939Y-151.2
X32.939Y-168.852
X32.939Y-169.852
X32.939Y-187.901
X32.939Y-188.901
X33.235Y-206.462
X33.555Y-149.79
X33.832Y-170.984
X33.952Y-190.001
X38.098Y-129.373
X38.098Y-148.422
X38.098Y-167.471
X38.098Y-186.519
X38.098Y-205.568
X44.447Y-92.863
X44.447Y-121.436
X46.035Y-92.069
X46.828Y-197.631
X48.416Y-196.838
X49.209Y-140.485
X50.797Y-139.691
X51.59Y-159.534
X53.178Y-158.74
X53.575Y-207.949
X56.353Y-178.582
X56.75Y-102.181
X56.75Y-103.181
X56.75Y-130.754
X56.75Y-131.754
X57.729Y-104.281
X57.94Y-177.789
X58.337Y-169.852
X59.106Y-207.924
X59.862Y-209.244
X60.321Y-116.674
X60.321Y-187.313
X61.909Y-100.8
X61.909Y-129.373
X62.149Y-209.049
X63.099Y-188.901
X63.496Y-121.436
X63.893Y-168.852
X63.893Y-169.852
X64.29Y-205.568
X64.753Y-171.018
X66.671Y-148.422
X68.655Y-187.901
X68.655Y-188.901
X69.052Y-167.471
X69.524Y-190.057
X70.639Y-197.631
X72.227Y-196.838
X73.02Y-108.737
X73.02Y-140.485
X73.814Y-186.519
X74.608Y-139.691
X77.783Y-159.534
X79.37Y-116.674
X79.37Y-158.74
X80.957Y-129.373
X82.545Y-92.863
X82.545Y-121.436
X84.132Y-92.069
X84.529Y-169.852
X85.72Y-176.995
X87.307Y-176.201
X88.068Y-132.556
X88.101Y-205.568
X89.291Y-103.181
X89.291Y-131.754
X90.085Y-168.852
X90.085Y-169.852
X90.482Y-148.422
X91.275Y-120.642
X91.302Y-170.952
X92.069Y-108.737
X92.069Y-140.485
X93.657Y-139.691
X94.053Y-188.901
X94.45Y-197.631
X94.843Y-130.816
X94.847Y-102.181
X94.847Y-103.181
X94.847Y-131.816
X95.244Y-167.471
X95.741Y-104.313
X96.038Y-196.838
X96.831Y-159.534
X97.48Y-151.648
X98.419Y-116.674
X98.419Y-158.74
X98.816Y-150.803
X99.609Y-187.901
X99.609Y-188.901
X100.006Y-100.8
X100.006Y-129.373
X100.503Y-190.033
X101.594Y-92.863
X101.594Y-122.23
X103.181Y-92.069
X103.578Y-169.852
X104.372Y-149.803
X104.372Y-150.803
X104.768Y-186.519
X106.356Y-178.582
X107.943Y-177.789
X108.34Y-103.181
X108.34Y-132.151
X109.134Y-168.852
X109.134Y-169.852
X109.531Y-148.422
X110.147Y-170.952
X110.324Y-120.642
X111.118Y-108.737
X111.118Y-140.485
X111.912Y-205.568
X112.705Y-139.691
X113.102Y-188.901
X113.896Y-102.181
X113.896Y-103.181
X113.896Y-130.754
X113.896Y-131.754
X114.293Y-167.471
X114.756Y-104.347
X114.875Y-132.854
X115.88Y-159.534
X117.468Y-116.674
X117.468Y-158.74
X117.864Y-151.2
X118.658Y-187.901
X118.658Y-188.901
X119.055Y-100.8
X119.055Y-129.373
X119.518Y-190.067
X120.642Y-92.863
X120.642Y-121.436
X122.23Y-92.069
X122.23Y-211.918
X122.627Y-169.852
X123.42Y-149.803
X123.42Y-150.803
X123.817Y-186.519
X124.28Y-151.969
X125.405Y-178.582
X125.405Y-199.219
X126.992Y-177.789
X127.389Y-103.181
X127.389Y-131.754
X128.183Y-168.852
X128.183Y-169.852
X128.579Y-148.422
X128.579Y-211.918
X129.234Y-170.952
X129.373Y-120.642
X130.167Y-108.737
X130.167Y-140.485
X131.754Y-139.691
X132.379Y-188.901
X132.945Y-102.181
X132.945Y-103.181
X132.945Y-130.754
X132.945Y-131.754
X133.342Y-167.471
X133.839Y-104.313
X133.924Y-132.854
X134.929Y-159.534
X136.516Y-116.674
X136.516Y-158.74
X136.913Y-150.803
X137.707Y-188.901
X138.104Y-100.8
X138.104Y-129.373
X139.691Y-92.863
X139.691Y-121.436
X141.279Y-92.069
X141.675Y-169.852
X142.469Y-149.803
X142.469Y-150.803
X142.866Y-186.519
X143.329Y-151.969
X144.453Y-178.582
X146.041Y-177.789
X146.438Y-103.181
X146.438Y-131.754
X147.231Y-169.852
X147.628Y-148.422
X148.422Y-120.642
X149.216Y-108.737
X149.216Y-140.485
X149.583Y-190.03
X150.319Y-190.765
X150.413Y-187.318
X150.803Y-139.691
X151.2Y-188.901
X151.994Y-102.181
X151.994Y-103.181
X151.994Y-130.754
X151.994Y-131.754
X152.39Y-167.471
X152.853Y-104.347
X152.887Y-132.886
X153.978Y-159.534
X155.565Y-116.674
X155.565Y-158.74
X155.962Y-150.803
X156.741Y-187.991
X156.756Y-189.391
X157.153Y-100.8
X157.153Y-129.373
X157.731Y-188.133
X158.343Y-189.001
X158.74Y-121.436
X159.153Y-171.026
X159.86Y-171.734
X160.326Y-168.196
X160.724Y-169.852
X161.518Y-149.803
X161.518Y-150.803
X161.915Y-186.519
X162.378Y-151.969
X163.502Y-178.582
X165.09Y-177.789
X165.486Y-131.754
X165.883Y-197.631
X166.27Y-168.949
X166.28Y-170.349
X166.677Y-148.422
X167.261Y-169.084
X167.471Y-120.642
X167.471Y-196.838
X167.868Y-169.949
X168.264Y-92.863
X168.264Y-108.737
X168.264Y-140.485
X168.661Y-190.801
X169.852Y-92.069
X169.852Y-139.691
X170.249Y-188.901
X171.042Y-130.754
X171.042Y-131.754
X171.439Y-167.471
X171.832Y-132.991
X172.63Y-207.949
X173.027Y-159.534
X174.614Y-116.674
X174.614Y-158.74
X175.011Y-103.181
X175.011Y-150.803
X175.805Y-188.07
X175.805Y-189.47
X176.201Y-129.373
X176.828Y-188.467
X177.789Y-121.436
X178.186Y-207.949
X178.393Y-171.752
X179.031Y-209.347
X179.679Y-208.021
X179.773Y-169.852
X180.567Y-103.181
X180.567Y-149.803
X180.567Y-150.803
X180.964Y-186.519
X181.58Y-151.903
X182.551Y-178.582
X183.345Y-205.568
X184.138Y-177.789
X184.535Y-131.754
X185.329Y-169.021
X185.329Y-170.421
X185.726Y-100.8
X185.726Y-148.422
X186.519Y-120.642
X186.583Y-169.552
X187.313Y-92.863
X187.313Y-108.737
X187.313Y-140.485
X188.107Y-190.87
X188.901Y-92.069
X188.901Y-139.691
X189.297Y-188.901
X190.091Y-130.754
X190.091Y-131.754
X190.488Y-167.471
X191.028Y-132.998
X192.075Y-159.534
X192.707Y-104.42
X193.414Y-105.127
X193.652Y-101.578
X193.663Y-116.674
X193.663Y-158.74
X194.06Y-103.181
X194.06Y-150.803
X194.853Y-188.07
X194.853Y-189.47
X195.25Y-129.373
X195.845Y-188.435
X196.838Y-121.436
X197.631Y-171.821
X198.822Y-169.852
X199.556Y-102.178
X199.616Y-103.578
X199.616Y-149.803
X199.616Y-150.803
X200.012Y-186.519
X200.475Y-151.969
X200.576Y-102.498
X201.203Y-103.278
X201.6Y-178.582
X203.187Y-177.789
X203.584Y-131.754
X204.378Y-169.021
X204.378Y-170.421
X204.775Y-100.8
X204.775Y-148.422
X205.369Y-169.387
X205.568Y-120.642
X206.362Y-92.863
X206.362Y-108.737
X206.362Y-140.485
X206.437Y-192.07
X207.949Y-92.069
X207.949Y-139.691
X208.346Y-188.901
X209.14Y-131.754
X209.537Y-167.471
X211.124Y-159.534
X211.73Y-105.115
X212.712Y-116.674
X212.712Y-158.74
X213.108Y-103.181
X213.108Y-150.803
X213.902Y-188.07
X213.902Y-189.47
X214.299Y-129.373
X214.894Y-188.435
X215.829Y-173.021
X215.886Y-121.436
X217.871Y-169.852
X218.664Y-103.578
X218.664Y-150.803
X218.698Y-102.178
X219.061Y-186.519
X219.697Y-102.584
X220.649Y-178.582
X221.26Y-132.854
X221.442Y-199.219
X222.053Y-133.524
X222.121Y-130.098
X222.236Y-177.789
X222.236Y-211.918
X222.731Y-131.656
X223.427Y-169.021
X223.427Y-170.421
X223.823Y-100.8
X223.823Y-148.422
X224.45Y-169.418
X224.617Y-120.642
X225.411Y-92.863
X225.411Y-140.485
X225.766Y-192.112
X226.998Y-92.069
X226.998Y-139.691
X227.395Y-188.901
X228.189Y-130.751
X228.189Y-132.151
X228.586Y-167.471
X228.586Y-211.918
X229.203Y-131.139
X230.173Y-131.851
X230.173Y-159.534
X230.54Y-151.932
X230.891Y-105.226
X231.276Y-152.668
X231.749Y-149.2
X231.76Y-158.74
X232.157Y-103.181
X232.157Y-150.803
X232.951Y-188.07
X232.951Y-189.47
X233.348Y-129.373
X233.974Y-188.467
X234.935Y-121.436
X235.283Y-173.07
X236.919Y-169.852
X237.316Y-197.631
X237.713Y-102.178
X237.713Y-103.578
X237.713Y-149.8
X237.713Y-151.2
X238.11Y-186.519
X238.68Y-150.055
X238.729Y-102.568
X239.319Y-150.825
X239.697Y-178.582
X239.697Y-196.838
X240.224Y-133.651
X240.78Y-106.278
X240.826Y-102.472
X241.285Y-177.789
X241.682Y-131.754
X241.776Y-105.878
X241.813Y-102.872
X242.475Y-169.021
X242.475Y-170.421
X242.768Y-103.272
X242.768Y-105.478
X242.804Y-210.002
X242.872Y-88.894
X242.872Y-100.8
X242.872Y-148.422
X243.58Y-169.327
X243.666Y-91.275
X243.666Y-120.642
X243.752Y-103.664
X243.752Y-105.079
X244.063Y-207.949
X244.46Y-100.8
X244.46Y-104.372
X244.46Y-140.485
X244.505Y-192.07
X246.047Y-109.531
X246.047Y-139.691
X246.444Y-188.901
X247.178Y-130.751
X247.238Y-132.151
X247.634Y-88.101
X247.634Y-99.609
X247.634Y-107.149
X247.634Y-167.471
X248.449Y-131.336
X249.222Y-159.534
X249.619Y-206.949
X249.619Y-207.949
X250.015Y-109.531
X250.089Y-151.92
X250.478Y-209.116
X250.809Y-92.863
X250.809Y-99.609
X250.809Y-107.149
X250.809Y-158.74
X251.206Y-150.803
X252.0Y-104.372
X252.0Y-188.07
X252.0Y-189.47
X252.397Y-129.373
X252.707Y-103.664
X252.707Y-105.079
X253.023Y-188.467
X253.691Y-103.272
X253.691Y-105.478
X253.984Y-100.8
X253.984Y-121.436
X253.984Y-173.021
X254.647Y-102.872
X254.684Y-105.878
X254.778Y-205.568
X255.571Y-92.069
X255.633Y-102.472
X255.68Y-106.278
X255.968Y-169.852
X256.715Y-152.125
X256.762Y-150.009
X257.159Y-109.531
X257.159Y-186.519
X258.051Y-150.308
X258.746Y-178.582
X258.816Y-106.278
X259.471Y-133.807
X259.54Y-101.594
X260.334Y-177.789
X260.73Y-103.181
X260.73Y-131.754
X261.127Y-197.631
X261.524Y-168.852
X261.524Y-170.346
X261.921Y-91.275
X261.921Y-148.422
X262.715Y-120.642
X262.715Y-169.455
X262.715Y-196.838
X263.508Y-107.149
X263.508Y-109.531
X263.508Y-140.485
X264.302Y-189.07
X265.096Y-139.691
X265.493Y-188.901
X266.282Y-130.751
X266.286Y-103.578
X266.286Y-132.151
X266.314Y-210.249
X266.346Y-102.178
X266.683Y-167.471
X267.503Y-131.187
X267.552Y-102.663
X267.874Y-207.949
X268.271Y-159.534
X269.165Y-151.9
X269.858Y-158.74
X270.255Y-150.803
X270.652Y-107.149
X270.652Y-109.531
X271.049Y-187.901
X271.049Y-188.901
X271.445Y-100.8
X271.445Y-129.373
X272.57Y-174.217
X273.033Y-92.863
X273.033Y-121.436
X273.43Y-206.949
X273.43Y-207.949
X273.57Y-174.217
X274.443Y-209.049
X274.57Y-174.217
X274.62Y-92.069
X274.919Y-169.945
X275.57Y-174.217
X275.811Y-150.009
X276.208Y-186.519
X276.57Y-174.217
X276.778Y-150.384
X277.57Y-174.217
X277.738Y-106.35
X277.742Y-134.923
X278.57Y-174.217
X278.589Y-205.568
X279.57Y-174.218
X279.779Y-103.181
X279.779Y-131.754
X280.57Y-174.216
X280.573Y-169.058
X280.573Y-170.058
X280.97Y-148.422
X280.97Y-180.17
X280.97Y-184.932
X281.963Y-170.694
X282.557Y-107.149
X282.557Y-109.531
X282.557Y-140.485
X283.019Y-170.607
X283.098Y-186.147
X284.097Y-186.109
X284.145Y-139.691
X284.938Y-176.598
X284.938Y-197.631
X285.318Y-132.361
X285.335Y-103.578
X285.335Y-130.96
X285.335Y-175.011
X285.373Y-102.178
X285.693Y-192.908
X285.732Y-167.471
X286.383Y-102.573
X286.428Y-131.455
X287.319Y-180.17
X287.319Y-184.932
X288.51Y-190.488
X289.294Y-153.49
X289.304Y-150.803
X289.7Y-107.149
X289.7Y-109.531
X290.22Y-210.249
X290.253Y-153.09
X290.494Y-100.8
X290.494Y-129.373
X291.082Y-152.39
X291.288Y-178.979
X291.685Y-173.423
X291.685Y-207.949
X292.082Y-92.863
X292.082Y-152.39
X293.669Y-92.069
X293.669Y-171.439
X294.463Y-182.551
X294.86Y-150.009
X295.653Y-190.488
X295.851Y-150.338
X296.05Y-134.135
X296.05Y-177.789
X296.849Y-150.103
X296.985Y-106.35
X297.241Y-206.949
X297.241Y-207.949
X298.344Y-209.049
X298.828Y-103.181
X299.225Y-159.534
X300.019Y-148.422
X300.019Y-189.07
X300.812Y-121.436
X300.812Y-158.74
X301.209Y-188.901
X302.4Y-134.135
X302.4Y-171.439
X302.4Y-205.568
X304.384Y-102.35
X304.384Y-103.75
X304.781Y-154.772
X305.575Y-102.784
X305.971Y-130.167
X306.368Y-140.485
X306.368Y-149.216
X306.765Y-187.901
X306.765Y-188.901
X307.956Y-127.786
X307.956Y-139.691
X308.352Y-131.754
X308.749Y-192.869
X308.749Y-197.631
X309.543Y-100.8
X310.337Y-107.149
X310.337Y-109.531
X311.13Y-92.863
X311.527Y-135.326
X311.742Y-152.303
X311.924Y-186.519
X312.718Y-92.069
X312.718Y-190.885
X313.115Y-150.803
X313.512Y-186.519
X313.908Y-130.96
X313.908Y-131.961
X313.908Y-133.361
X313.936Y-210.249
X315.099Y-107.149
X315.099Y-109.531
X315.496Y-207.949
X315.893Y-134.533
X316.686Y-103.35
X316.686Y-167.471
X316.877Y-134.057
X317.877Y-103.181
X317.877Y-133.738
X318.671Y-149.972
X318.685Y-151.372
X319.007Y-133.378
X319.067Y-129.373
X319.861Y-132.857
X319.861Y-150.406
X319.861Y-190.091
X320.655Y-164.296
X321.052Y-207.949
X321.499Y-207.055
X323.036Y-122.23
X323.433Y-102.35
X323.433Y-103.35
X323.83Y-148.422
X324.623Y-151.994
X325.417Y-107.149
X325.417Y-109.531
X325.417Y-155.565
X325.504Y-149.699
X325.504Y-151.113
X325.814Y-186.916
X325.814Y-191.679
X326.211Y-120.642
X326.211Y-129.373
X326.211Y-130.564
X326.211Y-131.564
X326.211Y-132.564
X326.211Y-133.564
X326.211Y-148.422
X326.211Y-150.406
X326.211Y-205.568
X327.004Y-119.849
X327.748Y-196.145
X327.798Y-119.055
X328.195Y-195.25
X328.592Y-100.8
X329.195Y-195.25
X329.385Y-181.757
X329.385Y-194.06
X330.179Y-198.425
X330.179Y-205.568
X330.179Y-206.759
X331.336Y-176.16
X331.767Y-109.531
X331.767Y-206.849
X332.063Y-208.649
X332.163Y-186.916
X332.163Y-191.679
X332.56Y-107.149
X332.957Y-207.949
X335.735Y-159.534
X336.132Y-165.883
X336.132Y-207.949
X336.839Y-207.242
X336.926Y-114.69
X336.926Y-117.864
X336.926Y-124.214
X336.926Y-127.786
X336.926Y-134.929
X336.926Y-146.834
X336.926Y-149.216
X336.926Y-153.978
X336.926Y-158.74
X337.282Y-173.067
X337.546Y-206.535
X337.801Y-178.089
X339.307Y-113.896
X339.307Y-115.483
X339.307Y-121.833
X339.307Y-127.786
X339.307Y-134.929
X339.307Y-146.834
X339.307Y-150.406
X339.704Y-92.863
X339.704Y-181.757
X339.704Y-197.631
X339.704Y-205.568
X340.014Y-149.699
X340.014Y-151.113
X340.497Y-115.849
X340.497Y-116.849
X340.497Y-117.849
X340.497Y-118.849
X340.497Y-119.849
X340.497Y-129.373
X340.497Y-130.564
X340.497Y-131.564
X340.497Y-132.564
X340.497Y-133.564
X340.497Y-148.422
X340.497Y-161.121
X341.009Y-151.506
X341.291Y-188.901
X341.291Y-196.838
X342.085Y-92.069
X342.085Y-139.691
X342.085Y-153.184
X342.085Y-159.534
X343.672Y-130.564
X343.672Y-159.534
X343.788Y-180.286
X345.26Y-103.25
X345.26Y-169.852
X346.053Y-127.786
X346.053Y-186.519
X346.053Y-191.282
X346.192Y-151.138
X346.45Y-103.181
X346.45Y-132.151
X346.45Y-207.949
X346.847Y-159.534
X347.641Y-174.614
X349.228Y-111.912
X349.547Y-181.757
X350.022Y-172.233
X350.022Y-176.995
X350.815Y-188.901
X352.006Y-102.181
X352.006Y-103.181
X352.006Y-130.754
X352.006Y-131.754
X352.006Y-150.009
X352.006Y-151.009
X352.006Y-206.949
X352.006Y-207.949
X352.403Y-167.471
X352.403Y-174.614
X352.987Y-209.56
X353.019Y-132.861
X353.123Y-151.918
X353.99Y-179.376
X354.784Y-169.852
X355.578Y-186.519
X355.578Y-191.282
X357.165Y-100.8
X357.165Y-129.373
X357.165Y-148.422
X357.165Y-171.439
X357.165Y-205.568
X358.752Y-121.436
X358.752Y-140.485
X358.752Y-197.631
X359.578Y-184.096
X360.34Y-139.691
X360.34Y-177.789
X360.34Y-196.838
X361.983Y-157.946
X362.446Y-161.121
X363.118Y-109.134
X363.118Y-110.324
X364.499Y-131.754
X364.499Y-150.803
X364.604Y-207.249
X365.102Y-107.149
X365.102Y-113.499
X365.102Y-184.932
X365.102Y-203.981
X365.499Y-131.754
X365.499Y-150.803
X365.499Y-187.901
X365.499Y-188.901
X365.499Y-207.949
X366.689Y-171.439
X366.689Y-177.789
X366.702Y-172.452
X367.483Y-170.645
X369.07Y-161.915
X369.864Y-107.149
X369.864Y-113.499
X371.055Y-130.96
X371.055Y-131.961
X371.055Y-150.009
X371.055Y-151.009
X371.055Y-188.107
X371.055Y-189.107
X371.055Y-206.949
X371.055Y-207.949
X371.762Y-208.718
X372.761Y-209.119
X373.299Y-116.974
X373.436Y-130.167
X374.293Y-116.574
X375.319Y-116.327
X376.214Y-96.038
X376.214Y-112.705
X376.214Y-115.88
X376.214Y-132.96
X376.214Y-148.422
X376.214Y-186.519
X376.214Y-205.568
X376.911Y-131.16
X377.007Y-109.227
X377.007Y-139.691
X377.007Y-161.915
X377.007Y-178.582
X377.764Y-148.422
X377.801Y-116.674
X377.801Y-122.23
X377.801Y-197.631
X378.595Y-129.373
X378.595Y-177.789
X379.389Y-139.691
X379.389Y-196.838
X379.389Y-205.568
X380.976Y-161.915
X383.357Y-171.439
X387.326Y-111.912
X395.263Y-129.373
X395.263Y-148.422
X395.263Y-159.534
X395.263Y-205.568
T2
X22.224Y-119.849
X42.86Y-100.8
X42.86Y-129.373
X42.86Y-148.422
X42.86Y-167.471
X42.86Y-186.519
X42.86Y-205.568
X46.035Y-119.849
X65.083Y-119.849
X84.132Y-119.849
X103.181Y-119.849
X122.23Y-119.849
X141.279Y-119.849
X160.327Y-119.849
X179.376Y-119.849
X198.425Y-119.849
X217.474Y-119.849
X236.523Y-119.849
X255.571Y-119.849
X274.62Y-119.849
X303.193Y-119.849
X336.529Y-177.789
X338.116Y-170.645
X338.116Y-179.376
X341.291Y-179.376
X342.085Y-120.246
X349.228Y-185.726
X352.403Y-185.726
X360.34Y-120.642
X366.689Y-161.915
X379.389Y-120.642
X380.976Y-173.82
T4
X386.532Y-160.486
X386.532Y-163.026
X386.532Y-165.566
X386.532Y-168.106
T5
X27.542Y-90.085
X27.542Y-104.585
X30.042Y-90.085
X32.542Y-90.085
X32.542Y-104.585
X233.824Y-108.737
X236.364Y-108.737
X238.904Y-108.737
X361.133Y-163.502
X361.133Y-166.042
X361.133Y-168.582
X361.133Y-171.122
X384.707Y-90.085
X384.707Y-104.585
X387.207Y-90.085
X389.707Y-90.085
X389.707Y-104.585
T3
X244.902Y-80.083G85X244.902Y-80.683
G05
X244.902Y-84.013G85X244.902Y-85.113
G05
X253.542Y-80.083G85X253.542Y-80.683
G05
X253.542Y-84.013G85X253.542Y-85.113
G05
T6
X24.442Y-96.935G85X24.442Y-98.235
G05
X35.642Y-96.935G85X35.642Y-98.235
G05
X381.607Y-96.935G85X381.607Y-98.235
G05
X392.807Y-96.935G85X392.807Y-98.235
G05
T0
M30
