%FSLAX45Y45*%
G04 Gerber Fmt 4.5, Leading zero omitted, Abs format (unit mm)*
G04 Created by KiCad (PCBNEW (5.1.10)-1) date 2021-11-26 21:30:38*
%MOMM*%
%LPD*%
G01*
G04 APERTURE LIST*
%TA.AperFunction,Profile*%
%ADD10C,0.100000*%
%TD*%
%ADD11C,0.200000*%
%ADD12C,0.300000*%
G04 APERTURE END LIST*
D10*
X31509890Y-15794630D02*
X45320270Y-15794630D01*
X8175110Y-15794630D02*
X30081230Y-15794630D01*
X30239970Y-15635890D02*
G75*
G02*
X30081230Y-15794630I-158740J0D01*
G01*
X31509890Y-15794630D02*
G75*
G02*
X31351150Y-15635890I0J158740D01*
G01*
X31351150Y-14921560D02*
X31351150Y-15635890D01*
X30239970Y-14921560D02*
X30239970Y-15635890D01*
X7857630Y-16112110D02*
G75*
G02*
X8175110Y-15794630I317480J0D01*
G01*
X7857630Y-28017610D02*
X7857630Y-16112110D01*
X45320270Y-15794630D02*
G75*
G02*
X45637750Y-16112110I0J-317480D01*
G01*
X45637750Y-28017610D02*
X45637750Y-16112110D01*
X8175110Y-28335090D02*
G75*
G02*
X7857630Y-28017610I0J317480D01*
G01*
X45637750Y-28017610D02*
G75*
G02*
X45320270Y-28335090I-317480J0D01*
G01*
X8175110Y-28335090D02*
X45320270Y-28335090D01*
X31351150Y-14921560D02*
X30239970Y-14921560D01*
D11*
X30474060Y-15434690D02*
X30539060Y-15499690D01*
X30539060Y-15434690D02*
X30474060Y-15499690D01*
X31052060Y-15434690D02*
X31117060Y-15499690D01*
X31117060Y-15434690D02*
X31052060Y-15499690D01*
X8468940Y-19683760D02*
G75*
G03*
X8468940Y-19683760I-87500J0D01*
G01*
X8468940Y-21588640D02*
G75*
G03*
X8468940Y-21588640I-87500J0D01*
G01*
X8468940Y-23493520D02*
G75*
G03*
X8468940Y-23493520I-87500J0D01*
G01*
X8468940Y-25398400D02*
G75*
G03*
X8468940Y-25398400I-87500J0D01*
G01*
X8468940Y-27303280D02*
G75*
G03*
X8468940Y-27303280I-87500J0D01*
G01*
X9484940Y-19683760D02*
G75*
G03*
X9484940Y-19683760I-87500J0D01*
G01*
X9484940Y-21588640D02*
G75*
G03*
X9484940Y-21588640I-87500J0D01*
G01*
X9484940Y-23493520D02*
G75*
G03*
X9484940Y-23493520I-87500J0D01*
G01*
X9484940Y-25398400D02*
G75*
G03*
X9484940Y-25398400I-87500J0D01*
G01*
X9484940Y-27303280D02*
G75*
G03*
X9484940Y-27303280I-87500J0D01*
G01*
X10850040Y-16826440D02*
G75*
G03*
X10850040Y-16826440I-87500J0D01*
G01*
X10850040Y-19683760D02*
G75*
G03*
X10850040Y-19683760I-87500J0D01*
G01*
X11088150Y-27303280D02*
G75*
G03*
X11088150Y-27303280I-87500J0D01*
G01*
X11326260Y-21588640D02*
G75*
G03*
X11326260Y-21588640I-87500J0D01*
G01*
X11564370Y-23493520D02*
G75*
G03*
X11564370Y-23493520I-87500J0D01*
G01*
X11866040Y-16826440D02*
G75*
G03*
X11866040Y-16826440I-87500J0D01*
G01*
X11866040Y-19683760D02*
G75*
G03*
X11866040Y-19683760I-87500J0D01*
G01*
X12040590Y-25398400D02*
G75*
G03*
X12040590Y-25398400I-87500J0D01*
G01*
X12104150Y-27303280D02*
G75*
G03*
X12104150Y-27303280I-87500J0D01*
G01*
X12342260Y-21588640D02*
G75*
G03*
X12342260Y-21588640I-87500J0D01*
G01*
X12580370Y-23493520D02*
G75*
G03*
X12580370Y-23493520I-87500J0D01*
G01*
X12754920Y-19683760D02*
G75*
G03*
X12754920Y-19683760I-87500J0D01*
G01*
X13056590Y-25398400D02*
G75*
G03*
X13056590Y-25398400I-87500J0D01*
G01*
X13469250Y-27303280D02*
G75*
G03*
X13469250Y-27303280I-87500J0D01*
G01*
X13707360Y-21588640D02*
G75*
G03*
X13707360Y-21588640I-87500J0D01*
G01*
X13770920Y-19683760D02*
G75*
G03*
X13770920Y-19683760I-87500J0D01*
G01*
X14177750Y-23493520D02*
G75*
G03*
X14177750Y-23493520I-87500J0D01*
G01*
X14485250Y-27303280D02*
G75*
G03*
X14485250Y-27303280I-87500J0D01*
G01*
X14659800Y-16826440D02*
G75*
G03*
X14659800Y-16826440I-87500J0D01*
G01*
X14659800Y-19683760D02*
G75*
G03*
X14659800Y-19683760I-87500J0D01*
G01*
X14723360Y-21588640D02*
G75*
G03*
X14723360Y-21588640I-87500J0D01*
G01*
X15136020Y-25398400D02*
G75*
G03*
X15136020Y-25398400I-87500J0D01*
G01*
X15193750Y-23493520D02*
G75*
G03*
X15193750Y-23493520I-87500J0D01*
G01*
X15612240Y-21588640D02*
G75*
G03*
X15612240Y-21588640I-87500J0D01*
G01*
X15675800Y-16826440D02*
G75*
G03*
X15675800Y-16826440I-87500J0D01*
G01*
X15675800Y-19683760D02*
G75*
G03*
X15675800Y-19683760I-87500J0D01*
G01*
X15850350Y-27303280D02*
G75*
G03*
X15850350Y-27303280I-87500J0D01*
G01*
X16088460Y-23493520D02*
G75*
G03*
X16088460Y-23493520I-87500J0D01*
G01*
X16152020Y-25398400D02*
G75*
G03*
X16152020Y-25398400I-87500J0D01*
G01*
X16564680Y-16826440D02*
G75*
G03*
X16564680Y-16826440I-87500J0D01*
G01*
X16564680Y-19683760D02*
G75*
G03*
X16564680Y-19683760I-87500J0D01*
G01*
X16628240Y-21588640D02*
G75*
G03*
X16628240Y-21588640I-87500J0D01*
G01*
X16866350Y-27303280D02*
G75*
G03*
X16866350Y-27303280I-87500J0D01*
G01*
X17040900Y-25398400D02*
G75*
G03*
X17040900Y-25398400I-87500J0D01*
G01*
X17104460Y-23493520D02*
G75*
G03*
X17104460Y-23493520I-87500J0D01*
G01*
X17517120Y-21588640D02*
G75*
G03*
X17517120Y-21588640I-87500J0D01*
G01*
X17580680Y-16826440D02*
G75*
G03*
X17580680Y-16826440I-87500J0D01*
G01*
X17580680Y-19683760D02*
G75*
G03*
X17580680Y-19683760I-87500J0D01*
G01*
X17993340Y-23493520D02*
G75*
G03*
X17993340Y-23493520I-87500J0D01*
G01*
X18056900Y-25398400D02*
G75*
G03*
X18056900Y-25398400I-87500J0D01*
G01*
X18469560Y-16826440D02*
G75*
G03*
X18469560Y-16826440I-87500J0D01*
G01*
X18469560Y-19683760D02*
G75*
G03*
X18469560Y-19683760I-87500J0D01*
G01*
X18533120Y-21588640D02*
G75*
G03*
X18533120Y-21588640I-87500J0D01*
G01*
X18945780Y-25398400D02*
G75*
G03*
X18945780Y-25398400I-87500J0D01*
G01*
X19009340Y-23493520D02*
G75*
G03*
X19009340Y-23493520I-87500J0D01*
G01*
X19422000Y-21588640D02*
G75*
G03*
X19422000Y-21588640I-87500J0D01*
G01*
X19485560Y-16826440D02*
G75*
G03*
X19485560Y-16826440I-87500J0D01*
G01*
X19485560Y-19683760D02*
G75*
G03*
X19485560Y-19683760I-87500J0D01*
G01*
X19898220Y-23493520D02*
G75*
G03*
X19898220Y-23493520I-87500J0D01*
G01*
X19961780Y-25398400D02*
G75*
G03*
X19961780Y-25398400I-87500J0D01*
G01*
X20374440Y-16826440D02*
G75*
G03*
X20374440Y-16826440I-87500J0D01*
G01*
X20374440Y-19683760D02*
G75*
G03*
X20374440Y-19683760I-87500J0D01*
G01*
X20438000Y-21588640D02*
G75*
G03*
X20438000Y-21588640I-87500J0D01*
G01*
X20850660Y-25398400D02*
G75*
G03*
X20850660Y-25398400I-87500J0D01*
G01*
X20914220Y-23493520D02*
G75*
G03*
X20914220Y-23493520I-87500J0D01*
G01*
X21326880Y-21588640D02*
G75*
G03*
X21326880Y-21588640I-87500J0D01*
G01*
X21390440Y-16826440D02*
G75*
G03*
X21390440Y-16826440I-87500J0D01*
G01*
X21390440Y-19683760D02*
G75*
G03*
X21390440Y-19683760I-87500J0D01*
G01*
X21803100Y-23493520D02*
G75*
G03*
X21803100Y-23493520I-87500J0D01*
G01*
X21866660Y-25398400D02*
G75*
G03*
X21866660Y-25398400I-87500J0D01*
G01*
X22279320Y-19683760D02*
G75*
G03*
X22279320Y-19683760I-87500J0D01*
G01*
X22342880Y-21588640D02*
G75*
G03*
X22342880Y-21588640I-87500J0D01*
G01*
X22755540Y-25398400D02*
G75*
G03*
X22755540Y-25398400I-87500J0D01*
G01*
X22819100Y-23493520D02*
G75*
G03*
X22819100Y-23493520I-87500J0D01*
G01*
X22993650Y-27303280D02*
G75*
G03*
X22993650Y-27303280I-87500J0D01*
G01*
X23231760Y-16826440D02*
G75*
G03*
X23231760Y-16826440I-87500J0D01*
G01*
X23231760Y-21588640D02*
G75*
G03*
X23231760Y-21588640I-87500J0D01*
G01*
X23295320Y-19683760D02*
G75*
G03*
X23295320Y-19683760I-87500J0D01*
G01*
X23707980Y-23493520D02*
G75*
G03*
X23707980Y-23493520I-87500J0D01*
G01*
X23771540Y-25398400D02*
G75*
G03*
X23771540Y-25398400I-87500J0D01*
G01*
X24009650Y-27303280D02*
G75*
G03*
X24009650Y-27303280I-87500J0D01*
G01*
X24184200Y-19683760D02*
G75*
G03*
X24184200Y-19683760I-87500J0D01*
G01*
X24247760Y-16826440D02*
G75*
G03*
X24247760Y-16826440I-87500J0D01*
G01*
X24247760Y-21588640D02*
G75*
G03*
X24247760Y-21588640I-87500J0D01*
G01*
X24660420Y-25398400D02*
G75*
G03*
X24660420Y-25398400I-87500J0D01*
G01*
X24723980Y-23493520D02*
G75*
G03*
X24723980Y-23493520I-87500J0D01*
G01*
X25136640Y-16826440D02*
G75*
G03*
X25136640Y-16826440I-87500J0D01*
G01*
X25136640Y-21588640D02*
G75*
G03*
X25136640Y-21588640I-87500J0D01*
G01*
X25200200Y-19683760D02*
G75*
G03*
X25200200Y-19683760I-87500J0D01*
G01*
X25612860Y-23493520D02*
G75*
G03*
X25612860Y-23493520I-87500J0D01*
G01*
X25676420Y-25398400D02*
G75*
G03*
X25676420Y-25398400I-87500J0D01*
G01*
X26089080Y-19683760D02*
G75*
G03*
X26089080Y-19683760I-87500J0D01*
G01*
X26152640Y-16826440D02*
G75*
G03*
X26152640Y-16826440I-87500J0D01*
G01*
X26152640Y-21588640D02*
G75*
G03*
X26152640Y-21588640I-87500J0D01*
G01*
X26565300Y-25398400D02*
G75*
G03*
X26565300Y-25398400I-87500J0D01*
G01*
X26628860Y-23493520D02*
G75*
G03*
X26628860Y-23493520I-87500J0D01*
G01*
X27041520Y-16826440D02*
G75*
G03*
X27041520Y-16826440I-87500J0D01*
G01*
X27041520Y-21588640D02*
G75*
G03*
X27041520Y-21588640I-87500J0D01*
G01*
X27105080Y-19683760D02*
G75*
G03*
X27105080Y-19683760I-87500J0D01*
G01*
X27517740Y-23493520D02*
G75*
G03*
X27517740Y-23493520I-87500J0D01*
G01*
X27581300Y-25398400D02*
G75*
G03*
X27581300Y-25398400I-87500J0D01*
G01*
X27993960Y-19683760D02*
G75*
G03*
X27993960Y-19683760I-87500J0D01*
G01*
X28057520Y-16826440D02*
G75*
G03*
X28057520Y-16826440I-87500J0D01*
G01*
X28057520Y-21588640D02*
G75*
G03*
X28057520Y-21588640I-87500J0D01*
G01*
X28470180Y-25398400D02*
G75*
G03*
X28470180Y-25398400I-87500J0D01*
G01*
X28533740Y-23493520D02*
G75*
G03*
X28533740Y-23493520I-87500J0D01*
G01*
X28946400Y-16826440D02*
G75*
G03*
X28946400Y-16826440I-87500J0D01*
G01*
X28946400Y-21588640D02*
G75*
G03*
X28946400Y-21588640I-87500J0D01*
G01*
X29009960Y-19683760D02*
G75*
G03*
X29009960Y-19683760I-87500J0D01*
G01*
X29422620Y-23493520D02*
G75*
G03*
X29422620Y-23493520I-87500J0D01*
G01*
X29486180Y-25398400D02*
G75*
G03*
X29486180Y-25398400I-87500J0D01*
G01*
X29898840Y-19683760D02*
G75*
G03*
X29898840Y-19683760I-87500J0D01*
G01*
X29962400Y-16826440D02*
G75*
G03*
X29962400Y-16826440I-87500J0D01*
G01*
X29962400Y-21588640D02*
G75*
G03*
X29962400Y-21588640I-87500J0D01*
G01*
X30136950Y-27303280D02*
G75*
G03*
X30136950Y-27303280I-87500J0D01*
G01*
X30375060Y-25398400D02*
G75*
G03*
X30375060Y-25398400I-87500J0D01*
G01*
X30438620Y-23493520D02*
G75*
G03*
X30438620Y-23493520I-87500J0D01*
G01*
X30851280Y-21588640D02*
G75*
G03*
X30851280Y-21588640I-87500J0D01*
G01*
X30914840Y-19683760D02*
G75*
G03*
X30914840Y-19683760I-87500J0D01*
G01*
X31152950Y-27303280D02*
G75*
G03*
X31152950Y-27303280I-87500J0D01*
G01*
X31327500Y-23493520D02*
G75*
G03*
X31327500Y-23493520I-87500J0D01*
G01*
X31391060Y-25398400D02*
G75*
G03*
X31391060Y-25398400I-87500J0D01*
G01*
X31803720Y-16826440D02*
G75*
G03*
X31803720Y-16826440I-87500J0D01*
G01*
X31803720Y-19683760D02*
G75*
G03*
X31803720Y-19683760I-87500J0D01*
G01*
X31867280Y-21588640D02*
G75*
G03*
X31867280Y-21588640I-87500J0D01*
G01*
X32279940Y-25398400D02*
G75*
G03*
X32279940Y-25398400I-87500J0D01*
G01*
X32343500Y-23493520D02*
G75*
G03*
X32343500Y-23493520I-87500J0D01*
G01*
X32518050Y-27303280D02*
G75*
G03*
X32518050Y-27303280I-87500J0D01*
G01*
X32756160Y-21588640D02*
G75*
G03*
X32756160Y-21588640I-87500J0D01*
G01*
X32819720Y-16826440D02*
G75*
G03*
X32819720Y-16826440I-87500J0D01*
G01*
X32819720Y-19683760D02*
G75*
G03*
X32819720Y-19683760I-87500J0D01*
G01*
X33232380Y-23493520D02*
G75*
G03*
X33232380Y-23493520I-87500J0D01*
G01*
X33295940Y-25398400D02*
G75*
G03*
X33295940Y-25398400I-87500J0D01*
G01*
X33534050Y-27303280D02*
G75*
G03*
X33534050Y-27303280I-87500J0D01*
G01*
X33708600Y-16826440D02*
G75*
G03*
X33708600Y-16826440I-87500J0D01*
G01*
X33708600Y-19683760D02*
G75*
G03*
X33708600Y-19683760I-87500J0D01*
G01*
X33772160Y-21588640D02*
G75*
G03*
X33772160Y-21588640I-87500J0D01*
G01*
X34248380Y-23493520D02*
G75*
G03*
X34248380Y-23493520I-87500J0D01*
G01*
X34661040Y-21588640D02*
G75*
G03*
X34661040Y-21588640I-87500J0D01*
G01*
X34724600Y-16826440D02*
G75*
G03*
X34724600Y-16826440I-87500J0D01*
G01*
X34724600Y-19683760D02*
G75*
G03*
X34724600Y-19683760I-87500J0D01*
G01*
X34899150Y-27303280D02*
G75*
G03*
X34899150Y-27303280I-87500J0D01*
G01*
X35613480Y-16826440D02*
G75*
G03*
X35613480Y-16826440I-87500J0D01*
G01*
X35677040Y-21588640D02*
G75*
G03*
X35677040Y-21588640I-87500J0D01*
G01*
X35851590Y-25398400D02*
G75*
G03*
X35851590Y-25398400I-87500J0D01*
G01*
X35915150Y-27303280D02*
G75*
G03*
X35915150Y-27303280I-87500J0D01*
G01*
X36327810Y-23493520D02*
G75*
G03*
X36327810Y-23493520I-87500J0D01*
G01*
X36565920Y-19683760D02*
G75*
G03*
X36565920Y-19683760I-87500J0D01*
G01*
X36629480Y-16826440D02*
G75*
G03*
X36629480Y-16826440I-87500J0D01*
G01*
X36867590Y-25398400D02*
G75*
G03*
X36867590Y-25398400I-87500J0D01*
G01*
X37042140Y-21588640D02*
G75*
G03*
X37042140Y-21588640I-87500J0D01*
G01*
X37280250Y-27303280D02*
G75*
G03*
X37280250Y-27303280I-87500J0D01*
G01*
X37343810Y-23493520D02*
G75*
G03*
X37343810Y-23493520I-87500J0D01*
G01*
X37518360Y-16826440D02*
G75*
G03*
X37518360Y-16826440I-87500J0D01*
G01*
X37581920Y-19683760D02*
G75*
G03*
X37581920Y-19683760I-87500J0D01*
G01*
X38058140Y-21588640D02*
G75*
G03*
X38058140Y-21588640I-87500J0D01*
G01*
X38296250Y-27303280D02*
G75*
G03*
X38296250Y-27303280I-87500J0D01*
G01*
X38534360Y-16826440D02*
G75*
G03*
X38534360Y-16826440I-87500J0D01*
G01*
X40375680Y-16826440D02*
G75*
G03*
X40375680Y-16826440I-87500J0D01*
G01*
X40375680Y-19683760D02*
G75*
G03*
X40375680Y-19683760I-87500J0D01*
G01*
X40375680Y-21588640D02*
G75*
G03*
X40375680Y-21588640I-87500J0D01*
G01*
X40375680Y-27303280D02*
G75*
G03*
X40375680Y-27303280I-87500J0D01*
G01*
X41391680Y-16826440D02*
G75*
G03*
X41391680Y-16826440I-87500J0D01*
G01*
X41391680Y-19683760D02*
G75*
G03*
X41391680Y-19683760I-87500J0D01*
G01*
X41391680Y-21588640D02*
G75*
G03*
X41391680Y-21588640I-87500J0D01*
G01*
X41391680Y-27303280D02*
G75*
G03*
X41391680Y-27303280I-87500J0D01*
G01*
X42280560Y-19683760D02*
G75*
G03*
X42280560Y-19683760I-87500J0D01*
G01*
X42280560Y-21588640D02*
G75*
G03*
X42280560Y-21588640I-87500J0D01*
G01*
X42280560Y-25398400D02*
G75*
G03*
X42280560Y-25398400I-87500J0D01*
G01*
X42280560Y-27303280D02*
G75*
G03*
X42280560Y-27303280I-87500J0D01*
G01*
X43296560Y-19683760D02*
G75*
G03*
X43296560Y-19683760I-87500J0D01*
G01*
X43296560Y-21588640D02*
G75*
G03*
X43296560Y-21588640I-87500J0D01*
G01*
X43296560Y-25398400D02*
G75*
G03*
X43296560Y-25398400I-87500J0D01*
G01*
X43296560Y-27303280D02*
G75*
G03*
X43296560Y-27303280I-87500J0D01*
G01*
X44185440Y-19683760D02*
G75*
G03*
X44185440Y-19683760I-87500J0D01*
G01*
X44185440Y-21588640D02*
G75*
G03*
X44185440Y-21588640I-87500J0D01*
G01*
X44185440Y-27303280D02*
G75*
G03*
X44185440Y-27303280I-87500J0D01*
G01*
X45201440Y-19683760D02*
G75*
G03*
X45201440Y-19683760I-87500J0D01*
G01*
X45201440Y-21588640D02*
G75*
G03*
X45201440Y-21588640I-87500J0D01*
G01*
X45201440Y-27303280D02*
G75*
G03*
X45201440Y-27303280I-87500J0D01*
G01*
X8508440Y-19279760D02*
X8508440Y-19579760D01*
X8358440Y-19429760D02*
X8658440Y-19429760D01*
X8508440Y-21184640D02*
X8508440Y-21484640D01*
X8358440Y-21334640D02*
X8658440Y-21334640D01*
X8508440Y-23089520D02*
X8508440Y-23389520D01*
X8358440Y-23239520D02*
X8658440Y-23239520D01*
X8508440Y-24994400D02*
X8508440Y-25294400D01*
X8358440Y-25144400D02*
X8658440Y-25144400D01*
X8508440Y-26899280D02*
X8508440Y-27199280D01*
X8358440Y-27049280D02*
X8658440Y-27049280D01*
X9143440Y-19025760D02*
X9143440Y-19325760D01*
X8993440Y-19175760D02*
X9293440Y-19175760D01*
X9143440Y-20930640D02*
X9143440Y-21230640D01*
X8993440Y-21080640D02*
X9293440Y-21080640D01*
X9143440Y-22835520D02*
X9143440Y-23135520D01*
X8993440Y-22985520D02*
X9293440Y-22985520D01*
X9143440Y-24740400D02*
X9143440Y-25040400D01*
X8993440Y-24890400D02*
X9293440Y-24890400D01*
X9143440Y-26645280D02*
X9143440Y-26945280D01*
X8993440Y-26795280D02*
X9293440Y-26795280D01*
X10889540Y-16422440D02*
X10889540Y-16722440D01*
X10739540Y-16572440D02*
X11039540Y-16572440D01*
X10889540Y-19279760D02*
X10889540Y-19579760D01*
X10739540Y-19429760D02*
X11039540Y-19429760D01*
X11127650Y-26899280D02*
X11127650Y-27199280D01*
X10977650Y-27049280D02*
X11277650Y-27049280D01*
X11365760Y-21184640D02*
X11365760Y-21484640D01*
X11215760Y-21334640D02*
X11515760Y-21334640D01*
X11524540Y-16168440D02*
X11524540Y-16468440D01*
X11374540Y-16318440D02*
X11674540Y-16318440D01*
X11524540Y-19025760D02*
X11524540Y-19325760D01*
X11374540Y-19175760D02*
X11674540Y-19175760D01*
X11603870Y-23089520D02*
X11603870Y-23389520D01*
X11453870Y-23239520D02*
X11753870Y-23239520D01*
X11762650Y-26645280D02*
X11762650Y-26945280D01*
X11612650Y-26795280D02*
X11912650Y-26795280D01*
X12000760Y-20930640D02*
X12000760Y-21230640D01*
X11850760Y-21080640D02*
X12150760Y-21080640D01*
X12080090Y-24994400D02*
X12080090Y-25294400D01*
X11930090Y-25144400D02*
X12230090Y-25144400D01*
X12238870Y-22835520D02*
X12238870Y-23135520D01*
X12088870Y-22985520D02*
X12388870Y-22985520D01*
X12715090Y-24740400D02*
X12715090Y-25040400D01*
X12565090Y-24890400D02*
X12865090Y-24890400D01*
X12794420Y-19279760D02*
X12794420Y-19579760D01*
X12644420Y-19429760D02*
X12944420Y-19429760D01*
X13429420Y-19025760D02*
X13429420Y-19325760D01*
X13279420Y-19175760D02*
X13579420Y-19175760D01*
X13508750Y-26899280D02*
X13508750Y-27199280D01*
X13358750Y-27049280D02*
X13658750Y-27049280D01*
X13746860Y-21184640D02*
X13746860Y-21484640D01*
X13596860Y-21334640D02*
X13896860Y-21334640D01*
X14143750Y-26645280D02*
X14143750Y-26945280D01*
X13993750Y-26795280D02*
X14293750Y-26795280D01*
X14217250Y-23089520D02*
X14217250Y-23389520D01*
X14067250Y-23239520D02*
X14367250Y-23239520D01*
X14381860Y-20930640D02*
X14381860Y-21230640D01*
X14231860Y-21080640D02*
X14531860Y-21080640D01*
X14699300Y-16422440D02*
X14699300Y-16722440D01*
X14549300Y-16572440D02*
X14849300Y-16572440D01*
X14699300Y-19279760D02*
X14699300Y-19579760D01*
X14549300Y-19429760D02*
X14849300Y-19429760D01*
X14852250Y-22835520D02*
X14852250Y-23135520D01*
X14702250Y-22985520D02*
X15002250Y-22985520D01*
X15175520Y-24994400D02*
X15175520Y-25294400D01*
X15025520Y-25144400D02*
X15325520Y-25144400D01*
X15334300Y-16168440D02*
X15334300Y-16468440D01*
X15184300Y-16318440D02*
X15484300Y-16318440D01*
X15334300Y-19025760D02*
X15334300Y-19325760D01*
X15184300Y-19175760D02*
X15484300Y-19175760D01*
X15651740Y-21184640D02*
X15651740Y-21484640D01*
X15501740Y-21334640D02*
X15801740Y-21334640D01*
X15810520Y-24740400D02*
X15810520Y-25040400D01*
X15660520Y-24890400D02*
X15960520Y-24890400D01*
X15889850Y-26899280D02*
X15889850Y-27199280D01*
X15739850Y-27049280D02*
X16039850Y-27049280D01*
X16127960Y-23089520D02*
X16127960Y-23389520D01*
X15977960Y-23239520D02*
X16277960Y-23239520D01*
X16286740Y-20930640D02*
X16286740Y-21230640D01*
X16136740Y-21080640D02*
X16436740Y-21080640D01*
X16524850Y-26645280D02*
X16524850Y-26945280D01*
X16374850Y-26795280D02*
X16674850Y-26795280D01*
X16604180Y-16422440D02*
X16604180Y-16722440D01*
X16454180Y-16572440D02*
X16754180Y-16572440D01*
X16604180Y-19279760D02*
X16604180Y-19579760D01*
X16454180Y-19429760D02*
X16754180Y-19429760D01*
X16762960Y-22835520D02*
X16762960Y-23135520D01*
X16612960Y-22985520D02*
X16912960Y-22985520D01*
X17080400Y-24994400D02*
X17080400Y-25294400D01*
X16930400Y-25144400D02*
X17230400Y-25144400D01*
X17239180Y-16168440D02*
X17239180Y-16468440D01*
X17089180Y-16318440D02*
X17389180Y-16318440D01*
X17239180Y-19025760D02*
X17239180Y-19325760D01*
X17089180Y-19175760D02*
X17389180Y-19175760D01*
X17556620Y-21184640D02*
X17556620Y-21484640D01*
X17406620Y-21334640D02*
X17706620Y-21334640D01*
X17715400Y-24740400D02*
X17715400Y-25040400D01*
X17565400Y-24890400D02*
X17865400Y-24890400D01*
X18032840Y-23089520D02*
X18032840Y-23389520D01*
X17882840Y-23239520D02*
X18182840Y-23239520D01*
X18191620Y-20930640D02*
X18191620Y-21230640D01*
X18041620Y-21080640D02*
X18341620Y-21080640D01*
X18509060Y-16422440D02*
X18509060Y-16722440D01*
X18359060Y-16572440D02*
X18659060Y-16572440D01*
X18509060Y-19279760D02*
X18509060Y-19579760D01*
X18359060Y-19429760D02*
X18659060Y-19429760D01*
X18667840Y-22835520D02*
X18667840Y-23135520D01*
X18517840Y-22985520D02*
X18817840Y-22985520D01*
X18985280Y-24994400D02*
X18985280Y-25294400D01*
X18835280Y-25144400D02*
X19135280Y-25144400D01*
X19144060Y-16168440D02*
X19144060Y-16468440D01*
X18994060Y-16318440D02*
X19294060Y-16318440D01*
X19144060Y-19025760D02*
X19144060Y-19325760D01*
X18994060Y-19175760D02*
X19294060Y-19175760D01*
X19461500Y-21184640D02*
X19461500Y-21484640D01*
X19311500Y-21334640D02*
X19611500Y-21334640D01*
X19620280Y-24740400D02*
X19620280Y-25040400D01*
X19470280Y-24890400D02*
X19770280Y-24890400D01*
X19937720Y-23089520D02*
X19937720Y-23389520D01*
X19787720Y-23239520D02*
X20087720Y-23239520D01*
X20096500Y-20930640D02*
X20096500Y-21230640D01*
X19946500Y-21080640D02*
X20246500Y-21080640D01*
X20413940Y-16422440D02*
X20413940Y-16722440D01*
X20263940Y-16572440D02*
X20563940Y-16572440D01*
X20413940Y-19279760D02*
X20413940Y-19579760D01*
X20263940Y-19429760D02*
X20563940Y-19429760D01*
X20572720Y-22835520D02*
X20572720Y-23135520D01*
X20422720Y-22985520D02*
X20722720Y-22985520D01*
X20890160Y-24994400D02*
X20890160Y-25294400D01*
X20740160Y-25144400D02*
X21040160Y-25144400D01*
X21048940Y-16168440D02*
X21048940Y-16468440D01*
X20898940Y-16318440D02*
X21198940Y-16318440D01*
X21048940Y-19025760D02*
X21048940Y-19325760D01*
X20898940Y-19175760D02*
X21198940Y-19175760D01*
X21366380Y-21184640D02*
X21366380Y-21484640D01*
X21216380Y-21334640D02*
X21516380Y-21334640D01*
X21525160Y-24740400D02*
X21525160Y-25040400D01*
X21375160Y-24890400D02*
X21675160Y-24890400D01*
X21842600Y-23089520D02*
X21842600Y-23389520D01*
X21692600Y-23239520D02*
X21992600Y-23239520D01*
X22001380Y-20930640D02*
X22001380Y-21230640D01*
X21851380Y-21080640D02*
X22151380Y-21080640D01*
X22318820Y-19279760D02*
X22318820Y-19579760D01*
X22168820Y-19429760D02*
X22468820Y-19429760D01*
X22477600Y-22835520D02*
X22477600Y-23135520D01*
X22327600Y-22985520D02*
X22627600Y-22985520D01*
X22795040Y-24994400D02*
X22795040Y-25294400D01*
X22645040Y-25144400D02*
X22945040Y-25144400D01*
X22953820Y-19025760D02*
X22953820Y-19325760D01*
X22803820Y-19175760D02*
X23103820Y-19175760D01*
X23033150Y-26899280D02*
X23033150Y-27199280D01*
X22883150Y-27049280D02*
X23183150Y-27049280D01*
X23271260Y-16422440D02*
X23271260Y-16722440D01*
X23121260Y-16572440D02*
X23421260Y-16572440D01*
X23271260Y-21184640D02*
X23271260Y-21484640D01*
X23121260Y-21334640D02*
X23421260Y-21334640D01*
X23430040Y-24740400D02*
X23430040Y-25040400D01*
X23280040Y-24890400D02*
X23580040Y-24890400D01*
X23668150Y-26645280D02*
X23668150Y-26945280D01*
X23518150Y-26795280D02*
X23818150Y-26795280D01*
X23747480Y-23089520D02*
X23747480Y-23389520D01*
X23597480Y-23239520D02*
X23897480Y-23239520D01*
X23906260Y-16168440D02*
X23906260Y-16468440D01*
X23756260Y-16318440D02*
X24056260Y-16318440D01*
X23906260Y-20930640D02*
X23906260Y-21230640D01*
X23756260Y-21080640D02*
X24056260Y-21080640D01*
X24223700Y-19279760D02*
X24223700Y-19579760D01*
X24073700Y-19429760D02*
X24373700Y-19429760D01*
X24382480Y-22835520D02*
X24382480Y-23135520D01*
X24232480Y-22985520D02*
X24532480Y-22985520D01*
X24699920Y-24994400D02*
X24699920Y-25294400D01*
X24549920Y-25144400D02*
X24849920Y-25144400D01*
X24858700Y-19025760D02*
X24858700Y-19325760D01*
X24708700Y-19175760D02*
X25008700Y-19175760D01*
X25176140Y-16422440D02*
X25176140Y-16722440D01*
X25026140Y-16572440D02*
X25326140Y-16572440D01*
X25176140Y-21184640D02*
X25176140Y-21484640D01*
X25026140Y-21334640D02*
X25326140Y-21334640D01*
X25334920Y-24740400D02*
X25334920Y-25040400D01*
X25184920Y-24890400D02*
X25484920Y-24890400D01*
X25652360Y-23089520D02*
X25652360Y-23389520D01*
X25502360Y-23239520D02*
X25802360Y-23239520D01*
X25811140Y-16168440D02*
X25811140Y-16468440D01*
X25661140Y-16318440D02*
X25961140Y-16318440D01*
X25811140Y-20930640D02*
X25811140Y-21230640D01*
X25661140Y-21080640D02*
X25961140Y-21080640D01*
X26128580Y-19279760D02*
X26128580Y-19579760D01*
X25978580Y-19429760D02*
X26278580Y-19429760D01*
X26287360Y-22835520D02*
X26287360Y-23135520D01*
X26137360Y-22985520D02*
X26437360Y-22985520D01*
X26604800Y-24994400D02*
X26604800Y-25294400D01*
X26454800Y-25144400D02*
X26754800Y-25144400D01*
X26763580Y-19025760D02*
X26763580Y-19325760D01*
X26613580Y-19175760D02*
X26913580Y-19175760D01*
X27081020Y-16422440D02*
X27081020Y-16722440D01*
X26931020Y-16572440D02*
X27231020Y-16572440D01*
X27081020Y-21184640D02*
X27081020Y-21484640D01*
X26931020Y-21334640D02*
X27231020Y-21334640D01*
X27239800Y-24740400D02*
X27239800Y-25040400D01*
X27089800Y-24890400D02*
X27389800Y-24890400D01*
X27557240Y-23089520D02*
X27557240Y-23389520D01*
X27407240Y-23239520D02*
X27707240Y-23239520D01*
X27716020Y-16168440D02*
X27716020Y-16468440D01*
X27566020Y-16318440D02*
X27866020Y-16318440D01*
X27716020Y-20930640D02*
X27716020Y-21230640D01*
X27566020Y-21080640D02*
X27866020Y-21080640D01*
X28033460Y-19279760D02*
X28033460Y-19579760D01*
X27883460Y-19429760D02*
X28183460Y-19429760D01*
X28192240Y-22835520D02*
X28192240Y-23135520D01*
X28042240Y-22985520D02*
X28342240Y-22985520D01*
X28509680Y-24994400D02*
X28509680Y-25294400D01*
X28359680Y-25144400D02*
X28659680Y-25144400D01*
X28668460Y-19025760D02*
X28668460Y-19325760D01*
X28518460Y-19175760D02*
X28818460Y-19175760D01*
X28985900Y-16422440D02*
X28985900Y-16722440D01*
X28835900Y-16572440D02*
X29135900Y-16572440D01*
X28985900Y-21184640D02*
X28985900Y-21484640D01*
X28835900Y-21334640D02*
X29135900Y-21334640D01*
X29144680Y-24740400D02*
X29144680Y-25040400D01*
X28994680Y-24890400D02*
X29294680Y-24890400D01*
X29462120Y-23089520D02*
X29462120Y-23389520D01*
X29312120Y-23239520D02*
X29612120Y-23239520D01*
X29620900Y-16168440D02*
X29620900Y-16468440D01*
X29470900Y-16318440D02*
X29770900Y-16318440D01*
X29620900Y-20930640D02*
X29620900Y-21230640D01*
X29470900Y-21080640D02*
X29770900Y-21080640D01*
X29938340Y-19279760D02*
X29938340Y-19579760D01*
X29788340Y-19429760D02*
X30088340Y-19429760D01*
X30097120Y-22835520D02*
X30097120Y-23135520D01*
X29947120Y-22985520D02*
X30247120Y-22985520D01*
X30176450Y-26899280D02*
X30176450Y-27199280D01*
X30026450Y-27049280D02*
X30326450Y-27049280D01*
X30414560Y-24994400D02*
X30414560Y-25294400D01*
X30264560Y-25144400D02*
X30564560Y-25144400D01*
X30573340Y-19025760D02*
X30573340Y-19325760D01*
X30423340Y-19175760D02*
X30723340Y-19175760D01*
X30811450Y-26645280D02*
X30811450Y-26945280D01*
X30661450Y-26795280D02*
X30961450Y-26795280D01*
X30890780Y-21184640D02*
X30890780Y-21484640D01*
X30740780Y-21334640D02*
X31040780Y-21334640D01*
X31049560Y-24740400D02*
X31049560Y-25040400D01*
X30899560Y-24890400D02*
X31199560Y-24890400D01*
X31367000Y-23089520D02*
X31367000Y-23389520D01*
X31217000Y-23239520D02*
X31517000Y-23239520D01*
X31525780Y-20930640D02*
X31525780Y-21230640D01*
X31375780Y-21080640D02*
X31675780Y-21080640D01*
X31843220Y-16422440D02*
X31843220Y-16722440D01*
X31693220Y-16572440D02*
X31993220Y-16572440D01*
X31843220Y-19279760D02*
X31843220Y-19579760D01*
X31693220Y-19429760D02*
X31993220Y-19429760D01*
X32002000Y-22835520D02*
X32002000Y-23135520D01*
X31852000Y-22985520D02*
X32152000Y-22985520D01*
X32319440Y-24994400D02*
X32319440Y-25294400D01*
X32169440Y-25144400D02*
X32469440Y-25144400D01*
X32478220Y-16168440D02*
X32478220Y-16468440D01*
X32328220Y-16318440D02*
X32628220Y-16318440D01*
X32478220Y-19025760D02*
X32478220Y-19325760D01*
X32328220Y-19175760D02*
X32628220Y-19175760D01*
X32557550Y-26899280D02*
X32557550Y-27199280D01*
X32407550Y-27049280D02*
X32707550Y-27049280D01*
X32795660Y-21184640D02*
X32795660Y-21484640D01*
X32645660Y-21334640D02*
X32945660Y-21334640D01*
X32954440Y-24740400D02*
X32954440Y-25040400D01*
X32804440Y-24890400D02*
X33104440Y-24890400D01*
X33192550Y-26645280D02*
X33192550Y-26945280D01*
X33042550Y-26795280D02*
X33342550Y-26795280D01*
X33271880Y-23089520D02*
X33271880Y-23389520D01*
X33121880Y-23239520D02*
X33421880Y-23239520D01*
X33430660Y-20930640D02*
X33430660Y-21230640D01*
X33280660Y-21080640D02*
X33580660Y-21080640D01*
X33748100Y-16422440D02*
X33748100Y-16722440D01*
X33598100Y-16572440D02*
X33898100Y-16572440D01*
X33748100Y-19279760D02*
X33748100Y-19579760D01*
X33598100Y-19429760D02*
X33898100Y-19429760D01*
X33906880Y-22835520D02*
X33906880Y-23135520D01*
X33756880Y-22985520D02*
X34056880Y-22985520D01*
X34383100Y-16168440D02*
X34383100Y-16468440D01*
X34233100Y-16318440D02*
X34533100Y-16318440D01*
X34383100Y-19025760D02*
X34383100Y-19325760D01*
X34233100Y-19175760D02*
X34533100Y-19175760D01*
X34700540Y-21184640D02*
X34700540Y-21484640D01*
X34550540Y-21334640D02*
X34850540Y-21334640D01*
X34938650Y-26899280D02*
X34938650Y-27199280D01*
X34788650Y-27049280D02*
X35088650Y-27049280D01*
X35335540Y-20930640D02*
X35335540Y-21230640D01*
X35185540Y-21080640D02*
X35485540Y-21080640D01*
X35573650Y-26645280D02*
X35573650Y-26945280D01*
X35423650Y-26795280D02*
X35723650Y-26795280D01*
X35652980Y-16422440D02*
X35652980Y-16722440D01*
X35502980Y-16572440D02*
X35802980Y-16572440D01*
X35891090Y-24994400D02*
X35891090Y-25294400D01*
X35741090Y-25144400D02*
X36041090Y-25144400D01*
X36287980Y-16168440D02*
X36287980Y-16468440D01*
X36137980Y-16318440D02*
X36437980Y-16318440D01*
X36367310Y-23089520D02*
X36367310Y-23389520D01*
X36217310Y-23239520D02*
X36517310Y-23239520D01*
X36526090Y-24740400D02*
X36526090Y-25040400D01*
X36376090Y-24890400D02*
X36676090Y-24890400D01*
X36605420Y-19279760D02*
X36605420Y-19579760D01*
X36455420Y-19429760D02*
X36755420Y-19429760D01*
X37002310Y-22835520D02*
X37002310Y-23135520D01*
X36852310Y-22985520D02*
X37152310Y-22985520D01*
X37081640Y-21184640D02*
X37081640Y-21484640D01*
X36931640Y-21334640D02*
X37231640Y-21334640D01*
X37240420Y-19025760D02*
X37240420Y-19325760D01*
X37090420Y-19175760D02*
X37390420Y-19175760D01*
X37319750Y-26899280D02*
X37319750Y-27199280D01*
X37169750Y-27049280D02*
X37469750Y-27049280D01*
X37557860Y-16422440D02*
X37557860Y-16722440D01*
X37407860Y-16572440D02*
X37707860Y-16572440D01*
X37716640Y-20930640D02*
X37716640Y-21230640D01*
X37566640Y-21080640D02*
X37866640Y-21080640D01*
X37954750Y-26645280D02*
X37954750Y-26945280D01*
X37804750Y-26795280D02*
X38104750Y-26795280D01*
X38192860Y-16168440D02*
X38192860Y-16468440D01*
X38042860Y-16318440D02*
X38342860Y-16318440D01*
X40415180Y-16422440D02*
X40415180Y-16722440D01*
X40265180Y-16572440D02*
X40565180Y-16572440D01*
X40415180Y-19279760D02*
X40415180Y-19579760D01*
X40265180Y-19429760D02*
X40565180Y-19429760D01*
X40415180Y-21184640D02*
X40415180Y-21484640D01*
X40265180Y-21334640D02*
X40565180Y-21334640D01*
X40415180Y-26899280D02*
X40415180Y-27199280D01*
X40265180Y-27049280D02*
X40565180Y-27049280D01*
X41050180Y-16168440D02*
X41050180Y-16468440D01*
X40900180Y-16318440D02*
X41200180Y-16318440D01*
X41050180Y-19025760D02*
X41050180Y-19325760D01*
X40900180Y-19175760D02*
X41200180Y-19175760D01*
X41050180Y-20930640D02*
X41050180Y-21230640D01*
X40900180Y-21080640D02*
X41200180Y-21080640D01*
X41050180Y-26645280D02*
X41050180Y-26945280D01*
X40900180Y-26795280D02*
X41200180Y-26795280D01*
X42320060Y-19279760D02*
X42320060Y-19579760D01*
X42170060Y-19429760D02*
X42470060Y-19429760D01*
X42320060Y-21184640D02*
X42320060Y-21484640D01*
X42170060Y-21334640D02*
X42470060Y-21334640D01*
X42320060Y-24994400D02*
X42320060Y-25294400D01*
X42170060Y-25144400D02*
X42470060Y-25144400D01*
X42320060Y-26899280D02*
X42320060Y-27199280D01*
X42170060Y-27049280D02*
X42470060Y-27049280D01*
X42955060Y-19025760D02*
X42955060Y-19325760D01*
X42805060Y-19175760D02*
X43105060Y-19175760D01*
X42955060Y-20930640D02*
X42955060Y-21230640D01*
X42805060Y-21080640D02*
X43105060Y-21080640D01*
X42955060Y-24740400D02*
X42955060Y-25040400D01*
X42805060Y-24890400D02*
X43105060Y-24890400D01*
X42955060Y-26645280D02*
X42955060Y-26945280D01*
X42805060Y-26795280D02*
X43105060Y-26795280D01*
X44224940Y-19279760D02*
X44224940Y-19579760D01*
X44074940Y-19429760D02*
X44374940Y-19429760D01*
X44224940Y-21184640D02*
X44224940Y-21484640D01*
X44074940Y-21334640D02*
X44374940Y-21334640D01*
X44224940Y-26899280D02*
X44224940Y-27199280D01*
X44074940Y-27049280D02*
X44374940Y-27049280D01*
X44859940Y-19025760D02*
X44859940Y-19325760D01*
X44709940Y-19175760D02*
X45009940Y-19175760D01*
X44859940Y-20930640D02*
X44859940Y-21230640D01*
X44709940Y-21080640D02*
X45009940Y-21080640D01*
X44859940Y-26645280D02*
X44859940Y-26945280D01*
X44709940Y-26795280D02*
X45009940Y-26795280D01*
X11375125Y-24806235D02*
X11375125Y-24590565D01*
X11159455Y-24590565D01*
X11159455Y-24806235D01*
X11375125Y-24806235D01*
X13762725Y-24806235D02*
X13762725Y-24590565D01*
X13547055Y-24590565D01*
X13547055Y-24806235D01*
X13762725Y-24806235D01*
X18521985Y-28111115D02*
X18521985Y-27895445D01*
X18306315Y-27895445D01*
X18306315Y-28111115D01*
X18521985Y-28111115D01*
X28521985Y-28111115D02*
X28521985Y-27895445D01*
X28306315Y-27895445D01*
X28306315Y-28111115D01*
X28521985Y-28111115D01*
X35186125Y-24806235D02*
X35186125Y-24590565D01*
X34970455Y-24590565D01*
X34970455Y-24806235D01*
X35186125Y-24806235D01*
X35662345Y-22901355D02*
X35662345Y-22685685D01*
X35446675Y-22685685D01*
X35446675Y-22901355D01*
X35662345Y-22901355D01*
X35900455Y-19091595D02*
X35900455Y-18875925D01*
X35684785Y-18875925D01*
X35684785Y-19091595D01*
X35900455Y-19091595D01*
X37573725Y-24806235D02*
X37573725Y-24590565D01*
X37358055Y-24590565D01*
X37358055Y-24806235D01*
X37573725Y-24806235D01*
X38049945Y-22901355D02*
X38049945Y-22685685D01*
X37834275Y-22685685D01*
X37834275Y-22901355D01*
X38049945Y-22901355D01*
X38288055Y-19091595D02*
X38288055Y-18875925D01*
X38072385Y-18875925D01*
X38072385Y-19091595D01*
X38288055Y-19091595D01*
X8889440Y-19883760D02*
X9089440Y-19683760D01*
X8889440Y-19483760D01*
X8689440Y-19683760D01*
X8889440Y-19883760D01*
X8889440Y-21788640D02*
X9089440Y-21588640D01*
X8889440Y-21388640D01*
X8689440Y-21588640D01*
X8889440Y-21788640D01*
X8889440Y-23693520D02*
X9089440Y-23493520D01*
X8889440Y-23293520D01*
X8689440Y-23493520D01*
X8889440Y-23693520D01*
X8889440Y-25598400D02*
X9089440Y-25398400D01*
X8889440Y-25198400D01*
X8689440Y-25398400D01*
X8889440Y-25598400D01*
X8889440Y-27503280D02*
X9089440Y-27303280D01*
X8889440Y-27103280D01*
X8689440Y-27303280D01*
X8889440Y-27503280D01*
X11267290Y-26422400D02*
X11467290Y-26222400D01*
X11267290Y-26022400D01*
X11067290Y-26222400D01*
X11267290Y-26422400D01*
X11270540Y-17026440D02*
X11470540Y-16826440D01*
X11270540Y-16626440D01*
X11070540Y-16826440D01*
X11270540Y-17026440D01*
X11270540Y-19883760D02*
X11470540Y-19683760D01*
X11270540Y-19483760D01*
X11070540Y-19683760D01*
X11270540Y-19883760D01*
X11508650Y-27503280D02*
X11708650Y-27303280D01*
X11508650Y-27103280D01*
X11308650Y-27303280D01*
X11508650Y-27503280D01*
X11746760Y-21788640D02*
X11946760Y-21588640D01*
X11746760Y-21388640D01*
X11546760Y-21588640D01*
X11746760Y-21788640D01*
X11984870Y-23693520D02*
X12184870Y-23493520D01*
X11984870Y-23293520D01*
X11784870Y-23493520D01*
X11984870Y-23693520D01*
X12461090Y-25598400D02*
X12661090Y-25398400D01*
X12461090Y-25198400D01*
X12261090Y-25398400D01*
X12461090Y-25598400D01*
X13175420Y-19883760D02*
X13375420Y-19683760D01*
X13175420Y-19483760D01*
X12975420Y-19683760D01*
X13175420Y-19883760D01*
X13654890Y-26422400D02*
X13854890Y-26222400D01*
X13654890Y-26022400D01*
X13454890Y-26222400D01*
X13654890Y-26422400D01*
X13889750Y-27503280D02*
X14089750Y-27303280D01*
X13889750Y-27103280D01*
X13689750Y-27303280D01*
X13889750Y-27503280D01*
X14127860Y-21788640D02*
X14327860Y-21588640D01*
X14127860Y-21388640D01*
X13927860Y-21588640D01*
X14127860Y-21788640D01*
X14598250Y-23693520D02*
X14798250Y-23493520D01*
X14598250Y-23293520D01*
X14398250Y-23493520D01*
X14598250Y-23693520D01*
X15080300Y-17026440D02*
X15280300Y-16826440D01*
X15080300Y-16626440D01*
X14880300Y-16826440D01*
X15080300Y-17026440D01*
X15080300Y-19883760D02*
X15280300Y-19683760D01*
X15080300Y-19483760D01*
X14880300Y-19683760D01*
X15080300Y-19883760D01*
X15556520Y-25598400D02*
X15756520Y-25398400D01*
X15556520Y-25198400D01*
X15356520Y-25398400D01*
X15556520Y-25598400D01*
X16032740Y-21788640D02*
X16232740Y-21588640D01*
X16032740Y-21388640D01*
X15832740Y-21588640D01*
X16032740Y-21788640D01*
X16270850Y-27503280D02*
X16470850Y-27303280D01*
X16270850Y-27103280D01*
X16070850Y-27303280D01*
X16270850Y-27503280D01*
X16508960Y-23693520D02*
X16708960Y-23493520D01*
X16508960Y-23293520D01*
X16308960Y-23493520D01*
X16508960Y-23693520D01*
X16985180Y-17026440D02*
X17185180Y-16826440D01*
X16985180Y-16626440D01*
X16785180Y-16826440D01*
X16985180Y-17026440D01*
X16985180Y-19883760D02*
X17185180Y-19683760D01*
X16985180Y-19483760D01*
X16785180Y-19683760D01*
X16985180Y-19883760D01*
X17461400Y-25598400D02*
X17661400Y-25398400D01*
X17461400Y-25198400D01*
X17261400Y-25398400D01*
X17461400Y-25598400D01*
X17937620Y-21788640D02*
X18137620Y-21588640D01*
X17937620Y-21388640D01*
X17737620Y-21588640D01*
X17937620Y-21788640D01*
X18413840Y-23693520D02*
X18613840Y-23493520D01*
X18413840Y-23293520D01*
X18213840Y-23493520D01*
X18413840Y-23693520D01*
X18414150Y-26679280D02*
X18614150Y-26479280D01*
X18414150Y-26279280D01*
X18214150Y-26479280D01*
X18414150Y-26679280D01*
X18890060Y-17026440D02*
X19090060Y-16826440D01*
X18890060Y-16626440D01*
X18690060Y-16826440D01*
X18890060Y-17026440D01*
X18890060Y-19883760D02*
X19090060Y-19683760D01*
X18890060Y-19483760D01*
X18690060Y-19683760D01*
X18890060Y-19883760D01*
X19366280Y-25598400D02*
X19566280Y-25398400D01*
X19366280Y-25198400D01*
X19166280Y-25398400D01*
X19366280Y-25598400D01*
X19842500Y-21788640D02*
X20042500Y-21588640D01*
X19842500Y-21388640D01*
X19642500Y-21588640D01*
X19842500Y-21788640D01*
X20318720Y-23693520D02*
X20518720Y-23493520D01*
X20318720Y-23293520D01*
X20118720Y-23493520D01*
X20318720Y-23693520D01*
X20794940Y-17026440D02*
X20994940Y-16826440D01*
X20794940Y-16626440D01*
X20594940Y-16826440D01*
X20794940Y-17026440D01*
X20794940Y-19883760D02*
X20994940Y-19683760D01*
X20794940Y-19483760D01*
X20594940Y-19683760D01*
X20794940Y-19883760D01*
X21271160Y-25598400D02*
X21471160Y-25398400D01*
X21271160Y-25198400D01*
X21071160Y-25398400D01*
X21271160Y-25598400D01*
X21747380Y-21788640D02*
X21947380Y-21588640D01*
X21747380Y-21388640D01*
X21547380Y-21588640D01*
X21747380Y-21788640D01*
X22223600Y-23693520D02*
X22423600Y-23493520D01*
X22223600Y-23293520D01*
X22023600Y-23493520D01*
X22223600Y-23693520D01*
X22699820Y-19883760D02*
X22899820Y-19683760D01*
X22699820Y-19483760D01*
X22499820Y-19683760D01*
X22699820Y-19883760D01*
X23176040Y-25598400D02*
X23376040Y-25398400D01*
X23176040Y-25198400D01*
X22976040Y-25398400D01*
X23176040Y-25598400D01*
X23414150Y-27503280D02*
X23614150Y-27303280D01*
X23414150Y-27103280D01*
X23214150Y-27303280D01*
X23414150Y-27503280D01*
X23652260Y-17026440D02*
X23852260Y-16826440D01*
X23652260Y-16626440D01*
X23452260Y-16826440D01*
X23652260Y-17026440D01*
X23652260Y-21788640D02*
X23852260Y-21588640D01*
X23652260Y-21388640D01*
X23452260Y-21588640D01*
X23652260Y-21788640D01*
X24128480Y-23693520D02*
X24328480Y-23493520D01*
X24128480Y-23293520D01*
X23928480Y-23493520D01*
X24128480Y-23693520D01*
X24604700Y-19883760D02*
X24804700Y-19683760D01*
X24604700Y-19483760D01*
X24404700Y-19683760D01*
X24604700Y-19883760D01*
X25080920Y-25598400D02*
X25280920Y-25398400D01*
X25080920Y-25198400D01*
X24880920Y-25398400D01*
X25080920Y-25598400D01*
X25557140Y-17026440D02*
X25757140Y-16826440D01*
X25557140Y-16626440D01*
X25357140Y-16826440D01*
X25557140Y-17026440D01*
X25557140Y-21788640D02*
X25757140Y-21588640D01*
X25557140Y-21388640D01*
X25357140Y-21588640D01*
X25557140Y-21788640D01*
X26033360Y-23693520D02*
X26233360Y-23493520D01*
X26033360Y-23293520D01*
X25833360Y-23493520D01*
X26033360Y-23693520D01*
X26509580Y-19883760D02*
X26709580Y-19683760D01*
X26509580Y-19483760D01*
X26309580Y-19683760D01*
X26509580Y-19883760D01*
X26985800Y-25598400D02*
X27185800Y-25398400D01*
X26985800Y-25198400D01*
X26785800Y-25398400D01*
X26985800Y-25598400D01*
X27462020Y-17026440D02*
X27662020Y-16826440D01*
X27462020Y-16626440D01*
X27262020Y-16826440D01*
X27462020Y-17026440D01*
X27462020Y-21788640D02*
X27662020Y-21588640D01*
X27462020Y-21388640D01*
X27262020Y-21588640D01*
X27462020Y-21788640D01*
X27938240Y-23693520D02*
X28138240Y-23493520D01*
X27938240Y-23293520D01*
X27738240Y-23493520D01*
X27938240Y-23693520D01*
X28414150Y-26679280D02*
X28614150Y-26479280D01*
X28414150Y-26279280D01*
X28214150Y-26479280D01*
X28414150Y-26679280D01*
X28414460Y-19883760D02*
X28614460Y-19683760D01*
X28414460Y-19483760D01*
X28214460Y-19683760D01*
X28414460Y-19883760D01*
X28890680Y-25598400D02*
X29090680Y-25398400D01*
X28890680Y-25198400D01*
X28690680Y-25398400D01*
X28890680Y-25598400D01*
X29366900Y-17026440D02*
X29566900Y-16826440D01*
X29366900Y-16626440D01*
X29166900Y-16826440D01*
X29366900Y-17026440D01*
X29366900Y-21788640D02*
X29566900Y-21588640D01*
X29366900Y-21388640D01*
X29166900Y-21588640D01*
X29366900Y-21788640D01*
X29843120Y-23693520D02*
X30043120Y-23493520D01*
X29843120Y-23293520D01*
X29643120Y-23493520D01*
X29843120Y-23693520D01*
X30319340Y-19883760D02*
X30519340Y-19683760D01*
X30319340Y-19483760D01*
X30119340Y-19683760D01*
X30319340Y-19883760D01*
X30557450Y-27503280D02*
X30757450Y-27303280D01*
X30557450Y-27103280D01*
X30357450Y-27303280D01*
X30557450Y-27503280D01*
X30795560Y-25598400D02*
X30995560Y-25398400D01*
X30795560Y-25198400D01*
X30595560Y-25398400D01*
X30795560Y-25598400D01*
X31271780Y-21788640D02*
X31471780Y-21588640D01*
X31271780Y-21388640D01*
X31071780Y-21588640D01*
X31271780Y-21788640D01*
X31748000Y-23693520D02*
X31948000Y-23493520D01*
X31748000Y-23293520D01*
X31548000Y-23493520D01*
X31748000Y-23693520D01*
X32224220Y-17026440D02*
X32424220Y-16826440D01*
X32224220Y-16626440D01*
X32024220Y-16826440D01*
X32224220Y-17026440D01*
X32224220Y-19883760D02*
X32424220Y-19683760D01*
X32224220Y-19483760D01*
X32024220Y-19683760D01*
X32224220Y-19883760D01*
X32700440Y-25598400D02*
X32900440Y-25398400D01*
X32700440Y-25198400D01*
X32500440Y-25398400D01*
X32700440Y-25598400D01*
X32938550Y-27503280D02*
X33138550Y-27303280D01*
X32938550Y-27103280D01*
X32738550Y-27303280D01*
X32938550Y-27503280D01*
X33176660Y-21788640D02*
X33376660Y-21588640D01*
X33176660Y-21388640D01*
X32976660Y-21588640D01*
X33176660Y-21788640D01*
X33652880Y-23693520D02*
X33852880Y-23493520D01*
X33652880Y-23293520D01*
X33452880Y-23493520D01*
X33652880Y-23693520D01*
X34129100Y-17026440D02*
X34329100Y-16826440D01*
X34129100Y-16626440D01*
X33929100Y-16826440D01*
X34129100Y-17026440D01*
X34129100Y-19883760D02*
X34329100Y-19683760D01*
X34129100Y-19483760D01*
X33929100Y-19683760D01*
X34129100Y-19883760D01*
X35078290Y-26422400D02*
X35278290Y-26222400D01*
X35078290Y-26022400D01*
X34878290Y-26222400D01*
X35078290Y-26422400D01*
X35081540Y-21788640D02*
X35281540Y-21588640D01*
X35081540Y-21388640D01*
X34881540Y-21588640D01*
X35081540Y-21788640D01*
X35319650Y-27503280D02*
X35519650Y-27303280D01*
X35319650Y-27103280D01*
X35119650Y-27303280D01*
X35319650Y-27503280D01*
X35554510Y-24517520D02*
X35754510Y-24317520D01*
X35554510Y-24117520D01*
X35354510Y-24317520D01*
X35554510Y-24517520D01*
X35792620Y-20707760D02*
X35992620Y-20507760D01*
X35792620Y-20307760D01*
X35592620Y-20507760D01*
X35792620Y-20707760D01*
X36033980Y-17026440D02*
X36233980Y-16826440D01*
X36033980Y-16626440D01*
X35833980Y-16826440D01*
X36033980Y-17026440D01*
X36272090Y-25598400D02*
X36472090Y-25398400D01*
X36272090Y-25198400D01*
X36072090Y-25398400D01*
X36272090Y-25598400D01*
X36748310Y-23693520D02*
X36948310Y-23493520D01*
X36748310Y-23293520D01*
X36548310Y-23493520D01*
X36748310Y-23693520D01*
X36986420Y-19883760D02*
X37186420Y-19683760D01*
X36986420Y-19483760D01*
X36786420Y-19683760D01*
X36986420Y-19883760D01*
X37462640Y-21788640D02*
X37662640Y-21588640D01*
X37462640Y-21388640D01*
X37262640Y-21588640D01*
X37462640Y-21788640D01*
X37465890Y-26422400D02*
X37665890Y-26222400D01*
X37465890Y-26022400D01*
X37265890Y-26222400D01*
X37465890Y-26422400D01*
X37700750Y-27503280D02*
X37900750Y-27303280D01*
X37700750Y-27103280D01*
X37500750Y-27303280D01*
X37700750Y-27503280D01*
X37938860Y-17026440D02*
X38138860Y-16826440D01*
X37938860Y-16626440D01*
X37738860Y-16826440D01*
X37938860Y-17026440D01*
X37942110Y-24517520D02*
X38142110Y-24317520D01*
X37942110Y-24117520D01*
X37742110Y-24317520D01*
X37942110Y-24517520D01*
X38180220Y-20707760D02*
X38380220Y-20507760D01*
X38180220Y-20307760D01*
X37980220Y-20507760D01*
X38180220Y-20707760D01*
X40796180Y-17026440D02*
X40996180Y-16826440D01*
X40796180Y-16626440D01*
X40596180Y-16826440D01*
X40796180Y-17026440D01*
X40796180Y-19883760D02*
X40996180Y-19683760D01*
X40796180Y-19483760D01*
X40596180Y-19683760D01*
X40796180Y-19883760D01*
X40796180Y-21788640D02*
X40996180Y-21588640D01*
X40796180Y-21388640D01*
X40596180Y-21588640D01*
X40796180Y-21788640D01*
X40796180Y-27503280D02*
X40996180Y-27303280D01*
X40796180Y-27103280D01*
X40596180Y-27303280D01*
X40796180Y-27503280D01*
X42701060Y-19883760D02*
X42901060Y-19683760D01*
X42701060Y-19483760D01*
X42501060Y-19683760D01*
X42701060Y-19883760D01*
X42701060Y-21788640D02*
X42901060Y-21588640D01*
X42701060Y-21388640D01*
X42501060Y-21588640D01*
X42701060Y-21788640D01*
X42701060Y-25598400D02*
X42901060Y-25398400D01*
X42701060Y-25198400D01*
X42501060Y-25398400D01*
X42701060Y-25598400D01*
X42701060Y-27503280D02*
X42901060Y-27303280D01*
X42701060Y-27103280D01*
X42501060Y-27303280D01*
X42701060Y-27503280D01*
X44605940Y-19883760D02*
X44805940Y-19683760D01*
X44605940Y-19483760D01*
X44405940Y-19683760D01*
X44605940Y-19883760D01*
X44605940Y-21788640D02*
X44805940Y-21588640D01*
X44605940Y-21388640D01*
X44405940Y-21588640D01*
X44605940Y-21788640D01*
X44605940Y-27503280D02*
X44805940Y-27303280D01*
X44605940Y-27103280D01*
X44405940Y-27303280D01*
X44605940Y-27503280D01*
D12*
X8139058Y-28805804D02*
X8139058Y-28505804D01*
X8210487Y-28505804D01*
X8253344Y-28520090D01*
X8281916Y-28548661D01*
X8296201Y-28577233D01*
X8310487Y-28634376D01*
X8310487Y-28677233D01*
X8296201Y-28734376D01*
X8281916Y-28762947D01*
X8253344Y-28791519D01*
X8210487Y-28805804D01*
X8139058Y-28805804D01*
X8439058Y-28805804D02*
X8439058Y-28605804D01*
X8439058Y-28662947D02*
X8453344Y-28634376D01*
X8467630Y-28620090D01*
X8496201Y-28605804D01*
X8524773Y-28605804D01*
X8624773Y-28805804D02*
X8624773Y-28605804D01*
X8624773Y-28505804D02*
X8610487Y-28520090D01*
X8624773Y-28534376D01*
X8639058Y-28520090D01*
X8624773Y-28505804D01*
X8624773Y-28534376D01*
X8810487Y-28805804D02*
X8781916Y-28791519D01*
X8767630Y-28762947D01*
X8767630Y-28505804D01*
X8967630Y-28805804D02*
X8939058Y-28791519D01*
X8924773Y-28762947D01*
X8924773Y-28505804D01*
X9310487Y-28805804D02*
X9310487Y-28505804D01*
X9410487Y-28720090D01*
X9510487Y-28505804D01*
X9510487Y-28805804D01*
X9781916Y-28805804D02*
X9781916Y-28648661D01*
X9767630Y-28620090D01*
X9739058Y-28605804D01*
X9681916Y-28605804D01*
X9653344Y-28620090D01*
X9781916Y-28791519D02*
X9753344Y-28805804D01*
X9681916Y-28805804D01*
X9653344Y-28791519D01*
X9639058Y-28762947D01*
X9639058Y-28734376D01*
X9653344Y-28705804D01*
X9681916Y-28691519D01*
X9753344Y-28691519D01*
X9781916Y-28677233D01*
X9924773Y-28605804D02*
X9924773Y-28905804D01*
X9924773Y-28620090D02*
X9953344Y-28605804D01*
X10010487Y-28605804D01*
X10039058Y-28620090D01*
X10053344Y-28634376D01*
X10067630Y-28662947D01*
X10067630Y-28748661D01*
X10053344Y-28777233D01*
X10039058Y-28791519D01*
X10010487Y-28805804D01*
X9953344Y-28805804D01*
X9924773Y-28791519D01*
X10196201Y-28777233D02*
X10210487Y-28791519D01*
X10196201Y-28805804D01*
X10181916Y-28791519D01*
X10196201Y-28777233D01*
X10196201Y-28805804D01*
X10196201Y-28620090D02*
X10210487Y-28634376D01*
X10196201Y-28648661D01*
X10181916Y-28634376D01*
X10196201Y-28620090D01*
X10196201Y-28648661D01*
X7787630Y-29267590D02*
X7852630Y-29332590D01*
X7852630Y-29267590D02*
X7787630Y-29332590D01*
X8196201Y-29135804D02*
X8224773Y-29135804D01*
X8253344Y-29150090D01*
X8267630Y-29164376D01*
X8281916Y-29192947D01*
X8296201Y-29250090D01*
X8296201Y-29321519D01*
X8281916Y-29378661D01*
X8267630Y-29407233D01*
X8253344Y-29421519D01*
X8224773Y-29435804D01*
X8196201Y-29435804D01*
X8167630Y-29421519D01*
X8153344Y-29407233D01*
X8139058Y-29378661D01*
X8124773Y-29321519D01*
X8124773Y-29250090D01*
X8139058Y-29192947D01*
X8153344Y-29164376D01*
X8167630Y-29150090D01*
X8196201Y-29135804D01*
X8424773Y-29407233D02*
X8439058Y-29421519D01*
X8424773Y-29435804D01*
X8410487Y-29421519D01*
X8424773Y-29407233D01*
X8424773Y-29435804D01*
X8696201Y-29135804D02*
X8639058Y-29135804D01*
X8610487Y-29150090D01*
X8596201Y-29164376D01*
X8567630Y-29207233D01*
X8553344Y-29264376D01*
X8553344Y-29378661D01*
X8567630Y-29407233D01*
X8581916Y-29421519D01*
X8610487Y-29435804D01*
X8667630Y-29435804D01*
X8696201Y-29421519D01*
X8710487Y-29407233D01*
X8724773Y-29378661D01*
X8724773Y-29307233D01*
X8710487Y-29278661D01*
X8696201Y-29264376D01*
X8667630Y-29250090D01*
X8610487Y-29250090D01*
X8581916Y-29264376D01*
X8567630Y-29278661D01*
X8553344Y-29307233D01*
X8996201Y-29135804D02*
X8853344Y-29135804D01*
X8839058Y-29278661D01*
X8853344Y-29264376D01*
X8881916Y-29250090D01*
X8953344Y-29250090D01*
X8981916Y-29264376D01*
X8996201Y-29278661D01*
X9010487Y-29307233D01*
X9010487Y-29378661D01*
X8996201Y-29407233D01*
X8981916Y-29421519D01*
X8953344Y-29435804D01*
X8881916Y-29435804D01*
X8853344Y-29421519D01*
X8839058Y-29407233D01*
X9196201Y-29135804D02*
X9224773Y-29135804D01*
X9253344Y-29150090D01*
X9267630Y-29164376D01*
X9281916Y-29192947D01*
X9296201Y-29250090D01*
X9296201Y-29321519D01*
X9281916Y-29378661D01*
X9267630Y-29407233D01*
X9253344Y-29421519D01*
X9224773Y-29435804D01*
X9196201Y-29435804D01*
X9167630Y-29421519D01*
X9153344Y-29407233D01*
X9139058Y-29378661D01*
X9124773Y-29321519D01*
X9124773Y-29250090D01*
X9139058Y-29192947D01*
X9153344Y-29164376D01*
X9167630Y-29150090D01*
X9196201Y-29135804D01*
X9424773Y-29435804D02*
X9424773Y-29235804D01*
X9424773Y-29264376D02*
X9439058Y-29250090D01*
X9467630Y-29235804D01*
X9510487Y-29235804D01*
X9539058Y-29250090D01*
X9553344Y-29278661D01*
X9553344Y-29435804D01*
X9553344Y-29278661D02*
X9567630Y-29250090D01*
X9596201Y-29235804D01*
X9639058Y-29235804D01*
X9667630Y-29250090D01*
X9681916Y-29278661D01*
X9681916Y-29435804D01*
X9824773Y-29435804D02*
X9824773Y-29235804D01*
X9824773Y-29264376D02*
X9839058Y-29250090D01*
X9867630Y-29235804D01*
X9910487Y-29235804D01*
X9939058Y-29250090D01*
X9953344Y-29278661D01*
X9953344Y-29435804D01*
X9953344Y-29278661D02*
X9967630Y-29250090D01*
X9996201Y-29235804D01*
X10039058Y-29235804D01*
X10067630Y-29250090D01*
X10081916Y-29278661D01*
X10081916Y-29435804D01*
X10667630Y-29121519D02*
X10410487Y-29507233D01*
X11053344Y-29135804D02*
X11081916Y-29135804D01*
X11110487Y-29150090D01*
X11124773Y-29164376D01*
X11139058Y-29192947D01*
X11153344Y-29250090D01*
X11153344Y-29321519D01*
X11139058Y-29378661D01*
X11124773Y-29407233D01*
X11110487Y-29421519D01*
X11081916Y-29435804D01*
X11053344Y-29435804D01*
X11024773Y-29421519D01*
X11010487Y-29407233D01*
X10996201Y-29378661D01*
X10981916Y-29321519D01*
X10981916Y-29250090D01*
X10996201Y-29192947D01*
X11010487Y-29164376D01*
X11024773Y-29150090D01*
X11053344Y-29135804D01*
X11281916Y-29407233D02*
X11296201Y-29421519D01*
X11281916Y-29435804D01*
X11267630Y-29421519D01*
X11281916Y-29407233D01*
X11281916Y-29435804D01*
X11481916Y-29135804D02*
X11510487Y-29135804D01*
X11539058Y-29150090D01*
X11553344Y-29164376D01*
X11567630Y-29192947D01*
X11581916Y-29250090D01*
X11581916Y-29321519D01*
X11567630Y-29378661D01*
X11553344Y-29407233D01*
X11539058Y-29421519D01*
X11510487Y-29435804D01*
X11481916Y-29435804D01*
X11453344Y-29421519D01*
X11439058Y-29407233D01*
X11424773Y-29378661D01*
X11410487Y-29321519D01*
X11410487Y-29250090D01*
X11424773Y-29192947D01*
X11439058Y-29164376D01*
X11453344Y-29150090D01*
X11481916Y-29135804D01*
X11696201Y-29164376D02*
X11710487Y-29150090D01*
X11739058Y-29135804D01*
X11810487Y-29135804D01*
X11839058Y-29150090D01*
X11853344Y-29164376D01*
X11867630Y-29192947D01*
X11867630Y-29221519D01*
X11853344Y-29264376D01*
X11681916Y-29435804D01*
X11867630Y-29435804D01*
X12139058Y-29135804D02*
X11996201Y-29135804D01*
X11981916Y-29278661D01*
X11996201Y-29264376D01*
X12024773Y-29250090D01*
X12096201Y-29250090D01*
X12124773Y-29264376D01*
X12139058Y-29278661D01*
X12153344Y-29307233D01*
X12153344Y-29378661D01*
X12139058Y-29407233D01*
X12124773Y-29421519D01*
X12096201Y-29435804D01*
X12024773Y-29435804D01*
X11996201Y-29421519D01*
X11981916Y-29407233D01*
X12410487Y-29135804D02*
X12353344Y-29135804D01*
X12324773Y-29150090D01*
X12310487Y-29164376D01*
X12281916Y-29207233D01*
X12267630Y-29264376D01*
X12267630Y-29378661D01*
X12281916Y-29407233D01*
X12296201Y-29421519D01*
X12324773Y-29435804D01*
X12381916Y-29435804D01*
X12410487Y-29421519D01*
X12424773Y-29407233D01*
X12439058Y-29378661D01*
X12439058Y-29307233D01*
X12424773Y-29278661D01*
X12410487Y-29264376D01*
X12381916Y-29250090D01*
X12324773Y-29250090D01*
X12296201Y-29264376D01*
X12281916Y-29278661D01*
X12267630Y-29307233D01*
X12553344Y-29135804D02*
X12553344Y-29192947D01*
X12667630Y-29135804D02*
X12667630Y-29192947D01*
X13110487Y-29550090D02*
X13096201Y-29535804D01*
X13067630Y-29492947D01*
X13053344Y-29464376D01*
X13039058Y-29421519D01*
X13024773Y-29350090D01*
X13024773Y-29292947D01*
X13039058Y-29221519D01*
X13053344Y-29178661D01*
X13067630Y-29150090D01*
X13096201Y-29107233D01*
X13110487Y-29092947D01*
X13210487Y-29164376D02*
X13224773Y-29150090D01*
X13253344Y-29135804D01*
X13324773Y-29135804D01*
X13353344Y-29150090D01*
X13367630Y-29164376D01*
X13381916Y-29192947D01*
X13381916Y-29221519D01*
X13367630Y-29264376D01*
X13196201Y-29435804D01*
X13381916Y-29435804D01*
X13739058Y-29435804D02*
X13739058Y-29135804D01*
X13867630Y-29435804D02*
X13867630Y-29278661D01*
X13853344Y-29250090D01*
X13824773Y-29235804D01*
X13781916Y-29235804D01*
X13753344Y-29250090D01*
X13739058Y-29264376D01*
X14053344Y-29435804D02*
X14024773Y-29421519D01*
X14010487Y-29407233D01*
X13996201Y-29378661D01*
X13996201Y-29292947D01*
X14010487Y-29264376D01*
X14024773Y-29250090D01*
X14053344Y-29235804D01*
X14096201Y-29235804D01*
X14124773Y-29250090D01*
X14139058Y-29264376D01*
X14153344Y-29292947D01*
X14153344Y-29378661D01*
X14139058Y-29407233D01*
X14124773Y-29421519D01*
X14096201Y-29435804D01*
X14053344Y-29435804D01*
X14324773Y-29435804D02*
X14296201Y-29421519D01*
X14281916Y-29392947D01*
X14281916Y-29135804D01*
X14553344Y-29421519D02*
X14524773Y-29435804D01*
X14467630Y-29435804D01*
X14439058Y-29421519D01*
X14424773Y-29392947D01*
X14424773Y-29278661D01*
X14439058Y-29250090D01*
X14467630Y-29235804D01*
X14524773Y-29235804D01*
X14553344Y-29250090D01*
X14567630Y-29278661D01*
X14567630Y-29307233D01*
X14424773Y-29335804D01*
X14681916Y-29421519D02*
X14710487Y-29435804D01*
X14767630Y-29435804D01*
X14796201Y-29421519D01*
X14810487Y-29392947D01*
X14810487Y-29378661D01*
X14796201Y-29350090D01*
X14767630Y-29335804D01*
X14724773Y-29335804D01*
X14696201Y-29321519D01*
X14681916Y-29292947D01*
X14681916Y-29278661D01*
X14696201Y-29250090D01*
X14724773Y-29235804D01*
X14767630Y-29235804D01*
X14796201Y-29250090D01*
X14910487Y-29550090D02*
X14924773Y-29535804D01*
X14953344Y-29492947D01*
X14967630Y-29464376D01*
X14981916Y-29421519D01*
X14996201Y-29350090D01*
X14996201Y-29292947D01*
X14981916Y-29221519D01*
X14967630Y-29178661D01*
X14953344Y-29150090D01*
X14924773Y-29107233D01*
X14910487Y-29092947D01*
X15453344Y-29550090D02*
X15439058Y-29535804D01*
X15410487Y-29492947D01*
X15396201Y-29464376D01*
X15381916Y-29421519D01*
X15367630Y-29350090D01*
X15367630Y-29292947D01*
X15381916Y-29221519D01*
X15396201Y-29178661D01*
X15410487Y-29150090D01*
X15439058Y-29107233D01*
X15453344Y-29092947D01*
X15567630Y-29235804D02*
X15567630Y-29435804D01*
X15567630Y-29264376D02*
X15581916Y-29250090D01*
X15610487Y-29235804D01*
X15653344Y-29235804D01*
X15681916Y-29250090D01*
X15696201Y-29278661D01*
X15696201Y-29435804D01*
X15881916Y-29435804D02*
X15853344Y-29421519D01*
X15839058Y-29407233D01*
X15824773Y-29378661D01*
X15824773Y-29292947D01*
X15839058Y-29264376D01*
X15853344Y-29250090D01*
X15881916Y-29235804D01*
X15924773Y-29235804D01*
X15953344Y-29250090D01*
X15967630Y-29264376D01*
X15981916Y-29292947D01*
X15981916Y-29378661D01*
X15967630Y-29407233D01*
X15953344Y-29421519D01*
X15924773Y-29435804D01*
X15881916Y-29435804D01*
X16067630Y-29235804D02*
X16181916Y-29235804D01*
X16110487Y-29135804D02*
X16110487Y-29392947D01*
X16124773Y-29421519D01*
X16153344Y-29435804D01*
X16181916Y-29435804D01*
X16510487Y-29235804D02*
X16510487Y-29535804D01*
X16510487Y-29250090D02*
X16539058Y-29235804D01*
X16596201Y-29235804D01*
X16624773Y-29250090D01*
X16639058Y-29264376D01*
X16653344Y-29292947D01*
X16653344Y-29378661D01*
X16639058Y-29407233D01*
X16624773Y-29421519D01*
X16596201Y-29435804D01*
X16539058Y-29435804D01*
X16510487Y-29421519D01*
X16824773Y-29435804D02*
X16796201Y-29421519D01*
X16781916Y-29392947D01*
X16781916Y-29135804D01*
X17067630Y-29435804D02*
X17067630Y-29278661D01*
X17053344Y-29250090D01*
X17024773Y-29235804D01*
X16967630Y-29235804D01*
X16939058Y-29250090D01*
X17067630Y-29421519D02*
X17039058Y-29435804D01*
X16967630Y-29435804D01*
X16939058Y-29421519D01*
X16924773Y-29392947D01*
X16924773Y-29364376D01*
X16939058Y-29335804D01*
X16967630Y-29321519D01*
X17039058Y-29321519D01*
X17067630Y-29307233D01*
X17167630Y-29235804D02*
X17281916Y-29235804D01*
X17210487Y-29135804D02*
X17210487Y-29392947D01*
X17224773Y-29421519D01*
X17253344Y-29435804D01*
X17281916Y-29435804D01*
X17496201Y-29421519D02*
X17467630Y-29435804D01*
X17410487Y-29435804D01*
X17381916Y-29421519D01*
X17367630Y-29392947D01*
X17367630Y-29278661D01*
X17381916Y-29250090D01*
X17410487Y-29235804D01*
X17467630Y-29235804D01*
X17496201Y-29250090D01*
X17510487Y-29278661D01*
X17510487Y-29307233D01*
X17367630Y-29335804D01*
X17767630Y-29435804D02*
X17767630Y-29135804D01*
X17767630Y-29421519D02*
X17739058Y-29435804D01*
X17681916Y-29435804D01*
X17653344Y-29421519D01*
X17639058Y-29407233D01*
X17624773Y-29378661D01*
X17624773Y-29292947D01*
X17639058Y-29264376D01*
X17653344Y-29250090D01*
X17681916Y-29235804D01*
X17739058Y-29235804D01*
X17767630Y-29250090D01*
X17881916Y-29550090D02*
X17896201Y-29535804D01*
X17924773Y-29492947D01*
X17939058Y-29464376D01*
X17953344Y-29421519D01*
X17967630Y-29350090D01*
X17967630Y-29292947D01*
X17953344Y-29221519D01*
X17939058Y-29178661D01*
X17924773Y-29150090D01*
X17896201Y-29107233D01*
X17881916Y-29092947D01*
X7852630Y-29696090D02*
G75*
G03*
X7852630Y-29696090I-87500J0D01*
G01*
X8296201Y-29831804D02*
X8124773Y-29831804D01*
X8210487Y-29831804D02*
X8210487Y-29531804D01*
X8181916Y-29574661D01*
X8153344Y-29603233D01*
X8124773Y-29617519D01*
X8424773Y-29803233D02*
X8439058Y-29817519D01*
X8424773Y-29831804D01*
X8410487Y-29817519D01*
X8424773Y-29803233D01*
X8424773Y-29831804D01*
X8539058Y-29531804D02*
X8739058Y-29531804D01*
X8610487Y-29831804D01*
X8996201Y-29531804D02*
X8853344Y-29531804D01*
X8839058Y-29674661D01*
X8853344Y-29660376D01*
X8881916Y-29646090D01*
X8953344Y-29646090D01*
X8981916Y-29660376D01*
X8996201Y-29674661D01*
X9010487Y-29703233D01*
X9010487Y-29774661D01*
X8996201Y-29803233D01*
X8981916Y-29817519D01*
X8953344Y-29831804D01*
X8881916Y-29831804D01*
X8853344Y-29817519D01*
X8839058Y-29803233D01*
X9196201Y-29531804D02*
X9224773Y-29531804D01*
X9253344Y-29546090D01*
X9267630Y-29560376D01*
X9281916Y-29588947D01*
X9296201Y-29646090D01*
X9296201Y-29717519D01*
X9281916Y-29774661D01*
X9267630Y-29803233D01*
X9253344Y-29817519D01*
X9224773Y-29831804D01*
X9196201Y-29831804D01*
X9167630Y-29817519D01*
X9153344Y-29803233D01*
X9139058Y-29774661D01*
X9124773Y-29717519D01*
X9124773Y-29646090D01*
X9139058Y-29588947D01*
X9153344Y-29560376D01*
X9167630Y-29546090D01*
X9196201Y-29531804D01*
X9424773Y-29831804D02*
X9424773Y-29631804D01*
X9424773Y-29660376D02*
X9439058Y-29646090D01*
X9467630Y-29631804D01*
X9510487Y-29631804D01*
X9539058Y-29646090D01*
X9553344Y-29674661D01*
X9553344Y-29831804D01*
X9553344Y-29674661D02*
X9567630Y-29646090D01*
X9596201Y-29631804D01*
X9639058Y-29631804D01*
X9667630Y-29646090D01*
X9681916Y-29674661D01*
X9681916Y-29831804D01*
X9824773Y-29831804D02*
X9824773Y-29631804D01*
X9824773Y-29660376D02*
X9839058Y-29646090D01*
X9867630Y-29631804D01*
X9910487Y-29631804D01*
X9939058Y-29646090D01*
X9953344Y-29674661D01*
X9953344Y-29831804D01*
X9953344Y-29674661D02*
X9967630Y-29646090D01*
X9996201Y-29631804D01*
X10039058Y-29631804D01*
X10067630Y-29646090D01*
X10081916Y-29674661D01*
X10081916Y-29831804D01*
X10667630Y-29517519D02*
X10410487Y-29903233D01*
X11053344Y-29531804D02*
X11081916Y-29531804D01*
X11110487Y-29546090D01*
X11124773Y-29560376D01*
X11139058Y-29588947D01*
X11153344Y-29646090D01*
X11153344Y-29717519D01*
X11139058Y-29774661D01*
X11124773Y-29803233D01*
X11110487Y-29817519D01*
X11081916Y-29831804D01*
X11053344Y-29831804D01*
X11024773Y-29817519D01*
X11010487Y-29803233D01*
X10996201Y-29774661D01*
X10981916Y-29717519D01*
X10981916Y-29646090D01*
X10996201Y-29588947D01*
X11010487Y-29560376D01*
X11024773Y-29546090D01*
X11053344Y-29531804D01*
X11281916Y-29803233D02*
X11296201Y-29817519D01*
X11281916Y-29831804D01*
X11267630Y-29817519D01*
X11281916Y-29803233D01*
X11281916Y-29831804D01*
X11481916Y-29531804D02*
X11510487Y-29531804D01*
X11539058Y-29546090D01*
X11553344Y-29560376D01*
X11567630Y-29588947D01*
X11581916Y-29646090D01*
X11581916Y-29717519D01*
X11567630Y-29774661D01*
X11553344Y-29803233D01*
X11539058Y-29817519D01*
X11510487Y-29831804D01*
X11481916Y-29831804D01*
X11453344Y-29817519D01*
X11439058Y-29803233D01*
X11424773Y-29774661D01*
X11410487Y-29717519D01*
X11410487Y-29646090D01*
X11424773Y-29588947D01*
X11439058Y-29560376D01*
X11453344Y-29546090D01*
X11481916Y-29531804D01*
X11839058Y-29531804D02*
X11781916Y-29531804D01*
X11753344Y-29546090D01*
X11739058Y-29560376D01*
X11710487Y-29603233D01*
X11696201Y-29660376D01*
X11696201Y-29774661D01*
X11710487Y-29803233D01*
X11724773Y-29817519D01*
X11753344Y-29831804D01*
X11810487Y-29831804D01*
X11839058Y-29817519D01*
X11853344Y-29803233D01*
X11867630Y-29774661D01*
X11867630Y-29703233D01*
X11853344Y-29674661D01*
X11839058Y-29660376D01*
X11810487Y-29646090D01*
X11753344Y-29646090D01*
X11724773Y-29660376D01*
X11710487Y-29674661D01*
X11696201Y-29703233D01*
X12039058Y-29660376D02*
X12010487Y-29646090D01*
X11996201Y-29631804D01*
X11981916Y-29603233D01*
X11981916Y-29588947D01*
X11996201Y-29560376D01*
X12010487Y-29546090D01*
X12039058Y-29531804D01*
X12096201Y-29531804D01*
X12124773Y-29546090D01*
X12139058Y-29560376D01*
X12153344Y-29588947D01*
X12153344Y-29603233D01*
X12139058Y-29631804D01*
X12124773Y-29646090D01*
X12096201Y-29660376D01*
X12039058Y-29660376D01*
X12010487Y-29674661D01*
X11996201Y-29688947D01*
X11981916Y-29717519D01*
X11981916Y-29774661D01*
X11996201Y-29803233D01*
X12010487Y-29817519D01*
X12039058Y-29831804D01*
X12096201Y-29831804D01*
X12124773Y-29817519D01*
X12139058Y-29803233D01*
X12153344Y-29774661D01*
X12153344Y-29717519D01*
X12139058Y-29688947D01*
X12124773Y-29674661D01*
X12096201Y-29660376D01*
X12296201Y-29831804D02*
X12353344Y-29831804D01*
X12381916Y-29817519D01*
X12396201Y-29803233D01*
X12424773Y-29760376D01*
X12439058Y-29703233D01*
X12439058Y-29588947D01*
X12424773Y-29560376D01*
X12410487Y-29546090D01*
X12381916Y-29531804D01*
X12324773Y-29531804D01*
X12296201Y-29546090D01*
X12281916Y-29560376D01*
X12267630Y-29588947D01*
X12267630Y-29660376D01*
X12281916Y-29688947D01*
X12296201Y-29703233D01*
X12324773Y-29717519D01*
X12381916Y-29717519D01*
X12410487Y-29703233D01*
X12424773Y-29688947D01*
X12439058Y-29660376D01*
X12553344Y-29531804D02*
X12553344Y-29588947D01*
X12667630Y-29531804D02*
X12667630Y-29588947D01*
X13110487Y-29946090D02*
X13096201Y-29931804D01*
X13067630Y-29888947D01*
X13053344Y-29860376D01*
X13039058Y-29817519D01*
X13024773Y-29746090D01*
X13024773Y-29688947D01*
X13039058Y-29617519D01*
X13053344Y-29574661D01*
X13067630Y-29546090D01*
X13096201Y-29503233D01*
X13110487Y-29488947D01*
X13381916Y-29831804D02*
X13210487Y-29831804D01*
X13296201Y-29831804D02*
X13296201Y-29531804D01*
X13267630Y-29574661D01*
X13239058Y-29603233D01*
X13210487Y-29617519D01*
X13553344Y-29660376D02*
X13524773Y-29646090D01*
X13510487Y-29631804D01*
X13496201Y-29603233D01*
X13496201Y-29588947D01*
X13510487Y-29560376D01*
X13524773Y-29546090D01*
X13553344Y-29531804D01*
X13610487Y-29531804D01*
X13639058Y-29546090D01*
X13653344Y-29560376D01*
X13667630Y-29588947D01*
X13667630Y-29603233D01*
X13653344Y-29631804D01*
X13639058Y-29646090D01*
X13610487Y-29660376D01*
X13553344Y-29660376D01*
X13524773Y-29674661D01*
X13510487Y-29688947D01*
X13496201Y-29717519D01*
X13496201Y-29774661D01*
X13510487Y-29803233D01*
X13524773Y-29817519D01*
X13553344Y-29831804D01*
X13610487Y-29831804D01*
X13639058Y-29817519D01*
X13653344Y-29803233D01*
X13667630Y-29774661D01*
X13667630Y-29717519D01*
X13653344Y-29688947D01*
X13639058Y-29674661D01*
X13610487Y-29660376D01*
X13853344Y-29531804D02*
X13881916Y-29531804D01*
X13910487Y-29546090D01*
X13924773Y-29560376D01*
X13939058Y-29588947D01*
X13953344Y-29646090D01*
X13953344Y-29717519D01*
X13939058Y-29774661D01*
X13924773Y-29803233D01*
X13910487Y-29817519D01*
X13881916Y-29831804D01*
X13853344Y-29831804D01*
X13824773Y-29817519D01*
X13810487Y-29803233D01*
X13796201Y-29774661D01*
X13781916Y-29717519D01*
X13781916Y-29646090D01*
X13796201Y-29588947D01*
X13810487Y-29560376D01*
X13824773Y-29546090D01*
X13853344Y-29531804D01*
X14310487Y-29831804D02*
X14310487Y-29531804D01*
X14439058Y-29831804D02*
X14439058Y-29674661D01*
X14424773Y-29646090D01*
X14396201Y-29631804D01*
X14353344Y-29631804D01*
X14324773Y-29646090D01*
X14310487Y-29660376D01*
X14624773Y-29831804D02*
X14596201Y-29817519D01*
X14581916Y-29803233D01*
X14567630Y-29774661D01*
X14567630Y-29688947D01*
X14581916Y-29660376D01*
X14596201Y-29646090D01*
X14624773Y-29631804D01*
X14667630Y-29631804D01*
X14696201Y-29646090D01*
X14710487Y-29660376D01*
X14724773Y-29688947D01*
X14724773Y-29774661D01*
X14710487Y-29803233D01*
X14696201Y-29817519D01*
X14667630Y-29831804D01*
X14624773Y-29831804D01*
X14896201Y-29831804D02*
X14867630Y-29817519D01*
X14853344Y-29788947D01*
X14853344Y-29531804D01*
X15124773Y-29817519D02*
X15096201Y-29831804D01*
X15039058Y-29831804D01*
X15010487Y-29817519D01*
X14996201Y-29788947D01*
X14996201Y-29674661D01*
X15010487Y-29646090D01*
X15039058Y-29631804D01*
X15096201Y-29631804D01*
X15124773Y-29646090D01*
X15139058Y-29674661D01*
X15139058Y-29703233D01*
X14996201Y-29731804D01*
X15253344Y-29817519D02*
X15281916Y-29831804D01*
X15339058Y-29831804D01*
X15367630Y-29817519D01*
X15381916Y-29788947D01*
X15381916Y-29774661D01*
X15367630Y-29746090D01*
X15339058Y-29731804D01*
X15296201Y-29731804D01*
X15267630Y-29717519D01*
X15253344Y-29688947D01*
X15253344Y-29674661D01*
X15267630Y-29646090D01*
X15296201Y-29631804D01*
X15339058Y-29631804D01*
X15367630Y-29646090D01*
X15481916Y-29946090D02*
X15496201Y-29931804D01*
X15524773Y-29888947D01*
X15539058Y-29860376D01*
X15553344Y-29817519D01*
X15567630Y-29746090D01*
X15567630Y-29688947D01*
X15553344Y-29617519D01*
X15539058Y-29574661D01*
X15524773Y-29546090D01*
X15496201Y-29503233D01*
X15481916Y-29488947D01*
X16024773Y-29946090D02*
X16010487Y-29931804D01*
X15981916Y-29888947D01*
X15967630Y-29860376D01*
X15953344Y-29817519D01*
X15939058Y-29746090D01*
X15939058Y-29688947D01*
X15953344Y-29617519D01*
X15967630Y-29574661D01*
X15981916Y-29546090D01*
X16010487Y-29503233D01*
X16024773Y-29488947D01*
X16139058Y-29631804D02*
X16139058Y-29831804D01*
X16139058Y-29660376D02*
X16153344Y-29646090D01*
X16181916Y-29631804D01*
X16224773Y-29631804D01*
X16253344Y-29646090D01*
X16267630Y-29674661D01*
X16267630Y-29831804D01*
X16453344Y-29831804D02*
X16424773Y-29817519D01*
X16410487Y-29803233D01*
X16396201Y-29774661D01*
X16396201Y-29688947D01*
X16410487Y-29660376D01*
X16424773Y-29646090D01*
X16453344Y-29631804D01*
X16496201Y-29631804D01*
X16524773Y-29646090D01*
X16539058Y-29660376D01*
X16553344Y-29688947D01*
X16553344Y-29774661D01*
X16539058Y-29803233D01*
X16524773Y-29817519D01*
X16496201Y-29831804D01*
X16453344Y-29831804D01*
X16639058Y-29631804D02*
X16753344Y-29631804D01*
X16681916Y-29531804D02*
X16681916Y-29788947D01*
X16696201Y-29817519D01*
X16724773Y-29831804D01*
X16753344Y-29831804D01*
X17081916Y-29631804D02*
X17081916Y-29931804D01*
X17081916Y-29646090D02*
X17110487Y-29631804D01*
X17167630Y-29631804D01*
X17196201Y-29646090D01*
X17210487Y-29660376D01*
X17224773Y-29688947D01*
X17224773Y-29774661D01*
X17210487Y-29803233D01*
X17196201Y-29817519D01*
X17167630Y-29831804D01*
X17110487Y-29831804D01*
X17081916Y-29817519D01*
X17396201Y-29831804D02*
X17367630Y-29817519D01*
X17353344Y-29788947D01*
X17353344Y-29531804D01*
X17639058Y-29831804D02*
X17639058Y-29674661D01*
X17624773Y-29646090D01*
X17596201Y-29631804D01*
X17539058Y-29631804D01*
X17510487Y-29646090D01*
X17639058Y-29817519D02*
X17610487Y-29831804D01*
X17539058Y-29831804D01*
X17510487Y-29817519D01*
X17496201Y-29788947D01*
X17496201Y-29760376D01*
X17510487Y-29731804D01*
X17539058Y-29717519D01*
X17610487Y-29717519D01*
X17639058Y-29703233D01*
X17739058Y-29631804D02*
X17853344Y-29631804D01*
X17781916Y-29531804D02*
X17781916Y-29788947D01*
X17796201Y-29817519D01*
X17824773Y-29831804D01*
X17853344Y-29831804D01*
X18067630Y-29817519D02*
X18039058Y-29831804D01*
X17981916Y-29831804D01*
X17953344Y-29817519D01*
X17939058Y-29788947D01*
X17939058Y-29674661D01*
X17953344Y-29646090D01*
X17981916Y-29631804D01*
X18039058Y-29631804D01*
X18067630Y-29646090D01*
X18081916Y-29674661D01*
X18081916Y-29703233D01*
X17939058Y-29731804D01*
X18339058Y-29831804D02*
X18339058Y-29531804D01*
X18339058Y-29817519D02*
X18310487Y-29831804D01*
X18253344Y-29831804D01*
X18224773Y-29817519D01*
X18210487Y-29803233D01*
X18196201Y-29774661D01*
X18196201Y-29688947D01*
X18210487Y-29660376D01*
X18224773Y-29646090D01*
X18253344Y-29631804D01*
X18310487Y-29631804D01*
X18339058Y-29646090D01*
X18453344Y-29946090D02*
X18467630Y-29931804D01*
X18496201Y-29888947D01*
X18510487Y-29860376D01*
X18524773Y-29817519D01*
X18539058Y-29746090D01*
X18539058Y-29688947D01*
X18524773Y-29617519D01*
X18510487Y-29574661D01*
X18496201Y-29546090D01*
X18467630Y-29503233D01*
X18453344Y-29488947D01*
X7702630Y-29942090D02*
X7702630Y-30242090D01*
X7552630Y-30092090D02*
X7852630Y-30092090D01*
X8110487Y-29927804D02*
X8296201Y-29927804D01*
X8196201Y-30042090D01*
X8239058Y-30042090D01*
X8267630Y-30056376D01*
X8281916Y-30070661D01*
X8296201Y-30099233D01*
X8296201Y-30170661D01*
X8281916Y-30199233D01*
X8267630Y-30213519D01*
X8239058Y-30227804D01*
X8153344Y-30227804D01*
X8124773Y-30213519D01*
X8110487Y-30199233D01*
X8424773Y-30199233D02*
X8439058Y-30213519D01*
X8424773Y-30227804D01*
X8410487Y-30213519D01*
X8424773Y-30199233D01*
X8424773Y-30227804D01*
X8624773Y-29927804D02*
X8653344Y-29927804D01*
X8681916Y-29942090D01*
X8696201Y-29956376D01*
X8710487Y-29984947D01*
X8724773Y-30042090D01*
X8724773Y-30113519D01*
X8710487Y-30170661D01*
X8696201Y-30199233D01*
X8681916Y-30213519D01*
X8653344Y-30227804D01*
X8624773Y-30227804D01*
X8596201Y-30213519D01*
X8581916Y-30199233D01*
X8567630Y-30170661D01*
X8553344Y-30113519D01*
X8553344Y-30042090D01*
X8567630Y-29984947D01*
X8581916Y-29956376D01*
X8596201Y-29942090D01*
X8624773Y-29927804D01*
X8910487Y-29927804D02*
X8939058Y-29927804D01*
X8967630Y-29942090D01*
X8981916Y-29956376D01*
X8996201Y-29984947D01*
X9010487Y-30042090D01*
X9010487Y-30113519D01*
X8996201Y-30170661D01*
X8981916Y-30199233D01*
X8967630Y-30213519D01*
X8939058Y-30227804D01*
X8910487Y-30227804D01*
X8881916Y-30213519D01*
X8867630Y-30199233D01*
X8853344Y-30170661D01*
X8839058Y-30113519D01*
X8839058Y-30042090D01*
X8853344Y-29984947D01*
X8867630Y-29956376D01*
X8881916Y-29942090D01*
X8910487Y-29927804D01*
X9196201Y-29927804D02*
X9224773Y-29927804D01*
X9253344Y-29942090D01*
X9267630Y-29956376D01*
X9281916Y-29984947D01*
X9296201Y-30042090D01*
X9296201Y-30113519D01*
X9281916Y-30170661D01*
X9267630Y-30199233D01*
X9253344Y-30213519D01*
X9224773Y-30227804D01*
X9196201Y-30227804D01*
X9167630Y-30213519D01*
X9153344Y-30199233D01*
X9139058Y-30170661D01*
X9124773Y-30113519D01*
X9124773Y-30042090D01*
X9139058Y-29984947D01*
X9153344Y-29956376D01*
X9167630Y-29942090D01*
X9196201Y-29927804D01*
X9424773Y-30227804D02*
X9424773Y-30027804D01*
X9424773Y-30056376D02*
X9439058Y-30042090D01*
X9467630Y-30027804D01*
X9510487Y-30027804D01*
X9539058Y-30042090D01*
X9553344Y-30070661D01*
X9553344Y-30227804D01*
X9553344Y-30070661D02*
X9567630Y-30042090D01*
X9596201Y-30027804D01*
X9639058Y-30027804D01*
X9667630Y-30042090D01*
X9681916Y-30070661D01*
X9681916Y-30227804D01*
X9824773Y-30227804D02*
X9824773Y-30027804D01*
X9824773Y-30056376D02*
X9839058Y-30042090D01*
X9867630Y-30027804D01*
X9910487Y-30027804D01*
X9939058Y-30042090D01*
X9953344Y-30070661D01*
X9953344Y-30227804D01*
X9953344Y-30070661D02*
X9967630Y-30042090D01*
X9996201Y-30027804D01*
X10039058Y-30027804D01*
X10067630Y-30042090D01*
X10081916Y-30070661D01*
X10081916Y-30227804D01*
X10667630Y-29913519D02*
X10410487Y-30299233D01*
X11053344Y-29927804D02*
X11081916Y-29927804D01*
X11110487Y-29942090D01*
X11124773Y-29956376D01*
X11139058Y-29984947D01*
X11153344Y-30042090D01*
X11153344Y-30113519D01*
X11139058Y-30170661D01*
X11124773Y-30199233D01*
X11110487Y-30213519D01*
X11081916Y-30227804D01*
X11053344Y-30227804D01*
X11024773Y-30213519D01*
X11010487Y-30199233D01*
X10996201Y-30170661D01*
X10981916Y-30113519D01*
X10981916Y-30042090D01*
X10996201Y-29984947D01*
X11010487Y-29956376D01*
X11024773Y-29942090D01*
X11053344Y-29927804D01*
X11281916Y-30199233D02*
X11296201Y-30213519D01*
X11281916Y-30227804D01*
X11267630Y-30213519D01*
X11281916Y-30199233D01*
X11281916Y-30227804D01*
X11581916Y-30227804D02*
X11410487Y-30227804D01*
X11496201Y-30227804D02*
X11496201Y-29927804D01*
X11467630Y-29970661D01*
X11439058Y-29999233D01*
X11410487Y-30013519D01*
X11867630Y-30227804D02*
X11696201Y-30227804D01*
X11781916Y-30227804D02*
X11781916Y-29927804D01*
X11753344Y-29970661D01*
X11724773Y-29999233D01*
X11696201Y-30013519D01*
X12039058Y-30056376D02*
X12010487Y-30042090D01*
X11996201Y-30027804D01*
X11981916Y-29999233D01*
X11981916Y-29984947D01*
X11996201Y-29956376D01*
X12010487Y-29942090D01*
X12039058Y-29927804D01*
X12096201Y-29927804D01*
X12124773Y-29942090D01*
X12139058Y-29956376D01*
X12153344Y-29984947D01*
X12153344Y-29999233D01*
X12139058Y-30027804D01*
X12124773Y-30042090D01*
X12096201Y-30056376D01*
X12039058Y-30056376D01*
X12010487Y-30070661D01*
X11996201Y-30084947D01*
X11981916Y-30113519D01*
X11981916Y-30170661D01*
X11996201Y-30199233D01*
X12010487Y-30213519D01*
X12039058Y-30227804D01*
X12096201Y-30227804D01*
X12124773Y-30213519D01*
X12139058Y-30199233D01*
X12153344Y-30170661D01*
X12153344Y-30113519D01*
X12139058Y-30084947D01*
X12124773Y-30070661D01*
X12096201Y-30056376D01*
X12439058Y-30227804D02*
X12267630Y-30227804D01*
X12353344Y-30227804D02*
X12353344Y-29927804D01*
X12324773Y-29970661D01*
X12296201Y-29999233D01*
X12267630Y-30013519D01*
X12553344Y-29927804D02*
X12553344Y-29984947D01*
X12667630Y-29927804D02*
X12667630Y-29984947D01*
X13110487Y-30342090D02*
X13096201Y-30327804D01*
X13067630Y-30284947D01*
X13053344Y-30256376D01*
X13039058Y-30213519D01*
X13024773Y-30142090D01*
X13024773Y-30084947D01*
X13039058Y-30013519D01*
X13053344Y-29970661D01*
X13067630Y-29942090D01*
X13096201Y-29899233D01*
X13110487Y-29884947D01*
X13381916Y-30227804D02*
X13210487Y-30227804D01*
X13296201Y-30227804D02*
X13296201Y-29927804D01*
X13267630Y-29970661D01*
X13239058Y-29999233D01*
X13210487Y-30013519D01*
X13553344Y-30056376D02*
X13524773Y-30042090D01*
X13510487Y-30027804D01*
X13496201Y-29999233D01*
X13496201Y-29984947D01*
X13510487Y-29956376D01*
X13524773Y-29942090D01*
X13553344Y-29927804D01*
X13610487Y-29927804D01*
X13639058Y-29942090D01*
X13653344Y-29956376D01*
X13667630Y-29984947D01*
X13667630Y-29999233D01*
X13653344Y-30027804D01*
X13639058Y-30042090D01*
X13610487Y-30056376D01*
X13553344Y-30056376D01*
X13524773Y-30070661D01*
X13510487Y-30084947D01*
X13496201Y-30113519D01*
X13496201Y-30170661D01*
X13510487Y-30199233D01*
X13524773Y-30213519D01*
X13553344Y-30227804D01*
X13610487Y-30227804D01*
X13639058Y-30213519D01*
X13653344Y-30199233D01*
X13667630Y-30170661D01*
X13667630Y-30113519D01*
X13653344Y-30084947D01*
X13639058Y-30070661D01*
X13610487Y-30056376D01*
X13853344Y-29927804D02*
X13881916Y-29927804D01*
X13910487Y-29942090D01*
X13924773Y-29956376D01*
X13939058Y-29984947D01*
X13953344Y-30042090D01*
X13953344Y-30113519D01*
X13939058Y-30170661D01*
X13924773Y-30199233D01*
X13910487Y-30213519D01*
X13881916Y-30227804D01*
X13853344Y-30227804D01*
X13824773Y-30213519D01*
X13810487Y-30199233D01*
X13796201Y-30170661D01*
X13781916Y-30113519D01*
X13781916Y-30042090D01*
X13796201Y-29984947D01*
X13810487Y-29956376D01*
X13824773Y-29942090D01*
X13853344Y-29927804D01*
X14310487Y-30227804D02*
X14310487Y-29927804D01*
X14439058Y-30227804D02*
X14439058Y-30070661D01*
X14424773Y-30042090D01*
X14396201Y-30027804D01*
X14353344Y-30027804D01*
X14324773Y-30042090D01*
X14310487Y-30056376D01*
X14624773Y-30227804D02*
X14596201Y-30213519D01*
X14581916Y-30199233D01*
X14567630Y-30170661D01*
X14567630Y-30084947D01*
X14581916Y-30056376D01*
X14596201Y-30042090D01*
X14624773Y-30027804D01*
X14667630Y-30027804D01*
X14696201Y-30042090D01*
X14710487Y-30056376D01*
X14724773Y-30084947D01*
X14724773Y-30170661D01*
X14710487Y-30199233D01*
X14696201Y-30213519D01*
X14667630Y-30227804D01*
X14624773Y-30227804D01*
X14896201Y-30227804D02*
X14867630Y-30213519D01*
X14853344Y-30184947D01*
X14853344Y-29927804D01*
X15124773Y-30213519D02*
X15096201Y-30227804D01*
X15039058Y-30227804D01*
X15010487Y-30213519D01*
X14996201Y-30184947D01*
X14996201Y-30070661D01*
X15010487Y-30042090D01*
X15039058Y-30027804D01*
X15096201Y-30027804D01*
X15124773Y-30042090D01*
X15139058Y-30070661D01*
X15139058Y-30099233D01*
X14996201Y-30127804D01*
X15253344Y-30213519D02*
X15281916Y-30227804D01*
X15339058Y-30227804D01*
X15367630Y-30213519D01*
X15381916Y-30184947D01*
X15381916Y-30170661D01*
X15367630Y-30142090D01*
X15339058Y-30127804D01*
X15296201Y-30127804D01*
X15267630Y-30113519D01*
X15253344Y-30084947D01*
X15253344Y-30070661D01*
X15267630Y-30042090D01*
X15296201Y-30027804D01*
X15339058Y-30027804D01*
X15367630Y-30042090D01*
X15481916Y-30342090D02*
X15496201Y-30327804D01*
X15524773Y-30284947D01*
X15539058Y-30256376D01*
X15553344Y-30213519D01*
X15567630Y-30142090D01*
X15567630Y-30084947D01*
X15553344Y-30013519D01*
X15539058Y-29970661D01*
X15524773Y-29942090D01*
X15496201Y-29899233D01*
X15481916Y-29884947D01*
X16024773Y-30342090D02*
X16010487Y-30327804D01*
X15981916Y-30284947D01*
X15967630Y-30256376D01*
X15953344Y-30213519D01*
X15939058Y-30142090D01*
X15939058Y-30084947D01*
X15953344Y-30013519D01*
X15967630Y-29970661D01*
X15981916Y-29942090D01*
X16010487Y-29899233D01*
X16024773Y-29884947D01*
X16139058Y-30027804D02*
X16139058Y-30227804D01*
X16139058Y-30056376D02*
X16153344Y-30042090D01*
X16181916Y-30027804D01*
X16224773Y-30027804D01*
X16253344Y-30042090D01*
X16267630Y-30070661D01*
X16267630Y-30227804D01*
X16453344Y-30227804D02*
X16424773Y-30213519D01*
X16410487Y-30199233D01*
X16396201Y-30170661D01*
X16396201Y-30084947D01*
X16410487Y-30056376D01*
X16424773Y-30042090D01*
X16453344Y-30027804D01*
X16496201Y-30027804D01*
X16524773Y-30042090D01*
X16539058Y-30056376D01*
X16553344Y-30084947D01*
X16553344Y-30170661D01*
X16539058Y-30199233D01*
X16524773Y-30213519D01*
X16496201Y-30227804D01*
X16453344Y-30227804D01*
X16639058Y-30027804D02*
X16753344Y-30027804D01*
X16681916Y-29927804D02*
X16681916Y-30184947D01*
X16696201Y-30213519D01*
X16724773Y-30227804D01*
X16753344Y-30227804D01*
X17081916Y-30027804D02*
X17081916Y-30327804D01*
X17081916Y-30042090D02*
X17110487Y-30027804D01*
X17167630Y-30027804D01*
X17196201Y-30042090D01*
X17210487Y-30056376D01*
X17224773Y-30084947D01*
X17224773Y-30170661D01*
X17210487Y-30199233D01*
X17196201Y-30213519D01*
X17167630Y-30227804D01*
X17110487Y-30227804D01*
X17081916Y-30213519D01*
X17396201Y-30227804D02*
X17367630Y-30213519D01*
X17353344Y-30184947D01*
X17353344Y-29927804D01*
X17639058Y-30227804D02*
X17639058Y-30070661D01*
X17624773Y-30042090D01*
X17596201Y-30027804D01*
X17539058Y-30027804D01*
X17510487Y-30042090D01*
X17639058Y-30213519D02*
X17610487Y-30227804D01*
X17539058Y-30227804D01*
X17510487Y-30213519D01*
X17496201Y-30184947D01*
X17496201Y-30156376D01*
X17510487Y-30127804D01*
X17539058Y-30113519D01*
X17610487Y-30113519D01*
X17639058Y-30099233D01*
X17739058Y-30027804D02*
X17853344Y-30027804D01*
X17781916Y-29927804D02*
X17781916Y-30184947D01*
X17796201Y-30213519D01*
X17824773Y-30227804D01*
X17853344Y-30227804D01*
X18067630Y-30213519D02*
X18039058Y-30227804D01*
X17981916Y-30227804D01*
X17953344Y-30213519D01*
X17939058Y-30184947D01*
X17939058Y-30070661D01*
X17953344Y-30042090D01*
X17981916Y-30027804D01*
X18039058Y-30027804D01*
X18067630Y-30042090D01*
X18081916Y-30070661D01*
X18081916Y-30099233D01*
X17939058Y-30127804D01*
X18339058Y-30227804D02*
X18339058Y-29927804D01*
X18339058Y-30213519D02*
X18310487Y-30227804D01*
X18253344Y-30227804D01*
X18224773Y-30213519D01*
X18210487Y-30199233D01*
X18196201Y-30170661D01*
X18196201Y-30084947D01*
X18210487Y-30056376D01*
X18224773Y-30042090D01*
X18253344Y-30027804D01*
X18310487Y-30027804D01*
X18339058Y-30042090D01*
X18453344Y-30342090D02*
X18467630Y-30327804D01*
X18496201Y-30284947D01*
X18510487Y-30256376D01*
X18524773Y-30213519D01*
X18539058Y-30142090D01*
X18539058Y-30084947D01*
X18524773Y-30013519D01*
X18510487Y-29970661D01*
X18496201Y-29942090D01*
X18467630Y-29899233D01*
X18453344Y-29884947D01*
X7807965Y-30629925D02*
X7807965Y-30414255D01*
X7592295Y-30414255D01*
X7592295Y-30629925D01*
X7807965Y-30629925D01*
X8110487Y-30357804D02*
X8296201Y-30357804D01*
X8196201Y-30472090D01*
X8239058Y-30472090D01*
X8267630Y-30486376D01*
X8281916Y-30500661D01*
X8296201Y-30529233D01*
X8296201Y-30600661D01*
X8281916Y-30629233D01*
X8267630Y-30643519D01*
X8239058Y-30657804D01*
X8153344Y-30657804D01*
X8124773Y-30643519D01*
X8110487Y-30629233D01*
X8424773Y-30629233D02*
X8439058Y-30643519D01*
X8424773Y-30657804D01*
X8410487Y-30643519D01*
X8424773Y-30629233D01*
X8424773Y-30657804D01*
X8624773Y-30357804D02*
X8653344Y-30357804D01*
X8681916Y-30372090D01*
X8696201Y-30386376D01*
X8710487Y-30414947D01*
X8724773Y-30472090D01*
X8724773Y-30543519D01*
X8710487Y-30600661D01*
X8696201Y-30629233D01*
X8681916Y-30643519D01*
X8653344Y-30657804D01*
X8624773Y-30657804D01*
X8596201Y-30643519D01*
X8581916Y-30629233D01*
X8567630Y-30600661D01*
X8553344Y-30543519D01*
X8553344Y-30472090D01*
X8567630Y-30414947D01*
X8581916Y-30386376D01*
X8596201Y-30372090D01*
X8624773Y-30357804D01*
X8996201Y-30357804D02*
X8853344Y-30357804D01*
X8839058Y-30500661D01*
X8853344Y-30486376D01*
X8881916Y-30472090D01*
X8953344Y-30472090D01*
X8981916Y-30486376D01*
X8996201Y-30500661D01*
X9010487Y-30529233D01*
X9010487Y-30600661D01*
X8996201Y-30629233D01*
X8981916Y-30643519D01*
X8953344Y-30657804D01*
X8881916Y-30657804D01*
X8853344Y-30643519D01*
X8839058Y-30629233D01*
X9196201Y-30357804D02*
X9224773Y-30357804D01*
X9253344Y-30372090D01*
X9267630Y-30386376D01*
X9281916Y-30414947D01*
X9296201Y-30472090D01*
X9296201Y-30543519D01*
X9281916Y-30600661D01*
X9267630Y-30629233D01*
X9253344Y-30643519D01*
X9224773Y-30657804D01*
X9196201Y-30657804D01*
X9167630Y-30643519D01*
X9153344Y-30629233D01*
X9139058Y-30600661D01*
X9124773Y-30543519D01*
X9124773Y-30472090D01*
X9139058Y-30414947D01*
X9153344Y-30386376D01*
X9167630Y-30372090D01*
X9196201Y-30357804D01*
X9424773Y-30657804D02*
X9424773Y-30457804D01*
X9424773Y-30486376D02*
X9439058Y-30472090D01*
X9467630Y-30457804D01*
X9510487Y-30457804D01*
X9539058Y-30472090D01*
X9553344Y-30500661D01*
X9553344Y-30657804D01*
X9553344Y-30500661D02*
X9567630Y-30472090D01*
X9596201Y-30457804D01*
X9639058Y-30457804D01*
X9667630Y-30472090D01*
X9681916Y-30500661D01*
X9681916Y-30657804D01*
X9824773Y-30657804D02*
X9824773Y-30457804D01*
X9824773Y-30486376D02*
X9839058Y-30472090D01*
X9867630Y-30457804D01*
X9910487Y-30457804D01*
X9939058Y-30472090D01*
X9953344Y-30500661D01*
X9953344Y-30657804D01*
X9953344Y-30500661D02*
X9967630Y-30472090D01*
X9996201Y-30457804D01*
X10039058Y-30457804D01*
X10067630Y-30472090D01*
X10081916Y-30500661D01*
X10081916Y-30657804D01*
X10667630Y-30343519D02*
X10410487Y-30729233D01*
X11053344Y-30357804D02*
X11081916Y-30357804D01*
X11110487Y-30372090D01*
X11124773Y-30386376D01*
X11139058Y-30414947D01*
X11153344Y-30472090D01*
X11153344Y-30543519D01*
X11139058Y-30600661D01*
X11124773Y-30629233D01*
X11110487Y-30643519D01*
X11081916Y-30657804D01*
X11053344Y-30657804D01*
X11024773Y-30643519D01*
X11010487Y-30629233D01*
X10996201Y-30600661D01*
X10981916Y-30543519D01*
X10981916Y-30472090D01*
X10996201Y-30414947D01*
X11010487Y-30386376D01*
X11024773Y-30372090D01*
X11053344Y-30357804D01*
X11281916Y-30629233D02*
X11296201Y-30643519D01*
X11281916Y-30657804D01*
X11267630Y-30643519D01*
X11281916Y-30629233D01*
X11281916Y-30657804D01*
X11581916Y-30657804D02*
X11410487Y-30657804D01*
X11496201Y-30657804D02*
X11496201Y-30357804D01*
X11467630Y-30400661D01*
X11439058Y-30429233D01*
X11410487Y-30443519D01*
X11696201Y-30386376D02*
X11710487Y-30372090D01*
X11739058Y-30357804D01*
X11810487Y-30357804D01*
X11839058Y-30372090D01*
X11853344Y-30386376D01*
X11867630Y-30414947D01*
X11867630Y-30443519D01*
X11853344Y-30486376D01*
X11681916Y-30657804D01*
X11867630Y-30657804D01*
X12053344Y-30357804D02*
X12081916Y-30357804D01*
X12110487Y-30372090D01*
X12124773Y-30386376D01*
X12139058Y-30414947D01*
X12153344Y-30472090D01*
X12153344Y-30543519D01*
X12139058Y-30600661D01*
X12124773Y-30629233D01*
X12110487Y-30643519D01*
X12081916Y-30657804D01*
X12053344Y-30657804D01*
X12024773Y-30643519D01*
X12010487Y-30629233D01*
X11996201Y-30600661D01*
X11981916Y-30543519D01*
X11981916Y-30472090D01*
X11996201Y-30414947D01*
X12010487Y-30386376D01*
X12024773Y-30372090D01*
X12053344Y-30357804D01*
X12439058Y-30657804D02*
X12267630Y-30657804D01*
X12353344Y-30657804D02*
X12353344Y-30357804D01*
X12324773Y-30400661D01*
X12296201Y-30429233D01*
X12267630Y-30443519D01*
X12553344Y-30357804D02*
X12553344Y-30414947D01*
X12667630Y-30357804D02*
X12667630Y-30414947D01*
X13110487Y-30772090D02*
X13096201Y-30757804D01*
X13067630Y-30714947D01*
X13053344Y-30686376D01*
X13039058Y-30643519D01*
X13024773Y-30572090D01*
X13024773Y-30514947D01*
X13039058Y-30443519D01*
X13053344Y-30400661D01*
X13067630Y-30372090D01*
X13096201Y-30329233D01*
X13110487Y-30314947D01*
X13381916Y-30657804D02*
X13210487Y-30657804D01*
X13296201Y-30657804D02*
X13296201Y-30357804D01*
X13267630Y-30400661D01*
X13239058Y-30429233D01*
X13210487Y-30443519D01*
X13567630Y-30357804D02*
X13596201Y-30357804D01*
X13624773Y-30372090D01*
X13639058Y-30386376D01*
X13653344Y-30414947D01*
X13667630Y-30472090D01*
X13667630Y-30543519D01*
X13653344Y-30600661D01*
X13639058Y-30629233D01*
X13624773Y-30643519D01*
X13596201Y-30657804D01*
X13567630Y-30657804D01*
X13539058Y-30643519D01*
X13524773Y-30629233D01*
X13510487Y-30600661D01*
X13496201Y-30543519D01*
X13496201Y-30472090D01*
X13510487Y-30414947D01*
X13524773Y-30386376D01*
X13539058Y-30372090D01*
X13567630Y-30357804D01*
X14024773Y-30657804D02*
X14024773Y-30357804D01*
X14153344Y-30657804D02*
X14153344Y-30500661D01*
X14139058Y-30472090D01*
X14110487Y-30457804D01*
X14067630Y-30457804D01*
X14039058Y-30472090D01*
X14024773Y-30486376D01*
X14339058Y-30657804D02*
X14310487Y-30643519D01*
X14296201Y-30629233D01*
X14281916Y-30600661D01*
X14281916Y-30514947D01*
X14296201Y-30486376D01*
X14310487Y-30472090D01*
X14339058Y-30457804D01*
X14381916Y-30457804D01*
X14410487Y-30472090D01*
X14424773Y-30486376D01*
X14439058Y-30514947D01*
X14439058Y-30600661D01*
X14424773Y-30629233D01*
X14410487Y-30643519D01*
X14381916Y-30657804D01*
X14339058Y-30657804D01*
X14610487Y-30657804D02*
X14581916Y-30643519D01*
X14567630Y-30614947D01*
X14567630Y-30357804D01*
X14839058Y-30643519D02*
X14810487Y-30657804D01*
X14753344Y-30657804D01*
X14724773Y-30643519D01*
X14710487Y-30614947D01*
X14710487Y-30500661D01*
X14724773Y-30472090D01*
X14753344Y-30457804D01*
X14810487Y-30457804D01*
X14839058Y-30472090D01*
X14853344Y-30500661D01*
X14853344Y-30529233D01*
X14710487Y-30557804D01*
X14967630Y-30643519D02*
X14996201Y-30657804D01*
X15053344Y-30657804D01*
X15081916Y-30643519D01*
X15096201Y-30614947D01*
X15096201Y-30600661D01*
X15081916Y-30572090D01*
X15053344Y-30557804D01*
X15010487Y-30557804D01*
X14981916Y-30543519D01*
X14967630Y-30514947D01*
X14967630Y-30500661D01*
X14981916Y-30472090D01*
X15010487Y-30457804D01*
X15053344Y-30457804D01*
X15081916Y-30472090D01*
X15196201Y-30772090D02*
X15210487Y-30757804D01*
X15239058Y-30714947D01*
X15253344Y-30686376D01*
X15267630Y-30643519D01*
X15281916Y-30572090D01*
X15281916Y-30514947D01*
X15267630Y-30443519D01*
X15253344Y-30400661D01*
X15239058Y-30372090D01*
X15210487Y-30329233D01*
X15196201Y-30314947D01*
X15739058Y-30772090D02*
X15724773Y-30757804D01*
X15696201Y-30714947D01*
X15681916Y-30686376D01*
X15667630Y-30643519D01*
X15653344Y-30572090D01*
X15653344Y-30514947D01*
X15667630Y-30443519D01*
X15681916Y-30400661D01*
X15696201Y-30372090D01*
X15724773Y-30329233D01*
X15739058Y-30314947D01*
X15853344Y-30457804D02*
X15853344Y-30657804D01*
X15853344Y-30486376D02*
X15867630Y-30472090D01*
X15896201Y-30457804D01*
X15939058Y-30457804D01*
X15967630Y-30472090D01*
X15981916Y-30500661D01*
X15981916Y-30657804D01*
X16167630Y-30657804D02*
X16139058Y-30643519D01*
X16124773Y-30629233D01*
X16110487Y-30600661D01*
X16110487Y-30514947D01*
X16124773Y-30486376D01*
X16139058Y-30472090D01*
X16167630Y-30457804D01*
X16210487Y-30457804D01*
X16239058Y-30472090D01*
X16253344Y-30486376D01*
X16267630Y-30514947D01*
X16267630Y-30600661D01*
X16253344Y-30629233D01*
X16239058Y-30643519D01*
X16210487Y-30657804D01*
X16167630Y-30657804D01*
X16353344Y-30457804D02*
X16467630Y-30457804D01*
X16396201Y-30357804D02*
X16396201Y-30614947D01*
X16410487Y-30643519D01*
X16439058Y-30657804D01*
X16467630Y-30657804D01*
X16796201Y-30457804D02*
X16796201Y-30757804D01*
X16796201Y-30472090D02*
X16824773Y-30457804D01*
X16881916Y-30457804D01*
X16910487Y-30472090D01*
X16924773Y-30486376D01*
X16939058Y-30514947D01*
X16939058Y-30600661D01*
X16924773Y-30629233D01*
X16910487Y-30643519D01*
X16881916Y-30657804D01*
X16824773Y-30657804D01*
X16796201Y-30643519D01*
X17110487Y-30657804D02*
X17081916Y-30643519D01*
X17067630Y-30614947D01*
X17067630Y-30357804D01*
X17353344Y-30657804D02*
X17353344Y-30500661D01*
X17339058Y-30472090D01*
X17310487Y-30457804D01*
X17253344Y-30457804D01*
X17224773Y-30472090D01*
X17353344Y-30643519D02*
X17324773Y-30657804D01*
X17253344Y-30657804D01*
X17224773Y-30643519D01*
X17210487Y-30614947D01*
X17210487Y-30586376D01*
X17224773Y-30557804D01*
X17253344Y-30543519D01*
X17324773Y-30543519D01*
X17353344Y-30529233D01*
X17453344Y-30457804D02*
X17567630Y-30457804D01*
X17496201Y-30357804D02*
X17496201Y-30614947D01*
X17510487Y-30643519D01*
X17539058Y-30657804D01*
X17567630Y-30657804D01*
X17781916Y-30643519D02*
X17753344Y-30657804D01*
X17696201Y-30657804D01*
X17667630Y-30643519D01*
X17653344Y-30614947D01*
X17653344Y-30500661D01*
X17667630Y-30472090D01*
X17696201Y-30457804D01*
X17753344Y-30457804D01*
X17781916Y-30472090D01*
X17796201Y-30500661D01*
X17796201Y-30529233D01*
X17653344Y-30557804D01*
X18053344Y-30657804D02*
X18053344Y-30357804D01*
X18053344Y-30643519D02*
X18024773Y-30657804D01*
X17967630Y-30657804D01*
X17939058Y-30643519D01*
X17924773Y-30629233D01*
X17910487Y-30600661D01*
X17910487Y-30514947D01*
X17924773Y-30486376D01*
X17939058Y-30472090D01*
X17967630Y-30457804D01*
X18024773Y-30457804D01*
X18053344Y-30472090D01*
X18167630Y-30772090D02*
X18181916Y-30757804D01*
X18210487Y-30714947D01*
X18224773Y-30686376D01*
X18239058Y-30643519D01*
X18253344Y-30572090D01*
X18253344Y-30514947D01*
X18239058Y-30443519D01*
X18224773Y-30400661D01*
X18210487Y-30372090D01*
X18181916Y-30329233D01*
X18167630Y-30314947D01*
X7652630Y-31157090D02*
X7852630Y-30957090D01*
X7652630Y-30757090D01*
X7452630Y-30957090D01*
X7652630Y-31157090D01*
X8267630Y-30892804D02*
X8267630Y-31092804D01*
X8196201Y-30778519D02*
X8124773Y-30992804D01*
X8310487Y-30992804D01*
X8424773Y-31064233D02*
X8439058Y-31078519D01*
X8424773Y-31092804D01*
X8410487Y-31078519D01*
X8424773Y-31064233D01*
X8424773Y-31092804D01*
X8624773Y-30792804D02*
X8653344Y-30792804D01*
X8681916Y-30807090D01*
X8696201Y-30821376D01*
X8710487Y-30849947D01*
X8724773Y-30907090D01*
X8724773Y-30978519D01*
X8710487Y-31035661D01*
X8696201Y-31064233D01*
X8681916Y-31078519D01*
X8653344Y-31092804D01*
X8624773Y-31092804D01*
X8596201Y-31078519D01*
X8581916Y-31064233D01*
X8567630Y-31035661D01*
X8553344Y-30978519D01*
X8553344Y-30907090D01*
X8567630Y-30849947D01*
X8581916Y-30821376D01*
X8596201Y-30807090D01*
X8624773Y-30792804D01*
X8910487Y-30792804D02*
X8939058Y-30792804D01*
X8967630Y-30807090D01*
X8981916Y-30821376D01*
X8996201Y-30849947D01*
X9010487Y-30907090D01*
X9010487Y-30978519D01*
X8996201Y-31035661D01*
X8981916Y-31064233D01*
X8967630Y-31078519D01*
X8939058Y-31092804D01*
X8910487Y-31092804D01*
X8881916Y-31078519D01*
X8867630Y-31064233D01*
X8853344Y-31035661D01*
X8839058Y-30978519D01*
X8839058Y-30907090D01*
X8853344Y-30849947D01*
X8867630Y-30821376D01*
X8881916Y-30807090D01*
X8910487Y-30792804D01*
X9196201Y-30792804D02*
X9224773Y-30792804D01*
X9253344Y-30807090D01*
X9267630Y-30821376D01*
X9281916Y-30849947D01*
X9296201Y-30907090D01*
X9296201Y-30978519D01*
X9281916Y-31035661D01*
X9267630Y-31064233D01*
X9253344Y-31078519D01*
X9224773Y-31092804D01*
X9196201Y-31092804D01*
X9167630Y-31078519D01*
X9153344Y-31064233D01*
X9139058Y-31035661D01*
X9124773Y-30978519D01*
X9124773Y-30907090D01*
X9139058Y-30849947D01*
X9153344Y-30821376D01*
X9167630Y-30807090D01*
X9196201Y-30792804D01*
X9424773Y-31092804D02*
X9424773Y-30892804D01*
X9424773Y-30921376D02*
X9439058Y-30907090D01*
X9467630Y-30892804D01*
X9510487Y-30892804D01*
X9539058Y-30907090D01*
X9553344Y-30935661D01*
X9553344Y-31092804D01*
X9553344Y-30935661D02*
X9567630Y-30907090D01*
X9596201Y-30892804D01*
X9639058Y-30892804D01*
X9667630Y-30907090D01*
X9681916Y-30935661D01*
X9681916Y-31092804D01*
X9824773Y-31092804D02*
X9824773Y-30892804D01*
X9824773Y-30921376D02*
X9839058Y-30907090D01*
X9867630Y-30892804D01*
X9910487Y-30892804D01*
X9939058Y-30907090D01*
X9953344Y-30935661D01*
X9953344Y-31092804D01*
X9953344Y-30935661D02*
X9967630Y-30907090D01*
X9996201Y-30892804D01*
X10039058Y-30892804D01*
X10067630Y-30907090D01*
X10081916Y-30935661D01*
X10081916Y-31092804D01*
X10667630Y-30778519D02*
X10410487Y-31164233D01*
X11053344Y-30792804D02*
X11081916Y-30792804D01*
X11110487Y-30807090D01*
X11124773Y-30821376D01*
X11139058Y-30849947D01*
X11153344Y-30907090D01*
X11153344Y-30978519D01*
X11139058Y-31035661D01*
X11124773Y-31064233D01*
X11110487Y-31078519D01*
X11081916Y-31092804D01*
X11053344Y-31092804D01*
X11024773Y-31078519D01*
X11010487Y-31064233D01*
X10996201Y-31035661D01*
X10981916Y-30978519D01*
X10981916Y-30907090D01*
X10996201Y-30849947D01*
X11010487Y-30821376D01*
X11024773Y-30807090D01*
X11053344Y-30792804D01*
X11281916Y-31064233D02*
X11296201Y-31078519D01*
X11281916Y-31092804D01*
X11267630Y-31078519D01*
X11281916Y-31064233D01*
X11281916Y-31092804D01*
X11581916Y-31092804D02*
X11410487Y-31092804D01*
X11496201Y-31092804D02*
X11496201Y-30792804D01*
X11467630Y-30835661D01*
X11439058Y-30864233D01*
X11410487Y-30878519D01*
X11853344Y-30792804D02*
X11710487Y-30792804D01*
X11696201Y-30935661D01*
X11710487Y-30921376D01*
X11739058Y-30907090D01*
X11810487Y-30907090D01*
X11839058Y-30921376D01*
X11853344Y-30935661D01*
X11867630Y-30964233D01*
X11867630Y-31035661D01*
X11853344Y-31064233D01*
X11839058Y-31078519D01*
X11810487Y-31092804D01*
X11739058Y-31092804D01*
X11710487Y-31078519D01*
X11696201Y-31064233D01*
X11967630Y-30792804D02*
X12167630Y-30792804D01*
X12039058Y-31092804D01*
X12424773Y-30792804D02*
X12281916Y-30792804D01*
X12267630Y-30935661D01*
X12281916Y-30921376D01*
X12310487Y-30907090D01*
X12381916Y-30907090D01*
X12410487Y-30921376D01*
X12424773Y-30935661D01*
X12439058Y-30964233D01*
X12439058Y-31035661D01*
X12424773Y-31064233D01*
X12410487Y-31078519D01*
X12381916Y-31092804D01*
X12310487Y-31092804D01*
X12281916Y-31078519D01*
X12267630Y-31064233D01*
X12553344Y-30792804D02*
X12553344Y-30849947D01*
X12667630Y-30792804D02*
X12667630Y-30849947D01*
X13110487Y-31207090D02*
X13096201Y-31192804D01*
X13067630Y-31149947D01*
X13053344Y-31121376D01*
X13039058Y-31078519D01*
X13024773Y-31007090D01*
X13024773Y-30949947D01*
X13039058Y-30878519D01*
X13053344Y-30835661D01*
X13067630Y-30807090D01*
X13096201Y-30764233D01*
X13110487Y-30749947D01*
X13381916Y-31092804D02*
X13210487Y-31092804D01*
X13296201Y-31092804D02*
X13296201Y-30792804D01*
X13267630Y-30835661D01*
X13239058Y-30864233D01*
X13210487Y-30878519D01*
X13567630Y-30792804D02*
X13596201Y-30792804D01*
X13624773Y-30807090D01*
X13639058Y-30821376D01*
X13653344Y-30849947D01*
X13667630Y-30907090D01*
X13667630Y-30978519D01*
X13653344Y-31035661D01*
X13639058Y-31064233D01*
X13624773Y-31078519D01*
X13596201Y-31092804D01*
X13567630Y-31092804D01*
X13539058Y-31078519D01*
X13524773Y-31064233D01*
X13510487Y-31035661D01*
X13496201Y-30978519D01*
X13496201Y-30907090D01*
X13510487Y-30849947D01*
X13524773Y-30821376D01*
X13539058Y-30807090D01*
X13567630Y-30792804D01*
X13853344Y-30792804D02*
X13881916Y-30792804D01*
X13910487Y-30807090D01*
X13924773Y-30821376D01*
X13939058Y-30849947D01*
X13953344Y-30907090D01*
X13953344Y-30978519D01*
X13939058Y-31035661D01*
X13924773Y-31064233D01*
X13910487Y-31078519D01*
X13881916Y-31092804D01*
X13853344Y-31092804D01*
X13824773Y-31078519D01*
X13810487Y-31064233D01*
X13796201Y-31035661D01*
X13781916Y-30978519D01*
X13781916Y-30907090D01*
X13796201Y-30849947D01*
X13810487Y-30821376D01*
X13824773Y-30807090D01*
X13853344Y-30792804D01*
X14310487Y-31092804D02*
X14310487Y-30792804D01*
X14439058Y-31092804D02*
X14439058Y-30935661D01*
X14424773Y-30907090D01*
X14396201Y-30892804D01*
X14353344Y-30892804D01*
X14324773Y-30907090D01*
X14310487Y-30921376D01*
X14624773Y-31092804D02*
X14596201Y-31078519D01*
X14581916Y-31064233D01*
X14567630Y-31035661D01*
X14567630Y-30949947D01*
X14581916Y-30921376D01*
X14596201Y-30907090D01*
X14624773Y-30892804D01*
X14667630Y-30892804D01*
X14696201Y-30907090D01*
X14710487Y-30921376D01*
X14724773Y-30949947D01*
X14724773Y-31035661D01*
X14710487Y-31064233D01*
X14696201Y-31078519D01*
X14667630Y-31092804D01*
X14624773Y-31092804D01*
X14896201Y-31092804D02*
X14867630Y-31078519D01*
X14853344Y-31049947D01*
X14853344Y-30792804D01*
X15124773Y-31078519D02*
X15096201Y-31092804D01*
X15039058Y-31092804D01*
X15010487Y-31078519D01*
X14996201Y-31049947D01*
X14996201Y-30935661D01*
X15010487Y-30907090D01*
X15039058Y-30892804D01*
X15096201Y-30892804D01*
X15124773Y-30907090D01*
X15139058Y-30935661D01*
X15139058Y-30964233D01*
X14996201Y-30992804D01*
X15253344Y-31078519D02*
X15281916Y-31092804D01*
X15339058Y-31092804D01*
X15367630Y-31078519D01*
X15381916Y-31049947D01*
X15381916Y-31035661D01*
X15367630Y-31007090D01*
X15339058Y-30992804D01*
X15296201Y-30992804D01*
X15267630Y-30978519D01*
X15253344Y-30949947D01*
X15253344Y-30935661D01*
X15267630Y-30907090D01*
X15296201Y-30892804D01*
X15339058Y-30892804D01*
X15367630Y-30907090D01*
X15481916Y-31207090D02*
X15496201Y-31192804D01*
X15524773Y-31149947D01*
X15539058Y-31121376D01*
X15553344Y-31078519D01*
X15567630Y-31007090D01*
X15567630Y-30949947D01*
X15553344Y-30878519D01*
X15539058Y-30835661D01*
X15524773Y-30807090D01*
X15496201Y-30764233D01*
X15481916Y-30749947D01*
X16024773Y-31207090D02*
X16010487Y-31192804D01*
X15981916Y-31149947D01*
X15967630Y-31121376D01*
X15953344Y-31078519D01*
X15939058Y-31007090D01*
X15939058Y-30949947D01*
X15953344Y-30878519D01*
X15967630Y-30835661D01*
X15981916Y-30807090D01*
X16010487Y-30764233D01*
X16024773Y-30749947D01*
X16139058Y-30892804D02*
X16139058Y-31092804D01*
X16139058Y-30921376D02*
X16153344Y-30907090D01*
X16181916Y-30892804D01*
X16224773Y-30892804D01*
X16253344Y-30907090D01*
X16267630Y-30935661D01*
X16267630Y-31092804D01*
X16453344Y-31092804D02*
X16424773Y-31078519D01*
X16410487Y-31064233D01*
X16396201Y-31035661D01*
X16396201Y-30949947D01*
X16410487Y-30921376D01*
X16424773Y-30907090D01*
X16453344Y-30892804D01*
X16496201Y-30892804D01*
X16524773Y-30907090D01*
X16539058Y-30921376D01*
X16553344Y-30949947D01*
X16553344Y-31035661D01*
X16539058Y-31064233D01*
X16524773Y-31078519D01*
X16496201Y-31092804D01*
X16453344Y-31092804D01*
X16639058Y-30892804D02*
X16753344Y-30892804D01*
X16681916Y-30792804D02*
X16681916Y-31049947D01*
X16696201Y-31078519D01*
X16724773Y-31092804D01*
X16753344Y-31092804D01*
X17081916Y-30892804D02*
X17081916Y-31192804D01*
X17081916Y-30907090D02*
X17110487Y-30892804D01*
X17167630Y-30892804D01*
X17196201Y-30907090D01*
X17210487Y-30921376D01*
X17224773Y-30949947D01*
X17224773Y-31035661D01*
X17210487Y-31064233D01*
X17196201Y-31078519D01*
X17167630Y-31092804D01*
X17110487Y-31092804D01*
X17081916Y-31078519D01*
X17396201Y-31092804D02*
X17367630Y-31078519D01*
X17353344Y-31049947D01*
X17353344Y-30792804D01*
X17639058Y-31092804D02*
X17639058Y-30935661D01*
X17624773Y-30907090D01*
X17596201Y-30892804D01*
X17539058Y-30892804D01*
X17510487Y-30907090D01*
X17639058Y-31078519D02*
X17610487Y-31092804D01*
X17539058Y-31092804D01*
X17510487Y-31078519D01*
X17496201Y-31049947D01*
X17496201Y-31021376D01*
X17510487Y-30992804D01*
X17539058Y-30978519D01*
X17610487Y-30978519D01*
X17639058Y-30964233D01*
X17739058Y-30892804D02*
X17853344Y-30892804D01*
X17781916Y-30792804D02*
X17781916Y-31049947D01*
X17796201Y-31078519D01*
X17824773Y-31092804D01*
X17853344Y-31092804D01*
X18067630Y-31078519D02*
X18039058Y-31092804D01*
X17981916Y-31092804D01*
X17953344Y-31078519D01*
X17939058Y-31049947D01*
X17939058Y-30935661D01*
X17953344Y-30907090D01*
X17981916Y-30892804D01*
X18039058Y-30892804D01*
X18067630Y-30907090D01*
X18081916Y-30935661D01*
X18081916Y-30964233D01*
X17939058Y-30992804D01*
X18339058Y-31092804D02*
X18339058Y-30792804D01*
X18339058Y-31078519D02*
X18310487Y-31092804D01*
X18253344Y-31092804D01*
X18224773Y-31078519D01*
X18210487Y-31064233D01*
X18196201Y-31035661D01*
X18196201Y-30949947D01*
X18210487Y-30921376D01*
X18224773Y-30907090D01*
X18253344Y-30892804D01*
X18310487Y-30892804D01*
X18339058Y-30907090D01*
X18453344Y-31207090D02*
X18467630Y-31192804D01*
X18496201Y-31149947D01*
X18510487Y-31121376D01*
X18524773Y-31078519D01*
X18539058Y-31007090D01*
X18539058Y-30949947D01*
X18524773Y-30878519D01*
X18510487Y-30835661D01*
X18496201Y-30807090D01*
X18467630Y-30764233D01*
X18453344Y-30749947D01*
M02*
