%FSLAX45Y45*%
G04 Gerber Fmt 4.5, Leading zero omitted, Abs format (unit mm)*
G04 Created by KiCad (PCBNEW (5.1.10)-1) date 2021-12-20 12:43:56*
%MOMM*%
%LPD*%
G01*
G04 APERTURE LIST*
%TA.AperFunction,Profile*%
%ADD10C,0.100000*%
%TD*%
%ADD11C,0.200000*%
%ADD12C,0.300000*%
G04 APERTURE END LIST*
D10*
X31509890Y-15794630D02*
X45320270Y-15794630D01*
X8175110Y-15794630D02*
X30081230Y-15794630D01*
X7857630Y-28017610D02*
X7857630Y-16112110D01*
X17778880Y-28335090D02*
X8175110Y-28335090D01*
X45320270Y-28335090D02*
X29049420Y-28335090D01*
X45637750Y-16112110D02*
X45637750Y-28017610D01*
X7857630Y-16112110D02*
G75*
G02*
X8175110Y-15794630I317480J0D01*
G01*
X8175110Y-28335090D02*
G75*
G02*
X7857630Y-28017610I0J317480D01*
G01*
X45637750Y-28017610D02*
G75*
G02*
X45320270Y-28335090I-317480J0D01*
G01*
X45320270Y-15794630D02*
G75*
G02*
X45637750Y-16112110I0J-317480D01*
G01*
X27779500Y-28335090D02*
X19048800Y-28335090D01*
X28096980Y-28493830D02*
X27779500Y-28335090D01*
X28731940Y-28493830D02*
X29049420Y-28335090D01*
X28096980Y-28493830D02*
X28731940Y-28493830D01*
X18096360Y-28493830D02*
X17778880Y-28335090D01*
X18731320Y-28493830D02*
X19048800Y-28335090D01*
X18096360Y-28493830D02*
X18731320Y-28493830D01*
X30239970Y-15635890D02*
G75*
G02*
X30081230Y-15794630I-158740J0D01*
G01*
X31509890Y-15794630D02*
G75*
G02*
X31351150Y-15635890I0J158740D01*
G01*
X31351150Y-14921560D02*
X31351150Y-15635890D01*
X30239970Y-14921560D02*
X30239970Y-15635890D01*
X31351150Y-14921560D02*
X30239970Y-14921560D01*
D11*
X8075740Y-21013580D02*
X8115740Y-21053580D01*
X8115740Y-21013580D02*
X8075740Y-21053580D01*
X8075740Y-22918508D02*
X8115740Y-22958508D01*
X8115740Y-22918508D02*
X8075740Y-22958508D01*
X8075740Y-24823436D02*
X8115740Y-24863436D01*
X8115740Y-24823436D02*
X8075740Y-24863436D01*
X8075740Y-26727690D02*
X8115740Y-26767690D01*
X8115740Y-26727690D02*
X8075740Y-26767690D01*
X8472590Y-18393840D02*
X8512590Y-18433840D01*
X8512590Y-18393840D02*
X8472590Y-18433840D01*
X8551960Y-23632260D02*
X8591960Y-23672260D01*
X8591960Y-23632260D02*
X8551960Y-23672260D01*
X8561990Y-25964305D02*
X8601990Y-26004305D01*
X8601990Y-25964305D02*
X8561990Y-26004305D01*
X8591645Y-20106260D02*
X8631645Y-20146260D01*
X8631645Y-20106260D02*
X8591645Y-20146260D01*
X8591645Y-22011140D02*
X8631645Y-22051140D01*
X8631645Y-22011140D02*
X8591645Y-22051140D01*
X8591645Y-22124230D02*
X8631645Y-22164230D01*
X8631645Y-22124230D02*
X8591645Y-22164230D01*
X8591645Y-27725780D02*
X8631645Y-27765780D01*
X8631645Y-27725780D02*
X8591645Y-27765780D01*
X8591645Y-27869185D02*
X8631645Y-27909185D01*
X8631645Y-27869185D02*
X8591645Y-27909185D01*
X9137423Y-27848682D02*
X9177423Y-27888682D01*
X9177423Y-27848682D02*
X9137423Y-27888682D01*
X9147235Y-20100295D02*
X9187235Y-20140295D01*
X9187235Y-20100295D02*
X9147235Y-20140295D01*
X9147235Y-22163915D02*
X9187235Y-22203915D01*
X9187235Y-22163915D02*
X9147235Y-22203915D01*
X9147235Y-23929110D02*
X9187235Y-23969110D01*
X9187235Y-23929110D02*
X9147235Y-23969110D01*
X9147235Y-24029110D02*
X9187235Y-24069110D01*
X9187235Y-24029110D02*
X9147235Y-24069110D01*
X9147235Y-25833990D02*
X9187235Y-25873990D01*
X9187235Y-25833990D02*
X9147235Y-25873990D01*
X9147235Y-25933990D02*
X9187235Y-25973990D01*
X9187235Y-25933990D02*
X9147235Y-25973990D01*
X9176890Y-27690160D02*
X9216890Y-27730160D01*
X9216890Y-27690160D02*
X9176890Y-27730160D01*
X9208848Y-22022932D02*
X9248848Y-22062932D01*
X9248848Y-22022932D02*
X9208848Y-22062932D01*
X9236627Y-24142314D02*
X9276627Y-24182314D01*
X9276627Y-24142314D02*
X9236627Y-24182314D01*
X9248533Y-26043991D02*
X9288533Y-26083991D01*
X9288533Y-26043991D02*
X9248533Y-26083991D01*
X9663140Y-19981240D02*
X9703140Y-20021240D01*
X9703140Y-19981240D02*
X9663140Y-20021240D01*
X9663140Y-21886120D02*
X9703140Y-21926120D01*
X9703140Y-21886120D02*
X9663140Y-21926120D01*
X9663140Y-23791000D02*
X9703140Y-23831000D01*
X9703140Y-23791000D02*
X9663140Y-23831000D01*
X9663140Y-25695880D02*
X9703140Y-25735880D01*
X9703140Y-25695880D02*
X9663140Y-25735880D01*
X9663140Y-27600760D02*
X9703140Y-27640760D01*
X9703140Y-27600760D02*
X9663140Y-27640760D01*
X10298100Y-16330220D02*
X10338100Y-16370220D01*
X10338100Y-16330220D02*
X10298100Y-16370220D01*
X10298100Y-19187540D02*
X10338100Y-19227540D01*
X10338100Y-19187540D02*
X10298100Y-19227540D01*
X10456840Y-16250850D02*
X10496840Y-16290850D01*
X10496840Y-16250850D02*
X10456840Y-16290850D01*
X10536210Y-26807060D02*
X10576210Y-26847060D01*
X10576210Y-26807060D02*
X10536210Y-26847060D01*
X10694950Y-26727690D02*
X10734950Y-26767690D01*
X10734950Y-26727690D02*
X10694950Y-26767690D01*
X10774320Y-21092420D02*
X10814320Y-21132420D01*
X10814320Y-21092420D02*
X10774320Y-21132420D01*
X10933060Y-21013050D02*
X10973060Y-21053050D01*
X10973060Y-21013050D02*
X10933060Y-21053050D01*
X11012430Y-22997300D02*
X11052430Y-23037300D01*
X11052430Y-22997300D02*
X11012430Y-23037300D01*
X11171170Y-22917930D02*
X11211170Y-22957930D01*
X11211170Y-22917930D02*
X11171170Y-22957930D01*
X11210855Y-27838870D02*
X11250855Y-27878870D01*
X11250855Y-27838870D02*
X11210855Y-27878870D01*
X11488650Y-24902180D02*
X11528650Y-24942180D01*
X11528650Y-24902180D02*
X11488650Y-24942180D01*
X11528335Y-17262030D02*
X11568335Y-17302030D01*
X11568335Y-17262030D02*
X11528335Y-17302030D01*
X11528335Y-17362030D02*
X11568335Y-17402030D01*
X11568335Y-17362030D02*
X11528335Y-17402030D01*
X11528335Y-20119350D02*
X11568335Y-20159350D01*
X11568335Y-20119350D02*
X11528335Y-20159350D01*
X11528335Y-20219350D02*
X11568335Y-20259350D01*
X11568335Y-20219350D02*
X11528335Y-20259350D01*
X11626231Y-17472031D02*
X11666231Y-17512031D01*
X11666231Y-17472031D02*
X11626231Y-17512031D01*
X11647390Y-24822810D02*
X11687390Y-24862810D01*
X11687390Y-24822810D02*
X11647390Y-24862810D01*
X11687075Y-24029110D02*
X11727075Y-24069110D01*
X11727075Y-24029110D02*
X11687075Y-24069110D01*
X11763940Y-27836365D02*
X11803940Y-27876365D01*
X11803940Y-27836365D02*
X11763940Y-27876365D01*
X11839624Y-27968286D02*
X11879624Y-28008286D01*
X11879624Y-27968286D02*
X11839624Y-28008286D01*
X11885500Y-18711320D02*
X11925500Y-18751320D01*
X11925500Y-18711320D02*
X11885500Y-18751320D01*
X11885500Y-25775250D02*
X11925500Y-25815250D01*
X11925500Y-25775250D02*
X11885500Y-25815250D01*
X12044240Y-17123920D02*
X12084240Y-17163920D01*
X12084240Y-17123920D02*
X12044240Y-17163920D01*
X12044240Y-19981240D02*
X12084240Y-20021240D01*
X12084240Y-19981240D02*
X12044240Y-20021240D01*
X12068253Y-27948871D02*
X12108253Y-27988871D01*
X12108253Y-27948871D02*
X12068253Y-27988871D01*
X12163295Y-25933990D02*
X12203295Y-25973990D01*
X12203295Y-25933990D02*
X12163295Y-25973990D01*
X12202980Y-19187540D02*
X12242980Y-19227540D01*
X12242980Y-19187540D02*
X12202980Y-19227540D01*
X12242665Y-23929110D02*
X12282665Y-23969110D01*
X12282665Y-23929110D02*
X12242665Y-23969110D01*
X12242665Y-24029110D02*
X12282665Y-24069110D01*
X12282665Y-24029110D02*
X12242665Y-24069110D01*
X12282350Y-27600760D02*
X12322350Y-27640760D01*
X12322350Y-27600760D02*
X12282350Y-27640760D01*
X12328647Y-24145723D02*
X12368647Y-24185723D01*
X12368647Y-24145723D02*
X12328647Y-24185723D01*
X12361720Y-16330220D02*
X12401720Y-16370220D01*
X12401720Y-16330220D02*
X12361720Y-16370220D01*
X12520460Y-21886120D02*
X12560460Y-21926120D01*
X12560460Y-21886120D02*
X12520460Y-21926120D01*
X12718885Y-25833990D02*
X12758885Y-25873990D01*
X12758885Y-25833990D02*
X12718885Y-25873990D01*
X12718885Y-25933990D02*
X12758885Y-25973990D01*
X12758885Y-25933990D02*
X12718885Y-25973990D01*
X12758570Y-23791000D02*
X12798570Y-23831000D01*
X12798570Y-23791000D02*
X12758570Y-23831000D01*
X12805816Y-26049654D02*
X12845816Y-26089654D01*
X12845816Y-26049654D02*
X12805816Y-26089654D01*
X12917310Y-26807060D02*
X12957310Y-26847060D01*
X12957310Y-26807060D02*
X12917310Y-26847060D01*
X13076050Y-26727690D02*
X13116050Y-26767690D01*
X13116050Y-26727690D02*
X13076050Y-26767690D01*
X13155420Y-17917620D02*
X13195420Y-17957620D01*
X13195420Y-17917620D02*
X13155420Y-17957620D01*
X13155420Y-21092420D02*
X13195420Y-21132420D01*
X13195420Y-21092420D02*
X13155420Y-21132420D01*
X13234790Y-25695880D02*
X13274790Y-25735880D01*
X13274790Y-25695880D02*
X13234790Y-25735880D01*
X13314160Y-21013050D02*
X13354160Y-21053050D01*
X13354160Y-21013050D02*
X13314160Y-21053050D01*
X13631640Y-22997300D02*
X13671640Y-23037300D01*
X13671640Y-22997300D02*
X13631640Y-23037300D01*
X13790380Y-18711320D02*
X13830380Y-18751320D01*
X13830380Y-18711320D02*
X13790380Y-18751320D01*
X13790380Y-22917930D02*
X13830380Y-22957930D01*
X13830380Y-22917930D02*
X13790380Y-22957930D01*
X13949120Y-19981240D02*
X13989120Y-20021240D01*
X13989120Y-19981240D02*
X13949120Y-20021240D01*
X14107860Y-16330220D02*
X14147860Y-16370220D01*
X14147860Y-16330220D02*
X14107860Y-16370220D01*
X14107860Y-19187540D02*
X14147860Y-19227540D01*
X14147860Y-19187540D02*
X14107860Y-19227540D01*
X14266600Y-16250850D02*
X14306600Y-16290850D01*
X14306600Y-16250850D02*
X14266600Y-16290850D01*
X14306285Y-24029110D02*
X14346285Y-24069110D01*
X14346285Y-24029110D02*
X14306285Y-24069110D01*
X14425340Y-24743440D02*
X14465340Y-24783440D01*
X14465340Y-24743440D02*
X14425340Y-24783440D01*
X14584080Y-24664070D02*
X14624080Y-24704070D01*
X14624080Y-24664070D02*
X14584080Y-24704070D01*
X14660135Y-20299575D02*
X14700135Y-20339575D01*
X14700135Y-20299575D02*
X14660135Y-20339575D01*
X14663450Y-27600760D02*
X14703450Y-27640760D01*
X14703450Y-27600760D02*
X14663450Y-27640760D01*
X14782505Y-17362030D02*
X14822505Y-17402030D01*
X14822505Y-17362030D02*
X14782505Y-17402030D01*
X14782505Y-20219350D02*
X14822505Y-20259350D01*
X14822505Y-20219350D02*
X14782505Y-20259350D01*
X14861875Y-23929110D02*
X14901875Y-23969110D01*
X14901875Y-23929110D02*
X14861875Y-23969110D01*
X14861875Y-24029110D02*
X14901875Y-24069110D01*
X14901875Y-24029110D02*
X14861875Y-24069110D01*
X14901560Y-21886120D02*
X14941560Y-21926120D01*
X14941560Y-21886120D02*
X14901560Y-21926120D01*
X14980930Y-19108170D02*
X15020930Y-19148170D01*
X15020930Y-19108170D02*
X14980930Y-19148170D01*
X14983598Y-24139111D02*
X15023598Y-24179111D01*
X15023598Y-24139111D02*
X14983598Y-24179111D01*
X15060300Y-17917620D02*
X15100300Y-17957620D01*
X15100300Y-17917620D02*
X15060300Y-17957620D01*
X15060300Y-21092420D02*
X15100300Y-21132420D01*
X15100300Y-21092420D02*
X15060300Y-21132420D01*
X15219040Y-21013050D02*
X15259040Y-21053050D01*
X15259040Y-21013050D02*
X15219040Y-21053050D01*
X15258725Y-25933990D02*
X15298725Y-25973990D01*
X15298725Y-25933990D02*
X15258725Y-25973990D01*
X15298410Y-26807060D02*
X15338410Y-26847060D01*
X15338410Y-26807060D02*
X15298410Y-26847060D01*
X15337664Y-20125504D02*
X15377664Y-20165504D01*
X15377664Y-20125504D02*
X15337664Y-20165504D01*
X15338095Y-17262030D02*
X15378095Y-17302030D01*
X15378095Y-17262030D02*
X15338095Y-17302030D01*
X15338095Y-17362030D02*
X15378095Y-17402030D01*
X15378095Y-17362030D02*
X15338095Y-17402030D01*
X15338123Y-20225503D02*
X15378123Y-20265503D01*
X15378123Y-20225503D02*
X15338123Y-20265503D01*
X15377780Y-23791000D02*
X15417780Y-23831000D01*
X15417780Y-23791000D02*
X15377780Y-23831000D01*
X15427487Y-17475234D02*
X15467487Y-17515234D01*
X15467487Y-17475234D02*
X15427487Y-17515234D01*
X15457150Y-26727690D02*
X15497150Y-26767690D01*
X15497150Y-26727690D02*
X15457150Y-26767690D01*
X15536520Y-22997300D02*
X15576520Y-23037300D01*
X15576520Y-22997300D02*
X15536520Y-23037300D01*
X15601392Y-22208728D02*
X15641392Y-22248728D01*
X15641392Y-22208728D02*
X15601392Y-22248728D01*
X15695260Y-18711320D02*
X15735260Y-18751320D01*
X15735260Y-18711320D02*
X15695260Y-18751320D01*
X15695260Y-22917930D02*
X15735260Y-22957930D01*
X15735260Y-22917930D02*
X15695260Y-22957930D01*
X15734945Y-22124230D02*
X15774945Y-22164230D01*
X15774945Y-22124230D02*
X15734945Y-22164230D01*
X15814315Y-25833990D02*
X15854315Y-25873990D01*
X15854315Y-25833990D02*
X15814315Y-25873990D01*
X15814315Y-25933990D02*
X15854315Y-25973990D01*
X15854315Y-25933990D02*
X15814315Y-25973990D01*
X15854000Y-17123920D02*
X15894000Y-17163920D01*
X15894000Y-17123920D02*
X15854000Y-17163920D01*
X15854000Y-19981240D02*
X15894000Y-20021240D01*
X15894000Y-19981240D02*
X15854000Y-20021240D01*
X15903707Y-26047194D02*
X15943707Y-26087194D01*
X15943707Y-26047194D02*
X15903707Y-26087194D01*
X16012740Y-16330220D02*
X16052740Y-16370220D01*
X16052740Y-16330220D02*
X16012740Y-16370220D01*
X16012740Y-19266910D02*
X16052740Y-19306910D01*
X16052740Y-19266910D02*
X16012740Y-19306910D01*
X16171480Y-16250850D02*
X16211480Y-16290850D01*
X16211480Y-16250850D02*
X16171480Y-16290850D01*
X16211165Y-24029110D02*
X16251165Y-24069110D01*
X16251165Y-24029110D02*
X16211165Y-24069110D01*
X16290535Y-22024230D02*
X16330535Y-22064230D01*
X16330535Y-22024230D02*
X16290535Y-22064230D01*
X16290535Y-22124230D02*
X16330535Y-22164230D01*
X16330535Y-22124230D02*
X16290535Y-22164230D01*
X16330220Y-25695880D02*
X16370220Y-25735880D01*
X16370220Y-25695880D02*
X16330220Y-25735880D01*
X16488960Y-24902180D02*
X16528960Y-24942180D01*
X16528960Y-24902180D02*
X16488960Y-24942180D01*
X16647700Y-24822810D02*
X16687700Y-24862810D01*
X16687700Y-24822810D02*
X16647700Y-24862810D01*
X16687385Y-17362030D02*
X16727385Y-17402030D01*
X16727385Y-17362030D02*
X16687385Y-17402030D01*
X16687385Y-20259035D02*
X16727385Y-20299035D01*
X16727385Y-20259035D02*
X16687385Y-20299035D01*
X16766755Y-23929110D02*
X16806755Y-23969110D01*
X16806755Y-23929110D02*
X16766755Y-23969110D01*
X16766755Y-24029110D02*
X16806755Y-24069110D01*
X16806755Y-24029110D02*
X16766755Y-24069110D01*
X16806440Y-21886120D02*
X16846440Y-21926120D01*
X16846440Y-21886120D02*
X16806440Y-21926120D01*
X16868053Y-24139111D02*
X16908053Y-24179111D01*
X16908053Y-24139111D02*
X16868053Y-24179111D01*
X16885810Y-19108170D02*
X16925810Y-19148170D01*
X16925810Y-19108170D02*
X16885810Y-19148170D01*
X16965180Y-17917620D02*
X17005180Y-17957620D01*
X17005180Y-17917620D02*
X16965180Y-17957620D01*
X16965180Y-21092420D02*
X17005180Y-21132420D01*
X17005180Y-21092420D02*
X16965180Y-21132420D01*
X17044550Y-27600760D02*
X17084550Y-27640760D01*
X17084550Y-27600760D02*
X17044550Y-27640760D01*
X17123920Y-21013050D02*
X17163920Y-21053050D01*
X17163920Y-21013050D02*
X17123920Y-21053050D01*
X17163605Y-25933990D02*
X17203605Y-25973990D01*
X17203605Y-25933990D02*
X17163605Y-25973990D01*
X17242975Y-17262030D02*
X17282975Y-17302030D01*
X17282975Y-17262030D02*
X17242975Y-17302030D01*
X17242975Y-17362030D02*
X17282975Y-17402030D01*
X17282975Y-17362030D02*
X17242975Y-17402030D01*
X17242975Y-20119350D02*
X17282975Y-20159350D01*
X17282975Y-20119350D02*
X17242975Y-20159350D01*
X17242975Y-20219350D02*
X17282975Y-20259350D01*
X17282975Y-20219350D02*
X17242975Y-20259350D01*
X17282660Y-23791000D02*
X17322660Y-23831000D01*
X17322660Y-23791000D02*
X17282660Y-23831000D01*
X17328957Y-17478643D02*
X17368957Y-17518643D01*
X17368957Y-17478643D02*
X17328957Y-17518643D01*
X17340871Y-20329351D02*
X17380871Y-20369351D01*
X17380871Y-20329351D02*
X17340871Y-20369351D01*
X17441400Y-22997300D02*
X17481400Y-23037300D01*
X17481400Y-22997300D02*
X17441400Y-23037300D01*
X17600140Y-18711320D02*
X17640140Y-18751320D01*
X17640140Y-18711320D02*
X17600140Y-18751320D01*
X17600140Y-22917930D02*
X17640140Y-22957930D01*
X17640140Y-22917930D02*
X17600140Y-22957930D01*
X17639825Y-22163915D02*
X17679825Y-22203915D01*
X17679825Y-22163915D02*
X17639825Y-22203915D01*
X17719195Y-25833990D02*
X17759195Y-25873990D01*
X17759195Y-25833990D02*
X17719195Y-25873990D01*
X17719195Y-25933990D02*
X17759195Y-25973990D01*
X17759195Y-25933990D02*
X17719195Y-25973990D01*
X17758880Y-17123920D02*
X17798880Y-17163920D01*
X17798880Y-17123920D02*
X17758880Y-17163920D01*
X17758880Y-19981240D02*
X17798880Y-20021240D01*
X17798880Y-19981240D02*
X17758880Y-20021240D01*
X17805177Y-26050603D02*
X17845177Y-26090603D01*
X17845177Y-26050603D02*
X17805177Y-26090603D01*
X17917620Y-16330220D02*
X17957620Y-16370220D01*
X17957620Y-16330220D02*
X17917620Y-16370220D01*
X17917620Y-19187540D02*
X17957620Y-19227540D01*
X17957620Y-19187540D02*
X17917620Y-19227540D01*
X18076360Y-16250850D02*
X18116360Y-16290850D01*
X18116360Y-16250850D02*
X18076360Y-16290850D01*
X18076360Y-28235720D02*
X18116360Y-28275720D01*
X18116360Y-28235720D02*
X18076360Y-28275720D01*
X18116045Y-24029110D02*
X18156045Y-24069110D01*
X18156045Y-24029110D02*
X18116045Y-24069110D01*
X18195415Y-22024230D02*
X18235415Y-22064230D01*
X18235415Y-22024230D02*
X18195415Y-22064230D01*
X18195415Y-22124230D02*
X18235415Y-22164230D01*
X18235415Y-22124230D02*
X18195415Y-22164230D01*
X18235100Y-25695880D02*
X18275100Y-25735880D01*
X18275100Y-25695880D02*
X18235100Y-25735880D01*
X18281397Y-22240843D02*
X18321397Y-22280843D01*
X18321397Y-22240843D02*
X18281397Y-22280843D01*
X18393840Y-24902180D02*
X18433840Y-24942180D01*
X18433840Y-24902180D02*
X18393840Y-24942180D01*
X18393840Y-26965800D02*
X18433840Y-27005800D01*
X18433840Y-26965800D02*
X18393840Y-27005800D01*
X18552580Y-24822810D02*
X18592580Y-24862810D01*
X18592580Y-24822810D02*
X18552580Y-24862810D01*
X18592265Y-17362030D02*
X18632265Y-17402030D01*
X18632265Y-17362030D02*
X18592265Y-17402030D01*
X18592265Y-20219350D02*
X18632265Y-20259350D01*
X18632265Y-20219350D02*
X18592265Y-20259350D01*
X18671635Y-23929110D02*
X18711635Y-23969110D01*
X18711635Y-23929110D02*
X18671635Y-23969110D01*
X18671635Y-24029110D02*
X18711635Y-24069110D01*
X18711635Y-24029110D02*
X18671635Y-24069110D01*
X18711320Y-21886120D02*
X18751320Y-21926120D01*
X18751320Y-21886120D02*
X18711320Y-21926120D01*
X18711320Y-28235720D02*
X18751320Y-28275720D01*
X18751320Y-28235720D02*
X18711320Y-28275720D01*
X18776752Y-24139111D02*
X18816752Y-24179111D01*
X18816752Y-24139111D02*
X18776752Y-24179111D01*
X18790690Y-19108170D02*
X18830690Y-19148170D01*
X18830690Y-19108170D02*
X18790690Y-19148170D01*
X18870060Y-17917620D02*
X18910060Y-17957620D01*
X18910060Y-17917620D02*
X18870060Y-17957620D01*
X18870060Y-21092420D02*
X18910060Y-21132420D01*
X18910060Y-21092420D02*
X18870060Y-21132420D01*
X19028800Y-21013050D02*
X19068800Y-21053050D01*
X19068800Y-21013050D02*
X19028800Y-21053050D01*
X19091280Y-25933990D02*
X19131280Y-25973990D01*
X19131280Y-25933990D02*
X19091280Y-25973990D01*
X19147855Y-17262030D02*
X19187855Y-17302030D01*
X19187855Y-17262030D02*
X19147855Y-17302030D01*
X19147855Y-17362030D02*
X19187855Y-17402030D01*
X19187855Y-17362030D02*
X19147855Y-17402030D01*
X19147855Y-20119350D02*
X19187855Y-20159350D01*
X19187855Y-20119350D02*
X19147855Y-20159350D01*
X19147855Y-20219350D02*
X19187855Y-20259350D01*
X19187855Y-20219350D02*
X19147855Y-20259350D01*
X19187540Y-23791000D02*
X19227540Y-23831000D01*
X19227540Y-23791000D02*
X19187540Y-23831000D01*
X19237247Y-17475234D02*
X19277247Y-17515234D01*
X19277247Y-17475234D02*
X19237247Y-17515234D01*
X19245751Y-20329351D02*
X19285751Y-20369351D01*
X19285751Y-20329351D02*
X19245751Y-20369351D01*
X19346280Y-22997300D02*
X19386280Y-23037300D01*
X19386280Y-22997300D02*
X19346280Y-23037300D01*
X19505020Y-18711320D02*
X19545020Y-18751320D01*
X19545020Y-18711320D02*
X19505020Y-18751320D01*
X19505020Y-22917930D02*
X19545020Y-22957930D01*
X19545020Y-22917930D02*
X19505020Y-22957930D01*
X19544705Y-22124230D02*
X19584705Y-22164230D01*
X19584705Y-22124230D02*
X19544705Y-22164230D01*
X19624075Y-25933990D02*
X19664075Y-25973990D01*
X19664075Y-25933990D02*
X19624075Y-25973990D01*
X19663760Y-17123920D02*
X19703760Y-17163920D01*
X19703760Y-17123920D02*
X19663760Y-17163920D01*
X19663760Y-19981240D02*
X19703760Y-20021240D01*
X19703760Y-19981240D02*
X19663760Y-20021240D01*
X19822500Y-16330220D02*
X19862500Y-16370220D01*
X19862500Y-16330220D02*
X19822500Y-16370220D01*
X19822500Y-19187540D02*
X19862500Y-19227540D01*
X19862500Y-19187540D02*
X19822500Y-19227540D01*
X19981240Y-16250850D02*
X20021240Y-16290850D01*
X20021240Y-16250850D02*
X19981240Y-16290850D01*
X20020925Y-24029110D02*
X20060925Y-24069110D01*
X20060925Y-24029110D02*
X20020925Y-24069110D01*
X20100295Y-22024230D02*
X20140295Y-22064230D01*
X20140295Y-22024230D02*
X20100295Y-22064230D01*
X20100295Y-22124230D02*
X20140295Y-22164230D01*
X20140295Y-22124230D02*
X20100295Y-22164230D01*
X20139980Y-25695880D02*
X20179980Y-25735880D01*
X20179980Y-25695880D02*
X20139980Y-25735880D01*
X20186277Y-22240843D02*
X20226277Y-22280843D01*
X20226277Y-22240843D02*
X20186277Y-22280843D01*
X20298720Y-24902180D02*
X20338720Y-24942180D01*
X20338720Y-24902180D02*
X20298720Y-24942180D01*
X20457460Y-24822810D02*
X20497460Y-24862810D01*
X20497460Y-24822810D02*
X20457460Y-24862810D01*
X20497145Y-17362030D02*
X20537145Y-17402030D01*
X20537145Y-17362030D02*
X20497145Y-17402030D01*
X20497145Y-20219350D02*
X20537145Y-20259350D01*
X20537145Y-20219350D02*
X20497145Y-20259350D01*
X20576515Y-24029110D02*
X20616515Y-24069110D01*
X20616515Y-24029110D02*
X20576515Y-24069110D01*
X20616200Y-21886120D02*
X20656200Y-21926120D01*
X20656200Y-21886120D02*
X20616200Y-21926120D01*
X20695570Y-19108170D02*
X20735570Y-19148170D01*
X20735570Y-19108170D02*
X20695570Y-19148170D01*
X20774940Y-17917620D02*
X20814940Y-17957620D01*
X20814940Y-17917620D02*
X20774940Y-17957620D01*
X20774940Y-21092420D02*
X20814940Y-21132420D01*
X20814940Y-21092420D02*
X20774940Y-21132420D01*
X20811686Y-26046930D02*
X20851686Y-26086930D01*
X20851686Y-26046930D02*
X20811686Y-26086930D01*
X20885232Y-26120477D02*
X20925232Y-26160477D01*
X20925232Y-26120477D02*
X20885232Y-26160477D01*
X20894727Y-25775729D02*
X20934727Y-25815729D01*
X20934727Y-25775729D02*
X20894727Y-25815729D01*
X20933680Y-21013050D02*
X20973680Y-21053050D01*
X20973680Y-21013050D02*
X20933680Y-21053050D01*
X20973365Y-25933990D02*
X21013365Y-25973990D01*
X21013365Y-25933990D02*
X20973365Y-25973990D01*
X21052735Y-17262030D02*
X21092735Y-17302030D01*
X21092735Y-17262030D02*
X21052735Y-17302030D01*
X21052735Y-17362030D02*
X21092735Y-17402030D01*
X21092735Y-17362030D02*
X21052735Y-17402030D01*
X21052735Y-20119350D02*
X21092735Y-20159350D01*
X21092735Y-20119350D02*
X21052735Y-20159350D01*
X21052735Y-20219350D02*
X21092735Y-20259350D01*
X21092735Y-20219350D02*
X21052735Y-20259350D01*
X21092420Y-23791000D02*
X21132420Y-23831000D01*
X21132420Y-23791000D02*
X21092420Y-23831000D01*
X21138717Y-17478643D02*
X21178717Y-17518643D01*
X21178717Y-17478643D02*
X21138717Y-17518643D01*
X21142127Y-20332554D02*
X21182127Y-20372554D01*
X21182127Y-20332554D02*
X21142127Y-20372554D01*
X21251160Y-22997300D02*
X21291160Y-23037300D01*
X21291160Y-22997300D02*
X21251160Y-23037300D01*
X21409900Y-18711320D02*
X21449900Y-18751320D01*
X21449900Y-18711320D02*
X21409900Y-18751320D01*
X21409900Y-22917930D02*
X21449900Y-22957930D01*
X21449900Y-22917930D02*
X21409900Y-22957930D01*
X21449585Y-22124230D02*
X21489585Y-22164230D01*
X21489585Y-22124230D02*
X21449585Y-22164230D01*
X21527468Y-25843045D02*
X21567468Y-25883045D01*
X21567468Y-25843045D02*
X21527468Y-25883045D01*
X21528955Y-25983045D02*
X21568955Y-26023045D01*
X21568955Y-25983045D02*
X21528955Y-26023045D01*
X21568640Y-17123920D02*
X21608640Y-17163920D01*
X21608640Y-17123920D02*
X21568640Y-17163920D01*
X21568640Y-19981240D02*
X21608640Y-20021240D01*
X21608640Y-19981240D02*
X21568640Y-20021240D01*
X21626459Y-25857216D02*
X21666459Y-25897216D01*
X21666459Y-25857216D02*
X21626459Y-25897216D01*
X21687695Y-25943992D02*
X21727695Y-25983992D01*
X21727695Y-25943992D02*
X21687695Y-25983992D01*
X21727380Y-19187540D02*
X21767380Y-19227540D01*
X21767380Y-19187540D02*
X21727380Y-19227540D01*
X21768653Y-24146577D02*
X21808653Y-24186577D01*
X21808653Y-24146577D02*
X21768653Y-24186577D01*
X21839363Y-24217288D02*
X21879363Y-24257288D01*
X21879363Y-24217288D02*
X21839363Y-24257288D01*
X21885962Y-23863500D02*
X21925962Y-23903500D01*
X21925962Y-23863500D02*
X21885962Y-23903500D01*
X21925805Y-24029110D02*
X21965805Y-24069110D01*
X21965805Y-24029110D02*
X21925805Y-24069110D01*
X22005175Y-22024230D02*
X22045175Y-22064230D01*
X22045175Y-22024230D02*
X22005175Y-22064230D01*
X22005175Y-22124230D02*
X22045175Y-22164230D01*
X22045175Y-22124230D02*
X22005175Y-22164230D01*
X22044860Y-25695880D02*
X22084860Y-25735880D01*
X22084860Y-25695880D02*
X22044860Y-25735880D01*
X22091157Y-22240843D02*
X22131157Y-22280843D01*
X22131157Y-22240843D02*
X22091157Y-22280843D01*
X22203600Y-24902180D02*
X22243600Y-24942180D01*
X22243600Y-24902180D02*
X22203600Y-24942180D01*
X22362340Y-24822810D02*
X22402340Y-24862810D01*
X22402340Y-24822810D02*
X22362340Y-24862810D01*
X22402025Y-20219350D02*
X22442025Y-20259350D01*
X22442025Y-20219350D02*
X22402025Y-20259350D01*
X22441710Y-26807060D02*
X22481710Y-26847060D01*
X22481710Y-26807060D02*
X22441710Y-26847060D01*
X22480379Y-23938797D02*
X22520379Y-23978797D01*
X22520379Y-23938797D02*
X22480379Y-23978797D01*
X22481395Y-24078797D02*
X22521395Y-24118797D01*
X22521395Y-24078797D02*
X22481395Y-24118797D01*
X22521080Y-21886120D02*
X22561080Y-21926120D01*
X22561080Y-21886120D02*
X22521080Y-21926120D01*
X22579466Y-23952286D02*
X22619466Y-23992286D01*
X22619466Y-23952286D02*
X22579466Y-23992286D01*
X22600450Y-19108170D02*
X22640450Y-19148170D01*
X22640450Y-19108170D02*
X22600450Y-19148170D01*
X22600450Y-26727690D02*
X22640450Y-26767690D01*
X22640450Y-26727690D02*
X22600450Y-26767690D01*
X22640135Y-24038796D02*
X22680135Y-24078796D01*
X22680135Y-24038796D02*
X22640135Y-24078796D01*
X22679820Y-16330220D02*
X22719820Y-16370220D01*
X22719820Y-16330220D02*
X22679820Y-16370220D01*
X22679820Y-17917620D02*
X22719820Y-17957620D01*
X22719820Y-17917620D02*
X22679820Y-17957620D01*
X22679820Y-21092420D02*
X22719820Y-21132420D01*
X22719820Y-21092420D02*
X22679820Y-21132420D01*
X22719505Y-26123993D02*
X22759505Y-26163993D01*
X22759505Y-26123993D02*
X22719505Y-26163993D01*
X22838560Y-16250850D02*
X22878560Y-16290850D01*
X22878560Y-16250850D02*
X22838560Y-16290850D01*
X22838560Y-21013050D02*
X22878560Y-21053050D01*
X22878560Y-21013050D02*
X22838560Y-21053050D01*
X22878245Y-25933990D02*
X22918245Y-25973990D01*
X22918245Y-25933990D02*
X22878245Y-25973990D01*
X22957615Y-20119350D02*
X22997615Y-20159350D01*
X22997615Y-20119350D02*
X22957615Y-20159350D01*
X22957615Y-20219350D02*
X22997615Y-20259350D01*
X22997615Y-20219350D02*
X22957615Y-20259350D01*
X22997300Y-23791000D02*
X23037300Y-23831000D01*
X23037300Y-23791000D02*
X22997300Y-23831000D01*
X23036552Y-20343008D02*
X23076552Y-20383008D01*
X23076552Y-20343008D02*
X23036552Y-20383008D01*
X23116355Y-27838870D02*
X23156355Y-27878870D01*
X23156355Y-27838870D02*
X23116355Y-27878870D01*
X23156040Y-22997300D02*
X23196040Y-23037300D01*
X23196040Y-22997300D02*
X23156040Y-23037300D01*
X23314780Y-18711320D02*
X23354780Y-18751320D01*
X23354780Y-18711320D02*
X23314780Y-18751320D01*
X23314780Y-22917930D02*
X23354780Y-22957930D01*
X23354780Y-22917930D02*
X23314780Y-22957930D01*
X23354465Y-17362030D02*
X23394465Y-17402030D01*
X23394465Y-17362030D02*
X23354465Y-17402030D01*
X23354465Y-22124230D02*
X23394465Y-22164230D01*
X23394465Y-22124230D02*
X23354465Y-22164230D01*
X23433835Y-25850901D02*
X23473835Y-25890901D01*
X23473835Y-25850901D02*
X23433835Y-25890901D01*
X23433835Y-25990901D02*
X23473835Y-26030901D01*
X23473835Y-25990901D02*
X23433835Y-26030901D01*
X23473520Y-19981240D02*
X23513520Y-20021240D01*
X23513520Y-19981240D02*
X23473520Y-20021240D01*
X23536167Y-25890637D02*
X23576167Y-25930637D01*
X23576167Y-25890637D02*
X23536167Y-25930637D01*
X23632260Y-19187540D02*
X23672260Y-19227540D01*
X23672260Y-19187540D02*
X23632260Y-19227540D01*
X23671945Y-27838870D02*
X23711945Y-27878870D01*
X23711945Y-27838870D02*
X23671945Y-27878870D01*
X23692660Y-24219113D02*
X23732660Y-24259113D01*
X23732660Y-24219113D02*
X23692660Y-24259113D01*
X23756475Y-27978655D02*
X23796475Y-28018655D01*
X23796475Y-27978655D02*
X23756475Y-28018655D01*
X23821315Y-27846013D02*
X23861315Y-27886013D01*
X23861315Y-27846013D02*
X23821315Y-27886013D01*
X23830685Y-24029110D02*
X23870685Y-24069110D01*
X23870685Y-24029110D02*
X23830685Y-24069110D01*
X23910055Y-17362030D02*
X23950055Y-17402030D01*
X23950055Y-17362030D02*
X23910055Y-17402030D01*
X23910055Y-22024230D02*
X23950055Y-22064230D01*
X23950055Y-22024230D02*
X23910055Y-22064230D01*
X23910055Y-22124230D02*
X23950055Y-22164230D01*
X23950055Y-22124230D02*
X23910055Y-22164230D01*
X23949740Y-25695880D02*
X23989740Y-25735880D01*
X23989740Y-25695880D02*
X23949740Y-25735880D01*
X24011353Y-22234231D02*
X24051353Y-22274231D01*
X24051353Y-22234231D02*
X24011353Y-22274231D01*
X24108480Y-24902180D02*
X24148480Y-24942180D01*
X24148480Y-24902180D02*
X24108480Y-24942180D01*
X24187850Y-27600760D02*
X24227850Y-27640760D01*
X24227850Y-27600760D02*
X24187850Y-27640760D01*
X24267220Y-24822810D02*
X24307220Y-24862810D01*
X24307220Y-24822810D02*
X24267220Y-24862810D01*
X24306905Y-20219350D02*
X24346905Y-20259350D01*
X24346905Y-20219350D02*
X24306905Y-20259350D01*
X24386275Y-23946021D02*
X24426275Y-23986021D01*
X24426275Y-23946021D02*
X24386275Y-23986021D01*
X24386275Y-24086021D02*
X24426275Y-24126021D01*
X24426275Y-24086021D02*
X24386275Y-24126021D01*
X24425960Y-17123920D02*
X24465960Y-17163920D01*
X24465960Y-17123920D02*
X24425960Y-17163920D01*
X24425960Y-21886120D02*
X24465960Y-21926120D01*
X24465960Y-21886120D02*
X24425960Y-21926120D01*
X24505330Y-19108170D02*
X24545330Y-19148170D01*
X24545330Y-19108170D02*
X24505330Y-19148170D01*
X24511721Y-23999111D02*
X24551721Y-24039111D01*
X24551721Y-23999111D02*
X24511721Y-24039111D01*
X24584700Y-16330220D02*
X24624700Y-16370220D01*
X24624700Y-16330220D02*
X24584700Y-16370220D01*
X24584700Y-17917620D02*
X24624700Y-17957620D01*
X24624700Y-17917620D02*
X24584700Y-17957620D01*
X24584700Y-21092420D02*
X24624700Y-21132420D01*
X24624700Y-21092420D02*
X24584700Y-21132420D01*
X24664070Y-26130901D02*
X24704070Y-26170901D01*
X24704070Y-26130901D02*
X24664070Y-26170901D01*
X24743440Y-16250850D02*
X24783440Y-16290850D01*
X24783440Y-16250850D02*
X24743440Y-16290850D01*
X24743440Y-21013050D02*
X24783440Y-21053050D01*
X24783440Y-21013050D02*
X24743440Y-21053050D01*
X24783125Y-25933990D02*
X24823125Y-25973990D01*
X24823125Y-25933990D02*
X24783125Y-25973990D01*
X24862495Y-20119350D02*
X24902495Y-20159350D01*
X24902495Y-20119350D02*
X24862495Y-20159350D01*
X24862495Y-20219350D02*
X24902495Y-20259350D01*
X24902495Y-20219350D02*
X24862495Y-20259350D01*
X24902180Y-23791000D02*
X24942180Y-23831000D01*
X24942180Y-23791000D02*
X24902180Y-23831000D01*
X24956204Y-20343691D02*
X24996204Y-20383691D01*
X24996204Y-20343691D02*
X24956204Y-20383691D01*
X25060920Y-22997300D02*
X25100920Y-23037300D01*
X25100920Y-22997300D02*
X25060920Y-23037300D01*
X25124035Y-17485885D02*
X25164035Y-17525885D01*
X25164035Y-17485885D02*
X25124035Y-17525885D01*
X25194746Y-17556596D02*
X25234746Y-17596596D01*
X25234746Y-17556596D02*
X25194746Y-17596596D01*
X25219660Y-18711320D02*
X25259660Y-18751320D01*
X25259660Y-18711320D02*
X25219660Y-18751320D01*
X25219660Y-22917930D02*
X25259660Y-22957930D01*
X25259660Y-22917930D02*
X25219660Y-22957930D01*
X25259345Y-17362030D02*
X25299345Y-17402030D01*
X25299345Y-17362030D02*
X25259345Y-17402030D01*
X25259345Y-22124230D02*
X25299345Y-22164230D01*
X25299345Y-22124230D02*
X25259345Y-22164230D01*
X25288027Y-17188940D02*
X25328027Y-17228940D01*
X25328027Y-17188940D02*
X25288027Y-17228940D01*
X25338715Y-25850901D02*
X25378715Y-25890901D01*
X25378715Y-25850901D02*
X25338715Y-25890901D01*
X25338715Y-25990901D02*
X25378715Y-26030901D01*
X25378715Y-25990901D02*
X25338715Y-26030901D01*
X25378400Y-19981240D02*
X25418400Y-20021240D01*
X25418400Y-19981240D02*
X25378400Y-20021240D01*
X25437871Y-25887462D02*
X25477871Y-25927462D01*
X25477871Y-25887462D02*
X25437871Y-25927462D01*
X25537140Y-19187540D02*
X25577140Y-19227540D01*
X25577140Y-19187540D02*
X25537140Y-19227540D01*
X25616510Y-24226021D02*
X25656510Y-24266021D01*
X25656510Y-24226021D02*
X25616510Y-24266021D01*
X25735565Y-24029110D02*
X25775565Y-24069110D01*
X25775565Y-24029110D02*
X25735565Y-24069110D01*
X25808978Y-17261715D02*
X25848978Y-17301715D01*
X25848978Y-17261715D02*
X25808978Y-17301715D01*
X25814935Y-17401715D02*
X25854935Y-17441715D01*
X25854935Y-17401715D02*
X25814935Y-17441715D01*
X25814935Y-22024230D02*
X25854935Y-22064230D01*
X25854935Y-22024230D02*
X25814935Y-22064230D01*
X25814935Y-22124230D02*
X25854935Y-22164230D01*
X25854935Y-22124230D02*
X25814935Y-22164230D01*
X25854620Y-25695880D02*
X25894620Y-25735880D01*
X25894620Y-25695880D02*
X25854620Y-25735880D01*
X25900917Y-22240843D02*
X25940917Y-22280843D01*
X25940917Y-22240843D02*
X25900917Y-22280843D01*
X25911024Y-17293774D02*
X25951024Y-17333774D01*
X25951024Y-17293774D02*
X25911024Y-17333774D01*
X25973675Y-17371716D02*
X26013675Y-17411716D01*
X26013675Y-17371716D02*
X25973675Y-17411716D01*
X26013360Y-24902180D02*
X26053360Y-24942180D01*
X26053360Y-24902180D02*
X26013360Y-24942180D01*
X26172100Y-24822810D02*
X26212100Y-24862810D01*
X26212100Y-24822810D02*
X26172100Y-24862810D01*
X26211785Y-20219350D02*
X26251785Y-20259350D01*
X26251785Y-20219350D02*
X26211785Y-20259350D01*
X26291155Y-23946021D02*
X26331155Y-23986021D01*
X26331155Y-23946021D02*
X26291155Y-23986021D01*
X26291155Y-24086021D02*
X26331155Y-24126021D01*
X26331155Y-24086021D02*
X26291155Y-24126021D01*
X26330840Y-17123920D02*
X26370840Y-17163920D01*
X26370840Y-17123920D02*
X26330840Y-17163920D01*
X26330840Y-21886120D02*
X26370840Y-21926120D01*
X26370840Y-21886120D02*
X26330840Y-21926120D01*
X26390311Y-23982582D02*
X26430311Y-24022582D01*
X26430311Y-23982582D02*
X26390311Y-24022582D01*
X26410210Y-19108170D02*
X26450210Y-19148170D01*
X26450210Y-19108170D02*
X26410210Y-19148170D01*
X26489580Y-16330220D02*
X26529580Y-16370220D01*
X26529580Y-16330220D02*
X26489580Y-16370220D01*
X26489580Y-17917620D02*
X26529580Y-17957620D01*
X26529580Y-17917620D02*
X26489580Y-17957620D01*
X26489580Y-21092420D02*
X26529580Y-21132420D01*
X26529580Y-21092420D02*
X26489580Y-21132420D01*
X26497083Y-26250904D02*
X26537083Y-26290904D01*
X26537083Y-26250904D02*
X26497083Y-26290904D01*
X26648320Y-16250850D02*
X26688320Y-16290850D01*
X26688320Y-16250850D02*
X26648320Y-16290850D01*
X26648320Y-21013050D02*
X26688320Y-21053050D01*
X26688320Y-21013050D02*
X26648320Y-21053050D01*
X26688005Y-25933990D02*
X26728005Y-25973990D01*
X26728005Y-25933990D02*
X26688005Y-25973990D01*
X26767375Y-20219350D02*
X26807375Y-20259350D01*
X26807375Y-20219350D02*
X26767375Y-20259350D01*
X26807060Y-23791000D02*
X26847060Y-23831000D01*
X26847060Y-23791000D02*
X26807060Y-23831000D01*
X26965800Y-22997300D02*
X27005800Y-23037300D01*
X27005800Y-22997300D02*
X26965800Y-23037300D01*
X27026387Y-17555382D02*
X27066387Y-17595382D01*
X27066387Y-17555382D02*
X27026387Y-17595382D01*
X27124540Y-18711320D02*
X27164540Y-18751320D01*
X27164540Y-18711320D02*
X27124540Y-18751320D01*
X27124540Y-22917930D02*
X27164540Y-22957930D01*
X27164540Y-22917930D02*
X27124540Y-22957930D01*
X27164225Y-17362030D02*
X27204225Y-17402030D01*
X27204225Y-17362030D02*
X27164225Y-17402030D01*
X27164225Y-22124230D02*
X27204225Y-22164230D01*
X27204225Y-22124230D02*
X27164225Y-22164230D01*
X27243595Y-25850901D02*
X27283595Y-25890901D01*
X27283595Y-25850901D02*
X27243595Y-25890901D01*
X27243595Y-25990901D02*
X27283595Y-26030901D01*
X27283595Y-25990901D02*
X27243595Y-26030901D01*
X27283280Y-19981240D02*
X27323280Y-20021240D01*
X27323280Y-19981240D02*
X27283280Y-20021240D01*
X27342751Y-25887462D02*
X27382751Y-25927462D01*
X27382751Y-25887462D02*
X27342751Y-25927462D01*
X27436316Y-24346024D02*
X27476316Y-24386024D01*
X27476316Y-24346024D02*
X27436316Y-24386024D01*
X27442020Y-19187540D02*
X27482020Y-19227540D01*
X27482020Y-19187540D02*
X27442020Y-19227540D01*
X27640445Y-24029110D02*
X27680445Y-24069110D01*
X27680445Y-24029110D02*
X27640445Y-24069110D01*
X27719815Y-17401715D02*
X27759815Y-17441715D01*
X27759815Y-17401715D02*
X27719815Y-17441715D01*
X27719815Y-22124230D02*
X27759815Y-22164230D01*
X27759815Y-22124230D02*
X27719815Y-22164230D01*
X27723193Y-17261715D02*
X27763193Y-17301715D01*
X27763193Y-17261715D02*
X27723193Y-17301715D01*
X27759500Y-25695880D02*
X27799500Y-25735880D01*
X27799500Y-25695880D02*
X27759500Y-25735880D01*
X27823069Y-17302374D02*
X27863069Y-17342374D01*
X27863069Y-17302374D02*
X27823069Y-17342374D01*
X27918240Y-24902180D02*
X27958240Y-24942180D01*
X27958240Y-24902180D02*
X27918240Y-24942180D01*
X27979355Y-20329351D02*
X28019355Y-20369351D01*
X28019355Y-20329351D02*
X27979355Y-20369351D01*
X27997610Y-26965800D02*
X28037610Y-27005800D01*
X28037610Y-26965800D02*
X27997610Y-27005800D01*
X28058725Y-20396345D02*
X28098725Y-20436345D01*
X28098725Y-20396345D02*
X28058725Y-20436345D01*
X28076980Y-24822810D02*
X28116980Y-24862810D01*
X28116980Y-24822810D02*
X28076980Y-24862810D01*
X28076980Y-28235720D02*
X28116980Y-28275720D01*
X28116980Y-28235720D02*
X28076980Y-28275720D01*
X28126477Y-20209538D02*
X28166477Y-20249538D01*
X28166477Y-20209538D02*
X28126477Y-20249538D01*
X28145347Y-20046260D02*
X28185347Y-20086260D01*
X28185347Y-20046260D02*
X28145347Y-20086260D01*
X28196035Y-23946021D02*
X28236035Y-23986021D01*
X28236035Y-23946021D02*
X28196035Y-23986021D01*
X28196035Y-24086021D02*
X28236035Y-24126021D01*
X28236035Y-24086021D02*
X28196035Y-24126021D01*
X28235720Y-17123920D02*
X28275720Y-17163920D01*
X28275720Y-17123920D02*
X28235720Y-17163920D01*
X28235720Y-21886120D02*
X28275720Y-21926120D01*
X28275720Y-21886120D02*
X28235720Y-21926120D01*
X28298367Y-23985757D02*
X28338367Y-24025757D01*
X28338367Y-23985757D02*
X28298367Y-24025757D01*
X28315090Y-19108170D02*
X28355090Y-19148170D01*
X28355090Y-19108170D02*
X28315090Y-19148170D01*
X28394460Y-16330220D02*
X28434460Y-16370220D01*
X28434460Y-16330220D02*
X28394460Y-16370220D01*
X28394460Y-21092420D02*
X28434460Y-21132420D01*
X28434460Y-21092420D02*
X28394460Y-21132420D01*
X28429965Y-26255084D02*
X28469965Y-26295084D01*
X28469965Y-26255084D02*
X28429965Y-26295084D01*
X28553200Y-16250850D02*
X28593200Y-16290850D01*
X28593200Y-16250850D02*
X28553200Y-16290850D01*
X28553200Y-21013050D02*
X28593200Y-21053050D01*
X28593200Y-21013050D02*
X28553200Y-21053050D01*
X28592885Y-25933990D02*
X28632885Y-25973990D01*
X28632885Y-25933990D02*
X28592885Y-25973990D01*
X28672255Y-20119035D02*
X28712255Y-20159035D01*
X28712255Y-20119035D02*
X28672255Y-20159035D01*
X28672255Y-20259035D02*
X28712255Y-20299035D01*
X28712255Y-20259035D02*
X28672255Y-20299035D01*
X28711940Y-23791000D02*
X28751940Y-23831000D01*
X28751940Y-23791000D02*
X28711940Y-23831000D01*
X28711940Y-28235720D02*
X28751940Y-28275720D01*
X28751940Y-28235720D02*
X28711940Y-28275720D01*
X28773638Y-20157823D02*
X28813638Y-20197823D01*
X28813638Y-20157823D02*
X28773638Y-20197823D01*
X28870680Y-20229036D02*
X28910680Y-20269036D01*
X28910680Y-20229036D02*
X28870680Y-20269036D01*
X28870680Y-22997300D02*
X28910680Y-23037300D01*
X28910680Y-22997300D02*
X28870680Y-23037300D01*
X28907425Y-22237171D02*
X28947425Y-22277171D01*
X28947425Y-22237171D02*
X28907425Y-22277171D01*
X28942438Y-17566553D02*
X28982438Y-17606553D01*
X28982438Y-17566553D02*
X28942438Y-17606553D01*
X28980972Y-22310717D02*
X29020972Y-22350717D01*
X29020972Y-22310717D02*
X28980972Y-22350717D01*
X29028301Y-21963900D02*
X29068301Y-22003900D01*
X29068301Y-21963900D02*
X29028301Y-22003900D01*
X29029420Y-22917930D02*
X29069420Y-22957930D01*
X29069420Y-22917930D02*
X29029420Y-22957930D01*
X29069105Y-17362030D02*
X29109105Y-17402030D01*
X29109105Y-17362030D02*
X29069105Y-17402030D01*
X29069105Y-22124230D02*
X29109105Y-22164230D01*
X29109105Y-22124230D02*
X29069105Y-22164230D01*
X29148475Y-25850901D02*
X29188475Y-25890901D01*
X29188475Y-25850901D02*
X29148475Y-25890901D01*
X29148475Y-25990901D02*
X29188475Y-26030901D01*
X29188475Y-25990901D02*
X29148475Y-26030901D01*
X29188160Y-19981240D02*
X29228160Y-20021240D01*
X29228160Y-19981240D02*
X29188160Y-20021240D01*
X29250807Y-25890638D02*
X29290807Y-25930638D01*
X29290807Y-25890638D02*
X29250807Y-25930638D01*
X29346900Y-19187540D02*
X29386900Y-19227540D01*
X29386900Y-19187540D02*
X29346900Y-19227540D01*
X29381690Y-24350919D02*
X29421690Y-24390919D01*
X29421690Y-24350919D02*
X29381690Y-24390919D01*
X29545325Y-24029110D02*
X29585325Y-24069110D01*
X29585325Y-24029110D02*
X29545325Y-24069110D01*
X29585010Y-26807060D02*
X29625010Y-26847060D01*
X29625010Y-26807060D02*
X29585010Y-26847060D01*
X29624695Y-17261715D02*
X29664695Y-17301715D01*
X29664695Y-17261715D02*
X29624695Y-17301715D01*
X29624695Y-17401715D02*
X29664695Y-17441715D01*
X29664695Y-17401715D02*
X29624695Y-17441715D01*
X29624695Y-22023915D02*
X29664695Y-22063915D01*
X29664695Y-22023915D02*
X29624695Y-22063915D01*
X29624695Y-22163915D02*
X29664695Y-22203915D01*
X29664695Y-22163915D02*
X29624695Y-22203915D01*
X29664380Y-25695880D02*
X29704380Y-25735880D01*
X29704380Y-25695880D02*
X29664380Y-25735880D01*
X29721385Y-22049431D02*
X29761385Y-22089431D01*
X29761385Y-22049431D02*
X29721385Y-22089431D01*
X29726302Y-17300727D02*
X29766302Y-17340727D01*
X29766302Y-17300727D02*
X29726302Y-17340727D01*
X29785232Y-22126396D02*
X29825232Y-22166396D01*
X29825232Y-22126396D02*
X29785232Y-22166396D01*
X29823120Y-24902180D02*
X29863120Y-24942180D01*
X29863120Y-24902180D02*
X29823120Y-24942180D01*
X29823120Y-26727690D02*
X29863120Y-26767690D01*
X29863120Y-26727690D02*
X29823120Y-26767690D01*
X29875793Y-20409037D02*
X29915793Y-20449037D01*
X29915793Y-20409037D02*
X29875793Y-20449037D01*
X29931347Y-17671720D02*
X29971347Y-17711720D01*
X29971347Y-17671720D02*
X29931347Y-17711720D01*
X29936000Y-17291082D02*
X29976000Y-17331082D01*
X29976000Y-17291082D02*
X29936000Y-17331082D01*
X29981860Y-24822810D02*
X30021860Y-24862810D01*
X30021860Y-24822810D02*
X29981860Y-24862810D01*
X30021545Y-20219350D02*
X30061545Y-20259350D01*
X30061545Y-20219350D02*
X30021545Y-20259350D01*
X30030933Y-17631719D02*
X30070933Y-17671719D01*
X30070933Y-17631719D02*
X30030933Y-17671719D01*
X30034658Y-17331083D02*
X30074658Y-17371083D01*
X30074658Y-17331083D02*
X30034658Y-17371083D01*
X30100915Y-23946021D02*
X30140915Y-23986021D01*
X30140915Y-23946021D02*
X30100915Y-23986021D01*
X30100915Y-24086021D02*
X30140915Y-24126021D01*
X30140915Y-24086021D02*
X30100915Y-24126021D01*
X30130195Y-17371084D02*
X30170195Y-17411084D01*
X30170195Y-17371084D02*
X30130195Y-17411084D01*
X30130195Y-17591718D02*
X30170195Y-17631718D01*
X30170195Y-17591718D02*
X30130195Y-17631718D01*
X30133745Y-28044150D02*
X30173745Y-28084150D01*
X30173745Y-28044150D02*
X30133745Y-28084150D01*
X30140600Y-15933370D02*
X30180600Y-15973370D01*
X30180600Y-15933370D02*
X30140600Y-15973370D01*
X30140600Y-17123920D02*
X30180600Y-17163920D01*
X30180600Y-17123920D02*
X30140600Y-17163920D01*
X30140600Y-21886120D02*
X30180600Y-21926120D01*
X30180600Y-21886120D02*
X30140600Y-21926120D01*
X30211363Y-23976648D02*
X30251363Y-24016648D01*
X30251363Y-23976648D02*
X30211363Y-24016648D01*
X30219970Y-16171480D02*
X30259970Y-16211480D01*
X30259970Y-16171480D02*
X30219970Y-16211480D01*
X30219970Y-19108170D02*
X30259970Y-19148170D01*
X30259970Y-19108170D02*
X30219970Y-19148170D01*
X30228629Y-17410374D02*
X30268629Y-17450374D01*
X30268629Y-17410374D02*
X30228629Y-17450374D01*
X30228629Y-17551796D02*
X30268629Y-17591796D01*
X30268629Y-17551796D02*
X30228629Y-17591796D01*
X30259655Y-27838870D02*
X30299655Y-27878870D01*
X30299655Y-27838870D02*
X30259655Y-27878870D01*
X30299340Y-17084235D02*
X30339340Y-17124235D01*
X30339340Y-17084235D02*
X30299340Y-17124235D01*
X30299340Y-17481085D02*
X30339340Y-17521085D01*
X30339340Y-17481085D02*
X30299340Y-17521085D01*
X30299340Y-21092420D02*
X30339340Y-21132420D01*
X30339340Y-21092420D02*
X30299340Y-21132420D01*
X30303885Y-26250904D02*
X30343885Y-26290904D01*
X30343885Y-26250904D02*
X30303885Y-26290904D01*
X30378710Y-17996990D02*
X30418710Y-18036990D01*
X30418710Y-17996990D02*
X30378710Y-18036990D01*
X30458080Y-21013050D02*
X30498080Y-21053050D01*
X30498080Y-21013050D02*
X30458080Y-21053050D01*
X30497765Y-25933990D02*
X30537765Y-25973990D01*
X30537765Y-25933990D02*
X30497765Y-25973990D01*
X30571178Y-20119035D02*
X30611178Y-20159035D01*
X30611178Y-20119035D02*
X30571178Y-20159035D01*
X30577135Y-20259035D02*
X30617135Y-20299035D01*
X30617135Y-20259035D02*
X30577135Y-20299035D01*
X30616820Y-15854000D02*
X30656820Y-15894000D01*
X30656820Y-15854000D02*
X30616820Y-15894000D01*
X30616820Y-17004865D02*
X30656820Y-17044865D01*
X30656820Y-17004865D02*
X30616820Y-17044865D01*
X30616820Y-17758880D02*
X30656820Y-17798880D01*
X30656820Y-17758880D02*
X30616820Y-17798880D01*
X30616820Y-23791000D02*
X30656820Y-23831000D01*
X30656820Y-23791000D02*
X30616820Y-23831000D01*
X30698275Y-20177580D02*
X30738275Y-20217580D01*
X30738275Y-20177580D02*
X30698275Y-20217580D01*
X30775560Y-22997300D02*
X30815560Y-23037300D01*
X30815560Y-22997300D02*
X30775560Y-23037300D01*
X30815245Y-27738870D02*
X30855245Y-27778870D01*
X30855245Y-27738870D02*
X30815245Y-27778870D01*
X30815245Y-27838870D02*
X30855245Y-27878870D01*
X30855245Y-27838870D02*
X30815245Y-27878870D01*
X30854930Y-17996990D02*
X30894930Y-18036990D01*
X30894930Y-17996990D02*
X30854930Y-18036990D01*
X30862318Y-22235897D02*
X30902318Y-22275897D01*
X30902318Y-22235897D02*
X30862318Y-22275897D01*
X30901227Y-27955483D02*
X30941227Y-27995483D01*
X30941227Y-27955483D02*
X30901227Y-27995483D01*
X30934300Y-16330220D02*
X30974300Y-16370220D01*
X30974300Y-16330220D02*
X30934300Y-16370220D01*
X30934300Y-17004865D02*
X30974300Y-17044865D01*
X30974300Y-17004865D02*
X30934300Y-17044865D01*
X30934300Y-17758880D02*
X30974300Y-17798880D01*
X30974300Y-17758880D02*
X30934300Y-17798880D01*
X30934300Y-22917930D02*
X30974300Y-22957930D01*
X30974300Y-22917930D02*
X30934300Y-22957930D01*
X30973985Y-22124230D02*
X31013985Y-22164230D01*
X31013985Y-22124230D02*
X30973985Y-22164230D01*
X31053355Y-17481085D02*
X31093355Y-17521085D01*
X31093355Y-17481085D02*
X31053355Y-17521085D01*
X31053355Y-25850901D02*
X31093355Y-25890901D01*
X31093355Y-25850901D02*
X31053355Y-25890901D01*
X31053355Y-25990901D02*
X31093355Y-26030901D01*
X31093355Y-25990901D02*
X31053355Y-26030901D01*
X31093040Y-19981240D02*
X31133040Y-20021240D01*
X31133040Y-19981240D02*
X31093040Y-20021240D01*
X31124066Y-17410374D02*
X31164066Y-17450374D01*
X31164066Y-17410374D02*
X31124066Y-17450374D01*
X31124066Y-17551796D02*
X31164066Y-17591796D01*
X31164066Y-17551796D02*
X31124066Y-17591796D01*
X31155687Y-25890637D02*
X31195687Y-25930637D01*
X31195687Y-25890637D02*
X31155687Y-25930637D01*
X31222499Y-17371084D02*
X31262499Y-17411084D01*
X31262499Y-17371084D02*
X31222499Y-17411084D01*
X31222499Y-17591718D02*
X31262499Y-17631718D01*
X31262499Y-17591718D02*
X31222499Y-17631718D01*
X31251780Y-17084235D02*
X31291780Y-17124235D01*
X31291780Y-17084235D02*
X31251780Y-17124235D01*
X31251780Y-19187540D02*
X31291780Y-19227540D01*
X31291780Y-19187540D02*
X31251780Y-19227540D01*
X31251780Y-24346024D02*
X31291780Y-24386024D01*
X31291780Y-24346024D02*
X31251780Y-24386024D01*
X31318037Y-17331083D02*
X31358037Y-17371083D01*
X31358037Y-17331083D02*
X31318037Y-17371083D01*
X31321762Y-17631719D02*
X31361762Y-17671719D01*
X31361762Y-17631719D02*
X31321762Y-17671719D01*
X31331150Y-27600760D02*
X31371150Y-27640760D01*
X31371150Y-27600760D02*
X31331150Y-27640760D01*
X31410520Y-16250850D02*
X31450520Y-16290850D01*
X31450520Y-16250850D02*
X31410520Y-16290850D01*
X31416695Y-17291082D02*
X31456695Y-17331082D01*
X31456695Y-17291082D02*
X31416695Y-17331082D01*
X31421348Y-17671720D02*
X31461348Y-17711720D01*
X31461348Y-17671720D02*
X31421348Y-17711720D01*
X31450205Y-24029110D02*
X31490205Y-24069110D01*
X31490205Y-24029110D02*
X31450205Y-24069110D01*
X31524831Y-22256399D02*
X31564831Y-22296399D01*
X31564831Y-22256399D02*
X31524831Y-22296399D01*
X31529575Y-22044860D02*
X31569575Y-22084860D01*
X31569575Y-22044860D02*
X31529575Y-22084860D01*
X31569260Y-17996990D02*
X31609260Y-18036990D01*
X31609260Y-17996990D02*
X31569260Y-18036990D01*
X31569260Y-25695880D02*
X31609260Y-25735880D01*
X31609260Y-25695880D02*
X31569260Y-25735880D01*
X31658442Y-22074733D02*
X31698442Y-22114733D01*
X31698442Y-22074733D02*
X31658442Y-22114733D01*
X31728000Y-22402025D02*
X31768000Y-22442025D01*
X31768000Y-22402025D02*
X31728000Y-22442025D01*
X31728000Y-24902180D02*
X31768000Y-24942180D01*
X31768000Y-24902180D02*
X31728000Y-24942180D01*
X31735017Y-17671720D02*
X31775017Y-17711720D01*
X31775017Y-17671720D02*
X31735017Y-17711720D01*
X31800516Y-20424631D02*
X31840516Y-20464631D01*
X31840516Y-20424631D02*
X31800516Y-20464631D01*
X31807370Y-17203290D02*
X31847370Y-17243290D01*
X31847370Y-17203290D02*
X31807370Y-17243290D01*
X31886740Y-24822810D02*
X31926740Y-24862810D01*
X31926740Y-24822810D02*
X31886740Y-24862810D01*
X31926425Y-17362030D02*
X31966425Y-17402030D01*
X31966425Y-17362030D02*
X31926425Y-17402030D01*
X31926425Y-20219350D02*
X31966425Y-20259350D01*
X31966425Y-20219350D02*
X31926425Y-20259350D01*
X31966110Y-26807060D02*
X32006110Y-26847060D01*
X32006110Y-26807060D02*
X31966110Y-26847060D01*
X32005795Y-23929110D02*
X32045795Y-23969110D01*
X32045795Y-23929110D02*
X32005795Y-23969110D01*
X32005795Y-24078481D02*
X32045795Y-24118481D01*
X32045795Y-24078481D02*
X32005795Y-24118481D01*
X32045480Y-16171480D02*
X32085480Y-16211480D01*
X32085480Y-16171480D02*
X32045480Y-16211480D01*
X32045480Y-21886120D02*
X32085480Y-21926120D01*
X32085480Y-21886120D02*
X32045480Y-21926120D01*
X32124850Y-19108170D02*
X32164850Y-19148170D01*
X32164850Y-19108170D02*
X32124850Y-19148170D01*
X32124850Y-23989425D02*
X32164850Y-24029425D01*
X32164850Y-23989425D02*
X32124850Y-24029425D01*
X32124850Y-26727690D02*
X32164850Y-26767690D01*
X32164850Y-26727690D02*
X32124850Y-26767690D01*
X32204220Y-17758880D02*
X32244220Y-17798880D01*
X32244220Y-17758880D02*
X32204220Y-17798880D01*
X32204220Y-17996990D02*
X32244220Y-18036990D01*
X32244220Y-17996990D02*
X32204220Y-18036990D01*
X32204220Y-21092420D02*
X32244220Y-21132420D01*
X32244220Y-21092420D02*
X32204220Y-21132420D01*
X32283590Y-25950900D02*
X32323590Y-25990900D01*
X32323590Y-25950900D02*
X32283590Y-25990900D01*
X32362960Y-21013050D02*
X32402960Y-21053050D01*
X32402960Y-21013050D02*
X32362960Y-21053050D01*
X32402645Y-25933990D02*
X32442645Y-25973990D01*
X32442645Y-25933990D02*
X32402645Y-25973990D01*
X32481572Y-20119035D02*
X32521572Y-20159035D01*
X32521572Y-20119035D02*
X32481572Y-20159035D01*
X32482015Y-17401715D02*
X32522015Y-17441715D01*
X32522015Y-17401715D02*
X32482015Y-17441715D01*
X32482015Y-20259035D02*
X32522015Y-20299035D01*
X32522015Y-20259035D02*
X32482015Y-20299035D01*
X32484737Y-28068874D02*
X32524737Y-28108874D01*
X32524737Y-28068874D02*
X32484737Y-28108874D01*
X32487972Y-17261715D02*
X32527972Y-17301715D01*
X32527972Y-17261715D02*
X32487972Y-17301715D01*
X32521700Y-23791000D02*
X32561700Y-23831000D01*
X32561700Y-23791000D02*
X32521700Y-23831000D01*
X32603671Y-20162641D02*
X32643671Y-20202641D01*
X32643671Y-20162641D02*
X32603671Y-20202641D01*
X32608581Y-17310231D02*
X32648581Y-17350231D01*
X32648581Y-17310231D02*
X32608581Y-17350231D01*
X32640755Y-27838870D02*
X32680755Y-27878870D01*
X32680755Y-27838870D02*
X32640755Y-27878870D01*
X32680440Y-22997300D02*
X32720440Y-23037300D01*
X32720440Y-22997300D02*
X32680440Y-23037300D01*
X32769840Y-22233915D02*
X32809840Y-22273915D01*
X32809840Y-22233915D02*
X32769840Y-22273915D01*
X32839180Y-22917930D02*
X32879180Y-22957930D01*
X32879180Y-22917930D02*
X32839180Y-22957930D01*
X32878865Y-22124230D02*
X32918865Y-22164230D01*
X32918865Y-22124230D02*
X32878865Y-22164230D01*
X32918550Y-17758880D02*
X32958550Y-17798880D01*
X32958550Y-17758880D02*
X32918550Y-17798880D01*
X32918550Y-17996990D02*
X32958550Y-18036990D01*
X32958550Y-17996990D02*
X32918550Y-18036990D01*
X32958235Y-25833990D02*
X32998235Y-25873990D01*
X32998235Y-25833990D02*
X32958235Y-25873990D01*
X32958235Y-25933990D02*
X32998235Y-25973990D01*
X32998235Y-25933990D02*
X32958235Y-25973990D01*
X32997920Y-17123920D02*
X33037920Y-17163920D01*
X33037920Y-17123920D02*
X32997920Y-17163920D01*
X32997920Y-19981240D02*
X33037920Y-20021240D01*
X33037920Y-19981240D02*
X32997920Y-20021240D01*
X33110356Y-24465645D02*
X33150356Y-24505645D01*
X33150356Y-24465645D02*
X33110356Y-24505645D01*
X33156660Y-16330220D02*
X33196660Y-16370220D01*
X33196660Y-16330220D02*
X33156660Y-16370220D01*
X33156660Y-19187540D02*
X33196660Y-19227540D01*
X33196660Y-19187540D02*
X33156660Y-19227540D01*
X33196345Y-27738870D02*
X33236345Y-27778870D01*
X33236345Y-27738870D02*
X33196345Y-27778870D01*
X33196345Y-27838870D02*
X33236345Y-27878870D01*
X33236345Y-27838870D02*
X33196345Y-27878870D01*
X33210356Y-24465645D02*
X33250356Y-24505645D01*
X33250356Y-24465645D02*
X33210356Y-24505645D01*
X33297643Y-27948871D02*
X33337643Y-27988871D01*
X33337643Y-27948871D02*
X33297643Y-27988871D01*
X33310357Y-24465644D02*
X33350357Y-24505644D01*
X33350357Y-24465644D02*
X33310357Y-24505644D01*
X33315400Y-16250850D02*
X33355400Y-16290850D01*
X33355400Y-16250850D02*
X33315400Y-16290850D01*
X33345272Y-24038480D02*
X33385272Y-24078480D01*
X33385272Y-24038480D02*
X33345272Y-24078480D01*
X33410357Y-24465647D02*
X33450357Y-24505647D01*
X33450357Y-24465647D02*
X33410357Y-24505647D01*
X33434455Y-22044860D02*
X33474455Y-22084860D01*
X33474455Y-22044860D02*
X33434455Y-22084860D01*
X33474140Y-24902180D02*
X33514140Y-24942180D01*
X33514140Y-24902180D02*
X33474140Y-24942180D01*
X33474140Y-25695880D02*
X33514140Y-25735880D01*
X33514140Y-25695880D02*
X33474140Y-25735880D01*
X33510357Y-24465639D02*
X33550357Y-24505639D01*
X33550357Y-24465639D02*
X33510357Y-24505639D01*
X33531192Y-22082287D02*
X33571192Y-22122287D01*
X33571192Y-22082287D02*
X33531192Y-22122287D01*
X33610357Y-24465652D02*
X33650357Y-24505652D01*
X33650357Y-24465652D02*
X33610357Y-24505652D01*
X33627176Y-17678944D02*
X33667176Y-17718944D01*
X33667176Y-17678944D02*
X33627176Y-17718944D01*
X33627613Y-20536264D02*
X33667613Y-20576264D01*
X33667613Y-20536264D02*
X33627613Y-20576264D01*
X33710357Y-24465619D02*
X33750357Y-24505619D01*
X33750357Y-24465619D02*
X33710357Y-24505619D01*
X33712250Y-27600760D02*
X33752250Y-27640760D01*
X33752250Y-27600760D02*
X33712250Y-27640760D01*
X33810357Y-24465681D02*
X33850357Y-24505681D01*
X33850357Y-24465681D02*
X33810357Y-24505681D01*
X33831305Y-17362030D02*
X33871305Y-17402030D01*
X33871305Y-17362030D02*
X33831305Y-17402030D01*
X33831305Y-20219350D02*
X33871305Y-20259350D01*
X33871305Y-20219350D02*
X33831305Y-20259350D01*
X33910357Y-24465508D02*
X33950357Y-24505508D01*
X33950357Y-24465508D02*
X33910357Y-24505508D01*
X33910675Y-23949740D02*
X33950675Y-23989740D01*
X33950675Y-23949740D02*
X33910675Y-23989740D01*
X33910675Y-24049740D02*
X33950675Y-24089740D01*
X33950675Y-24049740D02*
X33910675Y-24089740D01*
X33950360Y-21886120D02*
X33990360Y-21926120D01*
X33990360Y-21886120D02*
X33950360Y-21926120D01*
X33950360Y-25060920D02*
X33990360Y-25100920D01*
X33990360Y-25060920D02*
X33950360Y-25100920D01*
X33950360Y-25537140D02*
X33990360Y-25577140D01*
X33990360Y-25537140D02*
X33950360Y-25577140D01*
X34049707Y-24113303D02*
X34089707Y-24153303D01*
X34089707Y-24113303D02*
X34049707Y-24153303D01*
X34109100Y-17758880D02*
X34149100Y-17798880D01*
X34149100Y-17758880D02*
X34109100Y-17798880D01*
X34109100Y-17996990D02*
X34149100Y-18036990D01*
X34149100Y-17996990D02*
X34109100Y-18036990D01*
X34109100Y-21092420D02*
X34149100Y-21132420D01*
X34149100Y-21092420D02*
X34109100Y-21132420D01*
X34155235Y-24104622D02*
X34195235Y-24144622D01*
X34195235Y-24104622D02*
X34155235Y-24144622D01*
X34198523Y-25623380D02*
X34238523Y-25663380D01*
X34238523Y-25623380D02*
X34198523Y-25663380D01*
X34267840Y-21013050D02*
X34307840Y-21053050D01*
X34307840Y-21013050D02*
X34267840Y-21053050D01*
X34307525Y-25623380D02*
X34347525Y-25663380D01*
X34347525Y-25623380D02*
X34307525Y-25663380D01*
X34347210Y-24584700D02*
X34387210Y-24624700D01*
X34387210Y-24584700D02*
X34347210Y-24624700D01*
X34347210Y-26807060D02*
X34387210Y-26847060D01*
X34387210Y-26807060D02*
X34347210Y-26847060D01*
X34385210Y-20279980D02*
X34425210Y-20319980D01*
X34425210Y-20279980D02*
X34385210Y-20319980D01*
X34386895Y-17401715D02*
X34426895Y-17441715D01*
X34426895Y-17401715D02*
X34386895Y-17441715D01*
X34386895Y-20139980D02*
X34426895Y-20179980D01*
X34426895Y-20139980D02*
X34386895Y-20179980D01*
X34390643Y-17261715D02*
X34430643Y-17301715D01*
X34430643Y-17261715D02*
X34390643Y-17301715D01*
X34422683Y-26334737D02*
X34462683Y-26374737D01*
X34462683Y-26334737D02*
X34422683Y-26374737D01*
X34426580Y-23791000D02*
X34466580Y-23831000D01*
X34466580Y-23791000D02*
X34426580Y-23831000D01*
X34491723Y-17301208D02*
X34531723Y-17341208D01*
X34531723Y-17301208D02*
X34491723Y-17341208D01*
X34496138Y-20189478D02*
X34536138Y-20229478D01*
X34536138Y-20189478D02*
X34496138Y-20229478D01*
X34585320Y-24545015D02*
X34625320Y-24585015D01*
X34625320Y-24545015D02*
X34585320Y-24585015D01*
X34585320Y-25060920D02*
X34625320Y-25100920D01*
X34625320Y-25060920D02*
X34585320Y-25100920D01*
X34585320Y-25537140D02*
X34625320Y-25577140D01*
X34625320Y-25537140D02*
X34585320Y-25577140D01*
X34704375Y-26053045D02*
X34744375Y-26093045D01*
X34744375Y-26053045D02*
X34704375Y-26093045D01*
X34782824Y-22392971D02*
X34822824Y-22432971D01*
X34822824Y-22392971D02*
X34782824Y-22432971D01*
X34783745Y-22124230D02*
X34823745Y-22164230D01*
X34823745Y-22124230D02*
X34783745Y-22164230D01*
X34823430Y-17758880D02*
X34863430Y-17798880D01*
X34863430Y-17758880D02*
X34823430Y-17798880D01*
X34823430Y-17996990D02*
X34863430Y-18036990D01*
X34863430Y-17996990D02*
X34823430Y-18036990D01*
X34875388Y-28068874D02*
X34915388Y-28108874D01*
X34915388Y-28068874D02*
X34875388Y-28108874D01*
X34878678Y-22352970D02*
X34918678Y-22392970D01*
X34918678Y-22352970D02*
X34878678Y-22392970D01*
X34902800Y-17123920D02*
X34942800Y-17163920D01*
X34942800Y-17123920D02*
X34902800Y-17163920D01*
X34902800Y-19981240D02*
X34942800Y-20021240D01*
X34942800Y-19981240D02*
X34902800Y-20021240D01*
X34961540Y-22282970D02*
X35001540Y-22322970D01*
X35001540Y-22282970D02*
X34961540Y-22322970D01*
X34982170Y-24941865D02*
X35022170Y-24981865D01*
X35022170Y-24941865D02*
X34982170Y-24981865D01*
X35021855Y-24386275D02*
X35061855Y-24426275D01*
X35061855Y-24386275D02*
X35021855Y-24426275D01*
X35021855Y-27838870D02*
X35061855Y-27878870D01*
X35061855Y-27838870D02*
X35021855Y-27878870D01*
X35061540Y-16330220D02*
X35101540Y-16370220D01*
X35101540Y-16330220D02*
X35061540Y-16370220D01*
X35061540Y-22282970D02*
X35101540Y-22322970D01*
X35101540Y-22282970D02*
X35061540Y-22322970D01*
X35220280Y-16250850D02*
X35260280Y-16290850D01*
X35260280Y-16250850D02*
X35220280Y-16290850D01*
X35220280Y-24187850D02*
X35260280Y-24227850D01*
X35260280Y-24187850D02*
X35220280Y-24227850D01*
X35299650Y-25299030D02*
X35339650Y-25339030D01*
X35339650Y-25299030D02*
X35299650Y-25339030D01*
X35339335Y-22044860D02*
X35379335Y-22084860D01*
X35379335Y-22044860D02*
X35339335Y-22084860D01*
X35418705Y-26053045D02*
X35458705Y-26093045D01*
X35458705Y-26053045D02*
X35418705Y-26093045D01*
X35438492Y-22077702D02*
X35478492Y-22117702D01*
X35478492Y-22077702D02*
X35438492Y-22117702D01*
X35458390Y-20457460D02*
X35498390Y-20497460D01*
X35498390Y-20457460D02*
X35458390Y-20497460D01*
X35458390Y-24822810D02*
X35498390Y-24862810D01*
X35498390Y-24822810D02*
X35458390Y-24862810D01*
X35538255Y-22054230D02*
X35578255Y-22094230D01*
X35578255Y-22054230D02*
X35538255Y-22094230D01*
X35551914Y-17678944D02*
X35591914Y-17718944D01*
X35591914Y-17678944D02*
X35551914Y-17718944D01*
X35577445Y-27738870D02*
X35617445Y-27778870D01*
X35617445Y-27738870D02*
X35577445Y-27778870D01*
X35577445Y-27838870D02*
X35617445Y-27878870D01*
X35617445Y-27838870D02*
X35577445Y-27878870D01*
X35687812Y-27948871D02*
X35727812Y-27988871D01*
X35727812Y-27948871D02*
X35687812Y-27988871D01*
X35736185Y-17362030D02*
X35776185Y-17402030D01*
X35776185Y-17362030D02*
X35736185Y-17402030D01*
X35775870Y-22997300D02*
X35815870Y-23037300D01*
X35815870Y-22997300D02*
X35775870Y-23037300D01*
X35855240Y-21886120D02*
X35895240Y-21926120D01*
X35895240Y-21886120D02*
X35855240Y-21926120D01*
X35855240Y-25950900D02*
X35895240Y-25990900D01*
X35895240Y-25950900D02*
X35855240Y-25990900D01*
X35934610Y-19187540D02*
X35974610Y-19227540D01*
X35974610Y-19187540D02*
X35934610Y-19227540D01*
X35934610Y-22917930D02*
X35974610Y-22957930D01*
X35974610Y-22917930D02*
X35934610Y-22957930D01*
X35974295Y-25933990D02*
X36014295Y-25973990D01*
X36014295Y-25933990D02*
X35974295Y-25973990D01*
X36093350Y-20457460D02*
X36133350Y-20497460D01*
X36133350Y-20457460D02*
X36093350Y-20497460D01*
X36093350Y-24187850D02*
X36133350Y-24227850D01*
X36133350Y-24187850D02*
X36093350Y-24227850D01*
X36093350Y-27600760D02*
X36133350Y-27640760D01*
X36133350Y-27600760D02*
X36093350Y-27640760D01*
X36291775Y-17278941D02*
X36331775Y-17318941D01*
X36331775Y-17278941D02*
X36291775Y-17318941D01*
X36291775Y-17418941D02*
X36331775Y-17458941D01*
X36331775Y-17418941D02*
X36291775Y-17458941D01*
X36331460Y-22521080D02*
X36371460Y-22561080D01*
X36371460Y-22521080D02*
X36331460Y-22561080D01*
X36410830Y-17322345D02*
X36450830Y-17362345D01*
X36450830Y-17322345D02*
X36410830Y-17362345D01*
X36450515Y-20060610D02*
X36490515Y-20100610D01*
X36490515Y-20060610D02*
X36450515Y-20100610D01*
X36490200Y-21092420D02*
X36530200Y-21132420D01*
X36530200Y-21092420D02*
X36490200Y-21132420D01*
X36490200Y-21965490D02*
X36530200Y-22005490D01*
X36530200Y-21965490D02*
X36490200Y-22005490D01*
X36529885Y-25833990D02*
X36569885Y-25873990D01*
X36569885Y-25833990D02*
X36529885Y-25873990D01*
X36529885Y-25933990D02*
X36569885Y-25973990D01*
X36569885Y-25933990D02*
X36529885Y-25973990D01*
X36648940Y-21013050D02*
X36688940Y-21053050D01*
X36688940Y-21013050D02*
X36648940Y-21053050D01*
X36688625Y-20219350D02*
X36728625Y-20259350D01*
X36728625Y-20219350D02*
X36688625Y-20259350D01*
X36728310Y-26330840D02*
X36768310Y-26370840D01*
X36768310Y-26330840D02*
X36728310Y-26370840D01*
X36728310Y-26807060D02*
X36768310Y-26847060D01*
X36768310Y-26807060D02*
X36728310Y-26847060D01*
X36807680Y-17123920D02*
X36847680Y-17163920D01*
X36847680Y-17123920D02*
X36807680Y-17163920D01*
X36887050Y-17758880D02*
X36927050Y-17798880D01*
X36927050Y-17758880D02*
X36887050Y-17798880D01*
X36887050Y-17996990D02*
X36927050Y-18036990D01*
X36927050Y-17996990D02*
X36887050Y-18036990D01*
X36966420Y-16330220D02*
X37006420Y-16370220D01*
X37006420Y-16330220D02*
X36966420Y-16370220D01*
X37006105Y-20576515D02*
X37046105Y-20616515D01*
X37046105Y-20576515D02*
X37006105Y-20616515D01*
X37027535Y-22274232D02*
X37067535Y-22314232D01*
X37067535Y-22274232D02*
X37027535Y-22314232D01*
X37045790Y-25695880D02*
X37085790Y-25735880D01*
X37085790Y-25695880D02*
X37045790Y-25735880D01*
X37125160Y-16250850D02*
X37165160Y-16290850D01*
X37165160Y-16250850D02*
X37125160Y-16290850D01*
X37125160Y-26132415D02*
X37165160Y-26172415D01*
X37165160Y-26132415D02*
X37125160Y-26172415D01*
X37164845Y-22124230D02*
X37204845Y-22164230D01*
X37204845Y-22124230D02*
X37164845Y-22164230D01*
X37204530Y-25695880D02*
X37244530Y-25735880D01*
X37244530Y-25695880D02*
X37204530Y-25735880D01*
X37244215Y-20139980D02*
X37284215Y-20179980D01*
X37284215Y-20139980D02*
X37244215Y-20179980D01*
X37244215Y-20239980D02*
X37284215Y-20279980D01*
X37284215Y-20239980D02*
X37244215Y-20279980D01*
X37244215Y-20379980D02*
X37284215Y-20419980D01*
X37284215Y-20379980D02*
X37244215Y-20419980D01*
X37246937Y-28068874D02*
X37286937Y-28108874D01*
X37286937Y-28068874D02*
X37246937Y-28108874D01*
X37363270Y-17758880D02*
X37403270Y-17798880D01*
X37403270Y-17758880D02*
X37363270Y-17798880D01*
X37363270Y-17996990D02*
X37403270Y-18036990D01*
X37403270Y-17996990D02*
X37363270Y-18036990D01*
X37402955Y-27838870D02*
X37442955Y-27878870D01*
X37442955Y-27838870D02*
X37402955Y-27878870D01*
X37442713Y-20497218D02*
X37482713Y-20537218D01*
X37482713Y-20497218D02*
X37442713Y-20537218D01*
X37522010Y-17378940D02*
X37562010Y-17418940D01*
X37562010Y-17378940D02*
X37522010Y-17418940D01*
X37522010Y-23791000D02*
X37562010Y-23831000D01*
X37562010Y-23791000D02*
X37522010Y-23831000D01*
X37541065Y-20449670D02*
X37581065Y-20489670D01*
X37581065Y-20449670D02*
X37541065Y-20489670D01*
X37641065Y-17362030D02*
X37681065Y-17402030D01*
X37681065Y-17362030D02*
X37641065Y-17402030D01*
X37641065Y-20417775D02*
X37681065Y-20457775D01*
X37681065Y-20417775D02*
X37641065Y-20457775D01*
X37720435Y-22041141D02*
X37760435Y-22081141D01*
X37760435Y-22041141D02*
X37720435Y-22081141D01*
X37721869Y-22181141D02*
X37761869Y-22221141D01*
X37761869Y-22181141D02*
X37721869Y-22221141D01*
X37754123Y-20381749D02*
X37794123Y-20421749D01*
X37794123Y-20381749D02*
X37754123Y-20421749D01*
X37760120Y-19981240D02*
X37800120Y-20021240D01*
X37800120Y-19981240D02*
X37760120Y-20021240D01*
X37839490Y-20329667D02*
X37879490Y-20369667D01*
X37879490Y-20329667D02*
X37839490Y-20369667D01*
X37839490Y-22084545D02*
X37879490Y-22124545D01*
X37879490Y-22084545D02*
X37839490Y-22124545D01*
X37839490Y-26053045D02*
X37879490Y-26093045D01*
X37879490Y-26053045D02*
X37839490Y-26093045D01*
X37918860Y-23473520D02*
X37958860Y-23513520D01*
X37958860Y-23473520D02*
X37918860Y-23513520D01*
X37958545Y-27838870D02*
X37998545Y-27878870D01*
X37998545Y-27838870D02*
X37958545Y-27878870D01*
X38003266Y-27749427D02*
X38043266Y-27789427D01*
X38043266Y-27749427D02*
X38003266Y-27789427D01*
X38156970Y-19266910D02*
X38196970Y-19306910D01*
X38196970Y-19266910D02*
X38156970Y-19306910D01*
X38196655Y-17278940D02*
X38236655Y-17318940D01*
X38236655Y-17278940D02*
X38196655Y-17318940D01*
X38196655Y-17378940D02*
X38236655Y-17418940D01*
X38236655Y-17378940D02*
X38196655Y-17418940D01*
X38236340Y-21886120D02*
X38276340Y-21926120D01*
X38276340Y-21886120D02*
X38236340Y-21926120D01*
X38276025Y-20020925D02*
X38316025Y-20060925D01*
X38316025Y-20020925D02*
X38276025Y-20060925D01*
X38315710Y-22243285D02*
X38355710Y-22283285D01*
X38355710Y-22243285D02*
X38315710Y-22283285D01*
X38395080Y-17758880D02*
X38435080Y-17798880D01*
X38435080Y-17758880D02*
X38395080Y-17798880D01*
X38395080Y-17996990D02*
X38435080Y-18036990D01*
X38435080Y-17996990D02*
X38395080Y-18036990D01*
X38395080Y-22600450D02*
X38435080Y-22640450D01*
X38435080Y-22600450D02*
X38395080Y-22640450D01*
X38403739Y-22013834D02*
X38443739Y-22053834D01*
X38443739Y-22013834D02*
X38403739Y-22053834D01*
X38403739Y-22155256D02*
X38443739Y-22195256D01*
X38443739Y-22155256D02*
X38403739Y-22195256D01*
X38474450Y-19108170D02*
X38514450Y-19148170D01*
X38514450Y-19108170D02*
X38474450Y-19148170D01*
X38474450Y-19941555D02*
X38514450Y-19981555D01*
X38514450Y-19941555D02*
X38474450Y-19981555D01*
X38474450Y-20100295D02*
X38514450Y-20140295D01*
X38514450Y-20100295D02*
X38474450Y-20140295D01*
X38474450Y-20200295D02*
X38514450Y-20240295D01*
X38514450Y-20200295D02*
X38474450Y-20240295D01*
X38474450Y-20300296D02*
X38514450Y-20340296D01*
X38514450Y-20300296D02*
X38474450Y-20340296D01*
X38474450Y-20400296D02*
X38514450Y-20440296D01*
X38514450Y-20400296D02*
X38474450Y-20440296D01*
X38474450Y-21886120D02*
X38514450Y-21926120D01*
X38514450Y-21886120D02*
X38474450Y-21926120D01*
X38474450Y-22084545D02*
X38514450Y-22124545D01*
X38514450Y-22084545D02*
X38474450Y-22124545D01*
X38474450Y-25695880D02*
X38514450Y-25735880D01*
X38514450Y-25695880D02*
X38474450Y-25735880D01*
X38474450Y-26251470D02*
X38514450Y-26291470D01*
X38514450Y-26251470D02*
X38474450Y-26291470D01*
X38474450Y-27600760D02*
X38514450Y-27640760D01*
X38514450Y-27600760D02*
X38474450Y-27640760D01*
X38553820Y-19028800D02*
X38593820Y-19068800D01*
X38593820Y-19028800D02*
X38553820Y-19068800D01*
X38628154Y-26658393D02*
X38668154Y-26698393D01*
X38668154Y-26658393D02*
X38628154Y-26698393D01*
X38633190Y-18949430D02*
X38673190Y-18989430D01*
X38673190Y-18949430D02*
X38633190Y-18989430D01*
X38672875Y-26568950D02*
X38712875Y-26608950D01*
X38712875Y-26568950D02*
X38672875Y-26608950D01*
X38712560Y-17123920D02*
X38752560Y-17163920D01*
X38752560Y-17123920D02*
X38712560Y-17163920D01*
X38772875Y-26568950D02*
X38812875Y-26608950D01*
X38812875Y-26568950D02*
X38772875Y-26608950D01*
X38791930Y-25219660D02*
X38831930Y-25259660D01*
X38831930Y-25219660D02*
X38791930Y-25259660D01*
X38791930Y-26370525D02*
X38831930Y-26410525D01*
X38831930Y-26370525D02*
X38791930Y-26410525D01*
X38871300Y-26886430D02*
X38911300Y-26926430D01*
X38911300Y-26886430D02*
X38871300Y-26926430D01*
X38871300Y-27600760D02*
X38911300Y-27640760D01*
X38911300Y-27600760D02*
X38871300Y-27640760D01*
X38871300Y-27719815D02*
X38911300Y-27759815D01*
X38911300Y-27719815D02*
X38871300Y-27759815D01*
X38936603Y-24586040D02*
X38976603Y-24626040D01*
X38976603Y-24586040D02*
X38936603Y-24626040D01*
X39030040Y-17996990D02*
X39070040Y-18036990D01*
X39070040Y-17996990D02*
X39030040Y-18036990D01*
X39030040Y-25695880D02*
X39070040Y-25735880D01*
X39070040Y-25695880D02*
X39030040Y-25735880D01*
X39030040Y-26251470D02*
X39070040Y-26291470D01*
X39070040Y-26251470D02*
X39030040Y-26291470D01*
X39030040Y-27728869D02*
X39070040Y-27768869D01*
X39070040Y-27728869D02*
X39030040Y-27768869D01*
X39059652Y-27908870D02*
X39099652Y-27948870D01*
X39099652Y-27908870D02*
X39059652Y-27948870D01*
X39109410Y-17758880D02*
X39149410Y-17798880D01*
X39149410Y-17758880D02*
X39109410Y-17798880D01*
X39149095Y-27838870D02*
X39189095Y-27878870D01*
X39189095Y-27838870D02*
X39149095Y-27878870D01*
X39466575Y-27838870D02*
X39506575Y-27878870D01*
X39506575Y-27838870D02*
X39466575Y-27878870D01*
X39537286Y-27768159D02*
X39577286Y-27808159D01*
X39577286Y-27768159D02*
X39537286Y-27808159D01*
X39545945Y-18512895D02*
X39585945Y-18552895D01*
X39585945Y-18512895D02*
X39545945Y-18552895D01*
X39545945Y-19822500D02*
X39585945Y-19862500D01*
X39585945Y-19822500D02*
X39545945Y-19862500D01*
X39545945Y-20020925D02*
X39585945Y-20060925D01*
X39585945Y-20020925D02*
X39545945Y-20060925D01*
X39545945Y-20457460D02*
X39585945Y-20497460D01*
X39585945Y-20457460D02*
X39545945Y-20497460D01*
X39545945Y-20695570D02*
X39585945Y-20735570D01*
X39585945Y-20695570D02*
X39545945Y-20735570D01*
X39545945Y-21727380D02*
X39585945Y-21767380D01*
X39585945Y-21727380D02*
X39545945Y-21767380D01*
X39545945Y-21965490D02*
X39585945Y-22005490D01*
X39585945Y-21965490D02*
X39545945Y-22005490D01*
X39545945Y-22441710D02*
X39585945Y-22481710D01*
X39585945Y-22441710D02*
X39545945Y-22481710D01*
X39545945Y-22917930D02*
X39585945Y-22957930D01*
X39585945Y-22917930D02*
X39545945Y-22957930D01*
X39581552Y-24350668D02*
X39621552Y-24390668D01*
X39621552Y-24350668D02*
X39581552Y-24390668D01*
X39607997Y-27697448D02*
X39647997Y-27737448D01*
X39647997Y-27697448D02*
X39607997Y-27737448D01*
X39665000Y-24852830D02*
X39705000Y-24892830D01*
X39705000Y-24852830D02*
X39665000Y-24892830D01*
X39744370Y-25457770D02*
X39784370Y-25497770D01*
X39784370Y-25457770D02*
X39744370Y-25497770D01*
X39784055Y-18433525D02*
X39824055Y-18473525D01*
X39824055Y-18433525D02*
X39784055Y-18473525D01*
X39784055Y-19822500D02*
X39824055Y-19862500D01*
X39824055Y-19822500D02*
X39784055Y-19862500D01*
X39784055Y-20020925D02*
X39824055Y-20060925D01*
X39824055Y-20020925D02*
X39784055Y-20060925D01*
X39784055Y-20457460D02*
X39824055Y-20497460D01*
X39824055Y-20457460D02*
X39784055Y-20497460D01*
X39784055Y-20695570D02*
X39824055Y-20735570D01*
X39824055Y-20695570D02*
X39784055Y-20735570D01*
X39784055Y-21727380D02*
X39824055Y-21767380D01*
X39824055Y-21727380D02*
X39784055Y-21767380D01*
X39784055Y-22084545D02*
X39824055Y-22124545D01*
X39824055Y-22084545D02*
X39784055Y-22124545D01*
X39823740Y-16330220D02*
X39863740Y-16370220D01*
X39863740Y-16330220D02*
X39823740Y-16370220D01*
X39823740Y-26807060D02*
X39863740Y-26847060D01*
X39863740Y-26807060D02*
X39823740Y-26847060D01*
X39823740Y-27600760D02*
X39863740Y-27640760D01*
X39863740Y-27600760D02*
X39823740Y-27640760D01*
X39854766Y-22013834D02*
X39894766Y-22053834D01*
X39894766Y-22013834D02*
X39854766Y-22053834D01*
X39854766Y-22155256D02*
X39894766Y-22195256D01*
X39894766Y-22155256D02*
X39854766Y-22195256D01*
X39903110Y-18628799D02*
X39943110Y-18668799D01*
X39943110Y-18628799D02*
X39903110Y-18668799D01*
X39903110Y-18728799D02*
X39943110Y-18768799D01*
X39943110Y-18728799D02*
X39903110Y-18768799D01*
X39903110Y-18828799D02*
X39943110Y-18868799D01*
X39943110Y-18828799D02*
X39903110Y-18868799D01*
X39903110Y-18928800D02*
X39943110Y-18968800D01*
X39943110Y-18928800D02*
X39903110Y-18968800D01*
X39903110Y-19028800D02*
X39943110Y-19068800D01*
X39943110Y-19028800D02*
X39903110Y-19068800D01*
X39903110Y-19941555D02*
X39943110Y-19981555D01*
X39943110Y-19941555D02*
X39903110Y-19981555D01*
X39903110Y-20100295D02*
X39943110Y-20140295D01*
X39943110Y-20100295D02*
X39903110Y-20140295D01*
X39903110Y-20200295D02*
X39943110Y-20240295D01*
X39943110Y-20200295D02*
X39903110Y-20240295D01*
X39903110Y-20300296D02*
X39943110Y-20340296D01*
X39943110Y-20300296D02*
X39903110Y-20340296D01*
X39903110Y-20400296D02*
X39943110Y-20440296D01*
X39943110Y-20400296D02*
X39903110Y-20440296D01*
X39903110Y-21886120D02*
X39943110Y-21926120D01*
X39943110Y-21886120D02*
X39903110Y-21926120D01*
X39903110Y-25933990D02*
X39943110Y-25973990D01*
X39943110Y-25933990D02*
X39903110Y-25973990D01*
X39954286Y-22194546D02*
X39994286Y-22234546D01*
X39994286Y-22194546D02*
X39954286Y-22234546D01*
X39982480Y-26727690D02*
X40022480Y-26767690D01*
X40022480Y-26727690D02*
X39982480Y-26767690D01*
X40061850Y-16250850D02*
X40101850Y-16290850D01*
X40101850Y-16250850D02*
X40061850Y-16290850D01*
X40061850Y-21013050D02*
X40101850Y-21053050D01*
X40101850Y-21013050D02*
X40061850Y-21053050D01*
X40061850Y-22282970D02*
X40101850Y-22322970D01*
X40101850Y-22282970D02*
X40061850Y-22322970D01*
X40061850Y-23076670D02*
X40101850Y-23116670D01*
X40101850Y-23076670D02*
X40061850Y-23116670D01*
X40220590Y-20060610D02*
X40260590Y-20100610D01*
X40260590Y-20060610D02*
X40220590Y-20100610D01*
X40220590Y-25854620D02*
X40260590Y-25894620D01*
X40260590Y-25854620D02*
X40220590Y-25894620D01*
X40232170Y-23088250D02*
X40272170Y-23128250D01*
X40272170Y-23088250D02*
X40232170Y-23128250D01*
X40232170Y-25072500D02*
X40272170Y-25112500D01*
X40272170Y-25072500D02*
X40232170Y-25112500D01*
X40299960Y-23552890D02*
X40339960Y-23592890D01*
X40339960Y-23552890D02*
X40299960Y-23592890D01*
X40379330Y-17368941D02*
X40419330Y-17408941D01*
X40419330Y-17368941D02*
X40379330Y-17408941D01*
X40379330Y-24029110D02*
X40419330Y-24069110D01*
X40419330Y-24029110D02*
X40379330Y-24069110D01*
X40458700Y-19822500D02*
X40498700Y-19862500D01*
X40498700Y-19822500D02*
X40458700Y-19862500D01*
X40472564Y-22157719D02*
X40512564Y-22197719D01*
X40512564Y-22157719D02*
X40472564Y-22197719D01*
X40498385Y-17362030D02*
X40538385Y-17402030D01*
X40538385Y-17362030D02*
X40498385Y-17402030D01*
X40498385Y-20259035D02*
X40538385Y-20299035D01*
X40538385Y-20259035D02*
X40498385Y-20299035D01*
X40498385Y-27838870D02*
X40538385Y-27878870D01*
X40538385Y-27838870D02*
X40498385Y-27878870D01*
X40617440Y-24505330D02*
X40657440Y-24545330D01*
X40657440Y-24505330D02*
X40617440Y-24545330D01*
X40776180Y-18235100D02*
X40816180Y-18275100D01*
X40816180Y-18235100D02*
X40776180Y-18275100D01*
X40776180Y-23473520D02*
X40816180Y-23513520D01*
X40816180Y-23473520D02*
X40776180Y-23513520D01*
X40808050Y-25219660D02*
X40848050Y-25259660D01*
X40848050Y-25219660D02*
X40808050Y-25259660D01*
X40855550Y-22838560D02*
X40895550Y-22878560D01*
X40895550Y-22838560D02*
X40855550Y-22878560D01*
X40855550Y-24267220D02*
X40895550Y-24307220D01*
X40895550Y-24267220D02*
X40855550Y-24307220D01*
X40855550Y-24743440D02*
X40895550Y-24783440D01*
X40895550Y-24743440D02*
X40855550Y-24783440D01*
X40934920Y-26092730D02*
X40974920Y-26132730D01*
X40974920Y-26092730D02*
X40934920Y-26132730D01*
X41053975Y-17262030D02*
X41093975Y-17302030D01*
X41093975Y-17262030D02*
X41053975Y-17302030D01*
X41053975Y-17362030D02*
X41093975Y-17402030D01*
X41093975Y-17362030D02*
X41053975Y-17402030D01*
X41053975Y-20119350D02*
X41093975Y-20159350D01*
X41093975Y-20119350D02*
X41053975Y-20159350D01*
X41053975Y-20219350D02*
X41093975Y-20259350D01*
X41093975Y-20219350D02*
X41053975Y-20259350D01*
X41053975Y-22044860D02*
X41093975Y-22084860D01*
X41093975Y-22044860D02*
X41053975Y-22084860D01*
X41053975Y-22144860D02*
X41093975Y-22184860D01*
X41093975Y-22144860D02*
X41053975Y-22184860D01*
X41053975Y-27738870D02*
X41093975Y-27778870D01*
X41093975Y-27738870D02*
X41053975Y-27778870D01*
X41053975Y-27838870D02*
X41093975Y-27878870D01*
X41093975Y-27838870D02*
X41053975Y-27878870D01*
X41093660Y-23791000D02*
X41133660Y-23831000D01*
X41133660Y-23791000D02*
X41093660Y-23831000D01*
X41093660Y-24505330D02*
X41133660Y-24545330D01*
X41133660Y-24505330D02*
X41093660Y-24545330D01*
X41132912Y-20343008D02*
X41172912Y-20383008D01*
X41172912Y-20343008D02*
X41132912Y-20383008D01*
X41152106Y-27999904D02*
X41192106Y-28039904D01*
X41192106Y-27999904D02*
X41152106Y-28039904D01*
X41165719Y-22235711D02*
X41205719Y-22275711D01*
X41205719Y-22235711D02*
X41165719Y-22275711D01*
X41252400Y-24981550D02*
X41292400Y-25021550D01*
X41292400Y-24981550D02*
X41252400Y-25021550D01*
X41331770Y-24029110D02*
X41371770Y-24069110D01*
X41371770Y-24029110D02*
X41331770Y-24069110D01*
X41569880Y-17123920D02*
X41609880Y-17163920D01*
X41609880Y-17123920D02*
X41569880Y-17163920D01*
X41569880Y-19981240D02*
X41609880Y-20021240D01*
X41609880Y-19981240D02*
X41569880Y-20021240D01*
X41569880Y-21886120D02*
X41609880Y-21926120D01*
X41609880Y-21886120D02*
X41569880Y-21926120D01*
X41569880Y-24187850D02*
X41609880Y-24227850D01*
X41609880Y-24187850D02*
X41569880Y-24227850D01*
X41569880Y-27600760D02*
X41609880Y-27640760D01*
X41609880Y-27600760D02*
X41569880Y-27640760D01*
X41649250Y-25854620D02*
X41689250Y-25894620D01*
X41689250Y-25854620D02*
X41649250Y-25894620D01*
X41728620Y-19187540D02*
X41768620Y-19227540D01*
X41768620Y-19187540D02*
X41728620Y-19227540D01*
X41728620Y-21092420D02*
X41768620Y-21132420D01*
X41768620Y-21092420D02*
X41728620Y-21132420D01*
X41728620Y-26807060D02*
X41768620Y-26847060D01*
X41768620Y-26807060D02*
X41728620Y-26847060D01*
X41887360Y-21013050D02*
X41927360Y-21053050D01*
X41927360Y-21013050D02*
X41887360Y-21053050D01*
X41887360Y-24822810D02*
X41927360Y-24862810D01*
X41927360Y-24822810D02*
X41887360Y-24862810D01*
X41887360Y-26727690D02*
X41927360Y-26767690D01*
X41927360Y-26727690D02*
X41887360Y-26767690D01*
X41966730Y-25616510D02*
X42006730Y-25656510D01*
X42006730Y-25616510D02*
X41966730Y-25656510D01*
X42051724Y-22838560D02*
X42091724Y-22878560D01*
X42091724Y-22838560D02*
X42051724Y-22878560D01*
X42097971Y-23156040D02*
X42137971Y-23196040D01*
X42137971Y-23156040D02*
X42097971Y-23196040D01*
X42165155Y-17996990D02*
X42205155Y-18036990D01*
X42205155Y-17996990D02*
X42165155Y-18036990D01*
X42165155Y-18116045D02*
X42205155Y-18156045D01*
X42205155Y-18116045D02*
X42165155Y-18156045D01*
X42303265Y-20219350D02*
X42343265Y-20259350D01*
X42343265Y-20219350D02*
X42303265Y-20259350D01*
X42303265Y-22124230D02*
X42343265Y-22164230D01*
X42343265Y-22124230D02*
X42303265Y-22164230D01*
X42313822Y-27768870D02*
X42353822Y-27808870D01*
X42353822Y-27768870D02*
X42313822Y-27808870D01*
X42323895Y-17758880D02*
X42363895Y-17798880D01*
X42363895Y-17758880D02*
X42323895Y-17798880D01*
X42323895Y-18393840D02*
X42363895Y-18433840D01*
X42363895Y-18393840D02*
X42323895Y-18433840D01*
X42363580Y-25537140D02*
X42403580Y-25577140D01*
X42403580Y-25537140D02*
X42363580Y-25577140D01*
X42363580Y-27442020D02*
X42403580Y-27482020D01*
X42403580Y-27442020D02*
X42363580Y-27482020D01*
X42403265Y-20219350D02*
X42443265Y-20259350D01*
X42443265Y-20219350D02*
X42403265Y-20259350D01*
X42403265Y-22124230D02*
X42443265Y-22164230D01*
X42443265Y-22124230D02*
X42403265Y-22164230D01*
X42403265Y-25833990D02*
X42443265Y-25873990D01*
X42443265Y-25833990D02*
X42403265Y-25873990D01*
X42403265Y-25933990D02*
X42443265Y-25973990D01*
X42443265Y-25933990D02*
X42403265Y-25973990D01*
X42403265Y-27838870D02*
X42443265Y-27878870D01*
X42443265Y-27838870D02*
X42403265Y-27878870D01*
X42522320Y-24187850D02*
X42562320Y-24227850D01*
X42562320Y-24187850D02*
X42522320Y-24227850D01*
X42522320Y-24822810D02*
X42562320Y-24862810D01*
X42562320Y-24822810D02*
X42522320Y-24862810D01*
X42523585Y-24289115D02*
X42563585Y-24329115D01*
X42563585Y-24289115D02*
X42523585Y-24329115D01*
X42601690Y-24108480D02*
X42641690Y-24148480D01*
X42641690Y-24108480D02*
X42601690Y-24148480D01*
X42760430Y-23235410D02*
X42800430Y-23275410D01*
X42800430Y-23235410D02*
X42760430Y-23275410D01*
X42879485Y-17758880D02*
X42919485Y-17798880D01*
X42919485Y-17758880D02*
X42879485Y-17798880D01*
X42879485Y-18393840D02*
X42919485Y-18433840D01*
X42919485Y-18393840D02*
X42879485Y-18433840D01*
X42958855Y-20139980D02*
X42998855Y-20179980D01*
X42998855Y-20139980D02*
X42958855Y-20179980D01*
X42958855Y-20239980D02*
X42998855Y-20279980D01*
X42998855Y-20239980D02*
X42958855Y-20279980D01*
X42958855Y-22044860D02*
X42998855Y-22084860D01*
X42998855Y-22044860D02*
X42958855Y-22084860D01*
X42958855Y-22144860D02*
X42998855Y-22184860D01*
X42998855Y-22144860D02*
X42958855Y-22184860D01*
X42958855Y-25854620D02*
X42998855Y-25894620D01*
X42998855Y-25854620D02*
X42958855Y-25894620D01*
X42958855Y-25954620D02*
X42998855Y-25994620D01*
X42998855Y-25954620D02*
X42958855Y-25994620D01*
X42958855Y-27738870D02*
X42998855Y-27778870D01*
X42998855Y-27738870D02*
X42958855Y-27778870D01*
X42958855Y-27838870D02*
X42998855Y-27878870D01*
X42998855Y-27838870D02*
X42958855Y-27878870D01*
X43029566Y-27915780D02*
X43069566Y-27955780D01*
X43069566Y-27915780D02*
X43029566Y-27955780D01*
X43129527Y-27955781D02*
X43169527Y-27995781D01*
X43169527Y-27955781D02*
X43129527Y-27995781D01*
X43196965Y-20060610D02*
X43236965Y-20100610D01*
X43236965Y-20060610D02*
X43196965Y-20100610D01*
X43222995Y-18741319D02*
X43262995Y-18781319D01*
X43262995Y-18741319D02*
X43222995Y-18781319D01*
X43322320Y-18701318D02*
X43362320Y-18741318D01*
X43362320Y-18701318D02*
X43322320Y-18741318D01*
X43425002Y-18676671D02*
X43465002Y-18716671D01*
X43465002Y-18676671D02*
X43425002Y-18716671D01*
X43474760Y-16647700D02*
X43514760Y-16687700D01*
X43514760Y-16647700D02*
X43474760Y-16687700D01*
X43474760Y-18314470D02*
X43514760Y-18354470D01*
X43514760Y-18314470D02*
X43474760Y-18354470D01*
X43474760Y-21886120D02*
X43514760Y-21926120D01*
X43514760Y-21886120D02*
X43474760Y-21926120D01*
X43474760Y-25695880D02*
X43514760Y-25735880D01*
X43514760Y-25695880D02*
X43474760Y-25735880D01*
X43474760Y-27600760D02*
X43514760Y-27640760D01*
X43514760Y-27600760D02*
X43474760Y-27640760D01*
X43514445Y-18631950D02*
X43554445Y-18671950D01*
X43554445Y-18631950D02*
X43514445Y-18671950D01*
X43514445Y-20378090D02*
X43554445Y-20418090D01*
X43554445Y-20378090D02*
X43514445Y-20418090D01*
X43554130Y-17996990D02*
X43594130Y-18036990D01*
X43594130Y-17996990D02*
X43554130Y-18036990D01*
X43554130Y-20139980D02*
X43594130Y-20179980D01*
X43594130Y-20139980D02*
X43554130Y-20179980D01*
X43554130Y-21013050D02*
X43594130Y-21053050D01*
X43594130Y-21013050D02*
X43554130Y-21053050D01*
X43554130Y-23235410D02*
X43594130Y-23275410D01*
X43594130Y-23235410D02*
X43554130Y-23275410D01*
X43554130Y-24902180D02*
X43594130Y-24942180D01*
X43594130Y-24902180D02*
X43554130Y-24942180D01*
X43629738Y-21886120D02*
X43669738Y-21926120D01*
X43669738Y-21886120D02*
X43629738Y-21926120D01*
X43633500Y-18711320D02*
X43673500Y-18751320D01*
X43673500Y-18711320D02*
X43633500Y-18751320D01*
X43633500Y-19266910D02*
X43673500Y-19306910D01*
X43673500Y-19266910D02*
X43633500Y-19306910D01*
X43633500Y-26807060D02*
X43673500Y-26847060D01*
X43673500Y-26807060D02*
X43633500Y-26847060D01*
X43706000Y-24874075D02*
X43746000Y-24914075D01*
X43746000Y-24874075D02*
X43706000Y-24914075D01*
X43712870Y-19981240D02*
X43752870Y-20021240D01*
X43752870Y-19981240D02*
X43712870Y-20021240D01*
X43792240Y-21013050D02*
X43832240Y-21053050D01*
X43832240Y-21013050D02*
X43792240Y-21053050D01*
X43792240Y-26727690D02*
X43832240Y-26767690D01*
X43832240Y-26727690D02*
X43792240Y-26767690D01*
X43792240Y-27521390D02*
X43832240Y-27561390D01*
X43832240Y-27521390D02*
X43792240Y-27561390D01*
X43950980Y-23235410D02*
X43990980Y-23275410D01*
X43990980Y-23235410D02*
X43950980Y-23275410D01*
X44189090Y-24187850D02*
X44229090Y-24227850D01*
X44229090Y-24187850D02*
X44189090Y-24227850D01*
X44585940Y-18235100D02*
X44625940Y-18275100D01*
X44625940Y-18235100D02*
X44585940Y-18275100D01*
X45379640Y-21886120D02*
X45419640Y-21926120D01*
X45419640Y-21886120D02*
X45379640Y-21926120D01*
X45379640Y-22997300D02*
X45419640Y-23037300D01*
X45419640Y-22997300D02*
X45379640Y-23037300D01*
X8120740Y-18969430D02*
G75*
G03*
X8120740Y-18969430I-25000J0D01*
G01*
X10184360Y-16985180D02*
G75*
G03*
X10184360Y-16985180I-25000J0D01*
G01*
X10184360Y-19961555D02*
G75*
G03*
X10184360Y-19961555I-25000J0D01*
G01*
X10184360Y-21906120D02*
G75*
G03*
X10184360Y-21906120I-25000J0D01*
G01*
X10184360Y-23811000D02*
G75*
G03*
X10184360Y-23811000I-25000J0D01*
G01*
X10184360Y-25715880D02*
G75*
G03*
X10184360Y-25715880I-25000J0D01*
G01*
X10184360Y-27620760D02*
G75*
G03*
X10184360Y-27620760I-25000J0D01*
G01*
X10501840Y-19048800D02*
G75*
G03*
X10501840Y-19048800I-25000J0D01*
G01*
X12406720Y-19048800D02*
G75*
G03*
X12406720Y-19048800I-25000J0D01*
G01*
X14311600Y-19048800D02*
G75*
G03*
X14311600Y-19048800I-25000J0D01*
G01*
X16216480Y-19048800D02*
G75*
G03*
X16216480Y-19048800I-25000J0D01*
G01*
X18121360Y-19048800D02*
G75*
G03*
X18121360Y-19048800I-25000J0D01*
G01*
X20026240Y-19048800D02*
G75*
G03*
X20026240Y-19048800I-25000J0D01*
G01*
X21931120Y-19048800D02*
G75*
G03*
X21931120Y-19048800I-25000J0D01*
G01*
X23836000Y-19048800D02*
G75*
G03*
X23836000Y-19048800I-25000J0D01*
G01*
X25740880Y-19048800D02*
G75*
G03*
X25740880Y-19048800I-25000J0D01*
G01*
X27645760Y-19048800D02*
G75*
G03*
X27645760Y-19048800I-25000J0D01*
G01*
X29550640Y-19048800D02*
G75*
G03*
X29550640Y-19048800I-25000J0D01*
G01*
X31455520Y-19048800D02*
G75*
G03*
X31455520Y-19048800I-25000J0D01*
G01*
X33360400Y-19048800D02*
G75*
G03*
X33360400Y-19048800I-25000J0D01*
G01*
X36217720Y-19048800D02*
G75*
G03*
X36217720Y-19048800I-25000J0D01*
G01*
X39551260Y-24842810D02*
G75*
G03*
X39551260Y-24842810I-25000J0D01*
G01*
X39710000Y-24128480D02*
G75*
G03*
X39710000Y-24128480I-25000J0D01*
G01*
X39789370Y-25001550D02*
G75*
G03*
X39789370Y-25001550I-25000J0D01*
G01*
X40027480Y-25041235D02*
G75*
G03*
X40027480Y-25041235I-25000J0D01*
G01*
X40106850Y-19088485D02*
G75*
G03*
X40106850Y-19088485I-25000J0D01*
G01*
X40821180Y-23731630D02*
G75*
G03*
X40821180Y-23731630I-25000J0D01*
G01*
X40821180Y-25636510D02*
G75*
G03*
X40821180Y-25636510I-25000J0D01*
G01*
X41138660Y-25636510D02*
G75*
G03*
X41138660Y-25636510I-25000J0D01*
G01*
X41932360Y-19128170D02*
G75*
G03*
X41932360Y-19128170I-25000J0D01*
G01*
X42567320Y-23255410D02*
G75*
G03*
X42567320Y-23255410I-25000J0D01*
G01*
X43837240Y-19128170D02*
G75*
G03*
X43837240Y-19128170I-25000J0D01*
G01*
X43995980Y-24445960D02*
G75*
G03*
X43995980Y-24445960I-25000J0D01*
G01*
X30363560Y-15072190D02*
X30363560Y-15132190D01*
X30333560Y-15102190D02*
X30393560Y-15102190D01*
X30343560Y-15072190D02*
X30343560Y-15132190D01*
X30383560Y-15072190D02*
X30383560Y-15132190D01*
X30343560Y-15132190D02*
G75*
G03*
X30383560Y-15132190I20000J0D01*
G01*
X30383560Y-15072190D02*
G75*
G03*
X30343560Y-15072190I-20000J0D01*
G01*
X30363560Y-15490190D02*
X30363560Y-15550190D01*
X30333560Y-15520190D02*
X30393560Y-15520190D01*
X30343560Y-15465190D02*
X30343560Y-15575190D01*
X30383560Y-15465190D02*
X30383560Y-15575190D01*
X30343560Y-15575190D02*
G75*
G03*
X30383560Y-15575190I20000J0D01*
G01*
X30383560Y-15465190D02*
G75*
G03*
X30343560Y-15465190I-20000J0D01*
G01*
X31227560Y-15072190D02*
X31227560Y-15132190D01*
X31197560Y-15102190D02*
X31257560Y-15102190D01*
X31207560Y-15072190D02*
X31207560Y-15132190D01*
X31247560Y-15072190D02*
X31247560Y-15132190D01*
X31207560Y-15132190D02*
G75*
G03*
X31247560Y-15132190I20000J0D01*
G01*
X31247560Y-15072190D02*
G75*
G03*
X31207560Y-15072190I-20000J0D01*
G01*
X31227560Y-15490190D02*
X31227560Y-15550190D01*
X31197560Y-15520190D02*
X31257560Y-15520190D01*
X31207560Y-15465190D02*
X31207560Y-15575190D01*
X31247560Y-15465190D02*
X31247560Y-15575190D01*
X31207560Y-15575190D02*
G75*
G03*
X31247560Y-15575190I20000J0D01*
G01*
X31247560Y-15465190D02*
G75*
G03*
X31207560Y-15465190I-20000J0D01*
G01*
X44555307Y-23141257D02*
X44555307Y-23083783D01*
X44497833Y-23083783D01*
X44497833Y-23141257D01*
X44555307Y-23141257D01*
X44555307Y-23395257D02*
X44555307Y-23337783D01*
X44497833Y-23337783D01*
X44497833Y-23395257D01*
X44555307Y-23395257D01*
X44555307Y-23649257D02*
X44555307Y-23591783D01*
X44497833Y-23591783D01*
X44497833Y-23649257D01*
X44555307Y-23649257D01*
X44555307Y-23903257D02*
X44555307Y-23845783D01*
X44497833Y-23845783D01*
X44497833Y-23903257D01*
X44555307Y-23903257D01*
X8627550Y-16122425D02*
X8677550Y-16072425D01*
X8627550Y-16022425D01*
X8577550Y-16072425D01*
X8627550Y-16122425D01*
X8627550Y-17572425D02*
X8677550Y-17522425D01*
X8627550Y-17472425D01*
X8577550Y-17522425D01*
X8627550Y-17572425D01*
X8877550Y-16122425D02*
X8927550Y-16072425D01*
X8877550Y-16022425D01*
X8827550Y-16072425D01*
X8877550Y-16122425D01*
X9127550Y-16122425D02*
X9177550Y-16072425D01*
X9127550Y-16022425D01*
X9077550Y-16072425D01*
X9127550Y-16122425D01*
X9127550Y-17572425D02*
X9177550Y-17522425D01*
X9127550Y-17472425D01*
X9077550Y-17522425D01*
X9127550Y-17572425D01*
X29255750Y-17987620D02*
X29305750Y-17937620D01*
X29255750Y-17887620D01*
X29205750Y-17937620D01*
X29255750Y-17987620D01*
X29509750Y-17987620D02*
X29559750Y-17937620D01*
X29509750Y-17887620D01*
X29459750Y-17937620D01*
X29509750Y-17987620D01*
X29763750Y-17987620D02*
X29813750Y-17937620D01*
X29763750Y-17887620D01*
X29713750Y-17937620D01*
X29763750Y-17987620D01*
X41986730Y-23464150D02*
X42036730Y-23414150D01*
X41986730Y-23364150D01*
X41936730Y-23414150D01*
X41986730Y-23464150D01*
X41986730Y-23718150D02*
X42036730Y-23668150D01*
X41986730Y-23618150D01*
X41936730Y-23668150D01*
X41986730Y-23718150D01*
X41986730Y-23972150D02*
X42036730Y-23922150D01*
X41986730Y-23872150D01*
X41936730Y-23922150D01*
X41986730Y-23972150D01*
X41986730Y-24226150D02*
X42036730Y-24176150D01*
X41986730Y-24126150D01*
X41936730Y-24176150D01*
X41986730Y-24226150D01*
X44344050Y-16122425D02*
X44394050Y-16072425D01*
X44344050Y-16022425D01*
X44294050Y-16072425D01*
X44344050Y-16122425D01*
X44344050Y-17572425D02*
X44394050Y-17522425D01*
X44344050Y-17472425D01*
X44294050Y-17522425D01*
X44344050Y-17572425D01*
X44594050Y-16122425D02*
X44644050Y-16072425D01*
X44594050Y-16022425D01*
X44544050Y-16072425D01*
X44594050Y-16122425D01*
X44844050Y-16122425D02*
X44894050Y-16072425D01*
X44844050Y-16022425D01*
X44794050Y-16072425D01*
X44844050Y-16122425D01*
X44844050Y-17572425D02*
X44894050Y-17522425D01*
X44844050Y-17472425D01*
X44794050Y-17522425D01*
X44844050Y-17572425D01*
X8242550Y-16747425D02*
X8392550Y-16897425D01*
X8392550Y-16747425D02*
X8242550Y-16897425D01*
X8392550Y-16822425D02*
G75*
G03*
X8392550Y-16822425I-75000J0D01*
G01*
X8252550Y-16757425D02*
X8252550Y-16887425D01*
X8382550Y-16757425D02*
X8382550Y-16887425D01*
X8252550Y-16887425D02*
G75*
G03*
X8382550Y-16887425I65000J0D01*
G01*
X8382550Y-16757425D02*
G75*
G03*
X8252550Y-16757425I-65000J0D01*
G01*
X9362550Y-16747425D02*
X9512550Y-16897425D01*
X9512550Y-16747425D02*
X9362550Y-16897425D01*
X9512550Y-16822425D02*
G75*
G03*
X9512550Y-16822425I-75000J0D01*
G01*
X9372550Y-16757425D02*
X9372550Y-16887425D01*
X9502550Y-16757425D02*
X9502550Y-16887425D01*
X9372550Y-16887425D02*
G75*
G03*
X9502550Y-16887425I65000J0D01*
G01*
X9502550Y-16757425D02*
G75*
G03*
X9372550Y-16757425I-65000J0D01*
G01*
X43959050Y-16747425D02*
X44109050Y-16897425D01*
X44109050Y-16747425D02*
X43959050Y-16897425D01*
X44109050Y-16822425D02*
G75*
G03*
X44109050Y-16822425I-75000J0D01*
G01*
X43969050Y-16757425D02*
X43969050Y-16887425D01*
X44099050Y-16757425D02*
X44099050Y-16887425D01*
X43969050Y-16887425D02*
G75*
G03*
X44099050Y-16887425I65000J0D01*
G01*
X44099050Y-16757425D02*
G75*
G03*
X43969050Y-16757425I-65000J0D01*
G01*
X45079050Y-16747425D02*
X45229050Y-16897425D01*
X45229050Y-16747425D02*
X45079050Y-16897425D01*
X45229050Y-16822425D02*
G75*
G03*
X45229050Y-16822425I-75000J0D01*
G01*
X45089050Y-16757425D02*
X45089050Y-16887425D01*
X45219050Y-16757425D02*
X45219050Y-16887425D01*
X45089050Y-16887425D02*
G75*
G03*
X45219050Y-16887425I65000J0D01*
G01*
X45219050Y-16757425D02*
G75*
G03*
X45089050Y-16757425I-65000J0D01*
G01*
D12*
X8139058Y-28964544D02*
X8139058Y-28664544D01*
X8210487Y-28664544D01*
X8253344Y-28678830D01*
X8281916Y-28707401D01*
X8296201Y-28735973D01*
X8310487Y-28793116D01*
X8310487Y-28835973D01*
X8296201Y-28893116D01*
X8281916Y-28921687D01*
X8253344Y-28950259D01*
X8210487Y-28964544D01*
X8139058Y-28964544D01*
X8439058Y-28964544D02*
X8439058Y-28764544D01*
X8439058Y-28821687D02*
X8453344Y-28793116D01*
X8467630Y-28778830D01*
X8496201Y-28764544D01*
X8524773Y-28764544D01*
X8624773Y-28964544D02*
X8624773Y-28764544D01*
X8624773Y-28664544D02*
X8610487Y-28678830D01*
X8624773Y-28693116D01*
X8639058Y-28678830D01*
X8624773Y-28664544D01*
X8624773Y-28693116D01*
X8810487Y-28964544D02*
X8781916Y-28950259D01*
X8767630Y-28921687D01*
X8767630Y-28664544D01*
X8967630Y-28964544D02*
X8939058Y-28950259D01*
X8924773Y-28921687D01*
X8924773Y-28664544D01*
X9310487Y-28964544D02*
X9310487Y-28664544D01*
X9410487Y-28878830D01*
X9510487Y-28664544D01*
X9510487Y-28964544D01*
X9781916Y-28964544D02*
X9781916Y-28807401D01*
X9767630Y-28778830D01*
X9739058Y-28764544D01*
X9681916Y-28764544D01*
X9653344Y-28778830D01*
X9781916Y-28950259D02*
X9753344Y-28964544D01*
X9681916Y-28964544D01*
X9653344Y-28950259D01*
X9639058Y-28921687D01*
X9639058Y-28893116D01*
X9653344Y-28864544D01*
X9681916Y-28850259D01*
X9753344Y-28850259D01*
X9781916Y-28835973D01*
X9924773Y-28764544D02*
X9924773Y-29064544D01*
X9924773Y-28778830D02*
X9953344Y-28764544D01*
X10010487Y-28764544D01*
X10039058Y-28778830D01*
X10053344Y-28793116D01*
X10067630Y-28821687D01*
X10067630Y-28907401D01*
X10053344Y-28935973D01*
X10039058Y-28950259D01*
X10010487Y-28964544D01*
X9953344Y-28964544D01*
X9924773Y-28950259D01*
X10196201Y-28935973D02*
X10210487Y-28950259D01*
X10196201Y-28964544D01*
X10181916Y-28950259D01*
X10196201Y-28935973D01*
X10196201Y-28964544D01*
X10196201Y-28778830D02*
X10210487Y-28793116D01*
X10196201Y-28807401D01*
X10181916Y-28793116D01*
X10196201Y-28778830D01*
X10196201Y-28807401D01*
X7812630Y-29438830D02*
X7852630Y-29478830D01*
X7852630Y-29438830D02*
X7812630Y-29478830D01*
X8196201Y-29294544D02*
X8224773Y-29294544D01*
X8253344Y-29308830D01*
X8267630Y-29323116D01*
X8281916Y-29351687D01*
X8296201Y-29408830D01*
X8296201Y-29480259D01*
X8281916Y-29537401D01*
X8267630Y-29565973D01*
X8253344Y-29580259D01*
X8224773Y-29594544D01*
X8196201Y-29594544D01*
X8167630Y-29580259D01*
X8153344Y-29565973D01*
X8139058Y-29537401D01*
X8124773Y-29480259D01*
X8124773Y-29408830D01*
X8139058Y-29351687D01*
X8153344Y-29323116D01*
X8167630Y-29308830D01*
X8196201Y-29294544D01*
X8424773Y-29565973D02*
X8439058Y-29580259D01*
X8424773Y-29594544D01*
X8410487Y-29580259D01*
X8424773Y-29565973D01*
X8424773Y-29594544D01*
X8696201Y-29394544D02*
X8696201Y-29594544D01*
X8624773Y-29280259D02*
X8553344Y-29494544D01*
X8739058Y-29494544D01*
X8910487Y-29294544D02*
X8939058Y-29294544D01*
X8967630Y-29308830D01*
X8981916Y-29323116D01*
X8996201Y-29351687D01*
X9010487Y-29408830D01*
X9010487Y-29480259D01*
X8996201Y-29537401D01*
X8981916Y-29565973D01*
X8967630Y-29580259D01*
X8939058Y-29594544D01*
X8910487Y-29594544D01*
X8881916Y-29580259D01*
X8867630Y-29565973D01*
X8853344Y-29537401D01*
X8839058Y-29480259D01*
X8839058Y-29408830D01*
X8853344Y-29351687D01*
X8867630Y-29323116D01*
X8881916Y-29308830D01*
X8910487Y-29294544D01*
X9196201Y-29294544D02*
X9224773Y-29294544D01*
X9253344Y-29308830D01*
X9267630Y-29323116D01*
X9281916Y-29351687D01*
X9296201Y-29408830D01*
X9296201Y-29480259D01*
X9281916Y-29537401D01*
X9267630Y-29565973D01*
X9253344Y-29580259D01*
X9224773Y-29594544D01*
X9196201Y-29594544D01*
X9167630Y-29580259D01*
X9153344Y-29565973D01*
X9139058Y-29537401D01*
X9124773Y-29480259D01*
X9124773Y-29408830D01*
X9139058Y-29351687D01*
X9153344Y-29323116D01*
X9167630Y-29308830D01*
X9196201Y-29294544D01*
X9424773Y-29594544D02*
X9424773Y-29394544D01*
X9424773Y-29423116D02*
X9439058Y-29408830D01*
X9467630Y-29394544D01*
X9510487Y-29394544D01*
X9539058Y-29408830D01*
X9553344Y-29437401D01*
X9553344Y-29594544D01*
X9553344Y-29437401D02*
X9567630Y-29408830D01*
X9596201Y-29394544D01*
X9639058Y-29394544D01*
X9667630Y-29408830D01*
X9681916Y-29437401D01*
X9681916Y-29594544D01*
X9824773Y-29594544D02*
X9824773Y-29394544D01*
X9824773Y-29423116D02*
X9839058Y-29408830D01*
X9867630Y-29394544D01*
X9910487Y-29394544D01*
X9939058Y-29408830D01*
X9953344Y-29437401D01*
X9953344Y-29594544D01*
X9953344Y-29437401D02*
X9967630Y-29408830D01*
X9996201Y-29394544D01*
X10039058Y-29394544D01*
X10067630Y-29408830D01*
X10081916Y-29437401D01*
X10081916Y-29594544D01*
X10667630Y-29280259D02*
X10410487Y-29665973D01*
X11053344Y-29294544D02*
X11081916Y-29294544D01*
X11110487Y-29308830D01*
X11124773Y-29323116D01*
X11139058Y-29351687D01*
X11153344Y-29408830D01*
X11153344Y-29480259D01*
X11139058Y-29537401D01*
X11124773Y-29565973D01*
X11110487Y-29580259D01*
X11081916Y-29594544D01*
X11053344Y-29594544D01*
X11024773Y-29580259D01*
X11010487Y-29565973D01*
X10996201Y-29537401D01*
X10981916Y-29480259D01*
X10981916Y-29408830D01*
X10996201Y-29351687D01*
X11010487Y-29323116D01*
X11024773Y-29308830D01*
X11053344Y-29294544D01*
X11281916Y-29565973D02*
X11296201Y-29580259D01*
X11281916Y-29594544D01*
X11267630Y-29580259D01*
X11281916Y-29565973D01*
X11281916Y-29594544D01*
X11481916Y-29294544D02*
X11510487Y-29294544D01*
X11539058Y-29308830D01*
X11553344Y-29323116D01*
X11567630Y-29351687D01*
X11581916Y-29408830D01*
X11581916Y-29480259D01*
X11567630Y-29537401D01*
X11553344Y-29565973D01*
X11539058Y-29580259D01*
X11510487Y-29594544D01*
X11481916Y-29594544D01*
X11453344Y-29580259D01*
X11439058Y-29565973D01*
X11424773Y-29537401D01*
X11410487Y-29480259D01*
X11410487Y-29408830D01*
X11424773Y-29351687D01*
X11439058Y-29323116D01*
X11453344Y-29308830D01*
X11481916Y-29294544D01*
X11867630Y-29594544D02*
X11696201Y-29594544D01*
X11781916Y-29594544D02*
X11781916Y-29294544D01*
X11753344Y-29337401D01*
X11724773Y-29365973D01*
X11696201Y-29380259D01*
X12139058Y-29294544D02*
X11996201Y-29294544D01*
X11981916Y-29437401D01*
X11996201Y-29423116D01*
X12024773Y-29408830D01*
X12096201Y-29408830D01*
X12124773Y-29423116D01*
X12139058Y-29437401D01*
X12153344Y-29465973D01*
X12153344Y-29537401D01*
X12139058Y-29565973D01*
X12124773Y-29580259D01*
X12096201Y-29594544D01*
X12024773Y-29594544D01*
X11996201Y-29580259D01*
X11981916Y-29565973D01*
X12253344Y-29294544D02*
X12453344Y-29294544D01*
X12324773Y-29594544D01*
X12553344Y-29294544D02*
X12553344Y-29351687D01*
X12667630Y-29294544D02*
X12667630Y-29351687D01*
X13110487Y-29708830D02*
X13096201Y-29694544D01*
X13067630Y-29651687D01*
X13053344Y-29623116D01*
X13039058Y-29580259D01*
X13024773Y-29508830D01*
X13024773Y-29451687D01*
X13039058Y-29380259D01*
X13053344Y-29337401D01*
X13067630Y-29308830D01*
X13096201Y-29265973D01*
X13110487Y-29251687D01*
X13267630Y-29423116D02*
X13239058Y-29408830D01*
X13224773Y-29394544D01*
X13210487Y-29365973D01*
X13210487Y-29351687D01*
X13224773Y-29323116D01*
X13239058Y-29308830D01*
X13267630Y-29294544D01*
X13324773Y-29294544D01*
X13353344Y-29308830D01*
X13367630Y-29323116D01*
X13381916Y-29351687D01*
X13381916Y-29365973D01*
X13367630Y-29394544D01*
X13353344Y-29408830D01*
X13324773Y-29423116D01*
X13267630Y-29423116D01*
X13239058Y-29437401D01*
X13224773Y-29451687D01*
X13210487Y-29480259D01*
X13210487Y-29537401D01*
X13224773Y-29565973D01*
X13239058Y-29580259D01*
X13267630Y-29594544D01*
X13324773Y-29594544D01*
X13353344Y-29580259D01*
X13367630Y-29565973D01*
X13381916Y-29537401D01*
X13381916Y-29480259D01*
X13367630Y-29451687D01*
X13353344Y-29437401D01*
X13324773Y-29423116D01*
X13653344Y-29294544D02*
X13510487Y-29294544D01*
X13496201Y-29437401D01*
X13510487Y-29423116D01*
X13539058Y-29408830D01*
X13610487Y-29408830D01*
X13639058Y-29423116D01*
X13653344Y-29437401D01*
X13667630Y-29465973D01*
X13667630Y-29537401D01*
X13653344Y-29565973D01*
X13639058Y-29580259D01*
X13610487Y-29594544D01*
X13539058Y-29594544D01*
X13510487Y-29580259D01*
X13496201Y-29565973D01*
X13924773Y-29394544D02*
X13924773Y-29594544D01*
X13853344Y-29280259D02*
X13781916Y-29494544D01*
X13967630Y-29494544D01*
X14310487Y-29594544D02*
X14310487Y-29294544D01*
X14439058Y-29594544D02*
X14439058Y-29437401D01*
X14424773Y-29408830D01*
X14396201Y-29394544D01*
X14353344Y-29394544D01*
X14324773Y-29408830D01*
X14310487Y-29423116D01*
X14624773Y-29594544D02*
X14596201Y-29580259D01*
X14581916Y-29565973D01*
X14567630Y-29537401D01*
X14567630Y-29451687D01*
X14581916Y-29423116D01*
X14596201Y-29408830D01*
X14624773Y-29394544D01*
X14667630Y-29394544D01*
X14696201Y-29408830D01*
X14710487Y-29423116D01*
X14724773Y-29451687D01*
X14724773Y-29537401D01*
X14710487Y-29565973D01*
X14696201Y-29580259D01*
X14667630Y-29594544D01*
X14624773Y-29594544D01*
X14896201Y-29594544D02*
X14867630Y-29580259D01*
X14853344Y-29551687D01*
X14853344Y-29294544D01*
X15124773Y-29580259D02*
X15096201Y-29594544D01*
X15039058Y-29594544D01*
X15010487Y-29580259D01*
X14996201Y-29551687D01*
X14996201Y-29437401D01*
X15010487Y-29408830D01*
X15039058Y-29394544D01*
X15096201Y-29394544D01*
X15124773Y-29408830D01*
X15139058Y-29437401D01*
X15139058Y-29465973D01*
X14996201Y-29494544D01*
X15253344Y-29580259D02*
X15281916Y-29594544D01*
X15339058Y-29594544D01*
X15367630Y-29580259D01*
X15381916Y-29551687D01*
X15381916Y-29537401D01*
X15367630Y-29508830D01*
X15339058Y-29494544D01*
X15296201Y-29494544D01*
X15267630Y-29480259D01*
X15253344Y-29451687D01*
X15253344Y-29437401D01*
X15267630Y-29408830D01*
X15296201Y-29394544D01*
X15339058Y-29394544D01*
X15367630Y-29408830D01*
X15481916Y-29708830D02*
X15496201Y-29694544D01*
X15524773Y-29651687D01*
X15539058Y-29623116D01*
X15553344Y-29580259D01*
X15567630Y-29508830D01*
X15567630Y-29451687D01*
X15553344Y-29380259D01*
X15539058Y-29337401D01*
X15524773Y-29308830D01*
X15496201Y-29265973D01*
X15481916Y-29251687D01*
X7852630Y-29854830D02*
G75*
G03*
X7852630Y-29854830I-25000J0D01*
G01*
X8196201Y-29690544D02*
X8224773Y-29690544D01*
X8253344Y-29704830D01*
X8267630Y-29719116D01*
X8281916Y-29747687D01*
X8296201Y-29804830D01*
X8296201Y-29876259D01*
X8281916Y-29933401D01*
X8267630Y-29961973D01*
X8253344Y-29976259D01*
X8224773Y-29990544D01*
X8196201Y-29990544D01*
X8167630Y-29976259D01*
X8153344Y-29961973D01*
X8139058Y-29933401D01*
X8124773Y-29876259D01*
X8124773Y-29804830D01*
X8139058Y-29747687D01*
X8153344Y-29719116D01*
X8167630Y-29704830D01*
X8196201Y-29690544D01*
X8424773Y-29961973D02*
X8439058Y-29976259D01*
X8424773Y-29990544D01*
X8410487Y-29976259D01*
X8424773Y-29961973D01*
X8424773Y-29990544D01*
X8710487Y-29690544D02*
X8567630Y-29690544D01*
X8553344Y-29833401D01*
X8567630Y-29819116D01*
X8596201Y-29804830D01*
X8667630Y-29804830D01*
X8696201Y-29819116D01*
X8710487Y-29833401D01*
X8724773Y-29861973D01*
X8724773Y-29933401D01*
X8710487Y-29961973D01*
X8696201Y-29976259D01*
X8667630Y-29990544D01*
X8596201Y-29990544D01*
X8567630Y-29976259D01*
X8553344Y-29961973D01*
X8910487Y-29690544D02*
X8939058Y-29690544D01*
X8967630Y-29704830D01*
X8981916Y-29719116D01*
X8996201Y-29747687D01*
X9010487Y-29804830D01*
X9010487Y-29876259D01*
X8996201Y-29933401D01*
X8981916Y-29961973D01*
X8967630Y-29976259D01*
X8939058Y-29990544D01*
X8910487Y-29990544D01*
X8881916Y-29976259D01*
X8867630Y-29961973D01*
X8853344Y-29933401D01*
X8839058Y-29876259D01*
X8839058Y-29804830D01*
X8853344Y-29747687D01*
X8867630Y-29719116D01*
X8881916Y-29704830D01*
X8910487Y-29690544D01*
X9196201Y-29690544D02*
X9224773Y-29690544D01*
X9253344Y-29704830D01*
X9267630Y-29719116D01*
X9281916Y-29747687D01*
X9296201Y-29804830D01*
X9296201Y-29876259D01*
X9281916Y-29933401D01*
X9267630Y-29961973D01*
X9253344Y-29976259D01*
X9224773Y-29990544D01*
X9196201Y-29990544D01*
X9167630Y-29976259D01*
X9153344Y-29961973D01*
X9139058Y-29933401D01*
X9124773Y-29876259D01*
X9124773Y-29804830D01*
X9139058Y-29747687D01*
X9153344Y-29719116D01*
X9167630Y-29704830D01*
X9196201Y-29690544D01*
X9424773Y-29990544D02*
X9424773Y-29790544D01*
X9424773Y-29819116D02*
X9439058Y-29804830D01*
X9467630Y-29790544D01*
X9510487Y-29790544D01*
X9539058Y-29804830D01*
X9553344Y-29833401D01*
X9553344Y-29990544D01*
X9553344Y-29833401D02*
X9567630Y-29804830D01*
X9596201Y-29790544D01*
X9639058Y-29790544D01*
X9667630Y-29804830D01*
X9681916Y-29833401D01*
X9681916Y-29990544D01*
X9824773Y-29990544D02*
X9824773Y-29790544D01*
X9824773Y-29819116D02*
X9839058Y-29804830D01*
X9867630Y-29790544D01*
X9910487Y-29790544D01*
X9939058Y-29804830D01*
X9953344Y-29833401D01*
X9953344Y-29990544D01*
X9953344Y-29833401D02*
X9967630Y-29804830D01*
X9996201Y-29790544D01*
X10039058Y-29790544D01*
X10067630Y-29804830D01*
X10081916Y-29833401D01*
X10081916Y-29990544D01*
X10667630Y-29676259D02*
X10410487Y-30061973D01*
X11053344Y-29690544D02*
X11081916Y-29690544D01*
X11110487Y-29704830D01*
X11124773Y-29719116D01*
X11139058Y-29747687D01*
X11153344Y-29804830D01*
X11153344Y-29876259D01*
X11139058Y-29933401D01*
X11124773Y-29961973D01*
X11110487Y-29976259D01*
X11081916Y-29990544D01*
X11053344Y-29990544D01*
X11024773Y-29976259D01*
X11010487Y-29961973D01*
X10996201Y-29933401D01*
X10981916Y-29876259D01*
X10981916Y-29804830D01*
X10996201Y-29747687D01*
X11010487Y-29719116D01*
X11024773Y-29704830D01*
X11053344Y-29690544D01*
X11281916Y-29961973D02*
X11296201Y-29976259D01*
X11281916Y-29990544D01*
X11267630Y-29976259D01*
X11281916Y-29961973D01*
X11281916Y-29990544D01*
X11481916Y-29690544D02*
X11510487Y-29690544D01*
X11539058Y-29704830D01*
X11553344Y-29719116D01*
X11567630Y-29747687D01*
X11581916Y-29804830D01*
X11581916Y-29876259D01*
X11567630Y-29933401D01*
X11553344Y-29961973D01*
X11539058Y-29976259D01*
X11510487Y-29990544D01*
X11481916Y-29990544D01*
X11453344Y-29976259D01*
X11439058Y-29961973D01*
X11424773Y-29933401D01*
X11410487Y-29876259D01*
X11410487Y-29804830D01*
X11424773Y-29747687D01*
X11439058Y-29719116D01*
X11453344Y-29704830D01*
X11481916Y-29690544D01*
X11867630Y-29990544D02*
X11696201Y-29990544D01*
X11781916Y-29990544D02*
X11781916Y-29690544D01*
X11753344Y-29733401D01*
X11724773Y-29761973D01*
X11696201Y-29776259D01*
X12010487Y-29990544D02*
X12067630Y-29990544D01*
X12096201Y-29976259D01*
X12110487Y-29961973D01*
X12139058Y-29919116D01*
X12153344Y-29861973D01*
X12153344Y-29747687D01*
X12139058Y-29719116D01*
X12124773Y-29704830D01*
X12096201Y-29690544D01*
X12039058Y-29690544D01*
X12010487Y-29704830D01*
X11996201Y-29719116D01*
X11981916Y-29747687D01*
X11981916Y-29819116D01*
X11996201Y-29847687D01*
X12010487Y-29861973D01*
X12039058Y-29876259D01*
X12096201Y-29876259D01*
X12124773Y-29861973D01*
X12139058Y-29847687D01*
X12153344Y-29819116D01*
X12253344Y-29690544D02*
X12453344Y-29690544D01*
X12324773Y-29990544D01*
X12553344Y-29690544D02*
X12553344Y-29747687D01*
X12667630Y-29690544D02*
X12667630Y-29747687D01*
X13110487Y-30104830D02*
X13096201Y-30090544D01*
X13067630Y-30047687D01*
X13053344Y-30019116D01*
X13039058Y-29976259D01*
X13024773Y-29904830D01*
X13024773Y-29847687D01*
X13039058Y-29776259D01*
X13053344Y-29733401D01*
X13067630Y-29704830D01*
X13096201Y-29661973D01*
X13110487Y-29647687D01*
X13196201Y-29690544D02*
X13381916Y-29690544D01*
X13281916Y-29804830D01*
X13324773Y-29804830D01*
X13353344Y-29819116D01*
X13367630Y-29833401D01*
X13381916Y-29861973D01*
X13381916Y-29933401D01*
X13367630Y-29961973D01*
X13353344Y-29976259D01*
X13324773Y-29990544D01*
X13239058Y-29990544D01*
X13210487Y-29976259D01*
X13196201Y-29961973D01*
X13481916Y-29690544D02*
X13667630Y-29690544D01*
X13567630Y-29804830D01*
X13610487Y-29804830D01*
X13639058Y-29819116D01*
X13653344Y-29833401D01*
X13667630Y-29861973D01*
X13667630Y-29933401D01*
X13653344Y-29961973D01*
X13639058Y-29976259D01*
X13610487Y-29990544D01*
X13524773Y-29990544D01*
X13496201Y-29976259D01*
X13481916Y-29961973D01*
X14024773Y-29990544D02*
X14024773Y-29690544D01*
X14153344Y-29990544D02*
X14153344Y-29833401D01*
X14139058Y-29804830D01*
X14110487Y-29790544D01*
X14067630Y-29790544D01*
X14039058Y-29804830D01*
X14024773Y-29819116D01*
X14339058Y-29990544D02*
X14310487Y-29976259D01*
X14296201Y-29961973D01*
X14281916Y-29933401D01*
X14281916Y-29847687D01*
X14296201Y-29819116D01*
X14310487Y-29804830D01*
X14339058Y-29790544D01*
X14381916Y-29790544D01*
X14410487Y-29804830D01*
X14424773Y-29819116D01*
X14439058Y-29847687D01*
X14439058Y-29933401D01*
X14424773Y-29961973D01*
X14410487Y-29976259D01*
X14381916Y-29990544D01*
X14339058Y-29990544D01*
X14610487Y-29990544D02*
X14581916Y-29976259D01*
X14567630Y-29947687D01*
X14567630Y-29690544D01*
X14839058Y-29976259D02*
X14810487Y-29990544D01*
X14753344Y-29990544D01*
X14724773Y-29976259D01*
X14710487Y-29947687D01*
X14710487Y-29833401D01*
X14724773Y-29804830D01*
X14753344Y-29790544D01*
X14810487Y-29790544D01*
X14839058Y-29804830D01*
X14853344Y-29833401D01*
X14853344Y-29861973D01*
X14710487Y-29890544D01*
X14967630Y-29976259D02*
X14996201Y-29990544D01*
X15053344Y-29990544D01*
X15081916Y-29976259D01*
X15096201Y-29947687D01*
X15096201Y-29933401D01*
X15081916Y-29904830D01*
X15053344Y-29890544D01*
X15010487Y-29890544D01*
X14981916Y-29876259D01*
X14967630Y-29847687D01*
X14967630Y-29833401D01*
X14981916Y-29804830D01*
X15010487Y-29790544D01*
X15053344Y-29790544D01*
X15081916Y-29804830D01*
X15196201Y-30104830D02*
X15210487Y-30090544D01*
X15239058Y-30047687D01*
X15253344Y-30019116D01*
X15267630Y-29976259D01*
X15281916Y-29904830D01*
X15281916Y-29847687D01*
X15267630Y-29776259D01*
X15253344Y-29733401D01*
X15239058Y-29704830D01*
X15210487Y-29661973D01*
X15196201Y-29647687D01*
X7822630Y-30220830D02*
X7822630Y-30280830D01*
X7792630Y-30250830D02*
X7852630Y-30250830D01*
X8196201Y-30086544D02*
X8224773Y-30086544D01*
X8253344Y-30100830D01*
X8267630Y-30115116D01*
X8281916Y-30143687D01*
X8296201Y-30200830D01*
X8296201Y-30272259D01*
X8281916Y-30329401D01*
X8267630Y-30357973D01*
X8253344Y-30372259D01*
X8224773Y-30386544D01*
X8196201Y-30386544D01*
X8167630Y-30372259D01*
X8153344Y-30357973D01*
X8139058Y-30329401D01*
X8124773Y-30272259D01*
X8124773Y-30200830D01*
X8139058Y-30143687D01*
X8153344Y-30115116D01*
X8167630Y-30100830D01*
X8196201Y-30086544D01*
X8424773Y-30357973D02*
X8439058Y-30372259D01*
X8424773Y-30386544D01*
X8410487Y-30372259D01*
X8424773Y-30357973D01*
X8424773Y-30386544D01*
X8696201Y-30086544D02*
X8639058Y-30086544D01*
X8610487Y-30100830D01*
X8596201Y-30115116D01*
X8567630Y-30157973D01*
X8553344Y-30215116D01*
X8553344Y-30329401D01*
X8567630Y-30357973D01*
X8581916Y-30372259D01*
X8610487Y-30386544D01*
X8667630Y-30386544D01*
X8696201Y-30372259D01*
X8710487Y-30357973D01*
X8724773Y-30329401D01*
X8724773Y-30257973D01*
X8710487Y-30229401D01*
X8696201Y-30215116D01*
X8667630Y-30200830D01*
X8610487Y-30200830D01*
X8581916Y-30215116D01*
X8567630Y-30229401D01*
X8553344Y-30257973D01*
X8910487Y-30086544D02*
X8939058Y-30086544D01*
X8967630Y-30100830D01*
X8981916Y-30115116D01*
X8996201Y-30143687D01*
X9010487Y-30200830D01*
X9010487Y-30272259D01*
X8996201Y-30329401D01*
X8981916Y-30357973D01*
X8967630Y-30372259D01*
X8939058Y-30386544D01*
X8910487Y-30386544D01*
X8881916Y-30372259D01*
X8867630Y-30357973D01*
X8853344Y-30329401D01*
X8839058Y-30272259D01*
X8839058Y-30200830D01*
X8853344Y-30143687D01*
X8867630Y-30115116D01*
X8881916Y-30100830D01*
X8910487Y-30086544D01*
X9196201Y-30086544D02*
X9224773Y-30086544D01*
X9253344Y-30100830D01*
X9267630Y-30115116D01*
X9281916Y-30143687D01*
X9296201Y-30200830D01*
X9296201Y-30272259D01*
X9281916Y-30329401D01*
X9267630Y-30357973D01*
X9253344Y-30372259D01*
X9224773Y-30386544D01*
X9196201Y-30386544D01*
X9167630Y-30372259D01*
X9153344Y-30357973D01*
X9139058Y-30329401D01*
X9124773Y-30272259D01*
X9124773Y-30200830D01*
X9139058Y-30143687D01*
X9153344Y-30115116D01*
X9167630Y-30100830D01*
X9196201Y-30086544D01*
X9424773Y-30386544D02*
X9424773Y-30186544D01*
X9424773Y-30215116D02*
X9439058Y-30200830D01*
X9467630Y-30186544D01*
X9510487Y-30186544D01*
X9539058Y-30200830D01*
X9553344Y-30229401D01*
X9553344Y-30386544D01*
X9553344Y-30229401D02*
X9567630Y-30200830D01*
X9596201Y-30186544D01*
X9639058Y-30186544D01*
X9667630Y-30200830D01*
X9681916Y-30229401D01*
X9681916Y-30386544D01*
X9824773Y-30386544D02*
X9824773Y-30186544D01*
X9824773Y-30215116D02*
X9839058Y-30200830D01*
X9867630Y-30186544D01*
X9910487Y-30186544D01*
X9939058Y-30200830D01*
X9953344Y-30229401D01*
X9953344Y-30386544D01*
X9953344Y-30229401D02*
X9967630Y-30200830D01*
X9996201Y-30186544D01*
X10039058Y-30186544D01*
X10067630Y-30200830D01*
X10081916Y-30229401D01*
X10081916Y-30386544D01*
X10667630Y-30072259D02*
X10410487Y-30457973D01*
X11053344Y-30086544D02*
X11081916Y-30086544D01*
X11110487Y-30100830D01*
X11124773Y-30115116D01*
X11139058Y-30143687D01*
X11153344Y-30200830D01*
X11153344Y-30272259D01*
X11139058Y-30329401D01*
X11124773Y-30357973D01*
X11110487Y-30372259D01*
X11081916Y-30386544D01*
X11053344Y-30386544D01*
X11024773Y-30372259D01*
X11010487Y-30357973D01*
X10996201Y-30329401D01*
X10981916Y-30272259D01*
X10981916Y-30200830D01*
X10996201Y-30143687D01*
X11010487Y-30115116D01*
X11024773Y-30100830D01*
X11053344Y-30086544D01*
X11281916Y-30357973D02*
X11296201Y-30372259D01*
X11281916Y-30386544D01*
X11267630Y-30372259D01*
X11281916Y-30357973D01*
X11281916Y-30386544D01*
X11481916Y-30086544D02*
X11510487Y-30086544D01*
X11539058Y-30100830D01*
X11553344Y-30115116D01*
X11567630Y-30143687D01*
X11581916Y-30200830D01*
X11581916Y-30272259D01*
X11567630Y-30329401D01*
X11553344Y-30357973D01*
X11539058Y-30372259D01*
X11510487Y-30386544D01*
X11481916Y-30386544D01*
X11453344Y-30372259D01*
X11439058Y-30357973D01*
X11424773Y-30329401D01*
X11410487Y-30272259D01*
X11410487Y-30200830D01*
X11424773Y-30143687D01*
X11439058Y-30115116D01*
X11453344Y-30100830D01*
X11481916Y-30086544D01*
X11696201Y-30115116D02*
X11710487Y-30100830D01*
X11739058Y-30086544D01*
X11810487Y-30086544D01*
X11839058Y-30100830D01*
X11853344Y-30115116D01*
X11867630Y-30143687D01*
X11867630Y-30172259D01*
X11853344Y-30215116D01*
X11681916Y-30386544D01*
X11867630Y-30386544D01*
X11967630Y-30086544D02*
X12153344Y-30086544D01*
X12053344Y-30200830D01*
X12096201Y-30200830D01*
X12124773Y-30215116D01*
X12139058Y-30229401D01*
X12153344Y-30257973D01*
X12153344Y-30329401D01*
X12139058Y-30357973D01*
X12124773Y-30372259D01*
X12096201Y-30386544D01*
X12010487Y-30386544D01*
X11981916Y-30372259D01*
X11967630Y-30357973D01*
X12410487Y-30086544D02*
X12353344Y-30086544D01*
X12324773Y-30100830D01*
X12310487Y-30115116D01*
X12281916Y-30157973D01*
X12267630Y-30215116D01*
X12267630Y-30329401D01*
X12281916Y-30357973D01*
X12296201Y-30372259D01*
X12324773Y-30386544D01*
X12381916Y-30386544D01*
X12410487Y-30372259D01*
X12424773Y-30357973D01*
X12439058Y-30329401D01*
X12439058Y-30257973D01*
X12424773Y-30229401D01*
X12410487Y-30215116D01*
X12381916Y-30200830D01*
X12324773Y-30200830D01*
X12296201Y-30215116D01*
X12281916Y-30229401D01*
X12267630Y-30257973D01*
X12553344Y-30086544D02*
X12553344Y-30143687D01*
X12667630Y-30086544D02*
X12667630Y-30143687D01*
X13110487Y-30500830D02*
X13096201Y-30486544D01*
X13067630Y-30443687D01*
X13053344Y-30415116D01*
X13039058Y-30372259D01*
X13024773Y-30300830D01*
X13024773Y-30243687D01*
X13039058Y-30172259D01*
X13053344Y-30129401D01*
X13067630Y-30100830D01*
X13096201Y-30057973D01*
X13110487Y-30043687D01*
X13281916Y-30086544D02*
X13310487Y-30086544D01*
X13339058Y-30100830D01*
X13353344Y-30115116D01*
X13367630Y-30143687D01*
X13381916Y-30200830D01*
X13381916Y-30272259D01*
X13367630Y-30329401D01*
X13353344Y-30357973D01*
X13339058Y-30372259D01*
X13310487Y-30386544D01*
X13281916Y-30386544D01*
X13253344Y-30372259D01*
X13239058Y-30357973D01*
X13224773Y-30329401D01*
X13210487Y-30272259D01*
X13210487Y-30200830D01*
X13224773Y-30143687D01*
X13239058Y-30115116D01*
X13253344Y-30100830D01*
X13281916Y-30086544D01*
X13739058Y-30386544D02*
X13739058Y-30086544D01*
X13867630Y-30386544D02*
X13867630Y-30229401D01*
X13853344Y-30200830D01*
X13824773Y-30186544D01*
X13781916Y-30186544D01*
X13753344Y-30200830D01*
X13739058Y-30215116D01*
X14053344Y-30386544D02*
X14024773Y-30372259D01*
X14010487Y-30357973D01*
X13996201Y-30329401D01*
X13996201Y-30243687D01*
X14010487Y-30215116D01*
X14024773Y-30200830D01*
X14053344Y-30186544D01*
X14096201Y-30186544D01*
X14124773Y-30200830D01*
X14139058Y-30215116D01*
X14153344Y-30243687D01*
X14153344Y-30329401D01*
X14139058Y-30357973D01*
X14124773Y-30372259D01*
X14096201Y-30386544D01*
X14053344Y-30386544D01*
X14324773Y-30386544D02*
X14296201Y-30372259D01*
X14281916Y-30343687D01*
X14281916Y-30086544D01*
X14553344Y-30372259D02*
X14524773Y-30386544D01*
X14467630Y-30386544D01*
X14439058Y-30372259D01*
X14424773Y-30343687D01*
X14424773Y-30229401D01*
X14439058Y-30200830D01*
X14467630Y-30186544D01*
X14524773Y-30186544D01*
X14553344Y-30200830D01*
X14567630Y-30229401D01*
X14567630Y-30257973D01*
X14424773Y-30286544D01*
X14681916Y-30372259D02*
X14710487Y-30386544D01*
X14767630Y-30386544D01*
X14796201Y-30372259D01*
X14810487Y-30343687D01*
X14810487Y-30329401D01*
X14796201Y-30300830D01*
X14767630Y-30286544D01*
X14724773Y-30286544D01*
X14696201Y-30272259D01*
X14681916Y-30243687D01*
X14681916Y-30229401D01*
X14696201Y-30200830D01*
X14724773Y-30186544D01*
X14767630Y-30186544D01*
X14796201Y-30200830D01*
X15167630Y-30272259D02*
X15396201Y-30272259D01*
X15281916Y-30386544D02*
X15281916Y-30157973D01*
X15896201Y-30186544D02*
X15896201Y-30386544D01*
X15824773Y-30072259D02*
X15753344Y-30286544D01*
X15939058Y-30286544D01*
X16267630Y-30372259D02*
X16296201Y-30386544D01*
X16353344Y-30386544D01*
X16381916Y-30372259D01*
X16396201Y-30343687D01*
X16396201Y-30329401D01*
X16381916Y-30300830D01*
X16353344Y-30286544D01*
X16310487Y-30286544D01*
X16281916Y-30272259D01*
X16267630Y-30243687D01*
X16267630Y-30229401D01*
X16281916Y-30200830D01*
X16310487Y-30186544D01*
X16353344Y-30186544D01*
X16381916Y-30200830D01*
X16567630Y-30386544D02*
X16539058Y-30372259D01*
X16524773Y-30343687D01*
X16524773Y-30086544D01*
X16724773Y-30386544D02*
X16696201Y-30372259D01*
X16681916Y-30357973D01*
X16667630Y-30329401D01*
X16667630Y-30243687D01*
X16681916Y-30215116D01*
X16696201Y-30200830D01*
X16724773Y-30186544D01*
X16767630Y-30186544D01*
X16796201Y-30200830D01*
X16810487Y-30215116D01*
X16824773Y-30243687D01*
X16824773Y-30329401D01*
X16810487Y-30357973D01*
X16796201Y-30372259D01*
X16767630Y-30386544D01*
X16724773Y-30386544D01*
X16910487Y-30186544D02*
X17024773Y-30186544D01*
X16953344Y-30086544D02*
X16953344Y-30343687D01*
X16967630Y-30372259D01*
X16996201Y-30386544D01*
X17024773Y-30386544D01*
X17110487Y-30372259D02*
X17139058Y-30386544D01*
X17196201Y-30386544D01*
X17224773Y-30372259D01*
X17239058Y-30343687D01*
X17239058Y-30329401D01*
X17224773Y-30300830D01*
X17196201Y-30286544D01*
X17153344Y-30286544D01*
X17124773Y-30272259D01*
X17110487Y-30243687D01*
X17110487Y-30229401D01*
X17124773Y-30200830D01*
X17153344Y-30186544D01*
X17196201Y-30186544D01*
X17224773Y-30200830D01*
X17339058Y-30500830D02*
X17353344Y-30486544D01*
X17381916Y-30443687D01*
X17396201Y-30415116D01*
X17410487Y-30372259D01*
X17424773Y-30300830D01*
X17424773Y-30243687D01*
X17410487Y-30172259D01*
X17396201Y-30129401D01*
X17381916Y-30100830D01*
X17353344Y-30057973D01*
X17339058Y-30043687D01*
X7840727Y-30675567D02*
X7840727Y-30618093D01*
X7783253Y-30618093D01*
X7783253Y-30675567D01*
X7840727Y-30675567D01*
X8196201Y-30482544D02*
X8224773Y-30482544D01*
X8253344Y-30496830D01*
X8267630Y-30511116D01*
X8281916Y-30539687D01*
X8296201Y-30596830D01*
X8296201Y-30668259D01*
X8281916Y-30725401D01*
X8267630Y-30753973D01*
X8253344Y-30768259D01*
X8224773Y-30782544D01*
X8196201Y-30782544D01*
X8167630Y-30768259D01*
X8153344Y-30753973D01*
X8139058Y-30725401D01*
X8124773Y-30668259D01*
X8124773Y-30596830D01*
X8139058Y-30539687D01*
X8153344Y-30511116D01*
X8167630Y-30496830D01*
X8196201Y-30482544D01*
X8424773Y-30753973D02*
X8439058Y-30768259D01*
X8424773Y-30782544D01*
X8410487Y-30768259D01*
X8424773Y-30753973D01*
X8424773Y-30782544D01*
X8610487Y-30611116D02*
X8581916Y-30596830D01*
X8567630Y-30582544D01*
X8553344Y-30553973D01*
X8553344Y-30539687D01*
X8567630Y-30511116D01*
X8581916Y-30496830D01*
X8610487Y-30482544D01*
X8667630Y-30482544D01*
X8696201Y-30496830D01*
X8710487Y-30511116D01*
X8724773Y-30539687D01*
X8724773Y-30553973D01*
X8710487Y-30582544D01*
X8696201Y-30596830D01*
X8667630Y-30611116D01*
X8610487Y-30611116D01*
X8581916Y-30625401D01*
X8567630Y-30639687D01*
X8553344Y-30668259D01*
X8553344Y-30725401D01*
X8567630Y-30753973D01*
X8581916Y-30768259D01*
X8610487Y-30782544D01*
X8667630Y-30782544D01*
X8696201Y-30768259D01*
X8710487Y-30753973D01*
X8724773Y-30725401D01*
X8724773Y-30668259D01*
X8710487Y-30639687D01*
X8696201Y-30625401D01*
X8667630Y-30611116D01*
X9010487Y-30782544D02*
X8839058Y-30782544D01*
X8924773Y-30782544D02*
X8924773Y-30482544D01*
X8896201Y-30525401D01*
X8867630Y-30553973D01*
X8839058Y-30568259D01*
X9110487Y-30482544D02*
X9296201Y-30482544D01*
X9196201Y-30596830D01*
X9239058Y-30596830D01*
X9267630Y-30611116D01*
X9281916Y-30625401D01*
X9296201Y-30653973D01*
X9296201Y-30725401D01*
X9281916Y-30753973D01*
X9267630Y-30768259D01*
X9239058Y-30782544D01*
X9153344Y-30782544D01*
X9124773Y-30768259D01*
X9110487Y-30753973D01*
X9424773Y-30782544D02*
X9424773Y-30582544D01*
X9424773Y-30611116D02*
X9439058Y-30596830D01*
X9467630Y-30582544D01*
X9510487Y-30582544D01*
X9539058Y-30596830D01*
X9553344Y-30625401D01*
X9553344Y-30782544D01*
X9553344Y-30625401D02*
X9567630Y-30596830D01*
X9596201Y-30582544D01*
X9639058Y-30582544D01*
X9667630Y-30596830D01*
X9681916Y-30625401D01*
X9681916Y-30782544D01*
X9824773Y-30782544D02*
X9824773Y-30582544D01*
X9824773Y-30611116D02*
X9839058Y-30596830D01*
X9867630Y-30582544D01*
X9910487Y-30582544D01*
X9939058Y-30596830D01*
X9953344Y-30625401D01*
X9953344Y-30782544D01*
X9953344Y-30625401D02*
X9967630Y-30596830D01*
X9996201Y-30582544D01*
X10039058Y-30582544D01*
X10067630Y-30596830D01*
X10081916Y-30625401D01*
X10081916Y-30782544D01*
X10667630Y-30468259D02*
X10410487Y-30853973D01*
X11053344Y-30482544D02*
X11081916Y-30482544D01*
X11110487Y-30496830D01*
X11124773Y-30511116D01*
X11139058Y-30539687D01*
X11153344Y-30596830D01*
X11153344Y-30668259D01*
X11139058Y-30725401D01*
X11124773Y-30753973D01*
X11110487Y-30768259D01*
X11081916Y-30782544D01*
X11053344Y-30782544D01*
X11024773Y-30768259D01*
X11010487Y-30753973D01*
X10996201Y-30725401D01*
X10981916Y-30668259D01*
X10981916Y-30596830D01*
X10996201Y-30539687D01*
X11010487Y-30511116D01*
X11024773Y-30496830D01*
X11053344Y-30482544D01*
X11281916Y-30753973D02*
X11296201Y-30768259D01*
X11281916Y-30782544D01*
X11267630Y-30768259D01*
X11281916Y-30753973D01*
X11281916Y-30782544D01*
X11481916Y-30482544D02*
X11510487Y-30482544D01*
X11539058Y-30496830D01*
X11553344Y-30511116D01*
X11567630Y-30539687D01*
X11581916Y-30596830D01*
X11581916Y-30668259D01*
X11567630Y-30725401D01*
X11553344Y-30753973D01*
X11539058Y-30768259D01*
X11510487Y-30782544D01*
X11481916Y-30782544D01*
X11453344Y-30768259D01*
X11439058Y-30753973D01*
X11424773Y-30725401D01*
X11410487Y-30668259D01*
X11410487Y-30596830D01*
X11424773Y-30539687D01*
X11439058Y-30511116D01*
X11453344Y-30496830D01*
X11481916Y-30482544D01*
X11681916Y-30482544D02*
X11867630Y-30482544D01*
X11767630Y-30596830D01*
X11810487Y-30596830D01*
X11839058Y-30611116D01*
X11853344Y-30625401D01*
X11867630Y-30653973D01*
X11867630Y-30725401D01*
X11853344Y-30753973D01*
X11839058Y-30768259D01*
X11810487Y-30782544D01*
X11724773Y-30782544D01*
X11696201Y-30768259D01*
X11681916Y-30753973D01*
X11981916Y-30511116D02*
X11996201Y-30496830D01*
X12024773Y-30482544D01*
X12096201Y-30482544D01*
X12124773Y-30496830D01*
X12139058Y-30511116D01*
X12153344Y-30539687D01*
X12153344Y-30568259D01*
X12139058Y-30611116D01*
X11967630Y-30782544D01*
X12153344Y-30782544D01*
X12339058Y-30482544D02*
X12367630Y-30482544D01*
X12396201Y-30496830D01*
X12410487Y-30511116D01*
X12424773Y-30539687D01*
X12439058Y-30596830D01*
X12439058Y-30668259D01*
X12424773Y-30725401D01*
X12410487Y-30753973D01*
X12396201Y-30768259D01*
X12367630Y-30782544D01*
X12339058Y-30782544D01*
X12310487Y-30768259D01*
X12296201Y-30753973D01*
X12281916Y-30725401D01*
X12267630Y-30668259D01*
X12267630Y-30596830D01*
X12281916Y-30539687D01*
X12296201Y-30511116D01*
X12310487Y-30496830D01*
X12339058Y-30482544D01*
X12553344Y-30482544D02*
X12553344Y-30539687D01*
X12667630Y-30482544D02*
X12667630Y-30539687D01*
X13110487Y-30896830D02*
X13096201Y-30882544D01*
X13067630Y-30839687D01*
X13053344Y-30811116D01*
X13039058Y-30768259D01*
X13024773Y-30696830D01*
X13024773Y-30639687D01*
X13039058Y-30568259D01*
X13053344Y-30525401D01*
X13067630Y-30496830D01*
X13096201Y-30453973D01*
X13110487Y-30439687D01*
X13353344Y-30582544D02*
X13353344Y-30782544D01*
X13281916Y-30468259D02*
X13210487Y-30682544D01*
X13396201Y-30682544D01*
X13739058Y-30782544D02*
X13739058Y-30482544D01*
X13867630Y-30782544D02*
X13867630Y-30625401D01*
X13853344Y-30596830D01*
X13824773Y-30582544D01*
X13781916Y-30582544D01*
X13753344Y-30596830D01*
X13739058Y-30611116D01*
X14053344Y-30782544D02*
X14024773Y-30768259D01*
X14010487Y-30753973D01*
X13996201Y-30725401D01*
X13996201Y-30639687D01*
X14010487Y-30611116D01*
X14024773Y-30596830D01*
X14053344Y-30582544D01*
X14096201Y-30582544D01*
X14124773Y-30596830D01*
X14139058Y-30611116D01*
X14153344Y-30639687D01*
X14153344Y-30725401D01*
X14139058Y-30753973D01*
X14124773Y-30768259D01*
X14096201Y-30782544D01*
X14053344Y-30782544D01*
X14324773Y-30782544D02*
X14296201Y-30768259D01*
X14281916Y-30739687D01*
X14281916Y-30482544D01*
X14553344Y-30768259D02*
X14524773Y-30782544D01*
X14467630Y-30782544D01*
X14439058Y-30768259D01*
X14424773Y-30739687D01*
X14424773Y-30625401D01*
X14439058Y-30596830D01*
X14467630Y-30582544D01*
X14524773Y-30582544D01*
X14553344Y-30596830D01*
X14567630Y-30625401D01*
X14567630Y-30653973D01*
X14424773Y-30682544D01*
X14681916Y-30768259D02*
X14710487Y-30782544D01*
X14767630Y-30782544D01*
X14796201Y-30768259D01*
X14810487Y-30739687D01*
X14810487Y-30725401D01*
X14796201Y-30696830D01*
X14767630Y-30682544D01*
X14724773Y-30682544D01*
X14696201Y-30668259D01*
X14681916Y-30639687D01*
X14681916Y-30625401D01*
X14696201Y-30596830D01*
X14724773Y-30582544D01*
X14767630Y-30582544D01*
X14796201Y-30596830D01*
X14910487Y-30896830D02*
X14924773Y-30882544D01*
X14953344Y-30839687D01*
X14967630Y-30811116D01*
X14981916Y-30768259D01*
X14996201Y-30696830D01*
X14996201Y-30639687D01*
X14981916Y-30568259D01*
X14967630Y-30525401D01*
X14953344Y-30496830D01*
X14924773Y-30453973D01*
X14910487Y-30439687D01*
X7802630Y-31092830D02*
X7852630Y-31042830D01*
X7802630Y-30992830D01*
X7752630Y-31042830D01*
X7802630Y-31092830D01*
X8296201Y-31178544D02*
X8124773Y-31178544D01*
X8210487Y-31178544D02*
X8210487Y-30878544D01*
X8181916Y-30921401D01*
X8153344Y-30949973D01*
X8124773Y-30964259D01*
X8424773Y-31149973D02*
X8439058Y-31164259D01*
X8424773Y-31178544D01*
X8410487Y-31164259D01*
X8424773Y-31149973D01*
X8424773Y-31178544D01*
X8624773Y-30878544D02*
X8653344Y-30878544D01*
X8681916Y-30892830D01*
X8696201Y-30907116D01*
X8710487Y-30935687D01*
X8724773Y-30992830D01*
X8724773Y-31064259D01*
X8710487Y-31121401D01*
X8696201Y-31149973D01*
X8681916Y-31164259D01*
X8653344Y-31178544D01*
X8624773Y-31178544D01*
X8596201Y-31164259D01*
X8581916Y-31149973D01*
X8567630Y-31121401D01*
X8553344Y-31064259D01*
X8553344Y-30992830D01*
X8567630Y-30935687D01*
X8581916Y-30907116D01*
X8596201Y-30892830D01*
X8624773Y-30878544D01*
X8910487Y-30878544D02*
X8939058Y-30878544D01*
X8967630Y-30892830D01*
X8981916Y-30907116D01*
X8996201Y-30935687D01*
X9010487Y-30992830D01*
X9010487Y-31064259D01*
X8996201Y-31121401D01*
X8981916Y-31149973D01*
X8967630Y-31164259D01*
X8939058Y-31178544D01*
X8910487Y-31178544D01*
X8881916Y-31164259D01*
X8867630Y-31149973D01*
X8853344Y-31121401D01*
X8839058Y-31064259D01*
X8839058Y-30992830D01*
X8853344Y-30935687D01*
X8867630Y-30907116D01*
X8881916Y-30892830D01*
X8910487Y-30878544D01*
X9196201Y-30878544D02*
X9224773Y-30878544D01*
X9253344Y-30892830D01*
X9267630Y-30907116D01*
X9281916Y-30935687D01*
X9296201Y-30992830D01*
X9296201Y-31064259D01*
X9281916Y-31121401D01*
X9267630Y-31149973D01*
X9253344Y-31164259D01*
X9224773Y-31178544D01*
X9196201Y-31178544D01*
X9167630Y-31164259D01*
X9153344Y-31149973D01*
X9139058Y-31121401D01*
X9124773Y-31064259D01*
X9124773Y-30992830D01*
X9139058Y-30935687D01*
X9153344Y-30907116D01*
X9167630Y-30892830D01*
X9196201Y-30878544D01*
X9424773Y-31178544D02*
X9424773Y-30978544D01*
X9424773Y-31007116D02*
X9439058Y-30992830D01*
X9467630Y-30978544D01*
X9510487Y-30978544D01*
X9539058Y-30992830D01*
X9553344Y-31021401D01*
X9553344Y-31178544D01*
X9553344Y-31021401D02*
X9567630Y-30992830D01*
X9596201Y-30978544D01*
X9639058Y-30978544D01*
X9667630Y-30992830D01*
X9681916Y-31021401D01*
X9681916Y-31178544D01*
X9824773Y-31178544D02*
X9824773Y-30978544D01*
X9824773Y-31007116D02*
X9839058Y-30992830D01*
X9867630Y-30978544D01*
X9910487Y-30978544D01*
X9939058Y-30992830D01*
X9953344Y-31021401D01*
X9953344Y-31178544D01*
X9953344Y-31021401D02*
X9967630Y-30992830D01*
X9996201Y-30978544D01*
X10039058Y-30978544D01*
X10067630Y-30992830D01*
X10081916Y-31021401D01*
X10081916Y-31178544D01*
X10667630Y-30864259D02*
X10410487Y-31249973D01*
X11053344Y-30878544D02*
X11081916Y-30878544D01*
X11110487Y-30892830D01*
X11124773Y-30907116D01*
X11139058Y-30935687D01*
X11153344Y-30992830D01*
X11153344Y-31064259D01*
X11139058Y-31121401D01*
X11124773Y-31149973D01*
X11110487Y-31164259D01*
X11081916Y-31178544D01*
X11053344Y-31178544D01*
X11024773Y-31164259D01*
X11010487Y-31149973D01*
X10996201Y-31121401D01*
X10981916Y-31064259D01*
X10981916Y-30992830D01*
X10996201Y-30935687D01*
X11010487Y-30907116D01*
X11024773Y-30892830D01*
X11053344Y-30878544D01*
X11281916Y-31149973D02*
X11296201Y-31164259D01*
X11281916Y-31178544D01*
X11267630Y-31164259D01*
X11281916Y-31149973D01*
X11281916Y-31178544D01*
X11481916Y-30878544D02*
X11510487Y-30878544D01*
X11539058Y-30892830D01*
X11553344Y-30907116D01*
X11567630Y-30935687D01*
X11581916Y-30992830D01*
X11581916Y-31064259D01*
X11567630Y-31121401D01*
X11553344Y-31149973D01*
X11539058Y-31164259D01*
X11510487Y-31178544D01*
X11481916Y-31178544D01*
X11453344Y-31164259D01*
X11439058Y-31149973D01*
X11424773Y-31121401D01*
X11410487Y-31064259D01*
X11410487Y-30992830D01*
X11424773Y-30935687D01*
X11439058Y-30907116D01*
X11453344Y-30892830D01*
X11481916Y-30878544D01*
X11681916Y-30878544D02*
X11867630Y-30878544D01*
X11767630Y-30992830D01*
X11810487Y-30992830D01*
X11839058Y-31007116D01*
X11853344Y-31021401D01*
X11867630Y-31049973D01*
X11867630Y-31121401D01*
X11853344Y-31149973D01*
X11839058Y-31164259D01*
X11810487Y-31178544D01*
X11724773Y-31178544D01*
X11696201Y-31164259D01*
X11681916Y-31149973D01*
X12010487Y-31178544D02*
X12067630Y-31178544D01*
X12096201Y-31164259D01*
X12110487Y-31149973D01*
X12139058Y-31107116D01*
X12153344Y-31049973D01*
X12153344Y-30935687D01*
X12139058Y-30907116D01*
X12124773Y-30892830D01*
X12096201Y-30878544D01*
X12039058Y-30878544D01*
X12010487Y-30892830D01*
X11996201Y-30907116D01*
X11981916Y-30935687D01*
X11981916Y-31007116D01*
X11996201Y-31035687D01*
X12010487Y-31049973D01*
X12039058Y-31064259D01*
X12096201Y-31064259D01*
X12124773Y-31049973D01*
X12139058Y-31035687D01*
X12153344Y-31007116D01*
X12410487Y-30978544D02*
X12410487Y-31178544D01*
X12339058Y-30864259D02*
X12267630Y-31078544D01*
X12453344Y-31078544D01*
X12553344Y-30878544D02*
X12553344Y-30935687D01*
X12667630Y-30878544D02*
X12667630Y-30935687D01*
X13110487Y-31292830D02*
X13096201Y-31278544D01*
X13067630Y-31235687D01*
X13053344Y-31207116D01*
X13039058Y-31164259D01*
X13024773Y-31092830D01*
X13024773Y-31035687D01*
X13039058Y-30964259D01*
X13053344Y-30921401D01*
X13067630Y-30892830D01*
X13096201Y-30849973D01*
X13110487Y-30835687D01*
X13381916Y-31178544D02*
X13210487Y-31178544D01*
X13296201Y-31178544D02*
X13296201Y-30878544D01*
X13267630Y-30921401D01*
X13239058Y-30949973D01*
X13210487Y-30964259D01*
X13481916Y-30878544D02*
X13681916Y-30878544D01*
X13553344Y-31178544D01*
X14024773Y-31178544D02*
X14024773Y-30878544D01*
X14153344Y-31178544D02*
X14153344Y-31021401D01*
X14139058Y-30992830D01*
X14110487Y-30978544D01*
X14067630Y-30978544D01*
X14039058Y-30992830D01*
X14024773Y-31007116D01*
X14339058Y-31178544D02*
X14310487Y-31164259D01*
X14296201Y-31149973D01*
X14281916Y-31121401D01*
X14281916Y-31035687D01*
X14296201Y-31007116D01*
X14310487Y-30992830D01*
X14339058Y-30978544D01*
X14381916Y-30978544D01*
X14410487Y-30992830D01*
X14424773Y-31007116D01*
X14439058Y-31035687D01*
X14439058Y-31121401D01*
X14424773Y-31149973D01*
X14410487Y-31164259D01*
X14381916Y-31178544D01*
X14339058Y-31178544D01*
X14610487Y-31178544D02*
X14581916Y-31164259D01*
X14567630Y-31135687D01*
X14567630Y-30878544D01*
X14839058Y-31164259D02*
X14810487Y-31178544D01*
X14753344Y-31178544D01*
X14724773Y-31164259D01*
X14710487Y-31135687D01*
X14710487Y-31021401D01*
X14724773Y-30992830D01*
X14753344Y-30978544D01*
X14810487Y-30978544D01*
X14839058Y-30992830D01*
X14853344Y-31021401D01*
X14853344Y-31049973D01*
X14710487Y-31078544D01*
X14967630Y-31164259D02*
X14996201Y-31178544D01*
X15053344Y-31178544D01*
X15081916Y-31164259D01*
X15096201Y-31135687D01*
X15096201Y-31121401D01*
X15081916Y-31092830D01*
X15053344Y-31078544D01*
X15010487Y-31078544D01*
X14981916Y-31064259D01*
X14967630Y-31035687D01*
X14967630Y-31021401D01*
X14981916Y-30992830D01*
X15010487Y-30978544D01*
X15053344Y-30978544D01*
X15081916Y-30992830D01*
X15196201Y-31292830D02*
X15210487Y-31278544D01*
X15239058Y-31235687D01*
X15253344Y-31207116D01*
X15267630Y-31164259D01*
X15281916Y-31092830D01*
X15281916Y-31035687D01*
X15267630Y-30964259D01*
X15253344Y-30921401D01*
X15239058Y-30892830D01*
X15210487Y-30849973D01*
X15196201Y-30835687D01*
X7702630Y-31363830D02*
X7852630Y-31513830D01*
X7852630Y-31363830D02*
X7702630Y-31513830D01*
X7852630Y-31438830D02*
G75*
G03*
X7852630Y-31438830I-75000J0D01*
G01*
X8296201Y-31574544D02*
X8124773Y-31574544D01*
X8210487Y-31574544D02*
X8210487Y-31274544D01*
X8181916Y-31317401D01*
X8153344Y-31345973D01*
X8124773Y-31360259D01*
X8424773Y-31545973D02*
X8439058Y-31560259D01*
X8424773Y-31574544D01*
X8410487Y-31560259D01*
X8424773Y-31545973D01*
X8424773Y-31574544D01*
X8710487Y-31274544D02*
X8567630Y-31274544D01*
X8553344Y-31417401D01*
X8567630Y-31403116D01*
X8596201Y-31388830D01*
X8667630Y-31388830D01*
X8696201Y-31403116D01*
X8710487Y-31417401D01*
X8724773Y-31445973D01*
X8724773Y-31517401D01*
X8710487Y-31545973D01*
X8696201Y-31560259D01*
X8667630Y-31574544D01*
X8596201Y-31574544D01*
X8567630Y-31560259D01*
X8553344Y-31545973D01*
X8910487Y-31274544D02*
X8939058Y-31274544D01*
X8967630Y-31288830D01*
X8981916Y-31303116D01*
X8996201Y-31331687D01*
X9010487Y-31388830D01*
X9010487Y-31460259D01*
X8996201Y-31517401D01*
X8981916Y-31545973D01*
X8967630Y-31560259D01*
X8939058Y-31574544D01*
X8910487Y-31574544D01*
X8881916Y-31560259D01*
X8867630Y-31545973D01*
X8853344Y-31517401D01*
X8839058Y-31460259D01*
X8839058Y-31388830D01*
X8853344Y-31331687D01*
X8867630Y-31303116D01*
X8881916Y-31288830D01*
X8910487Y-31274544D01*
X9196201Y-31274544D02*
X9224773Y-31274544D01*
X9253344Y-31288830D01*
X9267630Y-31303116D01*
X9281916Y-31331687D01*
X9296201Y-31388830D01*
X9296201Y-31460259D01*
X9281916Y-31517401D01*
X9267630Y-31545973D01*
X9253344Y-31560259D01*
X9224773Y-31574544D01*
X9196201Y-31574544D01*
X9167630Y-31560259D01*
X9153344Y-31545973D01*
X9139058Y-31517401D01*
X9124773Y-31460259D01*
X9124773Y-31388830D01*
X9139058Y-31331687D01*
X9153344Y-31303116D01*
X9167630Y-31288830D01*
X9196201Y-31274544D01*
X9424773Y-31574544D02*
X9424773Y-31374544D01*
X9424773Y-31403116D02*
X9439058Y-31388830D01*
X9467630Y-31374544D01*
X9510487Y-31374544D01*
X9539058Y-31388830D01*
X9553344Y-31417401D01*
X9553344Y-31574544D01*
X9553344Y-31417401D02*
X9567630Y-31388830D01*
X9596201Y-31374544D01*
X9639058Y-31374544D01*
X9667630Y-31388830D01*
X9681916Y-31417401D01*
X9681916Y-31574544D01*
X9824773Y-31574544D02*
X9824773Y-31374544D01*
X9824773Y-31403116D02*
X9839058Y-31388830D01*
X9867630Y-31374544D01*
X9910487Y-31374544D01*
X9939058Y-31388830D01*
X9953344Y-31417401D01*
X9953344Y-31574544D01*
X9953344Y-31417401D02*
X9967630Y-31388830D01*
X9996201Y-31374544D01*
X10039058Y-31374544D01*
X10067630Y-31388830D01*
X10081916Y-31417401D01*
X10081916Y-31574544D01*
X10667630Y-31260259D02*
X10410487Y-31645973D01*
X11053344Y-31274544D02*
X11081916Y-31274544D01*
X11110487Y-31288830D01*
X11124773Y-31303116D01*
X11139058Y-31331687D01*
X11153344Y-31388830D01*
X11153344Y-31460259D01*
X11139058Y-31517401D01*
X11124773Y-31545973D01*
X11110487Y-31560259D01*
X11081916Y-31574544D01*
X11053344Y-31574544D01*
X11024773Y-31560259D01*
X11010487Y-31545973D01*
X10996201Y-31517401D01*
X10981916Y-31460259D01*
X10981916Y-31388830D01*
X10996201Y-31331687D01*
X11010487Y-31303116D01*
X11024773Y-31288830D01*
X11053344Y-31274544D01*
X11281916Y-31545973D02*
X11296201Y-31560259D01*
X11281916Y-31574544D01*
X11267630Y-31560259D01*
X11281916Y-31545973D01*
X11281916Y-31574544D01*
X11481916Y-31274544D02*
X11510487Y-31274544D01*
X11539058Y-31288830D01*
X11553344Y-31303116D01*
X11567630Y-31331687D01*
X11581916Y-31388830D01*
X11581916Y-31460259D01*
X11567630Y-31517401D01*
X11553344Y-31545973D01*
X11539058Y-31560259D01*
X11510487Y-31574544D01*
X11481916Y-31574544D01*
X11453344Y-31560259D01*
X11439058Y-31545973D01*
X11424773Y-31517401D01*
X11410487Y-31460259D01*
X11410487Y-31388830D01*
X11424773Y-31331687D01*
X11439058Y-31303116D01*
X11453344Y-31288830D01*
X11481916Y-31274544D01*
X11853344Y-31274544D02*
X11710487Y-31274544D01*
X11696201Y-31417401D01*
X11710487Y-31403116D01*
X11739058Y-31388830D01*
X11810487Y-31388830D01*
X11839058Y-31403116D01*
X11853344Y-31417401D01*
X11867630Y-31445973D01*
X11867630Y-31517401D01*
X11853344Y-31545973D01*
X11839058Y-31560259D01*
X11810487Y-31574544D01*
X11739058Y-31574544D01*
X11710487Y-31560259D01*
X11696201Y-31545973D01*
X12010487Y-31574544D02*
X12067630Y-31574544D01*
X12096201Y-31560259D01*
X12110487Y-31545973D01*
X12139058Y-31503116D01*
X12153344Y-31445973D01*
X12153344Y-31331687D01*
X12139058Y-31303116D01*
X12124773Y-31288830D01*
X12096201Y-31274544D01*
X12039058Y-31274544D01*
X12010487Y-31288830D01*
X11996201Y-31303116D01*
X11981916Y-31331687D01*
X11981916Y-31403116D01*
X11996201Y-31431687D01*
X12010487Y-31445973D01*
X12039058Y-31460259D01*
X12096201Y-31460259D01*
X12124773Y-31445973D01*
X12139058Y-31431687D01*
X12153344Y-31403116D01*
X12439058Y-31574544D02*
X12267630Y-31574544D01*
X12353344Y-31574544D02*
X12353344Y-31274544D01*
X12324773Y-31317401D01*
X12296201Y-31345973D01*
X12267630Y-31360259D01*
X12553344Y-31274544D02*
X12553344Y-31331687D01*
X12667630Y-31274544D02*
X12667630Y-31331687D01*
X13110487Y-31688830D02*
X13096201Y-31674544D01*
X13067630Y-31631687D01*
X13053344Y-31603116D01*
X13039058Y-31560259D01*
X13024773Y-31488830D01*
X13024773Y-31431687D01*
X13039058Y-31360259D01*
X13053344Y-31317401D01*
X13067630Y-31288830D01*
X13096201Y-31245973D01*
X13110487Y-31231687D01*
X13281916Y-31274544D02*
X13310487Y-31274544D01*
X13339058Y-31288830D01*
X13353344Y-31303116D01*
X13367630Y-31331687D01*
X13381916Y-31388830D01*
X13381916Y-31460259D01*
X13367630Y-31517401D01*
X13353344Y-31545973D01*
X13339058Y-31560259D01*
X13310487Y-31574544D01*
X13281916Y-31574544D01*
X13253344Y-31560259D01*
X13239058Y-31545973D01*
X13224773Y-31517401D01*
X13210487Y-31460259D01*
X13210487Y-31388830D01*
X13224773Y-31331687D01*
X13239058Y-31303116D01*
X13253344Y-31288830D01*
X13281916Y-31274544D01*
X13739058Y-31574544D02*
X13739058Y-31274544D01*
X13867630Y-31574544D02*
X13867630Y-31417401D01*
X13853344Y-31388830D01*
X13824773Y-31374544D01*
X13781916Y-31374544D01*
X13753344Y-31388830D01*
X13739058Y-31403116D01*
X14053344Y-31574544D02*
X14024773Y-31560259D01*
X14010487Y-31545973D01*
X13996201Y-31517401D01*
X13996201Y-31431687D01*
X14010487Y-31403116D01*
X14024773Y-31388830D01*
X14053344Y-31374544D01*
X14096201Y-31374544D01*
X14124773Y-31388830D01*
X14139058Y-31403116D01*
X14153344Y-31431687D01*
X14153344Y-31517401D01*
X14139058Y-31545973D01*
X14124773Y-31560259D01*
X14096201Y-31574544D01*
X14053344Y-31574544D01*
X14324773Y-31574544D02*
X14296201Y-31560259D01*
X14281916Y-31531687D01*
X14281916Y-31274544D01*
X14553344Y-31560259D02*
X14524773Y-31574544D01*
X14467630Y-31574544D01*
X14439058Y-31560259D01*
X14424773Y-31531687D01*
X14424773Y-31417401D01*
X14439058Y-31388830D01*
X14467630Y-31374544D01*
X14524773Y-31374544D01*
X14553344Y-31388830D01*
X14567630Y-31417401D01*
X14567630Y-31445973D01*
X14424773Y-31474544D01*
X14681916Y-31560259D02*
X14710487Y-31574544D01*
X14767630Y-31574544D01*
X14796201Y-31560259D01*
X14810487Y-31531687D01*
X14810487Y-31517401D01*
X14796201Y-31488830D01*
X14767630Y-31474544D01*
X14724773Y-31474544D01*
X14696201Y-31460259D01*
X14681916Y-31431687D01*
X14681916Y-31417401D01*
X14696201Y-31388830D01*
X14724773Y-31374544D01*
X14767630Y-31374544D01*
X14796201Y-31388830D01*
X15167630Y-31460259D02*
X15396201Y-31460259D01*
X15281916Y-31574544D02*
X15281916Y-31345973D01*
X15896201Y-31374544D02*
X15896201Y-31574544D01*
X15824773Y-31260259D02*
X15753344Y-31474544D01*
X15939058Y-31474544D01*
X16267630Y-31560259D02*
X16296201Y-31574544D01*
X16353344Y-31574544D01*
X16381916Y-31560259D01*
X16396201Y-31531687D01*
X16396201Y-31517401D01*
X16381916Y-31488830D01*
X16353344Y-31474544D01*
X16310487Y-31474544D01*
X16281916Y-31460259D01*
X16267630Y-31431687D01*
X16267630Y-31417401D01*
X16281916Y-31388830D01*
X16310487Y-31374544D01*
X16353344Y-31374544D01*
X16381916Y-31388830D01*
X16567630Y-31574544D02*
X16539058Y-31560259D01*
X16524773Y-31531687D01*
X16524773Y-31274544D01*
X16724773Y-31574544D02*
X16696201Y-31560259D01*
X16681916Y-31545973D01*
X16667630Y-31517401D01*
X16667630Y-31431687D01*
X16681916Y-31403116D01*
X16696201Y-31388830D01*
X16724773Y-31374544D01*
X16767630Y-31374544D01*
X16796201Y-31388830D01*
X16810487Y-31403116D01*
X16824773Y-31431687D01*
X16824773Y-31517401D01*
X16810487Y-31545973D01*
X16796201Y-31560259D01*
X16767630Y-31574544D01*
X16724773Y-31574544D01*
X16910487Y-31374544D02*
X17024773Y-31374544D01*
X16953344Y-31274544D02*
X16953344Y-31531687D01*
X16967630Y-31560259D01*
X16996201Y-31574544D01*
X17024773Y-31574544D01*
X17110487Y-31560259D02*
X17139058Y-31574544D01*
X17196201Y-31574544D01*
X17224773Y-31560259D01*
X17239058Y-31531687D01*
X17239058Y-31517401D01*
X17224773Y-31488830D01*
X17196201Y-31474544D01*
X17153344Y-31474544D01*
X17124773Y-31460259D01*
X17110487Y-31431687D01*
X17110487Y-31417401D01*
X17124773Y-31388830D01*
X17153344Y-31374544D01*
X17196201Y-31374544D01*
X17224773Y-31388830D01*
X17339058Y-31688830D02*
X17353344Y-31674544D01*
X17381916Y-31631687D01*
X17396201Y-31603116D01*
X17410487Y-31560259D01*
X17424773Y-31488830D01*
X17424773Y-31431687D01*
X17410487Y-31360259D01*
X17396201Y-31317401D01*
X17381916Y-31288830D01*
X17353344Y-31245973D01*
X17339058Y-31231687D01*
M02*
