%TF.GenerationSoftware,KiCad,Pcbnew,(5.1.10)-1*%
%TF.CreationDate,2021-12-22T19:33:31-05:00*%
%TF.ProjectId,custom_keyboard (f303),63757374-6f6d-45f6-9b65-79626f617264,rev?*%
%TF.SameCoordinates,Original*%
%TF.FileFunction,Soldermask,Bot*%
%TF.FilePolarity,Negative*%
%FSLAX46Y46*%
G04 Gerber Fmt 4.6, Leading zero omitted, Abs format (unit mm)*
G04 Created by KiCad (PCBNEW (5.1.10)-1) date 2021-12-22 19:33:31*
%MOMM*%
%LPD*%
G01*
G04 APERTURE LIST*
%ADD10R,2.000000X2.400000*%
%ADD11R,0.800000X0.900000*%
%ADD12C,1.000000*%
%ADD13R,1.200000X0.900000*%
%ADD14R,2.550000X2.500000*%
%ADD15C,3.000000*%
%ADD16C,1.750000*%
%ADD17C,4.000000*%
%ADD18C,3.050000*%
%ADD19O,1.700000X1.700000*%
%ADD20R,1.700000X1.700000*%
%ADD21C,2.100000*%
%ADD22R,0.800000X0.700000*%
%ADD23R,1.800000X1.100000*%
%ADD24R,1.800000X1.200000*%
%ADD25R,1.550000X0.600000*%
%ADD26R,2.300000X2.300000*%
%ADD27R,0.900000X0.800000*%
%ADD28C,1.397000*%
%ADD29R,1.500000X1.500000*%
%ADD30R,1.060000X0.650000*%
%ADD31R,0.600000X1.450000*%
%ADD32R,0.300000X1.450000*%
%ADD33C,0.650000*%
%ADD34O,1.000000X2.100000*%
%ADD35O,1.000000X1.600000*%
%ADD36R,2.000000X2.000000*%
%ADD37C,2.000000*%
%ADD38R,2.000000X3.200000*%
%ADD39R,0.900000X1.200000*%
%ADD40C,0.800000*%
G04 APERTURE END LIST*
D10*
%TO.C,Y2*%
X348965400Y-188900600D03*
X352665400Y-188900600D03*
%TD*%
D11*
%TO.C,U12*%
X347640600Y-157358900D03*
X348590600Y-155358900D03*
X346690600Y-155358900D03*
%TD*%
%TO.C,R16*%
G36*
G01*
X331366600Y-183688398D02*
X331366600Y-184588402D01*
G75*
G02*
X331116602Y-184838400I-249998J0D01*
G01*
X330591598Y-184838400D01*
G75*
G02*
X330341600Y-184588402I0J249998D01*
G01*
X330341600Y-183688398D01*
G75*
G02*
X330591598Y-183438400I249998J0D01*
G01*
X331116602Y-183438400D01*
G75*
G02*
X331366600Y-183688398I0J-249998D01*
G01*
G37*
G36*
G01*
X333191600Y-183688398D02*
X333191600Y-184588402D01*
G75*
G02*
X332941602Y-184838400I-249998J0D01*
G01*
X332416598Y-184838400D01*
G75*
G02*
X332166600Y-184588402I0J249998D01*
G01*
X332166600Y-183688398D01*
G75*
G02*
X332416598Y-183438400I249998J0D01*
G01*
X332941602Y-183438400D01*
G75*
G02*
X333191600Y-183688398I0J-249998D01*
G01*
G37*
%TD*%
%TO.C,R15*%
G36*
G01*
X286869398Y-177395100D02*
X287769402Y-177395100D01*
G75*
G02*
X288019400Y-177645098I0J-249998D01*
G01*
X288019400Y-178170102D01*
G75*
G02*
X287769402Y-178420100I-249998J0D01*
G01*
X286869398Y-178420100D01*
G75*
G02*
X286619400Y-178170102I0J249998D01*
G01*
X286619400Y-177645098D01*
G75*
G02*
X286869398Y-177395100I249998J0D01*
G01*
G37*
G36*
G01*
X286869398Y-175570100D02*
X287769402Y-175570100D01*
G75*
G02*
X288019400Y-175820098I0J-249998D01*
G01*
X288019400Y-176345102D01*
G75*
G02*
X287769402Y-176595100I-249998J0D01*
G01*
X286869398Y-176595100D01*
G75*
G02*
X286619400Y-176345102I0J249998D01*
G01*
X286619400Y-175820098D01*
G75*
G02*
X286869398Y-175570100I249998J0D01*
G01*
G37*
%TD*%
%TO.C,C9*%
G36*
G01*
X330894750Y-195940750D02*
X331844750Y-195940750D01*
G75*
G02*
X332094750Y-196190750I0J-250000D01*
G01*
X332094750Y-196690750D01*
G75*
G02*
X331844750Y-196940750I-250000J0D01*
G01*
X330894750Y-196940750D01*
G75*
G02*
X330644750Y-196690750I0J250000D01*
G01*
X330644750Y-196190750D01*
G75*
G02*
X330894750Y-195940750I250000J0D01*
G01*
G37*
G36*
G01*
X330894750Y-194040750D02*
X331844750Y-194040750D01*
G75*
G02*
X332094750Y-194290750I0J-250000D01*
G01*
X332094750Y-194790750D01*
G75*
G02*
X331844750Y-195040750I-250000J0D01*
G01*
X330894750Y-195040750D01*
G75*
G02*
X330644750Y-194790750I0J250000D01*
G01*
X330644750Y-194290750D01*
G75*
G02*
X330894750Y-194040750I250000J0D01*
G01*
G37*
%TD*%
%TO.C,C8*%
G36*
G01*
X291894200Y-186200800D02*
X291894200Y-185250800D01*
G75*
G02*
X292144200Y-185000800I250000J0D01*
G01*
X292644200Y-185000800D01*
G75*
G02*
X292894200Y-185250800I0J-250000D01*
G01*
X292894200Y-186200800D01*
G75*
G02*
X292644200Y-186450800I-250000J0D01*
G01*
X292144200Y-186450800D01*
G75*
G02*
X291894200Y-186200800I0J250000D01*
G01*
G37*
G36*
G01*
X289994200Y-186200800D02*
X289994200Y-185250800D01*
G75*
G02*
X290244200Y-185000800I250000J0D01*
G01*
X290744200Y-185000800D01*
G75*
G02*
X290994200Y-185250800I0J-250000D01*
G01*
X290994200Y-186200800D01*
G75*
G02*
X290744200Y-186450800I-250000J0D01*
G01*
X290244200Y-186450800D01*
G75*
G02*
X289994200Y-186200800I0J250000D01*
G01*
G37*
%TD*%
%TO.C,C1*%
G36*
G01*
X360924050Y-112230400D02*
X360924050Y-113180400D01*
G75*
G02*
X360674050Y-113430400I-250000J0D01*
G01*
X360174050Y-113430400D01*
G75*
G02*
X359924050Y-113180400I0J250000D01*
G01*
X359924050Y-112230400D01*
G75*
G02*
X360174050Y-111980400I250000J0D01*
G01*
X360674050Y-111980400D01*
G75*
G02*
X360924050Y-112230400I0J-250000D01*
G01*
G37*
G36*
G01*
X362824050Y-112230400D02*
X362824050Y-113180400D01*
G75*
G02*
X362574050Y-113430400I-250000J0D01*
G01*
X362074050Y-113430400D01*
G75*
G02*
X361824050Y-113180400I0J250000D01*
G01*
X361824050Y-112230400D01*
G75*
G02*
X362074050Y-111980400I250000J0D01*
G01*
X362574050Y-111980400D01*
G75*
G02*
X362824050Y-112230400I0J-250000D01*
G01*
G37*
%TD*%
D12*
%TO.C,COL15*%
X342084700Y-120245550D03*
%TD*%
D13*
%TO.C,KD9*%
X242872200Y-95975100D03*
X242872200Y-99275100D03*
%TD*%
%TO.C,C22*%
G36*
G01*
X357640000Y-177338800D02*
X356690000Y-177338800D01*
G75*
G02*
X356440000Y-177088800I0J250000D01*
G01*
X356440000Y-176588800D01*
G75*
G02*
X356690000Y-176338800I250000J0D01*
G01*
X357640000Y-176338800D01*
G75*
G02*
X357890000Y-176588800I0J-250000D01*
G01*
X357890000Y-177088800D01*
G75*
G02*
X357640000Y-177338800I-250000J0D01*
G01*
G37*
G36*
G01*
X357640000Y-179238800D02*
X356690000Y-179238800D01*
G75*
G02*
X356440000Y-178988800I0J250000D01*
G01*
X356440000Y-178488800D01*
G75*
G02*
X356690000Y-178238800I250000J0D01*
G01*
X357640000Y-178238800D01*
G75*
G02*
X357890000Y-178488800I0J-250000D01*
G01*
X357890000Y-178988800D01*
G75*
G02*
X357640000Y-179238800I-250000J0D01*
G01*
G37*
%TD*%
D12*
%TO.C,COL1*%
X46034600Y-119848700D03*
%TD*%
D14*
%TO.C,MX90*%
X393340600Y-197313500D03*
X379915600Y-199853500D03*
D15*
X389865600Y-197313500D03*
X383515600Y-199853500D03*
D16*
X392405600Y-202393500D03*
X382245600Y-202393500D03*
D17*
X387325600Y-202393500D03*
%TD*%
D14*
%TO.C,MX89*%
X374291800Y-197313500D03*
X360866800Y-199853500D03*
D15*
X370816800Y-197313500D03*
X364466800Y-199853500D03*
D16*
X373356800Y-202393500D03*
X363196800Y-202393500D03*
D17*
X368276800Y-202393500D03*
%TD*%
D14*
%TO.C,MX88*%
X355243000Y-197313500D03*
X341818000Y-199853500D03*
D15*
X351768000Y-197313500D03*
X345418000Y-199853500D03*
D16*
X354308000Y-202393500D03*
X344148000Y-202393500D03*
D17*
X349228000Y-202393500D03*
%TD*%
D14*
%TO.C,MX87*%
X324288700Y-197313500D03*
X310863700Y-199853500D03*
D15*
X320813700Y-197313500D03*
X314463700Y-199853500D03*
D16*
X323353700Y-202393500D03*
X313193700Y-202393500D03*
D17*
X318273700Y-202393500D03*
%TD*%
D14*
%TO.C,MX86*%
X300477700Y-197313500D03*
X287052700Y-199853500D03*
D15*
X297002700Y-197313500D03*
X290652700Y-199853500D03*
D16*
X299542700Y-202393500D03*
X289382700Y-202393500D03*
D17*
X294462700Y-202393500D03*
%TD*%
D14*
%TO.C,MX85*%
X276666700Y-197313500D03*
X263241700Y-199853500D03*
D15*
X273191700Y-197313500D03*
X266841700Y-199853500D03*
D16*
X275731700Y-202393500D03*
X265571700Y-202393500D03*
D17*
X270651700Y-202393500D03*
%TD*%
D14*
%TO.C,MX84*%
X252855700Y-197313500D03*
X239430700Y-199853500D03*
D15*
X249380700Y-197313500D03*
X243030700Y-199853500D03*
D16*
X251920700Y-202393500D03*
X241760700Y-202393500D03*
D17*
X246840700Y-202393500D03*
%TD*%
D18*
%TO.C,MX83*%
X225407700Y-195393500D03*
D17*
X225407700Y-210633500D03*
X125407700Y-210633500D03*
D18*
X125407700Y-195393500D03*
D14*
X181422700Y-197313500D03*
X167997700Y-199853500D03*
D15*
X177947700Y-197313500D03*
X171597700Y-199853500D03*
D16*
X180487700Y-202393500D03*
X170327700Y-202393500D03*
D17*
X175407700Y-202393500D03*
%TD*%
D14*
%TO.C,MX82*%
X109989700Y-197313500D03*
X96564700Y-199853500D03*
D15*
X106514700Y-197313500D03*
X100164700Y-199853500D03*
D16*
X109054700Y-202393500D03*
X98894700Y-202393500D03*
D17*
X103974700Y-202393500D03*
%TD*%
D14*
%TO.C,MX81*%
X86178700Y-197313500D03*
X72753700Y-199853500D03*
D15*
X82703700Y-197313500D03*
X76353700Y-199853500D03*
D16*
X85243700Y-202393500D03*
X75083700Y-202393500D03*
D17*
X80163700Y-202393500D03*
%TD*%
D14*
%TO.C,MX80*%
X62367700Y-197313500D03*
X48942700Y-199853500D03*
D15*
X58892700Y-197313500D03*
X52542700Y-199853500D03*
D16*
X61432700Y-202393500D03*
X51272700Y-202393500D03*
D17*
X56352700Y-202393500D03*
%TD*%
D14*
%TO.C,MX79*%
X36175600Y-197313500D03*
X22750600Y-199853500D03*
D15*
X32700600Y-197313500D03*
X26350600Y-199853500D03*
D16*
X35240600Y-202393500D03*
X25080600Y-202393500D03*
D17*
X30160600Y-202393500D03*
%TD*%
D14*
%TO.C,MX78*%
X374291800Y-178264700D03*
X360866800Y-180804700D03*
D15*
X370816800Y-178264700D03*
X364466800Y-180804700D03*
D16*
X373356800Y-183344700D03*
X363196800Y-183344700D03*
D17*
X368276800Y-183344700D03*
%TD*%
D18*
%TO.C,MX77*%
X315925100Y-176344700D03*
D17*
X315925100Y-191584700D03*
X292049100Y-191584700D03*
D18*
X292049100Y-176344700D03*
D14*
X310002100Y-178264700D03*
X296577100Y-180804700D03*
D15*
X306527100Y-178264700D03*
X300177100Y-180804700D03*
D16*
X309067100Y-183344700D03*
X298907100Y-183344700D03*
D17*
X303987100Y-183344700D03*
%TD*%
D14*
%TO.C,MX76*%
X274285600Y-178264700D03*
X260860600Y-180804700D03*
D15*
X270810600Y-178264700D03*
X264460600Y-180804700D03*
D16*
X273350600Y-183344700D03*
X263190600Y-183344700D03*
D17*
X268270600Y-183344700D03*
%TD*%
D14*
%TO.C,MX75*%
X255236800Y-178264700D03*
X241811800Y-180804700D03*
D15*
X251761800Y-178264700D03*
X245411800Y-180804700D03*
D16*
X254301800Y-183344700D03*
X244141800Y-183344700D03*
D17*
X249221800Y-183344700D03*
%TD*%
D14*
%TO.C,MX74*%
X236188000Y-178264700D03*
X222763000Y-180804700D03*
D15*
X232713000Y-178264700D03*
X226363000Y-180804700D03*
D16*
X235253000Y-183344700D03*
X225093000Y-183344700D03*
D17*
X230173000Y-183344700D03*
%TD*%
D14*
%TO.C,MX73*%
X217139200Y-178264700D03*
X203714200Y-180804700D03*
D15*
X213664200Y-178264700D03*
X207314200Y-180804700D03*
D16*
X216204200Y-183344700D03*
X206044200Y-183344700D03*
D17*
X211124200Y-183344700D03*
%TD*%
D14*
%TO.C,MX72*%
X198090400Y-178264700D03*
X184665400Y-180804700D03*
D15*
X194615400Y-178264700D03*
X188265400Y-180804700D03*
D16*
X197155400Y-183344700D03*
X186995400Y-183344700D03*
D17*
X192075400Y-183344700D03*
%TD*%
D14*
%TO.C,MX71*%
X179041600Y-178264700D03*
X165616600Y-180804700D03*
D15*
X175566600Y-178264700D03*
X169216600Y-180804700D03*
D16*
X178106600Y-183344700D03*
X167946600Y-183344700D03*
D17*
X173026600Y-183344700D03*
%TD*%
D14*
%TO.C,MX70*%
X159992800Y-178264700D03*
X146567800Y-180804700D03*
D15*
X156517800Y-178264700D03*
X150167800Y-180804700D03*
D16*
X159057800Y-183344700D03*
X148897800Y-183344700D03*
D17*
X153977800Y-183344700D03*
%TD*%
D14*
%TO.C,MX69*%
X140944000Y-178264700D03*
X127519000Y-180804700D03*
D15*
X137469000Y-178264700D03*
X131119000Y-180804700D03*
D16*
X140009000Y-183344700D03*
X129849000Y-183344700D03*
D17*
X134929000Y-183344700D03*
%TD*%
D14*
%TO.C,MX68*%
X121895200Y-178264700D03*
X108470200Y-180804700D03*
D15*
X118420200Y-178264700D03*
X112070200Y-180804700D03*
D16*
X120960200Y-183344700D03*
X110800200Y-183344700D03*
D17*
X115880200Y-183344700D03*
%TD*%
D14*
%TO.C,MX67*%
X102846400Y-178264700D03*
X89421400Y-180804700D03*
D15*
X99371400Y-178264700D03*
X93021400Y-180804700D03*
D16*
X101911400Y-183344700D03*
X91751400Y-183344700D03*
D17*
X96831400Y-183344700D03*
%TD*%
D18*
%TO.C,MX66*%
X77815100Y-176344700D03*
D17*
X77815100Y-191584700D03*
X53939100Y-191584700D03*
D18*
X53939100Y-176344700D03*
D14*
X71892100Y-178264700D03*
X58467100Y-180804700D03*
D15*
X68417100Y-178264700D03*
X62067100Y-180804700D03*
D16*
X70957100Y-183344700D03*
X60797100Y-183344700D03*
D17*
X65877100Y-183344700D03*
%TD*%
D14*
%TO.C,MX65*%
X36175600Y-178264700D03*
X22750600Y-180804700D03*
D15*
X32700600Y-178264700D03*
X26350600Y-180804700D03*
D16*
X35240600Y-183344700D03*
X25080600Y-183344700D03*
D17*
X30160600Y-183344700D03*
%TD*%
D18*
%TO.C,MX64*%
X320687300Y-157295900D03*
D17*
X320687300Y-172535900D03*
X296811300Y-172535900D03*
D18*
X296811300Y-157295900D03*
D14*
X314764300Y-159215900D03*
X301339300Y-161755900D03*
D15*
X311289300Y-159215900D03*
X304939300Y-161755900D03*
D16*
X313829300Y-164295900D03*
X303669300Y-164295900D03*
D17*
X308749300Y-164295900D03*
%TD*%
D14*
%TO.C,MX63*%
X283810000Y-159215900D03*
X270385000Y-161755900D03*
D15*
X280335000Y-159215900D03*
X273985000Y-161755900D03*
D16*
X282875000Y-164295900D03*
X272715000Y-164295900D03*
D17*
X277795000Y-164295900D03*
%TD*%
D14*
%TO.C,MX62*%
X264761200Y-159215900D03*
X251336200Y-161755900D03*
D15*
X261286200Y-159215900D03*
X254936200Y-161755900D03*
D16*
X263826200Y-164295900D03*
X253666200Y-164295900D03*
D17*
X258746200Y-164295900D03*
%TD*%
D14*
%TO.C,MX61*%
X245712400Y-159215900D03*
X232287400Y-161755900D03*
D15*
X242237400Y-159215900D03*
X235887400Y-161755900D03*
D16*
X244777400Y-164295900D03*
X234617400Y-164295900D03*
D17*
X239697400Y-164295900D03*
%TD*%
D14*
%TO.C,MX60*%
X226663600Y-159215900D03*
X213238600Y-161755900D03*
D15*
X223188600Y-159215900D03*
X216838600Y-161755900D03*
D16*
X225728600Y-164295900D03*
X215568600Y-164295900D03*
D17*
X220648600Y-164295900D03*
%TD*%
D14*
%TO.C,MX59*%
X207614800Y-159215900D03*
X194189800Y-161755900D03*
D15*
X204139800Y-159215900D03*
X197789800Y-161755900D03*
D16*
X206679800Y-164295900D03*
X196519800Y-164295900D03*
D17*
X201599800Y-164295900D03*
%TD*%
D14*
%TO.C,MX58*%
X188566000Y-159215900D03*
X175141000Y-161755900D03*
D15*
X185091000Y-159215900D03*
X178741000Y-161755900D03*
D16*
X187631000Y-164295900D03*
X177471000Y-164295900D03*
D17*
X182551000Y-164295900D03*
%TD*%
D14*
%TO.C,MX57*%
X169517200Y-159215900D03*
X156092200Y-161755900D03*
D15*
X166042200Y-159215900D03*
X159692200Y-161755900D03*
D16*
X168582200Y-164295900D03*
X158422200Y-164295900D03*
D17*
X163502200Y-164295900D03*
%TD*%
D14*
%TO.C,MX56*%
X150468400Y-159215900D03*
X137043400Y-161755900D03*
D15*
X146993400Y-159215900D03*
X140643400Y-161755900D03*
D16*
X149533400Y-164295900D03*
X139373400Y-164295900D03*
D17*
X144453400Y-164295900D03*
%TD*%
D14*
%TO.C,MX55*%
X131419600Y-159215900D03*
X117994600Y-161755900D03*
D15*
X127944600Y-159215900D03*
X121594600Y-161755900D03*
D16*
X130484600Y-164295900D03*
X120324600Y-164295900D03*
D17*
X125404600Y-164295900D03*
%TD*%
D14*
%TO.C,MX54*%
X112370800Y-159215900D03*
X98945800Y-161755900D03*
D15*
X108895800Y-159215900D03*
X102545800Y-161755900D03*
D16*
X111435800Y-164295900D03*
X101275800Y-164295900D03*
D17*
X106355800Y-164295900D03*
%TD*%
D14*
%TO.C,MX53*%
X93263700Y-159215900D03*
X79838700Y-161755900D03*
D15*
X89788700Y-159215900D03*
X83438700Y-161755900D03*
D16*
X92328700Y-164295900D03*
X82168700Y-164295900D03*
D17*
X87248700Y-164295900D03*
%TD*%
D14*
%TO.C,MX52*%
X67129900Y-159215900D03*
X53704900Y-161755900D03*
D15*
X63654900Y-159215900D03*
X57304900Y-161755900D03*
D16*
X66194900Y-164295900D03*
X56034900Y-164295900D03*
D17*
X61114900Y-164295900D03*
%TD*%
D14*
%TO.C,MX51*%
X36175600Y-159215900D03*
X22750600Y-161755900D03*
D15*
X32700600Y-159215900D03*
X26350600Y-161755900D03*
D16*
X35240600Y-164295900D03*
X25080600Y-164295900D03*
D17*
X30160600Y-164295900D03*
%TD*%
D14*
%TO.C,MX50*%
X393340600Y-140167100D03*
X379915600Y-142707100D03*
D15*
X389865600Y-140167100D03*
X383515600Y-142707100D03*
D16*
X392405600Y-145247100D03*
X382245600Y-145247100D03*
D17*
X387325600Y-145247100D03*
%TD*%
D14*
%TO.C,MX49*%
X374291800Y-140167100D03*
X360866800Y-142707100D03*
D15*
X370816800Y-140167100D03*
X364466800Y-142707100D03*
D16*
X373356800Y-145247100D03*
X363196800Y-145247100D03*
D17*
X368276800Y-145247100D03*
%TD*%
D14*
%TO.C,MX48*%
X355243000Y-140167100D03*
X341818000Y-142707100D03*
D15*
X351768000Y-140167100D03*
X345418000Y-142707100D03*
D16*
X354308000Y-145247100D03*
X344148000Y-145247100D03*
D17*
X349228000Y-145247100D03*
%TD*%
D14*
%TO.C,MX47*%
X321907600Y-140167100D03*
X308482600Y-142707100D03*
D15*
X318432600Y-140167100D03*
X312082600Y-142707100D03*
D16*
X320972600Y-145247100D03*
X310812600Y-145247100D03*
D17*
X315892600Y-145247100D03*
%TD*%
D14*
%TO.C,MX46*%
X298096600Y-140167100D03*
X284671600Y-142707100D03*
D15*
X294621600Y-140167100D03*
X288271600Y-142707100D03*
D16*
X297161600Y-145247100D03*
X287001600Y-145247100D03*
D17*
X292081600Y-145247100D03*
%TD*%
D14*
%TO.C,MX45*%
X279047800Y-140167100D03*
X265622800Y-142707100D03*
D15*
X275572800Y-140167100D03*
X269222800Y-142707100D03*
D16*
X278112800Y-145247100D03*
X267952800Y-145247100D03*
D17*
X273032800Y-145247100D03*
%TD*%
D14*
%TO.C,MX44*%
X259999000Y-140167100D03*
X246574000Y-142707100D03*
D15*
X256524000Y-140167100D03*
X250174000Y-142707100D03*
D16*
X259064000Y-145247100D03*
X248904000Y-145247100D03*
D17*
X253984000Y-145247100D03*
%TD*%
D14*
%TO.C,MX43*%
X240950200Y-140167100D03*
X227525200Y-142707100D03*
D15*
X237475200Y-140167100D03*
X231125200Y-142707100D03*
D16*
X240015200Y-145247100D03*
X229855200Y-145247100D03*
D17*
X234935200Y-145247100D03*
%TD*%
D14*
%TO.C,MX42*%
X221901400Y-140167100D03*
X208476400Y-142707100D03*
D15*
X218426400Y-140167100D03*
X212076400Y-142707100D03*
D16*
X220966400Y-145247100D03*
X210806400Y-145247100D03*
D17*
X215886400Y-145247100D03*
%TD*%
D14*
%TO.C,MX41*%
X202852600Y-140167100D03*
X189427600Y-142707100D03*
D15*
X199377600Y-140167100D03*
X193027600Y-142707100D03*
D16*
X201917600Y-145247100D03*
X191757600Y-145247100D03*
D17*
X196837600Y-145247100D03*
%TD*%
D14*
%TO.C,MX40*%
X183803800Y-140167100D03*
X170378800Y-142707100D03*
D15*
X180328800Y-140167100D03*
X173978800Y-142707100D03*
D16*
X182868800Y-145247100D03*
X172708800Y-145247100D03*
D17*
X177788800Y-145247100D03*
%TD*%
D14*
%TO.C,MX39*%
X164755000Y-140167100D03*
X151330000Y-142707100D03*
D15*
X161280000Y-140167100D03*
X154930000Y-142707100D03*
D16*
X163820000Y-145247100D03*
X153660000Y-145247100D03*
D17*
X158740000Y-145247100D03*
%TD*%
D14*
%TO.C,MX38*%
X145706200Y-140167100D03*
X132281200Y-142707100D03*
D15*
X142231200Y-140167100D03*
X135881200Y-142707100D03*
D16*
X144771200Y-145247100D03*
X134611200Y-145247100D03*
D17*
X139691200Y-145247100D03*
%TD*%
D14*
%TO.C,MX37*%
X126657400Y-140167100D03*
X113232400Y-142707100D03*
D15*
X123182400Y-140167100D03*
X116832400Y-142707100D03*
D16*
X125722400Y-145247100D03*
X115562400Y-145247100D03*
D17*
X120642400Y-145247100D03*
%TD*%
D14*
%TO.C,MX36*%
X107608600Y-140167100D03*
X94183600Y-142707100D03*
D15*
X104133600Y-140167100D03*
X97783600Y-142707100D03*
D16*
X106673600Y-145247100D03*
X96513600Y-145247100D03*
D17*
X101593600Y-145247100D03*
%TD*%
D14*
%TO.C,MX35*%
X88559800Y-140167100D03*
X75134800Y-142707100D03*
D15*
X85084800Y-140167100D03*
X78734800Y-142707100D03*
D16*
X87624800Y-145247100D03*
X77464800Y-145247100D03*
D17*
X82544800Y-145247100D03*
%TD*%
D14*
%TO.C,MX34*%
X64748800Y-140167100D03*
X51323800Y-142707100D03*
D15*
X61273800Y-140167100D03*
X54923800Y-142707100D03*
D16*
X63813800Y-145247100D03*
X53653800Y-145247100D03*
D17*
X58733800Y-145247100D03*
%TD*%
D14*
%TO.C,MX33*%
X36175600Y-140167100D03*
X22750600Y-142707100D03*
D15*
X32700600Y-140167100D03*
X26350600Y-142707100D03*
D16*
X35240600Y-145247100D03*
X25080600Y-145247100D03*
D17*
X30160600Y-145247100D03*
%TD*%
D14*
%TO.C,MX32*%
X393340600Y-121118300D03*
X379915600Y-123658300D03*
D15*
X389865600Y-121118300D03*
X383515600Y-123658300D03*
D16*
X392405600Y-126198300D03*
X382245600Y-126198300D03*
D17*
X387325600Y-126198300D03*
%TD*%
D14*
%TO.C,MX31*%
X374291800Y-121118300D03*
X360866800Y-123658300D03*
D15*
X370816800Y-121118300D03*
X364466800Y-123658300D03*
D16*
X373356800Y-126198300D03*
X363196800Y-126198300D03*
D17*
X368276800Y-126198300D03*
%TD*%
D14*
%TO.C,MX30*%
X355243000Y-121118300D03*
X341818000Y-123658300D03*
D15*
X351768000Y-121118300D03*
X345418000Y-123658300D03*
D16*
X354308000Y-126198300D03*
X344148000Y-126198300D03*
D17*
X349228000Y-126198300D03*
%TD*%
D18*
%TO.C,MX29*%
X323068400Y-119198300D03*
D17*
X323068400Y-134438300D03*
X299192400Y-134438300D03*
D18*
X299192400Y-119198300D03*
D14*
X317145400Y-121118300D03*
X303720400Y-123658300D03*
D15*
X313670400Y-121118300D03*
X307320400Y-123658300D03*
D16*
X316210400Y-126198300D03*
X306050400Y-126198300D03*
D17*
X311130400Y-126198300D03*
%TD*%
D14*
%TO.C,MX28*%
X288572200Y-121118300D03*
X275147200Y-123658300D03*
D15*
X285097200Y-121118300D03*
X278747200Y-123658300D03*
D16*
X287637200Y-126198300D03*
X277477200Y-126198300D03*
D17*
X282557200Y-126198300D03*
%TD*%
D14*
%TO.C,MX27*%
X269523400Y-121118300D03*
X256098400Y-123658300D03*
D15*
X266048400Y-121118300D03*
X259698400Y-123658300D03*
D16*
X268588400Y-126198300D03*
X258428400Y-126198300D03*
D17*
X263508400Y-126198300D03*
%TD*%
D14*
%TO.C,MX26*%
X250474600Y-121118300D03*
X237049600Y-123658300D03*
D15*
X246999600Y-121118300D03*
X240649600Y-123658300D03*
D16*
X249539600Y-126198300D03*
X239379600Y-126198300D03*
D17*
X244459600Y-126198300D03*
%TD*%
D14*
%TO.C,MX25*%
X231425800Y-121118300D03*
X218000800Y-123658300D03*
D15*
X227950800Y-121118300D03*
X221600800Y-123658300D03*
D16*
X230490800Y-126198300D03*
X220330800Y-126198300D03*
D17*
X225410800Y-126198300D03*
%TD*%
D14*
%TO.C,MX24*%
X212377000Y-121118300D03*
X198952000Y-123658300D03*
D15*
X208902000Y-121118300D03*
X202552000Y-123658300D03*
D16*
X211442000Y-126198300D03*
X201282000Y-126198300D03*
D17*
X206362000Y-126198300D03*
%TD*%
D14*
%TO.C,MX23*%
X193328200Y-121118300D03*
X179903200Y-123658300D03*
D15*
X189853200Y-121118300D03*
X183503200Y-123658300D03*
D16*
X192393200Y-126198300D03*
X182233200Y-126198300D03*
D17*
X187313200Y-126198300D03*
%TD*%
D14*
%TO.C,MX22*%
X174279400Y-121118300D03*
X160854400Y-123658300D03*
D15*
X170804400Y-121118300D03*
X164454400Y-123658300D03*
D16*
X173344400Y-126198300D03*
X163184400Y-126198300D03*
D17*
X168264400Y-126198300D03*
%TD*%
D14*
%TO.C,MX21*%
X155230600Y-121118300D03*
X141805600Y-123658300D03*
D15*
X151755600Y-121118300D03*
X145405600Y-123658300D03*
D16*
X154295600Y-126198300D03*
X144135600Y-126198300D03*
D17*
X149215600Y-126198300D03*
%TD*%
D14*
%TO.C,MX20*%
X136181800Y-121118300D03*
X122756800Y-123658300D03*
D15*
X132706800Y-121118300D03*
X126356800Y-123658300D03*
D16*
X135246800Y-126198300D03*
X125086800Y-126198300D03*
D17*
X130166800Y-126198300D03*
%TD*%
D14*
%TO.C,MX19*%
X117133000Y-121118300D03*
X103708000Y-123658300D03*
D15*
X113658000Y-121118300D03*
X107308000Y-123658300D03*
D16*
X116198000Y-126198300D03*
X106038000Y-126198300D03*
D17*
X111118000Y-126198300D03*
%TD*%
D14*
%TO.C,MX18*%
X98084200Y-121118300D03*
X84659200Y-123658300D03*
D15*
X94609200Y-121118300D03*
X88259200Y-123658300D03*
D16*
X97149200Y-126198300D03*
X86989200Y-126198300D03*
D17*
X92069200Y-126198300D03*
%TD*%
D14*
%TO.C,MX17*%
X79035400Y-121118300D03*
X65610400Y-123658300D03*
D15*
X75560400Y-121118300D03*
X69210400Y-123658300D03*
D16*
X78100400Y-126198300D03*
X67940400Y-126198300D03*
D17*
X73020400Y-126198300D03*
%TD*%
D14*
%TO.C,MX16*%
X59986600Y-121118300D03*
X46561600Y-123658300D03*
D15*
X56511600Y-121118300D03*
X50161600Y-123658300D03*
D16*
X59051600Y-126198300D03*
X48891600Y-126198300D03*
D17*
X53971600Y-126198300D03*
%TD*%
D14*
%TO.C,MX15*%
X36175600Y-121118300D03*
X22750600Y-123658300D03*
D15*
X32700600Y-121118300D03*
X26350600Y-123658300D03*
D16*
X35240600Y-126198300D03*
X25080600Y-126198300D03*
D17*
X30160600Y-126198300D03*
%TD*%
D14*
%TO.C,MX14*%
X355243000Y-92545100D03*
X341818000Y-95085100D03*
D15*
X351768000Y-92545100D03*
X345418000Y-95085100D03*
D16*
X354308000Y-97625100D03*
X344148000Y-97625100D03*
D17*
X349228000Y-97625100D03*
%TD*%
D14*
%TO.C,MX13*%
X326669800Y-92545100D03*
X313244800Y-95085100D03*
D15*
X323194800Y-92545100D03*
X316844800Y-95085100D03*
D16*
X325734800Y-97625100D03*
X315574800Y-97625100D03*
D17*
X320654800Y-97625100D03*
%TD*%
D14*
%TO.C,MX12*%
X307621000Y-92545100D03*
X294196000Y-95085100D03*
D15*
X304146000Y-92545100D03*
X297796000Y-95085100D03*
D16*
X306686000Y-97625100D03*
X296526000Y-97625100D03*
D17*
X301606000Y-97625100D03*
%TD*%
D14*
%TO.C,MX11*%
X288572200Y-92545100D03*
X275147200Y-95085100D03*
D15*
X285097200Y-92545100D03*
X278747200Y-95085100D03*
D16*
X287637200Y-97625100D03*
X277477200Y-97625100D03*
D17*
X282557200Y-97625100D03*
%TD*%
D14*
%TO.C,MX10*%
X269523400Y-92545100D03*
X256098400Y-95085100D03*
D15*
X266048400Y-92545100D03*
X259698400Y-95085100D03*
D16*
X268588400Y-97625100D03*
X258428400Y-97625100D03*
D17*
X263508400Y-97625100D03*
%TD*%
D14*
%TO.C,MX9*%
X240950200Y-92545100D03*
X227525200Y-95085100D03*
D15*
X237475200Y-92545100D03*
X231125200Y-95085100D03*
D16*
X240015200Y-97625100D03*
X229855200Y-97625100D03*
D17*
X234935200Y-97625100D03*
%TD*%
D14*
%TO.C,MX8*%
X221901400Y-92545100D03*
X208476400Y-95085100D03*
D15*
X218426400Y-92545100D03*
X212076400Y-95085100D03*
D16*
X220966400Y-97625100D03*
X210806400Y-97625100D03*
D17*
X215886400Y-97625100D03*
%TD*%
D14*
%TO.C,MX7*%
X202852600Y-92545100D03*
X189427600Y-95085100D03*
D15*
X199377600Y-92545100D03*
X193027600Y-95085100D03*
D16*
X201917600Y-97625100D03*
X191757600Y-97625100D03*
D17*
X196837600Y-97625100D03*
%TD*%
D14*
%TO.C,MX6*%
X183803800Y-92545100D03*
X170378800Y-95085100D03*
D15*
X180328800Y-92545100D03*
X173978800Y-95085100D03*
D16*
X182868800Y-97625100D03*
X172708800Y-97625100D03*
D17*
X177788800Y-97625100D03*
%TD*%
D14*
%TO.C,MX5*%
X155230600Y-92545100D03*
X141805600Y-95085100D03*
D15*
X151755600Y-92545100D03*
X145405600Y-95085100D03*
D16*
X154295600Y-97625100D03*
X144135600Y-97625100D03*
D17*
X149215600Y-97625100D03*
%TD*%
D14*
%TO.C,MX4*%
X136181800Y-92545100D03*
X122756800Y-95085100D03*
D15*
X132706800Y-92545100D03*
X126356800Y-95085100D03*
D16*
X135246800Y-97625100D03*
X125086800Y-97625100D03*
D17*
X130166800Y-97625100D03*
%TD*%
D14*
%TO.C,MX3*%
X117133000Y-92545100D03*
X103708000Y-95085100D03*
D15*
X113658000Y-92545100D03*
X107308000Y-95085100D03*
D16*
X116198000Y-97625100D03*
X106038000Y-97625100D03*
D17*
X111118000Y-97625100D03*
%TD*%
D14*
%TO.C,MX2*%
X98084200Y-92545100D03*
X84659200Y-95085100D03*
D15*
X94609200Y-92545100D03*
X88259200Y-95085100D03*
D16*
X97149200Y-97625100D03*
X86989200Y-97625100D03*
D17*
X92069200Y-97625100D03*
%TD*%
D14*
%TO.C,MX1*%
X59986600Y-92545100D03*
X46561600Y-95085100D03*
D15*
X56511600Y-92545100D03*
X50161600Y-95085100D03*
D16*
X59051600Y-97625100D03*
X48891600Y-97625100D03*
D17*
X53971600Y-97625100D03*
%TD*%
%TO.C,R8*%
G36*
G01*
X340840998Y-163902200D02*
X341741002Y-163902200D01*
G75*
G02*
X341991000Y-164152198I0J-249998D01*
G01*
X341991000Y-164677202D01*
G75*
G02*
X341741002Y-164927200I-249998J0D01*
G01*
X340840998Y-164927200D01*
G75*
G02*
X340591000Y-164677202I0J249998D01*
G01*
X340591000Y-164152198D01*
G75*
G02*
X340840998Y-163902200I249998J0D01*
G01*
G37*
G36*
G01*
X340840998Y-162077200D02*
X341741002Y-162077200D01*
G75*
G02*
X341991000Y-162327198I0J-249998D01*
G01*
X341991000Y-162852202D01*
G75*
G02*
X341741002Y-163102200I-249998J0D01*
G01*
X340840998Y-163102200D01*
G75*
G02*
X340591000Y-162852202I0J249998D01*
G01*
X340591000Y-162327198D01*
G75*
G02*
X340840998Y-162077200I249998J0D01*
G01*
G37*
%TD*%
%TO.C,D5*%
G36*
G01*
X344128350Y-163052200D02*
X343215850Y-163052200D01*
G75*
G02*
X342972100Y-162808450I0J243750D01*
G01*
X342972100Y-162320950D01*
G75*
G02*
X343215850Y-162077200I243750J0D01*
G01*
X344128350Y-162077200D01*
G75*
G02*
X344372100Y-162320950I0J-243750D01*
G01*
X344372100Y-162808450D01*
G75*
G02*
X344128350Y-163052200I-243750J0D01*
G01*
G37*
G36*
G01*
X344128350Y-164927200D02*
X343215850Y-164927200D01*
G75*
G02*
X342972100Y-164683450I0J243750D01*
G01*
X342972100Y-164195950D01*
G75*
G02*
X343215850Y-163952200I243750J0D01*
G01*
X344128350Y-163952200D01*
G75*
G02*
X344372100Y-164195950I0J-243750D01*
G01*
X344372100Y-164683450D01*
G75*
G02*
X344128350Y-164927200I-243750J0D01*
G01*
G37*
%TD*%
%TO.C,R1*%
G36*
G01*
X252740298Y-97231400D02*
X253640302Y-97231400D01*
G75*
G02*
X253890300Y-97481398I0J-249998D01*
G01*
X253890300Y-98006402D01*
G75*
G02*
X253640302Y-98256400I-249998J0D01*
G01*
X252740298Y-98256400D01*
G75*
G02*
X252490300Y-98006402I0J249998D01*
G01*
X252490300Y-97481398D01*
G75*
G02*
X252740298Y-97231400I249998J0D01*
G01*
G37*
G36*
G01*
X252740298Y-95406400D02*
X253640302Y-95406400D01*
G75*
G02*
X253890300Y-95656398I0J-249998D01*
G01*
X253890300Y-96181402D01*
G75*
G02*
X253640302Y-96431400I-249998J0D01*
G01*
X252740298Y-96431400D01*
G75*
G02*
X252490300Y-96181402I0J249998D01*
G01*
X252490300Y-95656398D01*
G75*
G02*
X252740298Y-95406400I249998J0D01*
G01*
G37*
%TD*%
D19*
%TO.C,J3*%
X233823700Y-108736900D03*
X236363700Y-108736900D03*
D20*
X238903700Y-108736900D03*
%TD*%
%TO.C,FB1*%
G36*
G01*
X245665750Y-95869000D02*
X246428250Y-95869000D01*
G75*
G02*
X246647000Y-96087750I0J-218750D01*
G01*
X246647000Y-96525250D01*
G75*
G02*
X246428250Y-96744000I-218750J0D01*
G01*
X245665750Y-96744000D01*
G75*
G02*
X245447000Y-96525250I0J218750D01*
G01*
X245447000Y-96087750D01*
G75*
G02*
X245665750Y-95869000I218750J0D01*
G01*
G37*
G36*
G01*
X245665750Y-93744000D02*
X246428250Y-93744000D01*
G75*
G02*
X246647000Y-93962750I0J-218750D01*
G01*
X246647000Y-94400250D01*
G75*
G02*
X246428250Y-94619000I-218750J0D01*
G01*
X245665750Y-94619000D01*
G75*
G02*
X245447000Y-94400250I0J218750D01*
G01*
X245447000Y-93962750D01*
G75*
G02*
X245665750Y-93744000I218750J0D01*
G01*
G37*
%TD*%
%TO.C,F1*%
G36*
G01*
X244628300Y-91256800D02*
X245878300Y-91256800D01*
G75*
G02*
X246128300Y-91506800I0J-250000D01*
G01*
X246128300Y-92256800D01*
G75*
G02*
X245878300Y-92506800I-250000J0D01*
G01*
X244628300Y-92506800D01*
G75*
G02*
X244378300Y-92256800I0J250000D01*
G01*
X244378300Y-91506800D01*
G75*
G02*
X244628300Y-91256800I250000J0D01*
G01*
G37*
G36*
G01*
X244628300Y-88456800D02*
X245878300Y-88456800D01*
G75*
G02*
X246128300Y-88706800I0J-250000D01*
G01*
X246128300Y-89456800D01*
G75*
G02*
X245878300Y-89706800I-250000J0D01*
G01*
X244628300Y-89706800D01*
G75*
G02*
X244378300Y-89456800I0J250000D01*
G01*
X244378300Y-88706800D01*
G75*
G02*
X244628300Y-88456800I250000J0D01*
G01*
G37*
%TD*%
D12*
%TO.C,RST1*%
X366689400Y-161914800D03*
%TD*%
D21*
%TO.C,LED64*%
X308749300Y-169370900D03*
D22*
X307199300Y-169920900D03*
X307199300Y-168820900D03*
X310299300Y-169920900D03*
X310299300Y-168820900D03*
%TD*%
D21*
%TO.C,LED63*%
X277795000Y-169370900D03*
D22*
X276245000Y-169920900D03*
X276245000Y-168820900D03*
X279345000Y-169920900D03*
X279345000Y-168820900D03*
%TD*%
D21*
%TO.C,LED62*%
X258746200Y-169370900D03*
D22*
X257196200Y-169920900D03*
X257196200Y-168820900D03*
X260296200Y-169920900D03*
X260296200Y-168820900D03*
%TD*%
D21*
%TO.C,LED61*%
X239697400Y-169370900D03*
D22*
X238147400Y-169920900D03*
X238147400Y-168820900D03*
X241247400Y-169920900D03*
X241247400Y-168820900D03*
%TD*%
D21*
%TO.C,LED60*%
X220648600Y-169370900D03*
D22*
X219098600Y-169920900D03*
X219098600Y-168820900D03*
X222198600Y-169920900D03*
X222198600Y-168820900D03*
%TD*%
D21*
%TO.C,LED59*%
X201599800Y-169370900D03*
D22*
X200049800Y-169920900D03*
X200049800Y-168820900D03*
X203149800Y-169920900D03*
X203149800Y-168820900D03*
%TD*%
D21*
%TO.C,LED58*%
X182551000Y-169370900D03*
D22*
X181001000Y-169920900D03*
X181001000Y-168820900D03*
X184101000Y-169920900D03*
X184101000Y-168820900D03*
%TD*%
D21*
%TO.C,LED57*%
X163502200Y-169370900D03*
D22*
X161952200Y-169920900D03*
X161952200Y-168820900D03*
X165052200Y-169920900D03*
X165052200Y-168820900D03*
%TD*%
D21*
%TO.C,LED56*%
X144453400Y-169370900D03*
D22*
X142903400Y-169920900D03*
X142903400Y-168820900D03*
X146003400Y-169920900D03*
X146003400Y-168820900D03*
%TD*%
D21*
%TO.C,LED55*%
X125404600Y-169370900D03*
D22*
X123854600Y-169920900D03*
X123854600Y-168820900D03*
X126954600Y-169920900D03*
X126954600Y-168820900D03*
%TD*%
D21*
%TO.C,LED54*%
X106355800Y-169370900D03*
D22*
X104805800Y-169920900D03*
X104805800Y-168820900D03*
X107905800Y-169920900D03*
X107905800Y-168820900D03*
%TD*%
D21*
%TO.C,LED53*%
X87307000Y-169370900D03*
D22*
X85757000Y-169920900D03*
X85757000Y-168820900D03*
X88857000Y-169920900D03*
X88857000Y-168820900D03*
%TD*%
D21*
%TO.C,LED52*%
X61114900Y-169370900D03*
D22*
X59564900Y-169920900D03*
X59564900Y-168820900D03*
X62664900Y-169920900D03*
X62664900Y-168820900D03*
%TD*%
D21*
%TO.C,LED51*%
X30160600Y-169370900D03*
D22*
X28610600Y-169920900D03*
X28610600Y-168820900D03*
X31710600Y-169920900D03*
X31710600Y-168820900D03*
%TD*%
D21*
%TO.C,LED50*%
X58733800Y-150322100D03*
D22*
X57183800Y-150872100D03*
X57183800Y-149772100D03*
X60283800Y-150872100D03*
X60283800Y-149772100D03*
%TD*%
D21*
%TO.C,LED49*%
X30160600Y-150322100D03*
D22*
X28610600Y-150872100D03*
X28610600Y-149772100D03*
X31710600Y-150872100D03*
X31710600Y-149772100D03*
%TD*%
%TO.C,R7*%
G36*
G01*
X375938800Y-169483100D02*
X376488800Y-169483100D01*
G75*
G02*
X376688800Y-169683100I0J-200000D01*
G01*
X376688800Y-170083100D01*
G75*
G02*
X376488800Y-170283100I-200000J0D01*
G01*
X375938800Y-170283100D01*
G75*
G02*
X375738800Y-170083100I0J200000D01*
G01*
X375738800Y-169683100D01*
G75*
G02*
X375938800Y-169483100I200000J0D01*
G01*
G37*
G36*
G01*
X375938800Y-167833100D02*
X376488800Y-167833100D01*
G75*
G02*
X376688800Y-168033100I0J-200000D01*
G01*
X376688800Y-168433100D01*
G75*
G02*
X376488800Y-168633100I-200000J0D01*
G01*
X375938800Y-168633100D01*
G75*
G02*
X375738800Y-168433100I0J200000D01*
G01*
X375738800Y-168033100D01*
G75*
G02*
X375938800Y-167833100I200000J0D01*
G01*
G37*
%TD*%
D21*
%TO.C,LED90*%
X103974700Y-207468500D03*
D22*
X102424700Y-208018500D03*
X102424700Y-206918500D03*
X105524700Y-208018500D03*
X105524700Y-206918500D03*
%TD*%
D21*
%TO.C,LED89*%
X175407700Y-207468500D03*
D22*
X173857700Y-208018500D03*
X173857700Y-206918500D03*
X176957700Y-208018500D03*
X176957700Y-206918500D03*
%TD*%
D21*
%TO.C,LED88*%
X318273700Y-207468500D03*
D22*
X316723700Y-208018500D03*
X316723700Y-206918500D03*
X319823700Y-208018500D03*
X319823700Y-206918500D03*
%TD*%
D21*
%TO.C,LED87*%
X294462700Y-207468500D03*
D22*
X292912700Y-208018500D03*
X292912700Y-206918500D03*
X296012700Y-208018500D03*
X296012700Y-206918500D03*
%TD*%
D21*
%TO.C,LED86*%
X270651700Y-207468500D03*
D22*
X269101700Y-208018500D03*
X269101700Y-206918500D03*
X272201700Y-208018500D03*
X272201700Y-206918500D03*
%TD*%
D21*
%TO.C,LED85*%
X246840700Y-207468500D03*
D22*
X245290700Y-208018500D03*
X245290700Y-206918500D03*
X248390700Y-208018500D03*
X248390700Y-206918500D03*
%TD*%
D21*
%TO.C,LED84*%
X349228000Y-207468500D03*
D22*
X347678000Y-208018500D03*
X347678000Y-206918500D03*
X350778000Y-208018500D03*
X350778000Y-206918500D03*
%TD*%
D21*
%TO.C,LED83*%
X368276800Y-207468500D03*
D22*
X366726800Y-208018500D03*
X366726800Y-206918500D03*
X369826800Y-208018500D03*
X369826800Y-206918500D03*
%TD*%
D21*
%TO.C,LED82*%
X368276800Y-188419700D03*
D22*
X366726800Y-188969700D03*
X366726800Y-187869700D03*
X369826800Y-188969700D03*
X369826800Y-187869700D03*
%TD*%
D21*
%TO.C,LED81*%
X387325600Y-207468500D03*
D22*
X385775600Y-208018500D03*
X385775600Y-206918500D03*
X388875600Y-208018500D03*
X388875600Y-206918500D03*
%TD*%
D21*
%TO.C,LED32*%
X73020400Y-131273300D03*
D22*
X71470400Y-131823300D03*
X71470400Y-130723300D03*
X74570400Y-131823300D03*
X74570400Y-130723300D03*
%TD*%
D21*
%TO.C,LED31*%
X92069200Y-131273300D03*
D22*
X90519200Y-131823300D03*
X90519200Y-130723300D03*
X93619200Y-131823300D03*
X93619200Y-130723300D03*
%TD*%
D21*
%TO.C,LED30*%
X111118000Y-131273300D03*
D22*
X109568000Y-131823300D03*
X109568000Y-130723300D03*
X112668000Y-131823300D03*
X112668000Y-130723300D03*
%TD*%
D21*
%TO.C,LED29*%
X130166800Y-131273300D03*
D22*
X128616800Y-131823300D03*
X128616800Y-130723300D03*
X131716800Y-131823300D03*
X131716800Y-130723300D03*
%TD*%
D21*
%TO.C,LED28*%
X149215600Y-131273300D03*
D22*
X147665600Y-131823300D03*
X147665600Y-130723300D03*
X150765600Y-131823300D03*
X150765600Y-130723300D03*
%TD*%
D21*
%TO.C,LED27*%
X168264400Y-131273300D03*
D22*
X166714400Y-131823300D03*
X166714400Y-130723300D03*
X169814400Y-131823300D03*
X169814400Y-130723300D03*
%TD*%
D21*
%TO.C,LED26*%
X187313200Y-131273300D03*
D22*
X185763200Y-131823300D03*
X185763200Y-130723300D03*
X188863200Y-131823300D03*
X188863200Y-130723300D03*
%TD*%
D21*
%TO.C,LED25*%
X206362000Y-131273300D03*
D22*
X204812000Y-131823300D03*
X204812000Y-130723300D03*
X207912000Y-131823300D03*
X207912000Y-130723300D03*
%TD*%
D21*
%TO.C,LED24*%
X225410800Y-131273300D03*
D22*
X223860800Y-131823300D03*
X223860800Y-130723300D03*
X226960800Y-131823300D03*
X226960800Y-130723300D03*
%TD*%
D21*
%TO.C,LED23*%
X244459600Y-131273300D03*
D22*
X242909600Y-131823300D03*
X242909600Y-130723300D03*
X246009600Y-131823300D03*
X246009600Y-130723300D03*
%TD*%
D21*
%TO.C,LED22*%
X263508400Y-131273300D03*
D22*
X261958400Y-131823300D03*
X261958400Y-130723300D03*
X265058400Y-131823300D03*
X265058400Y-130723300D03*
%TD*%
D21*
%TO.C,LED21*%
X282557200Y-131273300D03*
D22*
X281007200Y-131823300D03*
X281007200Y-130723300D03*
X284107200Y-131823300D03*
X284107200Y-130723300D03*
%TD*%
D21*
%TO.C,LED20*%
X311130400Y-131273300D03*
D22*
X309580400Y-131823300D03*
X309580400Y-130723300D03*
X312680400Y-131823300D03*
X312680400Y-130723300D03*
%TD*%
D21*
%TO.C,LED19*%
X349228000Y-131273300D03*
D22*
X347678000Y-131823300D03*
X347678000Y-130723300D03*
X350778000Y-131823300D03*
X350778000Y-130723300D03*
%TD*%
D21*
%TO.C,LED18*%
X368276800Y-131273300D03*
D22*
X366726800Y-131823300D03*
X366726800Y-130723300D03*
X369826800Y-131823300D03*
X369826800Y-130723300D03*
%TD*%
D21*
%TO.C,LED17*%
X387325600Y-131273300D03*
D22*
X385775600Y-131823300D03*
X385775600Y-130723300D03*
X388875600Y-131823300D03*
X388875600Y-130723300D03*
%TD*%
D12*
%TO.C,COL13*%
X274620200Y-119848700D03*
%TD*%
D21*
%TO.C,LED1*%
X30160600Y-131273300D03*
D22*
X28610600Y-131823300D03*
X28610600Y-130723300D03*
X31710600Y-131823300D03*
X31710600Y-130723300D03*
%TD*%
D21*
%TO.C,LED2*%
X53971600Y-131273300D03*
D22*
X52421600Y-131823300D03*
X52421600Y-130723300D03*
X55521600Y-131823300D03*
X55521600Y-130723300D03*
%TD*%
D21*
%TO.C,LED80*%
X303987100Y-188419700D03*
D22*
X302437100Y-188969700D03*
X302437100Y-187869700D03*
X305537100Y-188969700D03*
X305537100Y-187869700D03*
%TD*%
D21*
%TO.C,LED79*%
X268270600Y-188419700D03*
D22*
X266720600Y-188969700D03*
X266720600Y-187869700D03*
X269820600Y-188969700D03*
X269820600Y-187869700D03*
%TD*%
D21*
%TO.C,LED78*%
X249221800Y-188419700D03*
D22*
X247671800Y-188969700D03*
X247671800Y-187869700D03*
X250771800Y-188969700D03*
X250771800Y-187869700D03*
%TD*%
D21*
%TO.C,LED77*%
X230173000Y-188419700D03*
D22*
X228623000Y-188969700D03*
X228623000Y-187869700D03*
X231723000Y-188969700D03*
X231723000Y-187869700D03*
%TD*%
D21*
%TO.C,LED76*%
X211124200Y-188419700D03*
D22*
X209574200Y-188969700D03*
X209574200Y-187869700D03*
X212674200Y-188969700D03*
X212674200Y-187869700D03*
%TD*%
D21*
%TO.C,LED75*%
X192075400Y-188419700D03*
D22*
X190525400Y-188969700D03*
X190525400Y-187869700D03*
X193625400Y-188969700D03*
X193625400Y-187869700D03*
%TD*%
D21*
%TO.C,LED74*%
X173026600Y-188419700D03*
D22*
X171476600Y-188969700D03*
X171476600Y-187869700D03*
X174576600Y-188969700D03*
X174576600Y-187869700D03*
%TD*%
D21*
%TO.C,LED73*%
X153977800Y-188419700D03*
D22*
X152427800Y-188969700D03*
X152427800Y-187869700D03*
X155527800Y-188969700D03*
X155527800Y-187869700D03*
%TD*%
D21*
%TO.C,LED72*%
X134929000Y-188419700D03*
D22*
X133379000Y-188969700D03*
X133379000Y-187869700D03*
X136479000Y-188969700D03*
X136479000Y-187869700D03*
%TD*%
D21*
%TO.C,LED71*%
X115880200Y-188419700D03*
D22*
X114330200Y-188969700D03*
X114330200Y-187869700D03*
X117430200Y-188969700D03*
X117430200Y-187869700D03*
%TD*%
D21*
%TO.C,LED70*%
X96831400Y-188419700D03*
D22*
X95281400Y-188969700D03*
X95281400Y-187869700D03*
X98381400Y-188969700D03*
X98381400Y-187869700D03*
%TD*%
D21*
%TO.C,LED69*%
X65877100Y-188419700D03*
D22*
X64327100Y-188969700D03*
X64327100Y-187869700D03*
X67427100Y-188969700D03*
X67427100Y-187869700D03*
%TD*%
D21*
%TO.C,LED68*%
X30160600Y-188419700D03*
D22*
X28610600Y-188969700D03*
X28610600Y-187869700D03*
X31710600Y-188969700D03*
X31710600Y-187869700D03*
%TD*%
D21*
%TO.C,LED67*%
X80163700Y-207468500D03*
D22*
X78613700Y-208018500D03*
X78613700Y-206918500D03*
X81713700Y-208018500D03*
X81713700Y-206918500D03*
%TD*%
D21*
%TO.C,LED66*%
X56352700Y-207468500D03*
D22*
X54802700Y-208018500D03*
X54802700Y-206918500D03*
X57902700Y-208018500D03*
X57902700Y-206918500D03*
%TD*%
D21*
%TO.C,LED65*%
X30160600Y-207468500D03*
D22*
X28610600Y-208018500D03*
X28610600Y-206918500D03*
X31710600Y-208018500D03*
X31710600Y-206918500D03*
%TD*%
D21*
%TO.C,LED48*%
X387325600Y-150322100D03*
D22*
X385775600Y-150872100D03*
X385775600Y-149772100D03*
X388875600Y-150872100D03*
X388875600Y-149772100D03*
%TD*%
D21*
%TO.C,LED47*%
X368276800Y-150322100D03*
D22*
X366726800Y-150872100D03*
X366726800Y-149772100D03*
X369826800Y-150872100D03*
X369826800Y-149772100D03*
%TD*%
D21*
%TO.C,LED46*%
X349228000Y-150322100D03*
D22*
X347678000Y-150872100D03*
X347678000Y-149772100D03*
X350778000Y-150872100D03*
X350778000Y-149772100D03*
%TD*%
D21*
%TO.C,LED45*%
X315892600Y-150322100D03*
D22*
X314342600Y-150872100D03*
X314342600Y-149772100D03*
X317442600Y-150872100D03*
X317442600Y-149772100D03*
%TD*%
D21*
%TO.C,LED44*%
X292081600Y-150322100D03*
D22*
X290531600Y-150872100D03*
X290531600Y-149772100D03*
X293631600Y-150872100D03*
X293631600Y-149772100D03*
%TD*%
D21*
%TO.C,LED43*%
X273032800Y-150322100D03*
D22*
X271482800Y-150872100D03*
X271482800Y-149772100D03*
X274582800Y-150872100D03*
X274582800Y-149772100D03*
%TD*%
D21*
%TO.C,LED42*%
X253984000Y-150322100D03*
D22*
X252434000Y-150872100D03*
X252434000Y-149772100D03*
X255534000Y-150872100D03*
X255534000Y-149772100D03*
%TD*%
D21*
%TO.C,LED41*%
X234935200Y-150322100D03*
D22*
X233385200Y-150872100D03*
X233385200Y-149772100D03*
X236485200Y-150872100D03*
X236485200Y-149772100D03*
%TD*%
D21*
%TO.C,LED40*%
X215886400Y-150322100D03*
D22*
X214336400Y-150872100D03*
X214336400Y-149772100D03*
X217436400Y-150872100D03*
X217436400Y-149772100D03*
%TD*%
D21*
%TO.C,LED39*%
X196837600Y-150322100D03*
D22*
X195287600Y-150872100D03*
X195287600Y-149772100D03*
X198387600Y-150872100D03*
X198387600Y-149772100D03*
%TD*%
D21*
%TO.C,LED38*%
X177788800Y-150322100D03*
D22*
X176238800Y-150872100D03*
X176238800Y-149772100D03*
X179338800Y-150872100D03*
X179338800Y-149772100D03*
%TD*%
D21*
%TO.C,LED37*%
X158740000Y-150322100D03*
D22*
X157190000Y-150872100D03*
X157190000Y-149772100D03*
X160290000Y-150872100D03*
X160290000Y-149772100D03*
%TD*%
D21*
%TO.C,LED36*%
X139691200Y-150322100D03*
D22*
X138141200Y-150872100D03*
X138141200Y-149772100D03*
X141241200Y-150872100D03*
X141241200Y-149772100D03*
%TD*%
D21*
%TO.C,LED35*%
X120642400Y-150322100D03*
D22*
X119092400Y-150872100D03*
X119092400Y-149772100D03*
X122192400Y-150872100D03*
X122192400Y-149772100D03*
%TD*%
D21*
%TO.C,LED34*%
X101593600Y-150322100D03*
D22*
X100043600Y-150872100D03*
X100043600Y-149772100D03*
X103143600Y-150872100D03*
X103143600Y-149772100D03*
%TD*%
D21*
%TO.C,LED33*%
X82544800Y-150322100D03*
D22*
X80994800Y-150872100D03*
X80994800Y-149772100D03*
X84094800Y-150872100D03*
X84094800Y-149772100D03*
%TD*%
D21*
%TO.C,LED16*%
X349228000Y-102700100D03*
D22*
X347678000Y-103250100D03*
X347678000Y-102150100D03*
X350778000Y-103250100D03*
X350778000Y-102150100D03*
%TD*%
D21*
%TO.C,LED15*%
X320654800Y-102700100D03*
D22*
X319104800Y-103250100D03*
X319104800Y-102150100D03*
X322204800Y-103250100D03*
X322204800Y-102150100D03*
%TD*%
D21*
%TO.C,LED14*%
X301606000Y-102700100D03*
D22*
X300056000Y-103250100D03*
X300056000Y-102150100D03*
X303156000Y-103250100D03*
X303156000Y-102150100D03*
%TD*%
D21*
%TO.C,LED13*%
X282557200Y-102700100D03*
D22*
X281007200Y-103250100D03*
X281007200Y-102150100D03*
X284107200Y-103250100D03*
X284107200Y-102150100D03*
%TD*%
D21*
%TO.C,LED12*%
X263508400Y-102700100D03*
D22*
X261958400Y-103250100D03*
X261958400Y-102150100D03*
X265058400Y-103250100D03*
X265058400Y-102150100D03*
%TD*%
D21*
%TO.C,LED11*%
X234935200Y-102700100D03*
D22*
X233385200Y-103250100D03*
X233385200Y-102150100D03*
X236485200Y-103250100D03*
X236485200Y-102150100D03*
%TD*%
D21*
%TO.C,LED10*%
X215886400Y-102700100D03*
D22*
X214336400Y-103250100D03*
X214336400Y-102150100D03*
X217436400Y-103250100D03*
X217436400Y-102150100D03*
%TD*%
D21*
%TO.C,LED9*%
X196837600Y-102700100D03*
D22*
X195287600Y-103250100D03*
X195287600Y-102150100D03*
X198387600Y-103250100D03*
X198387600Y-102150100D03*
%TD*%
D21*
%TO.C,LED8*%
X177788800Y-102700100D03*
D22*
X176238800Y-103250100D03*
X176238800Y-102150100D03*
X179338800Y-103250100D03*
X179338800Y-102150100D03*
%TD*%
D21*
%TO.C,LED7*%
X149215600Y-102700100D03*
D22*
X147665600Y-103250100D03*
X147665600Y-102150100D03*
X150765600Y-103250100D03*
X150765600Y-102150100D03*
%TD*%
D21*
%TO.C,LED6*%
X130166800Y-102700100D03*
D22*
X128616800Y-103250100D03*
X128616800Y-102150100D03*
X131716800Y-103250100D03*
X131716800Y-102150100D03*
%TD*%
D21*
%TO.C,LED5*%
X111118000Y-102700100D03*
D22*
X109568000Y-103250100D03*
X109568000Y-102150100D03*
X112668000Y-103250100D03*
X112668000Y-102150100D03*
%TD*%
D21*
%TO.C,LED4*%
X92069200Y-102700100D03*
D22*
X90519200Y-103250100D03*
X90519200Y-102150100D03*
X93619200Y-103250100D03*
X93619200Y-102150100D03*
%TD*%
D21*
%TO.C,LED3*%
X53971600Y-102700100D03*
D22*
X52421600Y-103250100D03*
X52421600Y-102150100D03*
X55521600Y-103250100D03*
X55521600Y-102150100D03*
%TD*%
D23*
%TO.C,SW1*%
X380107500Y-163764800D03*
X373907500Y-160064800D03*
X380107500Y-160064800D03*
X373907500Y-163764800D03*
%TD*%
D24*
%TO.C,J2*%
X339809900Y-153558900D03*
X339809900Y-159158900D03*
D25*
X343684900Y-157858900D03*
X343684900Y-156858900D03*
X343684900Y-154858900D03*
X343684900Y-155858900D03*
%TD*%
D13*
%TO.C,KD76*%
X276207600Y-181694700D03*
X276207600Y-184994700D03*
%TD*%
D26*
%TO.C,I3*%
X328988650Y-189297450D03*
G36*
G01*
X326688650Y-187997450D02*
X327413650Y-187997450D01*
G75*
G02*
X327463650Y-188047450I0J-50000D01*
G01*
X327463650Y-188147450D01*
G75*
G02*
X327413650Y-188197450I-50000J0D01*
G01*
X326688650Y-188197450D01*
G75*
G02*
X326638650Y-188147450I0J50000D01*
G01*
X326638650Y-188047450D01*
G75*
G02*
X326688650Y-187997450I50000J0D01*
G01*
G37*
G36*
G01*
X326688650Y-188397450D02*
X327413650Y-188397450D01*
G75*
G02*
X327463650Y-188447450I0J-50000D01*
G01*
X327463650Y-188547450D01*
G75*
G02*
X327413650Y-188597450I-50000J0D01*
G01*
X326688650Y-188597450D01*
G75*
G02*
X326638650Y-188547450I0J50000D01*
G01*
X326638650Y-188447450D01*
G75*
G02*
X326688650Y-188397450I50000J0D01*
G01*
G37*
G36*
G01*
X326688650Y-188797450D02*
X327413650Y-188797450D01*
G75*
G02*
X327463650Y-188847450I0J-50000D01*
G01*
X327463650Y-188947450D01*
G75*
G02*
X327413650Y-188997450I-50000J0D01*
G01*
X326688650Y-188997450D01*
G75*
G02*
X326638650Y-188947450I0J50000D01*
G01*
X326638650Y-188847450D01*
G75*
G02*
X326688650Y-188797450I50000J0D01*
G01*
G37*
G36*
G01*
X326688650Y-189197450D02*
X327413650Y-189197450D01*
G75*
G02*
X327463650Y-189247450I0J-50000D01*
G01*
X327463650Y-189347450D01*
G75*
G02*
X327413650Y-189397450I-50000J0D01*
G01*
X326688650Y-189397450D01*
G75*
G02*
X326638650Y-189347450I0J50000D01*
G01*
X326638650Y-189247450D01*
G75*
G02*
X326688650Y-189197450I50000J0D01*
G01*
G37*
G36*
G01*
X326688650Y-189597450D02*
X327413650Y-189597450D01*
G75*
G02*
X327463650Y-189647450I0J-50000D01*
G01*
X327463650Y-189747450D01*
G75*
G02*
X327413650Y-189797450I-50000J0D01*
G01*
X326688650Y-189797450D01*
G75*
G02*
X326638650Y-189747450I0J50000D01*
G01*
X326638650Y-189647450D01*
G75*
G02*
X326688650Y-189597450I50000J0D01*
G01*
G37*
G36*
G01*
X326688650Y-189997450D02*
X327413650Y-189997450D01*
G75*
G02*
X327463650Y-190047450I0J-50000D01*
G01*
X327463650Y-190147450D01*
G75*
G02*
X327413650Y-190197450I-50000J0D01*
G01*
X326688650Y-190197450D01*
G75*
G02*
X326638650Y-190147450I0J50000D01*
G01*
X326638650Y-190047450D01*
G75*
G02*
X326688650Y-189997450I50000J0D01*
G01*
G37*
G36*
G01*
X326688650Y-190397450D02*
X327413650Y-190397450D01*
G75*
G02*
X327463650Y-190447450I0J-50000D01*
G01*
X327463650Y-190547450D01*
G75*
G02*
X327413650Y-190597450I-50000J0D01*
G01*
X326688650Y-190597450D01*
G75*
G02*
X326638650Y-190547450I0J50000D01*
G01*
X326638650Y-190447450D01*
G75*
G02*
X326688650Y-190397450I50000J0D01*
G01*
G37*
G36*
G01*
X327738650Y-190822450D02*
X327838650Y-190822450D01*
G75*
G02*
X327888650Y-190872450I0J-50000D01*
G01*
X327888650Y-191597450D01*
G75*
G02*
X327838650Y-191647450I-50000J0D01*
G01*
X327738650Y-191647450D01*
G75*
G02*
X327688650Y-191597450I0J50000D01*
G01*
X327688650Y-190872450D01*
G75*
G02*
X327738650Y-190822450I50000J0D01*
G01*
G37*
G36*
G01*
X328138650Y-190822450D02*
X328238650Y-190822450D01*
G75*
G02*
X328288650Y-190872450I0J-50000D01*
G01*
X328288650Y-191597450D01*
G75*
G02*
X328238650Y-191647450I-50000J0D01*
G01*
X328138650Y-191647450D01*
G75*
G02*
X328088650Y-191597450I0J50000D01*
G01*
X328088650Y-190872450D01*
G75*
G02*
X328138650Y-190822450I50000J0D01*
G01*
G37*
G36*
G01*
X328538650Y-190822450D02*
X328638650Y-190822450D01*
G75*
G02*
X328688650Y-190872450I0J-50000D01*
G01*
X328688650Y-191597450D01*
G75*
G02*
X328638650Y-191647450I-50000J0D01*
G01*
X328538650Y-191647450D01*
G75*
G02*
X328488650Y-191597450I0J50000D01*
G01*
X328488650Y-190872450D01*
G75*
G02*
X328538650Y-190822450I50000J0D01*
G01*
G37*
G36*
G01*
X328938650Y-190822450D02*
X329038650Y-190822450D01*
G75*
G02*
X329088650Y-190872450I0J-50000D01*
G01*
X329088650Y-191597450D01*
G75*
G02*
X329038650Y-191647450I-50000J0D01*
G01*
X328938650Y-191647450D01*
G75*
G02*
X328888650Y-191597450I0J50000D01*
G01*
X328888650Y-190872450D01*
G75*
G02*
X328938650Y-190822450I50000J0D01*
G01*
G37*
G36*
G01*
X329338650Y-190822450D02*
X329438650Y-190822450D01*
G75*
G02*
X329488650Y-190872450I0J-50000D01*
G01*
X329488650Y-191597450D01*
G75*
G02*
X329438650Y-191647450I-50000J0D01*
G01*
X329338650Y-191647450D01*
G75*
G02*
X329288650Y-191597450I0J50000D01*
G01*
X329288650Y-190872450D01*
G75*
G02*
X329338650Y-190822450I50000J0D01*
G01*
G37*
G36*
G01*
X329738650Y-190822450D02*
X329838650Y-190822450D01*
G75*
G02*
X329888650Y-190872450I0J-50000D01*
G01*
X329888650Y-191597450D01*
G75*
G02*
X329838650Y-191647450I-50000J0D01*
G01*
X329738650Y-191647450D01*
G75*
G02*
X329688650Y-191597450I0J50000D01*
G01*
X329688650Y-190872450D01*
G75*
G02*
X329738650Y-190822450I50000J0D01*
G01*
G37*
G36*
G01*
X330138650Y-190822450D02*
X330238650Y-190822450D01*
G75*
G02*
X330288650Y-190872450I0J-50000D01*
G01*
X330288650Y-191597450D01*
G75*
G02*
X330238650Y-191647450I-50000J0D01*
G01*
X330138650Y-191647450D01*
G75*
G02*
X330088650Y-191597450I0J50000D01*
G01*
X330088650Y-190872450D01*
G75*
G02*
X330138650Y-190822450I50000J0D01*
G01*
G37*
G36*
G01*
X330563650Y-190397450D02*
X331288650Y-190397450D01*
G75*
G02*
X331338650Y-190447450I0J-50000D01*
G01*
X331338650Y-190547450D01*
G75*
G02*
X331288650Y-190597450I-50000J0D01*
G01*
X330563650Y-190597450D01*
G75*
G02*
X330513650Y-190547450I0J50000D01*
G01*
X330513650Y-190447450D01*
G75*
G02*
X330563650Y-190397450I50000J0D01*
G01*
G37*
G36*
G01*
X330563650Y-189997450D02*
X331288650Y-189997450D01*
G75*
G02*
X331338650Y-190047450I0J-50000D01*
G01*
X331338650Y-190147450D01*
G75*
G02*
X331288650Y-190197450I-50000J0D01*
G01*
X330563650Y-190197450D01*
G75*
G02*
X330513650Y-190147450I0J50000D01*
G01*
X330513650Y-190047450D01*
G75*
G02*
X330563650Y-189997450I50000J0D01*
G01*
G37*
G36*
G01*
X330563650Y-189597450D02*
X331288650Y-189597450D01*
G75*
G02*
X331338650Y-189647450I0J-50000D01*
G01*
X331338650Y-189747450D01*
G75*
G02*
X331288650Y-189797450I-50000J0D01*
G01*
X330563650Y-189797450D01*
G75*
G02*
X330513650Y-189747450I0J50000D01*
G01*
X330513650Y-189647450D01*
G75*
G02*
X330563650Y-189597450I50000J0D01*
G01*
G37*
G36*
G01*
X330563650Y-189197450D02*
X331288650Y-189197450D01*
G75*
G02*
X331338650Y-189247450I0J-50000D01*
G01*
X331338650Y-189347450D01*
G75*
G02*
X331288650Y-189397450I-50000J0D01*
G01*
X330563650Y-189397450D01*
G75*
G02*
X330513650Y-189347450I0J50000D01*
G01*
X330513650Y-189247450D01*
G75*
G02*
X330563650Y-189197450I50000J0D01*
G01*
G37*
G36*
G01*
X330563650Y-188797450D02*
X331288650Y-188797450D01*
G75*
G02*
X331338650Y-188847450I0J-50000D01*
G01*
X331338650Y-188947450D01*
G75*
G02*
X331288650Y-188997450I-50000J0D01*
G01*
X330563650Y-188997450D01*
G75*
G02*
X330513650Y-188947450I0J50000D01*
G01*
X330513650Y-188847450D01*
G75*
G02*
X330563650Y-188797450I50000J0D01*
G01*
G37*
G36*
G01*
X330563650Y-188397450D02*
X331288650Y-188397450D01*
G75*
G02*
X331338650Y-188447450I0J-50000D01*
G01*
X331338650Y-188547450D01*
G75*
G02*
X331288650Y-188597450I-50000J0D01*
G01*
X330563650Y-188597450D01*
G75*
G02*
X330513650Y-188547450I0J50000D01*
G01*
X330513650Y-188447450D01*
G75*
G02*
X330563650Y-188397450I50000J0D01*
G01*
G37*
G36*
G01*
X330563650Y-187997450D02*
X331288650Y-187997450D01*
G75*
G02*
X331338650Y-188047450I0J-50000D01*
G01*
X331338650Y-188147450D01*
G75*
G02*
X331288650Y-188197450I-50000J0D01*
G01*
X330563650Y-188197450D01*
G75*
G02*
X330513650Y-188147450I0J50000D01*
G01*
X330513650Y-188047450D01*
G75*
G02*
X330563650Y-187997450I50000J0D01*
G01*
G37*
G36*
G01*
X330138650Y-186947450D02*
X330238650Y-186947450D01*
G75*
G02*
X330288650Y-186997450I0J-50000D01*
G01*
X330288650Y-187722450D01*
G75*
G02*
X330238650Y-187772450I-50000J0D01*
G01*
X330138650Y-187772450D01*
G75*
G02*
X330088650Y-187722450I0J50000D01*
G01*
X330088650Y-186997450D01*
G75*
G02*
X330138650Y-186947450I50000J0D01*
G01*
G37*
G36*
G01*
X329738650Y-186947450D02*
X329838650Y-186947450D01*
G75*
G02*
X329888650Y-186997450I0J-50000D01*
G01*
X329888650Y-187722450D01*
G75*
G02*
X329838650Y-187772450I-50000J0D01*
G01*
X329738650Y-187772450D01*
G75*
G02*
X329688650Y-187722450I0J50000D01*
G01*
X329688650Y-186997450D01*
G75*
G02*
X329738650Y-186947450I50000J0D01*
G01*
G37*
G36*
G01*
X329338650Y-186947450D02*
X329438650Y-186947450D01*
G75*
G02*
X329488650Y-186997450I0J-50000D01*
G01*
X329488650Y-187722450D01*
G75*
G02*
X329438650Y-187772450I-50000J0D01*
G01*
X329338650Y-187772450D01*
G75*
G02*
X329288650Y-187722450I0J50000D01*
G01*
X329288650Y-186997450D01*
G75*
G02*
X329338650Y-186947450I50000J0D01*
G01*
G37*
G36*
G01*
X328938650Y-186947450D02*
X329038650Y-186947450D01*
G75*
G02*
X329088650Y-186997450I0J-50000D01*
G01*
X329088650Y-187722450D01*
G75*
G02*
X329038650Y-187772450I-50000J0D01*
G01*
X328938650Y-187772450D01*
G75*
G02*
X328888650Y-187722450I0J50000D01*
G01*
X328888650Y-186997450D01*
G75*
G02*
X328938650Y-186947450I50000J0D01*
G01*
G37*
G36*
G01*
X328538650Y-186947450D02*
X328638650Y-186947450D01*
G75*
G02*
X328688650Y-186997450I0J-50000D01*
G01*
X328688650Y-187722450D01*
G75*
G02*
X328638650Y-187772450I-50000J0D01*
G01*
X328538650Y-187772450D01*
G75*
G02*
X328488650Y-187722450I0J50000D01*
G01*
X328488650Y-186997450D01*
G75*
G02*
X328538650Y-186947450I50000J0D01*
G01*
G37*
G36*
G01*
X328138650Y-186947450D02*
X328238650Y-186947450D01*
G75*
G02*
X328288650Y-186997450I0J-50000D01*
G01*
X328288650Y-187722450D01*
G75*
G02*
X328238650Y-187772450I-50000J0D01*
G01*
X328138650Y-187772450D01*
G75*
G02*
X328088650Y-187722450I0J50000D01*
G01*
X328088650Y-186997450D01*
G75*
G02*
X328138650Y-186947450I50000J0D01*
G01*
G37*
G36*
G01*
X327738650Y-186947450D02*
X327838650Y-186947450D01*
G75*
G02*
X327888650Y-186997450I0J-50000D01*
G01*
X327888650Y-187722450D01*
G75*
G02*
X327838650Y-187772450I-50000J0D01*
G01*
X327738650Y-187772450D01*
G75*
G02*
X327688650Y-187722450I0J50000D01*
G01*
X327688650Y-186997450D01*
G75*
G02*
X327738650Y-186947450I50000J0D01*
G01*
G37*
%TD*%
%TO.C,I2*%
X284144600Y-182551000D03*
G36*
G01*
X281844600Y-181251000D02*
X282569600Y-181251000D01*
G75*
G02*
X282619600Y-181301000I0J-50000D01*
G01*
X282619600Y-181401000D01*
G75*
G02*
X282569600Y-181451000I-50000J0D01*
G01*
X281844600Y-181451000D01*
G75*
G02*
X281794600Y-181401000I0J50000D01*
G01*
X281794600Y-181301000D01*
G75*
G02*
X281844600Y-181251000I50000J0D01*
G01*
G37*
G36*
G01*
X281844600Y-181651000D02*
X282569600Y-181651000D01*
G75*
G02*
X282619600Y-181701000I0J-50000D01*
G01*
X282619600Y-181801000D01*
G75*
G02*
X282569600Y-181851000I-50000J0D01*
G01*
X281844600Y-181851000D01*
G75*
G02*
X281794600Y-181801000I0J50000D01*
G01*
X281794600Y-181701000D01*
G75*
G02*
X281844600Y-181651000I50000J0D01*
G01*
G37*
G36*
G01*
X281844600Y-182051000D02*
X282569600Y-182051000D01*
G75*
G02*
X282619600Y-182101000I0J-50000D01*
G01*
X282619600Y-182201000D01*
G75*
G02*
X282569600Y-182251000I-50000J0D01*
G01*
X281844600Y-182251000D01*
G75*
G02*
X281794600Y-182201000I0J50000D01*
G01*
X281794600Y-182101000D01*
G75*
G02*
X281844600Y-182051000I50000J0D01*
G01*
G37*
G36*
G01*
X281844600Y-182451000D02*
X282569600Y-182451000D01*
G75*
G02*
X282619600Y-182501000I0J-50000D01*
G01*
X282619600Y-182601000D01*
G75*
G02*
X282569600Y-182651000I-50000J0D01*
G01*
X281844600Y-182651000D01*
G75*
G02*
X281794600Y-182601000I0J50000D01*
G01*
X281794600Y-182501000D01*
G75*
G02*
X281844600Y-182451000I50000J0D01*
G01*
G37*
G36*
G01*
X281844600Y-182851000D02*
X282569600Y-182851000D01*
G75*
G02*
X282619600Y-182901000I0J-50000D01*
G01*
X282619600Y-183001000D01*
G75*
G02*
X282569600Y-183051000I-50000J0D01*
G01*
X281844600Y-183051000D01*
G75*
G02*
X281794600Y-183001000I0J50000D01*
G01*
X281794600Y-182901000D01*
G75*
G02*
X281844600Y-182851000I50000J0D01*
G01*
G37*
G36*
G01*
X281844600Y-183251000D02*
X282569600Y-183251000D01*
G75*
G02*
X282619600Y-183301000I0J-50000D01*
G01*
X282619600Y-183401000D01*
G75*
G02*
X282569600Y-183451000I-50000J0D01*
G01*
X281844600Y-183451000D01*
G75*
G02*
X281794600Y-183401000I0J50000D01*
G01*
X281794600Y-183301000D01*
G75*
G02*
X281844600Y-183251000I50000J0D01*
G01*
G37*
G36*
G01*
X281844600Y-183651000D02*
X282569600Y-183651000D01*
G75*
G02*
X282619600Y-183701000I0J-50000D01*
G01*
X282619600Y-183801000D01*
G75*
G02*
X282569600Y-183851000I-50000J0D01*
G01*
X281844600Y-183851000D01*
G75*
G02*
X281794600Y-183801000I0J50000D01*
G01*
X281794600Y-183701000D01*
G75*
G02*
X281844600Y-183651000I50000J0D01*
G01*
G37*
G36*
G01*
X282894600Y-184076000D02*
X282994600Y-184076000D01*
G75*
G02*
X283044600Y-184126000I0J-50000D01*
G01*
X283044600Y-184851000D01*
G75*
G02*
X282994600Y-184901000I-50000J0D01*
G01*
X282894600Y-184901000D01*
G75*
G02*
X282844600Y-184851000I0J50000D01*
G01*
X282844600Y-184126000D01*
G75*
G02*
X282894600Y-184076000I50000J0D01*
G01*
G37*
G36*
G01*
X283294600Y-184076000D02*
X283394600Y-184076000D01*
G75*
G02*
X283444600Y-184126000I0J-50000D01*
G01*
X283444600Y-184851000D01*
G75*
G02*
X283394600Y-184901000I-50000J0D01*
G01*
X283294600Y-184901000D01*
G75*
G02*
X283244600Y-184851000I0J50000D01*
G01*
X283244600Y-184126000D01*
G75*
G02*
X283294600Y-184076000I50000J0D01*
G01*
G37*
G36*
G01*
X283694600Y-184076000D02*
X283794600Y-184076000D01*
G75*
G02*
X283844600Y-184126000I0J-50000D01*
G01*
X283844600Y-184851000D01*
G75*
G02*
X283794600Y-184901000I-50000J0D01*
G01*
X283694600Y-184901000D01*
G75*
G02*
X283644600Y-184851000I0J50000D01*
G01*
X283644600Y-184126000D01*
G75*
G02*
X283694600Y-184076000I50000J0D01*
G01*
G37*
G36*
G01*
X284094600Y-184076000D02*
X284194600Y-184076000D01*
G75*
G02*
X284244600Y-184126000I0J-50000D01*
G01*
X284244600Y-184851000D01*
G75*
G02*
X284194600Y-184901000I-50000J0D01*
G01*
X284094600Y-184901000D01*
G75*
G02*
X284044600Y-184851000I0J50000D01*
G01*
X284044600Y-184126000D01*
G75*
G02*
X284094600Y-184076000I50000J0D01*
G01*
G37*
G36*
G01*
X284494600Y-184076000D02*
X284594600Y-184076000D01*
G75*
G02*
X284644600Y-184126000I0J-50000D01*
G01*
X284644600Y-184851000D01*
G75*
G02*
X284594600Y-184901000I-50000J0D01*
G01*
X284494600Y-184901000D01*
G75*
G02*
X284444600Y-184851000I0J50000D01*
G01*
X284444600Y-184126000D01*
G75*
G02*
X284494600Y-184076000I50000J0D01*
G01*
G37*
G36*
G01*
X284894600Y-184076000D02*
X284994600Y-184076000D01*
G75*
G02*
X285044600Y-184126000I0J-50000D01*
G01*
X285044600Y-184851000D01*
G75*
G02*
X284994600Y-184901000I-50000J0D01*
G01*
X284894600Y-184901000D01*
G75*
G02*
X284844600Y-184851000I0J50000D01*
G01*
X284844600Y-184126000D01*
G75*
G02*
X284894600Y-184076000I50000J0D01*
G01*
G37*
G36*
G01*
X285294600Y-184076000D02*
X285394600Y-184076000D01*
G75*
G02*
X285444600Y-184126000I0J-50000D01*
G01*
X285444600Y-184851000D01*
G75*
G02*
X285394600Y-184901000I-50000J0D01*
G01*
X285294600Y-184901000D01*
G75*
G02*
X285244600Y-184851000I0J50000D01*
G01*
X285244600Y-184126000D01*
G75*
G02*
X285294600Y-184076000I50000J0D01*
G01*
G37*
G36*
G01*
X285719600Y-183651000D02*
X286444600Y-183651000D01*
G75*
G02*
X286494600Y-183701000I0J-50000D01*
G01*
X286494600Y-183801000D01*
G75*
G02*
X286444600Y-183851000I-50000J0D01*
G01*
X285719600Y-183851000D01*
G75*
G02*
X285669600Y-183801000I0J50000D01*
G01*
X285669600Y-183701000D01*
G75*
G02*
X285719600Y-183651000I50000J0D01*
G01*
G37*
G36*
G01*
X285719600Y-183251000D02*
X286444600Y-183251000D01*
G75*
G02*
X286494600Y-183301000I0J-50000D01*
G01*
X286494600Y-183401000D01*
G75*
G02*
X286444600Y-183451000I-50000J0D01*
G01*
X285719600Y-183451000D01*
G75*
G02*
X285669600Y-183401000I0J50000D01*
G01*
X285669600Y-183301000D01*
G75*
G02*
X285719600Y-183251000I50000J0D01*
G01*
G37*
G36*
G01*
X285719600Y-182851000D02*
X286444600Y-182851000D01*
G75*
G02*
X286494600Y-182901000I0J-50000D01*
G01*
X286494600Y-183001000D01*
G75*
G02*
X286444600Y-183051000I-50000J0D01*
G01*
X285719600Y-183051000D01*
G75*
G02*
X285669600Y-183001000I0J50000D01*
G01*
X285669600Y-182901000D01*
G75*
G02*
X285719600Y-182851000I50000J0D01*
G01*
G37*
G36*
G01*
X285719600Y-182451000D02*
X286444600Y-182451000D01*
G75*
G02*
X286494600Y-182501000I0J-50000D01*
G01*
X286494600Y-182601000D01*
G75*
G02*
X286444600Y-182651000I-50000J0D01*
G01*
X285719600Y-182651000D01*
G75*
G02*
X285669600Y-182601000I0J50000D01*
G01*
X285669600Y-182501000D01*
G75*
G02*
X285719600Y-182451000I50000J0D01*
G01*
G37*
G36*
G01*
X285719600Y-182051000D02*
X286444600Y-182051000D01*
G75*
G02*
X286494600Y-182101000I0J-50000D01*
G01*
X286494600Y-182201000D01*
G75*
G02*
X286444600Y-182251000I-50000J0D01*
G01*
X285719600Y-182251000D01*
G75*
G02*
X285669600Y-182201000I0J50000D01*
G01*
X285669600Y-182101000D01*
G75*
G02*
X285719600Y-182051000I50000J0D01*
G01*
G37*
G36*
G01*
X285719600Y-181651000D02*
X286444600Y-181651000D01*
G75*
G02*
X286494600Y-181701000I0J-50000D01*
G01*
X286494600Y-181801000D01*
G75*
G02*
X286444600Y-181851000I-50000J0D01*
G01*
X285719600Y-181851000D01*
G75*
G02*
X285669600Y-181801000I0J50000D01*
G01*
X285669600Y-181701000D01*
G75*
G02*
X285719600Y-181651000I50000J0D01*
G01*
G37*
G36*
G01*
X285719600Y-181251000D02*
X286444600Y-181251000D01*
G75*
G02*
X286494600Y-181301000I0J-50000D01*
G01*
X286494600Y-181401000D01*
G75*
G02*
X286444600Y-181451000I-50000J0D01*
G01*
X285719600Y-181451000D01*
G75*
G02*
X285669600Y-181401000I0J50000D01*
G01*
X285669600Y-181301000D01*
G75*
G02*
X285719600Y-181251000I50000J0D01*
G01*
G37*
G36*
G01*
X285294600Y-180201000D02*
X285394600Y-180201000D01*
G75*
G02*
X285444600Y-180251000I0J-50000D01*
G01*
X285444600Y-180976000D01*
G75*
G02*
X285394600Y-181026000I-50000J0D01*
G01*
X285294600Y-181026000D01*
G75*
G02*
X285244600Y-180976000I0J50000D01*
G01*
X285244600Y-180251000D01*
G75*
G02*
X285294600Y-180201000I50000J0D01*
G01*
G37*
G36*
G01*
X284894600Y-180201000D02*
X284994600Y-180201000D01*
G75*
G02*
X285044600Y-180251000I0J-50000D01*
G01*
X285044600Y-180976000D01*
G75*
G02*
X284994600Y-181026000I-50000J0D01*
G01*
X284894600Y-181026000D01*
G75*
G02*
X284844600Y-180976000I0J50000D01*
G01*
X284844600Y-180251000D01*
G75*
G02*
X284894600Y-180201000I50000J0D01*
G01*
G37*
G36*
G01*
X284494600Y-180201000D02*
X284594600Y-180201000D01*
G75*
G02*
X284644600Y-180251000I0J-50000D01*
G01*
X284644600Y-180976000D01*
G75*
G02*
X284594600Y-181026000I-50000J0D01*
G01*
X284494600Y-181026000D01*
G75*
G02*
X284444600Y-180976000I0J50000D01*
G01*
X284444600Y-180251000D01*
G75*
G02*
X284494600Y-180201000I50000J0D01*
G01*
G37*
G36*
G01*
X284094600Y-180201000D02*
X284194600Y-180201000D01*
G75*
G02*
X284244600Y-180251000I0J-50000D01*
G01*
X284244600Y-180976000D01*
G75*
G02*
X284194600Y-181026000I-50000J0D01*
G01*
X284094600Y-181026000D01*
G75*
G02*
X284044600Y-180976000I0J50000D01*
G01*
X284044600Y-180251000D01*
G75*
G02*
X284094600Y-180201000I50000J0D01*
G01*
G37*
G36*
G01*
X283694600Y-180201000D02*
X283794600Y-180201000D01*
G75*
G02*
X283844600Y-180251000I0J-50000D01*
G01*
X283844600Y-180976000D01*
G75*
G02*
X283794600Y-181026000I-50000J0D01*
G01*
X283694600Y-181026000D01*
G75*
G02*
X283644600Y-180976000I0J50000D01*
G01*
X283644600Y-180251000D01*
G75*
G02*
X283694600Y-180201000I50000J0D01*
G01*
G37*
G36*
G01*
X283294600Y-180201000D02*
X283394600Y-180201000D01*
G75*
G02*
X283444600Y-180251000I0J-50000D01*
G01*
X283444600Y-180976000D01*
G75*
G02*
X283394600Y-181026000I-50000J0D01*
G01*
X283294600Y-181026000D01*
G75*
G02*
X283244600Y-180976000I0J50000D01*
G01*
X283244600Y-180251000D01*
G75*
G02*
X283294600Y-180201000I50000J0D01*
G01*
G37*
G36*
G01*
X282894600Y-180201000D02*
X282994600Y-180201000D01*
G75*
G02*
X283044600Y-180251000I0J-50000D01*
G01*
X283044600Y-180976000D01*
G75*
G02*
X282994600Y-181026000I-50000J0D01*
G01*
X282894600Y-181026000D01*
G75*
G02*
X282844600Y-180976000I0J50000D01*
G01*
X282844600Y-180251000D01*
G75*
G02*
X282894600Y-180201000I50000J0D01*
G01*
G37*
%TD*%
%TO.C,C13*%
G36*
G01*
X326554400Y-183266550D02*
X326554400Y-184216550D01*
G75*
G02*
X326304400Y-184466550I-250000J0D01*
G01*
X325804400Y-184466550D01*
G75*
G02*
X325554400Y-184216550I0J250000D01*
G01*
X325554400Y-183266550D01*
G75*
G02*
X325804400Y-183016550I250000J0D01*
G01*
X326304400Y-183016550D01*
G75*
G02*
X326554400Y-183266550I0J-250000D01*
G01*
G37*
G36*
G01*
X328454400Y-183266550D02*
X328454400Y-184216550D01*
G75*
G02*
X328204400Y-184466550I-250000J0D01*
G01*
X327704400Y-184466550D01*
G75*
G02*
X327454400Y-184216550I0J250000D01*
G01*
X327454400Y-183266550D01*
G75*
G02*
X327704400Y-183016550I250000J0D01*
G01*
X328204400Y-183016550D01*
G75*
G02*
X328454400Y-183266550I0J-250000D01*
G01*
G37*
%TD*%
%TO.C,C12*%
G36*
G01*
X326554400Y-180885450D02*
X326554400Y-181835450D01*
G75*
G02*
X326304400Y-182085450I-250000J0D01*
G01*
X325804400Y-182085450D01*
G75*
G02*
X325554400Y-181835450I0J250000D01*
G01*
X325554400Y-180885450D01*
G75*
G02*
X325804400Y-180635450I250000J0D01*
G01*
X326304400Y-180635450D01*
G75*
G02*
X326554400Y-180885450I0J-250000D01*
G01*
G37*
G36*
G01*
X328454400Y-180885450D02*
X328454400Y-181835450D01*
G75*
G02*
X328204400Y-182085450I-250000J0D01*
G01*
X327704400Y-182085450D01*
G75*
G02*
X327454400Y-181835450I0J250000D01*
G01*
X327454400Y-180885450D01*
G75*
G02*
X327704400Y-180635450I250000J0D01*
G01*
X328204400Y-180635450D01*
G75*
G02*
X328454400Y-180885450I0J-250000D01*
G01*
G37*
%TD*%
%TO.C,C11*%
G36*
G01*
X282107200Y-177313800D02*
X282107200Y-178263800D01*
G75*
G02*
X281857200Y-178513800I-250000J0D01*
G01*
X281357200Y-178513800D01*
G75*
G02*
X281107200Y-178263800I0J250000D01*
G01*
X281107200Y-177313800D01*
G75*
G02*
X281357200Y-177063800I250000J0D01*
G01*
X281857200Y-177063800D01*
G75*
G02*
X282107200Y-177313800I0J-250000D01*
G01*
G37*
G36*
G01*
X284007200Y-177313800D02*
X284007200Y-178263800D01*
G75*
G02*
X283757200Y-178513800I-250000J0D01*
G01*
X283257200Y-178513800D01*
G75*
G02*
X283007200Y-178263800I0J250000D01*
G01*
X283007200Y-177313800D01*
G75*
G02*
X283257200Y-177063800I250000J0D01*
G01*
X283757200Y-177063800D01*
G75*
G02*
X284007200Y-177313800I0J-250000D01*
G01*
G37*
%TD*%
%TO.C,C10*%
G36*
G01*
X282107200Y-174932700D02*
X282107200Y-175882700D01*
G75*
G02*
X281857200Y-176132700I-250000J0D01*
G01*
X281357200Y-176132700D01*
G75*
G02*
X281107200Y-175882700I0J250000D01*
G01*
X281107200Y-174932700D01*
G75*
G02*
X281357200Y-174682700I250000J0D01*
G01*
X281857200Y-174682700D01*
G75*
G02*
X282107200Y-174932700I0J-250000D01*
G01*
G37*
G36*
G01*
X284007200Y-174932700D02*
X284007200Y-175882700D01*
G75*
G02*
X283757200Y-176132700I-250000J0D01*
G01*
X283257200Y-176132700D01*
G75*
G02*
X283007200Y-175882700I0J250000D01*
G01*
X283007200Y-174932700D01*
G75*
G02*
X283257200Y-174682700I250000J0D01*
G01*
X283757200Y-174682700D01*
G75*
G02*
X284007200Y-174932700I0J-250000D01*
G01*
G37*
%TD*%
%TO.C,R11*%
G36*
G01*
X372588998Y-113105400D02*
X373489002Y-113105400D01*
G75*
G02*
X373739000Y-113355398I0J-249998D01*
G01*
X373739000Y-113880402D01*
G75*
G02*
X373489002Y-114130400I-249998J0D01*
G01*
X372588998Y-114130400D01*
G75*
G02*
X372339000Y-113880402I0J249998D01*
G01*
X372339000Y-113355398D01*
G75*
G02*
X372588998Y-113105400I249998J0D01*
G01*
G37*
G36*
G01*
X372588998Y-111280400D02*
X373489002Y-111280400D01*
G75*
G02*
X373739000Y-111530398I0J-249998D01*
G01*
X373739000Y-112055402D01*
G75*
G02*
X373489002Y-112305400I-249998J0D01*
G01*
X372588998Y-112305400D01*
G75*
G02*
X372339000Y-112055402I0J249998D01*
G01*
X372339000Y-111530398D01*
G75*
G02*
X372588998Y-111280400I249998J0D01*
G01*
G37*
%TD*%
%TO.C,R6*%
G36*
G01*
X378144898Y-169458100D02*
X379044902Y-169458100D01*
G75*
G02*
X379294900Y-169708098I0J-249998D01*
G01*
X379294900Y-170233102D01*
G75*
G02*
X379044902Y-170483100I-249998J0D01*
G01*
X378144898Y-170483100D01*
G75*
G02*
X377894900Y-170233102I0J249998D01*
G01*
X377894900Y-169708098D01*
G75*
G02*
X378144898Y-169458100I249998J0D01*
G01*
G37*
G36*
G01*
X378144898Y-167633100D02*
X379044902Y-167633100D01*
G75*
G02*
X379294900Y-167883098I0J-249998D01*
G01*
X379294900Y-168408102D01*
G75*
G02*
X379044902Y-168658100I-249998J0D01*
G01*
X378144898Y-168658100D01*
G75*
G02*
X377894900Y-168408102I0J249998D01*
G01*
X377894900Y-167883098D01*
G75*
G02*
X378144898Y-167633100I249998J0D01*
G01*
G37*
%TD*%
%TO.C,R5*%
G36*
G01*
X371001598Y-162314800D02*
X371901602Y-162314800D01*
G75*
G02*
X372151600Y-162564798I0J-249998D01*
G01*
X372151600Y-163089802D01*
G75*
G02*
X371901602Y-163339800I-249998J0D01*
G01*
X371001598Y-163339800D01*
G75*
G02*
X370751600Y-163089802I0J249998D01*
G01*
X370751600Y-162564798D01*
G75*
G02*
X371001598Y-162314800I249998J0D01*
G01*
G37*
G36*
G01*
X371001598Y-160489800D02*
X371901602Y-160489800D01*
G75*
G02*
X372151600Y-160739798I0J-249998D01*
G01*
X372151600Y-161264802D01*
G75*
G02*
X371901602Y-161514800I-249998J0D01*
G01*
X371001598Y-161514800D01*
G75*
G02*
X370751600Y-161264802I0J249998D01*
G01*
X370751600Y-160739798D01*
G75*
G02*
X371001598Y-160489800I249998J0D01*
G01*
G37*
%TD*%
D27*
%TO.C,Q1*%
X371245300Y-166677000D03*
X373245300Y-167627000D03*
X373245300Y-165727000D03*
%TD*%
D26*
%TO.C,I1*%
X367483100Y-110356900D03*
G36*
G01*
X368783100Y-108056900D02*
X368783100Y-108781900D01*
G75*
G02*
X368733100Y-108831900I-50000J0D01*
G01*
X368633100Y-108831900D01*
G75*
G02*
X368583100Y-108781900I0J50000D01*
G01*
X368583100Y-108056900D01*
G75*
G02*
X368633100Y-108006900I50000J0D01*
G01*
X368733100Y-108006900D01*
G75*
G02*
X368783100Y-108056900I0J-50000D01*
G01*
G37*
G36*
G01*
X368383100Y-108056900D02*
X368383100Y-108781900D01*
G75*
G02*
X368333100Y-108831900I-50000J0D01*
G01*
X368233100Y-108831900D01*
G75*
G02*
X368183100Y-108781900I0J50000D01*
G01*
X368183100Y-108056900D01*
G75*
G02*
X368233100Y-108006900I50000J0D01*
G01*
X368333100Y-108006900D01*
G75*
G02*
X368383100Y-108056900I0J-50000D01*
G01*
G37*
G36*
G01*
X367983100Y-108056900D02*
X367983100Y-108781900D01*
G75*
G02*
X367933100Y-108831900I-50000J0D01*
G01*
X367833100Y-108831900D01*
G75*
G02*
X367783100Y-108781900I0J50000D01*
G01*
X367783100Y-108056900D01*
G75*
G02*
X367833100Y-108006900I50000J0D01*
G01*
X367933100Y-108006900D01*
G75*
G02*
X367983100Y-108056900I0J-50000D01*
G01*
G37*
G36*
G01*
X367583100Y-108056900D02*
X367583100Y-108781900D01*
G75*
G02*
X367533100Y-108831900I-50000J0D01*
G01*
X367433100Y-108831900D01*
G75*
G02*
X367383100Y-108781900I0J50000D01*
G01*
X367383100Y-108056900D01*
G75*
G02*
X367433100Y-108006900I50000J0D01*
G01*
X367533100Y-108006900D01*
G75*
G02*
X367583100Y-108056900I0J-50000D01*
G01*
G37*
G36*
G01*
X367183100Y-108056900D02*
X367183100Y-108781900D01*
G75*
G02*
X367133100Y-108831900I-50000J0D01*
G01*
X367033100Y-108831900D01*
G75*
G02*
X366983100Y-108781900I0J50000D01*
G01*
X366983100Y-108056900D01*
G75*
G02*
X367033100Y-108006900I50000J0D01*
G01*
X367133100Y-108006900D01*
G75*
G02*
X367183100Y-108056900I0J-50000D01*
G01*
G37*
G36*
G01*
X366783100Y-108056900D02*
X366783100Y-108781900D01*
G75*
G02*
X366733100Y-108831900I-50000J0D01*
G01*
X366633100Y-108831900D01*
G75*
G02*
X366583100Y-108781900I0J50000D01*
G01*
X366583100Y-108056900D01*
G75*
G02*
X366633100Y-108006900I50000J0D01*
G01*
X366733100Y-108006900D01*
G75*
G02*
X366783100Y-108056900I0J-50000D01*
G01*
G37*
G36*
G01*
X366383100Y-108056900D02*
X366383100Y-108781900D01*
G75*
G02*
X366333100Y-108831900I-50000J0D01*
G01*
X366233100Y-108831900D01*
G75*
G02*
X366183100Y-108781900I0J50000D01*
G01*
X366183100Y-108056900D01*
G75*
G02*
X366233100Y-108006900I50000J0D01*
G01*
X366333100Y-108006900D01*
G75*
G02*
X366383100Y-108056900I0J-50000D01*
G01*
G37*
G36*
G01*
X365958100Y-109106900D02*
X365958100Y-109206900D01*
G75*
G02*
X365908100Y-109256900I-50000J0D01*
G01*
X365183100Y-109256900D01*
G75*
G02*
X365133100Y-109206900I0J50000D01*
G01*
X365133100Y-109106900D01*
G75*
G02*
X365183100Y-109056900I50000J0D01*
G01*
X365908100Y-109056900D01*
G75*
G02*
X365958100Y-109106900I0J-50000D01*
G01*
G37*
G36*
G01*
X365958100Y-109506900D02*
X365958100Y-109606900D01*
G75*
G02*
X365908100Y-109656900I-50000J0D01*
G01*
X365183100Y-109656900D01*
G75*
G02*
X365133100Y-109606900I0J50000D01*
G01*
X365133100Y-109506900D01*
G75*
G02*
X365183100Y-109456900I50000J0D01*
G01*
X365908100Y-109456900D01*
G75*
G02*
X365958100Y-109506900I0J-50000D01*
G01*
G37*
G36*
G01*
X365958100Y-109906900D02*
X365958100Y-110006900D01*
G75*
G02*
X365908100Y-110056900I-50000J0D01*
G01*
X365183100Y-110056900D01*
G75*
G02*
X365133100Y-110006900I0J50000D01*
G01*
X365133100Y-109906900D01*
G75*
G02*
X365183100Y-109856900I50000J0D01*
G01*
X365908100Y-109856900D01*
G75*
G02*
X365958100Y-109906900I0J-50000D01*
G01*
G37*
G36*
G01*
X365958100Y-110306900D02*
X365958100Y-110406900D01*
G75*
G02*
X365908100Y-110456900I-50000J0D01*
G01*
X365183100Y-110456900D01*
G75*
G02*
X365133100Y-110406900I0J50000D01*
G01*
X365133100Y-110306900D01*
G75*
G02*
X365183100Y-110256900I50000J0D01*
G01*
X365908100Y-110256900D01*
G75*
G02*
X365958100Y-110306900I0J-50000D01*
G01*
G37*
G36*
G01*
X365958100Y-110706900D02*
X365958100Y-110806900D01*
G75*
G02*
X365908100Y-110856900I-50000J0D01*
G01*
X365183100Y-110856900D01*
G75*
G02*
X365133100Y-110806900I0J50000D01*
G01*
X365133100Y-110706900D01*
G75*
G02*
X365183100Y-110656900I50000J0D01*
G01*
X365908100Y-110656900D01*
G75*
G02*
X365958100Y-110706900I0J-50000D01*
G01*
G37*
G36*
G01*
X365958100Y-111106900D02*
X365958100Y-111206900D01*
G75*
G02*
X365908100Y-111256900I-50000J0D01*
G01*
X365183100Y-111256900D01*
G75*
G02*
X365133100Y-111206900I0J50000D01*
G01*
X365133100Y-111106900D01*
G75*
G02*
X365183100Y-111056900I50000J0D01*
G01*
X365908100Y-111056900D01*
G75*
G02*
X365958100Y-111106900I0J-50000D01*
G01*
G37*
G36*
G01*
X365958100Y-111506900D02*
X365958100Y-111606900D01*
G75*
G02*
X365908100Y-111656900I-50000J0D01*
G01*
X365183100Y-111656900D01*
G75*
G02*
X365133100Y-111606900I0J50000D01*
G01*
X365133100Y-111506900D01*
G75*
G02*
X365183100Y-111456900I50000J0D01*
G01*
X365908100Y-111456900D01*
G75*
G02*
X365958100Y-111506900I0J-50000D01*
G01*
G37*
G36*
G01*
X366383100Y-111931900D02*
X366383100Y-112656900D01*
G75*
G02*
X366333100Y-112706900I-50000J0D01*
G01*
X366233100Y-112706900D01*
G75*
G02*
X366183100Y-112656900I0J50000D01*
G01*
X366183100Y-111931900D01*
G75*
G02*
X366233100Y-111881900I50000J0D01*
G01*
X366333100Y-111881900D01*
G75*
G02*
X366383100Y-111931900I0J-50000D01*
G01*
G37*
G36*
G01*
X366783100Y-111931900D02*
X366783100Y-112656900D01*
G75*
G02*
X366733100Y-112706900I-50000J0D01*
G01*
X366633100Y-112706900D01*
G75*
G02*
X366583100Y-112656900I0J50000D01*
G01*
X366583100Y-111931900D01*
G75*
G02*
X366633100Y-111881900I50000J0D01*
G01*
X366733100Y-111881900D01*
G75*
G02*
X366783100Y-111931900I0J-50000D01*
G01*
G37*
G36*
G01*
X367183100Y-111931900D02*
X367183100Y-112656900D01*
G75*
G02*
X367133100Y-112706900I-50000J0D01*
G01*
X367033100Y-112706900D01*
G75*
G02*
X366983100Y-112656900I0J50000D01*
G01*
X366983100Y-111931900D01*
G75*
G02*
X367033100Y-111881900I50000J0D01*
G01*
X367133100Y-111881900D01*
G75*
G02*
X367183100Y-111931900I0J-50000D01*
G01*
G37*
G36*
G01*
X367583100Y-111931900D02*
X367583100Y-112656900D01*
G75*
G02*
X367533100Y-112706900I-50000J0D01*
G01*
X367433100Y-112706900D01*
G75*
G02*
X367383100Y-112656900I0J50000D01*
G01*
X367383100Y-111931900D01*
G75*
G02*
X367433100Y-111881900I50000J0D01*
G01*
X367533100Y-111881900D01*
G75*
G02*
X367583100Y-111931900I0J-50000D01*
G01*
G37*
G36*
G01*
X367983100Y-111931900D02*
X367983100Y-112656900D01*
G75*
G02*
X367933100Y-112706900I-50000J0D01*
G01*
X367833100Y-112706900D01*
G75*
G02*
X367783100Y-112656900I0J50000D01*
G01*
X367783100Y-111931900D01*
G75*
G02*
X367833100Y-111881900I50000J0D01*
G01*
X367933100Y-111881900D01*
G75*
G02*
X367983100Y-111931900I0J-50000D01*
G01*
G37*
G36*
G01*
X368383100Y-111931900D02*
X368383100Y-112656900D01*
G75*
G02*
X368333100Y-112706900I-50000J0D01*
G01*
X368233100Y-112706900D01*
G75*
G02*
X368183100Y-112656900I0J50000D01*
G01*
X368183100Y-111931900D01*
G75*
G02*
X368233100Y-111881900I50000J0D01*
G01*
X368333100Y-111881900D01*
G75*
G02*
X368383100Y-111931900I0J-50000D01*
G01*
G37*
G36*
G01*
X368783100Y-111931900D02*
X368783100Y-112656900D01*
G75*
G02*
X368733100Y-112706900I-50000J0D01*
G01*
X368633100Y-112706900D01*
G75*
G02*
X368583100Y-112656900I0J50000D01*
G01*
X368583100Y-111931900D01*
G75*
G02*
X368633100Y-111881900I50000J0D01*
G01*
X368733100Y-111881900D01*
G75*
G02*
X368783100Y-111931900I0J-50000D01*
G01*
G37*
G36*
G01*
X369833100Y-111506900D02*
X369833100Y-111606900D01*
G75*
G02*
X369783100Y-111656900I-50000J0D01*
G01*
X369058100Y-111656900D01*
G75*
G02*
X369008100Y-111606900I0J50000D01*
G01*
X369008100Y-111506900D01*
G75*
G02*
X369058100Y-111456900I50000J0D01*
G01*
X369783100Y-111456900D01*
G75*
G02*
X369833100Y-111506900I0J-50000D01*
G01*
G37*
G36*
G01*
X369833100Y-111106900D02*
X369833100Y-111206900D01*
G75*
G02*
X369783100Y-111256900I-50000J0D01*
G01*
X369058100Y-111256900D01*
G75*
G02*
X369008100Y-111206900I0J50000D01*
G01*
X369008100Y-111106900D01*
G75*
G02*
X369058100Y-111056900I50000J0D01*
G01*
X369783100Y-111056900D01*
G75*
G02*
X369833100Y-111106900I0J-50000D01*
G01*
G37*
G36*
G01*
X369833100Y-110706900D02*
X369833100Y-110806900D01*
G75*
G02*
X369783100Y-110856900I-50000J0D01*
G01*
X369058100Y-110856900D01*
G75*
G02*
X369008100Y-110806900I0J50000D01*
G01*
X369008100Y-110706900D01*
G75*
G02*
X369058100Y-110656900I50000J0D01*
G01*
X369783100Y-110656900D01*
G75*
G02*
X369833100Y-110706900I0J-50000D01*
G01*
G37*
G36*
G01*
X369833100Y-110306900D02*
X369833100Y-110406900D01*
G75*
G02*
X369783100Y-110456900I-50000J0D01*
G01*
X369058100Y-110456900D01*
G75*
G02*
X369008100Y-110406900I0J50000D01*
G01*
X369008100Y-110306900D01*
G75*
G02*
X369058100Y-110256900I50000J0D01*
G01*
X369783100Y-110256900D01*
G75*
G02*
X369833100Y-110306900I0J-50000D01*
G01*
G37*
G36*
G01*
X369833100Y-109906900D02*
X369833100Y-110006900D01*
G75*
G02*
X369783100Y-110056900I-50000J0D01*
G01*
X369058100Y-110056900D01*
G75*
G02*
X369008100Y-110006900I0J50000D01*
G01*
X369008100Y-109906900D01*
G75*
G02*
X369058100Y-109856900I50000J0D01*
G01*
X369783100Y-109856900D01*
G75*
G02*
X369833100Y-109906900I0J-50000D01*
G01*
G37*
G36*
G01*
X369833100Y-109506900D02*
X369833100Y-109606900D01*
G75*
G02*
X369783100Y-109656900I-50000J0D01*
G01*
X369058100Y-109656900D01*
G75*
G02*
X369008100Y-109606900I0J50000D01*
G01*
X369008100Y-109506900D01*
G75*
G02*
X369058100Y-109456900I50000J0D01*
G01*
X369783100Y-109456900D01*
G75*
G02*
X369833100Y-109506900I0J-50000D01*
G01*
G37*
G36*
G01*
X369833100Y-109106900D02*
X369833100Y-109206900D01*
G75*
G02*
X369783100Y-109256900I-50000J0D01*
G01*
X369058100Y-109256900D01*
G75*
G02*
X369008100Y-109206900I0J50000D01*
G01*
X369008100Y-109106900D01*
G75*
G02*
X369058100Y-109056900I50000J0D01*
G01*
X369783100Y-109056900D01*
G75*
G02*
X369833100Y-109106900I0J-50000D01*
G01*
G37*
%TD*%
%TO.C,C6*%
G36*
G01*
X373514000Y-107890050D02*
X372564000Y-107890050D01*
G75*
G02*
X372314000Y-107640050I0J250000D01*
G01*
X372314000Y-107140050D01*
G75*
G02*
X372564000Y-106890050I250000J0D01*
G01*
X373514000Y-106890050D01*
G75*
G02*
X373764000Y-107140050I0J-250000D01*
G01*
X373764000Y-107640050D01*
G75*
G02*
X373514000Y-107890050I-250000J0D01*
G01*
G37*
G36*
G01*
X373514000Y-109790050D02*
X372564000Y-109790050D01*
G75*
G02*
X372314000Y-109540050I0J250000D01*
G01*
X372314000Y-109040050D01*
G75*
G02*
X372564000Y-108790050I250000J0D01*
G01*
X373514000Y-108790050D01*
G75*
G02*
X373764000Y-109040050I0J-250000D01*
G01*
X373764000Y-109540050D01*
G75*
G02*
X373514000Y-109790050I-250000J0D01*
G01*
G37*
%TD*%
%TO.C,C5*%
G36*
G01*
X375895100Y-107890050D02*
X374945100Y-107890050D01*
G75*
G02*
X374695100Y-107640050I0J250000D01*
G01*
X374695100Y-107140050D01*
G75*
G02*
X374945100Y-106890050I250000J0D01*
G01*
X375895100Y-106890050D01*
G75*
G02*
X376145100Y-107140050I0J-250000D01*
G01*
X376145100Y-107640050D01*
G75*
G02*
X375895100Y-107890050I-250000J0D01*
G01*
G37*
G36*
G01*
X375895100Y-109790050D02*
X374945100Y-109790050D01*
G75*
G02*
X374695100Y-109540050I0J250000D01*
G01*
X374695100Y-109040050D01*
G75*
G02*
X374945100Y-108790050I250000J0D01*
G01*
X375895100Y-108790050D01*
G75*
G02*
X376145100Y-109040050I0J-250000D01*
G01*
X376145100Y-109540050D01*
G75*
G02*
X375895100Y-109790050I-250000J0D01*
G01*
G37*
%TD*%
%TO.C,C4*%
G36*
G01*
X368595500Y-164745900D02*
X369545500Y-164745900D01*
G75*
G02*
X369795500Y-164995900I0J-250000D01*
G01*
X369795500Y-165495900D01*
G75*
G02*
X369545500Y-165745900I-250000J0D01*
G01*
X368595500Y-165745900D01*
G75*
G02*
X368345500Y-165495900I0J250000D01*
G01*
X368345500Y-164995900D01*
G75*
G02*
X368595500Y-164745900I250000J0D01*
G01*
G37*
G36*
G01*
X368595500Y-162845900D02*
X369545500Y-162845900D01*
G75*
G02*
X369795500Y-163095900I0J-250000D01*
G01*
X369795500Y-163595900D01*
G75*
G02*
X369545500Y-163845900I-250000J0D01*
G01*
X368595500Y-163845900D01*
G75*
G02*
X368345500Y-163595900I0J250000D01*
G01*
X368345500Y-163095900D01*
G75*
G02*
X368595500Y-162845900I250000J0D01*
G01*
G37*
%TD*%
%TO.C,C2*%
G36*
G01*
X377457500Y-166358300D02*
X377457500Y-165408300D01*
G75*
G02*
X377707500Y-165158300I250000J0D01*
G01*
X378207500Y-165158300D01*
G75*
G02*
X378457500Y-165408300I0J-250000D01*
G01*
X378457500Y-166358300D01*
G75*
G02*
X378207500Y-166608300I-250000J0D01*
G01*
X377707500Y-166608300D01*
G75*
G02*
X377457500Y-166358300I0J250000D01*
G01*
G37*
G36*
G01*
X375557500Y-166358300D02*
X375557500Y-165408300D01*
G75*
G02*
X375807500Y-165158300I250000J0D01*
G01*
X376307500Y-165158300D01*
G75*
G02*
X376557500Y-165408300I0J-250000D01*
G01*
X376557500Y-166358300D01*
G75*
G02*
X376307500Y-166608300I-250000J0D01*
G01*
X375807500Y-166608300D01*
G75*
G02*
X375557500Y-166358300I0J250000D01*
G01*
G37*
%TD*%
%TO.C,R2*%
G36*
G01*
X335681948Y-163902200D02*
X336581952Y-163902200D01*
G75*
G02*
X336831950Y-164152198I0J-249998D01*
G01*
X336831950Y-164677202D01*
G75*
G02*
X336581952Y-164927200I-249998J0D01*
G01*
X335681948Y-164927200D01*
G75*
G02*
X335431950Y-164677202I0J249998D01*
G01*
X335431950Y-164152198D01*
G75*
G02*
X335681948Y-163902200I249998J0D01*
G01*
G37*
G36*
G01*
X335681948Y-162077200D02*
X336581952Y-162077200D01*
G75*
G02*
X336831950Y-162327198I0J-249998D01*
G01*
X336831950Y-162852202D01*
G75*
G02*
X336581952Y-163102200I-249998J0D01*
G01*
X335681948Y-163102200D01*
G75*
G02*
X335431950Y-162852202I0J249998D01*
G01*
X335431950Y-162327198D01*
G75*
G02*
X335681948Y-162077200I249998J0D01*
G01*
G37*
%TD*%
D28*
%TO.C,OL1*%
X386531900Y-160485900D03*
X386531900Y-163025900D03*
X386531900Y-165565900D03*
X386531900Y-168105900D03*
%TD*%
%TO.C,U14*%
G36*
G01*
X354846700Y-177514000D02*
X353521700Y-177514000D01*
G75*
G02*
X353446700Y-177439000I0J75000D01*
G01*
X353446700Y-177289000D01*
G75*
G02*
X353521700Y-177214000I75000J0D01*
G01*
X354846700Y-177214000D01*
G75*
G02*
X354921700Y-177289000I0J-75000D01*
G01*
X354921700Y-177439000D01*
G75*
G02*
X354846700Y-177514000I-75000J0D01*
G01*
G37*
G36*
G01*
X354846700Y-177014000D02*
X353521700Y-177014000D01*
G75*
G02*
X353446700Y-176939000I0J75000D01*
G01*
X353446700Y-176789000D01*
G75*
G02*
X353521700Y-176714000I75000J0D01*
G01*
X354846700Y-176714000D01*
G75*
G02*
X354921700Y-176789000I0J-75000D01*
G01*
X354921700Y-176939000D01*
G75*
G02*
X354846700Y-177014000I-75000J0D01*
G01*
G37*
G36*
G01*
X354846700Y-176514000D02*
X353521700Y-176514000D01*
G75*
G02*
X353446700Y-176439000I0J75000D01*
G01*
X353446700Y-176289000D01*
G75*
G02*
X353521700Y-176214000I75000J0D01*
G01*
X354846700Y-176214000D01*
G75*
G02*
X354921700Y-176289000I0J-75000D01*
G01*
X354921700Y-176439000D01*
G75*
G02*
X354846700Y-176514000I-75000J0D01*
G01*
G37*
G36*
G01*
X354846700Y-176014000D02*
X353521700Y-176014000D01*
G75*
G02*
X353446700Y-175939000I0J75000D01*
G01*
X353446700Y-175789000D01*
G75*
G02*
X353521700Y-175714000I75000J0D01*
G01*
X354846700Y-175714000D01*
G75*
G02*
X354921700Y-175789000I0J-75000D01*
G01*
X354921700Y-175939000D01*
G75*
G02*
X354846700Y-176014000I-75000J0D01*
G01*
G37*
G36*
G01*
X354846700Y-175514000D02*
X353521700Y-175514000D01*
G75*
G02*
X353446700Y-175439000I0J75000D01*
G01*
X353446700Y-175289000D01*
G75*
G02*
X353521700Y-175214000I75000J0D01*
G01*
X354846700Y-175214000D01*
G75*
G02*
X354921700Y-175289000I0J-75000D01*
G01*
X354921700Y-175439000D01*
G75*
G02*
X354846700Y-175514000I-75000J0D01*
G01*
G37*
G36*
G01*
X354846700Y-175014000D02*
X353521700Y-175014000D01*
G75*
G02*
X353446700Y-174939000I0J75000D01*
G01*
X353446700Y-174789000D01*
G75*
G02*
X353521700Y-174714000I75000J0D01*
G01*
X354846700Y-174714000D01*
G75*
G02*
X354921700Y-174789000I0J-75000D01*
G01*
X354921700Y-174939000D01*
G75*
G02*
X354846700Y-175014000I-75000J0D01*
G01*
G37*
G36*
G01*
X354846700Y-174514000D02*
X353521700Y-174514000D01*
G75*
G02*
X353446700Y-174439000I0J75000D01*
G01*
X353446700Y-174289000D01*
G75*
G02*
X353521700Y-174214000I75000J0D01*
G01*
X354846700Y-174214000D01*
G75*
G02*
X354921700Y-174289000I0J-75000D01*
G01*
X354921700Y-174439000D01*
G75*
G02*
X354846700Y-174514000I-75000J0D01*
G01*
G37*
G36*
G01*
X354846700Y-174014000D02*
X353521700Y-174014000D01*
G75*
G02*
X353446700Y-173939000I0J75000D01*
G01*
X353446700Y-173789000D01*
G75*
G02*
X353521700Y-173714000I75000J0D01*
G01*
X354846700Y-173714000D01*
G75*
G02*
X354921700Y-173789000I0J-75000D01*
G01*
X354921700Y-173939000D01*
G75*
G02*
X354846700Y-174014000I-75000J0D01*
G01*
G37*
G36*
G01*
X354846700Y-173514000D02*
X353521700Y-173514000D01*
G75*
G02*
X353446700Y-173439000I0J75000D01*
G01*
X353446700Y-173289000D01*
G75*
G02*
X353521700Y-173214000I75000J0D01*
G01*
X354846700Y-173214000D01*
G75*
G02*
X354921700Y-173289000I0J-75000D01*
G01*
X354921700Y-173439000D01*
G75*
G02*
X354846700Y-173514000I-75000J0D01*
G01*
G37*
G36*
G01*
X354846700Y-173014000D02*
X353521700Y-173014000D01*
G75*
G02*
X353446700Y-172939000I0J75000D01*
G01*
X353446700Y-172789000D01*
G75*
G02*
X353521700Y-172714000I75000J0D01*
G01*
X354846700Y-172714000D01*
G75*
G02*
X354921700Y-172789000I0J-75000D01*
G01*
X354921700Y-172939000D01*
G75*
G02*
X354846700Y-173014000I-75000J0D01*
G01*
G37*
G36*
G01*
X354846700Y-172514000D02*
X353521700Y-172514000D01*
G75*
G02*
X353446700Y-172439000I0J75000D01*
G01*
X353446700Y-172289000D01*
G75*
G02*
X353521700Y-172214000I75000J0D01*
G01*
X354846700Y-172214000D01*
G75*
G02*
X354921700Y-172289000I0J-75000D01*
G01*
X354921700Y-172439000D01*
G75*
G02*
X354846700Y-172514000I-75000J0D01*
G01*
G37*
G36*
G01*
X354846700Y-172014000D02*
X353521700Y-172014000D01*
G75*
G02*
X353446700Y-171939000I0J75000D01*
G01*
X353446700Y-171789000D01*
G75*
G02*
X353521700Y-171714000I75000J0D01*
G01*
X354846700Y-171714000D01*
G75*
G02*
X354921700Y-171789000I0J-75000D01*
G01*
X354921700Y-171939000D01*
G75*
G02*
X354846700Y-172014000I-75000J0D01*
G01*
G37*
G36*
G01*
X352846700Y-171189000D02*
X352696700Y-171189000D01*
G75*
G02*
X352621700Y-171114000I0J75000D01*
G01*
X352621700Y-169789000D01*
G75*
G02*
X352696700Y-169714000I75000J0D01*
G01*
X352846700Y-169714000D01*
G75*
G02*
X352921700Y-169789000I0J-75000D01*
G01*
X352921700Y-171114000D01*
G75*
G02*
X352846700Y-171189000I-75000J0D01*
G01*
G37*
G36*
G01*
X352346700Y-171189000D02*
X352196700Y-171189000D01*
G75*
G02*
X352121700Y-171114000I0J75000D01*
G01*
X352121700Y-169789000D01*
G75*
G02*
X352196700Y-169714000I75000J0D01*
G01*
X352346700Y-169714000D01*
G75*
G02*
X352421700Y-169789000I0J-75000D01*
G01*
X352421700Y-171114000D01*
G75*
G02*
X352346700Y-171189000I-75000J0D01*
G01*
G37*
G36*
G01*
X351846700Y-171189000D02*
X351696700Y-171189000D01*
G75*
G02*
X351621700Y-171114000I0J75000D01*
G01*
X351621700Y-169789000D01*
G75*
G02*
X351696700Y-169714000I75000J0D01*
G01*
X351846700Y-169714000D01*
G75*
G02*
X351921700Y-169789000I0J-75000D01*
G01*
X351921700Y-171114000D01*
G75*
G02*
X351846700Y-171189000I-75000J0D01*
G01*
G37*
G36*
G01*
X351346700Y-171189000D02*
X351196700Y-171189000D01*
G75*
G02*
X351121700Y-171114000I0J75000D01*
G01*
X351121700Y-169789000D01*
G75*
G02*
X351196700Y-169714000I75000J0D01*
G01*
X351346700Y-169714000D01*
G75*
G02*
X351421700Y-169789000I0J-75000D01*
G01*
X351421700Y-171114000D01*
G75*
G02*
X351346700Y-171189000I-75000J0D01*
G01*
G37*
G36*
G01*
X350846700Y-171189000D02*
X350696700Y-171189000D01*
G75*
G02*
X350621700Y-171114000I0J75000D01*
G01*
X350621700Y-169789000D01*
G75*
G02*
X350696700Y-169714000I75000J0D01*
G01*
X350846700Y-169714000D01*
G75*
G02*
X350921700Y-169789000I0J-75000D01*
G01*
X350921700Y-171114000D01*
G75*
G02*
X350846700Y-171189000I-75000J0D01*
G01*
G37*
G36*
G01*
X350346700Y-171189000D02*
X350196700Y-171189000D01*
G75*
G02*
X350121700Y-171114000I0J75000D01*
G01*
X350121700Y-169789000D01*
G75*
G02*
X350196700Y-169714000I75000J0D01*
G01*
X350346700Y-169714000D01*
G75*
G02*
X350421700Y-169789000I0J-75000D01*
G01*
X350421700Y-171114000D01*
G75*
G02*
X350346700Y-171189000I-75000J0D01*
G01*
G37*
G36*
G01*
X349846700Y-171189000D02*
X349696700Y-171189000D01*
G75*
G02*
X349621700Y-171114000I0J75000D01*
G01*
X349621700Y-169789000D01*
G75*
G02*
X349696700Y-169714000I75000J0D01*
G01*
X349846700Y-169714000D01*
G75*
G02*
X349921700Y-169789000I0J-75000D01*
G01*
X349921700Y-171114000D01*
G75*
G02*
X349846700Y-171189000I-75000J0D01*
G01*
G37*
G36*
G01*
X349346700Y-171189000D02*
X349196700Y-171189000D01*
G75*
G02*
X349121700Y-171114000I0J75000D01*
G01*
X349121700Y-169789000D01*
G75*
G02*
X349196700Y-169714000I75000J0D01*
G01*
X349346700Y-169714000D01*
G75*
G02*
X349421700Y-169789000I0J-75000D01*
G01*
X349421700Y-171114000D01*
G75*
G02*
X349346700Y-171189000I-75000J0D01*
G01*
G37*
G36*
G01*
X348846700Y-171189000D02*
X348696700Y-171189000D01*
G75*
G02*
X348621700Y-171114000I0J75000D01*
G01*
X348621700Y-169789000D01*
G75*
G02*
X348696700Y-169714000I75000J0D01*
G01*
X348846700Y-169714000D01*
G75*
G02*
X348921700Y-169789000I0J-75000D01*
G01*
X348921700Y-171114000D01*
G75*
G02*
X348846700Y-171189000I-75000J0D01*
G01*
G37*
G36*
G01*
X348346700Y-171189000D02*
X348196700Y-171189000D01*
G75*
G02*
X348121700Y-171114000I0J75000D01*
G01*
X348121700Y-169789000D01*
G75*
G02*
X348196700Y-169714000I75000J0D01*
G01*
X348346700Y-169714000D01*
G75*
G02*
X348421700Y-169789000I0J-75000D01*
G01*
X348421700Y-171114000D01*
G75*
G02*
X348346700Y-171189000I-75000J0D01*
G01*
G37*
G36*
G01*
X347846700Y-171189000D02*
X347696700Y-171189000D01*
G75*
G02*
X347621700Y-171114000I0J75000D01*
G01*
X347621700Y-169789000D01*
G75*
G02*
X347696700Y-169714000I75000J0D01*
G01*
X347846700Y-169714000D01*
G75*
G02*
X347921700Y-169789000I0J-75000D01*
G01*
X347921700Y-171114000D01*
G75*
G02*
X347846700Y-171189000I-75000J0D01*
G01*
G37*
G36*
G01*
X347346700Y-171189000D02*
X347196700Y-171189000D01*
G75*
G02*
X347121700Y-171114000I0J75000D01*
G01*
X347121700Y-169789000D01*
G75*
G02*
X347196700Y-169714000I75000J0D01*
G01*
X347346700Y-169714000D01*
G75*
G02*
X347421700Y-169789000I0J-75000D01*
G01*
X347421700Y-171114000D01*
G75*
G02*
X347346700Y-171189000I-75000J0D01*
G01*
G37*
G36*
G01*
X346521700Y-172014000D02*
X345196700Y-172014000D01*
G75*
G02*
X345121700Y-171939000I0J75000D01*
G01*
X345121700Y-171789000D01*
G75*
G02*
X345196700Y-171714000I75000J0D01*
G01*
X346521700Y-171714000D01*
G75*
G02*
X346596700Y-171789000I0J-75000D01*
G01*
X346596700Y-171939000D01*
G75*
G02*
X346521700Y-172014000I-75000J0D01*
G01*
G37*
G36*
G01*
X346521700Y-172514000D02*
X345196700Y-172514000D01*
G75*
G02*
X345121700Y-172439000I0J75000D01*
G01*
X345121700Y-172289000D01*
G75*
G02*
X345196700Y-172214000I75000J0D01*
G01*
X346521700Y-172214000D01*
G75*
G02*
X346596700Y-172289000I0J-75000D01*
G01*
X346596700Y-172439000D01*
G75*
G02*
X346521700Y-172514000I-75000J0D01*
G01*
G37*
G36*
G01*
X346521700Y-173014000D02*
X345196700Y-173014000D01*
G75*
G02*
X345121700Y-172939000I0J75000D01*
G01*
X345121700Y-172789000D01*
G75*
G02*
X345196700Y-172714000I75000J0D01*
G01*
X346521700Y-172714000D01*
G75*
G02*
X346596700Y-172789000I0J-75000D01*
G01*
X346596700Y-172939000D01*
G75*
G02*
X346521700Y-173014000I-75000J0D01*
G01*
G37*
G36*
G01*
X346521700Y-173514000D02*
X345196700Y-173514000D01*
G75*
G02*
X345121700Y-173439000I0J75000D01*
G01*
X345121700Y-173289000D01*
G75*
G02*
X345196700Y-173214000I75000J0D01*
G01*
X346521700Y-173214000D01*
G75*
G02*
X346596700Y-173289000I0J-75000D01*
G01*
X346596700Y-173439000D01*
G75*
G02*
X346521700Y-173514000I-75000J0D01*
G01*
G37*
G36*
G01*
X346521700Y-174014000D02*
X345196700Y-174014000D01*
G75*
G02*
X345121700Y-173939000I0J75000D01*
G01*
X345121700Y-173789000D01*
G75*
G02*
X345196700Y-173714000I75000J0D01*
G01*
X346521700Y-173714000D01*
G75*
G02*
X346596700Y-173789000I0J-75000D01*
G01*
X346596700Y-173939000D01*
G75*
G02*
X346521700Y-174014000I-75000J0D01*
G01*
G37*
G36*
G01*
X346521700Y-174514000D02*
X345196700Y-174514000D01*
G75*
G02*
X345121700Y-174439000I0J75000D01*
G01*
X345121700Y-174289000D01*
G75*
G02*
X345196700Y-174214000I75000J0D01*
G01*
X346521700Y-174214000D01*
G75*
G02*
X346596700Y-174289000I0J-75000D01*
G01*
X346596700Y-174439000D01*
G75*
G02*
X346521700Y-174514000I-75000J0D01*
G01*
G37*
G36*
G01*
X346521700Y-175014000D02*
X345196700Y-175014000D01*
G75*
G02*
X345121700Y-174939000I0J75000D01*
G01*
X345121700Y-174789000D01*
G75*
G02*
X345196700Y-174714000I75000J0D01*
G01*
X346521700Y-174714000D01*
G75*
G02*
X346596700Y-174789000I0J-75000D01*
G01*
X346596700Y-174939000D01*
G75*
G02*
X346521700Y-175014000I-75000J0D01*
G01*
G37*
G36*
G01*
X346521700Y-175514000D02*
X345196700Y-175514000D01*
G75*
G02*
X345121700Y-175439000I0J75000D01*
G01*
X345121700Y-175289000D01*
G75*
G02*
X345196700Y-175214000I75000J0D01*
G01*
X346521700Y-175214000D01*
G75*
G02*
X346596700Y-175289000I0J-75000D01*
G01*
X346596700Y-175439000D01*
G75*
G02*
X346521700Y-175514000I-75000J0D01*
G01*
G37*
G36*
G01*
X346521700Y-176014000D02*
X345196700Y-176014000D01*
G75*
G02*
X345121700Y-175939000I0J75000D01*
G01*
X345121700Y-175789000D01*
G75*
G02*
X345196700Y-175714000I75000J0D01*
G01*
X346521700Y-175714000D01*
G75*
G02*
X346596700Y-175789000I0J-75000D01*
G01*
X346596700Y-175939000D01*
G75*
G02*
X346521700Y-176014000I-75000J0D01*
G01*
G37*
G36*
G01*
X346521700Y-176514000D02*
X345196700Y-176514000D01*
G75*
G02*
X345121700Y-176439000I0J75000D01*
G01*
X345121700Y-176289000D01*
G75*
G02*
X345196700Y-176214000I75000J0D01*
G01*
X346521700Y-176214000D01*
G75*
G02*
X346596700Y-176289000I0J-75000D01*
G01*
X346596700Y-176439000D01*
G75*
G02*
X346521700Y-176514000I-75000J0D01*
G01*
G37*
G36*
G01*
X346521700Y-177014000D02*
X345196700Y-177014000D01*
G75*
G02*
X345121700Y-176939000I0J75000D01*
G01*
X345121700Y-176789000D01*
G75*
G02*
X345196700Y-176714000I75000J0D01*
G01*
X346521700Y-176714000D01*
G75*
G02*
X346596700Y-176789000I0J-75000D01*
G01*
X346596700Y-176939000D01*
G75*
G02*
X346521700Y-177014000I-75000J0D01*
G01*
G37*
G36*
G01*
X346521700Y-177514000D02*
X345196700Y-177514000D01*
G75*
G02*
X345121700Y-177439000I0J75000D01*
G01*
X345121700Y-177289000D01*
G75*
G02*
X345196700Y-177214000I75000J0D01*
G01*
X346521700Y-177214000D01*
G75*
G02*
X346596700Y-177289000I0J-75000D01*
G01*
X346596700Y-177439000D01*
G75*
G02*
X346521700Y-177514000I-75000J0D01*
G01*
G37*
G36*
G01*
X347346700Y-179514000D02*
X347196700Y-179514000D01*
G75*
G02*
X347121700Y-179439000I0J75000D01*
G01*
X347121700Y-178114000D01*
G75*
G02*
X347196700Y-178039000I75000J0D01*
G01*
X347346700Y-178039000D01*
G75*
G02*
X347421700Y-178114000I0J-75000D01*
G01*
X347421700Y-179439000D01*
G75*
G02*
X347346700Y-179514000I-75000J0D01*
G01*
G37*
G36*
G01*
X347846700Y-179514000D02*
X347696700Y-179514000D01*
G75*
G02*
X347621700Y-179439000I0J75000D01*
G01*
X347621700Y-178114000D01*
G75*
G02*
X347696700Y-178039000I75000J0D01*
G01*
X347846700Y-178039000D01*
G75*
G02*
X347921700Y-178114000I0J-75000D01*
G01*
X347921700Y-179439000D01*
G75*
G02*
X347846700Y-179514000I-75000J0D01*
G01*
G37*
G36*
G01*
X348346700Y-179514000D02*
X348196700Y-179514000D01*
G75*
G02*
X348121700Y-179439000I0J75000D01*
G01*
X348121700Y-178114000D01*
G75*
G02*
X348196700Y-178039000I75000J0D01*
G01*
X348346700Y-178039000D01*
G75*
G02*
X348421700Y-178114000I0J-75000D01*
G01*
X348421700Y-179439000D01*
G75*
G02*
X348346700Y-179514000I-75000J0D01*
G01*
G37*
G36*
G01*
X348846700Y-179514000D02*
X348696700Y-179514000D01*
G75*
G02*
X348621700Y-179439000I0J75000D01*
G01*
X348621700Y-178114000D01*
G75*
G02*
X348696700Y-178039000I75000J0D01*
G01*
X348846700Y-178039000D01*
G75*
G02*
X348921700Y-178114000I0J-75000D01*
G01*
X348921700Y-179439000D01*
G75*
G02*
X348846700Y-179514000I-75000J0D01*
G01*
G37*
G36*
G01*
X349346700Y-179514000D02*
X349196700Y-179514000D01*
G75*
G02*
X349121700Y-179439000I0J75000D01*
G01*
X349121700Y-178114000D01*
G75*
G02*
X349196700Y-178039000I75000J0D01*
G01*
X349346700Y-178039000D01*
G75*
G02*
X349421700Y-178114000I0J-75000D01*
G01*
X349421700Y-179439000D01*
G75*
G02*
X349346700Y-179514000I-75000J0D01*
G01*
G37*
G36*
G01*
X349846700Y-179514000D02*
X349696700Y-179514000D01*
G75*
G02*
X349621700Y-179439000I0J75000D01*
G01*
X349621700Y-178114000D01*
G75*
G02*
X349696700Y-178039000I75000J0D01*
G01*
X349846700Y-178039000D01*
G75*
G02*
X349921700Y-178114000I0J-75000D01*
G01*
X349921700Y-179439000D01*
G75*
G02*
X349846700Y-179514000I-75000J0D01*
G01*
G37*
G36*
G01*
X350346700Y-179514000D02*
X350196700Y-179514000D01*
G75*
G02*
X350121700Y-179439000I0J75000D01*
G01*
X350121700Y-178114000D01*
G75*
G02*
X350196700Y-178039000I75000J0D01*
G01*
X350346700Y-178039000D01*
G75*
G02*
X350421700Y-178114000I0J-75000D01*
G01*
X350421700Y-179439000D01*
G75*
G02*
X350346700Y-179514000I-75000J0D01*
G01*
G37*
G36*
G01*
X350846700Y-179514000D02*
X350696700Y-179514000D01*
G75*
G02*
X350621700Y-179439000I0J75000D01*
G01*
X350621700Y-178114000D01*
G75*
G02*
X350696700Y-178039000I75000J0D01*
G01*
X350846700Y-178039000D01*
G75*
G02*
X350921700Y-178114000I0J-75000D01*
G01*
X350921700Y-179439000D01*
G75*
G02*
X350846700Y-179514000I-75000J0D01*
G01*
G37*
G36*
G01*
X351346700Y-179514000D02*
X351196700Y-179514000D01*
G75*
G02*
X351121700Y-179439000I0J75000D01*
G01*
X351121700Y-178114000D01*
G75*
G02*
X351196700Y-178039000I75000J0D01*
G01*
X351346700Y-178039000D01*
G75*
G02*
X351421700Y-178114000I0J-75000D01*
G01*
X351421700Y-179439000D01*
G75*
G02*
X351346700Y-179514000I-75000J0D01*
G01*
G37*
G36*
G01*
X351846700Y-179514000D02*
X351696700Y-179514000D01*
G75*
G02*
X351621700Y-179439000I0J75000D01*
G01*
X351621700Y-178114000D01*
G75*
G02*
X351696700Y-178039000I75000J0D01*
G01*
X351846700Y-178039000D01*
G75*
G02*
X351921700Y-178114000I0J-75000D01*
G01*
X351921700Y-179439000D01*
G75*
G02*
X351846700Y-179514000I-75000J0D01*
G01*
G37*
G36*
G01*
X352346700Y-179514000D02*
X352196700Y-179514000D01*
G75*
G02*
X352121700Y-179439000I0J75000D01*
G01*
X352121700Y-178114000D01*
G75*
G02*
X352196700Y-178039000I75000J0D01*
G01*
X352346700Y-178039000D01*
G75*
G02*
X352421700Y-178114000I0J-75000D01*
G01*
X352421700Y-179439000D01*
G75*
G02*
X352346700Y-179514000I-75000J0D01*
G01*
G37*
G36*
G01*
X352846700Y-179514000D02*
X352696700Y-179514000D01*
G75*
G02*
X352621700Y-179439000I0J75000D01*
G01*
X352621700Y-178114000D01*
G75*
G02*
X352696700Y-178039000I75000J0D01*
G01*
X352846700Y-178039000D01*
G75*
G02*
X352921700Y-178114000I0J-75000D01*
G01*
X352921700Y-179439000D01*
G75*
G02*
X352846700Y-179514000I-75000J0D01*
G01*
G37*
%TD*%
%TO.C,D1*%
G36*
G01*
X338969300Y-163052200D02*
X338056800Y-163052200D01*
G75*
G02*
X337813050Y-162808450I0J243750D01*
G01*
X337813050Y-162320950D01*
G75*
G02*
X338056800Y-162077200I243750J0D01*
G01*
X338969300Y-162077200D01*
G75*
G02*
X339213050Y-162320950I0J-243750D01*
G01*
X339213050Y-162808450D01*
G75*
G02*
X338969300Y-163052200I-243750J0D01*
G01*
G37*
G36*
G01*
X338969300Y-164927200D02*
X338056800Y-164927200D01*
G75*
G02*
X337813050Y-164683450I0J243750D01*
G01*
X337813050Y-164195950D01*
G75*
G02*
X338056800Y-163952200I243750J0D01*
G01*
X338969300Y-163952200D01*
G75*
G02*
X339213050Y-164195950I0J-243750D01*
G01*
X339213050Y-164683450D01*
G75*
G02*
X338969300Y-164927200I-243750J0D01*
G01*
G37*
%TD*%
D29*
%TO.C,D+1*%
X250809200Y-101593600D03*
%TD*%
%TO.C,D-1*%
X247634400Y-101593600D03*
%TD*%
%TO.C,R13*%
G36*
G01*
X240091100Y-88444398D02*
X240091100Y-89344402D01*
G75*
G02*
X239841102Y-89594400I-249998J0D01*
G01*
X239316098Y-89594400D01*
G75*
G02*
X239066100Y-89344402I0J249998D01*
G01*
X239066100Y-88444398D01*
G75*
G02*
X239316098Y-88194400I249998J0D01*
G01*
X239841102Y-88194400D01*
G75*
G02*
X240091100Y-88444398I0J-249998D01*
G01*
G37*
G36*
G01*
X241916100Y-88444398D02*
X241916100Y-89344402D01*
G75*
G02*
X241666102Y-89594400I-249998J0D01*
G01*
X241141098Y-89594400D01*
G75*
G02*
X240891100Y-89344402I0J249998D01*
G01*
X240891100Y-88444398D01*
G75*
G02*
X241141098Y-88194400I249998J0D01*
G01*
X241666102Y-88194400D01*
G75*
G02*
X241916100Y-88444398I0J-249998D01*
G01*
G37*
%TD*%
%TO.C,D2*%
G36*
G01*
X251265450Y-96381400D02*
X250352950Y-96381400D01*
G75*
G02*
X250109200Y-96137650I0J243750D01*
G01*
X250109200Y-95650150D01*
G75*
G02*
X250352950Y-95406400I243750J0D01*
G01*
X251265450Y-95406400D01*
G75*
G02*
X251509200Y-95650150I0J-243750D01*
G01*
X251509200Y-96137650D01*
G75*
G02*
X251265450Y-96381400I-243750J0D01*
G01*
G37*
G36*
G01*
X251265450Y-98256400D02*
X250352950Y-98256400D01*
G75*
G02*
X250109200Y-98012650I0J243750D01*
G01*
X250109200Y-97525150D01*
G75*
G02*
X250352950Y-97281400I243750J0D01*
G01*
X251265450Y-97281400D01*
G75*
G02*
X251509200Y-97525150I0J-243750D01*
G01*
X251509200Y-98012650D01*
G75*
G02*
X251265450Y-98256400I-243750J0D01*
G01*
G37*
%TD*%
D30*
%TO.C,U1*%
X248121800Y-90481800D03*
X248121800Y-89531800D03*
X248121800Y-91431800D03*
X250321800Y-91431800D03*
X250321800Y-90481800D03*
X250321800Y-89531800D03*
%TD*%
D31*
%TO.C,USB1*%
X252446800Y-85477600D03*
X245996800Y-85477600D03*
X251671800Y-85477600D03*
X246771800Y-85477600D03*
D32*
X247471800Y-85477600D03*
X250971800Y-85477600D03*
X247971800Y-85477600D03*
X250471800Y-85477600D03*
X248471800Y-85477600D03*
X249971800Y-85477600D03*
X249471800Y-85477600D03*
X248971800Y-85477600D03*
D33*
X252111800Y-84032600D03*
X246331800Y-84032600D03*
D34*
X244901800Y-84562600D03*
X253541800Y-84562600D03*
D35*
X244901800Y-80382600D03*
X253541800Y-80382600D03*
%TD*%
%TO.C,R12*%
G36*
G01*
X251946598Y-90881800D02*
X252846602Y-90881800D01*
G75*
G02*
X253096600Y-91131798I0J-249998D01*
G01*
X253096600Y-91656802D01*
G75*
G02*
X252846602Y-91906800I-249998J0D01*
G01*
X251946598Y-91906800D01*
G75*
G02*
X251696600Y-91656802I0J249998D01*
G01*
X251696600Y-91131798D01*
G75*
G02*
X251946598Y-90881800I249998J0D01*
G01*
G37*
G36*
G01*
X251946598Y-89056800D02*
X252846602Y-89056800D01*
G75*
G02*
X253096600Y-89306798I0J-249998D01*
G01*
X253096600Y-89831802D01*
G75*
G02*
X252846602Y-90081800I-249998J0D01*
G01*
X251946598Y-90081800D01*
G75*
G02*
X251696600Y-89831802I0J249998D01*
G01*
X251696600Y-89306798D01*
G75*
G02*
X251946598Y-89056800I249998J0D01*
G01*
G37*
%TD*%
%TO.C,FB5*%
G36*
G01*
X255740100Y-88513150D02*
X255740100Y-89275650D01*
G75*
G02*
X255521350Y-89494400I-218750J0D01*
G01*
X255083850Y-89494400D01*
G75*
G02*
X254865100Y-89275650I0J218750D01*
G01*
X254865100Y-88513150D01*
G75*
G02*
X255083850Y-88294400I218750J0D01*
G01*
X255521350Y-88294400D01*
G75*
G02*
X255740100Y-88513150I0J-218750D01*
G01*
G37*
G36*
G01*
X257865100Y-88513150D02*
X257865100Y-89275650D01*
G75*
G02*
X257646350Y-89494400I-218750J0D01*
G01*
X257208850Y-89494400D01*
G75*
G02*
X256990100Y-89275650I0J218750D01*
G01*
X256990100Y-88513150D01*
G75*
G02*
X257208850Y-88294400I218750J0D01*
G01*
X257646350Y-88294400D01*
G75*
G02*
X257865100Y-88513150I0J-218750D01*
G01*
G37*
%TD*%
D12*
%TO.C,ENCB1*%
X341291000Y-179376200D03*
%TD*%
%TO.C,X2*%
X349228000Y-185725800D03*
%TD*%
%TO.C,X1*%
X352402800Y-185725800D03*
%TD*%
%TO.C,R3*%
G36*
G01*
X350762248Y-163902200D02*
X351662252Y-163902200D01*
G75*
G02*
X351912250Y-164152198I0J-249998D01*
G01*
X351912250Y-164677202D01*
G75*
G02*
X351662252Y-164927200I-249998J0D01*
G01*
X350762248Y-164927200D01*
G75*
G02*
X350512250Y-164677202I0J249998D01*
G01*
X350512250Y-164152198D01*
G75*
G02*
X350762248Y-163902200I249998J0D01*
G01*
G37*
G36*
G01*
X350762248Y-162077200D02*
X351662252Y-162077200D01*
G75*
G02*
X351912250Y-162327198I0J-249998D01*
G01*
X351912250Y-162852202D01*
G75*
G02*
X351662252Y-163102200I-249998J0D01*
G01*
X350762248Y-163102200D01*
G75*
G02*
X350512250Y-162852202I0J249998D01*
G01*
X350512250Y-162327198D01*
G75*
G02*
X350762248Y-162077200I249998J0D01*
G01*
G37*
%TD*%
%TO.C,R64*%
G36*
G01*
X358352400Y-159083698D02*
X358352400Y-159983702D01*
G75*
G02*
X358102402Y-160233700I-249998J0D01*
G01*
X357577398Y-160233700D01*
G75*
G02*
X357327400Y-159983702I0J249998D01*
G01*
X357327400Y-159083698D01*
G75*
G02*
X357577398Y-158833700I249998J0D01*
G01*
X358102402Y-158833700D01*
G75*
G02*
X358352400Y-159083698I0J-249998D01*
G01*
G37*
G36*
G01*
X360177400Y-159083698D02*
X360177400Y-159983702D01*
G75*
G02*
X359927402Y-160233700I-249998J0D01*
G01*
X359402398Y-160233700D01*
G75*
G02*
X359152400Y-159983702I0J249998D01*
G01*
X359152400Y-159083698D01*
G75*
G02*
X359402398Y-158833700I249998J0D01*
G01*
X359927402Y-158833700D01*
G75*
G02*
X360177400Y-159083698I0J-249998D01*
G01*
G37*
%TD*%
%TO.C,R58*%
G36*
G01*
X355524448Y-163902200D02*
X356424452Y-163902200D01*
G75*
G02*
X356674450Y-164152198I0J-249998D01*
G01*
X356674450Y-164677202D01*
G75*
G02*
X356424452Y-164927200I-249998J0D01*
G01*
X355524448Y-164927200D01*
G75*
G02*
X355274450Y-164677202I0J249998D01*
G01*
X355274450Y-164152198D01*
G75*
G02*
X355524448Y-163902200I249998J0D01*
G01*
G37*
G36*
G01*
X355524448Y-162077200D02*
X356424452Y-162077200D01*
G75*
G02*
X356674450Y-162327198I0J-249998D01*
G01*
X356674450Y-162852202D01*
G75*
G02*
X356424452Y-163102200I-249998J0D01*
G01*
X355524448Y-163102200D01*
G75*
G02*
X355274450Y-162852202I0J249998D01*
G01*
X355274450Y-162327198D01*
G75*
G02*
X355524448Y-162077200I249998J0D01*
G01*
G37*
%TD*%
%TO.C,R27*%
G36*
G01*
X340047298Y-171045500D02*
X340947302Y-171045500D01*
G75*
G02*
X341197300Y-171295498I0J-249998D01*
G01*
X341197300Y-171820502D01*
G75*
G02*
X340947302Y-172070500I-249998J0D01*
G01*
X340047298Y-172070500D01*
G75*
G02*
X339797300Y-171820502I0J249998D01*
G01*
X339797300Y-171295498D01*
G75*
G02*
X340047298Y-171045500I249998J0D01*
G01*
G37*
G36*
G01*
X340047298Y-169220500D02*
X340947302Y-169220500D01*
G75*
G02*
X341197300Y-169470498I0J-249998D01*
G01*
X341197300Y-169995502D01*
G75*
G02*
X340947302Y-170245500I-249998J0D01*
G01*
X340047298Y-170245500D01*
G75*
G02*
X339797300Y-169995502I0J249998D01*
G01*
X339797300Y-169470498D01*
G75*
G02*
X340047298Y-169220500I249998J0D01*
G01*
G37*
%TD*%
D19*
%TO.C,J1*%
X361133500Y-171122200D03*
X361133500Y-168582200D03*
X361133500Y-166042200D03*
D20*
X361133500Y-163502200D03*
%TD*%
%TO.C,FB15*%
G36*
G01*
X348815550Y-162083500D02*
X348053050Y-162083500D01*
G75*
G02*
X347834300Y-161864750I0J218750D01*
G01*
X347834300Y-161427250D01*
G75*
G02*
X348053050Y-161208500I218750J0D01*
G01*
X348815550Y-161208500D01*
G75*
G02*
X349034300Y-161427250I0J-218750D01*
G01*
X349034300Y-161864750D01*
G75*
G02*
X348815550Y-162083500I-218750J0D01*
G01*
G37*
G36*
G01*
X348815550Y-164208500D02*
X348053050Y-164208500D01*
G75*
G02*
X347834300Y-163989750I0J218750D01*
G01*
X347834300Y-163552250D01*
G75*
G02*
X348053050Y-163333500I218750J0D01*
G01*
X348815550Y-163333500D01*
G75*
G02*
X349034300Y-163552250I0J-218750D01*
G01*
X349034300Y-163989750D01*
G75*
G02*
X348815550Y-164208500I-218750J0D01*
G01*
G37*
%TD*%
%TO.C,F8*%
G36*
G01*
X345428200Y-163483500D02*
X346678200Y-163483500D01*
G75*
G02*
X346928200Y-163733500I0J-250000D01*
G01*
X346928200Y-164483500D01*
G75*
G02*
X346678200Y-164733500I-250000J0D01*
G01*
X345428200Y-164733500D01*
G75*
G02*
X345178200Y-164483500I0J250000D01*
G01*
X345178200Y-163733500D01*
G75*
G02*
X345428200Y-163483500I250000J0D01*
G01*
G37*
G36*
G01*
X345428200Y-160683500D02*
X346678200Y-160683500D01*
G75*
G02*
X346928200Y-160933500I0J-250000D01*
G01*
X346928200Y-161683500D01*
G75*
G02*
X346678200Y-161933500I-250000J0D01*
G01*
X345428200Y-161933500D01*
G75*
G02*
X345178200Y-161683500I0J250000D01*
G01*
X345178200Y-160933500D01*
G75*
G02*
X345428200Y-160683500I250000J0D01*
G01*
G37*
%TD*%
D12*
%TO.C,ENCB2*%
X336528800Y-177788800D03*
%TD*%
%TO.C,ENCA1*%
X338116200Y-179376200D03*
%TD*%
%TO.C,D11*%
G36*
G01*
X354333900Y-159077450D02*
X354333900Y-159989950D01*
G75*
G02*
X354090150Y-160233700I-243750J0D01*
G01*
X353602650Y-160233700D01*
G75*
G02*
X353358900Y-159989950I0J243750D01*
G01*
X353358900Y-159077450D01*
G75*
G02*
X353602650Y-158833700I243750J0D01*
G01*
X354090150Y-158833700D01*
G75*
G02*
X354333900Y-159077450I0J-243750D01*
G01*
G37*
G36*
G01*
X356208900Y-159077450D02*
X356208900Y-159989950D01*
G75*
G02*
X355965150Y-160233700I-243750J0D01*
G01*
X355477650Y-160233700D01*
G75*
G02*
X355233900Y-159989950I0J243750D01*
G01*
X355233900Y-159077450D01*
G75*
G02*
X355477650Y-158833700I243750J0D01*
G01*
X355965150Y-158833700D01*
G75*
G02*
X356208900Y-159077450I0J-243750D01*
G01*
G37*
%TD*%
%TO.C,C44*%
G36*
G01*
X353646500Y-155246500D02*
X353646500Y-154296500D01*
G75*
G02*
X353896500Y-154046500I250000J0D01*
G01*
X354396500Y-154046500D01*
G75*
G02*
X354646500Y-154296500I0J-250000D01*
G01*
X354646500Y-155246500D01*
G75*
G02*
X354396500Y-155496500I-250000J0D01*
G01*
X353896500Y-155496500D01*
G75*
G02*
X353646500Y-155246500I0J250000D01*
G01*
G37*
G36*
G01*
X351746500Y-155246500D02*
X351746500Y-154296500D01*
G75*
G02*
X351996500Y-154046500I250000J0D01*
G01*
X352496500Y-154046500D01*
G75*
G02*
X352746500Y-154296500I0J-250000D01*
G01*
X352746500Y-155246500D01*
G75*
G02*
X352496500Y-155496500I-250000J0D01*
G01*
X351996500Y-155496500D01*
G75*
G02*
X351746500Y-155246500I0J250000D01*
G01*
G37*
%TD*%
%TO.C,C43*%
G36*
G01*
X350471700Y-160008700D02*
X350471700Y-159058700D01*
G75*
G02*
X350721700Y-158808700I250000J0D01*
G01*
X351221700Y-158808700D01*
G75*
G02*
X351471700Y-159058700I0J-250000D01*
G01*
X351471700Y-160008700D01*
G75*
G02*
X351221700Y-160258700I-250000J0D01*
G01*
X350721700Y-160258700D01*
G75*
G02*
X350471700Y-160008700I0J250000D01*
G01*
G37*
G36*
G01*
X348571700Y-160008700D02*
X348571700Y-159058700D01*
G75*
G02*
X348821700Y-158808700I250000J0D01*
G01*
X349321700Y-158808700D01*
G75*
G02*
X349571700Y-159058700I0J-250000D01*
G01*
X349571700Y-160008700D01*
G75*
G02*
X349321700Y-160258700I-250000J0D01*
G01*
X348821700Y-160258700D01*
G75*
G02*
X348571700Y-160008700I0J250000D01*
G01*
G37*
%TD*%
%TO.C,C24*%
G36*
G01*
X344069600Y-183001000D02*
X345019600Y-183001000D01*
G75*
G02*
X345269600Y-183251000I0J-250000D01*
G01*
X345269600Y-183751000D01*
G75*
G02*
X345019600Y-184001000I-250000J0D01*
G01*
X344069600Y-184001000D01*
G75*
G02*
X343819600Y-183751000I0J250000D01*
G01*
X343819600Y-183251000D01*
G75*
G02*
X344069600Y-183001000I250000J0D01*
G01*
G37*
G36*
G01*
X344069600Y-181101000D02*
X345019600Y-181101000D01*
G75*
G02*
X345269600Y-181351000I0J-250000D01*
G01*
X345269600Y-181851000D01*
G75*
G02*
X345019600Y-182101000I-250000J0D01*
G01*
X344069600Y-182101000D01*
G75*
G02*
X343819600Y-181851000I0J250000D01*
G01*
X343819600Y-181351000D01*
G75*
G02*
X344069600Y-181101000I250000J0D01*
G01*
G37*
%TD*%
%TO.C,C23*%
G36*
G01*
X347321900Y-182101000D02*
X346371900Y-182101000D01*
G75*
G02*
X346121900Y-181851000I0J250000D01*
G01*
X346121900Y-181351000D01*
G75*
G02*
X346371900Y-181101000I250000J0D01*
G01*
X347321900Y-181101000D01*
G75*
G02*
X347571900Y-181351000I0J-250000D01*
G01*
X347571900Y-181851000D01*
G75*
G02*
X347321900Y-182101000I-250000J0D01*
G01*
G37*
G36*
G01*
X347321900Y-184001000D02*
X346371900Y-184001000D01*
G75*
G02*
X346121900Y-183751000I0J250000D01*
G01*
X346121900Y-183251000D01*
G75*
G02*
X346371900Y-183001000I250000J0D01*
G01*
X347321900Y-183001000D01*
G75*
G02*
X347571900Y-183251000I0J-250000D01*
G01*
X347571900Y-183751000D01*
G75*
G02*
X347321900Y-184001000I-250000J0D01*
G01*
G37*
%TD*%
%TO.C,C21*%
G36*
G01*
X357640000Y-181307300D02*
X356690000Y-181307300D01*
G75*
G02*
X356440000Y-181057300I0J250000D01*
G01*
X356440000Y-180557300D01*
G75*
G02*
X356690000Y-180307300I250000J0D01*
G01*
X357640000Y-180307300D01*
G75*
G02*
X357890000Y-180557300I0J-250000D01*
G01*
X357890000Y-181057300D01*
G75*
G02*
X357640000Y-181307300I-250000J0D01*
G01*
G37*
G36*
G01*
X357640000Y-183207300D02*
X356690000Y-183207300D01*
G75*
G02*
X356440000Y-182957300I0J250000D01*
G01*
X356440000Y-182457300D01*
G75*
G02*
X356690000Y-182207300I250000J0D01*
G01*
X357640000Y-182207300D01*
G75*
G02*
X357890000Y-182457300I0J-250000D01*
G01*
X357890000Y-182957300D01*
G75*
G02*
X357640000Y-183207300I-250000J0D01*
G01*
G37*
%TD*%
%TO.C,C20*%
G36*
G01*
X356233900Y-166995700D02*
X356233900Y-167945700D01*
G75*
G02*
X355983900Y-168195700I-250000J0D01*
G01*
X355483900Y-168195700D01*
G75*
G02*
X355233900Y-167945700I0J250000D01*
G01*
X355233900Y-166995700D01*
G75*
G02*
X355483900Y-166745700I250000J0D01*
G01*
X355983900Y-166745700D01*
G75*
G02*
X356233900Y-166995700I0J-250000D01*
G01*
G37*
G36*
G01*
X354333900Y-166995700D02*
X354333900Y-167945700D01*
G75*
G02*
X354083900Y-168195700I-250000J0D01*
G01*
X353583900Y-168195700D01*
G75*
G02*
X353333900Y-167945700I0J250000D01*
G01*
X353333900Y-166995700D01*
G75*
G02*
X353583900Y-166745700I250000J0D01*
G01*
X354083900Y-166745700D01*
G75*
G02*
X354333900Y-166995700I0J-250000D01*
G01*
G37*
%TD*%
%TO.C,C19*%
G36*
G01*
X342403400Y-171095500D02*
X343353400Y-171095500D01*
G75*
G02*
X343603400Y-171345500I0J-250000D01*
G01*
X343603400Y-171845500D01*
G75*
G02*
X343353400Y-172095500I-250000J0D01*
G01*
X342403400Y-172095500D01*
G75*
G02*
X342153400Y-171845500I0J250000D01*
G01*
X342153400Y-171345500D01*
G75*
G02*
X342403400Y-171095500I250000J0D01*
G01*
G37*
G36*
G01*
X342403400Y-169195500D02*
X343353400Y-169195500D01*
G75*
G02*
X343603400Y-169445500I0J-250000D01*
G01*
X343603400Y-169945500D01*
G75*
G02*
X343353400Y-170195500I-250000J0D01*
G01*
X342403400Y-170195500D01*
G75*
G02*
X342153400Y-169945500I0J250000D01*
G01*
X342153400Y-169445500D01*
G75*
G02*
X342403400Y-169195500I250000J0D01*
G01*
G37*
%TD*%
%TO.C,C18*%
G36*
G01*
X355258900Y-181307300D02*
X354308900Y-181307300D01*
G75*
G02*
X354058900Y-181057300I0J250000D01*
G01*
X354058900Y-180557300D01*
G75*
G02*
X354308900Y-180307300I250000J0D01*
G01*
X355258900Y-180307300D01*
G75*
G02*
X355508900Y-180557300I0J-250000D01*
G01*
X355508900Y-181057300D01*
G75*
G02*
X355258900Y-181307300I-250000J0D01*
G01*
G37*
G36*
G01*
X355258900Y-183207300D02*
X354308900Y-183207300D01*
G75*
G02*
X354058900Y-182957300I0J250000D01*
G01*
X354058900Y-182457300D01*
G75*
G02*
X354308900Y-182207300I250000J0D01*
G01*
X355258900Y-182207300D01*
G75*
G02*
X355508900Y-182457300I0J-250000D01*
G01*
X355508900Y-182957300D01*
G75*
G02*
X355258900Y-183207300I-250000J0D01*
G01*
G37*
%TD*%
%TO.C,C7*%
G36*
G01*
X345578200Y-189350600D02*
X346528200Y-189350600D01*
G75*
G02*
X346778200Y-189600600I0J-250000D01*
G01*
X346778200Y-190100600D01*
G75*
G02*
X346528200Y-190350600I-250000J0D01*
G01*
X345578200Y-190350600D01*
G75*
G02*
X345328200Y-190100600I0J250000D01*
G01*
X345328200Y-189600600D01*
G75*
G02*
X345578200Y-189350600I250000J0D01*
G01*
G37*
G36*
G01*
X345578200Y-187450600D02*
X346528200Y-187450600D01*
G75*
G02*
X346778200Y-187700600I0J-250000D01*
G01*
X346778200Y-188200600D01*
G75*
G02*
X346528200Y-188450600I-250000J0D01*
G01*
X345578200Y-188450600D01*
G75*
G02*
X345328200Y-188200600I0J250000D01*
G01*
X345328200Y-187700600D01*
G75*
G02*
X345578200Y-187450600I250000J0D01*
G01*
G37*
%TD*%
%TO.C,C3*%
G36*
G01*
X356052600Y-188450600D02*
X355102600Y-188450600D01*
G75*
G02*
X354852600Y-188200600I0J250000D01*
G01*
X354852600Y-187700600D01*
G75*
G02*
X355102600Y-187450600I250000J0D01*
G01*
X356052600Y-187450600D01*
G75*
G02*
X356302600Y-187700600I0J-250000D01*
G01*
X356302600Y-188200600D01*
G75*
G02*
X356052600Y-188450600I-250000J0D01*
G01*
G37*
G36*
G01*
X356052600Y-190350600D02*
X355102600Y-190350600D01*
G75*
G02*
X354852600Y-190100600I0J250000D01*
G01*
X354852600Y-189600600D01*
G75*
G02*
X355102600Y-189350600I250000J0D01*
G01*
X356052600Y-189350600D01*
G75*
G02*
X356302600Y-189600600I0J-250000D01*
G01*
X356302600Y-190100600D01*
G75*
G02*
X356052600Y-190350600I-250000J0D01*
G01*
G37*
%TD*%
%TO.C,BOOT1*%
X338116200Y-170645500D03*
%TD*%
%TO.C,BOOT0*%
X380976000Y-173820300D03*
%TD*%
%TO.C,R38*%
G36*
G01*
X383757100Y-168714402D02*
X383757100Y-167814398D01*
G75*
G02*
X384007098Y-167564400I249998J0D01*
G01*
X384532102Y-167564400D01*
G75*
G02*
X384782100Y-167814398I0J-249998D01*
G01*
X384782100Y-168714402D01*
G75*
G02*
X384532102Y-168964400I-249998J0D01*
G01*
X384007098Y-168964400D01*
G75*
G02*
X383757100Y-168714402I0J249998D01*
G01*
G37*
G36*
G01*
X381932100Y-168714402D02*
X381932100Y-167814398D01*
G75*
G02*
X382182098Y-167564400I249998J0D01*
G01*
X382707102Y-167564400D01*
G75*
G02*
X382957100Y-167814398I0J-249998D01*
G01*
X382957100Y-168714402D01*
G75*
G02*
X382707102Y-168964400I-249998J0D01*
G01*
X382182098Y-168964400D01*
G75*
G02*
X381932100Y-168714402I0J249998D01*
G01*
G37*
%TD*%
%TO.C,R4*%
G36*
G01*
X353143348Y-163902200D02*
X354043352Y-163902200D01*
G75*
G02*
X354293350Y-164152198I0J-249998D01*
G01*
X354293350Y-164677202D01*
G75*
G02*
X354043352Y-164927200I-249998J0D01*
G01*
X353143348Y-164927200D01*
G75*
G02*
X352893350Y-164677202I0J249998D01*
G01*
X352893350Y-164152198D01*
G75*
G02*
X353143348Y-163902200I249998J0D01*
G01*
G37*
G36*
G01*
X353143348Y-162077200D02*
X354043352Y-162077200D01*
G75*
G02*
X354293350Y-162327198I0J-249998D01*
G01*
X354293350Y-162852202D01*
G75*
G02*
X354043352Y-163102200I-249998J0D01*
G01*
X353143348Y-163102200D01*
G75*
G02*
X352893350Y-162852202I0J249998D01*
G01*
X352893350Y-162327198D01*
G75*
G02*
X353143348Y-162077200I249998J0D01*
G01*
G37*
%TD*%
D36*
%TO.C,ROT2*%
X389706700Y-90084950D03*
D37*
X387206700Y-90084950D03*
X384706700Y-90084950D03*
D38*
X392806700Y-97584950D03*
X381606700Y-97584950D03*
D37*
X389706700Y-104584950D03*
X384706700Y-104584950D03*
%TD*%
D12*
%TO.C,COL2*%
X65083400Y-119848700D03*
%TD*%
%TO.C,COL14*%
X303193400Y-119848700D03*
%TD*%
%TO.C,COL11*%
X236522600Y-119848700D03*
%TD*%
%TO.C,COL10*%
X217473800Y-119848700D03*
%TD*%
%TO.C,COL9*%
X198425000Y-119848700D03*
%TD*%
%TO.C,COL8*%
X179376200Y-119848700D03*
%TD*%
%TO.C,COL7*%
X160327400Y-119848700D03*
%TD*%
%TO.C,COL6*%
X141278600Y-119848700D03*
%TD*%
%TO.C,COL5*%
X122229800Y-119848700D03*
%TD*%
%TO.C,COL4*%
X103181000Y-119848700D03*
%TD*%
%TO.C,COL17*%
X379388600Y-120642400D03*
%TD*%
%TO.C,COL16*%
X360339800Y-120642400D03*
%TD*%
%TO.C,ROW0*%
X42859800Y-100799900D03*
%TD*%
%TO.C,ROW1*%
X42859800Y-129373100D03*
%TD*%
%TO.C,ROW2*%
X42859800Y-148421900D03*
%TD*%
%TO.C,ROW3*%
X42859800Y-167470700D03*
%TD*%
%TO.C,ROW4*%
X42859800Y-186519500D03*
%TD*%
%TO.C,ROW5*%
X42859800Y-205568300D03*
%TD*%
%TO.C,COL0*%
X22223600Y-119848700D03*
%TD*%
%TO.C,COL3*%
X84132200Y-119848700D03*
%TD*%
%TO.C,COL12*%
X255571400Y-119848700D03*
%TD*%
D39*
%TO.C,D4*%
X381832300Y-106355800D03*
X378532300Y-106355800D03*
%TD*%
%TO.C,R39*%
G36*
G01*
X383757100Y-166333302D02*
X383757100Y-165433298D01*
G75*
G02*
X384007098Y-165183300I249998J0D01*
G01*
X384532102Y-165183300D01*
G75*
G02*
X384782100Y-165433298I0J-249998D01*
G01*
X384782100Y-166333302D01*
G75*
G02*
X384532102Y-166583300I-249998J0D01*
G01*
X384007098Y-166583300D01*
G75*
G02*
X383757100Y-166333302I0J249998D01*
G01*
G37*
G36*
G01*
X381932100Y-166333302D02*
X381932100Y-165433298D01*
G75*
G02*
X382182098Y-165183300I249998J0D01*
G01*
X382707102Y-165183300D01*
G75*
G02*
X382957100Y-165433298I0J-249998D01*
G01*
X382957100Y-166333302D01*
G75*
G02*
X382707102Y-166583300I-249998J0D01*
G01*
X382182098Y-166583300D01*
G75*
G02*
X381932100Y-166333302I0J249998D01*
G01*
G37*
%TD*%
D13*
%TO.C,KD15*%
X38097600Y-124485700D03*
X38097600Y-127785700D03*
%TD*%
%TO.C,KD33*%
X38097600Y-143534500D03*
X38097600Y-146834500D03*
%TD*%
%TO.C,KD51*%
X38097600Y-162645900D03*
X38097600Y-165945900D03*
%TD*%
%TO.C,KD65*%
X38097600Y-181694700D03*
X38097600Y-184994700D03*
%TD*%
%TO.C,KD80*%
X64289700Y-200743500D03*
X64289700Y-204043500D03*
%TD*%
%TO.C,KD1*%
X61908600Y-95975100D03*
X61908600Y-99275100D03*
%TD*%
%TO.C,KD16*%
X61908600Y-124548300D03*
X61908600Y-127848300D03*
%TD*%
%TO.C,KD34*%
X66670800Y-143597100D03*
X66670800Y-146897100D03*
%TD*%
%TO.C,KD52*%
X69051900Y-162645900D03*
X69051900Y-165945900D03*
%TD*%
%TO.C,KD79*%
X38097600Y-200680900D03*
X38097600Y-203980900D03*
%TD*%
%TO.C,KD2*%
X100006200Y-95975100D03*
X100006200Y-99275100D03*
%TD*%
%TO.C,KD18*%
X100006200Y-124548300D03*
X100006200Y-127848300D03*
%TD*%
%TO.C,KD36*%
X109530600Y-143597100D03*
X109530600Y-146897100D03*
%TD*%
%TO.C,KD54*%
X114292800Y-162645900D03*
X114292800Y-165945900D03*
%TD*%
%TO.C,KD67*%
X104768400Y-181694700D03*
X104768400Y-184994700D03*
%TD*%
%TO.C,KD82*%
X111911700Y-200743500D03*
X111911700Y-204043500D03*
%TD*%
%TO.C,KD17*%
X80957400Y-124548300D03*
X80957400Y-127848300D03*
%TD*%
%TO.C,KD35*%
X90481800Y-143597100D03*
X90481800Y-146897100D03*
%TD*%
%TO.C,KD53*%
X95244000Y-162645900D03*
X95244000Y-165945900D03*
%TD*%
%TO.C,KD66*%
X73814100Y-181694700D03*
X73814100Y-184994700D03*
%TD*%
%TO.C,KD81*%
X88100700Y-200743500D03*
X88100700Y-204043500D03*
%TD*%
%TO.C,KD3*%
X119055000Y-95975100D03*
X119055000Y-99275100D03*
%TD*%
%TO.C,KD19*%
X119055000Y-124548300D03*
X119055000Y-127848300D03*
%TD*%
%TO.C,KD37*%
X128579400Y-143597100D03*
X128579400Y-146897100D03*
%TD*%
%TO.C,KD55*%
X133341600Y-162645900D03*
X133341600Y-165945900D03*
%TD*%
%TO.C,KD68*%
X123817200Y-181694700D03*
X123817200Y-184994700D03*
%TD*%
%TO.C,KD70*%
X161914800Y-181694700D03*
X161914800Y-184994700D03*
%TD*%
%TO.C,KD4*%
X138103800Y-95975100D03*
X138103800Y-99275100D03*
%TD*%
%TO.C,KD20*%
X138103800Y-124548300D03*
X138103800Y-127848300D03*
%TD*%
%TO.C,KD38*%
X147628200Y-143597100D03*
X147628200Y-146897100D03*
%TD*%
%TO.C,KD56*%
X152390400Y-162645900D03*
X152390400Y-165945900D03*
%TD*%
%TO.C,KD69*%
X142866000Y-181694700D03*
X142866000Y-184994700D03*
%TD*%
%TO.C,KD5*%
X157152600Y-95975100D03*
X157152600Y-99275100D03*
%TD*%
%TO.C,KD21*%
X157152600Y-124548300D03*
X157152600Y-127848300D03*
%TD*%
%TO.C,KD39*%
X166677000Y-143597100D03*
X166677000Y-146897100D03*
%TD*%
%TO.C,KD57*%
X171439200Y-162645900D03*
X171439200Y-165945900D03*
%TD*%
%TO.C,KD71*%
X180963600Y-181694700D03*
X180963600Y-184994700D03*
%TD*%
%TO.C,KD83*%
X183344700Y-200743500D03*
X183344700Y-204043500D03*
%TD*%
%TO.C,KD6*%
X185725800Y-95975100D03*
X185725800Y-99275100D03*
%TD*%
%TO.C,KD22*%
X176201400Y-124548300D03*
X176201400Y-127848300D03*
%TD*%
%TO.C,KD40*%
X185725800Y-143597100D03*
X185725800Y-146897100D03*
%TD*%
%TO.C,KD58*%
X190488000Y-162645900D03*
X190488000Y-165945900D03*
%TD*%
%TO.C,KD72*%
X200012400Y-181694700D03*
X200012400Y-184994700D03*
%TD*%
%TO.C,KD7*%
X204774600Y-95975100D03*
X204774600Y-99275100D03*
%TD*%
%TO.C,KD23*%
X195250200Y-124548300D03*
X195250200Y-127848300D03*
%TD*%
%TO.C,KD41*%
X204774600Y-143597100D03*
X204774600Y-146897100D03*
%TD*%
%TO.C,KD59*%
X209536800Y-162645900D03*
X209536800Y-165945900D03*
%TD*%
%TO.C,KD73*%
X219061200Y-181694700D03*
X219061200Y-184994700D03*
%TD*%
%TO.C,KD8*%
X223823400Y-95975100D03*
X223823400Y-99275100D03*
%TD*%
%TO.C,KD24*%
X214299000Y-124548300D03*
X214299000Y-127848300D03*
%TD*%
%TO.C,KD42*%
X223823400Y-143597100D03*
X223823400Y-146897100D03*
%TD*%
%TO.C,KD60*%
X228585600Y-162645900D03*
X228585600Y-165945900D03*
%TD*%
%TO.C,KD74*%
X238110000Y-181694700D03*
X238110000Y-184994700D03*
%TD*%
%TO.C,KD25*%
X233347800Y-124548300D03*
X233347800Y-127848300D03*
%TD*%
%TO.C,KD43*%
X242872200Y-143597100D03*
X242872200Y-146897100D03*
%TD*%
%TO.C,KD61*%
X247634400Y-162645900D03*
X247634400Y-165945900D03*
%TD*%
%TO.C,KD75*%
X257158800Y-181694700D03*
X257158800Y-184994700D03*
%TD*%
%TO.C,KD84*%
X254777700Y-200743500D03*
X254777700Y-204043500D03*
%TD*%
%TO.C,KD10*%
X271445400Y-95975100D03*
X271445400Y-99275100D03*
%TD*%
%TO.C,KD26*%
X252396600Y-124548300D03*
X252396600Y-127848300D03*
%TD*%
%TO.C,KD44*%
X261921000Y-143597100D03*
X261921000Y-146897100D03*
%TD*%
%TO.C,KD62*%
X266683200Y-162645900D03*
X266683200Y-165945900D03*
%TD*%
%TO.C,KD11*%
X290494200Y-95975100D03*
X290494200Y-99275100D03*
%TD*%
%TO.C,KD27*%
X271445400Y-124548300D03*
X271445400Y-127848300D03*
%TD*%
%TO.C,KD45*%
X280969800Y-143597100D03*
X280969800Y-146897100D03*
%TD*%
%TO.C,KD63*%
X285732000Y-162645900D03*
X285732000Y-165945900D03*
%TD*%
%TO.C,KD85*%
X278588700Y-200743500D03*
X278588700Y-204043500D03*
%TD*%
%TO.C,KD86*%
X302399700Y-200743500D03*
X302399700Y-204043500D03*
%TD*%
%TO.C,KD12*%
X309543000Y-95975100D03*
X309543000Y-99275100D03*
%TD*%
%TO.C,KD28*%
X290494200Y-124548300D03*
X290494200Y-127848300D03*
%TD*%
%TO.C,KD46*%
X300018600Y-143597100D03*
X300018600Y-146897100D03*
%TD*%
%TO.C,KD87*%
X326210700Y-200743500D03*
X326210700Y-204043500D03*
%TD*%
%TO.C,KD13*%
X328591800Y-95975100D03*
X328591800Y-99275100D03*
%TD*%
%TO.C,KD29*%
X319067400Y-124548300D03*
X319067400Y-127848300D03*
%TD*%
%TO.C,KD47*%
X323829600Y-143597100D03*
X323829600Y-146897100D03*
%TD*%
%TO.C,KD64*%
X316686300Y-162645900D03*
X316686300Y-165945900D03*
%TD*%
%TO.C,KD77*%
X311924100Y-181694700D03*
X311924100Y-184994700D03*
%TD*%
%TO.C,KD88*%
X357165000Y-200743500D03*
X357165000Y-204043500D03*
%TD*%
%TO.C,KD14*%
X357165000Y-95975100D03*
X357165000Y-99275100D03*
%TD*%
%TO.C,KD30*%
X357165000Y-124548300D03*
X357165000Y-127848300D03*
%TD*%
%TO.C,KD48*%
X357165000Y-143597100D03*
X357165000Y-146897100D03*
%TD*%
%TO.C,KD31*%
X376213800Y-124548300D03*
X376213800Y-127848300D03*
%TD*%
%TO.C,KD49*%
X376213800Y-143597100D03*
X376213800Y-146897100D03*
%TD*%
%TO.C,KD78*%
X376213800Y-181694700D03*
X376213800Y-184994700D03*
%TD*%
%TO.C,KD89*%
X376213800Y-200743500D03*
X376213800Y-204043500D03*
%TD*%
%TO.C,KD32*%
X395262600Y-124548300D03*
X395262600Y-127848300D03*
%TD*%
%TO.C,KD50*%
X395262600Y-143597100D03*
X395262600Y-146897100D03*
%TD*%
%TO.C,KD90*%
X395262600Y-200743500D03*
X395262600Y-204043500D03*
%TD*%
%TO.C,D3*%
X37303900Y-105624700D03*
X37303900Y-102324700D03*
%TD*%
D36*
%TO.C,ROT1*%
X32541700Y-90084950D03*
D37*
X30041700Y-90084950D03*
X27541700Y-90084950D03*
D38*
X35641700Y-97584950D03*
X24441700Y-97584950D03*
D37*
X32541700Y-104584950D03*
X27541700Y-104584950D03*
%TD*%
D40*
X350815400Y-188900600D03*
X395262600Y-148421900D03*
X91275500Y-120642400D03*
X110324300Y-120642400D03*
X129373100Y-120642400D03*
X148421900Y-120642400D03*
X167470700Y-120642400D03*
X186519500Y-120642400D03*
X205568300Y-120642400D03*
X224617100Y-120642400D03*
X243665900Y-120642400D03*
X262714700Y-120642400D03*
X253984000Y-121436100D03*
X234935200Y-121436100D03*
X215886400Y-121436100D03*
X196837600Y-121436100D03*
X177788800Y-121436100D03*
X158740000Y-121436100D03*
X139691200Y-121436100D03*
X120642400Y-121436100D03*
X101593600Y-122229800D03*
X82544800Y-121436100D03*
X63496000Y-121436100D03*
X44447200Y-121436100D03*
X261921000Y-91275500D03*
X346053200Y-186519500D03*
X355577600Y-186519500D03*
X73020400Y-140484900D03*
X92069200Y-140484900D03*
X111118000Y-140484900D03*
X130166800Y-140484900D03*
X149215600Y-140484900D03*
X168264400Y-140484900D03*
X187313200Y-140484900D03*
X206362000Y-140484900D03*
X225410800Y-140484900D03*
X244459600Y-140484900D03*
X263508400Y-140484900D03*
X282557200Y-140484900D03*
X306368200Y-140484900D03*
X268270600Y-159533700D03*
X299224900Y-159533700D03*
X249221800Y-159533700D03*
X230173000Y-159533700D03*
X211124200Y-159533700D03*
X192075400Y-159533700D03*
X173026600Y-159533700D03*
X153977800Y-159533700D03*
X134929000Y-159533700D03*
X115880200Y-159533700D03*
X96831400Y-159533700D03*
X77782600Y-159533700D03*
X51590500Y-159533700D03*
X44447200Y-92862900D03*
X82544800Y-92862900D03*
X101593600Y-92862900D03*
X120642400Y-92862900D03*
X139691200Y-92862900D03*
X168264400Y-92862900D03*
X187313200Y-92862900D03*
X206362000Y-92862900D03*
X225410800Y-92862900D03*
X273032800Y-92862900D03*
X292081600Y-92862900D03*
X311130400Y-92862900D03*
X339703600Y-92862900D03*
X358752400Y-121436100D03*
X300812300Y-121436100D03*
X46828300Y-197631300D03*
X70639300Y-197631300D03*
X56352700Y-178582500D03*
X94450300Y-197631300D03*
X85719600Y-176995100D03*
X106355800Y-178582500D03*
X125404600Y-178582500D03*
X144453400Y-178582500D03*
X165883300Y-197631300D03*
X163502200Y-178582500D03*
X182551000Y-178582500D03*
X201599800Y-178582500D03*
X220648600Y-178582500D03*
X239697400Y-178582500D03*
X237316300Y-197631300D03*
X258746200Y-178582500D03*
X261127300Y-197631300D03*
X284938300Y-197631300D03*
X308749300Y-197631300D03*
X294462700Y-182551000D03*
X339703600Y-197631300D03*
X358752400Y-197631300D03*
X377801200Y-197631300D03*
X49209400Y-140484900D03*
X125404600Y-199218700D03*
X221442300Y-199218700D03*
X323035900Y-122229800D03*
X346053200Y-127785700D03*
X339306750Y-146834500D03*
X336925650Y-146834500D03*
X325417000Y-155565200D03*
X320654800Y-164295900D03*
X376213800Y-96037700D03*
X60321200Y-116673900D03*
X79370000Y-116673900D03*
X98418800Y-116673900D03*
X117467600Y-116673900D03*
X136516400Y-116673900D03*
X155565200Y-116673900D03*
X174614000Y-116673900D03*
X193662800Y-116673900D03*
X212711600Y-116673900D03*
X73020400Y-108736900D03*
X92069200Y-108736900D03*
X111118000Y-108736900D03*
X130166800Y-108736900D03*
X149215600Y-108736900D03*
X168264400Y-108736900D03*
X187313200Y-108736900D03*
X206362000Y-108736900D03*
X387325600Y-111911700D03*
X349228000Y-111911700D03*
X325417000Y-107149500D03*
X332560300Y-107149500D03*
X325417000Y-109530600D03*
X331766600Y-109530600D03*
X336925650Y-153977800D03*
X358752400Y-140484900D03*
X377007500Y-139691200D03*
X365102000Y-184932100D03*
X341291000Y-188900600D03*
X347640600Y-174614000D03*
X350021700Y-172232900D03*
X350021700Y-176995100D03*
X352402800Y-174614000D03*
X300018600Y-148421900D03*
X323829600Y-148421900D03*
X357165000Y-148421900D03*
X376213800Y-148421900D03*
X280969800Y-148421900D03*
X261921000Y-148421900D03*
X242872200Y-148421900D03*
X223823400Y-148421900D03*
X204774600Y-148421900D03*
X185725800Y-148421900D03*
X166677000Y-148421900D03*
X147628200Y-148421900D03*
X128579400Y-148421900D03*
X109530600Y-148421900D03*
X90481800Y-148421900D03*
X66670800Y-148421900D03*
X38097600Y-148421900D03*
X38097600Y-167470700D03*
X95244000Y-167470700D03*
X114292800Y-167470700D03*
X133341600Y-167470700D03*
X152390400Y-167470700D03*
X171439200Y-167470700D03*
X190488000Y-167470700D03*
X209536800Y-167470700D03*
X228585600Y-167470700D03*
X247634400Y-167470700D03*
X266683200Y-167470700D03*
X285732000Y-167470700D03*
X316686300Y-167470700D03*
X311924100Y-186519500D03*
X376213800Y-186519500D03*
X376213800Y-205568300D03*
X357165000Y-205568300D03*
X326210700Y-205568300D03*
X302399700Y-205568300D03*
X278588700Y-205568300D03*
X254777700Y-205568300D03*
X257158800Y-186519500D03*
X238110000Y-186519500D03*
X219061200Y-186519500D03*
X200012400Y-186519500D03*
X180963600Y-186519500D03*
X183344700Y-205568300D03*
X161914800Y-186519500D03*
X142866000Y-186519500D03*
X123817200Y-186519500D03*
X111911700Y-205568300D03*
X104768400Y-186519500D03*
X73814100Y-186519500D03*
X88100700Y-205568300D03*
X64289700Y-205568300D03*
X38097600Y-186519500D03*
X38097600Y-205568300D03*
X366689400Y-177788800D03*
X377007500Y-178582500D03*
X377007500Y-161914800D03*
X222236000Y-211917900D03*
X228585600Y-211917900D03*
X122229800Y-211917900D03*
X128579400Y-211917900D03*
X257158800Y-109530600D03*
X270651700Y-109530600D03*
X263508400Y-109530600D03*
X270651700Y-107149500D03*
X263508400Y-107149500D03*
X289700500Y-109530600D03*
X289700500Y-107149500D03*
X282557200Y-107149500D03*
X282557200Y-109530600D03*
X310336700Y-109530600D03*
X315098900Y-109530600D03*
X310336700Y-107149500D03*
X315098900Y-107149500D03*
X395262600Y-159533700D03*
X309543000Y-100799900D03*
X290494200Y-100799900D03*
X328591800Y-100799900D03*
X250809200Y-107149500D03*
X247634400Y-107149500D03*
X250015500Y-109530600D03*
X271445400Y-100799900D03*
X242872200Y-100799900D03*
X223823400Y-100799900D03*
X204774600Y-100799900D03*
X185725800Y-100799900D03*
X157152600Y-100799900D03*
X138103800Y-100799900D03*
X119055000Y-100799900D03*
X100006200Y-100799900D03*
X61908600Y-100799900D03*
X273032800Y-121436100D03*
X26192100Y-113499100D03*
X61908600Y-129373100D03*
X336925650Y-114689650D03*
X339306750Y-113895950D03*
X357165000Y-129373100D03*
X373435850Y-130166800D03*
X343672100Y-130563650D03*
X319067400Y-129373100D03*
X290494200Y-129373100D03*
X305971350Y-130166800D03*
X271445400Y-129373100D03*
X252396600Y-129373100D03*
X233347800Y-129373100D03*
X214299000Y-129373100D03*
X195250200Y-129373100D03*
X176201400Y-129373100D03*
X157152600Y-129373100D03*
X138103800Y-129373100D03*
X119055000Y-129373100D03*
X100006200Y-129373100D03*
X80957400Y-129373100D03*
X296050100Y-134135300D03*
X302399700Y-134135300D03*
X365102000Y-107149500D03*
X365102000Y-113499100D03*
X369864200Y-107149500D03*
X369864200Y-113499100D03*
X339306750Y-134929000D03*
X336925650Y-134929000D03*
X377801200Y-122229800D03*
X357165000Y-100799900D03*
X376213800Y-112705400D03*
X280969800Y-184932100D03*
X287319400Y-184932100D03*
X383357100Y-171439200D03*
X306368200Y-149215600D03*
X336925650Y-149215600D03*
X291684750Y-173423450D03*
X293669000Y-171439200D03*
X291287900Y-178979350D03*
X302399700Y-171439200D03*
X325813850Y-186916350D03*
X332163450Y-186916350D03*
X325813850Y-191678550D03*
X332163450Y-191678550D03*
X288509950Y-190488000D03*
X295653250Y-190488000D03*
X276207600Y-186519500D03*
X38097600Y-129373100D03*
X26985800Y-165883300D03*
X60321200Y-187313200D03*
X319861100Y-190091150D03*
X312717800Y-190884850D03*
X280969800Y-180169900D03*
X330179200Y-198425000D03*
X365102000Y-203980900D03*
X330179200Y-206758850D03*
X259539900Y-101593600D03*
X336925650Y-158740000D03*
X369070500Y-161914800D03*
X246047000Y-109530600D03*
X250809200Y-99609350D03*
X247634400Y-99609350D03*
X69051900Y-167470700D03*
X307955600Y-127785700D03*
X339306750Y-127785700D03*
X336925650Y-127785700D03*
X336925650Y-124214050D03*
X339306750Y-121832950D03*
X336925650Y-117864450D03*
X339306750Y-115483350D03*
X287319400Y-180169900D03*
X285335150Y-175010850D03*
X342084700Y-153184100D03*
X342084700Y-159533700D03*
X346053200Y-191281700D03*
X355577600Y-191281700D03*
X395262600Y-205568300D03*
X395262600Y-129373100D03*
X345259500Y-169851800D03*
X353990200Y-179376200D03*
X354783900Y-169851800D03*
X343787903Y-180285703D03*
X340497300Y-161121100D03*
X362445910Y-161121100D03*
X349546700Y-181757300D03*
X72226700Y-196837600D03*
X79370000Y-158740000D03*
X74607800Y-139691200D03*
X87307000Y-176201400D03*
X46034600Y-92069200D03*
X50796800Y-139691200D03*
X53177900Y-158740000D03*
X57940100Y-177788800D03*
X48415700Y-196837600D03*
X93656600Y-139691200D03*
X98418800Y-158740000D03*
X107943200Y-177788800D03*
X96037700Y-196837600D03*
X84132200Y-92069200D03*
X340497300Y-148421900D03*
X326210700Y-148421900D03*
X367483100Y-170645500D03*
X377763580Y-148421900D03*
X313511500Y-186519500D03*
X359578121Y-184096106D03*
X366689400Y-171439200D03*
X377801200Y-116673900D03*
X244459600Y-100799900D03*
X253984000Y-100799900D03*
X337800803Y-178089000D03*
X331335866Y-176159562D03*
X330179200Y-205568300D03*
X339703600Y-205568300D03*
X379388600Y-205568300D03*
X378594900Y-177788800D03*
X112705400Y-139691200D03*
X117467600Y-158740000D03*
X126992000Y-177788800D03*
X103181000Y-92069200D03*
X131754200Y-139691200D03*
X136516400Y-158740000D03*
X146040800Y-177788800D03*
X122229800Y-92069200D03*
X150803000Y-139691200D03*
X155565200Y-158740000D03*
X165089600Y-177788800D03*
X167470700Y-196837600D03*
X141278600Y-92069200D03*
X169851800Y-139691200D03*
X174614000Y-158740000D03*
X184138400Y-177788800D03*
X169851800Y-92069200D03*
X188900600Y-139691200D03*
X193662800Y-158740000D03*
X203187200Y-177788800D03*
X188900600Y-92069200D03*
X327004400Y-119848700D03*
X326210700Y-120642400D03*
X380976000Y-161914800D03*
X379388600Y-196837600D03*
X379388600Y-139691200D03*
X360339800Y-139691200D03*
X360339800Y-196837600D03*
X360339800Y-177788800D03*
X366702051Y-172451854D03*
X378594900Y-129373100D03*
X326210700Y-129373100D03*
X340497300Y-129373100D03*
X207949400Y-139691200D03*
X212711600Y-158740000D03*
X222236000Y-177788800D03*
X207949400Y-92069200D03*
X226998200Y-139691200D03*
X241284800Y-177788800D03*
X231760400Y-158740000D03*
X226998200Y-92069200D03*
X239697400Y-196837600D03*
X250809200Y-158740000D03*
X260333600Y-177788800D03*
X262714700Y-196837600D03*
X246047000Y-139691200D03*
X255571400Y-92069200D03*
X269858000Y-158740000D03*
X265095800Y-139691200D03*
X274620200Y-92069200D03*
X284144600Y-139691200D03*
X293669000Y-92069200D03*
X285693027Y-192908073D03*
X296050100Y-177788800D03*
X300812300Y-158740000D03*
X307955600Y-139691200D03*
X312717800Y-92069200D03*
X304780800Y-154771500D03*
X308749300Y-192869100D03*
X341291000Y-196837600D03*
X342084700Y-139691200D03*
X342084700Y-92069200D03*
X339703600Y-181757300D03*
X327798100Y-119055000D03*
X357165000Y-171439200D03*
X352402800Y-167470700D03*
X337281717Y-173067383D03*
X242872200Y-88894400D03*
X247634400Y-88100700D03*
X243665900Y-91275500D03*
X250809200Y-92862900D03*
X336131950Y-165883300D03*
X335735100Y-159533700D03*
X352005950Y-102180997D03*
X345259500Y-103250110D03*
X323432750Y-103350101D03*
X317876850Y-103181000D03*
X305574500Y-102784150D03*
X298828050Y-103181000D03*
X286383434Y-102572781D03*
X279779250Y-103181000D03*
X260730450Y-103181000D03*
X267552013Y-102663013D03*
X241812784Y-102871530D03*
X254646566Y-102871530D03*
X152853371Y-104347131D03*
X151993550Y-102180997D03*
X238729220Y-102567967D03*
X232157250Y-103181000D03*
X219696894Y-102584442D03*
X213108450Y-103181000D03*
X200576444Y-102498441D03*
X194059650Y-103181000D03*
X192706550Y-104419550D03*
X352005950Y-103181000D03*
X346450050Y-103181000D03*
X323432750Y-102350098D03*
X316686300Y-103350101D03*
X242768155Y-103271540D03*
X253691195Y-103271540D03*
X133838667Y-104313036D03*
X132944750Y-102180997D03*
X201202950Y-103277860D03*
X193413657Y-105126659D03*
X304383950Y-103750111D03*
X304383950Y-102350110D03*
X296985343Y-106350141D03*
X242768155Y-105477880D03*
X253691195Y-105477880D03*
X114755771Y-104347131D03*
X113895950Y-102180997D03*
X285335150Y-103577850D03*
X285372632Y-102177849D03*
X277737964Y-106350141D03*
X241775527Y-105877890D03*
X254683823Y-105877890D03*
X95741067Y-104313036D03*
X94847150Y-102180997D03*
X266286350Y-103577850D03*
X266345918Y-102177849D03*
X258816374Y-106277900D03*
X240779669Y-106277900D03*
X255679681Y-106277900D03*
X56749550Y-102180997D03*
X57728510Y-104281010D03*
X56749550Y-131754200D03*
X243752492Y-103664442D03*
X252706858Y-103664442D03*
X180566750Y-103181000D03*
X175010850Y-103181000D03*
X151993550Y-103181000D03*
X146437650Y-103181000D03*
X132944750Y-103181000D03*
X127388850Y-103181000D03*
X113895950Y-103181000D03*
X108340050Y-103181000D03*
X94847150Y-103181000D03*
X89291250Y-103181000D03*
X56749550Y-103181000D03*
X56749550Y-130754197D03*
X237713150Y-103577850D03*
X237713150Y-102177849D03*
X230890582Y-105226229D03*
X244459600Y-104371550D03*
X251999750Y-104371550D03*
X218664350Y-103577850D03*
X218698128Y-102177849D03*
X211730075Y-105114524D03*
X243752492Y-105078658D03*
X252706858Y-105078658D03*
X27382650Y-130623299D03*
X32938550Y-130563650D03*
X199615550Y-103577850D03*
X199555982Y-102177849D03*
X193651608Y-101577701D03*
X340497300Y-115848688D03*
X315893327Y-134532877D03*
X228188750Y-130751049D03*
X228188750Y-132151050D03*
X222120937Y-130098100D03*
X340497300Y-116848691D03*
X316876847Y-134057400D03*
X247237550Y-132151050D03*
X247177982Y-130751049D03*
X240224126Y-133651070D03*
X89291250Y-131754200D03*
X94842839Y-130815742D03*
X340497300Y-117848694D03*
X317876850Y-133738450D03*
X266286350Y-132151050D03*
X266281924Y-130751049D03*
X259471360Y-133807006D03*
X209139950Y-131754200D03*
X203584050Y-131754200D03*
X190091150Y-131754200D03*
X184535250Y-131754200D03*
X171042350Y-131754200D03*
X165486450Y-131754200D03*
X151993550Y-131754200D03*
X146437650Y-131754200D03*
X132944750Y-131754200D03*
X127388850Y-131754200D03*
X113895950Y-131754200D03*
X108340050Y-132151050D03*
X88067549Y-132556451D03*
X94847432Y-131815734D03*
X340497300Y-118848697D03*
X285335150Y-130960500D03*
X285318296Y-132360501D03*
X319007429Y-133378187D03*
X277742331Y-134923341D03*
X114874910Y-132854210D03*
X113895950Y-130754197D03*
X340497300Y-119848700D03*
X313908350Y-130960500D03*
X313908350Y-133360504D03*
X319861100Y-132857370D03*
X311527250Y-135325850D03*
X133923710Y-132854210D03*
X132944750Y-130754197D03*
X365498850Y-131754200D03*
X352005950Y-130754197D03*
X340497300Y-133563659D03*
X326210700Y-133563659D03*
X152887467Y-132886236D03*
X151993550Y-130754197D03*
X373299296Y-116973890D03*
X371054750Y-131960503D03*
X353018926Y-132860530D03*
X364498847Y-131754200D03*
X352005950Y-131754200D03*
X340497300Y-132563656D03*
X346450050Y-132151050D03*
X326210700Y-132563656D03*
X230173000Y-131851060D03*
X222053450Y-133524149D03*
X171831720Y-132990783D03*
X171042350Y-130754197D03*
X374292552Y-116573880D03*
X371054750Y-130960500D03*
X340497300Y-131563653D03*
X326210700Y-131563653D03*
X308352450Y-131754200D03*
X313908350Y-131960503D03*
X286427575Y-131455475D03*
X279779250Y-131754200D03*
X267502911Y-131187111D03*
X260730450Y-131754200D03*
X248448951Y-131336499D03*
X241681650Y-131754200D03*
X222730975Y-131656075D03*
X229202583Y-131138931D03*
X221259750Y-132854210D03*
X190091150Y-130754197D03*
X191028245Y-132997605D03*
X375319371Y-116327414D03*
X376213800Y-132960494D03*
X376213800Y-115880200D03*
X340497300Y-130563650D03*
X326210700Y-130563650D03*
X376910640Y-131160484D03*
X240826201Y-102471520D03*
X255633149Y-102471520D03*
X328194950Y-195250200D03*
X363117750Y-109133750D03*
X283097622Y-186147168D03*
X329194953Y-195250200D03*
X363117750Y-110324300D03*
X284096913Y-186109483D03*
X313114650Y-150803000D03*
X339306750Y-150406150D03*
X326210700Y-150406150D03*
X289303650Y-150803000D03*
X295851115Y-150337724D03*
X319861100Y-150406150D03*
X276778122Y-150383572D03*
X270254850Y-150803000D03*
X258050625Y-150308025D03*
X251206050Y-150803000D03*
X238680051Y-150055006D03*
X232157250Y-150803000D03*
X230540455Y-151932405D03*
X200475371Y-151969131D03*
X199615550Y-149802997D03*
X279569771Y-174217513D03*
X371054750Y-150009300D03*
X364498847Y-150803000D03*
X352005950Y-151009303D03*
X346191836Y-151137886D03*
X340013858Y-151113258D03*
X325503592Y-151113258D03*
X292081600Y-152390400D03*
X239318517Y-150824658D03*
X231275921Y-152667871D03*
X181579726Y-151903010D03*
X180566750Y-149802997D03*
X278569770Y-174216892D03*
X371054750Y-151009303D03*
X365498850Y-150803000D03*
X352005950Y-150009300D03*
X341009057Y-151506160D03*
X353123393Y-151917812D03*
X324623300Y-151993550D03*
X291081597Y-152390400D03*
X162377771Y-151969131D03*
X161517950Y-149802997D03*
X277569769Y-174217225D03*
X318684891Y-151372110D03*
X318670550Y-149972109D03*
X311741551Y-152303020D03*
X290252981Y-153090400D03*
X143328971Y-151969131D03*
X142469150Y-149802997D03*
X276569768Y-174217094D03*
X294859550Y-150009300D03*
X289294442Y-153490410D03*
X124280171Y-151969131D03*
X123420350Y-149802997D03*
X275569767Y-174217167D03*
X275810750Y-150009300D03*
X269164600Y-151899850D03*
X218664350Y-150803000D03*
X213108450Y-150803000D03*
X199615550Y-150803000D03*
X194059650Y-150803000D03*
X180566750Y-150803000D03*
X175010850Y-150803000D03*
X161517950Y-150803000D03*
X155962050Y-150803000D03*
X142469150Y-150803000D03*
X136913250Y-150803000D03*
X123420350Y-150803000D03*
X104371550Y-150803000D03*
X117864450Y-151199850D03*
X97480125Y-151647975D03*
X274569766Y-174217137D03*
X256761950Y-150009300D03*
X256714512Y-152124693D03*
X104371550Y-149802997D03*
X98815650Y-150803000D03*
X273569765Y-174217154D03*
X237713150Y-151199850D03*
X237713150Y-149799849D03*
X250089381Y-151919669D03*
X231749208Y-149199701D03*
X272569764Y-174217150D03*
X262714700Y-169454950D03*
X255968250Y-169851800D03*
X243579833Y-169327181D03*
X236919450Y-169851800D03*
X217870650Y-169851800D03*
X224449866Y-169418275D03*
X198821850Y-169851800D03*
X205369315Y-169386524D03*
X186583411Y-169551810D03*
X179773050Y-169851800D03*
X167260856Y-169083557D03*
X160724250Y-169851800D03*
X159152726Y-171026475D03*
X129233723Y-170951810D03*
X128182550Y-168851797D03*
X280572950Y-169058100D03*
X283018545Y-170606922D03*
X274918925Y-169945500D03*
X167867550Y-169948660D03*
X159859834Y-171733583D03*
X110146726Y-170951810D03*
X109133750Y-168851797D03*
X280572950Y-170058103D03*
X261524150Y-168851797D03*
X261524150Y-170345510D03*
X281963274Y-170693731D03*
X253984000Y-173020941D03*
X91302179Y-170951810D03*
X90084950Y-168851797D03*
X242475350Y-170420911D03*
X242475350Y-169020910D03*
X235283098Y-173069894D03*
X63892850Y-168851797D03*
X64752671Y-171017931D03*
X223426550Y-170420911D03*
X223426550Y-169020910D03*
X215829363Y-173020941D03*
X32938550Y-168851797D03*
X33832467Y-170983836D03*
X32938550Y-151199850D03*
X204377750Y-170420911D03*
X204377750Y-169020910D03*
X197631300Y-171820911D03*
X147231350Y-169851800D03*
X141675450Y-169851800D03*
X128182550Y-169851800D03*
X122626650Y-169851800D03*
X109133750Y-169851800D03*
X103577850Y-169851800D03*
X90084950Y-169851800D03*
X84529050Y-169851800D03*
X32938550Y-169851800D03*
X27382650Y-150803000D03*
X63892850Y-169851800D03*
X58336950Y-169851800D03*
X185328950Y-170420911D03*
X185328950Y-169020910D03*
X178392801Y-171751830D03*
X166280150Y-170348670D03*
X166269993Y-168948669D03*
X160325821Y-168195700D03*
X27382650Y-149672099D03*
X33554676Y-149790024D03*
X340013858Y-149699042D03*
X325503592Y-149699042D03*
X280569771Y-174215780D03*
X296848750Y-150103000D03*
X306765050Y-187900597D03*
X300018600Y-189069701D03*
X271048550Y-188900600D03*
X265492650Y-188900600D03*
X253023066Y-188467075D03*
X246443850Y-188900600D03*
X233974266Y-188467076D03*
X227395050Y-188900600D03*
X214893715Y-188435324D03*
X208346250Y-188900600D03*
X189297450Y-188900600D03*
X195844915Y-188435324D03*
X176827866Y-188467075D03*
X170248650Y-188900600D03*
X157730794Y-188132860D03*
X151199850Y-188900600D03*
X149583056Y-190030004D03*
X119517971Y-190066731D03*
X118658150Y-187900597D03*
X306765050Y-188900600D03*
X301209150Y-188900600D03*
X271048550Y-187900597D03*
X264302100Y-189069701D03*
X158343150Y-189000620D03*
X150318520Y-190765470D03*
X100503267Y-190032636D03*
X99609350Y-187900597D03*
X251999750Y-189469711D03*
X251999750Y-188069710D03*
X244505051Y-192069741D03*
X68655050Y-187900597D03*
X69524360Y-190057242D03*
X232950950Y-189469711D03*
X232950950Y-188069710D03*
X225765848Y-192111543D03*
X33951526Y-190000610D03*
X32938550Y-187900597D03*
X213902150Y-189469711D03*
X213902150Y-188069710D03*
X206437028Y-192069741D03*
X27086100Y-189203750D03*
X59105596Y-207924346D03*
X62148728Y-209049410D03*
X32840425Y-208047525D03*
X194853350Y-189469711D03*
X194853350Y-188069710D03*
X188106900Y-190869711D03*
X137706950Y-188900600D03*
X132378998Y-188900600D03*
X118658150Y-188900600D03*
X113102250Y-188900600D03*
X99609350Y-188900600D03*
X94053450Y-188900600D03*
X68655050Y-188900600D03*
X63099150Y-188900600D03*
X32938550Y-188900600D03*
X27382650Y-208252550D03*
X175804550Y-189469711D03*
X175804550Y-188069710D03*
X168661250Y-190800630D03*
X53574750Y-207949400D03*
X59862438Y-209243565D03*
X156755750Y-189391150D03*
X156740884Y-187991149D03*
X150413470Y-187317992D03*
X27382650Y-206818499D03*
X33235100Y-206462300D03*
X321498864Y-207054971D03*
X313935570Y-210249440D03*
X297240650Y-206949397D03*
X298344320Y-209049410D03*
X290220076Y-210249440D03*
X172629750Y-207949400D03*
X179679350Y-208020826D03*
X274442626Y-209049410D03*
X273429650Y-206949397D03*
X266313571Y-210249440D03*
X249618650Y-206949397D03*
X250478471Y-209115531D03*
X242803651Y-210002199D03*
X178185650Y-207949400D03*
X179030955Y-209347254D03*
X352987263Y-209559737D03*
X352005950Y-206949397D03*
X371054750Y-206949397D03*
X371761858Y-208718500D03*
X371054750Y-189106903D03*
X336131950Y-207949400D03*
X332062721Y-208649400D03*
X371054750Y-207949400D03*
X371054750Y-188106900D03*
X352005950Y-207949400D03*
X365498850Y-207949400D03*
X346450050Y-207949400D03*
X321051650Y-207949400D03*
X315495750Y-207949400D03*
X297240650Y-207949400D03*
X291684750Y-207949400D03*
X336839058Y-207242292D03*
X332957150Y-207949400D03*
X273429650Y-207949400D03*
X267873750Y-207949400D03*
X249618650Y-207949400D03*
X244062750Y-207949400D03*
X365498850Y-188900600D03*
X372761470Y-209118510D03*
X337546166Y-206535184D03*
X331766600Y-206849390D03*
X364604421Y-207249400D03*
X365498850Y-187900597D03*
X329385500Y-181757300D03*
X327747736Y-196144629D03*
X361983440Y-157946300D03*
X377007500Y-109227450D03*
X329385500Y-194059650D03*
X284938300Y-176598250D03*
X346846900Y-159533700D03*
X343672100Y-159533700D03*
X22223600Y-158745780D03*
X22223600Y-139696500D03*
X22223600Y-177795060D03*
X22223600Y-196837600D03*
M02*
