M48
; DRILL file {KiCad (5.1.10)-1} date 12/22/21 19:33:33
; FORMAT={-:-/ absolute / metric / decimal}
; #@! TF.CreationDate,2021-12-22T19:33:33-05:00
; #@! TF.GenerationSoftware,Kicad,Pcbnew,(5.1.10)-1
; #@! TF.FileFunction,NonPlated,1,2,NPTH
FMAT,2
METRIC
T1C0.650
T2C1.750
T3C2.100
T4C3.000
T5C3.050
T6C4.000
%
G90
G05
T1
X246.332Y-84.033
X252.112Y-84.033
T2
X25.081Y-126.198
X25.081Y-145.247
X25.081Y-164.296
X25.081Y-183.345
X25.081Y-202.393
X35.241Y-126.198
X35.241Y-145.247
X35.241Y-164.296
X35.241Y-183.345
X35.241Y-202.393
X48.892Y-97.625
X48.892Y-126.198
X51.273Y-202.393
X53.654Y-145.247
X56.035Y-164.296
X59.052Y-97.625
X59.052Y-126.198
X60.797Y-183.345
X61.433Y-202.393
X63.814Y-145.247
X66.195Y-164.296
X67.94Y-126.198
X70.957Y-183.345
X75.084Y-202.393
X77.465Y-145.247
X78.1Y-126.198
X82.169Y-164.296
X85.244Y-202.393
X86.989Y-97.625
X86.989Y-126.198
X87.625Y-145.247
X91.751Y-183.345
X92.329Y-164.296
X96.514Y-145.247
X97.149Y-97.625
X97.149Y-126.198
X98.895Y-202.393
X101.276Y-164.296
X101.911Y-183.345
X106.038Y-97.625
X106.038Y-126.198
X106.674Y-145.247
X109.055Y-202.393
X110.8Y-183.345
X111.436Y-164.296
X115.562Y-145.247
X116.198Y-97.625
X116.198Y-126.198
X120.325Y-164.296
X120.96Y-183.345
X125.087Y-97.625
X125.087Y-126.198
X125.722Y-145.247
X129.849Y-183.345
X130.485Y-164.296
X134.611Y-145.247
X135.247Y-97.625
X135.247Y-126.198
X139.373Y-164.296
X140.009Y-183.345
X144.136Y-97.625
X144.136Y-126.198
X144.771Y-145.247
X148.898Y-183.345
X149.533Y-164.296
X153.66Y-145.247
X154.296Y-97.625
X154.296Y-126.198
X158.422Y-164.296
X159.058Y-183.345
X163.184Y-126.198
X163.82Y-145.247
X167.947Y-183.345
X168.582Y-164.296
X170.328Y-202.393
X172.709Y-97.625
X172.709Y-145.247
X173.344Y-126.198
X177.471Y-164.296
X178.107Y-183.345
X180.488Y-202.393
X182.233Y-126.198
X182.869Y-97.625
X182.869Y-145.247
X186.995Y-183.345
X187.631Y-164.296
X191.758Y-97.625
X191.758Y-145.247
X192.393Y-126.198
X196.52Y-164.296
X197.155Y-183.345
X201.282Y-126.198
X201.918Y-97.625
X201.918Y-145.247
X206.044Y-183.345
X206.68Y-164.296
X210.806Y-97.625
X210.806Y-145.247
X211.442Y-126.198
X215.569Y-164.296
X216.204Y-183.345
X220.331Y-126.198
X220.966Y-97.625
X220.966Y-145.247
X225.093Y-183.345
X225.729Y-164.296
X229.855Y-97.625
X229.855Y-145.247
X230.491Y-126.198
X234.617Y-164.296
X235.253Y-183.345
X239.38Y-126.198
X240.015Y-97.625
X240.015Y-145.247
X241.761Y-202.393
X244.142Y-183.345
X244.777Y-164.296
X248.904Y-145.247
X249.54Y-126.198
X251.921Y-202.393
X253.666Y-164.296
X254.302Y-183.345
X258.428Y-97.625
X258.428Y-126.198
X259.064Y-145.247
X263.191Y-183.345
X263.826Y-164.296
X265.572Y-202.393
X267.953Y-145.247
X268.588Y-97.625
X268.588Y-126.198
X272.715Y-164.296
X273.351Y-183.345
X275.732Y-202.393
X277.477Y-97.625
X277.477Y-126.198
X278.113Y-145.247
X282.875Y-164.296
X287.002Y-145.247
X287.637Y-97.625
X287.637Y-126.198
X289.383Y-202.393
X296.526Y-97.625
X297.162Y-145.247
X298.907Y-183.345
X299.543Y-202.393
X303.669Y-164.296
X306.05Y-126.198
X306.686Y-97.625
X309.067Y-183.345
X310.813Y-145.247
X313.194Y-202.393
X313.829Y-164.296
X315.575Y-97.625
X316.21Y-126.198
X320.973Y-145.247
X323.354Y-202.393
X325.735Y-97.625
X344.148Y-97.625
X344.148Y-126.198
X344.148Y-145.247
X344.148Y-202.393
X354.308Y-97.625
X354.308Y-126.198
X354.308Y-145.247
X354.308Y-202.393
X363.197Y-126.198
X363.197Y-145.247
X363.197Y-183.345
X363.197Y-202.393
X373.357Y-126.198
X373.357Y-145.247
X373.357Y-183.345
X373.357Y-202.393
X382.246Y-126.198
X382.246Y-145.247
X382.246Y-202.393
X392.406Y-126.198
X392.406Y-145.247
X392.406Y-202.393
T3
X30.161Y-131.273
X30.161Y-150.322
X30.161Y-169.371
X30.161Y-188.42
X30.161Y-207.468
X53.972Y-102.7
X53.972Y-131.273
X56.353Y-207.468
X58.734Y-150.322
X61.115Y-169.371
X65.877Y-188.42
X73.02Y-131.273
X80.164Y-207.468
X82.545Y-150.322
X87.307Y-169.371
X92.069Y-102.7
X92.069Y-131.273
X96.831Y-188.42
X101.594Y-150.322
X103.975Y-207.468
X106.356Y-169.371
X111.118Y-102.7
X111.118Y-131.273
X115.88Y-188.42
X120.642Y-150.322
X125.405Y-169.371
X130.167Y-102.7
X130.167Y-131.273
X134.929Y-188.42
X139.691Y-150.322
X144.453Y-169.371
X149.216Y-102.7
X149.216Y-131.273
X153.978Y-188.42
X158.74Y-150.322
X163.502Y-169.371
X168.264Y-131.273
X173.027Y-188.42
X175.408Y-207.468
X177.789Y-102.7
X177.789Y-150.322
X182.551Y-169.371
X187.313Y-131.273
X192.075Y-188.42
X196.838Y-102.7
X196.838Y-150.322
X201.6Y-169.371
X206.362Y-131.273
X211.124Y-188.42
X215.886Y-102.7
X215.886Y-150.322
X220.649Y-169.371
X225.411Y-131.273
X230.173Y-188.42
X234.935Y-102.7
X234.935Y-150.322
X239.697Y-169.371
X244.46Y-131.273
X246.841Y-207.468
X249.222Y-188.42
X253.984Y-150.322
X258.746Y-169.371
X263.508Y-102.7
X263.508Y-131.273
X268.271Y-188.42
X270.652Y-207.468
X273.033Y-150.322
X277.795Y-169.371
X282.557Y-102.7
X282.557Y-131.273
X292.082Y-150.322
X294.463Y-207.468
X301.606Y-102.7
X303.987Y-188.42
X308.749Y-169.371
X311.13Y-131.273
X315.893Y-150.322
X318.274Y-207.468
X320.655Y-102.7
X349.228Y-102.7
X349.228Y-131.273
X349.228Y-150.322
X349.228Y-207.468
X368.277Y-131.273
X368.277Y-150.322
X368.277Y-188.42
X368.277Y-207.468
X387.326Y-131.273
X387.326Y-150.322
X387.326Y-207.468
T4
X26.351Y-123.658
X26.351Y-142.707
X26.351Y-161.756
X26.351Y-180.805
X26.351Y-199.853
X32.701Y-121.118
X32.701Y-140.167
X32.701Y-159.216
X32.701Y-178.265
X32.701Y-197.314
X50.162Y-95.085
X50.162Y-123.658
X52.543Y-199.853
X54.924Y-142.707
X56.512Y-92.545
X56.512Y-121.118
X57.305Y-161.756
X58.893Y-197.314
X61.274Y-140.167
X62.067Y-180.805
X63.655Y-159.216
X68.417Y-178.265
X69.21Y-123.658
X75.56Y-121.118
X76.354Y-199.853
X78.735Y-142.707
X82.704Y-197.314
X83.439Y-161.756
X85.085Y-140.167
X88.259Y-95.085
X88.259Y-123.658
X89.789Y-159.216
X93.021Y-180.805
X94.609Y-92.545
X94.609Y-121.118
X97.784Y-142.707
X99.371Y-178.265
X100.165Y-199.853
X102.546Y-161.756
X104.134Y-140.167
X106.515Y-197.314
X107.308Y-95.085
X107.308Y-123.658
X108.896Y-159.216
X112.07Y-180.805
X113.658Y-92.545
X113.658Y-121.118
X116.832Y-142.707
X118.42Y-178.265
X121.595Y-161.756
X123.182Y-140.167
X126.357Y-95.085
X126.357Y-123.658
X127.945Y-159.216
X131.119Y-180.805
X132.707Y-92.545
X132.707Y-121.118
X135.881Y-142.707
X137.469Y-178.265
X140.643Y-161.756
X142.231Y-140.167
X145.406Y-95.085
X145.406Y-123.658
X146.993Y-159.216
X150.168Y-180.805
X151.756Y-92.545
X151.756Y-121.118
X154.93Y-142.707
X156.518Y-178.265
X159.692Y-161.756
X161.28Y-140.167
X164.454Y-123.658
X166.042Y-159.216
X169.217Y-180.805
X170.804Y-121.118
X171.598Y-199.853
X173.979Y-95.085
X173.979Y-142.707
X175.567Y-178.265
X177.948Y-197.314
X178.741Y-161.756
X180.329Y-92.545
X180.329Y-140.167
X183.503Y-123.658
X185.091Y-159.216
X188.265Y-180.805
X189.853Y-121.118
X193.028Y-95.085
X193.028Y-142.707
X194.615Y-178.265
X197.79Y-161.756
X199.378Y-92.545
X199.378Y-140.167
X202.552Y-123.658
X204.14Y-159.216
X207.314Y-180.805
X208.902Y-121.118
X212.076Y-95.085
X212.076Y-142.707
X213.664Y-178.265
X216.839Y-161.756
X218.426Y-92.545
X218.426Y-140.167
X221.601Y-123.658
X223.189Y-159.216
X226.363Y-180.805
X227.951Y-121.118
X231.125Y-95.085
X231.125Y-142.707
X232.713Y-178.265
X235.887Y-161.756
X237.475Y-92.545
X237.475Y-140.167
X240.65Y-123.658
X242.237Y-159.216
X243.031Y-199.853
X245.412Y-180.805
X247.0Y-121.118
X249.381Y-197.314
X250.174Y-142.707
X251.762Y-178.265
X254.936Y-161.756
X256.524Y-140.167
X259.698Y-95.085
X259.698Y-123.658
X261.286Y-159.216
X264.461Y-180.805
X266.048Y-92.545
X266.048Y-121.118
X266.842Y-199.853
X269.223Y-142.707
X270.811Y-178.265
X273.192Y-197.314
X273.985Y-161.756
X275.573Y-140.167
X278.747Y-95.085
X278.747Y-123.658
X280.335Y-159.216
X285.097Y-92.545
X285.097Y-121.118
X288.272Y-142.707
X290.653Y-199.853
X294.622Y-140.167
X297.003Y-197.314
X297.796Y-95.085
X300.177Y-180.805
X304.146Y-92.545
X304.939Y-161.756
X306.527Y-178.265
X307.32Y-123.658
X311.289Y-159.216
X312.083Y-142.707
X313.67Y-121.118
X314.464Y-199.853
X316.845Y-95.085
X318.433Y-140.167
X320.814Y-197.314
X323.195Y-92.545
X345.418Y-95.085
X345.418Y-123.658
X345.418Y-142.707
X345.418Y-199.853
X351.768Y-92.545
X351.768Y-121.118
X351.768Y-140.167
X351.768Y-197.314
X364.467Y-123.658
X364.467Y-142.707
X364.467Y-180.805
X364.467Y-199.853
X370.817Y-121.118
X370.817Y-140.167
X370.817Y-178.265
X370.817Y-197.314
X383.516Y-123.658
X383.516Y-142.707
X383.516Y-199.853
X389.866Y-121.118
X389.866Y-140.167
X389.866Y-197.314
T5
X53.939Y-176.345
X77.815Y-176.345
X125.408Y-195.393
X225.408Y-195.393
X292.049Y-176.345
X296.811Y-157.296
X299.192Y-119.198
X315.925Y-176.345
X320.687Y-157.296
X323.068Y-119.198
T6
X30.161Y-126.198
X30.161Y-145.247
X30.161Y-164.296
X30.161Y-183.345
X30.161Y-202.393
X53.939Y-191.585
X53.972Y-97.625
X53.972Y-126.198
X56.353Y-202.393
X58.734Y-145.247
X61.115Y-164.296
X65.877Y-183.345
X73.02Y-126.198
X77.815Y-191.585
X80.164Y-202.393
X82.545Y-145.247
X87.249Y-164.296
X92.069Y-97.625
X92.069Y-126.198
X96.831Y-183.345
X101.594Y-145.247
X103.975Y-202.393
X106.356Y-164.296
X111.118Y-97.625
X111.118Y-126.198
X115.88Y-183.345
X120.642Y-145.247
X125.405Y-164.296
X125.408Y-210.633
X130.167Y-97.625
X130.167Y-126.198
X134.929Y-183.345
X139.691Y-145.247
X144.453Y-164.296
X149.216Y-97.625
X149.216Y-126.198
X153.978Y-183.345
X158.74Y-145.247
X163.502Y-164.296
X168.264Y-126.198
X173.027Y-183.345
X175.408Y-202.393
X177.789Y-97.625
X177.789Y-145.247
X182.551Y-164.296
X187.313Y-126.198
X192.075Y-183.345
X196.838Y-97.625
X196.838Y-145.247
X201.6Y-164.296
X206.362Y-126.198
X211.124Y-183.345
X215.886Y-97.625
X215.886Y-145.247
X220.649Y-164.296
X225.408Y-210.633
X225.411Y-126.198
X230.173Y-183.345
X234.935Y-97.625
X234.935Y-145.247
X239.697Y-164.296
X244.46Y-126.198
X246.841Y-202.393
X249.222Y-183.345
X253.984Y-145.247
X258.746Y-164.296
X263.508Y-97.625
X263.508Y-126.198
X268.271Y-183.345
X270.652Y-202.393
X273.033Y-145.247
X277.795Y-164.296
X282.557Y-97.625
X282.557Y-126.198
X292.049Y-191.585
X292.082Y-145.247
X294.463Y-202.393
X296.811Y-172.536
X299.192Y-134.438
X301.606Y-97.625
X303.987Y-183.345
X308.749Y-164.296
X311.13Y-126.198
X315.893Y-145.247
X315.925Y-191.585
X318.274Y-202.393
X320.655Y-97.625
X320.687Y-172.536
X323.068Y-134.438
X349.228Y-97.625
X349.228Y-126.198
X349.228Y-145.247
X349.228Y-202.393
X368.277Y-126.198
X368.277Y-145.247
X368.277Y-183.345
X368.277Y-202.393
X387.326Y-126.198
X387.326Y-145.247
X387.326Y-202.393
T0
M30
