%TF.GenerationSoftware,KiCad,Pcbnew,(5.1.10)-1*%
%TF.CreationDate,2021-12-21T18:50:33-05:00*%
%TF.ProjectId,custom_keyboard (f303),63757374-6f6d-45f6-9b65-79626f617264,rev?*%
%TF.SameCoordinates,Original*%
%TF.FileFunction,Soldermask,Top*%
%TF.FilePolarity,Negative*%
%FSLAX46Y46*%
G04 Gerber Fmt 4.6, Leading zero omitted, Abs format (unit mm)*
G04 Created by KiCad (PCBNEW (5.1.10)-1) date 2021-12-21 18:50:33*
%MOMM*%
%LPD*%
G01*
G04 APERTURE LIST*
%ADD10C,1.000000*%
%ADD11C,3.000000*%
%ADD12C,1.750000*%
%ADD13C,4.000000*%
%ADD14C,3.050000*%
%ADD15O,1.700000X1.700000*%
%ADD16R,1.700000X1.700000*%
%ADD17C,2.100000*%
%ADD18C,0.650000*%
%ADD19O,1.000000X2.100000*%
%ADD20O,1.000000X1.600000*%
%ADD21R,2.000000X2.000000*%
%ADD22C,2.000000*%
%ADD23R,2.000000X3.200000*%
%ADD24C,0.800000*%
G04 APERTURE END LIST*
D10*
%TO.C,COL15*%
X342084700Y-120245550D03*
%TD*%
%TO.C,COL1*%
X46034600Y-119848700D03*
%TD*%
D11*
%TO.C,MX90*%
X389865600Y-197313500D03*
X383515600Y-199853500D03*
D12*
X392405600Y-202393500D03*
X382245600Y-202393500D03*
D13*
X387325600Y-202393500D03*
%TD*%
D11*
%TO.C,MX89*%
X370816800Y-197313500D03*
X364466800Y-199853500D03*
D12*
X373356800Y-202393500D03*
X363196800Y-202393500D03*
D13*
X368276800Y-202393500D03*
%TD*%
D11*
%TO.C,MX88*%
X351768000Y-197313500D03*
X345418000Y-199853500D03*
D12*
X354308000Y-202393500D03*
X344148000Y-202393500D03*
D13*
X349228000Y-202393500D03*
%TD*%
D11*
%TO.C,MX87*%
X320813700Y-197313500D03*
X314463700Y-199853500D03*
D12*
X323353700Y-202393500D03*
X313193700Y-202393500D03*
D13*
X318273700Y-202393500D03*
%TD*%
D11*
%TO.C,MX86*%
X297002700Y-197313500D03*
X290652700Y-199853500D03*
D12*
X299542700Y-202393500D03*
X289382700Y-202393500D03*
D13*
X294462700Y-202393500D03*
%TD*%
D11*
%TO.C,MX85*%
X273191700Y-197313500D03*
X266841700Y-199853500D03*
D12*
X275731700Y-202393500D03*
X265571700Y-202393500D03*
D13*
X270651700Y-202393500D03*
%TD*%
D11*
%TO.C,MX84*%
X249380700Y-197313500D03*
X243030700Y-199853500D03*
D12*
X251920700Y-202393500D03*
X241760700Y-202393500D03*
D13*
X246840700Y-202393500D03*
%TD*%
D14*
%TO.C,MX83*%
X225407700Y-195393500D03*
D13*
X225407700Y-210633500D03*
X125407700Y-210633500D03*
D14*
X125407700Y-195393500D03*
D11*
X177947700Y-197313500D03*
X171597700Y-199853500D03*
D12*
X180487700Y-202393500D03*
X170327700Y-202393500D03*
D13*
X175407700Y-202393500D03*
%TD*%
D11*
%TO.C,MX82*%
X106514700Y-197313500D03*
X100164700Y-199853500D03*
D12*
X109054700Y-202393500D03*
X98894700Y-202393500D03*
D13*
X103974700Y-202393500D03*
%TD*%
D11*
%TO.C,MX81*%
X82703700Y-197313500D03*
X76353700Y-199853500D03*
D12*
X85243700Y-202393500D03*
X75083700Y-202393500D03*
D13*
X80163700Y-202393500D03*
%TD*%
D11*
%TO.C,MX80*%
X58892700Y-197313500D03*
X52542700Y-199853500D03*
D12*
X61432700Y-202393500D03*
X51272700Y-202393500D03*
D13*
X56352700Y-202393500D03*
%TD*%
D11*
%TO.C,MX79*%
X32700600Y-197313500D03*
X26350600Y-199853500D03*
D12*
X35240600Y-202393500D03*
X25080600Y-202393500D03*
D13*
X30160600Y-202393500D03*
%TD*%
D11*
%TO.C,MX78*%
X370816800Y-178264700D03*
X364466800Y-180804700D03*
D12*
X373356800Y-183344700D03*
X363196800Y-183344700D03*
D13*
X368276800Y-183344700D03*
%TD*%
D14*
%TO.C,MX77*%
X315925100Y-176344700D03*
D13*
X315925100Y-191584700D03*
X292049100Y-191584700D03*
D14*
X292049100Y-176344700D03*
D11*
X306527100Y-178264700D03*
X300177100Y-180804700D03*
D12*
X309067100Y-183344700D03*
X298907100Y-183344700D03*
D13*
X303987100Y-183344700D03*
%TD*%
D11*
%TO.C,MX76*%
X270810600Y-178264700D03*
X264460600Y-180804700D03*
D12*
X273350600Y-183344700D03*
X263190600Y-183344700D03*
D13*
X268270600Y-183344700D03*
%TD*%
D11*
%TO.C,MX75*%
X251761800Y-178264700D03*
X245411800Y-180804700D03*
D12*
X254301800Y-183344700D03*
X244141800Y-183344700D03*
D13*
X249221800Y-183344700D03*
%TD*%
D11*
%TO.C,MX74*%
X232713000Y-178264700D03*
X226363000Y-180804700D03*
D12*
X235253000Y-183344700D03*
X225093000Y-183344700D03*
D13*
X230173000Y-183344700D03*
%TD*%
D11*
%TO.C,MX73*%
X213664200Y-178264700D03*
X207314200Y-180804700D03*
D12*
X216204200Y-183344700D03*
X206044200Y-183344700D03*
D13*
X211124200Y-183344700D03*
%TD*%
D11*
%TO.C,MX72*%
X194615400Y-178264700D03*
X188265400Y-180804700D03*
D12*
X197155400Y-183344700D03*
X186995400Y-183344700D03*
D13*
X192075400Y-183344700D03*
%TD*%
D11*
%TO.C,MX71*%
X175566600Y-178264700D03*
X169216600Y-180804700D03*
D12*
X178106600Y-183344700D03*
X167946600Y-183344700D03*
D13*
X173026600Y-183344700D03*
%TD*%
D11*
%TO.C,MX70*%
X156517800Y-178264700D03*
X150167800Y-180804700D03*
D12*
X159057800Y-183344700D03*
X148897800Y-183344700D03*
D13*
X153977800Y-183344700D03*
%TD*%
D11*
%TO.C,MX69*%
X137469000Y-178264700D03*
X131119000Y-180804700D03*
D12*
X140009000Y-183344700D03*
X129849000Y-183344700D03*
D13*
X134929000Y-183344700D03*
%TD*%
D11*
%TO.C,MX68*%
X118420200Y-178264700D03*
X112070200Y-180804700D03*
D12*
X120960200Y-183344700D03*
X110800200Y-183344700D03*
D13*
X115880200Y-183344700D03*
%TD*%
D11*
%TO.C,MX67*%
X99371400Y-178264700D03*
X93021400Y-180804700D03*
D12*
X101911400Y-183344700D03*
X91751400Y-183344700D03*
D13*
X96831400Y-183344700D03*
%TD*%
D14*
%TO.C,MX66*%
X77815100Y-176344700D03*
D13*
X77815100Y-191584700D03*
X53939100Y-191584700D03*
D14*
X53939100Y-176344700D03*
D11*
X68417100Y-178264700D03*
X62067100Y-180804700D03*
D12*
X70957100Y-183344700D03*
X60797100Y-183344700D03*
D13*
X65877100Y-183344700D03*
%TD*%
D11*
%TO.C,MX65*%
X32700600Y-178264700D03*
X26350600Y-180804700D03*
D12*
X35240600Y-183344700D03*
X25080600Y-183344700D03*
D13*
X30160600Y-183344700D03*
%TD*%
D14*
%TO.C,MX64*%
X320687300Y-157295900D03*
D13*
X320687300Y-172535900D03*
X296811300Y-172535900D03*
D14*
X296811300Y-157295900D03*
D11*
X311289300Y-159215900D03*
X304939300Y-161755900D03*
D12*
X313829300Y-164295900D03*
X303669300Y-164295900D03*
D13*
X308749300Y-164295900D03*
%TD*%
D11*
%TO.C,MX63*%
X280335000Y-159215900D03*
X273985000Y-161755900D03*
D12*
X282875000Y-164295900D03*
X272715000Y-164295900D03*
D13*
X277795000Y-164295900D03*
%TD*%
D11*
%TO.C,MX62*%
X261286200Y-159215900D03*
X254936200Y-161755900D03*
D12*
X263826200Y-164295900D03*
X253666200Y-164295900D03*
D13*
X258746200Y-164295900D03*
%TD*%
D11*
%TO.C,MX61*%
X242237400Y-159215900D03*
X235887400Y-161755900D03*
D12*
X244777400Y-164295900D03*
X234617400Y-164295900D03*
D13*
X239697400Y-164295900D03*
%TD*%
D11*
%TO.C,MX60*%
X223188600Y-159215900D03*
X216838600Y-161755900D03*
D12*
X225728600Y-164295900D03*
X215568600Y-164295900D03*
D13*
X220648600Y-164295900D03*
%TD*%
D11*
%TO.C,MX59*%
X204139800Y-159215900D03*
X197789800Y-161755900D03*
D12*
X206679800Y-164295900D03*
X196519800Y-164295900D03*
D13*
X201599800Y-164295900D03*
%TD*%
D11*
%TO.C,MX58*%
X185091000Y-159215900D03*
X178741000Y-161755900D03*
D12*
X187631000Y-164295900D03*
X177471000Y-164295900D03*
D13*
X182551000Y-164295900D03*
%TD*%
D11*
%TO.C,MX57*%
X166042200Y-159215900D03*
X159692200Y-161755900D03*
D12*
X168582200Y-164295900D03*
X158422200Y-164295900D03*
D13*
X163502200Y-164295900D03*
%TD*%
D11*
%TO.C,MX56*%
X146993400Y-159215900D03*
X140643400Y-161755900D03*
D12*
X149533400Y-164295900D03*
X139373400Y-164295900D03*
D13*
X144453400Y-164295900D03*
%TD*%
D11*
%TO.C,MX55*%
X127944600Y-159215900D03*
X121594600Y-161755900D03*
D12*
X130484600Y-164295900D03*
X120324600Y-164295900D03*
D13*
X125404600Y-164295900D03*
%TD*%
D11*
%TO.C,MX54*%
X108895800Y-159215900D03*
X102545800Y-161755900D03*
D12*
X111435800Y-164295900D03*
X101275800Y-164295900D03*
D13*
X106355800Y-164295900D03*
%TD*%
D11*
%TO.C,MX53*%
X89788700Y-159215900D03*
X83438700Y-161755900D03*
D12*
X92328700Y-164295900D03*
X82168700Y-164295900D03*
D13*
X87248700Y-164295900D03*
%TD*%
D11*
%TO.C,MX52*%
X63654900Y-159215900D03*
X57304900Y-161755900D03*
D12*
X66194900Y-164295900D03*
X56034900Y-164295900D03*
D13*
X61114900Y-164295900D03*
%TD*%
D11*
%TO.C,MX51*%
X32700600Y-159215900D03*
X26350600Y-161755900D03*
D12*
X35240600Y-164295900D03*
X25080600Y-164295900D03*
D13*
X30160600Y-164295900D03*
%TD*%
D11*
%TO.C,MX50*%
X389865600Y-140167100D03*
X383515600Y-142707100D03*
D12*
X392405600Y-145247100D03*
X382245600Y-145247100D03*
D13*
X387325600Y-145247100D03*
%TD*%
D11*
%TO.C,MX49*%
X370816800Y-140167100D03*
X364466800Y-142707100D03*
D12*
X373356800Y-145247100D03*
X363196800Y-145247100D03*
D13*
X368276800Y-145247100D03*
%TD*%
D11*
%TO.C,MX48*%
X351768000Y-140167100D03*
X345418000Y-142707100D03*
D12*
X354308000Y-145247100D03*
X344148000Y-145247100D03*
D13*
X349228000Y-145247100D03*
%TD*%
D11*
%TO.C,MX47*%
X318432600Y-140167100D03*
X312082600Y-142707100D03*
D12*
X320972600Y-145247100D03*
X310812600Y-145247100D03*
D13*
X315892600Y-145247100D03*
%TD*%
D11*
%TO.C,MX46*%
X294621600Y-140167100D03*
X288271600Y-142707100D03*
D12*
X297161600Y-145247100D03*
X287001600Y-145247100D03*
D13*
X292081600Y-145247100D03*
%TD*%
D11*
%TO.C,MX45*%
X275572800Y-140167100D03*
X269222800Y-142707100D03*
D12*
X278112800Y-145247100D03*
X267952800Y-145247100D03*
D13*
X273032800Y-145247100D03*
%TD*%
D11*
%TO.C,MX44*%
X256524000Y-140167100D03*
X250174000Y-142707100D03*
D12*
X259064000Y-145247100D03*
X248904000Y-145247100D03*
D13*
X253984000Y-145247100D03*
%TD*%
D11*
%TO.C,MX43*%
X237475200Y-140167100D03*
X231125200Y-142707100D03*
D12*
X240015200Y-145247100D03*
X229855200Y-145247100D03*
D13*
X234935200Y-145247100D03*
%TD*%
D11*
%TO.C,MX42*%
X218426400Y-140167100D03*
X212076400Y-142707100D03*
D12*
X220966400Y-145247100D03*
X210806400Y-145247100D03*
D13*
X215886400Y-145247100D03*
%TD*%
D11*
%TO.C,MX41*%
X199377600Y-140167100D03*
X193027600Y-142707100D03*
D12*
X201917600Y-145247100D03*
X191757600Y-145247100D03*
D13*
X196837600Y-145247100D03*
%TD*%
D11*
%TO.C,MX40*%
X180328800Y-140167100D03*
X173978800Y-142707100D03*
D12*
X182868800Y-145247100D03*
X172708800Y-145247100D03*
D13*
X177788800Y-145247100D03*
%TD*%
D11*
%TO.C,MX39*%
X161280000Y-140167100D03*
X154930000Y-142707100D03*
D12*
X163820000Y-145247100D03*
X153660000Y-145247100D03*
D13*
X158740000Y-145247100D03*
%TD*%
D11*
%TO.C,MX38*%
X142231200Y-140167100D03*
X135881200Y-142707100D03*
D12*
X144771200Y-145247100D03*
X134611200Y-145247100D03*
D13*
X139691200Y-145247100D03*
%TD*%
D11*
%TO.C,MX37*%
X123182400Y-140167100D03*
X116832400Y-142707100D03*
D12*
X125722400Y-145247100D03*
X115562400Y-145247100D03*
D13*
X120642400Y-145247100D03*
%TD*%
D11*
%TO.C,MX36*%
X104133600Y-140167100D03*
X97783600Y-142707100D03*
D12*
X106673600Y-145247100D03*
X96513600Y-145247100D03*
D13*
X101593600Y-145247100D03*
%TD*%
D11*
%TO.C,MX35*%
X85084800Y-140167100D03*
X78734800Y-142707100D03*
D12*
X87624800Y-145247100D03*
X77464800Y-145247100D03*
D13*
X82544800Y-145247100D03*
%TD*%
D11*
%TO.C,MX34*%
X61273800Y-140167100D03*
X54923800Y-142707100D03*
D12*
X63813800Y-145247100D03*
X53653800Y-145247100D03*
D13*
X58733800Y-145247100D03*
%TD*%
D11*
%TO.C,MX33*%
X32700600Y-140167100D03*
X26350600Y-142707100D03*
D12*
X35240600Y-145247100D03*
X25080600Y-145247100D03*
D13*
X30160600Y-145247100D03*
%TD*%
D11*
%TO.C,MX32*%
X389865600Y-121118300D03*
X383515600Y-123658300D03*
D12*
X392405600Y-126198300D03*
X382245600Y-126198300D03*
D13*
X387325600Y-126198300D03*
%TD*%
D11*
%TO.C,MX31*%
X370816800Y-121118300D03*
X364466800Y-123658300D03*
D12*
X373356800Y-126198300D03*
X363196800Y-126198300D03*
D13*
X368276800Y-126198300D03*
%TD*%
D11*
%TO.C,MX30*%
X351768000Y-121118300D03*
X345418000Y-123658300D03*
D12*
X354308000Y-126198300D03*
X344148000Y-126198300D03*
D13*
X349228000Y-126198300D03*
%TD*%
D14*
%TO.C,MX29*%
X323068400Y-119198300D03*
D13*
X323068400Y-134438300D03*
X299192400Y-134438300D03*
D14*
X299192400Y-119198300D03*
D11*
X313670400Y-121118300D03*
X307320400Y-123658300D03*
D12*
X316210400Y-126198300D03*
X306050400Y-126198300D03*
D13*
X311130400Y-126198300D03*
%TD*%
D11*
%TO.C,MX28*%
X285097200Y-121118300D03*
X278747200Y-123658300D03*
D12*
X287637200Y-126198300D03*
X277477200Y-126198300D03*
D13*
X282557200Y-126198300D03*
%TD*%
D11*
%TO.C,MX27*%
X266048400Y-121118300D03*
X259698400Y-123658300D03*
D12*
X268588400Y-126198300D03*
X258428400Y-126198300D03*
D13*
X263508400Y-126198300D03*
%TD*%
D11*
%TO.C,MX26*%
X246999600Y-121118300D03*
X240649600Y-123658300D03*
D12*
X249539600Y-126198300D03*
X239379600Y-126198300D03*
D13*
X244459600Y-126198300D03*
%TD*%
D11*
%TO.C,MX25*%
X227950800Y-121118300D03*
X221600800Y-123658300D03*
D12*
X230490800Y-126198300D03*
X220330800Y-126198300D03*
D13*
X225410800Y-126198300D03*
%TD*%
D11*
%TO.C,MX24*%
X208902000Y-121118300D03*
X202552000Y-123658300D03*
D12*
X211442000Y-126198300D03*
X201282000Y-126198300D03*
D13*
X206362000Y-126198300D03*
%TD*%
D11*
%TO.C,MX23*%
X189853200Y-121118300D03*
X183503200Y-123658300D03*
D12*
X192393200Y-126198300D03*
X182233200Y-126198300D03*
D13*
X187313200Y-126198300D03*
%TD*%
D11*
%TO.C,MX22*%
X170804400Y-121118300D03*
X164454400Y-123658300D03*
D12*
X173344400Y-126198300D03*
X163184400Y-126198300D03*
D13*
X168264400Y-126198300D03*
%TD*%
D11*
%TO.C,MX21*%
X151755600Y-121118300D03*
X145405600Y-123658300D03*
D12*
X154295600Y-126198300D03*
X144135600Y-126198300D03*
D13*
X149215600Y-126198300D03*
%TD*%
D11*
%TO.C,MX20*%
X132706800Y-121118300D03*
X126356800Y-123658300D03*
D12*
X135246800Y-126198300D03*
X125086800Y-126198300D03*
D13*
X130166800Y-126198300D03*
%TD*%
D11*
%TO.C,MX19*%
X113658000Y-121118300D03*
X107308000Y-123658300D03*
D12*
X116198000Y-126198300D03*
X106038000Y-126198300D03*
D13*
X111118000Y-126198300D03*
%TD*%
D11*
%TO.C,MX18*%
X94609200Y-121118300D03*
X88259200Y-123658300D03*
D12*
X97149200Y-126198300D03*
X86989200Y-126198300D03*
D13*
X92069200Y-126198300D03*
%TD*%
D11*
%TO.C,MX17*%
X75560400Y-121118300D03*
X69210400Y-123658300D03*
D12*
X78100400Y-126198300D03*
X67940400Y-126198300D03*
D13*
X73020400Y-126198300D03*
%TD*%
D11*
%TO.C,MX16*%
X56511600Y-121118300D03*
X50161600Y-123658300D03*
D12*
X59051600Y-126198300D03*
X48891600Y-126198300D03*
D13*
X53971600Y-126198300D03*
%TD*%
D11*
%TO.C,MX15*%
X32700600Y-121118300D03*
X26350600Y-123658300D03*
D12*
X35240600Y-126198300D03*
X25080600Y-126198300D03*
D13*
X30160600Y-126198300D03*
%TD*%
D11*
%TO.C,MX14*%
X351768000Y-92545100D03*
X345418000Y-95085100D03*
D12*
X354308000Y-97625100D03*
X344148000Y-97625100D03*
D13*
X349228000Y-97625100D03*
%TD*%
D11*
%TO.C,MX13*%
X323194800Y-92545100D03*
X316844800Y-95085100D03*
D12*
X325734800Y-97625100D03*
X315574800Y-97625100D03*
D13*
X320654800Y-97625100D03*
%TD*%
D11*
%TO.C,MX12*%
X304146000Y-92545100D03*
X297796000Y-95085100D03*
D12*
X306686000Y-97625100D03*
X296526000Y-97625100D03*
D13*
X301606000Y-97625100D03*
%TD*%
D11*
%TO.C,MX11*%
X285097200Y-92545100D03*
X278747200Y-95085100D03*
D12*
X287637200Y-97625100D03*
X277477200Y-97625100D03*
D13*
X282557200Y-97625100D03*
%TD*%
D11*
%TO.C,MX10*%
X266048400Y-92545100D03*
X259698400Y-95085100D03*
D12*
X268588400Y-97625100D03*
X258428400Y-97625100D03*
D13*
X263508400Y-97625100D03*
%TD*%
D11*
%TO.C,MX9*%
X237475200Y-92545100D03*
X231125200Y-95085100D03*
D12*
X240015200Y-97625100D03*
X229855200Y-97625100D03*
D13*
X234935200Y-97625100D03*
%TD*%
D11*
%TO.C,MX8*%
X218426400Y-92545100D03*
X212076400Y-95085100D03*
D12*
X220966400Y-97625100D03*
X210806400Y-97625100D03*
D13*
X215886400Y-97625100D03*
%TD*%
D11*
%TO.C,MX7*%
X199377600Y-92545100D03*
X193027600Y-95085100D03*
D12*
X201917600Y-97625100D03*
X191757600Y-97625100D03*
D13*
X196837600Y-97625100D03*
%TD*%
D11*
%TO.C,MX6*%
X180328800Y-92545100D03*
X173978800Y-95085100D03*
D12*
X182868800Y-97625100D03*
X172708800Y-97625100D03*
D13*
X177788800Y-97625100D03*
%TD*%
D11*
%TO.C,MX5*%
X151755600Y-92545100D03*
X145405600Y-95085100D03*
D12*
X154295600Y-97625100D03*
X144135600Y-97625100D03*
D13*
X149215600Y-97625100D03*
%TD*%
D11*
%TO.C,MX4*%
X132706800Y-92545100D03*
X126356800Y-95085100D03*
D12*
X135246800Y-97625100D03*
X125086800Y-97625100D03*
D13*
X130166800Y-97625100D03*
%TD*%
D11*
%TO.C,MX3*%
X113658000Y-92545100D03*
X107308000Y-95085100D03*
D12*
X116198000Y-97625100D03*
X106038000Y-97625100D03*
D13*
X111118000Y-97625100D03*
%TD*%
D11*
%TO.C,MX2*%
X94609200Y-92545100D03*
X88259200Y-95085100D03*
D12*
X97149200Y-97625100D03*
X86989200Y-97625100D03*
D13*
X92069200Y-97625100D03*
%TD*%
D11*
%TO.C,MX1*%
X56511600Y-92545100D03*
X50161600Y-95085100D03*
D12*
X59051600Y-97625100D03*
X48891600Y-97625100D03*
D13*
X53971600Y-97625100D03*
%TD*%
D15*
%TO.C,J3*%
X233823700Y-108736900D03*
X236363700Y-108736900D03*
D16*
X238903700Y-108736900D03*
%TD*%
D10*
%TO.C,RST1*%
X366689400Y-161914800D03*
%TD*%
D17*
%TO.C,LED64*%
X308749300Y-169370900D03*
%TD*%
%TO.C,LED63*%
X277795000Y-169370900D03*
%TD*%
%TO.C,LED62*%
X258746200Y-169370900D03*
%TD*%
%TO.C,LED61*%
X239697400Y-169370900D03*
%TD*%
%TO.C,LED60*%
X220648600Y-169370900D03*
%TD*%
%TO.C,LED59*%
X201599800Y-169370900D03*
%TD*%
%TO.C,LED58*%
X182551000Y-169370900D03*
%TD*%
%TO.C,LED57*%
X163502200Y-169370900D03*
%TD*%
%TO.C,LED56*%
X144453400Y-169370900D03*
%TD*%
%TO.C,LED55*%
X125404600Y-169370900D03*
%TD*%
%TO.C,LED54*%
X106355800Y-169370900D03*
%TD*%
%TO.C,LED53*%
X87307000Y-169370900D03*
%TD*%
%TO.C,LED52*%
X61114900Y-169370900D03*
%TD*%
%TO.C,LED51*%
X30160600Y-169370900D03*
%TD*%
%TO.C,LED50*%
X58733800Y-150322100D03*
%TD*%
%TO.C,LED49*%
X30160600Y-150322100D03*
%TD*%
%TO.C,LED90*%
X103974700Y-207468500D03*
%TD*%
%TO.C,LED89*%
X175407700Y-207468500D03*
%TD*%
%TO.C,LED88*%
X318273700Y-207468500D03*
%TD*%
%TO.C,LED87*%
X294462700Y-207468500D03*
%TD*%
%TO.C,LED86*%
X270651700Y-207468500D03*
%TD*%
%TO.C,LED85*%
X246840700Y-207468500D03*
%TD*%
%TO.C,LED84*%
X349228000Y-207468500D03*
%TD*%
%TO.C,LED83*%
X368276800Y-207468500D03*
%TD*%
%TO.C,LED82*%
X368276800Y-188419700D03*
%TD*%
%TO.C,LED81*%
X387325600Y-207468500D03*
%TD*%
%TO.C,LED32*%
X73020400Y-131273300D03*
%TD*%
%TO.C,LED31*%
X92069200Y-131273300D03*
%TD*%
%TO.C,LED30*%
X111118000Y-131273300D03*
%TD*%
%TO.C,LED29*%
X130166800Y-131273300D03*
%TD*%
%TO.C,LED28*%
X149215600Y-131273300D03*
%TD*%
%TO.C,LED27*%
X168264400Y-131273300D03*
%TD*%
%TO.C,LED26*%
X187313200Y-131273300D03*
%TD*%
%TO.C,LED25*%
X206362000Y-131273300D03*
%TD*%
%TO.C,LED24*%
X225410800Y-131273300D03*
%TD*%
%TO.C,LED23*%
X244459600Y-131273300D03*
%TD*%
%TO.C,LED22*%
X263508400Y-131273300D03*
%TD*%
%TO.C,LED21*%
X282557200Y-131273300D03*
%TD*%
%TO.C,LED20*%
X311130400Y-131273300D03*
%TD*%
%TO.C,LED19*%
X349228000Y-131273300D03*
%TD*%
%TO.C,LED18*%
X368276800Y-131273300D03*
%TD*%
%TO.C,LED17*%
X387325600Y-131273300D03*
%TD*%
D10*
%TO.C,COL13*%
X274620200Y-119848700D03*
%TD*%
D17*
%TO.C,LED1*%
X30160600Y-131273300D03*
%TD*%
%TO.C,LED2*%
X53971600Y-131273300D03*
%TD*%
%TO.C,LED80*%
X303987100Y-188419700D03*
%TD*%
%TO.C,LED79*%
X268270600Y-188419700D03*
%TD*%
%TO.C,LED78*%
X249221800Y-188419700D03*
%TD*%
%TO.C,LED77*%
X230173000Y-188419700D03*
%TD*%
%TO.C,LED76*%
X211124200Y-188419700D03*
%TD*%
%TO.C,LED75*%
X192075400Y-188419700D03*
%TD*%
%TO.C,LED74*%
X173026600Y-188419700D03*
%TD*%
%TO.C,LED73*%
X153977800Y-188419700D03*
%TD*%
%TO.C,LED72*%
X134929000Y-188419700D03*
%TD*%
%TO.C,LED71*%
X115880200Y-188419700D03*
%TD*%
%TO.C,LED70*%
X96831400Y-188419700D03*
%TD*%
%TO.C,LED69*%
X65877100Y-188419700D03*
%TD*%
%TO.C,LED68*%
X30160600Y-188419700D03*
%TD*%
%TO.C,LED67*%
X80163700Y-207468500D03*
%TD*%
%TO.C,LED66*%
X56352700Y-207468500D03*
%TD*%
%TO.C,LED65*%
X30160600Y-207468500D03*
%TD*%
%TO.C,LED48*%
X387325600Y-150322100D03*
%TD*%
%TO.C,LED47*%
X368276800Y-150322100D03*
%TD*%
%TO.C,LED46*%
X349228000Y-150322100D03*
%TD*%
%TO.C,LED45*%
X315892600Y-150322100D03*
%TD*%
%TO.C,LED44*%
X292081600Y-150322100D03*
%TD*%
%TO.C,LED43*%
X273032800Y-150322100D03*
%TD*%
%TO.C,LED42*%
X253984000Y-150322100D03*
%TD*%
%TO.C,LED41*%
X234935200Y-150322100D03*
%TD*%
%TO.C,LED40*%
X215886400Y-150322100D03*
%TD*%
%TO.C,LED39*%
X196837600Y-150322100D03*
%TD*%
%TO.C,LED38*%
X177788800Y-150322100D03*
%TD*%
%TO.C,LED37*%
X158740000Y-150322100D03*
%TD*%
%TO.C,LED36*%
X139691200Y-150322100D03*
%TD*%
%TO.C,LED35*%
X120642400Y-150322100D03*
%TD*%
%TO.C,LED34*%
X101593600Y-150322100D03*
%TD*%
%TO.C,LED33*%
X82544800Y-150322100D03*
%TD*%
%TO.C,LED16*%
X349228000Y-102700100D03*
%TD*%
%TO.C,LED15*%
X320654800Y-102700100D03*
%TD*%
%TO.C,LED14*%
X301606000Y-102700100D03*
%TD*%
%TO.C,LED13*%
X282557200Y-102700100D03*
%TD*%
%TO.C,LED12*%
X263508400Y-102700100D03*
%TD*%
%TO.C,LED11*%
X234935200Y-102700100D03*
%TD*%
%TO.C,LED10*%
X215886400Y-102700100D03*
%TD*%
%TO.C,LED9*%
X196837600Y-102700100D03*
%TD*%
%TO.C,LED8*%
X177788800Y-102700100D03*
%TD*%
%TO.C,LED7*%
X149215600Y-102700100D03*
%TD*%
%TO.C,LED6*%
X130166800Y-102700100D03*
%TD*%
%TO.C,LED5*%
X111118000Y-102700100D03*
%TD*%
%TO.C,LED4*%
X92069200Y-102700100D03*
%TD*%
%TO.C,LED3*%
X53971600Y-102700100D03*
%TD*%
D18*
%TO.C,USB1*%
X252111800Y-84032600D03*
X246331800Y-84032600D03*
D19*
X244901800Y-84562600D03*
X253541800Y-84562600D03*
D20*
X244901800Y-80382600D03*
X253541800Y-80382600D03*
%TD*%
D10*
%TO.C,ENCB1*%
X341291000Y-179773050D03*
%TD*%
%TO.C,X2*%
X349228000Y-185725800D03*
%TD*%
%TO.C,X1*%
X352402800Y-185725800D03*
%TD*%
D15*
%TO.C,J1*%
X361133500Y-171122200D03*
X361133500Y-168582200D03*
X361133500Y-166042200D03*
D16*
X361133500Y-163502200D03*
%TD*%
D10*
%TO.C,ENCB2*%
X336528800Y-177788800D03*
%TD*%
%TO.C,ENCA1*%
X338909900Y-179376200D03*
%TD*%
%TO.C,BOOT1*%
X338116200Y-170645500D03*
%TD*%
%TO.C,BOOT0*%
X380976000Y-173820300D03*
%TD*%
D21*
%TO.C,ROT2*%
X389706700Y-90084950D03*
D22*
X387206700Y-90084950D03*
X384706700Y-90084950D03*
D23*
X392806700Y-97584950D03*
X381606700Y-97584950D03*
D22*
X389706700Y-104584950D03*
X384706700Y-104584950D03*
%TD*%
D10*
%TO.C,COL2*%
X65083400Y-119848700D03*
%TD*%
%TO.C,COL14*%
X303193400Y-119848700D03*
%TD*%
%TO.C,A10*%
X349228000Y-166677000D03*
%TD*%
%TO.C,COL11*%
X236522600Y-119848700D03*
%TD*%
%TO.C,COL10*%
X217473800Y-119848700D03*
%TD*%
%TO.C,COL9*%
X198425000Y-119848700D03*
%TD*%
%TO.C,COL8*%
X179376200Y-119848700D03*
%TD*%
%TO.C,COL7*%
X160327400Y-119848700D03*
%TD*%
%TO.C,COL6*%
X141278600Y-119848700D03*
%TD*%
%TO.C,COL5*%
X122229800Y-119848700D03*
%TD*%
%TO.C,COL4*%
X103181000Y-119848700D03*
%TD*%
%TO.C,COL17*%
X379388600Y-120642400D03*
%TD*%
%TO.C,COL16*%
X360339800Y-120642400D03*
%TD*%
%TO.C,ROW0*%
X42859800Y-100799900D03*
%TD*%
%TO.C,ROW1*%
X42859800Y-129373100D03*
%TD*%
%TO.C,ROW2*%
X42859800Y-148421900D03*
%TD*%
%TO.C,ROW3*%
X42859800Y-167470700D03*
%TD*%
%TO.C,ROW4*%
X42859800Y-186519500D03*
%TD*%
%TO.C,ROW5*%
X42859800Y-205568300D03*
%TD*%
%TO.C,COL0*%
X22223600Y-119848700D03*
%TD*%
%TO.C,COL3*%
X84132200Y-119848700D03*
%TD*%
%TO.C,COL12*%
X255571400Y-119848700D03*
%TD*%
D21*
%TO.C,ROT1*%
X32541700Y-90084950D03*
D22*
X30041700Y-90084950D03*
X27541700Y-90084950D03*
D23*
X35641700Y-97584950D03*
X24441700Y-97584950D03*
D22*
X32541700Y-104584950D03*
X27541700Y-104584950D03*
%TD*%
D24*
X350815400Y-190488000D03*
X395262600Y-148421900D03*
X91275500Y-120642400D03*
X110324300Y-120642400D03*
X129373100Y-120642400D03*
X148421900Y-120642400D03*
X167470700Y-120642400D03*
X186519500Y-120642400D03*
X205568300Y-120642400D03*
X224617100Y-120642400D03*
X243665900Y-120642400D03*
X262714700Y-120642400D03*
X253984000Y-121436100D03*
X234935200Y-121436100D03*
X215886400Y-121436100D03*
X196837600Y-121436100D03*
X177788800Y-121436100D03*
X158740000Y-121436100D03*
X139691200Y-121436100D03*
X120642400Y-121436100D03*
X101593600Y-122229800D03*
X82544800Y-121436100D03*
X63496000Y-121436100D03*
X44447200Y-121436100D03*
X261921000Y-91275500D03*
X343672100Y-188106900D03*
X357958700Y-188106900D03*
X73020400Y-140484900D03*
X92069200Y-140484900D03*
X111118000Y-140484900D03*
X130166800Y-140484900D03*
X149215600Y-140484900D03*
X168264400Y-140484900D03*
X187313200Y-140484900D03*
X206362000Y-140484900D03*
X225410800Y-140484900D03*
X244459600Y-140484900D03*
X263508400Y-140484900D03*
X282557200Y-140484900D03*
X306368200Y-140484900D03*
X268270600Y-159533700D03*
X299224900Y-159533700D03*
X249221800Y-159533700D03*
X230173000Y-159533700D03*
X211124200Y-159533700D03*
X192075400Y-159533700D03*
X173026600Y-159533700D03*
X153977800Y-159533700D03*
X134929000Y-159533700D03*
X115880200Y-159533700D03*
X96831400Y-159533700D03*
X77782600Y-159533700D03*
X51590500Y-159533700D03*
X44447200Y-92862900D03*
X82544800Y-92862900D03*
X101593600Y-92862900D03*
X120642400Y-92862900D03*
X139691200Y-92862900D03*
X168264400Y-92862900D03*
X187313200Y-92862900D03*
X206362000Y-92862900D03*
X225410800Y-92862900D03*
X273032800Y-92862900D03*
X292081600Y-92862900D03*
X311130400Y-92862900D03*
X339703600Y-92862900D03*
X358752400Y-121436100D03*
X300812300Y-121436100D03*
X46828300Y-197631300D03*
X70639300Y-197631300D03*
X56352700Y-178582500D03*
X94450300Y-197631300D03*
X85719600Y-176995100D03*
X106355800Y-178582500D03*
X125404600Y-178582500D03*
X144453400Y-178582500D03*
X165883300Y-197631300D03*
X163502200Y-178582500D03*
X182551000Y-178582500D03*
X201599800Y-178582500D03*
X220648600Y-178582500D03*
X239697400Y-178582500D03*
X237316300Y-197631300D03*
X258746200Y-178582500D03*
X261127300Y-197631300D03*
X284938300Y-197631300D03*
X308749300Y-197631300D03*
X294462700Y-182551000D03*
X339703600Y-197631300D03*
X358752400Y-197631300D03*
X377801200Y-197631300D03*
X49209400Y-140484900D03*
X125404600Y-199218700D03*
X221442300Y-199218700D03*
X323035900Y-122229800D03*
X346053200Y-127785700D03*
X339306750Y-146834500D03*
X336925650Y-146834500D03*
X325417000Y-155565200D03*
X320654800Y-164295900D03*
X376213800Y-96037700D03*
X65083400Y-92862900D03*
X60321200Y-116673900D03*
X79370000Y-116673900D03*
X98418800Y-116673900D03*
X117467600Y-116673900D03*
X136516400Y-116673900D03*
X155565200Y-116673900D03*
X174614000Y-116673900D03*
X193662800Y-116673900D03*
X212711600Y-116673900D03*
X73020400Y-108736900D03*
X92069200Y-108736900D03*
X111118000Y-108736900D03*
X130166800Y-108736900D03*
X149215600Y-108736900D03*
X168264400Y-108736900D03*
X187313200Y-108736900D03*
X206362000Y-108736900D03*
X387325600Y-111911700D03*
X349228000Y-111911700D03*
X325417000Y-107149500D03*
X332560300Y-107149500D03*
X325417000Y-109530600D03*
X331766600Y-109530600D03*
X336925650Y-153977800D03*
X358752400Y-140484900D03*
X377007500Y-139691200D03*
X365102000Y-184932100D03*
X341291000Y-188900600D03*
X347640600Y-174614000D03*
X350021700Y-172232900D03*
X350021700Y-176995100D03*
X352402800Y-174614000D03*
X300018600Y-148421900D03*
X323829600Y-148421900D03*
X357165000Y-148421900D03*
X376213800Y-148421900D03*
X280969800Y-148421900D03*
X261921000Y-148421900D03*
X242872200Y-148421900D03*
X223823400Y-148421900D03*
X204774600Y-148421900D03*
X185725800Y-148421900D03*
X166677000Y-148421900D03*
X147628200Y-148421900D03*
X128579400Y-148421900D03*
X109530600Y-148421900D03*
X90481800Y-148421900D03*
X66670800Y-148421900D03*
X38097600Y-148421900D03*
X38097600Y-167470700D03*
X95244000Y-167470700D03*
X114292800Y-167470700D03*
X133341600Y-167470700D03*
X152390400Y-167470700D03*
X171439200Y-167470700D03*
X190488000Y-167470700D03*
X209536800Y-167470700D03*
X228585600Y-167470700D03*
X247634400Y-167470700D03*
X266683200Y-167470700D03*
X285732000Y-167470700D03*
X316686300Y-167470700D03*
X311924100Y-186519500D03*
X376213800Y-186519500D03*
X376213800Y-205568300D03*
X357165000Y-205568300D03*
X326210700Y-205568300D03*
X302399700Y-205568300D03*
X278588700Y-205568300D03*
X254777700Y-205568300D03*
X257158800Y-186519500D03*
X238110000Y-186519500D03*
X219061200Y-186519500D03*
X200012400Y-186519500D03*
X180963600Y-186519500D03*
X183344700Y-205568300D03*
X161914800Y-186519500D03*
X142866000Y-186519500D03*
X123817200Y-186519500D03*
X111911700Y-205568300D03*
X104768400Y-186519500D03*
X73814100Y-186519500D03*
X88100700Y-205568300D03*
X64289700Y-205568300D03*
X38097600Y-186519500D03*
X38097600Y-205568300D03*
X366689400Y-177788800D03*
X377007500Y-178582500D03*
X377007500Y-161914800D03*
X342084700Y-160327400D03*
X342084700Y-152390400D03*
X222236000Y-211917900D03*
X228585600Y-211917900D03*
X122229800Y-211917900D03*
X128579400Y-211917900D03*
X257158800Y-109530600D03*
X270651700Y-109530600D03*
X263508400Y-109530600D03*
X270651700Y-107149500D03*
X263508400Y-107149500D03*
X289700500Y-109530600D03*
X289700500Y-107149500D03*
X282557200Y-107149500D03*
X282557200Y-109530600D03*
X310336700Y-109530600D03*
X315098900Y-109530600D03*
X310336700Y-107149500D03*
X315098900Y-107149500D03*
X395262600Y-159533700D03*
X309543000Y-100799900D03*
X290494200Y-100799900D03*
X328591800Y-100799900D03*
X250809200Y-107149500D03*
X247634400Y-107149500D03*
X250015500Y-109530600D03*
X271445400Y-100799900D03*
X242872200Y-100799900D03*
X223823400Y-100799900D03*
X204774600Y-100799900D03*
X185725800Y-100799900D03*
X157152600Y-100799900D03*
X138103800Y-100799900D03*
X119055000Y-100799900D03*
X100006200Y-100799900D03*
X61908600Y-100799900D03*
X273032800Y-121436100D03*
X26192100Y-113499100D03*
X61908600Y-129373100D03*
X336925650Y-114689650D03*
X339306750Y-113895950D03*
X357165000Y-129373100D03*
X373435850Y-130166800D03*
X343672100Y-130563650D03*
X319067400Y-129373100D03*
X290494200Y-129373100D03*
X305971350Y-130166800D03*
X271445400Y-129373100D03*
X252396600Y-129373100D03*
X233347800Y-129373100D03*
X214299000Y-129373100D03*
X195250200Y-129373100D03*
X176201400Y-129373100D03*
X157152600Y-129373100D03*
X138103800Y-129373100D03*
X119055000Y-129373100D03*
X100006200Y-129373100D03*
X80957400Y-129373100D03*
X296050100Y-134135300D03*
X302399700Y-134135300D03*
X365102000Y-107149500D03*
X365102000Y-113499100D03*
X369864200Y-107149500D03*
X369864200Y-113499100D03*
X339306750Y-134929000D03*
X336925650Y-134929000D03*
X377801200Y-122229800D03*
X357165000Y-100799900D03*
X376213800Y-112705400D03*
X280969800Y-184932100D03*
X287319400Y-184932100D03*
X383357100Y-171439200D03*
X306368200Y-149215600D03*
X336925650Y-149215600D03*
X291684750Y-173423450D03*
X293669000Y-171439200D03*
X291287900Y-178979350D03*
X302399700Y-171439200D03*
X325813850Y-186916350D03*
X332163450Y-186916350D03*
X325813850Y-191678550D03*
X332163450Y-191678550D03*
X288509950Y-190091150D03*
X295653250Y-190091150D03*
X276207600Y-186519500D03*
X38097600Y-129373100D03*
X26985800Y-165883300D03*
X60321200Y-187313200D03*
X319861100Y-190091150D03*
X312717800Y-190884850D03*
X280969800Y-180169900D03*
X330179200Y-198425000D03*
X365102000Y-203980900D03*
X330179200Y-206758850D03*
X344465800Y-165089600D03*
X259539900Y-101593600D03*
X336925650Y-158740000D03*
X369070500Y-161914800D03*
X245253300Y-109530600D03*
X250809200Y-99609350D03*
X247634400Y-99609350D03*
X69051900Y-167470700D03*
X307955600Y-127785700D03*
X339306750Y-127785700D03*
X336925650Y-127785700D03*
X336925650Y-124214050D03*
X339306750Y-121832950D03*
X336925650Y-117864450D03*
X339306750Y-115483350D03*
X287319400Y-180169900D03*
X285335150Y-175010850D03*
X345259500Y-169851800D03*
X353990200Y-179376200D03*
X354783900Y-169851800D03*
X343787903Y-180285703D03*
X349546700Y-181757300D03*
X362445910Y-161121100D03*
X72226700Y-196837600D03*
X79370000Y-158740000D03*
X74607800Y-139691200D03*
X87307000Y-176201400D03*
X46034600Y-92069200D03*
X50796800Y-139691200D03*
X53177900Y-158740000D03*
X57940100Y-177788800D03*
X48415700Y-196837600D03*
X93656600Y-139691200D03*
X98418800Y-158740000D03*
X107943200Y-177788800D03*
X96037700Y-196837600D03*
X84132200Y-92069200D03*
X340497300Y-148421900D03*
X326210700Y-148421900D03*
X367483100Y-170645500D03*
X377763580Y-148421900D03*
X361133500Y-185725800D03*
X313511500Y-186519500D03*
X366689400Y-171439200D03*
X377801200Y-116673900D03*
X244459600Y-100799900D03*
X253984000Y-100799900D03*
X338116200Y-178089000D03*
X330832227Y-175421100D03*
X330179200Y-205568300D03*
X339703600Y-205568300D03*
X379388600Y-205568300D03*
X378594900Y-177788800D03*
X112705400Y-139691200D03*
X117467600Y-158740000D03*
X126992000Y-177788800D03*
X103181000Y-92069200D03*
X131754200Y-139691200D03*
X136516400Y-158740000D03*
X146040800Y-177788800D03*
X122229800Y-92069200D03*
X150803000Y-139691200D03*
X155565200Y-158740000D03*
X165089600Y-177788800D03*
X167470700Y-196837600D03*
X141278600Y-92069200D03*
X169851800Y-139691200D03*
X174614000Y-158740000D03*
X184138400Y-177788800D03*
X169851800Y-92069200D03*
X188900600Y-139691200D03*
X193662800Y-158740000D03*
X203187200Y-177788800D03*
X188900600Y-92069200D03*
X327004400Y-119848700D03*
X326210700Y-120642400D03*
X380976000Y-161914800D03*
X379388600Y-196837600D03*
X379388600Y-139691200D03*
X360339800Y-139691200D03*
X360339800Y-196837600D03*
X360339800Y-177788800D03*
X366702051Y-172451854D03*
X378594900Y-129373100D03*
X326210700Y-129373100D03*
X340497300Y-129373100D03*
X207949400Y-139691200D03*
X212711600Y-158740000D03*
X222236000Y-177788800D03*
X207949400Y-92069200D03*
X226998200Y-139691200D03*
X241284800Y-177788800D03*
X231760400Y-158740000D03*
X226998200Y-92069200D03*
X239697400Y-196837600D03*
X250809200Y-158740000D03*
X260333600Y-177788800D03*
X262714700Y-196837600D03*
X246047000Y-139691200D03*
X255571400Y-92069200D03*
X269858000Y-158740000D03*
X265095800Y-139691200D03*
X274620200Y-92069200D03*
X284144600Y-139691200D03*
X293669000Y-92069200D03*
X285693027Y-192908073D03*
X296050100Y-177788800D03*
X300812300Y-158740000D03*
X307955600Y-139691200D03*
X312717800Y-92069200D03*
X304780800Y-154771500D03*
X308749300Y-192869100D03*
X341291000Y-196837600D03*
X342084700Y-139691200D03*
X342084700Y-92069200D03*
X339703600Y-183344700D03*
X327798100Y-119055000D03*
X357165000Y-171439200D03*
X352402800Y-167470700D03*
X337281717Y-173067383D03*
X242872200Y-88894400D03*
X247634400Y-88100700D03*
X243665900Y-91275500D03*
X250809200Y-92862900D03*
X22223600Y-158745780D03*
X22223600Y-139696500D03*
X22223600Y-177795060D03*
X22223600Y-196837600D03*
X352005950Y-102180997D03*
X345259500Y-103250110D03*
X323432750Y-103350101D03*
X317876850Y-103181000D03*
X305574500Y-102784150D03*
X298828050Y-103181000D03*
X286383434Y-102572781D03*
X279779250Y-103181000D03*
X260730450Y-103181000D03*
X267552013Y-102663013D03*
X241812784Y-102871530D03*
X254646566Y-102871530D03*
X152853371Y-104347131D03*
X151993550Y-102180997D03*
X238729220Y-102567967D03*
X232157250Y-103181000D03*
X219696894Y-102584442D03*
X213108450Y-103181000D03*
X200576444Y-102498441D03*
X194059650Y-103181000D03*
X192706550Y-104419550D03*
X352005950Y-103181000D03*
X346450050Y-103181000D03*
X323432750Y-102350098D03*
X316686300Y-103350101D03*
X242768155Y-103271540D03*
X253691195Y-103271540D03*
X133838667Y-104313036D03*
X132944750Y-102180997D03*
X201202950Y-103277860D03*
X193413657Y-105126659D03*
X304383950Y-103750111D03*
X304383950Y-102350110D03*
X296985343Y-106350141D03*
X242768155Y-105477880D03*
X253691195Y-105477880D03*
X114755771Y-104347131D03*
X113895950Y-102180997D03*
X285335150Y-103577850D03*
X285372632Y-102177849D03*
X277737964Y-106350141D03*
X241775527Y-105877890D03*
X254683823Y-105877890D03*
X95741067Y-104313036D03*
X94847150Y-102180997D03*
X266286350Y-103577850D03*
X266345918Y-102177849D03*
X258816374Y-106277900D03*
X240779669Y-106277900D03*
X255679681Y-106277900D03*
X56749550Y-102180997D03*
X57728510Y-104281010D03*
X56749550Y-131754200D03*
X243752492Y-103664442D03*
X252706858Y-103664442D03*
X180566750Y-103181000D03*
X175010850Y-103181000D03*
X151993550Y-103181000D03*
X146437650Y-103181000D03*
X132944750Y-103181000D03*
X127388850Y-103181000D03*
X113895950Y-103181000D03*
X108340050Y-103181000D03*
X94847150Y-103181000D03*
X89291250Y-103181000D03*
X56749550Y-103181000D03*
X56749550Y-130754197D03*
X237713150Y-103577850D03*
X237713150Y-102177849D03*
X230890582Y-105226229D03*
X244459600Y-104371550D03*
X251999750Y-104371550D03*
X218664350Y-103577850D03*
X218698128Y-102177849D03*
X211730075Y-105114524D03*
X243752492Y-105078658D03*
X252706858Y-105078658D03*
X27382650Y-130623299D03*
X32938550Y-130563650D03*
X199615550Y-103577850D03*
X199555982Y-102177849D03*
X193651608Y-101577701D03*
X340497300Y-115848688D03*
X315893327Y-134532877D03*
X228188750Y-130751049D03*
X228188750Y-132151050D03*
X222120937Y-130098100D03*
X340497300Y-116848691D03*
X316876847Y-134057400D03*
X247237550Y-132151050D03*
X247177982Y-130751049D03*
X240224126Y-133651070D03*
X89291250Y-131754200D03*
X94842839Y-130815742D03*
X340497300Y-117848694D03*
X317876850Y-133738450D03*
X266286350Y-132151050D03*
X266281924Y-130751049D03*
X259471360Y-133807006D03*
X209139950Y-131754200D03*
X203584050Y-131754200D03*
X190091150Y-131754200D03*
X184535250Y-131754200D03*
X171042350Y-131754200D03*
X165486450Y-131754200D03*
X151993550Y-131754200D03*
X146437650Y-131754200D03*
X132944750Y-131754200D03*
X127388850Y-131754200D03*
X113895950Y-131754200D03*
X108340050Y-132151050D03*
X88067549Y-132556451D03*
X94847432Y-131815734D03*
X340497300Y-118848697D03*
X285335150Y-130960500D03*
X285318296Y-132360501D03*
X319007429Y-133378187D03*
X277742331Y-134923341D03*
X114874910Y-132854210D03*
X113895950Y-130754197D03*
X340497300Y-119848700D03*
X313908350Y-130960500D03*
X313908350Y-133360504D03*
X319861100Y-132857370D03*
X311527250Y-135325850D03*
X133923710Y-132854210D03*
X132944750Y-130754197D03*
X365498850Y-131754200D03*
X352005950Y-130754197D03*
X340497300Y-133563659D03*
X326210700Y-133563659D03*
X152887467Y-132886236D03*
X151993550Y-130754197D03*
X373299296Y-116973890D03*
X371054750Y-131960503D03*
X353018926Y-132860530D03*
X364498847Y-131754200D03*
X352005950Y-131754200D03*
X340497300Y-132563656D03*
X346450050Y-132151050D03*
X326210700Y-132563656D03*
X230173000Y-131851060D03*
X222053450Y-133524149D03*
X171831720Y-132990783D03*
X171042350Y-130754197D03*
X374292552Y-116573880D03*
X371054750Y-130960500D03*
X340497300Y-131563653D03*
X326210700Y-131563653D03*
X308352450Y-131754200D03*
X313908350Y-131960503D03*
X286427575Y-131455475D03*
X279779250Y-131754200D03*
X267502911Y-131187111D03*
X260730450Y-131754200D03*
X248448951Y-131336499D03*
X241681650Y-131754200D03*
X222730975Y-131656075D03*
X229202583Y-131138931D03*
X221259750Y-132854210D03*
X190091150Y-130754197D03*
X191028245Y-132997605D03*
X375319371Y-116327414D03*
X376213800Y-132960494D03*
X376213800Y-115880200D03*
X340497300Y-130563650D03*
X326210700Y-130563650D03*
X376910640Y-131160484D03*
X240826201Y-102471520D03*
X255633149Y-102471520D03*
X328194950Y-195250200D03*
X363117750Y-109133750D03*
X283097622Y-186147168D03*
X329194953Y-195250200D03*
X363117750Y-110324300D03*
X284096913Y-186109483D03*
X313114650Y-150803000D03*
X339306750Y-150406150D03*
X326210700Y-150406150D03*
X289303650Y-150803000D03*
X295851115Y-150337724D03*
X319861100Y-150406150D03*
X276778122Y-150383572D03*
X270254850Y-150803000D03*
X258050625Y-150308025D03*
X251206050Y-150803000D03*
X238680051Y-150055006D03*
X232157250Y-150803000D03*
X230540455Y-151932405D03*
X200475371Y-151969131D03*
X199615550Y-149802997D03*
X279569771Y-174217513D03*
X371054750Y-150009300D03*
X364498847Y-150803000D03*
X352005950Y-151009303D03*
X346191836Y-151137886D03*
X340013858Y-151113258D03*
X325503592Y-151113258D03*
X292081600Y-152390400D03*
X239318517Y-150824658D03*
X231275921Y-152667871D03*
X181579726Y-151903010D03*
X180566750Y-149802997D03*
X278569770Y-174216892D03*
X371054750Y-151009303D03*
X365498850Y-150803000D03*
X352005950Y-150009300D03*
X341009057Y-151506160D03*
X353123393Y-151917812D03*
X324623300Y-151993550D03*
X291081597Y-152390400D03*
X162377771Y-151969131D03*
X161517950Y-149802997D03*
X277569769Y-174217225D03*
X318684891Y-151372110D03*
X318670550Y-149972109D03*
X311741551Y-152303020D03*
X290252981Y-153090400D03*
X143328971Y-151969131D03*
X142469150Y-149802997D03*
X276569768Y-174217094D03*
X294859550Y-150009300D03*
X289294442Y-153490410D03*
X124280171Y-151969131D03*
X123420350Y-149802997D03*
X275569767Y-174217167D03*
X275810750Y-150009300D03*
X269164600Y-151899850D03*
X218664350Y-150803000D03*
X213108450Y-150803000D03*
X199615550Y-150803000D03*
X194059650Y-150803000D03*
X180566750Y-150803000D03*
X175010850Y-150803000D03*
X161517950Y-150803000D03*
X155962050Y-150803000D03*
X142469150Y-150803000D03*
X136913250Y-150803000D03*
X123420350Y-150803000D03*
X104371550Y-150803000D03*
X117864450Y-151199850D03*
X97480125Y-151647975D03*
X274569766Y-174217137D03*
X256761950Y-150009300D03*
X256714512Y-152124693D03*
X104371550Y-149802997D03*
X98815650Y-150803000D03*
X273569765Y-174217154D03*
X237713150Y-151199850D03*
X237713150Y-149799849D03*
X250089381Y-151919669D03*
X231749208Y-149199701D03*
X272569764Y-174217150D03*
X262714700Y-169454950D03*
X255968250Y-169851800D03*
X243579833Y-169327181D03*
X236919450Y-169851800D03*
X217870650Y-169851800D03*
X224449866Y-169418275D03*
X198821850Y-169851800D03*
X205369315Y-169386524D03*
X186583411Y-169551810D03*
X179773050Y-169851800D03*
X167260856Y-169083557D03*
X160724250Y-169851800D03*
X159152726Y-171026475D03*
X129233723Y-170951810D03*
X128182550Y-168851797D03*
X280572950Y-169058100D03*
X283018545Y-170606922D03*
X274918925Y-169945500D03*
X167867550Y-169948660D03*
X159859834Y-171733583D03*
X110146726Y-170951810D03*
X109133750Y-168851797D03*
X280572950Y-170058103D03*
X261524150Y-168851797D03*
X261524150Y-170345510D03*
X281963274Y-170693731D03*
X253984000Y-173020941D03*
X91302179Y-170951810D03*
X90084950Y-168851797D03*
X242475350Y-170420911D03*
X242475350Y-169020910D03*
X235283098Y-173069894D03*
X63892850Y-168851797D03*
X64752671Y-171017931D03*
X223426550Y-170420911D03*
X223426550Y-169020910D03*
X215829363Y-173020941D03*
X32938550Y-168851797D03*
X33832467Y-170983836D03*
X32938550Y-151199850D03*
X204377750Y-170420911D03*
X204377750Y-169020910D03*
X197631300Y-171820911D03*
X147231350Y-169851800D03*
X141675450Y-169851800D03*
X128182550Y-169851800D03*
X122626650Y-169851800D03*
X109133750Y-169851800D03*
X103577850Y-169851800D03*
X90084950Y-169851800D03*
X84529050Y-169851800D03*
X32938550Y-169851800D03*
X27382650Y-150803000D03*
X63892850Y-169851800D03*
X58336950Y-169851800D03*
X185328950Y-170420911D03*
X185328950Y-169020910D03*
X178392801Y-171751830D03*
X166280150Y-170348670D03*
X166269993Y-168948669D03*
X160325821Y-168195700D03*
X27382650Y-149672099D03*
X33554676Y-149790024D03*
X340013858Y-149699042D03*
X325503592Y-149699042D03*
X280569771Y-174215780D03*
X296848750Y-150103000D03*
X306765050Y-187900597D03*
X300018600Y-189069701D03*
X271048550Y-188900600D03*
X265492650Y-188900600D03*
X253023066Y-188467075D03*
X246443850Y-188900600D03*
X233974266Y-188467076D03*
X227395050Y-188900600D03*
X214893715Y-188435324D03*
X208346250Y-188900600D03*
X189297450Y-188900600D03*
X195844915Y-188435324D03*
X176827866Y-188467075D03*
X170248650Y-188900600D03*
X157730794Y-188132860D03*
X151199850Y-188900600D03*
X149583056Y-190030004D03*
X119517971Y-190066731D03*
X118658150Y-187900597D03*
X306765050Y-188900600D03*
X301209150Y-188900600D03*
X271048550Y-187900597D03*
X264302100Y-189069701D03*
X158343150Y-189000620D03*
X150318520Y-190765470D03*
X100503267Y-190032636D03*
X99609350Y-187900597D03*
X251999750Y-189469711D03*
X251999750Y-188069710D03*
X244505051Y-192069741D03*
X68655050Y-187900597D03*
X69524360Y-190057242D03*
X232950950Y-189469711D03*
X232950950Y-188069710D03*
X225765848Y-192111543D03*
X33951526Y-190000610D03*
X32938550Y-187900597D03*
X213902150Y-189469711D03*
X213902150Y-188069710D03*
X206437028Y-192069741D03*
X27086100Y-189203750D03*
X59105596Y-207924346D03*
X62148728Y-209049410D03*
X32840425Y-208047525D03*
X194853350Y-189469711D03*
X194853350Y-188069710D03*
X188106900Y-190869711D03*
X137706950Y-188900600D03*
X132378998Y-188900600D03*
X118658150Y-188900600D03*
X113102250Y-188900600D03*
X99609350Y-188900600D03*
X94053450Y-188900600D03*
X68655050Y-188900600D03*
X63099150Y-188900600D03*
X32938550Y-188900600D03*
X27382650Y-208252550D03*
X175804550Y-189469711D03*
X175804550Y-188069710D03*
X168661250Y-190800630D03*
X53574750Y-207949400D03*
X59862438Y-209243565D03*
X156755750Y-189391150D03*
X156740884Y-187991149D03*
X150413470Y-187317992D03*
X27382650Y-206818499D03*
X33235100Y-206462300D03*
X321498864Y-207054971D03*
X313935570Y-210249440D03*
X297240650Y-206949397D03*
X298344320Y-209049410D03*
X290220076Y-210249440D03*
X172629750Y-207949400D03*
X179679350Y-208020826D03*
X274442626Y-209049410D03*
X273429650Y-206949397D03*
X266313571Y-210249440D03*
X249618650Y-206949397D03*
X250478471Y-209115531D03*
X242803651Y-210002199D03*
X178185650Y-207949400D03*
X179030955Y-209347254D03*
X352987263Y-209559737D03*
X352005950Y-206949397D03*
X371054750Y-206949397D03*
X371761858Y-208718500D03*
X371054750Y-189106903D03*
X336131950Y-207949400D03*
X332062721Y-208649400D03*
X371054750Y-207949400D03*
X371054750Y-188106900D03*
X352005950Y-207949400D03*
X365498850Y-207949400D03*
X346450050Y-207949400D03*
X321051650Y-207949400D03*
X315495750Y-207949400D03*
X297240650Y-207949400D03*
X291684750Y-207949400D03*
X336839058Y-207242292D03*
X332957150Y-207949400D03*
X273429650Y-207949400D03*
X267873750Y-207949400D03*
X249618650Y-207949400D03*
X244062750Y-207949400D03*
X365498850Y-188900600D03*
X372761470Y-209118510D03*
X337546166Y-206535184D03*
X331766600Y-206849390D03*
X364604421Y-207249400D03*
X365498850Y-187900597D03*
X349228000Y-164295900D03*
X329385500Y-181757300D03*
X327747736Y-196144629D03*
X343787903Y-160443203D03*
X361983440Y-157946300D03*
X377007500Y-109227450D03*
X329385500Y-194059650D03*
X284938300Y-176598250D03*
M02*
