%TF.GenerationSoftware,KiCad,Pcbnew,(5.1.10)-1*%
%TF.CreationDate,2021-12-23T20:50:28-05:00*%
%TF.ProjectId,custom_keyboard (f303),63757374-6f6d-45f6-9b65-79626f617264,rev?*%
%TF.SameCoordinates,Original*%
%TF.FileFunction,Paste,Bot*%
%TF.FilePolarity,Positive*%
%FSLAX46Y46*%
G04 Gerber Fmt 4.6, Leading zero omitted, Abs format (unit mm)*
G04 Created by KiCad (PCBNEW (5.1.10)-1) date 2021-12-23 20:50:28*
%MOMM*%
%LPD*%
G01*
G04 APERTURE LIST*
%ADD10R,1.800000X1.200000*%
%ADD11R,1.550000X0.600000*%
%ADD12R,0.800000X0.700000*%
%ADD13R,1.200000X0.900000*%
%ADD14R,0.900000X1.200000*%
%ADD15R,0.600000X1.450000*%
%ADD16R,0.300000X1.450000*%
%ADD17R,1.060000X0.650000*%
%ADD18R,0.900000X0.800000*%
%ADD19R,1.800000X1.100000*%
%ADD20R,2.550000X2.500000*%
%ADD21R,0.800000X0.900000*%
%ADD22R,2.000000X2.400000*%
G04 APERTURE END LIST*
D10*
%TO.C,J2*%
X339809900Y-153558900D03*
X339809900Y-159158900D03*
D11*
X343684900Y-157858900D03*
X343684900Y-156858900D03*
X343684900Y-154858900D03*
X343684900Y-155858900D03*
%TD*%
D12*
%TO.C,LED1*%
X28610600Y-131823300D03*
X28610600Y-130723300D03*
X31710600Y-131823300D03*
X31710600Y-130723300D03*
%TD*%
D13*
%TO.C,D3*%
X37303900Y-105624700D03*
X37303900Y-102324700D03*
%TD*%
%TO.C,KD90*%
X395262600Y-200743500D03*
X395262600Y-204043500D03*
%TD*%
%TO.C,KD50*%
X395262600Y-143597100D03*
X395262600Y-146897100D03*
%TD*%
%TO.C,KD32*%
X395262600Y-124548300D03*
X395262600Y-127848300D03*
%TD*%
%TO.C,KD89*%
X376213800Y-200743500D03*
X376213800Y-204043500D03*
%TD*%
%TO.C,KD78*%
X376213800Y-181694700D03*
X376213800Y-184994700D03*
%TD*%
%TO.C,KD49*%
X376213800Y-143597100D03*
X376213800Y-146897100D03*
%TD*%
%TO.C,KD31*%
X376213800Y-124548300D03*
X376213800Y-127848300D03*
%TD*%
%TO.C,KD48*%
X357165000Y-143597100D03*
X357165000Y-146897100D03*
%TD*%
%TO.C,KD30*%
X357165000Y-124548300D03*
X357165000Y-127848300D03*
%TD*%
%TO.C,KD14*%
X357165000Y-95975100D03*
X357165000Y-99275100D03*
%TD*%
%TO.C,KD88*%
X357165000Y-200743500D03*
X357165000Y-204043500D03*
%TD*%
%TO.C,KD77*%
X311924100Y-181694700D03*
X311924100Y-184994700D03*
%TD*%
%TO.C,KD64*%
X316686300Y-162645900D03*
X316686300Y-165945900D03*
%TD*%
%TO.C,KD47*%
X323829600Y-143597100D03*
X323829600Y-146897100D03*
%TD*%
%TO.C,KD29*%
X319067400Y-124548300D03*
X319067400Y-127848300D03*
%TD*%
%TO.C,KD13*%
X328591800Y-95975100D03*
X328591800Y-99275100D03*
%TD*%
%TO.C,KD87*%
X326210700Y-200743500D03*
X326210700Y-204043500D03*
%TD*%
%TO.C,KD46*%
X300018600Y-143597100D03*
X300018600Y-146897100D03*
%TD*%
%TO.C,KD28*%
X290494200Y-124548300D03*
X290494200Y-127848300D03*
%TD*%
%TO.C,KD12*%
X309543000Y-95975100D03*
X309543000Y-99275100D03*
%TD*%
%TO.C,KD86*%
X302399700Y-200743500D03*
X302399700Y-204043500D03*
%TD*%
%TO.C,KD85*%
X278588700Y-200743500D03*
X278588700Y-204043500D03*
%TD*%
%TO.C,KD63*%
X285732000Y-162645900D03*
X285732000Y-165945900D03*
%TD*%
%TO.C,KD45*%
X280969800Y-143597100D03*
X280969800Y-146897100D03*
%TD*%
%TO.C,KD27*%
X271445400Y-124548300D03*
X271445400Y-127848300D03*
%TD*%
%TO.C,KD11*%
X290494200Y-95975100D03*
X290494200Y-99275100D03*
%TD*%
%TO.C,KD62*%
X266683200Y-162645900D03*
X266683200Y-165945900D03*
%TD*%
%TO.C,KD44*%
X261921000Y-143597100D03*
X261921000Y-146897100D03*
%TD*%
%TO.C,KD26*%
X252396600Y-124548300D03*
X252396600Y-127848300D03*
%TD*%
%TO.C,KD10*%
X271445400Y-95975100D03*
X271445400Y-99275100D03*
%TD*%
%TO.C,KD84*%
X254777700Y-200743500D03*
X254777700Y-204043500D03*
%TD*%
%TO.C,KD75*%
X257158800Y-181694700D03*
X257158800Y-184994700D03*
%TD*%
%TO.C,KD61*%
X247634400Y-162645900D03*
X247634400Y-165945900D03*
%TD*%
%TO.C,KD43*%
X242872200Y-143597100D03*
X242872200Y-146897100D03*
%TD*%
%TO.C,KD25*%
X233347800Y-124548300D03*
X233347800Y-127848300D03*
%TD*%
%TO.C,KD74*%
X238110000Y-181694700D03*
X238110000Y-184994700D03*
%TD*%
%TO.C,KD60*%
X228585600Y-162645900D03*
X228585600Y-165945900D03*
%TD*%
%TO.C,KD42*%
X223823400Y-143597100D03*
X223823400Y-146897100D03*
%TD*%
%TO.C,KD24*%
X214299000Y-124548300D03*
X214299000Y-127848300D03*
%TD*%
%TO.C,KD8*%
X223823400Y-95975100D03*
X223823400Y-99275100D03*
%TD*%
%TO.C,KD73*%
X219061200Y-181694700D03*
X219061200Y-184994700D03*
%TD*%
%TO.C,KD59*%
X209536800Y-162645900D03*
X209536800Y-165945900D03*
%TD*%
%TO.C,KD41*%
X204774600Y-143597100D03*
X204774600Y-146897100D03*
%TD*%
%TO.C,KD23*%
X195250200Y-124548300D03*
X195250200Y-127848300D03*
%TD*%
%TO.C,KD7*%
X204774600Y-95975100D03*
X204774600Y-99275100D03*
%TD*%
%TO.C,KD72*%
X200012400Y-181694700D03*
X200012400Y-184994700D03*
%TD*%
%TO.C,KD58*%
X190488000Y-162645900D03*
X190488000Y-165945900D03*
%TD*%
%TO.C,KD40*%
X185725800Y-143597100D03*
X185725800Y-146897100D03*
%TD*%
%TO.C,KD22*%
X176201400Y-124548300D03*
X176201400Y-127848300D03*
%TD*%
%TO.C,KD6*%
X185725800Y-95975100D03*
X185725800Y-99275100D03*
%TD*%
%TO.C,KD83*%
X183344700Y-200743500D03*
X183344700Y-204043500D03*
%TD*%
%TO.C,KD71*%
X180963600Y-181694700D03*
X180963600Y-184994700D03*
%TD*%
%TO.C,KD57*%
X171439200Y-162645900D03*
X171439200Y-165945900D03*
%TD*%
%TO.C,KD39*%
X166677000Y-143597100D03*
X166677000Y-146897100D03*
%TD*%
%TO.C,KD21*%
X157152600Y-124548300D03*
X157152600Y-127848300D03*
%TD*%
%TO.C,KD5*%
X157152600Y-95975100D03*
X157152600Y-99275100D03*
%TD*%
%TO.C,KD69*%
X142866000Y-181694700D03*
X142866000Y-184994700D03*
%TD*%
%TO.C,KD56*%
X152390400Y-162645900D03*
X152390400Y-165945900D03*
%TD*%
%TO.C,KD38*%
X147628200Y-143597100D03*
X147628200Y-146897100D03*
%TD*%
%TO.C,KD20*%
X138103800Y-124548300D03*
X138103800Y-127848300D03*
%TD*%
%TO.C,KD4*%
X138103800Y-95975100D03*
X138103800Y-99275100D03*
%TD*%
%TO.C,KD70*%
X161914800Y-181694700D03*
X161914800Y-184994700D03*
%TD*%
%TO.C,KD68*%
X123817200Y-181694700D03*
X123817200Y-184994700D03*
%TD*%
%TO.C,KD55*%
X133341600Y-162645900D03*
X133341600Y-165945900D03*
%TD*%
%TO.C,KD37*%
X128579400Y-143597100D03*
X128579400Y-146897100D03*
%TD*%
%TO.C,KD19*%
X119055000Y-124548300D03*
X119055000Y-127848300D03*
%TD*%
%TO.C,KD3*%
X119055000Y-95975100D03*
X119055000Y-99275100D03*
%TD*%
%TO.C,KD81*%
X88100700Y-200743500D03*
X88100700Y-204043500D03*
%TD*%
%TO.C,KD66*%
X73814100Y-181694700D03*
X73814100Y-184994700D03*
%TD*%
%TO.C,KD53*%
X95244000Y-162645900D03*
X95244000Y-165945900D03*
%TD*%
%TO.C,KD35*%
X90481800Y-143597100D03*
X90481800Y-146897100D03*
%TD*%
%TO.C,KD17*%
X80957400Y-124548300D03*
X80957400Y-127848300D03*
%TD*%
%TO.C,KD82*%
X111911700Y-200743500D03*
X111911700Y-204043500D03*
%TD*%
%TO.C,KD67*%
X104768400Y-181694700D03*
X104768400Y-184994700D03*
%TD*%
%TO.C,KD54*%
X114292800Y-162645900D03*
X114292800Y-165945900D03*
%TD*%
%TO.C,KD36*%
X109530600Y-143597100D03*
X109530600Y-146897100D03*
%TD*%
%TO.C,KD18*%
X100006200Y-124548300D03*
X100006200Y-127848300D03*
%TD*%
%TO.C,KD2*%
X100006200Y-95975100D03*
X100006200Y-99275100D03*
%TD*%
%TO.C,KD79*%
X38097600Y-200680900D03*
X38097600Y-203980900D03*
%TD*%
%TO.C,KD52*%
X69051900Y-162645900D03*
X69051900Y-165945900D03*
%TD*%
%TO.C,KD34*%
X66670800Y-143597100D03*
X66670800Y-146897100D03*
%TD*%
%TO.C,KD16*%
X61908600Y-124548300D03*
X61908600Y-127848300D03*
%TD*%
%TO.C,KD1*%
X61908600Y-95975100D03*
X61908600Y-99275100D03*
%TD*%
%TO.C,KD80*%
X64289700Y-200743500D03*
X64289700Y-204043500D03*
%TD*%
%TO.C,KD65*%
X38097600Y-181694700D03*
X38097600Y-184994700D03*
%TD*%
%TO.C,KD51*%
X38097600Y-162645900D03*
X38097600Y-165945900D03*
%TD*%
%TO.C,KD33*%
X38097600Y-143534500D03*
X38097600Y-146834500D03*
%TD*%
%TO.C,KD15*%
X38097600Y-124485700D03*
X38097600Y-127785700D03*
%TD*%
%TO.C,R39*%
G36*
G01*
X383757100Y-166333302D02*
X383757100Y-165433298D01*
G75*
G02*
X384007098Y-165183300I249998J0D01*
G01*
X384532102Y-165183300D01*
G75*
G02*
X384782100Y-165433298I0J-249998D01*
G01*
X384782100Y-166333302D01*
G75*
G02*
X384532102Y-166583300I-249998J0D01*
G01*
X384007098Y-166583300D01*
G75*
G02*
X383757100Y-166333302I0J249998D01*
G01*
G37*
G36*
G01*
X381932100Y-166333302D02*
X381932100Y-165433298D01*
G75*
G02*
X382182098Y-165183300I249998J0D01*
G01*
X382707102Y-165183300D01*
G75*
G02*
X382957100Y-165433298I0J-249998D01*
G01*
X382957100Y-166333302D01*
G75*
G02*
X382707102Y-166583300I-249998J0D01*
G01*
X382182098Y-166583300D01*
G75*
G02*
X381932100Y-166333302I0J249998D01*
G01*
G37*
%TD*%
D14*
%TO.C,D4*%
X381832300Y-106355800D03*
X378532300Y-106355800D03*
%TD*%
%TO.C,R38*%
G36*
G01*
X383757100Y-168714402D02*
X383757100Y-167814398D01*
G75*
G02*
X384007098Y-167564400I249998J0D01*
G01*
X384532102Y-167564400D01*
G75*
G02*
X384782100Y-167814398I0J-249998D01*
G01*
X384782100Y-168714402D01*
G75*
G02*
X384532102Y-168964400I-249998J0D01*
G01*
X384007098Y-168964400D01*
G75*
G02*
X383757100Y-168714402I0J249998D01*
G01*
G37*
G36*
G01*
X381932100Y-168714402D02*
X381932100Y-167814398D01*
G75*
G02*
X382182098Y-167564400I249998J0D01*
G01*
X382707102Y-167564400D01*
G75*
G02*
X382957100Y-167814398I0J-249998D01*
G01*
X382957100Y-168714402D01*
G75*
G02*
X382707102Y-168964400I-249998J0D01*
G01*
X382182098Y-168964400D01*
G75*
G02*
X381932100Y-168714402I0J249998D01*
G01*
G37*
%TD*%
%TO.C,C3*%
G36*
G01*
X356052600Y-188450600D02*
X355102600Y-188450600D01*
G75*
G02*
X354852600Y-188200600I0J250000D01*
G01*
X354852600Y-187700600D01*
G75*
G02*
X355102600Y-187450600I250000J0D01*
G01*
X356052600Y-187450600D01*
G75*
G02*
X356302600Y-187700600I0J-250000D01*
G01*
X356302600Y-188200600D01*
G75*
G02*
X356052600Y-188450600I-250000J0D01*
G01*
G37*
G36*
G01*
X356052600Y-190350600D02*
X355102600Y-190350600D01*
G75*
G02*
X354852600Y-190100600I0J250000D01*
G01*
X354852600Y-189600600D01*
G75*
G02*
X355102600Y-189350600I250000J0D01*
G01*
X356052600Y-189350600D01*
G75*
G02*
X356302600Y-189600600I0J-250000D01*
G01*
X356302600Y-190100600D01*
G75*
G02*
X356052600Y-190350600I-250000J0D01*
G01*
G37*
%TD*%
%TO.C,C7*%
G36*
G01*
X345578200Y-189350600D02*
X346528200Y-189350600D01*
G75*
G02*
X346778200Y-189600600I0J-250000D01*
G01*
X346778200Y-190100600D01*
G75*
G02*
X346528200Y-190350600I-250000J0D01*
G01*
X345578200Y-190350600D01*
G75*
G02*
X345328200Y-190100600I0J250000D01*
G01*
X345328200Y-189600600D01*
G75*
G02*
X345578200Y-189350600I250000J0D01*
G01*
G37*
G36*
G01*
X345578200Y-187450600D02*
X346528200Y-187450600D01*
G75*
G02*
X346778200Y-187700600I0J-250000D01*
G01*
X346778200Y-188200600D01*
G75*
G02*
X346528200Y-188450600I-250000J0D01*
G01*
X345578200Y-188450600D01*
G75*
G02*
X345328200Y-188200600I0J250000D01*
G01*
X345328200Y-187700600D01*
G75*
G02*
X345578200Y-187450600I250000J0D01*
G01*
G37*
%TD*%
%TO.C,C18*%
G36*
G01*
X355258900Y-181307300D02*
X354308900Y-181307300D01*
G75*
G02*
X354058900Y-181057300I0J250000D01*
G01*
X354058900Y-180557300D01*
G75*
G02*
X354308900Y-180307300I250000J0D01*
G01*
X355258900Y-180307300D01*
G75*
G02*
X355508900Y-180557300I0J-250000D01*
G01*
X355508900Y-181057300D01*
G75*
G02*
X355258900Y-181307300I-250000J0D01*
G01*
G37*
G36*
G01*
X355258900Y-183207300D02*
X354308900Y-183207300D01*
G75*
G02*
X354058900Y-182957300I0J250000D01*
G01*
X354058900Y-182457300D01*
G75*
G02*
X354308900Y-182207300I250000J0D01*
G01*
X355258900Y-182207300D01*
G75*
G02*
X355508900Y-182457300I0J-250000D01*
G01*
X355508900Y-182957300D01*
G75*
G02*
X355258900Y-183207300I-250000J0D01*
G01*
G37*
%TD*%
%TO.C,C19*%
G36*
G01*
X342403400Y-171095500D02*
X343353400Y-171095500D01*
G75*
G02*
X343603400Y-171345500I0J-250000D01*
G01*
X343603400Y-171845500D01*
G75*
G02*
X343353400Y-172095500I-250000J0D01*
G01*
X342403400Y-172095500D01*
G75*
G02*
X342153400Y-171845500I0J250000D01*
G01*
X342153400Y-171345500D01*
G75*
G02*
X342403400Y-171095500I250000J0D01*
G01*
G37*
G36*
G01*
X342403400Y-169195500D02*
X343353400Y-169195500D01*
G75*
G02*
X343603400Y-169445500I0J-250000D01*
G01*
X343603400Y-169945500D01*
G75*
G02*
X343353400Y-170195500I-250000J0D01*
G01*
X342403400Y-170195500D01*
G75*
G02*
X342153400Y-169945500I0J250000D01*
G01*
X342153400Y-169445500D01*
G75*
G02*
X342403400Y-169195500I250000J0D01*
G01*
G37*
%TD*%
%TO.C,C20*%
G36*
G01*
X354333900Y-166995700D02*
X354333900Y-167945700D01*
G75*
G02*
X354083900Y-168195700I-250000J0D01*
G01*
X353583900Y-168195700D01*
G75*
G02*
X353333900Y-167945700I0J250000D01*
G01*
X353333900Y-166995700D01*
G75*
G02*
X353583900Y-166745700I250000J0D01*
G01*
X354083900Y-166745700D01*
G75*
G02*
X354333900Y-166995700I0J-250000D01*
G01*
G37*
G36*
G01*
X356233900Y-166995700D02*
X356233900Y-167945700D01*
G75*
G02*
X355983900Y-168195700I-250000J0D01*
G01*
X355483900Y-168195700D01*
G75*
G02*
X355233900Y-167945700I0J250000D01*
G01*
X355233900Y-166995700D01*
G75*
G02*
X355483900Y-166745700I250000J0D01*
G01*
X355983900Y-166745700D01*
G75*
G02*
X356233900Y-166995700I0J-250000D01*
G01*
G37*
%TD*%
%TO.C,C21*%
G36*
G01*
X357640000Y-181307300D02*
X356690000Y-181307300D01*
G75*
G02*
X356440000Y-181057300I0J250000D01*
G01*
X356440000Y-180557300D01*
G75*
G02*
X356690000Y-180307300I250000J0D01*
G01*
X357640000Y-180307300D01*
G75*
G02*
X357890000Y-180557300I0J-250000D01*
G01*
X357890000Y-181057300D01*
G75*
G02*
X357640000Y-181307300I-250000J0D01*
G01*
G37*
G36*
G01*
X357640000Y-183207300D02*
X356690000Y-183207300D01*
G75*
G02*
X356440000Y-182957300I0J250000D01*
G01*
X356440000Y-182457300D01*
G75*
G02*
X356690000Y-182207300I250000J0D01*
G01*
X357640000Y-182207300D01*
G75*
G02*
X357890000Y-182457300I0J-250000D01*
G01*
X357890000Y-182957300D01*
G75*
G02*
X357640000Y-183207300I-250000J0D01*
G01*
G37*
%TD*%
%TO.C,C23*%
G36*
G01*
X347321900Y-182101000D02*
X346371900Y-182101000D01*
G75*
G02*
X346121900Y-181851000I0J250000D01*
G01*
X346121900Y-181351000D01*
G75*
G02*
X346371900Y-181101000I250000J0D01*
G01*
X347321900Y-181101000D01*
G75*
G02*
X347571900Y-181351000I0J-250000D01*
G01*
X347571900Y-181851000D01*
G75*
G02*
X347321900Y-182101000I-250000J0D01*
G01*
G37*
G36*
G01*
X347321900Y-184001000D02*
X346371900Y-184001000D01*
G75*
G02*
X346121900Y-183751000I0J250000D01*
G01*
X346121900Y-183251000D01*
G75*
G02*
X346371900Y-183001000I250000J0D01*
G01*
X347321900Y-183001000D01*
G75*
G02*
X347571900Y-183251000I0J-250000D01*
G01*
X347571900Y-183751000D01*
G75*
G02*
X347321900Y-184001000I-250000J0D01*
G01*
G37*
%TD*%
%TO.C,C24*%
G36*
G01*
X344069600Y-183001000D02*
X345019600Y-183001000D01*
G75*
G02*
X345269600Y-183251000I0J-250000D01*
G01*
X345269600Y-183751000D01*
G75*
G02*
X345019600Y-184001000I-250000J0D01*
G01*
X344069600Y-184001000D01*
G75*
G02*
X343819600Y-183751000I0J250000D01*
G01*
X343819600Y-183251000D01*
G75*
G02*
X344069600Y-183001000I250000J0D01*
G01*
G37*
G36*
G01*
X344069600Y-181101000D02*
X345019600Y-181101000D01*
G75*
G02*
X345269600Y-181351000I0J-250000D01*
G01*
X345269600Y-181851000D01*
G75*
G02*
X345019600Y-182101000I-250000J0D01*
G01*
X344069600Y-182101000D01*
G75*
G02*
X343819600Y-181851000I0J250000D01*
G01*
X343819600Y-181351000D01*
G75*
G02*
X344069600Y-181101000I250000J0D01*
G01*
G37*
%TD*%
%TO.C,C43*%
G36*
G01*
X349678000Y-160008700D02*
X349678000Y-159058700D01*
G75*
G02*
X349928000Y-158808700I250000J0D01*
G01*
X350428000Y-158808700D01*
G75*
G02*
X350678000Y-159058700I0J-250000D01*
G01*
X350678000Y-160008700D01*
G75*
G02*
X350428000Y-160258700I-250000J0D01*
G01*
X349928000Y-160258700D01*
G75*
G02*
X349678000Y-160008700I0J250000D01*
G01*
G37*
G36*
G01*
X347778000Y-160008700D02*
X347778000Y-159058700D01*
G75*
G02*
X348028000Y-158808700I250000J0D01*
G01*
X348528000Y-158808700D01*
G75*
G02*
X348778000Y-159058700I0J-250000D01*
G01*
X348778000Y-160008700D01*
G75*
G02*
X348528000Y-160258700I-250000J0D01*
G01*
X348028000Y-160258700D01*
G75*
G02*
X347778000Y-160008700I0J250000D01*
G01*
G37*
%TD*%
%TO.C,C44*%
G36*
G01*
X352852800Y-155246500D02*
X352852800Y-154296500D01*
G75*
G02*
X353102800Y-154046500I250000J0D01*
G01*
X353602800Y-154046500D01*
G75*
G02*
X353852800Y-154296500I0J-250000D01*
G01*
X353852800Y-155246500D01*
G75*
G02*
X353602800Y-155496500I-250000J0D01*
G01*
X353102800Y-155496500D01*
G75*
G02*
X352852800Y-155246500I0J250000D01*
G01*
G37*
G36*
G01*
X350952800Y-155246500D02*
X350952800Y-154296500D01*
G75*
G02*
X351202800Y-154046500I250000J0D01*
G01*
X351702800Y-154046500D01*
G75*
G02*
X351952800Y-154296500I0J-250000D01*
G01*
X351952800Y-155246500D01*
G75*
G02*
X351702800Y-155496500I-250000J0D01*
G01*
X351202800Y-155496500D01*
G75*
G02*
X350952800Y-155246500I0J250000D01*
G01*
G37*
%TD*%
%TO.C,D11*%
G36*
G01*
X355921300Y-155902650D02*
X355921300Y-156815150D01*
G75*
G02*
X355677550Y-157058900I-243750J0D01*
G01*
X355190050Y-157058900D01*
G75*
G02*
X354946300Y-156815150I0J243750D01*
G01*
X354946300Y-155902650D01*
G75*
G02*
X355190050Y-155658900I243750J0D01*
G01*
X355677550Y-155658900D01*
G75*
G02*
X355921300Y-155902650I0J-243750D01*
G01*
G37*
G36*
G01*
X357796300Y-155902650D02*
X357796300Y-156815150D01*
G75*
G02*
X357552550Y-157058900I-243750J0D01*
G01*
X357065050Y-157058900D01*
G75*
G02*
X356821300Y-156815150I0J243750D01*
G01*
X356821300Y-155902650D01*
G75*
G02*
X357065050Y-155658900I243750J0D01*
G01*
X357552550Y-155658900D01*
G75*
G02*
X357796300Y-155902650I0J-243750D01*
G01*
G37*
%TD*%
%TO.C,F8*%
G36*
G01*
X345428200Y-160683500D02*
X346678200Y-160683500D01*
G75*
G02*
X346928200Y-160933500I0J-250000D01*
G01*
X346928200Y-161683500D01*
G75*
G02*
X346678200Y-161933500I-250000J0D01*
G01*
X345428200Y-161933500D01*
G75*
G02*
X345178200Y-161683500I0J250000D01*
G01*
X345178200Y-160933500D01*
G75*
G02*
X345428200Y-160683500I250000J0D01*
G01*
G37*
G36*
G01*
X345428200Y-163483500D02*
X346678200Y-163483500D01*
G75*
G02*
X346928200Y-163733500I0J-250000D01*
G01*
X346928200Y-164483500D01*
G75*
G02*
X346678200Y-164733500I-250000J0D01*
G01*
X345428200Y-164733500D01*
G75*
G02*
X345178200Y-164483500I0J250000D01*
G01*
X345178200Y-163733500D01*
G75*
G02*
X345428200Y-163483500I250000J0D01*
G01*
G37*
%TD*%
%TO.C,FB15*%
G36*
G01*
X348815550Y-164208500D02*
X348053050Y-164208500D01*
G75*
G02*
X347834300Y-163989750I0J218750D01*
G01*
X347834300Y-163552250D01*
G75*
G02*
X348053050Y-163333500I218750J0D01*
G01*
X348815550Y-163333500D01*
G75*
G02*
X349034300Y-163552250I0J-218750D01*
G01*
X349034300Y-163989750D01*
G75*
G02*
X348815550Y-164208500I-218750J0D01*
G01*
G37*
G36*
G01*
X348815550Y-162083500D02*
X348053050Y-162083500D01*
G75*
G02*
X347834300Y-161864750I0J218750D01*
G01*
X347834300Y-161427250D01*
G75*
G02*
X348053050Y-161208500I218750J0D01*
G01*
X348815550Y-161208500D01*
G75*
G02*
X349034300Y-161427250I0J-218750D01*
G01*
X349034300Y-161864750D01*
G75*
G02*
X348815550Y-162083500I-218750J0D01*
G01*
G37*
%TD*%
%TO.C,R27*%
G36*
G01*
X340047298Y-171045500D02*
X340947302Y-171045500D01*
G75*
G02*
X341197300Y-171295498I0J-249998D01*
G01*
X341197300Y-171820502D01*
G75*
G02*
X340947302Y-172070500I-249998J0D01*
G01*
X340047298Y-172070500D01*
G75*
G02*
X339797300Y-171820502I0J249998D01*
G01*
X339797300Y-171295498D01*
G75*
G02*
X340047298Y-171045500I249998J0D01*
G01*
G37*
G36*
G01*
X340047298Y-169220500D02*
X340947302Y-169220500D01*
G75*
G02*
X341197300Y-169470498I0J-249998D01*
G01*
X341197300Y-169995502D01*
G75*
G02*
X340947302Y-170245500I-249998J0D01*
G01*
X340047298Y-170245500D01*
G75*
G02*
X339797300Y-169995502I0J249998D01*
G01*
X339797300Y-169470498D01*
G75*
G02*
X340047298Y-169220500I249998J0D01*
G01*
G37*
%TD*%
%TO.C,R58*%
G36*
G01*
X353590200Y-163052198D02*
X353590200Y-163952202D01*
G75*
G02*
X353340202Y-164202200I-249998J0D01*
G01*
X352815198Y-164202200D01*
G75*
G02*
X352565200Y-163952202I0J249998D01*
G01*
X352565200Y-163052198D01*
G75*
G02*
X352815198Y-162802200I249998J0D01*
G01*
X353340202Y-162802200D01*
G75*
G02*
X353590200Y-163052198I0J-249998D01*
G01*
G37*
G36*
G01*
X355415200Y-163052198D02*
X355415200Y-163952202D01*
G75*
G02*
X355165202Y-164202200I-249998J0D01*
G01*
X354640198Y-164202200D01*
G75*
G02*
X354390200Y-163952202I0J249998D01*
G01*
X354390200Y-163052198D01*
G75*
G02*
X354640198Y-162802200I249998J0D01*
G01*
X355165202Y-162802200D01*
G75*
G02*
X355415200Y-163052198I0J-249998D01*
G01*
G37*
%TD*%
%TO.C,R64*%
G36*
G01*
X356771300Y-159190002D02*
X356771300Y-158289998D01*
G75*
G02*
X357021298Y-158040000I249998J0D01*
G01*
X357546302Y-158040000D01*
G75*
G02*
X357796300Y-158289998I0J-249998D01*
G01*
X357796300Y-159190002D01*
G75*
G02*
X357546302Y-159440000I-249998J0D01*
G01*
X357021298Y-159440000D01*
G75*
G02*
X356771300Y-159190002I0J249998D01*
G01*
G37*
G36*
G01*
X354946300Y-159190002D02*
X354946300Y-158289998D01*
G75*
G02*
X355196298Y-158040000I249998J0D01*
G01*
X355721302Y-158040000D01*
G75*
G02*
X355971300Y-158289998I0J-249998D01*
G01*
X355971300Y-159190002D01*
G75*
G02*
X355721302Y-159440000I-249998J0D01*
G01*
X355196298Y-159440000D01*
G75*
G02*
X354946300Y-159190002I0J249998D01*
G01*
G37*
%TD*%
%TO.C,FB5*%
G36*
G01*
X255740100Y-88513150D02*
X255740100Y-89275650D01*
G75*
G02*
X255521350Y-89494400I-218750J0D01*
G01*
X255083850Y-89494400D01*
G75*
G02*
X254865100Y-89275650I0J218750D01*
G01*
X254865100Y-88513150D01*
G75*
G02*
X255083850Y-88294400I218750J0D01*
G01*
X255521350Y-88294400D01*
G75*
G02*
X255740100Y-88513150I0J-218750D01*
G01*
G37*
G36*
G01*
X257865100Y-88513150D02*
X257865100Y-89275650D01*
G75*
G02*
X257646350Y-89494400I-218750J0D01*
G01*
X257208850Y-89494400D01*
G75*
G02*
X256990100Y-89275650I0J218750D01*
G01*
X256990100Y-88513150D01*
G75*
G02*
X257208850Y-88294400I218750J0D01*
G01*
X257646350Y-88294400D01*
G75*
G02*
X257865100Y-88513150I0J-218750D01*
G01*
G37*
%TD*%
%TO.C,R12*%
G36*
G01*
X251946598Y-90881800D02*
X252846602Y-90881800D01*
G75*
G02*
X253096600Y-91131798I0J-249998D01*
G01*
X253096600Y-91656802D01*
G75*
G02*
X252846602Y-91906800I-249998J0D01*
G01*
X251946598Y-91906800D01*
G75*
G02*
X251696600Y-91656802I0J249998D01*
G01*
X251696600Y-91131798D01*
G75*
G02*
X251946598Y-90881800I249998J0D01*
G01*
G37*
G36*
G01*
X251946598Y-89056800D02*
X252846602Y-89056800D01*
G75*
G02*
X253096600Y-89306798I0J-249998D01*
G01*
X253096600Y-89831802D01*
G75*
G02*
X252846602Y-90081800I-249998J0D01*
G01*
X251946598Y-90081800D01*
G75*
G02*
X251696600Y-89831802I0J249998D01*
G01*
X251696600Y-89306798D01*
G75*
G02*
X251946598Y-89056800I249998J0D01*
G01*
G37*
%TD*%
D15*
%TO.C,USB1*%
X252446800Y-85477600D03*
X245996800Y-85477600D03*
X251671800Y-85477600D03*
X246771800Y-85477600D03*
D16*
X247471800Y-85477600D03*
X250971800Y-85477600D03*
X247971800Y-85477600D03*
X250471800Y-85477600D03*
X248471800Y-85477600D03*
X249971800Y-85477600D03*
X249471800Y-85477600D03*
X248971800Y-85477600D03*
%TD*%
D17*
%TO.C,U1*%
X248121800Y-90481800D03*
X248121800Y-89531800D03*
X248121800Y-91431800D03*
X250321800Y-91431800D03*
X250321800Y-90481800D03*
X250321800Y-89531800D03*
%TD*%
%TO.C,D2*%
G36*
G01*
X251265450Y-96381400D02*
X250352950Y-96381400D01*
G75*
G02*
X250109200Y-96137650I0J243750D01*
G01*
X250109200Y-95650150D01*
G75*
G02*
X250352950Y-95406400I243750J0D01*
G01*
X251265450Y-95406400D01*
G75*
G02*
X251509200Y-95650150I0J-243750D01*
G01*
X251509200Y-96137650D01*
G75*
G02*
X251265450Y-96381400I-243750J0D01*
G01*
G37*
G36*
G01*
X251265450Y-98256400D02*
X250352950Y-98256400D01*
G75*
G02*
X250109200Y-98012650I0J243750D01*
G01*
X250109200Y-97525150D01*
G75*
G02*
X250352950Y-97281400I243750J0D01*
G01*
X251265450Y-97281400D01*
G75*
G02*
X251509200Y-97525150I0J-243750D01*
G01*
X251509200Y-98012650D01*
G75*
G02*
X251265450Y-98256400I-243750J0D01*
G01*
G37*
%TD*%
%TO.C,R13*%
G36*
G01*
X245596998Y-90881800D02*
X246497002Y-90881800D01*
G75*
G02*
X246747000Y-91131798I0J-249998D01*
G01*
X246747000Y-91656802D01*
G75*
G02*
X246497002Y-91906800I-249998J0D01*
G01*
X245596998Y-91906800D01*
G75*
G02*
X245347000Y-91656802I0J249998D01*
G01*
X245347000Y-91131798D01*
G75*
G02*
X245596998Y-90881800I249998J0D01*
G01*
G37*
G36*
G01*
X245596998Y-89056800D02*
X246497002Y-89056800D01*
G75*
G02*
X246747000Y-89306798I0J-249998D01*
G01*
X246747000Y-89831802D01*
G75*
G02*
X246497002Y-90081800I-249998J0D01*
G01*
X245596998Y-90081800D01*
G75*
G02*
X245347000Y-89831802I0J249998D01*
G01*
X245347000Y-89306798D01*
G75*
G02*
X245596998Y-89056800I249998J0D01*
G01*
G37*
%TD*%
%TO.C,D1*%
G36*
G01*
X338969300Y-163052200D02*
X338056800Y-163052200D01*
G75*
G02*
X337813050Y-162808450I0J243750D01*
G01*
X337813050Y-162320950D01*
G75*
G02*
X338056800Y-162077200I243750J0D01*
G01*
X338969300Y-162077200D01*
G75*
G02*
X339213050Y-162320950I0J-243750D01*
G01*
X339213050Y-162808450D01*
G75*
G02*
X338969300Y-163052200I-243750J0D01*
G01*
G37*
G36*
G01*
X338969300Y-164927200D02*
X338056800Y-164927200D01*
G75*
G02*
X337813050Y-164683450I0J243750D01*
G01*
X337813050Y-164195950D01*
G75*
G02*
X338056800Y-163952200I243750J0D01*
G01*
X338969300Y-163952200D01*
G75*
G02*
X339213050Y-164195950I0J-243750D01*
G01*
X339213050Y-164683450D01*
G75*
G02*
X338969300Y-164927200I-243750J0D01*
G01*
G37*
%TD*%
%TO.C,U14*%
G36*
G01*
X354846700Y-177514000D02*
X353521700Y-177514000D01*
G75*
G02*
X353446700Y-177439000I0J75000D01*
G01*
X353446700Y-177289000D01*
G75*
G02*
X353521700Y-177214000I75000J0D01*
G01*
X354846700Y-177214000D01*
G75*
G02*
X354921700Y-177289000I0J-75000D01*
G01*
X354921700Y-177439000D01*
G75*
G02*
X354846700Y-177514000I-75000J0D01*
G01*
G37*
G36*
G01*
X354846700Y-177014000D02*
X353521700Y-177014000D01*
G75*
G02*
X353446700Y-176939000I0J75000D01*
G01*
X353446700Y-176789000D01*
G75*
G02*
X353521700Y-176714000I75000J0D01*
G01*
X354846700Y-176714000D01*
G75*
G02*
X354921700Y-176789000I0J-75000D01*
G01*
X354921700Y-176939000D01*
G75*
G02*
X354846700Y-177014000I-75000J0D01*
G01*
G37*
G36*
G01*
X354846700Y-176514000D02*
X353521700Y-176514000D01*
G75*
G02*
X353446700Y-176439000I0J75000D01*
G01*
X353446700Y-176289000D01*
G75*
G02*
X353521700Y-176214000I75000J0D01*
G01*
X354846700Y-176214000D01*
G75*
G02*
X354921700Y-176289000I0J-75000D01*
G01*
X354921700Y-176439000D01*
G75*
G02*
X354846700Y-176514000I-75000J0D01*
G01*
G37*
G36*
G01*
X354846700Y-176014000D02*
X353521700Y-176014000D01*
G75*
G02*
X353446700Y-175939000I0J75000D01*
G01*
X353446700Y-175789000D01*
G75*
G02*
X353521700Y-175714000I75000J0D01*
G01*
X354846700Y-175714000D01*
G75*
G02*
X354921700Y-175789000I0J-75000D01*
G01*
X354921700Y-175939000D01*
G75*
G02*
X354846700Y-176014000I-75000J0D01*
G01*
G37*
G36*
G01*
X354846700Y-175514000D02*
X353521700Y-175514000D01*
G75*
G02*
X353446700Y-175439000I0J75000D01*
G01*
X353446700Y-175289000D01*
G75*
G02*
X353521700Y-175214000I75000J0D01*
G01*
X354846700Y-175214000D01*
G75*
G02*
X354921700Y-175289000I0J-75000D01*
G01*
X354921700Y-175439000D01*
G75*
G02*
X354846700Y-175514000I-75000J0D01*
G01*
G37*
G36*
G01*
X354846700Y-175014000D02*
X353521700Y-175014000D01*
G75*
G02*
X353446700Y-174939000I0J75000D01*
G01*
X353446700Y-174789000D01*
G75*
G02*
X353521700Y-174714000I75000J0D01*
G01*
X354846700Y-174714000D01*
G75*
G02*
X354921700Y-174789000I0J-75000D01*
G01*
X354921700Y-174939000D01*
G75*
G02*
X354846700Y-175014000I-75000J0D01*
G01*
G37*
G36*
G01*
X354846700Y-174514000D02*
X353521700Y-174514000D01*
G75*
G02*
X353446700Y-174439000I0J75000D01*
G01*
X353446700Y-174289000D01*
G75*
G02*
X353521700Y-174214000I75000J0D01*
G01*
X354846700Y-174214000D01*
G75*
G02*
X354921700Y-174289000I0J-75000D01*
G01*
X354921700Y-174439000D01*
G75*
G02*
X354846700Y-174514000I-75000J0D01*
G01*
G37*
G36*
G01*
X354846700Y-174014000D02*
X353521700Y-174014000D01*
G75*
G02*
X353446700Y-173939000I0J75000D01*
G01*
X353446700Y-173789000D01*
G75*
G02*
X353521700Y-173714000I75000J0D01*
G01*
X354846700Y-173714000D01*
G75*
G02*
X354921700Y-173789000I0J-75000D01*
G01*
X354921700Y-173939000D01*
G75*
G02*
X354846700Y-174014000I-75000J0D01*
G01*
G37*
G36*
G01*
X354846700Y-173514000D02*
X353521700Y-173514000D01*
G75*
G02*
X353446700Y-173439000I0J75000D01*
G01*
X353446700Y-173289000D01*
G75*
G02*
X353521700Y-173214000I75000J0D01*
G01*
X354846700Y-173214000D01*
G75*
G02*
X354921700Y-173289000I0J-75000D01*
G01*
X354921700Y-173439000D01*
G75*
G02*
X354846700Y-173514000I-75000J0D01*
G01*
G37*
G36*
G01*
X354846700Y-173014000D02*
X353521700Y-173014000D01*
G75*
G02*
X353446700Y-172939000I0J75000D01*
G01*
X353446700Y-172789000D01*
G75*
G02*
X353521700Y-172714000I75000J0D01*
G01*
X354846700Y-172714000D01*
G75*
G02*
X354921700Y-172789000I0J-75000D01*
G01*
X354921700Y-172939000D01*
G75*
G02*
X354846700Y-173014000I-75000J0D01*
G01*
G37*
G36*
G01*
X354846700Y-172514000D02*
X353521700Y-172514000D01*
G75*
G02*
X353446700Y-172439000I0J75000D01*
G01*
X353446700Y-172289000D01*
G75*
G02*
X353521700Y-172214000I75000J0D01*
G01*
X354846700Y-172214000D01*
G75*
G02*
X354921700Y-172289000I0J-75000D01*
G01*
X354921700Y-172439000D01*
G75*
G02*
X354846700Y-172514000I-75000J0D01*
G01*
G37*
G36*
G01*
X354846700Y-172014000D02*
X353521700Y-172014000D01*
G75*
G02*
X353446700Y-171939000I0J75000D01*
G01*
X353446700Y-171789000D01*
G75*
G02*
X353521700Y-171714000I75000J0D01*
G01*
X354846700Y-171714000D01*
G75*
G02*
X354921700Y-171789000I0J-75000D01*
G01*
X354921700Y-171939000D01*
G75*
G02*
X354846700Y-172014000I-75000J0D01*
G01*
G37*
G36*
G01*
X352846700Y-171189000D02*
X352696700Y-171189000D01*
G75*
G02*
X352621700Y-171114000I0J75000D01*
G01*
X352621700Y-169789000D01*
G75*
G02*
X352696700Y-169714000I75000J0D01*
G01*
X352846700Y-169714000D01*
G75*
G02*
X352921700Y-169789000I0J-75000D01*
G01*
X352921700Y-171114000D01*
G75*
G02*
X352846700Y-171189000I-75000J0D01*
G01*
G37*
G36*
G01*
X352346700Y-171189000D02*
X352196700Y-171189000D01*
G75*
G02*
X352121700Y-171114000I0J75000D01*
G01*
X352121700Y-169789000D01*
G75*
G02*
X352196700Y-169714000I75000J0D01*
G01*
X352346700Y-169714000D01*
G75*
G02*
X352421700Y-169789000I0J-75000D01*
G01*
X352421700Y-171114000D01*
G75*
G02*
X352346700Y-171189000I-75000J0D01*
G01*
G37*
G36*
G01*
X351846700Y-171189000D02*
X351696700Y-171189000D01*
G75*
G02*
X351621700Y-171114000I0J75000D01*
G01*
X351621700Y-169789000D01*
G75*
G02*
X351696700Y-169714000I75000J0D01*
G01*
X351846700Y-169714000D01*
G75*
G02*
X351921700Y-169789000I0J-75000D01*
G01*
X351921700Y-171114000D01*
G75*
G02*
X351846700Y-171189000I-75000J0D01*
G01*
G37*
G36*
G01*
X351346700Y-171189000D02*
X351196700Y-171189000D01*
G75*
G02*
X351121700Y-171114000I0J75000D01*
G01*
X351121700Y-169789000D01*
G75*
G02*
X351196700Y-169714000I75000J0D01*
G01*
X351346700Y-169714000D01*
G75*
G02*
X351421700Y-169789000I0J-75000D01*
G01*
X351421700Y-171114000D01*
G75*
G02*
X351346700Y-171189000I-75000J0D01*
G01*
G37*
G36*
G01*
X350846700Y-171189000D02*
X350696700Y-171189000D01*
G75*
G02*
X350621700Y-171114000I0J75000D01*
G01*
X350621700Y-169789000D01*
G75*
G02*
X350696700Y-169714000I75000J0D01*
G01*
X350846700Y-169714000D01*
G75*
G02*
X350921700Y-169789000I0J-75000D01*
G01*
X350921700Y-171114000D01*
G75*
G02*
X350846700Y-171189000I-75000J0D01*
G01*
G37*
G36*
G01*
X350346700Y-171189000D02*
X350196700Y-171189000D01*
G75*
G02*
X350121700Y-171114000I0J75000D01*
G01*
X350121700Y-169789000D01*
G75*
G02*
X350196700Y-169714000I75000J0D01*
G01*
X350346700Y-169714000D01*
G75*
G02*
X350421700Y-169789000I0J-75000D01*
G01*
X350421700Y-171114000D01*
G75*
G02*
X350346700Y-171189000I-75000J0D01*
G01*
G37*
G36*
G01*
X349846700Y-171189000D02*
X349696700Y-171189000D01*
G75*
G02*
X349621700Y-171114000I0J75000D01*
G01*
X349621700Y-169789000D01*
G75*
G02*
X349696700Y-169714000I75000J0D01*
G01*
X349846700Y-169714000D01*
G75*
G02*
X349921700Y-169789000I0J-75000D01*
G01*
X349921700Y-171114000D01*
G75*
G02*
X349846700Y-171189000I-75000J0D01*
G01*
G37*
G36*
G01*
X349346700Y-171189000D02*
X349196700Y-171189000D01*
G75*
G02*
X349121700Y-171114000I0J75000D01*
G01*
X349121700Y-169789000D01*
G75*
G02*
X349196700Y-169714000I75000J0D01*
G01*
X349346700Y-169714000D01*
G75*
G02*
X349421700Y-169789000I0J-75000D01*
G01*
X349421700Y-171114000D01*
G75*
G02*
X349346700Y-171189000I-75000J0D01*
G01*
G37*
G36*
G01*
X348846700Y-171189000D02*
X348696700Y-171189000D01*
G75*
G02*
X348621700Y-171114000I0J75000D01*
G01*
X348621700Y-169789000D01*
G75*
G02*
X348696700Y-169714000I75000J0D01*
G01*
X348846700Y-169714000D01*
G75*
G02*
X348921700Y-169789000I0J-75000D01*
G01*
X348921700Y-171114000D01*
G75*
G02*
X348846700Y-171189000I-75000J0D01*
G01*
G37*
G36*
G01*
X348346700Y-171189000D02*
X348196700Y-171189000D01*
G75*
G02*
X348121700Y-171114000I0J75000D01*
G01*
X348121700Y-169789000D01*
G75*
G02*
X348196700Y-169714000I75000J0D01*
G01*
X348346700Y-169714000D01*
G75*
G02*
X348421700Y-169789000I0J-75000D01*
G01*
X348421700Y-171114000D01*
G75*
G02*
X348346700Y-171189000I-75000J0D01*
G01*
G37*
G36*
G01*
X347846700Y-171189000D02*
X347696700Y-171189000D01*
G75*
G02*
X347621700Y-171114000I0J75000D01*
G01*
X347621700Y-169789000D01*
G75*
G02*
X347696700Y-169714000I75000J0D01*
G01*
X347846700Y-169714000D01*
G75*
G02*
X347921700Y-169789000I0J-75000D01*
G01*
X347921700Y-171114000D01*
G75*
G02*
X347846700Y-171189000I-75000J0D01*
G01*
G37*
G36*
G01*
X347346700Y-171189000D02*
X347196700Y-171189000D01*
G75*
G02*
X347121700Y-171114000I0J75000D01*
G01*
X347121700Y-169789000D01*
G75*
G02*
X347196700Y-169714000I75000J0D01*
G01*
X347346700Y-169714000D01*
G75*
G02*
X347421700Y-169789000I0J-75000D01*
G01*
X347421700Y-171114000D01*
G75*
G02*
X347346700Y-171189000I-75000J0D01*
G01*
G37*
G36*
G01*
X346521700Y-172014000D02*
X345196700Y-172014000D01*
G75*
G02*
X345121700Y-171939000I0J75000D01*
G01*
X345121700Y-171789000D01*
G75*
G02*
X345196700Y-171714000I75000J0D01*
G01*
X346521700Y-171714000D01*
G75*
G02*
X346596700Y-171789000I0J-75000D01*
G01*
X346596700Y-171939000D01*
G75*
G02*
X346521700Y-172014000I-75000J0D01*
G01*
G37*
G36*
G01*
X346521700Y-172514000D02*
X345196700Y-172514000D01*
G75*
G02*
X345121700Y-172439000I0J75000D01*
G01*
X345121700Y-172289000D01*
G75*
G02*
X345196700Y-172214000I75000J0D01*
G01*
X346521700Y-172214000D01*
G75*
G02*
X346596700Y-172289000I0J-75000D01*
G01*
X346596700Y-172439000D01*
G75*
G02*
X346521700Y-172514000I-75000J0D01*
G01*
G37*
G36*
G01*
X346521700Y-173014000D02*
X345196700Y-173014000D01*
G75*
G02*
X345121700Y-172939000I0J75000D01*
G01*
X345121700Y-172789000D01*
G75*
G02*
X345196700Y-172714000I75000J0D01*
G01*
X346521700Y-172714000D01*
G75*
G02*
X346596700Y-172789000I0J-75000D01*
G01*
X346596700Y-172939000D01*
G75*
G02*
X346521700Y-173014000I-75000J0D01*
G01*
G37*
G36*
G01*
X346521700Y-173514000D02*
X345196700Y-173514000D01*
G75*
G02*
X345121700Y-173439000I0J75000D01*
G01*
X345121700Y-173289000D01*
G75*
G02*
X345196700Y-173214000I75000J0D01*
G01*
X346521700Y-173214000D01*
G75*
G02*
X346596700Y-173289000I0J-75000D01*
G01*
X346596700Y-173439000D01*
G75*
G02*
X346521700Y-173514000I-75000J0D01*
G01*
G37*
G36*
G01*
X346521700Y-174014000D02*
X345196700Y-174014000D01*
G75*
G02*
X345121700Y-173939000I0J75000D01*
G01*
X345121700Y-173789000D01*
G75*
G02*
X345196700Y-173714000I75000J0D01*
G01*
X346521700Y-173714000D01*
G75*
G02*
X346596700Y-173789000I0J-75000D01*
G01*
X346596700Y-173939000D01*
G75*
G02*
X346521700Y-174014000I-75000J0D01*
G01*
G37*
G36*
G01*
X346521700Y-174514000D02*
X345196700Y-174514000D01*
G75*
G02*
X345121700Y-174439000I0J75000D01*
G01*
X345121700Y-174289000D01*
G75*
G02*
X345196700Y-174214000I75000J0D01*
G01*
X346521700Y-174214000D01*
G75*
G02*
X346596700Y-174289000I0J-75000D01*
G01*
X346596700Y-174439000D01*
G75*
G02*
X346521700Y-174514000I-75000J0D01*
G01*
G37*
G36*
G01*
X346521700Y-175014000D02*
X345196700Y-175014000D01*
G75*
G02*
X345121700Y-174939000I0J75000D01*
G01*
X345121700Y-174789000D01*
G75*
G02*
X345196700Y-174714000I75000J0D01*
G01*
X346521700Y-174714000D01*
G75*
G02*
X346596700Y-174789000I0J-75000D01*
G01*
X346596700Y-174939000D01*
G75*
G02*
X346521700Y-175014000I-75000J0D01*
G01*
G37*
G36*
G01*
X346521700Y-175514000D02*
X345196700Y-175514000D01*
G75*
G02*
X345121700Y-175439000I0J75000D01*
G01*
X345121700Y-175289000D01*
G75*
G02*
X345196700Y-175214000I75000J0D01*
G01*
X346521700Y-175214000D01*
G75*
G02*
X346596700Y-175289000I0J-75000D01*
G01*
X346596700Y-175439000D01*
G75*
G02*
X346521700Y-175514000I-75000J0D01*
G01*
G37*
G36*
G01*
X346521700Y-176014000D02*
X345196700Y-176014000D01*
G75*
G02*
X345121700Y-175939000I0J75000D01*
G01*
X345121700Y-175789000D01*
G75*
G02*
X345196700Y-175714000I75000J0D01*
G01*
X346521700Y-175714000D01*
G75*
G02*
X346596700Y-175789000I0J-75000D01*
G01*
X346596700Y-175939000D01*
G75*
G02*
X346521700Y-176014000I-75000J0D01*
G01*
G37*
G36*
G01*
X346521700Y-176514000D02*
X345196700Y-176514000D01*
G75*
G02*
X345121700Y-176439000I0J75000D01*
G01*
X345121700Y-176289000D01*
G75*
G02*
X345196700Y-176214000I75000J0D01*
G01*
X346521700Y-176214000D01*
G75*
G02*
X346596700Y-176289000I0J-75000D01*
G01*
X346596700Y-176439000D01*
G75*
G02*
X346521700Y-176514000I-75000J0D01*
G01*
G37*
G36*
G01*
X346521700Y-177014000D02*
X345196700Y-177014000D01*
G75*
G02*
X345121700Y-176939000I0J75000D01*
G01*
X345121700Y-176789000D01*
G75*
G02*
X345196700Y-176714000I75000J0D01*
G01*
X346521700Y-176714000D01*
G75*
G02*
X346596700Y-176789000I0J-75000D01*
G01*
X346596700Y-176939000D01*
G75*
G02*
X346521700Y-177014000I-75000J0D01*
G01*
G37*
G36*
G01*
X346521700Y-177514000D02*
X345196700Y-177514000D01*
G75*
G02*
X345121700Y-177439000I0J75000D01*
G01*
X345121700Y-177289000D01*
G75*
G02*
X345196700Y-177214000I75000J0D01*
G01*
X346521700Y-177214000D01*
G75*
G02*
X346596700Y-177289000I0J-75000D01*
G01*
X346596700Y-177439000D01*
G75*
G02*
X346521700Y-177514000I-75000J0D01*
G01*
G37*
G36*
G01*
X347346700Y-179514000D02*
X347196700Y-179514000D01*
G75*
G02*
X347121700Y-179439000I0J75000D01*
G01*
X347121700Y-178114000D01*
G75*
G02*
X347196700Y-178039000I75000J0D01*
G01*
X347346700Y-178039000D01*
G75*
G02*
X347421700Y-178114000I0J-75000D01*
G01*
X347421700Y-179439000D01*
G75*
G02*
X347346700Y-179514000I-75000J0D01*
G01*
G37*
G36*
G01*
X347846700Y-179514000D02*
X347696700Y-179514000D01*
G75*
G02*
X347621700Y-179439000I0J75000D01*
G01*
X347621700Y-178114000D01*
G75*
G02*
X347696700Y-178039000I75000J0D01*
G01*
X347846700Y-178039000D01*
G75*
G02*
X347921700Y-178114000I0J-75000D01*
G01*
X347921700Y-179439000D01*
G75*
G02*
X347846700Y-179514000I-75000J0D01*
G01*
G37*
G36*
G01*
X348346700Y-179514000D02*
X348196700Y-179514000D01*
G75*
G02*
X348121700Y-179439000I0J75000D01*
G01*
X348121700Y-178114000D01*
G75*
G02*
X348196700Y-178039000I75000J0D01*
G01*
X348346700Y-178039000D01*
G75*
G02*
X348421700Y-178114000I0J-75000D01*
G01*
X348421700Y-179439000D01*
G75*
G02*
X348346700Y-179514000I-75000J0D01*
G01*
G37*
G36*
G01*
X348846700Y-179514000D02*
X348696700Y-179514000D01*
G75*
G02*
X348621700Y-179439000I0J75000D01*
G01*
X348621700Y-178114000D01*
G75*
G02*
X348696700Y-178039000I75000J0D01*
G01*
X348846700Y-178039000D01*
G75*
G02*
X348921700Y-178114000I0J-75000D01*
G01*
X348921700Y-179439000D01*
G75*
G02*
X348846700Y-179514000I-75000J0D01*
G01*
G37*
G36*
G01*
X349346700Y-179514000D02*
X349196700Y-179514000D01*
G75*
G02*
X349121700Y-179439000I0J75000D01*
G01*
X349121700Y-178114000D01*
G75*
G02*
X349196700Y-178039000I75000J0D01*
G01*
X349346700Y-178039000D01*
G75*
G02*
X349421700Y-178114000I0J-75000D01*
G01*
X349421700Y-179439000D01*
G75*
G02*
X349346700Y-179514000I-75000J0D01*
G01*
G37*
G36*
G01*
X349846700Y-179514000D02*
X349696700Y-179514000D01*
G75*
G02*
X349621700Y-179439000I0J75000D01*
G01*
X349621700Y-178114000D01*
G75*
G02*
X349696700Y-178039000I75000J0D01*
G01*
X349846700Y-178039000D01*
G75*
G02*
X349921700Y-178114000I0J-75000D01*
G01*
X349921700Y-179439000D01*
G75*
G02*
X349846700Y-179514000I-75000J0D01*
G01*
G37*
G36*
G01*
X350346700Y-179514000D02*
X350196700Y-179514000D01*
G75*
G02*
X350121700Y-179439000I0J75000D01*
G01*
X350121700Y-178114000D01*
G75*
G02*
X350196700Y-178039000I75000J0D01*
G01*
X350346700Y-178039000D01*
G75*
G02*
X350421700Y-178114000I0J-75000D01*
G01*
X350421700Y-179439000D01*
G75*
G02*
X350346700Y-179514000I-75000J0D01*
G01*
G37*
G36*
G01*
X350846700Y-179514000D02*
X350696700Y-179514000D01*
G75*
G02*
X350621700Y-179439000I0J75000D01*
G01*
X350621700Y-178114000D01*
G75*
G02*
X350696700Y-178039000I75000J0D01*
G01*
X350846700Y-178039000D01*
G75*
G02*
X350921700Y-178114000I0J-75000D01*
G01*
X350921700Y-179439000D01*
G75*
G02*
X350846700Y-179514000I-75000J0D01*
G01*
G37*
G36*
G01*
X351346700Y-179514000D02*
X351196700Y-179514000D01*
G75*
G02*
X351121700Y-179439000I0J75000D01*
G01*
X351121700Y-178114000D01*
G75*
G02*
X351196700Y-178039000I75000J0D01*
G01*
X351346700Y-178039000D01*
G75*
G02*
X351421700Y-178114000I0J-75000D01*
G01*
X351421700Y-179439000D01*
G75*
G02*
X351346700Y-179514000I-75000J0D01*
G01*
G37*
G36*
G01*
X351846700Y-179514000D02*
X351696700Y-179514000D01*
G75*
G02*
X351621700Y-179439000I0J75000D01*
G01*
X351621700Y-178114000D01*
G75*
G02*
X351696700Y-178039000I75000J0D01*
G01*
X351846700Y-178039000D01*
G75*
G02*
X351921700Y-178114000I0J-75000D01*
G01*
X351921700Y-179439000D01*
G75*
G02*
X351846700Y-179514000I-75000J0D01*
G01*
G37*
G36*
G01*
X352346700Y-179514000D02*
X352196700Y-179514000D01*
G75*
G02*
X352121700Y-179439000I0J75000D01*
G01*
X352121700Y-178114000D01*
G75*
G02*
X352196700Y-178039000I75000J0D01*
G01*
X352346700Y-178039000D01*
G75*
G02*
X352421700Y-178114000I0J-75000D01*
G01*
X352421700Y-179439000D01*
G75*
G02*
X352346700Y-179514000I-75000J0D01*
G01*
G37*
G36*
G01*
X352846700Y-179514000D02*
X352696700Y-179514000D01*
G75*
G02*
X352621700Y-179439000I0J75000D01*
G01*
X352621700Y-178114000D01*
G75*
G02*
X352696700Y-178039000I75000J0D01*
G01*
X352846700Y-178039000D01*
G75*
G02*
X352921700Y-178114000I0J-75000D01*
G01*
X352921700Y-179439000D01*
G75*
G02*
X352846700Y-179514000I-75000J0D01*
G01*
G37*
%TD*%
%TO.C,R2*%
G36*
G01*
X335681948Y-163902200D02*
X336581952Y-163902200D01*
G75*
G02*
X336831950Y-164152198I0J-249998D01*
G01*
X336831950Y-164677202D01*
G75*
G02*
X336581952Y-164927200I-249998J0D01*
G01*
X335681948Y-164927200D01*
G75*
G02*
X335431950Y-164677202I0J249998D01*
G01*
X335431950Y-164152198D01*
G75*
G02*
X335681948Y-163902200I249998J0D01*
G01*
G37*
G36*
G01*
X335681948Y-162077200D02*
X336581952Y-162077200D01*
G75*
G02*
X336831950Y-162327198I0J-249998D01*
G01*
X336831950Y-162852202D01*
G75*
G02*
X336581952Y-163102200I-249998J0D01*
G01*
X335681948Y-163102200D01*
G75*
G02*
X335431950Y-162852202I0J249998D01*
G01*
X335431950Y-162327198D01*
G75*
G02*
X335681948Y-162077200I249998J0D01*
G01*
G37*
%TD*%
%TO.C,C2*%
G36*
G01*
X377457500Y-166358300D02*
X377457500Y-165408300D01*
G75*
G02*
X377707500Y-165158300I250000J0D01*
G01*
X378207500Y-165158300D01*
G75*
G02*
X378457500Y-165408300I0J-250000D01*
G01*
X378457500Y-166358300D01*
G75*
G02*
X378207500Y-166608300I-250000J0D01*
G01*
X377707500Y-166608300D01*
G75*
G02*
X377457500Y-166358300I0J250000D01*
G01*
G37*
G36*
G01*
X375557500Y-166358300D02*
X375557500Y-165408300D01*
G75*
G02*
X375807500Y-165158300I250000J0D01*
G01*
X376307500Y-165158300D01*
G75*
G02*
X376557500Y-165408300I0J-250000D01*
G01*
X376557500Y-166358300D01*
G75*
G02*
X376307500Y-166608300I-250000J0D01*
G01*
X375807500Y-166608300D01*
G75*
G02*
X375557500Y-166358300I0J250000D01*
G01*
G37*
%TD*%
%TO.C,C4*%
G36*
G01*
X368595500Y-164745900D02*
X369545500Y-164745900D01*
G75*
G02*
X369795500Y-164995900I0J-250000D01*
G01*
X369795500Y-165495900D01*
G75*
G02*
X369545500Y-165745900I-250000J0D01*
G01*
X368595500Y-165745900D01*
G75*
G02*
X368345500Y-165495900I0J250000D01*
G01*
X368345500Y-164995900D01*
G75*
G02*
X368595500Y-164745900I250000J0D01*
G01*
G37*
G36*
G01*
X368595500Y-162845900D02*
X369545500Y-162845900D01*
G75*
G02*
X369795500Y-163095900I0J-250000D01*
G01*
X369795500Y-163595900D01*
G75*
G02*
X369545500Y-163845900I-250000J0D01*
G01*
X368595500Y-163845900D01*
G75*
G02*
X368345500Y-163595900I0J250000D01*
G01*
X368345500Y-163095900D01*
G75*
G02*
X368595500Y-162845900I250000J0D01*
G01*
G37*
%TD*%
%TO.C,C5*%
G36*
G01*
X375895100Y-107890050D02*
X374945100Y-107890050D01*
G75*
G02*
X374695100Y-107640050I0J250000D01*
G01*
X374695100Y-107140050D01*
G75*
G02*
X374945100Y-106890050I250000J0D01*
G01*
X375895100Y-106890050D01*
G75*
G02*
X376145100Y-107140050I0J-250000D01*
G01*
X376145100Y-107640050D01*
G75*
G02*
X375895100Y-107890050I-250000J0D01*
G01*
G37*
G36*
G01*
X375895100Y-109790050D02*
X374945100Y-109790050D01*
G75*
G02*
X374695100Y-109540050I0J250000D01*
G01*
X374695100Y-109040050D01*
G75*
G02*
X374945100Y-108790050I250000J0D01*
G01*
X375895100Y-108790050D01*
G75*
G02*
X376145100Y-109040050I0J-250000D01*
G01*
X376145100Y-109540050D01*
G75*
G02*
X375895100Y-109790050I-250000J0D01*
G01*
G37*
%TD*%
%TO.C,C6*%
G36*
G01*
X373514000Y-107890050D02*
X372564000Y-107890050D01*
G75*
G02*
X372314000Y-107640050I0J250000D01*
G01*
X372314000Y-107140050D01*
G75*
G02*
X372564000Y-106890050I250000J0D01*
G01*
X373514000Y-106890050D01*
G75*
G02*
X373764000Y-107140050I0J-250000D01*
G01*
X373764000Y-107640050D01*
G75*
G02*
X373514000Y-107890050I-250000J0D01*
G01*
G37*
G36*
G01*
X373514000Y-109790050D02*
X372564000Y-109790050D01*
G75*
G02*
X372314000Y-109540050I0J250000D01*
G01*
X372314000Y-109040050D01*
G75*
G02*
X372564000Y-108790050I250000J0D01*
G01*
X373514000Y-108790050D01*
G75*
G02*
X373764000Y-109040050I0J-250000D01*
G01*
X373764000Y-109540050D01*
G75*
G02*
X373514000Y-109790050I-250000J0D01*
G01*
G37*
%TD*%
%TO.C,I1*%
G36*
G01*
X367373100Y-110699400D02*
X367373100Y-111164400D01*
G75*
G02*
X367140600Y-111396900I-232500J0D01*
G01*
X366675600Y-111396900D01*
G75*
G02*
X366443100Y-111164400I0J232500D01*
G01*
X366443100Y-110699400D01*
G75*
G02*
X366675600Y-110466900I232500J0D01*
G01*
X367140600Y-110466900D01*
G75*
G02*
X367373100Y-110699400I0J-232500D01*
G01*
G37*
G36*
G01*
X367373100Y-109549400D02*
X367373100Y-110014400D01*
G75*
G02*
X367140600Y-110246900I-232500J0D01*
G01*
X366675600Y-110246900D01*
G75*
G02*
X366443100Y-110014400I0J232500D01*
G01*
X366443100Y-109549400D01*
G75*
G02*
X366675600Y-109316900I232500J0D01*
G01*
X367140600Y-109316900D01*
G75*
G02*
X367373100Y-109549400I0J-232500D01*
G01*
G37*
G36*
G01*
X368523100Y-110699400D02*
X368523100Y-111164400D01*
G75*
G02*
X368290600Y-111396900I-232500J0D01*
G01*
X367825600Y-111396900D01*
G75*
G02*
X367593100Y-111164400I0J232500D01*
G01*
X367593100Y-110699400D01*
G75*
G02*
X367825600Y-110466900I232500J0D01*
G01*
X368290600Y-110466900D01*
G75*
G02*
X368523100Y-110699400I0J-232500D01*
G01*
G37*
G36*
G01*
X368523100Y-109549400D02*
X368523100Y-110014400D01*
G75*
G02*
X368290600Y-110246900I-232500J0D01*
G01*
X367825600Y-110246900D01*
G75*
G02*
X367593100Y-110014400I0J232500D01*
G01*
X367593100Y-109549400D01*
G75*
G02*
X367825600Y-109316900I232500J0D01*
G01*
X368290600Y-109316900D01*
G75*
G02*
X368523100Y-109549400I0J-232500D01*
G01*
G37*
G36*
G01*
X368783100Y-108056900D02*
X368783100Y-108781900D01*
G75*
G02*
X368733100Y-108831900I-50000J0D01*
G01*
X368633100Y-108831900D01*
G75*
G02*
X368583100Y-108781900I0J50000D01*
G01*
X368583100Y-108056900D01*
G75*
G02*
X368633100Y-108006900I50000J0D01*
G01*
X368733100Y-108006900D01*
G75*
G02*
X368783100Y-108056900I0J-50000D01*
G01*
G37*
G36*
G01*
X368383100Y-108056900D02*
X368383100Y-108781900D01*
G75*
G02*
X368333100Y-108831900I-50000J0D01*
G01*
X368233100Y-108831900D01*
G75*
G02*
X368183100Y-108781900I0J50000D01*
G01*
X368183100Y-108056900D01*
G75*
G02*
X368233100Y-108006900I50000J0D01*
G01*
X368333100Y-108006900D01*
G75*
G02*
X368383100Y-108056900I0J-50000D01*
G01*
G37*
G36*
G01*
X367983100Y-108056900D02*
X367983100Y-108781900D01*
G75*
G02*
X367933100Y-108831900I-50000J0D01*
G01*
X367833100Y-108831900D01*
G75*
G02*
X367783100Y-108781900I0J50000D01*
G01*
X367783100Y-108056900D01*
G75*
G02*
X367833100Y-108006900I50000J0D01*
G01*
X367933100Y-108006900D01*
G75*
G02*
X367983100Y-108056900I0J-50000D01*
G01*
G37*
G36*
G01*
X367583100Y-108056900D02*
X367583100Y-108781900D01*
G75*
G02*
X367533100Y-108831900I-50000J0D01*
G01*
X367433100Y-108831900D01*
G75*
G02*
X367383100Y-108781900I0J50000D01*
G01*
X367383100Y-108056900D01*
G75*
G02*
X367433100Y-108006900I50000J0D01*
G01*
X367533100Y-108006900D01*
G75*
G02*
X367583100Y-108056900I0J-50000D01*
G01*
G37*
G36*
G01*
X367183100Y-108056900D02*
X367183100Y-108781900D01*
G75*
G02*
X367133100Y-108831900I-50000J0D01*
G01*
X367033100Y-108831900D01*
G75*
G02*
X366983100Y-108781900I0J50000D01*
G01*
X366983100Y-108056900D01*
G75*
G02*
X367033100Y-108006900I50000J0D01*
G01*
X367133100Y-108006900D01*
G75*
G02*
X367183100Y-108056900I0J-50000D01*
G01*
G37*
G36*
G01*
X366783100Y-108056900D02*
X366783100Y-108781900D01*
G75*
G02*
X366733100Y-108831900I-50000J0D01*
G01*
X366633100Y-108831900D01*
G75*
G02*
X366583100Y-108781900I0J50000D01*
G01*
X366583100Y-108056900D01*
G75*
G02*
X366633100Y-108006900I50000J0D01*
G01*
X366733100Y-108006900D01*
G75*
G02*
X366783100Y-108056900I0J-50000D01*
G01*
G37*
G36*
G01*
X366383100Y-108056900D02*
X366383100Y-108781900D01*
G75*
G02*
X366333100Y-108831900I-50000J0D01*
G01*
X366233100Y-108831900D01*
G75*
G02*
X366183100Y-108781900I0J50000D01*
G01*
X366183100Y-108056900D01*
G75*
G02*
X366233100Y-108006900I50000J0D01*
G01*
X366333100Y-108006900D01*
G75*
G02*
X366383100Y-108056900I0J-50000D01*
G01*
G37*
G36*
G01*
X365958100Y-109106900D02*
X365958100Y-109206900D01*
G75*
G02*
X365908100Y-109256900I-50000J0D01*
G01*
X365183100Y-109256900D01*
G75*
G02*
X365133100Y-109206900I0J50000D01*
G01*
X365133100Y-109106900D01*
G75*
G02*
X365183100Y-109056900I50000J0D01*
G01*
X365908100Y-109056900D01*
G75*
G02*
X365958100Y-109106900I0J-50000D01*
G01*
G37*
G36*
G01*
X365958100Y-109506900D02*
X365958100Y-109606900D01*
G75*
G02*
X365908100Y-109656900I-50000J0D01*
G01*
X365183100Y-109656900D01*
G75*
G02*
X365133100Y-109606900I0J50000D01*
G01*
X365133100Y-109506900D01*
G75*
G02*
X365183100Y-109456900I50000J0D01*
G01*
X365908100Y-109456900D01*
G75*
G02*
X365958100Y-109506900I0J-50000D01*
G01*
G37*
G36*
G01*
X365958100Y-109906900D02*
X365958100Y-110006900D01*
G75*
G02*
X365908100Y-110056900I-50000J0D01*
G01*
X365183100Y-110056900D01*
G75*
G02*
X365133100Y-110006900I0J50000D01*
G01*
X365133100Y-109906900D01*
G75*
G02*
X365183100Y-109856900I50000J0D01*
G01*
X365908100Y-109856900D01*
G75*
G02*
X365958100Y-109906900I0J-50000D01*
G01*
G37*
G36*
G01*
X365958100Y-110306900D02*
X365958100Y-110406900D01*
G75*
G02*
X365908100Y-110456900I-50000J0D01*
G01*
X365183100Y-110456900D01*
G75*
G02*
X365133100Y-110406900I0J50000D01*
G01*
X365133100Y-110306900D01*
G75*
G02*
X365183100Y-110256900I50000J0D01*
G01*
X365908100Y-110256900D01*
G75*
G02*
X365958100Y-110306900I0J-50000D01*
G01*
G37*
G36*
G01*
X365958100Y-110706900D02*
X365958100Y-110806900D01*
G75*
G02*
X365908100Y-110856900I-50000J0D01*
G01*
X365183100Y-110856900D01*
G75*
G02*
X365133100Y-110806900I0J50000D01*
G01*
X365133100Y-110706900D01*
G75*
G02*
X365183100Y-110656900I50000J0D01*
G01*
X365908100Y-110656900D01*
G75*
G02*
X365958100Y-110706900I0J-50000D01*
G01*
G37*
G36*
G01*
X365958100Y-111106900D02*
X365958100Y-111206900D01*
G75*
G02*
X365908100Y-111256900I-50000J0D01*
G01*
X365183100Y-111256900D01*
G75*
G02*
X365133100Y-111206900I0J50000D01*
G01*
X365133100Y-111106900D01*
G75*
G02*
X365183100Y-111056900I50000J0D01*
G01*
X365908100Y-111056900D01*
G75*
G02*
X365958100Y-111106900I0J-50000D01*
G01*
G37*
G36*
G01*
X365958100Y-111506900D02*
X365958100Y-111606900D01*
G75*
G02*
X365908100Y-111656900I-50000J0D01*
G01*
X365183100Y-111656900D01*
G75*
G02*
X365133100Y-111606900I0J50000D01*
G01*
X365133100Y-111506900D01*
G75*
G02*
X365183100Y-111456900I50000J0D01*
G01*
X365908100Y-111456900D01*
G75*
G02*
X365958100Y-111506900I0J-50000D01*
G01*
G37*
G36*
G01*
X366383100Y-111931900D02*
X366383100Y-112656900D01*
G75*
G02*
X366333100Y-112706900I-50000J0D01*
G01*
X366233100Y-112706900D01*
G75*
G02*
X366183100Y-112656900I0J50000D01*
G01*
X366183100Y-111931900D01*
G75*
G02*
X366233100Y-111881900I50000J0D01*
G01*
X366333100Y-111881900D01*
G75*
G02*
X366383100Y-111931900I0J-50000D01*
G01*
G37*
G36*
G01*
X366783100Y-111931900D02*
X366783100Y-112656900D01*
G75*
G02*
X366733100Y-112706900I-50000J0D01*
G01*
X366633100Y-112706900D01*
G75*
G02*
X366583100Y-112656900I0J50000D01*
G01*
X366583100Y-111931900D01*
G75*
G02*
X366633100Y-111881900I50000J0D01*
G01*
X366733100Y-111881900D01*
G75*
G02*
X366783100Y-111931900I0J-50000D01*
G01*
G37*
G36*
G01*
X367183100Y-111931900D02*
X367183100Y-112656900D01*
G75*
G02*
X367133100Y-112706900I-50000J0D01*
G01*
X367033100Y-112706900D01*
G75*
G02*
X366983100Y-112656900I0J50000D01*
G01*
X366983100Y-111931900D01*
G75*
G02*
X367033100Y-111881900I50000J0D01*
G01*
X367133100Y-111881900D01*
G75*
G02*
X367183100Y-111931900I0J-50000D01*
G01*
G37*
G36*
G01*
X367583100Y-111931900D02*
X367583100Y-112656900D01*
G75*
G02*
X367533100Y-112706900I-50000J0D01*
G01*
X367433100Y-112706900D01*
G75*
G02*
X367383100Y-112656900I0J50000D01*
G01*
X367383100Y-111931900D01*
G75*
G02*
X367433100Y-111881900I50000J0D01*
G01*
X367533100Y-111881900D01*
G75*
G02*
X367583100Y-111931900I0J-50000D01*
G01*
G37*
G36*
G01*
X367983100Y-111931900D02*
X367983100Y-112656900D01*
G75*
G02*
X367933100Y-112706900I-50000J0D01*
G01*
X367833100Y-112706900D01*
G75*
G02*
X367783100Y-112656900I0J50000D01*
G01*
X367783100Y-111931900D01*
G75*
G02*
X367833100Y-111881900I50000J0D01*
G01*
X367933100Y-111881900D01*
G75*
G02*
X367983100Y-111931900I0J-50000D01*
G01*
G37*
G36*
G01*
X368383100Y-111931900D02*
X368383100Y-112656900D01*
G75*
G02*
X368333100Y-112706900I-50000J0D01*
G01*
X368233100Y-112706900D01*
G75*
G02*
X368183100Y-112656900I0J50000D01*
G01*
X368183100Y-111931900D01*
G75*
G02*
X368233100Y-111881900I50000J0D01*
G01*
X368333100Y-111881900D01*
G75*
G02*
X368383100Y-111931900I0J-50000D01*
G01*
G37*
G36*
G01*
X368783100Y-111931900D02*
X368783100Y-112656900D01*
G75*
G02*
X368733100Y-112706900I-50000J0D01*
G01*
X368633100Y-112706900D01*
G75*
G02*
X368583100Y-112656900I0J50000D01*
G01*
X368583100Y-111931900D01*
G75*
G02*
X368633100Y-111881900I50000J0D01*
G01*
X368733100Y-111881900D01*
G75*
G02*
X368783100Y-111931900I0J-50000D01*
G01*
G37*
G36*
G01*
X369833100Y-111506900D02*
X369833100Y-111606900D01*
G75*
G02*
X369783100Y-111656900I-50000J0D01*
G01*
X369058100Y-111656900D01*
G75*
G02*
X369008100Y-111606900I0J50000D01*
G01*
X369008100Y-111506900D01*
G75*
G02*
X369058100Y-111456900I50000J0D01*
G01*
X369783100Y-111456900D01*
G75*
G02*
X369833100Y-111506900I0J-50000D01*
G01*
G37*
G36*
G01*
X369833100Y-111106900D02*
X369833100Y-111206900D01*
G75*
G02*
X369783100Y-111256900I-50000J0D01*
G01*
X369058100Y-111256900D01*
G75*
G02*
X369008100Y-111206900I0J50000D01*
G01*
X369008100Y-111106900D01*
G75*
G02*
X369058100Y-111056900I50000J0D01*
G01*
X369783100Y-111056900D01*
G75*
G02*
X369833100Y-111106900I0J-50000D01*
G01*
G37*
G36*
G01*
X369833100Y-110706900D02*
X369833100Y-110806900D01*
G75*
G02*
X369783100Y-110856900I-50000J0D01*
G01*
X369058100Y-110856900D01*
G75*
G02*
X369008100Y-110806900I0J50000D01*
G01*
X369008100Y-110706900D01*
G75*
G02*
X369058100Y-110656900I50000J0D01*
G01*
X369783100Y-110656900D01*
G75*
G02*
X369833100Y-110706900I0J-50000D01*
G01*
G37*
G36*
G01*
X369833100Y-110306900D02*
X369833100Y-110406900D01*
G75*
G02*
X369783100Y-110456900I-50000J0D01*
G01*
X369058100Y-110456900D01*
G75*
G02*
X369008100Y-110406900I0J50000D01*
G01*
X369008100Y-110306900D01*
G75*
G02*
X369058100Y-110256900I50000J0D01*
G01*
X369783100Y-110256900D01*
G75*
G02*
X369833100Y-110306900I0J-50000D01*
G01*
G37*
G36*
G01*
X369833100Y-109906900D02*
X369833100Y-110006900D01*
G75*
G02*
X369783100Y-110056900I-50000J0D01*
G01*
X369058100Y-110056900D01*
G75*
G02*
X369008100Y-110006900I0J50000D01*
G01*
X369008100Y-109906900D01*
G75*
G02*
X369058100Y-109856900I50000J0D01*
G01*
X369783100Y-109856900D01*
G75*
G02*
X369833100Y-109906900I0J-50000D01*
G01*
G37*
G36*
G01*
X369833100Y-109506900D02*
X369833100Y-109606900D01*
G75*
G02*
X369783100Y-109656900I-50000J0D01*
G01*
X369058100Y-109656900D01*
G75*
G02*
X369008100Y-109606900I0J50000D01*
G01*
X369008100Y-109506900D01*
G75*
G02*
X369058100Y-109456900I50000J0D01*
G01*
X369783100Y-109456900D01*
G75*
G02*
X369833100Y-109506900I0J-50000D01*
G01*
G37*
G36*
G01*
X369833100Y-109106900D02*
X369833100Y-109206900D01*
G75*
G02*
X369783100Y-109256900I-50000J0D01*
G01*
X369058100Y-109256900D01*
G75*
G02*
X369008100Y-109206900I0J50000D01*
G01*
X369008100Y-109106900D01*
G75*
G02*
X369058100Y-109056900I50000J0D01*
G01*
X369783100Y-109056900D01*
G75*
G02*
X369833100Y-109106900I0J-50000D01*
G01*
G37*
%TD*%
D18*
%TO.C,Q1*%
X371245300Y-166677000D03*
X373245300Y-167627000D03*
X373245300Y-165727000D03*
%TD*%
%TO.C,R5*%
G36*
G01*
X371001598Y-162314800D02*
X371901602Y-162314800D01*
G75*
G02*
X372151600Y-162564798I0J-249998D01*
G01*
X372151600Y-163089802D01*
G75*
G02*
X371901602Y-163339800I-249998J0D01*
G01*
X371001598Y-163339800D01*
G75*
G02*
X370751600Y-163089802I0J249998D01*
G01*
X370751600Y-162564798D01*
G75*
G02*
X371001598Y-162314800I249998J0D01*
G01*
G37*
G36*
G01*
X371001598Y-160489800D02*
X371901602Y-160489800D01*
G75*
G02*
X372151600Y-160739798I0J-249998D01*
G01*
X372151600Y-161264802D01*
G75*
G02*
X371901602Y-161514800I-249998J0D01*
G01*
X371001598Y-161514800D01*
G75*
G02*
X370751600Y-161264802I0J249998D01*
G01*
X370751600Y-160739798D01*
G75*
G02*
X371001598Y-160489800I249998J0D01*
G01*
G37*
%TD*%
%TO.C,R6*%
G36*
G01*
X378144898Y-169458100D02*
X379044902Y-169458100D01*
G75*
G02*
X379294900Y-169708098I0J-249998D01*
G01*
X379294900Y-170233102D01*
G75*
G02*
X379044902Y-170483100I-249998J0D01*
G01*
X378144898Y-170483100D01*
G75*
G02*
X377894900Y-170233102I0J249998D01*
G01*
X377894900Y-169708098D01*
G75*
G02*
X378144898Y-169458100I249998J0D01*
G01*
G37*
G36*
G01*
X378144898Y-167633100D02*
X379044902Y-167633100D01*
G75*
G02*
X379294900Y-167883098I0J-249998D01*
G01*
X379294900Y-168408102D01*
G75*
G02*
X379044902Y-168658100I-249998J0D01*
G01*
X378144898Y-168658100D01*
G75*
G02*
X377894900Y-168408102I0J249998D01*
G01*
X377894900Y-167883098D01*
G75*
G02*
X378144898Y-167633100I249998J0D01*
G01*
G37*
%TD*%
%TO.C,R11*%
G36*
G01*
X372588998Y-112708550D02*
X373489002Y-112708550D01*
G75*
G02*
X373739000Y-112958548I0J-249998D01*
G01*
X373739000Y-113483552D01*
G75*
G02*
X373489002Y-113733550I-249998J0D01*
G01*
X372588998Y-113733550D01*
G75*
G02*
X372339000Y-113483552I0J249998D01*
G01*
X372339000Y-112958548D01*
G75*
G02*
X372588998Y-112708550I249998J0D01*
G01*
G37*
G36*
G01*
X372588998Y-110883550D02*
X373489002Y-110883550D01*
G75*
G02*
X373739000Y-111133548I0J-249998D01*
G01*
X373739000Y-111658552D01*
G75*
G02*
X373489002Y-111908550I-249998J0D01*
G01*
X372588998Y-111908550D01*
G75*
G02*
X372339000Y-111658552I0J249998D01*
G01*
X372339000Y-111133548D01*
G75*
G02*
X372588998Y-110883550I249998J0D01*
G01*
G37*
%TD*%
%TO.C,C10*%
G36*
G01*
X282107200Y-174932700D02*
X282107200Y-175882700D01*
G75*
G02*
X281857200Y-176132700I-250000J0D01*
G01*
X281357200Y-176132700D01*
G75*
G02*
X281107200Y-175882700I0J250000D01*
G01*
X281107200Y-174932700D01*
G75*
G02*
X281357200Y-174682700I250000J0D01*
G01*
X281857200Y-174682700D01*
G75*
G02*
X282107200Y-174932700I0J-250000D01*
G01*
G37*
G36*
G01*
X284007200Y-174932700D02*
X284007200Y-175882700D01*
G75*
G02*
X283757200Y-176132700I-250000J0D01*
G01*
X283257200Y-176132700D01*
G75*
G02*
X283007200Y-175882700I0J250000D01*
G01*
X283007200Y-174932700D01*
G75*
G02*
X283257200Y-174682700I250000J0D01*
G01*
X283757200Y-174682700D01*
G75*
G02*
X284007200Y-174932700I0J-250000D01*
G01*
G37*
%TD*%
%TO.C,C11*%
G36*
G01*
X282107200Y-177313800D02*
X282107200Y-178263800D01*
G75*
G02*
X281857200Y-178513800I-250000J0D01*
G01*
X281357200Y-178513800D01*
G75*
G02*
X281107200Y-178263800I0J250000D01*
G01*
X281107200Y-177313800D01*
G75*
G02*
X281357200Y-177063800I250000J0D01*
G01*
X281857200Y-177063800D01*
G75*
G02*
X282107200Y-177313800I0J-250000D01*
G01*
G37*
G36*
G01*
X284007200Y-177313800D02*
X284007200Y-178263800D01*
G75*
G02*
X283757200Y-178513800I-250000J0D01*
G01*
X283257200Y-178513800D01*
G75*
G02*
X283007200Y-178263800I0J250000D01*
G01*
X283007200Y-177313800D01*
G75*
G02*
X283257200Y-177063800I250000J0D01*
G01*
X283757200Y-177063800D01*
G75*
G02*
X284007200Y-177313800I0J-250000D01*
G01*
G37*
%TD*%
%TO.C,C12*%
G36*
G01*
X326554400Y-180885450D02*
X326554400Y-181835450D01*
G75*
G02*
X326304400Y-182085450I-250000J0D01*
G01*
X325804400Y-182085450D01*
G75*
G02*
X325554400Y-181835450I0J250000D01*
G01*
X325554400Y-180885450D01*
G75*
G02*
X325804400Y-180635450I250000J0D01*
G01*
X326304400Y-180635450D01*
G75*
G02*
X326554400Y-180885450I0J-250000D01*
G01*
G37*
G36*
G01*
X328454400Y-180885450D02*
X328454400Y-181835450D01*
G75*
G02*
X328204400Y-182085450I-250000J0D01*
G01*
X327704400Y-182085450D01*
G75*
G02*
X327454400Y-181835450I0J250000D01*
G01*
X327454400Y-180885450D01*
G75*
G02*
X327704400Y-180635450I250000J0D01*
G01*
X328204400Y-180635450D01*
G75*
G02*
X328454400Y-180885450I0J-250000D01*
G01*
G37*
%TD*%
%TO.C,C13*%
G36*
G01*
X326554400Y-183266550D02*
X326554400Y-184216550D01*
G75*
G02*
X326304400Y-184466550I-250000J0D01*
G01*
X325804400Y-184466550D01*
G75*
G02*
X325554400Y-184216550I0J250000D01*
G01*
X325554400Y-183266550D01*
G75*
G02*
X325804400Y-183016550I250000J0D01*
G01*
X326304400Y-183016550D01*
G75*
G02*
X326554400Y-183266550I0J-250000D01*
G01*
G37*
G36*
G01*
X328454400Y-183266550D02*
X328454400Y-184216550D01*
G75*
G02*
X328204400Y-184466550I-250000J0D01*
G01*
X327704400Y-184466550D01*
G75*
G02*
X327454400Y-184216550I0J250000D01*
G01*
X327454400Y-183266550D01*
G75*
G02*
X327704400Y-183016550I250000J0D01*
G01*
X328204400Y-183016550D01*
G75*
G02*
X328454400Y-183266550I0J-250000D01*
G01*
G37*
%TD*%
%TO.C,I2*%
G36*
G01*
X284487100Y-182661000D02*
X284952100Y-182661000D01*
G75*
G02*
X285184600Y-182893500I0J-232500D01*
G01*
X285184600Y-183358500D01*
G75*
G02*
X284952100Y-183591000I-232500J0D01*
G01*
X284487100Y-183591000D01*
G75*
G02*
X284254600Y-183358500I0J232500D01*
G01*
X284254600Y-182893500D01*
G75*
G02*
X284487100Y-182661000I232500J0D01*
G01*
G37*
G36*
G01*
X283337100Y-182661000D02*
X283802100Y-182661000D01*
G75*
G02*
X284034600Y-182893500I0J-232500D01*
G01*
X284034600Y-183358500D01*
G75*
G02*
X283802100Y-183591000I-232500J0D01*
G01*
X283337100Y-183591000D01*
G75*
G02*
X283104600Y-183358500I0J232500D01*
G01*
X283104600Y-182893500D01*
G75*
G02*
X283337100Y-182661000I232500J0D01*
G01*
G37*
G36*
G01*
X284487100Y-181511000D02*
X284952100Y-181511000D01*
G75*
G02*
X285184600Y-181743500I0J-232500D01*
G01*
X285184600Y-182208500D01*
G75*
G02*
X284952100Y-182441000I-232500J0D01*
G01*
X284487100Y-182441000D01*
G75*
G02*
X284254600Y-182208500I0J232500D01*
G01*
X284254600Y-181743500D01*
G75*
G02*
X284487100Y-181511000I232500J0D01*
G01*
G37*
G36*
G01*
X283337100Y-181511000D02*
X283802100Y-181511000D01*
G75*
G02*
X284034600Y-181743500I0J-232500D01*
G01*
X284034600Y-182208500D01*
G75*
G02*
X283802100Y-182441000I-232500J0D01*
G01*
X283337100Y-182441000D01*
G75*
G02*
X283104600Y-182208500I0J232500D01*
G01*
X283104600Y-181743500D01*
G75*
G02*
X283337100Y-181511000I232500J0D01*
G01*
G37*
G36*
G01*
X281844600Y-181251000D02*
X282569600Y-181251000D01*
G75*
G02*
X282619600Y-181301000I0J-50000D01*
G01*
X282619600Y-181401000D01*
G75*
G02*
X282569600Y-181451000I-50000J0D01*
G01*
X281844600Y-181451000D01*
G75*
G02*
X281794600Y-181401000I0J50000D01*
G01*
X281794600Y-181301000D01*
G75*
G02*
X281844600Y-181251000I50000J0D01*
G01*
G37*
G36*
G01*
X281844600Y-181651000D02*
X282569600Y-181651000D01*
G75*
G02*
X282619600Y-181701000I0J-50000D01*
G01*
X282619600Y-181801000D01*
G75*
G02*
X282569600Y-181851000I-50000J0D01*
G01*
X281844600Y-181851000D01*
G75*
G02*
X281794600Y-181801000I0J50000D01*
G01*
X281794600Y-181701000D01*
G75*
G02*
X281844600Y-181651000I50000J0D01*
G01*
G37*
G36*
G01*
X281844600Y-182051000D02*
X282569600Y-182051000D01*
G75*
G02*
X282619600Y-182101000I0J-50000D01*
G01*
X282619600Y-182201000D01*
G75*
G02*
X282569600Y-182251000I-50000J0D01*
G01*
X281844600Y-182251000D01*
G75*
G02*
X281794600Y-182201000I0J50000D01*
G01*
X281794600Y-182101000D01*
G75*
G02*
X281844600Y-182051000I50000J0D01*
G01*
G37*
G36*
G01*
X281844600Y-182451000D02*
X282569600Y-182451000D01*
G75*
G02*
X282619600Y-182501000I0J-50000D01*
G01*
X282619600Y-182601000D01*
G75*
G02*
X282569600Y-182651000I-50000J0D01*
G01*
X281844600Y-182651000D01*
G75*
G02*
X281794600Y-182601000I0J50000D01*
G01*
X281794600Y-182501000D01*
G75*
G02*
X281844600Y-182451000I50000J0D01*
G01*
G37*
G36*
G01*
X281844600Y-182851000D02*
X282569600Y-182851000D01*
G75*
G02*
X282619600Y-182901000I0J-50000D01*
G01*
X282619600Y-183001000D01*
G75*
G02*
X282569600Y-183051000I-50000J0D01*
G01*
X281844600Y-183051000D01*
G75*
G02*
X281794600Y-183001000I0J50000D01*
G01*
X281794600Y-182901000D01*
G75*
G02*
X281844600Y-182851000I50000J0D01*
G01*
G37*
G36*
G01*
X281844600Y-183251000D02*
X282569600Y-183251000D01*
G75*
G02*
X282619600Y-183301000I0J-50000D01*
G01*
X282619600Y-183401000D01*
G75*
G02*
X282569600Y-183451000I-50000J0D01*
G01*
X281844600Y-183451000D01*
G75*
G02*
X281794600Y-183401000I0J50000D01*
G01*
X281794600Y-183301000D01*
G75*
G02*
X281844600Y-183251000I50000J0D01*
G01*
G37*
G36*
G01*
X281844600Y-183651000D02*
X282569600Y-183651000D01*
G75*
G02*
X282619600Y-183701000I0J-50000D01*
G01*
X282619600Y-183801000D01*
G75*
G02*
X282569600Y-183851000I-50000J0D01*
G01*
X281844600Y-183851000D01*
G75*
G02*
X281794600Y-183801000I0J50000D01*
G01*
X281794600Y-183701000D01*
G75*
G02*
X281844600Y-183651000I50000J0D01*
G01*
G37*
G36*
G01*
X282894600Y-184076000D02*
X282994600Y-184076000D01*
G75*
G02*
X283044600Y-184126000I0J-50000D01*
G01*
X283044600Y-184851000D01*
G75*
G02*
X282994600Y-184901000I-50000J0D01*
G01*
X282894600Y-184901000D01*
G75*
G02*
X282844600Y-184851000I0J50000D01*
G01*
X282844600Y-184126000D01*
G75*
G02*
X282894600Y-184076000I50000J0D01*
G01*
G37*
G36*
G01*
X283294600Y-184076000D02*
X283394600Y-184076000D01*
G75*
G02*
X283444600Y-184126000I0J-50000D01*
G01*
X283444600Y-184851000D01*
G75*
G02*
X283394600Y-184901000I-50000J0D01*
G01*
X283294600Y-184901000D01*
G75*
G02*
X283244600Y-184851000I0J50000D01*
G01*
X283244600Y-184126000D01*
G75*
G02*
X283294600Y-184076000I50000J0D01*
G01*
G37*
G36*
G01*
X283694600Y-184076000D02*
X283794600Y-184076000D01*
G75*
G02*
X283844600Y-184126000I0J-50000D01*
G01*
X283844600Y-184851000D01*
G75*
G02*
X283794600Y-184901000I-50000J0D01*
G01*
X283694600Y-184901000D01*
G75*
G02*
X283644600Y-184851000I0J50000D01*
G01*
X283644600Y-184126000D01*
G75*
G02*
X283694600Y-184076000I50000J0D01*
G01*
G37*
G36*
G01*
X284094600Y-184076000D02*
X284194600Y-184076000D01*
G75*
G02*
X284244600Y-184126000I0J-50000D01*
G01*
X284244600Y-184851000D01*
G75*
G02*
X284194600Y-184901000I-50000J0D01*
G01*
X284094600Y-184901000D01*
G75*
G02*
X284044600Y-184851000I0J50000D01*
G01*
X284044600Y-184126000D01*
G75*
G02*
X284094600Y-184076000I50000J0D01*
G01*
G37*
G36*
G01*
X284494600Y-184076000D02*
X284594600Y-184076000D01*
G75*
G02*
X284644600Y-184126000I0J-50000D01*
G01*
X284644600Y-184851000D01*
G75*
G02*
X284594600Y-184901000I-50000J0D01*
G01*
X284494600Y-184901000D01*
G75*
G02*
X284444600Y-184851000I0J50000D01*
G01*
X284444600Y-184126000D01*
G75*
G02*
X284494600Y-184076000I50000J0D01*
G01*
G37*
G36*
G01*
X284894600Y-184076000D02*
X284994600Y-184076000D01*
G75*
G02*
X285044600Y-184126000I0J-50000D01*
G01*
X285044600Y-184851000D01*
G75*
G02*
X284994600Y-184901000I-50000J0D01*
G01*
X284894600Y-184901000D01*
G75*
G02*
X284844600Y-184851000I0J50000D01*
G01*
X284844600Y-184126000D01*
G75*
G02*
X284894600Y-184076000I50000J0D01*
G01*
G37*
G36*
G01*
X285294600Y-184076000D02*
X285394600Y-184076000D01*
G75*
G02*
X285444600Y-184126000I0J-50000D01*
G01*
X285444600Y-184851000D01*
G75*
G02*
X285394600Y-184901000I-50000J0D01*
G01*
X285294600Y-184901000D01*
G75*
G02*
X285244600Y-184851000I0J50000D01*
G01*
X285244600Y-184126000D01*
G75*
G02*
X285294600Y-184076000I50000J0D01*
G01*
G37*
G36*
G01*
X285719600Y-183651000D02*
X286444600Y-183651000D01*
G75*
G02*
X286494600Y-183701000I0J-50000D01*
G01*
X286494600Y-183801000D01*
G75*
G02*
X286444600Y-183851000I-50000J0D01*
G01*
X285719600Y-183851000D01*
G75*
G02*
X285669600Y-183801000I0J50000D01*
G01*
X285669600Y-183701000D01*
G75*
G02*
X285719600Y-183651000I50000J0D01*
G01*
G37*
G36*
G01*
X285719600Y-183251000D02*
X286444600Y-183251000D01*
G75*
G02*
X286494600Y-183301000I0J-50000D01*
G01*
X286494600Y-183401000D01*
G75*
G02*
X286444600Y-183451000I-50000J0D01*
G01*
X285719600Y-183451000D01*
G75*
G02*
X285669600Y-183401000I0J50000D01*
G01*
X285669600Y-183301000D01*
G75*
G02*
X285719600Y-183251000I50000J0D01*
G01*
G37*
G36*
G01*
X285719600Y-182851000D02*
X286444600Y-182851000D01*
G75*
G02*
X286494600Y-182901000I0J-50000D01*
G01*
X286494600Y-183001000D01*
G75*
G02*
X286444600Y-183051000I-50000J0D01*
G01*
X285719600Y-183051000D01*
G75*
G02*
X285669600Y-183001000I0J50000D01*
G01*
X285669600Y-182901000D01*
G75*
G02*
X285719600Y-182851000I50000J0D01*
G01*
G37*
G36*
G01*
X285719600Y-182451000D02*
X286444600Y-182451000D01*
G75*
G02*
X286494600Y-182501000I0J-50000D01*
G01*
X286494600Y-182601000D01*
G75*
G02*
X286444600Y-182651000I-50000J0D01*
G01*
X285719600Y-182651000D01*
G75*
G02*
X285669600Y-182601000I0J50000D01*
G01*
X285669600Y-182501000D01*
G75*
G02*
X285719600Y-182451000I50000J0D01*
G01*
G37*
G36*
G01*
X285719600Y-182051000D02*
X286444600Y-182051000D01*
G75*
G02*
X286494600Y-182101000I0J-50000D01*
G01*
X286494600Y-182201000D01*
G75*
G02*
X286444600Y-182251000I-50000J0D01*
G01*
X285719600Y-182251000D01*
G75*
G02*
X285669600Y-182201000I0J50000D01*
G01*
X285669600Y-182101000D01*
G75*
G02*
X285719600Y-182051000I50000J0D01*
G01*
G37*
G36*
G01*
X285719600Y-181651000D02*
X286444600Y-181651000D01*
G75*
G02*
X286494600Y-181701000I0J-50000D01*
G01*
X286494600Y-181801000D01*
G75*
G02*
X286444600Y-181851000I-50000J0D01*
G01*
X285719600Y-181851000D01*
G75*
G02*
X285669600Y-181801000I0J50000D01*
G01*
X285669600Y-181701000D01*
G75*
G02*
X285719600Y-181651000I50000J0D01*
G01*
G37*
G36*
G01*
X285719600Y-181251000D02*
X286444600Y-181251000D01*
G75*
G02*
X286494600Y-181301000I0J-50000D01*
G01*
X286494600Y-181401000D01*
G75*
G02*
X286444600Y-181451000I-50000J0D01*
G01*
X285719600Y-181451000D01*
G75*
G02*
X285669600Y-181401000I0J50000D01*
G01*
X285669600Y-181301000D01*
G75*
G02*
X285719600Y-181251000I50000J0D01*
G01*
G37*
G36*
G01*
X285294600Y-180201000D02*
X285394600Y-180201000D01*
G75*
G02*
X285444600Y-180251000I0J-50000D01*
G01*
X285444600Y-180976000D01*
G75*
G02*
X285394600Y-181026000I-50000J0D01*
G01*
X285294600Y-181026000D01*
G75*
G02*
X285244600Y-180976000I0J50000D01*
G01*
X285244600Y-180251000D01*
G75*
G02*
X285294600Y-180201000I50000J0D01*
G01*
G37*
G36*
G01*
X284894600Y-180201000D02*
X284994600Y-180201000D01*
G75*
G02*
X285044600Y-180251000I0J-50000D01*
G01*
X285044600Y-180976000D01*
G75*
G02*
X284994600Y-181026000I-50000J0D01*
G01*
X284894600Y-181026000D01*
G75*
G02*
X284844600Y-180976000I0J50000D01*
G01*
X284844600Y-180251000D01*
G75*
G02*
X284894600Y-180201000I50000J0D01*
G01*
G37*
G36*
G01*
X284494600Y-180201000D02*
X284594600Y-180201000D01*
G75*
G02*
X284644600Y-180251000I0J-50000D01*
G01*
X284644600Y-180976000D01*
G75*
G02*
X284594600Y-181026000I-50000J0D01*
G01*
X284494600Y-181026000D01*
G75*
G02*
X284444600Y-180976000I0J50000D01*
G01*
X284444600Y-180251000D01*
G75*
G02*
X284494600Y-180201000I50000J0D01*
G01*
G37*
G36*
G01*
X284094600Y-180201000D02*
X284194600Y-180201000D01*
G75*
G02*
X284244600Y-180251000I0J-50000D01*
G01*
X284244600Y-180976000D01*
G75*
G02*
X284194600Y-181026000I-50000J0D01*
G01*
X284094600Y-181026000D01*
G75*
G02*
X284044600Y-180976000I0J50000D01*
G01*
X284044600Y-180251000D01*
G75*
G02*
X284094600Y-180201000I50000J0D01*
G01*
G37*
G36*
G01*
X283694600Y-180201000D02*
X283794600Y-180201000D01*
G75*
G02*
X283844600Y-180251000I0J-50000D01*
G01*
X283844600Y-180976000D01*
G75*
G02*
X283794600Y-181026000I-50000J0D01*
G01*
X283694600Y-181026000D01*
G75*
G02*
X283644600Y-180976000I0J50000D01*
G01*
X283644600Y-180251000D01*
G75*
G02*
X283694600Y-180201000I50000J0D01*
G01*
G37*
G36*
G01*
X283294600Y-180201000D02*
X283394600Y-180201000D01*
G75*
G02*
X283444600Y-180251000I0J-50000D01*
G01*
X283444600Y-180976000D01*
G75*
G02*
X283394600Y-181026000I-50000J0D01*
G01*
X283294600Y-181026000D01*
G75*
G02*
X283244600Y-180976000I0J50000D01*
G01*
X283244600Y-180251000D01*
G75*
G02*
X283294600Y-180201000I50000J0D01*
G01*
G37*
G36*
G01*
X282894600Y-180201000D02*
X282994600Y-180201000D01*
G75*
G02*
X283044600Y-180251000I0J-50000D01*
G01*
X283044600Y-180976000D01*
G75*
G02*
X282994600Y-181026000I-50000J0D01*
G01*
X282894600Y-181026000D01*
G75*
G02*
X282844600Y-180976000I0J50000D01*
G01*
X282844600Y-180251000D01*
G75*
G02*
X282894600Y-180201000I50000J0D01*
G01*
G37*
%TD*%
%TO.C,I3*%
G36*
G01*
X329331150Y-189407450D02*
X329796150Y-189407450D01*
G75*
G02*
X330028650Y-189639950I0J-232500D01*
G01*
X330028650Y-190104950D01*
G75*
G02*
X329796150Y-190337450I-232500J0D01*
G01*
X329331150Y-190337450D01*
G75*
G02*
X329098650Y-190104950I0J232500D01*
G01*
X329098650Y-189639950D01*
G75*
G02*
X329331150Y-189407450I232500J0D01*
G01*
G37*
G36*
G01*
X328181150Y-189407450D02*
X328646150Y-189407450D01*
G75*
G02*
X328878650Y-189639950I0J-232500D01*
G01*
X328878650Y-190104950D01*
G75*
G02*
X328646150Y-190337450I-232500J0D01*
G01*
X328181150Y-190337450D01*
G75*
G02*
X327948650Y-190104950I0J232500D01*
G01*
X327948650Y-189639950D01*
G75*
G02*
X328181150Y-189407450I232500J0D01*
G01*
G37*
G36*
G01*
X329331150Y-188257450D02*
X329796150Y-188257450D01*
G75*
G02*
X330028650Y-188489950I0J-232500D01*
G01*
X330028650Y-188954950D01*
G75*
G02*
X329796150Y-189187450I-232500J0D01*
G01*
X329331150Y-189187450D01*
G75*
G02*
X329098650Y-188954950I0J232500D01*
G01*
X329098650Y-188489950D01*
G75*
G02*
X329331150Y-188257450I232500J0D01*
G01*
G37*
G36*
G01*
X328181150Y-188257450D02*
X328646150Y-188257450D01*
G75*
G02*
X328878650Y-188489950I0J-232500D01*
G01*
X328878650Y-188954950D01*
G75*
G02*
X328646150Y-189187450I-232500J0D01*
G01*
X328181150Y-189187450D01*
G75*
G02*
X327948650Y-188954950I0J232500D01*
G01*
X327948650Y-188489950D01*
G75*
G02*
X328181150Y-188257450I232500J0D01*
G01*
G37*
G36*
G01*
X326688650Y-187997450D02*
X327413650Y-187997450D01*
G75*
G02*
X327463650Y-188047450I0J-50000D01*
G01*
X327463650Y-188147450D01*
G75*
G02*
X327413650Y-188197450I-50000J0D01*
G01*
X326688650Y-188197450D01*
G75*
G02*
X326638650Y-188147450I0J50000D01*
G01*
X326638650Y-188047450D01*
G75*
G02*
X326688650Y-187997450I50000J0D01*
G01*
G37*
G36*
G01*
X326688650Y-188397450D02*
X327413650Y-188397450D01*
G75*
G02*
X327463650Y-188447450I0J-50000D01*
G01*
X327463650Y-188547450D01*
G75*
G02*
X327413650Y-188597450I-50000J0D01*
G01*
X326688650Y-188597450D01*
G75*
G02*
X326638650Y-188547450I0J50000D01*
G01*
X326638650Y-188447450D01*
G75*
G02*
X326688650Y-188397450I50000J0D01*
G01*
G37*
G36*
G01*
X326688650Y-188797450D02*
X327413650Y-188797450D01*
G75*
G02*
X327463650Y-188847450I0J-50000D01*
G01*
X327463650Y-188947450D01*
G75*
G02*
X327413650Y-188997450I-50000J0D01*
G01*
X326688650Y-188997450D01*
G75*
G02*
X326638650Y-188947450I0J50000D01*
G01*
X326638650Y-188847450D01*
G75*
G02*
X326688650Y-188797450I50000J0D01*
G01*
G37*
G36*
G01*
X326688650Y-189197450D02*
X327413650Y-189197450D01*
G75*
G02*
X327463650Y-189247450I0J-50000D01*
G01*
X327463650Y-189347450D01*
G75*
G02*
X327413650Y-189397450I-50000J0D01*
G01*
X326688650Y-189397450D01*
G75*
G02*
X326638650Y-189347450I0J50000D01*
G01*
X326638650Y-189247450D01*
G75*
G02*
X326688650Y-189197450I50000J0D01*
G01*
G37*
G36*
G01*
X326688650Y-189597450D02*
X327413650Y-189597450D01*
G75*
G02*
X327463650Y-189647450I0J-50000D01*
G01*
X327463650Y-189747450D01*
G75*
G02*
X327413650Y-189797450I-50000J0D01*
G01*
X326688650Y-189797450D01*
G75*
G02*
X326638650Y-189747450I0J50000D01*
G01*
X326638650Y-189647450D01*
G75*
G02*
X326688650Y-189597450I50000J0D01*
G01*
G37*
G36*
G01*
X326688650Y-189997450D02*
X327413650Y-189997450D01*
G75*
G02*
X327463650Y-190047450I0J-50000D01*
G01*
X327463650Y-190147450D01*
G75*
G02*
X327413650Y-190197450I-50000J0D01*
G01*
X326688650Y-190197450D01*
G75*
G02*
X326638650Y-190147450I0J50000D01*
G01*
X326638650Y-190047450D01*
G75*
G02*
X326688650Y-189997450I50000J0D01*
G01*
G37*
G36*
G01*
X326688650Y-190397450D02*
X327413650Y-190397450D01*
G75*
G02*
X327463650Y-190447450I0J-50000D01*
G01*
X327463650Y-190547450D01*
G75*
G02*
X327413650Y-190597450I-50000J0D01*
G01*
X326688650Y-190597450D01*
G75*
G02*
X326638650Y-190547450I0J50000D01*
G01*
X326638650Y-190447450D01*
G75*
G02*
X326688650Y-190397450I50000J0D01*
G01*
G37*
G36*
G01*
X327738650Y-190822450D02*
X327838650Y-190822450D01*
G75*
G02*
X327888650Y-190872450I0J-50000D01*
G01*
X327888650Y-191597450D01*
G75*
G02*
X327838650Y-191647450I-50000J0D01*
G01*
X327738650Y-191647450D01*
G75*
G02*
X327688650Y-191597450I0J50000D01*
G01*
X327688650Y-190872450D01*
G75*
G02*
X327738650Y-190822450I50000J0D01*
G01*
G37*
G36*
G01*
X328138650Y-190822450D02*
X328238650Y-190822450D01*
G75*
G02*
X328288650Y-190872450I0J-50000D01*
G01*
X328288650Y-191597450D01*
G75*
G02*
X328238650Y-191647450I-50000J0D01*
G01*
X328138650Y-191647450D01*
G75*
G02*
X328088650Y-191597450I0J50000D01*
G01*
X328088650Y-190872450D01*
G75*
G02*
X328138650Y-190822450I50000J0D01*
G01*
G37*
G36*
G01*
X328538650Y-190822450D02*
X328638650Y-190822450D01*
G75*
G02*
X328688650Y-190872450I0J-50000D01*
G01*
X328688650Y-191597450D01*
G75*
G02*
X328638650Y-191647450I-50000J0D01*
G01*
X328538650Y-191647450D01*
G75*
G02*
X328488650Y-191597450I0J50000D01*
G01*
X328488650Y-190872450D01*
G75*
G02*
X328538650Y-190822450I50000J0D01*
G01*
G37*
G36*
G01*
X328938650Y-190822450D02*
X329038650Y-190822450D01*
G75*
G02*
X329088650Y-190872450I0J-50000D01*
G01*
X329088650Y-191597450D01*
G75*
G02*
X329038650Y-191647450I-50000J0D01*
G01*
X328938650Y-191647450D01*
G75*
G02*
X328888650Y-191597450I0J50000D01*
G01*
X328888650Y-190872450D01*
G75*
G02*
X328938650Y-190822450I50000J0D01*
G01*
G37*
G36*
G01*
X329338650Y-190822450D02*
X329438650Y-190822450D01*
G75*
G02*
X329488650Y-190872450I0J-50000D01*
G01*
X329488650Y-191597450D01*
G75*
G02*
X329438650Y-191647450I-50000J0D01*
G01*
X329338650Y-191647450D01*
G75*
G02*
X329288650Y-191597450I0J50000D01*
G01*
X329288650Y-190872450D01*
G75*
G02*
X329338650Y-190822450I50000J0D01*
G01*
G37*
G36*
G01*
X329738650Y-190822450D02*
X329838650Y-190822450D01*
G75*
G02*
X329888650Y-190872450I0J-50000D01*
G01*
X329888650Y-191597450D01*
G75*
G02*
X329838650Y-191647450I-50000J0D01*
G01*
X329738650Y-191647450D01*
G75*
G02*
X329688650Y-191597450I0J50000D01*
G01*
X329688650Y-190872450D01*
G75*
G02*
X329738650Y-190822450I50000J0D01*
G01*
G37*
G36*
G01*
X330138650Y-190822450D02*
X330238650Y-190822450D01*
G75*
G02*
X330288650Y-190872450I0J-50000D01*
G01*
X330288650Y-191597450D01*
G75*
G02*
X330238650Y-191647450I-50000J0D01*
G01*
X330138650Y-191647450D01*
G75*
G02*
X330088650Y-191597450I0J50000D01*
G01*
X330088650Y-190872450D01*
G75*
G02*
X330138650Y-190822450I50000J0D01*
G01*
G37*
G36*
G01*
X330563650Y-190397450D02*
X331288650Y-190397450D01*
G75*
G02*
X331338650Y-190447450I0J-50000D01*
G01*
X331338650Y-190547450D01*
G75*
G02*
X331288650Y-190597450I-50000J0D01*
G01*
X330563650Y-190597450D01*
G75*
G02*
X330513650Y-190547450I0J50000D01*
G01*
X330513650Y-190447450D01*
G75*
G02*
X330563650Y-190397450I50000J0D01*
G01*
G37*
G36*
G01*
X330563650Y-189997450D02*
X331288650Y-189997450D01*
G75*
G02*
X331338650Y-190047450I0J-50000D01*
G01*
X331338650Y-190147450D01*
G75*
G02*
X331288650Y-190197450I-50000J0D01*
G01*
X330563650Y-190197450D01*
G75*
G02*
X330513650Y-190147450I0J50000D01*
G01*
X330513650Y-190047450D01*
G75*
G02*
X330563650Y-189997450I50000J0D01*
G01*
G37*
G36*
G01*
X330563650Y-189597450D02*
X331288650Y-189597450D01*
G75*
G02*
X331338650Y-189647450I0J-50000D01*
G01*
X331338650Y-189747450D01*
G75*
G02*
X331288650Y-189797450I-50000J0D01*
G01*
X330563650Y-189797450D01*
G75*
G02*
X330513650Y-189747450I0J50000D01*
G01*
X330513650Y-189647450D01*
G75*
G02*
X330563650Y-189597450I50000J0D01*
G01*
G37*
G36*
G01*
X330563650Y-189197450D02*
X331288650Y-189197450D01*
G75*
G02*
X331338650Y-189247450I0J-50000D01*
G01*
X331338650Y-189347450D01*
G75*
G02*
X331288650Y-189397450I-50000J0D01*
G01*
X330563650Y-189397450D01*
G75*
G02*
X330513650Y-189347450I0J50000D01*
G01*
X330513650Y-189247450D01*
G75*
G02*
X330563650Y-189197450I50000J0D01*
G01*
G37*
G36*
G01*
X330563650Y-188797450D02*
X331288650Y-188797450D01*
G75*
G02*
X331338650Y-188847450I0J-50000D01*
G01*
X331338650Y-188947450D01*
G75*
G02*
X331288650Y-188997450I-50000J0D01*
G01*
X330563650Y-188997450D01*
G75*
G02*
X330513650Y-188947450I0J50000D01*
G01*
X330513650Y-188847450D01*
G75*
G02*
X330563650Y-188797450I50000J0D01*
G01*
G37*
G36*
G01*
X330563650Y-188397450D02*
X331288650Y-188397450D01*
G75*
G02*
X331338650Y-188447450I0J-50000D01*
G01*
X331338650Y-188547450D01*
G75*
G02*
X331288650Y-188597450I-50000J0D01*
G01*
X330563650Y-188597450D01*
G75*
G02*
X330513650Y-188547450I0J50000D01*
G01*
X330513650Y-188447450D01*
G75*
G02*
X330563650Y-188397450I50000J0D01*
G01*
G37*
G36*
G01*
X330563650Y-187997450D02*
X331288650Y-187997450D01*
G75*
G02*
X331338650Y-188047450I0J-50000D01*
G01*
X331338650Y-188147450D01*
G75*
G02*
X331288650Y-188197450I-50000J0D01*
G01*
X330563650Y-188197450D01*
G75*
G02*
X330513650Y-188147450I0J50000D01*
G01*
X330513650Y-188047450D01*
G75*
G02*
X330563650Y-187997450I50000J0D01*
G01*
G37*
G36*
G01*
X330138650Y-186947450D02*
X330238650Y-186947450D01*
G75*
G02*
X330288650Y-186997450I0J-50000D01*
G01*
X330288650Y-187722450D01*
G75*
G02*
X330238650Y-187772450I-50000J0D01*
G01*
X330138650Y-187772450D01*
G75*
G02*
X330088650Y-187722450I0J50000D01*
G01*
X330088650Y-186997450D01*
G75*
G02*
X330138650Y-186947450I50000J0D01*
G01*
G37*
G36*
G01*
X329738650Y-186947450D02*
X329838650Y-186947450D01*
G75*
G02*
X329888650Y-186997450I0J-50000D01*
G01*
X329888650Y-187722450D01*
G75*
G02*
X329838650Y-187772450I-50000J0D01*
G01*
X329738650Y-187772450D01*
G75*
G02*
X329688650Y-187722450I0J50000D01*
G01*
X329688650Y-186997450D01*
G75*
G02*
X329738650Y-186947450I50000J0D01*
G01*
G37*
G36*
G01*
X329338650Y-186947450D02*
X329438650Y-186947450D01*
G75*
G02*
X329488650Y-186997450I0J-50000D01*
G01*
X329488650Y-187722450D01*
G75*
G02*
X329438650Y-187772450I-50000J0D01*
G01*
X329338650Y-187772450D01*
G75*
G02*
X329288650Y-187722450I0J50000D01*
G01*
X329288650Y-186997450D01*
G75*
G02*
X329338650Y-186947450I50000J0D01*
G01*
G37*
G36*
G01*
X328938650Y-186947450D02*
X329038650Y-186947450D01*
G75*
G02*
X329088650Y-186997450I0J-50000D01*
G01*
X329088650Y-187722450D01*
G75*
G02*
X329038650Y-187772450I-50000J0D01*
G01*
X328938650Y-187772450D01*
G75*
G02*
X328888650Y-187722450I0J50000D01*
G01*
X328888650Y-186997450D01*
G75*
G02*
X328938650Y-186947450I50000J0D01*
G01*
G37*
G36*
G01*
X328538650Y-186947450D02*
X328638650Y-186947450D01*
G75*
G02*
X328688650Y-186997450I0J-50000D01*
G01*
X328688650Y-187722450D01*
G75*
G02*
X328638650Y-187772450I-50000J0D01*
G01*
X328538650Y-187772450D01*
G75*
G02*
X328488650Y-187722450I0J50000D01*
G01*
X328488650Y-186997450D01*
G75*
G02*
X328538650Y-186947450I50000J0D01*
G01*
G37*
G36*
G01*
X328138650Y-186947450D02*
X328238650Y-186947450D01*
G75*
G02*
X328288650Y-186997450I0J-50000D01*
G01*
X328288650Y-187722450D01*
G75*
G02*
X328238650Y-187772450I-50000J0D01*
G01*
X328138650Y-187772450D01*
G75*
G02*
X328088650Y-187722450I0J50000D01*
G01*
X328088650Y-186997450D01*
G75*
G02*
X328138650Y-186947450I50000J0D01*
G01*
G37*
G36*
G01*
X327738650Y-186947450D02*
X327838650Y-186947450D01*
G75*
G02*
X327888650Y-186997450I0J-50000D01*
G01*
X327888650Y-187722450D01*
G75*
G02*
X327838650Y-187772450I-50000J0D01*
G01*
X327738650Y-187772450D01*
G75*
G02*
X327688650Y-187722450I0J50000D01*
G01*
X327688650Y-186997450D01*
G75*
G02*
X327738650Y-186947450I50000J0D01*
G01*
G37*
%TD*%
D13*
%TO.C,KD76*%
X276207600Y-181694700D03*
X276207600Y-184994700D03*
%TD*%
D19*
%TO.C,SW1*%
X380107500Y-163764800D03*
X373907500Y-160064800D03*
X380107500Y-160064800D03*
X373907500Y-163764800D03*
%TD*%
D12*
%TO.C,LED3*%
X52421600Y-103250100D03*
X52421600Y-102150100D03*
X55521600Y-103250100D03*
X55521600Y-102150100D03*
%TD*%
%TO.C,LED4*%
X90519200Y-103250100D03*
X90519200Y-102150100D03*
X93619200Y-103250100D03*
X93619200Y-102150100D03*
%TD*%
%TO.C,LED5*%
X109568000Y-103250100D03*
X109568000Y-102150100D03*
X112668000Y-103250100D03*
X112668000Y-102150100D03*
%TD*%
%TO.C,LED6*%
X128616800Y-103250100D03*
X128616800Y-102150100D03*
X131716800Y-103250100D03*
X131716800Y-102150100D03*
%TD*%
%TO.C,LED7*%
X147665600Y-103250100D03*
X147665600Y-102150100D03*
X150765600Y-103250100D03*
X150765600Y-102150100D03*
%TD*%
%TO.C,LED8*%
X176238800Y-103250100D03*
X176238800Y-102150100D03*
X179338800Y-103250100D03*
X179338800Y-102150100D03*
%TD*%
%TO.C,LED9*%
X195287600Y-103250100D03*
X195287600Y-102150100D03*
X198387600Y-103250100D03*
X198387600Y-102150100D03*
%TD*%
%TO.C,LED10*%
X214336400Y-103250100D03*
X214336400Y-102150100D03*
X217436400Y-103250100D03*
X217436400Y-102150100D03*
%TD*%
%TO.C,LED11*%
X233385200Y-103250100D03*
X233385200Y-102150100D03*
X236485200Y-103250100D03*
X236485200Y-102150100D03*
%TD*%
%TO.C,LED12*%
X261958400Y-103250100D03*
X261958400Y-102150100D03*
X265058400Y-103250100D03*
X265058400Y-102150100D03*
%TD*%
%TO.C,LED13*%
X281007200Y-103250100D03*
X281007200Y-102150100D03*
X284107200Y-103250100D03*
X284107200Y-102150100D03*
%TD*%
%TO.C,LED14*%
X300056000Y-103250100D03*
X300056000Y-102150100D03*
X303156000Y-103250100D03*
X303156000Y-102150100D03*
%TD*%
%TO.C,LED15*%
X319104800Y-103250100D03*
X319104800Y-102150100D03*
X322204800Y-103250100D03*
X322204800Y-102150100D03*
%TD*%
%TO.C,LED16*%
X347678000Y-103250100D03*
X347678000Y-102150100D03*
X350778000Y-103250100D03*
X350778000Y-102150100D03*
%TD*%
%TO.C,LED33*%
X80994800Y-150872100D03*
X80994800Y-149772100D03*
X84094800Y-150872100D03*
X84094800Y-149772100D03*
%TD*%
%TO.C,LED34*%
X100043600Y-150872100D03*
X100043600Y-149772100D03*
X103143600Y-150872100D03*
X103143600Y-149772100D03*
%TD*%
%TO.C,LED35*%
X119092400Y-150872100D03*
X119092400Y-149772100D03*
X122192400Y-150872100D03*
X122192400Y-149772100D03*
%TD*%
%TO.C,LED36*%
X138141200Y-150872100D03*
X138141200Y-149772100D03*
X141241200Y-150872100D03*
X141241200Y-149772100D03*
%TD*%
%TO.C,LED37*%
X157190000Y-150872100D03*
X157190000Y-149772100D03*
X160290000Y-150872100D03*
X160290000Y-149772100D03*
%TD*%
%TO.C,LED38*%
X176238800Y-150872100D03*
X176238800Y-149772100D03*
X179338800Y-150872100D03*
X179338800Y-149772100D03*
%TD*%
%TO.C,LED39*%
X195287600Y-150872100D03*
X195287600Y-149772100D03*
X198387600Y-150872100D03*
X198387600Y-149772100D03*
%TD*%
%TO.C,LED40*%
X214336400Y-150872100D03*
X214336400Y-149772100D03*
X217436400Y-150872100D03*
X217436400Y-149772100D03*
%TD*%
%TO.C,LED41*%
X233385200Y-150872100D03*
X233385200Y-149772100D03*
X236485200Y-150872100D03*
X236485200Y-149772100D03*
%TD*%
%TO.C,LED42*%
X252434000Y-150872100D03*
X252434000Y-149772100D03*
X255534000Y-150872100D03*
X255534000Y-149772100D03*
%TD*%
%TO.C,LED43*%
X271482800Y-150872100D03*
X271482800Y-149772100D03*
X274582800Y-150872100D03*
X274582800Y-149772100D03*
%TD*%
%TO.C,LED44*%
X290531600Y-150872100D03*
X290531600Y-149772100D03*
X293631600Y-150872100D03*
X293631600Y-149772100D03*
%TD*%
%TO.C,LED45*%
X314342600Y-150872100D03*
X314342600Y-149772100D03*
X317442600Y-150872100D03*
X317442600Y-149772100D03*
%TD*%
%TO.C,LED46*%
X347678000Y-150872100D03*
X347678000Y-149772100D03*
X350778000Y-150872100D03*
X350778000Y-149772100D03*
%TD*%
%TO.C,LED47*%
X366726800Y-150872100D03*
X366726800Y-149772100D03*
X369826800Y-150872100D03*
X369826800Y-149772100D03*
%TD*%
%TO.C,LED48*%
X385775600Y-150872100D03*
X385775600Y-149772100D03*
X388875600Y-150872100D03*
X388875600Y-149772100D03*
%TD*%
%TO.C,LED65*%
X28610600Y-208018500D03*
X28610600Y-206918500D03*
X31710600Y-208018500D03*
X31710600Y-206918500D03*
%TD*%
%TO.C,LED66*%
X54802700Y-208018500D03*
X54802700Y-206918500D03*
X57902700Y-208018500D03*
X57902700Y-206918500D03*
%TD*%
%TO.C,LED67*%
X78613700Y-208018500D03*
X78613700Y-206918500D03*
X81713700Y-208018500D03*
X81713700Y-206918500D03*
%TD*%
%TO.C,LED68*%
X28610600Y-188969700D03*
X28610600Y-187869700D03*
X31710600Y-188969700D03*
X31710600Y-187869700D03*
%TD*%
%TO.C,LED69*%
X64327100Y-188969700D03*
X64327100Y-187869700D03*
X67427100Y-188969700D03*
X67427100Y-187869700D03*
%TD*%
%TO.C,LED70*%
X95281400Y-188969700D03*
X95281400Y-187869700D03*
X98381400Y-188969700D03*
X98381400Y-187869700D03*
%TD*%
%TO.C,LED71*%
X114330200Y-188969700D03*
X114330200Y-187869700D03*
X117430200Y-188969700D03*
X117430200Y-187869700D03*
%TD*%
%TO.C,LED72*%
X133379000Y-188969700D03*
X133379000Y-187869700D03*
X136479000Y-188969700D03*
X136479000Y-187869700D03*
%TD*%
%TO.C,LED73*%
X152427800Y-188969700D03*
X152427800Y-187869700D03*
X155527800Y-188969700D03*
X155527800Y-187869700D03*
%TD*%
%TO.C,LED74*%
X171476600Y-188969700D03*
X171476600Y-187869700D03*
X174576600Y-188969700D03*
X174576600Y-187869700D03*
%TD*%
%TO.C,LED75*%
X190525400Y-188969700D03*
X190525400Y-187869700D03*
X193625400Y-188969700D03*
X193625400Y-187869700D03*
%TD*%
%TO.C,LED76*%
X209574200Y-188969700D03*
X209574200Y-187869700D03*
X212674200Y-188969700D03*
X212674200Y-187869700D03*
%TD*%
%TO.C,LED77*%
X228623000Y-188969700D03*
X228623000Y-187869700D03*
X231723000Y-188969700D03*
X231723000Y-187869700D03*
%TD*%
%TO.C,LED78*%
X247671800Y-188969700D03*
X247671800Y-187869700D03*
X250771800Y-188969700D03*
X250771800Y-187869700D03*
%TD*%
%TO.C,LED79*%
X266720600Y-188969700D03*
X266720600Y-187869700D03*
X269820600Y-188969700D03*
X269820600Y-187869700D03*
%TD*%
%TO.C,LED80*%
X302437100Y-188969700D03*
X302437100Y-187869700D03*
X305537100Y-188969700D03*
X305537100Y-187869700D03*
%TD*%
%TO.C,LED2*%
X52421600Y-131823300D03*
X52421600Y-130723300D03*
X55521600Y-131823300D03*
X55521600Y-130723300D03*
%TD*%
%TO.C,LED17*%
X385775600Y-131823300D03*
X385775600Y-130723300D03*
X388875600Y-131823300D03*
X388875600Y-130723300D03*
%TD*%
%TO.C,LED18*%
X366726800Y-131823300D03*
X366726800Y-130723300D03*
X369826800Y-131823300D03*
X369826800Y-130723300D03*
%TD*%
%TO.C,LED19*%
X347678000Y-131823300D03*
X347678000Y-130723300D03*
X350778000Y-131823300D03*
X350778000Y-130723300D03*
%TD*%
%TO.C,LED20*%
X309580400Y-131823300D03*
X309580400Y-130723300D03*
X312680400Y-131823300D03*
X312680400Y-130723300D03*
%TD*%
%TO.C,LED21*%
X281007200Y-131823300D03*
X281007200Y-130723300D03*
X284107200Y-131823300D03*
X284107200Y-130723300D03*
%TD*%
%TO.C,LED22*%
X261958400Y-131823300D03*
X261958400Y-130723300D03*
X265058400Y-131823300D03*
X265058400Y-130723300D03*
%TD*%
%TO.C,LED23*%
X242909600Y-131823300D03*
X242909600Y-130723300D03*
X246009600Y-131823300D03*
X246009600Y-130723300D03*
%TD*%
%TO.C,LED24*%
X223860800Y-131823300D03*
X223860800Y-130723300D03*
X226960800Y-131823300D03*
X226960800Y-130723300D03*
%TD*%
%TO.C,LED25*%
X204812000Y-131823300D03*
X204812000Y-130723300D03*
X207912000Y-131823300D03*
X207912000Y-130723300D03*
%TD*%
%TO.C,LED26*%
X185763200Y-131823300D03*
X185763200Y-130723300D03*
X188863200Y-131823300D03*
X188863200Y-130723300D03*
%TD*%
%TO.C,LED27*%
X166714400Y-131823300D03*
X166714400Y-130723300D03*
X169814400Y-131823300D03*
X169814400Y-130723300D03*
%TD*%
%TO.C,LED28*%
X147665600Y-131823300D03*
X147665600Y-130723300D03*
X150765600Y-131823300D03*
X150765600Y-130723300D03*
%TD*%
%TO.C,LED29*%
X128616800Y-131823300D03*
X128616800Y-130723300D03*
X131716800Y-131823300D03*
X131716800Y-130723300D03*
%TD*%
%TO.C,LED30*%
X109568000Y-131823300D03*
X109568000Y-130723300D03*
X112668000Y-131823300D03*
X112668000Y-130723300D03*
%TD*%
%TO.C,LED31*%
X90519200Y-131823300D03*
X90519200Y-130723300D03*
X93619200Y-131823300D03*
X93619200Y-130723300D03*
%TD*%
%TO.C,LED32*%
X71470400Y-131823300D03*
X71470400Y-130723300D03*
X74570400Y-131823300D03*
X74570400Y-130723300D03*
%TD*%
%TO.C,LED81*%
X385775600Y-208018500D03*
X385775600Y-206918500D03*
X388875600Y-208018500D03*
X388875600Y-206918500D03*
%TD*%
%TO.C,LED82*%
X366726800Y-188969700D03*
X366726800Y-187869700D03*
X369826800Y-188969700D03*
X369826800Y-187869700D03*
%TD*%
%TO.C,LED83*%
X366726800Y-208018500D03*
X366726800Y-206918500D03*
X369826800Y-208018500D03*
X369826800Y-206918500D03*
%TD*%
%TO.C,LED84*%
X347678000Y-208018500D03*
X347678000Y-206918500D03*
X350778000Y-208018500D03*
X350778000Y-206918500D03*
%TD*%
%TO.C,LED85*%
X245290700Y-208018500D03*
X245290700Y-206918500D03*
X248390700Y-208018500D03*
X248390700Y-206918500D03*
%TD*%
%TO.C,LED86*%
X269101700Y-208018500D03*
X269101700Y-206918500D03*
X272201700Y-208018500D03*
X272201700Y-206918500D03*
%TD*%
%TO.C,LED87*%
X292912700Y-208018500D03*
X292912700Y-206918500D03*
X296012700Y-208018500D03*
X296012700Y-206918500D03*
%TD*%
%TO.C,LED88*%
X316723700Y-208018500D03*
X316723700Y-206918500D03*
X319823700Y-208018500D03*
X319823700Y-206918500D03*
%TD*%
%TO.C,LED89*%
X173857700Y-208018500D03*
X173857700Y-206918500D03*
X176957700Y-208018500D03*
X176957700Y-206918500D03*
%TD*%
%TO.C,LED90*%
X102424700Y-208018500D03*
X102424700Y-206918500D03*
X105524700Y-208018500D03*
X105524700Y-206918500D03*
%TD*%
%TO.C,R7*%
G36*
G01*
X375938800Y-169483100D02*
X376488800Y-169483100D01*
G75*
G02*
X376688800Y-169683100I0J-200000D01*
G01*
X376688800Y-170083100D01*
G75*
G02*
X376488800Y-170283100I-200000J0D01*
G01*
X375938800Y-170283100D01*
G75*
G02*
X375738800Y-170083100I0J200000D01*
G01*
X375738800Y-169683100D01*
G75*
G02*
X375938800Y-169483100I200000J0D01*
G01*
G37*
G36*
G01*
X375938800Y-167833100D02*
X376488800Y-167833100D01*
G75*
G02*
X376688800Y-168033100I0J-200000D01*
G01*
X376688800Y-168433100D01*
G75*
G02*
X376488800Y-168633100I-200000J0D01*
G01*
X375938800Y-168633100D01*
G75*
G02*
X375738800Y-168433100I0J200000D01*
G01*
X375738800Y-168033100D01*
G75*
G02*
X375938800Y-167833100I200000J0D01*
G01*
G37*
%TD*%
%TO.C,LED49*%
X28610600Y-150872100D03*
X28610600Y-149772100D03*
X31710600Y-150872100D03*
X31710600Y-149772100D03*
%TD*%
%TO.C,LED50*%
X57183800Y-150872100D03*
X57183800Y-149772100D03*
X60283800Y-150872100D03*
X60283800Y-149772100D03*
%TD*%
%TO.C,LED51*%
X28610600Y-169920900D03*
X28610600Y-168820900D03*
X31710600Y-169920900D03*
X31710600Y-168820900D03*
%TD*%
%TO.C,LED52*%
X59564900Y-169920900D03*
X59564900Y-168820900D03*
X62664900Y-169920900D03*
X62664900Y-168820900D03*
%TD*%
%TO.C,LED53*%
X85757000Y-169920900D03*
X85757000Y-168820900D03*
X88857000Y-169920900D03*
X88857000Y-168820900D03*
%TD*%
%TO.C,LED54*%
X104805800Y-169920900D03*
X104805800Y-168820900D03*
X107905800Y-169920900D03*
X107905800Y-168820900D03*
%TD*%
%TO.C,LED55*%
X123854600Y-169920900D03*
X123854600Y-168820900D03*
X126954600Y-169920900D03*
X126954600Y-168820900D03*
%TD*%
%TO.C,LED56*%
X142903400Y-169920900D03*
X142903400Y-168820900D03*
X146003400Y-169920900D03*
X146003400Y-168820900D03*
%TD*%
%TO.C,LED57*%
X161952200Y-169920900D03*
X161952200Y-168820900D03*
X165052200Y-169920900D03*
X165052200Y-168820900D03*
%TD*%
%TO.C,LED58*%
X181001000Y-169920900D03*
X181001000Y-168820900D03*
X184101000Y-169920900D03*
X184101000Y-168820900D03*
%TD*%
%TO.C,LED59*%
X200049800Y-169920900D03*
X200049800Y-168820900D03*
X203149800Y-169920900D03*
X203149800Y-168820900D03*
%TD*%
%TO.C,LED60*%
X219098600Y-169920900D03*
X219098600Y-168820900D03*
X222198600Y-169920900D03*
X222198600Y-168820900D03*
%TD*%
%TO.C,LED61*%
X238147400Y-169920900D03*
X238147400Y-168820900D03*
X241247400Y-169920900D03*
X241247400Y-168820900D03*
%TD*%
%TO.C,LED62*%
X257196200Y-169920900D03*
X257196200Y-168820900D03*
X260296200Y-169920900D03*
X260296200Y-168820900D03*
%TD*%
%TO.C,LED63*%
X276245000Y-169920900D03*
X276245000Y-168820900D03*
X279345000Y-169920900D03*
X279345000Y-168820900D03*
%TD*%
%TO.C,LED64*%
X307199300Y-169920900D03*
X307199300Y-168820900D03*
X310299300Y-169920900D03*
X310299300Y-168820900D03*
%TD*%
%TO.C,F1*%
G36*
G01*
X247218850Y-94281600D02*
X247218850Y-93031600D01*
G75*
G02*
X247468850Y-92781600I250000J0D01*
G01*
X248218850Y-92781600D01*
G75*
G02*
X248468850Y-93031600I0J-250000D01*
G01*
X248468850Y-94281600D01*
G75*
G02*
X248218850Y-94531600I-250000J0D01*
G01*
X247468850Y-94531600D01*
G75*
G02*
X247218850Y-94281600I0J250000D01*
G01*
G37*
G36*
G01*
X244418850Y-94281600D02*
X244418850Y-93031600D01*
G75*
G02*
X244668850Y-92781600I250000J0D01*
G01*
X245418850Y-92781600D01*
G75*
G02*
X245668850Y-93031600I0J-250000D01*
G01*
X245668850Y-94281600D01*
G75*
G02*
X245418850Y-94531600I-250000J0D01*
G01*
X244668850Y-94531600D01*
G75*
G02*
X244418850Y-94281600I0J250000D01*
G01*
G37*
%TD*%
%TO.C,FB1*%
G36*
G01*
X246215700Y-95656450D02*
X246215700Y-96418950D01*
G75*
G02*
X245996950Y-96637700I-218750J0D01*
G01*
X245559450Y-96637700D01*
G75*
G02*
X245340700Y-96418950I0J218750D01*
G01*
X245340700Y-95656450D01*
G75*
G02*
X245559450Y-95437700I218750J0D01*
G01*
X245996950Y-95437700D01*
G75*
G02*
X246215700Y-95656450I0J-218750D01*
G01*
G37*
G36*
G01*
X248340700Y-95656450D02*
X248340700Y-96418950D01*
G75*
G02*
X248121950Y-96637700I-218750J0D01*
G01*
X247684450Y-96637700D01*
G75*
G02*
X247465700Y-96418950I0J218750D01*
G01*
X247465700Y-95656450D01*
G75*
G02*
X247684450Y-95437700I218750J0D01*
G01*
X248121950Y-95437700D01*
G75*
G02*
X248340700Y-95656450I0J-218750D01*
G01*
G37*
%TD*%
%TO.C,R1*%
G36*
G01*
X252740298Y-97231400D02*
X253640302Y-97231400D01*
G75*
G02*
X253890300Y-97481398I0J-249998D01*
G01*
X253890300Y-98006402D01*
G75*
G02*
X253640302Y-98256400I-249998J0D01*
G01*
X252740298Y-98256400D01*
G75*
G02*
X252490300Y-98006402I0J249998D01*
G01*
X252490300Y-97481398D01*
G75*
G02*
X252740298Y-97231400I249998J0D01*
G01*
G37*
G36*
G01*
X252740298Y-95406400D02*
X253640302Y-95406400D01*
G75*
G02*
X253890300Y-95656398I0J-249998D01*
G01*
X253890300Y-96181402D01*
G75*
G02*
X253640302Y-96431400I-249998J0D01*
G01*
X252740298Y-96431400D01*
G75*
G02*
X252490300Y-96181402I0J249998D01*
G01*
X252490300Y-95656398D01*
G75*
G02*
X252740298Y-95406400I249998J0D01*
G01*
G37*
%TD*%
%TO.C,D5*%
G36*
G01*
X344128350Y-163052200D02*
X343215850Y-163052200D01*
G75*
G02*
X342972100Y-162808450I0J243750D01*
G01*
X342972100Y-162320950D01*
G75*
G02*
X343215850Y-162077200I243750J0D01*
G01*
X344128350Y-162077200D01*
G75*
G02*
X344372100Y-162320950I0J-243750D01*
G01*
X344372100Y-162808450D01*
G75*
G02*
X344128350Y-163052200I-243750J0D01*
G01*
G37*
G36*
G01*
X344128350Y-164927200D02*
X343215850Y-164927200D01*
G75*
G02*
X342972100Y-164683450I0J243750D01*
G01*
X342972100Y-164195950D01*
G75*
G02*
X343215850Y-163952200I243750J0D01*
G01*
X344128350Y-163952200D01*
G75*
G02*
X344372100Y-164195950I0J-243750D01*
G01*
X344372100Y-164683450D01*
G75*
G02*
X344128350Y-164927200I-243750J0D01*
G01*
G37*
%TD*%
%TO.C,R8*%
G36*
G01*
X340840998Y-163902200D02*
X341741002Y-163902200D01*
G75*
G02*
X341991000Y-164152198I0J-249998D01*
G01*
X341991000Y-164677202D01*
G75*
G02*
X341741002Y-164927200I-249998J0D01*
G01*
X340840998Y-164927200D01*
G75*
G02*
X340591000Y-164677202I0J249998D01*
G01*
X340591000Y-164152198D01*
G75*
G02*
X340840998Y-163902200I249998J0D01*
G01*
G37*
G36*
G01*
X340840998Y-162077200D02*
X341741002Y-162077200D01*
G75*
G02*
X341991000Y-162327198I0J-249998D01*
G01*
X341991000Y-162852202D01*
G75*
G02*
X341741002Y-163102200I-249998J0D01*
G01*
X340840998Y-163102200D01*
G75*
G02*
X340591000Y-162852202I0J249998D01*
G01*
X340591000Y-162327198D01*
G75*
G02*
X340840998Y-162077200I249998J0D01*
G01*
G37*
%TD*%
D20*
%TO.C,MX1*%
X59986600Y-92545100D03*
X46561600Y-95085100D03*
%TD*%
%TO.C,MX2*%
X98084200Y-92545100D03*
X84659200Y-95085100D03*
%TD*%
%TO.C,MX3*%
X117133000Y-92545100D03*
X103708000Y-95085100D03*
%TD*%
%TO.C,MX4*%
X136181800Y-92545100D03*
X122756800Y-95085100D03*
%TD*%
%TO.C,MX5*%
X155230600Y-92545100D03*
X141805600Y-95085100D03*
%TD*%
%TO.C,MX6*%
X183803800Y-92545100D03*
X170378800Y-95085100D03*
%TD*%
%TO.C,MX7*%
X202852600Y-92545100D03*
X189427600Y-95085100D03*
%TD*%
%TO.C,MX8*%
X221901400Y-92545100D03*
X208476400Y-95085100D03*
%TD*%
%TO.C,MX9*%
X240950200Y-92545100D03*
X227525200Y-95085100D03*
%TD*%
%TO.C,MX10*%
X269523400Y-92545100D03*
X256098400Y-95085100D03*
%TD*%
%TO.C,MX11*%
X288572200Y-92545100D03*
X275147200Y-95085100D03*
%TD*%
%TO.C,MX12*%
X307621000Y-92545100D03*
X294196000Y-95085100D03*
%TD*%
%TO.C,MX13*%
X326669800Y-92545100D03*
X313244800Y-95085100D03*
%TD*%
%TO.C,MX14*%
X355243000Y-92545100D03*
X341818000Y-95085100D03*
%TD*%
%TO.C,MX15*%
X36175600Y-121118300D03*
X22750600Y-123658300D03*
%TD*%
%TO.C,MX16*%
X59986600Y-121118300D03*
X46561600Y-123658300D03*
%TD*%
%TO.C,MX17*%
X79035400Y-121118300D03*
X65610400Y-123658300D03*
%TD*%
%TO.C,MX18*%
X98084200Y-121118300D03*
X84659200Y-123658300D03*
%TD*%
%TO.C,MX19*%
X117133000Y-121118300D03*
X103708000Y-123658300D03*
%TD*%
%TO.C,MX20*%
X136181800Y-121118300D03*
X122756800Y-123658300D03*
%TD*%
%TO.C,MX21*%
X155230600Y-121118300D03*
X141805600Y-123658300D03*
%TD*%
%TO.C,MX22*%
X174279400Y-121118300D03*
X160854400Y-123658300D03*
%TD*%
%TO.C,MX23*%
X193328200Y-121118300D03*
X179903200Y-123658300D03*
%TD*%
%TO.C,MX24*%
X212377000Y-121118300D03*
X198952000Y-123658300D03*
%TD*%
%TO.C,MX25*%
X231425800Y-121118300D03*
X218000800Y-123658300D03*
%TD*%
%TO.C,MX26*%
X250474600Y-121118300D03*
X237049600Y-123658300D03*
%TD*%
%TO.C,MX27*%
X269523400Y-121118300D03*
X256098400Y-123658300D03*
%TD*%
%TO.C,MX28*%
X288572200Y-121118300D03*
X275147200Y-123658300D03*
%TD*%
%TO.C,MX29*%
X317145400Y-121118300D03*
X303720400Y-123658300D03*
%TD*%
%TO.C,MX30*%
X355243000Y-121118300D03*
X341818000Y-123658300D03*
%TD*%
%TO.C,MX31*%
X374291800Y-121118300D03*
X360866800Y-123658300D03*
%TD*%
%TO.C,MX32*%
X393340600Y-121118300D03*
X379915600Y-123658300D03*
%TD*%
%TO.C,MX33*%
X36175600Y-140167100D03*
X22750600Y-142707100D03*
%TD*%
%TO.C,MX34*%
X64748800Y-140167100D03*
X51323800Y-142707100D03*
%TD*%
%TO.C,MX35*%
X88559800Y-140167100D03*
X75134800Y-142707100D03*
%TD*%
%TO.C,MX36*%
X107608600Y-140167100D03*
X94183600Y-142707100D03*
%TD*%
%TO.C,MX37*%
X126657400Y-140167100D03*
X113232400Y-142707100D03*
%TD*%
%TO.C,MX38*%
X145706200Y-140167100D03*
X132281200Y-142707100D03*
%TD*%
%TO.C,MX39*%
X164755000Y-140167100D03*
X151330000Y-142707100D03*
%TD*%
%TO.C,MX40*%
X183803800Y-140167100D03*
X170378800Y-142707100D03*
%TD*%
%TO.C,MX41*%
X202852600Y-140167100D03*
X189427600Y-142707100D03*
%TD*%
%TO.C,MX42*%
X221901400Y-140167100D03*
X208476400Y-142707100D03*
%TD*%
%TO.C,MX43*%
X240950200Y-140167100D03*
X227525200Y-142707100D03*
%TD*%
%TO.C,MX44*%
X259999000Y-140167100D03*
X246574000Y-142707100D03*
%TD*%
%TO.C,MX45*%
X279047800Y-140167100D03*
X265622800Y-142707100D03*
%TD*%
%TO.C,MX46*%
X298096600Y-140167100D03*
X284671600Y-142707100D03*
%TD*%
%TO.C,MX47*%
X321907600Y-140167100D03*
X308482600Y-142707100D03*
%TD*%
%TO.C,MX48*%
X355243000Y-140167100D03*
X341818000Y-142707100D03*
%TD*%
%TO.C,MX49*%
X374291800Y-140167100D03*
X360866800Y-142707100D03*
%TD*%
%TO.C,MX50*%
X393340600Y-140167100D03*
X379915600Y-142707100D03*
%TD*%
%TO.C,MX51*%
X36175600Y-159215900D03*
X22750600Y-161755900D03*
%TD*%
%TO.C,MX52*%
X67129900Y-159215900D03*
X53704900Y-161755900D03*
%TD*%
%TO.C,MX53*%
X93263700Y-159215900D03*
X79838700Y-161755900D03*
%TD*%
%TO.C,MX54*%
X112370800Y-159215900D03*
X98945800Y-161755900D03*
%TD*%
%TO.C,MX55*%
X131419600Y-159215900D03*
X117994600Y-161755900D03*
%TD*%
%TO.C,MX56*%
X150468400Y-159215900D03*
X137043400Y-161755900D03*
%TD*%
%TO.C,MX57*%
X169517200Y-159215900D03*
X156092200Y-161755900D03*
%TD*%
%TO.C,MX58*%
X188566000Y-159215900D03*
X175141000Y-161755900D03*
%TD*%
%TO.C,MX59*%
X207614800Y-159215900D03*
X194189800Y-161755900D03*
%TD*%
%TO.C,MX60*%
X226663600Y-159215900D03*
X213238600Y-161755900D03*
%TD*%
%TO.C,MX61*%
X245712400Y-159215900D03*
X232287400Y-161755900D03*
%TD*%
%TO.C,MX62*%
X264761200Y-159215900D03*
X251336200Y-161755900D03*
%TD*%
%TO.C,MX63*%
X283810000Y-159215900D03*
X270385000Y-161755900D03*
%TD*%
%TO.C,MX64*%
X314764300Y-159215900D03*
X301339300Y-161755900D03*
%TD*%
%TO.C,MX65*%
X36175600Y-178264700D03*
X22750600Y-180804700D03*
%TD*%
%TO.C,MX66*%
X71892100Y-178264700D03*
X58467100Y-180804700D03*
%TD*%
%TO.C,MX67*%
X102846400Y-178264700D03*
X89421400Y-180804700D03*
%TD*%
%TO.C,MX68*%
X121895200Y-178264700D03*
X108470200Y-180804700D03*
%TD*%
%TO.C,MX69*%
X140944000Y-178264700D03*
X127519000Y-180804700D03*
%TD*%
%TO.C,MX70*%
X159992800Y-178264700D03*
X146567800Y-180804700D03*
%TD*%
%TO.C,MX71*%
X179041600Y-178264700D03*
X165616600Y-180804700D03*
%TD*%
%TO.C,MX72*%
X198090400Y-178264700D03*
X184665400Y-180804700D03*
%TD*%
%TO.C,MX73*%
X217139200Y-178264700D03*
X203714200Y-180804700D03*
%TD*%
%TO.C,MX74*%
X236188000Y-178264700D03*
X222763000Y-180804700D03*
%TD*%
%TO.C,MX75*%
X255236800Y-178264700D03*
X241811800Y-180804700D03*
%TD*%
%TO.C,MX76*%
X274285600Y-178264700D03*
X260860600Y-180804700D03*
%TD*%
%TO.C,MX77*%
X310002100Y-178264700D03*
X296577100Y-180804700D03*
%TD*%
%TO.C,MX78*%
X374291800Y-178264700D03*
X360866800Y-180804700D03*
%TD*%
%TO.C,MX79*%
X36175600Y-197313500D03*
X22750600Y-199853500D03*
%TD*%
%TO.C,MX80*%
X62367700Y-197313500D03*
X48942700Y-199853500D03*
%TD*%
%TO.C,MX81*%
X86178700Y-197313500D03*
X72753700Y-199853500D03*
%TD*%
%TO.C,MX82*%
X109989700Y-197313500D03*
X96564700Y-199853500D03*
%TD*%
%TO.C,MX83*%
X181422700Y-197313500D03*
X167997700Y-199853500D03*
%TD*%
%TO.C,MX84*%
X252855700Y-197313500D03*
X239430700Y-199853500D03*
%TD*%
%TO.C,MX85*%
X276666700Y-197313500D03*
X263241700Y-199853500D03*
%TD*%
%TO.C,MX86*%
X300477700Y-197313500D03*
X287052700Y-199853500D03*
%TD*%
%TO.C,MX87*%
X324288700Y-197313500D03*
X310863700Y-199853500D03*
%TD*%
%TO.C,MX88*%
X355243000Y-197313500D03*
X341818000Y-199853500D03*
%TD*%
%TO.C,MX89*%
X374291800Y-197313500D03*
X360866800Y-199853500D03*
%TD*%
%TO.C,MX90*%
X393340600Y-197313500D03*
X379915600Y-199853500D03*
%TD*%
%TO.C,C22*%
G36*
G01*
X357640000Y-177338800D02*
X356690000Y-177338800D01*
G75*
G02*
X356440000Y-177088800I0J250000D01*
G01*
X356440000Y-176588800D01*
G75*
G02*
X356690000Y-176338800I250000J0D01*
G01*
X357640000Y-176338800D01*
G75*
G02*
X357890000Y-176588800I0J-250000D01*
G01*
X357890000Y-177088800D01*
G75*
G02*
X357640000Y-177338800I-250000J0D01*
G01*
G37*
G36*
G01*
X357640000Y-179238800D02*
X356690000Y-179238800D01*
G75*
G02*
X356440000Y-178988800I0J250000D01*
G01*
X356440000Y-178488800D01*
G75*
G02*
X356690000Y-178238800I250000J0D01*
G01*
X357640000Y-178238800D01*
G75*
G02*
X357890000Y-178488800I0J-250000D01*
G01*
X357890000Y-178988800D01*
G75*
G02*
X357640000Y-179238800I-250000J0D01*
G01*
G37*
%TD*%
D13*
%TO.C,KD9*%
X242872200Y-95975100D03*
X242872200Y-99275100D03*
%TD*%
%TO.C,C1*%
G36*
G01*
X360924050Y-112230400D02*
X360924050Y-113180400D01*
G75*
G02*
X360674050Y-113430400I-250000J0D01*
G01*
X360174050Y-113430400D01*
G75*
G02*
X359924050Y-113180400I0J250000D01*
G01*
X359924050Y-112230400D01*
G75*
G02*
X360174050Y-111980400I250000J0D01*
G01*
X360674050Y-111980400D01*
G75*
G02*
X360924050Y-112230400I0J-250000D01*
G01*
G37*
G36*
G01*
X362824050Y-112230400D02*
X362824050Y-113180400D01*
G75*
G02*
X362574050Y-113430400I-250000J0D01*
G01*
X362074050Y-113430400D01*
G75*
G02*
X361824050Y-113180400I0J250000D01*
G01*
X361824050Y-112230400D01*
G75*
G02*
X362074050Y-111980400I250000J0D01*
G01*
X362574050Y-111980400D01*
G75*
G02*
X362824050Y-112230400I0J-250000D01*
G01*
G37*
%TD*%
%TO.C,C8*%
G36*
G01*
X291894200Y-186200800D02*
X291894200Y-185250800D01*
G75*
G02*
X292144200Y-185000800I250000J0D01*
G01*
X292644200Y-185000800D01*
G75*
G02*
X292894200Y-185250800I0J-250000D01*
G01*
X292894200Y-186200800D01*
G75*
G02*
X292644200Y-186450800I-250000J0D01*
G01*
X292144200Y-186450800D01*
G75*
G02*
X291894200Y-186200800I0J250000D01*
G01*
G37*
G36*
G01*
X289994200Y-186200800D02*
X289994200Y-185250800D01*
G75*
G02*
X290244200Y-185000800I250000J0D01*
G01*
X290744200Y-185000800D01*
G75*
G02*
X290994200Y-185250800I0J-250000D01*
G01*
X290994200Y-186200800D01*
G75*
G02*
X290744200Y-186450800I-250000J0D01*
G01*
X290244200Y-186450800D01*
G75*
G02*
X289994200Y-186200800I0J250000D01*
G01*
G37*
%TD*%
%TO.C,C9*%
G36*
G01*
X330894750Y-195940750D02*
X331844750Y-195940750D01*
G75*
G02*
X332094750Y-196190750I0J-250000D01*
G01*
X332094750Y-196690750D01*
G75*
G02*
X331844750Y-196940750I-250000J0D01*
G01*
X330894750Y-196940750D01*
G75*
G02*
X330644750Y-196690750I0J250000D01*
G01*
X330644750Y-196190750D01*
G75*
G02*
X330894750Y-195940750I250000J0D01*
G01*
G37*
G36*
G01*
X330894750Y-194040750D02*
X331844750Y-194040750D01*
G75*
G02*
X332094750Y-194290750I0J-250000D01*
G01*
X332094750Y-194790750D01*
G75*
G02*
X331844750Y-195040750I-250000J0D01*
G01*
X330894750Y-195040750D01*
G75*
G02*
X330644750Y-194790750I0J250000D01*
G01*
X330644750Y-194290750D01*
G75*
G02*
X330894750Y-194040750I250000J0D01*
G01*
G37*
%TD*%
%TO.C,R15*%
G36*
G01*
X286925700Y-177841952D02*
X286925700Y-176941948D01*
G75*
G02*
X287175698Y-176691950I249998J0D01*
G01*
X287700702Y-176691950D01*
G75*
G02*
X287950700Y-176941948I0J-249998D01*
G01*
X287950700Y-177841952D01*
G75*
G02*
X287700702Y-178091950I-249998J0D01*
G01*
X287175698Y-178091950D01*
G75*
G02*
X286925700Y-177841952I0J249998D01*
G01*
G37*
G36*
G01*
X285100700Y-177841952D02*
X285100700Y-176941948D01*
G75*
G02*
X285350698Y-176691950I249998J0D01*
G01*
X285875702Y-176691950D01*
G75*
G02*
X286125700Y-176941948I0J-249998D01*
G01*
X286125700Y-177841952D01*
G75*
G02*
X285875702Y-178091950I-249998J0D01*
G01*
X285350698Y-178091950D01*
G75*
G02*
X285100700Y-177841952I0J249998D01*
G01*
G37*
%TD*%
%TO.C,R16*%
G36*
G01*
X331372900Y-184191552D02*
X331372900Y-183291548D01*
G75*
G02*
X331622898Y-183041550I249998J0D01*
G01*
X332147902Y-183041550D01*
G75*
G02*
X332397900Y-183291548I0J-249998D01*
G01*
X332397900Y-184191552D01*
G75*
G02*
X332147902Y-184441550I-249998J0D01*
G01*
X331622898Y-184441550D01*
G75*
G02*
X331372900Y-184191552I0J249998D01*
G01*
G37*
G36*
G01*
X329547900Y-184191552D02*
X329547900Y-183291548D01*
G75*
G02*
X329797898Y-183041550I249998J0D01*
G01*
X330322902Y-183041550D01*
G75*
G02*
X330572900Y-183291548I0J-249998D01*
G01*
X330572900Y-184191552D01*
G75*
G02*
X330322902Y-184441550I-249998J0D01*
G01*
X329797898Y-184441550D01*
G75*
G02*
X329547900Y-184191552I0J249998D01*
G01*
G37*
%TD*%
D21*
%TO.C,U12*%
X347640600Y-157358900D03*
X348590600Y-155358900D03*
X346690600Y-155358900D03*
%TD*%
D22*
%TO.C,Y2*%
X348965400Y-188900600D03*
X352665400Y-188900600D03*
%TD*%
M02*
