M48
; DRILL file {KiCad (5.1.10)-1} date 11/26/21 21:30:37
; FORMAT={-:-/ absolute / metric / decimal}
; #@! TF.CreationDate,2021-11-26T21:30:37-05:00
; #@! TF.GenerationSoftware,Kicad,Pcbnew,(5.1.10)-1
; #@! TF.FileFunction,Plated,1,2,PTH
FMAT,2
METRIC
T1C0.400
T2C0.500
T3C0.600
T4C0.813
T5C1.000
T6C1.500
%
G90
G05
T1
X80.957Y-196.838
X80.957Y-210.336
X80.957Y-229.385
X80.957Y-248.434
X80.957Y-267.477
X80.957Y-281.763
X83.338Y-188.901
X83.338Y-202.399
X83.338Y-207.955
X83.338Y-222.242
X83.338Y-226.998
X83.338Y-241.285
X83.338Y-246.053
X83.338Y-260.34
X83.338Y-265.102
X83.338Y-278.596
X84.926Y-162.708
X86.116Y-199.224
X86.116Y-218.273
X86.116Y-256.372
X86.116Y-275.421
X92.863Y-162.708
X98.419Y-203.192
X98.419Y-222.242
X98.419Y-241.291
X98.419Y-260.334
X98.419Y-279.389
X103.181Y-163.502
X103.181Y-192.075
X104.768Y-162.708
X104.768Y-191.282
X105.562Y-268.271
X107.149Y-267.477
X107.943Y-172.634
X107.943Y-182.551
X107.943Y-201.208
X107.943Y-211.124
X109.531Y-210.331
X109.568Y-180.926
X110.324Y-230.173
X110.324Y-277.405
X111.912Y-180.926
X111.912Y-229.379
X112.705Y-220.257
X115.087Y-239.307
X115.087Y-249.222
X116.674Y-248.428
X116.674Y-259.546
X119.849Y-258.349
X122.23Y-174.614
X122.23Y-177.789
X122.23Y-192.075
X122.23Y-203.192
X123.817Y-191.282
X124.611Y-263.515
X124.611Y-279.389
X126.992Y-201.208
X129.373Y-263.515
X129.373Y-268.271
X130.96Y-267.477
X131.754Y-211.124
X131.754Y-222.242
X133.342Y-210.331
X133.342Y-259.546
X134.135Y-277.405
X136.516Y-220.257
X136.516Y-230.173
X136.516Y-241.291
X138.104Y-229.379
X141.279Y-163.502
X141.279Y-187.318
X141.279Y-192.075
X141.279Y-203.192
X141.279Y-239.307
X142.866Y-169.058
X144.453Y-247.634
X146.041Y-172.634
X146.041Y-201.208
X146.041Y-246.841
X146.041Y-260.334
X148.422Y-279.389
X150.009Y-191.282
X150.803Y-211.124
X150.803Y-222.242
X150.803Y-258.349
X152.39Y-210.331
X153.184Y-268.271
X154.772Y-267.477
X155.565Y-220.257
X155.565Y-230.173
X155.565Y-241.291
X157.153Y-229.379
X157.946Y-277.405
X160.327Y-163.502
X160.327Y-174.618
X160.327Y-187.318
X160.327Y-192.869
X160.327Y-203.192
X160.327Y-239.307
X161.915Y-162.708
X165.09Y-172.634
X165.09Y-201.208
X165.09Y-249.222
X165.09Y-260.334
X166.677Y-248.428
X169.058Y-191.282
X169.852Y-211.124
X169.852Y-222.242
X169.852Y-258.349
X171.439Y-210.331
X172.233Y-279.389
X174.614Y-220.257
X174.614Y-230.173
X174.614Y-241.291
X176.201Y-229.379
X179.376Y-163.502
X179.376Y-174.618
X179.376Y-187.318
X179.376Y-192.075
X179.376Y-203.192
X179.376Y-239.307
X180.964Y-162.708
X184.138Y-172.634
X184.138Y-201.208
X184.138Y-249.222
X184.138Y-260.334
X184.138Y-269.858
X185.726Y-248.428
X188.107Y-191.282
X188.901Y-211.124
X188.901Y-222.242
X188.901Y-258.349
X188.901Y-279.382
X190.488Y-210.331
X193.663Y-220.257
X193.663Y-230.173
X193.663Y-241.291
X195.25Y-229.379
X198.425Y-163.502
X198.425Y-174.618
X198.425Y-187.318
X198.425Y-192.075
X198.425Y-203.192
X198.425Y-239.307
X200.012Y-162.708
X203.187Y-172.634
X203.187Y-201.208
X203.187Y-249.222
X203.187Y-260.34
X203.187Y-269.858
X204.775Y-248.428
X207.156Y-191.282
X207.949Y-211.124
X207.949Y-222.242
X207.949Y-258.356
X209.537Y-210.331
X212.712Y-220.257
X212.712Y-230.173
X212.712Y-241.291
X214.299Y-229.379
X216.68Y-174.618
X217.474Y-187.318
X217.474Y-192.075
X217.474Y-203.192
X217.474Y-239.307
X222.236Y-201.208
X222.236Y-249.222
X222.236Y-260.34
X223.823Y-248.428
X224.617Y-268.271
X226.204Y-191.282
X226.204Y-267.477
X226.998Y-163.502
X226.998Y-211.124
X226.998Y-222.242
X226.998Y-258.356
X226.998Y-279.382
X228.586Y-210.331
X229.379Y-162.708
X229.379Y-277.405
X231.76Y-172.634
X231.76Y-220.257
X231.76Y-230.173
X231.76Y-241.291
X233.348Y-229.379
X236.523Y-187.715
X236.523Y-192.075
X236.523Y-203.192
X236.523Y-239.307
X241.285Y-201.208
X241.285Y-249.222
X241.285Y-260.34
X242.872Y-248.428
X243.666Y-279.389
X245.253Y-191.282
X246.047Y-163.502
X246.047Y-174.618
X246.047Y-211.124
X246.047Y-222.242
X246.047Y-258.356
X247.634Y-162.708
X247.634Y-210.331
X250.809Y-172.634
X250.809Y-220.257
X250.809Y-230.173
X250.809Y-241.291
X252.397Y-229.379
X255.571Y-187.715
X255.571Y-192.075
X255.571Y-203.192
X255.571Y-239.307
X260.334Y-201.208
X260.334Y-249.222
X260.334Y-260.34
X260.334Y-269.858
X261.921Y-248.428
X264.302Y-191.282
X265.096Y-163.502
X265.096Y-174.618
X265.096Y-211.124
X265.096Y-222.242
X265.096Y-258.356
X266.683Y-162.708
X266.683Y-210.331
X269.858Y-172.634
X269.858Y-220.257
X269.858Y-230.173
X269.858Y-241.291
X271.445Y-229.379
X274.62Y-187.715
X274.62Y-192.075
X274.62Y-203.192
X274.62Y-239.307
X279.382Y-201.208
X279.382Y-249.222
X279.382Y-260.34
X280.176Y-269.858
X280.97Y-248.428
X283.351Y-191.282
X284.145Y-163.502
X284.145Y-174.618
X284.145Y-211.124
X284.145Y-222.242
X284.145Y-258.356
X285.732Y-162.708
X285.732Y-210.331
X288.907Y-172.634
X288.907Y-220.257
X288.907Y-230.173
X288.907Y-241.291
X290.494Y-229.379
X293.669Y-192.075
X293.669Y-203.192
X293.669Y-239.307
X295.256Y-268.271
X296.05Y-279.382
X298.431Y-179.376
X298.431Y-201.208
X298.431Y-249.222
X298.431Y-260.34
X298.431Y-267.477
X300.019Y-248.428
X300.812Y-159.534
X300.812Y-277.405
X301.606Y-176.201
X301.606Y-180.476
X302.4Y-173.031
X302.4Y-191.282
X303.193Y-171.439
X303.193Y-174.614
X303.193Y-211.124
X303.193Y-222.242
X303.193Y-258.356
X304.781Y-210.331
X306.368Y-169.852
X306.368Y-177.789
X307.956Y-220.257
X307.956Y-230.173
X307.956Y-241.291
X309.543Y-169.852
X309.543Y-177.789
X309.543Y-229.379
X310.337Y-179.045
X312.718Y-163.502
X312.718Y-177.789
X312.718Y-192.075
X312.718Y-203.192
X312.718Y-239.307
X314.305Y-162.708
X314.305Y-176.201
X315.099Y-279.389
X316.686Y-171.439
X317.48Y-161.915
X317.48Y-173.825
X317.48Y-201.208
X317.48Y-249.222
X317.48Y-260.34
X319.067Y-248.428
X319.861Y-268.271
X321.448Y-191.282
X321.448Y-267.477
X322.242Y-211.124
X322.242Y-222.242
X322.242Y-258.356
X323.83Y-210.331
X324.623Y-277.405
X327.004Y-220.257
X327.004Y-230.173
X327.004Y-241.291
X328.592Y-229.379
X331.767Y-163.502
X331.767Y-177.789
X331.767Y-192.075
X331.767Y-203.192
X331.767Y-239.307
X333.354Y-162.708
X333.354Y-174.614
X336.529Y-172.634
X336.529Y-201.208
X336.529Y-260.34
X338.91Y-279.389
X341.291Y-211.124
X341.291Y-222.242
X342.878Y-210.331
X343.672Y-268.271
X345.26Y-267.477
X346.053Y-220.257
X346.053Y-241.291
X348.434Y-277.405
X350.815Y-163.502
X350.815Y-177.789
X350.815Y-203.192
X352.403Y-162.708
X352.8Y-174.618
X353.196Y-249.222
X353.99Y-259.54
X354.784Y-248.428
X355.578Y-172.634
X355.974Y-258.356
X357.959Y-230.173
X359.546Y-192.075
X359.546Y-229.379
X360.34Y-222.242
X361.133Y-241.291
X362.721Y-239.307
X362.721Y-279.389
X363.515Y-203.589
X365.102Y-201.208
X365.102Y-211.124
X366.689Y-210.331
X367.483Y-268.271
X369.07Y-267.477
X369.864Y-163.502
X369.864Y-174.618
X369.864Y-177.789
X369.864Y-220.257
X371.452Y-162.708
X371.848Y-259.546
X372.245Y-277.405
X374.626Y-172.634
X377.801Y-259.54
X378.992Y-202.002
X381.77Y-192.869
X384.151Y-221.845
X385.738Y-202.393
X386.532Y-190.488
X386.532Y-200.012
X386.532Y-201.012
X386.532Y-204.775
X386.532Y-205.775
X386.532Y-219.061
X386.532Y-220.061
X386.532Y-223.823
X386.532Y-224.823
X386.532Y-279.389
X387.326Y-189.694
X388.119Y-188.901
X388.913Y-174.618
X388.913Y-177.789
X391.294Y-171.439
X393.638Y-243.703
X395.263Y-238.904
X397.247Y-232.157
X397.644Y-226.601
X398.437Y-163.502
X398.437Y-177.789
X398.437Y-268.271
X399.231Y-188.107
X400.025Y-200.012
X400.025Y-201.012
X400.025Y-202.79
X400.025Y-204.775
X400.025Y-205.775
X400.025Y-217.474
X400.025Y-219.061
X400.025Y-230.967
X400.025Y-267.477
X400.612Y-220.061
X400.818Y-162.708
X400.818Y-210.331
X400.818Y-256.159
X400.818Y-257.159
X400.818Y-258.159
X400.818Y-261.921
X400.818Y-262.921
X401.612Y-249.222
X401.612Y-253.984
X403.2Y-172.634
X403.2Y-201.208
X403.2Y-220.257
X403.2Y-235.729
X403.2Y-258.746
X403.2Y-277.405
X403.993Y-223.03
X403.993Y-240.491
X404.787Y-198.425
X404.787Y-223.823
X407.168Y-246.047
X407.962Y-234.935
X408.078Y-252.512
X408.755Y-229.379
X409.549Y-243.666
X409.549Y-260.334
X411.137Y-238.11
X413.518Y-237.316
X413.518Y-241.285
X413.518Y-250.015
X415.105Y-258.746
X417.486Y-177.396
X417.486Y-192.075
X417.486Y-203.192
X417.486Y-222.242
X417.486Y-230.173
X417.486Y-234.141
X417.486Y-241.285
X417.486Y-279.389
X418.28Y-257.159
X418.28Y-258.159
X418.28Y-261.921
X418.28Y-262.921
X418.293Y-256.146
X419.074Y-210.331
X419.074Y-248.428
X419.074Y-267.477
X419.074Y-274.62
X420.661Y-260.334
X420.717Y-228.586
X420.808Y-227.377
X422.248Y-201.208
X422.248Y-220.257
X422.248Y-258.356
X422.248Y-277.405
X423.042Y-243.666
X435.741Y-192.075
X435.741Y-203.187
X435.741Y-222.242
X436.535Y-179.376
X436.535Y-260.34
X436.535Y-268.271
X436.535Y-279.389
X437.329Y-200.012
X437.329Y-243.666
X438.122Y-210.331
X438.122Y-267.477
X441.297Y-201.208
X441.297Y-220.257
X441.297Y-277.405
X442.091Y-162.708
X443.281Y-239.301
X447.647Y-233.348
X447.647Y-237.713
X450.028Y-162.708
X453.996Y-220.257
X454.79Y-201.208
X454.79Y-277.405
T2
X80.957Y-188.901
X101.594Y-169.852
X101.594Y-200.012
X101.594Y-219.061
X101.594Y-238.11
X101.594Y-257.159
X101.594Y-276.208
X104.768Y-189.694
X106.356Y-175.412
X123.817Y-189.694
X142.866Y-191.282
X161.915Y-191.282
X180.964Y-191.282
X200.012Y-191.282
X219.061Y-191.282
X238.11Y-191.282
X257.159Y-191.282
X276.208Y-191.282
X295.256Y-191.282
X314.305Y-191.282
X333.354Y-191.282
X361.927Y-191.282
X394.469Y-249.222
X395.263Y-241.285
X396.056Y-250.809
X397.644Y-252.397
X400.818Y-191.282
X407.962Y-237.316
X407.962Y-256.365
X411.137Y-256.365
X419.074Y-191.282
X438.122Y-191.282
X439.71Y-242.872
T4
X445.266Y-231.125
X445.266Y-233.665
X445.266Y-236.205
X445.266Y-238.745
T5
X86.275Y-160.724
X86.275Y-175.224
X88.775Y-160.724
X91.275Y-160.724
X91.275Y-175.224
X420.661Y-233.348
X420.661Y-235.888
X420.661Y-238.428
X420.661Y-240.968
X443.44Y-160.724
X443.44Y-175.224
X445.94Y-160.724
X448.44Y-160.724
X448.44Y-175.224
T3
X303.636Y-150.722G85X303.636Y-151.322
G05
X303.636Y-154.652G85X303.636Y-155.752
G05
X312.276Y-150.722G85X312.276Y-151.322
G05
X312.276Y-154.652G85X312.276Y-155.752
G05
T6
X83.175Y-167.574G85X83.175Y-168.874
G05
X94.376Y-167.574G85X94.376Y-168.874
G05
X440.34Y-167.574G85X440.34Y-168.874
G05
X451.54Y-167.574G85X451.54Y-168.874
G05
T0
M30
