%TF.GenerationSoftware,KiCad,Pcbnew,(5.1.10)-1*%
%TF.CreationDate,2021-12-17T20:47:38-05:00*%
%TF.ProjectId,custom_keyboard (f303),63757374-6f6d-45f6-9b65-79626f617264,rev?*%
%TF.SameCoordinates,Original*%
%TF.FileFunction,Paste,Bot*%
%TF.FilePolarity,Positive*%
%FSLAX46Y46*%
G04 Gerber Fmt 4.6, Leading zero omitted, Abs format (unit mm)*
G04 Created by KiCad (PCBNEW (5.1.10)-1) date 2021-12-17 20:47:38*
%MOMM*%
%LPD*%
G01*
G04 APERTURE LIST*
%ADD10R,0.800000X0.700000*%
%ADD11R,2.550000X2.500000*%
%ADD12R,1.800000X1.100000*%
%ADD13R,1.800000X1.200000*%
%ADD14R,1.550000X0.600000*%
%ADD15R,1.200000X0.900000*%
%ADD16R,0.900000X0.800000*%
%ADD17R,0.650000X1.060000*%
%ADD18R,1.060000X0.650000*%
%ADD19R,0.600000X1.450000*%
%ADD20R,0.300000X1.450000*%
%ADD21R,4.500000X2.000000*%
%ADD22R,0.900000X1.200000*%
G04 APERTURE END LIST*
D10*
%TO.C,LED90*%
X161158500Y-278657800D03*
X161158500Y-277557800D03*
X164258500Y-278657800D03*
X164258500Y-277557800D03*
%TD*%
%TO.C,LED89*%
X232591500Y-278657800D03*
X232591500Y-277557800D03*
X235691500Y-278657800D03*
X235691500Y-277557800D03*
%TD*%
%TO.C,LED88*%
X304024500Y-278657800D03*
X304024500Y-277557800D03*
X307124500Y-278657800D03*
X307124500Y-277557800D03*
%TD*%
%TO.C,LED87*%
X327835500Y-278657800D03*
X327835500Y-277557800D03*
X330935500Y-278657800D03*
X330935500Y-277557800D03*
%TD*%
%TO.C,LED86*%
X351646500Y-278657800D03*
X351646500Y-277557800D03*
X354746500Y-278657800D03*
X354746500Y-277557800D03*
%TD*%
%TO.C,LED85*%
X375457500Y-278657800D03*
X375457500Y-277557800D03*
X378557500Y-278657800D03*
X378557500Y-277557800D03*
%TD*%
%TO.C,LED84*%
X407205500Y-278657800D03*
X407205500Y-277557800D03*
X410305500Y-278657800D03*
X410305500Y-277557800D03*
%TD*%
%TO.C,LED83*%
X426254300Y-278657800D03*
X426254300Y-277557800D03*
X429354300Y-278657800D03*
X429354300Y-277557800D03*
%TD*%
%TO.C,LED82*%
X445303100Y-278657800D03*
X445303100Y-277557800D03*
X448403100Y-278657800D03*
X448403100Y-277557800D03*
%TD*%
%TO.C,LED81*%
X426254300Y-259609000D03*
X426254300Y-258509000D03*
X429354300Y-259609000D03*
X429354300Y-258509000D03*
%TD*%
%TO.C,LED64*%
X115917600Y-221511400D03*
X115917600Y-220411400D03*
X119017600Y-221511400D03*
X119017600Y-220411400D03*
%TD*%
%TO.C,LED63*%
X87344400Y-221511400D03*
X87344400Y-220411400D03*
X90444400Y-221511400D03*
X90444400Y-220411400D03*
%TD*%
%TO.C,LED62*%
X87344400Y-240560200D03*
X87344400Y-239460200D03*
X90444400Y-240560200D03*
X90444400Y-239460200D03*
%TD*%
%TO.C,LED61*%
X118298700Y-240560200D03*
X118298700Y-239460200D03*
X121398700Y-240560200D03*
X121398700Y-239460200D03*
%TD*%
%TO.C,LED60*%
X144490800Y-240560200D03*
X144490800Y-239460200D03*
X147590800Y-240560200D03*
X147590800Y-239460200D03*
%TD*%
%TO.C,LED59*%
X163539600Y-240560200D03*
X163539600Y-239460200D03*
X166639600Y-240560200D03*
X166639600Y-239460200D03*
%TD*%
%TO.C,LED58*%
X182588400Y-240560200D03*
X182588400Y-239460200D03*
X185688400Y-240560200D03*
X185688400Y-239460200D03*
%TD*%
%TO.C,LED57*%
X201637200Y-240560200D03*
X201637200Y-239460200D03*
X204737200Y-240560200D03*
X204737200Y-239460200D03*
%TD*%
%TO.C,LED56*%
X220686000Y-240560200D03*
X220686000Y-239460200D03*
X223786000Y-240560200D03*
X223786000Y-239460200D03*
%TD*%
%TO.C,LED55*%
X239734800Y-240560200D03*
X239734800Y-239460200D03*
X242834800Y-240560200D03*
X242834800Y-239460200D03*
%TD*%
%TO.C,LED54*%
X258783600Y-240560200D03*
X258783600Y-239460200D03*
X261883600Y-240560200D03*
X261883600Y-239460200D03*
%TD*%
%TO.C,LED53*%
X277832400Y-240560200D03*
X277832400Y-239460200D03*
X280932400Y-240560200D03*
X280932400Y-239460200D03*
%TD*%
%TO.C,LED52*%
X296881200Y-240560200D03*
X296881200Y-239460200D03*
X299981200Y-240560200D03*
X299981200Y-239460200D03*
%TD*%
%TO.C,LED51*%
X315930000Y-240560200D03*
X315930000Y-239460200D03*
X319030000Y-240560200D03*
X319030000Y-239460200D03*
%TD*%
%TO.C,LED50*%
X334978800Y-240560200D03*
X334978800Y-239460200D03*
X338078800Y-240560200D03*
X338078800Y-239460200D03*
%TD*%
%TO.C,LED49*%
X365933100Y-240560200D03*
X365933100Y-239460200D03*
X369033100Y-240560200D03*
X369033100Y-239460200D03*
%TD*%
D11*
%TO.C,MX84*%
X311416500Y-267952800D03*
X298489500Y-270492800D03*
%TD*%
%TO.C,MX29*%
X375706200Y-191757600D03*
X362779200Y-194297600D03*
%TD*%
D10*
%TO.C,LED32*%
X130204200Y-202462600D03*
X130204200Y-201362600D03*
X133304200Y-202462600D03*
X133304200Y-201362600D03*
%TD*%
%TO.C,LED31*%
X149253000Y-202462600D03*
X149253000Y-201362600D03*
X152353000Y-202462600D03*
X152353000Y-201362600D03*
%TD*%
%TO.C,LED30*%
X168301800Y-202462600D03*
X168301800Y-201362600D03*
X171401800Y-202462600D03*
X171401800Y-201362600D03*
%TD*%
%TO.C,LED29*%
X187350600Y-202462600D03*
X187350600Y-201362600D03*
X190450600Y-202462600D03*
X190450600Y-201362600D03*
%TD*%
%TO.C,LED28*%
X206399400Y-202462600D03*
X206399400Y-201362600D03*
X209499400Y-202462600D03*
X209499400Y-201362600D03*
%TD*%
%TO.C,LED27*%
X225448200Y-202462600D03*
X225448200Y-201362600D03*
X228548200Y-202462600D03*
X228548200Y-201362600D03*
%TD*%
%TO.C,LED26*%
X244497000Y-202462600D03*
X244497000Y-201362600D03*
X247597000Y-202462600D03*
X247597000Y-201362600D03*
%TD*%
%TO.C,LED25*%
X263545800Y-202462600D03*
X263545800Y-201362600D03*
X266645800Y-202462600D03*
X266645800Y-201362600D03*
%TD*%
%TO.C,LED24*%
X282594600Y-202462600D03*
X282594600Y-201362600D03*
X285694600Y-202462600D03*
X285694600Y-201362600D03*
%TD*%
%TO.C,LED23*%
X301643400Y-202462600D03*
X301643400Y-201362600D03*
X304743400Y-202462600D03*
X304743400Y-201362600D03*
%TD*%
%TO.C,LED22*%
X320692200Y-202462600D03*
X320692200Y-201362600D03*
X323792200Y-202462600D03*
X323792200Y-201362600D03*
%TD*%
%TO.C,LED21*%
X339741000Y-202462600D03*
X339741000Y-201362600D03*
X342841000Y-202462600D03*
X342841000Y-201362600D03*
%TD*%
%TO.C,LED20*%
X368314200Y-202462600D03*
X368314200Y-201362600D03*
X371414200Y-202462600D03*
X371414200Y-201362600D03*
%TD*%
%TO.C,LED19*%
X406411800Y-202462600D03*
X406411800Y-201362600D03*
X409511800Y-202462600D03*
X409511800Y-201362600D03*
%TD*%
%TO.C,LED18*%
X425460600Y-202462600D03*
X425460600Y-201362600D03*
X428560600Y-202462600D03*
X428560600Y-201362600D03*
%TD*%
%TO.C,LED17*%
X444509400Y-202462600D03*
X444509400Y-201362600D03*
X447609400Y-202462600D03*
X447609400Y-201362600D03*
%TD*%
D11*
%TO.C,MX83*%
X239983500Y-267952800D03*
X227056500Y-270492800D03*
%TD*%
%TO.C,MX22*%
X232840200Y-191757600D03*
X219913200Y-194297600D03*
%TD*%
D10*
%TO.C,LED1*%
X87344400Y-202462600D03*
X87344400Y-201362600D03*
X90444400Y-202462600D03*
X90444400Y-201362600D03*
%TD*%
D11*
%TO.C,MX2*%
X156645000Y-163184400D03*
X143718000Y-165724400D03*
%TD*%
D10*
%TO.C,LED2*%
X111155400Y-202462600D03*
X111155400Y-201362600D03*
X114255400Y-202462600D03*
X114255400Y-201362600D03*
%TD*%
D11*
%TO.C,MX3*%
X175693800Y-163184400D03*
X162766800Y-165724400D03*
%TD*%
D10*
%TO.C,LED80*%
X361170900Y-259609000D03*
X361170900Y-258509000D03*
X364270900Y-259609000D03*
X364270900Y-258509000D03*
%TD*%
%TO.C,LED79*%
X325454400Y-259609000D03*
X325454400Y-258509000D03*
X328554400Y-259609000D03*
X328554400Y-258509000D03*
%TD*%
%TO.C,LED78*%
X306405600Y-259609000D03*
X306405600Y-258509000D03*
X309505600Y-259609000D03*
X309505600Y-258509000D03*
%TD*%
%TO.C,LED77*%
X287356800Y-259609000D03*
X287356800Y-258509000D03*
X290456800Y-259609000D03*
X290456800Y-258509000D03*
%TD*%
%TO.C,LED76*%
X268308000Y-259609000D03*
X268308000Y-258509000D03*
X271408000Y-259609000D03*
X271408000Y-258509000D03*
%TD*%
%TO.C,LED75*%
X249259200Y-259609000D03*
X249259200Y-258509000D03*
X252359200Y-259609000D03*
X252359200Y-258509000D03*
%TD*%
%TO.C,LED74*%
X230210400Y-259609000D03*
X230210400Y-258509000D03*
X233310400Y-259609000D03*
X233310400Y-258509000D03*
%TD*%
%TO.C,LED73*%
X211161600Y-259609000D03*
X211161600Y-258509000D03*
X214261600Y-259609000D03*
X214261600Y-258509000D03*
%TD*%
%TO.C,LED72*%
X192112800Y-259609000D03*
X192112800Y-258509000D03*
X195212800Y-259609000D03*
X195212800Y-258509000D03*
%TD*%
%TO.C,LED71*%
X173064000Y-259609000D03*
X173064000Y-258509000D03*
X176164000Y-259609000D03*
X176164000Y-258509000D03*
%TD*%
%TO.C,LED70*%
X154015200Y-259609000D03*
X154015200Y-258509000D03*
X157115200Y-259609000D03*
X157115200Y-258509000D03*
%TD*%
%TO.C,LED69*%
X123060900Y-259609000D03*
X123060900Y-258509000D03*
X126160900Y-259609000D03*
X126160900Y-258509000D03*
%TD*%
%TO.C,LED68*%
X87344400Y-259609000D03*
X87344400Y-258509000D03*
X90444400Y-259609000D03*
X90444400Y-258509000D03*
%TD*%
%TO.C,LED67*%
X87344400Y-278657800D03*
X87344400Y-277557800D03*
X90444400Y-278657800D03*
X90444400Y-277557800D03*
%TD*%
%TO.C,LED66*%
X111155400Y-278657800D03*
X111155400Y-277557800D03*
X114255400Y-278657800D03*
X114255400Y-277557800D03*
%TD*%
%TO.C,LED65*%
X137347500Y-278657800D03*
X137347500Y-277557800D03*
X140447500Y-278657800D03*
X140447500Y-277557800D03*
%TD*%
%TO.C,LED48*%
X444509400Y-221511400D03*
X444509400Y-220411400D03*
X447609400Y-221511400D03*
X447609400Y-220411400D03*
%TD*%
%TO.C,LED47*%
X425460600Y-221511400D03*
X425460600Y-220411400D03*
X428560600Y-221511400D03*
X428560600Y-220411400D03*
%TD*%
%TO.C,LED46*%
X406411800Y-221511400D03*
X406411800Y-220411400D03*
X409511800Y-221511400D03*
X409511800Y-220411400D03*
%TD*%
%TO.C,LED45*%
X373076400Y-221511400D03*
X373076400Y-220411400D03*
X376176400Y-221511400D03*
X376176400Y-220411400D03*
%TD*%
%TO.C,LED44*%
X349265400Y-221511400D03*
X349265400Y-220411400D03*
X352365400Y-221511400D03*
X352365400Y-220411400D03*
%TD*%
%TO.C,LED43*%
X330216600Y-221511400D03*
X330216600Y-220411400D03*
X333316600Y-221511400D03*
X333316600Y-220411400D03*
%TD*%
%TO.C,LED42*%
X311167800Y-221511400D03*
X311167800Y-220411400D03*
X314267800Y-221511400D03*
X314267800Y-220411400D03*
%TD*%
%TO.C,LED41*%
X292119000Y-221511400D03*
X292119000Y-220411400D03*
X295219000Y-221511400D03*
X295219000Y-220411400D03*
%TD*%
%TO.C,LED40*%
X273070200Y-221511400D03*
X273070200Y-220411400D03*
X276170200Y-221511400D03*
X276170200Y-220411400D03*
%TD*%
%TO.C,LED39*%
X254021400Y-221511400D03*
X254021400Y-220411400D03*
X257121400Y-221511400D03*
X257121400Y-220411400D03*
%TD*%
%TO.C,LED38*%
X234972600Y-221511400D03*
X234972600Y-220411400D03*
X238072600Y-221511400D03*
X238072600Y-220411400D03*
%TD*%
%TO.C,LED37*%
X215923800Y-221511400D03*
X215923800Y-220411400D03*
X219023800Y-221511400D03*
X219023800Y-220411400D03*
%TD*%
%TO.C,LED36*%
X196875000Y-221511400D03*
X196875000Y-220411400D03*
X199975000Y-221511400D03*
X199975000Y-220411400D03*
%TD*%
%TO.C,LED35*%
X177826200Y-221511400D03*
X177826200Y-220411400D03*
X180926200Y-221511400D03*
X180926200Y-220411400D03*
%TD*%
%TO.C,LED34*%
X158777400Y-221511400D03*
X158777400Y-220411400D03*
X161877400Y-221511400D03*
X161877400Y-220411400D03*
%TD*%
%TO.C,LED33*%
X139728600Y-221511400D03*
X139728600Y-220411400D03*
X142828600Y-221511400D03*
X142828600Y-220411400D03*
%TD*%
%TO.C,LED16*%
X406411800Y-173889400D03*
X406411800Y-172789400D03*
X409511800Y-173889400D03*
X409511800Y-172789400D03*
%TD*%
%TO.C,LED15*%
X377838600Y-173889400D03*
X377838600Y-172789400D03*
X380938600Y-173889400D03*
X380938600Y-172789400D03*
%TD*%
%TO.C,LED14*%
X358789800Y-173889400D03*
X358789800Y-172789400D03*
X361889800Y-173889400D03*
X361889800Y-172789400D03*
%TD*%
%TO.C,LED13*%
X339741000Y-173889400D03*
X339741000Y-172789400D03*
X342841000Y-173889400D03*
X342841000Y-172789400D03*
%TD*%
%TO.C,LED12*%
X320692200Y-173889400D03*
X320692200Y-172789400D03*
X323792200Y-173889400D03*
X323792200Y-172789400D03*
%TD*%
%TO.C,LED11*%
X292119000Y-173889400D03*
X292119000Y-172789400D03*
X295219000Y-173889400D03*
X295219000Y-172789400D03*
%TD*%
%TO.C,LED10*%
X273070200Y-173889400D03*
X273070200Y-172789400D03*
X276170200Y-173889400D03*
X276170200Y-172789400D03*
%TD*%
%TO.C,LED9*%
X254021400Y-173889400D03*
X254021400Y-172789400D03*
X257121400Y-173889400D03*
X257121400Y-172789400D03*
%TD*%
%TO.C,LED8*%
X234972600Y-173889400D03*
X234972600Y-172789400D03*
X238072600Y-173889400D03*
X238072600Y-172789400D03*
%TD*%
%TO.C,LED7*%
X206399400Y-173889400D03*
X206399400Y-172789400D03*
X209499400Y-173889400D03*
X209499400Y-172789400D03*
%TD*%
%TO.C,LED6*%
X187350600Y-173889400D03*
X187350600Y-172789400D03*
X190450600Y-173889400D03*
X190450600Y-172789400D03*
%TD*%
%TO.C,LED5*%
X168301800Y-173889400D03*
X168301800Y-172789400D03*
X171401800Y-173889400D03*
X171401800Y-172789400D03*
%TD*%
%TO.C,LED4*%
X149253000Y-173889400D03*
X149253000Y-172789400D03*
X152353000Y-173889400D03*
X152353000Y-172789400D03*
%TD*%
%TO.C,LED3*%
X111155400Y-173889400D03*
X111155400Y-172789400D03*
X114255400Y-173889400D03*
X114255400Y-172789400D03*
%TD*%
D12*
%TO.C,SW1*%
X438841300Y-234404100D03*
X432641300Y-230704100D03*
X438841300Y-230704100D03*
X432641300Y-234404100D03*
%TD*%
D13*
%TO.C,J2*%
X398543700Y-224198200D03*
X398543700Y-229798200D03*
D14*
X402418700Y-228498200D03*
X402418700Y-227498200D03*
X402418700Y-225498200D03*
X402418700Y-226498200D03*
%TD*%
D11*
%TO.C,MX18*%
X156645000Y-191757600D03*
X143718000Y-194297600D03*
%TD*%
%TO.C,MX32*%
X451901400Y-191757600D03*
X438974400Y-194297600D03*
%TD*%
%TO.C,MX12*%
X366181800Y-163184400D03*
X353254800Y-165724400D03*
%TD*%
%TO.C,MX51*%
X94736400Y-229855200D03*
X81809400Y-232395200D03*
%TD*%
%TO.C,MX90*%
X451901400Y-267952800D03*
X438974400Y-270492800D03*
%TD*%
%TO.C,MX89*%
X432852600Y-267952800D03*
X419925600Y-270492800D03*
%TD*%
%TO.C,MX88*%
X413803800Y-267952800D03*
X400876800Y-270492800D03*
%TD*%
%TO.C,MX87*%
X382849500Y-267952800D03*
X369922500Y-270492800D03*
%TD*%
%TO.C,MX86*%
X359038500Y-267952800D03*
X346111500Y-270492800D03*
%TD*%
%TO.C,MX85*%
X335227500Y-267952800D03*
X322300500Y-270492800D03*
%TD*%
%TO.C,MX82*%
X168550500Y-267952800D03*
X155623500Y-270492800D03*
%TD*%
%TO.C,MX81*%
X144739500Y-267952800D03*
X131812500Y-270492800D03*
%TD*%
%TO.C,MX80*%
X120928500Y-267952800D03*
X108001500Y-270492800D03*
%TD*%
%TO.C,MX79*%
X94736400Y-267952800D03*
X81809400Y-270492800D03*
%TD*%
%TO.C,MX78*%
X432852600Y-248904000D03*
X419925600Y-251444000D03*
%TD*%
%TO.C,MX77*%
X368562900Y-248904000D03*
X355635900Y-251444000D03*
%TD*%
%TO.C,MX76*%
X332846400Y-248904000D03*
X319919400Y-251444000D03*
%TD*%
%TO.C,MX75*%
X313797600Y-248904000D03*
X300870600Y-251444000D03*
%TD*%
%TO.C,MX74*%
X294748800Y-248904000D03*
X281821800Y-251444000D03*
%TD*%
%TO.C,MX73*%
X275700000Y-248904000D03*
X262773000Y-251444000D03*
%TD*%
%TO.C,MX72*%
X256651200Y-248904000D03*
X243724200Y-251444000D03*
%TD*%
%TO.C,MX71*%
X237602400Y-248904000D03*
X224675400Y-251444000D03*
%TD*%
%TO.C,MX70*%
X218553600Y-248904000D03*
X205626600Y-251444000D03*
%TD*%
%TO.C,MX69*%
X199504800Y-248904000D03*
X186577800Y-251444000D03*
%TD*%
%TO.C,MX68*%
X180456000Y-248904000D03*
X167529000Y-251444000D03*
%TD*%
%TO.C,MX67*%
X161407200Y-248904000D03*
X148480200Y-251444000D03*
%TD*%
%TO.C,MX66*%
X130452900Y-248904000D03*
X117525900Y-251444000D03*
%TD*%
%TO.C,MX65*%
X94736400Y-248904000D03*
X81809400Y-251444000D03*
%TD*%
%TO.C,MX64*%
X373325100Y-229855200D03*
X360398100Y-232395200D03*
%TD*%
%TO.C,MX63*%
X342370800Y-229855200D03*
X329443800Y-232395200D03*
%TD*%
%TO.C,MX62*%
X323322000Y-229855200D03*
X310395000Y-232395200D03*
%TD*%
%TO.C,MX61*%
X304273200Y-229855200D03*
X291346200Y-232395200D03*
%TD*%
%TO.C,MX60*%
X285224400Y-229855200D03*
X272297400Y-232395200D03*
%TD*%
%TO.C,MX59*%
X266175600Y-229855200D03*
X253248600Y-232395200D03*
%TD*%
%TO.C,MX58*%
X247126800Y-229855200D03*
X234199800Y-232395200D03*
%TD*%
%TO.C,MX57*%
X228078000Y-229855200D03*
X215151000Y-232395200D03*
%TD*%
%TO.C,MX56*%
X209029200Y-229855200D03*
X196102200Y-232395200D03*
%TD*%
%TO.C,MX55*%
X189980400Y-229855200D03*
X177053400Y-232395200D03*
%TD*%
%TO.C,MX54*%
X170931600Y-229855200D03*
X158004600Y-232395200D03*
%TD*%
%TO.C,MX53*%
X151824500Y-229855200D03*
X138897500Y-232395200D03*
%TD*%
%TO.C,MX52*%
X125690700Y-229855200D03*
X112763700Y-232395200D03*
%TD*%
%TO.C,MX50*%
X451901400Y-210806400D03*
X438974400Y-213346400D03*
%TD*%
%TO.C,MX49*%
X432852600Y-210806400D03*
X419925600Y-213346400D03*
%TD*%
%TO.C,MX48*%
X413803800Y-210806400D03*
X400876800Y-213346400D03*
%TD*%
%TO.C,MX47*%
X367541400Y-213346400D03*
X380468400Y-210806400D03*
%TD*%
%TO.C,MX46*%
X356657400Y-210806400D03*
X343730400Y-213346400D03*
%TD*%
%TO.C,MX45*%
X337608600Y-210806400D03*
X324681600Y-213346400D03*
%TD*%
%TO.C,MX44*%
X318559800Y-210806400D03*
X305632800Y-213346400D03*
%TD*%
%TO.C,MX43*%
X299511000Y-210806400D03*
X286584000Y-213346400D03*
%TD*%
%TO.C,MX42*%
X280462200Y-210806400D03*
X267535200Y-213346400D03*
%TD*%
%TO.C,MX41*%
X261413400Y-210806400D03*
X248486400Y-213346400D03*
%TD*%
%TO.C,MX40*%
X242364600Y-210806400D03*
X229437600Y-213346400D03*
%TD*%
%TO.C,MX39*%
X223315800Y-210806400D03*
X210388800Y-213346400D03*
%TD*%
%TO.C,MX38*%
X204267000Y-210806400D03*
X191340000Y-213346400D03*
%TD*%
%TO.C,MX37*%
X185218200Y-210806400D03*
X172291200Y-213346400D03*
%TD*%
%TO.C,MX36*%
X166169400Y-210806400D03*
X153242400Y-213346400D03*
%TD*%
%TO.C,MX35*%
X147120600Y-210806400D03*
X134193600Y-213346400D03*
%TD*%
%TO.C,MX34*%
X110382600Y-213346400D03*
X123309600Y-210806400D03*
%TD*%
%TO.C,MX33*%
X94736400Y-210806400D03*
X81809400Y-213346400D03*
%TD*%
%TO.C,MX31*%
X432852600Y-191757600D03*
X419925600Y-194297600D03*
%TD*%
%TO.C,MX30*%
X413803800Y-191757600D03*
X400876800Y-194297600D03*
%TD*%
%TO.C,MX28*%
X347133000Y-191757600D03*
X334206000Y-194297600D03*
%TD*%
%TO.C,MX27*%
X328084200Y-191757600D03*
X315157200Y-194297600D03*
%TD*%
%TO.C,MX26*%
X309035400Y-191757600D03*
X296108400Y-194297600D03*
%TD*%
%TO.C,MX25*%
X289986600Y-191757600D03*
X277059600Y-194297600D03*
%TD*%
%TO.C,MX24*%
X270937800Y-191757600D03*
X258010800Y-194297600D03*
%TD*%
%TO.C,MX23*%
X251889000Y-191757600D03*
X238962000Y-194297600D03*
%TD*%
%TO.C,MX21*%
X213791400Y-191757600D03*
X200864400Y-194297600D03*
%TD*%
%TO.C,MX20*%
X194742600Y-191757600D03*
X181815600Y-194297600D03*
%TD*%
%TO.C,MX19*%
X175693800Y-191757600D03*
X162766800Y-194297600D03*
%TD*%
%TO.C,MX17*%
X137596200Y-191757600D03*
X124669200Y-194297600D03*
%TD*%
%TO.C,MX16*%
X118547400Y-191757600D03*
X105620400Y-194297600D03*
%TD*%
%TO.C,MX15*%
X94736400Y-191757600D03*
X81809400Y-194297600D03*
%TD*%
%TO.C,MX14*%
X413803800Y-163184400D03*
X400876800Y-165724400D03*
%TD*%
%TO.C,MX13*%
X385230600Y-163184400D03*
X372303600Y-165724400D03*
%TD*%
%TO.C,MX11*%
X347133000Y-163184400D03*
X334206000Y-165724400D03*
%TD*%
%TO.C,MX10*%
X328084200Y-163184400D03*
X315157200Y-165724400D03*
%TD*%
%TO.C,MX9*%
X299511000Y-163184400D03*
X286584000Y-165724400D03*
%TD*%
%TO.C,MX8*%
X280462200Y-163184400D03*
X267535200Y-165724400D03*
%TD*%
%TO.C,MX7*%
X261413400Y-163184400D03*
X248486400Y-165724400D03*
%TD*%
%TO.C,MX6*%
X242364600Y-163184400D03*
X229437600Y-165724400D03*
%TD*%
%TO.C,MX5*%
X213791400Y-163184400D03*
X200864400Y-165724400D03*
%TD*%
%TO.C,MX4*%
X194742600Y-163184400D03*
X181815600Y-165724400D03*
%TD*%
%TO.C,MX1*%
X118547400Y-163184400D03*
X105620400Y-165724400D03*
%TD*%
D15*
%TO.C,KD76*%
X334941400Y-252334000D03*
X334941400Y-255634000D03*
%TD*%
%TO.C,R19*%
G36*
G01*
X385344500Y-251259201D02*
X385344500Y-250359199D01*
G75*
G02*
X385594499Y-250109200I249999J0D01*
G01*
X386119501Y-250109200D01*
G75*
G02*
X386369500Y-250359199I0J-249999D01*
G01*
X386369500Y-251259201D01*
G75*
G02*
X386119501Y-251509200I-249999J0D01*
G01*
X385594499Y-251509200D01*
G75*
G02*
X385344500Y-251259201I0J249999D01*
G01*
G37*
G36*
G01*
X383519500Y-251259201D02*
X383519500Y-250359199D01*
G75*
G02*
X383769499Y-250109200I249999J0D01*
G01*
X384294501Y-250109200D01*
G75*
G02*
X384544500Y-250359199I0J-249999D01*
G01*
X384544500Y-251259201D01*
G75*
G02*
X384294501Y-251509200I-249999J0D01*
G01*
X383769499Y-251509200D01*
G75*
G02*
X383519500Y-251259201I0J249999D01*
G01*
G37*
%TD*%
%TO.C,R18*%
G36*
G01*
X345778300Y-248878101D02*
X345778300Y-247978099D01*
G75*
G02*
X346028299Y-247728100I249999J0D01*
G01*
X346553301Y-247728100D01*
G75*
G02*
X346803300Y-247978099I0J-249999D01*
G01*
X346803300Y-248878101D01*
G75*
G02*
X346553301Y-249128100I-249999J0D01*
G01*
X346028299Y-249128100D01*
G75*
G02*
X345778300Y-248878101I0J249999D01*
G01*
G37*
G36*
G01*
X343953300Y-248878101D02*
X343953300Y-247978099D01*
G75*
G02*
X344203299Y-247728100I249999J0D01*
G01*
X344728301Y-247728100D01*
G75*
G02*
X344978300Y-247978099I0J-249999D01*
G01*
X344978300Y-248878101D01*
G75*
G02*
X344728301Y-249128100I-249999J0D01*
G01*
X344203299Y-249128100D01*
G75*
G02*
X343953300Y-248878101I0J249999D01*
G01*
G37*
%TD*%
%TO.C,I3*%
G36*
G01*
X382905900Y-256475100D02*
X383370900Y-256475100D01*
G75*
G02*
X383603400Y-256707600I0J-232500D01*
G01*
X383603400Y-257172600D01*
G75*
G02*
X383370900Y-257405100I-232500J0D01*
G01*
X382905900Y-257405100D01*
G75*
G02*
X382673400Y-257172600I0J232500D01*
G01*
X382673400Y-256707600D01*
G75*
G02*
X382905900Y-256475100I232500J0D01*
G01*
G37*
G36*
G01*
X381755900Y-256475100D02*
X382220900Y-256475100D01*
G75*
G02*
X382453400Y-256707600I0J-232500D01*
G01*
X382453400Y-257172600D01*
G75*
G02*
X382220900Y-257405100I-232500J0D01*
G01*
X381755900Y-257405100D01*
G75*
G02*
X381523400Y-257172600I0J232500D01*
G01*
X381523400Y-256707600D01*
G75*
G02*
X381755900Y-256475100I232500J0D01*
G01*
G37*
G36*
G01*
X382905900Y-255325100D02*
X383370900Y-255325100D01*
G75*
G02*
X383603400Y-255557600I0J-232500D01*
G01*
X383603400Y-256022600D01*
G75*
G02*
X383370900Y-256255100I-232500J0D01*
G01*
X382905900Y-256255100D01*
G75*
G02*
X382673400Y-256022600I0J232500D01*
G01*
X382673400Y-255557600D01*
G75*
G02*
X382905900Y-255325100I232500J0D01*
G01*
G37*
G36*
G01*
X381755900Y-255325100D02*
X382220900Y-255325100D01*
G75*
G02*
X382453400Y-255557600I0J-232500D01*
G01*
X382453400Y-256022600D01*
G75*
G02*
X382220900Y-256255100I-232500J0D01*
G01*
X381755900Y-256255100D01*
G75*
G02*
X381523400Y-256022600I0J232500D01*
G01*
X381523400Y-255557600D01*
G75*
G02*
X381755900Y-255325100I232500J0D01*
G01*
G37*
G36*
G01*
X380263400Y-255065100D02*
X380988400Y-255065100D01*
G75*
G02*
X381038400Y-255115100I0J-50000D01*
G01*
X381038400Y-255215100D01*
G75*
G02*
X380988400Y-255265100I-50000J0D01*
G01*
X380263400Y-255265100D01*
G75*
G02*
X380213400Y-255215100I0J50000D01*
G01*
X380213400Y-255115100D01*
G75*
G02*
X380263400Y-255065100I50000J0D01*
G01*
G37*
G36*
G01*
X380263400Y-255465100D02*
X380988400Y-255465100D01*
G75*
G02*
X381038400Y-255515100I0J-50000D01*
G01*
X381038400Y-255615100D01*
G75*
G02*
X380988400Y-255665100I-50000J0D01*
G01*
X380263400Y-255665100D01*
G75*
G02*
X380213400Y-255615100I0J50000D01*
G01*
X380213400Y-255515100D01*
G75*
G02*
X380263400Y-255465100I50000J0D01*
G01*
G37*
G36*
G01*
X380263400Y-255865100D02*
X380988400Y-255865100D01*
G75*
G02*
X381038400Y-255915100I0J-50000D01*
G01*
X381038400Y-256015100D01*
G75*
G02*
X380988400Y-256065100I-50000J0D01*
G01*
X380263400Y-256065100D01*
G75*
G02*
X380213400Y-256015100I0J50000D01*
G01*
X380213400Y-255915100D01*
G75*
G02*
X380263400Y-255865100I50000J0D01*
G01*
G37*
G36*
G01*
X380263400Y-256265100D02*
X380988400Y-256265100D01*
G75*
G02*
X381038400Y-256315100I0J-50000D01*
G01*
X381038400Y-256415100D01*
G75*
G02*
X380988400Y-256465100I-50000J0D01*
G01*
X380263400Y-256465100D01*
G75*
G02*
X380213400Y-256415100I0J50000D01*
G01*
X380213400Y-256315100D01*
G75*
G02*
X380263400Y-256265100I50000J0D01*
G01*
G37*
G36*
G01*
X380263400Y-256665100D02*
X380988400Y-256665100D01*
G75*
G02*
X381038400Y-256715100I0J-50000D01*
G01*
X381038400Y-256815100D01*
G75*
G02*
X380988400Y-256865100I-50000J0D01*
G01*
X380263400Y-256865100D01*
G75*
G02*
X380213400Y-256815100I0J50000D01*
G01*
X380213400Y-256715100D01*
G75*
G02*
X380263400Y-256665100I50000J0D01*
G01*
G37*
G36*
G01*
X380263400Y-257065100D02*
X380988400Y-257065100D01*
G75*
G02*
X381038400Y-257115100I0J-50000D01*
G01*
X381038400Y-257215100D01*
G75*
G02*
X380988400Y-257265100I-50000J0D01*
G01*
X380263400Y-257265100D01*
G75*
G02*
X380213400Y-257215100I0J50000D01*
G01*
X380213400Y-257115100D01*
G75*
G02*
X380263400Y-257065100I50000J0D01*
G01*
G37*
G36*
G01*
X380263400Y-257465100D02*
X380988400Y-257465100D01*
G75*
G02*
X381038400Y-257515100I0J-50000D01*
G01*
X381038400Y-257615100D01*
G75*
G02*
X380988400Y-257665100I-50000J0D01*
G01*
X380263400Y-257665100D01*
G75*
G02*
X380213400Y-257615100I0J50000D01*
G01*
X380213400Y-257515100D01*
G75*
G02*
X380263400Y-257465100I50000J0D01*
G01*
G37*
G36*
G01*
X381313400Y-257890100D02*
X381413400Y-257890100D01*
G75*
G02*
X381463400Y-257940100I0J-50000D01*
G01*
X381463400Y-258665100D01*
G75*
G02*
X381413400Y-258715100I-50000J0D01*
G01*
X381313400Y-258715100D01*
G75*
G02*
X381263400Y-258665100I0J50000D01*
G01*
X381263400Y-257940100D01*
G75*
G02*
X381313400Y-257890100I50000J0D01*
G01*
G37*
G36*
G01*
X381713400Y-257890100D02*
X381813400Y-257890100D01*
G75*
G02*
X381863400Y-257940100I0J-50000D01*
G01*
X381863400Y-258665100D01*
G75*
G02*
X381813400Y-258715100I-50000J0D01*
G01*
X381713400Y-258715100D01*
G75*
G02*
X381663400Y-258665100I0J50000D01*
G01*
X381663400Y-257940100D01*
G75*
G02*
X381713400Y-257890100I50000J0D01*
G01*
G37*
G36*
G01*
X382113400Y-257890100D02*
X382213400Y-257890100D01*
G75*
G02*
X382263400Y-257940100I0J-50000D01*
G01*
X382263400Y-258665100D01*
G75*
G02*
X382213400Y-258715100I-50000J0D01*
G01*
X382113400Y-258715100D01*
G75*
G02*
X382063400Y-258665100I0J50000D01*
G01*
X382063400Y-257940100D01*
G75*
G02*
X382113400Y-257890100I50000J0D01*
G01*
G37*
G36*
G01*
X382513400Y-257890100D02*
X382613400Y-257890100D01*
G75*
G02*
X382663400Y-257940100I0J-50000D01*
G01*
X382663400Y-258665100D01*
G75*
G02*
X382613400Y-258715100I-50000J0D01*
G01*
X382513400Y-258715100D01*
G75*
G02*
X382463400Y-258665100I0J50000D01*
G01*
X382463400Y-257940100D01*
G75*
G02*
X382513400Y-257890100I50000J0D01*
G01*
G37*
G36*
G01*
X382913400Y-257890100D02*
X383013400Y-257890100D01*
G75*
G02*
X383063400Y-257940100I0J-50000D01*
G01*
X383063400Y-258665100D01*
G75*
G02*
X383013400Y-258715100I-50000J0D01*
G01*
X382913400Y-258715100D01*
G75*
G02*
X382863400Y-258665100I0J50000D01*
G01*
X382863400Y-257940100D01*
G75*
G02*
X382913400Y-257890100I50000J0D01*
G01*
G37*
G36*
G01*
X383313400Y-257890100D02*
X383413400Y-257890100D01*
G75*
G02*
X383463400Y-257940100I0J-50000D01*
G01*
X383463400Y-258665100D01*
G75*
G02*
X383413400Y-258715100I-50000J0D01*
G01*
X383313400Y-258715100D01*
G75*
G02*
X383263400Y-258665100I0J50000D01*
G01*
X383263400Y-257940100D01*
G75*
G02*
X383313400Y-257890100I50000J0D01*
G01*
G37*
G36*
G01*
X383713400Y-257890100D02*
X383813400Y-257890100D01*
G75*
G02*
X383863400Y-257940100I0J-50000D01*
G01*
X383863400Y-258665100D01*
G75*
G02*
X383813400Y-258715100I-50000J0D01*
G01*
X383713400Y-258715100D01*
G75*
G02*
X383663400Y-258665100I0J50000D01*
G01*
X383663400Y-257940100D01*
G75*
G02*
X383713400Y-257890100I50000J0D01*
G01*
G37*
G36*
G01*
X384138400Y-257465100D02*
X384863400Y-257465100D01*
G75*
G02*
X384913400Y-257515100I0J-50000D01*
G01*
X384913400Y-257615100D01*
G75*
G02*
X384863400Y-257665100I-50000J0D01*
G01*
X384138400Y-257665100D01*
G75*
G02*
X384088400Y-257615100I0J50000D01*
G01*
X384088400Y-257515100D01*
G75*
G02*
X384138400Y-257465100I50000J0D01*
G01*
G37*
G36*
G01*
X384138400Y-257065100D02*
X384863400Y-257065100D01*
G75*
G02*
X384913400Y-257115100I0J-50000D01*
G01*
X384913400Y-257215100D01*
G75*
G02*
X384863400Y-257265100I-50000J0D01*
G01*
X384138400Y-257265100D01*
G75*
G02*
X384088400Y-257215100I0J50000D01*
G01*
X384088400Y-257115100D01*
G75*
G02*
X384138400Y-257065100I50000J0D01*
G01*
G37*
G36*
G01*
X384138400Y-256665100D02*
X384863400Y-256665100D01*
G75*
G02*
X384913400Y-256715100I0J-50000D01*
G01*
X384913400Y-256815100D01*
G75*
G02*
X384863400Y-256865100I-50000J0D01*
G01*
X384138400Y-256865100D01*
G75*
G02*
X384088400Y-256815100I0J50000D01*
G01*
X384088400Y-256715100D01*
G75*
G02*
X384138400Y-256665100I50000J0D01*
G01*
G37*
G36*
G01*
X384138400Y-256265100D02*
X384863400Y-256265100D01*
G75*
G02*
X384913400Y-256315100I0J-50000D01*
G01*
X384913400Y-256415100D01*
G75*
G02*
X384863400Y-256465100I-50000J0D01*
G01*
X384138400Y-256465100D01*
G75*
G02*
X384088400Y-256415100I0J50000D01*
G01*
X384088400Y-256315100D01*
G75*
G02*
X384138400Y-256265100I50000J0D01*
G01*
G37*
G36*
G01*
X384138400Y-255865100D02*
X384863400Y-255865100D01*
G75*
G02*
X384913400Y-255915100I0J-50000D01*
G01*
X384913400Y-256015100D01*
G75*
G02*
X384863400Y-256065100I-50000J0D01*
G01*
X384138400Y-256065100D01*
G75*
G02*
X384088400Y-256015100I0J50000D01*
G01*
X384088400Y-255915100D01*
G75*
G02*
X384138400Y-255865100I50000J0D01*
G01*
G37*
G36*
G01*
X384138400Y-255465100D02*
X384863400Y-255465100D01*
G75*
G02*
X384913400Y-255515100I0J-50000D01*
G01*
X384913400Y-255615100D01*
G75*
G02*
X384863400Y-255665100I-50000J0D01*
G01*
X384138400Y-255665100D01*
G75*
G02*
X384088400Y-255615100I0J50000D01*
G01*
X384088400Y-255515100D01*
G75*
G02*
X384138400Y-255465100I50000J0D01*
G01*
G37*
G36*
G01*
X384138400Y-255065100D02*
X384863400Y-255065100D01*
G75*
G02*
X384913400Y-255115100I0J-50000D01*
G01*
X384913400Y-255215100D01*
G75*
G02*
X384863400Y-255265100I-50000J0D01*
G01*
X384138400Y-255265100D01*
G75*
G02*
X384088400Y-255215100I0J50000D01*
G01*
X384088400Y-255115100D01*
G75*
G02*
X384138400Y-255065100I50000J0D01*
G01*
G37*
G36*
G01*
X383713400Y-254015100D02*
X383813400Y-254015100D01*
G75*
G02*
X383863400Y-254065100I0J-50000D01*
G01*
X383863400Y-254790100D01*
G75*
G02*
X383813400Y-254840100I-50000J0D01*
G01*
X383713400Y-254840100D01*
G75*
G02*
X383663400Y-254790100I0J50000D01*
G01*
X383663400Y-254065100D01*
G75*
G02*
X383713400Y-254015100I50000J0D01*
G01*
G37*
G36*
G01*
X383313400Y-254015100D02*
X383413400Y-254015100D01*
G75*
G02*
X383463400Y-254065100I0J-50000D01*
G01*
X383463400Y-254790100D01*
G75*
G02*
X383413400Y-254840100I-50000J0D01*
G01*
X383313400Y-254840100D01*
G75*
G02*
X383263400Y-254790100I0J50000D01*
G01*
X383263400Y-254065100D01*
G75*
G02*
X383313400Y-254015100I50000J0D01*
G01*
G37*
G36*
G01*
X382913400Y-254015100D02*
X383013400Y-254015100D01*
G75*
G02*
X383063400Y-254065100I0J-50000D01*
G01*
X383063400Y-254790100D01*
G75*
G02*
X383013400Y-254840100I-50000J0D01*
G01*
X382913400Y-254840100D01*
G75*
G02*
X382863400Y-254790100I0J50000D01*
G01*
X382863400Y-254065100D01*
G75*
G02*
X382913400Y-254015100I50000J0D01*
G01*
G37*
G36*
G01*
X382513400Y-254015100D02*
X382613400Y-254015100D01*
G75*
G02*
X382663400Y-254065100I0J-50000D01*
G01*
X382663400Y-254790100D01*
G75*
G02*
X382613400Y-254840100I-50000J0D01*
G01*
X382513400Y-254840100D01*
G75*
G02*
X382463400Y-254790100I0J50000D01*
G01*
X382463400Y-254065100D01*
G75*
G02*
X382513400Y-254015100I50000J0D01*
G01*
G37*
G36*
G01*
X382113400Y-254015100D02*
X382213400Y-254015100D01*
G75*
G02*
X382263400Y-254065100I0J-50000D01*
G01*
X382263400Y-254790100D01*
G75*
G02*
X382213400Y-254840100I-50000J0D01*
G01*
X382113400Y-254840100D01*
G75*
G02*
X382063400Y-254790100I0J50000D01*
G01*
X382063400Y-254065100D01*
G75*
G02*
X382113400Y-254015100I50000J0D01*
G01*
G37*
G36*
G01*
X381713400Y-254015100D02*
X381813400Y-254015100D01*
G75*
G02*
X381863400Y-254065100I0J-50000D01*
G01*
X381863400Y-254790100D01*
G75*
G02*
X381813400Y-254840100I-50000J0D01*
G01*
X381713400Y-254840100D01*
G75*
G02*
X381663400Y-254790100I0J50000D01*
G01*
X381663400Y-254065100D01*
G75*
G02*
X381713400Y-254015100I50000J0D01*
G01*
G37*
G36*
G01*
X381313400Y-254015100D02*
X381413400Y-254015100D01*
G75*
G02*
X381463400Y-254065100I0J-50000D01*
G01*
X381463400Y-254790100D01*
G75*
G02*
X381413400Y-254840100I-50000J0D01*
G01*
X381313400Y-254840100D01*
G75*
G02*
X381263400Y-254790100I0J50000D01*
G01*
X381263400Y-254065100D01*
G75*
G02*
X381313400Y-254015100I50000J0D01*
G01*
G37*
%TD*%
%TO.C,I2*%
G36*
G01*
X343220900Y-253300300D02*
X343685900Y-253300300D01*
G75*
G02*
X343918400Y-253532800I0J-232500D01*
G01*
X343918400Y-253997800D01*
G75*
G02*
X343685900Y-254230300I-232500J0D01*
G01*
X343220900Y-254230300D01*
G75*
G02*
X342988400Y-253997800I0J232500D01*
G01*
X342988400Y-253532800D01*
G75*
G02*
X343220900Y-253300300I232500J0D01*
G01*
G37*
G36*
G01*
X342070900Y-253300300D02*
X342535900Y-253300300D01*
G75*
G02*
X342768400Y-253532800I0J-232500D01*
G01*
X342768400Y-253997800D01*
G75*
G02*
X342535900Y-254230300I-232500J0D01*
G01*
X342070900Y-254230300D01*
G75*
G02*
X341838400Y-253997800I0J232500D01*
G01*
X341838400Y-253532800D01*
G75*
G02*
X342070900Y-253300300I232500J0D01*
G01*
G37*
G36*
G01*
X343220900Y-252150300D02*
X343685900Y-252150300D01*
G75*
G02*
X343918400Y-252382800I0J-232500D01*
G01*
X343918400Y-252847800D01*
G75*
G02*
X343685900Y-253080300I-232500J0D01*
G01*
X343220900Y-253080300D01*
G75*
G02*
X342988400Y-252847800I0J232500D01*
G01*
X342988400Y-252382800D01*
G75*
G02*
X343220900Y-252150300I232500J0D01*
G01*
G37*
G36*
G01*
X342070900Y-252150300D02*
X342535900Y-252150300D01*
G75*
G02*
X342768400Y-252382800I0J-232500D01*
G01*
X342768400Y-252847800D01*
G75*
G02*
X342535900Y-253080300I-232500J0D01*
G01*
X342070900Y-253080300D01*
G75*
G02*
X341838400Y-252847800I0J232500D01*
G01*
X341838400Y-252382800D01*
G75*
G02*
X342070900Y-252150300I232500J0D01*
G01*
G37*
G36*
G01*
X340578400Y-251890300D02*
X341303400Y-251890300D01*
G75*
G02*
X341353400Y-251940300I0J-50000D01*
G01*
X341353400Y-252040300D01*
G75*
G02*
X341303400Y-252090300I-50000J0D01*
G01*
X340578400Y-252090300D01*
G75*
G02*
X340528400Y-252040300I0J50000D01*
G01*
X340528400Y-251940300D01*
G75*
G02*
X340578400Y-251890300I50000J0D01*
G01*
G37*
G36*
G01*
X340578400Y-252290300D02*
X341303400Y-252290300D01*
G75*
G02*
X341353400Y-252340300I0J-50000D01*
G01*
X341353400Y-252440300D01*
G75*
G02*
X341303400Y-252490300I-50000J0D01*
G01*
X340578400Y-252490300D01*
G75*
G02*
X340528400Y-252440300I0J50000D01*
G01*
X340528400Y-252340300D01*
G75*
G02*
X340578400Y-252290300I50000J0D01*
G01*
G37*
G36*
G01*
X340578400Y-252690300D02*
X341303400Y-252690300D01*
G75*
G02*
X341353400Y-252740300I0J-50000D01*
G01*
X341353400Y-252840300D01*
G75*
G02*
X341303400Y-252890300I-50000J0D01*
G01*
X340578400Y-252890300D01*
G75*
G02*
X340528400Y-252840300I0J50000D01*
G01*
X340528400Y-252740300D01*
G75*
G02*
X340578400Y-252690300I50000J0D01*
G01*
G37*
G36*
G01*
X340578400Y-253090300D02*
X341303400Y-253090300D01*
G75*
G02*
X341353400Y-253140300I0J-50000D01*
G01*
X341353400Y-253240300D01*
G75*
G02*
X341303400Y-253290300I-50000J0D01*
G01*
X340578400Y-253290300D01*
G75*
G02*
X340528400Y-253240300I0J50000D01*
G01*
X340528400Y-253140300D01*
G75*
G02*
X340578400Y-253090300I50000J0D01*
G01*
G37*
G36*
G01*
X340578400Y-253490300D02*
X341303400Y-253490300D01*
G75*
G02*
X341353400Y-253540300I0J-50000D01*
G01*
X341353400Y-253640300D01*
G75*
G02*
X341303400Y-253690300I-50000J0D01*
G01*
X340578400Y-253690300D01*
G75*
G02*
X340528400Y-253640300I0J50000D01*
G01*
X340528400Y-253540300D01*
G75*
G02*
X340578400Y-253490300I50000J0D01*
G01*
G37*
G36*
G01*
X340578400Y-253890300D02*
X341303400Y-253890300D01*
G75*
G02*
X341353400Y-253940300I0J-50000D01*
G01*
X341353400Y-254040300D01*
G75*
G02*
X341303400Y-254090300I-50000J0D01*
G01*
X340578400Y-254090300D01*
G75*
G02*
X340528400Y-254040300I0J50000D01*
G01*
X340528400Y-253940300D01*
G75*
G02*
X340578400Y-253890300I50000J0D01*
G01*
G37*
G36*
G01*
X340578400Y-254290300D02*
X341303400Y-254290300D01*
G75*
G02*
X341353400Y-254340300I0J-50000D01*
G01*
X341353400Y-254440300D01*
G75*
G02*
X341303400Y-254490300I-50000J0D01*
G01*
X340578400Y-254490300D01*
G75*
G02*
X340528400Y-254440300I0J50000D01*
G01*
X340528400Y-254340300D01*
G75*
G02*
X340578400Y-254290300I50000J0D01*
G01*
G37*
G36*
G01*
X341628400Y-254715300D02*
X341728400Y-254715300D01*
G75*
G02*
X341778400Y-254765300I0J-50000D01*
G01*
X341778400Y-255490300D01*
G75*
G02*
X341728400Y-255540300I-50000J0D01*
G01*
X341628400Y-255540300D01*
G75*
G02*
X341578400Y-255490300I0J50000D01*
G01*
X341578400Y-254765300D01*
G75*
G02*
X341628400Y-254715300I50000J0D01*
G01*
G37*
G36*
G01*
X342028400Y-254715300D02*
X342128400Y-254715300D01*
G75*
G02*
X342178400Y-254765300I0J-50000D01*
G01*
X342178400Y-255490300D01*
G75*
G02*
X342128400Y-255540300I-50000J0D01*
G01*
X342028400Y-255540300D01*
G75*
G02*
X341978400Y-255490300I0J50000D01*
G01*
X341978400Y-254765300D01*
G75*
G02*
X342028400Y-254715300I50000J0D01*
G01*
G37*
G36*
G01*
X342428400Y-254715300D02*
X342528400Y-254715300D01*
G75*
G02*
X342578400Y-254765300I0J-50000D01*
G01*
X342578400Y-255490300D01*
G75*
G02*
X342528400Y-255540300I-50000J0D01*
G01*
X342428400Y-255540300D01*
G75*
G02*
X342378400Y-255490300I0J50000D01*
G01*
X342378400Y-254765300D01*
G75*
G02*
X342428400Y-254715300I50000J0D01*
G01*
G37*
G36*
G01*
X342828400Y-254715300D02*
X342928400Y-254715300D01*
G75*
G02*
X342978400Y-254765300I0J-50000D01*
G01*
X342978400Y-255490300D01*
G75*
G02*
X342928400Y-255540300I-50000J0D01*
G01*
X342828400Y-255540300D01*
G75*
G02*
X342778400Y-255490300I0J50000D01*
G01*
X342778400Y-254765300D01*
G75*
G02*
X342828400Y-254715300I50000J0D01*
G01*
G37*
G36*
G01*
X343228400Y-254715300D02*
X343328400Y-254715300D01*
G75*
G02*
X343378400Y-254765300I0J-50000D01*
G01*
X343378400Y-255490300D01*
G75*
G02*
X343328400Y-255540300I-50000J0D01*
G01*
X343228400Y-255540300D01*
G75*
G02*
X343178400Y-255490300I0J50000D01*
G01*
X343178400Y-254765300D01*
G75*
G02*
X343228400Y-254715300I50000J0D01*
G01*
G37*
G36*
G01*
X343628400Y-254715300D02*
X343728400Y-254715300D01*
G75*
G02*
X343778400Y-254765300I0J-50000D01*
G01*
X343778400Y-255490300D01*
G75*
G02*
X343728400Y-255540300I-50000J0D01*
G01*
X343628400Y-255540300D01*
G75*
G02*
X343578400Y-255490300I0J50000D01*
G01*
X343578400Y-254765300D01*
G75*
G02*
X343628400Y-254715300I50000J0D01*
G01*
G37*
G36*
G01*
X344028400Y-254715300D02*
X344128400Y-254715300D01*
G75*
G02*
X344178400Y-254765300I0J-50000D01*
G01*
X344178400Y-255490300D01*
G75*
G02*
X344128400Y-255540300I-50000J0D01*
G01*
X344028400Y-255540300D01*
G75*
G02*
X343978400Y-255490300I0J50000D01*
G01*
X343978400Y-254765300D01*
G75*
G02*
X344028400Y-254715300I50000J0D01*
G01*
G37*
G36*
G01*
X344453400Y-254290300D02*
X345178400Y-254290300D01*
G75*
G02*
X345228400Y-254340300I0J-50000D01*
G01*
X345228400Y-254440300D01*
G75*
G02*
X345178400Y-254490300I-50000J0D01*
G01*
X344453400Y-254490300D01*
G75*
G02*
X344403400Y-254440300I0J50000D01*
G01*
X344403400Y-254340300D01*
G75*
G02*
X344453400Y-254290300I50000J0D01*
G01*
G37*
G36*
G01*
X344453400Y-253890300D02*
X345178400Y-253890300D01*
G75*
G02*
X345228400Y-253940300I0J-50000D01*
G01*
X345228400Y-254040300D01*
G75*
G02*
X345178400Y-254090300I-50000J0D01*
G01*
X344453400Y-254090300D01*
G75*
G02*
X344403400Y-254040300I0J50000D01*
G01*
X344403400Y-253940300D01*
G75*
G02*
X344453400Y-253890300I50000J0D01*
G01*
G37*
G36*
G01*
X344453400Y-253490300D02*
X345178400Y-253490300D01*
G75*
G02*
X345228400Y-253540300I0J-50000D01*
G01*
X345228400Y-253640300D01*
G75*
G02*
X345178400Y-253690300I-50000J0D01*
G01*
X344453400Y-253690300D01*
G75*
G02*
X344403400Y-253640300I0J50000D01*
G01*
X344403400Y-253540300D01*
G75*
G02*
X344453400Y-253490300I50000J0D01*
G01*
G37*
G36*
G01*
X344453400Y-253090300D02*
X345178400Y-253090300D01*
G75*
G02*
X345228400Y-253140300I0J-50000D01*
G01*
X345228400Y-253240300D01*
G75*
G02*
X345178400Y-253290300I-50000J0D01*
G01*
X344453400Y-253290300D01*
G75*
G02*
X344403400Y-253240300I0J50000D01*
G01*
X344403400Y-253140300D01*
G75*
G02*
X344453400Y-253090300I50000J0D01*
G01*
G37*
G36*
G01*
X344453400Y-252690300D02*
X345178400Y-252690300D01*
G75*
G02*
X345228400Y-252740300I0J-50000D01*
G01*
X345228400Y-252840300D01*
G75*
G02*
X345178400Y-252890300I-50000J0D01*
G01*
X344453400Y-252890300D01*
G75*
G02*
X344403400Y-252840300I0J50000D01*
G01*
X344403400Y-252740300D01*
G75*
G02*
X344453400Y-252690300I50000J0D01*
G01*
G37*
G36*
G01*
X344453400Y-252290300D02*
X345178400Y-252290300D01*
G75*
G02*
X345228400Y-252340300I0J-50000D01*
G01*
X345228400Y-252440300D01*
G75*
G02*
X345178400Y-252490300I-50000J0D01*
G01*
X344453400Y-252490300D01*
G75*
G02*
X344403400Y-252440300I0J50000D01*
G01*
X344403400Y-252340300D01*
G75*
G02*
X344453400Y-252290300I50000J0D01*
G01*
G37*
G36*
G01*
X344453400Y-251890300D02*
X345178400Y-251890300D01*
G75*
G02*
X345228400Y-251940300I0J-50000D01*
G01*
X345228400Y-252040300D01*
G75*
G02*
X345178400Y-252090300I-50000J0D01*
G01*
X344453400Y-252090300D01*
G75*
G02*
X344403400Y-252040300I0J50000D01*
G01*
X344403400Y-251940300D01*
G75*
G02*
X344453400Y-251890300I50000J0D01*
G01*
G37*
G36*
G01*
X344028400Y-250840300D02*
X344128400Y-250840300D01*
G75*
G02*
X344178400Y-250890300I0J-50000D01*
G01*
X344178400Y-251615300D01*
G75*
G02*
X344128400Y-251665300I-50000J0D01*
G01*
X344028400Y-251665300D01*
G75*
G02*
X343978400Y-251615300I0J50000D01*
G01*
X343978400Y-250890300D01*
G75*
G02*
X344028400Y-250840300I50000J0D01*
G01*
G37*
G36*
G01*
X343628400Y-250840300D02*
X343728400Y-250840300D01*
G75*
G02*
X343778400Y-250890300I0J-50000D01*
G01*
X343778400Y-251615300D01*
G75*
G02*
X343728400Y-251665300I-50000J0D01*
G01*
X343628400Y-251665300D01*
G75*
G02*
X343578400Y-251615300I0J50000D01*
G01*
X343578400Y-250890300D01*
G75*
G02*
X343628400Y-250840300I50000J0D01*
G01*
G37*
G36*
G01*
X343228400Y-250840300D02*
X343328400Y-250840300D01*
G75*
G02*
X343378400Y-250890300I0J-50000D01*
G01*
X343378400Y-251615300D01*
G75*
G02*
X343328400Y-251665300I-50000J0D01*
G01*
X343228400Y-251665300D01*
G75*
G02*
X343178400Y-251615300I0J50000D01*
G01*
X343178400Y-250890300D01*
G75*
G02*
X343228400Y-250840300I50000J0D01*
G01*
G37*
G36*
G01*
X342828400Y-250840300D02*
X342928400Y-250840300D01*
G75*
G02*
X342978400Y-250890300I0J-50000D01*
G01*
X342978400Y-251615300D01*
G75*
G02*
X342928400Y-251665300I-50000J0D01*
G01*
X342828400Y-251665300D01*
G75*
G02*
X342778400Y-251615300I0J50000D01*
G01*
X342778400Y-250890300D01*
G75*
G02*
X342828400Y-250840300I50000J0D01*
G01*
G37*
G36*
G01*
X342428400Y-250840300D02*
X342528400Y-250840300D01*
G75*
G02*
X342578400Y-250890300I0J-50000D01*
G01*
X342578400Y-251615300D01*
G75*
G02*
X342528400Y-251665300I-50000J0D01*
G01*
X342428400Y-251665300D01*
G75*
G02*
X342378400Y-251615300I0J50000D01*
G01*
X342378400Y-250890300D01*
G75*
G02*
X342428400Y-250840300I50000J0D01*
G01*
G37*
G36*
G01*
X342028400Y-250840300D02*
X342128400Y-250840300D01*
G75*
G02*
X342178400Y-250890300I0J-50000D01*
G01*
X342178400Y-251615300D01*
G75*
G02*
X342128400Y-251665300I-50000J0D01*
G01*
X342028400Y-251665300D01*
G75*
G02*
X341978400Y-251615300I0J50000D01*
G01*
X341978400Y-250890300D01*
G75*
G02*
X342028400Y-250840300I50000J0D01*
G01*
G37*
G36*
G01*
X341628400Y-250840300D02*
X341728400Y-250840300D01*
G75*
G02*
X341778400Y-250890300I0J-50000D01*
G01*
X341778400Y-251615300D01*
G75*
G02*
X341728400Y-251665300I-50000J0D01*
G01*
X341628400Y-251665300D01*
G75*
G02*
X341578400Y-251615300I0J50000D01*
G01*
X341578400Y-250890300D01*
G75*
G02*
X341628400Y-250840300I50000J0D01*
G01*
G37*
%TD*%
%TO.C,C13*%
G36*
G01*
X380129150Y-250334200D02*
X380129150Y-251284200D01*
G75*
G02*
X379879150Y-251534200I-250000J0D01*
G01*
X379379150Y-251534200D01*
G75*
G02*
X379129150Y-251284200I0J250000D01*
G01*
X379129150Y-250334200D01*
G75*
G02*
X379379150Y-250084200I250000J0D01*
G01*
X379879150Y-250084200D01*
G75*
G02*
X380129150Y-250334200I0J-250000D01*
G01*
G37*
G36*
G01*
X382029150Y-250334200D02*
X382029150Y-251284200D01*
G75*
G02*
X381779150Y-251534200I-250000J0D01*
G01*
X381279150Y-251534200D01*
G75*
G02*
X381029150Y-251284200I0J250000D01*
G01*
X381029150Y-250334200D01*
G75*
G02*
X381279150Y-250084200I250000J0D01*
G01*
X381779150Y-250084200D01*
G75*
G02*
X382029150Y-250334200I0J-250000D01*
G01*
G37*
%TD*%
%TO.C,C12*%
G36*
G01*
X380129150Y-247953100D02*
X380129150Y-248903100D01*
G75*
G02*
X379879150Y-249153100I-250000J0D01*
G01*
X379379150Y-249153100D01*
G75*
G02*
X379129150Y-248903100I0J250000D01*
G01*
X379129150Y-247953100D01*
G75*
G02*
X379379150Y-247703100I250000J0D01*
G01*
X379879150Y-247703100D01*
G75*
G02*
X380129150Y-247953100I0J-250000D01*
G01*
G37*
G36*
G01*
X382029150Y-247953100D02*
X382029150Y-248903100D01*
G75*
G02*
X381779150Y-249153100I-250000J0D01*
G01*
X381279150Y-249153100D01*
G75*
G02*
X381029150Y-248903100I0J250000D01*
G01*
X381029150Y-247953100D01*
G75*
G02*
X381279150Y-247703100I250000J0D01*
G01*
X381779150Y-247703100D01*
G75*
G02*
X382029150Y-247953100I0J-250000D01*
G01*
G37*
%TD*%
%TO.C,C11*%
G36*
G01*
X340841000Y-247953100D02*
X340841000Y-248903100D01*
G75*
G02*
X340591000Y-249153100I-250000J0D01*
G01*
X340091000Y-249153100D01*
G75*
G02*
X339841000Y-248903100I0J250000D01*
G01*
X339841000Y-247953100D01*
G75*
G02*
X340091000Y-247703100I250000J0D01*
G01*
X340591000Y-247703100D01*
G75*
G02*
X340841000Y-247953100I0J-250000D01*
G01*
G37*
G36*
G01*
X342741000Y-247953100D02*
X342741000Y-248903100D01*
G75*
G02*
X342491000Y-249153100I-250000J0D01*
G01*
X341991000Y-249153100D01*
G75*
G02*
X341741000Y-248903100I0J250000D01*
G01*
X341741000Y-247953100D01*
G75*
G02*
X341991000Y-247703100I250000J0D01*
G01*
X342491000Y-247703100D01*
G75*
G02*
X342741000Y-247953100I0J-250000D01*
G01*
G37*
%TD*%
%TO.C,C10*%
G36*
G01*
X340841000Y-245572000D02*
X340841000Y-246522000D01*
G75*
G02*
X340591000Y-246772000I-250000J0D01*
G01*
X340091000Y-246772000D01*
G75*
G02*
X339841000Y-246522000I0J250000D01*
G01*
X339841000Y-245572000D01*
G75*
G02*
X340091000Y-245322000I250000J0D01*
G01*
X340591000Y-245322000D01*
G75*
G02*
X340841000Y-245572000I0J-250000D01*
G01*
G37*
G36*
G01*
X342741000Y-245572000D02*
X342741000Y-246522000D01*
G75*
G02*
X342491000Y-246772000I-250000J0D01*
G01*
X341991000Y-246772000D01*
G75*
G02*
X341741000Y-246522000I0J250000D01*
G01*
X341741000Y-245572000D01*
G75*
G02*
X341991000Y-245322000I250000J0D01*
G01*
X342491000Y-245322000D01*
G75*
G02*
X342741000Y-245572000I0J-250000D01*
G01*
G37*
%TD*%
%TO.C,R11*%
G36*
G01*
X431322799Y-183744700D02*
X432222801Y-183744700D01*
G75*
G02*
X432472800Y-183994699I0J-249999D01*
G01*
X432472800Y-184519701D01*
G75*
G02*
X432222801Y-184769700I-249999J0D01*
G01*
X431322799Y-184769700D01*
G75*
G02*
X431072800Y-184519701I0J249999D01*
G01*
X431072800Y-183994699D01*
G75*
G02*
X431322799Y-183744700I249999J0D01*
G01*
G37*
G36*
G01*
X431322799Y-181919700D02*
X432222801Y-181919700D01*
G75*
G02*
X432472800Y-182169699I0J-249999D01*
G01*
X432472800Y-182694701D01*
G75*
G02*
X432222801Y-182944700I-249999J0D01*
G01*
X431322799Y-182944700D01*
G75*
G02*
X431072800Y-182694701I0J249999D01*
G01*
X431072800Y-182169699D01*
G75*
G02*
X431322799Y-181919700I249999J0D01*
G01*
G37*
%TD*%
%TO.C,R7*%
G36*
G01*
X433703899Y-240097400D02*
X434603901Y-240097400D01*
G75*
G02*
X434853900Y-240347399I0J-249999D01*
G01*
X434853900Y-240872401D01*
G75*
G02*
X434603901Y-241122400I-249999J0D01*
G01*
X433703899Y-241122400D01*
G75*
G02*
X433453900Y-240872401I0J249999D01*
G01*
X433453900Y-240347399D01*
G75*
G02*
X433703899Y-240097400I249999J0D01*
G01*
G37*
G36*
G01*
X433703899Y-238272400D02*
X434603901Y-238272400D01*
G75*
G02*
X434853900Y-238522399I0J-249999D01*
G01*
X434853900Y-239047401D01*
G75*
G02*
X434603901Y-239297400I-249999J0D01*
G01*
X433703899Y-239297400D01*
G75*
G02*
X433453900Y-239047401I0J249999D01*
G01*
X433453900Y-238522399D01*
G75*
G02*
X433703899Y-238272400I249999J0D01*
G01*
G37*
%TD*%
%TO.C,R6*%
G36*
G01*
X436878699Y-240097400D02*
X437778701Y-240097400D01*
G75*
G02*
X438028700Y-240347399I0J-249999D01*
G01*
X438028700Y-240872401D01*
G75*
G02*
X437778701Y-241122400I-249999J0D01*
G01*
X436878699Y-241122400D01*
G75*
G02*
X436628700Y-240872401I0J249999D01*
G01*
X436628700Y-240347399D01*
G75*
G02*
X436878699Y-240097400I249999J0D01*
G01*
G37*
G36*
G01*
X436878699Y-238272400D02*
X437778701Y-238272400D01*
G75*
G02*
X438028700Y-238522399I0J-249999D01*
G01*
X438028700Y-239047401D01*
G75*
G02*
X437778701Y-239297400I-249999J0D01*
G01*
X436878699Y-239297400D01*
G75*
G02*
X436628700Y-239047401I0J249999D01*
G01*
X436628700Y-238522399D01*
G75*
G02*
X436878699Y-238272400I249999J0D01*
G01*
G37*
%TD*%
%TO.C,R5*%
G36*
G01*
X429735399Y-232954100D02*
X430635401Y-232954100D01*
G75*
G02*
X430885400Y-233204099I0J-249999D01*
G01*
X430885400Y-233729101D01*
G75*
G02*
X430635401Y-233979100I-249999J0D01*
G01*
X429735399Y-233979100D01*
G75*
G02*
X429485400Y-233729101I0J249999D01*
G01*
X429485400Y-233204099D01*
G75*
G02*
X429735399Y-232954100I249999J0D01*
G01*
G37*
G36*
G01*
X429735399Y-231129100D02*
X430635401Y-231129100D01*
G75*
G02*
X430885400Y-231379099I0J-249999D01*
G01*
X430885400Y-231904101D01*
G75*
G02*
X430635401Y-232154100I-249999J0D01*
G01*
X429735399Y-232154100D01*
G75*
G02*
X429485400Y-231904101I0J249999D01*
G01*
X429485400Y-231379099D01*
G75*
G02*
X429735399Y-231129100I249999J0D01*
G01*
G37*
%TD*%
D16*
%TO.C,Q1*%
X429979100Y-237316300D03*
X431979100Y-238266300D03*
X431979100Y-236366300D03*
%TD*%
%TO.C,I1*%
G36*
G01*
X426106900Y-181338700D02*
X426106900Y-181803700D01*
G75*
G02*
X425874400Y-182036200I-232500J0D01*
G01*
X425409400Y-182036200D01*
G75*
G02*
X425176900Y-181803700I0J232500D01*
G01*
X425176900Y-181338700D01*
G75*
G02*
X425409400Y-181106200I232500J0D01*
G01*
X425874400Y-181106200D01*
G75*
G02*
X426106900Y-181338700I0J-232500D01*
G01*
G37*
G36*
G01*
X426106900Y-180188700D02*
X426106900Y-180653700D01*
G75*
G02*
X425874400Y-180886200I-232500J0D01*
G01*
X425409400Y-180886200D01*
G75*
G02*
X425176900Y-180653700I0J232500D01*
G01*
X425176900Y-180188700D01*
G75*
G02*
X425409400Y-179956200I232500J0D01*
G01*
X425874400Y-179956200D01*
G75*
G02*
X426106900Y-180188700I0J-232500D01*
G01*
G37*
G36*
G01*
X427256900Y-181338700D02*
X427256900Y-181803700D01*
G75*
G02*
X427024400Y-182036200I-232500J0D01*
G01*
X426559400Y-182036200D01*
G75*
G02*
X426326900Y-181803700I0J232500D01*
G01*
X426326900Y-181338700D01*
G75*
G02*
X426559400Y-181106200I232500J0D01*
G01*
X427024400Y-181106200D01*
G75*
G02*
X427256900Y-181338700I0J-232500D01*
G01*
G37*
G36*
G01*
X427256900Y-180188700D02*
X427256900Y-180653700D01*
G75*
G02*
X427024400Y-180886200I-232500J0D01*
G01*
X426559400Y-180886200D01*
G75*
G02*
X426326900Y-180653700I0J232500D01*
G01*
X426326900Y-180188700D01*
G75*
G02*
X426559400Y-179956200I232500J0D01*
G01*
X427024400Y-179956200D01*
G75*
G02*
X427256900Y-180188700I0J-232500D01*
G01*
G37*
G36*
G01*
X427516900Y-178696200D02*
X427516900Y-179421200D01*
G75*
G02*
X427466900Y-179471200I-50000J0D01*
G01*
X427366900Y-179471200D01*
G75*
G02*
X427316900Y-179421200I0J50000D01*
G01*
X427316900Y-178696200D01*
G75*
G02*
X427366900Y-178646200I50000J0D01*
G01*
X427466900Y-178646200D01*
G75*
G02*
X427516900Y-178696200I0J-50000D01*
G01*
G37*
G36*
G01*
X427116900Y-178696200D02*
X427116900Y-179421200D01*
G75*
G02*
X427066900Y-179471200I-50000J0D01*
G01*
X426966900Y-179471200D01*
G75*
G02*
X426916900Y-179421200I0J50000D01*
G01*
X426916900Y-178696200D01*
G75*
G02*
X426966900Y-178646200I50000J0D01*
G01*
X427066900Y-178646200D01*
G75*
G02*
X427116900Y-178696200I0J-50000D01*
G01*
G37*
G36*
G01*
X426716900Y-178696200D02*
X426716900Y-179421200D01*
G75*
G02*
X426666900Y-179471200I-50000J0D01*
G01*
X426566900Y-179471200D01*
G75*
G02*
X426516900Y-179421200I0J50000D01*
G01*
X426516900Y-178696200D01*
G75*
G02*
X426566900Y-178646200I50000J0D01*
G01*
X426666900Y-178646200D01*
G75*
G02*
X426716900Y-178696200I0J-50000D01*
G01*
G37*
G36*
G01*
X426316900Y-178696200D02*
X426316900Y-179421200D01*
G75*
G02*
X426266900Y-179471200I-50000J0D01*
G01*
X426166900Y-179471200D01*
G75*
G02*
X426116900Y-179421200I0J50000D01*
G01*
X426116900Y-178696200D01*
G75*
G02*
X426166900Y-178646200I50000J0D01*
G01*
X426266900Y-178646200D01*
G75*
G02*
X426316900Y-178696200I0J-50000D01*
G01*
G37*
G36*
G01*
X425916900Y-178696200D02*
X425916900Y-179421200D01*
G75*
G02*
X425866900Y-179471200I-50000J0D01*
G01*
X425766900Y-179471200D01*
G75*
G02*
X425716900Y-179421200I0J50000D01*
G01*
X425716900Y-178696200D01*
G75*
G02*
X425766900Y-178646200I50000J0D01*
G01*
X425866900Y-178646200D01*
G75*
G02*
X425916900Y-178696200I0J-50000D01*
G01*
G37*
G36*
G01*
X425516900Y-178696200D02*
X425516900Y-179421200D01*
G75*
G02*
X425466900Y-179471200I-50000J0D01*
G01*
X425366900Y-179471200D01*
G75*
G02*
X425316900Y-179421200I0J50000D01*
G01*
X425316900Y-178696200D01*
G75*
G02*
X425366900Y-178646200I50000J0D01*
G01*
X425466900Y-178646200D01*
G75*
G02*
X425516900Y-178696200I0J-50000D01*
G01*
G37*
G36*
G01*
X425116900Y-178696200D02*
X425116900Y-179421200D01*
G75*
G02*
X425066900Y-179471200I-50000J0D01*
G01*
X424966900Y-179471200D01*
G75*
G02*
X424916900Y-179421200I0J50000D01*
G01*
X424916900Y-178696200D01*
G75*
G02*
X424966900Y-178646200I50000J0D01*
G01*
X425066900Y-178646200D01*
G75*
G02*
X425116900Y-178696200I0J-50000D01*
G01*
G37*
G36*
G01*
X424691900Y-179746200D02*
X424691900Y-179846200D01*
G75*
G02*
X424641900Y-179896200I-50000J0D01*
G01*
X423916900Y-179896200D01*
G75*
G02*
X423866900Y-179846200I0J50000D01*
G01*
X423866900Y-179746200D01*
G75*
G02*
X423916900Y-179696200I50000J0D01*
G01*
X424641900Y-179696200D01*
G75*
G02*
X424691900Y-179746200I0J-50000D01*
G01*
G37*
G36*
G01*
X424691900Y-180146200D02*
X424691900Y-180246200D01*
G75*
G02*
X424641900Y-180296200I-50000J0D01*
G01*
X423916900Y-180296200D01*
G75*
G02*
X423866900Y-180246200I0J50000D01*
G01*
X423866900Y-180146200D01*
G75*
G02*
X423916900Y-180096200I50000J0D01*
G01*
X424641900Y-180096200D01*
G75*
G02*
X424691900Y-180146200I0J-50000D01*
G01*
G37*
G36*
G01*
X424691900Y-180546200D02*
X424691900Y-180646200D01*
G75*
G02*
X424641900Y-180696200I-50000J0D01*
G01*
X423916900Y-180696200D01*
G75*
G02*
X423866900Y-180646200I0J50000D01*
G01*
X423866900Y-180546200D01*
G75*
G02*
X423916900Y-180496200I50000J0D01*
G01*
X424641900Y-180496200D01*
G75*
G02*
X424691900Y-180546200I0J-50000D01*
G01*
G37*
G36*
G01*
X424691900Y-180946200D02*
X424691900Y-181046200D01*
G75*
G02*
X424641900Y-181096200I-50000J0D01*
G01*
X423916900Y-181096200D01*
G75*
G02*
X423866900Y-181046200I0J50000D01*
G01*
X423866900Y-180946200D01*
G75*
G02*
X423916900Y-180896200I50000J0D01*
G01*
X424641900Y-180896200D01*
G75*
G02*
X424691900Y-180946200I0J-50000D01*
G01*
G37*
G36*
G01*
X424691900Y-181346200D02*
X424691900Y-181446200D01*
G75*
G02*
X424641900Y-181496200I-50000J0D01*
G01*
X423916900Y-181496200D01*
G75*
G02*
X423866900Y-181446200I0J50000D01*
G01*
X423866900Y-181346200D01*
G75*
G02*
X423916900Y-181296200I50000J0D01*
G01*
X424641900Y-181296200D01*
G75*
G02*
X424691900Y-181346200I0J-50000D01*
G01*
G37*
G36*
G01*
X424691900Y-181746200D02*
X424691900Y-181846200D01*
G75*
G02*
X424641900Y-181896200I-50000J0D01*
G01*
X423916900Y-181896200D01*
G75*
G02*
X423866900Y-181846200I0J50000D01*
G01*
X423866900Y-181746200D01*
G75*
G02*
X423916900Y-181696200I50000J0D01*
G01*
X424641900Y-181696200D01*
G75*
G02*
X424691900Y-181746200I0J-50000D01*
G01*
G37*
G36*
G01*
X424691900Y-182146200D02*
X424691900Y-182246200D01*
G75*
G02*
X424641900Y-182296200I-50000J0D01*
G01*
X423916900Y-182296200D01*
G75*
G02*
X423866900Y-182246200I0J50000D01*
G01*
X423866900Y-182146200D01*
G75*
G02*
X423916900Y-182096200I50000J0D01*
G01*
X424641900Y-182096200D01*
G75*
G02*
X424691900Y-182146200I0J-50000D01*
G01*
G37*
G36*
G01*
X425116900Y-182571200D02*
X425116900Y-183296200D01*
G75*
G02*
X425066900Y-183346200I-50000J0D01*
G01*
X424966900Y-183346200D01*
G75*
G02*
X424916900Y-183296200I0J50000D01*
G01*
X424916900Y-182571200D01*
G75*
G02*
X424966900Y-182521200I50000J0D01*
G01*
X425066900Y-182521200D01*
G75*
G02*
X425116900Y-182571200I0J-50000D01*
G01*
G37*
G36*
G01*
X425516900Y-182571200D02*
X425516900Y-183296200D01*
G75*
G02*
X425466900Y-183346200I-50000J0D01*
G01*
X425366900Y-183346200D01*
G75*
G02*
X425316900Y-183296200I0J50000D01*
G01*
X425316900Y-182571200D01*
G75*
G02*
X425366900Y-182521200I50000J0D01*
G01*
X425466900Y-182521200D01*
G75*
G02*
X425516900Y-182571200I0J-50000D01*
G01*
G37*
G36*
G01*
X425916900Y-182571200D02*
X425916900Y-183296200D01*
G75*
G02*
X425866900Y-183346200I-50000J0D01*
G01*
X425766900Y-183346200D01*
G75*
G02*
X425716900Y-183296200I0J50000D01*
G01*
X425716900Y-182571200D01*
G75*
G02*
X425766900Y-182521200I50000J0D01*
G01*
X425866900Y-182521200D01*
G75*
G02*
X425916900Y-182571200I0J-50000D01*
G01*
G37*
G36*
G01*
X426316900Y-182571200D02*
X426316900Y-183296200D01*
G75*
G02*
X426266900Y-183346200I-50000J0D01*
G01*
X426166900Y-183346200D01*
G75*
G02*
X426116900Y-183296200I0J50000D01*
G01*
X426116900Y-182571200D01*
G75*
G02*
X426166900Y-182521200I50000J0D01*
G01*
X426266900Y-182521200D01*
G75*
G02*
X426316900Y-182571200I0J-50000D01*
G01*
G37*
G36*
G01*
X426716900Y-182571200D02*
X426716900Y-183296200D01*
G75*
G02*
X426666900Y-183346200I-50000J0D01*
G01*
X426566900Y-183346200D01*
G75*
G02*
X426516900Y-183296200I0J50000D01*
G01*
X426516900Y-182571200D01*
G75*
G02*
X426566900Y-182521200I50000J0D01*
G01*
X426666900Y-182521200D01*
G75*
G02*
X426716900Y-182571200I0J-50000D01*
G01*
G37*
G36*
G01*
X427116900Y-182571200D02*
X427116900Y-183296200D01*
G75*
G02*
X427066900Y-183346200I-50000J0D01*
G01*
X426966900Y-183346200D01*
G75*
G02*
X426916900Y-183296200I0J50000D01*
G01*
X426916900Y-182571200D01*
G75*
G02*
X426966900Y-182521200I50000J0D01*
G01*
X427066900Y-182521200D01*
G75*
G02*
X427116900Y-182571200I0J-50000D01*
G01*
G37*
G36*
G01*
X427516900Y-182571200D02*
X427516900Y-183296200D01*
G75*
G02*
X427466900Y-183346200I-50000J0D01*
G01*
X427366900Y-183346200D01*
G75*
G02*
X427316900Y-183296200I0J50000D01*
G01*
X427316900Y-182571200D01*
G75*
G02*
X427366900Y-182521200I50000J0D01*
G01*
X427466900Y-182521200D01*
G75*
G02*
X427516900Y-182571200I0J-50000D01*
G01*
G37*
G36*
G01*
X428566900Y-182146200D02*
X428566900Y-182246200D01*
G75*
G02*
X428516900Y-182296200I-50000J0D01*
G01*
X427791900Y-182296200D01*
G75*
G02*
X427741900Y-182246200I0J50000D01*
G01*
X427741900Y-182146200D01*
G75*
G02*
X427791900Y-182096200I50000J0D01*
G01*
X428516900Y-182096200D01*
G75*
G02*
X428566900Y-182146200I0J-50000D01*
G01*
G37*
G36*
G01*
X428566900Y-181746200D02*
X428566900Y-181846200D01*
G75*
G02*
X428516900Y-181896200I-50000J0D01*
G01*
X427791900Y-181896200D01*
G75*
G02*
X427741900Y-181846200I0J50000D01*
G01*
X427741900Y-181746200D01*
G75*
G02*
X427791900Y-181696200I50000J0D01*
G01*
X428516900Y-181696200D01*
G75*
G02*
X428566900Y-181746200I0J-50000D01*
G01*
G37*
G36*
G01*
X428566900Y-181346200D02*
X428566900Y-181446200D01*
G75*
G02*
X428516900Y-181496200I-50000J0D01*
G01*
X427791900Y-181496200D01*
G75*
G02*
X427741900Y-181446200I0J50000D01*
G01*
X427741900Y-181346200D01*
G75*
G02*
X427791900Y-181296200I50000J0D01*
G01*
X428516900Y-181296200D01*
G75*
G02*
X428566900Y-181346200I0J-50000D01*
G01*
G37*
G36*
G01*
X428566900Y-180946200D02*
X428566900Y-181046200D01*
G75*
G02*
X428516900Y-181096200I-50000J0D01*
G01*
X427791900Y-181096200D01*
G75*
G02*
X427741900Y-181046200I0J50000D01*
G01*
X427741900Y-180946200D01*
G75*
G02*
X427791900Y-180896200I50000J0D01*
G01*
X428516900Y-180896200D01*
G75*
G02*
X428566900Y-180946200I0J-50000D01*
G01*
G37*
G36*
G01*
X428566900Y-180546200D02*
X428566900Y-180646200D01*
G75*
G02*
X428516900Y-180696200I-50000J0D01*
G01*
X427791900Y-180696200D01*
G75*
G02*
X427741900Y-180646200I0J50000D01*
G01*
X427741900Y-180546200D01*
G75*
G02*
X427791900Y-180496200I50000J0D01*
G01*
X428516900Y-180496200D01*
G75*
G02*
X428566900Y-180546200I0J-50000D01*
G01*
G37*
G36*
G01*
X428566900Y-180146200D02*
X428566900Y-180246200D01*
G75*
G02*
X428516900Y-180296200I-50000J0D01*
G01*
X427791900Y-180296200D01*
G75*
G02*
X427741900Y-180246200I0J50000D01*
G01*
X427741900Y-180146200D01*
G75*
G02*
X427791900Y-180096200I50000J0D01*
G01*
X428516900Y-180096200D01*
G75*
G02*
X428566900Y-180146200I0J-50000D01*
G01*
G37*
G36*
G01*
X428566900Y-179746200D02*
X428566900Y-179846200D01*
G75*
G02*
X428516900Y-179896200I-50000J0D01*
G01*
X427791900Y-179896200D01*
G75*
G02*
X427741900Y-179846200I0J50000D01*
G01*
X427741900Y-179746200D01*
G75*
G02*
X427791900Y-179696200I50000J0D01*
G01*
X428516900Y-179696200D01*
G75*
G02*
X428566900Y-179746200I0J-50000D01*
G01*
G37*
%TD*%
%TO.C,C6*%
G36*
G01*
X432247800Y-178529350D02*
X431297800Y-178529350D01*
G75*
G02*
X431047800Y-178279350I0J250000D01*
G01*
X431047800Y-177779350D01*
G75*
G02*
X431297800Y-177529350I250000J0D01*
G01*
X432247800Y-177529350D01*
G75*
G02*
X432497800Y-177779350I0J-250000D01*
G01*
X432497800Y-178279350D01*
G75*
G02*
X432247800Y-178529350I-250000J0D01*
G01*
G37*
G36*
G01*
X432247800Y-180429350D02*
X431297800Y-180429350D01*
G75*
G02*
X431047800Y-180179350I0J250000D01*
G01*
X431047800Y-179679350D01*
G75*
G02*
X431297800Y-179429350I250000J0D01*
G01*
X432247800Y-179429350D01*
G75*
G02*
X432497800Y-179679350I0J-250000D01*
G01*
X432497800Y-180179350D01*
G75*
G02*
X432247800Y-180429350I-250000J0D01*
G01*
G37*
%TD*%
%TO.C,C5*%
G36*
G01*
X434628900Y-178529350D02*
X433678900Y-178529350D01*
G75*
G02*
X433428900Y-178279350I0J250000D01*
G01*
X433428900Y-177779350D01*
G75*
G02*
X433678900Y-177529350I250000J0D01*
G01*
X434628900Y-177529350D01*
G75*
G02*
X434878900Y-177779350I0J-250000D01*
G01*
X434878900Y-178279350D01*
G75*
G02*
X434628900Y-178529350I-250000J0D01*
G01*
G37*
G36*
G01*
X434628900Y-180429350D02*
X433678900Y-180429350D01*
G75*
G02*
X433428900Y-180179350I0J250000D01*
G01*
X433428900Y-179679350D01*
G75*
G02*
X433678900Y-179429350I250000J0D01*
G01*
X434628900Y-179429350D01*
G75*
G02*
X434878900Y-179679350I0J-250000D01*
G01*
X434878900Y-180179350D01*
G75*
G02*
X434628900Y-180429350I-250000J0D01*
G01*
G37*
%TD*%
%TO.C,C4*%
G36*
G01*
X427329300Y-235385200D02*
X428279300Y-235385200D01*
G75*
G02*
X428529300Y-235635200I0J-250000D01*
G01*
X428529300Y-236135200D01*
G75*
G02*
X428279300Y-236385200I-250000J0D01*
G01*
X427329300Y-236385200D01*
G75*
G02*
X427079300Y-236135200I0J250000D01*
G01*
X427079300Y-235635200D01*
G75*
G02*
X427329300Y-235385200I250000J0D01*
G01*
G37*
G36*
G01*
X427329300Y-233485200D02*
X428279300Y-233485200D01*
G75*
G02*
X428529300Y-233735200I0J-250000D01*
G01*
X428529300Y-234235200D01*
G75*
G02*
X428279300Y-234485200I-250000J0D01*
G01*
X427329300Y-234485200D01*
G75*
G02*
X427079300Y-234235200I0J250000D01*
G01*
X427079300Y-233735200D01*
G75*
G02*
X427329300Y-233485200I250000J0D01*
G01*
G37*
%TD*%
%TO.C,C2*%
G36*
G01*
X436191300Y-236997600D02*
X436191300Y-236047600D01*
G75*
G02*
X436441300Y-235797600I250000J0D01*
G01*
X436941300Y-235797600D01*
G75*
G02*
X437191300Y-236047600I0J-250000D01*
G01*
X437191300Y-236997600D01*
G75*
G02*
X436941300Y-237247600I-250000J0D01*
G01*
X436441300Y-237247600D01*
G75*
G02*
X436191300Y-236997600I0J250000D01*
G01*
G37*
G36*
G01*
X434291300Y-236997600D02*
X434291300Y-236047600D01*
G75*
G02*
X434541300Y-235797600I250000J0D01*
G01*
X435041300Y-235797600D01*
G75*
G02*
X435291300Y-236047600I0J-250000D01*
G01*
X435291300Y-236997600D01*
G75*
G02*
X435041300Y-237247600I-250000J0D01*
G01*
X434541300Y-237247600D01*
G75*
G02*
X434291300Y-236997600I0J250000D01*
G01*
G37*
%TD*%
D17*
%TO.C,U13*%
X400974800Y-232247800D03*
X399074800Y-232247800D03*
X399074800Y-234447800D03*
X400024800Y-234447800D03*
X400974800Y-234447800D03*
%TD*%
%TO.C,R2*%
G36*
G01*
X396456300Y-233004101D02*
X396456300Y-232104099D01*
G75*
G02*
X396706299Y-231854100I249999J0D01*
G01*
X397231301Y-231854100D01*
G75*
G02*
X397481300Y-232104099I0J-249999D01*
G01*
X397481300Y-233004101D01*
G75*
G02*
X397231301Y-233254100I-249999J0D01*
G01*
X396706299Y-233254100D01*
G75*
G02*
X396456300Y-233004101I0J249999D01*
G01*
G37*
G36*
G01*
X394631300Y-233004101D02*
X394631300Y-232104099D01*
G75*
G02*
X394881299Y-231854100I249999J0D01*
G01*
X395406301Y-231854100D01*
G75*
G02*
X395656300Y-232104099I0J-249999D01*
G01*
X395656300Y-233004101D01*
G75*
G02*
X395406301Y-233254100I-249999J0D01*
G01*
X394881299Y-233254100D01*
G75*
G02*
X394631300Y-233004101I0J249999D01*
G01*
G37*
%TD*%
%TO.C,U14*%
G36*
G01*
X413580500Y-248153300D02*
X412255500Y-248153300D01*
G75*
G02*
X412180500Y-248078300I0J75000D01*
G01*
X412180500Y-247928300D01*
G75*
G02*
X412255500Y-247853300I75000J0D01*
G01*
X413580500Y-247853300D01*
G75*
G02*
X413655500Y-247928300I0J-75000D01*
G01*
X413655500Y-248078300D01*
G75*
G02*
X413580500Y-248153300I-75000J0D01*
G01*
G37*
G36*
G01*
X413580500Y-247653300D02*
X412255500Y-247653300D01*
G75*
G02*
X412180500Y-247578300I0J75000D01*
G01*
X412180500Y-247428300D01*
G75*
G02*
X412255500Y-247353300I75000J0D01*
G01*
X413580500Y-247353300D01*
G75*
G02*
X413655500Y-247428300I0J-75000D01*
G01*
X413655500Y-247578300D01*
G75*
G02*
X413580500Y-247653300I-75000J0D01*
G01*
G37*
G36*
G01*
X413580500Y-247153300D02*
X412255500Y-247153300D01*
G75*
G02*
X412180500Y-247078300I0J75000D01*
G01*
X412180500Y-246928300D01*
G75*
G02*
X412255500Y-246853300I75000J0D01*
G01*
X413580500Y-246853300D01*
G75*
G02*
X413655500Y-246928300I0J-75000D01*
G01*
X413655500Y-247078300D01*
G75*
G02*
X413580500Y-247153300I-75000J0D01*
G01*
G37*
G36*
G01*
X413580500Y-246653300D02*
X412255500Y-246653300D01*
G75*
G02*
X412180500Y-246578300I0J75000D01*
G01*
X412180500Y-246428300D01*
G75*
G02*
X412255500Y-246353300I75000J0D01*
G01*
X413580500Y-246353300D01*
G75*
G02*
X413655500Y-246428300I0J-75000D01*
G01*
X413655500Y-246578300D01*
G75*
G02*
X413580500Y-246653300I-75000J0D01*
G01*
G37*
G36*
G01*
X413580500Y-246153300D02*
X412255500Y-246153300D01*
G75*
G02*
X412180500Y-246078300I0J75000D01*
G01*
X412180500Y-245928300D01*
G75*
G02*
X412255500Y-245853300I75000J0D01*
G01*
X413580500Y-245853300D01*
G75*
G02*
X413655500Y-245928300I0J-75000D01*
G01*
X413655500Y-246078300D01*
G75*
G02*
X413580500Y-246153300I-75000J0D01*
G01*
G37*
G36*
G01*
X413580500Y-245653300D02*
X412255500Y-245653300D01*
G75*
G02*
X412180500Y-245578300I0J75000D01*
G01*
X412180500Y-245428300D01*
G75*
G02*
X412255500Y-245353300I75000J0D01*
G01*
X413580500Y-245353300D01*
G75*
G02*
X413655500Y-245428300I0J-75000D01*
G01*
X413655500Y-245578300D01*
G75*
G02*
X413580500Y-245653300I-75000J0D01*
G01*
G37*
G36*
G01*
X413580500Y-245153300D02*
X412255500Y-245153300D01*
G75*
G02*
X412180500Y-245078300I0J75000D01*
G01*
X412180500Y-244928300D01*
G75*
G02*
X412255500Y-244853300I75000J0D01*
G01*
X413580500Y-244853300D01*
G75*
G02*
X413655500Y-244928300I0J-75000D01*
G01*
X413655500Y-245078300D01*
G75*
G02*
X413580500Y-245153300I-75000J0D01*
G01*
G37*
G36*
G01*
X413580500Y-244653300D02*
X412255500Y-244653300D01*
G75*
G02*
X412180500Y-244578300I0J75000D01*
G01*
X412180500Y-244428300D01*
G75*
G02*
X412255500Y-244353300I75000J0D01*
G01*
X413580500Y-244353300D01*
G75*
G02*
X413655500Y-244428300I0J-75000D01*
G01*
X413655500Y-244578300D01*
G75*
G02*
X413580500Y-244653300I-75000J0D01*
G01*
G37*
G36*
G01*
X413580500Y-244153300D02*
X412255500Y-244153300D01*
G75*
G02*
X412180500Y-244078300I0J75000D01*
G01*
X412180500Y-243928300D01*
G75*
G02*
X412255500Y-243853300I75000J0D01*
G01*
X413580500Y-243853300D01*
G75*
G02*
X413655500Y-243928300I0J-75000D01*
G01*
X413655500Y-244078300D01*
G75*
G02*
X413580500Y-244153300I-75000J0D01*
G01*
G37*
G36*
G01*
X413580500Y-243653300D02*
X412255500Y-243653300D01*
G75*
G02*
X412180500Y-243578300I0J75000D01*
G01*
X412180500Y-243428300D01*
G75*
G02*
X412255500Y-243353300I75000J0D01*
G01*
X413580500Y-243353300D01*
G75*
G02*
X413655500Y-243428300I0J-75000D01*
G01*
X413655500Y-243578300D01*
G75*
G02*
X413580500Y-243653300I-75000J0D01*
G01*
G37*
G36*
G01*
X413580500Y-243153300D02*
X412255500Y-243153300D01*
G75*
G02*
X412180500Y-243078300I0J75000D01*
G01*
X412180500Y-242928300D01*
G75*
G02*
X412255500Y-242853300I75000J0D01*
G01*
X413580500Y-242853300D01*
G75*
G02*
X413655500Y-242928300I0J-75000D01*
G01*
X413655500Y-243078300D01*
G75*
G02*
X413580500Y-243153300I-75000J0D01*
G01*
G37*
G36*
G01*
X413580500Y-242653300D02*
X412255500Y-242653300D01*
G75*
G02*
X412180500Y-242578300I0J75000D01*
G01*
X412180500Y-242428300D01*
G75*
G02*
X412255500Y-242353300I75000J0D01*
G01*
X413580500Y-242353300D01*
G75*
G02*
X413655500Y-242428300I0J-75000D01*
G01*
X413655500Y-242578300D01*
G75*
G02*
X413580500Y-242653300I-75000J0D01*
G01*
G37*
G36*
G01*
X411580500Y-241828300D02*
X411430500Y-241828300D01*
G75*
G02*
X411355500Y-241753300I0J75000D01*
G01*
X411355500Y-240428300D01*
G75*
G02*
X411430500Y-240353300I75000J0D01*
G01*
X411580500Y-240353300D01*
G75*
G02*
X411655500Y-240428300I0J-75000D01*
G01*
X411655500Y-241753300D01*
G75*
G02*
X411580500Y-241828300I-75000J0D01*
G01*
G37*
G36*
G01*
X411080500Y-241828300D02*
X410930500Y-241828300D01*
G75*
G02*
X410855500Y-241753300I0J75000D01*
G01*
X410855500Y-240428300D01*
G75*
G02*
X410930500Y-240353300I75000J0D01*
G01*
X411080500Y-240353300D01*
G75*
G02*
X411155500Y-240428300I0J-75000D01*
G01*
X411155500Y-241753300D01*
G75*
G02*
X411080500Y-241828300I-75000J0D01*
G01*
G37*
G36*
G01*
X410580500Y-241828300D02*
X410430500Y-241828300D01*
G75*
G02*
X410355500Y-241753300I0J75000D01*
G01*
X410355500Y-240428300D01*
G75*
G02*
X410430500Y-240353300I75000J0D01*
G01*
X410580500Y-240353300D01*
G75*
G02*
X410655500Y-240428300I0J-75000D01*
G01*
X410655500Y-241753300D01*
G75*
G02*
X410580500Y-241828300I-75000J0D01*
G01*
G37*
G36*
G01*
X410080500Y-241828300D02*
X409930500Y-241828300D01*
G75*
G02*
X409855500Y-241753300I0J75000D01*
G01*
X409855500Y-240428300D01*
G75*
G02*
X409930500Y-240353300I75000J0D01*
G01*
X410080500Y-240353300D01*
G75*
G02*
X410155500Y-240428300I0J-75000D01*
G01*
X410155500Y-241753300D01*
G75*
G02*
X410080500Y-241828300I-75000J0D01*
G01*
G37*
G36*
G01*
X409580500Y-241828300D02*
X409430500Y-241828300D01*
G75*
G02*
X409355500Y-241753300I0J75000D01*
G01*
X409355500Y-240428300D01*
G75*
G02*
X409430500Y-240353300I75000J0D01*
G01*
X409580500Y-240353300D01*
G75*
G02*
X409655500Y-240428300I0J-75000D01*
G01*
X409655500Y-241753300D01*
G75*
G02*
X409580500Y-241828300I-75000J0D01*
G01*
G37*
G36*
G01*
X409080500Y-241828300D02*
X408930500Y-241828300D01*
G75*
G02*
X408855500Y-241753300I0J75000D01*
G01*
X408855500Y-240428300D01*
G75*
G02*
X408930500Y-240353300I75000J0D01*
G01*
X409080500Y-240353300D01*
G75*
G02*
X409155500Y-240428300I0J-75000D01*
G01*
X409155500Y-241753300D01*
G75*
G02*
X409080500Y-241828300I-75000J0D01*
G01*
G37*
G36*
G01*
X408580500Y-241828300D02*
X408430500Y-241828300D01*
G75*
G02*
X408355500Y-241753300I0J75000D01*
G01*
X408355500Y-240428300D01*
G75*
G02*
X408430500Y-240353300I75000J0D01*
G01*
X408580500Y-240353300D01*
G75*
G02*
X408655500Y-240428300I0J-75000D01*
G01*
X408655500Y-241753300D01*
G75*
G02*
X408580500Y-241828300I-75000J0D01*
G01*
G37*
G36*
G01*
X408080500Y-241828300D02*
X407930500Y-241828300D01*
G75*
G02*
X407855500Y-241753300I0J75000D01*
G01*
X407855500Y-240428300D01*
G75*
G02*
X407930500Y-240353300I75000J0D01*
G01*
X408080500Y-240353300D01*
G75*
G02*
X408155500Y-240428300I0J-75000D01*
G01*
X408155500Y-241753300D01*
G75*
G02*
X408080500Y-241828300I-75000J0D01*
G01*
G37*
G36*
G01*
X407580500Y-241828300D02*
X407430500Y-241828300D01*
G75*
G02*
X407355500Y-241753300I0J75000D01*
G01*
X407355500Y-240428300D01*
G75*
G02*
X407430500Y-240353300I75000J0D01*
G01*
X407580500Y-240353300D01*
G75*
G02*
X407655500Y-240428300I0J-75000D01*
G01*
X407655500Y-241753300D01*
G75*
G02*
X407580500Y-241828300I-75000J0D01*
G01*
G37*
G36*
G01*
X407080500Y-241828300D02*
X406930500Y-241828300D01*
G75*
G02*
X406855500Y-241753300I0J75000D01*
G01*
X406855500Y-240428300D01*
G75*
G02*
X406930500Y-240353300I75000J0D01*
G01*
X407080500Y-240353300D01*
G75*
G02*
X407155500Y-240428300I0J-75000D01*
G01*
X407155500Y-241753300D01*
G75*
G02*
X407080500Y-241828300I-75000J0D01*
G01*
G37*
G36*
G01*
X406580500Y-241828300D02*
X406430500Y-241828300D01*
G75*
G02*
X406355500Y-241753300I0J75000D01*
G01*
X406355500Y-240428300D01*
G75*
G02*
X406430500Y-240353300I75000J0D01*
G01*
X406580500Y-240353300D01*
G75*
G02*
X406655500Y-240428300I0J-75000D01*
G01*
X406655500Y-241753300D01*
G75*
G02*
X406580500Y-241828300I-75000J0D01*
G01*
G37*
G36*
G01*
X406080500Y-241828300D02*
X405930500Y-241828300D01*
G75*
G02*
X405855500Y-241753300I0J75000D01*
G01*
X405855500Y-240428300D01*
G75*
G02*
X405930500Y-240353300I75000J0D01*
G01*
X406080500Y-240353300D01*
G75*
G02*
X406155500Y-240428300I0J-75000D01*
G01*
X406155500Y-241753300D01*
G75*
G02*
X406080500Y-241828300I-75000J0D01*
G01*
G37*
G36*
G01*
X405255500Y-242653300D02*
X403930500Y-242653300D01*
G75*
G02*
X403855500Y-242578300I0J75000D01*
G01*
X403855500Y-242428300D01*
G75*
G02*
X403930500Y-242353300I75000J0D01*
G01*
X405255500Y-242353300D01*
G75*
G02*
X405330500Y-242428300I0J-75000D01*
G01*
X405330500Y-242578300D01*
G75*
G02*
X405255500Y-242653300I-75000J0D01*
G01*
G37*
G36*
G01*
X405255500Y-243153300D02*
X403930500Y-243153300D01*
G75*
G02*
X403855500Y-243078300I0J75000D01*
G01*
X403855500Y-242928300D01*
G75*
G02*
X403930500Y-242853300I75000J0D01*
G01*
X405255500Y-242853300D01*
G75*
G02*
X405330500Y-242928300I0J-75000D01*
G01*
X405330500Y-243078300D01*
G75*
G02*
X405255500Y-243153300I-75000J0D01*
G01*
G37*
G36*
G01*
X405255500Y-243653300D02*
X403930500Y-243653300D01*
G75*
G02*
X403855500Y-243578300I0J75000D01*
G01*
X403855500Y-243428300D01*
G75*
G02*
X403930500Y-243353300I75000J0D01*
G01*
X405255500Y-243353300D01*
G75*
G02*
X405330500Y-243428300I0J-75000D01*
G01*
X405330500Y-243578300D01*
G75*
G02*
X405255500Y-243653300I-75000J0D01*
G01*
G37*
G36*
G01*
X405255500Y-244153300D02*
X403930500Y-244153300D01*
G75*
G02*
X403855500Y-244078300I0J75000D01*
G01*
X403855500Y-243928300D01*
G75*
G02*
X403930500Y-243853300I75000J0D01*
G01*
X405255500Y-243853300D01*
G75*
G02*
X405330500Y-243928300I0J-75000D01*
G01*
X405330500Y-244078300D01*
G75*
G02*
X405255500Y-244153300I-75000J0D01*
G01*
G37*
G36*
G01*
X405255500Y-244653300D02*
X403930500Y-244653300D01*
G75*
G02*
X403855500Y-244578300I0J75000D01*
G01*
X403855500Y-244428300D01*
G75*
G02*
X403930500Y-244353300I75000J0D01*
G01*
X405255500Y-244353300D01*
G75*
G02*
X405330500Y-244428300I0J-75000D01*
G01*
X405330500Y-244578300D01*
G75*
G02*
X405255500Y-244653300I-75000J0D01*
G01*
G37*
G36*
G01*
X405255500Y-245153300D02*
X403930500Y-245153300D01*
G75*
G02*
X403855500Y-245078300I0J75000D01*
G01*
X403855500Y-244928300D01*
G75*
G02*
X403930500Y-244853300I75000J0D01*
G01*
X405255500Y-244853300D01*
G75*
G02*
X405330500Y-244928300I0J-75000D01*
G01*
X405330500Y-245078300D01*
G75*
G02*
X405255500Y-245153300I-75000J0D01*
G01*
G37*
G36*
G01*
X405255500Y-245653300D02*
X403930500Y-245653300D01*
G75*
G02*
X403855500Y-245578300I0J75000D01*
G01*
X403855500Y-245428300D01*
G75*
G02*
X403930500Y-245353300I75000J0D01*
G01*
X405255500Y-245353300D01*
G75*
G02*
X405330500Y-245428300I0J-75000D01*
G01*
X405330500Y-245578300D01*
G75*
G02*
X405255500Y-245653300I-75000J0D01*
G01*
G37*
G36*
G01*
X405255500Y-246153300D02*
X403930500Y-246153300D01*
G75*
G02*
X403855500Y-246078300I0J75000D01*
G01*
X403855500Y-245928300D01*
G75*
G02*
X403930500Y-245853300I75000J0D01*
G01*
X405255500Y-245853300D01*
G75*
G02*
X405330500Y-245928300I0J-75000D01*
G01*
X405330500Y-246078300D01*
G75*
G02*
X405255500Y-246153300I-75000J0D01*
G01*
G37*
G36*
G01*
X405255500Y-246653300D02*
X403930500Y-246653300D01*
G75*
G02*
X403855500Y-246578300I0J75000D01*
G01*
X403855500Y-246428300D01*
G75*
G02*
X403930500Y-246353300I75000J0D01*
G01*
X405255500Y-246353300D01*
G75*
G02*
X405330500Y-246428300I0J-75000D01*
G01*
X405330500Y-246578300D01*
G75*
G02*
X405255500Y-246653300I-75000J0D01*
G01*
G37*
G36*
G01*
X405255500Y-247153300D02*
X403930500Y-247153300D01*
G75*
G02*
X403855500Y-247078300I0J75000D01*
G01*
X403855500Y-246928300D01*
G75*
G02*
X403930500Y-246853300I75000J0D01*
G01*
X405255500Y-246853300D01*
G75*
G02*
X405330500Y-246928300I0J-75000D01*
G01*
X405330500Y-247078300D01*
G75*
G02*
X405255500Y-247153300I-75000J0D01*
G01*
G37*
G36*
G01*
X405255500Y-247653300D02*
X403930500Y-247653300D01*
G75*
G02*
X403855500Y-247578300I0J75000D01*
G01*
X403855500Y-247428300D01*
G75*
G02*
X403930500Y-247353300I75000J0D01*
G01*
X405255500Y-247353300D01*
G75*
G02*
X405330500Y-247428300I0J-75000D01*
G01*
X405330500Y-247578300D01*
G75*
G02*
X405255500Y-247653300I-75000J0D01*
G01*
G37*
G36*
G01*
X405255500Y-248153300D02*
X403930500Y-248153300D01*
G75*
G02*
X403855500Y-248078300I0J75000D01*
G01*
X403855500Y-247928300D01*
G75*
G02*
X403930500Y-247853300I75000J0D01*
G01*
X405255500Y-247853300D01*
G75*
G02*
X405330500Y-247928300I0J-75000D01*
G01*
X405330500Y-248078300D01*
G75*
G02*
X405255500Y-248153300I-75000J0D01*
G01*
G37*
G36*
G01*
X406080500Y-250153300D02*
X405930500Y-250153300D01*
G75*
G02*
X405855500Y-250078300I0J75000D01*
G01*
X405855500Y-248753300D01*
G75*
G02*
X405930500Y-248678300I75000J0D01*
G01*
X406080500Y-248678300D01*
G75*
G02*
X406155500Y-248753300I0J-75000D01*
G01*
X406155500Y-250078300D01*
G75*
G02*
X406080500Y-250153300I-75000J0D01*
G01*
G37*
G36*
G01*
X406580500Y-250153300D02*
X406430500Y-250153300D01*
G75*
G02*
X406355500Y-250078300I0J75000D01*
G01*
X406355500Y-248753300D01*
G75*
G02*
X406430500Y-248678300I75000J0D01*
G01*
X406580500Y-248678300D01*
G75*
G02*
X406655500Y-248753300I0J-75000D01*
G01*
X406655500Y-250078300D01*
G75*
G02*
X406580500Y-250153300I-75000J0D01*
G01*
G37*
G36*
G01*
X407080500Y-250153300D02*
X406930500Y-250153300D01*
G75*
G02*
X406855500Y-250078300I0J75000D01*
G01*
X406855500Y-248753300D01*
G75*
G02*
X406930500Y-248678300I75000J0D01*
G01*
X407080500Y-248678300D01*
G75*
G02*
X407155500Y-248753300I0J-75000D01*
G01*
X407155500Y-250078300D01*
G75*
G02*
X407080500Y-250153300I-75000J0D01*
G01*
G37*
G36*
G01*
X407580500Y-250153300D02*
X407430500Y-250153300D01*
G75*
G02*
X407355500Y-250078300I0J75000D01*
G01*
X407355500Y-248753300D01*
G75*
G02*
X407430500Y-248678300I75000J0D01*
G01*
X407580500Y-248678300D01*
G75*
G02*
X407655500Y-248753300I0J-75000D01*
G01*
X407655500Y-250078300D01*
G75*
G02*
X407580500Y-250153300I-75000J0D01*
G01*
G37*
G36*
G01*
X408080500Y-250153300D02*
X407930500Y-250153300D01*
G75*
G02*
X407855500Y-250078300I0J75000D01*
G01*
X407855500Y-248753300D01*
G75*
G02*
X407930500Y-248678300I75000J0D01*
G01*
X408080500Y-248678300D01*
G75*
G02*
X408155500Y-248753300I0J-75000D01*
G01*
X408155500Y-250078300D01*
G75*
G02*
X408080500Y-250153300I-75000J0D01*
G01*
G37*
G36*
G01*
X408580500Y-250153300D02*
X408430500Y-250153300D01*
G75*
G02*
X408355500Y-250078300I0J75000D01*
G01*
X408355500Y-248753300D01*
G75*
G02*
X408430500Y-248678300I75000J0D01*
G01*
X408580500Y-248678300D01*
G75*
G02*
X408655500Y-248753300I0J-75000D01*
G01*
X408655500Y-250078300D01*
G75*
G02*
X408580500Y-250153300I-75000J0D01*
G01*
G37*
G36*
G01*
X409080500Y-250153300D02*
X408930500Y-250153300D01*
G75*
G02*
X408855500Y-250078300I0J75000D01*
G01*
X408855500Y-248753300D01*
G75*
G02*
X408930500Y-248678300I75000J0D01*
G01*
X409080500Y-248678300D01*
G75*
G02*
X409155500Y-248753300I0J-75000D01*
G01*
X409155500Y-250078300D01*
G75*
G02*
X409080500Y-250153300I-75000J0D01*
G01*
G37*
G36*
G01*
X409580500Y-250153300D02*
X409430500Y-250153300D01*
G75*
G02*
X409355500Y-250078300I0J75000D01*
G01*
X409355500Y-248753300D01*
G75*
G02*
X409430500Y-248678300I75000J0D01*
G01*
X409580500Y-248678300D01*
G75*
G02*
X409655500Y-248753300I0J-75000D01*
G01*
X409655500Y-250078300D01*
G75*
G02*
X409580500Y-250153300I-75000J0D01*
G01*
G37*
G36*
G01*
X410080500Y-250153300D02*
X409930500Y-250153300D01*
G75*
G02*
X409855500Y-250078300I0J75000D01*
G01*
X409855500Y-248753300D01*
G75*
G02*
X409930500Y-248678300I75000J0D01*
G01*
X410080500Y-248678300D01*
G75*
G02*
X410155500Y-248753300I0J-75000D01*
G01*
X410155500Y-250078300D01*
G75*
G02*
X410080500Y-250153300I-75000J0D01*
G01*
G37*
G36*
G01*
X410580500Y-250153300D02*
X410430500Y-250153300D01*
G75*
G02*
X410355500Y-250078300I0J75000D01*
G01*
X410355500Y-248753300D01*
G75*
G02*
X410430500Y-248678300I75000J0D01*
G01*
X410580500Y-248678300D01*
G75*
G02*
X410655500Y-248753300I0J-75000D01*
G01*
X410655500Y-250078300D01*
G75*
G02*
X410580500Y-250153300I-75000J0D01*
G01*
G37*
G36*
G01*
X411080500Y-250153300D02*
X410930500Y-250153300D01*
G75*
G02*
X410855500Y-250078300I0J75000D01*
G01*
X410855500Y-248753300D01*
G75*
G02*
X410930500Y-248678300I75000J0D01*
G01*
X411080500Y-248678300D01*
G75*
G02*
X411155500Y-248753300I0J-75000D01*
G01*
X411155500Y-250078300D01*
G75*
G02*
X411080500Y-250153300I-75000J0D01*
G01*
G37*
G36*
G01*
X411580500Y-250153300D02*
X411430500Y-250153300D01*
G75*
G02*
X411355500Y-250078300I0J75000D01*
G01*
X411355500Y-248753300D01*
G75*
G02*
X411430500Y-248678300I75000J0D01*
G01*
X411580500Y-248678300D01*
G75*
G02*
X411655500Y-248753300I0J-75000D01*
G01*
X411655500Y-250078300D01*
G75*
G02*
X411580500Y-250153300I-75000J0D01*
G01*
G37*
%TD*%
%TO.C,D1*%
G36*
G01*
X395606300Y-234478950D02*
X395606300Y-235391450D01*
G75*
G02*
X395362550Y-235635200I-243750J0D01*
G01*
X394875050Y-235635200D01*
G75*
G02*
X394631300Y-235391450I0J243750D01*
G01*
X394631300Y-234478950D01*
G75*
G02*
X394875050Y-234235200I243750J0D01*
G01*
X395362550Y-234235200D01*
G75*
G02*
X395606300Y-234478950I0J-243750D01*
G01*
G37*
G36*
G01*
X397481300Y-234478950D02*
X397481300Y-235391450D01*
G75*
G02*
X397237550Y-235635200I-243750J0D01*
G01*
X396750050Y-235635200D01*
G75*
G02*
X396506300Y-235391450I0J243750D01*
G01*
X396506300Y-234478950D01*
G75*
G02*
X396750050Y-234235200I243750J0D01*
G01*
X397237550Y-234235200D01*
G75*
G02*
X397481300Y-234478950I0J-243750D01*
G01*
G37*
%TD*%
%TO.C,R13*%
G36*
G01*
X303587100Y-159877399D02*
X303587100Y-160777401D01*
G75*
G02*
X303337101Y-161027400I-249999J0D01*
G01*
X302812099Y-161027400D01*
G75*
G02*
X302562100Y-160777401I0J249999D01*
G01*
X302562100Y-159877399D01*
G75*
G02*
X302812099Y-159627400I249999J0D01*
G01*
X303337101Y-159627400D01*
G75*
G02*
X303587100Y-159877399I0J-249999D01*
G01*
G37*
G36*
G01*
X305412100Y-159877399D02*
X305412100Y-160777401D01*
G75*
G02*
X305162101Y-161027400I-249999J0D01*
G01*
X304637099Y-161027400D01*
G75*
G02*
X304387100Y-160777401I0J249999D01*
G01*
X304387100Y-159877399D01*
G75*
G02*
X304637099Y-159627400I249999J0D01*
G01*
X305162101Y-159627400D01*
G75*
G02*
X305412100Y-159877399I0J-249999D01*
G01*
G37*
%TD*%
%TO.C,R8*%
G36*
G01*
X301949699Y-179379350D02*
X302849701Y-179379350D01*
G75*
G02*
X303099700Y-179629349I0J-249999D01*
G01*
X303099700Y-180154351D01*
G75*
G02*
X302849701Y-180404350I-249999J0D01*
G01*
X301949699Y-180404350D01*
G75*
G02*
X301699700Y-180154351I0J249999D01*
G01*
X301699700Y-179629349D01*
G75*
G02*
X301949699Y-179379350I249999J0D01*
G01*
G37*
G36*
G01*
X301949699Y-177554350D02*
X302849701Y-177554350D01*
G75*
G02*
X303099700Y-177804349I0J-249999D01*
G01*
X303099700Y-178329351D01*
G75*
G02*
X302849701Y-178579350I-249999J0D01*
G01*
X301949699Y-178579350D01*
G75*
G02*
X301699700Y-178329351I0J249999D01*
G01*
X301699700Y-177804349D01*
G75*
G02*
X301949699Y-177554350I249999J0D01*
G01*
G37*
%TD*%
%TO.C,D2*%
G36*
G01*
X305237050Y-178529350D02*
X304324550Y-178529350D01*
G75*
G02*
X304080800Y-178285600I0J243750D01*
G01*
X304080800Y-177798100D01*
G75*
G02*
X304324550Y-177554350I243750J0D01*
G01*
X305237050Y-177554350D01*
G75*
G02*
X305480800Y-177798100I0J-243750D01*
G01*
X305480800Y-178285600D01*
G75*
G02*
X305237050Y-178529350I-243750J0D01*
G01*
G37*
G36*
G01*
X305237050Y-180404350D02*
X304324550Y-180404350D01*
G75*
G02*
X304080800Y-180160600I0J243750D01*
G01*
X304080800Y-179673100D01*
G75*
G02*
X304324550Y-179429350I243750J0D01*
G01*
X305237050Y-179429350D01*
G75*
G02*
X305480800Y-179673100I0J-243750D01*
G01*
X305480800Y-180160600D01*
G75*
G02*
X305237050Y-180404350I-243750J0D01*
G01*
G37*
%TD*%
D18*
%TO.C,U1*%
X306855600Y-161121100D03*
X306855600Y-160171100D03*
X306855600Y-162071100D03*
X309055600Y-162071100D03*
X309055600Y-161121100D03*
X309055600Y-160171100D03*
%TD*%
D19*
%TO.C,USB1*%
X311180600Y-156116900D03*
X304730600Y-156116900D03*
X310405600Y-156116900D03*
X305505600Y-156116900D03*
D20*
X306205600Y-156116900D03*
X309705600Y-156116900D03*
X306705600Y-156116900D03*
X309205600Y-156116900D03*
X307205600Y-156116900D03*
X308705600Y-156116900D03*
X308205600Y-156116900D03*
X307705600Y-156116900D03*
%TD*%
%TO.C,R12*%
G36*
G01*
X312324100Y-160777401D02*
X312324100Y-159877399D01*
G75*
G02*
X312574099Y-159627400I249999J0D01*
G01*
X313099101Y-159627400D01*
G75*
G02*
X313349100Y-159877399I0J-249999D01*
G01*
X313349100Y-160777401D01*
G75*
G02*
X313099101Y-161027400I-249999J0D01*
G01*
X312574099Y-161027400D01*
G75*
G02*
X312324100Y-160777401I0J249999D01*
G01*
G37*
G36*
G01*
X310499100Y-160777401D02*
X310499100Y-159877399D01*
G75*
G02*
X310749099Y-159627400I249999J0D01*
G01*
X311274101Y-159627400D01*
G75*
G02*
X311524100Y-159877399I0J-249999D01*
G01*
X311524100Y-160777401D01*
G75*
G02*
X311274101Y-161027400I-249999J0D01*
G01*
X310749099Y-161027400D01*
G75*
G02*
X310499100Y-160777401I0J249999D01*
G01*
G37*
%TD*%
%TO.C,FB5*%
G36*
G01*
X315267600Y-159946150D02*
X315267600Y-160708650D01*
G75*
G02*
X315048850Y-160927400I-218750J0D01*
G01*
X314611350Y-160927400D01*
G75*
G02*
X314392600Y-160708650I0J218750D01*
G01*
X314392600Y-159946150D01*
G75*
G02*
X314611350Y-159727400I218750J0D01*
G01*
X315048850Y-159727400D01*
G75*
G02*
X315267600Y-159946150I0J-218750D01*
G01*
G37*
G36*
G01*
X317392600Y-159946150D02*
X317392600Y-160708650D01*
G75*
G02*
X317173850Y-160927400I-218750J0D01*
G01*
X316736350Y-160927400D01*
G75*
G02*
X316517600Y-160708650I0J218750D01*
G01*
X316517600Y-159946150D01*
G75*
G02*
X316736350Y-159727400I218750J0D01*
G01*
X317173850Y-159727400D01*
G75*
G02*
X317392600Y-159946150I0J-218750D01*
G01*
G37*
%TD*%
%TO.C,R3*%
G36*
G01*
X409496049Y-234541500D02*
X410396051Y-234541500D01*
G75*
G02*
X410646050Y-234791499I0J-249999D01*
G01*
X410646050Y-235316501D01*
G75*
G02*
X410396051Y-235566500I-249999J0D01*
G01*
X409496049Y-235566500D01*
G75*
G02*
X409246050Y-235316501I0J249999D01*
G01*
X409246050Y-234791499D01*
G75*
G02*
X409496049Y-234541500I249999J0D01*
G01*
G37*
G36*
G01*
X409496049Y-232716500D02*
X410396051Y-232716500D01*
G75*
G02*
X410646050Y-232966499I0J-249999D01*
G01*
X410646050Y-233491501D01*
G75*
G02*
X410396051Y-233741500I-249999J0D01*
G01*
X409496049Y-233741500D01*
G75*
G02*
X409246050Y-233491501I0J249999D01*
G01*
X409246050Y-232966499D01*
G75*
G02*
X409496049Y-232716500I249999J0D01*
G01*
G37*
%TD*%
D21*
%TO.C,Y2*%
X405299200Y-261127300D03*
X413799200Y-261127300D03*
%TD*%
D16*
%TO.C,U12*%
X410136600Y-230173000D03*
X412136600Y-231123000D03*
X412136600Y-229223000D03*
%TD*%
%TO.C,R64*%
G36*
G01*
X415555101Y-227391900D02*
X414655099Y-227391900D01*
G75*
G02*
X414405100Y-227141901I0J249999D01*
G01*
X414405100Y-226616899D01*
G75*
G02*
X414655099Y-226366900I249999J0D01*
G01*
X415555101Y-226366900D01*
G75*
G02*
X415805100Y-226616899I0J-249999D01*
G01*
X415805100Y-227141901D01*
G75*
G02*
X415555101Y-227391900I-249999J0D01*
G01*
G37*
G36*
G01*
X415555101Y-229216900D02*
X414655099Y-229216900D01*
G75*
G02*
X414405100Y-228966901I0J249999D01*
G01*
X414405100Y-228441899D01*
G75*
G02*
X414655099Y-228191900I249999J0D01*
G01*
X415555101Y-228191900D01*
G75*
G02*
X415805100Y-228441899I0J-249999D01*
G01*
X415805100Y-228966901D01*
G75*
G02*
X415555101Y-229216900I-249999J0D01*
G01*
G37*
%TD*%
%TO.C,R58*%
G36*
G01*
X414258249Y-234541500D02*
X415158251Y-234541500D01*
G75*
G02*
X415408250Y-234791499I0J-249999D01*
G01*
X415408250Y-235316501D01*
G75*
G02*
X415158251Y-235566500I-249999J0D01*
G01*
X414258249Y-235566500D01*
G75*
G02*
X414008250Y-235316501I0J249999D01*
G01*
X414008250Y-234791499D01*
G75*
G02*
X414258249Y-234541500I249999J0D01*
G01*
G37*
G36*
G01*
X414258249Y-232716500D02*
X415158251Y-232716500D01*
G75*
G02*
X415408250Y-232966499I0J-249999D01*
G01*
X415408250Y-233491501D01*
G75*
G02*
X415158251Y-233741500I-249999J0D01*
G01*
X414258249Y-233741500D01*
G75*
G02*
X414008250Y-233491501I0J249999D01*
G01*
X414008250Y-232966499D01*
G75*
G02*
X414258249Y-232716500I249999J0D01*
G01*
G37*
%TD*%
%TO.C,R27*%
G36*
G01*
X398781099Y-241684800D02*
X399681101Y-241684800D01*
G75*
G02*
X399931100Y-241934799I0J-249999D01*
G01*
X399931100Y-242459801D01*
G75*
G02*
X399681101Y-242709800I-249999J0D01*
G01*
X398781099Y-242709800D01*
G75*
G02*
X398531100Y-242459801I0J249999D01*
G01*
X398531100Y-241934799D01*
G75*
G02*
X398781099Y-241684800I249999J0D01*
G01*
G37*
G36*
G01*
X398781099Y-239859800D02*
X399681101Y-239859800D01*
G75*
G02*
X399931100Y-240109799I0J-249999D01*
G01*
X399931100Y-240634801D01*
G75*
G02*
X399681101Y-240884800I-249999J0D01*
G01*
X398781099Y-240884800D01*
G75*
G02*
X398531100Y-240634801I0J249999D01*
G01*
X398531100Y-240109799D01*
G75*
G02*
X398781099Y-239859800I249999J0D01*
G01*
G37*
%TD*%
%TO.C,FB15*%
G36*
G01*
X405168250Y-230341700D02*
X404405750Y-230341700D01*
G75*
G02*
X404187000Y-230122950I0J218750D01*
G01*
X404187000Y-229685450D01*
G75*
G02*
X404405750Y-229466700I218750J0D01*
G01*
X405168250Y-229466700D01*
G75*
G02*
X405387000Y-229685450I0J-218750D01*
G01*
X405387000Y-230122950D01*
G75*
G02*
X405168250Y-230341700I-218750J0D01*
G01*
G37*
G36*
G01*
X405168250Y-232466700D02*
X404405750Y-232466700D01*
G75*
G02*
X404187000Y-232247950I0J218750D01*
G01*
X404187000Y-231810450D01*
G75*
G02*
X404405750Y-231591700I218750J0D01*
G01*
X405168250Y-231591700D01*
G75*
G02*
X405387000Y-231810450I0J-218750D01*
G01*
X405387000Y-232247950D01*
G75*
G02*
X405168250Y-232466700I-218750J0D01*
G01*
G37*
%TD*%
%TO.C,F8*%
G36*
G01*
X407793100Y-230985400D02*
X406543100Y-230985400D01*
G75*
G02*
X406293100Y-230735400I0J250000D01*
G01*
X406293100Y-229985400D01*
G75*
G02*
X406543100Y-229735400I250000J0D01*
G01*
X407793100Y-229735400D01*
G75*
G02*
X408043100Y-229985400I0J-250000D01*
G01*
X408043100Y-230735400D01*
G75*
G02*
X407793100Y-230985400I-250000J0D01*
G01*
G37*
G36*
G01*
X407793100Y-233785400D02*
X406543100Y-233785400D01*
G75*
G02*
X406293100Y-233535400I0J250000D01*
G01*
X406293100Y-232785400D01*
G75*
G02*
X406543100Y-232535400I250000J0D01*
G01*
X407793100Y-232535400D01*
G75*
G02*
X408043100Y-232785400I0J-250000D01*
G01*
X408043100Y-233535400D01*
G75*
G02*
X407793100Y-233785400I-250000J0D01*
G01*
G37*
%TD*%
%TO.C,D11*%
G36*
G01*
X417029950Y-228241900D02*
X417942450Y-228241900D01*
G75*
G02*
X418186200Y-228485650I0J-243750D01*
G01*
X418186200Y-228973150D01*
G75*
G02*
X417942450Y-229216900I-243750J0D01*
G01*
X417029950Y-229216900D01*
G75*
G02*
X416786200Y-228973150I0J243750D01*
G01*
X416786200Y-228485650D01*
G75*
G02*
X417029950Y-228241900I243750J0D01*
G01*
G37*
G36*
G01*
X417029950Y-226366900D02*
X417942450Y-226366900D01*
G75*
G02*
X418186200Y-226610650I0J-243750D01*
G01*
X418186200Y-227098150D01*
G75*
G02*
X417942450Y-227341900I-243750J0D01*
G01*
X417029950Y-227341900D01*
G75*
G02*
X416786200Y-227098150I0J243750D01*
G01*
X416786200Y-226610650D01*
G75*
G02*
X417029950Y-226366900I243750J0D01*
G01*
G37*
%TD*%
%TO.C,C44*%
G36*
G01*
X415555100Y-231441700D02*
X415555100Y-230491700D01*
G75*
G02*
X415805100Y-230241700I250000J0D01*
G01*
X416305100Y-230241700D01*
G75*
G02*
X416555100Y-230491700I0J-250000D01*
G01*
X416555100Y-231441700D01*
G75*
G02*
X416305100Y-231691700I-250000J0D01*
G01*
X415805100Y-231691700D01*
G75*
G02*
X415555100Y-231441700I0J250000D01*
G01*
G37*
G36*
G01*
X413655100Y-231441700D02*
X413655100Y-230491700D01*
G75*
G02*
X413905100Y-230241700I250000J0D01*
G01*
X414405100Y-230241700D01*
G75*
G02*
X414655100Y-230491700I0J-250000D01*
G01*
X414655100Y-231441700D01*
G75*
G02*
X414405100Y-231691700I-250000J0D01*
G01*
X413905100Y-231691700D01*
G75*
G02*
X413655100Y-231441700I0J250000D01*
G01*
G37*
%TD*%
%TO.C,C43*%
G36*
G01*
X404312000Y-235385200D02*
X405262000Y-235385200D01*
G75*
G02*
X405512000Y-235635200I0J-250000D01*
G01*
X405512000Y-236135200D01*
G75*
G02*
X405262000Y-236385200I-250000J0D01*
G01*
X404312000Y-236385200D01*
G75*
G02*
X404062000Y-236135200I0J250000D01*
G01*
X404062000Y-235635200D01*
G75*
G02*
X404312000Y-235385200I250000J0D01*
G01*
G37*
G36*
G01*
X404312000Y-233485200D02*
X405262000Y-233485200D01*
G75*
G02*
X405512000Y-233735200I0J-250000D01*
G01*
X405512000Y-234235200D01*
G75*
G02*
X405262000Y-234485200I-250000J0D01*
G01*
X404312000Y-234485200D01*
G75*
G02*
X404062000Y-234235200I0J250000D01*
G01*
X404062000Y-233735200D01*
G75*
G02*
X404312000Y-233485200I250000J0D01*
G01*
G37*
%TD*%
%TO.C,C24*%
G36*
G01*
X402803400Y-253640300D02*
X403753400Y-253640300D01*
G75*
G02*
X404003400Y-253890300I0J-250000D01*
G01*
X404003400Y-254390300D01*
G75*
G02*
X403753400Y-254640300I-250000J0D01*
G01*
X402803400Y-254640300D01*
G75*
G02*
X402553400Y-254390300I0J250000D01*
G01*
X402553400Y-253890300D01*
G75*
G02*
X402803400Y-253640300I250000J0D01*
G01*
G37*
G36*
G01*
X402803400Y-251740300D02*
X403753400Y-251740300D01*
G75*
G02*
X404003400Y-251990300I0J-250000D01*
G01*
X404003400Y-252490300D01*
G75*
G02*
X403753400Y-252740300I-250000J0D01*
G01*
X402803400Y-252740300D01*
G75*
G02*
X402553400Y-252490300I0J250000D01*
G01*
X402553400Y-251990300D01*
G75*
G02*
X402803400Y-251740300I250000J0D01*
G01*
G37*
%TD*%
%TO.C,C23*%
G36*
G01*
X406055700Y-252740300D02*
X405105700Y-252740300D01*
G75*
G02*
X404855700Y-252490300I0J250000D01*
G01*
X404855700Y-251990300D01*
G75*
G02*
X405105700Y-251740300I250000J0D01*
G01*
X406055700Y-251740300D01*
G75*
G02*
X406305700Y-251990300I0J-250000D01*
G01*
X406305700Y-252490300D01*
G75*
G02*
X406055700Y-252740300I-250000J0D01*
G01*
G37*
G36*
G01*
X406055700Y-254640300D02*
X405105700Y-254640300D01*
G75*
G02*
X404855700Y-254390300I0J250000D01*
G01*
X404855700Y-253890300D01*
G75*
G02*
X405105700Y-253640300I250000J0D01*
G01*
X406055700Y-253640300D01*
G75*
G02*
X406305700Y-253890300I0J-250000D01*
G01*
X406305700Y-254390300D01*
G75*
G02*
X406055700Y-254640300I-250000J0D01*
G01*
G37*
%TD*%
%TO.C,C22*%
G36*
G01*
X416552873Y-248445778D02*
X415881122Y-247774027D01*
G75*
G02*
X415881122Y-247420473I176777J176777D01*
G01*
X416234675Y-247066920D01*
G75*
G02*
X416588229Y-247066920I176777J-176777D01*
G01*
X417259980Y-247738671D01*
G75*
G02*
X417259980Y-248092225I-176777J-176777D01*
G01*
X416906427Y-248445778D01*
G75*
G02*
X416552873Y-248445778I-176777J176777D01*
G01*
G37*
G36*
G01*
X415209371Y-249789280D02*
X414537620Y-249117529D01*
G75*
G02*
X414537620Y-248763975I176777J176777D01*
G01*
X414891173Y-248410422D01*
G75*
G02*
X415244727Y-248410422I176777J-176777D01*
G01*
X415916478Y-249082173D01*
G75*
G02*
X415916478Y-249435727I-176777J-176777D01*
G01*
X415562925Y-249789280D01*
G75*
G02*
X415209371Y-249789280I-176777J176777D01*
G01*
G37*
%TD*%
%TO.C,C21*%
G36*
G01*
X416373800Y-251946600D02*
X415423800Y-251946600D01*
G75*
G02*
X415173800Y-251696600I0J250000D01*
G01*
X415173800Y-251196600D01*
G75*
G02*
X415423800Y-250946600I250000J0D01*
G01*
X416373800Y-250946600D01*
G75*
G02*
X416623800Y-251196600I0J-250000D01*
G01*
X416623800Y-251696600D01*
G75*
G02*
X416373800Y-251946600I-250000J0D01*
G01*
G37*
G36*
G01*
X416373800Y-253846600D02*
X415423800Y-253846600D01*
G75*
G02*
X415173800Y-253596600I0J250000D01*
G01*
X415173800Y-253096600D01*
G75*
G02*
X415423800Y-252846600I250000J0D01*
G01*
X416373800Y-252846600D01*
G75*
G02*
X416623800Y-253096600I0J-250000D01*
G01*
X416623800Y-253596600D01*
G75*
G02*
X416373800Y-253846600I-250000J0D01*
G01*
G37*
%TD*%
%TO.C,C20*%
G36*
G01*
X415580100Y-238575649D02*
X414630100Y-238575649D01*
G75*
G02*
X414380100Y-238325649I0J250000D01*
G01*
X414380100Y-237825649D01*
G75*
G02*
X414630100Y-237575649I250000J0D01*
G01*
X415580100Y-237575649D01*
G75*
G02*
X415830100Y-237825649I0J-250000D01*
G01*
X415830100Y-238325649D01*
G75*
G02*
X415580100Y-238575649I-250000J0D01*
G01*
G37*
G36*
G01*
X415580100Y-240475649D02*
X414630100Y-240475649D01*
G75*
G02*
X414380100Y-240225649I0J250000D01*
G01*
X414380100Y-239725649D01*
G75*
G02*
X414630100Y-239475649I250000J0D01*
G01*
X415580100Y-239475649D01*
G75*
G02*
X415830100Y-239725649I0J-250000D01*
G01*
X415830100Y-240225649D01*
G75*
G02*
X415580100Y-240475649I-250000J0D01*
G01*
G37*
%TD*%
%TO.C,C19*%
G36*
G01*
X401137200Y-241734800D02*
X402087200Y-241734800D01*
G75*
G02*
X402337200Y-241984800I0J-250000D01*
G01*
X402337200Y-242484800D01*
G75*
G02*
X402087200Y-242734800I-250000J0D01*
G01*
X401137200Y-242734800D01*
G75*
G02*
X400887200Y-242484800I0J250000D01*
G01*
X400887200Y-241984800D01*
G75*
G02*
X401137200Y-241734800I250000J0D01*
G01*
G37*
G36*
G01*
X401137200Y-239834800D02*
X402087200Y-239834800D01*
G75*
G02*
X402337200Y-240084800I0J-250000D01*
G01*
X402337200Y-240584800D01*
G75*
G02*
X402087200Y-240834800I-250000J0D01*
G01*
X401137200Y-240834800D01*
G75*
G02*
X400887200Y-240584800I0J250000D01*
G01*
X400887200Y-240084800D01*
G75*
G02*
X401137200Y-239834800I250000J0D01*
G01*
G37*
%TD*%
%TO.C,C18*%
G36*
G01*
X413992700Y-251946600D02*
X413042700Y-251946600D01*
G75*
G02*
X412792700Y-251696600I0J250000D01*
G01*
X412792700Y-251196600D01*
G75*
G02*
X413042700Y-250946600I250000J0D01*
G01*
X413992700Y-250946600D01*
G75*
G02*
X414242700Y-251196600I0J-250000D01*
G01*
X414242700Y-251696600D01*
G75*
G02*
X413992700Y-251946600I-250000J0D01*
G01*
G37*
G36*
G01*
X413992700Y-253846600D02*
X413042700Y-253846600D01*
G75*
G02*
X412792700Y-253596600I0J250000D01*
G01*
X412792700Y-253096600D01*
G75*
G02*
X413042700Y-252846600I250000J0D01*
G01*
X413992700Y-252846600D01*
G75*
G02*
X414242700Y-253096600I0J-250000D01*
G01*
X414242700Y-253596600D01*
G75*
G02*
X413992700Y-253846600I-250000J0D01*
G01*
G37*
%TD*%
%TO.C,C7*%
G36*
G01*
X404180700Y-256683800D02*
X404180700Y-257633800D01*
G75*
G02*
X403930700Y-257883800I-250000J0D01*
G01*
X403430700Y-257883800D01*
G75*
G02*
X403180700Y-257633800I0J250000D01*
G01*
X403180700Y-256683800D01*
G75*
G02*
X403430700Y-256433800I250000J0D01*
G01*
X403930700Y-256433800D01*
G75*
G02*
X404180700Y-256683800I0J-250000D01*
G01*
G37*
G36*
G01*
X406080700Y-256683800D02*
X406080700Y-257633800D01*
G75*
G02*
X405830700Y-257883800I-250000J0D01*
G01*
X405330700Y-257883800D01*
G75*
G02*
X405080700Y-257633800I0J250000D01*
G01*
X405080700Y-256683800D01*
G75*
G02*
X405330700Y-256433800I250000J0D01*
G01*
X405830700Y-256433800D01*
G75*
G02*
X406080700Y-256683800I0J-250000D01*
G01*
G37*
%TD*%
%TO.C,C3*%
G36*
G01*
X414761400Y-257633800D02*
X414761400Y-256683800D01*
G75*
G02*
X415011400Y-256433800I250000J0D01*
G01*
X415511400Y-256433800D01*
G75*
G02*
X415761400Y-256683800I0J-250000D01*
G01*
X415761400Y-257633800D01*
G75*
G02*
X415511400Y-257883800I-250000J0D01*
G01*
X415011400Y-257883800D01*
G75*
G02*
X414761400Y-257633800I0J250000D01*
G01*
G37*
G36*
G01*
X412861400Y-257633800D02*
X412861400Y-256683800D01*
G75*
G02*
X413111400Y-256433800I250000J0D01*
G01*
X413611400Y-256433800D01*
G75*
G02*
X413861400Y-256683800I0J-250000D01*
G01*
X413861400Y-257633800D01*
G75*
G02*
X413611400Y-257883800I-250000J0D01*
G01*
X413111400Y-257883800D01*
G75*
G02*
X412861400Y-257633800I0J250000D01*
G01*
G37*
%TD*%
%TO.C,R38*%
G36*
G01*
X442490900Y-239353701D02*
X442490900Y-238453699D01*
G75*
G02*
X442740899Y-238203700I249999J0D01*
G01*
X443265901Y-238203700D01*
G75*
G02*
X443515900Y-238453699I0J-249999D01*
G01*
X443515900Y-239353701D01*
G75*
G02*
X443265901Y-239603700I-249999J0D01*
G01*
X442740899Y-239603700D01*
G75*
G02*
X442490900Y-239353701I0J249999D01*
G01*
G37*
G36*
G01*
X440665900Y-239353701D02*
X440665900Y-238453699D01*
G75*
G02*
X440915899Y-238203700I249999J0D01*
G01*
X441440901Y-238203700D01*
G75*
G02*
X441690900Y-238453699I0J-249999D01*
G01*
X441690900Y-239353701D01*
G75*
G02*
X441440901Y-239603700I-249999J0D01*
G01*
X440915899Y-239603700D01*
G75*
G02*
X440665900Y-239353701I0J249999D01*
G01*
G37*
%TD*%
%TO.C,R4*%
G36*
G01*
X411877149Y-234541500D02*
X412777151Y-234541500D01*
G75*
G02*
X413027150Y-234791499I0J-249999D01*
G01*
X413027150Y-235316501D01*
G75*
G02*
X412777151Y-235566500I-249999J0D01*
G01*
X411877149Y-235566500D01*
G75*
G02*
X411627150Y-235316501I0J249999D01*
G01*
X411627150Y-234791499D01*
G75*
G02*
X411877149Y-234541500I249999J0D01*
G01*
G37*
G36*
G01*
X411877149Y-232716500D02*
X412777151Y-232716500D01*
G75*
G02*
X413027150Y-232966499I0J-249999D01*
G01*
X413027150Y-233491501D01*
G75*
G02*
X412777151Y-233741500I-249999J0D01*
G01*
X411877149Y-233741500D01*
G75*
G02*
X411627150Y-233491501I0J249999D01*
G01*
X411627150Y-232966499D01*
G75*
G02*
X411877149Y-232716500I249999J0D01*
G01*
G37*
%TD*%
D22*
%TO.C,D4*%
X440566100Y-176995100D03*
X437266100Y-176995100D03*
%TD*%
%TO.C,R39*%
G36*
G01*
X442490900Y-236972601D02*
X442490900Y-236072599D01*
G75*
G02*
X442740899Y-235822600I249999J0D01*
G01*
X443265901Y-235822600D01*
G75*
G02*
X443515900Y-236072599I0J-249999D01*
G01*
X443515900Y-236972601D01*
G75*
G02*
X443265901Y-237222600I-249999J0D01*
G01*
X442740899Y-237222600D01*
G75*
G02*
X442490900Y-236972601I0J249999D01*
G01*
G37*
G36*
G01*
X440665900Y-236972601D02*
X440665900Y-236072599D01*
G75*
G02*
X440915899Y-235822600I249999J0D01*
G01*
X441440901Y-235822600D01*
G75*
G02*
X441690900Y-236072599I0J-249999D01*
G01*
X441690900Y-236972601D01*
G75*
G02*
X441440901Y-237222600I-249999J0D01*
G01*
X440915899Y-237222600D01*
G75*
G02*
X440665900Y-236972601I0J249999D01*
G01*
G37*
%TD*%
D15*
%TO.C,KD15*%
X96831400Y-195125000D03*
X96831400Y-198425000D03*
%TD*%
%TO.C,KD33*%
X96831400Y-214173800D03*
X96831400Y-217473800D03*
%TD*%
%TO.C,KD51*%
X96831400Y-233285200D03*
X96831400Y-236585200D03*
%TD*%
%TO.C,KD65*%
X96831400Y-252334000D03*
X96831400Y-255634000D03*
%TD*%
%TO.C,KD80*%
X123023500Y-271382800D03*
X123023500Y-274682800D03*
%TD*%
%TO.C,KD1*%
X120642400Y-166614400D03*
X120642400Y-169914400D03*
%TD*%
%TO.C,KD16*%
X120642400Y-195187600D03*
X120642400Y-198487600D03*
%TD*%
%TO.C,KD34*%
X125404600Y-214236400D03*
X125404600Y-217536400D03*
%TD*%
%TO.C,KD52*%
X127785700Y-233285200D03*
X127785700Y-236585200D03*
%TD*%
%TO.C,KD79*%
X96831400Y-271320200D03*
X96831400Y-274620200D03*
%TD*%
%TO.C,KD2*%
X158740000Y-166614400D03*
X158740000Y-169914400D03*
%TD*%
%TO.C,KD18*%
X158740000Y-195187600D03*
X158740000Y-198487600D03*
%TD*%
%TO.C,KD36*%
X168264400Y-214236400D03*
X168264400Y-217536400D03*
%TD*%
%TO.C,KD54*%
X173026600Y-233285200D03*
X173026600Y-236585200D03*
%TD*%
%TO.C,KD67*%
X163502200Y-252334000D03*
X163502200Y-255634000D03*
%TD*%
%TO.C,KD82*%
X170645500Y-271382800D03*
X170645500Y-274682800D03*
%TD*%
%TO.C,KD17*%
X139691200Y-195187600D03*
X139691200Y-198487600D03*
%TD*%
%TO.C,KD35*%
X149215600Y-214236400D03*
X149215600Y-217536400D03*
%TD*%
%TO.C,KD53*%
X153977800Y-233285200D03*
X153977800Y-236585200D03*
%TD*%
%TO.C,KD66*%
X132547900Y-252334000D03*
X132547900Y-255634000D03*
%TD*%
%TO.C,KD81*%
X146834500Y-271382800D03*
X146834500Y-274682800D03*
%TD*%
%TO.C,KD3*%
X177788800Y-166614400D03*
X177788800Y-169914400D03*
%TD*%
%TO.C,KD19*%
X177788800Y-195187600D03*
X177788800Y-198487600D03*
%TD*%
%TO.C,KD37*%
X187313200Y-214236400D03*
X187313200Y-217536400D03*
%TD*%
%TO.C,KD55*%
X192075400Y-233285200D03*
X192075400Y-236585200D03*
%TD*%
%TO.C,KD68*%
X182551000Y-252334000D03*
X182551000Y-255634000D03*
%TD*%
%TO.C,KD70*%
X220648600Y-252334000D03*
X220648600Y-255634000D03*
%TD*%
%TO.C,KD4*%
X196837600Y-166614400D03*
X196837600Y-169914400D03*
%TD*%
%TO.C,KD20*%
X196837600Y-195187600D03*
X196837600Y-198487600D03*
%TD*%
%TO.C,KD38*%
X206362000Y-214236400D03*
X206362000Y-217536400D03*
%TD*%
%TO.C,KD56*%
X211124200Y-233285200D03*
X211124200Y-236585200D03*
%TD*%
%TO.C,KD69*%
X201599800Y-252334000D03*
X201599800Y-255634000D03*
%TD*%
%TO.C,KD5*%
X215886400Y-166614400D03*
X215886400Y-169914400D03*
%TD*%
%TO.C,KD21*%
X215886400Y-195187600D03*
X215886400Y-198487600D03*
%TD*%
%TO.C,KD39*%
X225410800Y-214236400D03*
X225410800Y-217536400D03*
%TD*%
%TO.C,KD57*%
X230173000Y-233285200D03*
X230173000Y-236585200D03*
%TD*%
%TO.C,KD71*%
X239697400Y-252334000D03*
X239697400Y-255634000D03*
%TD*%
%TO.C,KD83*%
X242078500Y-271382800D03*
X242078500Y-274682800D03*
%TD*%
%TO.C,KD6*%
X244459600Y-166614400D03*
X244459600Y-169914400D03*
%TD*%
%TO.C,KD22*%
X234935200Y-195187600D03*
X234935200Y-198487600D03*
%TD*%
%TO.C,KD40*%
X244459600Y-214236400D03*
X244459600Y-217536400D03*
%TD*%
%TO.C,KD58*%
X249221800Y-233285200D03*
X249221800Y-236585200D03*
%TD*%
%TO.C,KD72*%
X258746200Y-252334000D03*
X258746200Y-255634000D03*
%TD*%
%TO.C,KD7*%
X263508400Y-166614400D03*
X263508400Y-169914400D03*
%TD*%
%TO.C,KD23*%
X253984000Y-195187600D03*
X253984000Y-198487600D03*
%TD*%
%TO.C,KD41*%
X263508400Y-214236400D03*
X263508400Y-217536400D03*
%TD*%
%TO.C,KD59*%
X268270600Y-233285200D03*
X268270600Y-236585200D03*
%TD*%
%TO.C,KD73*%
X277795000Y-252334000D03*
X277795000Y-255634000D03*
%TD*%
%TO.C,KD8*%
X282557200Y-166614400D03*
X282557200Y-169914400D03*
%TD*%
%TO.C,KD24*%
X273032800Y-195187600D03*
X273032800Y-198487600D03*
%TD*%
%TO.C,KD42*%
X282557200Y-214236400D03*
X282557200Y-217536400D03*
%TD*%
%TO.C,KD60*%
X287319400Y-233285200D03*
X287319400Y-236585200D03*
%TD*%
%TO.C,KD74*%
X296843800Y-252334000D03*
X296843800Y-255634000D03*
%TD*%
%TO.C,KD9*%
X301606000Y-166614400D03*
X301606000Y-169914400D03*
%TD*%
%TO.C,KD25*%
X292081600Y-195187600D03*
X292081600Y-198487600D03*
%TD*%
%TO.C,KD43*%
X301606000Y-214236400D03*
X301606000Y-217536400D03*
%TD*%
%TO.C,KD61*%
X306368200Y-233285200D03*
X306368200Y-236585200D03*
%TD*%
%TO.C,KD75*%
X315892600Y-252334000D03*
X315892600Y-255634000D03*
%TD*%
%TO.C,KD84*%
X313511500Y-271382800D03*
X313511500Y-274682800D03*
%TD*%
%TO.C,KD10*%
X330179200Y-166614400D03*
X330179200Y-169914400D03*
%TD*%
%TO.C,KD26*%
X311130400Y-195187600D03*
X311130400Y-198487600D03*
%TD*%
%TO.C,KD44*%
X320654800Y-214236400D03*
X320654800Y-217536400D03*
%TD*%
%TO.C,KD62*%
X325417000Y-233285200D03*
X325417000Y-236585200D03*
%TD*%
%TO.C,KD11*%
X349228000Y-166614400D03*
X349228000Y-169914400D03*
%TD*%
%TO.C,KD27*%
X330179200Y-195187600D03*
X330179200Y-198487600D03*
%TD*%
%TO.C,KD45*%
X339703600Y-214236400D03*
X339703600Y-217536400D03*
%TD*%
%TO.C,KD63*%
X344465800Y-233285200D03*
X344465800Y-236585200D03*
%TD*%
%TO.C,KD85*%
X337322500Y-271382800D03*
X337322500Y-274682800D03*
%TD*%
%TO.C,KD86*%
X361133500Y-271382800D03*
X361133500Y-274682800D03*
%TD*%
%TO.C,KD12*%
X368276800Y-166614400D03*
X368276800Y-169914400D03*
%TD*%
%TO.C,KD28*%
X349228000Y-195187600D03*
X349228000Y-198487600D03*
%TD*%
%TO.C,KD46*%
X358752400Y-214236400D03*
X358752400Y-217536400D03*
%TD*%
%TO.C,KD87*%
X384944500Y-271382800D03*
X384944500Y-274682800D03*
%TD*%
%TO.C,KD13*%
X387325600Y-166614400D03*
X387325600Y-169914400D03*
%TD*%
%TO.C,KD29*%
X377801200Y-195187600D03*
X377801200Y-198487600D03*
%TD*%
%TO.C,KD47*%
X382563400Y-214236400D03*
X382563400Y-217536400D03*
%TD*%
%TO.C,KD64*%
X375420100Y-233285200D03*
X375420100Y-236585200D03*
%TD*%
%TO.C,KD77*%
X370657900Y-252334000D03*
X370657900Y-255634000D03*
%TD*%
%TO.C,KD88*%
X415898800Y-271382800D03*
X415898800Y-274682800D03*
%TD*%
%TO.C,KD14*%
X415898800Y-166614400D03*
X415898800Y-169914400D03*
%TD*%
%TO.C,KD30*%
X415898800Y-195187600D03*
X415898800Y-198487600D03*
%TD*%
%TO.C,KD48*%
X415898800Y-214236400D03*
X415898800Y-217536400D03*
%TD*%
%TO.C,KD31*%
X434947600Y-195187600D03*
X434947600Y-198487600D03*
%TD*%
%TO.C,KD49*%
X434947600Y-214236400D03*
X434947600Y-217536400D03*
%TD*%
%TO.C,KD78*%
X434947600Y-252334000D03*
X434947600Y-255634000D03*
%TD*%
%TO.C,KD89*%
X434947600Y-271382800D03*
X434947600Y-274682800D03*
%TD*%
%TO.C,KD32*%
X453996400Y-195187600D03*
X453996400Y-198487600D03*
%TD*%
%TO.C,KD50*%
X453996400Y-214236400D03*
X453996400Y-217536400D03*
%TD*%
%TO.C,KD90*%
X453996400Y-271382800D03*
X453996400Y-274682800D03*
%TD*%
%TO.C,D3*%
X96037700Y-176264000D03*
X96037700Y-172964000D03*
%TD*%
M02*
