%TF.GenerationSoftware,KiCad,Pcbnew,(5.1.10)-1*%
%TF.CreationDate,2021-12-21T18:50:33-05:00*%
%TF.ProjectId,custom_keyboard (f303),63757374-6f6d-45f6-9b65-79626f617264,rev?*%
%TF.SameCoordinates,Original*%
%TF.FileFunction,Profile,NP*%
%FSLAX46Y46*%
G04 Gerber Fmt 4.6, Leading zero omitted, Abs format (unit mm)*
G04 Created by KiCad (PCBNEW (5.1.10)-1) date 2021-12-21 18:50:33*
%MOMM*%
%LPD*%
G01*
G04 APERTURE LIST*
%TA.AperFunction,Profile*%
%ADD10C,0.100000*%
%TD*%
G04 APERTURE END LIST*
D10*
X256365100Y-87307000D02*
X394468900Y-87307000D01*
X23017300Y-87307000D02*
X242078500Y-87307000D01*
X19842500Y-209536800D02*
X19842500Y-90481800D01*
X119055000Y-212711600D02*
X23017300Y-212711600D01*
X394468900Y-212711600D02*
X231760400Y-212711600D01*
X397643700Y-90481800D02*
X397643700Y-209536800D01*
X19842500Y-90481800D02*
G75*
G02*
X23017300Y-87307000I3174800J0D01*
G01*
X23017300Y-212711600D02*
G75*
G02*
X19842500Y-209536800I0J3174800D01*
G01*
X397643700Y-209536800D02*
G75*
G02*
X394468900Y-212711600I-3174800J0D01*
G01*
X394468900Y-87307000D02*
G75*
G02*
X397643700Y-90481800I0J-3174800D01*
G01*
X219061200Y-212711600D02*
X131754200Y-212711600D01*
X222236000Y-214299000D02*
X219061200Y-212711600D01*
X228585600Y-214299000D02*
X231760400Y-212711600D01*
X222236000Y-214299000D02*
X228585600Y-214299000D01*
X122229800Y-214299000D02*
X119055000Y-212711600D01*
X128579400Y-214299000D02*
X131754200Y-212711600D01*
X122229800Y-214299000D02*
X128579400Y-214299000D01*
X243665900Y-85719600D02*
G75*
G02*
X242078500Y-87307000I-1587400J0D01*
G01*
X256365100Y-87307000D02*
G75*
G02*
X254777700Y-85719600I0J1587400D01*
G01*
X254777700Y-78576300D02*
X254777700Y-85719600D01*
X243665900Y-78576300D02*
X243665900Y-85719600D01*
X254777700Y-78576300D02*
X243665900Y-78576300D01*
M02*
