M48
; DRILL file {KiCad (5.1.10)-1} date 10/11/21 22:19:52
; FORMAT={-:-/ absolute / inch / decimal}
; #@! TF.CreationDate,2021-10-11T22:19:52-04:00
; #@! TF.GenerationSoftware,Kicad,Pcbnew,(5.1.10)-1
; #@! TF.FileFunction,Plated,1,2,PTH
FMAT,2
INCH
T1C0.0157
T2C0.0236
T3C0.0320
T4C0.0354
T5C0.0394
T6C0.0591
T7C0.0827
T8C0.1260
%
G90
G05
T1
X5.3747Y-7.6245
X5.3747Y-7.9995
X5.3747Y-8.1245
X5.3747Y-8.5151
X5.4215Y-8.062
X5.508Y-8.2069
X5.5309Y-7.8276
X5.5309Y-8.562
X5.5309Y-9.0932
X5.5309Y-9.8431
X5.5309Y-10.5931
X5.5309Y-11.343
X5.6715Y-7.0308
X5.6982Y-7.9931
X5.7028Y-8.1245
X5.734Y-8.6557
X5.734Y-10.14
X5.734Y-10.9056
X5.734Y-11.6555
X5.7965Y-8.3745
X5.859Y-7.8589
X5.9371Y-7.9995
X5.9371Y-8.1245
X6.2184Y-7.0308
X6.2184Y-7.687
X6.234Y-8.7963
X6.234Y-9.5463
X6.234Y-10.2962
X6.234Y-11.0462
X6.234Y-11.7961
X6.2496Y-7.6245
X6.2496Y-11.6868
X6.2652Y-10.9368
X6.2809Y-10.1869
X6.3121Y-8.687
X6.3121Y-9.4369
X6.3434Y-7.562
X6.3434Y-8.0776
X6.3434Y-8.2182
X6.4683Y-7.0933
X6.4683Y-7.2183
X6.4683Y-8.3432
X6.5152Y-8.0776
X6.5152Y-8.2182
X6.5621Y-7.6089
X6.5621Y-11.343
X6.609Y-8.7338
X6.6558Y-9.0932
X6.6715Y-10.2962
X6.7027Y-11.7336
X6.7496Y-9.8431
X6.7964Y-9.4838
X6.8902Y-10.2337
X6.9371Y-10.5931
X7.0777Y-10.9837
X7.1714Y-7.6714
X7.1714Y-8.7963
X7.2027Y-7.4527
X7.2183Y-8.3432
X7.3433Y-7.1089
X7.3589Y-8.7338
X7.3589Y-9.5463
X7.3589Y-11.7961
X7.3745Y-7.562
X7.3745Y-7.6089
X7.3745Y-7.7495
X7.4214Y-7.5152
X7.4214Y-7.8433
X7.4527Y-7.1558
X7.4527Y-10.2962
X7.4995Y-11.343
X7.5308Y-7.1402
X7.5933Y-9.0932
X7.6089Y-7.1558
X7.6089Y-11.0306
X7.6401Y-7.5152
X7.6401Y-7.8433
X7.6401Y-11.7336
X7.6558Y-7.437
X7.6714Y-9.5619
X7.687Y-7.562
X7.687Y-7.6089
X7.687Y-7.7495
X7.7183Y-6.9839
X7.7183Y-7.1089
X7.7339Y-9.4838
X7.7339Y-10.2962
X7.7808Y-9.8431
X7.9214Y-8.7963
X7.9214Y-10.2337
X7.9682Y-7.2183
X7.9682Y-8.3432
X8.062Y-7.6089
X8.1089Y-8.7338
X8.1557Y-10.5931
X8.2964Y-10.9837
X8.2964Y-11.7961
X8.3432Y-9.0932
X8.4213Y-9.5619
X8.4838Y-9.4838
X8.4838Y-10.2962
X8.5307Y-9.8431
X8.5776Y-11.7336
X8.5932Y-11.218
X8.6713Y-8.7963
X8.6713Y-10.2337
X8.7182Y-7.2183
X8.7182Y-8.3432
X8.7963Y-7.687
X8.8588Y-7.6089
X8.8588Y-8.7338
X8.8588Y-11.0462
X8.9057Y-10.5931
X9.0463Y-10.9837
X9.0932Y-9.0932
X9.1713Y-9.5619
X9.1713Y-11.7805
X9.2338Y-9.4838
X9.2338Y-10.2962
X9.2494Y-11.6868
X9.2494Y-11.7261
X9.2807Y-9.8431
X9.4213Y-8.7963
X9.4213Y-10.2337
X9.4682Y-7.2183
X9.4682Y-8.3432
X9.5463Y-7.687
X9.6088Y-7.6089
X9.6088Y-8.7338
X9.6088Y-11.0462
X9.6556Y-10.5931
X9.7963Y-10.9837
X9.8431Y-9.0932
X9.9213Y-9.5619
X9.9837Y-9.4838
X9.9837Y-10.2962
X10.0306Y-9.8431
X10.1712Y-8.7963
X10.1712Y-10.2337
X10.2181Y-7.2183
X10.2181Y-8.3432
X10.2962Y-7.687
X10.3431Y-7.5776
X10.3587Y-8.7338
X10.3587Y-11.0462
X10.4056Y-10.5931
X10.5462Y-10.9837
X10.5931Y-9.0932
X10.6712Y-9.5619
X10.7337Y-9.4838
X10.7337Y-10.2962
X10.7806Y-9.8431
X10.8743Y-6.9839
X10.9212Y-8.7963
X10.9212Y-10.2337
X10.9368Y-7.7495
X10.9681Y-8.3432
X10.9837Y-7.2808
X10.9837Y-7.687
X10.9837Y-7.8745
X10.9993Y-7.562
X10.9993Y-7.6014
X11.0149Y-11.5618
X11.0306Y-6.8433
X11.0306Y-7.2027
X11.0462Y-7.4839
X11.0462Y-7.6714
X11.0931Y-6.8589
X11.1087Y-8.7338
X11.1087Y-11.0462
X11.1399Y-7.4839
X11.1399Y-7.6714
X11.1555Y-6.8433
X11.1555Y-7.2027
X11.1555Y-10.5931
X11.1868Y-7.562
X11.1868Y-7.6014
X11.1868Y-11.2805
X11.2024Y-7.2808
X11.2024Y-7.687
X11.2024Y-7.8745
X11.2493Y-7.7495
X11.2962Y-10.9837
X11.3118Y-7.0152
X11.343Y-7.2183
X11.343Y-9.0932
X11.343Y-11.718
X11.343Y-11.7649
X11.3899Y-11.7493
X11.4212Y-9.5619
X11.4837Y-7.6089
X11.4837Y-9.4838
X11.4837Y-10.2962
X11.5305Y-9.8431
X11.6711Y-8.7963
X11.6711Y-10.2337
X11.718Y-8.3432
X11.7961Y-11.7596
X11.8586Y-8.7338
X11.8586Y-10.8431
X11.8586Y-11.0462
X11.9055Y-10.5931
X11.968Y-11.7336
X12.0149Y-11.6868
X12.0461Y-10.9837
X12.093Y-7.2183
X12.093Y-9.0932
X12.1086Y-11.6243
X12.1086Y-11.9055
X12.1555Y-7.687
X12.1711Y-9.5619
X12.2336Y-7.6089
X12.2336Y-9.4838
X12.2336Y-10.2962
X12.2805Y-9.8431
X12.4211Y-8.7963
X12.4211Y-10.2337
X12.468Y-8.3432
X12.593Y-11.4368
X12.6086Y-8.7338
X12.6086Y-10.8431
X12.6086Y-11.0462
X12.6398Y-11.6868
X12.6555Y-10.5931
X12.7225Y-11.4635
X12.7501Y-11.395
X12.7503Y-11.4356
X12.7961Y-10.9837
X12.8429Y-7.2183
X12.8429Y-9.0932
X12.8429Y-10.8899
X12.8742Y-11.3118
X12.8863Y-11.8531
X12.8944Y-11.2291
X12.9054Y-11.1868
X12.9054Y-11.2805
X12.9211Y-7.687
X12.9211Y-9.5619
X12.9367Y-11.843
X12.9679Y-11.8743
X12.9836Y-7.6089
X12.9836Y-9.4838
X12.9836Y-10.2962
X12.9992Y-11.9367
X13.0304Y-9.8431
X13.0304Y-11.968
X13.0518Y-11.2211
X13.0617Y-11.9992
X13.0929Y-11.2153
X13.0929Y-11.968
X13.1242Y-11.9367
X13.1321Y-11.2187
X13.1554Y-11.9055
X13.171Y-8.7963
X13.171Y-10.2337
X13.1867Y-11.8743
X13.2179Y-8.3432
X13.2804Y-11.3118
X13.296Y-11.9055
X13.3117Y-11.3743
X13.3429Y-11.4055
X13.3429Y-11.6868
X13.3585Y-8.7338
X13.3585Y-11.0462
X13.3742Y-11.4368
X13.4054Y-10.5931
X13.4054Y-11.468
X13.4366Y-11.4992
X13.4367Y-10.8743
X13.4367Y-11.7024
X13.4644Y-11.527
X13.4923Y-11.5549
X13.546Y-10.9837
X13.5929Y-7.2183
X13.5929Y-9.0932
X13.6287Y-11.4322
X13.6554Y-7.687
X13.671Y-9.5619
X13.6723Y-11.4355
X13.7179Y-11.4368
X13.7335Y-7.6089
X13.7335Y-9.4838
X13.7335Y-10.2962
X13.7491Y-12.0149
X13.7804Y-9.8431
X13.921Y-8.7963
X13.921Y-10.2337
X13.9531Y-11.5618
X13.9679Y-8.3432
X13.9945Y-11.5618
X14.0772Y-11.6555
X14.1085Y-8.7338
X14.1085Y-11.0462
X14.1397Y-11.6868
X14.1554Y-10.5931
X14.1554Y-11.1868
X14.2022Y-11.7153
X14.2491Y-6.9839
X14.2804Y-10.9837
X14.3428Y-9.0932
X14.3741Y-7.562
X14.3741Y-7.6014
X14.4053Y-6.8433
X14.421Y-7.5152
X14.421Y-7.6401
X14.421Y-9.5619
X14.4267Y-7.187
X14.4678Y-6.8589
X14.4835Y-9.4838
X14.4835Y-10.2962
X14.5147Y-7.187
X14.5147Y-7.5152
X14.5147Y-7.6401
X14.5303Y-6.8433
X14.5303Y-9.8431
X14.5616Y-7.562
X14.5616Y-7.6014
X14.671Y-8.7963
X14.671Y-10.2337
X14.6866Y-7.0152
X14.7178Y-7.2183
X14.7178Y-8.3432
X14.7491Y-11.8274
X14.8584Y-7.6089
X14.8584Y-8.7338
X14.8584Y-11.0462
X14.8584Y-11.7961
X14.9053Y-10.5931
X14.9053Y-11.1868
X15.0459Y-10.9837
X15.0928Y-9.0932
X15.124Y-11.718
X15.1709Y-9.5619
X15.2334Y-9.4838
X15.2334Y-10.2962
X15.2803Y-9.8431
X15.4209Y-8.7963
X15.4209Y-10.2337
X15.4678Y-7.2183
X15.4678Y-8.3432
X15.5459Y-7.687
X15.6084Y-7.6089
X15.6084Y-8.7338
X15.6865Y-11.0462
X15.7959Y-11.7961
X15.8428Y-9.0932
X15.9052Y-9.5619
X15.9365Y-11.343
X15.9834Y-9.4838
X15.9834Y-10.2962
X16.0615Y-11.718
X16.1709Y-8.7963
X16.2177Y-7.2183
X16.2802Y-7.687
X16.3115Y-10.5931
X16.3583Y-7.6089
X16.4521Y-10.9837
X16.499Y-9.8431
X16.5458Y-9.5463
X16.5927Y-8.3432
X16.6396Y-10.2337
X16.7333Y-8.7338
X16.7333Y-11.7961
X16.7802Y-9.0932
X16.8427Y-9.5619
X16.8739Y-11.343
X16.9208Y-9.4838
X16.9677Y-7.2183
X16.9833Y-11.0306
X17.0146Y-11.7336
X17.0302Y-10.9993
X17.0458Y-7.687
X17.0458Y-10.8587
X17.1083Y-7.6089
X17.1239Y-10.9368
X17.1708Y-10.64
X17.1864Y-8.8744
X17.2177Y-11.0306
X17.2645Y-8.8119
X17.2802Y-11.1087
X17.2802Y-11.2493
X17.2958Y-10.5306
X17.3895Y-10.8587
X17.4052Y-10.1349
X17.4052Y-10.1763
X17.4364Y-8.687
X17.4364Y-8.7807
X17.4364Y-9.5306
X17.4676Y-9.6556
X17.4676Y-11.1087
X17.4676Y-11.2805
X17.4833Y-10.8899
X17.4989Y-8.187
X17.4989Y-9.4057
X17.4989Y-9.445
X17.5301Y-8.9369
X17.5301Y-9.4994
X17.5458Y-10.8274
X17.5468Y-10.2347
X17.5614Y-10.9681
X17.5614Y-11.0774
X17.576Y-10.264
X17.6032Y-11.0931
X17.6083Y-8.6088
X17.6083Y-9.0151
X17.6083Y-9.3432
X17.6083Y-9.6088
X17.6446Y-11.0931
X17.6501Y-9.5352
X17.6551Y-10.6243
X17.6708Y-7.6714
X17.6708Y-11.7961
X17.6864Y-10.8743
X17.6864Y-10.9681
X17.6864Y-11.0774
X17.6914Y-9.5352
X17.702Y-9.9213
X17.7282Y-9.5976
X17.7696Y-9.5976
X17.8114Y-10.8743
X17.8426Y-10.9368
X17.9051Y-11.0306
X17.9884Y-9.6608
X17.9989Y-10.5462
X18.0297Y-9.6608
X18.0301Y-10.9993
X18.0434Y-9.8597
X18.0434Y-9.9011
X18.0614Y-8.6245
X18.0614Y-9.0151
X18.0614Y-9.3432
X18.0614Y-9.5931
X18.077Y-9.8275
X18.077Y-10.4368
X18.0908Y-9.5325
X18.0926Y-8.687
X18.0926Y-8.7807
X18.0926Y-8.8744
X18.0926Y-8.9369
X18.0926Y-9.4057
X18.0926Y-9.445
X18.0931Y-9.4908
X18.1239Y-7.2183
X18.1239Y-8.3432
X18.1239Y-9.0932
X18.1239Y-11.343
X18.202Y-8.7338
X18.202Y-9.4525
X18.2332Y-7.6089
X18.2332Y-11.7336
X18.3426Y-10.3119
X18.3738Y-9.7494
X18.3738Y-10.64
X18.6863Y-7.5933
X18.7801Y-11.7961
X18.8426Y-8.3432
X18.8426Y-9.0932
X18.8426Y-10.8118
X18.8426Y-11.343
X18.9051Y-8.8119
X18.9207Y-9.5619
X18.9363Y-7.562
X18.9676Y-7.6401
X18.9832Y-8.7338
X18.9832Y-9.4838
X18.9832Y-10.9837
X18.9832Y-11.7336
X19.0769Y-7.1246
X19.1082Y-7.5308
X19.155Y-6.9825
X19.155Y-7.0933
X19.2175Y-7.5152
X19.2332Y-7.1246
X19.4675Y-7.6558
X19.4675Y-7.9526
X19.4675Y-8.1714
X19.4988Y-11.0774
X19.4988Y-11.218
X19.53Y-8.312
X19.53Y-9.0619
X19.53Y-11.3118
X19.655Y-7.4683
X19.655Y-11.0774
X19.655Y-11.218
X19.6706Y-7.9526
X19.6706Y-8.1714
X19.6863Y-8.8119
X19.6863Y-9.5619
X19.6863Y-11.8274
X19.7331Y-8.7338
X19.7331Y-9.4838
X19.7331Y-11.7336
X19.7488Y-7.437
X20.0144Y-8.1557
X20.0612Y-7.9995
X20.1706Y-10.7493
X20.1706Y-10.8743
X20.2019Y-10.8118
X20.2175Y-8.7338
X20.2175Y-8.9526
X20.2175Y-11.2337
X20.2331Y-8.2964
X20.3112Y-8.062
X20.3581Y-10.8118
X20.3581Y-11.2337
X20.3737Y-7.9995
X20.3737Y-8.1245
T3
X19.8737Y-9.9119
X19.8737Y-10.0119
X19.8737Y-10.1119
X19.8737Y-10.2119
T4
X7.393Y-7.2808
X7.4914Y-7.2808
X7.5701Y-7.2808
X7.6686Y-7.2808
X19.0172Y-7.2495
X19.1157Y-7.2495
X19.1944Y-7.2495
X19.2928Y-7.2495
X20.0612Y-10.674
X20.0612Y-10.7724
X20.0612Y-10.8512
X20.0612Y-10.9496
T5
X5.585Y-7.3652
X5.585Y-7.562
X6.1559Y-7.3652
X6.1559Y-7.4636
X6.1559Y-7.562
X10.5743Y-11.4149
X10.5743Y-11.5149
X10.5743Y-11.6149
X10.6743Y-11.4149
X10.6743Y-11.5149
X10.6743Y-11.6149
X19.5841Y-7.3652
X19.5841Y-7.562
X20.155Y-7.3652
X20.155Y-7.4636
X20.155Y-7.562
T7
X7.2552Y-7.1741
X7.8064Y-7.1741
X18.8795Y-7.1429
X19.4306Y-7.1429
X20.1679Y-10.5362
X20.1679Y-11.0874
T8
X5.4372Y-9.4994
X5.4684Y-7.0621
X5.4684Y-11.9367
X20.28Y-7.0621
X20.28Y-11.9367
X20.3112Y-9.4994
T2
G00X5.3715Y-7.8919
M15
G01X5.3951Y-7.8919
M16
G05
G00X5.3715Y-8.2321
M15
G01X5.3951Y-8.2321
M16
G05
G00X5.5262Y-7.8919
M15
G01X5.5695Y-7.8919
M16
G05
G00X5.5262Y-8.2321
M15
G01X5.5695Y-8.2321
M16
G05
G00X10.923Y-6.8401
M15
G01X10.923Y-6.8637
M16
G05
G00X10.923Y-6.9949
M15
G01X10.923Y-7.0382
M16
G05
G00X11.2631Y-6.8401
M15
G01X11.2631Y-6.8637
M16
G05
G00X11.2631Y-6.9949
M15
G01X11.2631Y-7.0382
M16
G05
G00X14.2978Y-6.8401
M15
G01X14.2978Y-6.8637
M16
G05
G00X14.2978Y-6.9949
M15
G01X14.2978Y-7.0382
M16
G05
G00X14.6379Y-6.8401
M15
G01X14.6379Y-6.8637
M16
G05
G00X14.6379Y-6.9949
M15
G01X14.6379Y-7.0382
M16
G05
G00X20.2222Y-7.8919
M15
G01X20.1789Y-7.8919
M16
G05
G00X20.2222Y-8.2321
M15
G01X20.1789Y-8.2321
M16
G05
G00X20.3769Y-7.8919
M15
G01X20.3533Y-7.8919
M16
G05
G00X20.3769Y-8.2321
M15
G01X20.3533Y-8.2321
M16
G05
T6
G00X5.8862Y-7.2431
M15
G01X5.835Y-7.2431
M16
G05
G00X5.8862Y-7.6841
M15
G01X5.835Y-7.6841
M16
G05
G00X19.8853Y-7.2431
M15
G01X19.8341Y-7.2431
M16
G05
G00X19.8853Y-7.6841
M15
G01X19.8341Y-7.6841
M16
G05
T0
M30
