%TF.GenerationSoftware,KiCad,Pcbnew,(5.1.10)-1*%
%TF.CreationDate,2021-10-11T22:19:29-04:00*%
%TF.ProjectId,custom_keyboard,63757374-6f6d-45f6-9b65-79626f617264,rev?*%
%TF.SameCoordinates,Original*%
%TF.FileFunction,Paste,Bot*%
%TF.FilePolarity,Positive*%
%FSLAX46Y46*%
G04 Gerber Fmt 4.6, Leading zero omitted, Abs format (unit mm)*
G04 Created by KiCad (PCBNEW (5.1.10)-1) date 2021-10-11 22:19:29*
%MOMM*%
%LPD*%
G01*
G04 APERTURE LIST*
%ADD10C,0.150000*%
%ADD11R,1.800000X1.000000*%
%ADD12R,1.060000X0.650000*%
%ADD13R,1.200000X0.900000*%
%ADD14R,0.700000X1.000000*%
%ADD15R,0.700000X0.600000*%
%ADD16O,0.588000X2.045000*%
%ADD17R,0.600000X1.450000*%
%ADD18R,0.300000X1.450000*%
%ADD19R,1.200000X1.400000*%
%ADD20R,0.900000X0.800000*%
%ADD21R,1.800000X1.100000*%
%ADD22R,0.800000X0.900000*%
%ADD23R,1.000000X0.700000*%
%ADD24R,0.600000X0.700000*%
%ADD25R,1.450000X0.600000*%
%ADD26R,1.450000X0.300000*%
%ADD27O,0.270000X1.500000*%
%ADD28O,1.500000X0.270000*%
%ADD29R,1.800000X0.900000*%
%ADD30R,2.550000X2.500000*%
G04 APERTURE END LIST*
%TO.C,MX52*%
D10*
X178280961Y-264591042D02*
X178233342Y-264638661D01*
X178090485Y-264686280D01*
X177995247Y-264686280D01*
X177852390Y-264638661D01*
X177757152Y-264543423D01*
X177709533Y-264448185D01*
X177661914Y-264257709D01*
X177661914Y-264114852D01*
X177709533Y-263924376D01*
X177757152Y-263829138D01*
X177852390Y-263733900D01*
X177995247Y-263686280D01*
X178090485Y-263686280D01*
X178233342Y-263733900D01*
X178280961Y-263781519D01*
X178661914Y-264400566D02*
X179138104Y-264400566D01*
X178566676Y-264686280D02*
X178900009Y-263686280D01*
X179233342Y-264686280D01*
X179566676Y-264686280D02*
X179566676Y-263686280D01*
X179947628Y-263686280D01*
X180042866Y-263733900D01*
X180090485Y-263781519D01*
X180138104Y-263876757D01*
X180138104Y-264019614D01*
X180090485Y-264114852D01*
X180042866Y-264162471D01*
X179947628Y-264210090D01*
X179566676Y-264210090D01*
X180519057Y-264638661D02*
X180661914Y-264686280D01*
X180900009Y-264686280D01*
X180995247Y-264638661D01*
X181042866Y-264591042D01*
X181090485Y-264495804D01*
X181090485Y-264400566D01*
X181042866Y-264305328D01*
X180995247Y-264257709D01*
X180900009Y-264210090D01*
X180709533Y-264162471D01*
X180614295Y-264114852D01*
X180566676Y-264067233D01*
X180519057Y-263971995D01*
X180519057Y-263876757D01*
X180566676Y-263781519D01*
X180614295Y-263733900D01*
X180709533Y-263686280D01*
X180947628Y-263686280D01*
X181090485Y-263733900D01*
%TD*%
D11*
%TO.C,Y2*%
X314305200Y-298550100D03*
X314305200Y-296050100D03*
%TD*%
D12*
%TO.C,U12*%
X162221100Y-196993900D03*
X162221100Y-195093900D03*
X160021100Y-195093900D03*
X160021100Y-196043900D03*
X160021100Y-196993900D03*
%TD*%
%TO.C,R30*%
G36*
G01*
X258868050Y-295681400D02*
X259418050Y-295681400D01*
G75*
G02*
X259618050Y-295881400I0J-200000D01*
G01*
X259618050Y-296281400D01*
G75*
G02*
X259418050Y-296481400I-200000J0D01*
G01*
X258868050Y-296481400D01*
G75*
G02*
X258668050Y-296281400I0J200000D01*
G01*
X258668050Y-295881400D01*
G75*
G02*
X258868050Y-295681400I200000J0D01*
G01*
G37*
G36*
G01*
X258868050Y-294031400D02*
X259418050Y-294031400D01*
G75*
G02*
X259618050Y-294231400I0J-200000D01*
G01*
X259618050Y-294631400D01*
G75*
G02*
X259418050Y-294831400I-200000J0D01*
G01*
X258868050Y-294831400D01*
G75*
G02*
X258668050Y-294631400I0J200000D01*
G01*
X258668050Y-294231400D01*
G75*
G02*
X258868050Y-294031400I200000J0D01*
G01*
G37*
%TD*%
%TO.C,R23*%
G36*
G01*
X471732800Y-252765300D02*
X471182800Y-252765300D01*
G75*
G02*
X470982800Y-252565300I0J200000D01*
G01*
X470982800Y-252165300D01*
G75*
G02*
X471182800Y-251965300I200000J0D01*
G01*
X471732800Y-251965300D01*
G75*
G02*
X471932800Y-252165300I0J-200000D01*
G01*
X471932800Y-252565300D01*
G75*
G02*
X471732800Y-252765300I-200000J0D01*
G01*
G37*
G36*
G01*
X471732800Y-254415300D02*
X471182800Y-254415300D01*
G75*
G02*
X470982800Y-254215300I0J200000D01*
G01*
X470982800Y-253815300D01*
G75*
G02*
X471182800Y-253615300I200000J0D01*
G01*
X471732800Y-253615300D01*
G75*
G02*
X471932800Y-253815300I0J-200000D01*
G01*
X471932800Y-254215300D01*
G75*
G02*
X471732800Y-254415300I-200000J0D01*
G01*
G37*
%TD*%
%TO.C,R21*%
G36*
G01*
X461658400Y-253615300D02*
X462208400Y-253615300D01*
G75*
G02*
X462408400Y-253815300I0J-200000D01*
G01*
X462408400Y-254215300D01*
G75*
G02*
X462208400Y-254415300I-200000J0D01*
G01*
X461658400Y-254415300D01*
G75*
G02*
X461458400Y-254215300I0J200000D01*
G01*
X461458400Y-253815300D01*
G75*
G02*
X461658400Y-253615300I200000J0D01*
G01*
G37*
G36*
G01*
X461658400Y-251965300D02*
X462208400Y-251965300D01*
G75*
G02*
X462408400Y-252165300I0J-200000D01*
G01*
X462408400Y-252565300D01*
G75*
G02*
X462208400Y-252765300I-200000J0D01*
G01*
X461658400Y-252765300D01*
G75*
G02*
X461458400Y-252565300I0J200000D01*
G01*
X461458400Y-252165300D01*
G75*
G02*
X461658400Y-251965300I200000J0D01*
G01*
G37*
%TD*%
%TO.C,UD7*%
G36*
G01*
X496512500Y-263170950D02*
X496512500Y-262258450D01*
G75*
G02*
X496756250Y-262014700I243750J0D01*
G01*
X497243750Y-262014700D01*
G75*
G02*
X497487500Y-262258450I0J-243750D01*
G01*
X497487500Y-263170950D01*
G75*
G02*
X497243750Y-263414700I-243750J0D01*
G01*
X496756250Y-263414700D01*
G75*
G02*
X496512500Y-263170950I0J243750D01*
G01*
G37*
G36*
G01*
X494637500Y-263170950D02*
X494637500Y-262258450D01*
G75*
G02*
X494881250Y-262014700I243750J0D01*
G01*
X495368750Y-262014700D01*
G75*
G02*
X495612500Y-262258450I0J-243750D01*
G01*
X495612500Y-263170950D01*
G75*
G02*
X495368750Y-263414700I-243750J0D01*
G01*
X494881250Y-263414700D01*
G75*
G02*
X494637500Y-263170950I0J243750D01*
G01*
G37*
%TD*%
%TO.C,UD6*%
G36*
G01*
X492544000Y-263170950D02*
X492544000Y-262258450D01*
G75*
G02*
X492787750Y-262014700I243750J0D01*
G01*
X493275250Y-262014700D01*
G75*
G02*
X493519000Y-262258450I0J-243750D01*
G01*
X493519000Y-263170950D01*
G75*
G02*
X493275250Y-263414700I-243750J0D01*
G01*
X492787750Y-263414700D01*
G75*
G02*
X492544000Y-263170950I0J243750D01*
G01*
G37*
G36*
G01*
X490669000Y-263170950D02*
X490669000Y-262258450D01*
G75*
G02*
X490912750Y-262014700I243750J0D01*
G01*
X491400250Y-262014700D01*
G75*
G02*
X491644000Y-262258450I0J-243750D01*
G01*
X491644000Y-263170950D01*
G75*
G02*
X491400250Y-263414700I-243750J0D01*
G01*
X490912750Y-263414700D01*
G75*
G02*
X490669000Y-263170950I0J243750D01*
G01*
G37*
%TD*%
%TO.C,UD5*%
G36*
G01*
X488575500Y-263170950D02*
X488575500Y-262258450D01*
G75*
G02*
X488819250Y-262014700I243750J0D01*
G01*
X489306750Y-262014700D01*
G75*
G02*
X489550500Y-262258450I0J-243750D01*
G01*
X489550500Y-263170950D01*
G75*
G02*
X489306750Y-263414700I-243750J0D01*
G01*
X488819250Y-263414700D01*
G75*
G02*
X488575500Y-263170950I0J243750D01*
G01*
G37*
G36*
G01*
X486700500Y-263170950D02*
X486700500Y-262258450D01*
G75*
G02*
X486944250Y-262014700I243750J0D01*
G01*
X487431750Y-262014700D01*
G75*
G02*
X487675500Y-262258450I0J-243750D01*
G01*
X487675500Y-263170950D01*
G75*
G02*
X487431750Y-263414700I-243750J0D01*
G01*
X486944250Y-263414700D01*
G75*
G02*
X486700500Y-263170950I0J243750D01*
G01*
G37*
%TD*%
%TO.C,UD4*%
G36*
G01*
X483707000Y-259877350D02*
X483707000Y-260789850D01*
G75*
G02*
X483463250Y-261033600I-243750J0D01*
G01*
X482975750Y-261033600D01*
G75*
G02*
X482732000Y-260789850I0J243750D01*
G01*
X482732000Y-259877350D01*
G75*
G02*
X482975750Y-259633600I243750J0D01*
G01*
X483463250Y-259633600D01*
G75*
G02*
X483707000Y-259877350I0J-243750D01*
G01*
G37*
G36*
G01*
X485582000Y-259877350D02*
X485582000Y-260789850D01*
G75*
G02*
X485338250Y-261033600I-243750J0D01*
G01*
X484850750Y-261033600D01*
G75*
G02*
X484607000Y-260789850I0J243750D01*
G01*
X484607000Y-259877350D01*
G75*
G02*
X484850750Y-259633600I243750J0D01*
G01*
X485338250Y-259633600D01*
G75*
G02*
X485582000Y-259877350I0J-243750D01*
G01*
G37*
%TD*%
%TO.C,UD3*%
G36*
G01*
X479738500Y-259877350D02*
X479738500Y-260789850D01*
G75*
G02*
X479494750Y-261033600I-243750J0D01*
G01*
X479007250Y-261033600D01*
G75*
G02*
X478763500Y-260789850I0J243750D01*
G01*
X478763500Y-259877350D01*
G75*
G02*
X479007250Y-259633600I243750J0D01*
G01*
X479494750Y-259633600D01*
G75*
G02*
X479738500Y-259877350I0J-243750D01*
G01*
G37*
G36*
G01*
X481613500Y-259877350D02*
X481613500Y-260789850D01*
G75*
G02*
X481369750Y-261033600I-243750J0D01*
G01*
X480882250Y-261033600D01*
G75*
G02*
X480638500Y-260789850I0J243750D01*
G01*
X480638500Y-259877350D01*
G75*
G02*
X480882250Y-259633600I243750J0D01*
G01*
X481369750Y-259633600D01*
G75*
G02*
X481613500Y-259877350I0J-243750D01*
G01*
G37*
%TD*%
%TO.C,UD2*%
G36*
G01*
X475770000Y-259877350D02*
X475770000Y-260789850D01*
G75*
G02*
X475526250Y-261033600I-243750J0D01*
G01*
X475038750Y-261033600D01*
G75*
G02*
X474795000Y-260789850I0J243750D01*
G01*
X474795000Y-259877350D01*
G75*
G02*
X475038750Y-259633600I243750J0D01*
G01*
X475526250Y-259633600D01*
G75*
G02*
X475770000Y-259877350I0J-243750D01*
G01*
G37*
G36*
G01*
X477645000Y-259877350D02*
X477645000Y-260789850D01*
G75*
G02*
X477401250Y-261033600I-243750J0D01*
G01*
X476913750Y-261033600D01*
G75*
G02*
X476670000Y-260789850I0J243750D01*
G01*
X476670000Y-259877350D01*
G75*
G02*
X476913750Y-259633600I243750J0D01*
G01*
X477401250Y-259633600D01*
G75*
G02*
X477645000Y-259877350I0J-243750D01*
G01*
G37*
%TD*%
%TO.C,UD1*%
G36*
G01*
X471801500Y-259877350D02*
X471801500Y-260789850D01*
G75*
G02*
X471557750Y-261033600I-243750J0D01*
G01*
X471070250Y-261033600D01*
G75*
G02*
X470826500Y-260789850I0J243750D01*
G01*
X470826500Y-259877350D01*
G75*
G02*
X471070250Y-259633600I243750J0D01*
G01*
X471557750Y-259633600D01*
G75*
G02*
X471801500Y-259877350I0J-243750D01*
G01*
G37*
G36*
G01*
X473676500Y-259877350D02*
X473676500Y-260789850D01*
G75*
G02*
X473432750Y-261033600I-243750J0D01*
G01*
X472945250Y-261033600D01*
G75*
G02*
X472701500Y-260789850I0J243750D01*
G01*
X472701500Y-259877350D01*
G75*
G02*
X472945250Y-259633600I243750J0D01*
G01*
X473432750Y-259633600D01*
G75*
G02*
X473676500Y-259877350I0J-243750D01*
G01*
G37*
%TD*%
%TO.C,D10*%
G36*
G01*
X459889750Y-261577300D02*
X460802250Y-261577300D01*
G75*
G02*
X461046000Y-261821050I0J-243750D01*
G01*
X461046000Y-262308550D01*
G75*
G02*
X460802250Y-262552300I-243750J0D01*
G01*
X459889750Y-262552300D01*
G75*
G02*
X459646000Y-262308550I0J243750D01*
G01*
X459646000Y-261821050D01*
G75*
G02*
X459889750Y-261577300I243750J0D01*
G01*
G37*
G36*
G01*
X459889750Y-259702300D02*
X460802250Y-259702300D01*
G75*
G02*
X461046000Y-259946050I0J-243750D01*
G01*
X461046000Y-260433550D01*
G75*
G02*
X460802250Y-260677300I-243750J0D01*
G01*
X459889750Y-260677300D01*
G75*
G02*
X459646000Y-260433550I0J243750D01*
G01*
X459646000Y-259946050D01*
G75*
G02*
X459889750Y-259702300I243750J0D01*
G01*
G37*
%TD*%
%TO.C,C34*%
G36*
G01*
X506486900Y-272095401D02*
X506486900Y-270795399D01*
G75*
G02*
X506736899Y-270545400I249999J0D01*
G01*
X507386901Y-270545400D01*
G75*
G02*
X507636900Y-270795399I0J-249999D01*
G01*
X507636900Y-272095401D01*
G75*
G02*
X507386901Y-272345400I-249999J0D01*
G01*
X506736899Y-272345400D01*
G75*
G02*
X506486900Y-272095401I0J249999D01*
G01*
G37*
G36*
G01*
X503536900Y-272095401D02*
X503536900Y-270795399D01*
G75*
G02*
X503786899Y-270545400I249999J0D01*
G01*
X504436901Y-270545400D01*
G75*
G02*
X504686900Y-270795399I0J-249999D01*
G01*
X504686900Y-272095401D01*
G75*
G02*
X504436901Y-272345400I-249999J0D01*
G01*
X503786899Y-272345400D01*
G75*
G02*
X503536900Y-272095401I0J249999D01*
G01*
G37*
%TD*%
%TO.C,C25*%
G36*
G01*
X187456899Y-189403750D02*
X188756901Y-189403750D01*
G75*
G02*
X189006900Y-189653749I0J-249999D01*
G01*
X189006900Y-190303751D01*
G75*
G02*
X188756901Y-190553750I-249999J0D01*
G01*
X187456899Y-190553750D01*
G75*
G02*
X187206900Y-190303751I0J249999D01*
G01*
X187206900Y-189653749D01*
G75*
G02*
X187456899Y-189403750I249999J0D01*
G01*
G37*
G36*
G01*
X187456899Y-186453750D02*
X188756901Y-186453750D01*
G75*
G02*
X189006900Y-186703749I0J-249999D01*
G01*
X189006900Y-187353751D01*
G75*
G02*
X188756901Y-187603750I-249999J0D01*
G01*
X187456899Y-187603750D01*
G75*
G02*
X187206900Y-187353751I0J249999D01*
G01*
X187206900Y-186703749D01*
G75*
G02*
X187456899Y-186453750I249999J0D01*
G01*
G37*
%TD*%
%TO.C,C23*%
G36*
G01*
X147734500Y-210980501D02*
X147734500Y-209680499D01*
G75*
G02*
X147984499Y-209430500I249999J0D01*
G01*
X148634501Y-209430500D01*
G75*
G02*
X148884500Y-209680499I0J-249999D01*
G01*
X148884500Y-210980501D01*
G75*
G02*
X148634501Y-211230500I-249999J0D01*
G01*
X147984499Y-211230500D01*
G75*
G02*
X147734500Y-210980501I0J249999D01*
G01*
G37*
G36*
G01*
X144784500Y-210980501D02*
X144784500Y-209680499D01*
G75*
G02*
X145034499Y-209430500I249999J0D01*
G01*
X145684501Y-209430500D01*
G75*
G02*
X145934500Y-209680499I0J-249999D01*
G01*
X145934500Y-210980501D01*
G75*
G02*
X145684501Y-211230500I-249999J0D01*
G01*
X145034499Y-211230500D01*
G75*
G02*
X144784500Y-210980501I0J249999D01*
G01*
G37*
%TD*%
%TO.C,C13*%
G36*
G01*
X482713299Y-189800600D02*
X484013301Y-189800600D01*
G75*
G02*
X484263300Y-190050599I0J-249999D01*
G01*
X484263300Y-190700601D01*
G75*
G02*
X484013301Y-190950600I-249999J0D01*
G01*
X482713299Y-190950600D01*
G75*
G02*
X482463300Y-190700601I0J249999D01*
G01*
X482463300Y-190050599D01*
G75*
G02*
X482713299Y-189800600I249999J0D01*
G01*
G37*
G36*
G01*
X482713299Y-186850600D02*
X484013301Y-186850600D01*
G75*
G02*
X484263300Y-187100599I0J-249999D01*
G01*
X484263300Y-187750601D01*
G75*
G02*
X484013301Y-188000600I-249999J0D01*
G01*
X482713299Y-188000600D01*
G75*
G02*
X482463300Y-187750601I0J249999D01*
G01*
X482463300Y-187100599D01*
G75*
G02*
X482713299Y-186850600I249999J0D01*
G01*
G37*
%TD*%
%TO.C,C10*%
G36*
G01*
X503893200Y-198568699D02*
X503893200Y-199868701D01*
G75*
G02*
X503643201Y-200118700I-249999J0D01*
G01*
X502993199Y-200118700D01*
G75*
G02*
X502743200Y-199868701I0J249999D01*
G01*
X502743200Y-198568699D01*
G75*
G02*
X502993199Y-198318700I249999J0D01*
G01*
X503643201Y-198318700D01*
G75*
G02*
X503893200Y-198568699I0J-249999D01*
G01*
G37*
G36*
G01*
X506843200Y-198568699D02*
X506843200Y-199868701D01*
G75*
G02*
X506593201Y-200118700I-249999J0D01*
G01*
X505943199Y-200118700D01*
G75*
G02*
X505693200Y-199868701I0J249999D01*
G01*
X505693200Y-198568699D01*
G75*
G02*
X505943199Y-198318700I249999J0D01*
G01*
X506593201Y-198318700D01*
G75*
G02*
X506843200Y-198568699I0J-249999D01*
G01*
G37*
%TD*%
%TO.C,C2*%
G36*
G01*
X363658299Y-189006900D02*
X364958301Y-189006900D01*
G75*
G02*
X365208300Y-189256899I0J-249999D01*
G01*
X365208300Y-189906901D01*
G75*
G02*
X364958301Y-190156900I-249999J0D01*
G01*
X363658299Y-190156900D01*
G75*
G02*
X363408300Y-189906901I0J249999D01*
G01*
X363408300Y-189256899D01*
G75*
G02*
X363658299Y-189006900I249999J0D01*
G01*
G37*
G36*
G01*
X363658299Y-186056900D02*
X364958301Y-186056900D01*
G75*
G02*
X365208300Y-186306899I0J-249999D01*
G01*
X365208300Y-186956901D01*
G75*
G02*
X364958301Y-187206900I-249999J0D01*
G01*
X363658299Y-187206900D01*
G75*
G02*
X363408300Y-186956901I0J249999D01*
G01*
X363408300Y-186306899D01*
G75*
G02*
X363658299Y-186056900I249999J0D01*
G01*
G37*
%TD*%
%TO.C,C7*%
G36*
G01*
X509211700Y-194137800D02*
X509211700Y-193187800D01*
G75*
G02*
X509461700Y-192937800I250000J0D01*
G01*
X509961700Y-192937800D01*
G75*
G02*
X510211700Y-193187800I0J-250000D01*
G01*
X510211700Y-194137800D01*
G75*
G02*
X509961700Y-194387800I-250000J0D01*
G01*
X509461700Y-194387800D01*
G75*
G02*
X509211700Y-194137800I0J250000D01*
G01*
G37*
G36*
G01*
X507311700Y-194137800D02*
X507311700Y-193187800D01*
G75*
G02*
X507561700Y-192937800I250000J0D01*
G01*
X508061700Y-192937800D01*
G75*
G02*
X508311700Y-193187800I0J-250000D01*
G01*
X508311700Y-194137800D01*
G75*
G02*
X508061700Y-194387800I-250000J0D01*
G01*
X507561700Y-194387800D01*
G75*
G02*
X507311700Y-194137800I0J250000D01*
G01*
G37*
%TD*%
%TO.C,C8*%
G36*
G01*
X508311700Y-186044500D02*
X508311700Y-186994500D01*
G75*
G02*
X508061700Y-187244500I-250000J0D01*
G01*
X507561700Y-187244500D01*
G75*
G02*
X507311700Y-186994500I0J250000D01*
G01*
X507311700Y-186044500D01*
G75*
G02*
X507561700Y-185794500I250000J0D01*
G01*
X508061700Y-185794500D01*
G75*
G02*
X508311700Y-186044500I0J-250000D01*
G01*
G37*
G36*
G01*
X510211700Y-186044500D02*
X510211700Y-186994500D01*
G75*
G02*
X509961700Y-187244500I-250000J0D01*
G01*
X509461700Y-187244500D01*
G75*
G02*
X509211700Y-186994500I0J250000D01*
G01*
X509211700Y-186044500D01*
G75*
G02*
X509461700Y-185794500I250000J0D01*
G01*
X509961700Y-185794500D01*
G75*
G02*
X510211700Y-186044500I0J-250000D01*
G01*
G37*
%TD*%
%TO.C,C1*%
G36*
G01*
X311183550Y-292159750D02*
X311183550Y-291209750D01*
G75*
G02*
X311433550Y-290959750I250000J0D01*
G01*
X311933550Y-290959750D01*
G75*
G02*
X312183550Y-291209750I0J-250000D01*
G01*
X312183550Y-292159750D01*
G75*
G02*
X311933550Y-292409750I-250000J0D01*
G01*
X311433550Y-292409750D01*
G75*
G02*
X311183550Y-292159750I0J250000D01*
G01*
G37*
G36*
G01*
X309283550Y-292159750D02*
X309283550Y-291209750D01*
G75*
G02*
X309533550Y-290959750I250000J0D01*
G01*
X310033550Y-290959750D01*
G75*
G02*
X310283550Y-291209750I0J-250000D01*
G01*
X310283550Y-292159750D01*
G75*
G02*
X310033550Y-292409750I-250000J0D01*
G01*
X309533550Y-292409750D01*
G75*
G02*
X309283550Y-292159750I0J250000D01*
G01*
G37*
%TD*%
%TO.C,C3*%
G36*
G01*
X314755200Y-287794400D02*
X314755200Y-286844400D01*
G75*
G02*
X315005200Y-286594400I250000J0D01*
G01*
X315505200Y-286594400D01*
G75*
G02*
X315755200Y-286844400I0J-250000D01*
G01*
X315755200Y-287794400D01*
G75*
G02*
X315505200Y-288044400I-250000J0D01*
G01*
X315005200Y-288044400D01*
G75*
G02*
X314755200Y-287794400I0J250000D01*
G01*
G37*
G36*
G01*
X312855200Y-287794400D02*
X312855200Y-286844400D01*
G75*
G02*
X313105200Y-286594400I250000J0D01*
G01*
X313605200Y-286594400D01*
G75*
G02*
X313855200Y-286844400I0J-250000D01*
G01*
X313855200Y-287794400D01*
G75*
G02*
X313605200Y-288044400I-250000J0D01*
G01*
X313105200Y-288044400D01*
G75*
G02*
X312855200Y-287794400I0J250000D01*
G01*
G37*
%TD*%
%TO.C,C37*%
G36*
G01*
X464789500Y-270201700D02*
X463839500Y-270201700D01*
G75*
G02*
X463589500Y-269951700I0J250000D01*
G01*
X463589500Y-269451700D01*
G75*
G02*
X463839500Y-269201700I250000J0D01*
G01*
X464789500Y-269201700D01*
G75*
G02*
X465039500Y-269451700I0J-250000D01*
G01*
X465039500Y-269951700D01*
G75*
G02*
X464789500Y-270201700I-250000J0D01*
G01*
G37*
G36*
G01*
X464789500Y-272101700D02*
X463839500Y-272101700D01*
G75*
G02*
X463589500Y-271851700I0J250000D01*
G01*
X463589500Y-271351700D01*
G75*
G02*
X463839500Y-271101700I250000J0D01*
G01*
X464789500Y-271101700D01*
G75*
G02*
X465039500Y-271351700I0J-250000D01*
G01*
X465039500Y-271851700D01*
G75*
G02*
X464789500Y-272101700I-250000J0D01*
G01*
G37*
%TD*%
%TO.C,C11*%
G36*
G01*
X468601700Y-249671800D02*
X469551700Y-249671800D01*
G75*
G02*
X469801700Y-249921800I0J-250000D01*
G01*
X469801700Y-250421800D01*
G75*
G02*
X469551700Y-250671800I-250000J0D01*
G01*
X468601700Y-250671800D01*
G75*
G02*
X468351700Y-250421800I0J250000D01*
G01*
X468351700Y-249921800D01*
G75*
G02*
X468601700Y-249671800I250000J0D01*
G01*
G37*
G36*
G01*
X468601700Y-247771800D02*
X469551700Y-247771800D01*
G75*
G02*
X469801700Y-248021800I0J-250000D01*
G01*
X469801700Y-248521800D01*
G75*
G02*
X469551700Y-248771800I-250000J0D01*
G01*
X468601700Y-248771800D01*
G75*
G02*
X468351700Y-248521800I0J250000D01*
G01*
X468351700Y-248021800D01*
G75*
G02*
X468601700Y-247771800I250000J0D01*
G01*
G37*
%TD*%
%TO.C,C32*%
G36*
G01*
X409892900Y-255493250D02*
X409892900Y-256443250D01*
G75*
G02*
X409642900Y-256693250I-250000J0D01*
G01*
X409142900Y-256693250D01*
G75*
G02*
X408892900Y-256443250I0J250000D01*
G01*
X408892900Y-255493250D01*
G75*
G02*
X409142900Y-255243250I250000J0D01*
G01*
X409642900Y-255243250D01*
G75*
G02*
X409892900Y-255493250I0J-250000D01*
G01*
G37*
G36*
G01*
X411792900Y-255493250D02*
X411792900Y-256443250D01*
G75*
G02*
X411542900Y-256693250I-250000J0D01*
G01*
X411042900Y-256693250D01*
G75*
G02*
X410792900Y-256443250I0J250000D01*
G01*
X410792900Y-255493250D01*
G75*
G02*
X411042900Y-255243250I250000J0D01*
G01*
X411542900Y-255243250D01*
G75*
G02*
X411792900Y-255493250I0J-250000D01*
G01*
G37*
%TD*%
%TO.C,C33*%
G36*
G01*
X410792900Y-249696800D02*
X410792900Y-248746800D01*
G75*
G02*
X411042900Y-248496800I250000J0D01*
G01*
X411542900Y-248496800D01*
G75*
G02*
X411792900Y-248746800I0J-250000D01*
G01*
X411792900Y-249696800D01*
G75*
G02*
X411542900Y-249946800I-250000J0D01*
G01*
X411042900Y-249946800D01*
G75*
G02*
X410792900Y-249696800I0J250000D01*
G01*
G37*
G36*
G01*
X408892900Y-249696800D02*
X408892900Y-248746800D01*
G75*
G02*
X409142900Y-248496800I250000J0D01*
G01*
X409642900Y-248496800D01*
G75*
G02*
X409892900Y-248746800I0J-250000D01*
G01*
X409892900Y-249696800D01*
G75*
G02*
X409642900Y-249946800I-250000J0D01*
G01*
X409142900Y-249946800D01*
G75*
G02*
X408892900Y-249696800I0J250000D01*
G01*
G37*
%TD*%
D13*
%TO.C,KD15*%
X156358900Y-215761200D03*
X156358900Y-219061200D03*
%TD*%
%TO.C,KD33*%
X156358900Y-234810000D03*
X156358900Y-238110000D03*
%TD*%
%TO.C,KD51*%
X156358900Y-253921400D03*
X156358900Y-257221400D03*
%TD*%
%TO.C,KD65*%
X156358900Y-272970200D03*
X156358900Y-276270200D03*
%TD*%
%TO.C,KD80*%
X182551000Y-292019000D03*
X182551000Y-295319000D03*
%TD*%
%TO.C,KD1*%
X180169900Y-187250600D03*
X180169900Y-190550600D03*
%TD*%
%TO.C,KD16*%
X180169900Y-215823800D03*
X180169900Y-219123800D03*
%TD*%
%TO.C,KD34*%
X184932100Y-234872600D03*
X184932100Y-238172600D03*
%TD*%
%TO.C,KD52*%
X187313200Y-253921400D03*
X187313200Y-257221400D03*
%TD*%
%TO.C,KD79*%
X156358900Y-291956400D03*
X156358900Y-295256400D03*
%TD*%
%TO.C,KD2*%
X218267500Y-187250600D03*
X218267500Y-190550600D03*
%TD*%
%TO.C,KD18*%
X218267500Y-215823800D03*
X218267500Y-219123800D03*
%TD*%
%TO.C,KD36*%
X227791900Y-234872600D03*
X227791900Y-238172600D03*
%TD*%
%TO.C,KD54*%
X232554100Y-253921400D03*
X232554100Y-257221400D03*
%TD*%
%TO.C,KD67*%
X223029700Y-272970200D03*
X223029700Y-276270200D03*
%TD*%
%TO.C,KD82*%
X230173000Y-292019000D03*
X230173000Y-295319000D03*
%TD*%
%TO.C,KD17*%
X199218700Y-215823800D03*
X199218700Y-219123800D03*
%TD*%
%TO.C,KD35*%
X208743100Y-234872600D03*
X208743100Y-238172600D03*
%TD*%
%TO.C,KD53*%
X213505300Y-253921400D03*
X213505300Y-257221400D03*
%TD*%
%TO.C,KD66*%
X192075400Y-272970200D03*
X192075400Y-276270200D03*
%TD*%
%TO.C,KD81*%
X206362000Y-292019000D03*
X206362000Y-295319000D03*
%TD*%
%TO.C,KD3*%
X237316300Y-187250600D03*
X237316300Y-190550600D03*
%TD*%
%TO.C,KD19*%
X237316300Y-215823800D03*
X237316300Y-219123800D03*
%TD*%
%TO.C,KD37*%
X246840700Y-234872600D03*
X246840700Y-238172600D03*
%TD*%
%TO.C,KD55*%
X251602900Y-253921400D03*
X251602900Y-257221400D03*
%TD*%
%TO.C,KD68*%
X242078500Y-272970200D03*
X242078500Y-276270200D03*
%TD*%
%TO.C,KD70*%
X280176100Y-272970200D03*
X280176100Y-276270200D03*
%TD*%
%TO.C,KD4*%
X256365100Y-187250600D03*
X256365100Y-190550600D03*
%TD*%
%TO.C,KD20*%
X256365100Y-215823800D03*
X256365100Y-219123800D03*
%TD*%
%TO.C,KD38*%
X265889500Y-234872600D03*
X265889500Y-238172600D03*
%TD*%
%TO.C,KD56*%
X270651700Y-253921400D03*
X270651700Y-257221400D03*
%TD*%
%TO.C,KD69*%
X261127300Y-272970200D03*
X261127300Y-276270200D03*
%TD*%
%TO.C,KD5*%
X275413900Y-187250600D03*
X275413900Y-190550600D03*
%TD*%
%TO.C,KD21*%
X275413900Y-215823800D03*
X275413900Y-219123800D03*
%TD*%
%TO.C,KD39*%
X284938300Y-234872600D03*
X284938300Y-238172600D03*
%TD*%
%TO.C,KD57*%
X289700500Y-253921400D03*
X289700500Y-257221400D03*
%TD*%
%TO.C,KD71*%
X299224900Y-272970200D03*
X299224900Y-276270200D03*
%TD*%
%TO.C,KD83*%
X301606000Y-292019000D03*
X301606000Y-295319000D03*
%TD*%
%TO.C,KD6*%
X303987100Y-187250600D03*
X303987100Y-190550600D03*
%TD*%
%TO.C,KD22*%
X294462700Y-215823800D03*
X294462700Y-219123800D03*
%TD*%
%TO.C,KD40*%
X303987100Y-234872600D03*
X303987100Y-238172600D03*
%TD*%
%TO.C,KD58*%
X308749300Y-253921400D03*
X308749300Y-257221400D03*
%TD*%
%TO.C,KD72*%
X318273700Y-272970200D03*
X318273700Y-276270200D03*
%TD*%
%TO.C,KD7*%
X323035900Y-187250600D03*
X323035900Y-190550600D03*
%TD*%
%TO.C,KD23*%
X313511500Y-215823800D03*
X313511500Y-219123800D03*
%TD*%
%TO.C,KD41*%
X323035900Y-234872600D03*
X323035900Y-238172600D03*
%TD*%
%TO.C,KD59*%
X327798100Y-253921400D03*
X327798100Y-257221400D03*
%TD*%
%TO.C,KD73*%
X337322500Y-272970200D03*
X337322500Y-276270200D03*
%TD*%
%TO.C,KD8*%
X342084700Y-187250600D03*
X342084700Y-190550600D03*
%TD*%
%TO.C,KD24*%
X332560300Y-215823800D03*
X332560300Y-219123800D03*
%TD*%
%TO.C,KD42*%
X342084700Y-234872600D03*
X342084700Y-238172600D03*
%TD*%
%TO.C,KD60*%
X346846900Y-253921400D03*
X346846900Y-257221400D03*
%TD*%
%TO.C,KD74*%
X356371300Y-272970200D03*
X356371300Y-276270200D03*
%TD*%
%TO.C,KD9*%
X361133500Y-187250600D03*
X361133500Y-190550600D03*
%TD*%
%TO.C,KD25*%
X351609100Y-215823800D03*
X351609100Y-219123800D03*
%TD*%
%TO.C,KD43*%
X361133500Y-234872600D03*
X361133500Y-238172600D03*
%TD*%
%TO.C,KD61*%
X365895700Y-253921400D03*
X365895700Y-257221400D03*
%TD*%
%TO.C,KD75*%
X375420100Y-272970200D03*
X375420100Y-276270200D03*
%TD*%
%TO.C,KD84*%
X373039000Y-292019000D03*
X373039000Y-295319000D03*
%TD*%
%TO.C,KD10*%
X389706700Y-187250600D03*
X389706700Y-190550600D03*
%TD*%
%TO.C,KD26*%
X370657900Y-215823800D03*
X370657900Y-219123800D03*
%TD*%
%TO.C,KD44*%
X380182300Y-234872600D03*
X380182300Y-238172600D03*
%TD*%
%TO.C,KD62*%
X384944500Y-253921400D03*
X384944500Y-257221400D03*
%TD*%
%TO.C,KD76*%
X394468900Y-272970200D03*
X394468900Y-276270200D03*
%TD*%
%TO.C,KD11*%
X408755500Y-187250600D03*
X408755500Y-190550600D03*
%TD*%
%TO.C,KD27*%
X389706700Y-215823800D03*
X389706700Y-219123800D03*
%TD*%
%TO.C,KD45*%
X399231100Y-234872600D03*
X399231100Y-238172600D03*
%TD*%
%TO.C,KD63*%
X403993300Y-253921400D03*
X403993300Y-257221400D03*
%TD*%
%TO.C,KD85*%
X396850000Y-292019000D03*
X396850000Y-295319000D03*
%TD*%
%TO.C,KD86*%
X420661000Y-292019000D03*
X420661000Y-295319000D03*
%TD*%
%TO.C,KD12*%
X427804300Y-187250600D03*
X427804300Y-190550600D03*
%TD*%
%TO.C,KD28*%
X408755500Y-215823800D03*
X408755500Y-219123800D03*
%TD*%
%TO.C,KD46*%
X418279900Y-234872600D03*
X418279900Y-238172600D03*
%TD*%
%TO.C,KD87*%
X444472000Y-292019000D03*
X444472000Y-295319000D03*
%TD*%
%TO.C,KD13*%
X446853100Y-187250600D03*
X446853100Y-190550600D03*
%TD*%
%TO.C,KD29*%
X437328700Y-215823800D03*
X437328700Y-219123800D03*
%TD*%
%TO.C,KD47*%
X442090900Y-234872600D03*
X442090900Y-238172600D03*
%TD*%
%TO.C,KD64*%
X434947600Y-253921400D03*
X434947600Y-257221400D03*
%TD*%
%TO.C,KD77*%
X430185400Y-272970200D03*
X430185400Y-276270200D03*
%TD*%
%TO.C,KD88*%
X475426300Y-292019000D03*
X475426300Y-295319000D03*
%TD*%
%TO.C,KD14*%
X475426300Y-187250600D03*
X475426300Y-190550600D03*
%TD*%
%TO.C,KD30*%
X475426300Y-215823800D03*
X475426300Y-219123800D03*
%TD*%
%TO.C,KD48*%
X475426300Y-234872600D03*
X475426300Y-238172600D03*
%TD*%
%TO.C,KD31*%
X494475100Y-215823800D03*
X494475100Y-219123800D03*
%TD*%
%TO.C,KD49*%
X494475100Y-234872600D03*
X494475100Y-238172600D03*
%TD*%
%TO.C,KD78*%
X494475100Y-272970200D03*
X494475100Y-276270200D03*
%TD*%
%TO.C,KD89*%
X494475100Y-292019000D03*
X494475100Y-295319000D03*
%TD*%
%TO.C,KD32*%
X513523900Y-215823800D03*
X513523900Y-219123800D03*
%TD*%
%TO.C,KD50*%
X515111300Y-230904100D03*
X515111300Y-234204100D03*
%TD*%
%TO.C,KD90*%
X513523900Y-292019000D03*
X513523900Y-295319000D03*
%TD*%
%TO.C,R14*%
G36*
G01*
X508361700Y-190831698D02*
X508361700Y-191731702D01*
G75*
G02*
X508111702Y-191981700I-249998J0D01*
G01*
X507586698Y-191981700D01*
G75*
G02*
X507336700Y-191731702I0J249998D01*
G01*
X507336700Y-190831698D01*
G75*
G02*
X507586698Y-190581700I249998J0D01*
G01*
X508111702Y-190581700D01*
G75*
G02*
X508361700Y-190831698I0J-249998D01*
G01*
G37*
G36*
G01*
X510186700Y-190831698D02*
X510186700Y-191731702D01*
G75*
G02*
X509936702Y-191981700I-249998J0D01*
G01*
X509411698Y-191981700D01*
G75*
G02*
X509161700Y-191731702I0J249998D01*
G01*
X509161700Y-190831698D01*
G75*
G02*
X509411698Y-190581700I249998J0D01*
G01*
X509936702Y-190581700D01*
G75*
G02*
X510186700Y-190831698I0J-249998D01*
G01*
G37*
%TD*%
%TO.C,R15*%
G36*
G01*
X510950143Y-183380056D02*
X510313744Y-182743657D01*
G75*
G02*
X510313744Y-182390107I176775J176775D01*
G01*
X510684977Y-182018874D01*
G75*
G02*
X511038527Y-182018874I176775J-176775D01*
G01*
X511674926Y-182655273D01*
G75*
G02*
X511674926Y-183008823I-176775J-176775D01*
G01*
X511303693Y-183380056D01*
G75*
G02*
X510950143Y-183380056I-176775J176775D01*
G01*
G37*
G36*
G01*
X509659673Y-184670526D02*
X509023274Y-184034127D01*
G75*
G02*
X509023274Y-183680577I176775J176775D01*
G01*
X509394507Y-183309344D01*
G75*
G02*
X509748057Y-183309344I176775J-176775D01*
G01*
X510384456Y-183945743D01*
G75*
G02*
X510384456Y-184299293I-176775J-176775D01*
G01*
X510013223Y-184670526D01*
G75*
G02*
X509659673Y-184670526I-176775J176775D01*
G01*
G37*
%TD*%
%TO.C,R4*%
G36*
G01*
X282507198Y-198520100D02*
X283407202Y-198520100D01*
G75*
G02*
X283657200Y-198770098I0J-249998D01*
G01*
X283657200Y-199295102D01*
G75*
G02*
X283407202Y-199545100I-249998J0D01*
G01*
X282507198Y-199545100D01*
G75*
G02*
X282257200Y-199295102I0J249998D01*
G01*
X282257200Y-198770098D01*
G75*
G02*
X282507198Y-198520100I249998J0D01*
G01*
G37*
G36*
G01*
X282507198Y-196695100D02*
X283407202Y-196695100D01*
G75*
G02*
X283657200Y-196945098I0J-249998D01*
G01*
X283657200Y-197470102D01*
G75*
G02*
X283407202Y-197720100I-249998J0D01*
G01*
X282507198Y-197720100D01*
G75*
G02*
X282257200Y-197470102I0J249998D01*
G01*
X282257200Y-196945098D01*
G75*
G02*
X282507198Y-196695100I249998J0D01*
G01*
G37*
%TD*%
%TO.C,R2*%
G36*
G01*
X280126098Y-198520100D02*
X281026102Y-198520100D01*
G75*
G02*
X281276100Y-198770098I0J-249998D01*
G01*
X281276100Y-199295102D01*
G75*
G02*
X281026102Y-199545100I-249998J0D01*
G01*
X280126098Y-199545100D01*
G75*
G02*
X279876100Y-199295102I0J249998D01*
G01*
X279876100Y-198770098D01*
G75*
G02*
X280126098Y-198520100I249998J0D01*
G01*
G37*
G36*
G01*
X280126098Y-196695100D02*
X281026102Y-196695100D01*
G75*
G02*
X281276100Y-196945098I0J-249998D01*
G01*
X281276100Y-197470102D01*
G75*
G02*
X281026102Y-197720100I-249998J0D01*
G01*
X280126098Y-197720100D01*
G75*
G02*
X279876100Y-197470102I0J249998D01*
G01*
X279876100Y-196945098D01*
G75*
G02*
X280126098Y-196695100I249998J0D01*
G01*
G37*
%TD*%
%TO.C,R22*%
G36*
G01*
X468626698Y-253590300D02*
X469526702Y-253590300D01*
G75*
G02*
X469776700Y-253840298I0J-249998D01*
G01*
X469776700Y-254365302D01*
G75*
G02*
X469526702Y-254615300I-249998J0D01*
G01*
X468626698Y-254615300D01*
G75*
G02*
X468376700Y-254365302I0J249998D01*
G01*
X468376700Y-253840298D01*
G75*
G02*
X468626698Y-253590300I249998J0D01*
G01*
G37*
G36*
G01*
X468626698Y-251765300D02*
X469526702Y-251765300D01*
G75*
G02*
X469776700Y-252015298I0J-249998D01*
G01*
X469776700Y-252540302D01*
G75*
G02*
X469526702Y-252790300I-249998J0D01*
G01*
X468626698Y-252790300D01*
G75*
G02*
X468376700Y-252540302I0J249998D01*
G01*
X468376700Y-252015298D01*
G75*
G02*
X468626698Y-251765300I249998J0D01*
G01*
G37*
%TD*%
%TO.C,R1*%
G36*
G01*
X471851500Y-262264698D02*
X471851500Y-263164702D01*
G75*
G02*
X471601502Y-263414700I-249998J0D01*
G01*
X471076498Y-263414700D01*
G75*
G02*
X470826500Y-263164702I0J249998D01*
G01*
X470826500Y-262264698D01*
G75*
G02*
X471076498Y-262014700I249998J0D01*
G01*
X471601502Y-262014700D01*
G75*
G02*
X471851500Y-262264698I0J-249998D01*
G01*
G37*
G36*
G01*
X473676500Y-262264698D02*
X473676500Y-263164702D01*
G75*
G02*
X473426502Y-263414700I-249998J0D01*
G01*
X472901498Y-263414700D01*
G75*
G02*
X472651500Y-263164702I0J249998D01*
G01*
X472651500Y-262264698D01*
G75*
G02*
X472901498Y-262014700I249998J0D01*
G01*
X473426502Y-262014700D01*
G75*
G02*
X473676500Y-262264698I0J-249998D01*
G01*
G37*
%TD*%
%TO.C,R7*%
G36*
G01*
X475820000Y-262264698D02*
X475820000Y-263164702D01*
G75*
G02*
X475570002Y-263414700I-249998J0D01*
G01*
X475044998Y-263414700D01*
G75*
G02*
X474795000Y-263164702I0J249998D01*
G01*
X474795000Y-262264698D01*
G75*
G02*
X475044998Y-262014700I249998J0D01*
G01*
X475570002Y-262014700D01*
G75*
G02*
X475820000Y-262264698I0J-249998D01*
G01*
G37*
G36*
G01*
X477645000Y-262264698D02*
X477645000Y-263164702D01*
G75*
G02*
X477395002Y-263414700I-249998J0D01*
G01*
X476869998Y-263414700D01*
G75*
G02*
X476620000Y-263164702I0J249998D01*
G01*
X476620000Y-262264698D01*
G75*
G02*
X476869998Y-262014700I249998J0D01*
G01*
X477395002Y-262014700D01*
G75*
G02*
X477645000Y-262264698I0J-249998D01*
G01*
G37*
%TD*%
%TO.C,R17*%
G36*
G01*
X479788500Y-262264698D02*
X479788500Y-263164702D01*
G75*
G02*
X479538502Y-263414700I-249998J0D01*
G01*
X479013498Y-263414700D01*
G75*
G02*
X478763500Y-263164702I0J249998D01*
G01*
X478763500Y-262264698D01*
G75*
G02*
X479013498Y-262014700I249998J0D01*
G01*
X479538502Y-262014700D01*
G75*
G02*
X479788500Y-262264698I0J-249998D01*
G01*
G37*
G36*
G01*
X481613500Y-262264698D02*
X481613500Y-263164702D01*
G75*
G02*
X481363502Y-263414700I-249998J0D01*
G01*
X480838498Y-263414700D01*
G75*
G02*
X480588500Y-263164702I0J249998D01*
G01*
X480588500Y-262264698D01*
G75*
G02*
X480838498Y-262014700I249998J0D01*
G01*
X481363502Y-262014700D01*
G75*
G02*
X481613500Y-262264698I0J-249998D01*
G01*
G37*
%TD*%
%TO.C,R18*%
G36*
G01*
X483757000Y-262264698D02*
X483757000Y-263164702D01*
G75*
G02*
X483507002Y-263414700I-249998J0D01*
G01*
X482981998Y-263414700D01*
G75*
G02*
X482732000Y-263164702I0J249998D01*
G01*
X482732000Y-262264698D01*
G75*
G02*
X482981998Y-262014700I249998J0D01*
G01*
X483507002Y-262014700D01*
G75*
G02*
X483757000Y-262264698I0J-249998D01*
G01*
G37*
G36*
G01*
X485582000Y-262264698D02*
X485582000Y-263164702D01*
G75*
G02*
X485332002Y-263414700I-249998J0D01*
G01*
X484806998Y-263414700D01*
G75*
G02*
X484557000Y-263164702I0J249998D01*
G01*
X484557000Y-262264698D01*
G75*
G02*
X484806998Y-262014700I249998J0D01*
G01*
X485332002Y-262014700D01*
G75*
G02*
X485582000Y-262264698I0J-249998D01*
G01*
G37*
%TD*%
%TO.C,R26*%
G36*
G01*
X488525500Y-260783602D02*
X488525500Y-259883598D01*
G75*
G02*
X488775498Y-259633600I249998J0D01*
G01*
X489300502Y-259633600D01*
G75*
G02*
X489550500Y-259883598I0J-249998D01*
G01*
X489550500Y-260783602D01*
G75*
G02*
X489300502Y-261033600I-249998J0D01*
G01*
X488775498Y-261033600D01*
G75*
G02*
X488525500Y-260783602I0J249998D01*
G01*
G37*
G36*
G01*
X486700500Y-260783602D02*
X486700500Y-259883598D01*
G75*
G02*
X486950498Y-259633600I249998J0D01*
G01*
X487475502Y-259633600D01*
G75*
G02*
X487725500Y-259883598I0J-249998D01*
G01*
X487725500Y-260783602D01*
G75*
G02*
X487475502Y-261033600I-249998J0D01*
G01*
X486950498Y-261033600D01*
G75*
G02*
X486700500Y-260783602I0J249998D01*
G01*
G37*
%TD*%
%TO.C,R29*%
G36*
G01*
X492494000Y-260783602D02*
X492494000Y-259883598D01*
G75*
G02*
X492743998Y-259633600I249998J0D01*
G01*
X493269002Y-259633600D01*
G75*
G02*
X493519000Y-259883598I0J-249998D01*
G01*
X493519000Y-260783602D01*
G75*
G02*
X493269002Y-261033600I-249998J0D01*
G01*
X492743998Y-261033600D01*
G75*
G02*
X492494000Y-260783602I0J249998D01*
G01*
G37*
G36*
G01*
X490669000Y-260783602D02*
X490669000Y-259883598D01*
G75*
G02*
X490918998Y-259633600I249998J0D01*
G01*
X491444002Y-259633600D01*
G75*
G02*
X491694000Y-259883598I0J-249998D01*
G01*
X491694000Y-260783602D01*
G75*
G02*
X491444002Y-261033600I-249998J0D01*
G01*
X490918998Y-261033600D01*
G75*
G02*
X490669000Y-260783602I0J249998D01*
G01*
G37*
%TD*%
%TO.C,R32*%
G36*
G01*
X496462500Y-260783602D02*
X496462500Y-259883598D01*
G75*
G02*
X496712498Y-259633600I249998J0D01*
G01*
X497237502Y-259633600D01*
G75*
G02*
X497487500Y-259883598I0J-249998D01*
G01*
X497487500Y-260783602D01*
G75*
G02*
X497237502Y-261033600I-249998J0D01*
G01*
X496712498Y-261033600D01*
G75*
G02*
X496462500Y-260783602I0J249998D01*
G01*
G37*
G36*
G01*
X494637500Y-260783602D02*
X494637500Y-259883598D01*
G75*
G02*
X494887498Y-259633600I249998J0D01*
G01*
X495412502Y-259633600D01*
G75*
G02*
X495662500Y-259883598I0J-249998D01*
G01*
X495662500Y-260783602D01*
G75*
G02*
X495412502Y-261033600I-249998J0D01*
G01*
X494887498Y-261033600D01*
G75*
G02*
X494637500Y-260783602I0J249998D01*
G01*
G37*
%TD*%
%TO.C,R38*%
G36*
G01*
X463177102Y-260727300D02*
X462277098Y-260727300D01*
G75*
G02*
X462027100Y-260477302I0J249998D01*
G01*
X462027100Y-259952298D01*
G75*
G02*
X462277098Y-259702300I249998J0D01*
G01*
X463177102Y-259702300D01*
G75*
G02*
X463427100Y-259952298I0J-249998D01*
G01*
X463427100Y-260477302D01*
G75*
G02*
X463177102Y-260727300I-249998J0D01*
G01*
G37*
G36*
G01*
X463177102Y-262552300D02*
X462277098Y-262552300D01*
G75*
G02*
X462027100Y-262302302I0J249998D01*
G01*
X462027100Y-261777298D01*
G75*
G02*
X462277098Y-261527300I249998J0D01*
G01*
X463177102Y-261527300D01*
G75*
G02*
X463427100Y-261777298I0J-249998D01*
G01*
X463427100Y-262302302D01*
G75*
G02*
X463177102Y-262552300I-249998J0D01*
G01*
G37*
%TD*%
%TO.C,R9*%
G36*
G01*
X286132000Y-182207302D02*
X286132000Y-181307298D01*
G75*
G02*
X286381998Y-181057300I249998J0D01*
G01*
X286907002Y-181057300D01*
G75*
G02*
X287157000Y-181307298I0J-249998D01*
G01*
X287157000Y-182207302D01*
G75*
G02*
X286907002Y-182457300I-249998J0D01*
G01*
X286381998Y-182457300D01*
G75*
G02*
X286132000Y-182207302I0J249998D01*
G01*
G37*
G36*
G01*
X284307000Y-182207302D02*
X284307000Y-181307298D01*
G75*
G02*
X284556998Y-181057300I249998J0D01*
G01*
X285082002Y-181057300D01*
G75*
G02*
X285332000Y-181307298I0J-249998D01*
G01*
X285332000Y-182207302D01*
G75*
G02*
X285082002Y-182457300I-249998J0D01*
G01*
X284556998Y-182457300D01*
G75*
G02*
X284307000Y-182207302I0J249998D01*
G01*
G37*
%TD*%
%TO.C,R8*%
G36*
G01*
X277791850Y-181307298D02*
X277791850Y-182207302D01*
G75*
G02*
X277541852Y-182457300I-249998J0D01*
G01*
X277016848Y-182457300D01*
G75*
G02*
X276766850Y-182207302I0J249998D01*
G01*
X276766850Y-181307298D01*
G75*
G02*
X277016848Y-181057300I249998J0D01*
G01*
X277541852Y-181057300D01*
G75*
G02*
X277791850Y-181307298I0J-249998D01*
G01*
G37*
G36*
G01*
X279616850Y-181307298D02*
X279616850Y-182207302D01*
G75*
G02*
X279366852Y-182457300I-249998J0D01*
G01*
X278841848Y-182457300D01*
G75*
G02*
X278591850Y-182207302I0J249998D01*
G01*
X278591850Y-181307298D01*
G75*
G02*
X278841848Y-181057300I249998J0D01*
G01*
X279366852Y-181057300D01*
G75*
G02*
X279616850Y-181307298I0J-249998D01*
G01*
G37*
%TD*%
%TO.C,R41*%
G36*
G01*
X448046800Y-248084402D02*
X448046800Y-247184398D01*
G75*
G02*
X448296798Y-246934400I249998J0D01*
G01*
X448821802Y-246934400D01*
G75*
G02*
X449071800Y-247184398I0J-249998D01*
G01*
X449071800Y-248084402D01*
G75*
G02*
X448821802Y-248334400I-249998J0D01*
G01*
X448296798Y-248334400D01*
G75*
G02*
X448046800Y-248084402I0J249998D01*
G01*
G37*
G36*
G01*
X446221800Y-248084402D02*
X446221800Y-247184398D01*
G75*
G02*
X446471798Y-246934400I249998J0D01*
G01*
X446996802Y-246934400D01*
G75*
G02*
X447246800Y-247184398I0J-249998D01*
G01*
X447246800Y-248084402D01*
G75*
G02*
X446996802Y-248334400I-249998J0D01*
G01*
X446471798Y-248334400D01*
G75*
G02*
X446221800Y-248084402I0J249998D01*
G01*
G37*
%TD*%
%TO.C,D2*%
X142072300Y-194393900D03*
X142072300Y-197693900D03*
%TD*%
%TO.C,D3*%
X498443600Y-195187600D03*
X498443600Y-198487600D03*
%TD*%
D14*
%TO.C,U2*%
X282763500Y-184182100D03*
D15*
X280763500Y-183982100D03*
X282763500Y-185882100D03*
X280763500Y-185882100D03*
%TD*%
D16*
%TO.C,U1*%
X464790600Y-259942700D03*
X466060600Y-259942700D03*
X467330600Y-259942700D03*
X468600600Y-259942700D03*
X464790600Y-265486700D03*
X466060600Y-265486700D03*
X467330600Y-265486700D03*
X468600600Y-265486700D03*
%TD*%
D17*
%TO.C,USB1*%
X284988500Y-179134200D03*
X278538500Y-179134200D03*
X284213500Y-179134200D03*
X279313500Y-179134200D03*
D18*
X280013500Y-179134200D03*
X283513500Y-179134200D03*
X280513500Y-179134200D03*
X283013500Y-179134200D03*
X281013500Y-179134200D03*
X282513500Y-179134200D03*
X282013500Y-179134200D03*
X281513500Y-179134200D03*
%TD*%
D19*
%TO.C,Y1*%
X315155200Y-291594200D03*
X315155200Y-289394200D03*
X313455200Y-289394200D03*
X313455200Y-291594200D03*
%TD*%
%TO.C,Y3*%
X411136600Y-253587150D03*
X411136600Y-251387150D03*
X409436600Y-251387150D03*
X409436600Y-253587150D03*
%TD*%
%TO.C,C40*%
G36*
G01*
X274301500Y-301552850D02*
X273351500Y-301552850D01*
G75*
G02*
X273101500Y-301302850I0J250000D01*
G01*
X273101500Y-300802850D01*
G75*
G02*
X273351500Y-300552850I250000J0D01*
G01*
X274301500Y-300552850D01*
G75*
G02*
X274551500Y-300802850I0J-250000D01*
G01*
X274551500Y-301302850D01*
G75*
G02*
X274301500Y-301552850I-250000J0D01*
G01*
G37*
G36*
G01*
X274301500Y-303452850D02*
X273351500Y-303452850D01*
G75*
G02*
X273101500Y-303202850I0J250000D01*
G01*
X273101500Y-302702850D01*
G75*
G02*
X273351500Y-302452850I250000J0D01*
G01*
X274301500Y-302452850D01*
G75*
G02*
X274551500Y-302702850I0J-250000D01*
G01*
X274551500Y-303202850D01*
G75*
G02*
X274301500Y-303452850I-250000J0D01*
G01*
G37*
%TD*%
%TO.C,C16*%
G36*
G01*
X335752778Y-287855877D02*
X335081027Y-288527628D01*
G75*
G02*
X334727473Y-288527628I-176777J176777D01*
G01*
X334373920Y-288174075D01*
G75*
G02*
X334373920Y-287820521I176777J176777D01*
G01*
X335045671Y-287148770D01*
G75*
G02*
X335399225Y-287148770I176777J-176777D01*
G01*
X335752778Y-287502323D01*
G75*
G02*
X335752778Y-287855877I-176777J-176777D01*
G01*
G37*
G36*
G01*
X337096280Y-289199379D02*
X336424529Y-289871130D01*
G75*
G02*
X336070975Y-289871130I-176777J176777D01*
G01*
X335717422Y-289517577D01*
G75*
G02*
X335717422Y-289164023I176777J176777D01*
G01*
X336389173Y-288492272D01*
G75*
G02*
X336742727Y-288492272I176777J-176777D01*
G01*
X337096280Y-288845825D01*
G75*
G02*
X337096280Y-289199379I-176777J-176777D01*
G01*
G37*
%TD*%
%TO.C,C17*%
G36*
G01*
X338373423Y-299639428D02*
X337701672Y-298967677D01*
G75*
G02*
X337701672Y-298614123I176777J176777D01*
G01*
X338055225Y-298260570D01*
G75*
G02*
X338408779Y-298260570I176777J-176777D01*
G01*
X339080530Y-298932321D01*
G75*
G02*
X339080530Y-299285875I-176777J-176777D01*
G01*
X338726977Y-299639428D01*
G75*
G02*
X338373423Y-299639428I-176777J176777D01*
G01*
G37*
G36*
G01*
X337029921Y-300982930D02*
X336358170Y-300311179D01*
G75*
G02*
X336358170Y-299957625I176777J176777D01*
G01*
X336711723Y-299604072D01*
G75*
G02*
X337065277Y-299604072I176777J-176777D01*
G01*
X337737028Y-300275823D01*
G75*
G02*
X337737028Y-300629377I-176777J-176777D01*
G01*
X337383475Y-300982930D01*
G75*
G02*
X337029921Y-300982930I-176777J176777D01*
G01*
G37*
%TD*%
%TO.C,C12*%
G36*
G01*
X470982800Y-249671800D02*
X471932800Y-249671800D01*
G75*
G02*
X472182800Y-249921800I0J-250000D01*
G01*
X472182800Y-250421800D01*
G75*
G02*
X471932800Y-250671800I-250000J0D01*
G01*
X470982800Y-250671800D01*
G75*
G02*
X470732800Y-250421800I0J250000D01*
G01*
X470732800Y-249921800D01*
G75*
G02*
X470982800Y-249671800I250000J0D01*
G01*
G37*
G36*
G01*
X470982800Y-247771800D02*
X471932800Y-247771800D01*
G75*
G02*
X472182800Y-248021800I0J-250000D01*
G01*
X472182800Y-248521800D01*
G75*
G02*
X471932800Y-248771800I-250000J0D01*
G01*
X470982800Y-248771800D01*
G75*
G02*
X470732800Y-248521800I0J250000D01*
G01*
X470732800Y-248021800D01*
G75*
G02*
X470982800Y-247771800I250000J0D01*
G01*
G37*
%TD*%
%TO.C,C41*%
G36*
G01*
X279701100Y-302452850D02*
X280651100Y-302452850D01*
G75*
G02*
X280901100Y-302702850I0J-250000D01*
G01*
X280901100Y-303202850D01*
G75*
G02*
X280651100Y-303452850I-250000J0D01*
G01*
X279701100Y-303452850D01*
G75*
G02*
X279451100Y-303202850I0J250000D01*
G01*
X279451100Y-302702850D01*
G75*
G02*
X279701100Y-302452850I250000J0D01*
G01*
G37*
G36*
G01*
X279701100Y-300552850D02*
X280651100Y-300552850D01*
G75*
G02*
X280901100Y-300802850I0J-250000D01*
G01*
X280901100Y-301302850D01*
G75*
G02*
X280651100Y-301552850I-250000J0D01*
G01*
X279701100Y-301552850D01*
G75*
G02*
X279451100Y-301302850I0J250000D01*
G01*
X279451100Y-300802850D01*
G75*
G02*
X279701100Y-300552850I250000J0D01*
G01*
G37*
%TD*%
%TO.C,C18*%
G36*
G01*
X324304600Y-303537100D02*
X323354600Y-303537100D01*
G75*
G02*
X323104600Y-303287100I0J250000D01*
G01*
X323104600Y-302787100D01*
G75*
G02*
X323354600Y-302537100I250000J0D01*
G01*
X324304600Y-302537100D01*
G75*
G02*
X324554600Y-302787100I0J-250000D01*
G01*
X324554600Y-303287100D01*
G75*
G02*
X324304600Y-303537100I-250000J0D01*
G01*
G37*
G36*
G01*
X324304600Y-305437100D02*
X323354600Y-305437100D01*
G75*
G02*
X323104600Y-305187100I0J250000D01*
G01*
X323104600Y-304687100D01*
G75*
G02*
X323354600Y-304437100I250000J0D01*
G01*
X324304600Y-304437100D01*
G75*
G02*
X324554600Y-304687100I0J-250000D01*
G01*
X324554600Y-305187100D01*
G75*
G02*
X324304600Y-305437100I-250000J0D01*
G01*
G37*
%TD*%
%TO.C,C19*%
G36*
G01*
X320973500Y-304437100D02*
X321923500Y-304437100D01*
G75*
G02*
X322173500Y-304687100I0J-250000D01*
G01*
X322173500Y-305187100D01*
G75*
G02*
X321923500Y-305437100I-250000J0D01*
G01*
X320973500Y-305437100D01*
G75*
G02*
X320723500Y-305187100I0J250000D01*
G01*
X320723500Y-304687100D01*
G75*
G02*
X320973500Y-304437100I250000J0D01*
G01*
G37*
G36*
G01*
X320973500Y-302537100D02*
X321923500Y-302537100D01*
G75*
G02*
X322173500Y-302787100I0J-250000D01*
G01*
X322173500Y-303287100D01*
G75*
G02*
X321923500Y-303537100I-250000J0D01*
G01*
X320973500Y-303537100D01*
G75*
G02*
X320723500Y-303287100I0J250000D01*
G01*
X320723500Y-302787100D01*
G75*
G02*
X320973500Y-302537100I250000J0D01*
G01*
G37*
%TD*%
%TO.C,C20*%
G36*
G01*
X322560900Y-286182000D02*
X323510900Y-286182000D01*
G75*
G02*
X323760900Y-286432000I0J-250000D01*
G01*
X323760900Y-286932000D01*
G75*
G02*
X323510900Y-287182000I-250000J0D01*
G01*
X322560900Y-287182000D01*
G75*
G02*
X322310900Y-286932000I0J250000D01*
G01*
X322310900Y-286432000D01*
G75*
G02*
X322560900Y-286182000I250000J0D01*
G01*
G37*
G36*
G01*
X322560900Y-284282000D02*
X323510900Y-284282000D01*
G75*
G02*
X323760900Y-284532000I0J-250000D01*
G01*
X323760900Y-285032000D01*
G75*
G02*
X323510900Y-285282000I-250000J0D01*
G01*
X322560900Y-285282000D01*
G75*
G02*
X322310900Y-285032000I0J250000D01*
G01*
X322310900Y-284532000D01*
G75*
G02*
X322560900Y-284282000I250000J0D01*
G01*
G37*
%TD*%
%TO.C,C21*%
G36*
G01*
X325892000Y-285282000D02*
X324942000Y-285282000D01*
G75*
G02*
X324692000Y-285032000I0J250000D01*
G01*
X324692000Y-284532000D01*
G75*
G02*
X324942000Y-284282000I250000J0D01*
G01*
X325892000Y-284282000D01*
G75*
G02*
X326142000Y-284532000I0J-250000D01*
G01*
X326142000Y-285032000D01*
G75*
G02*
X325892000Y-285282000I-250000J0D01*
G01*
G37*
G36*
G01*
X325892000Y-287182000D02*
X324942000Y-287182000D01*
G75*
G02*
X324692000Y-286932000I0J250000D01*
G01*
X324692000Y-286432000D01*
G75*
G02*
X324942000Y-286182000I250000J0D01*
G01*
X325892000Y-286182000D01*
G75*
G02*
X326142000Y-286432000I0J-250000D01*
G01*
X326142000Y-286932000D01*
G75*
G02*
X325892000Y-287182000I-250000J0D01*
G01*
G37*
%TD*%
%TO.C,C15*%
G36*
G01*
X261842850Y-291737900D02*
X262792850Y-291737900D01*
G75*
G02*
X263042850Y-291987900I0J-250000D01*
G01*
X263042850Y-292487900D01*
G75*
G02*
X262792850Y-292737900I-250000J0D01*
G01*
X261842850Y-292737900D01*
G75*
G02*
X261592850Y-292487900I0J250000D01*
G01*
X261592850Y-291987900D01*
G75*
G02*
X261842850Y-291737900I250000J0D01*
G01*
G37*
G36*
G01*
X261842850Y-289837900D02*
X262792850Y-289837900D01*
G75*
G02*
X263042850Y-290087900I0J-250000D01*
G01*
X263042850Y-290587900D01*
G75*
G02*
X262792850Y-290837900I-250000J0D01*
G01*
X261842850Y-290837900D01*
G75*
G02*
X261592850Y-290587900I0J250000D01*
G01*
X261592850Y-290087900D01*
G75*
G02*
X261842850Y-289837900I250000J0D01*
G01*
G37*
%TD*%
%TO.C,C22*%
G36*
G01*
X261049150Y-295706400D02*
X261999150Y-295706400D01*
G75*
G02*
X262249150Y-295956400I0J-250000D01*
G01*
X262249150Y-296456400D01*
G75*
G02*
X261999150Y-296706400I-250000J0D01*
G01*
X261049150Y-296706400D01*
G75*
G02*
X260799150Y-296456400I0J250000D01*
G01*
X260799150Y-295956400D01*
G75*
G02*
X261049150Y-295706400I250000J0D01*
G01*
G37*
G36*
G01*
X261049150Y-293806400D02*
X261999150Y-293806400D01*
G75*
G02*
X262249150Y-294056400I0J-250000D01*
G01*
X262249150Y-294556400D01*
G75*
G02*
X261999150Y-294806400I-250000J0D01*
G01*
X261049150Y-294806400D01*
G75*
G02*
X260799150Y-294556400I0J250000D01*
G01*
X260799150Y-294056400D01*
G75*
G02*
X261049150Y-293806400I250000J0D01*
G01*
G37*
%TD*%
%TO.C,C4*%
G36*
G01*
X317426850Y-295971950D02*
X317426850Y-296921950D01*
G75*
G02*
X317176850Y-297171950I-250000J0D01*
G01*
X316676850Y-297171950D01*
G75*
G02*
X316426850Y-296921950I0J250000D01*
G01*
X316426850Y-295971950D01*
G75*
G02*
X316676850Y-295721950I250000J0D01*
G01*
X317176850Y-295721950D01*
G75*
G02*
X317426850Y-295971950I0J-250000D01*
G01*
G37*
G36*
G01*
X319326850Y-295971950D02*
X319326850Y-296921950D01*
G75*
G02*
X319076850Y-297171950I-250000J0D01*
G01*
X318576850Y-297171950D01*
G75*
G02*
X318326850Y-296921950I0J250000D01*
G01*
X318326850Y-295971950D01*
G75*
G02*
X318576850Y-295721950I250000J0D01*
G01*
X319076850Y-295721950D01*
G75*
G02*
X319326850Y-295971950I0J-250000D01*
G01*
G37*
%TD*%
%TO.C,C9*%
G36*
G01*
X313855200Y-300337300D02*
X313855200Y-301287300D01*
G75*
G02*
X313605200Y-301537300I-250000J0D01*
G01*
X313105200Y-301537300D01*
G75*
G02*
X312855200Y-301287300I0J250000D01*
G01*
X312855200Y-300337300D01*
G75*
G02*
X313105200Y-300087300I250000J0D01*
G01*
X313605200Y-300087300D01*
G75*
G02*
X313855200Y-300337300I0J-250000D01*
G01*
G37*
G36*
G01*
X315755200Y-300337300D02*
X315755200Y-301287300D01*
G75*
G02*
X315505200Y-301537300I-250000J0D01*
G01*
X315005200Y-301537300D01*
G75*
G02*
X314755200Y-301287300I0J250000D01*
G01*
X314755200Y-300337300D01*
G75*
G02*
X315005200Y-300087300I250000J0D01*
G01*
X315505200Y-300087300D01*
G75*
G02*
X315755200Y-300337300I0J-250000D01*
G01*
G37*
%TD*%
%TO.C,C29*%
G36*
G01*
X452752700Y-274145200D02*
X452752700Y-275095200D01*
G75*
G02*
X452502700Y-275345200I-250000J0D01*
G01*
X452002700Y-275345200D01*
G75*
G02*
X451752700Y-275095200I0J250000D01*
G01*
X451752700Y-274145200D01*
G75*
G02*
X452002700Y-273895200I250000J0D01*
G01*
X452502700Y-273895200D01*
G75*
G02*
X452752700Y-274145200I0J-250000D01*
G01*
G37*
G36*
G01*
X454652700Y-274145200D02*
X454652700Y-275095200D01*
G75*
G02*
X454402700Y-275345200I-250000J0D01*
G01*
X453902700Y-275345200D01*
G75*
G02*
X453652700Y-275095200I0J250000D01*
G01*
X453652700Y-274145200D01*
G75*
G02*
X453902700Y-273895200I250000J0D01*
G01*
X454402700Y-273895200D01*
G75*
G02*
X454652700Y-274145200I0J-250000D01*
G01*
G37*
%TD*%
%TO.C,C27*%
G36*
G01*
X461458400Y-271101700D02*
X462408400Y-271101700D01*
G75*
G02*
X462658400Y-271351700I0J-250000D01*
G01*
X462658400Y-271851700D01*
G75*
G02*
X462408400Y-272101700I-250000J0D01*
G01*
X461458400Y-272101700D01*
G75*
G02*
X461208400Y-271851700I0J250000D01*
G01*
X461208400Y-271351700D01*
G75*
G02*
X461458400Y-271101700I250000J0D01*
G01*
G37*
G36*
G01*
X461458400Y-269201700D02*
X462408400Y-269201700D01*
G75*
G02*
X462658400Y-269451700I0J-250000D01*
G01*
X462658400Y-269951700D01*
G75*
G02*
X462408400Y-270201700I-250000J0D01*
G01*
X461458400Y-270201700D01*
G75*
G02*
X461208400Y-269951700I0J250000D01*
G01*
X461208400Y-269451700D01*
G75*
G02*
X461458400Y-269201700I250000J0D01*
G01*
G37*
%TD*%
%TO.C,C39*%
G36*
G01*
X447196800Y-267001900D02*
X447196800Y-267951900D01*
G75*
G02*
X446946800Y-268201900I-250000J0D01*
G01*
X446446800Y-268201900D01*
G75*
G02*
X446196800Y-267951900I0J250000D01*
G01*
X446196800Y-267001900D01*
G75*
G02*
X446446800Y-266751900I250000J0D01*
G01*
X446946800Y-266751900D01*
G75*
G02*
X447196800Y-267001900I0J-250000D01*
G01*
G37*
G36*
G01*
X449096800Y-267001900D02*
X449096800Y-267951900D01*
G75*
G02*
X448846800Y-268201900I-250000J0D01*
G01*
X448346800Y-268201900D01*
G75*
G02*
X448096800Y-267951900I0J250000D01*
G01*
X448096800Y-267001900D01*
G75*
G02*
X448346800Y-266751900I250000J0D01*
G01*
X448846800Y-266751900D01*
G75*
G02*
X449096800Y-267001900I0J-250000D01*
G01*
G37*
%TD*%
%TO.C,C38*%
G36*
G01*
X447196800Y-264620800D02*
X447196800Y-265570800D01*
G75*
G02*
X446946800Y-265820800I-250000J0D01*
G01*
X446446800Y-265820800D01*
G75*
G02*
X446196800Y-265570800I0J250000D01*
G01*
X446196800Y-264620800D01*
G75*
G02*
X446446800Y-264370800I250000J0D01*
G01*
X446946800Y-264370800D01*
G75*
G02*
X447196800Y-264620800I0J-250000D01*
G01*
G37*
G36*
G01*
X449096800Y-264620800D02*
X449096800Y-265570800D01*
G75*
G02*
X448846800Y-265820800I-250000J0D01*
G01*
X448346800Y-265820800D01*
G75*
G02*
X448096800Y-265570800I0J250000D01*
G01*
X448096800Y-264620800D01*
G75*
G02*
X448346800Y-264370800I250000J0D01*
G01*
X448846800Y-264370800D01*
G75*
G02*
X449096800Y-264620800I0J-250000D01*
G01*
G37*
%TD*%
%TO.C,C35*%
G36*
G01*
X448096800Y-263189700D02*
X448096800Y-262239700D01*
G75*
G02*
X448346800Y-261989700I250000J0D01*
G01*
X448846800Y-261989700D01*
G75*
G02*
X449096800Y-262239700I0J-250000D01*
G01*
X449096800Y-263189700D01*
G75*
G02*
X448846800Y-263439700I-250000J0D01*
G01*
X448346800Y-263439700D01*
G75*
G02*
X448096800Y-263189700I0J250000D01*
G01*
G37*
G36*
G01*
X446196800Y-263189700D02*
X446196800Y-262239700D01*
G75*
G02*
X446446800Y-261989700I250000J0D01*
G01*
X446946800Y-261989700D01*
G75*
G02*
X447196800Y-262239700I0J-250000D01*
G01*
X447196800Y-263189700D01*
G75*
G02*
X446946800Y-263439700I-250000J0D01*
G01*
X446446800Y-263439700D01*
G75*
G02*
X446196800Y-263189700I0J250000D01*
G01*
G37*
%TD*%
%TO.C,C30*%
G36*
G01*
X457646200Y-270201700D02*
X456696200Y-270201700D01*
G75*
G02*
X456446200Y-269951700I0J250000D01*
G01*
X456446200Y-269451700D01*
G75*
G02*
X456696200Y-269201700I250000J0D01*
G01*
X457646200Y-269201700D01*
G75*
G02*
X457896200Y-269451700I0J-250000D01*
G01*
X457896200Y-269951700D01*
G75*
G02*
X457646200Y-270201700I-250000J0D01*
G01*
G37*
G36*
G01*
X457646200Y-272101700D02*
X456696200Y-272101700D01*
G75*
G02*
X456446200Y-271851700I0J250000D01*
G01*
X456446200Y-271351700D01*
G75*
G02*
X456696200Y-271101700I250000J0D01*
G01*
X457646200Y-271101700D01*
G75*
G02*
X457896200Y-271351700I0J-250000D01*
G01*
X457896200Y-271851700D01*
G75*
G02*
X457646200Y-272101700I-250000J0D01*
G01*
G37*
%TD*%
%TO.C,C36*%
G36*
G01*
X461192850Y-257236950D02*
X461192850Y-256286950D01*
G75*
G02*
X461442850Y-256036950I250000J0D01*
G01*
X461942850Y-256036950D01*
G75*
G02*
X462192850Y-256286950I0J-250000D01*
G01*
X462192850Y-257236950D01*
G75*
G02*
X461942850Y-257486950I-250000J0D01*
G01*
X461442850Y-257486950D01*
G75*
G02*
X461192850Y-257236950I0J250000D01*
G01*
G37*
G36*
G01*
X459292850Y-257236950D02*
X459292850Y-256286950D01*
G75*
G02*
X459542850Y-256036950I250000J0D01*
G01*
X460042850Y-256036950D01*
G75*
G02*
X460292850Y-256286950I0J-250000D01*
G01*
X460292850Y-257236950D01*
G75*
G02*
X460042850Y-257486950I-250000J0D01*
G01*
X459542850Y-257486950D01*
G75*
G02*
X459292850Y-257236950I0J250000D01*
G01*
G37*
%TD*%
%TO.C,C31*%
G36*
G01*
X448096800Y-250490500D02*
X448096800Y-249540500D01*
G75*
G02*
X448346800Y-249290500I250000J0D01*
G01*
X448846800Y-249290500D01*
G75*
G02*
X449096800Y-249540500I0J-250000D01*
G01*
X449096800Y-250490500D01*
G75*
G02*
X448846800Y-250740500I-250000J0D01*
G01*
X448346800Y-250740500D01*
G75*
G02*
X448096800Y-250490500I0J250000D01*
G01*
G37*
G36*
G01*
X446196800Y-250490500D02*
X446196800Y-249540500D01*
G75*
G02*
X446446800Y-249290500I250000J0D01*
G01*
X446946800Y-249290500D01*
G75*
G02*
X447196800Y-249540500I0J-250000D01*
G01*
X447196800Y-250490500D01*
G75*
G02*
X446946800Y-250740500I-250000J0D01*
G01*
X446446800Y-250740500D01*
G75*
G02*
X446196800Y-250490500I0J250000D01*
G01*
G37*
%TD*%
%TO.C,C14*%
G36*
G01*
X464789500Y-252740300D02*
X463839500Y-252740300D01*
G75*
G02*
X463589500Y-252490300I0J250000D01*
G01*
X463589500Y-251990300D01*
G75*
G02*
X463839500Y-251740300I250000J0D01*
G01*
X464789500Y-251740300D01*
G75*
G02*
X465039500Y-251990300I0J-250000D01*
G01*
X465039500Y-252490300D01*
G75*
G02*
X464789500Y-252740300I-250000J0D01*
G01*
G37*
G36*
G01*
X464789500Y-254640300D02*
X463839500Y-254640300D01*
G75*
G02*
X463589500Y-254390300I0J250000D01*
G01*
X463589500Y-253890300D01*
G75*
G02*
X463839500Y-253640300I250000J0D01*
G01*
X464789500Y-253640300D01*
G75*
G02*
X465039500Y-253890300I0J-250000D01*
G01*
X465039500Y-254390300D01*
G75*
G02*
X464789500Y-254640300I-250000J0D01*
G01*
G37*
%TD*%
%TO.C,C28*%
G36*
G01*
X459077300Y-271101700D02*
X460027300Y-271101700D01*
G75*
G02*
X460277300Y-271351700I0J-250000D01*
G01*
X460277300Y-271851700D01*
G75*
G02*
X460027300Y-272101700I-250000J0D01*
G01*
X459077300Y-272101700D01*
G75*
G02*
X458827300Y-271851700I0J250000D01*
G01*
X458827300Y-271351700D01*
G75*
G02*
X459077300Y-271101700I250000J0D01*
G01*
G37*
G36*
G01*
X459077300Y-269201700D02*
X460027300Y-269201700D01*
G75*
G02*
X460277300Y-269451700I0J-250000D01*
G01*
X460277300Y-269951700D01*
G75*
G02*
X460027300Y-270201700I-250000J0D01*
G01*
X459077300Y-270201700D01*
G75*
G02*
X458827300Y-269951700I0J250000D01*
G01*
X458827300Y-269451700D01*
G75*
G02*
X459077300Y-269201700I250000J0D01*
G01*
G37*
%TD*%
%TO.C,C24*%
G36*
G01*
X463970800Y-250490500D02*
X463970800Y-249540500D01*
G75*
G02*
X464220800Y-249290500I250000J0D01*
G01*
X464720800Y-249290500D01*
G75*
G02*
X464970800Y-249540500I0J-250000D01*
G01*
X464970800Y-250490500D01*
G75*
G02*
X464720800Y-250740500I-250000J0D01*
G01*
X464220800Y-250740500D01*
G75*
G02*
X463970800Y-250490500I0J250000D01*
G01*
G37*
G36*
G01*
X462070800Y-250490500D02*
X462070800Y-249540500D01*
G75*
G02*
X462320800Y-249290500I250000J0D01*
G01*
X462820800Y-249290500D01*
G75*
G02*
X463070800Y-249540500I0J-250000D01*
G01*
X463070800Y-250490500D01*
G75*
G02*
X462820800Y-250740500I-250000J0D01*
G01*
X462320800Y-250740500D01*
G75*
G02*
X462070800Y-250490500I0J250000D01*
G01*
G37*
%TD*%
%TO.C,C26*%
G36*
G01*
X463970800Y-248109400D02*
X463970800Y-247159400D01*
G75*
G02*
X464220800Y-246909400I250000J0D01*
G01*
X464720800Y-246909400D01*
G75*
G02*
X464970800Y-247159400I0J-250000D01*
G01*
X464970800Y-248109400D01*
G75*
G02*
X464720800Y-248359400I-250000J0D01*
G01*
X464220800Y-248359400D01*
G75*
G02*
X463970800Y-248109400I0J250000D01*
G01*
G37*
G36*
G01*
X462070800Y-248109400D02*
X462070800Y-247159400D01*
G75*
G02*
X462320800Y-246909400I250000J0D01*
G01*
X462820800Y-246909400D01*
G75*
G02*
X463070800Y-247159400I0J-250000D01*
G01*
X463070800Y-248109400D01*
G75*
G02*
X462820800Y-248359400I-250000J0D01*
G01*
X462320800Y-248359400D01*
G75*
G02*
X462070800Y-248109400I0J250000D01*
G01*
G37*
%TD*%
D13*
%TO.C,DRST1*%
X255968250Y-291225300D03*
X255968250Y-294525300D03*
%TD*%
%TO.C,F1*%
G36*
G01*
X291269200Y-176826400D02*
X291269200Y-175576400D01*
G75*
G02*
X291519200Y-175326400I250000J0D01*
G01*
X292269200Y-175326400D01*
G75*
G02*
X292519200Y-175576400I0J-250000D01*
G01*
X292519200Y-176826400D01*
G75*
G02*
X292269200Y-177076400I-250000J0D01*
G01*
X291519200Y-177076400D01*
G75*
G02*
X291269200Y-176826400I0J250000D01*
G01*
G37*
G36*
G01*
X288469200Y-176826400D02*
X288469200Y-175576400D01*
G75*
G02*
X288719200Y-175326400I250000J0D01*
G01*
X289469200Y-175326400D01*
G75*
G02*
X289719200Y-175576400I0J-250000D01*
G01*
X289719200Y-176826400D01*
G75*
G02*
X289469200Y-177076400I-250000J0D01*
G01*
X288719200Y-177076400D01*
G75*
G02*
X288469200Y-176826400I0J250000D01*
G01*
G37*
%TD*%
%TO.C,F3*%
G36*
G01*
X507986700Y-196212600D02*
X507986700Y-197462600D01*
G75*
G02*
X507736700Y-197712600I-250000J0D01*
G01*
X506986700Y-197712600D01*
G75*
G02*
X506736700Y-197462600I0J250000D01*
G01*
X506736700Y-196212600D01*
G75*
G02*
X506986700Y-195962600I250000J0D01*
G01*
X507736700Y-195962600D01*
G75*
G02*
X507986700Y-196212600I0J-250000D01*
G01*
G37*
G36*
G01*
X510786700Y-196212600D02*
X510786700Y-197462600D01*
G75*
G02*
X510536700Y-197712600I-250000J0D01*
G01*
X509786700Y-197712600D01*
G75*
G02*
X509536700Y-197462600I0J250000D01*
G01*
X509536700Y-196212600D01*
G75*
G02*
X509786700Y-195962600I250000J0D01*
G01*
X510536700Y-195962600D01*
G75*
G02*
X510786700Y-196212600I0J-250000D01*
G01*
G37*
%TD*%
%TO.C,F5*%
G36*
G01*
X142847300Y-212146050D02*
X142847300Y-210896050D01*
G75*
G02*
X143097300Y-210646050I250000J0D01*
G01*
X143847300Y-210646050D01*
G75*
G02*
X144097300Y-210896050I0J-250000D01*
G01*
X144097300Y-212146050D01*
G75*
G02*
X143847300Y-212396050I-250000J0D01*
G01*
X143097300Y-212396050D01*
G75*
G02*
X142847300Y-212146050I0J250000D01*
G01*
G37*
G36*
G01*
X140047300Y-212146050D02*
X140047300Y-210896050D01*
G75*
G02*
X140297300Y-210646050I250000J0D01*
G01*
X141047300Y-210646050D01*
G75*
G02*
X141297300Y-210896050I0J-250000D01*
G01*
X141297300Y-212146050D01*
G75*
G02*
X141047300Y-212396050I-250000J0D01*
G01*
X140297300Y-212396050D01*
G75*
G02*
X140047300Y-212146050I0J250000D01*
G01*
G37*
%TD*%
%TO.C,F2*%
G36*
G01*
X364686450Y-184763400D02*
X364686450Y-183513400D01*
G75*
G02*
X364936450Y-183263400I250000J0D01*
G01*
X365686450Y-183263400D01*
G75*
G02*
X365936450Y-183513400I0J-250000D01*
G01*
X365936450Y-184763400D01*
G75*
G02*
X365686450Y-185013400I-250000J0D01*
G01*
X364936450Y-185013400D01*
G75*
G02*
X364686450Y-184763400I0J250000D01*
G01*
G37*
G36*
G01*
X361886450Y-184763400D02*
X361886450Y-183513400D01*
G75*
G02*
X362136450Y-183263400I250000J0D01*
G01*
X362886450Y-183263400D01*
G75*
G02*
X363136450Y-183513400I0J-250000D01*
G01*
X363136450Y-184763400D01*
G75*
G02*
X362886450Y-185013400I-250000J0D01*
G01*
X362136450Y-185013400D01*
G75*
G02*
X361886450Y-184763400I0J250000D01*
G01*
G37*
%TD*%
%TO.C,F4*%
G36*
G01*
X479563500Y-188694500D02*
X480813500Y-188694500D01*
G75*
G02*
X481063500Y-188944500I0J-250000D01*
G01*
X481063500Y-189694500D01*
G75*
G02*
X480813500Y-189944500I-250000J0D01*
G01*
X479563500Y-189944500D01*
G75*
G02*
X479313500Y-189694500I0J250000D01*
G01*
X479313500Y-188944500D01*
G75*
G02*
X479563500Y-188694500I250000J0D01*
G01*
G37*
G36*
G01*
X479563500Y-185894500D02*
X480813500Y-185894500D01*
G75*
G02*
X481063500Y-186144500I0J-250000D01*
G01*
X481063500Y-186894500D01*
G75*
G02*
X480813500Y-187144500I-250000J0D01*
G01*
X479563500Y-187144500D01*
G75*
G02*
X479313500Y-186894500I0J250000D01*
G01*
X479313500Y-186144500D01*
G75*
G02*
X479563500Y-185894500I250000J0D01*
G01*
G37*
%TD*%
%TO.C,F6*%
G36*
G01*
X185100800Y-188881900D02*
X186350800Y-188881900D01*
G75*
G02*
X186600800Y-189131900I0J-250000D01*
G01*
X186600800Y-189881900D01*
G75*
G02*
X186350800Y-190131900I-250000J0D01*
G01*
X185100800Y-190131900D01*
G75*
G02*
X184850800Y-189881900I0J250000D01*
G01*
X184850800Y-189131900D01*
G75*
G02*
X185100800Y-188881900I250000J0D01*
G01*
G37*
G36*
G01*
X185100800Y-186081900D02*
X186350800Y-186081900D01*
G75*
G02*
X186600800Y-186331900I0J-250000D01*
G01*
X186600800Y-187081900D01*
G75*
G02*
X186350800Y-187331900I-250000J0D01*
G01*
X185100800Y-187331900D01*
G75*
G02*
X184850800Y-187081900I0J250000D01*
G01*
X184850800Y-186331900D01*
G75*
G02*
X185100800Y-186081900I250000J0D01*
G01*
G37*
%TD*%
%TO.C,F7*%
G36*
G01*
X504811900Y-267645600D02*
X504811900Y-268895600D01*
G75*
G02*
X504561900Y-269145600I-250000J0D01*
G01*
X503811900Y-269145600D01*
G75*
G02*
X503561900Y-268895600I0J250000D01*
G01*
X503561900Y-267645600D01*
G75*
G02*
X503811900Y-267395600I250000J0D01*
G01*
X504561900Y-267395600D01*
G75*
G02*
X504811900Y-267645600I0J-250000D01*
G01*
G37*
G36*
G01*
X507611900Y-267645600D02*
X507611900Y-268895600D01*
G75*
G02*
X507361900Y-269145600I-250000J0D01*
G01*
X506611900Y-269145600D01*
G75*
G02*
X506361900Y-268895600I0J250000D01*
G01*
X506361900Y-267645600D01*
G75*
G02*
X506611900Y-267395600I250000J0D01*
G01*
X507361900Y-267395600D01*
G75*
G02*
X507611900Y-267645600I0J-250000D01*
G01*
G37*
%TD*%
%TO.C,FB1*%
G36*
G01*
X274720300Y-178963750D02*
X274720300Y-178201250D01*
G75*
G02*
X274939050Y-177982500I218750J0D01*
G01*
X275376550Y-177982500D01*
G75*
G02*
X275595300Y-178201250I0J-218750D01*
G01*
X275595300Y-178963750D01*
G75*
G02*
X275376550Y-179182500I-218750J0D01*
G01*
X274939050Y-179182500D01*
G75*
G02*
X274720300Y-178963750I0J218750D01*
G01*
G37*
G36*
G01*
X272595300Y-178963750D02*
X272595300Y-178201250D01*
G75*
G02*
X272814050Y-177982500I218750J0D01*
G01*
X273251550Y-177982500D01*
G75*
G02*
X273470300Y-178201250I0J-218750D01*
G01*
X273470300Y-178963750D01*
G75*
G02*
X273251550Y-179182500I-218750J0D01*
G01*
X272814050Y-179182500D01*
G75*
G02*
X272595300Y-178963750I0J218750D01*
G01*
G37*
%TD*%
%TO.C,FB3*%
G36*
G01*
X513905150Y-197006300D02*
X513142650Y-197006300D01*
G75*
G02*
X512923900Y-196787550I0J218750D01*
G01*
X512923900Y-196350050D01*
G75*
G02*
X513142650Y-196131300I218750J0D01*
G01*
X513905150Y-196131300D01*
G75*
G02*
X514123900Y-196350050I0J-218750D01*
G01*
X514123900Y-196787550D01*
G75*
G02*
X513905150Y-197006300I-218750J0D01*
G01*
G37*
G36*
G01*
X513905150Y-199131300D02*
X513142650Y-199131300D01*
G75*
G02*
X512923900Y-198912550I0J218750D01*
G01*
X512923900Y-198475050D01*
G75*
G02*
X513142650Y-198256300I218750J0D01*
G01*
X513905150Y-198256300D01*
G75*
G02*
X514123900Y-198475050I0J-218750D01*
G01*
X514123900Y-198912550D01*
G75*
G02*
X513905150Y-199131300I-218750J0D01*
G01*
G37*
%TD*%
%TO.C,FB5*%
G36*
G01*
X136135150Y-213336600D02*
X136897650Y-213336600D01*
G75*
G02*
X137116400Y-213555350I0J-218750D01*
G01*
X137116400Y-213992850D01*
G75*
G02*
X136897650Y-214211600I-218750J0D01*
G01*
X136135150Y-214211600D01*
G75*
G02*
X135916400Y-213992850I0J218750D01*
G01*
X135916400Y-213555350D01*
G75*
G02*
X136135150Y-213336600I218750J0D01*
G01*
G37*
G36*
G01*
X136135150Y-211211600D02*
X136897650Y-211211600D01*
G75*
G02*
X137116400Y-211430350I0J-218750D01*
G01*
X137116400Y-211867850D01*
G75*
G02*
X136897650Y-212086600I-218750J0D01*
G01*
X136135150Y-212086600D01*
G75*
G02*
X135916400Y-211867850I0J218750D01*
G01*
X135916400Y-211430350D01*
G75*
G02*
X136135150Y-211211600I218750J0D01*
G01*
G37*
%TD*%
%TO.C,FB2*%
G36*
G01*
X358921100Y-178201250D02*
X358921100Y-178963750D01*
G75*
G02*
X358702350Y-179182500I-218750J0D01*
G01*
X358264850Y-179182500D01*
G75*
G02*
X358046100Y-178963750I0J218750D01*
G01*
X358046100Y-178201250D01*
G75*
G02*
X358264850Y-177982500I218750J0D01*
G01*
X358702350Y-177982500D01*
G75*
G02*
X358921100Y-178201250I0J-218750D01*
G01*
G37*
G36*
G01*
X361046100Y-178201250D02*
X361046100Y-178963750D01*
G75*
G02*
X360827350Y-179182500I-218750J0D01*
G01*
X360389850Y-179182500D01*
G75*
G02*
X360171100Y-178963750I0J218750D01*
G01*
X360171100Y-178201250D01*
G75*
G02*
X360389850Y-177982500I218750J0D01*
G01*
X360827350Y-177982500D01*
G75*
G02*
X361046100Y-178201250I0J-218750D01*
G01*
G37*
%TD*%
%TO.C,FB4*%
G36*
G01*
X477638700Y-178170050D02*
X477638700Y-177407550D01*
G75*
G02*
X477857450Y-177188800I218750J0D01*
G01*
X478294950Y-177188800D01*
G75*
G02*
X478513700Y-177407550I0J-218750D01*
G01*
X478513700Y-178170050D01*
G75*
G02*
X478294950Y-178388800I-218750J0D01*
G01*
X477857450Y-178388800D01*
G75*
G02*
X477638700Y-178170050I0J218750D01*
G01*
G37*
G36*
G01*
X475513700Y-178170050D02*
X475513700Y-177407550D01*
G75*
G02*
X475732450Y-177188800I218750J0D01*
G01*
X476169950Y-177188800D01*
G75*
G02*
X476388700Y-177407550I0J-218750D01*
G01*
X476388700Y-178170050D01*
G75*
G02*
X476169950Y-178388800I-218750J0D01*
G01*
X475732450Y-178388800D01*
G75*
G02*
X475513700Y-178170050I0J218750D01*
G01*
G37*
%TD*%
%TO.C,FB6*%
G36*
G01*
X182382300Y-178170050D02*
X182382300Y-177407550D01*
G75*
G02*
X182601050Y-177188800I218750J0D01*
G01*
X183038550Y-177188800D01*
G75*
G02*
X183257300Y-177407550I0J-218750D01*
G01*
X183257300Y-178170050D01*
G75*
G02*
X183038550Y-178388800I-218750J0D01*
G01*
X182601050Y-178388800D01*
G75*
G02*
X182382300Y-178170050I0J218750D01*
G01*
G37*
G36*
G01*
X180257300Y-178170050D02*
X180257300Y-177407550D01*
G75*
G02*
X180476050Y-177188800I218750J0D01*
G01*
X180913550Y-177188800D01*
G75*
G02*
X181132300Y-177407550I0J-218750D01*
G01*
X181132300Y-178170050D01*
G75*
G02*
X180913550Y-178388800I-218750J0D01*
G01*
X180476050Y-178388800D01*
G75*
G02*
X180257300Y-178170050I0J218750D01*
G01*
G37*
%TD*%
%TO.C,FB7*%
G36*
G01*
X515523750Y-265720800D02*
X516286250Y-265720800D01*
G75*
G02*
X516505000Y-265939550I0J-218750D01*
G01*
X516505000Y-266377050D01*
G75*
G02*
X516286250Y-266595800I-218750J0D01*
G01*
X515523750Y-266595800D01*
G75*
G02*
X515305000Y-266377050I0J218750D01*
G01*
X515305000Y-265939550D01*
G75*
G02*
X515523750Y-265720800I218750J0D01*
G01*
G37*
G36*
G01*
X515523750Y-263595800D02*
X516286250Y-263595800D01*
G75*
G02*
X516505000Y-263814550I0J-218750D01*
G01*
X516505000Y-264252050D01*
G75*
G02*
X516286250Y-264470800I-218750J0D01*
G01*
X515523750Y-264470800D01*
G75*
G02*
X515305000Y-264252050I0J218750D01*
G01*
X515305000Y-263814550D01*
G75*
G02*
X515523750Y-263595800I218750J0D01*
G01*
G37*
%TD*%
%TO.C,J2*%
G36*
G01*
X282379250Y-294212700D02*
X282379250Y-292012700D01*
G75*
G02*
X282629250Y-291762700I250000J0D01*
G01*
X283129250Y-291762700D01*
G75*
G02*
X283379250Y-292012700I0J-250000D01*
G01*
X283379250Y-294212700D01*
G75*
G02*
X283129250Y-294462700I-250000J0D01*
G01*
X282629250Y-294462700D01*
G75*
G02*
X282379250Y-294212700I0J250000D01*
G01*
G37*
G36*
G01*
X276179250Y-294212700D02*
X276179250Y-292012700D01*
G75*
G02*
X276429250Y-291762700I250000J0D01*
G01*
X276929250Y-291762700D01*
G75*
G02*
X277179250Y-292012700I0J-250000D01*
G01*
X277179250Y-294212700D01*
G75*
G02*
X276929250Y-294462700I-250000J0D01*
G01*
X276429250Y-294462700D01*
G75*
G02*
X276179250Y-294212700I0J250000D01*
G01*
G37*
G36*
G01*
X280729250Y-297012700D02*
X280729250Y-295612700D01*
G75*
G02*
X280879250Y-295462700I150000J0D01*
G01*
X281179250Y-295462700D01*
G75*
G02*
X281329250Y-295612700I0J-150000D01*
G01*
X281329250Y-297012700D01*
G75*
G02*
X281179250Y-297162700I-150000J0D01*
G01*
X280879250Y-297162700D01*
G75*
G02*
X280729250Y-297012700I0J150000D01*
G01*
G37*
G36*
G01*
X279479250Y-297012700D02*
X279479250Y-295612700D01*
G75*
G02*
X279629250Y-295462700I150000J0D01*
G01*
X279929250Y-295462700D01*
G75*
G02*
X280079250Y-295612700I0J-150000D01*
G01*
X280079250Y-297012700D01*
G75*
G02*
X279929250Y-297162700I-150000J0D01*
G01*
X279629250Y-297162700D01*
G75*
G02*
X279479250Y-297012700I0J150000D01*
G01*
G37*
G36*
G01*
X278229250Y-297012700D02*
X278229250Y-295612700D01*
G75*
G02*
X278379250Y-295462700I150000J0D01*
G01*
X278679250Y-295462700D01*
G75*
G02*
X278829250Y-295612700I0J-150000D01*
G01*
X278829250Y-297012700D01*
G75*
G02*
X278679250Y-297162700I-150000J0D01*
G01*
X278379250Y-297162700D01*
G75*
G02*
X278229250Y-297012700I0J150000D01*
G01*
G37*
%TD*%
D20*
%TO.C,Q1*%
X260143050Y-290494200D03*
X258143050Y-289544200D03*
X258143050Y-291444200D03*
%TD*%
%TO.C,R43*%
G36*
G01*
X345659500Y-293325302D02*
X345659500Y-292425298D01*
G75*
G02*
X345909498Y-292175300I249998J0D01*
G01*
X346434502Y-292175300D01*
G75*
G02*
X346684500Y-292425298I0J-249998D01*
G01*
X346684500Y-293325302D01*
G75*
G02*
X346434502Y-293575300I-249998J0D01*
G01*
X345909498Y-293575300D01*
G75*
G02*
X345659500Y-293325302I0J249998D01*
G01*
G37*
G36*
G01*
X343834500Y-293325302D02*
X343834500Y-292425298D01*
G75*
G02*
X344084498Y-292175300I249998J0D01*
G01*
X344609502Y-292175300D01*
G75*
G02*
X344859500Y-292425298I0J-249998D01*
G01*
X344859500Y-293325302D01*
G75*
G02*
X344609502Y-293575300I-249998J0D01*
G01*
X344084498Y-293575300D01*
G75*
G02*
X343834500Y-293325302I0J249998D01*
G01*
G37*
%TD*%
%TO.C,R24*%
G36*
G01*
X487278648Y-198825000D02*
X488178652Y-198825000D01*
G75*
G02*
X488428650Y-199074998I0J-249998D01*
G01*
X488428650Y-199600002D01*
G75*
G02*
X488178652Y-199850000I-249998J0D01*
G01*
X487278648Y-199850000D01*
G75*
G02*
X487028650Y-199600002I0J249998D01*
G01*
X487028650Y-199074998D01*
G75*
G02*
X487278648Y-198825000I249998J0D01*
G01*
G37*
G36*
G01*
X487278648Y-197000000D02*
X488178652Y-197000000D01*
G75*
G02*
X488428650Y-197249998I0J-249998D01*
G01*
X488428650Y-197775002D01*
G75*
G02*
X488178652Y-198025000I-249998J0D01*
G01*
X487278648Y-198025000D01*
G75*
G02*
X487028650Y-197775002I0J249998D01*
G01*
X487028650Y-197249998D01*
G75*
G02*
X487278648Y-197000000I249998J0D01*
G01*
G37*
%TD*%
%TO.C,R25*%
G36*
G01*
X484897548Y-198825000D02*
X485797552Y-198825000D01*
G75*
G02*
X486047550Y-199074998I0J-249998D01*
G01*
X486047550Y-199600002D01*
G75*
G02*
X485797552Y-199850000I-249998J0D01*
G01*
X484897548Y-199850000D01*
G75*
G02*
X484647550Y-199600002I0J249998D01*
G01*
X484647550Y-199074998D01*
G75*
G02*
X484897548Y-198825000I249998J0D01*
G01*
G37*
G36*
G01*
X484897548Y-197000000D02*
X485797552Y-197000000D01*
G75*
G02*
X486047550Y-197249998I0J-249998D01*
G01*
X486047550Y-197775002D01*
G75*
G02*
X485797552Y-198025000I-249998J0D01*
G01*
X484897548Y-198025000D01*
G75*
G02*
X484647550Y-197775002I0J249998D01*
G01*
X484647550Y-197249998D01*
G75*
G02*
X484897548Y-197000000I249998J0D01*
G01*
G37*
%TD*%
%TO.C,R44*%
G36*
G01*
X345659500Y-296500102D02*
X345659500Y-295600098D01*
G75*
G02*
X345909498Y-295350100I249998J0D01*
G01*
X346434502Y-295350100D01*
G75*
G02*
X346684500Y-295600098I0J-249998D01*
G01*
X346684500Y-296500102D01*
G75*
G02*
X346434502Y-296750100I-249998J0D01*
G01*
X345909498Y-296750100D01*
G75*
G02*
X345659500Y-296500102I0J249998D01*
G01*
G37*
G36*
G01*
X343834500Y-296500102D02*
X343834500Y-295600098D01*
G75*
G02*
X344084498Y-295350100I249998J0D01*
G01*
X344609502Y-295350100D01*
G75*
G02*
X344859500Y-295600098I0J-249998D01*
G01*
X344859500Y-296500102D01*
G75*
G02*
X344609502Y-296750100I-249998J0D01*
G01*
X344084498Y-296750100D01*
G75*
G02*
X343834500Y-296500102I0J249998D01*
G01*
G37*
%TD*%
%TO.C,R42*%
G36*
G01*
X349678002Y-295768900D02*
X348777998Y-295768900D01*
G75*
G02*
X348528000Y-295518902I0J249998D01*
G01*
X348528000Y-294993898D01*
G75*
G02*
X348777998Y-294743900I249998J0D01*
G01*
X349678002Y-294743900D01*
G75*
G02*
X349928000Y-294993898I0J-249998D01*
G01*
X349928000Y-295518902D01*
G75*
G02*
X349678002Y-295768900I-249998J0D01*
G01*
G37*
G36*
G01*
X349678002Y-297593900D02*
X348777998Y-297593900D01*
G75*
G02*
X348528000Y-297343902I0J249998D01*
G01*
X348528000Y-296818898D01*
G75*
G02*
X348777998Y-296568900I249998J0D01*
G01*
X349678002Y-296568900D01*
G75*
G02*
X349928000Y-296818898I0J-249998D01*
G01*
X349928000Y-297343902D01*
G75*
G02*
X349678002Y-297593900I-249998J0D01*
G01*
G37*
%TD*%
%TO.C,R16*%
G36*
G01*
X311077248Y-298037500D02*
X311977252Y-298037500D01*
G75*
G02*
X312227250Y-298287498I0J-249998D01*
G01*
X312227250Y-298812502D01*
G75*
G02*
X311977252Y-299062500I-249998J0D01*
G01*
X311077248Y-299062500D01*
G75*
G02*
X310827250Y-298812502I0J249998D01*
G01*
X310827250Y-298287498D01*
G75*
G02*
X311077248Y-298037500I249998J0D01*
G01*
G37*
G36*
G01*
X311077248Y-296212500D02*
X311977252Y-296212500D01*
G75*
G02*
X312227250Y-296462498I0J-249998D01*
G01*
X312227250Y-296987502D01*
G75*
G02*
X311977252Y-297237500I-249998J0D01*
G01*
X311077248Y-297237500D01*
G75*
G02*
X310827250Y-296987502I0J249998D01*
G01*
X310827250Y-296462498D01*
G75*
G02*
X311077248Y-296212500I249998J0D01*
G01*
G37*
%TD*%
%TO.C,R5*%
G36*
G01*
X317533152Y-290094200D02*
X316633148Y-290094200D01*
G75*
G02*
X316383150Y-289844202I0J249998D01*
G01*
X316383150Y-289319198D01*
G75*
G02*
X316633148Y-289069200I249998J0D01*
G01*
X317533152Y-289069200D01*
G75*
G02*
X317783150Y-289319198I0J-249998D01*
G01*
X317783150Y-289844202D01*
G75*
G02*
X317533152Y-290094200I-249998J0D01*
G01*
G37*
G36*
G01*
X317533152Y-291919200D02*
X316633148Y-291919200D01*
G75*
G02*
X316383150Y-291669202I0J249998D01*
G01*
X316383150Y-291144198D01*
G75*
G02*
X316633148Y-290894200I249998J0D01*
G01*
X317533152Y-290894200D01*
G75*
G02*
X317783150Y-291144198I0J-249998D01*
G01*
X317783150Y-291669202D01*
G75*
G02*
X317533152Y-291919200I-249998J0D01*
G01*
G37*
%TD*%
%TO.C,R27*%
G36*
G01*
X504343198Y-209143100D02*
X505243202Y-209143100D01*
G75*
G02*
X505493200Y-209393098I0J-249998D01*
G01*
X505493200Y-209918102D01*
G75*
G02*
X505243202Y-210168100I-249998J0D01*
G01*
X504343198Y-210168100D01*
G75*
G02*
X504093200Y-209918102I0J249998D01*
G01*
X504093200Y-209393098D01*
G75*
G02*
X504343198Y-209143100I249998J0D01*
G01*
G37*
G36*
G01*
X504343198Y-207318100D02*
X505243202Y-207318100D01*
G75*
G02*
X505493200Y-207568098I0J-249998D01*
G01*
X505493200Y-208093102D01*
G75*
G02*
X505243202Y-208343100I-249998J0D01*
G01*
X504343198Y-208343100D01*
G75*
G02*
X504093200Y-208093102I0J249998D01*
G01*
X504093200Y-207568098D01*
G75*
G02*
X504343198Y-207318100I249998J0D01*
G01*
G37*
%TD*%
%TO.C,R35*%
G36*
G01*
X146490802Y-200406100D02*
X145590798Y-200406100D01*
G75*
G02*
X145340800Y-200156102I0J249998D01*
G01*
X145340800Y-199631098D01*
G75*
G02*
X145590798Y-199381100I249998J0D01*
G01*
X146490802Y-199381100D01*
G75*
G02*
X146740800Y-199631098I0J-249998D01*
G01*
X146740800Y-200156102D01*
G75*
G02*
X146490802Y-200406100I-249998J0D01*
G01*
G37*
G36*
G01*
X146490802Y-202231100D02*
X145590798Y-202231100D01*
G75*
G02*
X145340800Y-201981102I0J249998D01*
G01*
X145340800Y-201456098D01*
G75*
G02*
X145590798Y-201206100I249998J0D01*
G01*
X146490802Y-201206100D01*
G75*
G02*
X146740800Y-201456098I0J-249998D01*
G01*
X146740800Y-201981102D01*
G75*
G02*
X146490802Y-202231100I-249998J0D01*
G01*
G37*
%TD*%
%TO.C,R10*%
G36*
G01*
X363908300Y-181307298D02*
X363908300Y-182207302D01*
G75*
G02*
X363658302Y-182457300I-249998J0D01*
G01*
X363133298Y-182457300D01*
G75*
G02*
X362883300Y-182207302I0J249998D01*
G01*
X362883300Y-181307298D01*
G75*
G02*
X363133298Y-181057300I249998J0D01*
G01*
X363658302Y-181057300D01*
G75*
G02*
X363908300Y-181307298I0J-249998D01*
G01*
G37*
G36*
G01*
X365733300Y-181307298D02*
X365733300Y-182207302D01*
G75*
G02*
X365483302Y-182457300I-249998J0D01*
G01*
X364958298Y-182457300D01*
G75*
G02*
X364708300Y-182207302I0J249998D01*
G01*
X364708300Y-181307298D01*
G75*
G02*
X364958298Y-181057300I249998J0D01*
G01*
X365483302Y-181057300D01*
G75*
G02*
X365733300Y-181307298I0J-249998D01*
G01*
G37*
%TD*%
%TO.C,R28*%
G36*
G01*
X507568000Y-201149798D02*
X507568000Y-202049802D01*
G75*
G02*
X507318002Y-202299800I-249998J0D01*
G01*
X506792998Y-202299800D01*
G75*
G02*
X506543000Y-202049802I0J249998D01*
G01*
X506543000Y-201149798D01*
G75*
G02*
X506792998Y-200899800I249998J0D01*
G01*
X507318002Y-200899800D01*
G75*
G02*
X507568000Y-201149798I0J-249998D01*
G01*
G37*
G36*
G01*
X509393000Y-201149798D02*
X509393000Y-202049802D01*
G75*
G02*
X509143002Y-202299800I-249998J0D01*
G01*
X508617998Y-202299800D01*
G75*
G02*
X508368000Y-202049802I0J249998D01*
G01*
X508368000Y-201149798D01*
G75*
G02*
X508617998Y-200899800I249998J0D01*
G01*
X509143002Y-200899800D01*
G75*
G02*
X509393000Y-201149798I0J-249998D01*
G01*
G37*
%TD*%
%TO.C,R36*%
G36*
G01*
X146440800Y-208399402D02*
X146440800Y-207499398D01*
G75*
G02*
X146690798Y-207249400I249998J0D01*
G01*
X147215802Y-207249400D01*
G75*
G02*
X147465800Y-207499398I0J-249998D01*
G01*
X147465800Y-208399402D01*
G75*
G02*
X147215802Y-208649400I-249998J0D01*
G01*
X146690798Y-208649400D01*
G75*
G02*
X146440800Y-208399402I0J249998D01*
G01*
G37*
G36*
G01*
X144615800Y-208399402D02*
X144615800Y-207499398D01*
G75*
G02*
X144865798Y-207249400I249998J0D01*
G01*
X145390802Y-207249400D01*
G75*
G02*
X145640800Y-207499398I0J-249998D01*
G01*
X145640800Y-208399402D01*
G75*
G02*
X145390802Y-208649400I-249998J0D01*
G01*
X144865798Y-208649400D01*
G75*
G02*
X144615800Y-208399402I0J249998D01*
G01*
G37*
%TD*%
%TO.C,R11*%
G36*
G01*
X371851600Y-183001002D02*
X371851600Y-182100998D01*
G75*
G02*
X372101598Y-181851000I249998J0D01*
G01*
X372626602Y-181851000D01*
G75*
G02*
X372876600Y-182100998I0J-249998D01*
G01*
X372876600Y-183001002D01*
G75*
G02*
X372626602Y-183251000I-249998J0D01*
G01*
X372101598Y-183251000D01*
G75*
G02*
X371851600Y-183001002I0J249998D01*
G01*
G37*
G36*
G01*
X370026600Y-183001002D02*
X370026600Y-182100998D01*
G75*
G02*
X370276598Y-181851000I249998J0D01*
G01*
X370801602Y-181851000D01*
G75*
G02*
X371051600Y-182100998I0J-249998D01*
G01*
X371051600Y-183001002D01*
G75*
G02*
X370801602Y-183251000I-249998J0D01*
G01*
X370276598Y-183251000D01*
G75*
G02*
X370026600Y-183001002I0J249998D01*
G01*
G37*
%TD*%
%TO.C,R19*%
G36*
G01*
X500424700Y-205515148D02*
X500424700Y-206415152D01*
G75*
G02*
X500174702Y-206665150I-249998J0D01*
G01*
X499649698Y-206665150D01*
G75*
G02*
X499399700Y-206415152I0J249998D01*
G01*
X499399700Y-205515148D01*
G75*
G02*
X499649698Y-205265150I249998J0D01*
G01*
X500174702Y-205265150D01*
G75*
G02*
X500424700Y-205515148I0J-249998D01*
G01*
G37*
G36*
G01*
X502249700Y-205515148D02*
X502249700Y-206415152D01*
G75*
G02*
X501999702Y-206665150I-249998J0D01*
G01*
X501474698Y-206665150D01*
G75*
G02*
X501224700Y-206415152I0J249998D01*
G01*
X501224700Y-205515148D01*
G75*
G02*
X501474698Y-205265150I249998J0D01*
G01*
X501999702Y-205265150D01*
G75*
G02*
X502249700Y-205515148I0J-249998D01*
G01*
G37*
%TD*%
%TO.C,R20*%
G36*
G01*
X500424700Y-203134048D02*
X500424700Y-204034052D01*
G75*
G02*
X500174702Y-204284050I-249998J0D01*
G01*
X499649698Y-204284050D01*
G75*
G02*
X499399700Y-204034052I0J249998D01*
G01*
X499399700Y-203134048D01*
G75*
G02*
X499649698Y-202884050I249998J0D01*
G01*
X500174702Y-202884050D01*
G75*
G02*
X500424700Y-203134048I0J-249998D01*
G01*
G37*
G36*
G01*
X502249700Y-203134048D02*
X502249700Y-204034052D01*
G75*
G02*
X501999702Y-204284050I-249998J0D01*
G01*
X501474698Y-204284050D01*
G75*
G02*
X501224700Y-204034052I0J249998D01*
G01*
X501224700Y-203134048D01*
G75*
G02*
X501474698Y-202884050I249998J0D01*
G01*
X501999702Y-202884050D01*
G75*
G02*
X502249700Y-203134048I0J-249998D01*
G01*
G37*
%TD*%
%TO.C,R31*%
G36*
G01*
X154377800Y-206415152D02*
X154377800Y-205515148D01*
G75*
G02*
X154627798Y-205265150I249998J0D01*
G01*
X155152802Y-205265150D01*
G75*
G02*
X155402800Y-205515148I0J-249998D01*
G01*
X155402800Y-206415152D01*
G75*
G02*
X155152802Y-206665150I-249998J0D01*
G01*
X154627798Y-206665150D01*
G75*
G02*
X154377800Y-206415152I0J249998D01*
G01*
G37*
G36*
G01*
X152552800Y-206415152D02*
X152552800Y-205515148D01*
G75*
G02*
X152802798Y-205265150I249998J0D01*
G01*
X153327802Y-205265150D01*
G75*
G02*
X153577800Y-205515148I0J-249998D01*
G01*
X153577800Y-206415152D01*
G75*
G02*
X153327802Y-206665150I-249998J0D01*
G01*
X152802798Y-206665150D01*
G75*
G02*
X152552800Y-206415152I0J249998D01*
G01*
G37*
%TD*%
%TO.C,R33*%
G36*
G01*
X154377800Y-204034052D02*
X154377800Y-203134048D01*
G75*
G02*
X154627798Y-202884050I249998J0D01*
G01*
X155152802Y-202884050D01*
G75*
G02*
X155402800Y-203134048I0J-249998D01*
G01*
X155402800Y-204034052D01*
G75*
G02*
X155152802Y-204284050I-249998J0D01*
G01*
X154627798Y-204284050D01*
G75*
G02*
X154377800Y-204034052I0J249998D01*
G01*
G37*
G36*
G01*
X152552800Y-204034052D02*
X152552800Y-203134048D01*
G75*
G02*
X152802798Y-202884050I249998J0D01*
G01*
X153327802Y-202884050D01*
G75*
G02*
X153577800Y-203134048I0J-249998D01*
G01*
X153577800Y-204034052D01*
G75*
G02*
X153327802Y-204284050I-249998J0D01*
G01*
X152802798Y-204284050D01*
G75*
G02*
X152552800Y-204034052I0J249998D01*
G01*
G37*
%TD*%
%TO.C,R3*%
G36*
G01*
X366742552Y-196437600D02*
X365842548Y-196437600D01*
G75*
G02*
X365592550Y-196187602I0J249998D01*
G01*
X365592550Y-195662598D01*
G75*
G02*
X365842548Y-195412600I249998J0D01*
G01*
X366742552Y-195412600D01*
G75*
G02*
X366992550Y-195662598I0J-249998D01*
G01*
X366992550Y-196187602D01*
G75*
G02*
X366742552Y-196437600I-249998J0D01*
G01*
G37*
G36*
G01*
X366742552Y-198262600D02*
X365842548Y-198262600D01*
G75*
G02*
X365592550Y-198012602I0J249998D01*
G01*
X365592550Y-197487598D01*
G75*
G02*
X365842548Y-197237600I249998J0D01*
G01*
X366742552Y-197237600D01*
G75*
G02*
X366992550Y-197487598I0J-249998D01*
G01*
X366992550Y-198012602D01*
G75*
G02*
X366742552Y-198262600I-249998J0D01*
G01*
G37*
%TD*%
%TO.C,R6*%
G36*
G01*
X369123652Y-196437600D02*
X368223648Y-196437600D01*
G75*
G02*
X367973650Y-196187602I0J249998D01*
G01*
X367973650Y-195662598D01*
G75*
G02*
X368223648Y-195412600I249998J0D01*
G01*
X369123652Y-195412600D01*
G75*
G02*
X369373650Y-195662598I0J-249998D01*
G01*
X369373650Y-196187602D01*
G75*
G02*
X369123652Y-196437600I-249998J0D01*
G01*
G37*
G36*
G01*
X369123652Y-198262600D02*
X368223648Y-198262600D01*
G75*
G02*
X367973650Y-198012602I0J249998D01*
G01*
X367973650Y-197487598D01*
G75*
G02*
X368223648Y-197237600I249998J0D01*
G01*
X369123652Y-197237600D01*
G75*
G02*
X369373650Y-197487598I0J-249998D01*
G01*
X369373650Y-198012602D01*
G75*
G02*
X369123652Y-198262600I-249998J0D01*
G01*
G37*
%TD*%
%TO.C,R34*%
G36*
G01*
X192022248Y-196047050D02*
X192922252Y-196047050D01*
G75*
G02*
X193172250Y-196297048I0J-249998D01*
G01*
X193172250Y-196822052D01*
G75*
G02*
X192922252Y-197072050I-249998J0D01*
G01*
X192022248Y-197072050D01*
G75*
G02*
X191772250Y-196822052I0J249998D01*
G01*
X191772250Y-196297048D01*
G75*
G02*
X192022248Y-196047050I249998J0D01*
G01*
G37*
G36*
G01*
X192022248Y-194222050D02*
X192922252Y-194222050D01*
G75*
G02*
X193172250Y-194472048I0J-249998D01*
G01*
X193172250Y-194997052D01*
G75*
G02*
X192922252Y-195247050I-249998J0D01*
G01*
X192022248Y-195247050D01*
G75*
G02*
X191772250Y-194997052I0J249998D01*
G01*
X191772250Y-194472048D01*
G75*
G02*
X192022248Y-194222050I249998J0D01*
G01*
G37*
%TD*%
%TO.C,R37*%
G36*
G01*
X189641148Y-196047050D02*
X190541152Y-196047050D01*
G75*
G02*
X190791150Y-196297048I0J-249998D01*
G01*
X190791150Y-196822052D01*
G75*
G02*
X190541152Y-197072050I-249998J0D01*
G01*
X189641148Y-197072050D01*
G75*
G02*
X189391150Y-196822052I0J249998D01*
G01*
X189391150Y-196297048D01*
G75*
G02*
X189641148Y-196047050I249998J0D01*
G01*
G37*
G36*
G01*
X189641148Y-194222050D02*
X190541152Y-194222050D01*
G75*
G02*
X190791150Y-194472048I0J-249998D01*
G01*
X190791150Y-194997052D01*
G75*
G02*
X190541152Y-195247050I-249998J0D01*
G01*
X189641148Y-195247050D01*
G75*
G02*
X189391150Y-194997052I0J249998D01*
G01*
X189391150Y-194472048D01*
G75*
G02*
X189641148Y-194222050I249998J0D01*
G01*
G37*
%TD*%
%TO.C,R45*%
G36*
G01*
X501565248Y-278988700D02*
X502465252Y-278988700D01*
G75*
G02*
X502715250Y-279238698I0J-249998D01*
G01*
X502715250Y-279763702D01*
G75*
G02*
X502465252Y-280013700I-249998J0D01*
G01*
X501565248Y-280013700D01*
G75*
G02*
X501315250Y-279763702I0J249998D01*
G01*
X501315250Y-279238698D01*
G75*
G02*
X501565248Y-278988700I249998J0D01*
G01*
G37*
G36*
G01*
X501565248Y-277163700D02*
X502465252Y-277163700D01*
G75*
G02*
X502715250Y-277413698I0J-249998D01*
G01*
X502715250Y-277938702D01*
G75*
G02*
X502465252Y-278188700I-249998J0D01*
G01*
X501565248Y-278188700D01*
G75*
G02*
X501315250Y-277938702I0J249998D01*
G01*
X501315250Y-277413698D01*
G75*
G02*
X501565248Y-277163700I249998J0D01*
G01*
G37*
%TD*%
%TO.C,R46*%
G36*
G01*
X499184148Y-278988700D02*
X500084152Y-278988700D01*
G75*
G02*
X500334150Y-279238698I0J-249998D01*
G01*
X500334150Y-279763702D01*
G75*
G02*
X500084152Y-280013700I-249998J0D01*
G01*
X499184148Y-280013700D01*
G75*
G02*
X498934150Y-279763702I0J249998D01*
G01*
X498934150Y-279238698D01*
G75*
G02*
X499184148Y-278988700I249998J0D01*
G01*
G37*
G36*
G01*
X499184148Y-277163700D02*
X500084152Y-277163700D01*
G75*
G02*
X500334150Y-277413698I0J-249998D01*
G01*
X500334150Y-277938702D01*
G75*
G02*
X500084152Y-278188700I-249998J0D01*
G01*
X499184148Y-278188700D01*
G75*
G02*
X498934150Y-277938702I0J249998D01*
G01*
X498934150Y-277413698D01*
G75*
G02*
X499184148Y-277163700I249998J0D01*
G01*
G37*
%TD*%
D21*
%TO.C,SW1*%
X253512350Y-295519000D03*
X247312350Y-291819000D03*
X253512350Y-291819000D03*
X247312350Y-295519000D03*
%TD*%
D22*
%TO.C,U11*%
X277001300Y-303002850D03*
X277951300Y-301002850D03*
X276051300Y-301002850D03*
%TD*%
%TO.C,U9*%
G36*
G01*
X328072900Y-298494000D02*
X328072900Y-297169000D01*
G75*
G02*
X328147900Y-297094000I75000J0D01*
G01*
X328297900Y-297094000D01*
G75*
G02*
X328372900Y-297169000I0J-75000D01*
G01*
X328372900Y-298494000D01*
G75*
G02*
X328297900Y-298569000I-75000J0D01*
G01*
X328147900Y-298569000D01*
G75*
G02*
X328072900Y-298494000I0J75000D01*
G01*
G37*
G36*
G01*
X328572900Y-298494000D02*
X328572900Y-297169000D01*
G75*
G02*
X328647900Y-297094000I75000J0D01*
G01*
X328797900Y-297094000D01*
G75*
G02*
X328872900Y-297169000I0J-75000D01*
G01*
X328872900Y-298494000D01*
G75*
G02*
X328797900Y-298569000I-75000J0D01*
G01*
X328647900Y-298569000D01*
G75*
G02*
X328572900Y-298494000I0J75000D01*
G01*
G37*
G36*
G01*
X329072900Y-298494000D02*
X329072900Y-297169000D01*
G75*
G02*
X329147900Y-297094000I75000J0D01*
G01*
X329297900Y-297094000D01*
G75*
G02*
X329372900Y-297169000I0J-75000D01*
G01*
X329372900Y-298494000D01*
G75*
G02*
X329297900Y-298569000I-75000J0D01*
G01*
X329147900Y-298569000D01*
G75*
G02*
X329072900Y-298494000I0J75000D01*
G01*
G37*
G36*
G01*
X329572900Y-298494000D02*
X329572900Y-297169000D01*
G75*
G02*
X329647900Y-297094000I75000J0D01*
G01*
X329797900Y-297094000D01*
G75*
G02*
X329872900Y-297169000I0J-75000D01*
G01*
X329872900Y-298494000D01*
G75*
G02*
X329797900Y-298569000I-75000J0D01*
G01*
X329647900Y-298569000D01*
G75*
G02*
X329572900Y-298494000I0J75000D01*
G01*
G37*
G36*
G01*
X330072900Y-298494000D02*
X330072900Y-297169000D01*
G75*
G02*
X330147900Y-297094000I75000J0D01*
G01*
X330297900Y-297094000D01*
G75*
G02*
X330372900Y-297169000I0J-75000D01*
G01*
X330372900Y-298494000D01*
G75*
G02*
X330297900Y-298569000I-75000J0D01*
G01*
X330147900Y-298569000D01*
G75*
G02*
X330072900Y-298494000I0J75000D01*
G01*
G37*
G36*
G01*
X330572900Y-298494000D02*
X330572900Y-297169000D01*
G75*
G02*
X330647900Y-297094000I75000J0D01*
G01*
X330797900Y-297094000D01*
G75*
G02*
X330872900Y-297169000I0J-75000D01*
G01*
X330872900Y-298494000D01*
G75*
G02*
X330797900Y-298569000I-75000J0D01*
G01*
X330647900Y-298569000D01*
G75*
G02*
X330572900Y-298494000I0J75000D01*
G01*
G37*
G36*
G01*
X331072900Y-298494000D02*
X331072900Y-297169000D01*
G75*
G02*
X331147900Y-297094000I75000J0D01*
G01*
X331297900Y-297094000D01*
G75*
G02*
X331372900Y-297169000I0J-75000D01*
G01*
X331372900Y-298494000D01*
G75*
G02*
X331297900Y-298569000I-75000J0D01*
G01*
X331147900Y-298569000D01*
G75*
G02*
X331072900Y-298494000I0J75000D01*
G01*
G37*
G36*
G01*
X331572900Y-298494000D02*
X331572900Y-297169000D01*
G75*
G02*
X331647900Y-297094000I75000J0D01*
G01*
X331797900Y-297094000D01*
G75*
G02*
X331872900Y-297169000I0J-75000D01*
G01*
X331872900Y-298494000D01*
G75*
G02*
X331797900Y-298569000I-75000J0D01*
G01*
X331647900Y-298569000D01*
G75*
G02*
X331572900Y-298494000I0J75000D01*
G01*
G37*
G36*
G01*
X332072900Y-298494000D02*
X332072900Y-297169000D01*
G75*
G02*
X332147900Y-297094000I75000J0D01*
G01*
X332297900Y-297094000D01*
G75*
G02*
X332372900Y-297169000I0J-75000D01*
G01*
X332372900Y-298494000D01*
G75*
G02*
X332297900Y-298569000I-75000J0D01*
G01*
X332147900Y-298569000D01*
G75*
G02*
X332072900Y-298494000I0J75000D01*
G01*
G37*
G36*
G01*
X332572900Y-298494000D02*
X332572900Y-297169000D01*
G75*
G02*
X332647900Y-297094000I75000J0D01*
G01*
X332797900Y-297094000D01*
G75*
G02*
X332872900Y-297169000I0J-75000D01*
G01*
X332872900Y-298494000D01*
G75*
G02*
X332797900Y-298569000I-75000J0D01*
G01*
X332647900Y-298569000D01*
G75*
G02*
X332572900Y-298494000I0J75000D01*
G01*
G37*
G36*
G01*
X333072900Y-298494000D02*
X333072900Y-297169000D01*
G75*
G02*
X333147900Y-297094000I75000J0D01*
G01*
X333297900Y-297094000D01*
G75*
G02*
X333372900Y-297169000I0J-75000D01*
G01*
X333372900Y-298494000D01*
G75*
G02*
X333297900Y-298569000I-75000J0D01*
G01*
X333147900Y-298569000D01*
G75*
G02*
X333072900Y-298494000I0J75000D01*
G01*
G37*
G36*
G01*
X333572900Y-298494000D02*
X333572900Y-297169000D01*
G75*
G02*
X333647900Y-297094000I75000J0D01*
G01*
X333797900Y-297094000D01*
G75*
G02*
X333872900Y-297169000I0J-75000D01*
G01*
X333872900Y-298494000D01*
G75*
G02*
X333797900Y-298569000I-75000J0D01*
G01*
X333647900Y-298569000D01*
G75*
G02*
X333572900Y-298494000I0J75000D01*
G01*
G37*
G36*
G01*
X334397900Y-296494000D02*
X334397900Y-296344000D01*
G75*
G02*
X334472900Y-296269000I75000J0D01*
G01*
X335797900Y-296269000D01*
G75*
G02*
X335872900Y-296344000I0J-75000D01*
G01*
X335872900Y-296494000D01*
G75*
G02*
X335797900Y-296569000I-75000J0D01*
G01*
X334472900Y-296569000D01*
G75*
G02*
X334397900Y-296494000I0J75000D01*
G01*
G37*
G36*
G01*
X334397900Y-295994000D02*
X334397900Y-295844000D01*
G75*
G02*
X334472900Y-295769000I75000J0D01*
G01*
X335797900Y-295769000D01*
G75*
G02*
X335872900Y-295844000I0J-75000D01*
G01*
X335872900Y-295994000D01*
G75*
G02*
X335797900Y-296069000I-75000J0D01*
G01*
X334472900Y-296069000D01*
G75*
G02*
X334397900Y-295994000I0J75000D01*
G01*
G37*
G36*
G01*
X334397900Y-295494000D02*
X334397900Y-295344000D01*
G75*
G02*
X334472900Y-295269000I75000J0D01*
G01*
X335797900Y-295269000D01*
G75*
G02*
X335872900Y-295344000I0J-75000D01*
G01*
X335872900Y-295494000D01*
G75*
G02*
X335797900Y-295569000I-75000J0D01*
G01*
X334472900Y-295569000D01*
G75*
G02*
X334397900Y-295494000I0J75000D01*
G01*
G37*
G36*
G01*
X334397900Y-294994000D02*
X334397900Y-294844000D01*
G75*
G02*
X334472900Y-294769000I75000J0D01*
G01*
X335797900Y-294769000D01*
G75*
G02*
X335872900Y-294844000I0J-75000D01*
G01*
X335872900Y-294994000D01*
G75*
G02*
X335797900Y-295069000I-75000J0D01*
G01*
X334472900Y-295069000D01*
G75*
G02*
X334397900Y-294994000I0J75000D01*
G01*
G37*
G36*
G01*
X334397900Y-294494000D02*
X334397900Y-294344000D01*
G75*
G02*
X334472900Y-294269000I75000J0D01*
G01*
X335797900Y-294269000D01*
G75*
G02*
X335872900Y-294344000I0J-75000D01*
G01*
X335872900Y-294494000D01*
G75*
G02*
X335797900Y-294569000I-75000J0D01*
G01*
X334472900Y-294569000D01*
G75*
G02*
X334397900Y-294494000I0J75000D01*
G01*
G37*
G36*
G01*
X334397900Y-293994000D02*
X334397900Y-293844000D01*
G75*
G02*
X334472900Y-293769000I75000J0D01*
G01*
X335797900Y-293769000D01*
G75*
G02*
X335872900Y-293844000I0J-75000D01*
G01*
X335872900Y-293994000D01*
G75*
G02*
X335797900Y-294069000I-75000J0D01*
G01*
X334472900Y-294069000D01*
G75*
G02*
X334397900Y-293994000I0J75000D01*
G01*
G37*
G36*
G01*
X334397900Y-293494000D02*
X334397900Y-293344000D01*
G75*
G02*
X334472900Y-293269000I75000J0D01*
G01*
X335797900Y-293269000D01*
G75*
G02*
X335872900Y-293344000I0J-75000D01*
G01*
X335872900Y-293494000D01*
G75*
G02*
X335797900Y-293569000I-75000J0D01*
G01*
X334472900Y-293569000D01*
G75*
G02*
X334397900Y-293494000I0J75000D01*
G01*
G37*
G36*
G01*
X334397900Y-292994000D02*
X334397900Y-292844000D01*
G75*
G02*
X334472900Y-292769000I75000J0D01*
G01*
X335797900Y-292769000D01*
G75*
G02*
X335872900Y-292844000I0J-75000D01*
G01*
X335872900Y-292994000D01*
G75*
G02*
X335797900Y-293069000I-75000J0D01*
G01*
X334472900Y-293069000D01*
G75*
G02*
X334397900Y-292994000I0J75000D01*
G01*
G37*
G36*
G01*
X334397900Y-292494000D02*
X334397900Y-292344000D01*
G75*
G02*
X334472900Y-292269000I75000J0D01*
G01*
X335797900Y-292269000D01*
G75*
G02*
X335872900Y-292344000I0J-75000D01*
G01*
X335872900Y-292494000D01*
G75*
G02*
X335797900Y-292569000I-75000J0D01*
G01*
X334472900Y-292569000D01*
G75*
G02*
X334397900Y-292494000I0J75000D01*
G01*
G37*
G36*
G01*
X334397900Y-291994000D02*
X334397900Y-291844000D01*
G75*
G02*
X334472900Y-291769000I75000J0D01*
G01*
X335797900Y-291769000D01*
G75*
G02*
X335872900Y-291844000I0J-75000D01*
G01*
X335872900Y-291994000D01*
G75*
G02*
X335797900Y-292069000I-75000J0D01*
G01*
X334472900Y-292069000D01*
G75*
G02*
X334397900Y-291994000I0J75000D01*
G01*
G37*
G36*
G01*
X334397900Y-291494000D02*
X334397900Y-291344000D01*
G75*
G02*
X334472900Y-291269000I75000J0D01*
G01*
X335797900Y-291269000D01*
G75*
G02*
X335872900Y-291344000I0J-75000D01*
G01*
X335872900Y-291494000D01*
G75*
G02*
X335797900Y-291569000I-75000J0D01*
G01*
X334472900Y-291569000D01*
G75*
G02*
X334397900Y-291494000I0J75000D01*
G01*
G37*
G36*
G01*
X334397900Y-290994000D02*
X334397900Y-290844000D01*
G75*
G02*
X334472900Y-290769000I75000J0D01*
G01*
X335797900Y-290769000D01*
G75*
G02*
X335872900Y-290844000I0J-75000D01*
G01*
X335872900Y-290994000D01*
G75*
G02*
X335797900Y-291069000I-75000J0D01*
G01*
X334472900Y-291069000D01*
G75*
G02*
X334397900Y-290994000I0J75000D01*
G01*
G37*
G36*
G01*
X333572900Y-290169000D02*
X333572900Y-288844000D01*
G75*
G02*
X333647900Y-288769000I75000J0D01*
G01*
X333797900Y-288769000D01*
G75*
G02*
X333872900Y-288844000I0J-75000D01*
G01*
X333872900Y-290169000D01*
G75*
G02*
X333797900Y-290244000I-75000J0D01*
G01*
X333647900Y-290244000D01*
G75*
G02*
X333572900Y-290169000I0J75000D01*
G01*
G37*
G36*
G01*
X333072900Y-290169000D02*
X333072900Y-288844000D01*
G75*
G02*
X333147900Y-288769000I75000J0D01*
G01*
X333297900Y-288769000D01*
G75*
G02*
X333372900Y-288844000I0J-75000D01*
G01*
X333372900Y-290169000D01*
G75*
G02*
X333297900Y-290244000I-75000J0D01*
G01*
X333147900Y-290244000D01*
G75*
G02*
X333072900Y-290169000I0J75000D01*
G01*
G37*
G36*
G01*
X332572900Y-290169000D02*
X332572900Y-288844000D01*
G75*
G02*
X332647900Y-288769000I75000J0D01*
G01*
X332797900Y-288769000D01*
G75*
G02*
X332872900Y-288844000I0J-75000D01*
G01*
X332872900Y-290169000D01*
G75*
G02*
X332797900Y-290244000I-75000J0D01*
G01*
X332647900Y-290244000D01*
G75*
G02*
X332572900Y-290169000I0J75000D01*
G01*
G37*
G36*
G01*
X332072900Y-290169000D02*
X332072900Y-288844000D01*
G75*
G02*
X332147900Y-288769000I75000J0D01*
G01*
X332297900Y-288769000D01*
G75*
G02*
X332372900Y-288844000I0J-75000D01*
G01*
X332372900Y-290169000D01*
G75*
G02*
X332297900Y-290244000I-75000J0D01*
G01*
X332147900Y-290244000D01*
G75*
G02*
X332072900Y-290169000I0J75000D01*
G01*
G37*
G36*
G01*
X331572900Y-290169000D02*
X331572900Y-288844000D01*
G75*
G02*
X331647900Y-288769000I75000J0D01*
G01*
X331797900Y-288769000D01*
G75*
G02*
X331872900Y-288844000I0J-75000D01*
G01*
X331872900Y-290169000D01*
G75*
G02*
X331797900Y-290244000I-75000J0D01*
G01*
X331647900Y-290244000D01*
G75*
G02*
X331572900Y-290169000I0J75000D01*
G01*
G37*
G36*
G01*
X331072900Y-290169000D02*
X331072900Y-288844000D01*
G75*
G02*
X331147900Y-288769000I75000J0D01*
G01*
X331297900Y-288769000D01*
G75*
G02*
X331372900Y-288844000I0J-75000D01*
G01*
X331372900Y-290169000D01*
G75*
G02*
X331297900Y-290244000I-75000J0D01*
G01*
X331147900Y-290244000D01*
G75*
G02*
X331072900Y-290169000I0J75000D01*
G01*
G37*
G36*
G01*
X330572900Y-290169000D02*
X330572900Y-288844000D01*
G75*
G02*
X330647900Y-288769000I75000J0D01*
G01*
X330797900Y-288769000D01*
G75*
G02*
X330872900Y-288844000I0J-75000D01*
G01*
X330872900Y-290169000D01*
G75*
G02*
X330797900Y-290244000I-75000J0D01*
G01*
X330647900Y-290244000D01*
G75*
G02*
X330572900Y-290169000I0J75000D01*
G01*
G37*
G36*
G01*
X330072900Y-290169000D02*
X330072900Y-288844000D01*
G75*
G02*
X330147900Y-288769000I75000J0D01*
G01*
X330297900Y-288769000D01*
G75*
G02*
X330372900Y-288844000I0J-75000D01*
G01*
X330372900Y-290169000D01*
G75*
G02*
X330297900Y-290244000I-75000J0D01*
G01*
X330147900Y-290244000D01*
G75*
G02*
X330072900Y-290169000I0J75000D01*
G01*
G37*
G36*
G01*
X329572900Y-290169000D02*
X329572900Y-288844000D01*
G75*
G02*
X329647900Y-288769000I75000J0D01*
G01*
X329797900Y-288769000D01*
G75*
G02*
X329872900Y-288844000I0J-75000D01*
G01*
X329872900Y-290169000D01*
G75*
G02*
X329797900Y-290244000I-75000J0D01*
G01*
X329647900Y-290244000D01*
G75*
G02*
X329572900Y-290169000I0J75000D01*
G01*
G37*
G36*
G01*
X329072900Y-290169000D02*
X329072900Y-288844000D01*
G75*
G02*
X329147900Y-288769000I75000J0D01*
G01*
X329297900Y-288769000D01*
G75*
G02*
X329372900Y-288844000I0J-75000D01*
G01*
X329372900Y-290169000D01*
G75*
G02*
X329297900Y-290244000I-75000J0D01*
G01*
X329147900Y-290244000D01*
G75*
G02*
X329072900Y-290169000I0J75000D01*
G01*
G37*
G36*
G01*
X328572900Y-290169000D02*
X328572900Y-288844000D01*
G75*
G02*
X328647900Y-288769000I75000J0D01*
G01*
X328797900Y-288769000D01*
G75*
G02*
X328872900Y-288844000I0J-75000D01*
G01*
X328872900Y-290169000D01*
G75*
G02*
X328797900Y-290244000I-75000J0D01*
G01*
X328647900Y-290244000D01*
G75*
G02*
X328572900Y-290169000I0J75000D01*
G01*
G37*
G36*
G01*
X328072900Y-290169000D02*
X328072900Y-288844000D01*
G75*
G02*
X328147900Y-288769000I75000J0D01*
G01*
X328297900Y-288769000D01*
G75*
G02*
X328372900Y-288844000I0J-75000D01*
G01*
X328372900Y-290169000D01*
G75*
G02*
X328297900Y-290244000I-75000J0D01*
G01*
X328147900Y-290244000D01*
G75*
G02*
X328072900Y-290169000I0J75000D01*
G01*
G37*
G36*
G01*
X326072900Y-290994000D02*
X326072900Y-290844000D01*
G75*
G02*
X326147900Y-290769000I75000J0D01*
G01*
X327472900Y-290769000D01*
G75*
G02*
X327547900Y-290844000I0J-75000D01*
G01*
X327547900Y-290994000D01*
G75*
G02*
X327472900Y-291069000I-75000J0D01*
G01*
X326147900Y-291069000D01*
G75*
G02*
X326072900Y-290994000I0J75000D01*
G01*
G37*
G36*
G01*
X326072900Y-291494000D02*
X326072900Y-291344000D01*
G75*
G02*
X326147900Y-291269000I75000J0D01*
G01*
X327472900Y-291269000D01*
G75*
G02*
X327547900Y-291344000I0J-75000D01*
G01*
X327547900Y-291494000D01*
G75*
G02*
X327472900Y-291569000I-75000J0D01*
G01*
X326147900Y-291569000D01*
G75*
G02*
X326072900Y-291494000I0J75000D01*
G01*
G37*
G36*
G01*
X326072900Y-291994000D02*
X326072900Y-291844000D01*
G75*
G02*
X326147900Y-291769000I75000J0D01*
G01*
X327472900Y-291769000D01*
G75*
G02*
X327547900Y-291844000I0J-75000D01*
G01*
X327547900Y-291994000D01*
G75*
G02*
X327472900Y-292069000I-75000J0D01*
G01*
X326147900Y-292069000D01*
G75*
G02*
X326072900Y-291994000I0J75000D01*
G01*
G37*
G36*
G01*
X326072900Y-292494000D02*
X326072900Y-292344000D01*
G75*
G02*
X326147900Y-292269000I75000J0D01*
G01*
X327472900Y-292269000D01*
G75*
G02*
X327547900Y-292344000I0J-75000D01*
G01*
X327547900Y-292494000D01*
G75*
G02*
X327472900Y-292569000I-75000J0D01*
G01*
X326147900Y-292569000D01*
G75*
G02*
X326072900Y-292494000I0J75000D01*
G01*
G37*
G36*
G01*
X326072900Y-292994000D02*
X326072900Y-292844000D01*
G75*
G02*
X326147900Y-292769000I75000J0D01*
G01*
X327472900Y-292769000D01*
G75*
G02*
X327547900Y-292844000I0J-75000D01*
G01*
X327547900Y-292994000D01*
G75*
G02*
X327472900Y-293069000I-75000J0D01*
G01*
X326147900Y-293069000D01*
G75*
G02*
X326072900Y-292994000I0J75000D01*
G01*
G37*
G36*
G01*
X326072900Y-293494000D02*
X326072900Y-293344000D01*
G75*
G02*
X326147900Y-293269000I75000J0D01*
G01*
X327472900Y-293269000D01*
G75*
G02*
X327547900Y-293344000I0J-75000D01*
G01*
X327547900Y-293494000D01*
G75*
G02*
X327472900Y-293569000I-75000J0D01*
G01*
X326147900Y-293569000D01*
G75*
G02*
X326072900Y-293494000I0J75000D01*
G01*
G37*
G36*
G01*
X326072900Y-293994000D02*
X326072900Y-293844000D01*
G75*
G02*
X326147900Y-293769000I75000J0D01*
G01*
X327472900Y-293769000D01*
G75*
G02*
X327547900Y-293844000I0J-75000D01*
G01*
X327547900Y-293994000D01*
G75*
G02*
X327472900Y-294069000I-75000J0D01*
G01*
X326147900Y-294069000D01*
G75*
G02*
X326072900Y-293994000I0J75000D01*
G01*
G37*
G36*
G01*
X326072900Y-294494000D02*
X326072900Y-294344000D01*
G75*
G02*
X326147900Y-294269000I75000J0D01*
G01*
X327472900Y-294269000D01*
G75*
G02*
X327547900Y-294344000I0J-75000D01*
G01*
X327547900Y-294494000D01*
G75*
G02*
X327472900Y-294569000I-75000J0D01*
G01*
X326147900Y-294569000D01*
G75*
G02*
X326072900Y-294494000I0J75000D01*
G01*
G37*
G36*
G01*
X326072900Y-294994000D02*
X326072900Y-294844000D01*
G75*
G02*
X326147900Y-294769000I75000J0D01*
G01*
X327472900Y-294769000D01*
G75*
G02*
X327547900Y-294844000I0J-75000D01*
G01*
X327547900Y-294994000D01*
G75*
G02*
X327472900Y-295069000I-75000J0D01*
G01*
X326147900Y-295069000D01*
G75*
G02*
X326072900Y-294994000I0J75000D01*
G01*
G37*
G36*
G01*
X326072900Y-295494000D02*
X326072900Y-295344000D01*
G75*
G02*
X326147900Y-295269000I75000J0D01*
G01*
X327472900Y-295269000D01*
G75*
G02*
X327547900Y-295344000I0J-75000D01*
G01*
X327547900Y-295494000D01*
G75*
G02*
X327472900Y-295569000I-75000J0D01*
G01*
X326147900Y-295569000D01*
G75*
G02*
X326072900Y-295494000I0J75000D01*
G01*
G37*
G36*
G01*
X326072900Y-295994000D02*
X326072900Y-295844000D01*
G75*
G02*
X326147900Y-295769000I75000J0D01*
G01*
X327472900Y-295769000D01*
G75*
G02*
X327547900Y-295844000I0J-75000D01*
G01*
X327547900Y-295994000D01*
G75*
G02*
X327472900Y-296069000I-75000J0D01*
G01*
X326147900Y-296069000D01*
G75*
G02*
X326072900Y-295994000I0J75000D01*
G01*
G37*
G36*
G01*
X326072900Y-296494000D02*
X326072900Y-296344000D01*
G75*
G02*
X326147900Y-296269000I75000J0D01*
G01*
X327472900Y-296269000D01*
G75*
G02*
X327547900Y-296344000I0J-75000D01*
G01*
X327547900Y-296494000D01*
G75*
G02*
X327472900Y-296569000I-75000J0D01*
G01*
X326147900Y-296569000D01*
G75*
G02*
X326072900Y-296494000I0J75000D01*
G01*
G37*
%TD*%
D23*
%TO.C,U8*%
X353309100Y-295462700D03*
D24*
X353509100Y-293462700D03*
X351609100Y-295462700D03*
X351609100Y-293462700D03*
%TD*%
D23*
%TO.C,U4*%
X507924300Y-205774600D03*
D24*
X508124300Y-203774600D03*
X506224300Y-205774600D03*
X506224300Y-203774600D03*
%TD*%
D23*
%TO.C,U6*%
X146084500Y-203774600D03*
D24*
X145884500Y-205774600D03*
X147784500Y-203774600D03*
X147784500Y-205774600D03*
%TD*%
D14*
%TO.C,U5*%
X487538100Y-188150600D03*
D15*
X485538100Y-187950600D03*
X487538100Y-189850600D03*
X485538100Y-189850600D03*
%TD*%
D23*
%TO.C,U10*%
X505543200Y-275620200D03*
D24*
X505743200Y-273620200D03*
X503843200Y-275620200D03*
X503843200Y-273620200D03*
%TD*%
D25*
%TO.C,USB7*%
X512178500Y-207999600D03*
X512178500Y-201549600D03*
X512178500Y-207224600D03*
X512178500Y-202324600D03*
D26*
X512178500Y-203024600D03*
X512178500Y-206524600D03*
X512178500Y-203524600D03*
X512178500Y-206024600D03*
X512178500Y-204024600D03*
X512178500Y-205524600D03*
X512178500Y-205024600D03*
X512178500Y-204524600D03*
%TD*%
D25*
%TO.C,USB2*%
X141830300Y-201549600D03*
X141830300Y-207999600D03*
X141830300Y-202324600D03*
X141830300Y-207224600D03*
D26*
X141830300Y-206524600D03*
X141830300Y-203024600D03*
X141830300Y-206024600D03*
X141830300Y-203524600D03*
X141830300Y-205524600D03*
X141830300Y-204024600D03*
X141830300Y-204524600D03*
X141830300Y-205024600D03*
%TD*%
D17*
%TO.C,USB5*%
X370708100Y-179134200D03*
X364258100Y-179134200D03*
X369933100Y-179134200D03*
X365033100Y-179134200D03*
D18*
X365733100Y-179134200D03*
X369233100Y-179134200D03*
X366233100Y-179134200D03*
X368733100Y-179134200D03*
X366733100Y-179134200D03*
X368233100Y-179134200D03*
X367733100Y-179134200D03*
X367233100Y-179134200D03*
%TD*%
D27*
%TO.C,IC1*%
X455952700Y-260615100D03*
X455452700Y-260615100D03*
X454952700Y-260615100D03*
X454452700Y-260615100D03*
X453952700Y-260615100D03*
X453452700Y-260615100D03*
X452952700Y-260615100D03*
X452452700Y-260615100D03*
X451952700Y-260615100D03*
X451452700Y-260615100D03*
X450952700Y-260615100D03*
X450452700Y-260615100D03*
D28*
X448952700Y-259115100D03*
X448952700Y-258615100D03*
X448952700Y-258115100D03*
X448952700Y-257615100D03*
X448952700Y-257115100D03*
X448952700Y-256615100D03*
X448952700Y-256115100D03*
X448952700Y-255615100D03*
X448952700Y-255115100D03*
X448952700Y-254615100D03*
X448952700Y-254115100D03*
X448952700Y-253615100D03*
D27*
X450452700Y-252115100D03*
X450952700Y-252115100D03*
X451452700Y-252115100D03*
X451952700Y-252115100D03*
X452452700Y-252115100D03*
X452952700Y-252115100D03*
X453452700Y-252115100D03*
X453952700Y-252115100D03*
X454452700Y-252115100D03*
X454952700Y-252115100D03*
X455452700Y-252115100D03*
X455952700Y-252115100D03*
D28*
X457452700Y-253615100D03*
X457452700Y-254115100D03*
X457452700Y-254615100D03*
X457452700Y-255115100D03*
X457452700Y-255615100D03*
X457452700Y-256115100D03*
X457452700Y-256615100D03*
X457452700Y-257115100D03*
X457452700Y-257615100D03*
X457452700Y-258115100D03*
X457452700Y-258615100D03*
X457452700Y-259115100D03*
%TD*%
%TO.C,LC2*%
G36*
G01*
X216230100Y-194775200D02*
X216230100Y-195725200D01*
G75*
G02*
X215980100Y-195975200I-250000J0D01*
G01*
X215480100Y-195975200D01*
G75*
G02*
X215230100Y-195725200I0J250000D01*
G01*
X215230100Y-194775200D01*
G75*
G02*
X215480100Y-194525200I250000J0D01*
G01*
X215980100Y-194525200D01*
G75*
G02*
X216230100Y-194775200I0J-250000D01*
G01*
G37*
G36*
G01*
X218130100Y-194775200D02*
X218130100Y-195725200D01*
G75*
G02*
X217880100Y-195975200I-250000J0D01*
G01*
X217380100Y-195975200D01*
G75*
G02*
X217130100Y-195725200I0J250000D01*
G01*
X217130100Y-194775200D01*
G75*
G02*
X217380100Y-194525200I250000J0D01*
G01*
X217880100Y-194525200D01*
G75*
G02*
X218130100Y-194775200I0J-250000D01*
G01*
G37*
%TD*%
%TO.C,LC3*%
G36*
G01*
X235278900Y-194775200D02*
X235278900Y-195725200D01*
G75*
G02*
X235028900Y-195975200I-250000J0D01*
G01*
X234528900Y-195975200D01*
G75*
G02*
X234278900Y-195725200I0J250000D01*
G01*
X234278900Y-194775200D01*
G75*
G02*
X234528900Y-194525200I250000J0D01*
G01*
X235028900Y-194525200D01*
G75*
G02*
X235278900Y-194775200I0J-250000D01*
G01*
G37*
G36*
G01*
X237178900Y-194775200D02*
X237178900Y-195725200D01*
G75*
G02*
X236928900Y-195975200I-250000J0D01*
G01*
X236428900Y-195975200D01*
G75*
G02*
X236178900Y-195725200I0J250000D01*
G01*
X236178900Y-194775200D01*
G75*
G02*
X236428900Y-194525200I250000J0D01*
G01*
X236928900Y-194525200D01*
G75*
G02*
X237178900Y-194775200I0J-250000D01*
G01*
G37*
%TD*%
%TO.C,LC4*%
G36*
G01*
X254327700Y-194775200D02*
X254327700Y-195725200D01*
G75*
G02*
X254077700Y-195975200I-250000J0D01*
G01*
X253577700Y-195975200D01*
G75*
G02*
X253327700Y-195725200I0J250000D01*
G01*
X253327700Y-194775200D01*
G75*
G02*
X253577700Y-194525200I250000J0D01*
G01*
X254077700Y-194525200D01*
G75*
G02*
X254327700Y-194775200I0J-250000D01*
G01*
G37*
G36*
G01*
X256227700Y-194775200D02*
X256227700Y-195725200D01*
G75*
G02*
X255977700Y-195975200I-250000J0D01*
G01*
X255477700Y-195975200D01*
G75*
G02*
X255227700Y-195725200I0J250000D01*
G01*
X255227700Y-194775200D01*
G75*
G02*
X255477700Y-194525200I250000J0D01*
G01*
X255977700Y-194525200D01*
G75*
G02*
X256227700Y-194775200I0J-250000D01*
G01*
G37*
%TD*%
%TO.C,LC5*%
G36*
G01*
X273376500Y-194775200D02*
X273376500Y-195725200D01*
G75*
G02*
X273126500Y-195975200I-250000J0D01*
G01*
X272626500Y-195975200D01*
G75*
G02*
X272376500Y-195725200I0J250000D01*
G01*
X272376500Y-194775200D01*
G75*
G02*
X272626500Y-194525200I250000J0D01*
G01*
X273126500Y-194525200D01*
G75*
G02*
X273376500Y-194775200I0J-250000D01*
G01*
G37*
G36*
G01*
X275276500Y-194775200D02*
X275276500Y-195725200D01*
G75*
G02*
X275026500Y-195975200I-250000J0D01*
G01*
X274526500Y-195975200D01*
G75*
G02*
X274276500Y-195725200I0J250000D01*
G01*
X274276500Y-194775200D01*
G75*
G02*
X274526500Y-194525200I250000J0D01*
G01*
X275026500Y-194525200D01*
G75*
G02*
X275276500Y-194775200I0J-250000D01*
G01*
G37*
%TD*%
%TO.C,LC6*%
G36*
G01*
X301949700Y-194775200D02*
X301949700Y-195725200D01*
G75*
G02*
X301699700Y-195975200I-250000J0D01*
G01*
X301199700Y-195975200D01*
G75*
G02*
X300949700Y-195725200I0J250000D01*
G01*
X300949700Y-194775200D01*
G75*
G02*
X301199700Y-194525200I250000J0D01*
G01*
X301699700Y-194525200D01*
G75*
G02*
X301949700Y-194775200I0J-250000D01*
G01*
G37*
G36*
G01*
X303849700Y-194775200D02*
X303849700Y-195725200D01*
G75*
G02*
X303599700Y-195975200I-250000J0D01*
G01*
X303099700Y-195975200D01*
G75*
G02*
X302849700Y-195725200I0J250000D01*
G01*
X302849700Y-194775200D01*
G75*
G02*
X303099700Y-194525200I250000J0D01*
G01*
X303599700Y-194525200D01*
G75*
G02*
X303849700Y-194775200I0J-250000D01*
G01*
G37*
%TD*%
%TO.C,LC7*%
G36*
G01*
X320998500Y-194775200D02*
X320998500Y-195725200D01*
G75*
G02*
X320748500Y-195975200I-250000J0D01*
G01*
X320248500Y-195975200D01*
G75*
G02*
X319998500Y-195725200I0J250000D01*
G01*
X319998500Y-194775200D01*
G75*
G02*
X320248500Y-194525200I250000J0D01*
G01*
X320748500Y-194525200D01*
G75*
G02*
X320998500Y-194775200I0J-250000D01*
G01*
G37*
G36*
G01*
X322898500Y-194775200D02*
X322898500Y-195725200D01*
G75*
G02*
X322648500Y-195975200I-250000J0D01*
G01*
X322148500Y-195975200D01*
G75*
G02*
X321898500Y-195725200I0J250000D01*
G01*
X321898500Y-194775200D01*
G75*
G02*
X322148500Y-194525200I250000J0D01*
G01*
X322648500Y-194525200D01*
G75*
G02*
X322898500Y-194775200I0J-250000D01*
G01*
G37*
%TD*%
%TO.C,LC8*%
G36*
G01*
X340047300Y-194775200D02*
X340047300Y-195725200D01*
G75*
G02*
X339797300Y-195975200I-250000J0D01*
G01*
X339297300Y-195975200D01*
G75*
G02*
X339047300Y-195725200I0J250000D01*
G01*
X339047300Y-194775200D01*
G75*
G02*
X339297300Y-194525200I250000J0D01*
G01*
X339797300Y-194525200D01*
G75*
G02*
X340047300Y-194775200I0J-250000D01*
G01*
G37*
G36*
G01*
X341947300Y-194775200D02*
X341947300Y-195725200D01*
G75*
G02*
X341697300Y-195975200I-250000J0D01*
G01*
X341197300Y-195975200D01*
G75*
G02*
X340947300Y-195725200I0J250000D01*
G01*
X340947300Y-194775200D01*
G75*
G02*
X341197300Y-194525200I250000J0D01*
G01*
X341697300Y-194525200D01*
G75*
G02*
X341947300Y-194775200I0J-250000D01*
G01*
G37*
%TD*%
%TO.C,LC9*%
G36*
G01*
X359096100Y-194775200D02*
X359096100Y-195725200D01*
G75*
G02*
X358846100Y-195975200I-250000J0D01*
G01*
X358346100Y-195975200D01*
G75*
G02*
X358096100Y-195725200I0J250000D01*
G01*
X358096100Y-194775200D01*
G75*
G02*
X358346100Y-194525200I250000J0D01*
G01*
X358846100Y-194525200D01*
G75*
G02*
X359096100Y-194775200I0J-250000D01*
G01*
G37*
G36*
G01*
X360996100Y-194775200D02*
X360996100Y-195725200D01*
G75*
G02*
X360746100Y-195975200I-250000J0D01*
G01*
X360246100Y-195975200D01*
G75*
G02*
X359996100Y-195725200I0J250000D01*
G01*
X359996100Y-194775200D01*
G75*
G02*
X360246100Y-194525200I250000J0D01*
G01*
X360746100Y-194525200D01*
G75*
G02*
X360996100Y-194775200I0J-250000D01*
G01*
G37*
%TD*%
%TO.C,LC10*%
G36*
G01*
X387669300Y-194775200D02*
X387669300Y-195725200D01*
G75*
G02*
X387419300Y-195975200I-250000J0D01*
G01*
X386919300Y-195975200D01*
G75*
G02*
X386669300Y-195725200I0J250000D01*
G01*
X386669300Y-194775200D01*
G75*
G02*
X386919300Y-194525200I250000J0D01*
G01*
X387419300Y-194525200D01*
G75*
G02*
X387669300Y-194775200I0J-250000D01*
G01*
G37*
G36*
G01*
X389569300Y-194775200D02*
X389569300Y-195725200D01*
G75*
G02*
X389319300Y-195975200I-250000J0D01*
G01*
X388819300Y-195975200D01*
G75*
G02*
X388569300Y-195725200I0J250000D01*
G01*
X388569300Y-194775200D01*
G75*
G02*
X388819300Y-194525200I250000J0D01*
G01*
X389319300Y-194525200D01*
G75*
G02*
X389569300Y-194775200I0J-250000D01*
G01*
G37*
%TD*%
%TO.C,LC11*%
G36*
G01*
X406718100Y-194775200D02*
X406718100Y-195725200D01*
G75*
G02*
X406468100Y-195975200I-250000J0D01*
G01*
X405968100Y-195975200D01*
G75*
G02*
X405718100Y-195725200I0J250000D01*
G01*
X405718100Y-194775200D01*
G75*
G02*
X405968100Y-194525200I250000J0D01*
G01*
X406468100Y-194525200D01*
G75*
G02*
X406718100Y-194775200I0J-250000D01*
G01*
G37*
G36*
G01*
X408618100Y-194775200D02*
X408618100Y-195725200D01*
G75*
G02*
X408368100Y-195975200I-250000J0D01*
G01*
X407868100Y-195975200D01*
G75*
G02*
X407618100Y-195725200I0J250000D01*
G01*
X407618100Y-194775200D01*
G75*
G02*
X407868100Y-194525200I250000J0D01*
G01*
X408368100Y-194525200D01*
G75*
G02*
X408618100Y-194775200I0J-250000D01*
G01*
G37*
%TD*%
%TO.C,LC12*%
G36*
G01*
X425766900Y-194775200D02*
X425766900Y-195725200D01*
G75*
G02*
X425516900Y-195975200I-250000J0D01*
G01*
X425016900Y-195975200D01*
G75*
G02*
X424766900Y-195725200I0J250000D01*
G01*
X424766900Y-194775200D01*
G75*
G02*
X425016900Y-194525200I250000J0D01*
G01*
X425516900Y-194525200D01*
G75*
G02*
X425766900Y-194775200I0J-250000D01*
G01*
G37*
G36*
G01*
X427666900Y-194775200D02*
X427666900Y-195725200D01*
G75*
G02*
X427416900Y-195975200I-250000J0D01*
G01*
X426916900Y-195975200D01*
G75*
G02*
X426666900Y-195725200I0J250000D01*
G01*
X426666900Y-194775200D01*
G75*
G02*
X426916900Y-194525200I250000J0D01*
G01*
X427416900Y-194525200D01*
G75*
G02*
X427666900Y-194775200I0J-250000D01*
G01*
G37*
%TD*%
%TO.C,LC13*%
G36*
G01*
X444815700Y-194775200D02*
X444815700Y-195725200D01*
G75*
G02*
X444565700Y-195975200I-250000J0D01*
G01*
X444065700Y-195975200D01*
G75*
G02*
X443815700Y-195725200I0J250000D01*
G01*
X443815700Y-194775200D01*
G75*
G02*
X444065700Y-194525200I250000J0D01*
G01*
X444565700Y-194525200D01*
G75*
G02*
X444815700Y-194775200I0J-250000D01*
G01*
G37*
G36*
G01*
X446715700Y-194775200D02*
X446715700Y-195725200D01*
G75*
G02*
X446465700Y-195975200I-250000J0D01*
G01*
X445965700Y-195975200D01*
G75*
G02*
X445715700Y-195725200I0J250000D01*
G01*
X445715700Y-194775200D01*
G75*
G02*
X445965700Y-194525200I250000J0D01*
G01*
X446465700Y-194525200D01*
G75*
G02*
X446715700Y-194775200I0J-250000D01*
G01*
G37*
%TD*%
%TO.C,LC14*%
G36*
G01*
X473388900Y-194775200D02*
X473388900Y-195725200D01*
G75*
G02*
X473138900Y-195975200I-250000J0D01*
G01*
X472638900Y-195975200D01*
G75*
G02*
X472388900Y-195725200I0J250000D01*
G01*
X472388900Y-194775200D01*
G75*
G02*
X472638900Y-194525200I250000J0D01*
G01*
X473138900Y-194525200D01*
G75*
G02*
X473388900Y-194775200I0J-250000D01*
G01*
G37*
G36*
G01*
X475288900Y-194775200D02*
X475288900Y-195725200D01*
G75*
G02*
X475038900Y-195975200I-250000J0D01*
G01*
X474538900Y-195975200D01*
G75*
G02*
X474288900Y-195725200I0J250000D01*
G01*
X474288900Y-194775200D01*
G75*
G02*
X474538900Y-194525200I250000J0D01*
G01*
X475038900Y-194525200D01*
G75*
G02*
X475288900Y-194775200I0J-250000D01*
G01*
G37*
%TD*%
%TO.C,LC18*%
G36*
G01*
X216230100Y-223348400D02*
X216230100Y-224298400D01*
G75*
G02*
X215980100Y-224548400I-250000J0D01*
G01*
X215480100Y-224548400D01*
G75*
G02*
X215230100Y-224298400I0J250000D01*
G01*
X215230100Y-223348400D01*
G75*
G02*
X215480100Y-223098400I250000J0D01*
G01*
X215980100Y-223098400D01*
G75*
G02*
X216230100Y-223348400I0J-250000D01*
G01*
G37*
G36*
G01*
X218130100Y-223348400D02*
X218130100Y-224298400D01*
G75*
G02*
X217880100Y-224548400I-250000J0D01*
G01*
X217380100Y-224548400D01*
G75*
G02*
X217130100Y-224298400I0J250000D01*
G01*
X217130100Y-223348400D01*
G75*
G02*
X217380100Y-223098400I250000J0D01*
G01*
X217880100Y-223098400D01*
G75*
G02*
X218130100Y-223348400I0J-250000D01*
G01*
G37*
%TD*%
%TO.C,LC19*%
G36*
G01*
X235278900Y-223348400D02*
X235278900Y-224298400D01*
G75*
G02*
X235028900Y-224548400I-250000J0D01*
G01*
X234528900Y-224548400D01*
G75*
G02*
X234278900Y-224298400I0J250000D01*
G01*
X234278900Y-223348400D01*
G75*
G02*
X234528900Y-223098400I250000J0D01*
G01*
X235028900Y-223098400D01*
G75*
G02*
X235278900Y-223348400I0J-250000D01*
G01*
G37*
G36*
G01*
X237178900Y-223348400D02*
X237178900Y-224298400D01*
G75*
G02*
X236928900Y-224548400I-250000J0D01*
G01*
X236428900Y-224548400D01*
G75*
G02*
X236178900Y-224298400I0J250000D01*
G01*
X236178900Y-223348400D01*
G75*
G02*
X236428900Y-223098400I250000J0D01*
G01*
X236928900Y-223098400D01*
G75*
G02*
X237178900Y-223348400I0J-250000D01*
G01*
G37*
%TD*%
%TO.C,LC20*%
G36*
G01*
X254327700Y-223348400D02*
X254327700Y-224298400D01*
G75*
G02*
X254077700Y-224548400I-250000J0D01*
G01*
X253577700Y-224548400D01*
G75*
G02*
X253327700Y-224298400I0J250000D01*
G01*
X253327700Y-223348400D01*
G75*
G02*
X253577700Y-223098400I250000J0D01*
G01*
X254077700Y-223098400D01*
G75*
G02*
X254327700Y-223348400I0J-250000D01*
G01*
G37*
G36*
G01*
X256227700Y-223348400D02*
X256227700Y-224298400D01*
G75*
G02*
X255977700Y-224548400I-250000J0D01*
G01*
X255477700Y-224548400D01*
G75*
G02*
X255227700Y-224298400I0J250000D01*
G01*
X255227700Y-223348400D01*
G75*
G02*
X255477700Y-223098400I250000J0D01*
G01*
X255977700Y-223098400D01*
G75*
G02*
X256227700Y-223348400I0J-250000D01*
G01*
G37*
%TD*%
%TO.C,LC21*%
G36*
G01*
X273376500Y-223348400D02*
X273376500Y-224298400D01*
G75*
G02*
X273126500Y-224548400I-250000J0D01*
G01*
X272626500Y-224548400D01*
G75*
G02*
X272376500Y-224298400I0J250000D01*
G01*
X272376500Y-223348400D01*
G75*
G02*
X272626500Y-223098400I250000J0D01*
G01*
X273126500Y-223098400D01*
G75*
G02*
X273376500Y-223348400I0J-250000D01*
G01*
G37*
G36*
G01*
X275276500Y-223348400D02*
X275276500Y-224298400D01*
G75*
G02*
X275026500Y-224548400I-250000J0D01*
G01*
X274526500Y-224548400D01*
G75*
G02*
X274276500Y-224298400I0J250000D01*
G01*
X274276500Y-223348400D01*
G75*
G02*
X274526500Y-223098400I250000J0D01*
G01*
X275026500Y-223098400D01*
G75*
G02*
X275276500Y-223348400I0J-250000D01*
G01*
G37*
%TD*%
%TO.C,LC22*%
G36*
G01*
X292425300Y-223348400D02*
X292425300Y-224298400D01*
G75*
G02*
X292175300Y-224548400I-250000J0D01*
G01*
X291675300Y-224548400D01*
G75*
G02*
X291425300Y-224298400I0J250000D01*
G01*
X291425300Y-223348400D01*
G75*
G02*
X291675300Y-223098400I250000J0D01*
G01*
X292175300Y-223098400D01*
G75*
G02*
X292425300Y-223348400I0J-250000D01*
G01*
G37*
G36*
G01*
X294325300Y-223348400D02*
X294325300Y-224298400D01*
G75*
G02*
X294075300Y-224548400I-250000J0D01*
G01*
X293575300Y-224548400D01*
G75*
G02*
X293325300Y-224298400I0J250000D01*
G01*
X293325300Y-223348400D01*
G75*
G02*
X293575300Y-223098400I250000J0D01*
G01*
X294075300Y-223098400D01*
G75*
G02*
X294325300Y-223348400I0J-250000D01*
G01*
G37*
%TD*%
%TO.C,LC23*%
G36*
G01*
X311474100Y-223348400D02*
X311474100Y-224298400D01*
G75*
G02*
X311224100Y-224548400I-250000J0D01*
G01*
X310724100Y-224548400D01*
G75*
G02*
X310474100Y-224298400I0J250000D01*
G01*
X310474100Y-223348400D01*
G75*
G02*
X310724100Y-223098400I250000J0D01*
G01*
X311224100Y-223098400D01*
G75*
G02*
X311474100Y-223348400I0J-250000D01*
G01*
G37*
G36*
G01*
X313374100Y-223348400D02*
X313374100Y-224298400D01*
G75*
G02*
X313124100Y-224548400I-250000J0D01*
G01*
X312624100Y-224548400D01*
G75*
G02*
X312374100Y-224298400I0J250000D01*
G01*
X312374100Y-223348400D01*
G75*
G02*
X312624100Y-223098400I250000J0D01*
G01*
X313124100Y-223098400D01*
G75*
G02*
X313374100Y-223348400I0J-250000D01*
G01*
G37*
%TD*%
%TO.C,LC24*%
G36*
G01*
X330522900Y-223348400D02*
X330522900Y-224298400D01*
G75*
G02*
X330272900Y-224548400I-250000J0D01*
G01*
X329772900Y-224548400D01*
G75*
G02*
X329522900Y-224298400I0J250000D01*
G01*
X329522900Y-223348400D01*
G75*
G02*
X329772900Y-223098400I250000J0D01*
G01*
X330272900Y-223098400D01*
G75*
G02*
X330522900Y-223348400I0J-250000D01*
G01*
G37*
G36*
G01*
X332422900Y-223348400D02*
X332422900Y-224298400D01*
G75*
G02*
X332172900Y-224548400I-250000J0D01*
G01*
X331672900Y-224548400D01*
G75*
G02*
X331422900Y-224298400I0J250000D01*
G01*
X331422900Y-223348400D01*
G75*
G02*
X331672900Y-223098400I250000J0D01*
G01*
X332172900Y-223098400D01*
G75*
G02*
X332422900Y-223348400I0J-250000D01*
G01*
G37*
%TD*%
%TO.C,LC25*%
G36*
G01*
X349571700Y-223348400D02*
X349571700Y-224298400D01*
G75*
G02*
X349321700Y-224548400I-250000J0D01*
G01*
X348821700Y-224548400D01*
G75*
G02*
X348571700Y-224298400I0J250000D01*
G01*
X348571700Y-223348400D01*
G75*
G02*
X348821700Y-223098400I250000J0D01*
G01*
X349321700Y-223098400D01*
G75*
G02*
X349571700Y-223348400I0J-250000D01*
G01*
G37*
G36*
G01*
X351471700Y-223348400D02*
X351471700Y-224298400D01*
G75*
G02*
X351221700Y-224548400I-250000J0D01*
G01*
X350721700Y-224548400D01*
G75*
G02*
X350471700Y-224298400I0J250000D01*
G01*
X350471700Y-223348400D01*
G75*
G02*
X350721700Y-223098400I250000J0D01*
G01*
X351221700Y-223098400D01*
G75*
G02*
X351471700Y-223348400I0J-250000D01*
G01*
G37*
%TD*%
%TO.C,LC26*%
G36*
G01*
X368620500Y-223348400D02*
X368620500Y-224298400D01*
G75*
G02*
X368370500Y-224548400I-250000J0D01*
G01*
X367870500Y-224548400D01*
G75*
G02*
X367620500Y-224298400I0J250000D01*
G01*
X367620500Y-223348400D01*
G75*
G02*
X367870500Y-223098400I250000J0D01*
G01*
X368370500Y-223098400D01*
G75*
G02*
X368620500Y-223348400I0J-250000D01*
G01*
G37*
G36*
G01*
X370520500Y-223348400D02*
X370520500Y-224298400D01*
G75*
G02*
X370270500Y-224548400I-250000J0D01*
G01*
X369770500Y-224548400D01*
G75*
G02*
X369520500Y-224298400I0J250000D01*
G01*
X369520500Y-223348400D01*
G75*
G02*
X369770500Y-223098400I250000J0D01*
G01*
X370270500Y-223098400D01*
G75*
G02*
X370520500Y-223348400I0J-250000D01*
G01*
G37*
%TD*%
%TO.C,LC27*%
G36*
G01*
X387669300Y-223348400D02*
X387669300Y-224298400D01*
G75*
G02*
X387419300Y-224548400I-250000J0D01*
G01*
X386919300Y-224548400D01*
G75*
G02*
X386669300Y-224298400I0J250000D01*
G01*
X386669300Y-223348400D01*
G75*
G02*
X386919300Y-223098400I250000J0D01*
G01*
X387419300Y-223098400D01*
G75*
G02*
X387669300Y-223348400I0J-250000D01*
G01*
G37*
G36*
G01*
X389569300Y-223348400D02*
X389569300Y-224298400D01*
G75*
G02*
X389319300Y-224548400I-250000J0D01*
G01*
X388819300Y-224548400D01*
G75*
G02*
X388569300Y-224298400I0J250000D01*
G01*
X388569300Y-223348400D01*
G75*
G02*
X388819300Y-223098400I250000J0D01*
G01*
X389319300Y-223098400D01*
G75*
G02*
X389569300Y-223348400I0J-250000D01*
G01*
G37*
%TD*%
%TO.C,LC28*%
G36*
G01*
X406718100Y-223348400D02*
X406718100Y-224298400D01*
G75*
G02*
X406468100Y-224548400I-250000J0D01*
G01*
X405968100Y-224548400D01*
G75*
G02*
X405718100Y-224298400I0J250000D01*
G01*
X405718100Y-223348400D01*
G75*
G02*
X405968100Y-223098400I250000J0D01*
G01*
X406468100Y-223098400D01*
G75*
G02*
X406718100Y-223348400I0J-250000D01*
G01*
G37*
G36*
G01*
X408618100Y-223348400D02*
X408618100Y-224298400D01*
G75*
G02*
X408368100Y-224548400I-250000J0D01*
G01*
X407868100Y-224548400D01*
G75*
G02*
X407618100Y-224298400I0J250000D01*
G01*
X407618100Y-223348400D01*
G75*
G02*
X407868100Y-223098400I250000J0D01*
G01*
X408368100Y-223098400D01*
G75*
G02*
X408618100Y-223348400I0J-250000D01*
G01*
G37*
%TD*%
%TO.C,LC29*%
G36*
G01*
X435291300Y-223348400D02*
X435291300Y-224298400D01*
G75*
G02*
X435041300Y-224548400I-250000J0D01*
G01*
X434541300Y-224548400D01*
G75*
G02*
X434291300Y-224298400I0J250000D01*
G01*
X434291300Y-223348400D01*
G75*
G02*
X434541300Y-223098400I250000J0D01*
G01*
X435041300Y-223098400D01*
G75*
G02*
X435291300Y-223348400I0J-250000D01*
G01*
G37*
G36*
G01*
X437191300Y-223348400D02*
X437191300Y-224298400D01*
G75*
G02*
X436941300Y-224548400I-250000J0D01*
G01*
X436441300Y-224548400D01*
G75*
G02*
X436191300Y-224298400I0J250000D01*
G01*
X436191300Y-223348400D01*
G75*
G02*
X436441300Y-223098400I250000J0D01*
G01*
X436941300Y-223098400D01*
G75*
G02*
X437191300Y-223348400I0J-250000D01*
G01*
G37*
%TD*%
%TO.C,LC30*%
G36*
G01*
X473388900Y-223348400D02*
X473388900Y-224298400D01*
G75*
G02*
X473138900Y-224548400I-250000J0D01*
G01*
X472638900Y-224548400D01*
G75*
G02*
X472388900Y-224298400I0J250000D01*
G01*
X472388900Y-223348400D01*
G75*
G02*
X472638900Y-223098400I250000J0D01*
G01*
X473138900Y-223098400D01*
G75*
G02*
X473388900Y-223348400I0J-250000D01*
G01*
G37*
G36*
G01*
X475288900Y-223348400D02*
X475288900Y-224298400D01*
G75*
G02*
X475038900Y-224548400I-250000J0D01*
G01*
X474538900Y-224548400D01*
G75*
G02*
X474288900Y-224298400I0J250000D01*
G01*
X474288900Y-223348400D01*
G75*
G02*
X474538900Y-223098400I250000J0D01*
G01*
X475038900Y-223098400D01*
G75*
G02*
X475288900Y-223348400I0J-250000D01*
G01*
G37*
%TD*%
%TO.C,LC31*%
G36*
G01*
X492437700Y-223348400D02*
X492437700Y-224298400D01*
G75*
G02*
X492187700Y-224548400I-250000J0D01*
G01*
X491687700Y-224548400D01*
G75*
G02*
X491437700Y-224298400I0J250000D01*
G01*
X491437700Y-223348400D01*
G75*
G02*
X491687700Y-223098400I250000J0D01*
G01*
X492187700Y-223098400D01*
G75*
G02*
X492437700Y-223348400I0J-250000D01*
G01*
G37*
G36*
G01*
X494337700Y-223348400D02*
X494337700Y-224298400D01*
G75*
G02*
X494087700Y-224548400I-250000J0D01*
G01*
X493587700Y-224548400D01*
G75*
G02*
X493337700Y-224298400I0J250000D01*
G01*
X493337700Y-223348400D01*
G75*
G02*
X493587700Y-223098400I250000J0D01*
G01*
X494087700Y-223098400D01*
G75*
G02*
X494337700Y-223348400I0J-250000D01*
G01*
G37*
%TD*%
%TO.C,LC32*%
G36*
G01*
X511486500Y-223348400D02*
X511486500Y-224298400D01*
G75*
G02*
X511236500Y-224548400I-250000J0D01*
G01*
X510736500Y-224548400D01*
G75*
G02*
X510486500Y-224298400I0J250000D01*
G01*
X510486500Y-223348400D01*
G75*
G02*
X510736500Y-223098400I250000J0D01*
G01*
X511236500Y-223098400D01*
G75*
G02*
X511486500Y-223348400I0J-250000D01*
G01*
G37*
G36*
G01*
X513386500Y-223348400D02*
X513386500Y-224298400D01*
G75*
G02*
X513136500Y-224548400I-250000J0D01*
G01*
X512636500Y-224548400D01*
G75*
G02*
X512386500Y-224298400I0J250000D01*
G01*
X512386500Y-223348400D01*
G75*
G02*
X512636500Y-223098400I250000J0D01*
G01*
X513136500Y-223098400D01*
G75*
G02*
X513386500Y-223348400I0J-250000D01*
G01*
G37*
%TD*%
%TO.C,LC36*%
G36*
G01*
X225754500Y-242397200D02*
X225754500Y-243347200D01*
G75*
G02*
X225504500Y-243597200I-250000J0D01*
G01*
X225004500Y-243597200D01*
G75*
G02*
X224754500Y-243347200I0J250000D01*
G01*
X224754500Y-242397200D01*
G75*
G02*
X225004500Y-242147200I250000J0D01*
G01*
X225504500Y-242147200D01*
G75*
G02*
X225754500Y-242397200I0J-250000D01*
G01*
G37*
G36*
G01*
X227654500Y-242397200D02*
X227654500Y-243347200D01*
G75*
G02*
X227404500Y-243597200I-250000J0D01*
G01*
X226904500Y-243597200D01*
G75*
G02*
X226654500Y-243347200I0J250000D01*
G01*
X226654500Y-242397200D01*
G75*
G02*
X226904500Y-242147200I250000J0D01*
G01*
X227404500Y-242147200D01*
G75*
G02*
X227654500Y-242397200I0J-250000D01*
G01*
G37*
%TD*%
%TO.C,LC37*%
G36*
G01*
X244803300Y-242397200D02*
X244803300Y-243347200D01*
G75*
G02*
X244553300Y-243597200I-250000J0D01*
G01*
X244053300Y-243597200D01*
G75*
G02*
X243803300Y-243347200I0J250000D01*
G01*
X243803300Y-242397200D01*
G75*
G02*
X244053300Y-242147200I250000J0D01*
G01*
X244553300Y-242147200D01*
G75*
G02*
X244803300Y-242397200I0J-250000D01*
G01*
G37*
G36*
G01*
X246703300Y-242397200D02*
X246703300Y-243347200D01*
G75*
G02*
X246453300Y-243597200I-250000J0D01*
G01*
X245953300Y-243597200D01*
G75*
G02*
X245703300Y-243347200I0J250000D01*
G01*
X245703300Y-242397200D01*
G75*
G02*
X245953300Y-242147200I250000J0D01*
G01*
X246453300Y-242147200D01*
G75*
G02*
X246703300Y-242397200I0J-250000D01*
G01*
G37*
%TD*%
%TO.C,LC38*%
G36*
G01*
X263852100Y-242397200D02*
X263852100Y-243347200D01*
G75*
G02*
X263602100Y-243597200I-250000J0D01*
G01*
X263102100Y-243597200D01*
G75*
G02*
X262852100Y-243347200I0J250000D01*
G01*
X262852100Y-242397200D01*
G75*
G02*
X263102100Y-242147200I250000J0D01*
G01*
X263602100Y-242147200D01*
G75*
G02*
X263852100Y-242397200I0J-250000D01*
G01*
G37*
G36*
G01*
X265752100Y-242397200D02*
X265752100Y-243347200D01*
G75*
G02*
X265502100Y-243597200I-250000J0D01*
G01*
X265002100Y-243597200D01*
G75*
G02*
X264752100Y-243347200I0J250000D01*
G01*
X264752100Y-242397200D01*
G75*
G02*
X265002100Y-242147200I250000J0D01*
G01*
X265502100Y-242147200D01*
G75*
G02*
X265752100Y-242397200I0J-250000D01*
G01*
G37*
%TD*%
%TO.C,LC39*%
G36*
G01*
X282900900Y-242397200D02*
X282900900Y-243347200D01*
G75*
G02*
X282650900Y-243597200I-250000J0D01*
G01*
X282150900Y-243597200D01*
G75*
G02*
X281900900Y-243347200I0J250000D01*
G01*
X281900900Y-242397200D01*
G75*
G02*
X282150900Y-242147200I250000J0D01*
G01*
X282650900Y-242147200D01*
G75*
G02*
X282900900Y-242397200I0J-250000D01*
G01*
G37*
G36*
G01*
X284800900Y-242397200D02*
X284800900Y-243347200D01*
G75*
G02*
X284550900Y-243597200I-250000J0D01*
G01*
X284050900Y-243597200D01*
G75*
G02*
X283800900Y-243347200I0J250000D01*
G01*
X283800900Y-242397200D01*
G75*
G02*
X284050900Y-242147200I250000J0D01*
G01*
X284550900Y-242147200D01*
G75*
G02*
X284800900Y-242397200I0J-250000D01*
G01*
G37*
%TD*%
%TO.C,LC40*%
G36*
G01*
X301949700Y-242397200D02*
X301949700Y-243347200D01*
G75*
G02*
X301699700Y-243597200I-250000J0D01*
G01*
X301199700Y-243597200D01*
G75*
G02*
X300949700Y-243347200I0J250000D01*
G01*
X300949700Y-242397200D01*
G75*
G02*
X301199700Y-242147200I250000J0D01*
G01*
X301699700Y-242147200D01*
G75*
G02*
X301949700Y-242397200I0J-250000D01*
G01*
G37*
G36*
G01*
X303849700Y-242397200D02*
X303849700Y-243347200D01*
G75*
G02*
X303599700Y-243597200I-250000J0D01*
G01*
X303099700Y-243597200D01*
G75*
G02*
X302849700Y-243347200I0J250000D01*
G01*
X302849700Y-242397200D01*
G75*
G02*
X303099700Y-242147200I250000J0D01*
G01*
X303599700Y-242147200D01*
G75*
G02*
X303849700Y-242397200I0J-250000D01*
G01*
G37*
%TD*%
%TO.C,LC41*%
G36*
G01*
X320998500Y-242397200D02*
X320998500Y-243347200D01*
G75*
G02*
X320748500Y-243597200I-250000J0D01*
G01*
X320248500Y-243597200D01*
G75*
G02*
X319998500Y-243347200I0J250000D01*
G01*
X319998500Y-242397200D01*
G75*
G02*
X320248500Y-242147200I250000J0D01*
G01*
X320748500Y-242147200D01*
G75*
G02*
X320998500Y-242397200I0J-250000D01*
G01*
G37*
G36*
G01*
X322898500Y-242397200D02*
X322898500Y-243347200D01*
G75*
G02*
X322648500Y-243597200I-250000J0D01*
G01*
X322148500Y-243597200D01*
G75*
G02*
X321898500Y-243347200I0J250000D01*
G01*
X321898500Y-242397200D01*
G75*
G02*
X322148500Y-242147200I250000J0D01*
G01*
X322648500Y-242147200D01*
G75*
G02*
X322898500Y-242397200I0J-250000D01*
G01*
G37*
%TD*%
%TO.C,LC42*%
G36*
G01*
X340047300Y-242397200D02*
X340047300Y-243347200D01*
G75*
G02*
X339797300Y-243597200I-250000J0D01*
G01*
X339297300Y-243597200D01*
G75*
G02*
X339047300Y-243347200I0J250000D01*
G01*
X339047300Y-242397200D01*
G75*
G02*
X339297300Y-242147200I250000J0D01*
G01*
X339797300Y-242147200D01*
G75*
G02*
X340047300Y-242397200I0J-250000D01*
G01*
G37*
G36*
G01*
X341947300Y-242397200D02*
X341947300Y-243347200D01*
G75*
G02*
X341697300Y-243597200I-250000J0D01*
G01*
X341197300Y-243597200D01*
G75*
G02*
X340947300Y-243347200I0J250000D01*
G01*
X340947300Y-242397200D01*
G75*
G02*
X341197300Y-242147200I250000J0D01*
G01*
X341697300Y-242147200D01*
G75*
G02*
X341947300Y-242397200I0J-250000D01*
G01*
G37*
%TD*%
%TO.C,LC43*%
G36*
G01*
X359096100Y-242397200D02*
X359096100Y-243347200D01*
G75*
G02*
X358846100Y-243597200I-250000J0D01*
G01*
X358346100Y-243597200D01*
G75*
G02*
X358096100Y-243347200I0J250000D01*
G01*
X358096100Y-242397200D01*
G75*
G02*
X358346100Y-242147200I250000J0D01*
G01*
X358846100Y-242147200D01*
G75*
G02*
X359096100Y-242397200I0J-250000D01*
G01*
G37*
G36*
G01*
X360996100Y-242397200D02*
X360996100Y-243347200D01*
G75*
G02*
X360746100Y-243597200I-250000J0D01*
G01*
X360246100Y-243597200D01*
G75*
G02*
X359996100Y-243347200I0J250000D01*
G01*
X359996100Y-242397200D01*
G75*
G02*
X360246100Y-242147200I250000J0D01*
G01*
X360746100Y-242147200D01*
G75*
G02*
X360996100Y-242397200I0J-250000D01*
G01*
G37*
%TD*%
%TO.C,LC44*%
G36*
G01*
X378144900Y-242397200D02*
X378144900Y-243347200D01*
G75*
G02*
X377894900Y-243597200I-250000J0D01*
G01*
X377394900Y-243597200D01*
G75*
G02*
X377144900Y-243347200I0J250000D01*
G01*
X377144900Y-242397200D01*
G75*
G02*
X377394900Y-242147200I250000J0D01*
G01*
X377894900Y-242147200D01*
G75*
G02*
X378144900Y-242397200I0J-250000D01*
G01*
G37*
G36*
G01*
X380044900Y-242397200D02*
X380044900Y-243347200D01*
G75*
G02*
X379794900Y-243597200I-250000J0D01*
G01*
X379294900Y-243597200D01*
G75*
G02*
X379044900Y-243347200I0J250000D01*
G01*
X379044900Y-242397200D01*
G75*
G02*
X379294900Y-242147200I250000J0D01*
G01*
X379794900Y-242147200D01*
G75*
G02*
X380044900Y-242397200I0J-250000D01*
G01*
G37*
%TD*%
%TO.C,LC45*%
G36*
G01*
X397193700Y-242397200D02*
X397193700Y-243347200D01*
G75*
G02*
X396943700Y-243597200I-250000J0D01*
G01*
X396443700Y-243597200D01*
G75*
G02*
X396193700Y-243347200I0J250000D01*
G01*
X396193700Y-242397200D01*
G75*
G02*
X396443700Y-242147200I250000J0D01*
G01*
X396943700Y-242147200D01*
G75*
G02*
X397193700Y-242397200I0J-250000D01*
G01*
G37*
G36*
G01*
X399093700Y-242397200D02*
X399093700Y-243347200D01*
G75*
G02*
X398843700Y-243597200I-250000J0D01*
G01*
X398343700Y-243597200D01*
G75*
G02*
X398093700Y-243347200I0J250000D01*
G01*
X398093700Y-242397200D01*
G75*
G02*
X398343700Y-242147200I250000J0D01*
G01*
X398843700Y-242147200D01*
G75*
G02*
X399093700Y-242397200I0J-250000D01*
G01*
G37*
%TD*%
%TO.C,LC46*%
G36*
G01*
X416242500Y-242397200D02*
X416242500Y-243347200D01*
G75*
G02*
X415992500Y-243597200I-250000J0D01*
G01*
X415492500Y-243597200D01*
G75*
G02*
X415242500Y-243347200I0J250000D01*
G01*
X415242500Y-242397200D01*
G75*
G02*
X415492500Y-242147200I250000J0D01*
G01*
X415992500Y-242147200D01*
G75*
G02*
X416242500Y-242397200I0J-250000D01*
G01*
G37*
G36*
G01*
X418142500Y-242397200D02*
X418142500Y-243347200D01*
G75*
G02*
X417892500Y-243597200I-250000J0D01*
G01*
X417392500Y-243597200D01*
G75*
G02*
X417142500Y-243347200I0J250000D01*
G01*
X417142500Y-242397200D01*
G75*
G02*
X417392500Y-242147200I250000J0D01*
G01*
X417892500Y-242147200D01*
G75*
G02*
X418142500Y-242397200I0J-250000D01*
G01*
G37*
%TD*%
%TO.C,LC47*%
G36*
G01*
X440053500Y-242397200D02*
X440053500Y-243347200D01*
G75*
G02*
X439803500Y-243597200I-250000J0D01*
G01*
X439303500Y-243597200D01*
G75*
G02*
X439053500Y-243347200I0J250000D01*
G01*
X439053500Y-242397200D01*
G75*
G02*
X439303500Y-242147200I250000J0D01*
G01*
X439803500Y-242147200D01*
G75*
G02*
X440053500Y-242397200I0J-250000D01*
G01*
G37*
G36*
G01*
X441953500Y-242397200D02*
X441953500Y-243347200D01*
G75*
G02*
X441703500Y-243597200I-250000J0D01*
G01*
X441203500Y-243597200D01*
G75*
G02*
X440953500Y-243347200I0J250000D01*
G01*
X440953500Y-242397200D01*
G75*
G02*
X441203500Y-242147200I250000J0D01*
G01*
X441703500Y-242147200D01*
G75*
G02*
X441953500Y-242397200I0J-250000D01*
G01*
G37*
%TD*%
%TO.C,LC48*%
G36*
G01*
X473388900Y-242397200D02*
X473388900Y-243347200D01*
G75*
G02*
X473138900Y-243597200I-250000J0D01*
G01*
X472638900Y-243597200D01*
G75*
G02*
X472388900Y-243347200I0J250000D01*
G01*
X472388900Y-242397200D01*
G75*
G02*
X472638900Y-242147200I250000J0D01*
G01*
X473138900Y-242147200D01*
G75*
G02*
X473388900Y-242397200I0J-250000D01*
G01*
G37*
G36*
G01*
X475288900Y-242397200D02*
X475288900Y-243347200D01*
G75*
G02*
X475038900Y-243597200I-250000J0D01*
G01*
X474538900Y-243597200D01*
G75*
G02*
X474288900Y-243347200I0J250000D01*
G01*
X474288900Y-242397200D01*
G75*
G02*
X474538900Y-242147200I250000J0D01*
G01*
X475038900Y-242147200D01*
G75*
G02*
X475288900Y-242397200I0J-250000D01*
G01*
G37*
%TD*%
%TO.C,LC49*%
G36*
G01*
X492594000Y-242397200D02*
X492594000Y-243347200D01*
G75*
G02*
X492344000Y-243597200I-250000J0D01*
G01*
X491844000Y-243597200D01*
G75*
G02*
X491594000Y-243347200I0J250000D01*
G01*
X491594000Y-242397200D01*
G75*
G02*
X491844000Y-242147200I250000J0D01*
G01*
X492344000Y-242147200D01*
G75*
G02*
X492594000Y-242397200I0J-250000D01*
G01*
G37*
G36*
G01*
X494494000Y-242397200D02*
X494494000Y-243347200D01*
G75*
G02*
X494244000Y-243597200I-250000J0D01*
G01*
X493744000Y-243597200D01*
G75*
G02*
X493494000Y-243347200I0J250000D01*
G01*
X493494000Y-242397200D01*
G75*
G02*
X493744000Y-242147200I250000J0D01*
G01*
X494244000Y-242147200D01*
G75*
G02*
X494494000Y-242397200I0J-250000D01*
G01*
G37*
%TD*%
%TO.C,LC50*%
G36*
G01*
X509236700Y-244803300D02*
X508286700Y-244803300D01*
G75*
G02*
X508036700Y-244553300I0J250000D01*
G01*
X508036700Y-244053300D01*
G75*
G02*
X508286700Y-243803300I250000J0D01*
G01*
X509236700Y-243803300D01*
G75*
G02*
X509486700Y-244053300I0J-250000D01*
G01*
X509486700Y-244553300D01*
G75*
G02*
X509236700Y-244803300I-250000J0D01*
G01*
G37*
G36*
G01*
X509236700Y-246703300D02*
X508286700Y-246703300D01*
G75*
G02*
X508036700Y-246453300I0J250000D01*
G01*
X508036700Y-245953300D01*
G75*
G02*
X508286700Y-245703300I250000J0D01*
G01*
X509236700Y-245703300D01*
G75*
G02*
X509486700Y-245953300I0J-250000D01*
G01*
X509486700Y-246453300D01*
G75*
G02*
X509236700Y-246703300I-250000J0D01*
G01*
G37*
%TD*%
%TO.C,LC54*%
G36*
G01*
X230516700Y-261446000D02*
X230516700Y-262396000D01*
G75*
G02*
X230266700Y-262646000I-250000J0D01*
G01*
X229766700Y-262646000D01*
G75*
G02*
X229516700Y-262396000I0J250000D01*
G01*
X229516700Y-261446000D01*
G75*
G02*
X229766700Y-261196000I250000J0D01*
G01*
X230266700Y-261196000D01*
G75*
G02*
X230516700Y-261446000I0J-250000D01*
G01*
G37*
G36*
G01*
X232416700Y-261446000D02*
X232416700Y-262396000D01*
G75*
G02*
X232166700Y-262646000I-250000J0D01*
G01*
X231666700Y-262646000D01*
G75*
G02*
X231416700Y-262396000I0J250000D01*
G01*
X231416700Y-261446000D01*
G75*
G02*
X231666700Y-261196000I250000J0D01*
G01*
X232166700Y-261196000D01*
G75*
G02*
X232416700Y-261446000I0J-250000D01*
G01*
G37*
%TD*%
%TO.C,LC55*%
G36*
G01*
X249565500Y-261446000D02*
X249565500Y-262396000D01*
G75*
G02*
X249315500Y-262646000I-250000J0D01*
G01*
X248815500Y-262646000D01*
G75*
G02*
X248565500Y-262396000I0J250000D01*
G01*
X248565500Y-261446000D01*
G75*
G02*
X248815500Y-261196000I250000J0D01*
G01*
X249315500Y-261196000D01*
G75*
G02*
X249565500Y-261446000I0J-250000D01*
G01*
G37*
G36*
G01*
X251465500Y-261446000D02*
X251465500Y-262396000D01*
G75*
G02*
X251215500Y-262646000I-250000J0D01*
G01*
X250715500Y-262646000D01*
G75*
G02*
X250465500Y-262396000I0J250000D01*
G01*
X250465500Y-261446000D01*
G75*
G02*
X250715500Y-261196000I250000J0D01*
G01*
X251215500Y-261196000D01*
G75*
G02*
X251465500Y-261446000I0J-250000D01*
G01*
G37*
%TD*%
%TO.C,LC56*%
G36*
G01*
X268614300Y-261446000D02*
X268614300Y-262396000D01*
G75*
G02*
X268364300Y-262646000I-250000J0D01*
G01*
X267864300Y-262646000D01*
G75*
G02*
X267614300Y-262396000I0J250000D01*
G01*
X267614300Y-261446000D01*
G75*
G02*
X267864300Y-261196000I250000J0D01*
G01*
X268364300Y-261196000D01*
G75*
G02*
X268614300Y-261446000I0J-250000D01*
G01*
G37*
G36*
G01*
X270514300Y-261446000D02*
X270514300Y-262396000D01*
G75*
G02*
X270264300Y-262646000I-250000J0D01*
G01*
X269764300Y-262646000D01*
G75*
G02*
X269514300Y-262396000I0J250000D01*
G01*
X269514300Y-261446000D01*
G75*
G02*
X269764300Y-261196000I250000J0D01*
G01*
X270264300Y-261196000D01*
G75*
G02*
X270514300Y-261446000I0J-250000D01*
G01*
G37*
%TD*%
%TO.C,LC57*%
G36*
G01*
X287663100Y-261446000D02*
X287663100Y-262396000D01*
G75*
G02*
X287413100Y-262646000I-250000J0D01*
G01*
X286913100Y-262646000D01*
G75*
G02*
X286663100Y-262396000I0J250000D01*
G01*
X286663100Y-261446000D01*
G75*
G02*
X286913100Y-261196000I250000J0D01*
G01*
X287413100Y-261196000D01*
G75*
G02*
X287663100Y-261446000I0J-250000D01*
G01*
G37*
G36*
G01*
X289563100Y-261446000D02*
X289563100Y-262396000D01*
G75*
G02*
X289313100Y-262646000I-250000J0D01*
G01*
X288813100Y-262646000D01*
G75*
G02*
X288563100Y-262396000I0J250000D01*
G01*
X288563100Y-261446000D01*
G75*
G02*
X288813100Y-261196000I250000J0D01*
G01*
X289313100Y-261196000D01*
G75*
G02*
X289563100Y-261446000I0J-250000D01*
G01*
G37*
%TD*%
%TO.C,LC58*%
G36*
G01*
X306711900Y-261446000D02*
X306711900Y-262396000D01*
G75*
G02*
X306461900Y-262646000I-250000J0D01*
G01*
X305961900Y-262646000D01*
G75*
G02*
X305711900Y-262396000I0J250000D01*
G01*
X305711900Y-261446000D01*
G75*
G02*
X305961900Y-261196000I250000J0D01*
G01*
X306461900Y-261196000D01*
G75*
G02*
X306711900Y-261446000I0J-250000D01*
G01*
G37*
G36*
G01*
X308611900Y-261446000D02*
X308611900Y-262396000D01*
G75*
G02*
X308361900Y-262646000I-250000J0D01*
G01*
X307861900Y-262646000D01*
G75*
G02*
X307611900Y-262396000I0J250000D01*
G01*
X307611900Y-261446000D01*
G75*
G02*
X307861900Y-261196000I250000J0D01*
G01*
X308361900Y-261196000D01*
G75*
G02*
X308611900Y-261446000I0J-250000D01*
G01*
G37*
%TD*%
%TO.C,LC59*%
G36*
G01*
X325123300Y-261446000D02*
X325123300Y-262396000D01*
G75*
G02*
X324873300Y-262646000I-250000J0D01*
G01*
X324373300Y-262646000D01*
G75*
G02*
X324123300Y-262396000I0J250000D01*
G01*
X324123300Y-261446000D01*
G75*
G02*
X324373300Y-261196000I250000J0D01*
G01*
X324873300Y-261196000D01*
G75*
G02*
X325123300Y-261446000I0J-250000D01*
G01*
G37*
G36*
G01*
X327023300Y-261446000D02*
X327023300Y-262396000D01*
G75*
G02*
X326773300Y-262646000I-250000J0D01*
G01*
X326273300Y-262646000D01*
G75*
G02*
X326023300Y-262396000I0J250000D01*
G01*
X326023300Y-261446000D01*
G75*
G02*
X326273300Y-261196000I250000J0D01*
G01*
X326773300Y-261196000D01*
G75*
G02*
X327023300Y-261446000I0J-250000D01*
G01*
G37*
%TD*%
%TO.C,LC60*%
G36*
G01*
X344809500Y-261446000D02*
X344809500Y-262396000D01*
G75*
G02*
X344559500Y-262646000I-250000J0D01*
G01*
X344059500Y-262646000D01*
G75*
G02*
X343809500Y-262396000I0J250000D01*
G01*
X343809500Y-261446000D01*
G75*
G02*
X344059500Y-261196000I250000J0D01*
G01*
X344559500Y-261196000D01*
G75*
G02*
X344809500Y-261446000I0J-250000D01*
G01*
G37*
G36*
G01*
X346709500Y-261446000D02*
X346709500Y-262396000D01*
G75*
G02*
X346459500Y-262646000I-250000J0D01*
G01*
X345959500Y-262646000D01*
G75*
G02*
X345709500Y-262396000I0J250000D01*
G01*
X345709500Y-261446000D01*
G75*
G02*
X345959500Y-261196000I250000J0D01*
G01*
X346459500Y-261196000D01*
G75*
G02*
X346709500Y-261446000I0J-250000D01*
G01*
G37*
%TD*%
%TO.C,LC61*%
G36*
G01*
X363858300Y-261446000D02*
X363858300Y-262396000D01*
G75*
G02*
X363608300Y-262646000I-250000J0D01*
G01*
X363108300Y-262646000D01*
G75*
G02*
X362858300Y-262396000I0J250000D01*
G01*
X362858300Y-261446000D01*
G75*
G02*
X363108300Y-261196000I250000J0D01*
G01*
X363608300Y-261196000D01*
G75*
G02*
X363858300Y-261446000I0J-250000D01*
G01*
G37*
G36*
G01*
X365758300Y-261446000D02*
X365758300Y-262396000D01*
G75*
G02*
X365508300Y-262646000I-250000J0D01*
G01*
X365008300Y-262646000D01*
G75*
G02*
X364758300Y-262396000I0J250000D01*
G01*
X364758300Y-261446000D01*
G75*
G02*
X365008300Y-261196000I250000J0D01*
G01*
X365508300Y-261196000D01*
G75*
G02*
X365758300Y-261446000I0J-250000D01*
G01*
G37*
%TD*%
%TO.C,LC62*%
G36*
G01*
X382907100Y-261446000D02*
X382907100Y-262396000D01*
G75*
G02*
X382657100Y-262646000I-250000J0D01*
G01*
X382157100Y-262646000D01*
G75*
G02*
X381907100Y-262396000I0J250000D01*
G01*
X381907100Y-261446000D01*
G75*
G02*
X382157100Y-261196000I250000J0D01*
G01*
X382657100Y-261196000D01*
G75*
G02*
X382907100Y-261446000I0J-250000D01*
G01*
G37*
G36*
G01*
X384807100Y-261446000D02*
X384807100Y-262396000D01*
G75*
G02*
X384557100Y-262646000I-250000J0D01*
G01*
X384057100Y-262646000D01*
G75*
G02*
X383807100Y-262396000I0J250000D01*
G01*
X383807100Y-261446000D01*
G75*
G02*
X384057100Y-261196000I250000J0D01*
G01*
X384557100Y-261196000D01*
G75*
G02*
X384807100Y-261446000I0J-250000D01*
G01*
G37*
%TD*%
%TO.C,LC63*%
G36*
G01*
X401955900Y-261446000D02*
X401955900Y-262396000D01*
G75*
G02*
X401705900Y-262646000I-250000J0D01*
G01*
X401205900Y-262646000D01*
G75*
G02*
X400955900Y-262396000I0J250000D01*
G01*
X400955900Y-261446000D01*
G75*
G02*
X401205900Y-261196000I250000J0D01*
G01*
X401705900Y-261196000D01*
G75*
G02*
X401955900Y-261446000I0J-250000D01*
G01*
G37*
G36*
G01*
X403855900Y-261446000D02*
X403855900Y-262396000D01*
G75*
G02*
X403605900Y-262646000I-250000J0D01*
G01*
X403105900Y-262646000D01*
G75*
G02*
X402855900Y-262396000I0J250000D01*
G01*
X402855900Y-261446000D01*
G75*
G02*
X403105900Y-261196000I250000J0D01*
G01*
X403605900Y-261196000D01*
G75*
G02*
X403855900Y-261446000I0J-250000D01*
G01*
G37*
%TD*%
%TO.C,LC64*%
G36*
G01*
X432910200Y-261446000D02*
X432910200Y-262396000D01*
G75*
G02*
X432660200Y-262646000I-250000J0D01*
G01*
X432160200Y-262646000D01*
G75*
G02*
X431910200Y-262396000I0J250000D01*
G01*
X431910200Y-261446000D01*
G75*
G02*
X432160200Y-261196000I250000J0D01*
G01*
X432660200Y-261196000D01*
G75*
G02*
X432910200Y-261446000I0J-250000D01*
G01*
G37*
G36*
G01*
X434810200Y-261446000D02*
X434810200Y-262396000D01*
G75*
G02*
X434560200Y-262646000I-250000J0D01*
G01*
X434060200Y-262646000D01*
G75*
G02*
X433810200Y-262396000I0J250000D01*
G01*
X433810200Y-261446000D01*
G75*
G02*
X434060200Y-261196000I250000J0D01*
G01*
X434560200Y-261196000D01*
G75*
G02*
X434810200Y-261446000I0J-250000D01*
G01*
G37*
%TD*%
%TO.C,LC68*%
G36*
G01*
X240041100Y-280494800D02*
X240041100Y-281444800D01*
G75*
G02*
X239791100Y-281694800I-250000J0D01*
G01*
X239291100Y-281694800D01*
G75*
G02*
X239041100Y-281444800I0J250000D01*
G01*
X239041100Y-280494800D01*
G75*
G02*
X239291100Y-280244800I250000J0D01*
G01*
X239791100Y-280244800D01*
G75*
G02*
X240041100Y-280494800I0J-250000D01*
G01*
G37*
G36*
G01*
X241941100Y-280494800D02*
X241941100Y-281444800D01*
G75*
G02*
X241691100Y-281694800I-250000J0D01*
G01*
X241191100Y-281694800D01*
G75*
G02*
X240941100Y-281444800I0J250000D01*
G01*
X240941100Y-280494800D01*
G75*
G02*
X241191100Y-280244800I250000J0D01*
G01*
X241691100Y-280244800D01*
G75*
G02*
X241941100Y-280494800I0J-250000D01*
G01*
G37*
%TD*%
%TO.C,LC69*%
G36*
G01*
X259089900Y-280494800D02*
X259089900Y-281444800D01*
G75*
G02*
X258839900Y-281694800I-250000J0D01*
G01*
X258339900Y-281694800D01*
G75*
G02*
X258089900Y-281444800I0J250000D01*
G01*
X258089900Y-280494800D01*
G75*
G02*
X258339900Y-280244800I250000J0D01*
G01*
X258839900Y-280244800D01*
G75*
G02*
X259089900Y-280494800I0J-250000D01*
G01*
G37*
G36*
G01*
X260989900Y-280494800D02*
X260989900Y-281444800D01*
G75*
G02*
X260739900Y-281694800I-250000J0D01*
G01*
X260239900Y-281694800D01*
G75*
G02*
X259989900Y-281444800I0J250000D01*
G01*
X259989900Y-280494800D01*
G75*
G02*
X260239900Y-280244800I250000J0D01*
G01*
X260739900Y-280244800D01*
G75*
G02*
X260989900Y-280494800I0J-250000D01*
G01*
G37*
%TD*%
%TO.C,LC70*%
G36*
G01*
X278138700Y-280494800D02*
X278138700Y-281444800D01*
G75*
G02*
X277888700Y-281694800I-250000J0D01*
G01*
X277388700Y-281694800D01*
G75*
G02*
X277138700Y-281444800I0J250000D01*
G01*
X277138700Y-280494800D01*
G75*
G02*
X277388700Y-280244800I250000J0D01*
G01*
X277888700Y-280244800D01*
G75*
G02*
X278138700Y-280494800I0J-250000D01*
G01*
G37*
G36*
G01*
X280038700Y-280494800D02*
X280038700Y-281444800D01*
G75*
G02*
X279788700Y-281694800I-250000J0D01*
G01*
X279288700Y-281694800D01*
G75*
G02*
X279038700Y-281444800I0J250000D01*
G01*
X279038700Y-280494800D01*
G75*
G02*
X279288700Y-280244800I250000J0D01*
G01*
X279788700Y-280244800D01*
G75*
G02*
X280038700Y-280494800I0J-250000D01*
G01*
G37*
%TD*%
%TO.C,LC71*%
G36*
G01*
X297187500Y-280494800D02*
X297187500Y-281444800D01*
G75*
G02*
X296937500Y-281694800I-250000J0D01*
G01*
X296437500Y-281694800D01*
G75*
G02*
X296187500Y-281444800I0J250000D01*
G01*
X296187500Y-280494800D01*
G75*
G02*
X296437500Y-280244800I250000J0D01*
G01*
X296937500Y-280244800D01*
G75*
G02*
X297187500Y-280494800I0J-250000D01*
G01*
G37*
G36*
G01*
X299087500Y-280494800D02*
X299087500Y-281444800D01*
G75*
G02*
X298837500Y-281694800I-250000J0D01*
G01*
X298337500Y-281694800D01*
G75*
G02*
X298087500Y-281444800I0J250000D01*
G01*
X298087500Y-280494800D01*
G75*
G02*
X298337500Y-280244800I250000J0D01*
G01*
X298837500Y-280244800D01*
G75*
G02*
X299087500Y-280494800I0J-250000D01*
G01*
G37*
%TD*%
%TO.C,LC72*%
G36*
G01*
X316236300Y-280494800D02*
X316236300Y-281444800D01*
G75*
G02*
X315986300Y-281694800I-250000J0D01*
G01*
X315486300Y-281694800D01*
G75*
G02*
X315236300Y-281444800I0J250000D01*
G01*
X315236300Y-280494800D01*
G75*
G02*
X315486300Y-280244800I250000J0D01*
G01*
X315986300Y-280244800D01*
G75*
G02*
X316236300Y-280494800I0J-250000D01*
G01*
G37*
G36*
G01*
X318136300Y-280494800D02*
X318136300Y-281444800D01*
G75*
G02*
X317886300Y-281694800I-250000J0D01*
G01*
X317386300Y-281694800D01*
G75*
G02*
X317136300Y-281444800I0J250000D01*
G01*
X317136300Y-280494800D01*
G75*
G02*
X317386300Y-280244800I250000J0D01*
G01*
X317886300Y-280244800D01*
G75*
G02*
X318136300Y-280494800I0J-250000D01*
G01*
G37*
%TD*%
%TO.C,LC73*%
G36*
G01*
X335285100Y-280494800D02*
X335285100Y-281444800D01*
G75*
G02*
X335035100Y-281694800I-250000J0D01*
G01*
X334535100Y-281694800D01*
G75*
G02*
X334285100Y-281444800I0J250000D01*
G01*
X334285100Y-280494800D01*
G75*
G02*
X334535100Y-280244800I250000J0D01*
G01*
X335035100Y-280244800D01*
G75*
G02*
X335285100Y-280494800I0J-250000D01*
G01*
G37*
G36*
G01*
X337185100Y-280494800D02*
X337185100Y-281444800D01*
G75*
G02*
X336935100Y-281694800I-250000J0D01*
G01*
X336435100Y-281694800D01*
G75*
G02*
X336185100Y-281444800I0J250000D01*
G01*
X336185100Y-280494800D01*
G75*
G02*
X336435100Y-280244800I250000J0D01*
G01*
X336935100Y-280244800D01*
G75*
G02*
X337185100Y-280494800I0J-250000D01*
G01*
G37*
%TD*%
%TO.C,LC74*%
G36*
G01*
X354333900Y-280494800D02*
X354333900Y-281444800D01*
G75*
G02*
X354083900Y-281694800I-250000J0D01*
G01*
X353583900Y-281694800D01*
G75*
G02*
X353333900Y-281444800I0J250000D01*
G01*
X353333900Y-280494800D01*
G75*
G02*
X353583900Y-280244800I250000J0D01*
G01*
X354083900Y-280244800D01*
G75*
G02*
X354333900Y-280494800I0J-250000D01*
G01*
G37*
G36*
G01*
X356233900Y-280494800D02*
X356233900Y-281444800D01*
G75*
G02*
X355983900Y-281694800I-250000J0D01*
G01*
X355483900Y-281694800D01*
G75*
G02*
X355233900Y-281444800I0J250000D01*
G01*
X355233900Y-280494800D01*
G75*
G02*
X355483900Y-280244800I250000J0D01*
G01*
X355983900Y-280244800D01*
G75*
G02*
X356233900Y-280494800I0J-250000D01*
G01*
G37*
%TD*%
%TO.C,LC75*%
G36*
G01*
X373382700Y-280494800D02*
X373382700Y-281444800D01*
G75*
G02*
X373132700Y-281694800I-250000J0D01*
G01*
X372632700Y-281694800D01*
G75*
G02*
X372382700Y-281444800I0J250000D01*
G01*
X372382700Y-280494800D01*
G75*
G02*
X372632700Y-280244800I250000J0D01*
G01*
X373132700Y-280244800D01*
G75*
G02*
X373382700Y-280494800I0J-250000D01*
G01*
G37*
G36*
G01*
X375282700Y-280494800D02*
X375282700Y-281444800D01*
G75*
G02*
X375032700Y-281694800I-250000J0D01*
G01*
X374532700Y-281694800D01*
G75*
G02*
X374282700Y-281444800I0J250000D01*
G01*
X374282700Y-280494800D01*
G75*
G02*
X374532700Y-280244800I250000J0D01*
G01*
X375032700Y-280244800D01*
G75*
G02*
X375282700Y-280494800I0J-250000D01*
G01*
G37*
%TD*%
%TO.C,LC76*%
G36*
G01*
X392431500Y-280494800D02*
X392431500Y-281444800D01*
G75*
G02*
X392181500Y-281694800I-250000J0D01*
G01*
X391681500Y-281694800D01*
G75*
G02*
X391431500Y-281444800I0J250000D01*
G01*
X391431500Y-280494800D01*
G75*
G02*
X391681500Y-280244800I250000J0D01*
G01*
X392181500Y-280244800D01*
G75*
G02*
X392431500Y-280494800I0J-250000D01*
G01*
G37*
G36*
G01*
X394331500Y-280494800D02*
X394331500Y-281444800D01*
G75*
G02*
X394081500Y-281694800I-250000J0D01*
G01*
X393581500Y-281694800D01*
G75*
G02*
X393331500Y-281444800I0J250000D01*
G01*
X393331500Y-280494800D01*
G75*
G02*
X393581500Y-280244800I250000J0D01*
G01*
X394081500Y-280244800D01*
G75*
G02*
X394331500Y-280494800I0J-250000D01*
G01*
G37*
%TD*%
%TO.C,LC77*%
G36*
G01*
X428148000Y-280494800D02*
X428148000Y-281444800D01*
G75*
G02*
X427898000Y-281694800I-250000J0D01*
G01*
X427398000Y-281694800D01*
G75*
G02*
X427148000Y-281444800I0J250000D01*
G01*
X427148000Y-280494800D01*
G75*
G02*
X427398000Y-280244800I250000J0D01*
G01*
X427898000Y-280244800D01*
G75*
G02*
X428148000Y-280494800I0J-250000D01*
G01*
G37*
G36*
G01*
X430048000Y-280494800D02*
X430048000Y-281444800D01*
G75*
G02*
X429798000Y-281694800I-250000J0D01*
G01*
X429298000Y-281694800D01*
G75*
G02*
X429048000Y-281444800I0J250000D01*
G01*
X429048000Y-280494800D01*
G75*
G02*
X429298000Y-280244800I250000J0D01*
G01*
X429798000Y-280244800D01*
G75*
G02*
X430048000Y-280494800I0J-250000D01*
G01*
G37*
%TD*%
%TO.C,LC78*%
G36*
G01*
X492437700Y-280494800D02*
X492437700Y-281444800D01*
G75*
G02*
X492187700Y-281694800I-250000J0D01*
G01*
X491687700Y-281694800D01*
G75*
G02*
X491437700Y-281444800I0J250000D01*
G01*
X491437700Y-280494800D01*
G75*
G02*
X491687700Y-280244800I250000J0D01*
G01*
X492187700Y-280244800D01*
G75*
G02*
X492437700Y-280494800I0J-250000D01*
G01*
G37*
G36*
G01*
X494337700Y-280494800D02*
X494337700Y-281444800D01*
G75*
G02*
X494087700Y-281694800I-250000J0D01*
G01*
X493587700Y-281694800D01*
G75*
G02*
X493337700Y-281444800I0J250000D01*
G01*
X493337700Y-280494800D01*
G75*
G02*
X493587700Y-280244800I250000J0D01*
G01*
X494087700Y-280244800D01*
G75*
G02*
X494337700Y-280494800I0J-250000D01*
G01*
G37*
%TD*%
%TO.C,LC82*%
G36*
G01*
X228135600Y-299543600D02*
X228135600Y-300493600D01*
G75*
G02*
X227885600Y-300743600I-250000J0D01*
G01*
X227385600Y-300743600D01*
G75*
G02*
X227135600Y-300493600I0J250000D01*
G01*
X227135600Y-299543600D01*
G75*
G02*
X227385600Y-299293600I250000J0D01*
G01*
X227885600Y-299293600D01*
G75*
G02*
X228135600Y-299543600I0J-250000D01*
G01*
G37*
G36*
G01*
X230035600Y-299543600D02*
X230035600Y-300493600D01*
G75*
G02*
X229785600Y-300743600I-250000J0D01*
G01*
X229285600Y-300743600D01*
G75*
G02*
X229035600Y-300493600I0J250000D01*
G01*
X229035600Y-299543600D01*
G75*
G02*
X229285600Y-299293600I250000J0D01*
G01*
X229785600Y-299293600D01*
G75*
G02*
X230035600Y-299543600I0J-250000D01*
G01*
G37*
%TD*%
%TO.C,LC83*%
G36*
G01*
X299568600Y-299543600D02*
X299568600Y-300493600D01*
G75*
G02*
X299318600Y-300743600I-250000J0D01*
G01*
X298818600Y-300743600D01*
G75*
G02*
X298568600Y-300493600I0J250000D01*
G01*
X298568600Y-299543600D01*
G75*
G02*
X298818600Y-299293600I250000J0D01*
G01*
X299318600Y-299293600D01*
G75*
G02*
X299568600Y-299543600I0J-250000D01*
G01*
G37*
G36*
G01*
X301468600Y-299543600D02*
X301468600Y-300493600D01*
G75*
G02*
X301218600Y-300743600I-250000J0D01*
G01*
X300718600Y-300743600D01*
G75*
G02*
X300468600Y-300493600I0J250000D01*
G01*
X300468600Y-299543600D01*
G75*
G02*
X300718600Y-299293600I250000J0D01*
G01*
X301218600Y-299293600D01*
G75*
G02*
X301468600Y-299543600I0J-250000D01*
G01*
G37*
%TD*%
%TO.C,LC84*%
G36*
G01*
X371001600Y-299543600D02*
X371001600Y-300493600D01*
G75*
G02*
X370751600Y-300743600I-250000J0D01*
G01*
X370251600Y-300743600D01*
G75*
G02*
X370001600Y-300493600I0J250000D01*
G01*
X370001600Y-299543600D01*
G75*
G02*
X370251600Y-299293600I250000J0D01*
G01*
X370751600Y-299293600D01*
G75*
G02*
X371001600Y-299543600I0J-250000D01*
G01*
G37*
G36*
G01*
X372901600Y-299543600D02*
X372901600Y-300493600D01*
G75*
G02*
X372651600Y-300743600I-250000J0D01*
G01*
X372151600Y-300743600D01*
G75*
G02*
X371901600Y-300493600I0J250000D01*
G01*
X371901600Y-299543600D01*
G75*
G02*
X372151600Y-299293600I250000J0D01*
G01*
X372651600Y-299293600D01*
G75*
G02*
X372901600Y-299543600I0J-250000D01*
G01*
G37*
%TD*%
%TO.C,LC85*%
G36*
G01*
X394812600Y-299543600D02*
X394812600Y-300493600D01*
G75*
G02*
X394562600Y-300743600I-250000J0D01*
G01*
X394062600Y-300743600D01*
G75*
G02*
X393812600Y-300493600I0J250000D01*
G01*
X393812600Y-299543600D01*
G75*
G02*
X394062600Y-299293600I250000J0D01*
G01*
X394562600Y-299293600D01*
G75*
G02*
X394812600Y-299543600I0J-250000D01*
G01*
G37*
G36*
G01*
X396712600Y-299543600D02*
X396712600Y-300493600D01*
G75*
G02*
X396462600Y-300743600I-250000J0D01*
G01*
X395962600Y-300743600D01*
G75*
G02*
X395712600Y-300493600I0J250000D01*
G01*
X395712600Y-299543600D01*
G75*
G02*
X395962600Y-299293600I250000J0D01*
G01*
X396462600Y-299293600D01*
G75*
G02*
X396712600Y-299543600I0J-250000D01*
G01*
G37*
%TD*%
%TO.C,LC86*%
G36*
G01*
X418623600Y-299543600D02*
X418623600Y-300493600D01*
G75*
G02*
X418373600Y-300743600I-250000J0D01*
G01*
X417873600Y-300743600D01*
G75*
G02*
X417623600Y-300493600I0J250000D01*
G01*
X417623600Y-299543600D01*
G75*
G02*
X417873600Y-299293600I250000J0D01*
G01*
X418373600Y-299293600D01*
G75*
G02*
X418623600Y-299543600I0J-250000D01*
G01*
G37*
G36*
G01*
X420523600Y-299543600D02*
X420523600Y-300493600D01*
G75*
G02*
X420273600Y-300743600I-250000J0D01*
G01*
X419773600Y-300743600D01*
G75*
G02*
X419523600Y-300493600I0J250000D01*
G01*
X419523600Y-299543600D01*
G75*
G02*
X419773600Y-299293600I250000J0D01*
G01*
X420273600Y-299293600D01*
G75*
G02*
X420523600Y-299543600I0J-250000D01*
G01*
G37*
%TD*%
%TO.C,LC87*%
G36*
G01*
X442434600Y-299543600D02*
X442434600Y-300493600D01*
G75*
G02*
X442184600Y-300743600I-250000J0D01*
G01*
X441684600Y-300743600D01*
G75*
G02*
X441434600Y-300493600I0J250000D01*
G01*
X441434600Y-299543600D01*
G75*
G02*
X441684600Y-299293600I250000J0D01*
G01*
X442184600Y-299293600D01*
G75*
G02*
X442434600Y-299543600I0J-250000D01*
G01*
G37*
G36*
G01*
X444334600Y-299543600D02*
X444334600Y-300493600D01*
G75*
G02*
X444084600Y-300743600I-250000J0D01*
G01*
X443584600Y-300743600D01*
G75*
G02*
X443334600Y-300493600I0J250000D01*
G01*
X443334600Y-299543600D01*
G75*
G02*
X443584600Y-299293600I250000J0D01*
G01*
X444084600Y-299293600D01*
G75*
G02*
X444334600Y-299543600I0J-250000D01*
G01*
G37*
%TD*%
%TO.C,LC88*%
G36*
G01*
X473388900Y-299543600D02*
X473388900Y-300493600D01*
G75*
G02*
X473138900Y-300743600I-250000J0D01*
G01*
X472638900Y-300743600D01*
G75*
G02*
X472388900Y-300493600I0J250000D01*
G01*
X472388900Y-299543600D01*
G75*
G02*
X472638900Y-299293600I250000J0D01*
G01*
X473138900Y-299293600D01*
G75*
G02*
X473388900Y-299543600I0J-250000D01*
G01*
G37*
G36*
G01*
X475288900Y-299543600D02*
X475288900Y-300493600D01*
G75*
G02*
X475038900Y-300743600I-250000J0D01*
G01*
X474538900Y-300743600D01*
G75*
G02*
X474288900Y-300493600I0J250000D01*
G01*
X474288900Y-299543600D01*
G75*
G02*
X474538900Y-299293600I250000J0D01*
G01*
X475038900Y-299293600D01*
G75*
G02*
X475288900Y-299543600I0J-250000D01*
G01*
G37*
%TD*%
%TO.C,LC89*%
G36*
G01*
X492437700Y-299543600D02*
X492437700Y-300493600D01*
G75*
G02*
X492187700Y-300743600I-250000J0D01*
G01*
X491687700Y-300743600D01*
G75*
G02*
X491437700Y-300493600I0J250000D01*
G01*
X491437700Y-299543600D01*
G75*
G02*
X491687700Y-299293600I250000J0D01*
G01*
X492187700Y-299293600D01*
G75*
G02*
X492437700Y-299543600I0J-250000D01*
G01*
G37*
G36*
G01*
X494337700Y-299543600D02*
X494337700Y-300493600D01*
G75*
G02*
X494087700Y-300743600I-250000J0D01*
G01*
X493587700Y-300743600D01*
G75*
G02*
X493337700Y-300493600I0J250000D01*
G01*
X493337700Y-299543600D01*
G75*
G02*
X493587700Y-299293600I250000J0D01*
G01*
X494087700Y-299293600D01*
G75*
G02*
X494337700Y-299543600I0J-250000D01*
G01*
G37*
%TD*%
%TO.C,LC90*%
G36*
G01*
X510030400Y-302106000D02*
X509080400Y-302106000D01*
G75*
G02*
X508830400Y-301856000I0J250000D01*
G01*
X508830400Y-301356000D01*
G75*
G02*
X509080400Y-301106000I250000J0D01*
G01*
X510030400Y-301106000D01*
G75*
G02*
X510280400Y-301356000I0J-250000D01*
G01*
X510280400Y-301856000D01*
G75*
G02*
X510030400Y-302106000I-250000J0D01*
G01*
G37*
G36*
G01*
X510030400Y-304006000D02*
X509080400Y-304006000D01*
G75*
G02*
X508830400Y-303756000I0J250000D01*
G01*
X508830400Y-303256000D01*
G75*
G02*
X509080400Y-303006000I250000J0D01*
G01*
X510030400Y-303006000D01*
G75*
G02*
X510280400Y-303256000I0J-250000D01*
G01*
X510280400Y-303756000D01*
G75*
G02*
X510030400Y-304006000I-250000J0D01*
G01*
G37*
%TD*%
%TO.C,LC1*%
G36*
G01*
X178132500Y-194775200D02*
X178132500Y-195725200D01*
G75*
G02*
X177882500Y-195975200I-250000J0D01*
G01*
X177382500Y-195975200D01*
G75*
G02*
X177132500Y-195725200I0J250000D01*
G01*
X177132500Y-194775200D01*
G75*
G02*
X177382500Y-194525200I250000J0D01*
G01*
X177882500Y-194525200D01*
G75*
G02*
X178132500Y-194775200I0J-250000D01*
G01*
G37*
G36*
G01*
X180032500Y-194775200D02*
X180032500Y-195725200D01*
G75*
G02*
X179782500Y-195975200I-250000J0D01*
G01*
X179282500Y-195975200D01*
G75*
G02*
X179032500Y-195725200I0J250000D01*
G01*
X179032500Y-194775200D01*
G75*
G02*
X179282500Y-194525200I250000J0D01*
G01*
X179782500Y-194525200D01*
G75*
G02*
X180032500Y-194775200I0J-250000D01*
G01*
G37*
%TD*%
%TO.C,LC15*%
G36*
G01*
X154321500Y-223348400D02*
X154321500Y-224298400D01*
G75*
G02*
X154071500Y-224548400I-250000J0D01*
G01*
X153571500Y-224548400D01*
G75*
G02*
X153321500Y-224298400I0J250000D01*
G01*
X153321500Y-223348400D01*
G75*
G02*
X153571500Y-223098400I250000J0D01*
G01*
X154071500Y-223098400D01*
G75*
G02*
X154321500Y-223348400I0J-250000D01*
G01*
G37*
G36*
G01*
X156221500Y-223348400D02*
X156221500Y-224298400D01*
G75*
G02*
X155971500Y-224548400I-250000J0D01*
G01*
X155471500Y-224548400D01*
G75*
G02*
X155221500Y-224298400I0J250000D01*
G01*
X155221500Y-223348400D01*
G75*
G02*
X155471500Y-223098400I250000J0D01*
G01*
X155971500Y-223098400D01*
G75*
G02*
X156221500Y-223348400I0J-250000D01*
G01*
G37*
%TD*%
%TO.C,LC16*%
G36*
G01*
X178132500Y-223348400D02*
X178132500Y-224298400D01*
G75*
G02*
X177882500Y-224548400I-250000J0D01*
G01*
X177382500Y-224548400D01*
G75*
G02*
X177132500Y-224298400I0J250000D01*
G01*
X177132500Y-223348400D01*
G75*
G02*
X177382500Y-223098400I250000J0D01*
G01*
X177882500Y-223098400D01*
G75*
G02*
X178132500Y-223348400I0J-250000D01*
G01*
G37*
G36*
G01*
X180032500Y-223348400D02*
X180032500Y-224298400D01*
G75*
G02*
X179782500Y-224548400I-250000J0D01*
G01*
X179282500Y-224548400D01*
G75*
G02*
X179032500Y-224298400I0J250000D01*
G01*
X179032500Y-223348400D01*
G75*
G02*
X179282500Y-223098400I250000J0D01*
G01*
X179782500Y-223098400D01*
G75*
G02*
X180032500Y-223348400I0J-250000D01*
G01*
G37*
%TD*%
%TO.C,LC17*%
G36*
G01*
X197181300Y-223348400D02*
X197181300Y-224298400D01*
G75*
G02*
X196931300Y-224548400I-250000J0D01*
G01*
X196431300Y-224548400D01*
G75*
G02*
X196181300Y-224298400I0J250000D01*
G01*
X196181300Y-223348400D01*
G75*
G02*
X196431300Y-223098400I250000J0D01*
G01*
X196931300Y-223098400D01*
G75*
G02*
X197181300Y-223348400I0J-250000D01*
G01*
G37*
G36*
G01*
X199081300Y-223348400D02*
X199081300Y-224298400D01*
G75*
G02*
X198831300Y-224548400I-250000J0D01*
G01*
X198331300Y-224548400D01*
G75*
G02*
X198081300Y-224298400I0J250000D01*
G01*
X198081300Y-223348400D01*
G75*
G02*
X198331300Y-223098400I250000J0D01*
G01*
X198831300Y-223098400D01*
G75*
G02*
X199081300Y-223348400I0J-250000D01*
G01*
G37*
%TD*%
%TO.C,LC33*%
G36*
G01*
X154321500Y-242397200D02*
X154321500Y-243347200D01*
G75*
G02*
X154071500Y-243597200I-250000J0D01*
G01*
X153571500Y-243597200D01*
G75*
G02*
X153321500Y-243347200I0J250000D01*
G01*
X153321500Y-242397200D01*
G75*
G02*
X153571500Y-242147200I250000J0D01*
G01*
X154071500Y-242147200D01*
G75*
G02*
X154321500Y-242397200I0J-250000D01*
G01*
G37*
G36*
G01*
X156221500Y-242397200D02*
X156221500Y-243347200D01*
G75*
G02*
X155971500Y-243597200I-250000J0D01*
G01*
X155471500Y-243597200D01*
G75*
G02*
X155221500Y-243347200I0J250000D01*
G01*
X155221500Y-242397200D01*
G75*
G02*
X155471500Y-242147200I250000J0D01*
G01*
X155971500Y-242147200D01*
G75*
G02*
X156221500Y-242397200I0J-250000D01*
G01*
G37*
%TD*%
%TO.C,LC34*%
G36*
G01*
X182894700Y-242397200D02*
X182894700Y-243347200D01*
G75*
G02*
X182644700Y-243597200I-250000J0D01*
G01*
X182144700Y-243597200D01*
G75*
G02*
X181894700Y-243347200I0J250000D01*
G01*
X181894700Y-242397200D01*
G75*
G02*
X182144700Y-242147200I250000J0D01*
G01*
X182644700Y-242147200D01*
G75*
G02*
X182894700Y-242397200I0J-250000D01*
G01*
G37*
G36*
G01*
X184794700Y-242397200D02*
X184794700Y-243347200D01*
G75*
G02*
X184544700Y-243597200I-250000J0D01*
G01*
X184044700Y-243597200D01*
G75*
G02*
X183794700Y-243347200I0J250000D01*
G01*
X183794700Y-242397200D01*
G75*
G02*
X184044700Y-242147200I250000J0D01*
G01*
X184544700Y-242147200D01*
G75*
G02*
X184794700Y-242397200I0J-250000D01*
G01*
G37*
%TD*%
%TO.C,LC35*%
G36*
G01*
X206705700Y-242397200D02*
X206705700Y-243347200D01*
G75*
G02*
X206455700Y-243597200I-250000J0D01*
G01*
X205955700Y-243597200D01*
G75*
G02*
X205705700Y-243347200I0J250000D01*
G01*
X205705700Y-242397200D01*
G75*
G02*
X205955700Y-242147200I250000J0D01*
G01*
X206455700Y-242147200D01*
G75*
G02*
X206705700Y-242397200I0J-250000D01*
G01*
G37*
G36*
G01*
X208605700Y-242397200D02*
X208605700Y-243347200D01*
G75*
G02*
X208355700Y-243597200I-250000J0D01*
G01*
X207855700Y-243597200D01*
G75*
G02*
X207605700Y-243347200I0J250000D01*
G01*
X207605700Y-242397200D01*
G75*
G02*
X207855700Y-242147200I250000J0D01*
G01*
X208355700Y-242147200D01*
G75*
G02*
X208605700Y-242397200I0J-250000D01*
G01*
G37*
%TD*%
%TO.C,LC51*%
G36*
G01*
X154321500Y-261446000D02*
X154321500Y-262396000D01*
G75*
G02*
X154071500Y-262646000I-250000J0D01*
G01*
X153571500Y-262646000D01*
G75*
G02*
X153321500Y-262396000I0J250000D01*
G01*
X153321500Y-261446000D01*
G75*
G02*
X153571500Y-261196000I250000J0D01*
G01*
X154071500Y-261196000D01*
G75*
G02*
X154321500Y-261446000I0J-250000D01*
G01*
G37*
G36*
G01*
X156221500Y-261446000D02*
X156221500Y-262396000D01*
G75*
G02*
X155971500Y-262646000I-250000J0D01*
G01*
X155471500Y-262646000D01*
G75*
G02*
X155221500Y-262396000I0J250000D01*
G01*
X155221500Y-261446000D01*
G75*
G02*
X155471500Y-261196000I250000J0D01*
G01*
X155971500Y-261196000D01*
G75*
G02*
X156221500Y-261446000I0J-250000D01*
G01*
G37*
%TD*%
%TO.C,LC52*%
G36*
G01*
X185275800Y-261446000D02*
X185275800Y-262396000D01*
G75*
G02*
X185025800Y-262646000I-250000J0D01*
G01*
X184525800Y-262646000D01*
G75*
G02*
X184275800Y-262396000I0J250000D01*
G01*
X184275800Y-261446000D01*
G75*
G02*
X184525800Y-261196000I250000J0D01*
G01*
X185025800Y-261196000D01*
G75*
G02*
X185275800Y-261446000I0J-250000D01*
G01*
G37*
G36*
G01*
X187175800Y-261446000D02*
X187175800Y-262396000D01*
G75*
G02*
X186925800Y-262646000I-250000J0D01*
G01*
X186425800Y-262646000D01*
G75*
G02*
X186175800Y-262396000I0J250000D01*
G01*
X186175800Y-261446000D01*
G75*
G02*
X186425800Y-261196000I250000J0D01*
G01*
X186925800Y-261196000D01*
G75*
G02*
X187175800Y-261446000I0J-250000D01*
G01*
G37*
%TD*%
%TO.C,LC53*%
G36*
G01*
X211467900Y-261446000D02*
X211467900Y-262396000D01*
G75*
G02*
X211217900Y-262646000I-250000J0D01*
G01*
X210717900Y-262646000D01*
G75*
G02*
X210467900Y-262396000I0J250000D01*
G01*
X210467900Y-261446000D01*
G75*
G02*
X210717900Y-261196000I250000J0D01*
G01*
X211217900Y-261196000D01*
G75*
G02*
X211467900Y-261446000I0J-250000D01*
G01*
G37*
G36*
G01*
X213367900Y-261446000D02*
X213367900Y-262396000D01*
G75*
G02*
X213117900Y-262646000I-250000J0D01*
G01*
X212617900Y-262646000D01*
G75*
G02*
X212367900Y-262396000I0J250000D01*
G01*
X212367900Y-261446000D01*
G75*
G02*
X212617900Y-261196000I250000J0D01*
G01*
X213117900Y-261196000D01*
G75*
G02*
X213367900Y-261446000I0J-250000D01*
G01*
G37*
%TD*%
%TO.C,LC65*%
G36*
G01*
X154321500Y-280494800D02*
X154321500Y-281444800D01*
G75*
G02*
X154071500Y-281694800I-250000J0D01*
G01*
X153571500Y-281694800D01*
G75*
G02*
X153321500Y-281444800I0J250000D01*
G01*
X153321500Y-280494800D01*
G75*
G02*
X153571500Y-280244800I250000J0D01*
G01*
X154071500Y-280244800D01*
G75*
G02*
X154321500Y-280494800I0J-250000D01*
G01*
G37*
G36*
G01*
X156221500Y-280494800D02*
X156221500Y-281444800D01*
G75*
G02*
X155971500Y-281694800I-250000J0D01*
G01*
X155471500Y-281694800D01*
G75*
G02*
X155221500Y-281444800I0J250000D01*
G01*
X155221500Y-280494800D01*
G75*
G02*
X155471500Y-280244800I250000J0D01*
G01*
X155971500Y-280244800D01*
G75*
G02*
X156221500Y-280494800I0J-250000D01*
G01*
G37*
%TD*%
%TO.C,LC66*%
G36*
G01*
X190038000Y-280494800D02*
X190038000Y-281444800D01*
G75*
G02*
X189788000Y-281694800I-250000J0D01*
G01*
X189288000Y-281694800D01*
G75*
G02*
X189038000Y-281444800I0J250000D01*
G01*
X189038000Y-280494800D01*
G75*
G02*
X189288000Y-280244800I250000J0D01*
G01*
X189788000Y-280244800D01*
G75*
G02*
X190038000Y-280494800I0J-250000D01*
G01*
G37*
G36*
G01*
X191938000Y-280494800D02*
X191938000Y-281444800D01*
G75*
G02*
X191688000Y-281694800I-250000J0D01*
G01*
X191188000Y-281694800D01*
G75*
G02*
X190938000Y-281444800I0J250000D01*
G01*
X190938000Y-280494800D01*
G75*
G02*
X191188000Y-280244800I250000J0D01*
G01*
X191688000Y-280244800D01*
G75*
G02*
X191938000Y-280494800I0J-250000D01*
G01*
G37*
%TD*%
%TO.C,LC67*%
G36*
G01*
X220992300Y-280494800D02*
X220992300Y-281444800D01*
G75*
G02*
X220742300Y-281694800I-250000J0D01*
G01*
X220242300Y-281694800D01*
G75*
G02*
X219992300Y-281444800I0J250000D01*
G01*
X219992300Y-280494800D01*
G75*
G02*
X220242300Y-280244800I250000J0D01*
G01*
X220742300Y-280244800D01*
G75*
G02*
X220992300Y-280494800I0J-250000D01*
G01*
G37*
G36*
G01*
X222892300Y-280494800D02*
X222892300Y-281444800D01*
G75*
G02*
X222642300Y-281694800I-250000J0D01*
G01*
X222142300Y-281694800D01*
G75*
G02*
X221892300Y-281444800I0J250000D01*
G01*
X221892300Y-280494800D01*
G75*
G02*
X222142300Y-280244800I250000J0D01*
G01*
X222642300Y-280244800D01*
G75*
G02*
X222892300Y-280494800I0J-250000D01*
G01*
G37*
%TD*%
%TO.C,LC79*%
G36*
G01*
X154321500Y-299543600D02*
X154321500Y-300493600D01*
G75*
G02*
X154071500Y-300743600I-250000J0D01*
G01*
X153571500Y-300743600D01*
G75*
G02*
X153321500Y-300493600I0J250000D01*
G01*
X153321500Y-299543600D01*
G75*
G02*
X153571500Y-299293600I250000J0D01*
G01*
X154071500Y-299293600D01*
G75*
G02*
X154321500Y-299543600I0J-250000D01*
G01*
G37*
G36*
G01*
X156221500Y-299543600D02*
X156221500Y-300493600D01*
G75*
G02*
X155971500Y-300743600I-250000J0D01*
G01*
X155471500Y-300743600D01*
G75*
G02*
X155221500Y-300493600I0J250000D01*
G01*
X155221500Y-299543600D01*
G75*
G02*
X155471500Y-299293600I250000J0D01*
G01*
X155971500Y-299293600D01*
G75*
G02*
X156221500Y-299543600I0J-250000D01*
G01*
G37*
%TD*%
%TO.C,LC80*%
G36*
G01*
X180513600Y-299543600D02*
X180513600Y-300493600D01*
G75*
G02*
X180263600Y-300743600I-250000J0D01*
G01*
X179763600Y-300743600D01*
G75*
G02*
X179513600Y-300493600I0J250000D01*
G01*
X179513600Y-299543600D01*
G75*
G02*
X179763600Y-299293600I250000J0D01*
G01*
X180263600Y-299293600D01*
G75*
G02*
X180513600Y-299543600I0J-250000D01*
G01*
G37*
G36*
G01*
X182413600Y-299543600D02*
X182413600Y-300493600D01*
G75*
G02*
X182163600Y-300743600I-250000J0D01*
G01*
X181663600Y-300743600D01*
G75*
G02*
X181413600Y-300493600I0J250000D01*
G01*
X181413600Y-299543600D01*
G75*
G02*
X181663600Y-299293600I250000J0D01*
G01*
X182163600Y-299293600D01*
G75*
G02*
X182413600Y-299543600I0J-250000D01*
G01*
G37*
%TD*%
%TO.C,LC81*%
G36*
G01*
X204324600Y-299543600D02*
X204324600Y-300493600D01*
G75*
G02*
X204074600Y-300743600I-250000J0D01*
G01*
X203574600Y-300743600D01*
G75*
G02*
X203324600Y-300493600I0J250000D01*
G01*
X203324600Y-299543600D01*
G75*
G02*
X203574600Y-299293600I250000J0D01*
G01*
X204074600Y-299293600D01*
G75*
G02*
X204324600Y-299543600I0J-250000D01*
G01*
G37*
G36*
G01*
X206224600Y-299543600D02*
X206224600Y-300493600D01*
G75*
G02*
X205974600Y-300743600I-250000J0D01*
G01*
X205474600Y-300743600D01*
G75*
G02*
X205224600Y-300493600I0J250000D01*
G01*
X205224600Y-299543600D01*
G75*
G02*
X205474600Y-299293600I250000J0D01*
G01*
X205974600Y-299293600D01*
G75*
G02*
X206224600Y-299543600I0J-250000D01*
G01*
G37*
%TD*%
D29*
%TO.C,MX1*%
X174832900Y-194700600D03*
X174832900Y-193200600D03*
X169632900Y-194700600D03*
X169632900Y-193200600D03*
D30*
X178247900Y-183820600D03*
X164822900Y-186360600D03*
%TD*%
D29*
%TO.C,MX2*%
X212930500Y-194700600D03*
X212930500Y-193200600D03*
X207730500Y-194700600D03*
X207730500Y-193200600D03*
D30*
X216345500Y-183820600D03*
X202920500Y-186360600D03*
%TD*%
D29*
%TO.C,MX3*%
X231979300Y-194700600D03*
X231979300Y-193200600D03*
X226779300Y-194700600D03*
X226779300Y-193200600D03*
D30*
X235394300Y-183820600D03*
X221969300Y-186360600D03*
%TD*%
D29*
%TO.C,MX4*%
X251028100Y-194700600D03*
X251028100Y-193200600D03*
X245828100Y-194700600D03*
X245828100Y-193200600D03*
D30*
X254443100Y-183820600D03*
X241018100Y-186360600D03*
%TD*%
D29*
%TO.C,MX5*%
X270076900Y-194700600D03*
X270076900Y-193200600D03*
X264876900Y-194700600D03*
X264876900Y-193200600D03*
D30*
X273491900Y-183820600D03*
X260066900Y-186360600D03*
%TD*%
D29*
%TO.C,MX6*%
X298650100Y-194700600D03*
X298650100Y-193200600D03*
X293450100Y-194700600D03*
X293450100Y-193200600D03*
D30*
X302065100Y-183820600D03*
X288640100Y-186360600D03*
%TD*%
D29*
%TO.C,MX7*%
X317698900Y-194700600D03*
X317698900Y-193200600D03*
X312498900Y-194700600D03*
X312498900Y-193200600D03*
D30*
X321113900Y-183820600D03*
X307688900Y-186360600D03*
%TD*%
D29*
%TO.C,MX8*%
X336747700Y-194700600D03*
X336747700Y-193200600D03*
X331547700Y-194700600D03*
X331547700Y-193200600D03*
D30*
X340162700Y-183820600D03*
X326737700Y-186360600D03*
%TD*%
D29*
%TO.C,MX9*%
X355796500Y-194700600D03*
X355796500Y-193200600D03*
X350596500Y-194700600D03*
X350596500Y-193200600D03*
D30*
X359211500Y-183820600D03*
X345786500Y-186360600D03*
%TD*%
D29*
%TO.C,MX10*%
X384369700Y-194700600D03*
X384369700Y-193200600D03*
X379169700Y-194700600D03*
X379169700Y-193200600D03*
D30*
X387784700Y-183820600D03*
X374359700Y-186360600D03*
%TD*%
D29*
%TO.C,MX11*%
X403418500Y-194700600D03*
X403418500Y-193200600D03*
X398218500Y-194700600D03*
X398218500Y-193200600D03*
D30*
X406833500Y-183820600D03*
X393408500Y-186360600D03*
%TD*%
D29*
%TO.C,MX12*%
X422467300Y-194700600D03*
X422467300Y-193200600D03*
X417267300Y-194700600D03*
X417267300Y-193200600D03*
D30*
X425882300Y-183820600D03*
X412457300Y-186360600D03*
%TD*%
D29*
%TO.C,MX13*%
X441516100Y-194700600D03*
X441516100Y-193200600D03*
X436316100Y-194700600D03*
X436316100Y-193200600D03*
D30*
X444931100Y-183820600D03*
X431506100Y-186360600D03*
%TD*%
D29*
%TO.C,MX14*%
X470089300Y-194700600D03*
X470089300Y-193200600D03*
X464889300Y-194700600D03*
X464889300Y-193200600D03*
D30*
X473504300Y-183820600D03*
X460079300Y-186360600D03*
%TD*%
D29*
%TO.C,MX15*%
X151021900Y-223273800D03*
X151021900Y-221773800D03*
X145821900Y-223273800D03*
X145821900Y-221773800D03*
D30*
X154436900Y-212393800D03*
X141011900Y-214933800D03*
%TD*%
D29*
%TO.C,MX16*%
X174832900Y-223273800D03*
X174832900Y-221773800D03*
X169632900Y-223273800D03*
X169632900Y-221773800D03*
D30*
X178247900Y-212393800D03*
X164822900Y-214933800D03*
%TD*%
D29*
%TO.C,MX17*%
X193881700Y-223273800D03*
X193881700Y-221773800D03*
X188681700Y-223273800D03*
X188681700Y-221773800D03*
D30*
X197296700Y-212393800D03*
X183871700Y-214933800D03*
%TD*%
D29*
%TO.C,MX18*%
X212930500Y-223273800D03*
X212930500Y-221773800D03*
X207730500Y-223273800D03*
X207730500Y-221773800D03*
D30*
X216345500Y-212393800D03*
X202920500Y-214933800D03*
%TD*%
D29*
%TO.C,MX19*%
X231979300Y-223273800D03*
X231979300Y-221773800D03*
X226779300Y-223273800D03*
X226779300Y-221773800D03*
D30*
X235394300Y-212393800D03*
X221969300Y-214933800D03*
%TD*%
D29*
%TO.C,MX20*%
X251028100Y-223273800D03*
X251028100Y-221773800D03*
X245828100Y-223273800D03*
X245828100Y-221773800D03*
D30*
X254443100Y-212393800D03*
X241018100Y-214933800D03*
%TD*%
D29*
%TO.C,MX21*%
X270076900Y-223273800D03*
X270076900Y-221773800D03*
X264876900Y-223273800D03*
X264876900Y-221773800D03*
D30*
X273491900Y-212393800D03*
X260066900Y-214933800D03*
%TD*%
D29*
%TO.C,MX22*%
X289125700Y-223273800D03*
X289125700Y-221773800D03*
X283925700Y-223273800D03*
X283925700Y-221773800D03*
D30*
X292540700Y-212393800D03*
X279115700Y-214933800D03*
%TD*%
D29*
%TO.C,MX23*%
X308174500Y-223273800D03*
X308174500Y-221773800D03*
X302974500Y-223273800D03*
X302974500Y-221773800D03*
D30*
X311589500Y-212393800D03*
X298164500Y-214933800D03*
%TD*%
D29*
%TO.C,MX24*%
X327223300Y-223273800D03*
X327223300Y-221773800D03*
X322023300Y-223273800D03*
X322023300Y-221773800D03*
D30*
X330638300Y-212393800D03*
X317213300Y-214933800D03*
%TD*%
D29*
%TO.C,MX25*%
X346272100Y-223273800D03*
X346272100Y-221773800D03*
X341072100Y-223273800D03*
X341072100Y-221773800D03*
D30*
X349687100Y-212393800D03*
X336262100Y-214933800D03*
%TD*%
D29*
%TO.C,MX26*%
X365320900Y-223273800D03*
X365320900Y-221773800D03*
X360120900Y-223273800D03*
X360120900Y-221773800D03*
D30*
X368735900Y-212393800D03*
X355310900Y-214933800D03*
%TD*%
D29*
%TO.C,MX27*%
X384369700Y-223273800D03*
X384369700Y-221773800D03*
X379169700Y-223273800D03*
X379169700Y-221773800D03*
D30*
X387784700Y-212393800D03*
X374359700Y-214933800D03*
%TD*%
D29*
%TO.C,MX28*%
X403418500Y-223273800D03*
X403418500Y-221773800D03*
X398218500Y-223273800D03*
X398218500Y-221773800D03*
D30*
X406833500Y-212393800D03*
X393408500Y-214933800D03*
%TD*%
D29*
%TO.C,MX29*%
X431991700Y-223273800D03*
X431991700Y-221773800D03*
X426791700Y-223273800D03*
X426791700Y-221773800D03*
D30*
X435406700Y-212393800D03*
X421981700Y-214933800D03*
%TD*%
D29*
%TO.C,MX30*%
X470089300Y-223273800D03*
X470089300Y-221773800D03*
X464889300Y-223273800D03*
X464889300Y-221773800D03*
D30*
X473504300Y-212393800D03*
X460079300Y-214933800D03*
%TD*%
D29*
%TO.C,MX31*%
X489138100Y-223273800D03*
X489138100Y-221773800D03*
X483938100Y-223273800D03*
X483938100Y-221773800D03*
D30*
X492553100Y-212393800D03*
X479128100Y-214933800D03*
%TD*%
D29*
%TO.C,MX32*%
X508186900Y-223273800D03*
X508186900Y-221773800D03*
X502986900Y-223273800D03*
X502986900Y-221773800D03*
D30*
X511601900Y-212393800D03*
X498176900Y-214933800D03*
%TD*%
D29*
%TO.C,MX33*%
X151021900Y-242322600D03*
X151021900Y-240822600D03*
X145821900Y-242322600D03*
X145821900Y-240822600D03*
D30*
X154436900Y-231442600D03*
X141011900Y-233982600D03*
%TD*%
D29*
%TO.C,MX34*%
X179595100Y-242322600D03*
X179595100Y-240822600D03*
X174395100Y-242322600D03*
X174395100Y-240822600D03*
D30*
X183010100Y-231442600D03*
X169585100Y-233982600D03*
%TD*%
D29*
%TO.C,MX35*%
X203406100Y-242322600D03*
X203406100Y-240822600D03*
X198206100Y-242322600D03*
X198206100Y-240822600D03*
D30*
X206821100Y-231442600D03*
X193396100Y-233982600D03*
%TD*%
D29*
%TO.C,MX36*%
X222454900Y-242322600D03*
X222454900Y-240822600D03*
X217254900Y-242322600D03*
X217254900Y-240822600D03*
D30*
X225869900Y-231442600D03*
X212444900Y-233982600D03*
%TD*%
D29*
%TO.C,MX37*%
X241503700Y-242322600D03*
X241503700Y-240822600D03*
X236303700Y-242322600D03*
X236303700Y-240822600D03*
D30*
X244918700Y-231442600D03*
X231493700Y-233982600D03*
%TD*%
D29*
%TO.C,MX38*%
X260552500Y-242322600D03*
X260552500Y-240822600D03*
X255352500Y-242322600D03*
X255352500Y-240822600D03*
D30*
X263967500Y-231442600D03*
X250542500Y-233982600D03*
%TD*%
D29*
%TO.C,MX39*%
X279601300Y-242322600D03*
X279601300Y-240822600D03*
X274401300Y-242322600D03*
X274401300Y-240822600D03*
D30*
X283016300Y-231442600D03*
X269591300Y-233982600D03*
%TD*%
D29*
%TO.C,MX40*%
X298650100Y-242322600D03*
X298650100Y-240822600D03*
X293450100Y-242322600D03*
X293450100Y-240822600D03*
D30*
X302065100Y-231442600D03*
X288640100Y-233982600D03*
%TD*%
D29*
%TO.C,MX41*%
X317698900Y-242322600D03*
X317698900Y-240822600D03*
X312498900Y-242322600D03*
X312498900Y-240822600D03*
D30*
X321113900Y-231442600D03*
X307688900Y-233982600D03*
%TD*%
D29*
%TO.C,MX42*%
X336747700Y-242322600D03*
X336747700Y-240822600D03*
X331547700Y-242322600D03*
X331547700Y-240822600D03*
D30*
X340162700Y-231442600D03*
X326737700Y-233982600D03*
%TD*%
D29*
%TO.C,MX43*%
X355796500Y-242322600D03*
X355796500Y-240822600D03*
X350596500Y-242322600D03*
X350596500Y-240822600D03*
D30*
X359211500Y-231442600D03*
X345786500Y-233982600D03*
%TD*%
D29*
%TO.C,MX45*%
X393894100Y-242322600D03*
X393894100Y-240822600D03*
X388694100Y-242322600D03*
X388694100Y-240822600D03*
D30*
X397309100Y-231442600D03*
X383884100Y-233982600D03*
%TD*%
D29*
%TO.C,MX46*%
X412942900Y-242322600D03*
X412942900Y-240822600D03*
X407742900Y-242322600D03*
X407742900Y-240822600D03*
D30*
X416357900Y-231442600D03*
X402932900Y-233982600D03*
%TD*%
D29*
%TO.C,MX48*%
X470089300Y-242322600D03*
X470089300Y-240822600D03*
X464889300Y-242322600D03*
X464889300Y-240822600D03*
D30*
X473504300Y-231442600D03*
X460079300Y-233982600D03*
%TD*%
D29*
%TO.C,MX49*%
X489138100Y-242322600D03*
X489138100Y-240822600D03*
X483938100Y-242322600D03*
X483938100Y-240822600D03*
D30*
X492553100Y-231442600D03*
X479128100Y-233982600D03*
%TD*%
D29*
%TO.C,MX51*%
X151021900Y-261371400D03*
X151021900Y-259871400D03*
X145821900Y-261371400D03*
X145821900Y-259871400D03*
D30*
X154436900Y-250491400D03*
X141011900Y-253031400D03*
%TD*%
D29*
%TO.C,MX52*%
X181976200Y-261371400D03*
X181976200Y-259871400D03*
X176776200Y-261371400D03*
X176776200Y-259871400D03*
D30*
X185391200Y-250491400D03*
X171966200Y-253031400D03*
%TD*%
D29*
%TO.C,MX53*%
X208110000Y-261371400D03*
X208110000Y-259871400D03*
X202910000Y-261371400D03*
X202910000Y-259871400D03*
D30*
X211525000Y-250491400D03*
X198100000Y-253031400D03*
%TD*%
D29*
%TO.C,MX54*%
X227217100Y-261371400D03*
X227217100Y-259871400D03*
X222017100Y-261371400D03*
X222017100Y-259871400D03*
D30*
X230632100Y-250491400D03*
X217207100Y-253031400D03*
%TD*%
D29*
%TO.C,MX55*%
X246265900Y-261371400D03*
X246265900Y-259871400D03*
X241065900Y-261371400D03*
X241065900Y-259871400D03*
D30*
X249680900Y-250491400D03*
X236255900Y-253031400D03*
%TD*%
D29*
%TO.C,MX56*%
X265314700Y-261371400D03*
X265314700Y-259871400D03*
X260114700Y-261371400D03*
X260114700Y-259871400D03*
D30*
X268729700Y-250491400D03*
X255304700Y-253031400D03*
%TD*%
D29*
%TO.C,MX57*%
X284363500Y-261371400D03*
X284363500Y-259871400D03*
X279163500Y-261371400D03*
X279163500Y-259871400D03*
D30*
X287778500Y-250491400D03*
X274353500Y-253031400D03*
%TD*%
D29*
%TO.C,MX59*%
X322461100Y-261371400D03*
X322461100Y-259871400D03*
X317261100Y-261371400D03*
X317261100Y-259871400D03*
D30*
X325876100Y-250491400D03*
X312451100Y-253031400D03*
%TD*%
D29*
%TO.C,MX60*%
X341509900Y-261371400D03*
X341509900Y-259871400D03*
X336309900Y-261371400D03*
X336309900Y-259871400D03*
D30*
X344924900Y-250491400D03*
X331499900Y-253031400D03*
%TD*%
D29*
%TO.C,MX61*%
X360558700Y-261371400D03*
X360558700Y-259871400D03*
X355358700Y-261371400D03*
X355358700Y-259871400D03*
D30*
X363973700Y-250491400D03*
X350548700Y-253031400D03*
%TD*%
D29*
%TO.C,MX63*%
X398656300Y-261371400D03*
X398656300Y-259871400D03*
X393456300Y-261371400D03*
X393456300Y-259871400D03*
D30*
X402071300Y-250491400D03*
X388646300Y-253031400D03*
%TD*%
D29*
%TO.C,MX65*%
X151021900Y-280420200D03*
X151021900Y-278920200D03*
X145821900Y-280420200D03*
X145821900Y-278920200D03*
D30*
X154436900Y-269540200D03*
X141011900Y-272080200D03*
%TD*%
D29*
%TO.C,MX66*%
X186738400Y-280420200D03*
X186738400Y-278920200D03*
X181538400Y-280420200D03*
X181538400Y-278920200D03*
D30*
X190153400Y-269540200D03*
X176728400Y-272080200D03*
%TD*%
D29*
%TO.C,MX67*%
X217692700Y-280420200D03*
X217692700Y-278920200D03*
X212492700Y-280420200D03*
X212492700Y-278920200D03*
D30*
X221107700Y-269540200D03*
X207682700Y-272080200D03*
%TD*%
D29*
%TO.C,MX68*%
X236741500Y-280420200D03*
X236741500Y-278920200D03*
X231541500Y-280420200D03*
X231541500Y-278920200D03*
D30*
X240156500Y-269540200D03*
X226731500Y-272080200D03*
%TD*%
D29*
%TO.C,MX69*%
X255790300Y-280420200D03*
X255790300Y-278920200D03*
X250590300Y-280420200D03*
X250590300Y-278920200D03*
D30*
X259205300Y-269540200D03*
X245780300Y-272080200D03*
%TD*%
D29*
%TO.C,MX70*%
X274839100Y-280420200D03*
X274839100Y-278920200D03*
X269639100Y-280420200D03*
X269639100Y-278920200D03*
D30*
X278254100Y-269540200D03*
X264829100Y-272080200D03*
%TD*%
D29*
%TO.C,MX71*%
X293887900Y-280420200D03*
X293887900Y-278920200D03*
X288687900Y-280420200D03*
X288687900Y-278920200D03*
D30*
X297302900Y-269540200D03*
X283877900Y-272080200D03*
%TD*%
D29*
%TO.C,MX72*%
X312936700Y-280420200D03*
X312936700Y-278920200D03*
X307736700Y-280420200D03*
X307736700Y-278920200D03*
D30*
X316351700Y-269540200D03*
X302926700Y-272080200D03*
%TD*%
D29*
%TO.C,MX73*%
X331985500Y-280420200D03*
X331985500Y-278920200D03*
X326785500Y-280420200D03*
X326785500Y-278920200D03*
D30*
X335400500Y-269540200D03*
X321975500Y-272080200D03*
%TD*%
D29*
%TO.C,MX74*%
X351034300Y-280420200D03*
X351034300Y-278920200D03*
X345834300Y-280420200D03*
X345834300Y-278920200D03*
D30*
X354449300Y-269540200D03*
X341024300Y-272080200D03*
%TD*%
D29*
%TO.C,MX75*%
X370083100Y-280420200D03*
X370083100Y-278920200D03*
X364883100Y-280420200D03*
X364883100Y-278920200D03*
D30*
X373498100Y-269540200D03*
X360073100Y-272080200D03*
%TD*%
D29*
%TO.C,MX76*%
X389131900Y-280420200D03*
X389131900Y-278920200D03*
X383931900Y-280420200D03*
X383931900Y-278920200D03*
D30*
X392546900Y-269540200D03*
X379121900Y-272080200D03*
%TD*%
%TO.C,MX77*%
X414838400Y-272080200D03*
X428263400Y-269540200D03*
D29*
X419648400Y-278920200D03*
X419648400Y-280420200D03*
X424848400Y-278920200D03*
X424848400Y-280420200D03*
%TD*%
%TO.C,MX78*%
X489138100Y-280420200D03*
X489138100Y-278920200D03*
X483938100Y-280420200D03*
X483938100Y-278920200D03*
D30*
X492553100Y-269540200D03*
X479128100Y-272080200D03*
%TD*%
D29*
%TO.C,MX79*%
X151021900Y-299469000D03*
X151021900Y-297969000D03*
X145821900Y-299469000D03*
X145821900Y-297969000D03*
D30*
X154436900Y-288589000D03*
X141011900Y-291129000D03*
%TD*%
D29*
%TO.C,MX80*%
X177214000Y-299469000D03*
X177214000Y-297969000D03*
X172014000Y-299469000D03*
X172014000Y-297969000D03*
D30*
X180629000Y-288589000D03*
X167204000Y-291129000D03*
%TD*%
D29*
%TO.C,MX81*%
X201025000Y-299469000D03*
X201025000Y-297969000D03*
X195825000Y-299469000D03*
X195825000Y-297969000D03*
D30*
X204440000Y-288589000D03*
X191015000Y-291129000D03*
%TD*%
D29*
%TO.C,MX82*%
X224836000Y-299469000D03*
X224836000Y-297969000D03*
X219636000Y-299469000D03*
X219636000Y-297969000D03*
D30*
X228251000Y-288589000D03*
X214826000Y-291129000D03*
%TD*%
D29*
%TO.C,MX85*%
X391513000Y-299469000D03*
X391513000Y-297969000D03*
X386313000Y-299469000D03*
X386313000Y-297969000D03*
D30*
X394928000Y-288589000D03*
X381503000Y-291129000D03*
%TD*%
D29*
%TO.C,MX86*%
X415324000Y-299469000D03*
X415324000Y-297969000D03*
X410124000Y-299469000D03*
X410124000Y-297969000D03*
D30*
X418739000Y-288589000D03*
X405314000Y-291129000D03*
%TD*%
D29*
%TO.C,MX89*%
X489138100Y-299469000D03*
X489138100Y-297969000D03*
X483938100Y-299469000D03*
X483938100Y-297969000D03*
D30*
X492553100Y-288589000D03*
X479128100Y-291129000D03*
%TD*%
%TO.C,R47*%
G36*
G01*
X166283300Y-195700202D02*
X166283300Y-194800198D01*
G75*
G02*
X166533298Y-194550200I249998J0D01*
G01*
X167058302Y-194550200D01*
G75*
G02*
X167308300Y-194800198I0J-249998D01*
G01*
X167308300Y-195700202D01*
G75*
G02*
X167058302Y-195950200I-249998J0D01*
G01*
X166533298Y-195950200D01*
G75*
G02*
X166283300Y-195700202I0J249998D01*
G01*
G37*
G36*
G01*
X164458300Y-195700202D02*
X164458300Y-194800198D01*
G75*
G02*
X164708298Y-194550200I249998J0D01*
G01*
X165233302Y-194550200D01*
G75*
G02*
X165483300Y-194800198I0J-249998D01*
G01*
X165483300Y-195700202D01*
G75*
G02*
X165233302Y-195950200I-249998J0D01*
G01*
X164708298Y-195950200D01*
G75*
G02*
X164458300Y-195700202I0J249998D01*
G01*
G37*
%TD*%
D29*
%TO.C,MX84*%
X367702000Y-299469000D03*
X367702000Y-297969000D03*
X362502000Y-299469000D03*
X362502000Y-297969000D03*
D30*
X371117000Y-288589000D03*
X357692000Y-291129000D03*
%TD*%
D14*
%TO.C,U7*%
X192281700Y-188944300D03*
D15*
X190281700Y-188744300D03*
X192281700Y-190644300D03*
X190281700Y-190644300D03*
%TD*%
D29*
%TO.C,MX64*%
X429610600Y-261371400D03*
X429610600Y-259871400D03*
X424410600Y-261371400D03*
X424410600Y-259871400D03*
D30*
X433025600Y-250491400D03*
X419600600Y-253031400D03*
%TD*%
D29*
%TO.C,MX47*%
X436753900Y-242322600D03*
X436753900Y-240822600D03*
X431553900Y-242322600D03*
X431553900Y-240822600D03*
D30*
X440168900Y-231442600D03*
X426743900Y-233982600D03*
%TD*%
D29*
%TO.C,MX44*%
X374845300Y-242322600D03*
X374845300Y-240822600D03*
X369645300Y-242322600D03*
X369645300Y-240822600D03*
D30*
X378260300Y-231442600D03*
X364835300Y-233982600D03*
%TD*%
D29*
%TO.C,MX83*%
X296269000Y-299469000D03*
X296269000Y-297969000D03*
X291069000Y-299469000D03*
X291069000Y-297969000D03*
D30*
X299684000Y-288589000D03*
X286259000Y-291129000D03*
%TD*%
D29*
%TO.C,MX88*%
X470089300Y-299469000D03*
X470089300Y-297969000D03*
X464889300Y-299469000D03*
X464889300Y-297969000D03*
D30*
X473504300Y-288589000D03*
X460079300Y-291129000D03*
%TD*%
D29*
%TO.C,MX87*%
X439135000Y-299469000D03*
X439135000Y-297969000D03*
X433935000Y-299469000D03*
X433935000Y-297969000D03*
D30*
X442550000Y-288589000D03*
X429125000Y-291129000D03*
%TD*%
D29*
%TO.C,MX50*%
X508186900Y-242322600D03*
X508186900Y-240822600D03*
X502986900Y-242322600D03*
X502986900Y-240822600D03*
D30*
X511601900Y-231442600D03*
X498176900Y-233982600D03*
%TD*%
D29*
%TO.C,MX90*%
X508186900Y-299469000D03*
X508186900Y-297969000D03*
X502986900Y-299469000D03*
X502986900Y-297969000D03*
D30*
X511601900Y-288589000D03*
X498176900Y-291129000D03*
%TD*%
%TO.C,C5*%
G36*
G01*
X159877400Y-180488600D02*
X159877400Y-181438600D01*
G75*
G02*
X159627400Y-181688600I-250000J0D01*
G01*
X159127400Y-181688600D01*
G75*
G02*
X158877400Y-181438600I0J250000D01*
G01*
X158877400Y-180488600D01*
G75*
G02*
X159127400Y-180238600I250000J0D01*
G01*
X159627400Y-180238600D01*
G75*
G02*
X159877400Y-180488600I0J-250000D01*
G01*
G37*
G36*
G01*
X161777400Y-180488600D02*
X161777400Y-181438600D01*
G75*
G02*
X161527400Y-181688600I-250000J0D01*
G01*
X161027400Y-181688600D01*
G75*
G02*
X160777400Y-181438600I0J250000D01*
G01*
X160777400Y-180488600D01*
G75*
G02*
X161027400Y-180238600I250000J0D01*
G01*
X161527400Y-180238600D01*
G75*
G02*
X161777400Y-180488600I0J-250000D01*
G01*
G37*
%TD*%
%TO.C,C6*%
G36*
G01*
X156015200Y-181438600D02*
X156015200Y-180488600D01*
G75*
G02*
X156265200Y-180238600I250000J0D01*
G01*
X156765200Y-180238600D01*
G75*
G02*
X157015200Y-180488600I0J-250000D01*
G01*
X157015200Y-181438600D01*
G75*
G02*
X156765200Y-181688600I-250000J0D01*
G01*
X156265200Y-181688600D01*
G75*
G02*
X156015200Y-181438600I0J250000D01*
G01*
G37*
G36*
G01*
X154115200Y-181438600D02*
X154115200Y-180488600D01*
G75*
G02*
X154365200Y-180238600I250000J0D01*
G01*
X154865200Y-180238600D01*
G75*
G02*
X155115200Y-180488600I0J-250000D01*
G01*
X155115200Y-181438600D01*
G75*
G02*
X154865200Y-181688600I-250000J0D01*
G01*
X154365200Y-181688600D01*
G75*
G02*
X154115200Y-181438600I0J250000D01*
G01*
G37*
%TD*%
%TO.C,R12*%
G36*
G01*
X160727400Y-179032502D02*
X160727400Y-178132498D01*
G75*
G02*
X160977398Y-177882500I249998J0D01*
G01*
X161502402Y-177882500D01*
G75*
G02*
X161752400Y-178132498I0J-249998D01*
G01*
X161752400Y-179032502D01*
G75*
G02*
X161502402Y-179282500I-249998J0D01*
G01*
X160977398Y-179282500D01*
G75*
G02*
X160727400Y-179032502I0J249998D01*
G01*
G37*
G36*
G01*
X158902400Y-179032502D02*
X158902400Y-178132498D01*
G75*
G02*
X159152398Y-177882500I249998J0D01*
G01*
X159677402Y-177882500D01*
G75*
G02*
X159927400Y-178132498I0J-249998D01*
G01*
X159927400Y-179032502D01*
G75*
G02*
X159677402Y-179282500I-249998J0D01*
G01*
X159152398Y-179282500D01*
G75*
G02*
X158902400Y-179032502I0J249998D01*
G01*
G37*
%TD*%
%TO.C,R13*%
G36*
G01*
X150459302Y-176595100D02*
X149559298Y-176595100D01*
G75*
G02*
X149309300Y-176345102I0J249998D01*
G01*
X149309300Y-175820098D01*
G75*
G02*
X149559298Y-175570100I249998J0D01*
G01*
X150459302Y-175570100D01*
G75*
G02*
X150709300Y-175820098I0J-249998D01*
G01*
X150709300Y-176345102D01*
G75*
G02*
X150459302Y-176595100I-249998J0D01*
G01*
G37*
G36*
G01*
X150459302Y-178420100D02*
X149559298Y-178420100D01*
G75*
G02*
X149309300Y-178170102I0J249998D01*
G01*
X149309300Y-177645098D01*
G75*
G02*
X149559298Y-177395100I249998J0D01*
G01*
X150459302Y-177395100D01*
G75*
G02*
X150709300Y-177645098I0J-249998D01*
G01*
X150709300Y-178170102D01*
G75*
G02*
X150459302Y-178420100I-249998J0D01*
G01*
G37*
%TD*%
%TO.C,R39*%
G36*
G01*
X514717600Y-194906502D02*
X514717600Y-194006498D01*
G75*
G02*
X514967598Y-193756500I249998J0D01*
G01*
X515492602Y-193756500D01*
G75*
G02*
X515742600Y-194006498I0J-249998D01*
G01*
X515742600Y-194906502D01*
G75*
G02*
X515492602Y-195156500I-249998J0D01*
G01*
X514967598Y-195156500D01*
G75*
G02*
X514717600Y-194906502I0J249998D01*
G01*
G37*
G36*
G01*
X512892600Y-194906502D02*
X512892600Y-194006498D01*
G75*
G02*
X513142598Y-193756500I249998J0D01*
G01*
X513667602Y-193756500D01*
G75*
G02*
X513917600Y-194006498I0J-249998D01*
G01*
X513917600Y-194906502D01*
G75*
G02*
X513667602Y-195156500I-249998J0D01*
G01*
X513142598Y-195156500D01*
G75*
G02*
X512892600Y-194906502I0J249998D01*
G01*
G37*
%TD*%
%TO.C,R40*%
G36*
G01*
X155165200Y-178132498D02*
X155165200Y-179032502D01*
G75*
G02*
X154915202Y-179282500I-249998J0D01*
G01*
X154390198Y-179282500D01*
G75*
G02*
X154140200Y-179032502I0J249998D01*
G01*
X154140200Y-178132498D01*
G75*
G02*
X154390198Y-177882500I249998J0D01*
G01*
X154915202Y-177882500D01*
G75*
G02*
X155165200Y-178132498I0J-249998D01*
G01*
G37*
G36*
G01*
X156990200Y-178132498D02*
X156990200Y-179032502D01*
G75*
G02*
X156740202Y-179282500I-249998J0D01*
G01*
X156215198Y-179282500D01*
G75*
G02*
X155965200Y-179032502I0J249998D01*
G01*
X155965200Y-178132498D01*
G75*
G02*
X156215198Y-177882500I249998J0D01*
G01*
X156740202Y-177882500D01*
G75*
G02*
X156990200Y-178132498I0J-249998D01*
G01*
G37*
%TD*%
%TO.C,R48*%
G36*
G01*
X152840402Y-176595100D02*
X151940398Y-176595100D01*
G75*
G02*
X151690400Y-176345102I0J249998D01*
G01*
X151690400Y-175820098D01*
G75*
G02*
X151940398Y-175570100I249998J0D01*
G01*
X152840402Y-175570100D01*
G75*
G02*
X153090400Y-175820098I0J-249998D01*
G01*
X153090400Y-176345102D01*
G75*
G02*
X152840402Y-176595100I-249998J0D01*
G01*
G37*
G36*
G01*
X152840402Y-178420100D02*
X151940398Y-178420100D01*
G75*
G02*
X151690400Y-178170102I0J249998D01*
G01*
X151690400Y-177645098D01*
G75*
G02*
X151940398Y-177395100I249998J0D01*
G01*
X152840402Y-177395100D01*
G75*
G02*
X153090400Y-177645098I0J-249998D01*
G01*
X153090400Y-178170102D01*
G75*
G02*
X152840402Y-178420100I-249998J0D01*
G01*
G37*
%TD*%
%TO.C,R49*%
G36*
G01*
X509161700Y-189350602D02*
X509161700Y-188450598D01*
G75*
G02*
X509411698Y-188200600I249998J0D01*
G01*
X509936702Y-188200600D01*
G75*
G02*
X510186700Y-188450598I0J-249998D01*
G01*
X510186700Y-189350602D01*
G75*
G02*
X509936702Y-189600600I-249998J0D01*
G01*
X509411698Y-189600600D01*
G75*
G02*
X509161700Y-189350602I0J249998D01*
G01*
G37*
G36*
G01*
X507336700Y-189350602D02*
X507336700Y-188450598D01*
G75*
G02*
X507586698Y-188200600I249998J0D01*
G01*
X508111702Y-188200600D01*
G75*
G02*
X508361700Y-188450598I0J-249998D01*
G01*
X508361700Y-189350602D01*
G75*
G02*
X508111702Y-189600600I-249998J0D01*
G01*
X507586698Y-189600600D01*
G75*
G02*
X507336700Y-189350602I0J249998D01*
G01*
G37*
%TD*%
D14*
%TO.C,U3*%
X368483100Y-186563200D03*
D15*
X366483100Y-186363200D03*
X368483100Y-188263200D03*
X366483100Y-188263200D03*
%TD*%
D29*
%TO.C,MX58*%
X303412300Y-261371400D03*
X303412300Y-259871400D03*
X298212300Y-261371400D03*
X298212300Y-259871400D03*
D30*
X306827300Y-250491400D03*
X293402300Y-253031400D03*
%TD*%
D29*
%TO.C,MX62*%
X379607500Y-261371400D03*
X379607500Y-259871400D03*
X374407500Y-261371400D03*
X374407500Y-259871400D03*
D30*
X383022500Y-250491400D03*
X369597500Y-253031400D03*
%TD*%
%TO.C,C42*%
G36*
G01*
X463045800Y-275863900D02*
X463995800Y-275863900D01*
G75*
G02*
X464245800Y-276113900I0J-250000D01*
G01*
X464245800Y-276613900D01*
G75*
G02*
X463995800Y-276863900I-250000J0D01*
G01*
X463045800Y-276863900D01*
G75*
G02*
X462795800Y-276613900I0J250000D01*
G01*
X462795800Y-276113900D01*
G75*
G02*
X463045800Y-275863900I250000J0D01*
G01*
G37*
G36*
G01*
X463045800Y-273963900D02*
X463995800Y-273963900D01*
G75*
G02*
X464245800Y-274213900I0J-250000D01*
G01*
X464245800Y-274713900D01*
G75*
G02*
X463995800Y-274963900I-250000J0D01*
G01*
X463045800Y-274963900D01*
G75*
G02*
X462795800Y-274713900I0J250000D01*
G01*
X462795800Y-274213900D01*
G75*
G02*
X463045800Y-273963900I250000J0D01*
G01*
G37*
%TD*%
%TO.C,C43*%
G36*
G01*
X457646200Y-274963900D02*
X456696200Y-274963900D01*
G75*
G02*
X456446200Y-274713900I0J250000D01*
G01*
X456446200Y-274213900D01*
G75*
G02*
X456696200Y-273963900I250000J0D01*
G01*
X457646200Y-273963900D01*
G75*
G02*
X457896200Y-274213900I0J-250000D01*
G01*
X457896200Y-274713900D01*
G75*
G02*
X457646200Y-274963900I-250000J0D01*
G01*
G37*
G36*
G01*
X457646200Y-276863900D02*
X456696200Y-276863900D01*
G75*
G02*
X456446200Y-276613900I0J250000D01*
G01*
X456446200Y-276113900D01*
G75*
G02*
X456696200Y-275863900I250000J0D01*
G01*
X457646200Y-275863900D01*
G75*
G02*
X457896200Y-276113900I0J-250000D01*
G01*
X457896200Y-276613900D01*
G75*
G02*
X457646200Y-276863900I-250000J0D01*
G01*
G37*
%TD*%
D22*
%TO.C,U13*%
X460346000Y-274413900D03*
X459396000Y-276413900D03*
X461296000Y-276413900D03*
%TD*%
M02*
