%TF.GenerationSoftware,KiCad,Pcbnew,(5.1.10)-1*%
%TF.CreationDate,2021-10-11T22:19:29-04:00*%
%TF.ProjectId,custom_keyboard,63757374-6f6d-45f6-9b65-79626f617264,rev?*%
%TF.SameCoordinates,Original*%
%TF.FileFunction,Soldermask,Top*%
%TF.FilePolarity,Negative*%
%FSLAX46Y46*%
G04 Gerber Fmt 4.6, Leading zero omitted, Abs format (unit mm)*
G04 Created by KiCad (PCBNEW (5.1.10)-1) date 2021-10-11 22:19:29*
%MOMM*%
%LPD*%
G01*
G04 APERTURE LIST*
%ADD10R,2.000000X2.000000*%
%ADD11C,2.000000*%
%ADD12R,3.200000X2.000000*%
%ADD13C,0.650000*%
%ADD14O,1.000000X2.100000*%
%ADD15O,1.000000X1.600000*%
%ADD16C,3.500000*%
%ADD17O,1.500000X2.000000*%
%ADD18O,2.000000X1.500000*%
%ADD19O,2.100000X1.000000*%
%ADD20O,1.600000X1.000000*%
%ADD21C,1.397000*%
%ADD22C,3.000000*%
%ADD23C,1.750000*%
%ADD24C,4.000000*%
%ADD25C,3.048000*%
%ADD26C,3.987800*%
%ADD27C,6.400000*%
G04 APERTURE END LIST*
D10*
%TO.C,ROT1*%
X156358900Y-192075400D03*
D11*
X156358900Y-189575400D03*
X156358900Y-187075400D03*
D12*
X148858900Y-195175400D03*
X148858900Y-183975400D03*
D11*
X141858900Y-192075400D03*
X141858900Y-187075400D03*
%TD*%
D10*
%TO.C,ROT2*%
X511936500Y-192075400D03*
D11*
X511936500Y-189575400D03*
X511936500Y-187075400D03*
D12*
X504436500Y-195175400D03*
X504436500Y-183975400D03*
D11*
X497436500Y-192075400D03*
X497436500Y-187075400D03*
%TD*%
D13*
%TO.C,USB1*%
X284653500Y-177689200D03*
X278873500Y-177689200D03*
D14*
X277443500Y-178219200D03*
X286083500Y-178219200D03*
D15*
X277443500Y-174039200D03*
X286083500Y-174039200D03*
%TD*%
D16*
%TO.C,USB6*%
X479538100Y-181428400D03*
D17*
X490038100Y-184138400D03*
X487538100Y-184138400D03*
X485538100Y-184138400D03*
D16*
X493538100Y-181428400D03*
D17*
X483038100Y-184138400D03*
%TD*%
D16*
%TO.C,USB3*%
X184281700Y-182222100D03*
D17*
X194781700Y-184932100D03*
X192281700Y-184932100D03*
X190281700Y-184932100D03*
D16*
X198281700Y-182222100D03*
D17*
X187781700Y-184932100D03*
%TD*%
D16*
%TO.C,USB4*%
X512265400Y-267620200D03*
D18*
X509555400Y-278120200D03*
X509555400Y-275620200D03*
X509555400Y-273620200D03*
D16*
X512265400Y-281620200D03*
D18*
X509555400Y-271120200D03*
%TD*%
D13*
%TO.C,USB7*%
X513623500Y-207664600D03*
X513623500Y-201884600D03*
D19*
X513093500Y-200454600D03*
X513093500Y-209094600D03*
D20*
X517273500Y-200454600D03*
X517273500Y-209094600D03*
%TD*%
D13*
%TO.C,USB2*%
X140385300Y-201884600D03*
X140385300Y-207664600D03*
D19*
X140915300Y-209094600D03*
X140915300Y-200454600D03*
D20*
X136735300Y-209094600D03*
X136735300Y-200454600D03*
%TD*%
D13*
%TO.C,USB5*%
X370373100Y-177689200D03*
X364593100Y-177689200D03*
D14*
X363163100Y-178219200D03*
X371803100Y-178219200D03*
D15*
X363163100Y-174039200D03*
X371803100Y-174039200D03*
%TD*%
D21*
%TO.C,OL1*%
X504793200Y-259381400D03*
X504793200Y-256841400D03*
X504793200Y-254301400D03*
X504793200Y-251761400D03*
%TD*%
D22*
%TO.C,MX1*%
X174772900Y-183820600D03*
X168422900Y-186360600D03*
D23*
X177312900Y-188900600D03*
X167152900Y-188900600D03*
D24*
X172232900Y-188900600D03*
%TD*%
D22*
%TO.C,MX2*%
X212870500Y-183820600D03*
X206520500Y-186360600D03*
D23*
X215410500Y-188900600D03*
X205250500Y-188900600D03*
D24*
X210330500Y-188900600D03*
%TD*%
D22*
%TO.C,MX3*%
X231919300Y-183820600D03*
X225569300Y-186360600D03*
D23*
X234459300Y-188900600D03*
X224299300Y-188900600D03*
D24*
X229379300Y-188900600D03*
%TD*%
D22*
%TO.C,MX4*%
X250968100Y-183820600D03*
X244618100Y-186360600D03*
D23*
X253508100Y-188900600D03*
X243348100Y-188900600D03*
D24*
X248428100Y-188900600D03*
%TD*%
D22*
%TO.C,MX5*%
X270016900Y-183820600D03*
X263666900Y-186360600D03*
D23*
X272556900Y-188900600D03*
X262396900Y-188900600D03*
D24*
X267476900Y-188900600D03*
%TD*%
D22*
%TO.C,MX6*%
X298590100Y-183820600D03*
X292240100Y-186360600D03*
D23*
X301130100Y-188900600D03*
X290970100Y-188900600D03*
D24*
X296050100Y-188900600D03*
%TD*%
D22*
%TO.C,MX7*%
X317638900Y-183820600D03*
X311288900Y-186360600D03*
D23*
X320178900Y-188900600D03*
X310018900Y-188900600D03*
D24*
X315098900Y-188900600D03*
%TD*%
D22*
%TO.C,MX8*%
X336687700Y-183820600D03*
X330337700Y-186360600D03*
D23*
X339227700Y-188900600D03*
X329067700Y-188900600D03*
D24*
X334147700Y-188900600D03*
%TD*%
D22*
%TO.C,MX9*%
X355736500Y-183820600D03*
X349386500Y-186360600D03*
D23*
X358276500Y-188900600D03*
X348116500Y-188900600D03*
D24*
X353196500Y-188900600D03*
%TD*%
D22*
%TO.C,MX10*%
X384309700Y-183820600D03*
X377959700Y-186360600D03*
D23*
X386849700Y-188900600D03*
X376689700Y-188900600D03*
D24*
X381769700Y-188900600D03*
%TD*%
D22*
%TO.C,MX11*%
X403358500Y-183820600D03*
X397008500Y-186360600D03*
D23*
X405898500Y-188900600D03*
X395738500Y-188900600D03*
D24*
X400818500Y-188900600D03*
%TD*%
D22*
%TO.C,MX12*%
X422407300Y-183820600D03*
X416057300Y-186360600D03*
D23*
X424947300Y-188900600D03*
X414787300Y-188900600D03*
D24*
X419867300Y-188900600D03*
%TD*%
D22*
%TO.C,MX13*%
X441456100Y-183820600D03*
X435106100Y-186360600D03*
D23*
X443996100Y-188900600D03*
X433836100Y-188900600D03*
D24*
X438916100Y-188900600D03*
%TD*%
D22*
%TO.C,MX14*%
X470029300Y-183820600D03*
X463679300Y-186360600D03*
D23*
X472569300Y-188900600D03*
X462409300Y-188900600D03*
D24*
X467489300Y-188900600D03*
%TD*%
D22*
%TO.C,MX15*%
X150961900Y-212393800D03*
X144611900Y-214933800D03*
D23*
X153501900Y-217473800D03*
X143341900Y-217473800D03*
D24*
X148421900Y-217473800D03*
%TD*%
D22*
%TO.C,MX16*%
X174772900Y-212393800D03*
X168422900Y-214933800D03*
D23*
X177312900Y-217473800D03*
X167152900Y-217473800D03*
D24*
X172232900Y-217473800D03*
%TD*%
D22*
%TO.C,MX17*%
X193821700Y-212393800D03*
X187471700Y-214933800D03*
D23*
X196361700Y-217473800D03*
X186201700Y-217473800D03*
D24*
X191281700Y-217473800D03*
%TD*%
D22*
%TO.C,MX18*%
X212870500Y-212393800D03*
X206520500Y-214933800D03*
D23*
X215410500Y-217473800D03*
X205250500Y-217473800D03*
D24*
X210330500Y-217473800D03*
%TD*%
D22*
%TO.C,MX19*%
X231919300Y-212393800D03*
X225569300Y-214933800D03*
D23*
X234459300Y-217473800D03*
X224299300Y-217473800D03*
D24*
X229379300Y-217473800D03*
%TD*%
D22*
%TO.C,MX20*%
X250968100Y-212393800D03*
X244618100Y-214933800D03*
D23*
X253508100Y-217473800D03*
X243348100Y-217473800D03*
D24*
X248428100Y-217473800D03*
%TD*%
D22*
%TO.C,MX21*%
X270016900Y-212393800D03*
X263666900Y-214933800D03*
D23*
X272556900Y-217473800D03*
X262396900Y-217473800D03*
D24*
X267476900Y-217473800D03*
%TD*%
D22*
%TO.C,MX22*%
X289065700Y-212393800D03*
X282715700Y-214933800D03*
D23*
X291605700Y-217473800D03*
X281445700Y-217473800D03*
D24*
X286525700Y-217473800D03*
%TD*%
D22*
%TO.C,MX23*%
X308114500Y-212393800D03*
X301764500Y-214933800D03*
D23*
X310654500Y-217473800D03*
X300494500Y-217473800D03*
D24*
X305574500Y-217473800D03*
%TD*%
D22*
%TO.C,MX24*%
X327163300Y-212393800D03*
X320813300Y-214933800D03*
D23*
X329703300Y-217473800D03*
X319543300Y-217473800D03*
D24*
X324623300Y-217473800D03*
%TD*%
D22*
%TO.C,MX25*%
X346212100Y-212393800D03*
X339862100Y-214933800D03*
D23*
X348752100Y-217473800D03*
X338592100Y-217473800D03*
D24*
X343672100Y-217473800D03*
%TD*%
D22*
%TO.C,MX26*%
X365260900Y-212393800D03*
X358910900Y-214933800D03*
D23*
X367800900Y-217473800D03*
X357640900Y-217473800D03*
D24*
X362720900Y-217473800D03*
%TD*%
D22*
%TO.C,MX27*%
X384309700Y-212393800D03*
X377959700Y-214933800D03*
D23*
X386849700Y-217473800D03*
X376689700Y-217473800D03*
D24*
X381769700Y-217473800D03*
%TD*%
D22*
%TO.C,MX28*%
X403358500Y-212393800D03*
X397008500Y-214933800D03*
D23*
X405898500Y-217473800D03*
X395738500Y-217473800D03*
D24*
X400818500Y-217473800D03*
%TD*%
D25*
%TO.C,MX29*%
X441329700Y-210488800D03*
D26*
X441329700Y-225728800D03*
X417453700Y-225728800D03*
D25*
X417453700Y-210488800D03*
D22*
X431931700Y-212393800D03*
X425581700Y-214933800D03*
D23*
X434471700Y-217473800D03*
X424311700Y-217473800D03*
D24*
X429391700Y-217473800D03*
%TD*%
D22*
%TO.C,MX30*%
X470029300Y-212393800D03*
X463679300Y-214933800D03*
D23*
X472569300Y-217473800D03*
X462409300Y-217473800D03*
D24*
X467489300Y-217473800D03*
%TD*%
D22*
%TO.C,MX31*%
X489078100Y-212393800D03*
X482728100Y-214933800D03*
D23*
X491618100Y-217473800D03*
X481458100Y-217473800D03*
D24*
X486538100Y-217473800D03*
%TD*%
D22*
%TO.C,MX32*%
X508126900Y-212393800D03*
X501776900Y-214933800D03*
D23*
X510666900Y-217473800D03*
X500506900Y-217473800D03*
D24*
X505586900Y-217473800D03*
%TD*%
D22*
%TO.C,MX33*%
X150961900Y-231442600D03*
X144611900Y-233982600D03*
D23*
X153501900Y-236522600D03*
X143341900Y-236522600D03*
D24*
X148421900Y-236522600D03*
%TD*%
D22*
%TO.C,MX34*%
X179535100Y-231442600D03*
X173185100Y-233982600D03*
D23*
X182075100Y-236522600D03*
X171915100Y-236522600D03*
D24*
X176995100Y-236522600D03*
%TD*%
D22*
%TO.C,MX35*%
X203346100Y-231442600D03*
X196996100Y-233982600D03*
D23*
X205886100Y-236522600D03*
X195726100Y-236522600D03*
D24*
X200806100Y-236522600D03*
%TD*%
D22*
%TO.C,MX36*%
X222394900Y-231442600D03*
X216044900Y-233982600D03*
D23*
X224934900Y-236522600D03*
X214774900Y-236522600D03*
D24*
X219854900Y-236522600D03*
%TD*%
D22*
%TO.C,MX37*%
X241443700Y-231442600D03*
X235093700Y-233982600D03*
D23*
X243983700Y-236522600D03*
X233823700Y-236522600D03*
D24*
X238903700Y-236522600D03*
%TD*%
D22*
%TO.C,MX38*%
X260492500Y-231442600D03*
X254142500Y-233982600D03*
D23*
X263032500Y-236522600D03*
X252872500Y-236522600D03*
D24*
X257952500Y-236522600D03*
%TD*%
D22*
%TO.C,MX39*%
X279541300Y-231442600D03*
X273191300Y-233982600D03*
D23*
X282081300Y-236522600D03*
X271921300Y-236522600D03*
D24*
X277001300Y-236522600D03*
%TD*%
D22*
%TO.C,MX40*%
X298590100Y-231442600D03*
X292240100Y-233982600D03*
D23*
X301130100Y-236522600D03*
X290970100Y-236522600D03*
D24*
X296050100Y-236522600D03*
%TD*%
D22*
%TO.C,MX41*%
X317638900Y-231442600D03*
X311288900Y-233982600D03*
D23*
X320178900Y-236522600D03*
X310018900Y-236522600D03*
D24*
X315098900Y-236522600D03*
%TD*%
D22*
%TO.C,MX42*%
X336687700Y-231442600D03*
X330337700Y-233982600D03*
D23*
X339227700Y-236522600D03*
X329067700Y-236522600D03*
D24*
X334147700Y-236522600D03*
%TD*%
D22*
%TO.C,MX43*%
X355736500Y-231442600D03*
X349386500Y-233982600D03*
D23*
X358276500Y-236522600D03*
X348116500Y-236522600D03*
D24*
X353196500Y-236522600D03*
%TD*%
D22*
%TO.C,MX45*%
X393834100Y-231442600D03*
X387484100Y-233982600D03*
D23*
X396374100Y-236522600D03*
X386214100Y-236522600D03*
D24*
X391294100Y-236522600D03*
%TD*%
D22*
%TO.C,MX46*%
X412882900Y-231442600D03*
X406532900Y-233982600D03*
D23*
X415422900Y-236522600D03*
X405262900Y-236522600D03*
D24*
X410342900Y-236522600D03*
%TD*%
D22*
%TO.C,MX48*%
X470029300Y-231442600D03*
X463679300Y-233982600D03*
D23*
X472569300Y-236522600D03*
X462409300Y-236522600D03*
D24*
X467489300Y-236522600D03*
%TD*%
D22*
%TO.C,MX49*%
X489078100Y-231442600D03*
X482728100Y-233982600D03*
D23*
X491618100Y-236522600D03*
X481458100Y-236522600D03*
D24*
X486538100Y-236522600D03*
%TD*%
D22*
%TO.C,MX51*%
X150961900Y-250491400D03*
X144611900Y-253031400D03*
D23*
X153501900Y-255571400D03*
X143341900Y-255571400D03*
D24*
X148421900Y-255571400D03*
%TD*%
D22*
%TO.C,MX52*%
X181916200Y-250491400D03*
X175566200Y-253031400D03*
D23*
X184456200Y-255571400D03*
X174296200Y-255571400D03*
D24*
X179376200Y-255571400D03*
%TD*%
D22*
%TO.C,MX53*%
X208050000Y-250491400D03*
X201700000Y-253031400D03*
D23*
X210590000Y-255571400D03*
X200430000Y-255571400D03*
D24*
X205510000Y-255571400D03*
%TD*%
D22*
%TO.C,MX54*%
X227157100Y-250491400D03*
X220807100Y-253031400D03*
D23*
X229697100Y-255571400D03*
X219537100Y-255571400D03*
D24*
X224617100Y-255571400D03*
%TD*%
D22*
%TO.C,MX55*%
X246205900Y-250491400D03*
X239855900Y-253031400D03*
D23*
X248745900Y-255571400D03*
X238585900Y-255571400D03*
D24*
X243665900Y-255571400D03*
%TD*%
D22*
%TO.C,MX56*%
X265254700Y-250491400D03*
X258904700Y-253031400D03*
D23*
X267794700Y-255571400D03*
X257634700Y-255571400D03*
D24*
X262714700Y-255571400D03*
%TD*%
D22*
%TO.C,MX57*%
X284303500Y-250491400D03*
X277953500Y-253031400D03*
D23*
X286843500Y-255571400D03*
X276683500Y-255571400D03*
D24*
X281763500Y-255571400D03*
%TD*%
D22*
%TO.C,MX59*%
X322401100Y-250491400D03*
X316051100Y-253031400D03*
D23*
X324941100Y-255571400D03*
X314781100Y-255571400D03*
D24*
X319861100Y-255571400D03*
%TD*%
D22*
%TO.C,MX60*%
X341449900Y-250491400D03*
X335099900Y-253031400D03*
D23*
X343989900Y-255571400D03*
X333829900Y-255571400D03*
D24*
X338909900Y-255571400D03*
%TD*%
D22*
%TO.C,MX61*%
X360498700Y-250491400D03*
X354148700Y-253031400D03*
D23*
X363038700Y-255571400D03*
X352878700Y-255571400D03*
D24*
X357958700Y-255571400D03*
%TD*%
D22*
%TO.C,MX63*%
X398596300Y-250491400D03*
X392246300Y-253031400D03*
D23*
X401136300Y-255571400D03*
X390976300Y-255571400D03*
D24*
X396056300Y-255571400D03*
%TD*%
D22*
%TO.C,MX65*%
X150961900Y-269540200D03*
X144611900Y-272080200D03*
D23*
X153501900Y-274620200D03*
X143341900Y-274620200D03*
D24*
X148421900Y-274620200D03*
%TD*%
D25*
%TO.C,MX66*%
X196076400Y-267635200D03*
X172200400Y-267635200D03*
D26*
X196076400Y-282875200D03*
X172200400Y-282875200D03*
D22*
X186678400Y-269540200D03*
X180328400Y-272080200D03*
D23*
X189218400Y-274620200D03*
X179058400Y-274620200D03*
D24*
X184138400Y-274620200D03*
%TD*%
D22*
%TO.C,MX67*%
X217632700Y-269540200D03*
X211282700Y-272080200D03*
D23*
X220172700Y-274620200D03*
X210012700Y-274620200D03*
D24*
X215092700Y-274620200D03*
%TD*%
D22*
%TO.C,MX68*%
X236681500Y-269540200D03*
X230331500Y-272080200D03*
D23*
X239221500Y-274620200D03*
X229061500Y-274620200D03*
D24*
X234141500Y-274620200D03*
%TD*%
D22*
%TO.C,MX69*%
X255730300Y-269540200D03*
X249380300Y-272080200D03*
D23*
X258270300Y-274620200D03*
X248110300Y-274620200D03*
D24*
X253190300Y-274620200D03*
%TD*%
D22*
%TO.C,MX70*%
X274779100Y-269540200D03*
X268429100Y-272080200D03*
D23*
X277319100Y-274620200D03*
X267159100Y-274620200D03*
D24*
X272239100Y-274620200D03*
%TD*%
D22*
%TO.C,MX71*%
X293827900Y-269540200D03*
X287477900Y-272080200D03*
D23*
X296367900Y-274620200D03*
X286207900Y-274620200D03*
D24*
X291287900Y-274620200D03*
%TD*%
D22*
%TO.C,MX72*%
X312876700Y-269540200D03*
X306526700Y-272080200D03*
D23*
X315416700Y-274620200D03*
X305256700Y-274620200D03*
D24*
X310336700Y-274620200D03*
%TD*%
D22*
%TO.C,MX73*%
X331925500Y-269540200D03*
X325575500Y-272080200D03*
D23*
X334465500Y-274620200D03*
X324305500Y-274620200D03*
D24*
X329385500Y-274620200D03*
%TD*%
D22*
%TO.C,MX74*%
X350974300Y-269540200D03*
X344624300Y-272080200D03*
D23*
X353514300Y-274620200D03*
X343354300Y-274620200D03*
D24*
X348434300Y-274620200D03*
%TD*%
D22*
%TO.C,MX75*%
X370023100Y-269540200D03*
X363673100Y-272080200D03*
D23*
X372563100Y-274620200D03*
X362403100Y-274620200D03*
D24*
X367483100Y-274620200D03*
%TD*%
D22*
%TO.C,MX76*%
X389071900Y-269540200D03*
X382721900Y-272080200D03*
D23*
X391611900Y-274620200D03*
X381451900Y-274620200D03*
D24*
X386531900Y-274620200D03*
%TD*%
%TO.C,MX77*%
X422248400Y-274620200D03*
D23*
X417168400Y-274620200D03*
X427328400Y-274620200D03*
D22*
X418438400Y-272080200D03*
X424788400Y-269540200D03*
D26*
X410342150Y-282875200D03*
X434218150Y-282875200D03*
D25*
X410342150Y-267635200D03*
X434218150Y-267635200D03*
%TD*%
D22*
%TO.C,MX78*%
X489078100Y-269540200D03*
X482728100Y-272080200D03*
D23*
X491618100Y-274620200D03*
X481458100Y-274620200D03*
D24*
X486538100Y-274620200D03*
%TD*%
D22*
%TO.C,MX79*%
X150961900Y-288589000D03*
X144611900Y-291129000D03*
D23*
X153501900Y-293669000D03*
X143341900Y-293669000D03*
D24*
X148421900Y-293669000D03*
%TD*%
D22*
%TO.C,MX80*%
X177154000Y-288589000D03*
X170804000Y-291129000D03*
D23*
X179694000Y-293669000D03*
X169534000Y-293669000D03*
D24*
X174614000Y-293669000D03*
%TD*%
D22*
%TO.C,MX81*%
X200965000Y-288589000D03*
X194615000Y-291129000D03*
D23*
X203505000Y-293669000D03*
X193345000Y-293669000D03*
D24*
X198425000Y-293669000D03*
%TD*%
D22*
%TO.C,MX82*%
X224776000Y-288589000D03*
X218426000Y-291129000D03*
D23*
X227316000Y-293669000D03*
X217156000Y-293669000D03*
D24*
X222236000Y-293669000D03*
%TD*%
D22*
%TO.C,MX85*%
X391453000Y-288589000D03*
X385103000Y-291129000D03*
D23*
X393993000Y-293669000D03*
X383833000Y-293669000D03*
D24*
X388913000Y-293669000D03*
%TD*%
D22*
%TO.C,MX86*%
X415264000Y-288589000D03*
X408914000Y-291129000D03*
D23*
X417804000Y-293669000D03*
X407644000Y-293669000D03*
D24*
X412724000Y-293669000D03*
%TD*%
D22*
%TO.C,MX89*%
X489078100Y-288589000D03*
X482728100Y-291129000D03*
D23*
X491618100Y-293669000D03*
X481458100Y-293669000D03*
D24*
X486538100Y-293669000D03*
%TD*%
D22*
%TO.C,MX84*%
X367642000Y-288589000D03*
X361292000Y-291129000D03*
D23*
X370182000Y-293669000D03*
X360022000Y-293669000D03*
D24*
X365102000Y-293669000D03*
%TD*%
D25*
%TO.C,MX64*%
X438948600Y-248586400D03*
X415072600Y-248586400D03*
D26*
X438948600Y-263826400D03*
X415072600Y-263826400D03*
D22*
X429550600Y-250491400D03*
X423200600Y-253031400D03*
D23*
X432090600Y-255571400D03*
X421930600Y-255571400D03*
D24*
X427010600Y-255571400D03*
%TD*%
D22*
%TO.C,MX47*%
X436693900Y-231442600D03*
X430343900Y-233982600D03*
D23*
X439233900Y-236522600D03*
X429073900Y-236522600D03*
D24*
X434153900Y-236522600D03*
%TD*%
D22*
%TO.C,MX44*%
X374785300Y-231442600D03*
X368435300Y-233982600D03*
D23*
X377325300Y-236522600D03*
X367165300Y-236522600D03*
D24*
X372245300Y-236522600D03*
%TD*%
D27*
%TO.C,H1*%
X138897500Y-179376200D03*
%TD*%
%TO.C,H2*%
X138103800Y-241284800D03*
%TD*%
%TO.C,H3*%
X138897500Y-303193400D03*
%TD*%
%TO.C,H4*%
X515111300Y-179376200D03*
%TD*%
%TO.C,H5*%
X515905000Y-241284800D03*
%TD*%
%TO.C,H6*%
X515111300Y-303193400D03*
%TD*%
D25*
%TO.C,MX83*%
X343662550Y-286709400D03*
D26*
X343662550Y-301949400D03*
D25*
X243662750Y-286709400D03*
D26*
X243662750Y-301949400D03*
D22*
X296209000Y-288589000D03*
X289859000Y-291129000D03*
D23*
X298749000Y-293669000D03*
X288589000Y-293669000D03*
D24*
X293669000Y-293669000D03*
%TD*%
D22*
%TO.C,MX88*%
X470029300Y-288589000D03*
X463679300Y-291129000D03*
D23*
X472569300Y-293669000D03*
X462409300Y-293669000D03*
D24*
X467489300Y-293669000D03*
%TD*%
D22*
%TO.C,MX87*%
X439075000Y-288589000D03*
X432725000Y-291129000D03*
D23*
X441615000Y-293669000D03*
X431455000Y-293669000D03*
D24*
X436535000Y-293669000D03*
%TD*%
D22*
%TO.C,MX50*%
X508126900Y-231442600D03*
X501776900Y-233982600D03*
D23*
X510666900Y-236522600D03*
X500506900Y-236522600D03*
D24*
X505586900Y-236522600D03*
%TD*%
D22*
%TO.C,MX90*%
X508126900Y-288589000D03*
X501776900Y-291129000D03*
D23*
X510666900Y-293669000D03*
X500506900Y-293669000D03*
D24*
X505586900Y-293669000D03*
%TD*%
D22*
%TO.C,MX58*%
X303352300Y-250491400D03*
X297002300Y-253031400D03*
D23*
X305892300Y-255571400D03*
X295732300Y-255571400D03*
D24*
X300812300Y-255571400D03*
%TD*%
D22*
%TO.C,MX62*%
X379547500Y-250491400D03*
X373197500Y-253031400D03*
D23*
X382087500Y-255571400D03*
X371927500Y-255571400D03*
D24*
X377007500Y-255571400D03*
%TD*%
M02*
