M48
; DRILL file {KiCad (6.0.0)} date Sun Mar  6 17:03:50 2022
; FORMAT={-:-/ absolute / metric / decimal}
; #@! TF.CreationDate,2022-03-06T17:03:50-05:00
; #@! TF.GenerationSoftware,Kicad,Pcbnew,(6.0.0)
; #@! TF.FileFunction,Plated,1,2,PTH
FMAT,2
METRIC
; #@! TA.AperFunction,Plated,PTH,ViaDrill
T1C0.400
; #@! TA.AperFunction,Plated,PTH,ComponentDrill
T2C0.400
; #@! TA.AperFunction,Plated,PTH,ComponentDrill
T3C0.500
; #@! TA.AperFunction,Plated,PTH,ComponentDrill
T4C0.600
; #@! TA.AperFunction,Plated,PTH,ComponentDrill
T5C0.762
; #@! TA.AperFunction,Plated,PTH,ComponentDrill
T6C0.813
; #@! TA.AperFunction,Plated,PTH,ComponentDrill
T7C1.000
; #@! TA.AperFunction,Plated,PTH,ComponentDrill
T8C1.500
; #@! TA.AperFunction,Plated,PTH,ComponentDrill
T9C3.000
%
G90
G05
T1
X21.033Y-135.723
X21.033Y-154.772
X21.033Y-173.82
X21.033Y-192.869
X22.224Y-139.696
X22.224Y-158.746
X22.224Y-177.795
X22.224Y-196.838
X23.811Y-190.091
X25.002Y-190.091
X25.076Y-148.972
X25.398Y-151.2
X25.398Y-169.455
X26.192Y-111.118
X26.192Y-168.72
X26.589Y-205.965
X26.986Y-165.883
X27.086Y-189.204
X27.383Y-130.623
X27.383Y-149.672
X27.383Y-150.803
X27.383Y-206.818
X27.383Y-208.253
X29.367Y-121.436
X29.367Y-140.485
X29.367Y-159.534
X29.367Y-178.582
X32.84Y-208.048
X32.939Y-130.564
X32.939Y-151.2
X32.939Y-168.852
X32.939Y-169.852
X32.939Y-187.901
X32.939Y-188.901
X33.235Y-206.462
X33.555Y-149.79
X33.832Y-170.984
X33.952Y-190.001
X34.129Y-130.724
X38.098Y-129.373
X38.098Y-148.422
X38.098Y-167.471
X38.098Y-186.519
X38.098Y-205.568
X39.685Y-116.674
X44.397Y-102.684
X44.447Y-116.674
X44.844Y-103.578
X46.035Y-92.069
X48.416Y-158.74
X48.416Y-196.838
X50.797Y-139.691
X53.178Y-92.863
X53.178Y-121.436
X53.575Y-169.852
X53.575Y-207.949
X55.559Y-159.534
X55.559Y-197.631
X56.75Y-102.181
X56.75Y-103.181
X56.75Y-130.754
X56.75Y-131.754
X57.729Y-104.281
X57.94Y-140.485
X57.94Y-177.789
X59.106Y-207.924
X59.131Y-168.852
X59.131Y-169.852
X59.862Y-209.244
X59.99Y-171.018
X60.321Y-187.313
X61.909Y-100.8
X61.909Y-129.373
X62.149Y-209.049
X63.099Y-188.901
X63.496Y-116.674
X64.29Y-167.471
X64.29Y-205.568
X65.083Y-92.069
X65.083Y-178.582
X66.671Y-148.422
X68.655Y-187.901
X68.655Y-188.901
X69.524Y-190.057
X72.227Y-121.436
X72.227Y-196.838
X73.02Y-108.737
X73.814Y-186.519
X74.608Y-139.691
X79.37Y-158.74
X79.37Y-197.631
X80.957Y-129.373
X81.751Y-140.485
X82.545Y-116.674
X84.132Y-92.069
X84.529Y-169.852
X85.72Y-176.995
X86.513Y-159.534
X87.307Y-176.201
X88.068Y-132.556
X88.101Y-205.568
X89.291Y-103.181
X89.291Y-131.754
X90.085Y-168.852
X90.085Y-169.852
X90.482Y-148.422
X91.275Y-92.863
X91.275Y-121.436
X91.302Y-170.952
X92.069Y-108.737
X93.657Y-139.691
X94.053Y-188.901
X94.843Y-130.816
X94.847Y-102.181
X94.847Y-103.181
X94.847Y-131.816
X95.244Y-167.471
X95.741Y-104.313
X96.038Y-178.582
X96.038Y-196.838
X97.48Y-151.648
X98.419Y-158.74
X98.816Y-150.803
X99.609Y-187.901
X99.609Y-188.901
X100.006Y-100.8
X100.006Y-129.373
X100.503Y-190.033
X100.8Y-140.485
X101.594Y-116.674
X103.181Y-92.069
X103.181Y-197.631
X103.578Y-169.852
X104.372Y-149.803
X104.372Y-150.803
X104.768Y-186.519
X105.562Y-159.534
X107.943Y-177.789
X108.34Y-103.181
X108.34Y-132.151
X109.134Y-168.852
X109.134Y-169.852
X109.531Y-148.422
X110.147Y-170.952
X110.324Y-92.863
X110.324Y-121.436
X111.118Y-108.737
X111.912Y-205.568
X112.705Y-139.691
X113.102Y-188.901
X113.896Y-102.181
X113.896Y-103.181
X113.896Y-130.754
X113.896Y-131.754
X114.293Y-167.471
X114.756Y-104.347
X114.875Y-132.854
X115.087Y-178.582
X117.468Y-158.74
X117.864Y-151.2
X118.658Y-187.901
X118.658Y-188.901
X119.055Y-100.8
X119.055Y-129.373
X119.518Y-190.067
X119.849Y-140.485
X120.642Y-116.674
X122.23Y-92.069
X122.627Y-169.852
X123.42Y-149.803
X123.42Y-150.803
X123.817Y-186.519
X124.28Y-151.969
X124.611Y-159.534
X125.405Y-199.219
X126.992Y-177.789
X127.389Y-103.181
X127.389Y-131.754
X128.183Y-168.852
X128.183Y-169.852
X128.579Y-148.422
X129.234Y-170.952
X129.373Y-92.863
X129.373Y-121.436
X130.167Y-108.737
X131.754Y-139.691
X132.379Y-188.901
X132.945Y-102.181
X132.945Y-103.181
X132.945Y-130.754
X132.945Y-131.754
X133.342Y-167.471
X133.839Y-104.313
X133.924Y-132.854
X134.135Y-178.582
X136.516Y-158.74
X136.913Y-150.803
X137.707Y-188.901
X138.104Y-100.8
X138.104Y-129.373
X138.897Y-140.485
X139.691Y-116.674
X139.691Y-121.436
X141.279Y-92.069
X141.675Y-169.852
X142.469Y-149.803
X142.469Y-150.803
X142.866Y-186.519
X143.329Y-151.969
X143.66Y-159.534
X146.041Y-177.789
X146.438Y-103.181
X146.438Y-131.754
X147.231Y-169.852
X147.628Y-148.422
X148.422Y-92.863
X148.422Y-121.436
X149.216Y-108.737
X149.583Y-190.03
X150.319Y-190.765
X150.413Y-187.318
X150.803Y-139.691
X151.2Y-188.901
X151.994Y-102.181
X151.994Y-103.181
X151.994Y-130.754
X151.994Y-131.754
X152.39Y-167.471
X152.853Y-104.347
X152.887Y-132.886
X153.184Y-178.582
X155.565Y-158.74
X155.962Y-150.803
X156.741Y-187.991
X156.756Y-189.391
X157.153Y-100.8
X157.153Y-129.373
X157.731Y-188.133
X157.946Y-140.485
X158.343Y-189.001
X158.74Y-116.674
X159.153Y-171.026
X159.86Y-171.734
X160.326Y-168.196
X160.724Y-169.852
X161.518Y-149.803
X161.518Y-150.803
X161.915Y-186.519
X162.378Y-151.969
X162.708Y-159.534
X165.09Y-177.789
X165.486Y-131.754
X166.27Y-168.949
X166.28Y-170.349
X166.677Y-148.422
X167.261Y-169.084
X167.471Y-121.436
X167.471Y-196.838
X167.868Y-169.949
X168.264Y-108.737
X168.661Y-190.801
X169.852Y-92.069
X169.852Y-139.691
X170.249Y-188.901
X171.042Y-130.754
X171.042Y-131.754
X171.439Y-167.471
X171.832Y-132.991
X172.233Y-178.582
X172.63Y-207.949
X174.614Y-158.74
X174.614Y-197.631
X175.011Y-103.181
X175.011Y-150.803
X175.805Y-188.07
X175.805Y-189.47
X176.201Y-129.373
X176.828Y-188.467
X176.995Y-92.863
X176.995Y-140.485
X177.789Y-116.674
X178.186Y-207.949
X178.393Y-171.752
X179.031Y-209.347
X179.679Y-208.021
X179.773Y-169.852
X180.567Y-103.181
X180.567Y-149.803
X180.567Y-150.803
X180.964Y-186.519
X181.58Y-151.903
X181.757Y-159.534
X183.345Y-205.568
X184.138Y-177.789
X184.535Y-131.754
X185.329Y-169.021
X185.329Y-170.421
X185.726Y-100.8
X185.726Y-148.422
X186.519Y-121.436
X186.583Y-169.552
X187.313Y-108.737
X188.107Y-190.87
X188.901Y-92.069
X188.901Y-139.691
X189.297Y-188.901
X190.091Y-130.754
X190.091Y-131.754
X190.488Y-167.471
X191.028Y-132.998
X191.282Y-178.582
X192.707Y-104.42
X193.414Y-105.127
X193.652Y-101.578
X193.663Y-158.74
X194.06Y-103.181
X194.06Y-150.803
X194.853Y-188.07
X194.853Y-189.47
X195.25Y-129.373
X195.845Y-188.435
X196.044Y-92.863
X196.044Y-140.485
X196.838Y-116.674
X197.631Y-171.821
X198.822Y-169.852
X199.556Y-102.178
X199.616Y-103.578
X199.616Y-149.803
X199.616Y-150.803
X200.012Y-186.519
X200.475Y-151.969
X200.576Y-102.498
X200.806Y-159.534
X201.203Y-103.278
X203.187Y-177.789
X203.584Y-131.754
X204.378Y-169.021
X204.378Y-170.421
X204.775Y-100.8
X204.775Y-148.422
X205.369Y-169.387
X205.568Y-121.436
X206.362Y-108.737
X206.437Y-192.07
X207.949Y-92.069
X207.949Y-139.691
X208.346Y-188.901
X209.14Y-131.754
X209.537Y-167.471
X210.331Y-178.582
X211.73Y-105.115
X212.712Y-158.74
X213.108Y-103.181
X213.108Y-150.803
X213.902Y-188.07
X213.902Y-189.47
X214.299Y-129.373
X214.894Y-188.435
X215.093Y-92.863
X215.093Y-140.485
X215.829Y-173.021
X215.886Y-116.674
X217.871Y-169.852
X218.664Y-103.578
X218.664Y-150.803
X218.698Y-102.178
X219.061Y-186.519
X219.697Y-102.584
X219.855Y-159.534
X221.26Y-132.854
X221.442Y-199.219
X222.053Y-133.524
X222.121Y-130.098
X222.236Y-177.789
X222.236Y-192.069
X222.731Y-131.656
X223.427Y-169.021
X223.427Y-170.421
X223.823Y-100.8
X223.823Y-148.422
X224.45Y-169.418
X224.617Y-121.436
X226.998Y-92.069
X226.998Y-139.691
X227.395Y-188.901
X228.189Y-130.751
X228.189Y-132.151
X228.586Y-167.471
X229.203Y-131.139
X229.379Y-178.582
X230.173Y-131.851
X230.54Y-151.932
X230.891Y-105.226
X231.276Y-152.668
X231.749Y-149.2
X231.76Y-158.74
X232.157Y-103.181
X232.157Y-150.803
X232.951Y-188.07
X232.951Y-189.47
X233.348Y-129.373
X233.974Y-188.467
X234.141Y-92.863
X234.141Y-140.485
X235.283Y-173.07
X236.919Y-169.852
X237.713Y-102.178
X237.713Y-103.578
X237.713Y-149.8
X237.713Y-151.2
X238.11Y-186.519
X238.68Y-150.055
X238.729Y-102.568
X238.904Y-159.534
X239.319Y-150.825
X239.697Y-196.838
X240.224Y-133.651
X240.78Y-106.278
X240.826Y-102.472
X241.285Y-177.789
X241.682Y-131.754
X241.776Y-105.878
X241.813Y-102.872
X242.475Y-169.021
X242.475Y-170.421
X242.768Y-103.272
X242.768Y-105.478
X242.804Y-210.002
X242.872Y-100.8
X242.872Y-148.422
X243.58Y-169.327
X243.666Y-121.436
X243.752Y-103.664
X243.752Y-105.079
X244.063Y-207.949
X244.46Y-87.704
X244.46Y-92.069
X244.46Y-97.625
X244.46Y-100.8
X244.46Y-104.372
X244.505Y-192.07
X246.047Y-109.531
X246.047Y-139.691
X246.047Y-197.631
X246.444Y-188.901
X247.178Y-130.751
X247.238Y-132.151
X247.634Y-99.609
X247.634Y-107.149
X247.634Y-167.471
X248.428Y-178.582
X248.449Y-131.336
X249.619Y-206.949
X249.619Y-207.949
X250.015Y-109.531
X250.089Y-151.92
X250.478Y-209.116
X250.809Y-99.609
X250.809Y-107.149
X250.809Y-158.74
X251.206Y-150.803
X251.603Y-92.863
X252.0Y-104.372
X252.0Y-188.07
X252.0Y-189.47
X252.397Y-91.275
X252.397Y-129.373
X252.707Y-103.664
X252.707Y-105.079
X253.023Y-188.467
X253.19Y-87.307
X253.19Y-140.485
X253.691Y-103.272
X253.691Y-105.478
X253.984Y-100.8
X253.984Y-173.021
X254.647Y-102.872
X254.684Y-105.878
X254.778Y-205.568
X255.571Y-92.069
X255.633Y-102.472
X255.68Y-106.278
X255.968Y-169.852
X256.715Y-152.125
X256.762Y-150.009
X257.159Y-109.531
X257.159Y-186.519
X257.952Y-159.534
X258.051Y-150.308
X258.816Y-106.278
X259.471Y-133.807
X259.54Y-90.482
X259.54Y-101.594
X260.334Y-177.789
X260.73Y-103.181
X260.73Y-131.754
X261.524Y-168.852
X261.524Y-170.346
X261.921Y-148.422
X262.715Y-92.863
X262.715Y-121.436
X262.715Y-169.455
X262.715Y-196.838
X263.508Y-107.149
X263.508Y-109.531
X264.302Y-189.07
X265.096Y-139.691
X265.493Y-188.901
X266.282Y-130.751
X266.286Y-103.578
X266.286Y-132.151
X266.314Y-210.249
X266.346Y-102.178
X266.683Y-167.471
X267.477Y-178.582
X267.503Y-131.187
X267.552Y-102.663
X267.874Y-207.949
X269.165Y-151.9
X269.858Y-158.74
X269.858Y-197.631
X270.255Y-150.803
X270.652Y-107.149
X270.652Y-109.531
X271.049Y-187.901
X271.049Y-188.901
X271.445Y-100.8
X271.445Y-129.373
X272.239Y-140.485
X272.57Y-174.217
X273.43Y-206.949
X273.43Y-207.949
X273.57Y-174.217
X274.443Y-209.049
X274.57Y-174.217
X274.62Y-92.069
X274.919Y-169.945
X275.57Y-174.217
X275.811Y-150.009
X276.208Y-186.519
X276.57Y-174.217
X276.778Y-150.384
X277.001Y-159.534
X277.57Y-174.217
X277.738Y-106.35
X277.742Y-134.923
X278.57Y-174.217
X278.589Y-205.568
X279.57Y-174.218
X279.779Y-103.181
X279.779Y-131.754
X280.57Y-174.216
X280.573Y-169.058
X280.573Y-170.058
X280.97Y-148.422
X280.97Y-184.932
X281.763Y-92.863
X281.763Y-121.436
X281.763Y-178.979
X281.963Y-170.694
X282.16Y-174.614
X282.557Y-107.149
X282.557Y-109.531
X283.019Y-170.607
X283.098Y-186.147
X283.748Y-178.979
X284.097Y-186.109
X284.145Y-139.691
X284.541Y-174.614
X284.841Y-178.882
X285.318Y-132.361
X285.335Y-103.578
X285.335Y-130.96
X285.373Y-102.178
X285.693Y-192.908
X285.732Y-167.471
X286.383Y-102.573
X286.428Y-131.455
X286.923Y-174.614
X287.319Y-180.17
X288.51Y-190.488
X289.294Y-153.49
X289.304Y-150.803
X289.7Y-107.149
X289.7Y-109.531
X290.22Y-210.249
X290.253Y-153.09
X290.494Y-100.8
X290.494Y-129.373
X290.891Y-185.726
X291.082Y-152.39
X291.288Y-140.485
X291.685Y-173.423
X291.685Y-207.949
X292.082Y-152.39
X293.669Y-92.069
X293.669Y-171.439
X293.669Y-197.631
X294.86Y-150.009
X295.653Y-190.488
X295.851Y-150.338
X296.05Y-134.135
X296.05Y-177.789
X296.844Y-164.296
X296.849Y-150.103
X296.985Y-106.35
X297.241Y-206.949
X297.241Y-207.949
X298.344Y-209.049
X298.828Y-103.181
X300.019Y-148.422
X300.019Y-189.07
X300.812Y-92.863
X300.812Y-158.74
X301.209Y-188.901
X302.4Y-134.135
X302.4Y-171.439
X302.4Y-205.568
X304.384Y-102.35
X304.384Y-103.75
X304.781Y-154.772
X305.575Y-102.784
X305.971Y-130.167
X306.765Y-187.901
X306.765Y-188.901
X307.956Y-127.786
X307.956Y-139.691
X307.956Y-159.534
X308.352Y-131.754
X308.749Y-192.869
X309.543Y-100.8
X310.337Y-107.149
X310.337Y-109.531
X310.337Y-121.436
X311.527Y-135.326
X311.742Y-152.303
X311.924Y-186.519
X312.718Y-92.069
X312.718Y-190.885
X313.115Y-150.803
X313.512Y-186.519
X313.908Y-130.96
X313.908Y-131.961
X313.908Y-133.361
X313.936Y-210.249
X315.099Y-107.149
X315.099Y-109.531
X315.099Y-140.485
X315.496Y-207.949
X315.893Y-134.533
X316.686Y-103.35
X316.686Y-167.471
X316.877Y-134.057
X317.48Y-197.631
X317.877Y-103.181
X317.877Y-133.738
X318.671Y-149.972
X319.007Y-133.378
X319.067Y-129.373
X319.861Y-92.863
X319.861Y-132.857
X319.861Y-150.406
X319.861Y-190.091
X320.655Y-164.296
X321.052Y-207.949
X321.499Y-207.055
X323.036Y-122.23
X323.433Y-102.35
X323.433Y-103.35
X323.83Y-148.422
X324.623Y-151.994
X324.623Y-192.869
X325.417Y-107.149
X325.417Y-109.531
X325.417Y-154.772
X325.504Y-149.699
X325.504Y-151.113
X325.814Y-182.154
X325.814Y-186.519
X326.211Y-120.642
X326.211Y-129.373
X326.211Y-130.564
X326.211Y-131.564
X326.211Y-132.564
X326.211Y-133.564
X326.211Y-148.422
X326.211Y-150.406
X326.211Y-205.568
X327.004Y-119.849
X327.748Y-196.145
X327.798Y-119.055
X328.195Y-182.154
X328.195Y-195.25
X328.592Y-100.8
X329.195Y-195.25
X329.385Y-186.123
X329.385Y-194.06
X330.179Y-198.425
X330.179Y-205.568
X330.179Y-206.759
X330.973Y-182.154
X331.336Y-176.16
X331.767Y-109.531
X331.767Y-206.849
X332.063Y-208.649
X332.56Y-107.149
X332.56Y-191.679
X332.957Y-207.949
X335.735Y-159.534
X336.132Y-165.883
X336.132Y-207.949
X336.839Y-207.242
X336.926Y-114.69
X336.926Y-117.864
X336.926Y-124.214
X336.926Y-127.786
X336.926Y-134.929
X336.926Y-146.834
X336.926Y-149.216
X336.926Y-153.978
X337.282Y-173.067
X337.546Y-206.535
X337.801Y-178.089
X339.307Y-113.896
X339.307Y-115.483
X339.307Y-127.786
X339.307Y-134.929
X339.307Y-146.834
X339.307Y-150.406
X339.704Y-181.757
X339.704Y-205.568
X340.014Y-149.699
X340.014Y-151.113
X340.497Y-115.849
X340.497Y-116.849
X340.497Y-117.849
X340.497Y-118.849
X340.497Y-119.849
X340.497Y-129.373
X340.497Y-130.564
X340.497Y-131.564
X340.497Y-132.564
X340.497Y-133.564
X340.497Y-148.422
X340.497Y-161.121
X341.009Y-151.506
X341.291Y-188.901
X342.085Y-92.069
X342.085Y-139.691
X342.085Y-153.184
X342.085Y-159.534
X342.878Y-182.551
X343.672Y-130.564
X343.672Y-159.534
X343.788Y-180.286
X345.26Y-103.25
X345.26Y-169.852
X346.053Y-127.786
X346.053Y-154.772
X346.053Y-186.519
X346.053Y-191.282
X346.192Y-151.138
X346.45Y-103.181
X346.45Y-132.151
X346.45Y-207.949
X347.641Y-174.614
X348.434Y-92.863
X348.434Y-121.436
X348.434Y-140.485
X348.434Y-153.581
X348.434Y-159.534
X348.434Y-197.631
X349.228Y-111.912
X349.547Y-181.757
X349.625Y-165.486
X350.022Y-172.233
X350.022Y-176.995
X350.815Y-188.901
X352.006Y-102.181
X352.006Y-103.181
X352.006Y-130.754
X352.006Y-131.754
X352.006Y-150.009
X352.006Y-151.009
X352.006Y-206.949
X352.006Y-207.949
X352.403Y-174.614
X352.8Y-166.28
X352.987Y-209.56
X353.019Y-132.861
X353.123Y-151.918
X353.196Y-182.154
X354.134Y-160.327
X354.784Y-169.852
X354.784Y-178.582
X354.928Y-161.121
X355.578Y-186.519
X355.578Y-191.282
X356.133Y-166.042
X357.165Y-100.8
X357.165Y-129.373
X357.165Y-148.422
X357.165Y-205.568
X358.752Y-168.264
X358.752Y-176.598
X359.578Y-184.096
X360.34Y-92.069
X360.34Y-139.691
X360.34Y-177.789
X360.34Y-196.838
X361.133Y-156.359
X361.133Y-157.946
X362.446Y-161.121
X363.118Y-109.134
X363.118Y-110.324
X364.499Y-131.754
X364.499Y-150.803
X364.604Y-207.249
X365.102Y-113.499
X365.102Y-184.932
X365.102Y-203.981
X365.499Y-131.754
X365.499Y-150.803
X365.499Y-187.901
X365.499Y-188.901
X365.499Y-207.949
X366.689Y-171.439
X366.689Y-177.789
X366.702Y-172.452
X367.483Y-92.863
X367.483Y-121.436
X367.483Y-140.485
X367.483Y-170.645
X367.483Y-197.631
X369.07Y-161.915
X369.864Y-113.499
X371.055Y-130.96
X371.055Y-131.961
X371.055Y-150.009
X371.055Y-151.009
X371.055Y-188.107
X371.055Y-189.107
X371.055Y-206.949
X371.055Y-207.949
X371.762Y-208.718
X372.245Y-106.356
X372.245Y-117.071
X372.761Y-209.119
X373.139Y-116.624
X373.436Y-130.167
X374.033Y-116.177
X374.626Y-106.356
X374.626Y-111.515
X376.214Y-112.705
X376.214Y-132.96
X376.214Y-148.422
X376.214Y-186.519
X376.214Y-205.568
X376.611Y-115.88
X376.611Y-131.161
X377.007Y-109.227
X377.007Y-161.915
X377.007Y-178.582
X377.764Y-148.422
X377.801Y-116.674
X377.801Y-196.044
X378.595Y-129.373
X378.595Y-177.789
X378.595Y-205.568
X379.389Y-139.691
X380.976Y-161.915
X381.272Y-193.569
X382.167Y-192.869
X382.167Y-194.268
X383.357Y-171.439
X386.532Y-121.436
X386.532Y-140.485
X386.532Y-197.631
X387.326Y-111.912
X387.326Y-183.345
X395.263Y-129.373
X395.263Y-148.422
X395.263Y-159.534
X395.263Y-205.568
T2
X21.271Y-122.896
X21.271Y-124.42
X21.271Y-141.945
X21.271Y-143.469
X21.271Y-160.994
X21.271Y-162.518
X21.271Y-180.043
X21.271Y-181.567
X21.271Y-199.091
X21.271Y-200.615
X37.781Y-120.356
X37.781Y-121.88
X37.781Y-139.405
X37.781Y-140.929
X37.781Y-158.454
X37.781Y-159.978
X37.781Y-177.503
X37.781Y-179.027
X37.781Y-196.552
X37.781Y-198.076
X45.082Y-94.323
X45.082Y-95.847
X45.082Y-122.896
X45.082Y-124.42
X47.463Y-160.994
X47.463Y-162.518
X47.463Y-199.091
X47.463Y-200.615
X49.844Y-141.945
X49.844Y-143.469
X56.987Y-180.043
X56.987Y-181.567
X61.592Y-91.783
X61.592Y-93.307
X61.592Y-120.356
X61.592Y-121.88
X63.973Y-158.454
X63.973Y-159.978
X63.973Y-196.552
X63.973Y-198.076
X64.13Y-94.323
X64.13Y-95.847
X64.13Y-122.896
X64.13Y-124.42
X66.354Y-139.405
X66.354Y-140.929
X71.274Y-199.091
X71.274Y-200.615
X73.497Y-177.503
X73.497Y-179.027
X73.655Y-141.945
X73.655Y-143.469
X78.359Y-160.994
X78.359Y-162.518
X80.64Y-91.783
X80.64Y-93.307
X80.64Y-120.356
X80.64Y-121.88
X83.179Y-94.323
X83.179Y-95.847
X83.179Y-122.896
X83.179Y-124.42
X87.784Y-196.552
X87.784Y-198.076
X87.941Y-180.043
X87.941Y-181.567
X90.165Y-139.405
X90.165Y-140.929
X92.704Y-141.945
X92.704Y-143.469
X94.869Y-158.454
X94.869Y-159.978
X95.085Y-199.091
X95.085Y-200.615
X97.466Y-160.994
X97.466Y-162.518
X99.689Y-91.783
X99.689Y-93.307
X99.689Y-120.356
X99.689Y-121.88
X102.228Y-94.323
X102.228Y-95.847
X102.228Y-122.896
X102.228Y-124.42
X104.451Y-177.503
X104.451Y-179.027
X106.99Y-180.043
X106.99Y-181.567
X109.214Y-139.405
X109.214Y-140.929
X111.595Y-196.552
X111.595Y-198.076
X111.752Y-141.945
X111.752Y-143.469
X113.976Y-158.454
X113.976Y-159.978
X116.515Y-160.994
X116.515Y-162.518
X118.738Y-91.783
X118.738Y-93.307
X118.738Y-120.356
X118.738Y-121.88
X121.277Y-94.323
X121.277Y-95.847
X121.277Y-122.896
X121.277Y-124.42
X123.5Y-177.503
X123.5Y-179.027
X126.039Y-180.043
X126.039Y-181.567
X128.262Y-139.405
X128.262Y-140.929
X130.801Y-141.945
X130.801Y-143.469
X133.025Y-158.454
X133.025Y-159.978
X135.563Y-160.994
X135.563Y-162.518
X137.787Y-91.783
X137.787Y-93.307
X137.787Y-120.356
X137.787Y-121.88
X140.326Y-94.323
X140.326Y-95.847
X140.326Y-122.896
X140.326Y-124.42
X142.549Y-177.503
X142.549Y-179.027
X145.088Y-180.043
X145.088Y-181.567
X147.311Y-139.405
X147.311Y-140.929
X149.85Y-141.945
X149.85Y-143.469
X152.073Y-158.454
X152.073Y-159.978
X154.612Y-160.994
X154.612Y-162.518
X156.836Y-91.783
X156.836Y-93.307
X156.836Y-120.356
X156.836Y-121.88
X159.374Y-122.896
X159.374Y-124.42
X161.598Y-177.503
X161.598Y-179.027
X164.137Y-180.043
X164.137Y-181.567
X166.36Y-139.405
X166.36Y-140.929
X166.518Y-199.091
X166.518Y-200.615
X168.899Y-94.323
X168.899Y-95.847
X168.899Y-141.945
X168.899Y-143.469
X171.122Y-158.454
X171.122Y-159.978
X173.661Y-160.994
X173.661Y-162.518
X175.884Y-120.356
X175.884Y-121.88
X178.423Y-122.896
X178.423Y-124.42
X180.647Y-177.503
X180.647Y-179.027
X183.028Y-196.552
X183.028Y-198.076
X183.185Y-180.043
X183.185Y-181.567
X185.409Y-91.783
X185.409Y-93.307
X185.409Y-139.405
X185.409Y-140.929
X187.948Y-94.323
X187.948Y-95.847
X187.948Y-141.945
X187.948Y-143.469
X190.171Y-158.454
X190.171Y-159.978
X192.71Y-160.994
X192.71Y-162.518
X194.933Y-120.356
X194.933Y-121.88
X197.472Y-122.896
X197.472Y-124.42
X199.695Y-177.503
X199.695Y-179.027
X202.234Y-180.043
X202.234Y-181.567
X204.458Y-91.783
X204.458Y-93.307
X204.458Y-139.405
X204.458Y-140.929
X206.996Y-94.323
X206.996Y-95.847
X206.996Y-141.945
X206.996Y-143.469
X209.22Y-158.454
X209.22Y-159.978
X211.759Y-160.994
X211.759Y-162.518
X213.982Y-120.356
X213.982Y-121.88
X216.521Y-122.896
X216.521Y-124.42
X218.744Y-177.503
X218.744Y-179.027
X221.283Y-180.043
X221.283Y-181.567
X223.506Y-91.783
X223.506Y-93.307
X223.506Y-139.405
X223.506Y-140.929
X226.045Y-94.323
X226.045Y-95.847
X226.045Y-141.945
X226.045Y-143.469
X228.269Y-158.454
X228.269Y-159.978
X230.807Y-160.994
X230.807Y-162.518
X233.031Y-120.356
X233.031Y-121.88
X235.57Y-122.896
X235.57Y-124.42
X237.793Y-177.503
X237.793Y-179.027
X237.951Y-199.091
X237.951Y-200.615
X240.332Y-180.043
X240.332Y-181.567
X242.555Y-91.783
X242.555Y-93.307
X242.555Y-139.405
X242.555Y-140.929
X245.094Y-141.945
X245.094Y-143.469
X247.317Y-158.454
X247.317Y-159.978
X249.856Y-160.994
X249.856Y-162.518
X252.08Y-120.356
X252.08Y-121.88
X254.461Y-196.552
X254.461Y-198.076
X254.618Y-94.323
X254.618Y-95.847
X254.618Y-122.896
X254.618Y-124.42
X256.842Y-177.503
X256.842Y-179.027
X259.381Y-180.043
X259.381Y-181.567
X261.604Y-139.405
X261.604Y-140.929
X261.762Y-199.091
X261.762Y-200.615
X264.143Y-141.945
X264.143Y-143.469
X266.366Y-158.454
X266.366Y-159.978
X268.905Y-160.994
X268.905Y-162.518
X271.128Y-91.783
X271.128Y-93.307
X271.128Y-120.356
X271.128Y-121.88
X273.667Y-94.323
X273.667Y-95.847
X273.667Y-122.896
X273.667Y-124.42
X275.891Y-177.503
X275.891Y-179.027
X278.272Y-196.552
X278.272Y-198.076
X280.653Y-139.405
X280.653Y-140.929
X283.192Y-141.945
X283.192Y-143.469
X285.415Y-158.454
X285.415Y-159.978
X285.573Y-199.091
X285.573Y-200.615
X290.177Y-91.783
X290.177Y-93.307
X290.177Y-120.356
X290.177Y-121.88
X292.716Y-94.323
X292.716Y-95.847
X295.088Y-180.042
X295.088Y-181.566
X299.702Y-139.405
X299.702Y-140.929
X299.859Y-160.994
X299.859Y-162.518
X302.083Y-196.552
X302.083Y-198.076
X302.24Y-122.896
X302.24Y-124.42
X307.003Y-141.945
X307.003Y-143.469
X309.226Y-91.783
X309.226Y-93.307
X309.384Y-199.091
X309.384Y-200.615
X311.598Y-177.502
X311.598Y-179.026
X311.765Y-94.323
X311.765Y-95.847
X316.369Y-158.454
X316.369Y-159.978
X318.75Y-120.356
X318.75Y-121.88
X323.513Y-139.405
X323.513Y-140.929
X325.894Y-196.552
X325.894Y-198.076
X328.275Y-91.783
X328.275Y-93.307
X340.338Y-94.323
X340.338Y-95.847
X340.338Y-122.896
X340.338Y-124.42
X340.338Y-141.945
X340.338Y-143.469
X340.338Y-199.091
X340.338Y-200.615
X356.848Y-91.783
X356.848Y-93.307
X356.848Y-120.356
X356.848Y-121.88
X356.848Y-139.405
X356.848Y-140.929
X356.848Y-196.552
X356.848Y-198.076
X359.387Y-94.323
X359.387Y-95.847
X359.387Y-122.896
X359.387Y-124.42
X359.387Y-141.945
X359.387Y-143.469
X359.387Y-180.043
X359.387Y-181.567
X359.387Y-199.091
X359.387Y-200.615
X375.897Y-91.783
X375.897Y-93.307
X375.897Y-120.356
X375.897Y-121.88
X375.897Y-139.405
X375.897Y-140.929
X375.897Y-177.503
X375.897Y-179.027
X375.897Y-196.552
X375.897Y-198.076
X378.436Y-122.896
X378.436Y-124.42
X378.436Y-141.945
X378.436Y-143.469
X378.436Y-199.091
X378.436Y-200.615
X394.946Y-120.356
X394.946Y-121.88
X394.946Y-139.405
X394.946Y-140.929
X394.946Y-196.552
X394.946Y-198.076
T3
X22.224Y-119.849
X42.86Y-100.8
X42.86Y-129.373
X42.86Y-148.422
X42.86Y-167.471
X42.86Y-186.519
X42.86Y-205.568
X46.035Y-119.849
X65.083Y-119.849
X84.132Y-119.849
X103.181Y-119.849
X122.23Y-119.849
X141.279Y-119.849
X160.327Y-119.849
X179.376Y-119.849
X198.425Y-119.849
X217.474Y-119.849
X236.523Y-119.849
X255.571Y-119.849
X274.62Y-119.849
X303.193Y-119.849
X336.529Y-177.789
X338.116Y-170.645
X338.116Y-179.376
X341.291Y-179.376
X342.085Y-119.849
X349.228Y-185.726
X352.403Y-185.726
X360.34Y-120.642
X366.689Y-161.915
X379.389Y-120.642
X380.976Y-173.027
T5
X380.376Y-188.845
X380.376Y-190.845
T6
X386.532Y-160.486
X386.532Y-163.026
X386.532Y-165.566
X386.532Y-168.106
T7
X27.542Y-90.085
X27.542Y-104.585
X30.042Y-90.085
X32.542Y-90.085
X32.542Y-104.585
X233.824Y-108.737
X236.364Y-108.737
X238.904Y-108.737
X361.133Y-163.502
X361.133Y-166.042
X361.133Y-168.582
X361.133Y-171.122
X383.376Y-189.195
X384.707Y-90.085
X384.707Y-104.585
X385.916Y-189.195
X387.207Y-90.085
X388.456Y-189.195
X389.707Y-90.085
X389.707Y-104.585
X390.996Y-189.195
T9
X26.351Y-123.658
X26.351Y-142.707
X26.351Y-161.756
X26.351Y-180.805
X26.351Y-199.853
X32.701Y-121.118
X32.701Y-140.167
X32.701Y-159.216
X32.701Y-178.265
X32.701Y-197.314
X50.162Y-95.085
X50.162Y-123.658
X52.543Y-161.756
X52.543Y-199.853
X54.924Y-142.707
X56.512Y-92.545
X56.512Y-121.118
X58.893Y-159.216
X58.893Y-197.314
X61.274Y-140.167
X62.067Y-180.805
X68.417Y-178.265
X69.21Y-95.085
X69.21Y-123.658
X75.56Y-92.545
X75.56Y-121.118
X76.354Y-199.853
X78.735Y-142.707
X82.704Y-197.314
X83.439Y-161.756
X85.085Y-140.167
X88.259Y-95.085
X88.259Y-123.658
X89.789Y-159.216
X93.021Y-180.805
X94.609Y-92.545
X94.609Y-121.118
X97.784Y-142.707
X99.371Y-178.265
X100.165Y-199.853
X102.546Y-161.756
X104.134Y-140.167
X106.515Y-197.314
X107.308Y-95.085
X107.308Y-123.658
X108.896Y-159.216
X112.07Y-180.805
X113.658Y-92.545
X113.658Y-121.118
X116.832Y-142.707
X118.42Y-178.265
X121.595Y-161.756
X123.182Y-140.167
X126.357Y-95.085
X126.357Y-123.658
X127.945Y-159.216
X131.119Y-180.805
X132.707Y-92.545
X132.707Y-121.118
X135.881Y-142.707
X137.469Y-178.265
X140.643Y-161.756
X142.231Y-140.167
X145.406Y-95.085
X145.406Y-123.658
X146.993Y-159.216
X150.168Y-180.805
X151.756Y-92.545
X151.756Y-121.118
X154.93Y-142.707
X156.518Y-178.265
X159.692Y-161.756
X161.28Y-140.167
X164.454Y-123.658
X166.042Y-159.216
X169.217Y-180.805
X170.804Y-121.118
X171.598Y-199.853
X173.979Y-95.085
X173.979Y-142.707
X175.567Y-178.265
X177.948Y-197.314
X178.741Y-161.756
X180.329Y-92.545
X180.329Y-140.167
X183.503Y-123.658
X185.091Y-159.216
X188.265Y-180.805
X189.853Y-121.118
X193.028Y-95.085
X193.028Y-142.707
X194.615Y-178.265
X197.79Y-161.756
X199.378Y-92.545
X199.378Y-140.167
X202.552Y-123.658
X204.14Y-159.216
X207.314Y-180.805
X208.902Y-121.118
X212.076Y-95.085
X212.076Y-142.707
X213.664Y-178.265
X216.839Y-161.756
X218.426Y-92.545
X218.426Y-140.167
X221.601Y-123.658
X223.189Y-159.216
X226.363Y-180.805
X227.951Y-121.118
X231.125Y-95.085
X231.125Y-142.707
X232.713Y-178.265
X235.887Y-161.756
X237.475Y-92.545
X237.475Y-140.167
X240.65Y-123.658
X242.237Y-159.216
X243.031Y-199.853
X245.412Y-180.805
X247.0Y-121.118
X249.381Y-197.314
X250.174Y-142.707
X251.762Y-178.265
X254.936Y-161.756
X256.524Y-140.167
X259.698Y-95.085
X259.698Y-123.658
X261.286Y-159.216
X264.461Y-180.805
X266.048Y-92.545
X266.048Y-121.118
X266.842Y-199.853
X269.223Y-142.707
X270.811Y-178.265
X273.192Y-197.314
X273.985Y-161.756
X275.573Y-140.167
X278.747Y-95.085
X278.747Y-123.658
X280.335Y-159.216
X285.097Y-92.545
X285.097Y-121.118
X288.272Y-142.707
X290.653Y-199.853
X294.622Y-140.167
X297.003Y-197.314
X297.796Y-95.085
X300.168Y-180.804
X304.146Y-92.545
X304.939Y-161.756
X306.518Y-178.264
X307.32Y-123.658
X311.289Y-159.216
X312.083Y-142.707
X313.67Y-121.118
X314.464Y-199.853
X316.845Y-95.085
X318.433Y-140.167
X320.814Y-197.314
X323.195Y-92.545
X345.418Y-95.085
X345.418Y-123.658
X345.418Y-142.707
X345.418Y-199.853
X351.768Y-92.545
X351.768Y-121.118
X351.768Y-140.167
X351.768Y-197.314
X364.467Y-95.085
X364.467Y-123.658
X364.467Y-142.707
X364.467Y-180.805
X364.467Y-199.853
X370.817Y-92.545
X370.817Y-121.118
X370.817Y-140.167
X370.817Y-178.265
X370.817Y-197.314
X383.516Y-123.658
X383.516Y-142.707
X383.516Y-199.853
X389.866Y-121.118
X389.866Y-140.167
X389.866Y-197.314
T4
X244.902Y-80.004G85X244.902Y-80.604
G05
X244.902Y-83.934G85X244.902Y-85.034
G05
X253.542Y-80.004G85X253.542Y-80.604
G05
X253.542Y-83.934G85X253.542Y-85.034
G05
T8
X24.442Y-96.935G85X24.442Y-98.235
G05
X35.642Y-96.935G85X35.642Y-98.235
G05
X381.607Y-96.935G85X381.607Y-98.235
G05
X392.807Y-96.935G85X392.807Y-98.235
G05
T0
M30
