M48
; DRILL file {KiCad (6.0.0)} date Sun Mar  6 17:03:50 2022
; FORMAT={-:-/ absolute / metric / decimal}
; #@! TF.CreationDate,2022-03-06T17:03:50-05:00
; #@! TF.GenerationSoftware,Kicad,Pcbnew,(6.0.0)
; #@! TF.FileFunction,NonPlated,1,2,NPTH
FMAT,2
METRIC
; #@! TA.AperFunction,NonPlated,NPTH,ComponentDrill
T1C0.650
; #@! TA.AperFunction,NonPlated,NPTH,ComponentDrill
T2C1.600
; #@! TA.AperFunction,NonPlated,NPTH,ComponentDrill
T3C1.750
; #@! TA.AperFunction,NonPlated,NPTH,ComponentDrill
T4C2.100
; #@! TA.AperFunction,NonPlated,NPTH,ComponentDrill
T5C3.050
; #@! TA.AperFunction,NonPlated,NPTH,ComponentDrill
T6C3.988
; #@! TA.AperFunction,NonPlated,NPTH,ComponentDrill
T7C4.000
%
G90
G05
T1
X246.332Y-83.954
X252.112Y-83.954
T2
X393.536Y-189.195
T3
X25.081Y-126.198
X25.081Y-145.247
X25.081Y-164.296
X25.081Y-183.345
X25.081Y-202.393
X35.241Y-126.198
X35.241Y-145.247
X35.241Y-164.296
X35.241Y-183.345
X35.241Y-202.393
X48.892Y-97.625
X48.892Y-126.198
X51.273Y-164.296
X51.273Y-202.393
X53.654Y-145.247
X59.052Y-97.625
X59.052Y-126.198
X60.797Y-183.345
X61.433Y-164.296
X61.433Y-202.393
X63.814Y-145.247
X67.94Y-97.625
X67.94Y-126.198
X70.957Y-183.345
X75.084Y-202.393
X77.465Y-145.247
X78.1Y-97.625
X78.1Y-126.198
X82.169Y-164.296
X85.244Y-202.393
X86.989Y-97.625
X86.989Y-126.198
X87.625Y-145.247
X91.751Y-183.345
X92.329Y-164.296
X96.514Y-145.247
X97.149Y-97.625
X97.149Y-126.198
X98.895Y-202.393
X101.276Y-164.296
X101.911Y-183.345
X106.038Y-97.625
X106.038Y-126.198
X106.674Y-145.247
X109.055Y-202.393
X110.8Y-183.345
X111.436Y-164.296
X115.562Y-145.247
X116.198Y-97.625
X116.198Y-126.198
X120.325Y-164.296
X120.96Y-183.345
X125.087Y-97.625
X125.087Y-126.198
X125.722Y-145.247
X129.849Y-183.345
X130.485Y-164.296
X134.611Y-145.247
X135.247Y-97.625
X135.247Y-126.198
X139.373Y-164.296
X140.009Y-183.345
X144.136Y-97.625
X144.136Y-126.198
X144.771Y-145.247
X148.898Y-183.345
X149.533Y-164.296
X153.66Y-145.247
X154.296Y-97.625
X154.296Y-126.198
X158.422Y-164.296
X159.058Y-183.345
X163.184Y-126.198
X163.82Y-145.247
X167.947Y-183.345
X168.582Y-164.296
X170.328Y-202.393
X172.709Y-97.625
X172.709Y-145.247
X173.344Y-126.198
X177.471Y-164.296
X178.107Y-183.345
X180.488Y-202.393
X182.233Y-126.198
X182.869Y-97.625
X182.869Y-145.247
X186.995Y-183.345
X187.631Y-164.296
X191.758Y-97.625
X191.758Y-145.247
X192.393Y-126.198
X196.52Y-164.296
X197.155Y-183.345
X201.282Y-126.198
X201.918Y-97.625
X201.918Y-145.247
X206.044Y-183.345
X206.68Y-164.296
X210.806Y-97.625
X210.806Y-145.247
X211.442Y-126.198
X215.569Y-164.296
X216.204Y-183.345
X220.331Y-126.198
X220.966Y-97.625
X220.966Y-145.247
X225.093Y-183.345
X225.729Y-164.296
X229.855Y-97.625
X229.855Y-145.247
X230.491Y-126.198
X234.617Y-164.296
X235.253Y-183.345
X239.38Y-126.198
X240.015Y-97.625
X240.015Y-145.247
X241.761Y-202.393
X244.142Y-183.345
X244.777Y-164.296
X248.904Y-145.247
X249.54Y-126.198
X251.921Y-202.393
X253.666Y-164.296
X254.302Y-183.345
X258.428Y-97.625
X258.428Y-126.198
X259.064Y-145.247
X263.191Y-183.345
X263.826Y-164.296
X265.572Y-202.393
X267.953Y-145.247
X268.588Y-97.625
X268.588Y-126.198
X272.715Y-164.296
X273.351Y-183.345
X275.732Y-202.393
X277.477Y-97.625
X277.477Y-126.198
X278.113Y-145.247
X282.875Y-164.296
X287.002Y-145.247
X287.637Y-97.625
X287.637Y-126.198
X289.383Y-202.393
X296.526Y-97.625
X297.162Y-145.247
X298.898Y-183.344
X299.543Y-202.393
X303.669Y-164.296
X306.05Y-126.198
X306.686Y-97.625
X309.058Y-183.344
X310.813Y-145.247
X313.194Y-202.393
X313.829Y-164.296
X315.575Y-97.625
X316.21Y-126.198
X320.973Y-145.247
X323.354Y-202.393
X325.735Y-97.625
X344.148Y-97.625
X344.148Y-126.198
X344.148Y-145.247
X344.148Y-202.393
X354.308Y-97.625
X354.308Y-126.198
X354.308Y-145.247
X354.308Y-202.393
X363.197Y-97.625
X363.197Y-126.198
X363.197Y-145.247
X363.197Y-183.345
X363.197Y-202.393
X373.357Y-97.625
X373.357Y-126.198
X373.357Y-145.247
X373.357Y-183.345
X373.357Y-202.393
X382.246Y-126.198
X382.246Y-145.247
X382.246Y-202.393
X392.406Y-126.198
X392.406Y-145.247
X392.406Y-202.393
T4
X30.161Y-131.273
X30.161Y-150.322
X30.161Y-169.371
X30.161Y-188.42
X30.161Y-207.468
X53.972Y-102.7
X53.972Y-131.273
X56.353Y-169.371
X56.353Y-207.468
X58.734Y-150.322
X65.877Y-188.42
X73.02Y-131.273
X80.164Y-207.468
X82.545Y-150.322
X87.307Y-169.371
X92.069Y-102.7
X92.069Y-131.273
X96.831Y-188.42
X101.594Y-150.322
X103.975Y-207.468
X106.356Y-169.371
X111.118Y-102.7
X111.118Y-131.273
X115.88Y-188.42
X120.642Y-150.322
X125.405Y-169.371
X130.167Y-102.7
X130.167Y-131.273
X134.929Y-188.42
X139.691Y-150.322
X144.453Y-169.371
X149.216Y-102.7
X149.216Y-131.273
X153.978Y-188.42
X158.74Y-150.322
X163.502Y-169.371
X168.264Y-131.273
X173.027Y-188.42
X175.408Y-207.468
X177.789Y-102.7
X177.789Y-150.322
X182.551Y-169.371
X187.313Y-131.273
X192.075Y-188.42
X196.838Y-102.7
X196.838Y-150.322
X201.6Y-169.371
X206.362Y-131.273
X211.124Y-188.42
X215.886Y-102.7
X215.886Y-150.322
X220.649Y-169.371
X225.411Y-131.273
X230.173Y-188.42
X234.935Y-102.7
X234.935Y-150.322
X239.697Y-169.371
X244.46Y-131.273
X246.841Y-207.468
X249.222Y-188.42
X253.984Y-150.322
X258.746Y-169.371
X263.508Y-102.7
X263.508Y-131.273
X268.271Y-188.42
X270.652Y-207.468
X273.033Y-150.322
X277.795Y-169.371
X282.557Y-102.7
X282.557Y-131.273
X292.082Y-150.322
X294.463Y-207.468
X301.606Y-102.7
X303.987Y-188.42
X308.749Y-169.371
X311.13Y-131.273
X315.893Y-150.322
X318.274Y-207.468
X320.655Y-102.7
X349.228Y-102.7
X349.228Y-131.273
X349.228Y-150.322
X349.228Y-207.468
X368.277Y-131.273
X368.277Y-150.322
X368.277Y-188.42
X368.277Y-207.468
X387.326Y-131.273
X387.326Y-150.322
X387.326Y-207.468
T5
X53.939Y-176.345
X77.815Y-176.345
X125.408Y-209.393
X225.408Y-209.393
X292.049Y-176.345
X296.811Y-171.296
X299.192Y-119.198
X315.925Y-176.345
X320.687Y-171.296
X323.068Y-119.198
T6
X30.161Y-126.198
X30.161Y-145.247
X30.161Y-164.296
X30.161Y-183.345
X30.161Y-202.393
X53.972Y-97.625
X53.972Y-126.198
X56.353Y-164.296
X56.353Y-202.393
X58.734Y-145.247
X65.877Y-183.345
X73.02Y-97.625
X73.02Y-126.198
X80.164Y-202.393
X82.545Y-145.247
X87.249Y-164.296
X92.069Y-97.625
X92.069Y-126.198
X96.831Y-183.345
X101.594Y-145.247
X103.975Y-202.393
X106.356Y-164.296
X111.118Y-97.625
X111.118Y-126.198
X115.88Y-183.345
X120.642Y-145.247
X125.405Y-164.296
X130.167Y-97.625
X130.167Y-126.198
X134.929Y-183.345
X139.691Y-145.247
X144.453Y-164.296
X149.216Y-97.625
X149.216Y-126.198
X153.978Y-183.345
X158.74Y-145.247
X163.502Y-164.296
X168.264Y-126.198
X173.027Y-183.345
X175.408Y-202.393
X177.789Y-97.625
X177.789Y-145.247
X182.551Y-164.296
X187.313Y-126.198
X192.075Y-183.345
X196.838Y-97.625
X196.838Y-145.247
X201.6Y-164.296
X206.362Y-126.198
X211.124Y-183.345
X215.886Y-97.625
X215.886Y-145.247
X220.649Y-164.296
X225.411Y-126.198
X230.173Y-183.345
X234.935Y-97.625
X234.935Y-145.247
X239.697Y-164.296
X244.46Y-126.198
X246.841Y-202.393
X249.222Y-183.345
X253.984Y-145.247
X258.746Y-164.296
X263.508Y-97.625
X263.508Y-126.198
X268.271Y-183.345
X270.652Y-202.393
X273.033Y-145.247
X277.795Y-164.296
X282.557Y-97.625
X282.557Y-126.198
X292.082Y-145.247
X294.463Y-202.393
X301.606Y-97.625
X303.978Y-183.344
X308.749Y-164.296
X311.13Y-126.198
X315.893Y-145.247
X318.274Y-202.393
X320.655Y-97.625
X349.228Y-97.625
X349.228Y-126.198
X349.228Y-145.247
X349.228Y-202.393
X368.277Y-97.625
X368.277Y-126.198
X368.277Y-145.247
X368.277Y-183.345
X368.277Y-202.393
X387.326Y-126.198
X387.326Y-145.247
X387.326Y-202.393
T7
X53.939Y-191.585
X77.815Y-191.585
X125.408Y-194.153
X225.408Y-194.153
X292.049Y-191.585
X296.811Y-156.056
X299.192Y-134.438
X315.925Y-191.585
X320.687Y-156.056
X323.068Y-134.438
T0
M30
