%TF.GenerationSoftware,KiCad,Pcbnew,(6.0.0)*%
%TF.CreationDate,2022-03-07T18:24:06-05:00*%
%TF.ProjectId,keyboard0,6b657962-6f61-4726-9430-2e6b69636164,rev?*%
%TF.SameCoordinates,Original*%
%TF.FileFunction,Soldermask,Bot*%
%TF.FilePolarity,Negative*%
%FSLAX46Y46*%
G04 Gerber Fmt 4.6, Leading zero omitted, Abs format (unit mm)*
G04 Created by KiCad (PCBNEW (6.0.0)) date 2022-03-07 18:24:06*
%MOMM*%
%LPD*%
G01*
G04 APERTURE LIST*
G04 Aperture macros list*
%AMRoundRect*
0 Rectangle with rounded corners*
0 $1 Rounding radius*
0 $2 $3 $4 $5 $6 $7 $8 $9 X,Y pos of 4 corners*
0 Add a 4 corners polygon primitive as box body*
4,1,4,$2,$3,$4,$5,$6,$7,$8,$9,$2,$3,0*
0 Add four circle primitives for the rounded corners*
1,1,$1+$1,$2,$3*
1,1,$1+$1,$4,$5*
1,1,$1+$1,$6,$7*
1,1,$1+$1,$8,$9*
0 Add four rect primitives between the rounded corners*
20,1,$1+$1,$2,$3,$4,$5,0*
20,1,$1+$1,$4,$5,$6,$7,0*
20,1,$1+$1,$6,$7,$8,$9,0*
20,1,$1+$1,$8,$9,$2,$3,0*%
G04 Aperture macros list end*
%ADD10R,2.550000X2.500000*%
%ADD11C,1.750000*%
%ADD12C,3.987800*%
%ADD13C,4.000000*%
%ADD14C,3.050000*%
%ADD15R,2.000000X2.000000*%
%ADD16C,2.000000*%
%ADD17R,2.000000X3.200000*%
%ADD18C,1.397000*%
%ADD19O,2.000000X3.000000*%
%ADD20C,1.524000*%
%ADD21O,1.524000X1.524000*%
%ADD22R,1.200000X0.900000*%
%ADD23RoundRect,0.250000X-0.262500X-0.450000X0.262500X-0.450000X0.262500X0.450000X-0.262500X0.450000X0*%
%ADD24C,1.000000*%
%ADD25R,1.500000X1.500000*%
%ADD26RoundRect,0.218750X0.218750X0.381250X-0.218750X0.381250X-0.218750X-0.381250X0.218750X-0.381250X0*%
%ADD27RoundRect,0.250000X0.475000X-0.250000X0.475000X0.250000X-0.475000X0.250000X-0.475000X-0.250000X0*%
%ADD28RoundRect,0.250000X-0.475000X0.250000X-0.475000X-0.250000X0.475000X-0.250000X0.475000X0.250000X0*%
%ADD29RoundRect,0.250000X0.250000X0.475000X-0.250000X0.475000X-0.250000X-0.475000X0.250000X-0.475000X0*%
%ADD30RoundRect,0.243750X0.243750X0.456250X-0.243750X0.456250X-0.243750X-0.456250X0.243750X-0.456250X0*%
%ADD31RoundRect,0.250000X-0.625000X0.375000X-0.625000X-0.375000X0.625000X-0.375000X0.625000X0.375000X0*%
%ADD32RoundRect,0.218750X0.381250X-0.218750X0.381250X0.218750X-0.381250X0.218750X-0.381250X-0.218750X0*%
%ADD33R,1.700000X1.700000*%
%ADD34O,1.700000X1.700000*%
%ADD35RoundRect,0.250000X-0.450000X0.262500X-0.450000X-0.262500X0.450000X-0.262500X0.450000X0.262500X0*%
%ADD36RoundRect,0.250000X0.262500X0.450000X-0.262500X0.450000X-0.262500X-0.450000X0.262500X-0.450000X0*%
%ADD37RoundRect,0.150000X-0.587500X-0.150000X0.587500X-0.150000X0.587500X0.150000X-0.587500X0.150000X0*%
%ADD38RoundRect,0.075000X0.075000X-0.662500X0.075000X0.662500X-0.075000X0.662500X-0.075000X-0.662500X0*%
%ADD39RoundRect,0.075000X0.662500X-0.075000X0.662500X0.075000X-0.662500X0.075000X-0.662500X-0.075000X0*%
%ADD40R,2.000000X2.400000*%
%ADD41R,1.560000X0.650000*%
%ADD42RoundRect,0.243750X0.456250X-0.243750X0.456250X0.243750X-0.456250X0.243750X-0.456250X-0.243750X0*%
%ADD43RoundRect,0.250000X-0.250000X-0.475000X0.250000X-0.475000X0.250000X0.475000X-0.250000X0.475000X0*%
%ADD44RoundRect,0.050000X0.362500X0.050000X-0.362500X0.050000X-0.362500X-0.050000X0.362500X-0.050000X0*%
%ADD45RoundRect,0.050000X0.050000X0.362500X-0.050000X0.362500X-0.050000X-0.362500X0.050000X-0.362500X0*%
%ADD46R,2.300000X2.300000*%
%ADD47RoundRect,0.150000X0.587500X0.150000X-0.587500X0.150000X-0.587500X-0.150000X0.587500X-0.150000X0*%
%ADD48RoundRect,0.200000X-0.275000X0.200000X-0.275000X-0.200000X0.275000X-0.200000X0.275000X0.200000X0*%
%ADD49R,1.800000X1.100000*%
%ADD50RoundRect,0.050000X-0.050000X0.362500X-0.050000X-0.362500X0.050000X-0.362500X0.050000X0.362500X0*%
%ADD51RoundRect,0.050000X-0.362500X0.050000X-0.362500X-0.050000X0.362500X-0.050000X0.362500X0.050000X0*%
%ADD52C,2.100000*%
%ADD53R,0.800000X0.700000*%
%ADD54R,1.550000X0.600000*%
%ADD55R,1.800000X1.200000*%
%ADD56RoundRect,0.250000X-0.375000X-0.625000X0.375000X-0.625000X0.375000X0.625000X-0.375000X0.625000X0*%
%ADD57R,0.650000X1.560000*%
%ADD58C,0.650000*%
%ADD59R,0.600000X1.450000*%
%ADD60R,0.300000X1.450000*%
%ADD61O,1.000000X2.100000*%
%ADD62O,1.000000X1.600000*%
G04 APERTURE END LIST*
D10*
%TO.C,MX52*%
X49267700Y-161755900D03*
D11*
X51272700Y-164295900D03*
D12*
X56352700Y-164295900D03*
D11*
X61432700Y-164295900D03*
D10*
X62167700Y-159215900D03*
%TD*%
%TO.C,MX2*%
X84984200Y-95085100D03*
D11*
X86989200Y-97625100D03*
D10*
X97884200Y-92545100D03*
D11*
X97149200Y-97625100D03*
D12*
X92069200Y-97625100D03*
%TD*%
D10*
%TO.C,MX15*%
X35975600Y-121118300D03*
D11*
X25080600Y-126198300D03*
D10*
X23075600Y-123658300D03*
D11*
X35240600Y-126198300D03*
D12*
X30160600Y-126198300D03*
%TD*%
%TO.C,MX33*%
X30160600Y-145247100D03*
D10*
X35975600Y-140167100D03*
X23075600Y-142707100D03*
D11*
X35240600Y-145247100D03*
X25080600Y-145247100D03*
%TD*%
D10*
%TO.C,MX51*%
X23075600Y-161755900D03*
D11*
X35240600Y-164295900D03*
D10*
X35975600Y-159215900D03*
D12*
X30160600Y-164295900D03*
D11*
X25080600Y-164295900D03*
%TD*%
%TO.C,MX65*%
X25080600Y-183344700D03*
D10*
X23075600Y-180804700D03*
D12*
X30160600Y-183344700D03*
D10*
X35975600Y-178264700D03*
D11*
X35240600Y-183344700D03*
%TD*%
D12*
%TO.C,MX1*%
X53971600Y-97625100D03*
D10*
X59786600Y-92545100D03*
X46886600Y-95085100D03*
D11*
X48891600Y-97625100D03*
X59051600Y-97625100D03*
%TD*%
D10*
%TO.C,MX16*%
X59786600Y-121118300D03*
D11*
X59051600Y-126198300D03*
D10*
X46886600Y-123658300D03*
D12*
X53971600Y-126198300D03*
D11*
X48891600Y-126198300D03*
%TD*%
D10*
%TO.C,MX34*%
X51648800Y-142707100D03*
X64548800Y-140167100D03*
D11*
X53653800Y-145247100D03*
X63813800Y-145247100D03*
D12*
X58733800Y-145247100D03*
%TD*%
D10*
%TO.C,MX79*%
X35975600Y-197313500D03*
X23075600Y-199853500D03*
D12*
X30160600Y-202393500D03*
D11*
X25080600Y-202393500D03*
X35240600Y-202393500D03*
%TD*%
%TO.C,MX18*%
X97149200Y-126198300D03*
D10*
X97884200Y-121118300D03*
X84984200Y-123658300D03*
D12*
X92069200Y-126198300D03*
D11*
X86989200Y-126198300D03*
%TD*%
D10*
%TO.C,MX36*%
X107408600Y-140167100D03*
X94508600Y-142707100D03*
D12*
X101593600Y-145247100D03*
D11*
X106673600Y-145247100D03*
X96513600Y-145247100D03*
%TD*%
D12*
%TO.C,MX54*%
X106355800Y-164295900D03*
D11*
X101275800Y-164295900D03*
X111435800Y-164295900D03*
D10*
X112170800Y-159215900D03*
X99270800Y-161755900D03*
%TD*%
%TO.C,MX67*%
X102646400Y-178264700D03*
D11*
X91751400Y-183344700D03*
D12*
X96831400Y-183344700D03*
D10*
X89746400Y-180804700D03*
D11*
X101911400Y-183344700D03*
%TD*%
D10*
%TO.C,MX82*%
X96889700Y-199853500D03*
D11*
X98894700Y-202393500D03*
X109054700Y-202393500D03*
D12*
X103974700Y-202393500D03*
D10*
X109789700Y-197313500D03*
%TD*%
%TO.C,MX17*%
X65935400Y-123658300D03*
X78835400Y-121118300D03*
D11*
X67940400Y-126198300D03*
X78100400Y-126198300D03*
D12*
X73020400Y-126198300D03*
%TD*%
D10*
%TO.C,MX35*%
X75459800Y-142707100D03*
D11*
X77464800Y-145247100D03*
D12*
X82544800Y-145247100D03*
D11*
X87624800Y-145247100D03*
D10*
X88359800Y-140167100D03*
%TD*%
%TO.C,MX53*%
X93063700Y-159215900D03*
D12*
X87248700Y-164295900D03*
D11*
X82168700Y-164295900D03*
D10*
X80163700Y-161755900D03*
D11*
X92328700Y-164295900D03*
%TD*%
%TO.C,MX66*%
X60797100Y-183344700D03*
D13*
X53939100Y-191584700D03*
X77815100Y-191584700D03*
D14*
X53939100Y-176344700D03*
D12*
X65877100Y-183344700D03*
D10*
X58792100Y-180804700D03*
D14*
X77815100Y-176344700D03*
D11*
X70957100Y-183344700D03*
D10*
X71692100Y-178264700D03*
%TD*%
D11*
%TO.C,MX81*%
X75083700Y-202393500D03*
D12*
X80163700Y-202393500D03*
D11*
X85243700Y-202393500D03*
D10*
X85978700Y-197313500D03*
X73078700Y-199853500D03*
%TD*%
D11*
%TO.C,MX3*%
X116198000Y-97625100D03*
D12*
X111118000Y-97625100D03*
D10*
X104033000Y-95085100D03*
X116933000Y-92545100D03*
D11*
X106038000Y-97625100D03*
%TD*%
D10*
%TO.C,MX37*%
X113557400Y-142707100D03*
X126457400Y-140167100D03*
D11*
X125722400Y-145247100D03*
X115562400Y-145247100D03*
D12*
X120642400Y-145247100D03*
%TD*%
D11*
%TO.C,MX55*%
X130484600Y-164295900D03*
D10*
X131219600Y-159215900D03*
X118319600Y-161755900D03*
D12*
X125404600Y-164295900D03*
D11*
X120324600Y-164295900D03*
%TD*%
D10*
%TO.C,MX68*%
X121695200Y-178264700D03*
D11*
X110800200Y-183344700D03*
D10*
X108795200Y-180804700D03*
D11*
X120960200Y-183344700D03*
D12*
X115880200Y-183344700D03*
%TD*%
D10*
%TO.C,MX70*%
X146892800Y-180804700D03*
D12*
X153977800Y-183344700D03*
D11*
X159057800Y-183344700D03*
X148897800Y-183344700D03*
D10*
X159792800Y-178264700D03*
%TD*%
%TO.C,MX4*%
X135981800Y-92545100D03*
D12*
X130166800Y-97625100D03*
D10*
X123081800Y-95085100D03*
D11*
X135246800Y-97625100D03*
X125086800Y-97625100D03*
%TD*%
D10*
%TO.C,MX20*%
X135981800Y-121118300D03*
D11*
X135246800Y-126198300D03*
D12*
X130166800Y-126198300D03*
D10*
X123081800Y-123658300D03*
D11*
X125086800Y-126198300D03*
%TD*%
D10*
%TO.C,MX38*%
X145506200Y-140167100D03*
D11*
X134611200Y-145247100D03*
D10*
X132606200Y-142707100D03*
D11*
X144771200Y-145247100D03*
D12*
X139691200Y-145247100D03*
%TD*%
D11*
%TO.C,MX56*%
X149533400Y-164295900D03*
D10*
X137368400Y-161755900D03*
D12*
X144453400Y-164295900D03*
D10*
X150268400Y-159215900D03*
D11*
X139373400Y-164295900D03*
%TD*%
%TO.C,MX69*%
X129849000Y-183344700D03*
D12*
X134929000Y-183344700D03*
D10*
X127844000Y-180804700D03*
D11*
X140009000Y-183344700D03*
D10*
X140744000Y-178264700D03*
%TD*%
%TO.C,MX5*%
X142130600Y-95085100D03*
D12*
X149215600Y-97625100D03*
D11*
X154295600Y-97625100D03*
D10*
X155030600Y-92545100D03*
D11*
X144135600Y-97625100D03*
%TD*%
D12*
%TO.C,MX39*%
X158740000Y-145247100D03*
D11*
X163820000Y-145247100D03*
X153660000Y-145247100D03*
D10*
X151655000Y-142707100D03*
X164555000Y-140167100D03*
%TD*%
%TO.C,MX57*%
X156417200Y-161755900D03*
D12*
X163502200Y-164295900D03*
D10*
X169317200Y-159215900D03*
D11*
X158422200Y-164295900D03*
X168582200Y-164295900D03*
%TD*%
%TO.C,MX71*%
X167946600Y-183344700D03*
D12*
X173026600Y-183344700D03*
D10*
X178841600Y-178264700D03*
D11*
X178106600Y-183344700D03*
D10*
X165941600Y-180804700D03*
%TD*%
%TO.C,MX83*%
X181222700Y-197313500D03*
D11*
X180487700Y-202393500D03*
D14*
X225407700Y-209393500D03*
X125407700Y-209393500D03*
D13*
X225407700Y-194153500D03*
X125407700Y-194153500D03*
D10*
X168322700Y-199853500D03*
D12*
X175407700Y-202393500D03*
D11*
X170327700Y-202393500D03*
%TD*%
D10*
%TO.C,MX22*%
X161179400Y-123658300D03*
D11*
X173344400Y-126198300D03*
D12*
X168264400Y-126198300D03*
D10*
X174079400Y-121118300D03*
D11*
X163184400Y-126198300D03*
%TD*%
%TO.C,MX40*%
X172708800Y-145247100D03*
D10*
X170703800Y-142707100D03*
X183603800Y-140167100D03*
D12*
X177788800Y-145247100D03*
D11*
X182868800Y-145247100D03*
%TD*%
D10*
%TO.C,MX58*%
X188366000Y-159215900D03*
D11*
X187631000Y-164295900D03*
D10*
X175466000Y-161755900D03*
D12*
X182551000Y-164295900D03*
D11*
X177471000Y-164295900D03*
%TD*%
D10*
%TO.C,MX72*%
X184990400Y-180804700D03*
D11*
X197155400Y-183344700D03*
D12*
X192075400Y-183344700D03*
D11*
X186995400Y-183344700D03*
D10*
X197890400Y-178264700D03*
%TD*%
D11*
%TO.C,MX7*%
X191757600Y-97625100D03*
X201917600Y-97625100D03*
D10*
X189752600Y-95085100D03*
X202652600Y-92545100D03*
D12*
X196837600Y-97625100D03*
%TD*%
D10*
%TO.C,MX23*%
X180228200Y-123658300D03*
D11*
X182233200Y-126198300D03*
D12*
X187313200Y-126198300D03*
D11*
X192393200Y-126198300D03*
D10*
X193128200Y-121118300D03*
%TD*%
%TO.C,MX41*%
X189752600Y-142707100D03*
D12*
X196837600Y-145247100D03*
D11*
X191757600Y-145247100D03*
X201917600Y-145247100D03*
D10*
X202652600Y-140167100D03*
%TD*%
D11*
%TO.C,MX59*%
X206679800Y-164295900D03*
D12*
X201599800Y-164295900D03*
D10*
X194514800Y-161755900D03*
D11*
X196519800Y-164295900D03*
D10*
X207414800Y-159215900D03*
%TD*%
D11*
%TO.C,MX73*%
X216204200Y-183344700D03*
D10*
X216939200Y-178264700D03*
D11*
X206044200Y-183344700D03*
D10*
X204039200Y-180804700D03*
D12*
X211124200Y-183344700D03*
%TD*%
D11*
%TO.C,MX8*%
X210806400Y-97625100D03*
D10*
X208801400Y-95085100D03*
D11*
X220966400Y-97625100D03*
D10*
X221701400Y-92545100D03*
D12*
X215886400Y-97625100D03*
%TD*%
%TO.C,MX24*%
X206362000Y-126198300D03*
D10*
X199277000Y-123658300D03*
X212177000Y-121118300D03*
D11*
X211442000Y-126198300D03*
X201282000Y-126198300D03*
%TD*%
%TO.C,MX42*%
X210806400Y-145247100D03*
D12*
X215886400Y-145247100D03*
D10*
X221701400Y-140167100D03*
D11*
X220966400Y-145247100D03*
D10*
X208801400Y-142707100D03*
%TD*%
%TO.C,MX60*%
X213563600Y-161755900D03*
D11*
X215568600Y-164295900D03*
D12*
X220648600Y-164295900D03*
D11*
X225728600Y-164295900D03*
D10*
X226463600Y-159215900D03*
%TD*%
D12*
%TO.C,MX74*%
X230173000Y-183344700D03*
D10*
X235988000Y-178264700D03*
X223088000Y-180804700D03*
D11*
X225093000Y-183344700D03*
X235253000Y-183344700D03*
%TD*%
%TO.C,MX9*%
X240015200Y-97625100D03*
X229855200Y-97625100D03*
D10*
X227850200Y-95085100D03*
X240750200Y-92545100D03*
D12*
X234935200Y-97625100D03*
%TD*%
%TO.C,MX25*%
X225410800Y-126198300D03*
D11*
X220330800Y-126198300D03*
D10*
X231225800Y-121118300D03*
X218325800Y-123658300D03*
D11*
X230490800Y-126198300D03*
%TD*%
D10*
%TO.C,MX43*%
X240750200Y-140167100D03*
D12*
X234935200Y-145247100D03*
D11*
X229855200Y-145247100D03*
X240015200Y-145247100D03*
D10*
X227850200Y-142707100D03*
%TD*%
D12*
%TO.C,MX61*%
X239697400Y-164295900D03*
D11*
X234617400Y-164295900D03*
D10*
X232612400Y-161755900D03*
D11*
X244777400Y-164295900D03*
D10*
X245512400Y-159215900D03*
%TD*%
D11*
%TO.C,MX75*%
X244141800Y-183344700D03*
X254301800Y-183344700D03*
D12*
X249221800Y-183344700D03*
D10*
X255036800Y-178264700D03*
X242136800Y-180804700D03*
%TD*%
D12*
%TO.C,MX84*%
X246840700Y-202393500D03*
D11*
X241760700Y-202393500D03*
D10*
X252655700Y-197313500D03*
D11*
X251920700Y-202393500D03*
D10*
X239755700Y-199853500D03*
%TD*%
D11*
%TO.C,MX10*%
X258428400Y-97625100D03*
D12*
X263508400Y-97625100D03*
D11*
X268588400Y-97625100D03*
D10*
X256423400Y-95085100D03*
X269323400Y-92545100D03*
%TD*%
%TO.C,MX26*%
X250274600Y-121118300D03*
D11*
X249539600Y-126198300D03*
D12*
X244459600Y-126198300D03*
D11*
X239379600Y-126198300D03*
D10*
X237374600Y-123658300D03*
%TD*%
%TO.C,MX44*%
X246899000Y-142707100D03*
X259799000Y-140167100D03*
D11*
X259064000Y-145247100D03*
D12*
X253984000Y-145247100D03*
D11*
X248904000Y-145247100D03*
%TD*%
D12*
%TO.C,MX62*%
X258746200Y-164295900D03*
D11*
X263826200Y-164295900D03*
D10*
X251661200Y-161755900D03*
X264561200Y-159215900D03*
D11*
X253666200Y-164295900D03*
%TD*%
%TO.C,MX76*%
X263190600Y-183344700D03*
D10*
X261185600Y-180804700D03*
D11*
X273350600Y-183344700D03*
D10*
X274085600Y-178264700D03*
D12*
X268270600Y-183344700D03*
%TD*%
D10*
%TO.C,MX11*%
X288372200Y-92545100D03*
D11*
X287637200Y-97625100D03*
D12*
X282557200Y-97625100D03*
D11*
X277477200Y-97625100D03*
D10*
X275472200Y-95085100D03*
%TD*%
D11*
%TO.C,MX27*%
X268588400Y-126198300D03*
X258428400Y-126198300D03*
D10*
X256423400Y-123658300D03*
X269323400Y-121118300D03*
D12*
X263508400Y-126198300D03*
%TD*%
D11*
%TO.C,MX45*%
X267952800Y-145247100D03*
X278112800Y-145247100D03*
D12*
X273032800Y-145247100D03*
D10*
X278847800Y-140167100D03*
X265947800Y-142707100D03*
%TD*%
D12*
%TO.C,MX63*%
X277795000Y-164295900D03*
D10*
X270710000Y-161755900D03*
D11*
X282875000Y-164295900D03*
D10*
X283610000Y-159215900D03*
D11*
X272715000Y-164295900D03*
%TD*%
%TO.C,MX85*%
X265571700Y-202393500D03*
D12*
X270651700Y-202393500D03*
D11*
X275731700Y-202393500D03*
D10*
X263566700Y-199853500D03*
X276466700Y-197313500D03*
%TD*%
D11*
%TO.C,MX86*%
X299542700Y-202393500D03*
D12*
X294462700Y-202393500D03*
D11*
X289382700Y-202393500D03*
D10*
X287377700Y-199853500D03*
X300277700Y-197313500D03*
%TD*%
D11*
%TO.C,MX12*%
X296526000Y-97625100D03*
D12*
X301606000Y-97625100D03*
D10*
X294521000Y-95085100D03*
D11*
X306686000Y-97625100D03*
D10*
X307421000Y-92545100D03*
%TD*%
%TO.C,MX28*%
X275472200Y-123658300D03*
D11*
X277477200Y-126198300D03*
D12*
X282557200Y-126198300D03*
D10*
X288372200Y-121118300D03*
D11*
X287637200Y-126198300D03*
%TD*%
D10*
%TO.C,MX46*%
X297896600Y-140167100D03*
D12*
X292081600Y-145247100D03*
D11*
X297161600Y-145247100D03*
D10*
X284996600Y-142707100D03*
D11*
X287001600Y-145247100D03*
%TD*%
D10*
%TO.C,MX87*%
X311188700Y-199853500D03*
D11*
X323353700Y-202393500D03*
X313193700Y-202393500D03*
D12*
X318273700Y-202393500D03*
D10*
X324088700Y-197313500D03*
%TD*%
D11*
%TO.C,MX13*%
X325734800Y-97625100D03*
D12*
X320654800Y-97625100D03*
D11*
X315574800Y-97625100D03*
D10*
X326469800Y-92545100D03*
X313569800Y-95085100D03*
%TD*%
D13*
%TO.C,MX29*%
X299192400Y-134438300D03*
D14*
X299192400Y-119198300D03*
D12*
X311130400Y-126198300D03*
D10*
X304045400Y-123658300D03*
X316945400Y-121118300D03*
D11*
X316210400Y-126198300D03*
D13*
X323068400Y-134438300D03*
D11*
X306050400Y-126198300D03*
D14*
X323068400Y-119198300D03*
%TD*%
D11*
%TO.C,MX47*%
X310812600Y-145247100D03*
D10*
X321707600Y-140167100D03*
D11*
X320972600Y-145247100D03*
D10*
X308807600Y-142707100D03*
D12*
X315892600Y-145247100D03*
%TD*%
D14*
%TO.C,MX64*%
X296811300Y-171295900D03*
D11*
X303669300Y-164295900D03*
D10*
X314564300Y-159215900D03*
D13*
X320687300Y-156055900D03*
D12*
X308749300Y-164295900D03*
D13*
X296811300Y-156055900D03*
D14*
X320687300Y-171295900D03*
D11*
X313829300Y-164295900D03*
D10*
X301664300Y-161755900D03*
%TD*%
D12*
%TO.C,MX77*%
X303977562Y-183343844D03*
D10*
X309792562Y-178263844D03*
D13*
X315925100Y-191584700D03*
X292049100Y-191584700D03*
D11*
X309057562Y-183343844D03*
D10*
X296892562Y-180803844D03*
D14*
X292049100Y-176344700D03*
X315925100Y-176344700D03*
D11*
X298897562Y-183343844D03*
%TD*%
D10*
%TO.C,MX88*%
X342143000Y-199853500D03*
D11*
X354308000Y-202393500D03*
D12*
X349228000Y-202393500D03*
D11*
X344148000Y-202393500D03*
D10*
X355043000Y-197313500D03*
%TD*%
D12*
%TO.C,MX30*%
X349228000Y-126198300D03*
D11*
X354308000Y-126198300D03*
D10*
X355043000Y-121118300D03*
X342143000Y-123658300D03*
D11*
X344148000Y-126198300D03*
%TD*%
D12*
%TO.C,MX48*%
X349228000Y-145247100D03*
D10*
X342143000Y-142707100D03*
D11*
X354308000Y-145247100D03*
D10*
X355043000Y-140167100D03*
D11*
X344148000Y-145247100D03*
%TD*%
D10*
%TO.C,MX31*%
X361191800Y-123658300D03*
D11*
X373356800Y-126198300D03*
D10*
X374091800Y-121118300D03*
D12*
X368276800Y-126198300D03*
D11*
X363196800Y-126198300D03*
%TD*%
%TO.C,MX49*%
X363196800Y-145247100D03*
D10*
X361191800Y-142707100D03*
D11*
X373356800Y-145247100D03*
D12*
X368276800Y-145247100D03*
D10*
X374091800Y-140167100D03*
%TD*%
D11*
%TO.C,MX78*%
X373356800Y-183344700D03*
D12*
X368276800Y-183344700D03*
D10*
X374091800Y-178264700D03*
D11*
X363196800Y-183344700D03*
D10*
X361191800Y-180804700D03*
%TD*%
D12*
%TO.C,MX89*%
X368276800Y-202393500D03*
D10*
X361191800Y-199853500D03*
X374091800Y-197313500D03*
D11*
X363196800Y-202393500D03*
X373356800Y-202393500D03*
%TD*%
%TO.C,MX50*%
X392405600Y-145247100D03*
X382245600Y-145247100D03*
D10*
X380240600Y-142707100D03*
D12*
X387325600Y-145247100D03*
D10*
X393140600Y-140167100D03*
%TD*%
D11*
%TO.C,MX90*%
X392405600Y-202393500D03*
D10*
X380240600Y-199853500D03*
D11*
X382245600Y-202393500D03*
D12*
X387325600Y-202393500D03*
D10*
X393140600Y-197313500D03*
%TD*%
D15*
%TO.C,ROT2*%
X389706700Y-90084950D03*
D16*
X384706700Y-90084950D03*
X387206700Y-90084950D03*
D17*
X381606700Y-97584950D03*
X392806700Y-97584950D03*
D16*
X384706700Y-104584950D03*
X389706700Y-104584950D03*
%TD*%
D10*
%TO.C,MX6*%
X170703800Y-95085100D03*
D11*
X182868800Y-97625100D03*
X172708800Y-97625100D03*
D12*
X177788800Y-97625100D03*
D10*
X183603800Y-92545100D03*
%TD*%
D12*
%TO.C,MX21*%
X149215600Y-126198300D03*
D11*
X154295600Y-126198300D03*
X144135600Y-126198300D03*
D10*
X142130600Y-123658300D03*
X155030600Y-121118300D03*
%TD*%
D11*
%TO.C,MX32*%
X392405600Y-126198300D03*
X382245600Y-126198300D03*
D10*
X393140600Y-121118300D03*
X380240600Y-123658300D03*
D12*
X387325600Y-126198300D03*
%TD*%
D11*
%TO.C,MX19*%
X106038000Y-126198300D03*
D10*
X104033000Y-123658300D03*
X116933000Y-121118300D03*
D11*
X116198000Y-126198300D03*
D12*
X111118000Y-126198300D03*
%TD*%
D15*
%TO.C,ROT1*%
X32541700Y-90084950D03*
D16*
X27541700Y-90084950D03*
X30041700Y-90084950D03*
D17*
X24441700Y-97584950D03*
X35641700Y-97584950D03*
D16*
X27541700Y-104584950D03*
X32541700Y-104584950D03*
%TD*%
D11*
%TO.C,MX14*%
X344148000Y-97625100D03*
X354308000Y-97625100D03*
D12*
X349228000Y-97625100D03*
D10*
X342143000Y-95085100D03*
X355043000Y-92545100D03*
%TD*%
D18*
%TO.C,OL1*%
X386531900Y-168105900D03*
X386531900Y-165565900D03*
X386531900Y-163025900D03*
X386531900Y-160485900D03*
%TD*%
D12*
%TO.C,MX80*%
X56352700Y-202393500D03*
D10*
X49267700Y-199853500D03*
D11*
X61432700Y-202393500D03*
D10*
X62167700Y-197313500D03*
D11*
X51272700Y-202393500D03*
%TD*%
D10*
%TO.C,MX1-1*%
X78835400Y-92545100D03*
D12*
X73020400Y-97625100D03*
D10*
X65935400Y-95085100D03*
D11*
X78100400Y-97625100D03*
X67940400Y-97625100D03*
%TD*%
D19*
%TO.C,ROT2-1*%
X383375600Y-189194700D03*
X385915600Y-189194700D03*
X388455600Y-189194700D03*
X390995600Y-189194700D03*
D20*
X380375600Y-190844700D03*
D21*
X380375600Y-188844700D03*
%TD*%
D10*
%TO.C,MX14-1*%
X361191800Y-95085100D03*
X374091800Y-92545100D03*
D12*
X368276800Y-97625100D03*
D11*
X363196800Y-97625100D03*
X373356800Y-97625100D03*
%TD*%
D22*
%TO.C,KD15*%
X38097600Y-127785700D03*
X38097600Y-124485700D03*
%TD*%
%TO.C,KD33*%
X38097600Y-146834500D03*
X38097600Y-143534500D03*
%TD*%
%TO.C,KD51*%
X38097600Y-165945900D03*
X38097600Y-162645900D03*
%TD*%
%TO.C,KD65*%
X38097600Y-184994700D03*
X38097600Y-181694700D03*
%TD*%
%TO.C,KD80*%
X64289700Y-204043500D03*
X64289700Y-200743500D03*
%TD*%
%TO.C,KD1*%
X61908600Y-99275100D03*
X61908600Y-95975100D03*
%TD*%
%TO.C,KD16*%
X61908600Y-127848300D03*
X61908600Y-124548300D03*
%TD*%
%TO.C,KD34*%
X66670800Y-146897100D03*
X66670800Y-143597100D03*
%TD*%
%TO.C,KD52*%
X64289700Y-165945900D03*
X64289700Y-162645900D03*
%TD*%
%TO.C,KD79*%
X38097600Y-203980900D03*
X38097600Y-200680900D03*
%TD*%
%TO.C,KD2*%
X100006200Y-99275100D03*
X100006200Y-95975100D03*
%TD*%
%TO.C,KD18*%
X100006200Y-127848300D03*
X100006200Y-124548300D03*
%TD*%
%TO.C,KD36*%
X109530600Y-146897100D03*
X109530600Y-143597100D03*
%TD*%
%TO.C,KD54*%
X114292800Y-165945900D03*
X114292800Y-162645900D03*
%TD*%
%TO.C,KD67*%
X104768400Y-184994700D03*
X104768400Y-181694700D03*
%TD*%
%TO.C,KD82*%
X111911700Y-204043500D03*
X111911700Y-200743500D03*
%TD*%
%TO.C,KD17*%
X80957400Y-127848300D03*
X80957400Y-124548300D03*
%TD*%
%TO.C,KD35*%
X90481800Y-146897100D03*
X90481800Y-143597100D03*
%TD*%
%TO.C,KD53*%
X95244000Y-165945900D03*
X95244000Y-162645900D03*
%TD*%
%TO.C,KD66*%
X73814100Y-184994700D03*
X73814100Y-181694700D03*
%TD*%
%TO.C,KD81*%
X88100700Y-204043500D03*
X88100700Y-200743500D03*
%TD*%
%TO.C,KD3*%
X119055000Y-99275100D03*
X119055000Y-95975100D03*
%TD*%
%TO.C,KD19*%
X119055000Y-127848300D03*
X119055000Y-124548300D03*
%TD*%
%TO.C,KD37*%
X128579400Y-146897100D03*
X128579400Y-143597100D03*
%TD*%
%TO.C,KD55*%
X133341600Y-165945900D03*
X133341600Y-162645900D03*
%TD*%
%TO.C,KD68*%
X123817200Y-184994700D03*
X123817200Y-181694700D03*
%TD*%
%TO.C,KD70*%
X161914800Y-184994700D03*
X161914800Y-181694700D03*
%TD*%
%TO.C,KD4*%
X138103800Y-99275100D03*
X138103800Y-95975100D03*
%TD*%
%TO.C,KD20*%
X138103800Y-127848300D03*
X138103800Y-124548300D03*
%TD*%
%TO.C,KD38*%
X147628200Y-146897100D03*
X147628200Y-143597100D03*
%TD*%
%TO.C,KD56*%
X152390400Y-165945900D03*
X152390400Y-162645900D03*
%TD*%
%TO.C,KD69*%
X142866000Y-184994700D03*
X142866000Y-181694700D03*
%TD*%
%TO.C,KD5*%
X157152600Y-99275100D03*
X157152600Y-95975100D03*
%TD*%
%TO.C,KD21*%
X157152600Y-127848300D03*
X157152600Y-124548300D03*
%TD*%
%TO.C,KD39*%
X166677000Y-146897100D03*
X166677000Y-143597100D03*
%TD*%
%TO.C,KD57*%
X171439200Y-165945900D03*
X171439200Y-162645900D03*
%TD*%
%TO.C,KD71*%
X180963600Y-184994700D03*
X180963600Y-181694700D03*
%TD*%
%TO.C,KD83*%
X183344700Y-204043500D03*
X183344700Y-200743500D03*
%TD*%
%TO.C,KD6*%
X185725800Y-99275100D03*
X185725800Y-95975100D03*
%TD*%
%TO.C,KD22*%
X176201400Y-127848300D03*
X176201400Y-124548300D03*
%TD*%
%TO.C,KD40*%
X185725800Y-146897100D03*
X185725800Y-143597100D03*
%TD*%
%TO.C,KD58*%
X190488000Y-165945900D03*
X190488000Y-162645900D03*
%TD*%
%TO.C,KD72*%
X200012400Y-184994700D03*
X200012400Y-181694700D03*
%TD*%
%TO.C,KD7*%
X204774600Y-99275100D03*
X204774600Y-95975100D03*
%TD*%
%TO.C,KD23*%
X195250200Y-127848300D03*
X195250200Y-124548300D03*
%TD*%
%TO.C,KD41*%
X204774600Y-146897100D03*
X204774600Y-143597100D03*
%TD*%
%TO.C,KD59*%
X209536800Y-165945900D03*
X209536800Y-162645900D03*
%TD*%
%TO.C,KD73*%
X219061200Y-184994700D03*
X219061200Y-181694700D03*
%TD*%
%TO.C,KD8*%
X223823400Y-99275100D03*
X223823400Y-95975100D03*
%TD*%
%TO.C,KD24*%
X214299000Y-127848300D03*
X214299000Y-124548300D03*
%TD*%
%TO.C,KD42*%
X223823400Y-146897100D03*
X223823400Y-143597100D03*
%TD*%
%TO.C,KD60*%
X228585600Y-165945900D03*
X228585600Y-162645900D03*
%TD*%
%TO.C,KD74*%
X238110000Y-184994700D03*
X238110000Y-181694700D03*
%TD*%
%TO.C,KD25*%
X233347800Y-127848300D03*
X233347800Y-124548300D03*
%TD*%
%TO.C,KD43*%
X242872200Y-146897100D03*
X242872200Y-143597100D03*
%TD*%
%TO.C,KD61*%
X247634400Y-165945900D03*
X247634400Y-162645900D03*
%TD*%
%TO.C,KD75*%
X257158800Y-184994700D03*
X257158800Y-181694700D03*
%TD*%
%TO.C,KD84*%
X254777700Y-204043500D03*
X254777700Y-200743500D03*
%TD*%
%TO.C,KD10*%
X271445400Y-99275100D03*
X271445400Y-95975100D03*
%TD*%
%TO.C,KD26*%
X252396600Y-127848300D03*
X252396600Y-124548300D03*
%TD*%
%TO.C,KD44*%
X261921000Y-146897100D03*
X261921000Y-143597100D03*
%TD*%
%TO.C,KD62*%
X266683200Y-165945900D03*
X266683200Y-162645900D03*
%TD*%
%TO.C,KD11*%
X290494200Y-99275100D03*
X290494200Y-95975100D03*
%TD*%
%TO.C,KD27*%
X271445400Y-127848300D03*
X271445400Y-124548300D03*
%TD*%
%TO.C,KD45*%
X280969800Y-146897100D03*
X280969800Y-143597100D03*
%TD*%
%TO.C,KD63*%
X285732000Y-165945900D03*
X285732000Y-162645900D03*
%TD*%
%TO.C,KD85*%
X278588700Y-204043500D03*
X278588700Y-200743500D03*
%TD*%
%TO.C,KD86*%
X302399700Y-204043500D03*
X302399700Y-200743500D03*
%TD*%
%TO.C,KD12*%
X309543000Y-99275100D03*
X309543000Y-95975100D03*
%TD*%
%TO.C,KD28*%
X290494200Y-127848300D03*
X290494200Y-124548300D03*
%TD*%
%TO.C,KD46*%
X300018600Y-146897100D03*
X300018600Y-143597100D03*
%TD*%
%TO.C,KD87*%
X326210700Y-204043500D03*
X326210700Y-200743500D03*
%TD*%
%TO.C,KD13*%
X328591800Y-99275100D03*
X328591800Y-95975100D03*
%TD*%
%TO.C,KD29*%
X319067400Y-127848300D03*
X319067400Y-124548300D03*
%TD*%
%TO.C,KD47*%
X323829600Y-146897100D03*
X323829600Y-143597100D03*
%TD*%
%TO.C,KD64*%
X316686300Y-165945900D03*
X316686300Y-162645900D03*
%TD*%
%TO.C,KD77*%
X311924100Y-184994700D03*
X311924100Y-181694700D03*
%TD*%
%TO.C,KD88*%
X357165000Y-204043500D03*
X357165000Y-200743500D03*
%TD*%
%TO.C,KD14*%
X357165000Y-99275100D03*
X357165000Y-95975100D03*
%TD*%
%TO.C,KD30*%
X357165000Y-127848300D03*
X357165000Y-124548300D03*
%TD*%
%TO.C,KD48*%
X357165000Y-146897100D03*
X357165000Y-143597100D03*
%TD*%
%TO.C,KD31*%
X376213800Y-127848300D03*
X376213800Y-124548300D03*
%TD*%
%TO.C,KD49*%
X376213800Y-146897100D03*
X376213800Y-143597100D03*
%TD*%
%TO.C,KD78*%
X376213800Y-184994700D03*
X376213800Y-181694700D03*
%TD*%
%TO.C,KD89*%
X376213800Y-204043500D03*
X376213800Y-200743500D03*
%TD*%
%TO.C,KD32*%
X395262600Y-127848300D03*
X395262600Y-124548300D03*
%TD*%
%TO.C,KD50*%
X395262600Y-146897100D03*
X395262600Y-143597100D03*
%TD*%
%TO.C,KD90*%
X395262600Y-204043500D03*
X395262600Y-200743500D03*
%TD*%
%TO.C,D4*%
X378594900Y-108005800D03*
X378594900Y-104705800D03*
%TD*%
%TO.C,D3*%
X38891300Y-104037300D03*
X38891300Y-100737300D03*
%TD*%
D23*
%TO.C,R38*%
X382444600Y-168264400D03*
X384269600Y-168264400D03*
%TD*%
%TO.C,R39*%
X382444600Y-165883300D03*
X384269600Y-165883300D03*
%TD*%
D24*
%TO.C,COL12*%
X255571400Y-119848700D03*
%TD*%
%TO.C,COL13*%
X274620200Y-119848700D03*
%TD*%
%TO.C,COL3*%
X84132200Y-119848700D03*
%TD*%
%TO.C,COL0*%
X22223600Y-119848700D03*
%TD*%
%TO.C,ROW5*%
X42859800Y-205568300D03*
%TD*%
%TO.C,ROW4*%
X42859800Y-186519500D03*
%TD*%
%TO.C,ROW3*%
X42859800Y-167470700D03*
%TD*%
%TO.C,ROW2*%
X42859800Y-148421900D03*
%TD*%
%TO.C,ROW1*%
X42859800Y-129373100D03*
%TD*%
%TO.C,ROW0*%
X42859800Y-100799900D03*
%TD*%
%TO.C,COL16*%
X360339800Y-120642400D03*
%TD*%
%TO.C,COL17*%
X379388600Y-120642400D03*
%TD*%
%TO.C,COL4*%
X103181000Y-119848700D03*
%TD*%
%TO.C,COL5*%
X122229800Y-119848700D03*
%TD*%
%TO.C,COL6*%
X141278600Y-119848700D03*
%TD*%
%TO.C,COL7*%
X160327400Y-119848700D03*
%TD*%
%TO.C,COL8*%
X179376200Y-119848700D03*
%TD*%
%TO.C,COL9*%
X198425000Y-119848700D03*
%TD*%
%TO.C,COL10*%
X217473800Y-119848700D03*
%TD*%
%TO.C,COL11*%
X236522600Y-119848700D03*
%TD*%
%TO.C,COL14*%
X303193400Y-119848700D03*
%TD*%
%TO.C,COL2*%
X65083400Y-119848700D03*
%TD*%
%TO.C,COL1*%
X46034600Y-119848700D03*
%TD*%
D25*
%TO.C,D+1*%
X250809200Y-101593600D03*
%TD*%
%TO.C,D-1*%
X247634400Y-101593600D03*
%TD*%
D26*
%TO.C,FB5*%
X259015000Y-88894400D03*
X256890000Y-88894400D03*
%TD*%
D24*
%TO.C,BOOT0*%
X380976000Y-173026600D03*
%TD*%
%TO.C,BOOT1*%
X338116200Y-170645500D03*
%TD*%
D27*
%TO.C,C3*%
X355577600Y-189850600D03*
X355577600Y-187950600D03*
%TD*%
D28*
%TO.C,C7*%
X346053200Y-187950600D03*
X346053200Y-189850600D03*
%TD*%
%TO.C,C18*%
X357165000Y-180410450D03*
X357165000Y-182310450D03*
%TD*%
%TO.C,C19*%
X342878400Y-169695500D03*
X342878400Y-171595500D03*
%TD*%
D29*
%TO.C,C20*%
X354543350Y-167867550D03*
X352643350Y-167867550D03*
%TD*%
D27*
%TO.C,C23*%
X346846900Y-183501000D03*
X346846900Y-181601000D03*
%TD*%
D28*
%TO.C,C24*%
X344544600Y-181601000D03*
X344544600Y-183501000D03*
%TD*%
%TO.C,C44*%
X354134000Y-156996300D03*
X354134000Y-158896300D03*
%TD*%
D30*
%TO.C,D11*%
X355865200Y-154771500D03*
X353990200Y-154771500D03*
%TD*%
D24*
%TO.C,ENCB1*%
X341291000Y-179376200D03*
%TD*%
D31*
%TO.C,F8*%
X346053200Y-161308500D03*
X346053200Y-164108500D03*
%TD*%
D32*
%TO.C,FB15*%
X348434300Y-163771000D03*
X348434300Y-161646000D03*
%TD*%
D33*
%TO.C,J1*%
X361133500Y-163502200D03*
D34*
X361133500Y-166042200D03*
X361133500Y-168582200D03*
X361133500Y-171122200D03*
%TD*%
D23*
%TO.C,R12*%
X253071500Y-89688100D03*
X254896500Y-89688100D03*
%TD*%
D35*
%TO.C,R27*%
X340497300Y-169733000D03*
X340497300Y-171558000D03*
%TD*%
D36*
%TO.C,R58*%
X353712150Y-163502200D03*
X351887150Y-163502200D03*
%TD*%
%TO.C,R64*%
X359664900Y-154771500D03*
X357839900Y-154771500D03*
%TD*%
D37*
%TO.C,U12*%
X356371300Y-158896300D03*
X356371300Y-156996300D03*
X358246300Y-157946300D03*
%TD*%
D24*
%TO.C,X1*%
X352402800Y-185725800D03*
%TD*%
%TO.C,X2*%
X349228000Y-185725800D03*
%TD*%
D38*
%TO.C,U14*%
X352771700Y-178776500D03*
X352271700Y-178776500D03*
X351771700Y-178776500D03*
X351271700Y-178776500D03*
X350771700Y-178776500D03*
X350271700Y-178776500D03*
X349771700Y-178776500D03*
X349271700Y-178776500D03*
X348771700Y-178776500D03*
X348271700Y-178776500D03*
X347771700Y-178776500D03*
X347271700Y-178776500D03*
D39*
X345859200Y-177364000D03*
X345859200Y-176864000D03*
X345859200Y-176364000D03*
X345859200Y-175864000D03*
X345859200Y-175364000D03*
X345859200Y-174864000D03*
X345859200Y-174364000D03*
X345859200Y-173864000D03*
X345859200Y-173364000D03*
X345859200Y-172864000D03*
X345859200Y-172364000D03*
X345859200Y-171864000D03*
D38*
X347271700Y-170451500D03*
X347771700Y-170451500D03*
X348271700Y-170451500D03*
X348771700Y-170451500D03*
X349271700Y-170451500D03*
X349771700Y-170451500D03*
X350271700Y-170451500D03*
X350771700Y-170451500D03*
X351271700Y-170451500D03*
X351771700Y-170451500D03*
X352271700Y-170451500D03*
X352771700Y-170451500D03*
D39*
X354184200Y-171864000D03*
X354184200Y-172364000D03*
X354184200Y-172864000D03*
X354184200Y-173364000D03*
X354184200Y-173864000D03*
X354184200Y-174364000D03*
X354184200Y-174864000D03*
X354184200Y-175364000D03*
X354184200Y-175864000D03*
X354184200Y-176364000D03*
X354184200Y-176864000D03*
X354184200Y-177364000D03*
%TD*%
D40*
%TO.C,Y2*%
X352665400Y-188900600D03*
X348965400Y-188900600D03*
%TD*%
D41*
%TO.C,U1*%
X250571800Y-89531800D03*
X250571800Y-90481800D03*
X250571800Y-91431800D03*
X247871800Y-91431800D03*
X247871800Y-90481800D03*
X247871800Y-89531800D03*
%TD*%
D29*
%TO.C,C43*%
X358258800Y-161121100D03*
X356358800Y-161121100D03*
%TD*%
D42*
%TO.C,D2*%
X250809200Y-97768900D03*
X250809200Y-95893900D03*
%TD*%
D36*
%TO.C,R13*%
X245372100Y-89688100D03*
X243547100Y-89688100D03*
%TD*%
D24*
%TO.C,ENCB2*%
X336528800Y-177788800D03*
%TD*%
%TO.C,ENCA1*%
X338116200Y-179376200D03*
%TD*%
D43*
%TO.C,C2*%
X376057500Y-165883300D03*
X377957500Y-165883300D03*
%TD*%
D28*
%TO.C,C4*%
X369070500Y-163345900D03*
X369070500Y-165245900D03*
%TD*%
D27*
%TO.C,C5*%
X374626400Y-109290050D03*
X374626400Y-107390050D03*
%TD*%
%TO.C,C6*%
X372245300Y-109290050D03*
X372245300Y-107390050D03*
%TD*%
D44*
%TO.C,I1*%
X369420600Y-109156900D03*
X369420600Y-109556900D03*
X369420600Y-109956900D03*
X369420600Y-110356900D03*
X369420600Y-110756900D03*
X369420600Y-111156900D03*
X369420600Y-111556900D03*
D45*
X368683100Y-112294400D03*
X368283100Y-112294400D03*
X367883100Y-112294400D03*
X367483100Y-112294400D03*
X367083100Y-112294400D03*
X366683100Y-112294400D03*
X366283100Y-112294400D03*
D44*
X365545600Y-111556900D03*
X365545600Y-111156900D03*
X365545600Y-110756900D03*
X365545600Y-110356900D03*
X365545600Y-109956900D03*
X365545600Y-109556900D03*
X365545600Y-109156900D03*
D45*
X366283100Y-108419400D03*
X366683100Y-108419400D03*
X367083100Y-108419400D03*
X367483100Y-108419400D03*
X367883100Y-108419400D03*
X368283100Y-108419400D03*
X368683100Y-108419400D03*
D46*
X367483100Y-110356900D03*
%TD*%
D47*
%TO.C,Q1*%
X373182800Y-165727000D03*
X373182800Y-167627000D03*
X371307800Y-166677000D03*
%TD*%
D35*
%TO.C,R5*%
X371451600Y-161002300D03*
X371451600Y-162827300D03*
%TD*%
%TO.C,R6*%
X378594900Y-168145600D03*
X378594900Y-169970600D03*
%TD*%
D48*
%TO.C,R7*%
X376213800Y-168233100D03*
X376213800Y-169883100D03*
%TD*%
D35*
%TO.C,R11*%
X373039000Y-111396050D03*
X373039000Y-113221050D03*
%TD*%
D49*
%TO.C,SW1*%
X373907500Y-163764800D03*
X380107500Y-163764800D03*
X373907500Y-160064800D03*
X380107500Y-160064800D03*
%TD*%
D27*
%TO.C,C10*%
X284541450Y-177548250D03*
X284541450Y-175648250D03*
%TD*%
%TO.C,C11*%
X282160350Y-177548250D03*
X282160350Y-175648250D03*
%TD*%
D50*
%TO.C,I2*%
X282944600Y-180613500D03*
X283344600Y-180613500D03*
X283744600Y-180613500D03*
X284144600Y-180613500D03*
X284544600Y-180613500D03*
X284944600Y-180613500D03*
X285344600Y-180613500D03*
D51*
X286082100Y-181351000D03*
X286082100Y-181751000D03*
X286082100Y-182151000D03*
X286082100Y-182551000D03*
X286082100Y-182951000D03*
X286082100Y-183351000D03*
X286082100Y-183751000D03*
D50*
X285344600Y-184488500D03*
X284944600Y-184488500D03*
X284544600Y-184488500D03*
X284144600Y-184488500D03*
X283744600Y-184488500D03*
X283344600Y-184488500D03*
X282944600Y-184488500D03*
D51*
X282207100Y-183751000D03*
X282207100Y-183351000D03*
X282207100Y-182951000D03*
X282207100Y-182551000D03*
X282207100Y-182151000D03*
X282207100Y-181751000D03*
X282207100Y-181351000D03*
D46*
X284144600Y-182551000D03*
%TD*%
D52*
%TO.C,LED1*%
X30160600Y-131273300D03*
D53*
X31710600Y-130723300D03*
X31710600Y-131823300D03*
X28610600Y-131823300D03*
X28610600Y-130723300D03*
%TD*%
D54*
%TO.C,J2*%
X343684900Y-157858900D03*
X343684900Y-156858900D03*
X343684900Y-155858900D03*
X343684900Y-154858900D03*
D55*
X339809900Y-153558900D03*
X339809900Y-159158900D03*
%TD*%
D22*
%TO.C,KD76*%
X276207600Y-184994700D03*
X276207600Y-181694700D03*
%TD*%
D52*
%TO.C,LED32*%
X73020400Y-131273300D03*
D53*
X74570400Y-130723300D03*
X74570400Y-131823300D03*
X71470400Y-131823300D03*
X71470400Y-130723300D03*
%TD*%
D52*
%TO.C,LED18*%
X368276800Y-131273300D03*
D53*
X369826800Y-130723300D03*
X369826800Y-131823300D03*
X366726800Y-131823300D03*
X366726800Y-130723300D03*
%TD*%
D52*
%TO.C,LED31*%
X92069200Y-131273300D03*
D53*
X93619200Y-130723300D03*
X93619200Y-131823300D03*
X90519200Y-131823300D03*
X90519200Y-130723300D03*
%TD*%
D52*
%TO.C,LED30*%
X111118000Y-131273300D03*
D53*
X112668000Y-130723300D03*
X112668000Y-131823300D03*
X109568000Y-131823300D03*
X109568000Y-130723300D03*
%TD*%
D52*
%TO.C,LED29*%
X130166800Y-131273300D03*
D53*
X131716800Y-130723300D03*
X131716800Y-131823300D03*
X128616800Y-131823300D03*
X128616800Y-130723300D03*
%TD*%
D52*
%TO.C,LED24*%
X225410800Y-131273300D03*
D53*
X226960800Y-130723300D03*
X226960800Y-131823300D03*
X223860800Y-131823300D03*
X223860800Y-130723300D03*
%TD*%
D52*
%TO.C,LED28*%
X149215600Y-131273300D03*
D53*
X150765600Y-130723300D03*
X150765600Y-131823300D03*
X147665600Y-131823300D03*
X147665600Y-130723300D03*
%TD*%
D52*
%TO.C,LED27*%
X168264400Y-131273300D03*
D53*
X169814400Y-130723300D03*
X169814400Y-131823300D03*
X166714400Y-131823300D03*
X166714400Y-130723300D03*
%TD*%
D52*
%TO.C,LED26*%
X187313200Y-131273300D03*
D53*
X188863200Y-130723300D03*
X188863200Y-131823300D03*
X185763200Y-131823300D03*
X185763200Y-130723300D03*
%TD*%
D52*
%TO.C,LED25*%
X206362000Y-131273300D03*
D53*
X207912000Y-130723300D03*
X207912000Y-131823300D03*
X204812000Y-131823300D03*
X204812000Y-130723300D03*
%TD*%
D52*
%TO.C,LED23*%
X244459600Y-131273300D03*
D53*
X246009600Y-130723300D03*
X246009600Y-131823300D03*
X242909600Y-131823300D03*
X242909600Y-130723300D03*
%TD*%
D52*
%TO.C,LED22*%
X263508400Y-131273300D03*
D53*
X265058400Y-130723300D03*
X265058400Y-131823300D03*
X261958400Y-131823300D03*
X261958400Y-130723300D03*
%TD*%
D52*
%TO.C,LED20*%
X311130400Y-131273300D03*
D53*
X312680400Y-130723300D03*
X312680400Y-131823300D03*
X309580400Y-131823300D03*
X309580400Y-130723300D03*
%TD*%
D52*
%TO.C,LED21*%
X282557200Y-131273300D03*
D53*
X284107200Y-130723300D03*
X284107200Y-131823300D03*
X281007200Y-131823300D03*
X281007200Y-130723300D03*
%TD*%
D52*
%TO.C,LED19*%
X349228000Y-131273300D03*
D53*
X350778000Y-130723300D03*
X350778000Y-131823300D03*
X347678000Y-131823300D03*
X347678000Y-130723300D03*
%TD*%
D52*
%TO.C,LED17*%
X387325600Y-131273300D03*
D53*
X388875600Y-130723300D03*
X388875600Y-131823300D03*
X385775600Y-131823300D03*
X385775600Y-130723300D03*
%TD*%
D52*
%TO.C,LED49*%
X30160600Y-150322100D03*
D53*
X31710600Y-149772100D03*
X31710600Y-150872100D03*
X28610600Y-150872100D03*
X28610600Y-149772100D03*
%TD*%
D52*
%TO.C,LED50*%
X58733800Y-150322100D03*
D53*
X60283800Y-149772100D03*
X60283800Y-150872100D03*
X57183800Y-150872100D03*
X57183800Y-149772100D03*
%TD*%
D52*
%TO.C,LED51*%
X30160600Y-169370900D03*
D53*
X31710600Y-168820900D03*
X31710600Y-169920900D03*
X28610600Y-169920900D03*
X28610600Y-168820900D03*
%TD*%
D52*
%TO.C,LED52*%
X56352700Y-169370900D03*
D53*
X57902700Y-168820900D03*
X57902700Y-169920900D03*
X54802700Y-169920900D03*
X54802700Y-168820900D03*
%TD*%
D52*
%TO.C,LED53*%
X87307000Y-169370900D03*
D53*
X88857000Y-168820900D03*
X88857000Y-169920900D03*
X85757000Y-169920900D03*
X85757000Y-168820900D03*
%TD*%
D52*
%TO.C,LED54*%
X106355800Y-169370900D03*
D53*
X107905800Y-168820900D03*
X107905800Y-169920900D03*
X104805800Y-169920900D03*
X104805800Y-168820900D03*
%TD*%
D52*
%TO.C,LED55*%
X125404600Y-169370900D03*
D53*
X126954600Y-168820900D03*
X126954600Y-169920900D03*
X123854600Y-169920900D03*
X123854600Y-168820900D03*
%TD*%
D52*
%TO.C,LED56*%
X144453400Y-169370900D03*
D53*
X146003400Y-168820900D03*
X146003400Y-169920900D03*
X142903400Y-169920900D03*
X142903400Y-168820900D03*
%TD*%
D52*
%TO.C,LED57*%
X163502200Y-169370900D03*
D53*
X165052200Y-168820900D03*
X165052200Y-169920900D03*
X161952200Y-169920900D03*
X161952200Y-168820900D03*
%TD*%
D52*
%TO.C,LED58*%
X182551000Y-169370900D03*
D53*
X184101000Y-168820900D03*
X184101000Y-169920900D03*
X181001000Y-169920900D03*
X181001000Y-168820900D03*
%TD*%
D52*
%TO.C,LED59*%
X201599800Y-169370900D03*
D53*
X203149800Y-168820900D03*
X203149800Y-169920900D03*
X200049800Y-169920900D03*
X200049800Y-168820900D03*
%TD*%
D52*
%TO.C,LED60*%
X220648600Y-169370900D03*
D53*
X222198600Y-168820900D03*
X222198600Y-169920900D03*
X219098600Y-169920900D03*
X219098600Y-168820900D03*
%TD*%
D52*
%TO.C,LED61*%
X239697400Y-169370900D03*
D53*
X241247400Y-168820900D03*
X241247400Y-169920900D03*
X238147400Y-169920900D03*
X238147400Y-168820900D03*
%TD*%
D52*
%TO.C,LED62*%
X258746200Y-169370900D03*
D53*
X260296200Y-168820900D03*
X260296200Y-169920900D03*
X257196200Y-169920900D03*
X257196200Y-168820900D03*
%TD*%
D52*
%TO.C,LED63*%
X277795000Y-169370900D03*
D53*
X279345000Y-168820900D03*
X279345000Y-169920900D03*
X276245000Y-169920900D03*
X276245000Y-168820900D03*
%TD*%
D52*
%TO.C,LED64*%
X308749300Y-169370900D03*
D53*
X310299300Y-168820900D03*
X310299300Y-169920900D03*
X307199300Y-169920900D03*
X307199300Y-168820900D03*
%TD*%
D52*
%TO.C,LED2*%
X53971600Y-131273300D03*
D53*
X55521600Y-130723300D03*
X55521600Y-131823300D03*
X52421600Y-131823300D03*
X52421600Y-130723300D03*
%TD*%
D52*
%TO.C,LED3*%
X53971600Y-102700100D03*
D53*
X55521600Y-102150100D03*
X55521600Y-103250100D03*
X52421600Y-103250100D03*
X52421600Y-102150100D03*
%TD*%
D52*
%TO.C,LED4*%
X92069200Y-102700100D03*
D53*
X93619200Y-102150100D03*
X93619200Y-103250100D03*
X90519200Y-103250100D03*
X90519200Y-102150100D03*
%TD*%
D52*
%TO.C,LED5*%
X111118000Y-102700100D03*
D53*
X112668000Y-102150100D03*
X112668000Y-103250100D03*
X109568000Y-103250100D03*
X109568000Y-102150100D03*
%TD*%
D52*
%TO.C,LED6*%
X130166800Y-102700100D03*
D53*
X131716800Y-102150100D03*
X131716800Y-103250100D03*
X128616800Y-103250100D03*
X128616800Y-102150100D03*
%TD*%
D52*
%TO.C,LED7*%
X149215600Y-102700100D03*
D53*
X150765600Y-102150100D03*
X150765600Y-103250100D03*
X147665600Y-103250100D03*
X147665600Y-102150100D03*
%TD*%
D52*
%TO.C,LED8*%
X177788800Y-102700100D03*
D53*
X179338800Y-102150100D03*
X179338800Y-103250100D03*
X176238800Y-103250100D03*
X176238800Y-102150100D03*
%TD*%
D52*
%TO.C,LED9*%
X196837600Y-102700100D03*
D53*
X198387600Y-102150100D03*
X198387600Y-103250100D03*
X195287600Y-103250100D03*
X195287600Y-102150100D03*
%TD*%
D52*
%TO.C,LED10*%
X215886400Y-102700100D03*
D53*
X217436400Y-102150100D03*
X217436400Y-103250100D03*
X214336400Y-103250100D03*
X214336400Y-102150100D03*
%TD*%
D52*
%TO.C,LED11*%
X234935200Y-102700100D03*
D53*
X236485200Y-102150100D03*
X236485200Y-103250100D03*
X233385200Y-103250100D03*
X233385200Y-102150100D03*
%TD*%
D52*
%TO.C,LED12*%
X263508400Y-102700100D03*
D53*
X265058400Y-102150100D03*
X265058400Y-103250100D03*
X261958400Y-103250100D03*
X261958400Y-102150100D03*
%TD*%
D52*
%TO.C,LED13*%
X282557200Y-102700100D03*
D53*
X284107200Y-102150100D03*
X284107200Y-103250100D03*
X281007200Y-103250100D03*
X281007200Y-102150100D03*
%TD*%
D52*
%TO.C,LED14*%
X301606000Y-102700100D03*
D53*
X303156000Y-102150100D03*
X303156000Y-103250100D03*
X300056000Y-103250100D03*
X300056000Y-102150100D03*
%TD*%
D52*
%TO.C,LED15*%
X320654800Y-102700100D03*
D53*
X322204800Y-102150100D03*
X322204800Y-103250100D03*
X319104800Y-103250100D03*
X319104800Y-102150100D03*
%TD*%
D52*
%TO.C,LED16*%
X349228000Y-102700100D03*
D53*
X350778000Y-102150100D03*
X350778000Y-103250100D03*
X347678000Y-103250100D03*
X347678000Y-102150100D03*
%TD*%
D52*
%TO.C,LED65*%
X30160600Y-207468500D03*
D53*
X31710600Y-206918500D03*
X31710600Y-208018500D03*
X28610600Y-208018500D03*
X28610600Y-206918500D03*
%TD*%
D52*
%TO.C,LED66*%
X56352700Y-207468500D03*
D53*
X57902700Y-206918500D03*
X57902700Y-208018500D03*
X54802700Y-208018500D03*
X54802700Y-206918500D03*
%TD*%
D52*
%TO.C,LED67*%
X80163700Y-207468500D03*
D53*
X81713700Y-206918500D03*
X81713700Y-208018500D03*
X78613700Y-208018500D03*
X78613700Y-206918500D03*
%TD*%
D52*
%TO.C,LED68*%
X30160600Y-188419700D03*
D53*
X31710600Y-187869700D03*
X31710600Y-188969700D03*
X28610600Y-188969700D03*
X28610600Y-187869700D03*
%TD*%
D52*
%TO.C,LED69*%
X65877100Y-188419700D03*
D53*
X67427100Y-187869700D03*
X67427100Y-188969700D03*
X64327100Y-188969700D03*
X64327100Y-187869700D03*
%TD*%
D52*
%TO.C,LED70*%
X96831400Y-188419700D03*
D53*
X98381400Y-187869700D03*
X98381400Y-188969700D03*
X95281400Y-188969700D03*
X95281400Y-187869700D03*
%TD*%
D52*
%TO.C,LED71*%
X115880200Y-188419700D03*
D53*
X117430200Y-187869700D03*
X117430200Y-188969700D03*
X114330200Y-188969700D03*
X114330200Y-187869700D03*
%TD*%
D52*
%TO.C,LED72*%
X134929000Y-188419700D03*
D53*
X136479000Y-187869700D03*
X136479000Y-188969700D03*
X133379000Y-188969700D03*
X133379000Y-187869700D03*
%TD*%
D52*
%TO.C,LED73*%
X153977800Y-188419700D03*
D53*
X155527800Y-187869700D03*
X155527800Y-188969700D03*
X152427800Y-188969700D03*
X152427800Y-187869700D03*
%TD*%
D52*
%TO.C,LED74*%
X173026600Y-188419700D03*
D53*
X174576600Y-187869700D03*
X174576600Y-188969700D03*
X171476600Y-188969700D03*
X171476600Y-187869700D03*
%TD*%
D52*
%TO.C,LED75*%
X192075400Y-188419700D03*
D53*
X193625400Y-187869700D03*
X193625400Y-188969700D03*
X190525400Y-188969700D03*
X190525400Y-187869700D03*
%TD*%
D52*
%TO.C,LED76*%
X211124200Y-188419700D03*
D53*
X212674200Y-187869700D03*
X212674200Y-188969700D03*
X209574200Y-188969700D03*
X209574200Y-187869700D03*
%TD*%
D52*
%TO.C,LED77*%
X230173000Y-188419700D03*
D53*
X231723000Y-187869700D03*
X231723000Y-188969700D03*
X228623000Y-188969700D03*
X228623000Y-187869700D03*
%TD*%
D52*
%TO.C,LED78*%
X249221800Y-188419700D03*
D53*
X250771800Y-187869700D03*
X250771800Y-188969700D03*
X247671800Y-188969700D03*
X247671800Y-187869700D03*
%TD*%
D52*
%TO.C,LED79*%
X268270600Y-188419700D03*
D53*
X269820600Y-187869700D03*
X269820600Y-188969700D03*
X266720600Y-188969700D03*
X266720600Y-187869700D03*
%TD*%
D52*
%TO.C,LED80*%
X303987100Y-188419700D03*
D53*
X305537100Y-187869700D03*
X305537100Y-188969700D03*
X302437100Y-188969700D03*
X302437100Y-187869700D03*
%TD*%
D50*
%TO.C,I3*%
X327788650Y-187359950D03*
X328188650Y-187359950D03*
X328588650Y-187359950D03*
X328988650Y-187359950D03*
X329388650Y-187359950D03*
X329788650Y-187359950D03*
X330188650Y-187359950D03*
D51*
X330926150Y-188097450D03*
X330926150Y-188497450D03*
X330926150Y-188897450D03*
X330926150Y-189297450D03*
X330926150Y-189697450D03*
X330926150Y-190097450D03*
X330926150Y-190497450D03*
D50*
X330188650Y-191234950D03*
X329788650Y-191234950D03*
X329388650Y-191234950D03*
X328988650Y-191234950D03*
X328588650Y-191234950D03*
X328188650Y-191234950D03*
X327788650Y-191234950D03*
D51*
X327051150Y-190497450D03*
X327051150Y-190097450D03*
X327051150Y-189697450D03*
X327051150Y-189297450D03*
X327051150Y-188897450D03*
X327051150Y-188497450D03*
X327051150Y-188097450D03*
D46*
X328988650Y-189297450D03*
%TD*%
D27*
%TO.C,C12*%
X328194950Y-185088400D03*
X328194950Y-183188400D03*
%TD*%
%TO.C,C13*%
X325813850Y-185088400D03*
X325813850Y-183188400D03*
%TD*%
D52*
%TO.C,LED81*%
X387325600Y-207468500D03*
D53*
X388875600Y-206918500D03*
X388875600Y-208018500D03*
X385775600Y-208018500D03*
X385775600Y-206918500D03*
%TD*%
D52*
%TO.C,LED82*%
X368276800Y-188419700D03*
D53*
X369826800Y-187869700D03*
X369826800Y-188969700D03*
X366726800Y-188969700D03*
X366726800Y-187869700D03*
%TD*%
D52*
%TO.C,LED83*%
X368276800Y-207468500D03*
D53*
X369826800Y-206918500D03*
X369826800Y-208018500D03*
X366726800Y-208018500D03*
X366726800Y-206918500D03*
%TD*%
D52*
%TO.C,LED84*%
X349228000Y-207468500D03*
D53*
X350778000Y-206918500D03*
X350778000Y-208018500D03*
X347678000Y-208018500D03*
X347678000Y-206918500D03*
%TD*%
D52*
%TO.C,LED85*%
X246840700Y-207468500D03*
D53*
X248390700Y-206918500D03*
X248390700Y-208018500D03*
X245290700Y-208018500D03*
X245290700Y-206918500D03*
%TD*%
D52*
%TO.C,LED86*%
X270651700Y-207468500D03*
D53*
X272201700Y-206918500D03*
X272201700Y-208018500D03*
X269101700Y-208018500D03*
X269101700Y-206918500D03*
%TD*%
D52*
%TO.C,LED87*%
X294462700Y-207468500D03*
D53*
X296012700Y-206918500D03*
X296012700Y-208018500D03*
X292912700Y-208018500D03*
X292912700Y-206918500D03*
%TD*%
D52*
%TO.C,LED88*%
X318273700Y-207468500D03*
D53*
X319823700Y-206918500D03*
X319823700Y-208018500D03*
X316723700Y-208018500D03*
X316723700Y-206918500D03*
%TD*%
D52*
%TO.C,LED89*%
X175407700Y-207468500D03*
D53*
X176957700Y-206918500D03*
X176957700Y-208018500D03*
X173857700Y-208018500D03*
X173857700Y-206918500D03*
%TD*%
D52*
%TO.C,LED90*%
X103974700Y-207468500D03*
D53*
X105524700Y-206918500D03*
X105524700Y-208018500D03*
X102424700Y-208018500D03*
X102424700Y-206918500D03*
%TD*%
D22*
%TO.C,KD9*%
X242872200Y-99275100D03*
X242872200Y-95975100D03*
%TD*%
D52*
%TO.C,LED36*%
X139691200Y-150322100D03*
D53*
X141241200Y-149772100D03*
X141241200Y-150872100D03*
X138141200Y-150872100D03*
X138141200Y-149772100D03*
%TD*%
D52*
%TO.C,LED37*%
X158740000Y-150322100D03*
D53*
X160290000Y-149772100D03*
X160290000Y-150872100D03*
X157190000Y-150872100D03*
X157190000Y-149772100D03*
%TD*%
D52*
%TO.C,LED39*%
X196837600Y-150322100D03*
D53*
X198387600Y-149772100D03*
X198387600Y-150872100D03*
X195287600Y-150872100D03*
X195287600Y-149772100D03*
%TD*%
D52*
%TO.C,LED38*%
X177788800Y-150322100D03*
D53*
X179338800Y-149772100D03*
X179338800Y-150872100D03*
X176238800Y-150872100D03*
X176238800Y-149772100D03*
%TD*%
D52*
%TO.C,LED47*%
X368276800Y-150322100D03*
D53*
X369826800Y-149772100D03*
X369826800Y-150872100D03*
X366726800Y-150872100D03*
X366726800Y-149772100D03*
%TD*%
D52*
%TO.C,LED40*%
X215886400Y-150322100D03*
D53*
X217436400Y-149772100D03*
X217436400Y-150872100D03*
X214336400Y-150872100D03*
X214336400Y-149772100D03*
%TD*%
D52*
%TO.C,LED45*%
X315892600Y-150322100D03*
D53*
X317442600Y-149772100D03*
X317442600Y-150872100D03*
X314342600Y-150872100D03*
X314342600Y-149772100D03*
%TD*%
D52*
%TO.C,LED44*%
X292081600Y-150322100D03*
D53*
X293631600Y-149772100D03*
X293631600Y-150872100D03*
X290531600Y-150872100D03*
X290531600Y-149772100D03*
%TD*%
D52*
%TO.C,LED41*%
X234935200Y-150322100D03*
D53*
X236485200Y-149772100D03*
X236485200Y-150872100D03*
X233385200Y-150872100D03*
X233385200Y-149772100D03*
%TD*%
D52*
%TO.C,LED43*%
X273032800Y-150322100D03*
D53*
X274582800Y-149772100D03*
X274582800Y-150872100D03*
X271482800Y-150872100D03*
X271482800Y-149772100D03*
%TD*%
D52*
%TO.C,LED48*%
X387325600Y-150322100D03*
D53*
X388875600Y-149772100D03*
X388875600Y-150872100D03*
X385775600Y-150872100D03*
X385775600Y-149772100D03*
%TD*%
D52*
%TO.C,LED33*%
X82544800Y-150322100D03*
D53*
X84094800Y-149772100D03*
X84094800Y-150872100D03*
X80994800Y-150872100D03*
X80994800Y-149772100D03*
%TD*%
D52*
%TO.C,LED34*%
X101593600Y-150322100D03*
D53*
X103143600Y-149772100D03*
X103143600Y-150872100D03*
X100043600Y-150872100D03*
X100043600Y-149772100D03*
%TD*%
D52*
%TO.C,LED35*%
X120642400Y-150322100D03*
D53*
X122192400Y-149772100D03*
X122192400Y-150872100D03*
X119092400Y-150872100D03*
X119092400Y-149772100D03*
%TD*%
D52*
%TO.C,LED46*%
X349228000Y-150322100D03*
D53*
X350778000Y-149772100D03*
X350778000Y-150872100D03*
X347678000Y-150872100D03*
X347678000Y-149772100D03*
%TD*%
D52*
%TO.C,LED42*%
X253984000Y-150322100D03*
D53*
X255534000Y-149772100D03*
X255534000Y-150872100D03*
X252434000Y-150872100D03*
X252434000Y-149772100D03*
%TD*%
D27*
%TO.C,C22*%
X357165000Y-178738800D03*
X357165000Y-176838800D03*
%TD*%
D24*
%TO.C,RST1*%
X366689400Y-161914800D03*
%TD*%
%TO.C,COL15*%
X342084700Y-119848700D03*
%TD*%
D26*
%TO.C,FB1*%
X247903200Y-96037700D03*
X245778200Y-96037700D03*
%TD*%
D33*
%TO.C,J3*%
X238903700Y-108736900D03*
D34*
X236363700Y-108736900D03*
X233823700Y-108736900D03*
%TD*%
D35*
%TO.C,R2*%
X336131950Y-162589700D03*
X336131950Y-164414700D03*
%TD*%
D42*
%TO.C,D1*%
X338513050Y-164439700D03*
X338513050Y-162564700D03*
%TD*%
D43*
%TO.C,C1*%
X361770900Y-113499100D03*
X363670900Y-113499100D03*
%TD*%
%TO.C,C9*%
X330816600Y-193265950D03*
X332716600Y-193265950D03*
%TD*%
D35*
%TO.C,R15*%
X286922550Y-175685750D03*
X286922550Y-177510750D03*
%TD*%
%TO.C,R16*%
X330972900Y-183225900D03*
X330972900Y-185050900D03*
%TD*%
D56*
%TO.C,F1*%
X245043850Y-93656600D03*
X247843850Y-93656600D03*
%TD*%
D28*
%TO.C,C21*%
X354783900Y-180410450D03*
X354783900Y-182310450D03*
%TD*%
D35*
%TO.C,R1*%
X253190300Y-95918900D03*
X253190300Y-97743900D03*
%TD*%
D43*
%TO.C,C8*%
X287956800Y-185725800D03*
X289856800Y-185725800D03*
%TD*%
D42*
%TO.C,D5*%
X343672100Y-164439700D03*
X343672100Y-162564700D03*
%TD*%
D35*
%TO.C,R8*%
X341291000Y-162589700D03*
X341291000Y-164414700D03*
%TD*%
D22*
%TO.C,D6*%
X380182300Y-184994700D03*
X380182300Y-181694700D03*
%TD*%
D57*
%TO.C,U2*%
X347484300Y-155008900D03*
X348434300Y-155008900D03*
X349384300Y-155008900D03*
X349384300Y-157708900D03*
X348434300Y-157708900D03*
X347484300Y-157708900D03*
%TD*%
D22*
%TO.C,KD14-1*%
X376213800Y-99275100D03*
X376213800Y-95975100D03*
%TD*%
D58*
%TO.C,USB1*%
X252111800Y-83954250D03*
X246331800Y-83954250D03*
D59*
X245971800Y-85399250D03*
X246771800Y-85399250D03*
D60*
X247971800Y-85399250D03*
X248971800Y-85399250D03*
X249471800Y-85399250D03*
X250471800Y-85399250D03*
D59*
X251671800Y-85399250D03*
X252471800Y-85399250D03*
X252471800Y-85399250D03*
X251671800Y-85399250D03*
D60*
X250971800Y-85399250D03*
X249971800Y-85399250D03*
X248471800Y-85399250D03*
X247471800Y-85399250D03*
D59*
X246771800Y-85399250D03*
X245971800Y-85399250D03*
D61*
X253541800Y-84484250D03*
X244901800Y-84484250D03*
D62*
X244901800Y-80304250D03*
X253541800Y-80304250D03*
%TD*%
D22*
%TO.C,KD1-1*%
X80957400Y-99275100D03*
X80957400Y-95975100D03*
%TD*%
M02*
