%TF.GenerationSoftware,KiCad,Pcbnew,(5.1.10)-1*%
%TF.CreationDate,2022-01-16T21:07:38-05:00*%
%TF.ProjectId,custom_keyboard plate v2,63757374-6f6d-45f6-9b65-79626f617264,rev?*%
%TF.SameCoordinates,Original*%
%TF.FileFunction,Profile,NP*%
%FSLAX46Y46*%
G04 Gerber Fmt 4.6, Leading zero omitted, Abs format (unit mm)*
G04 Created by KiCad (PCBNEW (5.1.10)-1) date 2022-01-16 21:07:38*
%MOMM*%
%LPD*%
G01*
G04 APERTURE LIST*
%TA.AperFunction,Profile*%
%ADD10C,0.100000*%
%TD*%
G04 APERTURE END LIST*
D10*
X350250949Y-265252200D02*
G75*
G02*
X349750949Y-265752200I-500000J0D01*
G01*
X348750949Y-265752200D02*
G75*
G02*
X348250949Y-265252200I0J500000D01*
G01*
X349750949Y-251752200D02*
G75*
G02*
X350250949Y-252252200I0J-500000D01*
G01*
X348250949Y-252252200D02*
G75*
G02*
X348750949Y-251752200I500000J0D01*
G01*
X350250949Y-252252200D02*
X350250949Y-265252200D01*
X348250949Y-252252200D02*
X348250949Y-265252200D01*
X348750949Y-265752200D02*
X349750949Y-265752200D01*
X348750949Y-251752200D02*
X349750949Y-251752200D01*
X386750950Y-265252200D02*
G75*
G02*
X386250950Y-265752200I-500000J0D01*
G01*
X385250950Y-265752200D02*
G75*
G02*
X384750950Y-265252200I0J500000D01*
G01*
X386250950Y-251752200D02*
G75*
G02*
X386750950Y-252252200I0J-500000D01*
G01*
X384750950Y-252252200D02*
G75*
G02*
X385250950Y-251752200I500000J0D01*
G01*
X386750950Y-252252200D02*
X386750950Y-265252200D01*
X384750950Y-252252200D02*
X384750950Y-265252200D01*
X385250950Y-265752200D02*
X386250950Y-265752200D01*
X385250950Y-251752200D02*
X386250950Y-251752200D01*
X359062950Y-267252200D02*
G75*
G02*
X358562950Y-267752200I-500000J0D01*
G01*
X352562950Y-267752200D02*
G75*
G02*
X352062950Y-267252200I0J500000D01*
G01*
X358562950Y-252752200D02*
G75*
G02*
X359062950Y-253252200I0J-500000D01*
G01*
X352062950Y-253252200D02*
G75*
G02*
X352562950Y-252752200I500000J0D01*
G01*
X359062950Y-253252200D02*
X359062950Y-267252200D01*
X352062950Y-253252200D02*
X352062950Y-267252200D01*
X352562950Y-267752200D02*
X358562950Y-267752200D01*
X352562950Y-252752200D02*
X358562950Y-252752200D01*
X382938950Y-267252200D02*
G75*
G02*
X382438950Y-267752200I-500000J0D01*
G01*
X376438950Y-267752200D02*
G75*
G02*
X375938950Y-267252200I0J500000D01*
G01*
X382438950Y-252752200D02*
G75*
G02*
X382938950Y-253252200I0J-500000D01*
G01*
X375938950Y-253252200D02*
G75*
G02*
X376438950Y-252752200I500000J0D01*
G01*
X382938950Y-253252200D02*
X382938950Y-267252200D01*
X375938950Y-253252200D02*
X375938950Y-267252200D01*
X376438950Y-267752200D02*
X382438950Y-267752200D01*
X376438950Y-252752200D02*
X382438950Y-252752200D01*
X374500950Y-265252200D02*
G75*
G02*
X374000950Y-265752200I-500000J0D01*
G01*
X361000950Y-265752200D02*
G75*
G02*
X360500950Y-265252200I0J500000D01*
G01*
X374000950Y-251752200D02*
G75*
G02*
X374500950Y-252252200I0J-500000D01*
G01*
X360500950Y-252252200D02*
G75*
G02*
X361000950Y-251752200I500000J0D01*
G01*
X374500950Y-252252200D02*
X374500950Y-265252200D01*
X360500950Y-252252200D02*
X360500950Y-265252200D01*
X361000950Y-265752200D02*
X374000950Y-265752200D01*
X361000950Y-251752200D02*
X374000950Y-251752200D01*
X112125950Y-265252200D02*
G75*
G02*
X111625950Y-265752200I-500000J0D01*
G01*
X110625950Y-265752200D02*
G75*
G02*
X110125950Y-265252200I0J500000D01*
G01*
X111625950Y-251752200D02*
G75*
G02*
X112125950Y-252252200I0J-500000D01*
G01*
X110125950Y-252252200D02*
G75*
G02*
X110625950Y-251752200I500000J0D01*
G01*
X112125950Y-252252200D02*
X112125950Y-265252200D01*
X110125950Y-252252200D02*
X110125950Y-265252200D01*
X110625950Y-265752200D02*
X111625950Y-265752200D01*
X110625950Y-251752200D02*
X111625950Y-251752200D01*
X148625950Y-265252200D02*
G75*
G02*
X148125950Y-265752200I-500000J0D01*
G01*
X147125950Y-265752200D02*
G75*
G02*
X146625950Y-265252200I0J500000D01*
G01*
X148125950Y-251752200D02*
G75*
G02*
X148625950Y-252252200I0J-500000D01*
G01*
X146625950Y-252252200D02*
G75*
G02*
X147125950Y-251752200I500000J0D01*
G01*
X148625950Y-252252200D02*
X148625950Y-265252200D01*
X146625950Y-252252200D02*
X146625950Y-265252200D01*
X147125950Y-265752200D02*
X148125950Y-265752200D01*
X147125950Y-251752200D02*
X148125950Y-251752200D01*
X355013450Y-246202200D02*
G75*
G02*
X354513450Y-246702200I-500000J0D01*
G01*
X353513450Y-246702200D02*
G75*
G02*
X353013450Y-246202200I0J500000D01*
G01*
X354513450Y-232702200D02*
G75*
G02*
X355013450Y-233202200I0J-500000D01*
G01*
X353013450Y-233202200D02*
G75*
G02*
X353513450Y-232702200I500000J0D01*
G01*
X355013450Y-233202200D02*
X355013450Y-246202200D01*
X353013450Y-233202200D02*
X353013450Y-246202200D01*
X353513450Y-246702200D02*
X354513450Y-246702200D01*
X353513450Y-232702200D02*
X354513450Y-232702200D01*
X391513450Y-246202200D02*
G75*
G02*
X391013450Y-246702200I-500000J0D01*
G01*
X390013450Y-246702200D02*
G75*
G02*
X389513450Y-246202200I0J500000D01*
G01*
X391013450Y-232702200D02*
G75*
G02*
X391513450Y-233202200I0J-500000D01*
G01*
X389513450Y-233202200D02*
G75*
G02*
X390013450Y-232702200I500000J0D01*
G01*
X391513450Y-233202200D02*
X391513450Y-246202200D01*
X389513450Y-233202200D02*
X389513450Y-246202200D01*
X390013450Y-246702200D02*
X391013450Y-246702200D01*
X390013450Y-232702200D02*
X391013450Y-232702200D01*
X363825450Y-248202200D02*
G75*
G02*
X363325450Y-248702200I-500000J0D01*
G01*
X357325450Y-248702200D02*
G75*
G02*
X356825450Y-248202200I0J500000D01*
G01*
X363325450Y-233702200D02*
G75*
G02*
X363825450Y-234202200I0J-500000D01*
G01*
X356825450Y-234202200D02*
G75*
G02*
X357325450Y-233702200I500000J0D01*
G01*
X363825450Y-234202200D02*
X363825450Y-248202200D01*
X356825450Y-234202200D02*
X356825450Y-248202200D01*
X357325450Y-248702200D02*
X363325450Y-248702200D01*
X357325450Y-233702200D02*
X363325450Y-233702200D01*
X387701450Y-248202200D02*
G75*
G02*
X387201450Y-248702200I-500000J0D01*
G01*
X381201450Y-248702200D02*
G75*
G02*
X380701450Y-248202200I0J500000D01*
G01*
X387201450Y-233702200D02*
G75*
G02*
X387701450Y-234202200I0J-500000D01*
G01*
X380701450Y-234202200D02*
G75*
G02*
X381201450Y-233702200I500000J0D01*
G01*
X387701450Y-234202200D02*
X387701450Y-248202200D01*
X380701450Y-234202200D02*
X380701450Y-248202200D01*
X381201450Y-248702200D02*
X387201450Y-248702200D01*
X381201450Y-233702200D02*
X387201450Y-233702200D01*
X379263450Y-246202200D02*
G75*
G02*
X378763450Y-246702200I-500000J0D01*
G01*
X365763450Y-246702200D02*
G75*
G02*
X365263450Y-246202200I0J500000D01*
G01*
X378763450Y-232702200D02*
G75*
G02*
X379263450Y-233202200I0J-500000D01*
G01*
X365263450Y-233202200D02*
G75*
G02*
X365763450Y-232702200I500000J0D01*
G01*
X379263450Y-233202200D02*
X379263450Y-246202200D01*
X365263450Y-233202200D02*
X365263450Y-246202200D01*
X365763450Y-246702200D02*
X378763450Y-246702200D01*
X365763450Y-232702200D02*
X378763450Y-232702200D01*
X348434300Y-288906800D02*
X348434300Y-291287900D01*
X288113100Y-291287900D02*
G75*
G03*
X289700500Y-292875300I1587400J0D01*
G01*
X288113100Y-291287900D02*
X288113100Y-288906800D01*
X346846900Y-292875300D02*
X289700500Y-292875300D01*
X346846900Y-292875300D02*
G75*
G03*
X348434300Y-291287900I0J1587400D01*
G01*
X196043900Y-291287900D02*
G75*
G03*
X197631300Y-292875300I1587400J0D01*
G01*
X256365100Y-288906800D02*
X256365100Y-291287900D01*
X254777700Y-292875300D02*
X197631300Y-292875300D01*
X441297200Y-292875300D02*
G75*
G03*
X442884600Y-291287900I0J1587400D01*
G01*
X382563400Y-291287900D02*
X382563400Y-288906800D01*
X382563400Y-291287900D02*
G75*
G03*
X384150800Y-292875300I1587400J0D01*
G01*
X101593600Y-291287900D02*
G75*
G03*
X103181000Y-292875300I1587400J0D01*
G01*
X101593600Y-291287900D02*
X101593600Y-288906800D01*
X160327400Y-292875300D02*
G75*
G03*
X161914800Y-291287900I0J1587400D01*
G01*
X160327400Y-292875300D02*
X103181000Y-292875300D01*
X161914800Y-288906800D02*
X161914800Y-291287900D01*
X441297200Y-292875300D02*
X384150800Y-292875300D01*
X442884600Y-288906800D02*
X442884600Y-291287900D01*
X254777700Y-292875300D02*
G75*
G03*
X256365100Y-291287900I0J1587400D01*
G01*
X196043900Y-291287900D02*
X196043900Y-288906800D01*
X200806100Y-288613100D02*
G75*
G02*
X200306100Y-288113100I0J500000D01*
G01*
X343672100Y-288613100D02*
X292875300Y-288613100D01*
X157152600Y-288613100D02*
X106355800Y-288613100D01*
X157152600Y-287613100D02*
G75*
G02*
X157652600Y-288113100I0J-500000D01*
G01*
X344172100Y-288113100D02*
G75*
G02*
X343672100Y-288613100I-500000J0D01*
G01*
X386825600Y-288113100D02*
G75*
G02*
X387325600Y-287613100I500000J0D01*
G01*
X200306100Y-288113100D02*
G75*
G02*
X200806100Y-287613100I500000J0D01*
G01*
X387325600Y-288613100D02*
G75*
G02*
X386825600Y-288113100I0J500000D01*
G01*
X157652600Y-288113100D02*
G75*
G02*
X157152600Y-288613100I-500000J0D01*
G01*
X343672100Y-287613100D02*
G75*
G02*
X344172100Y-288113100I0J-500000D01*
G01*
X438122400Y-288613100D02*
X387325600Y-288613100D01*
X251602900Y-288613100D02*
X200806100Y-288613100D01*
X387325600Y-287613100D02*
X438122400Y-287613100D01*
X292875300Y-287613100D02*
X343672100Y-287613100D01*
X292875300Y-288613100D02*
G75*
G02*
X292375300Y-288113100I0J500000D01*
G01*
X292375300Y-288113100D02*
G75*
G02*
X292875300Y-287613100I500000J0D01*
G01*
X438622400Y-288113100D02*
G75*
G02*
X438122400Y-288613100I-500000J0D01*
G01*
X438122400Y-287613100D02*
G75*
G02*
X438622400Y-288113100I0J-500000D01*
G01*
X252102900Y-288113100D02*
G75*
G02*
X251602900Y-288613100I-500000J0D01*
G01*
X105855800Y-288113100D02*
G75*
G02*
X106355800Y-287613100I500000J0D01*
G01*
X106355800Y-287613100D02*
X157152600Y-287613100D01*
X106355800Y-288613100D02*
G75*
G02*
X105855800Y-288113100I0J500000D01*
G01*
X200806100Y-287613100D02*
X251602900Y-287613100D01*
X251602900Y-287613100D02*
G75*
G02*
X252102900Y-288113100I0J-500000D01*
G01*
X343672100Y-162208500D02*
G75*
G02*
X344172100Y-162708500I0J-500000D01*
G01*
X387325600Y-162208500D02*
X438122400Y-162208500D01*
X387325600Y-163208500D02*
G75*
G02*
X386825600Y-162708500I0J500000D01*
G01*
X344172100Y-162708500D02*
G75*
G02*
X343672100Y-163208500I-500000J0D01*
G01*
X386825600Y-162708500D02*
G75*
G02*
X387325600Y-162208500I500000J0D01*
G01*
X292875300Y-162208500D02*
X343672100Y-162208500D01*
X292375300Y-162708500D02*
G75*
G02*
X292875300Y-162208500I500000J0D01*
G01*
X438622400Y-162708500D02*
G75*
G02*
X438122400Y-163208500I-500000J0D01*
G01*
X438122400Y-163208500D02*
X387325600Y-163208500D01*
X438122400Y-162208500D02*
G75*
G02*
X438622400Y-162708500I0J-500000D01*
G01*
X343672100Y-163208500D02*
X292875300Y-163208500D01*
X292875300Y-163208500D02*
G75*
G02*
X292375300Y-162708500I0J500000D01*
G01*
X251602900Y-163208500D02*
X200806100Y-163208500D01*
X251602900Y-162208500D02*
G75*
G02*
X252102900Y-162708500I0J-500000D01*
G01*
X252102900Y-162708500D02*
G75*
G02*
X251602900Y-163208500I-500000J0D01*
G01*
X200306100Y-162708500D02*
G75*
G02*
X200806100Y-162208500I500000J0D01*
G01*
X200806100Y-162208500D02*
X251602900Y-162208500D01*
X200806100Y-163208500D02*
G75*
G02*
X200306100Y-162708500I0J500000D01*
G01*
X157152600Y-163208500D02*
X106355800Y-163208500D01*
X106355800Y-162208500D02*
X157152600Y-162208500D01*
X157652600Y-162708500D02*
G75*
G02*
X157152600Y-163208500I-500000J0D01*
G01*
X157152600Y-162208500D02*
G75*
G02*
X157652600Y-162708500I0J-500000D01*
G01*
X106355800Y-163208500D02*
G75*
G02*
X105855800Y-162708500I0J500000D01*
G01*
X105855800Y-162708500D02*
G75*
G02*
X106355800Y-162208500I500000J0D01*
G01*
X86513300Y-288113100D02*
X100799900Y-288113100D01*
X162708500Y-288113100D02*
X195250200Y-288113100D01*
X443678300Y-288113100D02*
X457964900Y-288113100D01*
X349228000Y-288113100D02*
X381769700Y-288113100D01*
X287319400Y-288113100D02*
X257158800Y-288113100D01*
X349228000Y-288113100D02*
G75*
G03*
X348434300Y-288906800I0J-793700D01*
G01*
X288113100Y-288906800D02*
G75*
G03*
X287319400Y-288113100I-793700J0D01*
G01*
X443678300Y-288113100D02*
G75*
G03*
X442884600Y-288906800I0J-793700D01*
G01*
X257158800Y-288113100D02*
G75*
G03*
X256365100Y-288906800I0J-793700D01*
G01*
X162708500Y-288113100D02*
G75*
G03*
X161914800Y-288906800I0J-793700D01*
G01*
X101593600Y-288906800D02*
G75*
G03*
X100799900Y-288113100I-793700J0D01*
G01*
X382563400Y-288906800D02*
G75*
G03*
X381769700Y-288113100I-793700J0D01*
G01*
X196043900Y-288906800D02*
G75*
G03*
X195250200Y-288113100I-793700J0D01*
G01*
X86513300Y-162708500D02*
X100799900Y-162708500D01*
X162708500Y-162708500D02*
X195250200Y-162708500D01*
X443678300Y-162708500D02*
X457964900Y-162708500D01*
X349228000Y-162708500D02*
X381769700Y-162708500D01*
X291913450Y-286802200D02*
X285913450Y-286802200D01*
X285913450Y-286802200D02*
G75*
G02*
X285413450Y-286302200I0J500000D01*
G01*
X292413450Y-286302200D02*
G75*
G02*
X291913450Y-286802200I-500000J0D01*
G01*
X185913450Y-286802200D02*
G75*
G02*
X185413450Y-286302200I0J500000D01*
G01*
X192413450Y-286302200D02*
G75*
G02*
X191913450Y-286802200I-500000J0D01*
G01*
X191913450Y-286802200D02*
X185913450Y-286802200D01*
X287319400Y-162708500D02*
X257158800Y-162708500D01*
X288113100Y-159533700D02*
G75*
G02*
X289700500Y-157946300I1587400J0D01*
G01*
X288113100Y-159533700D02*
X288113100Y-161914800D01*
X349228000Y-162708500D02*
G75*
G02*
X348434300Y-161914800I0J793700D01*
G01*
X348434300Y-161914800D02*
X348434300Y-159533700D01*
X346846900Y-157946300D02*
X289700500Y-157946300D01*
X346846900Y-157946300D02*
G75*
G02*
X348434300Y-159533700I0J-1587400D01*
G01*
X288113100Y-161914800D02*
G75*
G02*
X287319400Y-162708500I-793700J0D01*
G01*
X83338500Y-284938300D02*
X83338500Y-165883300D01*
X461139700Y-284938300D02*
X461139700Y-165883300D01*
X114453400Y-249743800D02*
G75*
G03*
X113953400Y-250243800I0J-500000D01*
G01*
X114453400Y-249743800D02*
X120453400Y-249743800D01*
X120953400Y-250243800D02*
G75*
G03*
X120453400Y-249743800I-500000J0D01*
G01*
X144829400Y-250243800D02*
X144829400Y-267248600D01*
X137829400Y-250243800D02*
X137829400Y-267248600D01*
X144829400Y-267248600D02*
G75*
G02*
X144329400Y-267748600I-500000J0D01*
G01*
X138329400Y-249743800D02*
G75*
G03*
X137829400Y-250243800I0J-500000D01*
G01*
X113953400Y-267248600D02*
X113953400Y-250243800D01*
X138329400Y-267748600D02*
G75*
G02*
X137829400Y-267248600I0J500000D01*
G01*
X114453400Y-267748600D02*
G75*
G02*
X113953400Y-267248600I0J500000D01*
G01*
X120953400Y-267248600D02*
G75*
G02*
X120453400Y-267748600I-500000J0D01*
G01*
X120953400Y-267248600D02*
X120953400Y-250243800D01*
X144829400Y-250243800D02*
G75*
G03*
X144329400Y-249743800I-500000J0D01*
G01*
X138329400Y-267748600D02*
X144329400Y-267748600D01*
X114453400Y-267748600D02*
X120453400Y-267748600D01*
X138329400Y-249743800D02*
X144329400Y-249743800D01*
X130018500Y-180027199D02*
G75*
G02*
X129518500Y-179527199I0J500000D01*
G01*
X143518500Y-179527199D02*
G75*
G02*
X143018500Y-180027199I-500000J0D01*
G01*
X130018500Y-180027199D02*
X143018500Y-180027199D01*
X130018500Y-166027200D02*
X143018500Y-166027200D01*
X129518500Y-166527200D02*
G75*
G02*
X130018500Y-166027200I500000J0D01*
G01*
X143518500Y-166527200D02*
X143518500Y-179527199D01*
X129518500Y-166527200D02*
X129518500Y-179527199D01*
X143018500Y-166027200D02*
G75*
G02*
X143518500Y-166527200I0J-500000D01*
G01*
X312172950Y-179232300D02*
G75*
G02*
X311672950Y-178732300I0J500000D01*
G01*
X311672950Y-178732300D02*
X311672950Y-167319701D01*
X309798950Y-176351200D02*
G75*
G02*
X309298950Y-176851200I-500000J0D01*
G01*
X311672950Y-167319701D02*
G75*
G02*
X312172950Y-166819701I500000J0D01*
G01*
X309798950Y-176351200D02*
X309798950Y-169700801D01*
X317735950Y-176351200D02*
G75*
G02*
X317235950Y-176851200I-500000J0D01*
G01*
X309298950Y-169200801D02*
G75*
G02*
X309798950Y-169700801I0J-500000D01*
G01*
X308204450Y-176851200D02*
X309298950Y-176851200D01*
X307704450Y-176351200D02*
X307704450Y-169700801D01*
X316141450Y-169200801D02*
X317235950Y-169200801D01*
X316141450Y-176851200D02*
X317235950Y-176851200D01*
X315641450Y-176351200D02*
X315641450Y-169700801D01*
X315641450Y-169700801D02*
G75*
G02*
X316141450Y-169200801I500000J0D01*
G01*
X312172950Y-166819701D02*
X313267450Y-166819701D01*
X316141450Y-176851200D02*
G75*
G02*
X315641450Y-176351200I0J500000D01*
G01*
X313767450Y-178732300D02*
G75*
G02*
X313267450Y-179232300I-500000J0D01*
G01*
X308204450Y-176851200D02*
G75*
G02*
X307704450Y-176351200I0J500000D01*
G01*
X312172950Y-179232300D02*
X313267450Y-179232300D01*
X307704450Y-169700801D02*
G75*
G02*
X308204450Y-169200801I500000J0D01*
G01*
X308204450Y-169200801D02*
X309298950Y-169200801D01*
X313267450Y-166819701D02*
G75*
G02*
X313767450Y-167319701I0J-500000D01*
G01*
X313767450Y-178732300D02*
X313767450Y-167319701D01*
X317235950Y-169200801D02*
G75*
G02*
X317735950Y-169700801I0J-500000D01*
G01*
X317735950Y-176351200D02*
X317735950Y-169700801D01*
X228047850Y-178732300D02*
G75*
G02*
X227547850Y-179232300I-500000J0D01*
G01*
X222484850Y-176851200D02*
X223579350Y-176851200D01*
X226453350Y-166819701D02*
X227547850Y-166819701D01*
X226453350Y-179232300D02*
G75*
G02*
X225953350Y-178732300I0J500000D01*
G01*
X221984850Y-176351200D02*
X221984850Y-169700801D01*
X221984850Y-169700801D02*
G75*
G02*
X222484850Y-169200801I500000J0D01*
G01*
X227547850Y-166819701D02*
G75*
G02*
X228047850Y-167319701I0J-500000D01*
G01*
X225953350Y-178732300D02*
X225953350Y-167319701D01*
X228047850Y-178732300D02*
X228047850Y-167319701D01*
X225953350Y-167319701D02*
G75*
G02*
X226453350Y-166819701I500000J0D01*
G01*
X224079350Y-176351200D02*
G75*
G02*
X223579350Y-176851200I-500000J0D01*
G01*
X222484850Y-169200801D02*
X223579350Y-169200801D01*
X222484850Y-176851200D02*
G75*
G02*
X221984850Y-176351200I0J500000D01*
G01*
X223579350Y-169200801D02*
G75*
G02*
X224079350Y-169700801I0J-500000D01*
G01*
X224079350Y-176351200D02*
X224079350Y-169700801D01*
X226453350Y-179232300D02*
X227547850Y-179232300D01*
X230421850Y-176851200D02*
X231516350Y-176851200D01*
X229921850Y-176351200D02*
X229921850Y-169700801D01*
X230421850Y-169200801D02*
X231516350Y-169200801D01*
X230421850Y-176851200D02*
G75*
G02*
X229921850Y-176351200I0J500000D01*
G01*
X231516350Y-169200801D02*
G75*
G02*
X232016350Y-169700801I0J-500000D01*
G01*
X232016350Y-176351200D02*
G75*
G02*
X231516350Y-176851200I-500000J0D01*
G01*
X229921850Y-169700801D02*
G75*
G02*
X230421850Y-169200801I500000J0D01*
G01*
X232016350Y-176351200D02*
X232016350Y-169700801D01*
X321697350Y-284794400D02*
X322791850Y-284794400D01*
X323291850Y-284294400D02*
G75*
G02*
X322791850Y-284794400I-500000J0D01*
G01*
X321697350Y-284794400D02*
G75*
G02*
X321197350Y-284294400I0J500000D01*
G01*
X321697350Y-270794401D02*
X322791850Y-270794401D01*
X322791850Y-270794401D02*
G75*
G02*
X323291850Y-271294401I0J-500000D01*
G01*
X323291850Y-284294400D02*
X323291850Y-271294401D01*
X321197350Y-284294400D02*
X321197350Y-271294401D01*
X321197350Y-271294401D02*
G75*
G02*
X321697350Y-270794401I500000J0D01*
G01*
X347102850Y-284294400D02*
X347102850Y-271294401D01*
X346602850Y-270794401D02*
G75*
G02*
X347102850Y-271294401I0J-500000D01*
G01*
X345508350Y-284794400D02*
X346602850Y-284794400D01*
X347102850Y-284294400D02*
G75*
G02*
X346602850Y-284794400I-500000J0D01*
G01*
X345008350Y-271294401D02*
G75*
G02*
X345508350Y-270794401I500000J0D01*
G01*
X345508350Y-284794400D02*
G75*
G02*
X345008350Y-284294400I0J500000D01*
G01*
X345008350Y-284294400D02*
X345008350Y-271294401D01*
X345508350Y-270794401D02*
X346602850Y-270794401D01*
X369319350Y-270794401D02*
X370413850Y-270794401D01*
X369319350Y-284794400D02*
G75*
G02*
X368819350Y-284294400I0J500000D01*
G01*
X368819350Y-284294400D02*
X368819350Y-271294401D01*
X370413850Y-270794401D02*
G75*
G02*
X370913850Y-271294401I0J-500000D01*
G01*
X369319350Y-284794400D02*
X370413850Y-284794400D01*
X370913850Y-284294400D02*
X370913850Y-271294401D01*
X368819350Y-271294401D02*
G75*
G02*
X369319350Y-270794401I500000J0D01*
G01*
X370913850Y-284294400D02*
G75*
G02*
X370413850Y-284794400I-500000J0D01*
G01*
X180425850Y-284294400D02*
G75*
G02*
X179925850Y-284794400I-500000J0D01*
G01*
X178331350Y-284294400D02*
X178331350Y-271294401D01*
X178831350Y-270794401D02*
X179925850Y-270794401D01*
X178831350Y-284794400D02*
X179925850Y-284794400D01*
X180425850Y-284294400D02*
X180425850Y-271294401D01*
X178831350Y-284794400D02*
G75*
G02*
X178331350Y-284294400I0J500000D01*
G01*
X179925850Y-270794401D02*
G75*
G02*
X180425850Y-271294401I0J-500000D01*
G01*
X178331350Y-271294401D02*
G75*
G02*
X178831350Y-270794401I500000J0D01*
G01*
X156614850Y-284294400D02*
G75*
G02*
X156114850Y-284794400I-500000J0D01*
G01*
X155020350Y-270794401D02*
X156114850Y-270794401D01*
X156614850Y-284294400D02*
X156614850Y-271294401D01*
X155020350Y-284794400D02*
X156114850Y-284794400D01*
X155020350Y-284794400D02*
G75*
G02*
X154520350Y-284294400I0J500000D01*
G01*
X156114850Y-270794401D02*
G75*
G02*
X156614850Y-271294401I0J-500000D01*
G01*
X154520350Y-271294401D02*
G75*
G02*
X155020350Y-270794401I500000J0D01*
G01*
X154520350Y-284294400D02*
X154520350Y-271294401D01*
X132303850Y-270794401D02*
G75*
G02*
X132803850Y-271294401I0J-500000D01*
G01*
X130709350Y-284294400D02*
X130709350Y-271294401D01*
X132803850Y-284294400D02*
G75*
G02*
X132303850Y-284794400I-500000J0D01*
G01*
X131209350Y-284794400D02*
X132303850Y-284794400D01*
X131209350Y-284794400D02*
G75*
G02*
X130709350Y-284294400I0J500000D01*
G01*
X131209350Y-270794401D02*
X132303850Y-270794401D01*
X132803850Y-284294400D02*
X132803850Y-271294401D01*
X130709350Y-271294401D02*
G75*
G02*
X131209350Y-270794401I500000J0D01*
G01*
X105017250Y-189550400D02*
X106111750Y-189550400D01*
X104517250Y-189050400D02*
X104517250Y-185574801D01*
X104517250Y-185574801D02*
G75*
G02*
X105017250Y-185074801I500000J0D01*
G01*
X106611750Y-189050400D02*
G75*
G02*
X106111750Y-189550400I-500000J0D01*
G01*
X105017250Y-185074801D02*
X106111750Y-185074801D01*
X105017250Y-189550400D02*
G75*
G02*
X104517250Y-189050400I0J500000D01*
G01*
X106111750Y-185074801D02*
G75*
G02*
X106611750Y-185574801I0J-500000D01*
G01*
X106611750Y-189050400D02*
X106611750Y-185574801D01*
X100659000Y-189050400D02*
G75*
G02*
X100159000Y-189550400I-500000J0D01*
G01*
X87159000Y-189550400D02*
G75*
G02*
X86659000Y-189050400I0J500000D01*
G01*
X100159000Y-185074801D02*
G75*
G02*
X100659000Y-185574801I0J-500000D01*
G01*
X86659000Y-185574801D02*
G75*
G02*
X87159000Y-185074801I500000J0D01*
G01*
X100659000Y-189050400D02*
X100659000Y-185574801D01*
X86659000Y-189050400D02*
X86659000Y-185574801D01*
X87159000Y-189550400D02*
X100159000Y-189550400D01*
X87159000Y-185074801D02*
X100159000Y-185074801D01*
X104517250Y-166526001D02*
G75*
G02*
X105017250Y-166026001I500000J0D01*
G01*
X106611750Y-179526000D02*
X106611750Y-166526001D01*
X106111750Y-166026001D02*
G75*
G02*
X106611750Y-166526001I0J-500000D01*
G01*
X104517250Y-179526000D02*
X104517250Y-166526001D01*
X106611750Y-179526000D02*
G75*
G02*
X106111750Y-180026000I-500000J0D01*
G01*
X105017250Y-180026000D02*
G75*
G02*
X104517250Y-179526000I0J500000D01*
G01*
X105017250Y-166026001D02*
X106111750Y-166026001D01*
X105017250Y-180026000D02*
X106111750Y-180026000D01*
X285913450Y-268787800D02*
G75*
G03*
X285413450Y-269287800I0J-500000D01*
G01*
X292413450Y-269287800D02*
G75*
G03*
X291913450Y-268787800I-500000J0D01*
G01*
X291913450Y-268787800D02*
X285913450Y-268787800D01*
X185913450Y-268787800D02*
G75*
G03*
X185413450Y-269287800I0J-500000D01*
G01*
X192413450Y-269287800D02*
G75*
G03*
X191913450Y-268787800I-500000J0D01*
G01*
X191913450Y-268787800D02*
X185913450Y-268787800D01*
X122891400Y-251748600D02*
X135891400Y-251748600D01*
X136391400Y-252248600D02*
X136391400Y-265248600D01*
X135891400Y-251748600D02*
G75*
G02*
X136391400Y-252248600I0J-500000D01*
G01*
X136391400Y-265248600D02*
G75*
G02*
X135891400Y-265748600I-500000J0D01*
G01*
X122891400Y-265748600D02*
G75*
G02*
X122391400Y-265248600I0J500000D01*
G01*
X122391400Y-252248600D02*
X122391400Y-265248600D01*
X122391400Y-252248600D02*
G75*
G02*
X122891400Y-251748600I500000J0D01*
G01*
X122891400Y-265748600D02*
X135891400Y-265748600D01*
X383582700Y-192597400D02*
X389582700Y-192597400D01*
X383582700Y-192597400D02*
G75*
G03*
X383082700Y-193097400I0J-500000D01*
G01*
X390082700Y-193097400D02*
G75*
G03*
X389582700Y-192597400I-500000J0D01*
G01*
X359706700Y-192597400D02*
X365706700Y-192597400D01*
X366206700Y-210102200D02*
X366206700Y-193097400D01*
X359206700Y-210102200D02*
X359206700Y-193097400D01*
X359706700Y-192597400D02*
G75*
G03*
X359206700Y-193097400I0J-500000D01*
G01*
X366206700Y-193097400D02*
G75*
G03*
X365706700Y-192597400I-500000J0D01*
G01*
X425294700Y-180029000D02*
X438294700Y-180029000D01*
X425294700Y-180029000D02*
G75*
G02*
X424794700Y-179529000I0J500000D01*
G01*
X424794700Y-166529000D02*
G75*
G02*
X425294700Y-166029000I500000J0D01*
G01*
X425294700Y-166029000D02*
X438294700Y-166029000D01*
X438794700Y-166529000D02*
X438794700Y-179529000D01*
X438794700Y-179529000D02*
G75*
G02*
X438294700Y-180029000I-500000J0D01*
G01*
X438294700Y-166029000D02*
G75*
G02*
X438794700Y-166529000I0J-500000D01*
G01*
X424794700Y-166529000D02*
X424794700Y-179529000D01*
X106611750Y-284294400D02*
X106611750Y-195099201D01*
X106111750Y-194599201D02*
G75*
G02*
X106611750Y-195099201I0J-500000D01*
G01*
X105017250Y-194599201D02*
X106111750Y-194599201D01*
X104517250Y-284294400D02*
X104517250Y-195099201D01*
X104517250Y-195099201D02*
G75*
G02*
X105017250Y-194599201I500000J0D01*
G01*
X105017250Y-284794400D02*
G75*
G02*
X104517250Y-284294400I0J500000D01*
G01*
X105017250Y-284794400D02*
X106111750Y-284794400D01*
X106611750Y-284294400D02*
G75*
G02*
X106111750Y-284794400I-500000J0D01*
G01*
X444344700Y-251753400D02*
X457344700Y-251753400D01*
X444344700Y-265753400D02*
G75*
G02*
X443844700Y-265253400I0J500000D01*
G01*
X443844700Y-252253400D02*
X443844700Y-265253400D01*
X457344700Y-251753400D02*
G75*
G02*
X457844700Y-252253400I0J-500000D01*
G01*
X457844700Y-265253400D02*
G75*
G02*
X457344700Y-265753400I-500000J0D01*
G01*
X457844700Y-252253400D02*
X457844700Y-265253400D01*
X444344700Y-265753400D02*
X457344700Y-265753400D01*
X443844700Y-252253400D02*
G75*
G02*
X444344700Y-251753400I500000J0D01*
G01*
X405744700Y-214151000D02*
G75*
G02*
X406244700Y-213651000I500000J0D01*
G01*
X444344700Y-227651000D02*
G75*
G02*
X443844700Y-227151000I0J500000D01*
G01*
X406244700Y-227651000D02*
G75*
G02*
X405744700Y-227151000I0J500000D01*
G01*
X419744700Y-227151000D02*
G75*
G02*
X419244700Y-227651000I-500000J0D01*
G01*
X444344700Y-227651000D02*
X457344700Y-227651000D01*
X425294700Y-227651000D02*
X438294700Y-227651000D01*
X425294700Y-227651000D02*
G75*
G02*
X424794700Y-227151000I0J500000D01*
G01*
X424794700Y-214151000D02*
G75*
G02*
X425294700Y-213651000I500000J0D01*
G01*
X425294700Y-213651000D02*
X438294700Y-213651000D01*
X443844700Y-214151000D02*
G75*
G02*
X444344700Y-213651000I500000J0D01*
G01*
X438794700Y-214151000D02*
X438794700Y-227151000D01*
X457344700Y-213651000D02*
G75*
G02*
X457844700Y-214151000I0J-500000D01*
G01*
X406244700Y-227651000D02*
X419244700Y-227651000D01*
X419744700Y-214151000D02*
X419744700Y-227151000D01*
X444344700Y-213651000D02*
X457344700Y-213651000D01*
X443844700Y-214151000D02*
X443844700Y-227151000D01*
X457844700Y-227151000D02*
G75*
G02*
X457344700Y-227651000I-500000J0D01*
G01*
X419244700Y-213651000D02*
G75*
G02*
X419744700Y-214151000I0J-500000D01*
G01*
X438794700Y-227151000D02*
G75*
G02*
X438294700Y-227651000I-500000J0D01*
G01*
X438294700Y-213651000D02*
G75*
G02*
X438794700Y-214151000I0J-500000D01*
G01*
X457844700Y-214151000D02*
X457844700Y-227151000D01*
X424794700Y-214151000D02*
X424794700Y-227151000D01*
X406244700Y-213651000D02*
X419244700Y-213651000D01*
X405744700Y-214151000D02*
X405744700Y-227151000D01*
X396702000Y-189550400D02*
X400177600Y-189550400D01*
X396702000Y-185074801D02*
X400177600Y-185074801D01*
X400677600Y-189050400D02*
X400677600Y-185574801D01*
X396202000Y-189050400D02*
X396202000Y-185574801D01*
X396702000Y-189550400D02*
G75*
G02*
X396202000Y-189050400I0J500000D01*
G01*
X400177600Y-185074801D02*
G75*
G02*
X400677600Y-185574801I0J-500000D01*
G01*
X396202000Y-185574801D02*
G75*
G02*
X396702000Y-185074801I500000J0D01*
G01*
X400677600Y-189050400D02*
G75*
G02*
X400177600Y-189550400I-500000J0D01*
G01*
X457821000Y-189048600D02*
X457821000Y-185573000D01*
X405723401Y-189048600D02*
X405723401Y-185573000D01*
X457321000Y-185073000D02*
X406223401Y-185073000D01*
X457321000Y-189548600D02*
X406223401Y-189548600D01*
X457821000Y-189048600D02*
G75*
G02*
X457321000Y-189548600I-500000J0D01*
G01*
X405723401Y-185573000D02*
G75*
G02*
X406223401Y-185073000I500000J0D01*
G01*
X406223401Y-189548600D02*
G75*
G02*
X405723401Y-189048600I0J500000D01*
G01*
X457321000Y-185073000D02*
G75*
G02*
X457821000Y-185573000I0J-500000D01*
G01*
X396702000Y-284794400D02*
X400177600Y-284794400D01*
X396702000Y-194599201D02*
X400177600Y-194599201D01*
X400677600Y-284294400D02*
X400677600Y-195099201D01*
X396202000Y-284294400D02*
X396202000Y-195099201D01*
X396702000Y-284794400D02*
G75*
G02*
X396202000Y-284294400I0J500000D01*
G01*
X400177600Y-194599201D02*
G75*
G02*
X400677600Y-195099201I0J-500000D01*
G01*
X396202000Y-195099201D02*
G75*
G02*
X396702000Y-194599201I500000J0D01*
G01*
X400677600Y-284294400D02*
G75*
G02*
X400177600Y-284794400I-500000J0D01*
G01*
X396202000Y-166526001D02*
G75*
G02*
X396702000Y-166026001I500000J0D01*
G01*
X396702000Y-166026001D02*
X400177600Y-166026001D01*
X400677600Y-179526000D02*
X400677600Y-166526001D01*
X396202000Y-179526000D02*
X396202000Y-166526001D01*
X400177600Y-166026001D02*
G75*
G02*
X400677600Y-166526001I0J-500000D01*
G01*
X396702000Y-180026000D02*
X400177600Y-180026000D01*
X396702000Y-180026000D02*
G75*
G02*
X396202000Y-179526000I0J500000D01*
G01*
X400677600Y-179526000D02*
G75*
G02*
X400177600Y-180026000I-500000J0D01*
G01*
X110468200Y-185577800D02*
X110468200Y-189053400D01*
X391151399Y-185577800D02*
X391151399Y-189053400D01*
X110468200Y-185577800D02*
G75*
G02*
X110968200Y-185077800I500000J0D01*
G01*
X110968200Y-185077800D02*
X390651399Y-185077800D01*
X110968200Y-189553400D02*
G75*
G02*
X110468200Y-189053400I0J500000D01*
G01*
X110968200Y-189553400D02*
X390651399Y-189553400D01*
X390651399Y-185077800D02*
G75*
G02*
X391151399Y-185577800I0J-500000D01*
G01*
X391151399Y-189053400D02*
G75*
G02*
X390651399Y-189553400I-500000J0D01*
G01*
X100657199Y-179527199D02*
G75*
G02*
X100157199Y-180027199I-500000J0D01*
G01*
X100657199Y-166527200D02*
X100657199Y-179527199D01*
X86657200Y-166527200D02*
X86657200Y-179527199D01*
X87157200Y-180027199D02*
X100157199Y-180027199D01*
X86657200Y-166527200D02*
G75*
G02*
X87157200Y-166027200I500000J0D01*
G01*
X87157200Y-166027200D02*
X100157199Y-166027200D01*
X87157200Y-180027199D02*
G75*
G02*
X86657200Y-179527199I0J500000D01*
G01*
X100157199Y-166027200D02*
G75*
G02*
X100657199Y-166527200I0J-500000D01*
G01*
X280906700Y-281307850D02*
X250239000Y-281307850D01*
X281406700Y-274807850D02*
X281406700Y-280807850D01*
X250239000Y-281307850D02*
G75*
G02*
X249739000Y-280807850I0J500000D01*
G01*
X281406700Y-280807850D02*
G75*
G02*
X280906700Y-281307850I-500000J0D01*
G01*
X249739000Y-274807850D02*
G75*
G02*
X250239000Y-274307850I500000J0D01*
G01*
X249739000Y-280807850D02*
X249739000Y-274807850D01*
X280906700Y-274307850D02*
G75*
G02*
X281406700Y-274807850I0J-500000D01*
G01*
X280906700Y-274307850D02*
X250239000Y-274307850D01*
X113350950Y-246704600D02*
X131113450Y-246702200D01*
X113350950Y-232704600D02*
X131113450Y-232702200D01*
X112850950Y-233204600D02*
G75*
G02*
X113350950Y-232704600I500000J0D01*
G01*
X112850950Y-233204600D02*
X112850950Y-246204600D01*
X113350950Y-246704600D02*
G75*
G02*
X112850950Y-246204600I0J500000D01*
G01*
X228068400Y-280782150D02*
G75*
G02*
X227568400Y-281282150I-500000J0D01*
G01*
X227568400Y-274282150D02*
G75*
G02*
X228068400Y-274782150I0J-500000D01*
G01*
X196400700Y-274782150D02*
G75*
G02*
X196900700Y-274282150I500000J0D01*
G01*
X196900700Y-281282150D02*
G75*
G02*
X196400700Y-280782150I0J500000D01*
G01*
X196900700Y-281282150D02*
X227568400Y-281282150D01*
X196400700Y-280782150D02*
X196400700Y-274782150D01*
X196900700Y-274282150D02*
X227568400Y-274282150D01*
X228068400Y-274782150D02*
X228068400Y-280782150D01*
X457844700Y-284302200D02*
G75*
G02*
X457344700Y-284802200I-500000J0D01*
G01*
X444344700Y-284802200D02*
G75*
G02*
X443844700Y-284302200I0J500000D01*
G01*
X457344700Y-270802200D02*
G75*
G02*
X457844700Y-271302200I0J-500000D01*
G01*
X443844700Y-271302200D02*
G75*
G02*
X444344700Y-270802200I500000J0D01*
G01*
X457844700Y-271302200D02*
X457844700Y-284302200D01*
X443844700Y-271302200D02*
X443844700Y-284302200D01*
X444344700Y-284802200D02*
X457344700Y-284802200D01*
X444344700Y-270802200D02*
X457344700Y-270802200D01*
X438794700Y-284302200D02*
G75*
G02*
X438294700Y-284802200I-500000J0D01*
G01*
X425294700Y-284802200D02*
G75*
G02*
X424794700Y-284302200I0J500000D01*
G01*
X438294700Y-270802200D02*
G75*
G02*
X438794700Y-271302200I0J-500000D01*
G01*
X424794700Y-271302200D02*
G75*
G02*
X425294700Y-270802200I500000J0D01*
G01*
X438794700Y-271302200D02*
X438794700Y-284302200D01*
X424794700Y-271302200D02*
X424794700Y-284302200D01*
X425294700Y-284802200D02*
X438294700Y-284802200D01*
X425294700Y-270802200D02*
X438294700Y-270802200D01*
X419744700Y-284302200D02*
G75*
G02*
X419244700Y-284802200I-500000J0D01*
G01*
X406244700Y-284802200D02*
G75*
G02*
X405744700Y-284302200I0J500000D01*
G01*
X419244700Y-270802200D02*
G75*
G02*
X419744700Y-271302200I0J-500000D01*
G01*
X405744700Y-271302200D02*
G75*
G02*
X406244700Y-270802200I500000J0D01*
G01*
X419744700Y-271302200D02*
X419744700Y-284302200D01*
X405744700Y-271302200D02*
X405744700Y-284302200D01*
X406244700Y-284802200D02*
X419244700Y-284802200D01*
X406244700Y-270802200D02*
X419244700Y-270802200D01*
X388788450Y-284302200D02*
G75*
G02*
X388288450Y-284802200I-500000J0D01*
G01*
X375288450Y-284802200D02*
G75*
G02*
X374788450Y-284302200I0J500000D01*
G01*
X388288450Y-270802200D02*
G75*
G02*
X388788450Y-271302200I0J-500000D01*
G01*
X374788450Y-271302200D02*
G75*
G02*
X375288450Y-270802200I500000J0D01*
G01*
X388788450Y-271302200D02*
X388788450Y-284302200D01*
X374788450Y-271302200D02*
X374788450Y-284302200D01*
X375288450Y-284802200D02*
X388288450Y-284802200D01*
X375288450Y-270802200D02*
X388288450Y-270802200D01*
X364975950Y-284302200D02*
G75*
G02*
X364475950Y-284802200I-500000J0D01*
G01*
X351475950Y-284802200D02*
G75*
G02*
X350975950Y-284302200I0J500000D01*
G01*
X364475950Y-270802200D02*
G75*
G02*
X364975950Y-271302200I0J-500000D01*
G01*
X350975950Y-271302200D02*
G75*
G02*
X351475950Y-270802200I500000J0D01*
G01*
X364975950Y-271302200D02*
X364975950Y-284302200D01*
X350975950Y-271302200D02*
X350975950Y-284302200D01*
X351475950Y-284802200D02*
X364475950Y-284802200D01*
X351475950Y-270802200D02*
X364475950Y-270802200D01*
X341163450Y-284302200D02*
G75*
G02*
X340663450Y-284802200I-500000J0D01*
G01*
X327663450Y-284802200D02*
G75*
G02*
X327163450Y-284302200I0J500000D01*
G01*
X340663450Y-270802200D02*
G75*
G02*
X341163450Y-271302200I0J-500000D01*
G01*
X327163450Y-271302200D02*
G75*
G02*
X327663450Y-270802200I500000J0D01*
G01*
X341163450Y-271302200D02*
X341163450Y-284302200D01*
X327163450Y-271302200D02*
X327163450Y-284302200D01*
X327663450Y-284802200D02*
X340663450Y-284802200D01*
X327663450Y-270802200D02*
X340663450Y-270802200D01*
X317350950Y-284302200D02*
G75*
G02*
X316850950Y-284802200I-500000J0D01*
G01*
X303850950Y-284802200D02*
G75*
G02*
X303350950Y-284302200I0J500000D01*
G01*
X316850950Y-270802200D02*
G75*
G02*
X317350950Y-271302200I0J-500000D01*
G01*
X303350950Y-271302200D02*
G75*
G02*
X303850950Y-270802200I500000J0D01*
G01*
X317350950Y-271302200D02*
X317350950Y-284302200D01*
X303350950Y-271302200D02*
X303350950Y-284302200D01*
X303850950Y-284802200D02*
X316850950Y-284802200D01*
X303850950Y-270802200D02*
X316850950Y-270802200D01*
X192413450Y-269287800D02*
X192413450Y-286302200D01*
X185413450Y-269287800D02*
X185413450Y-286302200D01*
X292413450Y-269287800D02*
X292413450Y-286302200D01*
X285413450Y-269287800D02*
X285413450Y-286302200D01*
X245913450Y-284302200D02*
G75*
G02*
X245413450Y-284802200I-500000J0D01*
G01*
X232413450Y-284802200D02*
G75*
G02*
X231913450Y-284302200I0J500000D01*
G01*
X245413450Y-270802200D02*
G75*
G02*
X245913450Y-271302200I0J-500000D01*
G01*
X231913450Y-271302200D02*
G75*
G02*
X232413450Y-270802200I500000J0D01*
G01*
X245913450Y-271302200D02*
X245913450Y-284302200D01*
X231913450Y-271302200D02*
X231913450Y-284302200D01*
X232413450Y-284802200D02*
X245413450Y-284802200D01*
X232413450Y-270802200D02*
X245413450Y-270802200D01*
X174475950Y-284302200D02*
G75*
G02*
X173975950Y-284802200I-500000J0D01*
G01*
X160975950Y-284802200D02*
G75*
G02*
X160475950Y-284302200I0J500000D01*
G01*
X173975950Y-270802200D02*
G75*
G02*
X174475950Y-271302200I0J-500000D01*
G01*
X160475950Y-271302200D02*
G75*
G02*
X160975950Y-270802200I500000J0D01*
G01*
X174475950Y-271302200D02*
X174475950Y-284302200D01*
X160475950Y-271302200D02*
X160475950Y-284302200D01*
X160975950Y-284802200D02*
X173975950Y-284802200D01*
X160975950Y-270802200D02*
X173975950Y-270802200D01*
X150663450Y-284302200D02*
G75*
G02*
X150163450Y-284802200I-500000J0D01*
G01*
X137163450Y-284802200D02*
G75*
G02*
X136663450Y-284302200I0J500000D01*
G01*
X150163450Y-270802200D02*
G75*
G02*
X150663450Y-271302200I0J-500000D01*
G01*
X136663450Y-271302200D02*
G75*
G02*
X137163450Y-270802200I500000J0D01*
G01*
X150663450Y-271302200D02*
X150663450Y-284302200D01*
X136663450Y-271302200D02*
X136663450Y-284302200D01*
X137163450Y-284802200D02*
X150163450Y-284802200D01*
X137163450Y-270802200D02*
X150163450Y-270802200D01*
X126850950Y-284302200D02*
G75*
G02*
X126350950Y-284802200I-500000J0D01*
G01*
X113350950Y-284802200D02*
G75*
G02*
X112850950Y-284302200I0J500000D01*
G01*
X126350950Y-270802200D02*
G75*
G02*
X126850950Y-271302200I0J-500000D01*
G01*
X112850950Y-271302200D02*
G75*
G02*
X113350950Y-270802200I500000J0D01*
G01*
X126850950Y-271302200D02*
X126850950Y-284302200D01*
X112850950Y-271302200D02*
X112850950Y-284302200D01*
X113350950Y-284802200D02*
X126350950Y-284802200D01*
X113350950Y-270802200D02*
X126350950Y-270802200D01*
X100657199Y-284302200D02*
G75*
G02*
X100157199Y-284802200I-500000J0D01*
G01*
X87157200Y-284802200D02*
G75*
G02*
X86657200Y-284302200I0J500000D01*
G01*
X100157199Y-270802200D02*
G75*
G02*
X100657199Y-271302200I0J-500000D01*
G01*
X86657200Y-271302200D02*
G75*
G02*
X87157200Y-270802200I500000J0D01*
G01*
X100657199Y-271302200D02*
X100657199Y-284302200D01*
X86657200Y-271302200D02*
X86657200Y-284302200D01*
X87157200Y-284802200D02*
X100157199Y-284802200D01*
X87157200Y-270802200D02*
X100157199Y-270802200D01*
X438794700Y-265252200D02*
G75*
G02*
X438294700Y-265752200I-500000J0D01*
G01*
X425294700Y-265752200D02*
G75*
G02*
X424794700Y-265252200I0J500000D01*
G01*
X438294700Y-251752200D02*
G75*
G02*
X438794700Y-252252200I0J-500000D01*
G01*
X424794700Y-252252200D02*
G75*
G02*
X425294700Y-251752200I500000J0D01*
G01*
X438794700Y-252252200D02*
X438794700Y-265252200D01*
X424794700Y-252252200D02*
X424794700Y-265252200D01*
X425294700Y-265752200D02*
X438294700Y-265752200D01*
X425294700Y-251752200D02*
X438294700Y-251752200D01*
X338782200Y-265252200D02*
G75*
G02*
X338282200Y-265752200I-500000J0D01*
G01*
X325282200Y-265752200D02*
G75*
G02*
X324782200Y-265252200I0J500000D01*
G01*
X338282200Y-251752200D02*
G75*
G02*
X338782200Y-252252200I0J-500000D01*
G01*
X324782200Y-252252200D02*
G75*
G02*
X325282200Y-251752200I500000J0D01*
G01*
X338782200Y-252252200D02*
X338782200Y-265252200D01*
X324782200Y-252252200D02*
X324782200Y-265252200D01*
X325282200Y-265752200D02*
X338282200Y-265752200D01*
X325282200Y-251752200D02*
X338282200Y-251752200D01*
X319732200Y-265252200D02*
G75*
G02*
X319232200Y-265752200I-500000J0D01*
G01*
X306232200Y-265752200D02*
G75*
G02*
X305732200Y-265252200I0J500000D01*
G01*
X319232200Y-251752200D02*
G75*
G02*
X319732200Y-252252200I0J-500000D01*
G01*
X305732200Y-252252200D02*
G75*
G02*
X306232200Y-251752200I500000J0D01*
G01*
X319732200Y-252252200D02*
X319732200Y-265252200D01*
X305732200Y-252252200D02*
X305732200Y-265252200D01*
X306232200Y-265752200D02*
X319232200Y-265752200D01*
X306232200Y-251752200D02*
X319232200Y-251752200D01*
X300682200Y-265252200D02*
G75*
G02*
X300182200Y-265752200I-500000J0D01*
G01*
X287182200Y-265752200D02*
G75*
G02*
X286682200Y-265252200I0J500000D01*
G01*
X300182200Y-251752200D02*
G75*
G02*
X300682200Y-252252200I0J-500000D01*
G01*
X286682200Y-252252200D02*
G75*
G02*
X287182200Y-251752200I500000J0D01*
G01*
X300682200Y-252252200D02*
X300682200Y-265252200D01*
X286682200Y-252252200D02*
X286682200Y-265252200D01*
X287182200Y-265752200D02*
X300182200Y-265752200D01*
X287182200Y-251752200D02*
X300182200Y-251752200D01*
X281632200Y-265252200D02*
G75*
G02*
X281132200Y-265752200I-500000J0D01*
G01*
X268132200Y-265752200D02*
G75*
G02*
X267632200Y-265252200I0J500000D01*
G01*
X281132200Y-251752200D02*
G75*
G02*
X281632200Y-252252200I0J-500000D01*
G01*
X267632200Y-252252200D02*
G75*
G02*
X268132200Y-251752200I500000J0D01*
G01*
X281632200Y-252252200D02*
X281632200Y-265252200D01*
X267632200Y-252252200D02*
X267632200Y-265252200D01*
X268132200Y-265752200D02*
X281132200Y-265752200D01*
X268132200Y-251752200D02*
X281132200Y-251752200D01*
X262582200Y-265252200D02*
G75*
G02*
X262082200Y-265752200I-500000J0D01*
G01*
X249082200Y-265752200D02*
G75*
G02*
X248582200Y-265252200I0J500000D01*
G01*
X262082200Y-251752200D02*
G75*
G02*
X262582200Y-252252200I0J-500000D01*
G01*
X248582200Y-252252200D02*
G75*
G02*
X249082200Y-251752200I500000J0D01*
G01*
X262582200Y-252252200D02*
X262582200Y-265252200D01*
X248582200Y-252252200D02*
X248582200Y-265252200D01*
X249082200Y-265752200D02*
X262082200Y-265752200D01*
X249082200Y-251752200D02*
X262082200Y-251752200D01*
X243532200Y-265252200D02*
G75*
G02*
X243032200Y-265752200I-500000J0D01*
G01*
X230032200Y-265752200D02*
G75*
G02*
X229532200Y-265252200I0J500000D01*
G01*
X243032200Y-251752200D02*
G75*
G02*
X243532200Y-252252200I0J-500000D01*
G01*
X229532200Y-252252200D02*
G75*
G02*
X230032200Y-251752200I500000J0D01*
G01*
X243532200Y-252252200D02*
X243532200Y-265252200D01*
X229532200Y-252252200D02*
X229532200Y-265252200D01*
X230032200Y-265752200D02*
X243032200Y-265752200D01*
X230032200Y-251752200D02*
X243032200Y-251752200D01*
X224482200Y-265252200D02*
G75*
G02*
X223982200Y-265752200I-500000J0D01*
G01*
X210982200Y-265752200D02*
G75*
G02*
X210482200Y-265252200I0J500000D01*
G01*
X223982200Y-251752200D02*
G75*
G02*
X224482200Y-252252200I0J-500000D01*
G01*
X210482200Y-252252200D02*
G75*
G02*
X210982200Y-251752200I500000J0D01*
G01*
X224482200Y-252252200D02*
X224482200Y-265252200D01*
X210482200Y-252252200D02*
X210482200Y-265252200D01*
X210982200Y-265752200D02*
X223982200Y-265752200D01*
X210982200Y-251752200D02*
X223982200Y-251752200D01*
X205432200Y-265252200D02*
G75*
G02*
X204932200Y-265752200I-500000J0D01*
G01*
X191932200Y-265752200D02*
G75*
G02*
X191432200Y-265252200I0J500000D01*
G01*
X204932200Y-251752200D02*
G75*
G02*
X205432200Y-252252200I0J-500000D01*
G01*
X191432200Y-252252200D02*
G75*
G02*
X191932200Y-251752200I500000J0D01*
G01*
X205432200Y-252252200D02*
X205432200Y-265252200D01*
X191432200Y-252252200D02*
X191432200Y-265252200D01*
X191932200Y-265752200D02*
X204932200Y-265752200D01*
X191932200Y-251752200D02*
X204932200Y-251752200D01*
X186382200Y-265252200D02*
G75*
G02*
X185882200Y-265752200I-500000J0D01*
G01*
X172882200Y-265752200D02*
G75*
G02*
X172382200Y-265252200I0J500000D01*
G01*
X185882200Y-251752200D02*
G75*
G02*
X186382200Y-252252200I0J-500000D01*
G01*
X172382200Y-252252200D02*
G75*
G02*
X172882200Y-251752200I500000J0D01*
G01*
X186382200Y-252252200D02*
X186382200Y-265252200D01*
X172382200Y-252252200D02*
X172382200Y-265252200D01*
X172882200Y-265752200D02*
X185882200Y-265752200D01*
X172882200Y-251752200D02*
X185882200Y-251752200D01*
X167332200Y-265252200D02*
G75*
G02*
X166832200Y-265752200I-500000J0D01*
G01*
X153832200Y-265752200D02*
G75*
G02*
X153332200Y-265252200I0J500000D01*
G01*
X166832200Y-251752200D02*
G75*
G02*
X167332200Y-252252200I0J-500000D01*
G01*
X153332200Y-252252200D02*
G75*
G02*
X153832200Y-251752200I500000J0D01*
G01*
X167332200Y-252252200D02*
X167332200Y-265252200D01*
X153332200Y-252252200D02*
X153332200Y-265252200D01*
X153832200Y-265752200D02*
X166832200Y-265752200D01*
X153832200Y-251752200D02*
X166832200Y-251752200D01*
X100657199Y-265252200D02*
G75*
G02*
X100157199Y-265752200I-500000J0D01*
G01*
X87157200Y-265752200D02*
G75*
G02*
X86657200Y-265252200I0J500000D01*
G01*
X100157199Y-251752200D02*
G75*
G02*
X100657199Y-252252200I0J-500000D01*
G01*
X86657200Y-252252200D02*
G75*
G02*
X87157200Y-251752200I500000J0D01*
G01*
X100657199Y-252252200D02*
X100657199Y-265252200D01*
X86657200Y-252252200D02*
X86657200Y-265252200D01*
X87157200Y-265752200D02*
X100157199Y-265752200D01*
X87157200Y-251752200D02*
X100157199Y-251752200D01*
X348307200Y-246202200D02*
G75*
G02*
X347807200Y-246702200I-500000J0D01*
G01*
X334807200Y-246702200D02*
G75*
G02*
X334307200Y-246202200I0J500000D01*
G01*
X347807200Y-232702200D02*
G75*
G02*
X348307200Y-233202200I0J-500000D01*
G01*
X334307200Y-233202200D02*
G75*
G02*
X334807200Y-232702200I500000J0D01*
G01*
X348307200Y-233202200D02*
X348307200Y-246202200D01*
X334307200Y-233202200D02*
X334307200Y-246202200D01*
X334807200Y-246702200D02*
X347807200Y-246702200D01*
X334807200Y-232702200D02*
X347807200Y-232702200D01*
X329257200Y-246202200D02*
G75*
G02*
X328757200Y-246702200I-500000J0D01*
G01*
X315757200Y-246702200D02*
G75*
G02*
X315257200Y-246202200I0J500000D01*
G01*
X328757200Y-232702200D02*
G75*
G02*
X329257200Y-233202200I0J-500000D01*
G01*
X315257200Y-233202200D02*
G75*
G02*
X315757200Y-232702200I500000J0D01*
G01*
X329257200Y-233202200D02*
X329257200Y-246202200D01*
X315257200Y-233202200D02*
X315257200Y-246202200D01*
X315757200Y-246702200D02*
X328757200Y-246702200D01*
X315757200Y-232702200D02*
X328757200Y-232702200D01*
X310207200Y-246202200D02*
G75*
G02*
X309707200Y-246702200I-500000J0D01*
G01*
X296707200Y-246702200D02*
G75*
G02*
X296207200Y-246202200I0J500000D01*
G01*
X309707200Y-232702200D02*
G75*
G02*
X310207200Y-233202200I0J-500000D01*
G01*
X296207200Y-233202200D02*
G75*
G02*
X296707200Y-232702200I500000J0D01*
G01*
X310207200Y-233202200D02*
X310207200Y-246202200D01*
X296207200Y-233202200D02*
X296207200Y-246202200D01*
X296707200Y-246702200D02*
X309707200Y-246702200D01*
X296707200Y-232702200D02*
X309707200Y-232702200D01*
X291157200Y-246202200D02*
G75*
G02*
X290657200Y-246702200I-500000J0D01*
G01*
X277657200Y-246702200D02*
G75*
G02*
X277157200Y-246202200I0J500000D01*
G01*
X290657200Y-232702200D02*
G75*
G02*
X291157200Y-233202200I0J-500000D01*
G01*
X277157200Y-233202200D02*
G75*
G02*
X277657200Y-232702200I500000J0D01*
G01*
X291157200Y-233202200D02*
X291157200Y-246202200D01*
X277157200Y-233202200D02*
X277157200Y-246202200D01*
X277657200Y-246702200D02*
X290657200Y-246702200D01*
X277657200Y-232702200D02*
X290657200Y-232702200D01*
X272107200Y-246202200D02*
G75*
G02*
X271607200Y-246702200I-500000J0D01*
G01*
X258607200Y-246702200D02*
G75*
G02*
X258107200Y-246202200I0J500000D01*
G01*
X271607200Y-232702200D02*
G75*
G02*
X272107200Y-233202200I0J-500000D01*
G01*
X258107200Y-233202200D02*
G75*
G02*
X258607200Y-232702200I500000J0D01*
G01*
X272107200Y-233202200D02*
X272107200Y-246202200D01*
X258107200Y-233202200D02*
X258107200Y-246202200D01*
X258607200Y-246702200D02*
X271607200Y-246702200D01*
X258607200Y-232702200D02*
X271607200Y-232702200D01*
X253057200Y-246202200D02*
G75*
G02*
X252557200Y-246702200I-500000J0D01*
G01*
X239557200Y-246702200D02*
G75*
G02*
X239057200Y-246202200I0J500000D01*
G01*
X252557200Y-232702200D02*
G75*
G02*
X253057200Y-233202200I0J-500000D01*
G01*
X239057200Y-233202200D02*
G75*
G02*
X239557200Y-232702200I500000J0D01*
G01*
X253057200Y-233202200D02*
X253057200Y-246202200D01*
X239057200Y-233202200D02*
X239057200Y-246202200D01*
X239557200Y-246702200D02*
X252557200Y-246702200D01*
X239557200Y-232702200D02*
X252557200Y-232702200D01*
X234007200Y-246202200D02*
G75*
G02*
X233507200Y-246702200I-500000J0D01*
G01*
X220507200Y-246702200D02*
G75*
G02*
X220007200Y-246202200I0J500000D01*
G01*
X233507200Y-232702200D02*
G75*
G02*
X234007200Y-233202200I0J-500000D01*
G01*
X220007200Y-233202200D02*
G75*
G02*
X220507200Y-232702200I500000J0D01*
G01*
X234007200Y-233202200D02*
X234007200Y-246202200D01*
X220007200Y-233202200D02*
X220007200Y-246202200D01*
X220507200Y-246702200D02*
X233507200Y-246702200D01*
X220507200Y-232702200D02*
X233507200Y-232702200D01*
X214957199Y-246202200D02*
G75*
G02*
X214457199Y-246702200I-500000J0D01*
G01*
X201457200Y-246702200D02*
G75*
G02*
X200957200Y-246202200I0J500000D01*
G01*
X214457199Y-232702200D02*
G75*
G02*
X214957199Y-233202200I0J-500000D01*
G01*
X200957200Y-233202200D02*
G75*
G02*
X201457200Y-232702200I500000J0D01*
G01*
X214957199Y-233202200D02*
X214957199Y-246202200D01*
X200957200Y-233202200D02*
X200957200Y-246202200D01*
X201457200Y-246702200D02*
X214457199Y-246702200D01*
X201457200Y-232702200D02*
X214457199Y-232702200D01*
X195907200Y-246202200D02*
G75*
G02*
X195407200Y-246702200I-500000J0D01*
G01*
X182407200Y-246702200D02*
G75*
G02*
X181907200Y-246202200I0J500000D01*
G01*
X195407200Y-232702200D02*
G75*
G02*
X195907200Y-233202200I0J-500000D01*
G01*
X181907200Y-233202200D02*
G75*
G02*
X182407200Y-232702200I500000J0D01*
G01*
X195907200Y-233202200D02*
X195907200Y-246202200D01*
X181907200Y-233202200D02*
X181907200Y-246202200D01*
X182407200Y-246702200D02*
X195407200Y-246702200D01*
X182407200Y-232702200D02*
X195407200Y-232702200D01*
X176857200Y-246202200D02*
G75*
G02*
X176357200Y-246702200I-500000J0D01*
G01*
X163357200Y-246702200D02*
G75*
G02*
X162857200Y-246202200I0J500000D01*
G01*
X176357200Y-232702200D02*
G75*
G02*
X176857200Y-233202200I0J-500000D01*
G01*
X162857200Y-233202200D02*
G75*
G02*
X163357200Y-232702200I500000J0D01*
G01*
X176857200Y-233202200D02*
X176857200Y-246202200D01*
X162857200Y-233202200D02*
X162857200Y-246202200D01*
X163357200Y-246702200D02*
X176357200Y-246702200D01*
X163357200Y-232702200D02*
X176357200Y-232702200D01*
X157807200Y-246202200D02*
G75*
G02*
X157307200Y-246702200I-500000J0D01*
G01*
X144307200Y-246702200D02*
G75*
G02*
X143807200Y-246202200I0J500000D01*
G01*
X157307200Y-232702200D02*
G75*
G02*
X157807200Y-233202200I0J-500000D01*
G01*
X143807200Y-233202200D02*
G75*
G02*
X144307200Y-232702200I500000J0D01*
G01*
X157807200Y-233202200D02*
X157807200Y-246202200D01*
X143807200Y-233202200D02*
X143807200Y-246202200D01*
X144307200Y-246702200D02*
X157307200Y-246702200D01*
X144307200Y-232702200D02*
X157307200Y-232702200D01*
X137213450Y-246202200D02*
G75*
G02*
X136713450Y-246702200I-500000J0D01*
G01*
X135713450Y-246702200D02*
G75*
G02*
X135213450Y-246202200I0J500000D01*
G01*
X136713450Y-232702200D02*
G75*
G02*
X137213450Y-233202200I0J-500000D01*
G01*
X135213450Y-233202200D02*
G75*
G02*
X135713450Y-232702200I500000J0D01*
G01*
X137213450Y-233202200D02*
X137213450Y-246202200D01*
X135213450Y-233202200D02*
X135213450Y-246202200D01*
X135713450Y-246702200D02*
X136713450Y-246702200D01*
X135713450Y-232702200D02*
X136713450Y-232702200D01*
X131613450Y-246202200D02*
G75*
G02*
X131113450Y-246702200I-500000J0D01*
G01*
X131113450Y-232702200D02*
G75*
G02*
X131613450Y-233202200I0J-500000D01*
G01*
X131613450Y-233202200D02*
X131613450Y-246202200D01*
X100657199Y-246202200D02*
G75*
G02*
X100157199Y-246702200I-500000J0D01*
G01*
X87157200Y-246702200D02*
G75*
G02*
X86657200Y-246202200I0J500000D01*
G01*
X100157199Y-232702200D02*
G75*
G02*
X100657199Y-233202200I0J-500000D01*
G01*
X86657200Y-233202200D02*
G75*
G02*
X87157200Y-232702200I500000J0D01*
G01*
X100657199Y-233202200D02*
X100657199Y-246202200D01*
X86657200Y-233202200D02*
X86657200Y-246202200D01*
X87157200Y-246702200D02*
X100157199Y-246702200D01*
X87157200Y-232702200D02*
X100157199Y-232702200D01*
X457844700Y-246201000D02*
G75*
G02*
X457344700Y-246701000I-500000J0D01*
G01*
X457344700Y-232701000D02*
G75*
G02*
X457844700Y-233201000I0J-500000D01*
G01*
X457844700Y-233201000D02*
X457844700Y-246201000D01*
X406244700Y-246701000D02*
X457344700Y-246701000D01*
X406244700Y-232701000D02*
X457344700Y-232701000D01*
X406244700Y-246701000D02*
G75*
G02*
X405744700Y-246201000I0J500000D01*
G01*
X405744700Y-233201000D02*
G75*
G02*
X406244700Y-232701000I500000J0D01*
G01*
X405744700Y-233201000D02*
X405744700Y-246201000D01*
X368807200Y-227152200D02*
G75*
G02*
X368307200Y-227652200I-500000J0D01*
G01*
X367307200Y-227652200D02*
G75*
G02*
X366807200Y-227152200I0J500000D01*
G01*
X368307200Y-213652200D02*
G75*
G02*
X368807200Y-214152200I0J-500000D01*
G01*
X366807200Y-214152200D02*
G75*
G02*
X367307200Y-213652200I500000J0D01*
G01*
X368807200Y-214152200D02*
X368807200Y-227152200D01*
X366807200Y-214152200D02*
X366807200Y-227152200D01*
X367307200Y-227652200D02*
X368307200Y-227652200D01*
X367307200Y-213652200D02*
X368307200Y-213652200D01*
X392007200Y-227152200D02*
G75*
G02*
X391507200Y-227652200I-500000J0D01*
G01*
X390507200Y-227652200D02*
G75*
G02*
X390007200Y-227152200I0J500000D01*
G01*
X391507200Y-213652200D02*
G75*
G02*
X392007200Y-214152200I0J-500000D01*
G01*
X390007200Y-214152200D02*
G75*
G02*
X390507200Y-213652200I500000J0D01*
G01*
X392007200Y-214152200D02*
X392007200Y-227152200D01*
X390007200Y-214152200D02*
X390007200Y-227152200D01*
X390507200Y-227652200D02*
X391507200Y-227652200D01*
X390507200Y-213652200D02*
X391507200Y-213652200D01*
X386407200Y-227152200D02*
G75*
G02*
X385907200Y-227652200I-500000J0D01*
G01*
X372907200Y-227652200D02*
G75*
G02*
X372407200Y-227152200I0J500000D01*
G01*
X385907200Y-213652200D02*
G75*
G02*
X386407200Y-214152200I0J-500000D01*
G01*
X372407200Y-214152200D02*
G75*
G02*
X372907200Y-213652200I500000J0D01*
G01*
X386407200Y-214152200D02*
X386407200Y-227152200D01*
X372407200Y-214152200D02*
X372407200Y-227152200D01*
X372907200Y-227652200D02*
X385907200Y-227652200D01*
X372907200Y-213652200D02*
X385907200Y-213652200D01*
X362594700Y-227152200D02*
G75*
G02*
X362094700Y-227652200I-500000J0D01*
G01*
X349094699Y-227652200D02*
G75*
G02*
X348594699Y-227152200I0J500000D01*
G01*
X362094700Y-213652200D02*
G75*
G02*
X362594700Y-214152200I0J-500000D01*
G01*
X348594699Y-214152200D02*
G75*
G02*
X349094699Y-213652200I500000J0D01*
G01*
X362594700Y-214152200D02*
X362594700Y-227152200D01*
X348594699Y-214152200D02*
X348594699Y-227152200D01*
X349094699Y-227652200D02*
X362094700Y-227652200D01*
X349094699Y-213652200D02*
X362094700Y-213652200D01*
X343544700Y-227152200D02*
G75*
G02*
X343044700Y-227652200I-500000J0D01*
G01*
X330044700Y-227652200D02*
G75*
G02*
X329544700Y-227152200I0J500000D01*
G01*
X343044700Y-213652200D02*
G75*
G02*
X343544700Y-214152200I0J-500000D01*
G01*
X329544700Y-214152200D02*
G75*
G02*
X330044700Y-213652200I500000J0D01*
G01*
X343544700Y-214152200D02*
X343544700Y-227152200D01*
X329544700Y-214152200D02*
X329544700Y-227152200D01*
X330044700Y-227652200D02*
X343044700Y-227652200D01*
X330044700Y-213652200D02*
X343044700Y-213652200D01*
X324494700Y-227152200D02*
G75*
G02*
X323994700Y-227652200I-500000J0D01*
G01*
X310994700Y-227652200D02*
G75*
G02*
X310494700Y-227152200I0J500000D01*
G01*
X323994700Y-213652200D02*
G75*
G02*
X324494700Y-214152200I0J-500000D01*
G01*
X310494700Y-214152200D02*
G75*
G02*
X310994700Y-213652200I500000J0D01*
G01*
X324494700Y-214152200D02*
X324494700Y-227152200D01*
X310494700Y-214152200D02*
X310494700Y-227152200D01*
X310994700Y-227652200D02*
X323994700Y-227652200D01*
X310994700Y-213652200D02*
X323994700Y-213652200D01*
X305444700Y-227152200D02*
G75*
G02*
X304944700Y-227652200I-500000J0D01*
G01*
X291944700Y-227652200D02*
G75*
G02*
X291444700Y-227152200I0J500000D01*
G01*
X304944700Y-213652200D02*
G75*
G02*
X305444700Y-214152200I0J-500000D01*
G01*
X291444700Y-214152200D02*
G75*
G02*
X291944700Y-213652200I500000J0D01*
G01*
X305444700Y-214152200D02*
X305444700Y-227152200D01*
X291444700Y-214152200D02*
X291444700Y-227152200D01*
X291944700Y-227652200D02*
X304944700Y-227652200D01*
X291944700Y-213652200D02*
X304944700Y-213652200D01*
X286394700Y-227152200D02*
G75*
G02*
X285894700Y-227652200I-500000J0D01*
G01*
X272894700Y-227652200D02*
G75*
G02*
X272394700Y-227152200I0J500000D01*
G01*
X285894700Y-213652200D02*
G75*
G02*
X286394700Y-214152200I0J-500000D01*
G01*
X272394700Y-214152200D02*
G75*
G02*
X272894700Y-213652200I500000J0D01*
G01*
X286394700Y-214152200D02*
X286394700Y-227152200D01*
X272394700Y-214152200D02*
X272394700Y-227152200D01*
X272894700Y-227652200D02*
X285894700Y-227652200D01*
X272894700Y-213652200D02*
X285894700Y-213652200D01*
X267344700Y-227152200D02*
G75*
G02*
X266844700Y-227652200I-500000J0D01*
G01*
X253844700Y-227652200D02*
G75*
G02*
X253344700Y-227152200I0J500000D01*
G01*
X266844700Y-213652200D02*
G75*
G02*
X267344700Y-214152200I0J-500000D01*
G01*
X253344700Y-214152200D02*
G75*
G02*
X253844700Y-213652200I500000J0D01*
G01*
X267344700Y-214152200D02*
X267344700Y-227152200D01*
X253344700Y-214152200D02*
X253344700Y-227152200D01*
X253844700Y-227652200D02*
X266844700Y-227652200D01*
X253844700Y-213652200D02*
X266844700Y-213652200D01*
X248294700Y-227152200D02*
G75*
G02*
X247794700Y-227652200I-500000J0D01*
G01*
X234794700Y-227652200D02*
G75*
G02*
X234294700Y-227152200I0J500000D01*
G01*
X247794700Y-213652200D02*
G75*
G02*
X248294700Y-214152200I0J-500000D01*
G01*
X234294700Y-214152200D02*
G75*
G02*
X234794700Y-213652200I500000J0D01*
G01*
X248294700Y-214152200D02*
X248294700Y-227152200D01*
X234294700Y-214152200D02*
X234294700Y-227152200D01*
X234794700Y-227652200D02*
X247794700Y-227652200D01*
X234794700Y-213652200D02*
X247794700Y-213652200D01*
X229244700Y-227152200D02*
G75*
G02*
X228744700Y-227652200I-500000J0D01*
G01*
X215744700Y-227652200D02*
G75*
G02*
X215244700Y-227152200I0J500000D01*
G01*
X228744700Y-213652200D02*
G75*
G02*
X229244700Y-214152200I0J-500000D01*
G01*
X215244700Y-214152200D02*
G75*
G02*
X215744700Y-213652200I500000J0D01*
G01*
X229244700Y-214152200D02*
X229244700Y-227152200D01*
X215244700Y-214152200D02*
X215244700Y-227152200D01*
X215744700Y-227652200D02*
X228744700Y-227652200D01*
X215744700Y-213652200D02*
X228744700Y-213652200D01*
X210194700Y-227152200D02*
G75*
G02*
X209694700Y-227652200I-500000J0D01*
G01*
X196694700Y-227652200D02*
G75*
G02*
X196194700Y-227152200I0J500000D01*
G01*
X209694700Y-213652200D02*
G75*
G02*
X210194700Y-214152200I0J-500000D01*
G01*
X196194700Y-214152200D02*
G75*
G02*
X196694700Y-213652200I500000J0D01*
G01*
X210194700Y-214152200D02*
X210194700Y-227152200D01*
X196194700Y-214152200D02*
X196194700Y-227152200D01*
X196694700Y-227652200D02*
X209694700Y-227652200D01*
X196694700Y-213652200D02*
X209694700Y-213652200D01*
X191144700Y-227152200D02*
G75*
G02*
X190644700Y-227652200I-500000J0D01*
G01*
X177644700Y-227652200D02*
G75*
G02*
X177144700Y-227152200I0J500000D01*
G01*
X190644700Y-213652200D02*
G75*
G02*
X191144700Y-214152200I0J-500000D01*
G01*
X177144700Y-214152200D02*
G75*
G02*
X177644700Y-213652200I500000J0D01*
G01*
X191144700Y-214152200D02*
X191144700Y-227152200D01*
X177144700Y-214152200D02*
X177144700Y-227152200D01*
X177644700Y-227652200D02*
X190644700Y-227652200D01*
X177644700Y-213652200D02*
X190644700Y-213652200D01*
X172094700Y-227152200D02*
G75*
G02*
X171594700Y-227652200I-500000J0D01*
G01*
X158594700Y-227652200D02*
G75*
G02*
X158094700Y-227152200I0J500000D01*
G01*
X171594700Y-213652200D02*
G75*
G02*
X172094700Y-214152200I0J-500000D01*
G01*
X158094700Y-214152200D02*
G75*
G02*
X158594700Y-213652200I500000J0D01*
G01*
X172094700Y-214152200D02*
X172094700Y-227152200D01*
X158094700Y-214152200D02*
X158094700Y-227152200D01*
X158594700Y-227652200D02*
X171594700Y-227652200D01*
X158594700Y-213652200D02*
X171594700Y-213652200D01*
X153044700Y-227152200D02*
G75*
G02*
X152544700Y-227652200I-500000J0D01*
G01*
X139544700Y-227652200D02*
G75*
G02*
X139044700Y-227152200I0J500000D01*
G01*
X152544700Y-213652200D02*
G75*
G02*
X153044700Y-214152200I0J-500000D01*
G01*
X139044700Y-214152200D02*
G75*
G02*
X139544700Y-213652200I500000J0D01*
G01*
X153044700Y-214152200D02*
X153044700Y-227152200D01*
X139044700Y-214152200D02*
X139044700Y-227152200D01*
X139544700Y-227652200D02*
X152544700Y-227652200D01*
X139544700Y-213652200D02*
X152544700Y-213652200D01*
X111632200Y-227152200D02*
G75*
G02*
X111132200Y-227652200I-500000J0D01*
G01*
X110132200Y-227652200D02*
G75*
G02*
X109632200Y-227152200I0J500000D01*
G01*
X111132200Y-213652200D02*
G75*
G02*
X111632200Y-214152200I0J-500000D01*
G01*
X109632200Y-214152200D02*
G75*
G02*
X110132200Y-213652200I500000J0D01*
G01*
X111632200Y-214152200D02*
X111632200Y-227152200D01*
X109632200Y-214152200D02*
X109632200Y-227152200D01*
X110132200Y-227652200D02*
X111132200Y-227652200D01*
X110132200Y-213652200D02*
X111132200Y-213652200D01*
X134832200Y-227152200D02*
G75*
G02*
X134332200Y-227652200I-500000J0D01*
G01*
X133332200Y-227652200D02*
G75*
G02*
X132832200Y-227152200I0J500000D01*
G01*
X134332200Y-213652200D02*
G75*
G02*
X134832200Y-214152200I0J-500000D01*
G01*
X132832200Y-214152200D02*
G75*
G02*
X133332200Y-213652200I500000J0D01*
G01*
X134832200Y-214152200D02*
X134832200Y-227152200D01*
X132832200Y-214152200D02*
X132832200Y-227152200D01*
X133332200Y-227652200D02*
X134332200Y-227652200D01*
X133332200Y-213652200D02*
X134332200Y-213652200D01*
X129232200Y-227152200D02*
G75*
G02*
X128732200Y-227652200I-500000J0D01*
G01*
X115732200Y-227652200D02*
G75*
G02*
X115232200Y-227152200I0J500000D01*
G01*
X128732200Y-213652200D02*
G75*
G02*
X129232200Y-214152200I0J-500000D01*
G01*
X115232200Y-214152200D02*
G75*
G02*
X115732200Y-213652200I500000J0D01*
G01*
X129232200Y-214152200D02*
X129232200Y-227152200D01*
X115232200Y-214152200D02*
X115232200Y-227152200D01*
X115732200Y-227652200D02*
X128732200Y-227652200D01*
X115732200Y-213652200D02*
X128732200Y-213652200D01*
X100657199Y-227152200D02*
G75*
G02*
X100157199Y-227652200I-500000J0D01*
G01*
X87157200Y-227652200D02*
G75*
G02*
X86657200Y-227152200I0J500000D01*
G01*
X100157199Y-213652200D02*
G75*
G02*
X100657199Y-214152200I0J-500000D01*
G01*
X86657200Y-214152200D02*
G75*
G02*
X87157200Y-213652200I500000J0D01*
G01*
X100657199Y-214152200D02*
X100657199Y-227152200D01*
X86657200Y-214152200D02*
X86657200Y-227152200D01*
X87157200Y-227652200D02*
X100157199Y-227652200D01*
X87157200Y-213652200D02*
X100157199Y-213652200D01*
X457844700Y-208102200D02*
G75*
G02*
X457344700Y-208602200I-500000J0D01*
G01*
X444344700Y-208602200D02*
G75*
G02*
X443844700Y-208102200I0J500000D01*
G01*
X457344700Y-194602200D02*
G75*
G02*
X457844700Y-195102200I0J-500000D01*
G01*
X443844700Y-195102200D02*
G75*
G02*
X444344700Y-194602200I500000J0D01*
G01*
X457844700Y-195102200D02*
X457844700Y-208102200D01*
X443844700Y-195102200D02*
X443844700Y-208102200D01*
X444344700Y-208602200D02*
X457344700Y-208602200D01*
X444344700Y-194602200D02*
X457344700Y-194602200D01*
X438794700Y-208102200D02*
G75*
G02*
X438294700Y-208602200I-500000J0D01*
G01*
X425294700Y-208602200D02*
G75*
G02*
X424794700Y-208102200I0J500000D01*
G01*
X438294700Y-194602200D02*
G75*
G02*
X438794700Y-195102200I0J-500000D01*
G01*
X424794700Y-195102200D02*
G75*
G02*
X425294700Y-194602200I500000J0D01*
G01*
X438794700Y-195102200D02*
X438794700Y-208102200D01*
X424794700Y-195102200D02*
X424794700Y-208102200D01*
X425294700Y-208602200D02*
X438294700Y-208602200D01*
X425294700Y-194602200D02*
X438294700Y-194602200D01*
X419744700Y-208102200D02*
G75*
G02*
X419244700Y-208602200I-500000J0D01*
G01*
X406244700Y-208602200D02*
G75*
G02*
X405744700Y-208102200I0J500000D01*
G01*
X419244700Y-194602200D02*
G75*
G02*
X419744700Y-195102200I0J-500000D01*
G01*
X405744700Y-195102200D02*
G75*
G02*
X406244700Y-194602200I500000J0D01*
G01*
X419744700Y-195102200D02*
X419744700Y-208102200D01*
X405744700Y-195102200D02*
X405744700Y-208102200D01*
X406244700Y-208602200D02*
X419244700Y-208602200D01*
X406244700Y-194602200D02*
X419244700Y-194602200D01*
X366206700Y-210102200D02*
G75*
G02*
X365706700Y-210602200I-500000J0D01*
G01*
X359706700Y-210602200D02*
G75*
G02*
X359206700Y-210102200I0J500000D01*
G01*
X359706700Y-210602200D02*
X365706700Y-210602200D01*
X390082700Y-210102200D02*
G75*
G02*
X389582700Y-210602200I-500000J0D01*
G01*
X383582700Y-210602200D02*
G75*
G02*
X383082700Y-210102200I0J500000D01*
G01*
X390082700Y-193097400D02*
X390082700Y-210102200D01*
X383082700Y-193097400D02*
X383082700Y-210102200D01*
X383582700Y-210602200D02*
X389582700Y-210602200D01*
X381644700Y-208102200D02*
G75*
G02*
X381144700Y-208602200I-500000J0D01*
G01*
X368144700Y-208602200D02*
G75*
G02*
X367644700Y-208102200I0J500000D01*
G01*
X381144700Y-194602200D02*
G75*
G02*
X381644700Y-195102200I0J-500000D01*
G01*
X367644700Y-195102200D02*
G75*
G02*
X368144700Y-194602200I500000J0D01*
G01*
X381644700Y-195102200D02*
X381644700Y-208102200D01*
X367644700Y-195102200D02*
X367644700Y-208102200D01*
X368144700Y-208602200D02*
X381144700Y-208602200D01*
X368144700Y-194602200D02*
X381144700Y-194602200D01*
X353069700Y-208102200D02*
G75*
G02*
X352569700Y-208602200I-500000J0D01*
G01*
X339569700Y-208602200D02*
G75*
G02*
X339069700Y-208102200I0J500000D01*
G01*
X352569700Y-194602200D02*
G75*
G02*
X353069700Y-195102200I0J-500000D01*
G01*
X339069700Y-195102200D02*
G75*
G02*
X339569700Y-194602200I500000J0D01*
G01*
X353069700Y-195102200D02*
X353069700Y-208102200D01*
X339069700Y-195102200D02*
X339069700Y-208102200D01*
X339569700Y-208602200D02*
X352569700Y-208602200D01*
X339569700Y-194602200D02*
X352569700Y-194602200D01*
X334019700Y-208102200D02*
G75*
G02*
X333519700Y-208602200I-500000J0D01*
G01*
X320519700Y-208602200D02*
G75*
G02*
X320019700Y-208102200I0J500000D01*
G01*
X333519700Y-194602200D02*
G75*
G02*
X334019700Y-195102200I0J-500000D01*
G01*
X320019700Y-195102200D02*
G75*
G02*
X320519700Y-194602200I500000J0D01*
G01*
X334019700Y-195102200D02*
X334019700Y-208102200D01*
X320019700Y-195102200D02*
X320019700Y-208102200D01*
X320519700Y-208602200D02*
X333519700Y-208602200D01*
X320519700Y-194602200D02*
X333519700Y-194602200D01*
X314969700Y-208102200D02*
G75*
G02*
X314469700Y-208602200I-500000J0D01*
G01*
X301469700Y-208602200D02*
G75*
G02*
X300969700Y-208102200I0J500000D01*
G01*
X314469700Y-194602200D02*
G75*
G02*
X314969700Y-195102200I0J-500000D01*
G01*
X300969700Y-195102200D02*
G75*
G02*
X301469700Y-194602200I500000J0D01*
G01*
X314969700Y-195102200D02*
X314969700Y-208102200D01*
X300969700Y-195102200D02*
X300969700Y-208102200D01*
X301469700Y-208602200D02*
X314469700Y-208602200D01*
X301469700Y-194602200D02*
X314469700Y-194602200D01*
X295919700Y-208102200D02*
G75*
G02*
X295419700Y-208602200I-500000J0D01*
G01*
X282419700Y-208602200D02*
G75*
G02*
X281919700Y-208102200I0J500000D01*
G01*
X295419700Y-194602200D02*
G75*
G02*
X295919700Y-195102200I0J-500000D01*
G01*
X281919700Y-195102200D02*
G75*
G02*
X282419700Y-194602200I500000J0D01*
G01*
X295919700Y-195102200D02*
X295919700Y-208102200D01*
X281919700Y-195102200D02*
X281919700Y-208102200D01*
X282419700Y-208602200D02*
X295419700Y-208602200D01*
X282419700Y-194602200D02*
X295419700Y-194602200D01*
X276869700Y-208102200D02*
G75*
G02*
X276369700Y-208602200I-500000J0D01*
G01*
X263369700Y-208602200D02*
G75*
G02*
X262869700Y-208102200I0J500000D01*
G01*
X276369700Y-194602200D02*
G75*
G02*
X276869700Y-195102200I0J-500000D01*
G01*
X262869700Y-195102200D02*
G75*
G02*
X263369700Y-194602200I500000J0D01*
G01*
X276869700Y-195102200D02*
X276869700Y-208102200D01*
X262869700Y-195102200D02*
X262869700Y-208102200D01*
X263369700Y-208602200D02*
X276369700Y-208602200D01*
X263369700Y-194602200D02*
X276369700Y-194602200D01*
X257819700Y-208102200D02*
G75*
G02*
X257319700Y-208602200I-500000J0D01*
G01*
X244319700Y-208602200D02*
G75*
G02*
X243819700Y-208102200I0J500000D01*
G01*
X257319700Y-194602200D02*
G75*
G02*
X257819700Y-195102200I0J-500000D01*
G01*
X243819700Y-195102200D02*
G75*
G02*
X244319700Y-194602200I500000J0D01*
G01*
X257819700Y-195102200D02*
X257819700Y-208102200D01*
X243819700Y-195102200D02*
X243819700Y-208102200D01*
X244319700Y-208602200D02*
X257319700Y-208602200D01*
X244319700Y-194602200D02*
X257319700Y-194602200D01*
X238769700Y-208102200D02*
G75*
G02*
X238269700Y-208602200I-500000J0D01*
G01*
X225269700Y-208602200D02*
G75*
G02*
X224769700Y-208102200I0J500000D01*
G01*
X238269700Y-194602200D02*
G75*
G02*
X238769700Y-195102200I0J-500000D01*
G01*
X224769700Y-195102200D02*
G75*
G02*
X225269700Y-194602200I500000J0D01*
G01*
X238769700Y-195102200D02*
X238769700Y-208102200D01*
X224769700Y-195102200D02*
X224769700Y-208102200D01*
X225269700Y-208602200D02*
X238269700Y-208602200D01*
X225269700Y-194602200D02*
X238269700Y-194602200D01*
X219719700Y-208102200D02*
G75*
G02*
X219219700Y-208602200I-500000J0D01*
G01*
X206219700Y-208602200D02*
G75*
G02*
X205719700Y-208102200I0J500000D01*
G01*
X219219700Y-194602200D02*
G75*
G02*
X219719700Y-195102200I0J-500000D01*
G01*
X205719700Y-195102200D02*
G75*
G02*
X206219700Y-194602200I500000J0D01*
G01*
X219719700Y-195102200D02*
X219719700Y-208102200D01*
X205719700Y-195102200D02*
X205719700Y-208102200D01*
X206219700Y-208602200D02*
X219219700Y-208602200D01*
X206219700Y-194602200D02*
X219219700Y-194602200D01*
X200669700Y-208102200D02*
G75*
G02*
X200169700Y-208602200I-500000J0D01*
G01*
X187169700Y-208602200D02*
G75*
G02*
X186669700Y-208102200I0J500000D01*
G01*
X200169700Y-194602200D02*
G75*
G02*
X200669700Y-195102200I0J-500000D01*
G01*
X186669700Y-195102200D02*
G75*
G02*
X187169700Y-194602200I500000J0D01*
G01*
X200669700Y-195102200D02*
X200669700Y-208102200D01*
X186669700Y-195102200D02*
X186669700Y-208102200D01*
X187169700Y-208602200D02*
X200169700Y-208602200D01*
X187169700Y-194602200D02*
X200169700Y-194602200D01*
X181619700Y-208102200D02*
G75*
G02*
X181119700Y-208602200I-500000J0D01*
G01*
X168119700Y-208602200D02*
G75*
G02*
X167619700Y-208102200I0J500000D01*
G01*
X181119700Y-194602200D02*
G75*
G02*
X181619700Y-195102200I0J-500000D01*
G01*
X167619700Y-195102200D02*
G75*
G02*
X168119700Y-194602200I500000J0D01*
G01*
X181619700Y-195102200D02*
X181619700Y-208102200D01*
X167619700Y-195102200D02*
X167619700Y-208102200D01*
X168119700Y-208602200D02*
X181119700Y-208602200D01*
X168119700Y-194602200D02*
X181119700Y-194602200D01*
X162569700Y-208102200D02*
G75*
G02*
X162069700Y-208602200I-500000J0D01*
G01*
X149069700Y-208602200D02*
G75*
G02*
X148569700Y-208102200I0J500000D01*
G01*
X162069700Y-194602200D02*
G75*
G02*
X162569700Y-195102200I0J-500000D01*
G01*
X148569700Y-195102200D02*
G75*
G02*
X149069700Y-194602200I500000J0D01*
G01*
X162569700Y-195102200D02*
X162569700Y-208102200D01*
X148569700Y-195102200D02*
X148569700Y-208102200D01*
X149069700Y-208602200D02*
X162069700Y-208602200D01*
X149069700Y-194602200D02*
X162069700Y-194602200D01*
X143519700Y-208102200D02*
G75*
G02*
X143019700Y-208602200I-500000J0D01*
G01*
X130019700Y-208602200D02*
G75*
G02*
X129519700Y-208102200I0J500000D01*
G01*
X143019700Y-194602200D02*
G75*
G02*
X143519700Y-195102200I0J-500000D01*
G01*
X129519700Y-195102200D02*
G75*
G02*
X130019700Y-194602200I500000J0D01*
G01*
X143519700Y-195102200D02*
X143519700Y-208102200D01*
X129519700Y-195102200D02*
X129519700Y-208102200D01*
X130019700Y-208602200D02*
X143019700Y-208602200D01*
X130019700Y-194602200D02*
X143019700Y-194602200D01*
X124469700Y-208102200D02*
G75*
G02*
X123969700Y-208602200I-500000J0D01*
G01*
X110969700Y-208602200D02*
G75*
G02*
X110469700Y-208102200I0J500000D01*
G01*
X123969700Y-194602200D02*
G75*
G02*
X124469700Y-195102200I0J-500000D01*
G01*
X110469700Y-195102200D02*
G75*
G02*
X110969700Y-194602200I500000J0D01*
G01*
X124469700Y-195102200D02*
X124469700Y-208102200D01*
X110469700Y-195102200D02*
X110469700Y-208102200D01*
X110969700Y-208602200D02*
X123969700Y-208602200D01*
X110969700Y-194602200D02*
X123969700Y-194602200D01*
X100657199Y-208102200D02*
G75*
G02*
X100157199Y-208602200I-500000J0D01*
G01*
X87157200Y-208602200D02*
G75*
G02*
X86657200Y-208102200I0J500000D01*
G01*
X100157199Y-194602200D02*
G75*
G02*
X100657199Y-195102200I0J-500000D01*
G01*
X86657200Y-195102200D02*
G75*
G02*
X87157200Y-194602200I500000J0D01*
G01*
X100657199Y-195102200D02*
X100657199Y-208102200D01*
X86657200Y-195102200D02*
X86657200Y-208102200D01*
X87157200Y-208602200D02*
X100157199Y-208602200D01*
X87157200Y-194602200D02*
X100157199Y-194602200D01*
X457844700Y-179527199D02*
G75*
G02*
X457344700Y-180027199I-500000J0D01*
G01*
X444344700Y-180027199D02*
G75*
G02*
X443844700Y-179527199I0J500000D01*
G01*
X457344700Y-166027200D02*
G75*
G02*
X457844700Y-166527200I0J-500000D01*
G01*
X443844700Y-166527200D02*
G75*
G02*
X444344700Y-166027200I500000J0D01*
G01*
X457844700Y-166527200D02*
X457844700Y-179527199D01*
X443844700Y-166527200D02*
X443844700Y-179527199D01*
X444344700Y-180027199D02*
X457344700Y-180027199D01*
X444344700Y-166027200D02*
X457344700Y-166027200D01*
X419744700Y-179527199D02*
G75*
G02*
X419244700Y-180027199I-500000J0D01*
G01*
X406244700Y-180027199D02*
G75*
G02*
X405744700Y-179527199I0J500000D01*
G01*
X419244700Y-166027200D02*
G75*
G02*
X419744700Y-166527200I0J-500000D01*
G01*
X405744700Y-166527200D02*
G75*
G02*
X406244700Y-166027200I500000J0D01*
G01*
X419744700Y-166527200D02*
X419744700Y-179527199D01*
X405744700Y-166527200D02*
X405744700Y-179527199D01*
X406244700Y-180027199D02*
X419244700Y-180027199D01*
X406244700Y-166027200D02*
X419244700Y-166027200D01*
X391169700Y-179527199D02*
G75*
G02*
X390669700Y-180027199I-500000J0D01*
G01*
X377669700Y-180027199D02*
G75*
G02*
X377169700Y-179527199I0J500000D01*
G01*
X390669700Y-166027200D02*
G75*
G02*
X391169700Y-166527200I0J-500000D01*
G01*
X377169700Y-166527200D02*
G75*
G02*
X377669700Y-166027200I500000J0D01*
G01*
X391169700Y-166527200D02*
X391169700Y-179527199D01*
X377169700Y-166527200D02*
X377169700Y-179527199D01*
X377669700Y-180027199D02*
X390669700Y-180027199D01*
X377669700Y-166027200D02*
X390669700Y-166027200D01*
X372119700Y-179527199D02*
G75*
G02*
X371619700Y-180027199I-500000J0D01*
G01*
X358619700Y-180027199D02*
G75*
G02*
X358119700Y-179527199I0J500000D01*
G01*
X371619700Y-166027200D02*
G75*
G02*
X372119700Y-166527200I0J-500000D01*
G01*
X358119700Y-166527200D02*
G75*
G02*
X358619700Y-166027200I500000J0D01*
G01*
X372119700Y-166527200D02*
X372119700Y-179527199D01*
X358119700Y-166527200D02*
X358119700Y-179527199D01*
X358619700Y-180027199D02*
X371619700Y-180027199D01*
X358619700Y-166027200D02*
X371619700Y-166027200D01*
X353069700Y-179527199D02*
G75*
G02*
X352569700Y-180027199I-500000J0D01*
G01*
X339569700Y-180027199D02*
G75*
G02*
X339069700Y-179527199I0J500000D01*
G01*
X352569700Y-166027200D02*
G75*
G02*
X353069700Y-166527200I0J-500000D01*
G01*
X339069700Y-166527200D02*
G75*
G02*
X339569700Y-166027200I500000J0D01*
G01*
X353069700Y-166527200D02*
X353069700Y-179527199D01*
X339069700Y-166527200D02*
X339069700Y-179527199D01*
X339569700Y-180027199D02*
X352569700Y-180027199D01*
X339569700Y-166027200D02*
X352569700Y-166027200D01*
X334019700Y-179527199D02*
G75*
G02*
X333519700Y-180027199I-500000J0D01*
G01*
X320519700Y-180027199D02*
G75*
G02*
X320019700Y-179527199I0J500000D01*
G01*
X333519700Y-166027200D02*
G75*
G02*
X334019700Y-166527200I0J-500000D01*
G01*
X320019700Y-166527200D02*
G75*
G02*
X320519700Y-166027200I500000J0D01*
G01*
X334019700Y-166527200D02*
X334019700Y-179527199D01*
X320019700Y-166527200D02*
X320019700Y-179527199D01*
X320519700Y-180027199D02*
X333519700Y-180027199D01*
X320519700Y-166027200D02*
X333519700Y-166027200D01*
X305444700Y-179527199D02*
G75*
G02*
X304944700Y-180027199I-500000J0D01*
G01*
X291944700Y-180027199D02*
G75*
G02*
X291444700Y-179527199I0J500000D01*
G01*
X304944700Y-166027200D02*
G75*
G02*
X305444700Y-166527200I0J-500000D01*
G01*
X291444700Y-166527200D02*
G75*
G02*
X291944700Y-166027200I500000J0D01*
G01*
X305444700Y-166527200D02*
X305444700Y-179527199D01*
X291444700Y-166527200D02*
X291444700Y-179527199D01*
X291944700Y-180027199D02*
X304944700Y-180027199D01*
X291944700Y-166027200D02*
X304944700Y-166027200D01*
X286394700Y-179527199D02*
G75*
G02*
X285894700Y-180027199I-500000J0D01*
G01*
X272894700Y-180027199D02*
G75*
G02*
X272394700Y-179527199I0J500000D01*
G01*
X285894700Y-166027200D02*
G75*
G02*
X286394700Y-166527200I0J-500000D01*
G01*
X272394700Y-166527200D02*
G75*
G02*
X272894700Y-166027200I500000J0D01*
G01*
X286394700Y-166527200D02*
X286394700Y-179527199D01*
X272394700Y-166527200D02*
X272394700Y-179527199D01*
X272894700Y-180027199D02*
X285894700Y-180027199D01*
X272894700Y-166027200D02*
X285894700Y-166027200D01*
X267344700Y-179527199D02*
G75*
G02*
X266844700Y-180027199I-500000J0D01*
G01*
X253844700Y-180027199D02*
G75*
G02*
X253344700Y-179527199I0J500000D01*
G01*
X266844700Y-166027200D02*
G75*
G02*
X267344700Y-166527200I0J-500000D01*
G01*
X253344700Y-166527200D02*
G75*
G02*
X253844700Y-166027200I500000J0D01*
G01*
X267344700Y-166527200D02*
X267344700Y-179527199D01*
X253344700Y-166527200D02*
X253344700Y-179527199D01*
X253844700Y-180027199D02*
X266844700Y-180027199D01*
X253844700Y-166027200D02*
X266844700Y-166027200D01*
X248294700Y-179527199D02*
G75*
G02*
X247794700Y-180027199I-500000J0D01*
G01*
X234794700Y-180027199D02*
G75*
G02*
X234294700Y-179527199I0J500000D01*
G01*
X247794700Y-166027200D02*
G75*
G02*
X248294700Y-166527200I0J-500000D01*
G01*
X234294700Y-166527200D02*
G75*
G02*
X234794700Y-166027200I500000J0D01*
G01*
X248294700Y-166527200D02*
X248294700Y-179527199D01*
X234294700Y-166527200D02*
X234294700Y-179527199D01*
X234794700Y-180027199D02*
X247794700Y-180027199D01*
X234794700Y-166027200D02*
X247794700Y-166027200D01*
X219719700Y-179527199D02*
G75*
G02*
X219219700Y-180027199I-500000J0D01*
G01*
X206219700Y-180027199D02*
G75*
G02*
X205719700Y-179527199I0J500000D01*
G01*
X219219700Y-166027200D02*
G75*
G02*
X219719700Y-166527200I0J-500000D01*
G01*
X205719700Y-166527200D02*
G75*
G02*
X206219700Y-166027200I500000J0D01*
G01*
X219719700Y-166527200D02*
X219719700Y-179527199D01*
X205719700Y-166527200D02*
X205719700Y-179527199D01*
X206219700Y-180027199D02*
X219219700Y-180027199D01*
X206219700Y-166027200D02*
X219219700Y-166027200D01*
X200669700Y-179527199D02*
G75*
G02*
X200169700Y-180027199I-500000J0D01*
G01*
X187169700Y-180027199D02*
G75*
G02*
X186669700Y-179527199I0J500000D01*
G01*
X200169700Y-166027200D02*
G75*
G02*
X200669700Y-166527200I0J-500000D01*
G01*
X186669700Y-166527200D02*
G75*
G02*
X187169700Y-166027200I500000J0D01*
G01*
X200669700Y-166527200D02*
X200669700Y-179527199D01*
X186669700Y-166527200D02*
X186669700Y-179527199D01*
X187169700Y-180027199D02*
X200169700Y-180027199D01*
X187169700Y-166027200D02*
X200169700Y-166027200D01*
X181619700Y-179527199D02*
G75*
G02*
X181119700Y-180027199I-500000J0D01*
G01*
X168119700Y-180027199D02*
G75*
G02*
X167619700Y-179527199I0J500000D01*
G01*
X181119700Y-166027200D02*
G75*
G02*
X181619700Y-166527200I0J-500000D01*
G01*
X167619700Y-166527200D02*
G75*
G02*
X168119700Y-166027200I500000J0D01*
G01*
X181619700Y-166527200D02*
X181619700Y-179527199D01*
X167619700Y-166527200D02*
X167619700Y-179527199D01*
X168119700Y-180027199D02*
X181119700Y-180027199D01*
X168119700Y-166027200D02*
X181119700Y-166027200D01*
X162569700Y-179527199D02*
G75*
G02*
X162069700Y-180027199I-500000J0D01*
G01*
X149069700Y-180027199D02*
G75*
G02*
X148569700Y-179527199I0J500000D01*
G01*
X162069700Y-166027200D02*
G75*
G02*
X162569700Y-166527200I0J-500000D01*
G01*
X148569700Y-166527200D02*
G75*
G02*
X149069700Y-166027200I500000J0D01*
G01*
X162569700Y-166527200D02*
X162569700Y-179527199D01*
X148569700Y-166527200D02*
X148569700Y-179527199D01*
X149069700Y-180027199D02*
X162069700Y-180027199D01*
X149069700Y-166027200D02*
X162069700Y-166027200D01*
X124469700Y-179527199D02*
G75*
G02*
X123969700Y-180027199I-500000J0D01*
G01*
X110969700Y-180027199D02*
G75*
G02*
X110469700Y-179527199I0J500000D01*
G01*
X123969700Y-166027200D02*
G75*
G02*
X124469700Y-166527200I0J-500000D01*
G01*
X110469700Y-166527200D02*
G75*
G02*
X110969700Y-166027200I500000J0D01*
G01*
X124469700Y-166527200D02*
X124469700Y-179527199D01*
X110469700Y-166527200D02*
X110469700Y-179527199D01*
X110969700Y-180027199D02*
X123969700Y-180027199D01*
X110969700Y-166027200D02*
X123969700Y-166027200D01*
X86513300Y-288113100D02*
G75*
G02*
X83338500Y-284938300I0J3174800D01*
G01*
X83338500Y-165883300D02*
G75*
G02*
X86513300Y-162708500I3174800J0D01*
G01*
X457964900Y-162708500D02*
G75*
G02*
X461139700Y-165883300I0J-3174800D01*
G01*
X461139700Y-284938300D02*
G75*
G02*
X457964900Y-288113100I-3174800J0D01*
G01*
X382563400Y-159533700D02*
G75*
G02*
X384150800Y-157946300I1587400J0D01*
G01*
X382563400Y-159533700D02*
X382563400Y-161914800D01*
X442884600Y-161914800D02*
X442884600Y-159533700D01*
X441297200Y-157946300D02*
G75*
G02*
X442884600Y-159533700I0J-1587400D01*
G01*
X443678300Y-162708500D02*
G75*
G02*
X442884600Y-161914800I0J793700D01*
G01*
X382563400Y-161914800D02*
G75*
G02*
X381769700Y-162708500I-793700J0D01*
G01*
X441297200Y-157946300D02*
X384150800Y-157946300D01*
X160327400Y-157946300D02*
G75*
G02*
X161914800Y-159533700I0J-1587400D01*
G01*
X161914800Y-161914800D02*
X161914800Y-159533700D01*
X101593600Y-161914800D02*
G75*
G02*
X100799900Y-162708500I-793700J0D01*
G01*
X160327400Y-157946300D02*
X103181000Y-157946300D01*
X101593600Y-159533700D02*
X101593600Y-161914800D01*
X162708500Y-162708500D02*
G75*
G02*
X161914800Y-161914800I0J793700D01*
G01*
X101593600Y-159533700D02*
G75*
G02*
X103181000Y-157946300I1587400J0D01*
G01*
X254777700Y-157946300D02*
X197631300Y-157946300D01*
X256365100Y-161914800D02*
X256365100Y-159533700D01*
X196043900Y-159533700D02*
G75*
G02*
X197631300Y-157946300I1587400J0D01*
G01*
X196043900Y-161914800D02*
G75*
G02*
X195250200Y-162708500I-793700J0D01*
G01*
X196043900Y-159533700D02*
X196043900Y-161914800D01*
X257158800Y-162708500D02*
G75*
G02*
X256365100Y-161914800I0J793700D01*
G01*
X254777700Y-157946300D02*
G75*
G02*
X256365100Y-159533700I0J-1587400D01*
G01*
M02*
