%TF.GenerationSoftware,KiCad,Pcbnew,(6.0.0)*%
%TF.CreationDate,2022-02-20T21:11:03-05:00*%
%TF.ProjectId,keyboard0,6b657962-6f61-4726-9430-2e6b69636164,rev?*%
%TF.SameCoordinates,Original*%
%TF.FileFunction,Legend,Top*%
%TF.FilePolarity,Positive*%
%FSLAX46Y46*%
G04 Gerber Fmt 4.6, Leading zero omitted, Abs format (unit mm)*
G04 Created by KiCad (PCBNEW (6.0.0)) date 2022-02-20 21:11:03*
%MOMM*%
%LPD*%
G01*
G04 APERTURE LIST*
%ADD10C,0.150000*%
%ADD11C,0.120000*%
%ADD12C,1.397000*%
%ADD13C,3.987800*%
%ADD14C,4.000000*%
%ADD15C,3.050000*%
%ADD16C,1.750000*%
%ADD17C,2.000000*%
%ADD18R,2.000000X3.200000*%
%ADD19R,2.000000X2.000000*%
%ADD20C,1.000000*%
%ADD21R,1.700000X1.700000*%
%ADD22O,1.700000X1.700000*%
%ADD23O,1.000000X1.600000*%
%ADD24O,1.000000X2.100000*%
%ADD25C,0.650000*%
G04 APERTURE END LIST*
D10*
%TO.C,MX83*%
X173645795Y-194183380D02*
X173645795Y-193183380D01*
X173979128Y-193897666D01*
X174312461Y-193183380D01*
X174312461Y-194183380D01*
X174693414Y-193183380D02*
X175360080Y-194183380D01*
X175360080Y-193183380D02*
X174693414Y-194183380D01*
X175883890Y-193611952D02*
X175788652Y-193564333D01*
X175741033Y-193516714D01*
X175693414Y-193421476D01*
X175693414Y-193373857D01*
X175741033Y-193278619D01*
X175788652Y-193231000D01*
X175883890Y-193183380D01*
X176074366Y-193183380D01*
X176169604Y-193231000D01*
X176217223Y-193278619D01*
X176264842Y-193373857D01*
X176264842Y-193421476D01*
X176217223Y-193516714D01*
X176169604Y-193564333D01*
X176074366Y-193611952D01*
X175883890Y-193611952D01*
X175788652Y-193659571D01*
X175741033Y-193707190D01*
X175693414Y-193802428D01*
X175693414Y-193992904D01*
X175741033Y-194088142D01*
X175788652Y-194135761D01*
X175883890Y-194183380D01*
X176074366Y-194183380D01*
X176169604Y-194135761D01*
X176217223Y-194088142D01*
X176264842Y-193992904D01*
X176264842Y-193802428D01*
X176217223Y-193707190D01*
X176169604Y-193659571D01*
X176074366Y-193611952D01*
X176598176Y-193183380D02*
X177217223Y-193183380D01*
X176883890Y-193564333D01*
X177026747Y-193564333D01*
X177121985Y-193611952D01*
X177169604Y-193659571D01*
X177217223Y-193754809D01*
X177217223Y-193992904D01*
X177169604Y-194088142D01*
X177121985Y-194135761D01*
X177026747Y-194183380D01*
X176741033Y-194183380D01*
X176645795Y-194135761D01*
X176598176Y-194088142D01*
%TO.C,MX64*%
X306987395Y-156085780D02*
X306987395Y-155085780D01*
X307320728Y-155800066D01*
X307654061Y-155085780D01*
X307654061Y-156085780D01*
X308035014Y-155085780D02*
X308701680Y-156085780D01*
X308701680Y-155085780D02*
X308035014Y-156085780D01*
X309511204Y-155085780D02*
X309320728Y-155085780D01*
X309225490Y-155133400D01*
X309177871Y-155181019D01*
X309082633Y-155323876D01*
X309035014Y-155514352D01*
X309035014Y-155895304D01*
X309082633Y-155990542D01*
X309130252Y-156038161D01*
X309225490Y-156085780D01*
X309415966Y-156085780D01*
X309511204Y-156038161D01*
X309558823Y-155990542D01*
X309606442Y-155895304D01*
X309606442Y-155657209D01*
X309558823Y-155561971D01*
X309511204Y-155514352D01*
X309415966Y-155466733D01*
X309225490Y-155466733D01*
X309130252Y-155514352D01*
X309082633Y-155561971D01*
X309035014Y-155657209D01*
X310463585Y-155419114D02*
X310463585Y-156085780D01*
X310225490Y-155038161D02*
X309987395Y-155752447D01*
X310606442Y-155752447D01*
%TO.C,MX14-1*%
X365419657Y-89414980D02*
X365419657Y-88414980D01*
X365752990Y-89129266D01*
X366086323Y-88414980D01*
X366086323Y-89414980D01*
X366467276Y-88414980D02*
X367133942Y-89414980D01*
X367133942Y-88414980D02*
X366467276Y-89414980D01*
X368038704Y-89414980D02*
X367467276Y-89414980D01*
X367752990Y-89414980D02*
X367752990Y-88414980D01*
X367657752Y-88557838D01*
X367562514Y-88653076D01*
X367467276Y-88700695D01*
X368895847Y-88748314D02*
X368895847Y-89414980D01*
X368657752Y-88367361D02*
X368419657Y-89081647D01*
X369038704Y-89081647D01*
X369419657Y-89034028D02*
X370181561Y-89034028D01*
X371181561Y-89414980D02*
X370610133Y-89414980D01*
X370895847Y-89414980D02*
X370895847Y-88414980D01*
X370800609Y-88557838D01*
X370705371Y-88653076D01*
X370610133Y-88700695D01*
%TO.C,MX1-1*%
X70639447Y-89414980D02*
X70639447Y-88414980D01*
X70972780Y-89129266D01*
X71306114Y-88414980D01*
X71306114Y-89414980D01*
X71687066Y-88414980D02*
X72353733Y-89414980D01*
X72353733Y-88414980D02*
X71687066Y-89414980D01*
X73258495Y-89414980D02*
X72687066Y-89414980D01*
X72972780Y-89414980D02*
X72972780Y-88414980D01*
X72877542Y-88557838D01*
X72782304Y-88653076D01*
X72687066Y-88700695D01*
X73687066Y-89034028D02*
X74448971Y-89034028D01*
X75448971Y-89414980D02*
X74877542Y-89414980D01*
X75163257Y-89414980D02*
X75163257Y-88414980D01*
X75068019Y-88557838D01*
X74972780Y-88653076D01*
X74877542Y-88700695D01*
%TO.C,MX84*%
X245078795Y-194183380D02*
X245078795Y-193183380D01*
X245412128Y-193897666D01*
X245745461Y-193183380D01*
X245745461Y-194183380D01*
X246126414Y-193183380D02*
X246793080Y-194183380D01*
X246793080Y-193183380D02*
X246126414Y-194183380D01*
X247316890Y-193611952D02*
X247221652Y-193564333D01*
X247174033Y-193516714D01*
X247126414Y-193421476D01*
X247126414Y-193373857D01*
X247174033Y-193278619D01*
X247221652Y-193231000D01*
X247316890Y-193183380D01*
X247507366Y-193183380D01*
X247602604Y-193231000D01*
X247650223Y-193278619D01*
X247697842Y-193373857D01*
X247697842Y-193421476D01*
X247650223Y-193516714D01*
X247602604Y-193564333D01*
X247507366Y-193611952D01*
X247316890Y-193611952D01*
X247221652Y-193659571D01*
X247174033Y-193707190D01*
X247126414Y-193802428D01*
X247126414Y-193992904D01*
X247174033Y-194088142D01*
X247221652Y-194135761D01*
X247316890Y-194183380D01*
X247507366Y-194183380D01*
X247602604Y-194135761D01*
X247650223Y-194088142D01*
X247697842Y-193992904D01*
X247697842Y-193802428D01*
X247650223Y-193707190D01*
X247602604Y-193659571D01*
X247507366Y-193611952D01*
X248554985Y-193516714D02*
X248554985Y-194183380D01*
X248316890Y-193135761D02*
X248078795Y-193850047D01*
X248697842Y-193850047D01*
%TO.C,MX85*%
X268889795Y-194183380D02*
X268889795Y-193183380D01*
X269223128Y-193897666D01*
X269556461Y-193183380D01*
X269556461Y-194183380D01*
X269937414Y-193183380D02*
X270604080Y-194183380D01*
X270604080Y-193183380D02*
X269937414Y-194183380D01*
X271127890Y-193611952D02*
X271032652Y-193564333D01*
X270985033Y-193516714D01*
X270937414Y-193421476D01*
X270937414Y-193373857D01*
X270985033Y-193278619D01*
X271032652Y-193231000D01*
X271127890Y-193183380D01*
X271318366Y-193183380D01*
X271413604Y-193231000D01*
X271461223Y-193278619D01*
X271508842Y-193373857D01*
X271508842Y-193421476D01*
X271461223Y-193516714D01*
X271413604Y-193564333D01*
X271318366Y-193611952D01*
X271127890Y-193611952D01*
X271032652Y-193659571D01*
X270985033Y-193707190D01*
X270937414Y-193802428D01*
X270937414Y-193992904D01*
X270985033Y-194088142D01*
X271032652Y-194135761D01*
X271127890Y-194183380D01*
X271318366Y-194183380D01*
X271413604Y-194135761D01*
X271461223Y-194088142D01*
X271508842Y-193992904D01*
X271508842Y-193802428D01*
X271461223Y-193707190D01*
X271413604Y-193659571D01*
X271318366Y-193611952D01*
X272413604Y-193183380D02*
X271937414Y-193183380D01*
X271889795Y-193659571D01*
X271937414Y-193611952D01*
X272032652Y-193564333D01*
X272270747Y-193564333D01*
X272365985Y-193611952D01*
X272413604Y-193659571D01*
X272461223Y-193754809D01*
X272461223Y-193992904D01*
X272413604Y-194088142D01*
X272365985Y-194135761D01*
X272270747Y-194183380D01*
X272032652Y-194183380D01*
X271937414Y-194135761D01*
X271889795Y-194088142D01*
%TO.C,MX52*%
X54590795Y-156085780D02*
X54590795Y-155085780D01*
X54924128Y-155800066D01*
X55257461Y-155085780D01*
X55257461Y-156085780D01*
X55638414Y-155085780D02*
X56305080Y-156085780D01*
X56305080Y-155085780D02*
X55638414Y-156085780D01*
X57162223Y-155085780D02*
X56686033Y-155085780D01*
X56638414Y-155561971D01*
X56686033Y-155514352D01*
X56781271Y-155466733D01*
X57019366Y-155466733D01*
X57114604Y-155514352D01*
X57162223Y-155561971D01*
X57209842Y-155657209D01*
X57209842Y-155895304D01*
X57162223Y-155990542D01*
X57114604Y-156038161D01*
X57019366Y-156085780D01*
X56781271Y-156085780D01*
X56686033Y-156038161D01*
X56638414Y-155990542D01*
X57590795Y-155181019D02*
X57638414Y-155133400D01*
X57733652Y-155085780D01*
X57971747Y-155085780D01*
X58066985Y-155133400D01*
X58114604Y-155181019D01*
X58162223Y-155276257D01*
X58162223Y-155371495D01*
X58114604Y-155514352D01*
X57543176Y-156085780D01*
X58162223Y-156085780D01*
%TO.C,MX2*%
X90783485Y-89414980D02*
X90783485Y-88414980D01*
X91116819Y-89129266D01*
X91450152Y-88414980D01*
X91450152Y-89414980D01*
X91831104Y-88414980D02*
X92497771Y-89414980D01*
X92497771Y-88414980D02*
X91831104Y-89414980D01*
X92831104Y-88510219D02*
X92878723Y-88462600D01*
X92973961Y-88414980D01*
X93212057Y-88414980D01*
X93307295Y-88462600D01*
X93354914Y-88510219D01*
X93402533Y-88605457D01*
X93402533Y-88700695D01*
X93354914Y-88843552D01*
X92783485Y-89414980D01*
X93402533Y-89414980D01*
%TO.C,MX15*%
X28398695Y-117988180D02*
X28398695Y-116988180D01*
X28732028Y-117702466D01*
X29065361Y-116988180D01*
X29065361Y-117988180D01*
X29446314Y-116988180D02*
X30112980Y-117988180D01*
X30112980Y-116988180D02*
X29446314Y-117988180D01*
X31017742Y-117988180D02*
X30446314Y-117988180D01*
X30732028Y-117988180D02*
X30732028Y-116988180D01*
X30636790Y-117131038D01*
X30541552Y-117226276D01*
X30446314Y-117273895D01*
X31922504Y-116988180D02*
X31446314Y-116988180D01*
X31398695Y-117464371D01*
X31446314Y-117416752D01*
X31541552Y-117369133D01*
X31779647Y-117369133D01*
X31874885Y-117416752D01*
X31922504Y-117464371D01*
X31970123Y-117559609D01*
X31970123Y-117797704D01*
X31922504Y-117892942D01*
X31874885Y-117940561D01*
X31779647Y-117988180D01*
X31541552Y-117988180D01*
X31446314Y-117940561D01*
X31398695Y-117892942D01*
%TO.C,MX33*%
X28398695Y-137036980D02*
X28398695Y-136036980D01*
X28732028Y-136751266D01*
X29065361Y-136036980D01*
X29065361Y-137036980D01*
X29446314Y-136036980D02*
X30112980Y-137036980D01*
X30112980Y-136036980D02*
X29446314Y-137036980D01*
X30398695Y-136036980D02*
X31017742Y-136036980D01*
X30684409Y-136417933D01*
X30827266Y-136417933D01*
X30922504Y-136465552D01*
X30970123Y-136513171D01*
X31017742Y-136608409D01*
X31017742Y-136846504D01*
X30970123Y-136941742D01*
X30922504Y-136989361D01*
X30827266Y-137036980D01*
X30541552Y-137036980D01*
X30446314Y-136989361D01*
X30398695Y-136941742D01*
X31351076Y-136036980D02*
X31970123Y-136036980D01*
X31636790Y-136417933D01*
X31779647Y-136417933D01*
X31874885Y-136465552D01*
X31922504Y-136513171D01*
X31970123Y-136608409D01*
X31970123Y-136846504D01*
X31922504Y-136941742D01*
X31874885Y-136989361D01*
X31779647Y-137036980D01*
X31493933Y-137036980D01*
X31398695Y-136989361D01*
X31351076Y-136941742D01*
%TO.C,MX51*%
X28398695Y-156085780D02*
X28398695Y-155085780D01*
X28732028Y-155800066D01*
X29065361Y-155085780D01*
X29065361Y-156085780D01*
X29446314Y-155085780D02*
X30112980Y-156085780D01*
X30112980Y-155085780D02*
X29446314Y-156085780D01*
X30970123Y-155085780D02*
X30493933Y-155085780D01*
X30446314Y-155561971D01*
X30493933Y-155514352D01*
X30589171Y-155466733D01*
X30827266Y-155466733D01*
X30922504Y-155514352D01*
X30970123Y-155561971D01*
X31017742Y-155657209D01*
X31017742Y-155895304D01*
X30970123Y-155990542D01*
X30922504Y-156038161D01*
X30827266Y-156085780D01*
X30589171Y-156085780D01*
X30493933Y-156038161D01*
X30446314Y-155990542D01*
X31970123Y-156085780D02*
X31398695Y-156085780D01*
X31684409Y-156085780D02*
X31684409Y-155085780D01*
X31589171Y-155228638D01*
X31493933Y-155323876D01*
X31398695Y-155371495D01*
%TO.C,MX65*%
X28398695Y-175134580D02*
X28398695Y-174134580D01*
X28732028Y-174848866D01*
X29065361Y-174134580D01*
X29065361Y-175134580D01*
X29446314Y-174134580D02*
X30112980Y-175134580D01*
X30112980Y-174134580D02*
X29446314Y-175134580D01*
X30922504Y-174134580D02*
X30732028Y-174134580D01*
X30636790Y-174182200D01*
X30589171Y-174229819D01*
X30493933Y-174372676D01*
X30446314Y-174563152D01*
X30446314Y-174944104D01*
X30493933Y-175039342D01*
X30541552Y-175086961D01*
X30636790Y-175134580D01*
X30827266Y-175134580D01*
X30922504Y-175086961D01*
X30970123Y-175039342D01*
X31017742Y-174944104D01*
X31017742Y-174706009D01*
X30970123Y-174610771D01*
X30922504Y-174563152D01*
X30827266Y-174515533D01*
X30636790Y-174515533D01*
X30541552Y-174563152D01*
X30493933Y-174610771D01*
X30446314Y-174706009D01*
X31922504Y-174134580D02*
X31446314Y-174134580D01*
X31398695Y-174610771D01*
X31446314Y-174563152D01*
X31541552Y-174515533D01*
X31779647Y-174515533D01*
X31874885Y-174563152D01*
X31922504Y-174610771D01*
X31970123Y-174706009D01*
X31970123Y-174944104D01*
X31922504Y-175039342D01*
X31874885Y-175086961D01*
X31779647Y-175134580D01*
X31541552Y-175134580D01*
X31446314Y-175086961D01*
X31398695Y-175039342D01*
%TO.C,MX1*%
X52685885Y-89414980D02*
X52685885Y-88414980D01*
X53019219Y-89129266D01*
X53352552Y-88414980D01*
X53352552Y-89414980D01*
X53733504Y-88414980D02*
X54400171Y-89414980D01*
X54400171Y-88414980D02*
X53733504Y-89414980D01*
X55304933Y-89414980D02*
X54733504Y-89414980D01*
X55019219Y-89414980D02*
X55019219Y-88414980D01*
X54923980Y-88557838D01*
X54828742Y-88653076D01*
X54733504Y-88700695D01*
%TO.C,MX16*%
X52209695Y-117988180D02*
X52209695Y-116988180D01*
X52543028Y-117702466D01*
X52876361Y-116988180D01*
X52876361Y-117988180D01*
X53257314Y-116988180D02*
X53923980Y-117988180D01*
X53923980Y-116988180D02*
X53257314Y-117988180D01*
X54828742Y-117988180D02*
X54257314Y-117988180D01*
X54543028Y-117988180D02*
X54543028Y-116988180D01*
X54447790Y-117131038D01*
X54352552Y-117226276D01*
X54257314Y-117273895D01*
X55685885Y-116988180D02*
X55495409Y-116988180D01*
X55400171Y-117035800D01*
X55352552Y-117083419D01*
X55257314Y-117226276D01*
X55209695Y-117416752D01*
X55209695Y-117797704D01*
X55257314Y-117892942D01*
X55304933Y-117940561D01*
X55400171Y-117988180D01*
X55590647Y-117988180D01*
X55685885Y-117940561D01*
X55733504Y-117892942D01*
X55781123Y-117797704D01*
X55781123Y-117559609D01*
X55733504Y-117464371D01*
X55685885Y-117416752D01*
X55590647Y-117369133D01*
X55400171Y-117369133D01*
X55304933Y-117416752D01*
X55257314Y-117464371D01*
X55209695Y-117559609D01*
%TO.C,MX34*%
X56971895Y-137036980D02*
X56971895Y-136036980D01*
X57305228Y-136751266D01*
X57638561Y-136036980D01*
X57638561Y-137036980D01*
X58019514Y-136036980D02*
X58686180Y-137036980D01*
X58686180Y-136036980D02*
X58019514Y-137036980D01*
X58971895Y-136036980D02*
X59590942Y-136036980D01*
X59257609Y-136417933D01*
X59400466Y-136417933D01*
X59495704Y-136465552D01*
X59543323Y-136513171D01*
X59590942Y-136608409D01*
X59590942Y-136846504D01*
X59543323Y-136941742D01*
X59495704Y-136989361D01*
X59400466Y-137036980D01*
X59114752Y-137036980D01*
X59019514Y-136989361D01*
X58971895Y-136941742D01*
X60448085Y-136370314D02*
X60448085Y-137036980D01*
X60209990Y-135989361D02*
X59971895Y-136703647D01*
X60590942Y-136703647D01*
%TO.C,MX79*%
X28398695Y-194183380D02*
X28398695Y-193183380D01*
X28732028Y-193897666D01*
X29065361Y-193183380D01*
X29065361Y-194183380D01*
X29446314Y-193183380D02*
X30112980Y-194183380D01*
X30112980Y-193183380D02*
X29446314Y-194183380D01*
X30398695Y-193183380D02*
X31065361Y-193183380D01*
X30636790Y-194183380D01*
X31493933Y-194183380D02*
X31684409Y-194183380D01*
X31779647Y-194135761D01*
X31827266Y-194088142D01*
X31922504Y-193945285D01*
X31970123Y-193754809D01*
X31970123Y-193373857D01*
X31922504Y-193278619D01*
X31874885Y-193231000D01*
X31779647Y-193183380D01*
X31589171Y-193183380D01*
X31493933Y-193231000D01*
X31446314Y-193278619D01*
X31398695Y-193373857D01*
X31398695Y-193611952D01*
X31446314Y-193707190D01*
X31493933Y-193754809D01*
X31589171Y-193802428D01*
X31779647Y-193802428D01*
X31874885Y-193754809D01*
X31922504Y-193707190D01*
X31970123Y-193611952D01*
%TO.C,MX18*%
X90307295Y-117988180D02*
X90307295Y-116988180D01*
X90640628Y-117702466D01*
X90973961Y-116988180D01*
X90973961Y-117988180D01*
X91354914Y-116988180D02*
X92021580Y-117988180D01*
X92021580Y-116988180D02*
X91354914Y-117988180D01*
X92926342Y-117988180D02*
X92354914Y-117988180D01*
X92640628Y-117988180D02*
X92640628Y-116988180D01*
X92545390Y-117131038D01*
X92450152Y-117226276D01*
X92354914Y-117273895D01*
X93497771Y-117416752D02*
X93402533Y-117369133D01*
X93354914Y-117321514D01*
X93307295Y-117226276D01*
X93307295Y-117178657D01*
X93354914Y-117083419D01*
X93402533Y-117035800D01*
X93497771Y-116988180D01*
X93688247Y-116988180D01*
X93783485Y-117035800D01*
X93831104Y-117083419D01*
X93878723Y-117178657D01*
X93878723Y-117226276D01*
X93831104Y-117321514D01*
X93783485Y-117369133D01*
X93688247Y-117416752D01*
X93497771Y-117416752D01*
X93402533Y-117464371D01*
X93354914Y-117511990D01*
X93307295Y-117607228D01*
X93307295Y-117797704D01*
X93354914Y-117892942D01*
X93402533Y-117940561D01*
X93497771Y-117988180D01*
X93688247Y-117988180D01*
X93783485Y-117940561D01*
X93831104Y-117892942D01*
X93878723Y-117797704D01*
X93878723Y-117607228D01*
X93831104Y-117511990D01*
X93783485Y-117464371D01*
X93688247Y-117416752D01*
%TO.C,MX36*%
X99831695Y-137036980D02*
X99831695Y-136036980D01*
X100165028Y-136751266D01*
X100498361Y-136036980D01*
X100498361Y-137036980D01*
X100879314Y-136036980D02*
X101545980Y-137036980D01*
X101545980Y-136036980D02*
X100879314Y-137036980D01*
X101831695Y-136036980D02*
X102450742Y-136036980D01*
X102117409Y-136417933D01*
X102260266Y-136417933D01*
X102355504Y-136465552D01*
X102403123Y-136513171D01*
X102450742Y-136608409D01*
X102450742Y-136846504D01*
X102403123Y-136941742D01*
X102355504Y-136989361D01*
X102260266Y-137036980D01*
X101974552Y-137036980D01*
X101879314Y-136989361D01*
X101831695Y-136941742D01*
X103307885Y-136036980D02*
X103117409Y-136036980D01*
X103022171Y-136084600D01*
X102974552Y-136132219D01*
X102879314Y-136275076D01*
X102831695Y-136465552D01*
X102831695Y-136846504D01*
X102879314Y-136941742D01*
X102926933Y-136989361D01*
X103022171Y-137036980D01*
X103212647Y-137036980D01*
X103307885Y-136989361D01*
X103355504Y-136941742D01*
X103403123Y-136846504D01*
X103403123Y-136608409D01*
X103355504Y-136513171D01*
X103307885Y-136465552D01*
X103212647Y-136417933D01*
X103022171Y-136417933D01*
X102926933Y-136465552D01*
X102879314Y-136513171D01*
X102831695Y-136608409D01*
%TO.C,MX54*%
X104593895Y-156085780D02*
X104593895Y-155085780D01*
X104927228Y-155800066D01*
X105260561Y-155085780D01*
X105260561Y-156085780D01*
X105641514Y-155085780D02*
X106308180Y-156085780D01*
X106308180Y-155085780D02*
X105641514Y-156085780D01*
X107165323Y-155085780D02*
X106689133Y-155085780D01*
X106641514Y-155561971D01*
X106689133Y-155514352D01*
X106784371Y-155466733D01*
X107022466Y-155466733D01*
X107117704Y-155514352D01*
X107165323Y-155561971D01*
X107212942Y-155657209D01*
X107212942Y-155895304D01*
X107165323Y-155990542D01*
X107117704Y-156038161D01*
X107022466Y-156085780D01*
X106784371Y-156085780D01*
X106689133Y-156038161D01*
X106641514Y-155990542D01*
X108070085Y-155419114D02*
X108070085Y-156085780D01*
X107831990Y-155038161D02*
X107593895Y-155752447D01*
X108212942Y-155752447D01*
%TO.C,MX67*%
X95069495Y-175134580D02*
X95069495Y-174134580D01*
X95402828Y-174848866D01*
X95736161Y-174134580D01*
X95736161Y-175134580D01*
X96117114Y-174134580D02*
X96783780Y-175134580D01*
X96783780Y-174134580D02*
X96117114Y-175134580D01*
X97593304Y-174134580D02*
X97402828Y-174134580D01*
X97307590Y-174182200D01*
X97259971Y-174229819D01*
X97164733Y-174372676D01*
X97117114Y-174563152D01*
X97117114Y-174944104D01*
X97164733Y-175039342D01*
X97212352Y-175086961D01*
X97307590Y-175134580D01*
X97498066Y-175134580D01*
X97593304Y-175086961D01*
X97640923Y-175039342D01*
X97688542Y-174944104D01*
X97688542Y-174706009D01*
X97640923Y-174610771D01*
X97593304Y-174563152D01*
X97498066Y-174515533D01*
X97307590Y-174515533D01*
X97212352Y-174563152D01*
X97164733Y-174610771D01*
X97117114Y-174706009D01*
X98021876Y-174134580D02*
X98688542Y-174134580D01*
X98259971Y-175134580D01*
%TO.C,MX82*%
X102212795Y-194183380D02*
X102212795Y-193183380D01*
X102546128Y-193897666D01*
X102879461Y-193183380D01*
X102879461Y-194183380D01*
X103260414Y-193183380D02*
X103927080Y-194183380D01*
X103927080Y-193183380D02*
X103260414Y-194183380D01*
X104450890Y-193611952D02*
X104355652Y-193564333D01*
X104308033Y-193516714D01*
X104260414Y-193421476D01*
X104260414Y-193373857D01*
X104308033Y-193278619D01*
X104355652Y-193231000D01*
X104450890Y-193183380D01*
X104641366Y-193183380D01*
X104736604Y-193231000D01*
X104784223Y-193278619D01*
X104831842Y-193373857D01*
X104831842Y-193421476D01*
X104784223Y-193516714D01*
X104736604Y-193564333D01*
X104641366Y-193611952D01*
X104450890Y-193611952D01*
X104355652Y-193659571D01*
X104308033Y-193707190D01*
X104260414Y-193802428D01*
X104260414Y-193992904D01*
X104308033Y-194088142D01*
X104355652Y-194135761D01*
X104450890Y-194183380D01*
X104641366Y-194183380D01*
X104736604Y-194135761D01*
X104784223Y-194088142D01*
X104831842Y-193992904D01*
X104831842Y-193802428D01*
X104784223Y-193707190D01*
X104736604Y-193659571D01*
X104641366Y-193611952D01*
X105212795Y-193278619D02*
X105260414Y-193231000D01*
X105355652Y-193183380D01*
X105593747Y-193183380D01*
X105688985Y-193231000D01*
X105736604Y-193278619D01*
X105784223Y-193373857D01*
X105784223Y-193469095D01*
X105736604Y-193611952D01*
X105165176Y-194183380D01*
X105784223Y-194183380D01*
%TO.C,MX17*%
X71258495Y-117988180D02*
X71258495Y-116988180D01*
X71591828Y-117702466D01*
X71925161Y-116988180D01*
X71925161Y-117988180D01*
X72306114Y-116988180D02*
X72972780Y-117988180D01*
X72972780Y-116988180D02*
X72306114Y-117988180D01*
X73877542Y-117988180D02*
X73306114Y-117988180D01*
X73591828Y-117988180D02*
X73591828Y-116988180D01*
X73496590Y-117131038D01*
X73401352Y-117226276D01*
X73306114Y-117273895D01*
X74210876Y-116988180D02*
X74877542Y-116988180D01*
X74448971Y-117988180D01*
%TO.C,MX35*%
X80782895Y-137036980D02*
X80782895Y-136036980D01*
X81116228Y-136751266D01*
X81449561Y-136036980D01*
X81449561Y-137036980D01*
X81830514Y-136036980D02*
X82497180Y-137036980D01*
X82497180Y-136036980D02*
X81830514Y-137036980D01*
X82782895Y-136036980D02*
X83401942Y-136036980D01*
X83068609Y-136417933D01*
X83211466Y-136417933D01*
X83306704Y-136465552D01*
X83354323Y-136513171D01*
X83401942Y-136608409D01*
X83401942Y-136846504D01*
X83354323Y-136941742D01*
X83306704Y-136989361D01*
X83211466Y-137036980D01*
X82925752Y-137036980D01*
X82830514Y-136989361D01*
X82782895Y-136941742D01*
X84306704Y-136036980D02*
X83830514Y-136036980D01*
X83782895Y-136513171D01*
X83830514Y-136465552D01*
X83925752Y-136417933D01*
X84163847Y-136417933D01*
X84259085Y-136465552D01*
X84306704Y-136513171D01*
X84354323Y-136608409D01*
X84354323Y-136846504D01*
X84306704Y-136941742D01*
X84259085Y-136989361D01*
X84163847Y-137036980D01*
X83925752Y-137036980D01*
X83830514Y-136989361D01*
X83782895Y-136941742D01*
%TO.C,MX53*%
X85486795Y-156085780D02*
X85486795Y-155085780D01*
X85820128Y-155800066D01*
X86153461Y-155085780D01*
X86153461Y-156085780D01*
X86534414Y-155085780D02*
X87201080Y-156085780D01*
X87201080Y-155085780D02*
X86534414Y-156085780D01*
X88058223Y-155085780D02*
X87582033Y-155085780D01*
X87534414Y-155561971D01*
X87582033Y-155514352D01*
X87677271Y-155466733D01*
X87915366Y-155466733D01*
X88010604Y-155514352D01*
X88058223Y-155561971D01*
X88105842Y-155657209D01*
X88105842Y-155895304D01*
X88058223Y-155990542D01*
X88010604Y-156038161D01*
X87915366Y-156085780D01*
X87677271Y-156085780D01*
X87582033Y-156038161D01*
X87534414Y-155990542D01*
X88439176Y-155085780D02*
X89058223Y-155085780D01*
X88724890Y-155466733D01*
X88867747Y-155466733D01*
X88962985Y-155514352D01*
X89010604Y-155561971D01*
X89058223Y-155657209D01*
X89058223Y-155895304D01*
X89010604Y-155990542D01*
X88962985Y-156038161D01*
X88867747Y-156085780D01*
X88582033Y-156085780D01*
X88486795Y-156038161D01*
X88439176Y-155990542D01*
%TO.C,MX66*%
X64115195Y-175134580D02*
X64115195Y-174134580D01*
X64448528Y-174848866D01*
X64781861Y-174134580D01*
X64781861Y-175134580D01*
X65162814Y-174134580D02*
X65829480Y-175134580D01*
X65829480Y-174134580D02*
X65162814Y-175134580D01*
X66639004Y-174134580D02*
X66448528Y-174134580D01*
X66353290Y-174182200D01*
X66305671Y-174229819D01*
X66210433Y-174372676D01*
X66162814Y-174563152D01*
X66162814Y-174944104D01*
X66210433Y-175039342D01*
X66258052Y-175086961D01*
X66353290Y-175134580D01*
X66543766Y-175134580D01*
X66639004Y-175086961D01*
X66686623Y-175039342D01*
X66734242Y-174944104D01*
X66734242Y-174706009D01*
X66686623Y-174610771D01*
X66639004Y-174563152D01*
X66543766Y-174515533D01*
X66353290Y-174515533D01*
X66258052Y-174563152D01*
X66210433Y-174610771D01*
X66162814Y-174706009D01*
X67591385Y-174134580D02*
X67400909Y-174134580D01*
X67305671Y-174182200D01*
X67258052Y-174229819D01*
X67162814Y-174372676D01*
X67115195Y-174563152D01*
X67115195Y-174944104D01*
X67162814Y-175039342D01*
X67210433Y-175086961D01*
X67305671Y-175134580D01*
X67496147Y-175134580D01*
X67591385Y-175086961D01*
X67639004Y-175039342D01*
X67686623Y-174944104D01*
X67686623Y-174706009D01*
X67639004Y-174610771D01*
X67591385Y-174563152D01*
X67496147Y-174515533D01*
X67305671Y-174515533D01*
X67210433Y-174563152D01*
X67162814Y-174610771D01*
X67115195Y-174706009D01*
%TO.C,MX81*%
X79989195Y-194183380D02*
X79989195Y-193183380D01*
X80322528Y-193897666D01*
X80655861Y-193183380D01*
X80655861Y-194183380D01*
X81036814Y-193183380D02*
X81703480Y-194183380D01*
X81703480Y-193183380D02*
X81036814Y-194183380D01*
X82227290Y-193611952D02*
X82132052Y-193564333D01*
X82084433Y-193516714D01*
X82036814Y-193421476D01*
X82036814Y-193373857D01*
X82084433Y-193278619D01*
X82132052Y-193231000D01*
X82227290Y-193183380D01*
X82417766Y-193183380D01*
X82513004Y-193231000D01*
X82560623Y-193278619D01*
X82608242Y-193373857D01*
X82608242Y-193421476D01*
X82560623Y-193516714D01*
X82513004Y-193564333D01*
X82417766Y-193611952D01*
X82227290Y-193611952D01*
X82132052Y-193659571D01*
X82084433Y-193707190D01*
X82036814Y-193802428D01*
X82036814Y-193992904D01*
X82084433Y-194088142D01*
X82132052Y-194135761D01*
X82227290Y-194183380D01*
X82417766Y-194183380D01*
X82513004Y-194135761D01*
X82560623Y-194088142D01*
X82608242Y-193992904D01*
X82608242Y-193802428D01*
X82560623Y-193707190D01*
X82513004Y-193659571D01*
X82417766Y-193611952D01*
X83560623Y-194183380D02*
X82989195Y-194183380D01*
X83274909Y-194183380D02*
X83274909Y-193183380D01*
X83179671Y-193326238D01*
X83084433Y-193421476D01*
X82989195Y-193469095D01*
%TO.C,MX3*%
X109832285Y-89414980D02*
X109832285Y-88414980D01*
X110165619Y-89129266D01*
X110498952Y-88414980D01*
X110498952Y-89414980D01*
X110879904Y-88414980D02*
X111546571Y-89414980D01*
X111546571Y-88414980D02*
X110879904Y-89414980D01*
X111832285Y-88414980D02*
X112451333Y-88414980D01*
X112118000Y-88795933D01*
X112260857Y-88795933D01*
X112356095Y-88843552D01*
X112403714Y-88891171D01*
X112451333Y-88986409D01*
X112451333Y-89224504D01*
X112403714Y-89319742D01*
X112356095Y-89367361D01*
X112260857Y-89414980D01*
X111975142Y-89414980D01*
X111879904Y-89367361D01*
X111832285Y-89319742D01*
%TO.C,MX37*%
X118880495Y-137036980D02*
X118880495Y-136036980D01*
X119213828Y-136751266D01*
X119547161Y-136036980D01*
X119547161Y-137036980D01*
X119928114Y-136036980D02*
X120594780Y-137036980D01*
X120594780Y-136036980D02*
X119928114Y-137036980D01*
X120880495Y-136036980D02*
X121499542Y-136036980D01*
X121166209Y-136417933D01*
X121309066Y-136417933D01*
X121404304Y-136465552D01*
X121451923Y-136513171D01*
X121499542Y-136608409D01*
X121499542Y-136846504D01*
X121451923Y-136941742D01*
X121404304Y-136989361D01*
X121309066Y-137036980D01*
X121023352Y-137036980D01*
X120928114Y-136989361D01*
X120880495Y-136941742D01*
X121832876Y-136036980D02*
X122499542Y-136036980D01*
X122070971Y-137036980D01*
%TO.C,MX55*%
X123642695Y-156085780D02*
X123642695Y-155085780D01*
X123976028Y-155800066D01*
X124309361Y-155085780D01*
X124309361Y-156085780D01*
X124690314Y-155085780D02*
X125356980Y-156085780D01*
X125356980Y-155085780D02*
X124690314Y-156085780D01*
X126214123Y-155085780D02*
X125737933Y-155085780D01*
X125690314Y-155561971D01*
X125737933Y-155514352D01*
X125833171Y-155466733D01*
X126071266Y-155466733D01*
X126166504Y-155514352D01*
X126214123Y-155561971D01*
X126261742Y-155657209D01*
X126261742Y-155895304D01*
X126214123Y-155990542D01*
X126166504Y-156038161D01*
X126071266Y-156085780D01*
X125833171Y-156085780D01*
X125737933Y-156038161D01*
X125690314Y-155990542D01*
X127166504Y-155085780D02*
X126690314Y-155085780D01*
X126642695Y-155561971D01*
X126690314Y-155514352D01*
X126785552Y-155466733D01*
X127023647Y-155466733D01*
X127118885Y-155514352D01*
X127166504Y-155561971D01*
X127214123Y-155657209D01*
X127214123Y-155895304D01*
X127166504Y-155990542D01*
X127118885Y-156038161D01*
X127023647Y-156085780D01*
X126785552Y-156085780D01*
X126690314Y-156038161D01*
X126642695Y-155990542D01*
%TO.C,MX68*%
X114118295Y-175134580D02*
X114118295Y-174134580D01*
X114451628Y-174848866D01*
X114784961Y-174134580D01*
X114784961Y-175134580D01*
X115165914Y-174134580D02*
X115832580Y-175134580D01*
X115832580Y-174134580D02*
X115165914Y-175134580D01*
X116642104Y-174134580D02*
X116451628Y-174134580D01*
X116356390Y-174182200D01*
X116308771Y-174229819D01*
X116213533Y-174372676D01*
X116165914Y-174563152D01*
X116165914Y-174944104D01*
X116213533Y-175039342D01*
X116261152Y-175086961D01*
X116356390Y-175134580D01*
X116546866Y-175134580D01*
X116642104Y-175086961D01*
X116689723Y-175039342D01*
X116737342Y-174944104D01*
X116737342Y-174706009D01*
X116689723Y-174610771D01*
X116642104Y-174563152D01*
X116546866Y-174515533D01*
X116356390Y-174515533D01*
X116261152Y-174563152D01*
X116213533Y-174610771D01*
X116165914Y-174706009D01*
X117308771Y-174563152D02*
X117213533Y-174515533D01*
X117165914Y-174467914D01*
X117118295Y-174372676D01*
X117118295Y-174325057D01*
X117165914Y-174229819D01*
X117213533Y-174182200D01*
X117308771Y-174134580D01*
X117499247Y-174134580D01*
X117594485Y-174182200D01*
X117642104Y-174229819D01*
X117689723Y-174325057D01*
X117689723Y-174372676D01*
X117642104Y-174467914D01*
X117594485Y-174515533D01*
X117499247Y-174563152D01*
X117308771Y-174563152D01*
X117213533Y-174610771D01*
X117165914Y-174658390D01*
X117118295Y-174753628D01*
X117118295Y-174944104D01*
X117165914Y-175039342D01*
X117213533Y-175086961D01*
X117308771Y-175134580D01*
X117499247Y-175134580D01*
X117594485Y-175086961D01*
X117642104Y-175039342D01*
X117689723Y-174944104D01*
X117689723Y-174753628D01*
X117642104Y-174658390D01*
X117594485Y-174610771D01*
X117499247Y-174563152D01*
%TO.C,MX70*%
X152215895Y-175134580D02*
X152215895Y-174134580D01*
X152549228Y-174848866D01*
X152882561Y-174134580D01*
X152882561Y-175134580D01*
X153263514Y-174134580D02*
X153930180Y-175134580D01*
X153930180Y-174134580D02*
X153263514Y-175134580D01*
X154215895Y-174134580D02*
X154882561Y-174134580D01*
X154453990Y-175134580D01*
X155453990Y-174134580D02*
X155549228Y-174134580D01*
X155644466Y-174182200D01*
X155692085Y-174229819D01*
X155739704Y-174325057D01*
X155787323Y-174515533D01*
X155787323Y-174753628D01*
X155739704Y-174944104D01*
X155692085Y-175039342D01*
X155644466Y-175086961D01*
X155549228Y-175134580D01*
X155453990Y-175134580D01*
X155358752Y-175086961D01*
X155311133Y-175039342D01*
X155263514Y-174944104D01*
X155215895Y-174753628D01*
X155215895Y-174515533D01*
X155263514Y-174325057D01*
X155311133Y-174229819D01*
X155358752Y-174182200D01*
X155453990Y-174134580D01*
%TO.C,MX4*%
X128881085Y-89414980D02*
X128881085Y-88414980D01*
X129214419Y-89129266D01*
X129547752Y-88414980D01*
X129547752Y-89414980D01*
X129928704Y-88414980D02*
X130595371Y-89414980D01*
X130595371Y-88414980D02*
X129928704Y-89414980D01*
X131404895Y-88748314D02*
X131404895Y-89414980D01*
X131166800Y-88367361D02*
X130928704Y-89081647D01*
X131547752Y-89081647D01*
%TO.C,MX20*%
X128404895Y-117988180D02*
X128404895Y-116988180D01*
X128738228Y-117702466D01*
X129071561Y-116988180D01*
X129071561Y-117988180D01*
X129452514Y-116988180D02*
X130119180Y-117988180D01*
X130119180Y-116988180D02*
X129452514Y-117988180D01*
X130452514Y-117083419D02*
X130500133Y-117035800D01*
X130595371Y-116988180D01*
X130833466Y-116988180D01*
X130928704Y-117035800D01*
X130976323Y-117083419D01*
X131023942Y-117178657D01*
X131023942Y-117273895D01*
X130976323Y-117416752D01*
X130404895Y-117988180D01*
X131023942Y-117988180D01*
X131642990Y-116988180D02*
X131738228Y-116988180D01*
X131833466Y-117035800D01*
X131881085Y-117083419D01*
X131928704Y-117178657D01*
X131976323Y-117369133D01*
X131976323Y-117607228D01*
X131928704Y-117797704D01*
X131881085Y-117892942D01*
X131833466Y-117940561D01*
X131738228Y-117988180D01*
X131642990Y-117988180D01*
X131547752Y-117940561D01*
X131500133Y-117892942D01*
X131452514Y-117797704D01*
X131404895Y-117607228D01*
X131404895Y-117369133D01*
X131452514Y-117178657D01*
X131500133Y-117083419D01*
X131547752Y-117035800D01*
X131642990Y-116988180D01*
%TO.C,MX38*%
X137929295Y-137036980D02*
X137929295Y-136036980D01*
X138262628Y-136751266D01*
X138595961Y-136036980D01*
X138595961Y-137036980D01*
X138976914Y-136036980D02*
X139643580Y-137036980D01*
X139643580Y-136036980D02*
X138976914Y-137036980D01*
X139929295Y-136036980D02*
X140548342Y-136036980D01*
X140215009Y-136417933D01*
X140357866Y-136417933D01*
X140453104Y-136465552D01*
X140500723Y-136513171D01*
X140548342Y-136608409D01*
X140548342Y-136846504D01*
X140500723Y-136941742D01*
X140453104Y-136989361D01*
X140357866Y-137036980D01*
X140072152Y-137036980D01*
X139976914Y-136989361D01*
X139929295Y-136941742D01*
X141119771Y-136465552D02*
X141024533Y-136417933D01*
X140976914Y-136370314D01*
X140929295Y-136275076D01*
X140929295Y-136227457D01*
X140976914Y-136132219D01*
X141024533Y-136084600D01*
X141119771Y-136036980D01*
X141310247Y-136036980D01*
X141405485Y-136084600D01*
X141453104Y-136132219D01*
X141500723Y-136227457D01*
X141500723Y-136275076D01*
X141453104Y-136370314D01*
X141405485Y-136417933D01*
X141310247Y-136465552D01*
X141119771Y-136465552D01*
X141024533Y-136513171D01*
X140976914Y-136560790D01*
X140929295Y-136656028D01*
X140929295Y-136846504D01*
X140976914Y-136941742D01*
X141024533Y-136989361D01*
X141119771Y-137036980D01*
X141310247Y-137036980D01*
X141405485Y-136989361D01*
X141453104Y-136941742D01*
X141500723Y-136846504D01*
X141500723Y-136656028D01*
X141453104Y-136560790D01*
X141405485Y-136513171D01*
X141310247Y-136465552D01*
%TO.C,MX56*%
X142691495Y-156085780D02*
X142691495Y-155085780D01*
X143024828Y-155800066D01*
X143358161Y-155085780D01*
X143358161Y-156085780D01*
X143739114Y-155085780D02*
X144405780Y-156085780D01*
X144405780Y-155085780D02*
X143739114Y-156085780D01*
X145262923Y-155085780D02*
X144786733Y-155085780D01*
X144739114Y-155561971D01*
X144786733Y-155514352D01*
X144881971Y-155466733D01*
X145120066Y-155466733D01*
X145215304Y-155514352D01*
X145262923Y-155561971D01*
X145310542Y-155657209D01*
X145310542Y-155895304D01*
X145262923Y-155990542D01*
X145215304Y-156038161D01*
X145120066Y-156085780D01*
X144881971Y-156085780D01*
X144786733Y-156038161D01*
X144739114Y-155990542D01*
X146167685Y-155085780D02*
X145977209Y-155085780D01*
X145881971Y-155133400D01*
X145834352Y-155181019D01*
X145739114Y-155323876D01*
X145691495Y-155514352D01*
X145691495Y-155895304D01*
X145739114Y-155990542D01*
X145786733Y-156038161D01*
X145881971Y-156085780D01*
X146072447Y-156085780D01*
X146167685Y-156038161D01*
X146215304Y-155990542D01*
X146262923Y-155895304D01*
X146262923Y-155657209D01*
X146215304Y-155561971D01*
X146167685Y-155514352D01*
X146072447Y-155466733D01*
X145881971Y-155466733D01*
X145786733Y-155514352D01*
X145739114Y-155561971D01*
X145691495Y-155657209D01*
%TO.C,MX69*%
X133167095Y-175134580D02*
X133167095Y-174134580D01*
X133500428Y-174848866D01*
X133833761Y-174134580D01*
X133833761Y-175134580D01*
X134214714Y-174134580D02*
X134881380Y-175134580D01*
X134881380Y-174134580D02*
X134214714Y-175134580D01*
X135690904Y-174134580D02*
X135500428Y-174134580D01*
X135405190Y-174182200D01*
X135357571Y-174229819D01*
X135262333Y-174372676D01*
X135214714Y-174563152D01*
X135214714Y-174944104D01*
X135262333Y-175039342D01*
X135309952Y-175086961D01*
X135405190Y-175134580D01*
X135595666Y-175134580D01*
X135690904Y-175086961D01*
X135738523Y-175039342D01*
X135786142Y-174944104D01*
X135786142Y-174706009D01*
X135738523Y-174610771D01*
X135690904Y-174563152D01*
X135595666Y-174515533D01*
X135405190Y-174515533D01*
X135309952Y-174563152D01*
X135262333Y-174610771D01*
X135214714Y-174706009D01*
X136262333Y-175134580D02*
X136452809Y-175134580D01*
X136548047Y-175086961D01*
X136595666Y-175039342D01*
X136690904Y-174896485D01*
X136738523Y-174706009D01*
X136738523Y-174325057D01*
X136690904Y-174229819D01*
X136643285Y-174182200D01*
X136548047Y-174134580D01*
X136357571Y-174134580D01*
X136262333Y-174182200D01*
X136214714Y-174229819D01*
X136167095Y-174325057D01*
X136167095Y-174563152D01*
X136214714Y-174658390D01*
X136262333Y-174706009D01*
X136357571Y-174753628D01*
X136548047Y-174753628D01*
X136643285Y-174706009D01*
X136690904Y-174658390D01*
X136738523Y-174563152D01*
%TO.C,MX5*%
X147929885Y-89414980D02*
X147929885Y-88414980D01*
X148263219Y-89129266D01*
X148596552Y-88414980D01*
X148596552Y-89414980D01*
X148977504Y-88414980D02*
X149644171Y-89414980D01*
X149644171Y-88414980D02*
X148977504Y-89414980D01*
X150501314Y-88414980D02*
X150025123Y-88414980D01*
X149977504Y-88891171D01*
X150025123Y-88843552D01*
X150120361Y-88795933D01*
X150358457Y-88795933D01*
X150453695Y-88843552D01*
X150501314Y-88891171D01*
X150548933Y-88986409D01*
X150548933Y-89224504D01*
X150501314Y-89319742D01*
X150453695Y-89367361D01*
X150358457Y-89414980D01*
X150120361Y-89414980D01*
X150025123Y-89367361D01*
X149977504Y-89319742D01*
%TO.C,MX39*%
X156978095Y-137036980D02*
X156978095Y-136036980D01*
X157311428Y-136751266D01*
X157644761Y-136036980D01*
X157644761Y-137036980D01*
X158025714Y-136036980D02*
X158692380Y-137036980D01*
X158692380Y-136036980D02*
X158025714Y-137036980D01*
X158978095Y-136036980D02*
X159597142Y-136036980D01*
X159263809Y-136417933D01*
X159406666Y-136417933D01*
X159501904Y-136465552D01*
X159549523Y-136513171D01*
X159597142Y-136608409D01*
X159597142Y-136846504D01*
X159549523Y-136941742D01*
X159501904Y-136989361D01*
X159406666Y-137036980D01*
X159120952Y-137036980D01*
X159025714Y-136989361D01*
X158978095Y-136941742D01*
X160073333Y-137036980D02*
X160263809Y-137036980D01*
X160359047Y-136989361D01*
X160406666Y-136941742D01*
X160501904Y-136798885D01*
X160549523Y-136608409D01*
X160549523Y-136227457D01*
X160501904Y-136132219D01*
X160454285Y-136084600D01*
X160359047Y-136036980D01*
X160168571Y-136036980D01*
X160073333Y-136084600D01*
X160025714Y-136132219D01*
X159978095Y-136227457D01*
X159978095Y-136465552D01*
X160025714Y-136560790D01*
X160073333Y-136608409D01*
X160168571Y-136656028D01*
X160359047Y-136656028D01*
X160454285Y-136608409D01*
X160501904Y-136560790D01*
X160549523Y-136465552D01*
%TO.C,MX57*%
X161740295Y-156085780D02*
X161740295Y-155085780D01*
X162073628Y-155800066D01*
X162406961Y-155085780D01*
X162406961Y-156085780D01*
X162787914Y-155085780D02*
X163454580Y-156085780D01*
X163454580Y-155085780D02*
X162787914Y-156085780D01*
X164311723Y-155085780D02*
X163835533Y-155085780D01*
X163787914Y-155561971D01*
X163835533Y-155514352D01*
X163930771Y-155466733D01*
X164168866Y-155466733D01*
X164264104Y-155514352D01*
X164311723Y-155561971D01*
X164359342Y-155657209D01*
X164359342Y-155895304D01*
X164311723Y-155990542D01*
X164264104Y-156038161D01*
X164168866Y-156085780D01*
X163930771Y-156085780D01*
X163835533Y-156038161D01*
X163787914Y-155990542D01*
X164692676Y-155085780D02*
X165359342Y-155085780D01*
X164930771Y-156085780D01*
%TO.C,MX71*%
X171264695Y-175134580D02*
X171264695Y-174134580D01*
X171598028Y-174848866D01*
X171931361Y-174134580D01*
X171931361Y-175134580D01*
X172312314Y-174134580D02*
X172978980Y-175134580D01*
X172978980Y-174134580D02*
X172312314Y-175134580D01*
X173264695Y-174134580D02*
X173931361Y-174134580D01*
X173502790Y-175134580D01*
X174836123Y-175134580D02*
X174264695Y-175134580D01*
X174550409Y-175134580D02*
X174550409Y-174134580D01*
X174455171Y-174277438D01*
X174359933Y-174372676D01*
X174264695Y-174420295D01*
%TO.C,MX22*%
X166502495Y-117988180D02*
X166502495Y-116988180D01*
X166835828Y-117702466D01*
X167169161Y-116988180D01*
X167169161Y-117988180D01*
X167550114Y-116988180D02*
X168216780Y-117988180D01*
X168216780Y-116988180D02*
X167550114Y-117988180D01*
X168550114Y-117083419D02*
X168597733Y-117035800D01*
X168692971Y-116988180D01*
X168931066Y-116988180D01*
X169026304Y-117035800D01*
X169073923Y-117083419D01*
X169121542Y-117178657D01*
X169121542Y-117273895D01*
X169073923Y-117416752D01*
X168502495Y-117988180D01*
X169121542Y-117988180D01*
X169502495Y-117083419D02*
X169550114Y-117035800D01*
X169645352Y-116988180D01*
X169883447Y-116988180D01*
X169978685Y-117035800D01*
X170026304Y-117083419D01*
X170073923Y-117178657D01*
X170073923Y-117273895D01*
X170026304Y-117416752D01*
X169454876Y-117988180D01*
X170073923Y-117988180D01*
%TO.C,MX40*%
X176026895Y-137036980D02*
X176026895Y-136036980D01*
X176360228Y-136751266D01*
X176693561Y-136036980D01*
X176693561Y-137036980D01*
X177074514Y-136036980D02*
X177741180Y-137036980D01*
X177741180Y-136036980D02*
X177074514Y-137036980D01*
X178550704Y-136370314D02*
X178550704Y-137036980D01*
X178312609Y-135989361D02*
X178074514Y-136703647D01*
X178693561Y-136703647D01*
X179264990Y-136036980D02*
X179360228Y-136036980D01*
X179455466Y-136084600D01*
X179503085Y-136132219D01*
X179550704Y-136227457D01*
X179598323Y-136417933D01*
X179598323Y-136656028D01*
X179550704Y-136846504D01*
X179503085Y-136941742D01*
X179455466Y-136989361D01*
X179360228Y-137036980D01*
X179264990Y-137036980D01*
X179169752Y-136989361D01*
X179122133Y-136941742D01*
X179074514Y-136846504D01*
X179026895Y-136656028D01*
X179026895Y-136417933D01*
X179074514Y-136227457D01*
X179122133Y-136132219D01*
X179169752Y-136084600D01*
X179264990Y-136036980D01*
%TO.C,MX58*%
X180789095Y-156085780D02*
X180789095Y-155085780D01*
X181122428Y-155800066D01*
X181455761Y-155085780D01*
X181455761Y-156085780D01*
X181836714Y-155085780D02*
X182503380Y-156085780D01*
X182503380Y-155085780D02*
X181836714Y-156085780D01*
X183360523Y-155085780D02*
X182884333Y-155085780D01*
X182836714Y-155561971D01*
X182884333Y-155514352D01*
X182979571Y-155466733D01*
X183217666Y-155466733D01*
X183312904Y-155514352D01*
X183360523Y-155561971D01*
X183408142Y-155657209D01*
X183408142Y-155895304D01*
X183360523Y-155990542D01*
X183312904Y-156038161D01*
X183217666Y-156085780D01*
X182979571Y-156085780D01*
X182884333Y-156038161D01*
X182836714Y-155990542D01*
X183979571Y-155514352D02*
X183884333Y-155466733D01*
X183836714Y-155419114D01*
X183789095Y-155323876D01*
X183789095Y-155276257D01*
X183836714Y-155181019D01*
X183884333Y-155133400D01*
X183979571Y-155085780D01*
X184170047Y-155085780D01*
X184265285Y-155133400D01*
X184312904Y-155181019D01*
X184360523Y-155276257D01*
X184360523Y-155323876D01*
X184312904Y-155419114D01*
X184265285Y-155466733D01*
X184170047Y-155514352D01*
X183979571Y-155514352D01*
X183884333Y-155561971D01*
X183836714Y-155609590D01*
X183789095Y-155704828D01*
X183789095Y-155895304D01*
X183836714Y-155990542D01*
X183884333Y-156038161D01*
X183979571Y-156085780D01*
X184170047Y-156085780D01*
X184265285Y-156038161D01*
X184312904Y-155990542D01*
X184360523Y-155895304D01*
X184360523Y-155704828D01*
X184312904Y-155609590D01*
X184265285Y-155561971D01*
X184170047Y-155514352D01*
%TO.C,MX72*%
X190313495Y-175134580D02*
X190313495Y-174134580D01*
X190646828Y-174848866D01*
X190980161Y-174134580D01*
X190980161Y-175134580D01*
X191361114Y-174134580D02*
X192027780Y-175134580D01*
X192027780Y-174134580D02*
X191361114Y-175134580D01*
X192313495Y-174134580D02*
X192980161Y-174134580D01*
X192551590Y-175134580D01*
X193313495Y-174229819D02*
X193361114Y-174182200D01*
X193456352Y-174134580D01*
X193694447Y-174134580D01*
X193789685Y-174182200D01*
X193837304Y-174229819D01*
X193884923Y-174325057D01*
X193884923Y-174420295D01*
X193837304Y-174563152D01*
X193265876Y-175134580D01*
X193884923Y-175134580D01*
%TO.C,MX7*%
X195551885Y-89414980D02*
X195551885Y-88414980D01*
X195885219Y-89129266D01*
X196218552Y-88414980D01*
X196218552Y-89414980D01*
X196599504Y-88414980D02*
X197266171Y-89414980D01*
X197266171Y-88414980D02*
X196599504Y-89414980D01*
X197551885Y-88414980D02*
X198218552Y-88414980D01*
X197789980Y-89414980D01*
%TO.C,MX23*%
X185551295Y-117988180D02*
X185551295Y-116988180D01*
X185884628Y-117702466D01*
X186217961Y-116988180D01*
X186217961Y-117988180D01*
X186598914Y-116988180D02*
X187265580Y-117988180D01*
X187265580Y-116988180D02*
X186598914Y-117988180D01*
X187598914Y-117083419D02*
X187646533Y-117035800D01*
X187741771Y-116988180D01*
X187979866Y-116988180D01*
X188075104Y-117035800D01*
X188122723Y-117083419D01*
X188170342Y-117178657D01*
X188170342Y-117273895D01*
X188122723Y-117416752D01*
X187551295Y-117988180D01*
X188170342Y-117988180D01*
X188503676Y-116988180D02*
X189122723Y-116988180D01*
X188789390Y-117369133D01*
X188932247Y-117369133D01*
X189027485Y-117416752D01*
X189075104Y-117464371D01*
X189122723Y-117559609D01*
X189122723Y-117797704D01*
X189075104Y-117892942D01*
X189027485Y-117940561D01*
X188932247Y-117988180D01*
X188646533Y-117988180D01*
X188551295Y-117940561D01*
X188503676Y-117892942D01*
%TO.C,MX41*%
X195075695Y-137036980D02*
X195075695Y-136036980D01*
X195409028Y-136751266D01*
X195742361Y-136036980D01*
X195742361Y-137036980D01*
X196123314Y-136036980D02*
X196789980Y-137036980D01*
X196789980Y-136036980D02*
X196123314Y-137036980D01*
X197599504Y-136370314D02*
X197599504Y-137036980D01*
X197361409Y-135989361D02*
X197123314Y-136703647D01*
X197742361Y-136703647D01*
X198647123Y-137036980D02*
X198075695Y-137036980D01*
X198361409Y-137036980D02*
X198361409Y-136036980D01*
X198266171Y-136179838D01*
X198170933Y-136275076D01*
X198075695Y-136322695D01*
%TO.C,MX59*%
X199837895Y-156085780D02*
X199837895Y-155085780D01*
X200171228Y-155800066D01*
X200504561Y-155085780D01*
X200504561Y-156085780D01*
X200885514Y-155085780D02*
X201552180Y-156085780D01*
X201552180Y-155085780D02*
X200885514Y-156085780D01*
X202409323Y-155085780D02*
X201933133Y-155085780D01*
X201885514Y-155561971D01*
X201933133Y-155514352D01*
X202028371Y-155466733D01*
X202266466Y-155466733D01*
X202361704Y-155514352D01*
X202409323Y-155561971D01*
X202456942Y-155657209D01*
X202456942Y-155895304D01*
X202409323Y-155990542D01*
X202361704Y-156038161D01*
X202266466Y-156085780D01*
X202028371Y-156085780D01*
X201933133Y-156038161D01*
X201885514Y-155990542D01*
X202933133Y-156085780D02*
X203123609Y-156085780D01*
X203218847Y-156038161D01*
X203266466Y-155990542D01*
X203361704Y-155847685D01*
X203409323Y-155657209D01*
X203409323Y-155276257D01*
X203361704Y-155181019D01*
X203314085Y-155133400D01*
X203218847Y-155085780D01*
X203028371Y-155085780D01*
X202933133Y-155133400D01*
X202885514Y-155181019D01*
X202837895Y-155276257D01*
X202837895Y-155514352D01*
X202885514Y-155609590D01*
X202933133Y-155657209D01*
X203028371Y-155704828D01*
X203218847Y-155704828D01*
X203314085Y-155657209D01*
X203361704Y-155609590D01*
X203409323Y-155514352D01*
%TO.C,MX73*%
X209362295Y-175134580D02*
X209362295Y-174134580D01*
X209695628Y-174848866D01*
X210028961Y-174134580D01*
X210028961Y-175134580D01*
X210409914Y-174134580D02*
X211076580Y-175134580D01*
X211076580Y-174134580D02*
X210409914Y-175134580D01*
X211362295Y-174134580D02*
X212028961Y-174134580D01*
X211600390Y-175134580D01*
X212314676Y-174134580D02*
X212933723Y-174134580D01*
X212600390Y-174515533D01*
X212743247Y-174515533D01*
X212838485Y-174563152D01*
X212886104Y-174610771D01*
X212933723Y-174706009D01*
X212933723Y-174944104D01*
X212886104Y-175039342D01*
X212838485Y-175086961D01*
X212743247Y-175134580D01*
X212457533Y-175134580D01*
X212362295Y-175086961D01*
X212314676Y-175039342D01*
%TO.C,MX8*%
X214600685Y-89414980D02*
X214600685Y-88414980D01*
X214934019Y-89129266D01*
X215267352Y-88414980D01*
X215267352Y-89414980D01*
X215648304Y-88414980D02*
X216314971Y-89414980D01*
X216314971Y-88414980D02*
X215648304Y-89414980D01*
X216838780Y-88843552D02*
X216743542Y-88795933D01*
X216695923Y-88748314D01*
X216648304Y-88653076D01*
X216648304Y-88605457D01*
X216695923Y-88510219D01*
X216743542Y-88462600D01*
X216838780Y-88414980D01*
X217029257Y-88414980D01*
X217124495Y-88462600D01*
X217172114Y-88510219D01*
X217219733Y-88605457D01*
X217219733Y-88653076D01*
X217172114Y-88748314D01*
X217124495Y-88795933D01*
X217029257Y-88843552D01*
X216838780Y-88843552D01*
X216743542Y-88891171D01*
X216695923Y-88938790D01*
X216648304Y-89034028D01*
X216648304Y-89224504D01*
X216695923Y-89319742D01*
X216743542Y-89367361D01*
X216838780Y-89414980D01*
X217029257Y-89414980D01*
X217124495Y-89367361D01*
X217172114Y-89319742D01*
X217219733Y-89224504D01*
X217219733Y-89034028D01*
X217172114Y-88938790D01*
X217124495Y-88891171D01*
X217029257Y-88843552D01*
%TO.C,MX24*%
X204600095Y-117988180D02*
X204600095Y-116988180D01*
X204933428Y-117702466D01*
X205266761Y-116988180D01*
X205266761Y-117988180D01*
X205647714Y-116988180D02*
X206314380Y-117988180D01*
X206314380Y-116988180D02*
X205647714Y-117988180D01*
X206647714Y-117083419D02*
X206695333Y-117035800D01*
X206790571Y-116988180D01*
X207028666Y-116988180D01*
X207123904Y-117035800D01*
X207171523Y-117083419D01*
X207219142Y-117178657D01*
X207219142Y-117273895D01*
X207171523Y-117416752D01*
X206600095Y-117988180D01*
X207219142Y-117988180D01*
X208076285Y-117321514D02*
X208076285Y-117988180D01*
X207838190Y-116940561D02*
X207600095Y-117654847D01*
X208219142Y-117654847D01*
%TO.C,MX42*%
X214124495Y-137036980D02*
X214124495Y-136036980D01*
X214457828Y-136751266D01*
X214791161Y-136036980D01*
X214791161Y-137036980D01*
X215172114Y-136036980D02*
X215838780Y-137036980D01*
X215838780Y-136036980D02*
X215172114Y-137036980D01*
X216648304Y-136370314D02*
X216648304Y-137036980D01*
X216410209Y-135989361D02*
X216172114Y-136703647D01*
X216791161Y-136703647D01*
X217124495Y-136132219D02*
X217172114Y-136084600D01*
X217267352Y-136036980D01*
X217505447Y-136036980D01*
X217600685Y-136084600D01*
X217648304Y-136132219D01*
X217695923Y-136227457D01*
X217695923Y-136322695D01*
X217648304Y-136465552D01*
X217076876Y-137036980D01*
X217695923Y-137036980D01*
%TO.C,MX60*%
X218886695Y-156085780D02*
X218886695Y-155085780D01*
X219220028Y-155800066D01*
X219553361Y-155085780D01*
X219553361Y-156085780D01*
X219934314Y-155085780D02*
X220600980Y-156085780D01*
X220600980Y-155085780D02*
X219934314Y-156085780D01*
X221410504Y-155085780D02*
X221220028Y-155085780D01*
X221124790Y-155133400D01*
X221077171Y-155181019D01*
X220981933Y-155323876D01*
X220934314Y-155514352D01*
X220934314Y-155895304D01*
X220981933Y-155990542D01*
X221029552Y-156038161D01*
X221124790Y-156085780D01*
X221315266Y-156085780D01*
X221410504Y-156038161D01*
X221458123Y-155990542D01*
X221505742Y-155895304D01*
X221505742Y-155657209D01*
X221458123Y-155561971D01*
X221410504Y-155514352D01*
X221315266Y-155466733D01*
X221124790Y-155466733D01*
X221029552Y-155514352D01*
X220981933Y-155561971D01*
X220934314Y-155657209D01*
X222124790Y-155085780D02*
X222220028Y-155085780D01*
X222315266Y-155133400D01*
X222362885Y-155181019D01*
X222410504Y-155276257D01*
X222458123Y-155466733D01*
X222458123Y-155704828D01*
X222410504Y-155895304D01*
X222362885Y-155990542D01*
X222315266Y-156038161D01*
X222220028Y-156085780D01*
X222124790Y-156085780D01*
X222029552Y-156038161D01*
X221981933Y-155990542D01*
X221934314Y-155895304D01*
X221886695Y-155704828D01*
X221886695Y-155466733D01*
X221934314Y-155276257D01*
X221981933Y-155181019D01*
X222029552Y-155133400D01*
X222124790Y-155085780D01*
%TO.C,MX74*%
X228411095Y-175134580D02*
X228411095Y-174134580D01*
X228744428Y-174848866D01*
X229077761Y-174134580D01*
X229077761Y-175134580D01*
X229458714Y-174134580D02*
X230125380Y-175134580D01*
X230125380Y-174134580D02*
X229458714Y-175134580D01*
X230411095Y-174134580D02*
X231077761Y-174134580D01*
X230649190Y-175134580D01*
X231887285Y-174467914D02*
X231887285Y-175134580D01*
X231649190Y-174086961D02*
X231411095Y-174801247D01*
X232030142Y-174801247D01*
%TO.C,MX9*%
X233649485Y-89414980D02*
X233649485Y-88414980D01*
X233982819Y-89129266D01*
X234316152Y-88414980D01*
X234316152Y-89414980D01*
X234697104Y-88414980D02*
X235363771Y-89414980D01*
X235363771Y-88414980D02*
X234697104Y-89414980D01*
X235792342Y-89414980D02*
X235982819Y-89414980D01*
X236078057Y-89367361D01*
X236125676Y-89319742D01*
X236220914Y-89176885D01*
X236268533Y-88986409D01*
X236268533Y-88605457D01*
X236220914Y-88510219D01*
X236173295Y-88462600D01*
X236078057Y-88414980D01*
X235887580Y-88414980D01*
X235792342Y-88462600D01*
X235744723Y-88510219D01*
X235697104Y-88605457D01*
X235697104Y-88843552D01*
X235744723Y-88938790D01*
X235792342Y-88986409D01*
X235887580Y-89034028D01*
X236078057Y-89034028D01*
X236173295Y-88986409D01*
X236220914Y-88938790D01*
X236268533Y-88843552D01*
%TO.C,MX25*%
X223648895Y-117988180D02*
X223648895Y-116988180D01*
X223982228Y-117702466D01*
X224315561Y-116988180D01*
X224315561Y-117988180D01*
X224696514Y-116988180D02*
X225363180Y-117988180D01*
X225363180Y-116988180D02*
X224696514Y-117988180D01*
X225696514Y-117083419D02*
X225744133Y-117035800D01*
X225839371Y-116988180D01*
X226077466Y-116988180D01*
X226172704Y-117035800D01*
X226220323Y-117083419D01*
X226267942Y-117178657D01*
X226267942Y-117273895D01*
X226220323Y-117416752D01*
X225648895Y-117988180D01*
X226267942Y-117988180D01*
X227172704Y-116988180D02*
X226696514Y-116988180D01*
X226648895Y-117464371D01*
X226696514Y-117416752D01*
X226791752Y-117369133D01*
X227029847Y-117369133D01*
X227125085Y-117416752D01*
X227172704Y-117464371D01*
X227220323Y-117559609D01*
X227220323Y-117797704D01*
X227172704Y-117892942D01*
X227125085Y-117940561D01*
X227029847Y-117988180D01*
X226791752Y-117988180D01*
X226696514Y-117940561D01*
X226648895Y-117892942D01*
%TO.C,MX43*%
X233173295Y-137036980D02*
X233173295Y-136036980D01*
X233506628Y-136751266D01*
X233839961Y-136036980D01*
X233839961Y-137036980D01*
X234220914Y-136036980D02*
X234887580Y-137036980D01*
X234887580Y-136036980D02*
X234220914Y-137036980D01*
X235697104Y-136370314D02*
X235697104Y-137036980D01*
X235459009Y-135989361D02*
X235220914Y-136703647D01*
X235839961Y-136703647D01*
X236125676Y-136036980D02*
X236744723Y-136036980D01*
X236411390Y-136417933D01*
X236554247Y-136417933D01*
X236649485Y-136465552D01*
X236697104Y-136513171D01*
X236744723Y-136608409D01*
X236744723Y-136846504D01*
X236697104Y-136941742D01*
X236649485Y-136989361D01*
X236554247Y-137036980D01*
X236268533Y-137036980D01*
X236173295Y-136989361D01*
X236125676Y-136941742D01*
%TO.C,MX61*%
X237935495Y-156085780D02*
X237935495Y-155085780D01*
X238268828Y-155800066D01*
X238602161Y-155085780D01*
X238602161Y-156085780D01*
X238983114Y-155085780D02*
X239649780Y-156085780D01*
X239649780Y-155085780D02*
X238983114Y-156085780D01*
X240459304Y-155085780D02*
X240268828Y-155085780D01*
X240173590Y-155133400D01*
X240125971Y-155181019D01*
X240030733Y-155323876D01*
X239983114Y-155514352D01*
X239983114Y-155895304D01*
X240030733Y-155990542D01*
X240078352Y-156038161D01*
X240173590Y-156085780D01*
X240364066Y-156085780D01*
X240459304Y-156038161D01*
X240506923Y-155990542D01*
X240554542Y-155895304D01*
X240554542Y-155657209D01*
X240506923Y-155561971D01*
X240459304Y-155514352D01*
X240364066Y-155466733D01*
X240173590Y-155466733D01*
X240078352Y-155514352D01*
X240030733Y-155561971D01*
X239983114Y-155657209D01*
X241506923Y-156085780D02*
X240935495Y-156085780D01*
X241221209Y-156085780D02*
X241221209Y-155085780D01*
X241125971Y-155228638D01*
X241030733Y-155323876D01*
X240935495Y-155371495D01*
%TO.C,MX10*%
X261746495Y-89414980D02*
X261746495Y-88414980D01*
X262079828Y-89129266D01*
X262413161Y-88414980D01*
X262413161Y-89414980D01*
X262794114Y-88414980D02*
X263460780Y-89414980D01*
X263460780Y-88414980D02*
X262794114Y-89414980D01*
X264365542Y-89414980D02*
X263794114Y-89414980D01*
X264079828Y-89414980D02*
X264079828Y-88414980D01*
X263984590Y-88557838D01*
X263889352Y-88653076D01*
X263794114Y-88700695D01*
X264984590Y-88414980D02*
X265079828Y-88414980D01*
X265175066Y-88462600D01*
X265222685Y-88510219D01*
X265270304Y-88605457D01*
X265317923Y-88795933D01*
X265317923Y-89034028D01*
X265270304Y-89224504D01*
X265222685Y-89319742D01*
X265175066Y-89367361D01*
X265079828Y-89414980D01*
X264984590Y-89414980D01*
X264889352Y-89367361D01*
X264841733Y-89319742D01*
X264794114Y-89224504D01*
X264746495Y-89034028D01*
X264746495Y-88795933D01*
X264794114Y-88605457D01*
X264841733Y-88510219D01*
X264889352Y-88462600D01*
X264984590Y-88414980D01*
%TO.C,MX26*%
X242697695Y-117988180D02*
X242697695Y-116988180D01*
X243031028Y-117702466D01*
X243364361Y-116988180D01*
X243364361Y-117988180D01*
X243745314Y-116988180D02*
X244411980Y-117988180D01*
X244411980Y-116988180D02*
X243745314Y-117988180D01*
X244745314Y-117083419D02*
X244792933Y-117035800D01*
X244888171Y-116988180D01*
X245126266Y-116988180D01*
X245221504Y-117035800D01*
X245269123Y-117083419D01*
X245316742Y-117178657D01*
X245316742Y-117273895D01*
X245269123Y-117416752D01*
X244697695Y-117988180D01*
X245316742Y-117988180D01*
X246173885Y-116988180D02*
X245983409Y-116988180D01*
X245888171Y-117035800D01*
X245840552Y-117083419D01*
X245745314Y-117226276D01*
X245697695Y-117416752D01*
X245697695Y-117797704D01*
X245745314Y-117892942D01*
X245792933Y-117940561D01*
X245888171Y-117988180D01*
X246078647Y-117988180D01*
X246173885Y-117940561D01*
X246221504Y-117892942D01*
X246269123Y-117797704D01*
X246269123Y-117559609D01*
X246221504Y-117464371D01*
X246173885Y-117416752D01*
X246078647Y-117369133D01*
X245888171Y-117369133D01*
X245792933Y-117416752D01*
X245745314Y-117464371D01*
X245697695Y-117559609D01*
%TO.C,MX44*%
X252222095Y-137036980D02*
X252222095Y-136036980D01*
X252555428Y-136751266D01*
X252888761Y-136036980D01*
X252888761Y-137036980D01*
X253269714Y-136036980D02*
X253936380Y-137036980D01*
X253936380Y-136036980D02*
X253269714Y-137036980D01*
X254745904Y-136370314D02*
X254745904Y-137036980D01*
X254507809Y-135989361D02*
X254269714Y-136703647D01*
X254888761Y-136703647D01*
X255698285Y-136370314D02*
X255698285Y-137036980D01*
X255460190Y-135989361D02*
X255222095Y-136703647D01*
X255841142Y-136703647D01*
%TO.C,MX62*%
X256984295Y-156085780D02*
X256984295Y-155085780D01*
X257317628Y-155800066D01*
X257650961Y-155085780D01*
X257650961Y-156085780D01*
X258031914Y-155085780D02*
X258698580Y-156085780D01*
X258698580Y-155085780D02*
X258031914Y-156085780D01*
X259508104Y-155085780D02*
X259317628Y-155085780D01*
X259222390Y-155133400D01*
X259174771Y-155181019D01*
X259079533Y-155323876D01*
X259031914Y-155514352D01*
X259031914Y-155895304D01*
X259079533Y-155990542D01*
X259127152Y-156038161D01*
X259222390Y-156085780D01*
X259412866Y-156085780D01*
X259508104Y-156038161D01*
X259555723Y-155990542D01*
X259603342Y-155895304D01*
X259603342Y-155657209D01*
X259555723Y-155561971D01*
X259508104Y-155514352D01*
X259412866Y-155466733D01*
X259222390Y-155466733D01*
X259127152Y-155514352D01*
X259079533Y-155561971D01*
X259031914Y-155657209D01*
X259984295Y-155181019D02*
X260031914Y-155133400D01*
X260127152Y-155085780D01*
X260365247Y-155085780D01*
X260460485Y-155133400D01*
X260508104Y-155181019D01*
X260555723Y-155276257D01*
X260555723Y-155371495D01*
X260508104Y-155514352D01*
X259936676Y-156085780D01*
X260555723Y-156085780D01*
%TO.C,MX76*%
X266508695Y-175134580D02*
X266508695Y-174134580D01*
X266842028Y-174848866D01*
X267175361Y-174134580D01*
X267175361Y-175134580D01*
X267556314Y-174134580D02*
X268222980Y-175134580D01*
X268222980Y-174134580D02*
X267556314Y-175134580D01*
X268508695Y-174134580D02*
X269175361Y-174134580D01*
X268746790Y-175134580D01*
X269984885Y-174134580D02*
X269794409Y-174134580D01*
X269699171Y-174182200D01*
X269651552Y-174229819D01*
X269556314Y-174372676D01*
X269508695Y-174563152D01*
X269508695Y-174944104D01*
X269556314Y-175039342D01*
X269603933Y-175086961D01*
X269699171Y-175134580D01*
X269889647Y-175134580D01*
X269984885Y-175086961D01*
X270032504Y-175039342D01*
X270080123Y-174944104D01*
X270080123Y-174706009D01*
X270032504Y-174610771D01*
X269984885Y-174563152D01*
X269889647Y-174515533D01*
X269699171Y-174515533D01*
X269603933Y-174563152D01*
X269556314Y-174610771D01*
X269508695Y-174706009D01*
%TO.C,MX11*%
X280795295Y-89414980D02*
X280795295Y-88414980D01*
X281128628Y-89129266D01*
X281461961Y-88414980D01*
X281461961Y-89414980D01*
X281842914Y-88414980D02*
X282509580Y-89414980D01*
X282509580Y-88414980D02*
X281842914Y-89414980D01*
X283414342Y-89414980D02*
X282842914Y-89414980D01*
X283128628Y-89414980D02*
X283128628Y-88414980D01*
X283033390Y-88557838D01*
X282938152Y-88653076D01*
X282842914Y-88700695D01*
X284366723Y-89414980D02*
X283795295Y-89414980D01*
X284081009Y-89414980D02*
X284081009Y-88414980D01*
X283985771Y-88557838D01*
X283890533Y-88653076D01*
X283795295Y-88700695D01*
%TO.C,MX27*%
X261746495Y-117988180D02*
X261746495Y-116988180D01*
X262079828Y-117702466D01*
X262413161Y-116988180D01*
X262413161Y-117988180D01*
X262794114Y-116988180D02*
X263460780Y-117988180D01*
X263460780Y-116988180D02*
X262794114Y-117988180D01*
X263794114Y-117083419D02*
X263841733Y-117035800D01*
X263936971Y-116988180D01*
X264175066Y-116988180D01*
X264270304Y-117035800D01*
X264317923Y-117083419D01*
X264365542Y-117178657D01*
X264365542Y-117273895D01*
X264317923Y-117416752D01*
X263746495Y-117988180D01*
X264365542Y-117988180D01*
X264698876Y-116988180D02*
X265365542Y-116988180D01*
X264936971Y-117988180D01*
%TO.C,MX45*%
X271270895Y-137036980D02*
X271270895Y-136036980D01*
X271604228Y-136751266D01*
X271937561Y-136036980D01*
X271937561Y-137036980D01*
X272318514Y-136036980D02*
X272985180Y-137036980D01*
X272985180Y-136036980D02*
X272318514Y-137036980D01*
X273794704Y-136370314D02*
X273794704Y-137036980D01*
X273556609Y-135989361D02*
X273318514Y-136703647D01*
X273937561Y-136703647D01*
X274794704Y-136036980D02*
X274318514Y-136036980D01*
X274270895Y-136513171D01*
X274318514Y-136465552D01*
X274413752Y-136417933D01*
X274651847Y-136417933D01*
X274747085Y-136465552D01*
X274794704Y-136513171D01*
X274842323Y-136608409D01*
X274842323Y-136846504D01*
X274794704Y-136941742D01*
X274747085Y-136989361D01*
X274651847Y-137036980D01*
X274413752Y-137036980D01*
X274318514Y-136989361D01*
X274270895Y-136941742D01*
%TO.C,MX63*%
X276033095Y-156085780D02*
X276033095Y-155085780D01*
X276366428Y-155800066D01*
X276699761Y-155085780D01*
X276699761Y-156085780D01*
X277080714Y-155085780D02*
X277747380Y-156085780D01*
X277747380Y-155085780D02*
X277080714Y-156085780D01*
X278556904Y-155085780D02*
X278366428Y-155085780D01*
X278271190Y-155133400D01*
X278223571Y-155181019D01*
X278128333Y-155323876D01*
X278080714Y-155514352D01*
X278080714Y-155895304D01*
X278128333Y-155990542D01*
X278175952Y-156038161D01*
X278271190Y-156085780D01*
X278461666Y-156085780D01*
X278556904Y-156038161D01*
X278604523Y-155990542D01*
X278652142Y-155895304D01*
X278652142Y-155657209D01*
X278604523Y-155561971D01*
X278556904Y-155514352D01*
X278461666Y-155466733D01*
X278271190Y-155466733D01*
X278175952Y-155514352D01*
X278128333Y-155561971D01*
X278080714Y-155657209D01*
X278985476Y-155085780D02*
X279604523Y-155085780D01*
X279271190Y-155466733D01*
X279414047Y-155466733D01*
X279509285Y-155514352D01*
X279556904Y-155561971D01*
X279604523Y-155657209D01*
X279604523Y-155895304D01*
X279556904Y-155990542D01*
X279509285Y-156038161D01*
X279414047Y-156085780D01*
X279128333Y-156085780D01*
X279033095Y-156038161D01*
X278985476Y-155990542D01*
%TO.C,MX86*%
X294288195Y-194183380D02*
X294288195Y-193183380D01*
X294621528Y-193897666D01*
X294954861Y-193183380D01*
X294954861Y-194183380D01*
X295335814Y-193183380D02*
X296002480Y-194183380D01*
X296002480Y-193183380D02*
X295335814Y-194183380D01*
X296526290Y-193611952D02*
X296431052Y-193564333D01*
X296383433Y-193516714D01*
X296335814Y-193421476D01*
X296335814Y-193373857D01*
X296383433Y-193278619D01*
X296431052Y-193231000D01*
X296526290Y-193183380D01*
X296716766Y-193183380D01*
X296812004Y-193231000D01*
X296859623Y-193278619D01*
X296907242Y-193373857D01*
X296907242Y-193421476D01*
X296859623Y-193516714D01*
X296812004Y-193564333D01*
X296716766Y-193611952D01*
X296526290Y-193611952D01*
X296431052Y-193659571D01*
X296383433Y-193707190D01*
X296335814Y-193802428D01*
X296335814Y-193992904D01*
X296383433Y-194088142D01*
X296431052Y-194135761D01*
X296526290Y-194183380D01*
X296716766Y-194183380D01*
X296812004Y-194135761D01*
X296859623Y-194088142D01*
X296907242Y-193992904D01*
X296907242Y-193802428D01*
X296859623Y-193707190D01*
X296812004Y-193659571D01*
X296716766Y-193611952D01*
X297764385Y-193183380D02*
X297573909Y-193183380D01*
X297478671Y-193231000D01*
X297431052Y-193278619D01*
X297335814Y-193421476D01*
X297288195Y-193611952D01*
X297288195Y-193992904D01*
X297335814Y-194088142D01*
X297383433Y-194135761D01*
X297478671Y-194183380D01*
X297669147Y-194183380D01*
X297764385Y-194135761D01*
X297812004Y-194088142D01*
X297859623Y-193992904D01*
X297859623Y-193754809D01*
X297812004Y-193659571D01*
X297764385Y-193611952D01*
X297669147Y-193564333D01*
X297478671Y-193564333D01*
X297383433Y-193611952D01*
X297335814Y-193659571D01*
X297288195Y-193754809D01*
%TO.C,MX12*%
X299844095Y-89414980D02*
X299844095Y-88414980D01*
X300177428Y-89129266D01*
X300510761Y-88414980D01*
X300510761Y-89414980D01*
X300891714Y-88414980D02*
X301558380Y-89414980D01*
X301558380Y-88414980D02*
X300891714Y-89414980D01*
X302463142Y-89414980D02*
X301891714Y-89414980D01*
X302177428Y-89414980D02*
X302177428Y-88414980D01*
X302082190Y-88557838D01*
X301986952Y-88653076D01*
X301891714Y-88700695D01*
X302844095Y-88510219D02*
X302891714Y-88462600D01*
X302986952Y-88414980D01*
X303225047Y-88414980D01*
X303320285Y-88462600D01*
X303367904Y-88510219D01*
X303415523Y-88605457D01*
X303415523Y-88700695D01*
X303367904Y-88843552D01*
X302796476Y-89414980D01*
X303415523Y-89414980D01*
%TO.C,MX28*%
X280795295Y-117988180D02*
X280795295Y-116988180D01*
X281128628Y-117702466D01*
X281461961Y-116988180D01*
X281461961Y-117988180D01*
X281842914Y-116988180D02*
X282509580Y-117988180D01*
X282509580Y-116988180D02*
X281842914Y-117988180D01*
X282842914Y-117083419D02*
X282890533Y-117035800D01*
X282985771Y-116988180D01*
X283223866Y-116988180D01*
X283319104Y-117035800D01*
X283366723Y-117083419D01*
X283414342Y-117178657D01*
X283414342Y-117273895D01*
X283366723Y-117416752D01*
X282795295Y-117988180D01*
X283414342Y-117988180D01*
X283985771Y-117416752D02*
X283890533Y-117369133D01*
X283842914Y-117321514D01*
X283795295Y-117226276D01*
X283795295Y-117178657D01*
X283842914Y-117083419D01*
X283890533Y-117035800D01*
X283985771Y-116988180D01*
X284176247Y-116988180D01*
X284271485Y-117035800D01*
X284319104Y-117083419D01*
X284366723Y-117178657D01*
X284366723Y-117226276D01*
X284319104Y-117321514D01*
X284271485Y-117369133D01*
X284176247Y-117416752D01*
X283985771Y-117416752D01*
X283890533Y-117464371D01*
X283842914Y-117511990D01*
X283795295Y-117607228D01*
X283795295Y-117797704D01*
X283842914Y-117892942D01*
X283890533Y-117940561D01*
X283985771Y-117988180D01*
X284176247Y-117988180D01*
X284271485Y-117940561D01*
X284319104Y-117892942D01*
X284366723Y-117797704D01*
X284366723Y-117607228D01*
X284319104Y-117511990D01*
X284271485Y-117464371D01*
X284176247Y-117416752D01*
%TO.C,MX46*%
X290319695Y-137036980D02*
X290319695Y-136036980D01*
X290653028Y-136751266D01*
X290986361Y-136036980D01*
X290986361Y-137036980D01*
X291367314Y-136036980D02*
X292033980Y-137036980D01*
X292033980Y-136036980D02*
X291367314Y-137036980D01*
X292843504Y-136370314D02*
X292843504Y-137036980D01*
X292605409Y-135989361D02*
X292367314Y-136703647D01*
X292986361Y-136703647D01*
X293795885Y-136036980D02*
X293605409Y-136036980D01*
X293510171Y-136084600D01*
X293462552Y-136132219D01*
X293367314Y-136275076D01*
X293319695Y-136465552D01*
X293319695Y-136846504D01*
X293367314Y-136941742D01*
X293414933Y-136989361D01*
X293510171Y-137036980D01*
X293700647Y-137036980D01*
X293795885Y-136989361D01*
X293843504Y-136941742D01*
X293891123Y-136846504D01*
X293891123Y-136608409D01*
X293843504Y-136513171D01*
X293795885Y-136465552D01*
X293700647Y-136417933D01*
X293510171Y-136417933D01*
X293414933Y-136465552D01*
X293367314Y-136513171D01*
X293319695Y-136608409D01*
%TO.C,MX87*%
X318099195Y-194183380D02*
X318099195Y-193183380D01*
X318432528Y-193897666D01*
X318765861Y-193183380D01*
X318765861Y-194183380D01*
X319146814Y-193183380D02*
X319813480Y-194183380D01*
X319813480Y-193183380D02*
X319146814Y-194183380D01*
X320337290Y-193611952D02*
X320242052Y-193564333D01*
X320194433Y-193516714D01*
X320146814Y-193421476D01*
X320146814Y-193373857D01*
X320194433Y-193278619D01*
X320242052Y-193231000D01*
X320337290Y-193183380D01*
X320527766Y-193183380D01*
X320623004Y-193231000D01*
X320670623Y-193278619D01*
X320718242Y-193373857D01*
X320718242Y-193421476D01*
X320670623Y-193516714D01*
X320623004Y-193564333D01*
X320527766Y-193611952D01*
X320337290Y-193611952D01*
X320242052Y-193659571D01*
X320194433Y-193707190D01*
X320146814Y-193802428D01*
X320146814Y-193992904D01*
X320194433Y-194088142D01*
X320242052Y-194135761D01*
X320337290Y-194183380D01*
X320527766Y-194183380D01*
X320623004Y-194135761D01*
X320670623Y-194088142D01*
X320718242Y-193992904D01*
X320718242Y-193802428D01*
X320670623Y-193707190D01*
X320623004Y-193659571D01*
X320527766Y-193611952D01*
X321051576Y-193183380D02*
X321718242Y-193183380D01*
X321289671Y-194183380D01*
%TO.C,MX13*%
X318892895Y-89414980D02*
X318892895Y-88414980D01*
X319226228Y-89129266D01*
X319559561Y-88414980D01*
X319559561Y-89414980D01*
X319940514Y-88414980D02*
X320607180Y-89414980D01*
X320607180Y-88414980D02*
X319940514Y-89414980D01*
X321511942Y-89414980D02*
X320940514Y-89414980D01*
X321226228Y-89414980D02*
X321226228Y-88414980D01*
X321130990Y-88557838D01*
X321035752Y-88653076D01*
X320940514Y-88700695D01*
X321845276Y-88414980D02*
X322464323Y-88414980D01*
X322130990Y-88795933D01*
X322273847Y-88795933D01*
X322369085Y-88843552D01*
X322416704Y-88891171D01*
X322464323Y-88986409D01*
X322464323Y-89224504D01*
X322416704Y-89319742D01*
X322369085Y-89367361D01*
X322273847Y-89414980D01*
X321988133Y-89414980D01*
X321892895Y-89367361D01*
X321845276Y-89319742D01*
%TO.C,MX29*%
X309368495Y-117988180D02*
X309368495Y-116988180D01*
X309701828Y-117702466D01*
X310035161Y-116988180D01*
X310035161Y-117988180D01*
X310416114Y-116988180D02*
X311082780Y-117988180D01*
X311082780Y-116988180D02*
X310416114Y-117988180D01*
X311416114Y-117083419D02*
X311463733Y-117035800D01*
X311558971Y-116988180D01*
X311797066Y-116988180D01*
X311892304Y-117035800D01*
X311939923Y-117083419D01*
X311987542Y-117178657D01*
X311987542Y-117273895D01*
X311939923Y-117416752D01*
X311368495Y-117988180D01*
X311987542Y-117988180D01*
X312463733Y-117988180D02*
X312654209Y-117988180D01*
X312749447Y-117940561D01*
X312797066Y-117892942D01*
X312892304Y-117750085D01*
X312939923Y-117559609D01*
X312939923Y-117178657D01*
X312892304Y-117083419D01*
X312844685Y-117035800D01*
X312749447Y-116988180D01*
X312558971Y-116988180D01*
X312463733Y-117035800D01*
X312416114Y-117083419D01*
X312368495Y-117178657D01*
X312368495Y-117416752D01*
X312416114Y-117511990D01*
X312463733Y-117559609D01*
X312558971Y-117607228D01*
X312749447Y-117607228D01*
X312844685Y-117559609D01*
X312892304Y-117511990D01*
X312939923Y-117416752D01*
%TO.C,MX47*%
X314130695Y-137036980D02*
X314130695Y-136036980D01*
X314464028Y-136751266D01*
X314797361Y-136036980D01*
X314797361Y-137036980D01*
X315178314Y-136036980D02*
X315844980Y-137036980D01*
X315844980Y-136036980D02*
X315178314Y-137036980D01*
X316654504Y-136370314D02*
X316654504Y-137036980D01*
X316416409Y-135989361D02*
X316178314Y-136703647D01*
X316797361Y-136703647D01*
X317083076Y-136036980D02*
X317749742Y-136036980D01*
X317321171Y-137036980D01*
%TO.C,MX77*%
X302225195Y-175134580D02*
X302225195Y-174134580D01*
X302558528Y-174848866D01*
X302891861Y-174134580D01*
X302891861Y-175134580D01*
X303272814Y-174134580D02*
X303939480Y-175134580D01*
X303939480Y-174134580D02*
X303272814Y-175134580D01*
X304225195Y-174134580D02*
X304891861Y-174134580D01*
X304463290Y-175134580D01*
X305177576Y-174134580D02*
X305844242Y-174134580D01*
X305415671Y-175134580D01*
%TO.C,MX88*%
X347466095Y-194183380D02*
X347466095Y-193183380D01*
X347799428Y-193897666D01*
X348132761Y-193183380D01*
X348132761Y-194183380D01*
X348513714Y-193183380D02*
X349180380Y-194183380D01*
X349180380Y-193183380D02*
X348513714Y-194183380D01*
X349704190Y-193611952D02*
X349608952Y-193564333D01*
X349561333Y-193516714D01*
X349513714Y-193421476D01*
X349513714Y-193373857D01*
X349561333Y-193278619D01*
X349608952Y-193231000D01*
X349704190Y-193183380D01*
X349894666Y-193183380D01*
X349989904Y-193231000D01*
X350037523Y-193278619D01*
X350085142Y-193373857D01*
X350085142Y-193421476D01*
X350037523Y-193516714D01*
X349989904Y-193564333D01*
X349894666Y-193611952D01*
X349704190Y-193611952D01*
X349608952Y-193659571D01*
X349561333Y-193707190D01*
X349513714Y-193802428D01*
X349513714Y-193992904D01*
X349561333Y-194088142D01*
X349608952Y-194135761D01*
X349704190Y-194183380D01*
X349894666Y-194183380D01*
X349989904Y-194135761D01*
X350037523Y-194088142D01*
X350085142Y-193992904D01*
X350085142Y-193802428D01*
X350037523Y-193707190D01*
X349989904Y-193659571D01*
X349894666Y-193611952D01*
X350656571Y-193611952D02*
X350561333Y-193564333D01*
X350513714Y-193516714D01*
X350466095Y-193421476D01*
X350466095Y-193373857D01*
X350513714Y-193278619D01*
X350561333Y-193231000D01*
X350656571Y-193183380D01*
X350847047Y-193183380D01*
X350942285Y-193231000D01*
X350989904Y-193278619D01*
X351037523Y-193373857D01*
X351037523Y-193421476D01*
X350989904Y-193516714D01*
X350942285Y-193564333D01*
X350847047Y-193611952D01*
X350656571Y-193611952D01*
X350561333Y-193659571D01*
X350513714Y-193707190D01*
X350466095Y-193802428D01*
X350466095Y-193992904D01*
X350513714Y-194088142D01*
X350561333Y-194135761D01*
X350656571Y-194183380D01*
X350847047Y-194183380D01*
X350942285Y-194135761D01*
X350989904Y-194088142D01*
X351037523Y-193992904D01*
X351037523Y-193802428D01*
X350989904Y-193707190D01*
X350942285Y-193659571D01*
X350847047Y-193611952D01*
%TO.C,MX30*%
X347466095Y-117988180D02*
X347466095Y-116988180D01*
X347799428Y-117702466D01*
X348132761Y-116988180D01*
X348132761Y-117988180D01*
X348513714Y-116988180D02*
X349180380Y-117988180D01*
X349180380Y-116988180D02*
X348513714Y-117988180D01*
X349466095Y-116988180D02*
X350085142Y-116988180D01*
X349751809Y-117369133D01*
X349894666Y-117369133D01*
X349989904Y-117416752D01*
X350037523Y-117464371D01*
X350085142Y-117559609D01*
X350085142Y-117797704D01*
X350037523Y-117892942D01*
X349989904Y-117940561D01*
X349894666Y-117988180D01*
X349608952Y-117988180D01*
X349513714Y-117940561D01*
X349466095Y-117892942D01*
X350704190Y-116988180D02*
X350799428Y-116988180D01*
X350894666Y-117035800D01*
X350942285Y-117083419D01*
X350989904Y-117178657D01*
X351037523Y-117369133D01*
X351037523Y-117607228D01*
X350989904Y-117797704D01*
X350942285Y-117892942D01*
X350894666Y-117940561D01*
X350799428Y-117988180D01*
X350704190Y-117988180D01*
X350608952Y-117940561D01*
X350561333Y-117892942D01*
X350513714Y-117797704D01*
X350466095Y-117607228D01*
X350466095Y-117369133D01*
X350513714Y-117178657D01*
X350561333Y-117083419D01*
X350608952Y-117035800D01*
X350704190Y-116988180D01*
%TO.C,MX48*%
X347466095Y-137036980D02*
X347466095Y-136036980D01*
X347799428Y-136751266D01*
X348132761Y-136036980D01*
X348132761Y-137036980D01*
X348513714Y-136036980D02*
X349180380Y-137036980D01*
X349180380Y-136036980D02*
X348513714Y-137036980D01*
X349989904Y-136370314D02*
X349989904Y-137036980D01*
X349751809Y-135989361D02*
X349513714Y-136703647D01*
X350132761Y-136703647D01*
X350656571Y-136465552D02*
X350561333Y-136417933D01*
X350513714Y-136370314D01*
X350466095Y-136275076D01*
X350466095Y-136227457D01*
X350513714Y-136132219D01*
X350561333Y-136084600D01*
X350656571Y-136036980D01*
X350847047Y-136036980D01*
X350942285Y-136084600D01*
X350989904Y-136132219D01*
X351037523Y-136227457D01*
X351037523Y-136275076D01*
X350989904Y-136370314D01*
X350942285Y-136417933D01*
X350847047Y-136465552D01*
X350656571Y-136465552D01*
X350561333Y-136513171D01*
X350513714Y-136560790D01*
X350466095Y-136656028D01*
X350466095Y-136846504D01*
X350513714Y-136941742D01*
X350561333Y-136989361D01*
X350656571Y-137036980D01*
X350847047Y-137036980D01*
X350942285Y-136989361D01*
X350989904Y-136941742D01*
X351037523Y-136846504D01*
X351037523Y-136656028D01*
X350989904Y-136560790D01*
X350942285Y-136513171D01*
X350847047Y-136465552D01*
%TO.C,MX31*%
X366514895Y-117988180D02*
X366514895Y-116988180D01*
X366848228Y-117702466D01*
X367181561Y-116988180D01*
X367181561Y-117988180D01*
X367562514Y-116988180D02*
X368229180Y-117988180D01*
X368229180Y-116988180D02*
X367562514Y-117988180D01*
X368514895Y-116988180D02*
X369133942Y-116988180D01*
X368800609Y-117369133D01*
X368943466Y-117369133D01*
X369038704Y-117416752D01*
X369086323Y-117464371D01*
X369133942Y-117559609D01*
X369133942Y-117797704D01*
X369086323Y-117892942D01*
X369038704Y-117940561D01*
X368943466Y-117988180D01*
X368657752Y-117988180D01*
X368562514Y-117940561D01*
X368514895Y-117892942D01*
X370086323Y-117988180D02*
X369514895Y-117988180D01*
X369800609Y-117988180D02*
X369800609Y-116988180D01*
X369705371Y-117131038D01*
X369610133Y-117226276D01*
X369514895Y-117273895D01*
%TO.C,MX49*%
X366514895Y-137036980D02*
X366514895Y-136036980D01*
X366848228Y-136751266D01*
X367181561Y-136036980D01*
X367181561Y-137036980D01*
X367562514Y-136036980D02*
X368229180Y-137036980D01*
X368229180Y-136036980D02*
X367562514Y-137036980D01*
X369038704Y-136370314D02*
X369038704Y-137036980D01*
X368800609Y-135989361D02*
X368562514Y-136703647D01*
X369181561Y-136703647D01*
X369610133Y-137036980D02*
X369800609Y-137036980D01*
X369895847Y-136989361D01*
X369943466Y-136941742D01*
X370038704Y-136798885D01*
X370086323Y-136608409D01*
X370086323Y-136227457D01*
X370038704Y-136132219D01*
X369991085Y-136084600D01*
X369895847Y-136036980D01*
X369705371Y-136036980D01*
X369610133Y-136084600D01*
X369562514Y-136132219D01*
X369514895Y-136227457D01*
X369514895Y-136465552D01*
X369562514Y-136560790D01*
X369610133Y-136608409D01*
X369705371Y-136656028D01*
X369895847Y-136656028D01*
X369991085Y-136608409D01*
X370038704Y-136560790D01*
X370086323Y-136465552D01*
%TO.C,MX78*%
X366514895Y-175134580D02*
X366514895Y-174134580D01*
X366848228Y-174848866D01*
X367181561Y-174134580D01*
X367181561Y-175134580D01*
X367562514Y-174134580D02*
X368229180Y-175134580D01*
X368229180Y-174134580D02*
X367562514Y-175134580D01*
X368514895Y-174134580D02*
X369181561Y-174134580D01*
X368752990Y-175134580D01*
X369705371Y-174563152D02*
X369610133Y-174515533D01*
X369562514Y-174467914D01*
X369514895Y-174372676D01*
X369514895Y-174325057D01*
X369562514Y-174229819D01*
X369610133Y-174182200D01*
X369705371Y-174134580D01*
X369895847Y-174134580D01*
X369991085Y-174182200D01*
X370038704Y-174229819D01*
X370086323Y-174325057D01*
X370086323Y-174372676D01*
X370038704Y-174467914D01*
X369991085Y-174515533D01*
X369895847Y-174563152D01*
X369705371Y-174563152D01*
X369610133Y-174610771D01*
X369562514Y-174658390D01*
X369514895Y-174753628D01*
X369514895Y-174944104D01*
X369562514Y-175039342D01*
X369610133Y-175086961D01*
X369705371Y-175134580D01*
X369895847Y-175134580D01*
X369991085Y-175086961D01*
X370038704Y-175039342D01*
X370086323Y-174944104D01*
X370086323Y-174753628D01*
X370038704Y-174658390D01*
X369991085Y-174610771D01*
X369895847Y-174563152D01*
%TO.C,MX89*%
X366514895Y-194183380D02*
X366514895Y-193183380D01*
X366848228Y-193897666D01*
X367181561Y-193183380D01*
X367181561Y-194183380D01*
X367562514Y-193183380D02*
X368229180Y-194183380D01*
X368229180Y-193183380D02*
X367562514Y-194183380D01*
X368752990Y-193611952D02*
X368657752Y-193564333D01*
X368610133Y-193516714D01*
X368562514Y-193421476D01*
X368562514Y-193373857D01*
X368610133Y-193278619D01*
X368657752Y-193231000D01*
X368752990Y-193183380D01*
X368943466Y-193183380D01*
X369038704Y-193231000D01*
X369086323Y-193278619D01*
X369133942Y-193373857D01*
X369133942Y-193421476D01*
X369086323Y-193516714D01*
X369038704Y-193564333D01*
X368943466Y-193611952D01*
X368752990Y-193611952D01*
X368657752Y-193659571D01*
X368610133Y-193707190D01*
X368562514Y-193802428D01*
X368562514Y-193992904D01*
X368610133Y-194088142D01*
X368657752Y-194135761D01*
X368752990Y-194183380D01*
X368943466Y-194183380D01*
X369038704Y-194135761D01*
X369086323Y-194088142D01*
X369133942Y-193992904D01*
X369133942Y-193802428D01*
X369086323Y-193707190D01*
X369038704Y-193659571D01*
X368943466Y-193611952D01*
X369610133Y-194183380D02*
X369800609Y-194183380D01*
X369895847Y-194135761D01*
X369943466Y-194088142D01*
X370038704Y-193945285D01*
X370086323Y-193754809D01*
X370086323Y-193373857D01*
X370038704Y-193278619D01*
X369991085Y-193231000D01*
X369895847Y-193183380D01*
X369705371Y-193183380D01*
X369610133Y-193231000D01*
X369562514Y-193278619D01*
X369514895Y-193373857D01*
X369514895Y-193611952D01*
X369562514Y-193707190D01*
X369610133Y-193754809D01*
X369705371Y-193802428D01*
X369895847Y-193802428D01*
X369991085Y-193754809D01*
X370038704Y-193707190D01*
X370086323Y-193611952D01*
%TO.C,MX50*%
X385563695Y-137036980D02*
X385563695Y-136036980D01*
X385897028Y-136751266D01*
X386230361Y-136036980D01*
X386230361Y-137036980D01*
X386611314Y-136036980D02*
X387277980Y-137036980D01*
X387277980Y-136036980D02*
X386611314Y-137036980D01*
X388135123Y-136036980D02*
X387658933Y-136036980D01*
X387611314Y-136513171D01*
X387658933Y-136465552D01*
X387754171Y-136417933D01*
X387992266Y-136417933D01*
X388087504Y-136465552D01*
X388135123Y-136513171D01*
X388182742Y-136608409D01*
X388182742Y-136846504D01*
X388135123Y-136941742D01*
X388087504Y-136989361D01*
X387992266Y-137036980D01*
X387754171Y-137036980D01*
X387658933Y-136989361D01*
X387611314Y-136941742D01*
X388801790Y-136036980D02*
X388897028Y-136036980D01*
X388992266Y-136084600D01*
X389039885Y-136132219D01*
X389087504Y-136227457D01*
X389135123Y-136417933D01*
X389135123Y-136656028D01*
X389087504Y-136846504D01*
X389039885Y-136941742D01*
X388992266Y-136989361D01*
X388897028Y-137036980D01*
X388801790Y-137036980D01*
X388706552Y-136989361D01*
X388658933Y-136941742D01*
X388611314Y-136846504D01*
X388563695Y-136656028D01*
X388563695Y-136417933D01*
X388611314Y-136227457D01*
X388658933Y-136132219D01*
X388706552Y-136084600D01*
X388801790Y-136036980D01*
%TO.C,MX90*%
X385563695Y-194183380D02*
X385563695Y-193183380D01*
X385897028Y-193897666D01*
X386230361Y-193183380D01*
X386230361Y-194183380D01*
X386611314Y-193183380D02*
X387277980Y-194183380D01*
X387277980Y-193183380D02*
X386611314Y-194183380D01*
X387706552Y-194183380D02*
X387897028Y-194183380D01*
X387992266Y-194135761D01*
X388039885Y-194088142D01*
X388135123Y-193945285D01*
X388182742Y-193754809D01*
X388182742Y-193373857D01*
X388135123Y-193278619D01*
X388087504Y-193231000D01*
X387992266Y-193183380D01*
X387801790Y-193183380D01*
X387706552Y-193231000D01*
X387658933Y-193278619D01*
X387611314Y-193373857D01*
X387611314Y-193611952D01*
X387658933Y-193707190D01*
X387706552Y-193754809D01*
X387801790Y-193802428D01*
X387992266Y-193802428D01*
X388087504Y-193754809D01*
X388135123Y-193707190D01*
X388182742Y-193611952D01*
X388801790Y-193183380D02*
X388897028Y-193183380D01*
X388992266Y-193231000D01*
X389039885Y-193278619D01*
X389087504Y-193373857D01*
X389135123Y-193564333D01*
X389135123Y-193802428D01*
X389087504Y-193992904D01*
X389039885Y-194088142D01*
X388992266Y-194135761D01*
X388897028Y-194183380D01*
X388801790Y-194183380D01*
X388706552Y-194135761D01*
X388658933Y-194088142D01*
X388611314Y-193992904D01*
X388563695Y-193802428D01*
X388563695Y-193564333D01*
X388611314Y-193373857D01*
X388658933Y-193278619D01*
X388706552Y-193231000D01*
X388801790Y-193183380D01*
%TO.C,ROT2*%
X394859080Y-93956378D02*
X394382890Y-94289711D01*
X394859080Y-94527807D02*
X393859080Y-94527807D01*
X393859080Y-94146854D01*
X393906700Y-94051616D01*
X393954319Y-94003997D01*
X394049557Y-93956378D01*
X394192414Y-93956378D01*
X394287652Y-94003997D01*
X394335271Y-94051616D01*
X394382890Y-94146854D01*
X394382890Y-94527807D01*
X393859080Y-93337330D02*
X393859080Y-93146854D01*
X393906700Y-93051616D01*
X394001938Y-92956378D01*
X394192414Y-92908759D01*
X394525747Y-92908759D01*
X394716223Y-92956378D01*
X394811461Y-93051616D01*
X394859080Y-93146854D01*
X394859080Y-93337330D01*
X394811461Y-93432569D01*
X394716223Y-93527807D01*
X394525747Y-93575426D01*
X394192414Y-93575426D01*
X394001938Y-93527807D01*
X393906700Y-93432569D01*
X393859080Y-93337330D01*
X393859080Y-92623045D02*
X393859080Y-92051616D01*
X394859080Y-92337330D02*
X393859080Y-92337330D01*
X393954319Y-91765902D02*
X393906700Y-91718283D01*
X393859080Y-91623045D01*
X393859080Y-91384950D01*
X393906700Y-91289711D01*
X393954319Y-91242092D01*
X394049557Y-91194473D01*
X394144795Y-91194473D01*
X394287652Y-91242092D01*
X394859080Y-91813521D01*
X394859080Y-91194473D01*
%TO.C,MX6*%
X176503085Y-89414980D02*
X176503085Y-88414980D01*
X176836419Y-89129266D01*
X177169752Y-88414980D01*
X177169752Y-89414980D01*
X177550704Y-88414980D02*
X178217371Y-89414980D01*
X178217371Y-88414980D02*
X177550704Y-89414980D01*
X179026895Y-88414980D02*
X178836419Y-88414980D01*
X178741180Y-88462600D01*
X178693561Y-88510219D01*
X178598323Y-88653076D01*
X178550704Y-88843552D01*
X178550704Y-89224504D01*
X178598323Y-89319742D01*
X178645942Y-89367361D01*
X178741180Y-89414980D01*
X178931657Y-89414980D01*
X179026895Y-89367361D01*
X179074514Y-89319742D01*
X179122133Y-89224504D01*
X179122133Y-88986409D01*
X179074514Y-88891171D01*
X179026895Y-88843552D01*
X178931657Y-88795933D01*
X178741180Y-88795933D01*
X178645942Y-88843552D01*
X178598323Y-88891171D01*
X178550704Y-88986409D01*
%TO.C,MX21*%
X147453695Y-117988180D02*
X147453695Y-116988180D01*
X147787028Y-117702466D01*
X148120361Y-116988180D01*
X148120361Y-117988180D01*
X148501314Y-116988180D02*
X149167980Y-117988180D01*
X149167980Y-116988180D02*
X148501314Y-117988180D01*
X149501314Y-117083419D02*
X149548933Y-117035800D01*
X149644171Y-116988180D01*
X149882266Y-116988180D01*
X149977504Y-117035800D01*
X150025123Y-117083419D01*
X150072742Y-117178657D01*
X150072742Y-117273895D01*
X150025123Y-117416752D01*
X149453695Y-117988180D01*
X150072742Y-117988180D01*
X151025123Y-117988180D02*
X150453695Y-117988180D01*
X150739409Y-117988180D02*
X150739409Y-116988180D01*
X150644171Y-117131038D01*
X150548933Y-117226276D01*
X150453695Y-117273895D01*
%TO.C,MX32*%
X385563695Y-117988180D02*
X385563695Y-116988180D01*
X385897028Y-117702466D01*
X386230361Y-116988180D01*
X386230361Y-117988180D01*
X386611314Y-116988180D02*
X387277980Y-117988180D01*
X387277980Y-116988180D02*
X386611314Y-117988180D01*
X387563695Y-116988180D02*
X388182742Y-116988180D01*
X387849409Y-117369133D01*
X387992266Y-117369133D01*
X388087504Y-117416752D01*
X388135123Y-117464371D01*
X388182742Y-117559609D01*
X388182742Y-117797704D01*
X388135123Y-117892942D01*
X388087504Y-117940561D01*
X387992266Y-117988180D01*
X387706552Y-117988180D01*
X387611314Y-117940561D01*
X387563695Y-117892942D01*
X388563695Y-117083419D02*
X388611314Y-117035800D01*
X388706552Y-116988180D01*
X388944647Y-116988180D01*
X389039885Y-117035800D01*
X389087504Y-117083419D01*
X389135123Y-117178657D01*
X389135123Y-117273895D01*
X389087504Y-117416752D01*
X388516076Y-117988180D01*
X389135123Y-117988180D01*
%TO.C,MX19*%
X109356095Y-117988180D02*
X109356095Y-116988180D01*
X109689428Y-117702466D01*
X110022761Y-116988180D01*
X110022761Y-117988180D01*
X110403714Y-116988180D02*
X111070380Y-117988180D01*
X111070380Y-116988180D02*
X110403714Y-117988180D01*
X111975142Y-117988180D02*
X111403714Y-117988180D01*
X111689428Y-117988180D02*
X111689428Y-116988180D01*
X111594190Y-117131038D01*
X111498952Y-117226276D01*
X111403714Y-117273895D01*
X112451333Y-117988180D02*
X112641809Y-117988180D01*
X112737047Y-117940561D01*
X112784666Y-117892942D01*
X112879904Y-117750085D01*
X112927523Y-117559609D01*
X112927523Y-117178657D01*
X112879904Y-117083419D01*
X112832285Y-117035800D01*
X112737047Y-116988180D01*
X112546571Y-116988180D01*
X112451333Y-117035800D01*
X112403714Y-117083419D01*
X112356095Y-117178657D01*
X112356095Y-117416752D01*
X112403714Y-117511990D01*
X112451333Y-117559609D01*
X112546571Y-117607228D01*
X112737047Y-117607228D01*
X112832285Y-117559609D01*
X112879904Y-117511990D01*
X112927523Y-117416752D01*
%TO.C,ROT1*%
X37694080Y-93956378D02*
X37217890Y-94289711D01*
X37694080Y-94527807D02*
X36694080Y-94527807D01*
X36694080Y-94146854D01*
X36741700Y-94051616D01*
X36789319Y-94003997D01*
X36884557Y-93956378D01*
X37027414Y-93956378D01*
X37122652Y-94003997D01*
X37170271Y-94051616D01*
X37217890Y-94146854D01*
X37217890Y-94527807D01*
X36694080Y-93337330D02*
X36694080Y-93146854D01*
X36741700Y-93051616D01*
X36836938Y-92956378D01*
X37027414Y-92908759D01*
X37360747Y-92908759D01*
X37551223Y-92956378D01*
X37646461Y-93051616D01*
X37694080Y-93146854D01*
X37694080Y-93337330D01*
X37646461Y-93432569D01*
X37551223Y-93527807D01*
X37360747Y-93575426D01*
X37027414Y-93575426D01*
X36836938Y-93527807D01*
X36741700Y-93432569D01*
X36694080Y-93337330D01*
X36694080Y-92623045D02*
X36694080Y-92051616D01*
X37694080Y-92337330D02*
X36694080Y-92337330D01*
X37694080Y-91194473D02*
X37694080Y-91765902D01*
X37694080Y-91480188D02*
X36694080Y-91480188D01*
X36836938Y-91575426D01*
X36932176Y-91670664D01*
X36979795Y-91765902D01*
%TO.C,MX14*%
X347466095Y-89414980D02*
X347466095Y-88414980D01*
X347799428Y-89129266D01*
X348132761Y-88414980D01*
X348132761Y-89414980D01*
X348513714Y-88414980D02*
X349180380Y-89414980D01*
X349180380Y-88414980D02*
X348513714Y-89414980D01*
X350085142Y-89414980D02*
X349513714Y-89414980D01*
X349799428Y-89414980D02*
X349799428Y-88414980D01*
X349704190Y-88557838D01*
X349608952Y-88653076D01*
X349513714Y-88700695D01*
X350942285Y-88748314D02*
X350942285Y-89414980D01*
X350704190Y-88367361D02*
X350466095Y-89081647D01*
X351085142Y-89081647D01*
%TO.C,OL1*%
X384434280Y-165748280D02*
X384434280Y-165557804D01*
X384481900Y-165462566D01*
X384577138Y-165367328D01*
X384767614Y-165319709D01*
X385100947Y-165319709D01*
X385291423Y-165367328D01*
X385386661Y-165462566D01*
X385434280Y-165557804D01*
X385434280Y-165748280D01*
X385386661Y-165843519D01*
X385291423Y-165938757D01*
X385100947Y-165986376D01*
X384767614Y-165986376D01*
X384577138Y-165938757D01*
X384481900Y-165843519D01*
X384434280Y-165748280D01*
X385434280Y-164414947D02*
X385434280Y-164891138D01*
X384434280Y-164891138D01*
X384910471Y-164081614D02*
X384910471Y-163748280D01*
X385434280Y-163605423D02*
X385434280Y-164081614D01*
X384434280Y-164081614D01*
X384434280Y-163605423D01*
X385434280Y-163176852D02*
X384434280Y-163176852D01*
X384434280Y-162938757D01*
X384481900Y-162795900D01*
X384577138Y-162700661D01*
X384672376Y-162653042D01*
X384862852Y-162605423D01*
X385005709Y-162605423D01*
X385196185Y-162653042D01*
X385291423Y-162700661D01*
X385386661Y-162795900D01*
X385434280Y-162938757D01*
X385434280Y-163176852D01*
%TO.C,MX80*%
X56971895Y-194183380D02*
X56971895Y-193183380D01*
X57305228Y-193897666D01*
X57638561Y-193183380D01*
X57638561Y-194183380D01*
X58019514Y-193183380D02*
X58686180Y-194183380D01*
X58686180Y-193183380D02*
X58019514Y-194183380D01*
X59209990Y-193611952D02*
X59114752Y-193564333D01*
X59067133Y-193516714D01*
X59019514Y-193421476D01*
X59019514Y-193373857D01*
X59067133Y-193278619D01*
X59114752Y-193231000D01*
X59209990Y-193183380D01*
X59400466Y-193183380D01*
X59495704Y-193231000D01*
X59543323Y-193278619D01*
X59590942Y-193373857D01*
X59590942Y-193421476D01*
X59543323Y-193516714D01*
X59495704Y-193564333D01*
X59400466Y-193611952D01*
X59209990Y-193611952D01*
X59114752Y-193659571D01*
X59067133Y-193707190D01*
X59019514Y-193802428D01*
X59019514Y-193992904D01*
X59067133Y-194088142D01*
X59114752Y-194135761D01*
X59209990Y-194183380D01*
X59400466Y-194183380D01*
X59495704Y-194135761D01*
X59543323Y-194088142D01*
X59590942Y-193992904D01*
X59590942Y-193802428D01*
X59543323Y-193707190D01*
X59495704Y-193659571D01*
X59400466Y-193611952D01*
X60209990Y-193183380D02*
X60305228Y-193183380D01*
X60400466Y-193231000D01*
X60448085Y-193278619D01*
X60495704Y-193373857D01*
X60543323Y-193564333D01*
X60543323Y-193802428D01*
X60495704Y-193992904D01*
X60448085Y-194088142D01*
X60400466Y-194135761D01*
X60305228Y-194183380D01*
X60209990Y-194183380D01*
X60114752Y-194135761D01*
X60067133Y-194088142D01*
X60019514Y-193992904D01*
X59971895Y-193802428D01*
X59971895Y-193564333D01*
X60019514Y-193373857D01*
X60067133Y-193278619D01*
X60114752Y-193231000D01*
X60209990Y-193183380D01*
%TO.C,MX75*%
X247459895Y-175134580D02*
X247459895Y-174134580D01*
X247793228Y-174848866D01*
X248126561Y-174134580D01*
X248126561Y-175134580D01*
X248507514Y-174134580D02*
X249174180Y-175134580D01*
X249174180Y-174134580D02*
X248507514Y-175134580D01*
X249459895Y-174134580D02*
X250126561Y-174134580D01*
X249697990Y-175134580D01*
X250983704Y-174134580D02*
X250507514Y-174134580D01*
X250459895Y-174610771D01*
X250507514Y-174563152D01*
X250602752Y-174515533D01*
X250840847Y-174515533D01*
X250936085Y-174563152D01*
X250983704Y-174610771D01*
X251031323Y-174706009D01*
X251031323Y-174944104D01*
X250983704Y-175039342D01*
X250936085Y-175086961D01*
X250840847Y-175134580D01*
X250602752Y-175134580D01*
X250507514Y-175086961D01*
X250459895Y-175039342D01*
D11*
%TO.C,MX83*%
X168407700Y-195393500D02*
X182407700Y-195393500D01*
X182407700Y-195393500D02*
X182407700Y-209393500D01*
X168407700Y-195393500D02*
X168407700Y-209393500D01*
X182407700Y-209393500D02*
X168407700Y-209393500D01*
%TO.C,MX64*%
X301749300Y-157295900D02*
X301749300Y-171295900D01*
X315749300Y-157295900D02*
X315749300Y-171295900D01*
X315749300Y-171295900D02*
X301749300Y-171295900D01*
X301749300Y-157295900D02*
X315749300Y-157295900D01*
%TO.C,MX14-1*%
X361276800Y-90625100D02*
X361276800Y-104625100D01*
X375276800Y-104625100D02*
X361276800Y-104625100D01*
X375276800Y-90625100D02*
X375276800Y-104625100D01*
X361276800Y-90625100D02*
X375276800Y-90625100D01*
%TO.C,MX1-1*%
X66020400Y-90625100D02*
X66020400Y-104625100D01*
X80020400Y-104625100D02*
X66020400Y-104625100D01*
X80020400Y-90625100D02*
X80020400Y-104625100D01*
X66020400Y-90625100D02*
X80020400Y-90625100D01*
%TO.C,MX84*%
X239840700Y-195393500D02*
X239840700Y-209393500D01*
X253840700Y-195393500D02*
X253840700Y-209393500D01*
X253840700Y-209393500D02*
X239840700Y-209393500D01*
X239840700Y-195393500D02*
X253840700Y-195393500D01*
%TO.C,MX85*%
X263651700Y-195393500D02*
X263651700Y-209393500D01*
X277651700Y-195393500D02*
X277651700Y-209393500D01*
X277651700Y-209393500D02*
X263651700Y-209393500D01*
X263651700Y-195393500D02*
X277651700Y-195393500D01*
%TO.C,MX52*%
X49352700Y-157295900D02*
X63352700Y-157295900D01*
X49352700Y-157295900D02*
X49352700Y-171295900D01*
X63352700Y-157295900D02*
X63352700Y-171295900D01*
X63352700Y-171295900D02*
X49352700Y-171295900D01*
%TO.C,MX2*%
X85069200Y-90625100D02*
X85069200Y-104625100D01*
X99069200Y-104625100D02*
X85069200Y-104625100D01*
X99069200Y-90625100D02*
X99069200Y-104625100D01*
X85069200Y-90625100D02*
X99069200Y-90625100D01*
%TO.C,MX15*%
X23160600Y-119198300D02*
X23160600Y-133198300D01*
X37160600Y-133198300D02*
X23160600Y-133198300D01*
X37160600Y-119198300D02*
X37160600Y-133198300D01*
X23160600Y-119198300D02*
X37160600Y-119198300D01*
%TO.C,MX33*%
X23160600Y-138247100D02*
X23160600Y-152247100D01*
X37160600Y-152247100D02*
X23160600Y-152247100D01*
X37160600Y-138247100D02*
X37160600Y-152247100D01*
X23160600Y-138247100D02*
X37160600Y-138247100D01*
%TO.C,MX51*%
X23160600Y-157295900D02*
X23160600Y-171295900D01*
X37160600Y-171295900D02*
X23160600Y-171295900D01*
X37160600Y-157295900D02*
X37160600Y-171295900D01*
X23160600Y-157295900D02*
X37160600Y-157295900D01*
%TO.C,MX65*%
X23160600Y-176344700D02*
X23160600Y-190344700D01*
X37160600Y-190344700D02*
X23160600Y-190344700D01*
X37160600Y-176344700D02*
X37160600Y-190344700D01*
X23160600Y-176344700D02*
X37160600Y-176344700D01*
%TO.C,MX1*%
X46971600Y-90625100D02*
X46971600Y-104625100D01*
X60971600Y-104625100D02*
X46971600Y-104625100D01*
X60971600Y-90625100D02*
X60971600Y-104625100D01*
X46971600Y-90625100D02*
X60971600Y-90625100D01*
%TO.C,MX16*%
X46971600Y-119198300D02*
X46971600Y-133198300D01*
X60971600Y-133198300D02*
X46971600Y-133198300D01*
X60971600Y-119198300D02*
X60971600Y-133198300D01*
X46971600Y-119198300D02*
X60971600Y-119198300D01*
%TO.C,MX34*%
X51733800Y-138247100D02*
X65733800Y-138247100D01*
X65733800Y-138247100D02*
X65733800Y-152247100D01*
X65733800Y-152247100D02*
X51733800Y-152247100D01*
X51733800Y-138247100D02*
X51733800Y-152247100D01*
%TO.C,MX79*%
X23160600Y-195393500D02*
X23160600Y-209393500D01*
X37160600Y-209393500D02*
X23160600Y-209393500D01*
X37160600Y-195393500D02*
X37160600Y-209393500D01*
X23160600Y-195393500D02*
X37160600Y-195393500D01*
%TO.C,MX18*%
X85069200Y-119198300D02*
X85069200Y-133198300D01*
X99069200Y-133198300D02*
X85069200Y-133198300D01*
X99069200Y-119198300D02*
X99069200Y-133198300D01*
X85069200Y-119198300D02*
X99069200Y-119198300D01*
%TO.C,MX36*%
X94593600Y-138247100D02*
X94593600Y-152247100D01*
X108593600Y-152247100D02*
X94593600Y-152247100D01*
X108593600Y-138247100D02*
X108593600Y-152247100D01*
X94593600Y-138247100D02*
X108593600Y-138247100D01*
%TO.C,MX54*%
X99355800Y-157295900D02*
X99355800Y-171295900D01*
X113355800Y-171295900D02*
X99355800Y-171295900D01*
X113355800Y-157295900D02*
X113355800Y-171295900D01*
X99355800Y-157295900D02*
X113355800Y-157295900D01*
%TO.C,MX67*%
X89831400Y-176344700D02*
X89831400Y-190344700D01*
X103831400Y-190344700D02*
X89831400Y-190344700D01*
X103831400Y-176344700D02*
X103831400Y-190344700D01*
X89831400Y-176344700D02*
X103831400Y-176344700D01*
%TO.C,MX82*%
X96974700Y-195393500D02*
X96974700Y-209393500D01*
X110974700Y-195393500D02*
X110974700Y-209393500D01*
X110974700Y-209393500D02*
X96974700Y-209393500D01*
X96974700Y-195393500D02*
X110974700Y-195393500D01*
%TO.C,MX17*%
X66020400Y-119198300D02*
X66020400Y-133198300D01*
X80020400Y-133198300D02*
X66020400Y-133198300D01*
X80020400Y-119198300D02*
X80020400Y-133198300D01*
X66020400Y-119198300D02*
X80020400Y-119198300D01*
%TO.C,MX35*%
X75544800Y-138247100D02*
X75544800Y-152247100D01*
X89544800Y-152247100D02*
X75544800Y-152247100D01*
X89544800Y-138247100D02*
X89544800Y-152247100D01*
X75544800Y-138247100D02*
X89544800Y-138247100D01*
%TO.C,MX53*%
X80248700Y-157295900D02*
X80248700Y-171295900D01*
X94248700Y-171295900D02*
X80248700Y-171295900D01*
X94248700Y-157295900D02*
X94248700Y-171295900D01*
X80248700Y-157295900D02*
X94248700Y-157295900D01*
%TO.C,MX66*%
X58877100Y-176344700D02*
X58877100Y-190344700D01*
X72877100Y-176344700D02*
X72877100Y-190344700D01*
X72877100Y-190344700D02*
X58877100Y-190344700D01*
X58877100Y-176344700D02*
X72877100Y-176344700D01*
%TO.C,MX81*%
X73163700Y-195393500D02*
X73163700Y-209393500D01*
X87163700Y-195393500D02*
X87163700Y-209393500D01*
X87163700Y-209393500D02*
X73163700Y-209393500D01*
X73163700Y-195393500D02*
X87163700Y-195393500D01*
%TO.C,MX3*%
X104118000Y-90625100D02*
X104118000Y-104625100D01*
X118118000Y-104625100D02*
X104118000Y-104625100D01*
X118118000Y-90625100D02*
X118118000Y-104625100D01*
X104118000Y-90625100D02*
X118118000Y-90625100D01*
%TO.C,MX37*%
X113642400Y-138247100D02*
X113642400Y-152247100D01*
X127642400Y-152247100D02*
X113642400Y-152247100D01*
X127642400Y-138247100D02*
X127642400Y-152247100D01*
X113642400Y-138247100D02*
X127642400Y-138247100D01*
%TO.C,MX55*%
X118404600Y-157295900D02*
X118404600Y-171295900D01*
X132404600Y-171295900D02*
X118404600Y-171295900D01*
X132404600Y-157295900D02*
X132404600Y-171295900D01*
X118404600Y-157295900D02*
X132404600Y-157295900D01*
%TO.C,MX68*%
X108880200Y-176344700D02*
X108880200Y-190344700D01*
X122880200Y-190344700D02*
X108880200Y-190344700D01*
X122880200Y-176344700D02*
X122880200Y-190344700D01*
X108880200Y-176344700D02*
X122880200Y-176344700D01*
%TO.C,MX70*%
X146977800Y-176344700D02*
X146977800Y-190344700D01*
X160977800Y-190344700D02*
X146977800Y-190344700D01*
X160977800Y-176344700D02*
X160977800Y-190344700D01*
X146977800Y-176344700D02*
X160977800Y-176344700D01*
%TO.C,MX4*%
X123166800Y-90625100D02*
X123166800Y-104625100D01*
X137166800Y-104625100D02*
X123166800Y-104625100D01*
X137166800Y-90625100D02*
X137166800Y-104625100D01*
X123166800Y-90625100D02*
X137166800Y-90625100D01*
%TO.C,MX20*%
X123166800Y-119198300D02*
X123166800Y-133198300D01*
X137166800Y-133198300D02*
X123166800Y-133198300D01*
X137166800Y-119198300D02*
X137166800Y-133198300D01*
X123166800Y-119198300D02*
X137166800Y-119198300D01*
%TO.C,MX38*%
X132691200Y-138247100D02*
X132691200Y-152247100D01*
X146691200Y-152247100D02*
X132691200Y-152247100D01*
X146691200Y-138247100D02*
X146691200Y-152247100D01*
X132691200Y-138247100D02*
X146691200Y-138247100D01*
%TO.C,MX56*%
X137453400Y-157295900D02*
X137453400Y-171295900D01*
X151453400Y-171295900D02*
X137453400Y-171295900D01*
X151453400Y-157295900D02*
X151453400Y-171295900D01*
X137453400Y-157295900D02*
X151453400Y-157295900D01*
%TO.C,MX69*%
X127929000Y-176344700D02*
X127929000Y-190344700D01*
X141929000Y-190344700D02*
X127929000Y-190344700D01*
X141929000Y-176344700D02*
X141929000Y-190344700D01*
X127929000Y-176344700D02*
X141929000Y-176344700D01*
%TO.C,MX5*%
X142215600Y-90625100D02*
X142215600Y-104625100D01*
X156215600Y-104625100D02*
X142215600Y-104625100D01*
X156215600Y-90625100D02*
X156215600Y-104625100D01*
X142215600Y-90625100D02*
X156215600Y-90625100D01*
%TO.C,MX39*%
X151740000Y-138247100D02*
X151740000Y-152247100D01*
X165740000Y-152247100D02*
X151740000Y-152247100D01*
X165740000Y-138247100D02*
X165740000Y-152247100D01*
X151740000Y-138247100D02*
X165740000Y-138247100D01*
%TO.C,MX57*%
X156502200Y-157295900D02*
X156502200Y-171295900D01*
X170502200Y-171295900D02*
X156502200Y-171295900D01*
X170502200Y-157295900D02*
X170502200Y-171295900D01*
X156502200Y-157295900D02*
X170502200Y-157295900D01*
%TO.C,MX71*%
X166026600Y-176344700D02*
X166026600Y-190344700D01*
X180026600Y-190344700D02*
X166026600Y-190344700D01*
X180026600Y-176344700D02*
X180026600Y-190344700D01*
X166026600Y-176344700D02*
X180026600Y-176344700D01*
%TO.C,MX22*%
X161264400Y-119198300D02*
X161264400Y-133198300D01*
X175264400Y-133198300D02*
X161264400Y-133198300D01*
X175264400Y-119198300D02*
X175264400Y-133198300D01*
X161264400Y-119198300D02*
X175264400Y-119198300D01*
%TO.C,MX40*%
X170788800Y-138247100D02*
X170788800Y-152247100D01*
X184788800Y-152247100D02*
X170788800Y-152247100D01*
X184788800Y-138247100D02*
X184788800Y-152247100D01*
X170788800Y-138247100D02*
X184788800Y-138247100D01*
%TO.C,MX58*%
X175551000Y-157295900D02*
X175551000Y-171295900D01*
X189551000Y-171295900D02*
X175551000Y-171295900D01*
X189551000Y-157295900D02*
X189551000Y-171295900D01*
X175551000Y-157295900D02*
X189551000Y-157295900D01*
%TO.C,MX72*%
X185075400Y-176344700D02*
X185075400Y-190344700D01*
X199075400Y-190344700D02*
X185075400Y-190344700D01*
X199075400Y-176344700D02*
X199075400Y-190344700D01*
X185075400Y-176344700D02*
X199075400Y-176344700D01*
%TO.C,MX7*%
X189837600Y-90625100D02*
X189837600Y-104625100D01*
X203837600Y-104625100D02*
X189837600Y-104625100D01*
X203837600Y-90625100D02*
X203837600Y-104625100D01*
X189837600Y-90625100D02*
X203837600Y-90625100D01*
%TO.C,MX23*%
X180313200Y-119198300D02*
X180313200Y-133198300D01*
X194313200Y-133198300D02*
X180313200Y-133198300D01*
X194313200Y-119198300D02*
X194313200Y-133198300D01*
X180313200Y-119198300D02*
X194313200Y-119198300D01*
%TO.C,MX41*%
X189837600Y-138247100D02*
X189837600Y-152247100D01*
X203837600Y-152247100D02*
X189837600Y-152247100D01*
X203837600Y-138247100D02*
X203837600Y-152247100D01*
X189837600Y-138247100D02*
X203837600Y-138247100D01*
%TO.C,MX59*%
X194599800Y-157295900D02*
X194599800Y-171295900D01*
X208599800Y-171295900D02*
X194599800Y-171295900D01*
X208599800Y-157295900D02*
X208599800Y-171295900D01*
X194599800Y-157295900D02*
X208599800Y-157295900D01*
%TO.C,MX73*%
X204124200Y-176344700D02*
X204124200Y-190344700D01*
X218124200Y-190344700D02*
X204124200Y-190344700D01*
X218124200Y-176344700D02*
X218124200Y-190344700D01*
X204124200Y-176344700D02*
X218124200Y-176344700D01*
%TO.C,MX8*%
X208886400Y-90625100D02*
X208886400Y-104625100D01*
X222886400Y-104625100D02*
X208886400Y-104625100D01*
X222886400Y-90625100D02*
X222886400Y-104625100D01*
X208886400Y-90625100D02*
X222886400Y-90625100D01*
%TO.C,MX24*%
X199362000Y-119198300D02*
X199362000Y-133198300D01*
X213362000Y-133198300D02*
X199362000Y-133198300D01*
X213362000Y-119198300D02*
X213362000Y-133198300D01*
X199362000Y-119198300D02*
X213362000Y-119198300D01*
%TO.C,MX42*%
X208886400Y-138247100D02*
X208886400Y-152247100D01*
X222886400Y-152247100D02*
X208886400Y-152247100D01*
X222886400Y-138247100D02*
X222886400Y-152247100D01*
X208886400Y-138247100D02*
X222886400Y-138247100D01*
%TO.C,MX60*%
X213648600Y-157295900D02*
X213648600Y-171295900D01*
X227648600Y-171295900D02*
X213648600Y-171295900D01*
X227648600Y-157295900D02*
X227648600Y-171295900D01*
X213648600Y-157295900D02*
X227648600Y-157295900D01*
%TO.C,MX74*%
X223173000Y-176344700D02*
X223173000Y-190344700D01*
X237173000Y-190344700D02*
X223173000Y-190344700D01*
X237173000Y-176344700D02*
X237173000Y-190344700D01*
X223173000Y-176344700D02*
X237173000Y-176344700D01*
%TO.C,MX9*%
X227935200Y-90625100D02*
X227935200Y-104625100D01*
X241935200Y-104625100D02*
X227935200Y-104625100D01*
X241935200Y-90625100D02*
X241935200Y-104625100D01*
X227935200Y-90625100D02*
X241935200Y-90625100D01*
%TO.C,MX25*%
X218410800Y-119198300D02*
X218410800Y-133198300D01*
X232410800Y-133198300D02*
X218410800Y-133198300D01*
X232410800Y-119198300D02*
X232410800Y-133198300D01*
X218410800Y-119198300D02*
X232410800Y-119198300D01*
%TO.C,MX43*%
X227935200Y-138247100D02*
X227935200Y-152247100D01*
X241935200Y-152247100D02*
X227935200Y-152247100D01*
X241935200Y-138247100D02*
X241935200Y-152247100D01*
X227935200Y-138247100D02*
X241935200Y-138247100D01*
%TO.C,MX61*%
X232697400Y-157295900D02*
X232697400Y-171295900D01*
X246697400Y-171295900D02*
X232697400Y-171295900D01*
X246697400Y-157295900D02*
X246697400Y-171295900D01*
X232697400Y-157295900D02*
X246697400Y-157295900D01*
%TO.C,MX10*%
X256508400Y-90625100D02*
X256508400Y-104625100D01*
X270508400Y-104625100D02*
X256508400Y-104625100D01*
X270508400Y-90625100D02*
X270508400Y-104625100D01*
X256508400Y-90625100D02*
X270508400Y-90625100D01*
%TO.C,MX26*%
X237459600Y-119198300D02*
X237459600Y-133198300D01*
X251459600Y-133198300D02*
X237459600Y-133198300D01*
X251459600Y-119198300D02*
X251459600Y-133198300D01*
X237459600Y-119198300D02*
X251459600Y-119198300D01*
%TO.C,MX44*%
X246984000Y-138247100D02*
X246984000Y-152247100D01*
X260984000Y-152247100D02*
X246984000Y-152247100D01*
X260984000Y-138247100D02*
X260984000Y-152247100D01*
X246984000Y-138247100D02*
X260984000Y-138247100D01*
%TO.C,MX62*%
X251746200Y-157295900D02*
X251746200Y-171295900D01*
X265746200Y-171295900D02*
X251746200Y-171295900D01*
X265746200Y-157295900D02*
X265746200Y-171295900D01*
X251746200Y-157295900D02*
X265746200Y-157295900D01*
%TO.C,MX76*%
X261270600Y-176344700D02*
X261270600Y-190344700D01*
X275270600Y-190344700D02*
X261270600Y-190344700D01*
X275270600Y-176344700D02*
X275270600Y-190344700D01*
X261270600Y-176344700D02*
X275270600Y-176344700D01*
%TO.C,MX11*%
X275557200Y-90625100D02*
X275557200Y-104625100D01*
X289557200Y-104625100D02*
X275557200Y-104625100D01*
X289557200Y-90625100D02*
X289557200Y-104625100D01*
X275557200Y-90625100D02*
X289557200Y-90625100D01*
%TO.C,MX27*%
X256508400Y-119198300D02*
X256508400Y-133198300D01*
X270508400Y-133198300D02*
X256508400Y-133198300D01*
X270508400Y-119198300D02*
X270508400Y-133198300D01*
X256508400Y-119198300D02*
X270508400Y-119198300D01*
%TO.C,MX45*%
X266032800Y-138247100D02*
X266032800Y-152247100D01*
X280032800Y-152247100D02*
X266032800Y-152247100D01*
X280032800Y-138247100D02*
X280032800Y-152247100D01*
X266032800Y-138247100D02*
X280032800Y-138247100D01*
%TO.C,MX63*%
X270795000Y-157295900D02*
X270795000Y-171295900D01*
X284795000Y-171295900D02*
X270795000Y-171295900D01*
X284795000Y-157295900D02*
X284795000Y-171295900D01*
X270795000Y-157295900D02*
X284795000Y-157295900D01*
%TO.C,MX86*%
X287462700Y-195393500D02*
X287462700Y-209393500D01*
X301462700Y-195393500D02*
X301462700Y-209393500D01*
X301462700Y-209393500D02*
X287462700Y-209393500D01*
X287462700Y-195393500D02*
X301462700Y-195393500D01*
%TO.C,MX12*%
X294606000Y-90625100D02*
X294606000Y-104625100D01*
X308606000Y-104625100D02*
X294606000Y-104625100D01*
X308606000Y-90625100D02*
X308606000Y-104625100D01*
X294606000Y-90625100D02*
X308606000Y-90625100D01*
%TO.C,MX28*%
X275557200Y-119198300D02*
X275557200Y-133198300D01*
X289557200Y-133198300D02*
X275557200Y-133198300D01*
X289557200Y-119198300D02*
X289557200Y-133198300D01*
X275557200Y-119198300D02*
X289557200Y-119198300D01*
%TO.C,MX46*%
X285081600Y-138247100D02*
X285081600Y-152247100D01*
X299081600Y-152247100D02*
X285081600Y-152247100D01*
X299081600Y-138247100D02*
X299081600Y-152247100D01*
X285081600Y-138247100D02*
X299081600Y-138247100D01*
%TO.C,MX87*%
X311273700Y-195393500D02*
X311273700Y-209393500D01*
X325273700Y-195393500D02*
X325273700Y-209393500D01*
X325273700Y-209393500D02*
X311273700Y-209393500D01*
X311273700Y-195393500D02*
X325273700Y-195393500D01*
%TO.C,MX13*%
X313654800Y-90625100D02*
X313654800Y-104625100D01*
X327654800Y-104625100D02*
X313654800Y-104625100D01*
X327654800Y-90625100D02*
X327654800Y-104625100D01*
X313654800Y-90625100D02*
X327654800Y-90625100D01*
%TO.C,MX29*%
X304130400Y-119198300D02*
X304130400Y-133198300D01*
X304130400Y-119198300D02*
X318130400Y-119198300D01*
X318130400Y-119198300D02*
X318130400Y-133198300D01*
X318130400Y-133198300D02*
X304130400Y-133198300D01*
%TO.C,MX47*%
X308892600Y-138247100D02*
X322892600Y-138247100D01*
X322892600Y-138247100D02*
X322892600Y-152247100D01*
X322892600Y-152247100D02*
X308892600Y-152247100D01*
X308892600Y-138247100D02*
X308892600Y-152247100D01*
%TO.C,MX77*%
X310977562Y-176343844D02*
X310977562Y-190343844D01*
X310977562Y-190343844D02*
X296977562Y-190343844D01*
X296977562Y-176343844D02*
X296977562Y-190343844D01*
X296977562Y-176343844D02*
X310977562Y-176343844D01*
%TO.C,MX88*%
X342228000Y-195393500D02*
X342228000Y-209393500D01*
X356228000Y-209393500D02*
X342228000Y-209393500D01*
X356228000Y-195393500D02*
X356228000Y-209393500D01*
X342228000Y-195393500D02*
X356228000Y-195393500D01*
%TO.C,MX30*%
X342228000Y-119198300D02*
X342228000Y-133198300D01*
X356228000Y-133198300D02*
X342228000Y-133198300D01*
X356228000Y-119198300D02*
X356228000Y-133198300D01*
X342228000Y-119198300D02*
X356228000Y-119198300D01*
%TO.C,MX48*%
X342228000Y-138247100D02*
X342228000Y-152247100D01*
X356228000Y-152247100D02*
X342228000Y-152247100D01*
X356228000Y-138247100D02*
X356228000Y-152247100D01*
X342228000Y-138247100D02*
X356228000Y-138247100D01*
%TO.C,MX31*%
X361276800Y-119198300D02*
X361276800Y-133198300D01*
X375276800Y-133198300D02*
X361276800Y-133198300D01*
X375276800Y-119198300D02*
X375276800Y-133198300D01*
X361276800Y-119198300D02*
X375276800Y-119198300D01*
%TO.C,MX49*%
X361276800Y-138247100D02*
X361276800Y-152247100D01*
X375276800Y-152247100D02*
X361276800Y-152247100D01*
X375276800Y-138247100D02*
X375276800Y-152247100D01*
X361276800Y-138247100D02*
X375276800Y-138247100D01*
%TO.C,MX78*%
X361276800Y-176344700D02*
X361276800Y-190344700D01*
X375276800Y-190344700D02*
X361276800Y-190344700D01*
X375276800Y-176344700D02*
X375276800Y-190344700D01*
X361276800Y-176344700D02*
X375276800Y-176344700D01*
%TO.C,MX89*%
X361276800Y-195393500D02*
X361276800Y-209393500D01*
X375276800Y-209393500D02*
X361276800Y-209393500D01*
X375276800Y-195393500D02*
X375276800Y-209393500D01*
X361276800Y-195393500D02*
X375276800Y-195393500D01*
%TO.C,MX50*%
X380325600Y-138247100D02*
X380325600Y-152247100D01*
X394325600Y-152247100D02*
X380325600Y-152247100D01*
X394325600Y-138247100D02*
X394325600Y-152247100D01*
X380325600Y-138247100D02*
X394325600Y-138247100D01*
%TO.C,MX90*%
X380325600Y-195393500D02*
X380325600Y-209393500D01*
X394325600Y-209393500D02*
X380325600Y-209393500D01*
X394325600Y-195393500D02*
X394325600Y-209393500D01*
X380325600Y-195393500D02*
X394325600Y-195393500D01*
%TO.C,ROT2*%
X387206700Y-97084950D02*
X387206700Y-98084950D01*
X387706700Y-97584950D02*
X386706700Y-97584950D01*
X383706700Y-103684950D02*
X381306700Y-103684950D01*
X388506700Y-103684950D02*
X385906700Y-103684950D01*
X393106700Y-103684950D02*
X390706700Y-103684950D01*
X391306700Y-90384950D02*
X391006700Y-90084950D01*
X391306700Y-89784950D02*
X391306700Y-90384950D01*
X391006700Y-90084950D02*
X391306700Y-89784950D01*
X393106700Y-91484950D02*
X381306700Y-91484950D01*
X393106700Y-95584950D02*
X393106700Y-91484950D01*
X381306700Y-95584950D02*
X381306700Y-91484950D01*
X381306700Y-103684950D02*
X381306700Y-99584950D01*
X393106700Y-99584950D02*
X393106700Y-103684950D01*
X390206700Y-97584950D02*
G75*
G03*
X390206700Y-97584950I-3000000J0D01*
G01*
%TO.C,MX6*%
X170788800Y-90625100D02*
X170788800Y-104625100D01*
X184788800Y-104625100D02*
X170788800Y-104625100D01*
X184788800Y-90625100D02*
X184788800Y-104625100D01*
X170788800Y-90625100D02*
X184788800Y-90625100D01*
%TO.C,MX21*%
X142215600Y-119198300D02*
X142215600Y-133198300D01*
X156215600Y-133198300D02*
X142215600Y-133198300D01*
X156215600Y-119198300D02*
X156215600Y-133198300D01*
X142215600Y-119198300D02*
X156215600Y-119198300D01*
%TO.C,MX32*%
X380325600Y-119198300D02*
X380325600Y-133198300D01*
X394325600Y-133198300D02*
X380325600Y-133198300D01*
X394325600Y-119198300D02*
X394325600Y-133198300D01*
X380325600Y-119198300D02*
X394325600Y-119198300D01*
%TO.C,MX19*%
X104118000Y-119198300D02*
X104118000Y-133198300D01*
X118118000Y-133198300D02*
X104118000Y-133198300D01*
X118118000Y-119198300D02*
X118118000Y-133198300D01*
X104118000Y-119198300D02*
X118118000Y-119198300D01*
%TO.C,ROT1*%
X30041700Y-97084950D02*
X30041700Y-98084950D01*
X30541700Y-97584950D02*
X29541700Y-97584950D01*
X26541700Y-103684950D02*
X24141700Y-103684950D01*
X31341700Y-103684950D02*
X28741700Y-103684950D01*
X35941700Y-103684950D02*
X33541700Y-103684950D01*
X34141700Y-90384950D02*
X33841700Y-90084950D01*
X34141700Y-89784950D02*
X34141700Y-90384950D01*
X33841700Y-90084950D02*
X34141700Y-89784950D01*
X35941700Y-91484950D02*
X24141700Y-91484950D01*
X35941700Y-95584950D02*
X35941700Y-91484950D01*
X24141700Y-95584950D02*
X24141700Y-91484950D01*
X24141700Y-103684950D02*
X24141700Y-99584950D01*
X35941700Y-99584950D02*
X35941700Y-103684950D01*
X33041700Y-97584950D02*
G75*
G03*
X33041700Y-97584950I-3000000J0D01*
G01*
%TO.C,MX14*%
X342228000Y-90625100D02*
X342228000Y-104625100D01*
X356228000Y-104625100D02*
X342228000Y-104625100D01*
X356228000Y-90625100D02*
X356228000Y-104625100D01*
X342228000Y-90625100D02*
X356228000Y-90625100D01*
%TO.C,MX80*%
X49352700Y-195393500D02*
X49352700Y-209393500D01*
X63352700Y-195393500D02*
X63352700Y-209393500D01*
X63352700Y-209393500D02*
X49352700Y-209393500D01*
X49352700Y-195393500D02*
X63352700Y-195393500D01*
%TO.C,MX75*%
X242221800Y-176344700D02*
X242221800Y-190344700D01*
X256221800Y-190344700D02*
X242221800Y-190344700D01*
X256221800Y-176344700D02*
X256221800Y-190344700D01*
X242221800Y-176344700D02*
X256221800Y-176344700D01*
%TD*%
D12*
%TO.C,OL1*%
X386531900Y-168105900D03*
X386531900Y-165565900D03*
X386531900Y-163025900D03*
X386531900Y-160485900D03*
%TD*%
%LPC*%
D13*
%TO.C,MX83*%
X175407700Y-202393500D03*
D14*
X125407700Y-194153500D03*
D15*
X225407700Y-209393500D03*
D16*
X180487700Y-202393500D03*
D14*
X225407700Y-194153500D03*
D15*
X125407700Y-209393500D03*
D16*
X170327700Y-202393500D03*
%TD*%
D15*
%TO.C,MX64*%
X296811300Y-171295900D03*
D14*
X296811300Y-156055900D03*
D16*
X313829300Y-164295900D03*
D14*
X320687300Y-156055900D03*
D15*
X320687300Y-171295900D03*
D16*
X303669300Y-164295900D03*
D13*
X308749300Y-164295900D03*
%TD*%
D16*
%TO.C,MX14-1*%
X373356800Y-97625100D03*
D13*
X368276800Y-97625100D03*
D16*
X363196800Y-97625100D03*
%TD*%
%TO.C,MX1-1*%
X78100400Y-97625100D03*
D13*
X73020400Y-97625100D03*
D16*
X67940400Y-97625100D03*
%TD*%
D13*
%TO.C,MX84*%
X246840700Y-202393500D03*
D16*
X251920700Y-202393500D03*
X241760700Y-202393500D03*
%TD*%
D13*
%TO.C,MX85*%
X270651700Y-202393500D03*
D16*
X275731700Y-202393500D03*
X265571700Y-202393500D03*
%TD*%
%TO.C,MX52*%
X51272700Y-164295900D03*
D13*
X56352700Y-164295900D03*
D16*
X61432700Y-164295900D03*
%TD*%
%TO.C,MX2*%
X97149200Y-97625100D03*
D13*
X92069200Y-97625100D03*
D16*
X86989200Y-97625100D03*
%TD*%
%TO.C,MX15*%
X35240600Y-126198300D03*
D13*
X30160600Y-126198300D03*
D16*
X25080600Y-126198300D03*
%TD*%
%TO.C,MX33*%
X35240600Y-145247100D03*
D13*
X30160600Y-145247100D03*
D16*
X25080600Y-145247100D03*
%TD*%
%TO.C,MX51*%
X35240600Y-164295900D03*
D13*
X30160600Y-164295900D03*
D16*
X25080600Y-164295900D03*
%TD*%
%TO.C,MX65*%
X35240600Y-183344700D03*
D13*
X30160600Y-183344700D03*
D16*
X25080600Y-183344700D03*
%TD*%
%TO.C,MX1*%
X59051600Y-97625100D03*
D13*
X53971600Y-97625100D03*
D16*
X48891600Y-97625100D03*
%TD*%
%TO.C,MX16*%
X59051600Y-126198300D03*
D13*
X53971600Y-126198300D03*
D16*
X48891600Y-126198300D03*
%TD*%
D13*
%TO.C,MX34*%
X58733800Y-145247100D03*
D16*
X63813800Y-145247100D03*
X53653800Y-145247100D03*
%TD*%
%TO.C,MX79*%
X35240600Y-202393500D03*
D13*
X30160600Y-202393500D03*
D16*
X25080600Y-202393500D03*
%TD*%
%TO.C,MX18*%
X97149200Y-126198300D03*
D13*
X92069200Y-126198300D03*
D16*
X86989200Y-126198300D03*
%TD*%
%TO.C,MX36*%
X106673600Y-145247100D03*
D13*
X101593600Y-145247100D03*
D16*
X96513600Y-145247100D03*
%TD*%
%TO.C,MX54*%
X111435800Y-164295900D03*
D13*
X106355800Y-164295900D03*
D16*
X101275800Y-164295900D03*
%TD*%
%TO.C,MX67*%
X101911400Y-183344700D03*
D13*
X96831400Y-183344700D03*
D16*
X91751400Y-183344700D03*
%TD*%
D13*
%TO.C,MX82*%
X103974700Y-202393500D03*
D16*
X109054700Y-202393500D03*
X98894700Y-202393500D03*
%TD*%
%TO.C,MX17*%
X78100400Y-126198300D03*
D13*
X73020400Y-126198300D03*
D16*
X67940400Y-126198300D03*
%TD*%
%TO.C,MX35*%
X87624800Y-145247100D03*
D13*
X82544800Y-145247100D03*
D16*
X77464800Y-145247100D03*
%TD*%
%TO.C,MX53*%
X92328700Y-164295900D03*
D13*
X87248700Y-164295900D03*
D16*
X82168700Y-164295900D03*
%TD*%
%TO.C,MX66*%
X70957100Y-183344700D03*
D14*
X77815100Y-191584700D03*
X53939100Y-191584700D03*
D15*
X53939100Y-176344700D03*
D16*
X60797100Y-183344700D03*
D13*
X65877100Y-183344700D03*
D15*
X77815100Y-176344700D03*
%TD*%
D13*
%TO.C,MX81*%
X80163700Y-202393500D03*
D16*
X85243700Y-202393500D03*
X75083700Y-202393500D03*
%TD*%
%TO.C,MX3*%
X116198000Y-97625100D03*
D13*
X111118000Y-97625100D03*
D16*
X106038000Y-97625100D03*
%TD*%
%TO.C,MX37*%
X125722400Y-145247100D03*
D13*
X120642400Y-145247100D03*
D16*
X115562400Y-145247100D03*
%TD*%
%TO.C,MX55*%
X130484600Y-164295900D03*
D13*
X125404600Y-164295900D03*
D16*
X120324600Y-164295900D03*
%TD*%
%TO.C,MX68*%
X120960200Y-183344700D03*
D13*
X115880200Y-183344700D03*
D16*
X110800200Y-183344700D03*
%TD*%
%TO.C,MX70*%
X159057800Y-183344700D03*
D13*
X153977800Y-183344700D03*
D16*
X148897800Y-183344700D03*
%TD*%
%TO.C,MX4*%
X135246800Y-97625100D03*
D13*
X130166800Y-97625100D03*
D16*
X125086800Y-97625100D03*
%TD*%
%TO.C,MX20*%
X135246800Y-126198300D03*
D13*
X130166800Y-126198300D03*
D16*
X125086800Y-126198300D03*
%TD*%
%TO.C,MX38*%
X144771200Y-145247100D03*
D13*
X139691200Y-145247100D03*
D16*
X134611200Y-145247100D03*
%TD*%
%TO.C,MX56*%
X149533400Y-164295900D03*
D13*
X144453400Y-164295900D03*
D16*
X139373400Y-164295900D03*
%TD*%
%TO.C,MX69*%
X140009000Y-183344700D03*
D13*
X134929000Y-183344700D03*
D16*
X129849000Y-183344700D03*
%TD*%
%TO.C,MX5*%
X154295600Y-97625100D03*
D13*
X149215600Y-97625100D03*
D16*
X144135600Y-97625100D03*
%TD*%
%TO.C,MX39*%
X163820000Y-145247100D03*
D13*
X158740000Y-145247100D03*
D16*
X153660000Y-145247100D03*
%TD*%
%TO.C,MX57*%
X168582200Y-164295900D03*
D13*
X163502200Y-164295900D03*
D16*
X158422200Y-164295900D03*
%TD*%
%TO.C,MX71*%
X178106600Y-183344700D03*
D13*
X173026600Y-183344700D03*
D16*
X167946600Y-183344700D03*
%TD*%
%TO.C,MX22*%
X173344400Y-126198300D03*
D13*
X168264400Y-126198300D03*
D16*
X163184400Y-126198300D03*
%TD*%
%TO.C,MX40*%
X182868800Y-145247100D03*
D13*
X177788800Y-145247100D03*
D16*
X172708800Y-145247100D03*
%TD*%
%TO.C,MX58*%
X187631000Y-164295900D03*
D13*
X182551000Y-164295900D03*
D16*
X177471000Y-164295900D03*
%TD*%
%TO.C,MX72*%
X197155400Y-183344700D03*
D13*
X192075400Y-183344700D03*
D16*
X186995400Y-183344700D03*
%TD*%
%TO.C,MX7*%
X201917600Y-97625100D03*
D13*
X196837600Y-97625100D03*
D16*
X191757600Y-97625100D03*
%TD*%
%TO.C,MX23*%
X192393200Y-126198300D03*
D13*
X187313200Y-126198300D03*
D16*
X182233200Y-126198300D03*
%TD*%
%TO.C,MX41*%
X201917600Y-145247100D03*
D13*
X196837600Y-145247100D03*
D16*
X191757600Y-145247100D03*
%TD*%
%TO.C,MX59*%
X206679800Y-164295900D03*
D13*
X201599800Y-164295900D03*
D16*
X196519800Y-164295900D03*
%TD*%
%TO.C,MX73*%
X216204200Y-183344700D03*
D13*
X211124200Y-183344700D03*
D16*
X206044200Y-183344700D03*
%TD*%
%TO.C,MX8*%
X220966400Y-97625100D03*
D13*
X215886400Y-97625100D03*
D16*
X210806400Y-97625100D03*
%TD*%
%TO.C,MX24*%
X211442000Y-126198300D03*
D13*
X206362000Y-126198300D03*
D16*
X201282000Y-126198300D03*
%TD*%
%TO.C,MX42*%
X220966400Y-145247100D03*
D13*
X215886400Y-145247100D03*
D16*
X210806400Y-145247100D03*
%TD*%
%TO.C,MX60*%
X225728600Y-164295900D03*
D13*
X220648600Y-164295900D03*
D16*
X215568600Y-164295900D03*
%TD*%
%TO.C,MX74*%
X235253000Y-183344700D03*
D13*
X230173000Y-183344700D03*
D16*
X225093000Y-183344700D03*
%TD*%
%TO.C,MX9*%
X240015200Y-97625100D03*
D13*
X234935200Y-97625100D03*
D16*
X229855200Y-97625100D03*
%TD*%
%TO.C,MX25*%
X230490800Y-126198300D03*
D13*
X225410800Y-126198300D03*
D16*
X220330800Y-126198300D03*
%TD*%
%TO.C,MX43*%
X240015200Y-145247100D03*
D13*
X234935200Y-145247100D03*
D16*
X229855200Y-145247100D03*
%TD*%
%TO.C,MX61*%
X244777400Y-164295900D03*
D13*
X239697400Y-164295900D03*
D16*
X234617400Y-164295900D03*
%TD*%
%TO.C,MX10*%
X268588400Y-97625100D03*
D13*
X263508400Y-97625100D03*
D16*
X258428400Y-97625100D03*
%TD*%
%TO.C,MX26*%
X249539600Y-126198300D03*
D13*
X244459600Y-126198300D03*
D16*
X239379600Y-126198300D03*
%TD*%
%TO.C,MX44*%
X259064000Y-145247100D03*
D13*
X253984000Y-145247100D03*
D16*
X248904000Y-145247100D03*
%TD*%
%TO.C,MX62*%
X263826200Y-164295900D03*
D13*
X258746200Y-164295900D03*
D16*
X253666200Y-164295900D03*
%TD*%
%TO.C,MX76*%
X273350600Y-183344700D03*
D13*
X268270600Y-183344700D03*
D16*
X263190600Y-183344700D03*
%TD*%
%TO.C,MX11*%
X287637200Y-97625100D03*
D13*
X282557200Y-97625100D03*
D16*
X277477200Y-97625100D03*
%TD*%
%TO.C,MX27*%
X268588400Y-126198300D03*
D13*
X263508400Y-126198300D03*
D16*
X258428400Y-126198300D03*
%TD*%
%TO.C,MX45*%
X278112800Y-145247100D03*
D13*
X273032800Y-145247100D03*
D16*
X267952800Y-145247100D03*
%TD*%
%TO.C,MX63*%
X282875000Y-164295900D03*
D13*
X277795000Y-164295900D03*
D16*
X272715000Y-164295900D03*
%TD*%
D13*
%TO.C,MX86*%
X294462700Y-202393500D03*
D16*
X299542700Y-202393500D03*
X289382700Y-202393500D03*
%TD*%
%TO.C,MX12*%
X306686000Y-97625100D03*
D13*
X301606000Y-97625100D03*
D16*
X296526000Y-97625100D03*
%TD*%
%TO.C,MX28*%
X287637200Y-126198300D03*
D13*
X282557200Y-126198300D03*
D16*
X277477200Y-126198300D03*
%TD*%
%TO.C,MX46*%
X297161600Y-145247100D03*
D13*
X292081600Y-145247100D03*
D16*
X287001600Y-145247100D03*
%TD*%
D13*
%TO.C,MX87*%
X318273700Y-202393500D03*
D16*
X323353700Y-202393500D03*
X313193700Y-202393500D03*
%TD*%
%TO.C,MX13*%
X325734800Y-97625100D03*
D13*
X320654800Y-97625100D03*
D16*
X315574800Y-97625100D03*
%TD*%
D15*
%TO.C,MX29*%
X299192400Y-119198300D03*
X323068400Y-119198300D03*
D16*
X306050400Y-126198300D03*
D13*
X311130400Y-126198300D03*
D14*
X323068400Y-134438300D03*
X299192400Y-134438300D03*
D16*
X316210400Y-126198300D03*
%TD*%
D13*
%TO.C,MX47*%
X315892600Y-145247100D03*
D16*
X320972600Y-145247100D03*
X310812600Y-145247100D03*
%TD*%
D13*
%TO.C,MX77*%
X303977562Y-183343844D03*
D14*
X292049100Y-191584700D03*
X315925100Y-191584700D03*
D15*
X315925100Y-176344700D03*
D16*
X298897562Y-183343844D03*
X309057562Y-183343844D03*
D15*
X292049100Y-176344700D03*
%TD*%
D16*
%TO.C,MX88*%
X354308000Y-202393500D03*
D13*
X349228000Y-202393500D03*
D16*
X344148000Y-202393500D03*
%TD*%
%TO.C,MX30*%
X354308000Y-126198300D03*
D13*
X349228000Y-126198300D03*
D16*
X344148000Y-126198300D03*
%TD*%
%TO.C,MX48*%
X354308000Y-145247100D03*
D13*
X349228000Y-145247100D03*
D16*
X344148000Y-145247100D03*
%TD*%
%TO.C,MX31*%
X373356800Y-126198300D03*
D13*
X368276800Y-126198300D03*
D16*
X363196800Y-126198300D03*
%TD*%
%TO.C,MX49*%
X373356800Y-145247100D03*
D13*
X368276800Y-145247100D03*
D16*
X363196800Y-145247100D03*
%TD*%
%TO.C,MX78*%
X373356800Y-183344700D03*
D13*
X368276800Y-183344700D03*
D16*
X363196800Y-183344700D03*
%TD*%
%TO.C,MX89*%
X373356800Y-202393500D03*
D13*
X368276800Y-202393500D03*
D16*
X363196800Y-202393500D03*
%TD*%
%TO.C,MX50*%
X392405600Y-145247100D03*
D13*
X387325600Y-145247100D03*
D16*
X382245600Y-145247100D03*
%TD*%
%TO.C,MX90*%
X392405600Y-202393500D03*
D13*
X387325600Y-202393500D03*
D16*
X382245600Y-202393500D03*
%TD*%
D17*
%TO.C,ROT2*%
X384706700Y-104584950D03*
X389706700Y-104584950D03*
D18*
X381606700Y-97584950D03*
X392806700Y-97584950D03*
D17*
X384706700Y-90084950D03*
X387206700Y-90084950D03*
D19*
X389706700Y-90084950D03*
%TD*%
D16*
%TO.C,MX6*%
X182868800Y-97625100D03*
D13*
X177788800Y-97625100D03*
D16*
X172708800Y-97625100D03*
%TD*%
%TO.C,MX21*%
X154295600Y-126198300D03*
D13*
X149215600Y-126198300D03*
D16*
X144135600Y-126198300D03*
%TD*%
%TO.C,MX32*%
X392405600Y-126198300D03*
D13*
X387325600Y-126198300D03*
D16*
X382245600Y-126198300D03*
%TD*%
%TO.C,MX19*%
X116198000Y-126198300D03*
D13*
X111118000Y-126198300D03*
D16*
X106038000Y-126198300D03*
%TD*%
D17*
%TO.C,ROT1*%
X27541700Y-104584950D03*
X32541700Y-104584950D03*
D18*
X24441700Y-97584950D03*
X35641700Y-97584950D03*
D17*
X27541700Y-90084950D03*
X30041700Y-90084950D03*
D19*
X32541700Y-90084950D03*
%TD*%
D16*
%TO.C,MX14*%
X354308000Y-97625100D03*
D13*
X349228000Y-97625100D03*
D16*
X344148000Y-97625100D03*
%TD*%
D13*
%TO.C,MX80*%
X56352700Y-202393500D03*
D16*
X61432700Y-202393500D03*
X51272700Y-202393500D03*
%TD*%
%TO.C,MX75*%
X254301800Y-183344700D03*
D13*
X249221800Y-183344700D03*
D16*
X244141800Y-183344700D03*
%TD*%
D20*
%TO.C,COL12*%
X255571400Y-119848700D03*
%TD*%
%TO.C,COL13*%
X274620200Y-119848700D03*
%TD*%
%TO.C,COL3*%
X84132200Y-119848700D03*
%TD*%
%TO.C,COL0*%
X22223600Y-119848700D03*
%TD*%
%TO.C,ROW5*%
X42859800Y-205568300D03*
%TD*%
%TO.C,ROW4*%
X42859800Y-186519500D03*
%TD*%
%TO.C,ROW3*%
X42859800Y-167470700D03*
%TD*%
%TO.C,ROW2*%
X42859800Y-148421900D03*
%TD*%
%TO.C,ROW1*%
X42859800Y-129373100D03*
%TD*%
%TO.C,ROW0*%
X42859800Y-100799900D03*
%TD*%
%TO.C,COL16*%
X360339800Y-120642400D03*
%TD*%
%TO.C,COL17*%
X379388600Y-120642400D03*
%TD*%
%TO.C,COL4*%
X103181000Y-119848700D03*
%TD*%
%TO.C,COL5*%
X122229800Y-119848700D03*
%TD*%
%TO.C,COL6*%
X141278600Y-119848700D03*
%TD*%
%TO.C,COL7*%
X160327400Y-119848700D03*
%TD*%
%TO.C,COL8*%
X179376200Y-119848700D03*
%TD*%
%TO.C,COL9*%
X198425000Y-119848700D03*
%TD*%
%TO.C,COL10*%
X217473800Y-119848700D03*
%TD*%
%TO.C,COL11*%
X236522600Y-119848700D03*
%TD*%
%TO.C,COL14*%
X303193400Y-119848700D03*
%TD*%
%TO.C,COL2*%
X65083400Y-119848700D03*
%TD*%
%TO.C,COL1*%
X46034600Y-119848700D03*
%TD*%
%TO.C,BOOT0*%
X380976000Y-173820300D03*
%TD*%
%TO.C,BKL1*%
X336131950Y-159136838D03*
%TD*%
D21*
%TO.C,J1*%
X361133500Y-163502200D03*
D22*
X361133500Y-166042200D03*
X361133500Y-168582200D03*
X361133500Y-171122200D03*
%TD*%
D20*
%TO.C,X1*%
X352402800Y-185725800D03*
%TD*%
%TO.C,X2*%
X349228000Y-185725800D03*
%TD*%
D23*
%TO.C,USB1*%
X253541800Y-80382600D03*
X244901800Y-80382600D03*
D24*
X253541800Y-84562600D03*
X244901800Y-84562600D03*
D25*
X246331800Y-84032600D03*
X252111800Y-84032600D03*
%TD*%
D20*
%TO.C,RST1*%
X366689400Y-161914800D03*
%TD*%
%TO.C,COL15*%
X341311250Y-120644488D03*
%TD*%
D21*
%TO.C,J3*%
X337466400Y-184138388D03*
D22*
X334926400Y-184138388D03*
X332386400Y-184138388D03*
%TD*%
M02*
