M48
; DRILL file {KiCad (6.0.0)} date Sun Feb 20 21:11:12 2022
; FORMAT={-:-/ absolute / metric / decimal}
; #@! TF.CreationDate,2022-02-20T21:11:12-05:00
; #@! TF.GenerationSoftware,Kicad,Pcbnew,(6.0.0)
; #@! TF.FileFunction,Plated,1,2,PTH
FMAT,2
METRIC
; #@! TA.AperFunction,Plated,PTH,ViaDrill
T1C0.400
; #@! TA.AperFunction,Plated,PTH,ComponentDrill
T2C0.400
; #@! TA.AperFunction,Plated,PTH,ComponentDrill
T3C0.500
; #@! TA.AperFunction,Plated,PTH,ComponentDrill
T4C0.600
; #@! TA.AperFunction,Plated,PTH,ComponentDrill
T5C0.813
; #@! TA.AperFunction,Plated,PTH,ComponentDrill
T6C1.000
; #@! TA.AperFunction,Plated,PTH,ComponentDrill
T7C1.500
; #@! TA.AperFunction,Plated,PTH,ComponentDrill
T8C3.000
%
G90
G05
T1
X21.43Y-135.723
X21.43Y-154.771
X21.43Y-173.82
X21.43Y-192.869
X22.224Y-210.331
X23.017Y-139.691
X23.017Y-158.74
X23.017Y-177.789
X23.017Y-196.838
X24.605Y-135.723
X24.605Y-154.772
X24.605Y-173.82
X24.605Y-192.869
X25.398Y-130.96
X25.398Y-132.548
X25.398Y-150.009
X25.398Y-151.597
X25.398Y-169.058
X25.398Y-170.645
X25.398Y-188.107
X25.398Y-189.694
X25.398Y-207.156
X25.398Y-208.743
X26.192Y-111.118
X26.986Y-165.883
X33.335Y-135.723
X33.335Y-154.772
X33.335Y-173.82
X33.335Y-192.869
X38.098Y-129.373
X38.098Y-148.422
X38.098Y-167.471
X38.098Y-186.519
X38.098Y-205.568
X38.891Y-132.548
X38.891Y-151.597
X38.891Y-170.645
X38.891Y-189.694
X38.891Y-208.743
X46.035Y-92.069
X48.416Y-158.74
X48.416Y-196.838
X49.209Y-102.387
X49.209Y-130.96
X50.003Y-107.149
X50.797Y-139.691
X50.797Y-192.075
X51.59Y-169.058
X51.59Y-207.156
X53.972Y-150.009
X57.146Y-192.075
X57.543Y-109.927
X57.94Y-177.789
X58.734Y-189.694
X60.321Y-116.674
X61.115Y-188.107
X61.909Y-100.8
X61.909Y-129.373
X62.702Y-103.975
X62.702Y-132.548
X64.29Y-167.471
X64.29Y-205.568
X65.083Y-92.069
X65.083Y-170.645
X65.083Y-208.743
X66.671Y-148.422
X67.465Y-151.597
X68.258Y-130.96
X72.227Y-196.838
X73.02Y-108.737
X73.814Y-186.519
X74.608Y-139.691
X74.608Y-188.925
X74.608Y-192.075
X75.401Y-207.156
X77.783Y-150.009
X79.37Y-116.674
X79.37Y-158.74
X80.957Y-100.8
X80.957Y-129.373
X80.957Y-192.075
X81.751Y-132.548
X82.545Y-169.058
X84.132Y-92.069
X85.72Y-176.995
X87.307Y-102.387
X87.307Y-130.96
X87.307Y-189.694
X88.101Y-205.568
X88.894Y-208.743
X90.482Y-148.422
X90.482Y-177.789
X91.275Y-120.642
X91.275Y-151.597
X92.069Y-108.737
X92.069Y-188.107
X93.657Y-139.691
X95.244Y-167.471
X96.038Y-170.645
X96.038Y-196.838
X96.831Y-150.009
X98.419Y-116.674
X98.419Y-158.74
X99.212Y-207.156
X100.006Y-100.8
X100.006Y-129.373
X100.8Y-103.975
X100.8Y-132.548
X101.594Y-169.058
X103.181Y-92.069
X104.768Y-186.519
X105.562Y-189.694
X106.356Y-102.387
X106.356Y-130.96
X109.531Y-148.422
X109.531Y-177.789
X110.324Y-120.642
X110.324Y-151.597
X111.118Y-108.737
X111.118Y-188.107
X111.912Y-205.568
X112.705Y-139.691
X112.705Y-208.743
X114.293Y-167.471
X115.087Y-170.645
X115.88Y-150.009
X117.468Y-116.674
X117.468Y-158.74
X119.055Y-100.8
X119.055Y-129.373
X119.849Y-103.975
X119.849Y-132.548
X120.642Y-169.058
X121.436Y-192.869
X122.23Y-92.069
X122.627Y-208.743
X123.817Y-186.519
X124.611Y-189.694
X125.405Y-102.387
X125.405Y-130.96
X125.405Y-202.393
X128.183Y-208.743
X128.579Y-148.422
X128.579Y-177.789
X129.373Y-120.642
X129.373Y-151.597
X129.373Y-192.869
X130.167Y-108.737
X130.167Y-188.107
X131.754Y-139.691
X133.342Y-167.471
X134.135Y-170.645
X134.929Y-150.009
X136.516Y-116.674
X136.516Y-158.74
X138.104Y-100.8
X138.104Y-129.373
X138.897Y-103.975
X138.897Y-132.548
X139.691Y-169.058
X141.279Y-92.069
X142.866Y-186.519
X143.66Y-189.694
X144.453Y-102.387
X144.453Y-130.96
X147.628Y-148.422
X147.628Y-177.789
X148.422Y-120.642
X148.422Y-151.597
X148.422Y-208.743
X149.216Y-108.737
X149.216Y-188.107
X150.803Y-139.691
X152.39Y-167.471
X153.184Y-170.645
X153.978Y-150.009
X155.565Y-116.674
X155.565Y-158.74
X157.153Y-100.8
X157.153Y-129.373
X157.946Y-103.975
X157.946Y-132.548
X158.74Y-169.058
X161.915Y-186.519
X162.708Y-189.694
X163.502Y-97.625
X163.502Y-130.96
X166.677Y-148.422
X166.677Y-177.789
X167.471Y-120.642
X167.471Y-151.597
X167.471Y-196.838
X168.264Y-108.737
X168.264Y-188.107
X169.852Y-92.069
X169.852Y-139.691
X170.645Y-207.156
X171.439Y-167.471
X172.233Y-170.645
X173.027Y-102.387
X173.027Y-150.009
X174.614Y-116.674
X174.614Y-158.74
X176.201Y-129.373
X176.995Y-132.548
X177.789Y-169.058
X180.964Y-186.519
X181.757Y-189.694
X182.551Y-130.96
X183.345Y-205.568
X184.138Y-208.743
X185.726Y-100.8
X185.726Y-148.422
X185.726Y-177.789
X186.519Y-103.975
X186.519Y-120.642
X186.519Y-151.597
X187.313Y-92.863
X187.313Y-108.737
X187.313Y-188.107
X188.901Y-92.069
X188.901Y-139.691
X190.488Y-167.471
X191.282Y-170.645
X192.075Y-102.387
X192.075Y-150.009
X193.663Y-116.674
X193.663Y-158.74
X195.25Y-129.373
X196.044Y-132.548
X196.838Y-169.058
X200.012Y-186.519
X200.806Y-189.694
X201.6Y-130.96
X204.775Y-100.8
X204.775Y-148.422
X204.775Y-177.789
X205.568Y-103.975
X205.568Y-120.642
X205.568Y-151.597
X206.362Y-108.737
X206.362Y-188.107
X207.949Y-92.069
X207.949Y-139.691
X209.537Y-167.471
X210.331Y-170.645
X211.124Y-102.387
X211.124Y-150.009
X212.712Y-116.674
X212.712Y-158.74
X214.299Y-129.373
X215.093Y-132.548
X215.886Y-169.058
X219.061Y-186.519
X219.855Y-189.694
X220.649Y-130.96
X221.442Y-192.869
X222.633Y-208.743
X223.823Y-100.8
X223.823Y-148.422
X223.823Y-177.789
X224.617Y-103.975
X224.617Y-120.642
X224.617Y-151.597
X225.411Y-92.863
X225.411Y-188.107
X225.411Y-202.393
X226.998Y-92.069
X226.998Y-139.691
X228.189Y-208.743
X228.586Y-167.471
X229.379Y-170.645
X229.379Y-192.869
X230.173Y-102.387
X230.173Y-150.009
X231.76Y-158.74
X233.348Y-129.373
X234.141Y-132.548
X234.935Y-169.058
X234.935Y-208.743
X238.11Y-186.519
X238.904Y-189.694
X238.904Y-196.838
X239.697Y-130.96
X242.078Y-207.156
X242.872Y-100.8
X242.872Y-148.422
X242.872Y-177.789
X243.666Y-91.672
X243.666Y-103.975
X243.666Y-120.642
X243.666Y-151.597
X244.46Y-95.641
X244.46Y-100.8
X244.46Y-103.181
X244.46Y-188.107
X244.856Y-87.307
X246.047Y-106.356
X246.047Y-109.531
X246.047Y-139.691
X247.634Y-99.6
X247.634Y-107.149
X247.634Y-167.471
X248.428Y-170.645
X249.222Y-150.009
X250.015Y-109.531
X250.809Y-99.609
X250.809Y-107.149
X250.809Y-158.74
X251.617Y-93.657
X252.397Y-100.8
X252.397Y-105.562
X252.397Y-129.373
X252.397Y-103.181
X253.19Y-132.548
X253.984Y-169.058
X254.778Y-205.568
X255.571Y-92.069
X255.571Y-208.743
X257.159Y-109.531
X257.159Y-186.519
X257.952Y-189.694
X258.746Y-102.387
X258.746Y-130.96
X261.921Y-91.275
X261.921Y-148.422
X261.921Y-177.789
X262.318Y-107.149
X262.318Y-109.531
X262.715Y-120.642
X262.715Y-151.597
X262.715Y-196.838
X263.508Y-188.107
X265.096Y-139.691
X265.889Y-207.156
X266.683Y-167.471
X267.477Y-170.645
X268.271Y-150.009
X269.461Y-107.149
X269.461Y-109.531
X269.858Y-158.74
X271.445Y-100.8
X271.445Y-129.373
X272.239Y-103.975
X272.239Y-132.548
X273.033Y-169.058
X274.62Y-92.069
X276.208Y-186.519
X277.001Y-189.694
X277.795Y-102.387
X277.795Y-130.96
X278.589Y-205.568
X279.382Y-208.743
X280.97Y-148.422
X281.367Y-107.149
X281.367Y-109.531
X281.763Y-151.597
X284.145Y-139.691
X285.732Y-167.471
X286.526Y-170.645
X286.526Y-196.838
X287.319Y-150.009
X288.51Y-107.149
X288.51Y-109.531
X288.907Y-192.075
X289.7Y-207.156
X290.494Y-100.8
X290.494Y-129.373
X291.288Y-103.975
X291.288Y-132.548
X292.082Y-183.345
X293.669Y-92.069
X293.669Y-154.772
X294.463Y-170.645
X295.256Y-192.075
X296.05Y-134.929
X296.05Y-177.789
X296.844Y-102.387
X296.844Y-164.296
X296.844Y-189.694
X299.225Y-170.645
X299.34Y-187.991
X300.019Y-148.422
X300.019Y-154.772
X300.812Y-151.597
X300.812Y-158.74
X302.4Y-134.929
X302.4Y-205.568
X303.193Y-208.743
X303.987Y-169.058
X306.368Y-130.96
X306.368Y-149.216
X307.956Y-127.786
X307.956Y-139.691
X309.543Y-100.8
X309.543Y-194.456
X310.337Y-103.975
X310.337Y-107.149
X310.337Y-109.531
X311.13Y-150.009
X311.924Y-186.519
X312.556Y-189.533
X312.718Y-92.069
X312.718Y-192.075
X313.512Y-186.519
X313.512Y-207.156
X314.305Y-187.313
X315.099Y-107.149
X315.099Y-109.531
X315.893Y-102.387
X315.893Y-183.345
X316.686Y-154.772
X316.686Y-167.471
X317.48Y-170.645
X319.067Y-129.373
X319.067Y-192.075
X319.699Y-132.386
X319.861Y-134.929
X320.655Y-164.296
X323.036Y-122.23
X323.83Y-148.422
X324.623Y-151.597
X325.417Y-107.149
X325.417Y-109.531
X325.417Y-155.565
X326.211Y-120.642
X326.211Y-129.373
X326.211Y-131.754
X326.211Y-148.422
X326.211Y-150.009
X326.211Y-205.568
X326.845Y-134.135
X326.845Y-135.723
X327.004Y-119.849
X327.004Y-208.743
X327.798Y-119.055
X328.592Y-100.8
X329.385Y-103.975
X330.179Y-188.901
X330.179Y-192.869
X330.179Y-198.425
X331.767Y-109.531
X332.56Y-107.149
X332.56Y-169.058
X334.148Y-165.883
X334.941Y-97.625
X335.735Y-107.149
X335.949Y-180.098
X336.651Y-173.639
X336.888Y-178.292
X336.926Y-114.69
X336.926Y-127.786
X336.926Y-137.31
X336.926Y-146.834
X336.926Y-153.982
X339.307Y-113.896
X339.307Y-127.786
X339.307Y-137.31
X339.307Y-146.834
X339.704Y-181.757
X340.497Y-129.373
X340.497Y-131.754
X340.497Y-134.135
X340.497Y-135.723
X340.497Y-148.422
X340.497Y-150.009
X340.497Y-151.597
X341.291Y-171.439
X341.291Y-188.901
X341.311Y-92.069
X341.311Y-139.694
X342.085Y-159.534
X342.878Y-153.184
X343.672Y-159.534
X343.788Y-180.286
X344.466Y-102.387
X344.466Y-130.96
X344.466Y-150.009
X344.466Y-207.156
X345.26Y-169.852
X346.053Y-127.786
X346.053Y-186.519
X346.053Y-191.282
X346.847Y-159.534
X347.641Y-174.614
X349.228Y-111.912
X349.547Y-181.757
X350.022Y-160.327
X350.022Y-172.233
X350.022Y-176.995
X350.815Y-188.901
X352.403Y-153.184
X352.403Y-166.28
X352.403Y-174.614
X352.8Y-167.471
X353.99Y-160.724
X353.99Y-179.376
X354.784Y-169.852
X355.181Y-161.915
X355.578Y-179.376
X355.578Y-186.519
X355.578Y-191.282
X357.165Y-100.8
X357.165Y-129.373
X357.165Y-148.422
X357.165Y-205.568
X357.959Y-103.975
X357.959Y-132.548
X357.959Y-151.597
X357.959Y-208.743
X358.752Y-168.264
X359.578Y-184.096
X359.662Y-177.904
X360.34Y-139.691
X360.34Y-186.519
X360.34Y-189.694
X360.34Y-192.869
X361.133Y-177.789
X361.133Y-196.838
X361.983Y-157.946
X362.446Y-161.121
X362.721Y-191.282
X363.515Y-130.96
X363.515Y-150.009
X363.515Y-188.107
X363.515Y-207.156
X365.102Y-184.932
X365.102Y-203.981
X366.689Y-171.439
X366.689Y-177.789
X366.702Y-172.452
X367.483Y-170.645
X368.277Y-111.912
X369.07Y-161.915
X372.245Y-191.282
X376.214Y-100.8
X376.214Y-148.422
X376.214Y-186.519
X376.214Y-205.568
X377.007Y-132.548
X377.007Y-151.597
X377.007Y-161.915
X377.007Y-178.582
X377.007Y-189.694
X377.007Y-208.743
X377.764Y-148.422
X377.801Y-116.674
X377.801Y-191.282
X378.595Y-129.373
X378.595Y-177.789
X379.389Y-139.691
X379.389Y-196.838
X379.389Y-205.568
X380.976Y-161.915
X382.563Y-130.96
X382.563Y-150.009
X382.563Y-207.156
X383.357Y-171.439
X395.263Y-129.373
X395.263Y-148.422
X395.263Y-159.534
X395.263Y-205.568
X396.056Y-132.548
X396.056Y-151.597
X396.056Y-208.743
T2
X21.271Y-122.896
X21.271Y-124.42
X21.271Y-141.945
X21.271Y-143.469
X21.271Y-160.994
X21.271Y-162.518
X21.271Y-180.043
X21.271Y-181.567
X21.271Y-199.091
X21.271Y-200.615
X37.781Y-120.356
X37.781Y-121.88
X37.781Y-139.405
X37.781Y-140.929
X37.781Y-158.454
X37.781Y-159.978
X37.781Y-177.503
X37.781Y-179.027
X37.781Y-196.552
X37.781Y-198.076
X45.082Y-94.323
X45.082Y-95.847
X45.082Y-122.896
X45.082Y-124.42
X47.463Y-160.994
X47.463Y-162.518
X47.463Y-199.091
X47.463Y-200.615
X49.844Y-141.945
X49.844Y-143.469
X56.987Y-180.043
X56.987Y-181.567
X61.592Y-91.783
X61.592Y-93.307
X61.592Y-120.356
X61.592Y-121.88
X63.973Y-158.454
X63.973Y-159.978
X63.973Y-196.552
X63.973Y-198.076
X64.13Y-94.323
X64.13Y-95.847
X64.13Y-122.896
X64.13Y-124.42
X66.354Y-139.405
X66.354Y-140.929
X71.274Y-199.091
X71.274Y-200.615
X73.497Y-177.503
X73.497Y-179.027
X73.655Y-141.945
X73.655Y-143.469
X78.359Y-160.994
X78.359Y-162.518
X80.64Y-91.783
X80.64Y-93.307
X80.64Y-120.356
X80.64Y-121.88
X83.179Y-94.323
X83.179Y-95.847
X83.179Y-122.896
X83.179Y-124.42
X87.784Y-196.552
X87.784Y-198.076
X87.941Y-180.043
X87.941Y-181.567
X90.165Y-139.405
X90.165Y-140.929
X92.704Y-141.945
X92.704Y-143.469
X94.869Y-158.454
X94.869Y-159.978
X95.085Y-199.091
X95.085Y-200.615
X97.466Y-160.994
X97.466Y-162.518
X99.689Y-91.783
X99.689Y-93.307
X99.689Y-120.356
X99.689Y-121.88
X102.228Y-94.323
X102.228Y-95.847
X102.228Y-122.896
X102.228Y-124.42
X104.451Y-177.503
X104.451Y-179.027
X106.99Y-180.043
X106.99Y-181.567
X109.214Y-139.405
X109.214Y-140.929
X111.595Y-196.552
X111.595Y-198.076
X111.752Y-141.945
X111.752Y-143.469
X113.976Y-158.454
X113.976Y-159.978
X116.515Y-160.994
X116.515Y-162.518
X118.738Y-91.783
X118.738Y-93.307
X118.738Y-120.356
X118.738Y-121.88
X121.277Y-94.323
X121.277Y-95.847
X121.277Y-122.896
X121.277Y-124.42
X123.5Y-177.503
X123.5Y-179.027
X126.039Y-180.043
X126.039Y-181.567
X128.262Y-139.405
X128.262Y-140.929
X130.801Y-141.945
X130.801Y-143.469
X133.025Y-158.454
X133.025Y-159.978
X135.563Y-160.994
X135.563Y-162.518
X137.787Y-91.783
X137.787Y-93.307
X137.787Y-120.356
X137.787Y-121.88
X140.326Y-94.323
X140.326Y-95.847
X140.326Y-122.896
X140.326Y-124.42
X142.549Y-177.503
X142.549Y-179.027
X145.088Y-180.043
X145.088Y-181.567
X147.311Y-139.405
X147.311Y-140.929
X149.85Y-141.945
X149.85Y-143.469
X152.073Y-158.454
X152.073Y-159.978
X154.612Y-160.994
X154.612Y-162.518
X156.836Y-91.783
X156.836Y-93.307
X156.836Y-120.356
X156.836Y-121.88
X159.374Y-122.896
X159.374Y-124.42
X161.598Y-177.503
X161.598Y-179.027
X164.137Y-180.043
X164.137Y-181.567
X166.36Y-139.405
X166.36Y-140.929
X166.518Y-199.091
X166.518Y-200.615
X168.899Y-94.323
X168.899Y-95.847
X168.899Y-141.945
X168.899Y-143.469
X171.122Y-158.454
X171.122Y-159.978
X173.661Y-160.994
X173.661Y-162.518
X175.884Y-120.356
X175.884Y-121.88
X178.423Y-122.896
X178.423Y-124.42
X180.647Y-177.503
X180.647Y-179.027
X183.028Y-196.552
X183.028Y-198.076
X183.185Y-180.043
X183.185Y-181.567
X185.409Y-91.783
X185.409Y-93.307
X185.409Y-139.405
X185.409Y-140.929
X187.948Y-94.323
X187.948Y-95.847
X187.948Y-141.945
X187.948Y-143.469
X190.171Y-158.454
X190.171Y-159.978
X192.71Y-160.994
X192.71Y-162.518
X194.933Y-120.356
X194.933Y-121.88
X197.472Y-122.896
X197.472Y-124.42
X199.695Y-177.503
X199.695Y-179.027
X202.234Y-180.043
X202.234Y-181.567
X204.458Y-91.783
X204.458Y-93.307
X204.458Y-139.405
X204.458Y-140.929
X206.996Y-94.323
X206.996Y-95.847
X206.996Y-141.945
X206.996Y-143.469
X209.22Y-158.454
X209.22Y-159.978
X211.759Y-160.994
X211.759Y-162.518
X213.982Y-120.356
X213.982Y-121.88
X216.521Y-122.896
X216.521Y-124.42
X218.744Y-177.503
X218.744Y-179.027
X221.283Y-180.043
X221.283Y-181.567
X223.506Y-91.783
X223.506Y-93.307
X223.506Y-139.405
X223.506Y-140.929
X226.045Y-94.323
X226.045Y-95.847
X226.045Y-141.945
X226.045Y-143.469
X228.269Y-158.454
X228.269Y-159.978
X230.807Y-160.994
X230.807Y-162.518
X233.031Y-120.356
X233.031Y-121.88
X235.57Y-122.896
X235.57Y-124.42
X237.793Y-177.503
X237.793Y-179.027
X237.951Y-199.091
X237.951Y-200.615
X240.332Y-180.043
X240.332Y-181.567
X242.555Y-91.783
X242.555Y-93.307
X242.555Y-139.405
X242.555Y-140.929
X245.094Y-141.945
X245.094Y-143.469
X247.317Y-158.454
X247.317Y-159.978
X249.856Y-160.994
X249.856Y-162.518
X252.08Y-120.356
X252.08Y-121.88
X254.461Y-196.552
X254.461Y-198.076
X254.618Y-94.323
X254.618Y-95.847
X254.618Y-122.896
X254.618Y-124.42
X256.842Y-177.503
X256.842Y-179.027
X259.381Y-180.043
X259.381Y-181.567
X261.604Y-139.405
X261.604Y-140.929
X261.762Y-199.091
X261.762Y-200.615
X264.143Y-141.945
X264.143Y-143.469
X266.366Y-158.454
X266.366Y-159.978
X268.905Y-160.994
X268.905Y-162.518
X271.128Y-91.783
X271.128Y-93.307
X271.128Y-120.356
X271.128Y-121.88
X273.667Y-94.323
X273.667Y-95.847
X273.667Y-122.896
X273.667Y-124.42
X275.891Y-177.503
X275.891Y-179.027
X278.272Y-196.552
X278.272Y-198.076
X280.653Y-139.405
X280.653Y-140.929
X283.192Y-141.945
X283.192Y-143.469
X285.415Y-158.454
X285.415Y-159.978
X285.573Y-199.091
X285.573Y-200.615
X290.177Y-91.783
X290.177Y-93.307
X290.177Y-120.356
X290.177Y-121.88
X292.716Y-94.323
X292.716Y-95.847
X295.088Y-180.042
X295.088Y-181.566
X299.702Y-139.405
X299.702Y-140.929
X299.859Y-160.994
X299.859Y-162.518
X302.083Y-196.552
X302.083Y-198.076
X302.24Y-122.896
X302.24Y-124.42
X307.003Y-141.945
X307.003Y-143.469
X309.226Y-91.783
X309.226Y-93.307
X309.384Y-199.091
X309.384Y-200.615
X311.598Y-177.502
X311.598Y-179.026
X311.765Y-94.323
X311.765Y-95.847
X316.369Y-158.454
X316.369Y-159.978
X318.75Y-120.356
X318.75Y-121.88
X323.513Y-139.405
X323.513Y-140.929
X325.894Y-196.552
X325.894Y-198.076
X328.275Y-91.783
X328.275Y-93.307
X340.338Y-94.323
X340.338Y-95.847
X340.338Y-122.896
X340.338Y-124.42
X340.338Y-141.945
X340.338Y-143.469
X340.338Y-199.091
X340.338Y-200.615
X356.848Y-91.783
X356.848Y-93.307
X356.848Y-120.356
X356.848Y-121.88
X356.848Y-139.405
X356.848Y-140.929
X356.848Y-196.552
X356.848Y-198.076
X359.387Y-94.323
X359.387Y-95.847
X359.387Y-122.896
X359.387Y-124.42
X359.387Y-141.945
X359.387Y-143.469
X359.387Y-180.043
X359.387Y-181.567
X359.387Y-199.091
X359.387Y-200.615
X375.897Y-91.783
X375.897Y-93.307
X375.897Y-120.356
X375.897Y-121.88
X375.897Y-139.405
X375.897Y-140.929
X375.897Y-177.503
X375.897Y-179.027
X375.897Y-196.552
X375.897Y-198.076
X378.436Y-122.896
X378.436Y-124.42
X378.436Y-141.945
X378.436Y-143.469
X378.436Y-199.091
X378.436Y-200.615
X394.946Y-120.356
X394.946Y-121.88
X394.946Y-139.405
X394.946Y-140.929
X394.946Y-196.552
X394.946Y-198.076
T3
X22.224Y-119.849
X42.86Y-100.8
X42.86Y-129.373
X42.86Y-148.422
X42.86Y-167.471
X42.86Y-186.519
X42.86Y-205.568
X46.035Y-119.849
X65.083Y-119.849
X84.132Y-119.849
X103.181Y-119.849
X122.23Y-119.849
X141.279Y-119.849
X160.327Y-119.849
X179.376Y-119.849
X198.425Y-119.849
X217.474Y-119.849
X236.523Y-119.849
X255.571Y-119.849
X274.62Y-119.849
X303.193Y-119.849
X336.132Y-159.137
X341.311Y-120.644
X349.228Y-185.726
X352.403Y-185.726
X360.34Y-120.642
X366.689Y-161.915
X379.389Y-120.642
X380.976Y-173.82
T5
X386.532Y-160.486
X386.532Y-163.026
X386.532Y-165.566
X386.532Y-168.106
T6
X27.542Y-90.085
X27.542Y-104.585
X30.042Y-90.085
X32.542Y-90.085
X32.542Y-104.585
X332.386Y-184.138
X334.926Y-184.138
X337.466Y-184.138
X361.133Y-163.502
X361.133Y-166.042
X361.133Y-168.582
X361.133Y-171.122
X384.707Y-90.085
X384.707Y-104.585
X387.207Y-90.085
X389.707Y-90.085
X389.707Y-104.585
T8
X26.351Y-123.658
X26.351Y-142.707
X26.351Y-161.756
X26.351Y-180.805
X26.351Y-199.853
X32.701Y-121.118
X32.701Y-140.167
X32.701Y-159.216
X32.701Y-178.265
X32.701Y-197.314
X50.162Y-95.085
X50.162Y-123.658
X52.543Y-161.756
X52.543Y-199.853
X54.924Y-142.707
X56.512Y-92.545
X56.512Y-121.118
X58.893Y-159.216
X58.893Y-197.314
X61.274Y-140.167
X62.067Y-180.805
X68.417Y-178.265
X69.21Y-95.085
X69.21Y-123.658
X75.56Y-92.545
X75.56Y-121.118
X76.354Y-199.853
X78.735Y-142.707
X82.704Y-197.314
X83.439Y-161.756
X85.085Y-140.167
X88.259Y-95.085
X88.259Y-123.658
X89.789Y-159.216
X93.021Y-180.805
X94.609Y-92.545
X94.609Y-121.118
X97.784Y-142.707
X99.371Y-178.265
X100.165Y-199.853
X102.546Y-161.756
X104.134Y-140.167
X106.515Y-197.314
X107.308Y-95.085
X107.308Y-123.658
X108.896Y-159.216
X112.07Y-180.805
X113.658Y-92.545
X113.658Y-121.118
X116.832Y-142.707
X118.42Y-178.265
X121.595Y-161.756
X123.182Y-140.167
X126.357Y-95.085
X126.357Y-123.658
X127.945Y-159.216
X131.119Y-180.805
X132.707Y-92.545
X132.707Y-121.118
X135.881Y-142.707
X137.469Y-178.265
X140.643Y-161.756
X142.231Y-140.167
X145.406Y-95.085
X145.406Y-123.658
X146.993Y-159.216
X150.168Y-180.805
X151.756Y-92.545
X151.756Y-121.118
X154.93Y-142.707
X156.518Y-178.265
X159.692Y-161.756
X161.28Y-140.167
X164.454Y-123.658
X166.042Y-159.216
X169.217Y-180.805
X170.804Y-121.118
X171.598Y-199.853
X173.979Y-95.085
X173.979Y-142.707
X175.567Y-178.265
X177.948Y-197.314
X178.741Y-161.756
X180.329Y-92.545
X180.329Y-140.167
X183.503Y-123.658
X185.091Y-159.216
X188.265Y-180.805
X189.853Y-121.118
X193.028Y-95.085
X193.028Y-142.707
X194.615Y-178.265
X197.79Y-161.756
X199.378Y-92.545
X199.378Y-140.167
X202.552Y-123.658
X204.14Y-159.216
X207.314Y-180.805
X208.902Y-121.118
X212.076Y-95.085
X212.076Y-142.707
X213.664Y-178.265
X216.839Y-161.756
X218.426Y-92.545
X218.426Y-140.167
X221.601Y-123.658
X223.189Y-159.216
X226.363Y-180.805
X227.951Y-121.118
X231.125Y-95.085
X231.125Y-142.707
X232.713Y-178.265
X235.887Y-161.756
X237.475Y-92.545
X237.475Y-140.167
X240.65Y-123.658
X242.237Y-159.216
X243.031Y-199.853
X245.412Y-180.805
X247.0Y-121.118
X249.381Y-197.314
X250.174Y-142.707
X251.762Y-178.265
X254.936Y-161.756
X256.524Y-140.167
X259.698Y-95.085
X259.698Y-123.658
X261.286Y-159.216
X264.461Y-180.805
X266.048Y-92.545
X266.048Y-121.118
X266.842Y-199.853
X269.223Y-142.707
X270.811Y-178.265
X273.192Y-197.314
X273.985Y-161.756
X275.573Y-140.167
X278.747Y-95.085
X278.747Y-123.658
X280.335Y-159.216
X285.097Y-92.545
X285.097Y-121.118
X288.272Y-142.707
X290.653Y-199.853
X294.622Y-140.167
X297.003Y-197.314
X297.796Y-95.085
X300.168Y-180.804
X304.146Y-92.545
X304.939Y-161.756
X306.518Y-178.264
X307.32Y-123.658
X311.289Y-159.216
X312.083Y-142.707
X313.67Y-121.118
X314.464Y-199.853
X316.845Y-95.085
X318.433Y-140.167
X320.814Y-197.314
X323.195Y-92.545
X345.418Y-95.085
X345.418Y-123.658
X345.418Y-142.707
X345.418Y-199.853
X351.768Y-92.545
X351.768Y-121.118
X351.768Y-140.167
X351.768Y-197.314
X364.467Y-95.085
X364.467Y-123.658
X364.467Y-142.707
X364.467Y-180.805
X364.467Y-199.853
X370.817Y-92.545
X370.817Y-121.118
X370.817Y-140.167
X370.817Y-178.265
X370.817Y-197.314
X383.516Y-123.658
X383.516Y-142.707
X383.516Y-199.853
X389.866Y-121.118
X389.866Y-140.167
X389.866Y-197.314
T4
X244.902Y-80.083G85X244.902Y-80.683
G05
X244.902Y-84.013G85X244.902Y-85.113
G05
X253.542Y-80.083G85X253.542Y-80.683
G05
X253.542Y-84.013G85X253.542Y-85.113
G05
T7
X24.442Y-96.935G85X24.442Y-98.235
G05
X35.642Y-96.935G85X35.642Y-98.235
G05
X381.607Y-96.935G85X381.607Y-98.235
G05
X392.807Y-96.935G85X392.807Y-98.235
G05
T0
M30
