  0
SECTION
  2
HEADER
  9
$ANGBASE
  50
0.0
  9
$ANGDIR
  70
1
  9
$MEASUREMENT
  70
0
  0
ENDSEC
  0
SECTION
  2
TABLES
  0
TABLE
  2
LTYPE
  70
4
  0
LTYPE
  5
40F
  2
CONTINUOUS
  70
0
  3
Solid line
  72
65
  73
0
  40
0.0
  0
LTYPE
  5
410
  2
DASHDOT
 70
0
  3
Dash Dot ____ _ ____ _
 72
65
 73
4
 40
2.0
 49
1.25
 49
-0.25
 49
0.25
 49
-0.25
  0
LTYPE
  5
411
  2
DASHED
 70
0
  3
Dashed __ __ __ __ __
 72
65
 73
2
 40
0.75
 49
0.5
 49
-0.25
  0
LTYPE
  5
43B
  2
DOTTED
 70
0
  3
Dotted .  .  .  .
 72
65
 73
2
 40
0.2
 49
0.0
 49
-0.2
  0
ENDTAB
  0
TABLE
  2
STYLE
  70
4
  0
STYLE
  2
KICAD
  70
0
  40
0
  41
1
  42
1
  50
0
  71
0
  3
isocp.shx
  0
STYLE
  2
KICADB
  70
0
  40
0
  41
1
  42
1
  50
0
  71
0
  3
isocp.shx
  0
STYLE
  2
KICADI
  70
0
  40
0
  41
1
  42
1
  50
15
  71
0
  3
isocp.shx
  0
STYLE
  2
KICADBI
  70
0
  40
0
  41
1
  42
1
  50
15
  71
0
  3
isocp.shx
  0
ENDTAB
  0
TABLE
  2
LAYER
  70
1
  0
LAYER
  2
BLACK
  70
0
  62
7
  6
CONTINUOUS
  0
ENDTAB
  0
ENDSEC
  0
SECTION
  2
ENTITIES
0
LINE
8
BLACK
6
CONTINUOUS
10
15.1599
20
-11.4216
11
15.1628
21
-11.4228
0
LINE
8
BLACK
6
CONTINUOUS
10
15.1628
20
-11.4228
11
15.1653
21
-11.4245
0
LINE
8
BLACK
6
CONTINUOUS
10
15.1653
20
-11.4245
11
15.1675
21
-11.4267
0
LINE
8
BLACK
6
CONTINUOUS
10
15.1675
20
-11.4267
11
15.1693
21
-11.4293
0
LINE
8
BLACK
6
CONTINUOUS
10
15.1693
20
-11.4293
11
15.1704
21
-11.4322
0
LINE
8
BLACK
6
CONTINUOUS
10
15.1704
20
-11.4322
11
15.171
21
-11.4352
0
LINE
8
BLACK
6
CONTINUOUS
10
15.171
20
-11.4352
11
15.171
21
-11.4383
0
LINE
8
BLACK
6
CONTINUOUS
10
15.171
20
-11.4383
11
15.1704
21
-11.4414
0
LINE
8
BLACK
6
CONTINUOUS
10
15.1704
20
-11.4414
11
15.1693
21
-11.4442
0
LINE
8
BLACK
6
CONTINUOUS
10
15.1693
20
-11.4442
11
15.1675
21
-11.4468
0
LINE
8
BLACK
6
CONTINUOUS
10
15.1675
20
-11.4468
11
15.1653
21
-11.449
0
LINE
8
BLACK
6
CONTINUOUS
10
15.1653
20
-11.449
11
15.1628
21
-11.4507
0
LINE
8
BLACK
6
CONTINUOUS
10
15.1628
20
-11.4507
11
15.1599
21
-11.4519
0
LINE
8
BLACK
6
CONTINUOUS
10
15.1599
20
-11.4519
11
15.1568
21
-11.4525
0
LINE
8
BLACK
6
CONTINUOUS
10
15.1568
20
-11.4525
11
15.1537
21
-11.4525
0
LINE
8
BLACK
6
CONTINUOUS
10
15.1537
20
-11.4525
11
15.1507
21
-11.4519
0
LINE
8
BLACK
6
CONTINUOUS
10
15.1507
20
-11.4519
11
15.1478
21
-11.4507
0
LINE
8
BLACK
6
CONTINUOUS
10
15.1478
20
-11.4507
11
15.1453
21
-11.449
0
LINE
8
BLACK
6
CONTINUOUS
10
15.1453
20
-11.449
11
15.1431
21
-11.4468
0
LINE
8
BLACK
6
CONTINUOUS
10
15.1431
20
-11.4468
11
15.1413
21
-11.4442
0
LINE
8
BLACK
6
CONTINUOUS
10
15.1413
20
-11.4442
11
15.1402
21
-11.4414
0
LINE
8
BLACK
6
CONTINUOUS
10
15.1402
20
-11.4414
11
15.1395
21
-11.4383
0
LINE
8
BLACK
6
CONTINUOUS
10
15.1395
20
-11.4383
11
15.1395
21
-11.4352
0
LINE
8
BLACK
6
CONTINUOUS
10
15.1395
20
-11.4352
11
15.1402
21
-11.4322
0
LINE
8
BLACK
6
CONTINUOUS
10
15.1402
20
-11.4322
11
15.1413
21
-11.4293
0
LINE
8
BLACK
6
CONTINUOUS
10
15.1413
20
-11.4293
11
15.1431
21
-11.4267
0
LINE
8
BLACK
6
CONTINUOUS
10
15.1431
20
-11.4267
11
15.1453
21
-11.4245
0
LINE
8
BLACK
6
CONTINUOUS
10
15.1453
20
-11.4245
11
15.1478
21
-11.4228
0
LINE
8
BLACK
6
CONTINUOUS
10
15.1478
20
-11.4228
11
15.1507
21
-11.4216
0
LINE
8
BLACK
6
CONTINUOUS
10
15.1507
20
-11.4216
11
15.1537
21
-11.421
0
LINE
8
BLACK
6
CONTINUOUS
10
15.1537
20
-11.421
11
15.1568
21
-11.421
0
LINE
8
BLACK
6
CONTINUOUS
10
15.1568
20
-11.421
11
15.1599
21
-11.4216
0
CIRCLE
8
BLACK
10
15.1553
20
-11.4368
40
0.00787402
  0
ENDSEC
  0
EOF
