%TF.GenerationSoftware,KiCad,Pcbnew,(6.0.0)*%
%TF.CreationDate,2022-03-09T15:54:11-05:00*%
%TF.ProjectId,custom_keyboard plate v3,63757374-6f6d-45f6-9b65-79626f617264,rev?*%
%TF.SameCoordinates,Original*%
%TF.FileFunction,Copper,L1,Top*%
%TF.FilePolarity,Positive*%
%FSLAX46Y46*%
G04 Gerber Fmt 4.6, Leading zero omitted, Abs format (unit mm)*
G04 Created by KiCad (PCBNEW (6.0.0)) date 2022-03-09 15:54:11*
%MOMM*%
%LPD*%
G01*
G04 APERTURE LIST*
%ADD10C,0.200000*%
%TA.AperFunction,NonConductor*%
%ADD11C,0.200000*%
%TD*%
G04 APERTURE END LIST*
D10*
%TO.C,M3*%
D11*
X17787779Y-130764104D02*
X16787779Y-130764104D01*
X17502065Y-130430771D01*
X16787779Y-130097438D01*
X17787779Y-130097438D01*
X16787779Y-129716485D02*
X16787779Y-129097438D01*
X17168732Y-129430771D01*
X17168732Y-129287914D01*
X17216351Y-129192676D01*
X17263970Y-129145057D01*
X17359208Y-129097438D01*
X17597303Y-129097438D01*
X17692541Y-129145057D01*
X17740160Y-129192676D01*
X17787779Y-129287914D01*
X17787779Y-129573628D01*
X17740160Y-129668866D01*
X17692541Y-129716485D01*
D10*
D11*
X16588875Y-207376580D02*
X16588875Y-206376580D01*
X16922208Y-207090866D01*
X17255541Y-206376580D01*
X17255541Y-207376580D01*
X17636494Y-206376580D02*
X18255541Y-206376580D01*
X17922208Y-206757533D01*
X18065065Y-206757533D01*
X18160303Y-206805152D01*
X18207922Y-206852771D01*
X18255541Y-206948009D01*
X18255541Y-207186104D01*
X18207922Y-207281342D01*
X18160303Y-207328961D01*
X18065065Y-207376580D01*
X17779351Y-207376580D01*
X17684113Y-207328961D01*
X17636494Y-207281342D01*
D10*
D11*
X124447494Y-76647580D02*
X124447494Y-75647580D01*
X124780827Y-76361866D01*
X125114160Y-75647580D01*
X125114160Y-76647580D01*
X125495113Y-75647580D02*
X126114160Y-75647580D01*
X125780827Y-76028533D01*
X125923684Y-76028533D01*
X126018922Y-76076152D01*
X126066541Y-76123771D01*
X126114160Y-76219009D01*
X126114160Y-76457104D01*
X126066541Y-76552342D01*
X126018922Y-76599961D01*
X125923684Y-76647580D01*
X125637970Y-76647580D01*
X125542732Y-76599961D01*
X125495113Y-76552342D01*
D10*
D11*
X403914475Y-207376580D02*
X403914475Y-206376580D01*
X404247808Y-207090866D01*
X404581141Y-206376580D01*
X404581141Y-207376580D01*
X404962094Y-206376580D02*
X405581141Y-206376580D01*
X405247808Y-206757533D01*
X405390665Y-206757533D01*
X405485903Y-206805152D01*
X405533522Y-206852771D01*
X405581141Y-206948009D01*
X405581141Y-207186104D01*
X405533522Y-207281342D01*
X405485903Y-207328961D01*
X405390665Y-207376580D01*
X405104951Y-207376580D01*
X405009713Y-207328961D01*
X404962094Y-207281342D01*
D10*
D11*
X296074056Y-211576580D02*
X296074056Y-210576580D01*
X296407389Y-211290866D01*
X296740722Y-210576580D01*
X296740722Y-211576580D01*
X297121675Y-210576580D02*
X297740722Y-210576580D01*
X297407389Y-210957533D01*
X297550246Y-210957533D01*
X297645484Y-211005152D01*
X297693103Y-211052771D01*
X297740722Y-211148009D01*
X297740722Y-211386104D01*
X297693103Y-211481342D01*
X297645484Y-211528961D01*
X297550246Y-211576580D01*
X297264532Y-211576580D01*
X297169294Y-211528961D01*
X297121675Y-211481342D01*
D10*
D11*
X95074056Y-76647580D02*
X95074056Y-75647580D01*
X95407389Y-76361866D01*
X95740722Y-75647580D01*
X95740722Y-76647580D01*
X96121675Y-75647580D02*
X96740722Y-75647580D01*
X96407389Y-76028533D01*
X96550246Y-76028533D01*
X96645484Y-76076152D01*
X96693103Y-76123771D01*
X96740722Y-76219009D01*
X96740722Y-76457104D01*
X96693103Y-76552342D01*
X96645484Y-76599961D01*
X96550246Y-76647580D01*
X96264532Y-76647580D01*
X96169294Y-76599961D01*
X96121675Y-76552342D01*
D10*
D11*
X325429294Y-76647580D02*
X325429294Y-75647580D01*
X325762627Y-76361866D01*
X326095960Y-75647580D01*
X326095960Y-76647580D01*
X326476913Y-75647580D02*
X327095960Y-75647580D01*
X326762627Y-76028533D01*
X326905484Y-76028533D01*
X327000722Y-76076152D01*
X327048341Y-76123771D01*
X327095960Y-76219009D01*
X327095960Y-76457104D01*
X327048341Y-76552342D01*
X327000722Y-76599961D01*
X326905484Y-76647580D01*
X326619770Y-76647580D01*
X326524532Y-76599961D01*
X326476913Y-76552342D01*
D10*
D11*
X268429294Y-76647580D02*
X268429294Y-75647580D01*
X268762627Y-76361866D01*
X269095960Y-75647580D01*
X269095960Y-76647580D01*
X269476913Y-75647580D02*
X270095960Y-75647580D01*
X269762627Y-76028533D01*
X269905484Y-76028533D01*
X270000722Y-76076152D01*
X270048341Y-76123771D01*
X270095960Y-76219009D01*
X270095960Y-76457104D01*
X270048341Y-76552342D01*
X270000722Y-76599961D01*
X269905484Y-76647580D01*
X269619770Y-76647580D01*
X269524532Y-76599961D01*
X269476913Y-76552342D01*
D10*
D11*
X220074056Y-76647580D02*
X220074056Y-75647580D01*
X220407389Y-76361866D01*
X220740722Y-75647580D01*
X220740722Y-76647580D01*
X221121675Y-75647580D02*
X221740722Y-75647580D01*
X221407389Y-76028533D01*
X221550246Y-76028533D01*
X221645484Y-76076152D01*
X221693103Y-76123771D01*
X221740722Y-76219009D01*
X221740722Y-76457104D01*
X221693103Y-76552342D01*
X221645484Y-76599961D01*
X221550246Y-76647580D01*
X221264532Y-76647580D01*
X221169294Y-76599961D01*
X221121675Y-76552342D01*
D10*
D11*
X405176379Y-130764104D02*
X404176379Y-130764104D01*
X404890665Y-130430771D01*
X404176379Y-130097438D01*
X405176379Y-130097438D01*
X404176379Y-129716485D02*
X404176379Y-129097438D01*
X404557332Y-129430771D01*
X404557332Y-129287914D01*
X404604951Y-129192676D01*
X404652570Y-129145057D01*
X404747808Y-129097438D01*
X404985903Y-129097438D01*
X405081141Y-129145057D01*
X405128760Y-129192676D01*
X405176379Y-129287914D01*
X405176379Y-129573628D01*
X405128760Y-129668866D01*
X405081141Y-129716485D01*
D10*
D11*
X405176379Y-103112242D02*
X404176379Y-103112242D01*
X404890665Y-102778909D01*
X404176379Y-102445576D01*
X405176379Y-102445576D01*
X404176379Y-102064623D02*
X404176379Y-101445576D01*
X404557332Y-101778909D01*
X404557332Y-101636052D01*
X404604951Y-101540814D01*
X404652570Y-101493195D01*
X404747808Y-101445576D01*
X404985903Y-101445576D01*
X405081141Y-101493195D01*
X405128760Y-101540814D01*
X405176379Y-101636052D01*
X405176379Y-101921766D01*
X405128760Y-102017004D01*
X405081141Y-102064623D01*
D10*
D11*
X152074056Y-76647580D02*
X152074056Y-75647580D01*
X152407389Y-76361866D01*
X152740722Y-75647580D01*
X152740722Y-76647580D01*
X153121675Y-75647580D02*
X153740722Y-75647580D01*
X153407389Y-76028533D01*
X153550246Y-76028533D01*
X153645484Y-76076152D01*
X153693103Y-76123771D01*
X153740722Y-76219009D01*
X153740722Y-76457104D01*
X153693103Y-76552342D01*
X153645484Y-76599961D01*
X153550246Y-76647580D01*
X153264532Y-76647580D01*
X153169294Y-76599961D01*
X153121675Y-76552342D01*
D10*
D11*
X296055856Y-76647580D02*
X296055856Y-75647580D01*
X296389189Y-76361866D01*
X296722522Y-75647580D01*
X296722522Y-76647580D01*
X297103475Y-75647580D02*
X297722522Y-75647580D01*
X297389189Y-76028533D01*
X297532046Y-76028533D01*
X297627284Y-76076152D01*
X297674903Y-76123771D01*
X297722522Y-76219009D01*
X297722522Y-76457104D01*
X297674903Y-76552342D01*
X297627284Y-76599961D01*
X297532046Y-76647580D01*
X297246332Y-76647580D01*
X297151094Y-76599961D01*
X297103475Y-76552342D01*
D10*
D11*
X403914475Y-80847580D02*
X403914475Y-79847580D01*
X404247808Y-80561866D01*
X404581141Y-79847580D01*
X404581141Y-80847580D01*
X404962094Y-79847580D02*
X405581141Y-79847580D01*
X405247808Y-80228533D01*
X405390665Y-80228533D01*
X405485903Y-80276152D01*
X405533522Y-80323771D01*
X405581141Y-80419009D01*
X405581141Y-80657104D01*
X405533522Y-80752342D01*
X405485903Y-80799961D01*
X405390665Y-80847580D01*
X405104951Y-80847580D01*
X405009713Y-80799961D01*
X404962094Y-80752342D01*
D10*
D11*
X67929294Y-76647580D02*
X67929294Y-75647580D01*
X68262627Y-76361866D01*
X68595960Y-75647580D01*
X68595960Y-76647580D01*
X68976913Y-75647580D02*
X69595960Y-75647580D01*
X69262627Y-76028533D01*
X69405484Y-76028533D01*
X69500722Y-76076152D01*
X69548341Y-76123771D01*
X69595960Y-76219009D01*
X69595960Y-76457104D01*
X69548341Y-76552342D01*
X69500722Y-76599961D01*
X69405484Y-76647580D01*
X69119770Y-76647580D01*
X69024532Y-76599961D01*
X68976913Y-76552342D01*
D10*
D11*
X17819279Y-103119342D02*
X16819279Y-103119342D01*
X17533565Y-102786009D01*
X16819279Y-102452676D01*
X17819279Y-102452676D01*
X16819279Y-102071723D02*
X16819279Y-101452676D01*
X17200232Y-101786009D01*
X17200232Y-101643152D01*
X17247851Y-101547914D01*
X17295470Y-101500295D01*
X17390708Y-101452676D01*
X17628803Y-101452676D01*
X17724041Y-101500295D01*
X17771660Y-101547914D01*
X17819279Y-101643152D01*
X17819279Y-101928866D01*
X17771660Y-102024104D01*
X17724041Y-102071723D01*
D10*
D11*
X352574056Y-76647580D02*
X352574056Y-75647580D01*
X352907389Y-76361866D01*
X353240722Y-75647580D01*
X353240722Y-76647580D01*
X353621675Y-75647580D02*
X354240722Y-75647580D01*
X353907389Y-76028533D01*
X354050246Y-76028533D01*
X354145484Y-76076152D01*
X354193103Y-76123771D01*
X354240722Y-76219009D01*
X354240722Y-76457104D01*
X354193103Y-76552342D01*
X354145484Y-76599961D01*
X354050246Y-76647580D01*
X353764532Y-76647580D01*
X353669294Y-76599961D01*
X353621675Y-76552342D01*
D10*
D11*
X200429294Y-76647580D02*
X200429294Y-75647580D01*
X200762627Y-76361866D01*
X201095960Y-75647580D01*
X201095960Y-76647580D01*
X201476913Y-75647580D02*
X202095960Y-75647580D01*
X201762627Y-76028533D01*
X201905484Y-76028533D01*
X202000722Y-76076152D01*
X202048341Y-76123771D01*
X202095960Y-76219009D01*
X202095960Y-76457104D01*
X202048341Y-76552342D01*
X202000722Y-76599961D01*
X201905484Y-76647580D01*
X201619770Y-76647580D01*
X201524532Y-76599961D01*
X201476913Y-76552342D01*
D10*
D11*
X124429294Y-211576580D02*
X124429294Y-210576580D01*
X124762627Y-211290866D01*
X125095960Y-210576580D01*
X125095960Y-211576580D01*
X125476913Y-210576580D02*
X126095960Y-210576580D01*
X125762627Y-210957533D01*
X125905484Y-210957533D01*
X126000722Y-211005152D01*
X126048341Y-211052771D01*
X126095960Y-211148009D01*
X126095960Y-211386104D01*
X126048341Y-211481342D01*
X126000722Y-211528961D01*
X125905484Y-211576580D01*
X125619770Y-211576580D01*
X125524532Y-211528961D01*
X125476913Y-211481342D01*
D10*
D11*
X16588875Y-80847580D02*
X16588875Y-79847580D01*
X16922208Y-80561866D01*
X17255541Y-79847580D01*
X17255541Y-80847580D01*
X17636494Y-79847580D02*
X18255541Y-79847580D01*
X17922208Y-80228533D01*
X18065065Y-80228533D01*
X18160303Y-80276152D01*
X18207922Y-80323771D01*
X18255541Y-80419009D01*
X18255541Y-80657104D01*
X18207922Y-80752342D01*
X18160303Y-80799961D01*
X18065065Y-80847580D01*
X17779351Y-80847580D01*
X17684113Y-80799961D01*
X17636494Y-80752342D01*
%TD*%
M02*
