M48
; DRILL file {KiCad (6.0.0)} date Sun Mar  6 23:09:35 2022
; FORMAT={-:-/ absolute / metric / decimal}
; #@! TF.CreationDate,2022-03-06T23:09:35-05:00
; #@! TF.GenerationSoftware,Kicad,Pcbnew,(6.0.0)
; #@! TF.FileFunction,NonPlated,1,2,NPTH
FMAT,2
METRIC
; #@! TA.AperFunction,NonPlated,NPTH,ComponentDrill
T1C3.200
%
G90
G05
T1
X15.017Y-35.716
X15.017Y-57.146
X15.017Y-94.153
X15.017Y-170.645
X61.68Y-35.716
X98.18Y-35.716
X118.18Y-170.645
X118.198Y-35.716
X155.18Y-35.716
X194.18Y-35.716
X223.18Y-35.716
X262.18Y-35.716
X299.162Y-35.716
X299.18Y-170.645
X319.18Y-35.716
X355.68Y-35.716
X402.343Y-35.716
X402.343Y-170.645
X402.374Y-57.153
X402.406Y-94.153
T0
M30
