%TF.GenerationSoftware,KiCad,Pcbnew,(6.0.0)*%
%TF.CreationDate,2022-03-09T15:54:11-05:00*%
%TF.ProjectId,custom_keyboard plate v3,63757374-6f6d-45f6-9b65-79626f617264,rev?*%
%TF.SameCoordinates,Original*%
%TF.FileFunction,Legend,Bot*%
%TF.FilePolarity,Positive*%
%FSLAX46Y46*%
G04 Gerber Fmt 4.6, Leading zero omitted, Abs format (unit mm)*
G04 Created by KiCad (PCBNEW (6.0.0)) date 2022-03-09 15:54:11*
%MOMM*%
%LPD*%
G01*
G04 APERTURE LIST*
%ADD10C,0.120000*%
%ADD11C,0.150000*%
%ADD12C,3.200000*%
G04 APERTURE END LIST*
D10*
X397580699Y-207155699D02*
X24541699Y-207155700D01*
X21366899Y-203980900D02*
G75*
G03*
X24541699Y-207155700I3174799J-1D01*
G01*
X400755498Y-83338500D02*
G75*
G03*
X397580698Y-80163700I-3174799J1D01*
G01*
X400755498Y-203980900D02*
X400755498Y-83338500D01*
X397580698Y-80163700D02*
X24541699Y-80163700D01*
X21366899Y-83338500D02*
X21366899Y-203980900D01*
X24541699Y-80163700D02*
G75*
G03*
X21366899Y-83338500I-1J-3174799D01*
G01*
X397580699Y-207155699D02*
G75*
G03*
X400755499Y-203980899I1J3174799D01*
G01*
D11*
X360939104Y-181415381D02*
X360939104Y-180415381D01*
X360843866Y-181034429D02*
X360558152Y-181415381D01*
X360558152Y-180748715D02*
X360939104Y-181129667D01*
X360129580Y-181415381D02*
X360129580Y-180415381D01*
X360129580Y-180796334D02*
X360034342Y-180748715D01*
X359843866Y-180748715D01*
X359748628Y-180796334D01*
X359701009Y-180843953D01*
X359653390Y-180939191D01*
X359653390Y-181224905D01*
X359701009Y-181320143D01*
X359748628Y-181367762D01*
X359843866Y-181415381D01*
X360034342Y-181415381D01*
X360129580Y-181367762D01*
X359224819Y-181320143D02*
X359177200Y-181367762D01*
X359224819Y-181415381D01*
X359272438Y-181367762D01*
X359224819Y-181320143D01*
X359224819Y-181415381D01*
X358748628Y-181415381D02*
X358748628Y-180415381D01*
X358320057Y-181415381D02*
X358320057Y-180891572D01*
X358367676Y-180796334D01*
X358462914Y-180748715D01*
X358605771Y-180748715D01*
X358701009Y-180796334D01*
X358748628Y-180843953D01*
X357986723Y-180748715D02*
X357605771Y-180748715D01*
X357843866Y-180415381D02*
X357843866Y-181272524D01*
X357796247Y-181367762D01*
X357701009Y-181415381D01*
X357605771Y-181415381D01*
X356748628Y-181415381D02*
X357320057Y-181415381D01*
X357034342Y-181415381D02*
X357034342Y-180415381D01*
X357129580Y-180558239D01*
X357224819Y-180653477D01*
X357320057Y-180701096D01*
X356367676Y-180510620D02*
X356320057Y-180463001D01*
X356224819Y-180415381D01*
X355986723Y-180415381D01*
X355891485Y-180463001D01*
X355843866Y-180510620D01*
X355796247Y-180605858D01*
X355796247Y-180701096D01*
X355843866Y-180843953D01*
X356415295Y-181415381D01*
X355796247Y-181415381D01*
X355462914Y-180415381D02*
X354843866Y-180415381D01*
X355177200Y-180796334D01*
X355034342Y-180796334D01*
X354939104Y-180843953D01*
X354891485Y-180891572D01*
X354843866Y-180986810D01*
X354843866Y-181224905D01*
X354891485Y-181320143D01*
X354939104Y-181367762D01*
X355034342Y-181415381D01*
X355320057Y-181415381D01*
X355415295Y-181367762D01*
X355462914Y-181320143D01*
X353986723Y-180748715D02*
X353986723Y-181415381D01*
X354224819Y-180367762D02*
X354462914Y-181082048D01*
X353843866Y-181082048D01*
X352986723Y-180415381D02*
X353462914Y-180415381D01*
X353510533Y-180891572D01*
X353462914Y-180843953D01*
X353367676Y-180796334D01*
X353129580Y-180796334D01*
X353034342Y-180843953D01*
X352986723Y-180891572D01*
X352939104Y-180986810D01*
X352939104Y-181224905D01*
X352986723Y-181320143D01*
X353034342Y-181367762D01*
X353129580Y-181415381D01*
X353367676Y-181415381D01*
X353462914Y-181367762D01*
X353510533Y-181320143D01*
X352510533Y-181320143D02*
X352462914Y-181367762D01*
X352510533Y-181415381D01*
X352558152Y-181367762D01*
X352510533Y-181320143D01*
X352510533Y-181415381D01*
X352129580Y-181415381D02*
X351605771Y-180748715D01*
X352129580Y-180748715D02*
X351605771Y-181415381D01*
X351320057Y-180748715D02*
X351081961Y-181415381D01*
X350843866Y-180748715D02*
X351081961Y-181415381D01*
X351177200Y-181653477D01*
X351224819Y-181701096D01*
X351320057Y-181748715D01*
X350558152Y-180748715D02*
X350034342Y-180748715D01*
X350558152Y-181415381D01*
X350034342Y-181415381D01*
X348939104Y-180367762D02*
X349796247Y-181653477D01*
X348415295Y-180415381D02*
X348320057Y-180415381D01*
X348224819Y-180463001D01*
X348177200Y-180510620D01*
X348129580Y-180605858D01*
X348081961Y-180796334D01*
X348081961Y-181034429D01*
X348129580Y-181224905D01*
X348177200Y-181320143D01*
X348224819Y-181367762D01*
X348320057Y-181415381D01*
X348415295Y-181415381D01*
X348510533Y-181367762D01*
X348558152Y-181320143D01*
X348605771Y-181224905D01*
X348653390Y-181034429D01*
X348653390Y-180796334D01*
X348605771Y-180605858D01*
X348558152Y-180510620D01*
X348510533Y-180463001D01*
X348415295Y-180415381D01*
X360129580Y-182240877D02*
X360224819Y-182193258D01*
X360415295Y-182193258D01*
X360510533Y-182240877D01*
X360605771Y-182336115D01*
X360653390Y-182431353D01*
X360653390Y-182621829D01*
X360605771Y-182717067D01*
X360510533Y-182812305D01*
X360415295Y-182859924D01*
X360224819Y-182859924D01*
X360129580Y-182812305D01*
X360320057Y-181859924D02*
X360558152Y-181907543D01*
X360796247Y-182050401D01*
X360939104Y-182288496D01*
X360986723Y-182526591D01*
X360939104Y-182764686D01*
X360796247Y-183002781D01*
X360558152Y-183145639D01*
X360320057Y-183193258D01*
X360081961Y-183145639D01*
X359843866Y-183002781D01*
X359701009Y-182764686D01*
X359653390Y-182526591D01*
X359701009Y-182288496D01*
X359843866Y-182050401D01*
X360081961Y-181907543D01*
X360320057Y-181859924D01*
X358510533Y-182098020D02*
X358462914Y-182050401D01*
X358367676Y-182002781D01*
X358129580Y-182002781D01*
X358034342Y-182050401D01*
X357986723Y-182098020D01*
X357939104Y-182193258D01*
X357939104Y-182288496D01*
X357986723Y-182431353D01*
X358558152Y-183002781D01*
X357939104Y-183002781D01*
X357320057Y-182002781D02*
X357224819Y-182002781D01*
X357129580Y-182050401D01*
X357081961Y-182098020D01*
X357034342Y-182193258D01*
X356986723Y-182383734D01*
X356986723Y-182621829D01*
X357034342Y-182812305D01*
X357081961Y-182907543D01*
X357129580Y-182955162D01*
X357224819Y-183002781D01*
X357320057Y-183002781D01*
X357415295Y-182955162D01*
X357462914Y-182907543D01*
X357510533Y-182812305D01*
X357558152Y-182621829D01*
X357558152Y-182383734D01*
X357510533Y-182193258D01*
X357462914Y-182098020D01*
X357415295Y-182050401D01*
X357320057Y-182002781D01*
X356605771Y-182098020D02*
X356558152Y-182050401D01*
X356462914Y-182002781D01*
X356224819Y-182002781D01*
X356129580Y-182050401D01*
X356081961Y-182098020D01*
X356034342Y-182193258D01*
X356034342Y-182288496D01*
X356081961Y-182431353D01*
X356653390Y-183002781D01*
X356034342Y-183002781D01*
X355653390Y-182098020D02*
X355605771Y-182050401D01*
X355510533Y-182002781D01*
X355272438Y-182002781D01*
X355177200Y-182050401D01*
X355129580Y-182098020D01*
X355081961Y-182193258D01*
X355081961Y-182288496D01*
X355129580Y-182431353D01*
X355701009Y-183002781D01*
X355081961Y-183002781D01*
X353891485Y-183002781D02*
X353891485Y-182002781D01*
X353891485Y-182478972D02*
X353320057Y-182478972D01*
X353320057Y-183002781D02*
X353320057Y-182002781D01*
X352701009Y-183002781D02*
X352796247Y-182955162D01*
X352843866Y-182907543D01*
X352891485Y-182812305D01*
X352891485Y-182526591D01*
X352843866Y-182431353D01*
X352796247Y-182383734D01*
X352701009Y-182336115D01*
X352558152Y-182336115D01*
X352462914Y-182383734D01*
X352415295Y-182431353D01*
X352367676Y-182526591D01*
X352367676Y-182812305D01*
X352415295Y-182907543D01*
X352462914Y-182955162D01*
X352558152Y-183002781D01*
X352701009Y-183002781D01*
X352034342Y-182336115D02*
X351843866Y-183002781D01*
X351653390Y-182526591D01*
X351462914Y-183002781D01*
X351272438Y-182336115D01*
X350462914Y-183002781D02*
X350462914Y-182478972D01*
X350510533Y-182383734D01*
X350605771Y-182336115D01*
X350796247Y-182336115D01*
X350891485Y-182383734D01*
X350462914Y-182955162D02*
X350558152Y-183002781D01*
X350796247Y-183002781D01*
X350891485Y-182955162D01*
X350939104Y-182859924D01*
X350939104Y-182764686D01*
X350891485Y-182669448D01*
X350796247Y-182621829D01*
X350558152Y-182621829D01*
X350462914Y-182574210D01*
X349986723Y-183002781D02*
X349986723Y-182336115D01*
X349986723Y-182526591D02*
X349939104Y-182431353D01*
X349891485Y-182383734D01*
X349796247Y-182336115D01*
X349701009Y-182336115D01*
X348939104Y-183002781D02*
X348939104Y-182002781D01*
X348939104Y-182955162D02*
X349034342Y-183002781D01*
X349224819Y-183002781D01*
X349320057Y-182955162D01*
X349367676Y-182907543D01*
X349415295Y-182812305D01*
X349415295Y-182526591D01*
X349367676Y-182431353D01*
X349320057Y-182383734D01*
X349224819Y-182336115D01*
X349034342Y-182336115D01*
X348939104Y-182383734D01*
X347843866Y-182002781D02*
X347272438Y-182002781D01*
X347558152Y-183002781D02*
X347558152Y-182002781D01*
X346986723Y-182955162D02*
X346891485Y-183002781D01*
X346701009Y-183002781D01*
X346605771Y-182955162D01*
X346558152Y-182859924D01*
X346558152Y-182812305D01*
X346605771Y-182717067D01*
X346701009Y-182669448D01*
X346843866Y-182669448D01*
X346939104Y-182621829D01*
X346986723Y-182526591D01*
X346986723Y-182478972D01*
X346939104Y-182383734D01*
X346843866Y-182336115D01*
X346701009Y-182336115D01*
X346605771Y-182383734D01*
X345748628Y-182955162D02*
X345843866Y-183002781D01*
X346034342Y-183002781D01*
X346129580Y-182955162D01*
X346177200Y-182859924D01*
X346177200Y-182478972D01*
X346129580Y-182383734D01*
X346034342Y-182336115D01*
X345843866Y-182336115D01*
X345748628Y-182383734D01*
X345701009Y-182478972D01*
X345701009Y-182574210D01*
X346177200Y-182669448D01*
X345272438Y-182336115D02*
X345272438Y-183002781D01*
X345272438Y-182431353D02*
X345224819Y-182383734D01*
X345129580Y-182336115D01*
X344986723Y-182336115D01*
X344891485Y-182383734D01*
X344843866Y-182478972D01*
X344843866Y-183002781D01*
X343939104Y-182336115D02*
X343939104Y-183145639D01*
X343986723Y-183240877D01*
X344034342Y-183288496D01*
X344129580Y-183336115D01*
X344272438Y-183336115D01*
X344367676Y-183288496D01*
X343939104Y-182955162D02*
X344034342Y-183002781D01*
X344224819Y-183002781D01*
X344320057Y-182955162D01*
X344367676Y-182907543D01*
X344415295Y-182812305D01*
X344415295Y-182526591D01*
X344367676Y-182431353D01*
X344320057Y-182383734D01*
X344224819Y-182336115D01*
X344034342Y-182336115D01*
X343939104Y-182383734D01*
X360939104Y-179827981D02*
X360939104Y-178827981D01*
X360843866Y-179447029D02*
X360558152Y-179827981D01*
X360558152Y-179161315D02*
X360939104Y-179542267D01*
X359748628Y-179780362D02*
X359843866Y-179827981D01*
X360034342Y-179827981D01*
X360129580Y-179780362D01*
X360177200Y-179685124D01*
X360177200Y-179304172D01*
X360129580Y-179208934D01*
X360034342Y-179161315D01*
X359843866Y-179161315D01*
X359748628Y-179208934D01*
X359701009Y-179304172D01*
X359701009Y-179399410D01*
X360177200Y-179494648D01*
X359367676Y-179161315D02*
X359129580Y-179827981D01*
X358891485Y-179161315D02*
X359129580Y-179827981D01*
X359224819Y-180066077D01*
X359272438Y-180113696D01*
X359367676Y-180161315D01*
X358510533Y-179827981D02*
X358510533Y-178827981D01*
X358510533Y-179208934D02*
X358415295Y-179161315D01*
X358224819Y-179161315D01*
X358129580Y-179208934D01*
X358081961Y-179256553D01*
X358034342Y-179351791D01*
X358034342Y-179637505D01*
X358081961Y-179732743D01*
X358129580Y-179780362D01*
X358224819Y-179827981D01*
X358415295Y-179827981D01*
X358510533Y-179780362D01*
X357462914Y-179827981D02*
X357558152Y-179780362D01*
X357605771Y-179732743D01*
X357653390Y-179637505D01*
X357653390Y-179351791D01*
X357605771Y-179256553D01*
X357558152Y-179208934D01*
X357462914Y-179161315D01*
X357320057Y-179161315D01*
X357224819Y-179208934D01*
X357177200Y-179256553D01*
X357129580Y-179351791D01*
X357129580Y-179637505D01*
X357177200Y-179732743D01*
X357224819Y-179780362D01*
X357320057Y-179827981D01*
X357462914Y-179827981D01*
X356272438Y-179827981D02*
X356272438Y-179304172D01*
X356320057Y-179208934D01*
X356415295Y-179161315D01*
X356605771Y-179161315D01*
X356701009Y-179208934D01*
X356272438Y-179780362D02*
X356367676Y-179827981D01*
X356605771Y-179827981D01*
X356701009Y-179780362D01*
X356748628Y-179685124D01*
X356748628Y-179589886D01*
X356701009Y-179494648D01*
X356605771Y-179447029D01*
X356367676Y-179447029D01*
X356272438Y-179399410D01*
X355796247Y-179827981D02*
X355796247Y-179161315D01*
X355796247Y-179351791D02*
X355748628Y-179256553D01*
X355701009Y-179208934D01*
X355605771Y-179161315D01*
X355510533Y-179161315D01*
X354748628Y-179827981D02*
X354748628Y-178827981D01*
X354748628Y-179780362D02*
X354843866Y-179827981D01*
X355034342Y-179827981D01*
X355129580Y-179780362D01*
X355177200Y-179732743D01*
X355224819Y-179637505D01*
X355224819Y-179351791D01*
X355177200Y-179256553D01*
X355129580Y-179208934D01*
X355034342Y-179161315D01*
X354843866Y-179161315D01*
X354748628Y-179208934D01*
X354081961Y-178827981D02*
X353986723Y-178827981D01*
X353891485Y-178875601D01*
X353843866Y-178923220D01*
X353796247Y-179018458D01*
X353748628Y-179208934D01*
X353748628Y-179447029D01*
X353796247Y-179637505D01*
X353843866Y-179732743D01*
X353891485Y-179780362D01*
X353986723Y-179827981D01*
X354081961Y-179827981D01*
X354177200Y-179780362D01*
X354224819Y-179732743D01*
X354272438Y-179637505D01*
X354320057Y-179447029D01*
X354320057Y-179208934D01*
X354272438Y-179018458D01*
X354224819Y-178923220D01*
X354177200Y-178875601D01*
X354081961Y-178827981D01*
X352224819Y-179304172D02*
X352558152Y-179304172D01*
X352558152Y-179827981D02*
X352558152Y-178827981D01*
X352081961Y-178827981D01*
X351129580Y-179827981D02*
X351462914Y-179351791D01*
X351701009Y-179827981D02*
X351701009Y-178827981D01*
X351320057Y-178827981D01*
X351224819Y-178875601D01*
X351177200Y-178923220D01*
X351129580Y-179018458D01*
X351129580Y-179161315D01*
X351177200Y-179256553D01*
X351224819Y-179304172D01*
X351320057Y-179351791D01*
X351701009Y-179351791D01*
X350272438Y-179161315D02*
X350272438Y-179827981D01*
X350510533Y-178780362D02*
X350748628Y-179494648D01*
X350129580Y-179494648D01*
X348986723Y-179161315D02*
X348986723Y-180161315D01*
X348986723Y-179208934D02*
X348891485Y-179161315D01*
X348701009Y-179161315D01*
X348605771Y-179208934D01*
X348558152Y-179256553D01*
X348510533Y-179351791D01*
X348510533Y-179637505D01*
X348558152Y-179732743D01*
X348605771Y-179780362D01*
X348701009Y-179827981D01*
X348891485Y-179827981D01*
X348986723Y-179780362D01*
X347939104Y-179827981D02*
X348034342Y-179780362D01*
X348081961Y-179685124D01*
X348081961Y-178827981D01*
X347129580Y-179827981D02*
X347129580Y-179304172D01*
X347177200Y-179208934D01*
X347272438Y-179161315D01*
X347462914Y-179161315D01*
X347558152Y-179208934D01*
X347129580Y-179780362D02*
X347224819Y-179827981D01*
X347462914Y-179827981D01*
X347558152Y-179780362D01*
X347605771Y-179685124D01*
X347605771Y-179589886D01*
X347558152Y-179494648D01*
X347462914Y-179447029D01*
X347224819Y-179447029D01*
X347129580Y-179399410D01*
X346796247Y-179161315D02*
X346415295Y-179161315D01*
X346653390Y-178827981D02*
X346653390Y-179685124D01*
X346605771Y-179780362D01*
X346510533Y-179827981D01*
X346415295Y-179827981D01*
X345701009Y-179780362D02*
X345796247Y-179827981D01*
X345986723Y-179827981D01*
X346081961Y-179780362D01*
X346129580Y-179685124D01*
X346129580Y-179304172D01*
X346081961Y-179208934D01*
X345986723Y-179161315D01*
X345796247Y-179161315D01*
X345701009Y-179208934D01*
X345653390Y-179304172D01*
X345653390Y-179399410D01*
X346129580Y-179494648D01*
X344558152Y-179161315D02*
X344320057Y-179827981D01*
X344081961Y-179161315D01*
X343748628Y-178923220D02*
X343701009Y-178875601D01*
X343605771Y-178827981D01*
X343367676Y-178827981D01*
X343272438Y-178875601D01*
X343224819Y-178923220D01*
X343177200Y-179018458D01*
X343177200Y-179113696D01*
X343224819Y-179256553D01*
X343796247Y-179827981D01*
X343177200Y-179827981D01*
X400743247Y-213616080D02*
X400743247Y-214330366D01*
X400790866Y-214473223D01*
X400886104Y-214568461D01*
X401028961Y-214616080D01*
X401124200Y-214616080D01*
X399790866Y-214616080D02*
X400267057Y-214616080D01*
X400267057Y-213616080D01*
X398886104Y-214520842D02*
X398933723Y-214568461D01*
X399076580Y-214616080D01*
X399171819Y-214616080D01*
X399314676Y-214568461D01*
X399409914Y-214473223D01*
X399457533Y-214377985D01*
X399505152Y-214187509D01*
X399505152Y-214044652D01*
X399457533Y-213854176D01*
X399409914Y-213758938D01*
X399314676Y-213663700D01*
X399171819Y-213616080D01*
X399076580Y-213616080D01*
X398933723Y-213663700D01*
X398886104Y-213711319D01*
X398171819Y-213616080D02*
X398171819Y-214330366D01*
X398219438Y-214473223D01*
X398314676Y-214568461D01*
X398457533Y-214616080D01*
X398552771Y-214616080D01*
X397219438Y-214616080D02*
X397695628Y-214616080D01*
X397695628Y-213616080D01*
X396314676Y-214520842D02*
X396362295Y-214568461D01*
X396505152Y-214616080D01*
X396600390Y-214616080D01*
X396743247Y-214568461D01*
X396838485Y-214473223D01*
X396886104Y-214377985D01*
X396933723Y-214187509D01*
X396933723Y-214044652D01*
X396886104Y-213854176D01*
X396838485Y-213758938D01*
X396743247Y-213663700D01*
X396600390Y-213616080D01*
X396505152Y-213616080D01*
X396362295Y-213663700D01*
X396314676Y-213711319D01*
X395600390Y-213616080D02*
X395600390Y-214330366D01*
X395648009Y-214473223D01*
X395743247Y-214568461D01*
X395886104Y-214616080D01*
X395981342Y-214616080D01*
X394648009Y-214616080D02*
X395124200Y-214616080D01*
X395124200Y-213616080D01*
X393743247Y-214520842D02*
X393790866Y-214568461D01*
X393933723Y-214616080D01*
X394028961Y-214616080D01*
X394171819Y-214568461D01*
X394267057Y-214473223D01*
X394314676Y-214377985D01*
X394362295Y-214187509D01*
X394362295Y-214044652D01*
X394314676Y-213854176D01*
X394267057Y-213758938D01*
X394171819Y-213663700D01*
X394028961Y-213616080D01*
X393933723Y-213616080D01*
X393790866Y-213663700D01*
X393743247Y-213711319D01*
X393028961Y-213616080D02*
X393028961Y-214330366D01*
X393076580Y-214473223D01*
X393171819Y-214568461D01*
X393314676Y-214616080D01*
X393409914Y-214616080D01*
X392076580Y-214616080D02*
X392552771Y-214616080D01*
X392552771Y-213616080D01*
X391171819Y-214520842D02*
X391219438Y-214568461D01*
X391362295Y-214616080D01*
X391457533Y-214616080D01*
X391600390Y-214568461D01*
X391695628Y-214473223D01*
X391743247Y-214377985D01*
X391790866Y-214187509D01*
X391790866Y-214044652D01*
X391743247Y-213854176D01*
X391695628Y-213758938D01*
X391600390Y-213663700D01*
X391457533Y-213616080D01*
X391362295Y-213616080D01*
X391219438Y-213663700D01*
X391171819Y-213711319D01*
X215346913Y-206814380D02*
X215346913Y-205814380D01*
X214965960Y-205814380D01*
X214870722Y-205862000D01*
X214823103Y-205909619D01*
X214775484Y-206004857D01*
X214775484Y-206147714D01*
X214823103Y-206242952D01*
X214870722Y-206290571D01*
X214965960Y-206338190D01*
X215346913Y-206338190D01*
X213775484Y-206719142D02*
X213823103Y-206766761D01*
X213965960Y-206814380D01*
X214061199Y-206814380D01*
X214204056Y-206766761D01*
X214299294Y-206671523D01*
X214346913Y-206576285D01*
X214394532Y-206385809D01*
X214394532Y-206242952D01*
X214346913Y-206052476D01*
X214299294Y-205957238D01*
X214204056Y-205862000D01*
X214061199Y-205814380D01*
X213965960Y-205814380D01*
X213823103Y-205862000D01*
X213775484Y-205909619D01*
X213013579Y-206290571D02*
X212870722Y-206338190D01*
X212823103Y-206385809D01*
X212775484Y-206481047D01*
X212775484Y-206623904D01*
X212823103Y-206719142D01*
X212870722Y-206766761D01*
X212965960Y-206814380D01*
X213346913Y-206814380D01*
X213346913Y-205814380D01*
X213013579Y-205814380D01*
X212918341Y-205862000D01*
X212870722Y-205909619D01*
X212823103Y-206004857D01*
X212823103Y-206100095D01*
X212870722Y-206195333D01*
X212918341Y-206242952D01*
X213013579Y-206290571D01*
X213346913Y-206290571D01*
X211394532Y-205814380D02*
X211204056Y-205814380D01*
X211108818Y-205862000D01*
X211013579Y-205957238D01*
X210965960Y-206147714D01*
X210965960Y-206481047D01*
X211013579Y-206671523D01*
X211108818Y-206766761D01*
X211204056Y-206814380D01*
X211394532Y-206814380D01*
X211489770Y-206766761D01*
X211585008Y-206671523D01*
X211632627Y-206481047D01*
X211632627Y-206147714D01*
X211585008Y-205957238D01*
X211489770Y-205862000D01*
X211394532Y-205814380D01*
X210108818Y-206147714D02*
X210108818Y-206814380D01*
X210537389Y-206147714D02*
X210537389Y-206671523D01*
X210489770Y-206766761D01*
X210394532Y-206814380D01*
X210251675Y-206814380D01*
X210156437Y-206766761D01*
X210108818Y-206719142D01*
X209775484Y-206147714D02*
X209394532Y-206147714D01*
X209632627Y-205814380D02*
X209632627Y-206671523D01*
X209585008Y-206766761D01*
X209489770Y-206814380D01*
X209394532Y-206814380D01*
X208918341Y-206814380D02*
X209013579Y-206766761D01*
X209061199Y-206671523D01*
X209061199Y-205814380D01*
X208537389Y-206814380D02*
X208537389Y-206147714D01*
X208537389Y-205814380D02*
X208585008Y-205862000D01*
X208537389Y-205909619D01*
X208489770Y-205862000D01*
X208537389Y-205814380D01*
X208537389Y-205909619D01*
X208061199Y-206147714D02*
X208061199Y-206814380D01*
X208061199Y-206242952D02*
X208013579Y-206195333D01*
X207918341Y-206147714D01*
X207775484Y-206147714D01*
X207680246Y-206195333D01*
X207632627Y-206290571D01*
X207632627Y-206814380D01*
X206775484Y-206766761D02*
X206870722Y-206814380D01*
X207061199Y-206814380D01*
X207156437Y-206766761D01*
X207204056Y-206671523D01*
X207204056Y-206290571D01*
X207156437Y-206195333D01*
X207061199Y-206147714D01*
X206870722Y-206147714D01*
X206775484Y-206195333D01*
X206727865Y-206290571D01*
X206727865Y-206385809D01*
X207204056Y-206481047D01*
%TO.C,logo*%
G36*
X353411883Y-171060297D02*
G01*
X352043987Y-172430839D01*
X353650008Y-174039505D01*
X355015258Y-172671609D01*
X355428008Y-173076422D01*
X352253008Y-176251422D01*
X351845550Y-175833380D01*
X353311342Y-174367589D01*
X351702675Y-172764214D01*
X350242175Y-174230005D01*
X349821487Y-173819901D01*
X352996487Y-170644901D01*
X353411883Y-171060297D01*
G37*
G36*
X350453842Y-172922964D02*
G01*
X349559550Y-173817255D01*
X352398529Y-176658880D01*
X351988425Y-177071630D01*
X349160029Y-174227359D01*
X348271029Y-175119005D01*
X347940300Y-174790922D01*
X350136342Y-172592234D01*
X350453842Y-172922964D01*
G37*
%TD*%
%LPC*%
D12*
%TO.C,M3*%
X17335399Y-134632200D03*
%TD*%
%TO.C,M3*%
X17398399Y-211124200D03*
%TD*%
%TO.C,M3*%
X120579399Y-76195200D03*
%TD*%
%TO.C,M3*%
X404723999Y-211124200D03*
%TD*%
%TO.C,M3*%
X301561199Y-211124200D03*
%TD*%
%TO.C,M3*%
X100561199Y-76195200D03*
%TD*%
%TO.C,M3*%
X321561199Y-76195200D03*
%TD*%
%TO.C,M3*%
X264561199Y-76195200D03*
%TD*%
%TO.C,M3*%
X225561199Y-76195200D03*
%TD*%
%TO.C,M3*%
X404723999Y-134632200D03*
%TD*%
%TO.C,M3*%
X404723999Y-97625100D03*
%TD*%
%TO.C,M3*%
X157561199Y-76195200D03*
%TD*%
%TO.C,M3*%
X301542999Y-76195200D03*
%TD*%
%TO.C,M3*%
X404723999Y-76195200D03*
%TD*%
%TO.C,M3*%
X64061199Y-76195200D03*
%TD*%
%TO.C,M3*%
X17366899Y-97632200D03*
%TD*%
%TO.C,M3*%
X358061199Y-76195200D03*
%TD*%
%TO.C,M3*%
X196561199Y-76195200D03*
%TD*%
%TO.C,M3*%
X120561199Y-211124200D03*
%TD*%
%TO.C,M3*%
X17398399Y-76195200D03*
%TD*%
M02*
