%TF.GenerationSoftware,KiCad,Pcbnew,(6.0.0)*%
%TF.CreationDate,2022-03-07T23:03:07-05:00*%
%TF.ProjectId,custom_keyboard plate v3 - map,63757374-6f6d-45f6-9b65-79626f617264,rev?*%
%TF.SameCoordinates,Original*%
%TF.FileFunction,Copper,L2,Bot*%
%TF.FilePolarity,Positive*%
%FSLAX46Y46*%
G04 Gerber Fmt 4.6, Leading zero omitted, Abs format (unit mm)*
G04 Created by KiCad (PCBNEW (6.0.0)) date 2022-03-07 23:03:07*
%MOMM*%
%LPD*%
G01*
G04 APERTURE LIST*
%ADD10C,0.200000*%
%TA.AperFunction,NonConductor*%
%ADD11C,0.200000*%
%TD*%
G04 APERTURE END LIST*
D10*
%TO.C,M3*%
D11*
X15469680Y-88666357D02*
X14469680Y-88666357D01*
X15183966Y-88999690D01*
X14469680Y-89333023D01*
X15469680Y-89333023D01*
X14469680Y-89713976D02*
X14469680Y-90333023D01*
X14850633Y-89999690D01*
X14850633Y-90142547D01*
X14898252Y-90237785D01*
X14945871Y-90285404D01*
X15041109Y-90333023D01*
X15279204Y-90333023D01*
X15374442Y-90285404D01*
X15422061Y-90237785D01*
X15469680Y-90142547D01*
X15469680Y-89856833D01*
X15422061Y-89761595D01*
X15374442Y-89713976D01*
D10*
D11*
X402858280Y-88666357D02*
X401858280Y-88666357D01*
X402572566Y-88999690D01*
X401858280Y-89333023D01*
X402858280Y-89333023D01*
X401858280Y-89713976D02*
X401858280Y-90333023D01*
X402239233Y-89999690D01*
X402239233Y-90142547D01*
X402286852Y-90237785D01*
X402334471Y-90285404D01*
X402429709Y-90333023D01*
X402667804Y-90333023D01*
X402763042Y-90285404D01*
X402810661Y-90237785D01*
X402858280Y-90142547D01*
X402858280Y-89856833D01*
X402810661Y-89761595D01*
X402763042Y-89713976D01*
D10*
D11*
X324667242Y-36168880D02*
X324667242Y-35168880D01*
X324333909Y-35883166D01*
X324000576Y-35168880D01*
X324000576Y-36168880D01*
X323619623Y-35168880D02*
X323000576Y-35168880D01*
X323333909Y-35549833D01*
X323191052Y-35549833D01*
X323095814Y-35597452D01*
X323048195Y-35645071D01*
X323000576Y-35740309D01*
X323000576Y-35978404D01*
X323048195Y-36073642D01*
X323095814Y-36121261D01*
X323191052Y-36168880D01*
X323476766Y-36168880D01*
X323572004Y-36121261D01*
X323619623Y-36073642D01*
D10*
D11*
X15826823Y-166897880D02*
X15826823Y-165897880D01*
X15493490Y-166612166D01*
X15160157Y-165897880D01*
X15160157Y-166897880D01*
X14779204Y-165897880D02*
X14160157Y-165897880D01*
X14493490Y-166278833D01*
X14350633Y-166278833D01*
X14255395Y-166326452D01*
X14207776Y-166374071D01*
X14160157Y-166469309D01*
X14160157Y-166707404D01*
X14207776Y-166802642D01*
X14255395Y-166850261D01*
X14350633Y-166897880D01*
X14636347Y-166897880D01*
X14731585Y-166850261D01*
X14779204Y-166802642D01*
D10*
D11*
X403152423Y-166897880D02*
X403152423Y-165897880D01*
X402819090Y-166612166D01*
X402485757Y-165897880D01*
X402485757Y-166897880D01*
X402104804Y-165897880D02*
X401485757Y-165897880D01*
X401819090Y-166278833D01*
X401676233Y-166278833D01*
X401580995Y-166326452D01*
X401533376Y-166374071D01*
X401485757Y-166469309D01*
X401485757Y-166707404D01*
X401533376Y-166802642D01*
X401580995Y-166850261D01*
X401676233Y-166897880D01*
X401961947Y-166897880D01*
X402057185Y-166850261D01*
X402104804Y-166802642D01*
D10*
D11*
X267667242Y-36168880D02*
X267667242Y-35168880D01*
X267333909Y-35883166D01*
X267000576Y-35168880D01*
X267000576Y-36168880D01*
X266619623Y-35168880D02*
X266000576Y-35168880D01*
X266333909Y-35549833D01*
X266191052Y-35549833D01*
X266095814Y-35597452D01*
X266048195Y-35645071D01*
X266000576Y-35740309D01*
X266000576Y-35978404D01*
X266048195Y-36073642D01*
X266095814Y-36121261D01*
X266191052Y-36168880D01*
X266476766Y-36168880D01*
X266572004Y-36121261D01*
X266619623Y-36073642D01*
D10*
D11*
X402826780Y-61021595D02*
X401826780Y-61021595D01*
X402541066Y-61354928D01*
X401826780Y-61688261D01*
X402826780Y-61688261D01*
X401826780Y-62069214D02*
X401826780Y-62688261D01*
X402207733Y-62354928D01*
X402207733Y-62497785D01*
X402255352Y-62593023D01*
X402302971Y-62640642D01*
X402398209Y-62688261D01*
X402636304Y-62688261D01*
X402731542Y-62640642D01*
X402779161Y-62593023D01*
X402826780Y-62497785D01*
X402826780Y-62212071D01*
X402779161Y-62116833D01*
X402731542Y-62069214D01*
D10*
D11*
X199667242Y-36168880D02*
X199667242Y-35168880D01*
X199333909Y-35883166D01*
X199000576Y-35168880D01*
X199000576Y-36168880D01*
X198619623Y-35168880D02*
X198000576Y-35168880D01*
X198333909Y-35549833D01*
X198191052Y-35549833D01*
X198095814Y-35597452D01*
X198048195Y-35645071D01*
X198000576Y-35740309D01*
X198000576Y-35978404D01*
X198048195Y-36073642D01*
X198095814Y-36121261D01*
X198191052Y-36168880D01*
X198476766Y-36168880D01*
X198572004Y-36121261D01*
X198619623Y-36073642D01*
D10*
D11*
X295293804Y-36168880D02*
X295293804Y-35168880D01*
X294960471Y-35883166D01*
X294627138Y-35168880D01*
X294627138Y-36168880D01*
X294246185Y-35168880D02*
X293627138Y-35168880D01*
X293960471Y-35549833D01*
X293817614Y-35549833D01*
X293722376Y-35597452D01*
X293674757Y-35645071D01*
X293627138Y-35740309D01*
X293627138Y-35978404D01*
X293674757Y-36073642D01*
X293722376Y-36121261D01*
X293817614Y-36168880D01*
X294103328Y-36168880D01*
X294198566Y-36121261D01*
X294246185Y-36073642D01*
D10*
D11*
X67167242Y-36168880D02*
X67167242Y-35168880D01*
X66833909Y-35883166D01*
X66500576Y-35168880D01*
X66500576Y-36168880D01*
X66119623Y-35168880D02*
X65500576Y-35168880D01*
X65833909Y-35549833D01*
X65691052Y-35549833D01*
X65595814Y-35597452D01*
X65548195Y-35645071D01*
X65500576Y-35740309D01*
X65500576Y-35978404D01*
X65548195Y-36073642D01*
X65595814Y-36121261D01*
X65691052Y-36168880D01*
X65976766Y-36168880D01*
X66072004Y-36121261D01*
X66119623Y-36073642D01*
D10*
D11*
X295312004Y-171097880D02*
X295312004Y-170097880D01*
X294978671Y-170812166D01*
X294645338Y-170097880D01*
X294645338Y-171097880D01*
X294264385Y-170097880D02*
X293645338Y-170097880D01*
X293978671Y-170478833D01*
X293835814Y-170478833D01*
X293740576Y-170526452D01*
X293692957Y-170574071D01*
X293645338Y-170669309D01*
X293645338Y-170907404D01*
X293692957Y-171002642D01*
X293740576Y-171050261D01*
X293835814Y-171097880D01*
X294121528Y-171097880D01*
X294216766Y-171050261D01*
X294264385Y-171002642D01*
D10*
D11*
X351812004Y-36168880D02*
X351812004Y-35168880D01*
X351478671Y-35883166D01*
X351145338Y-35168880D01*
X351145338Y-36168880D01*
X350764385Y-35168880D02*
X350145338Y-35168880D01*
X350478671Y-35549833D01*
X350335814Y-35549833D01*
X350240576Y-35597452D01*
X350192957Y-35645071D01*
X350145338Y-35740309D01*
X350145338Y-35978404D01*
X350192957Y-36073642D01*
X350240576Y-36121261D01*
X350335814Y-36168880D01*
X350621528Y-36168880D01*
X350716766Y-36121261D01*
X350764385Y-36073642D01*
D10*
D11*
X151312004Y-36168880D02*
X151312004Y-35168880D01*
X150978671Y-35883166D01*
X150645338Y-35168880D01*
X150645338Y-36168880D01*
X150264385Y-35168880D02*
X149645338Y-35168880D01*
X149978671Y-35549833D01*
X149835814Y-35549833D01*
X149740576Y-35597452D01*
X149692957Y-35645071D01*
X149645338Y-35740309D01*
X149645338Y-35978404D01*
X149692957Y-36073642D01*
X149740576Y-36121261D01*
X149835814Y-36168880D01*
X150121528Y-36168880D01*
X150216766Y-36121261D01*
X150264385Y-36073642D01*
D10*
D11*
X123667242Y-171097880D02*
X123667242Y-170097880D01*
X123333909Y-170812166D01*
X123000576Y-170097880D01*
X123000576Y-171097880D01*
X122619623Y-170097880D02*
X122000576Y-170097880D01*
X122333909Y-170478833D01*
X122191052Y-170478833D01*
X122095814Y-170526452D01*
X122048195Y-170574071D01*
X122000576Y-170669309D01*
X122000576Y-170907404D01*
X122048195Y-171002642D01*
X122095814Y-171050261D01*
X122191052Y-171097880D01*
X122476766Y-171097880D01*
X122572004Y-171050261D01*
X122619623Y-171002642D01*
D10*
D11*
X94312004Y-36168880D02*
X94312004Y-35168880D01*
X93978671Y-35883166D01*
X93645338Y-35168880D01*
X93645338Y-36168880D01*
X93264385Y-35168880D02*
X92645338Y-35168880D01*
X92978671Y-35549833D01*
X92835814Y-35549833D01*
X92740576Y-35597452D01*
X92692957Y-35645071D01*
X92645338Y-35740309D01*
X92645338Y-35978404D01*
X92692957Y-36073642D01*
X92740576Y-36121261D01*
X92835814Y-36168880D01*
X93121528Y-36168880D01*
X93216766Y-36121261D01*
X93264385Y-36073642D01*
D10*
D11*
X219312004Y-36168880D02*
X219312004Y-35168880D01*
X218978671Y-35883166D01*
X218645338Y-35168880D01*
X218645338Y-36168880D01*
X218264385Y-35168880D02*
X217645338Y-35168880D01*
X217978671Y-35549833D01*
X217835814Y-35549833D01*
X217740576Y-35597452D01*
X217692957Y-35645071D01*
X217645338Y-35740309D01*
X217645338Y-35978404D01*
X217692957Y-36073642D01*
X217740576Y-36121261D01*
X217835814Y-36168880D01*
X218121528Y-36168880D01*
X218216766Y-36121261D01*
X218264385Y-36073642D01*
D10*
D11*
X123685442Y-36168880D02*
X123685442Y-35168880D01*
X123352109Y-35883166D01*
X123018776Y-35168880D01*
X123018776Y-36168880D01*
X122637823Y-35168880D02*
X122018776Y-35168880D01*
X122352109Y-35549833D01*
X122209252Y-35549833D01*
X122114014Y-35597452D01*
X122066395Y-35645071D01*
X122018776Y-35740309D01*
X122018776Y-35978404D01*
X122066395Y-36073642D01*
X122114014Y-36121261D01*
X122209252Y-36168880D01*
X122494966Y-36168880D01*
X122590204Y-36121261D01*
X122637823Y-36073642D01*
D10*
D11*
X15469680Y-61014495D02*
X14469680Y-61014495D01*
X15183966Y-61347828D01*
X14469680Y-61681161D01*
X15469680Y-61681161D01*
X14469680Y-62062114D02*
X14469680Y-62681161D01*
X14850633Y-62347828D01*
X14850633Y-62490685D01*
X14898252Y-62585923D01*
X14945871Y-62633542D01*
X15041109Y-62681161D01*
X15279204Y-62681161D01*
X15374442Y-62633542D01*
X15422061Y-62585923D01*
X15469680Y-62490685D01*
X15469680Y-62204971D01*
X15422061Y-62109733D01*
X15374442Y-62062114D01*
D10*
D11*
X403152423Y-40368880D02*
X403152423Y-39368880D01*
X402819090Y-40083166D01*
X402485757Y-39368880D01*
X402485757Y-40368880D01*
X402104804Y-39368880D02*
X401485757Y-39368880D01*
X401819090Y-39749833D01*
X401676233Y-39749833D01*
X401580995Y-39797452D01*
X401533376Y-39845071D01*
X401485757Y-39940309D01*
X401485757Y-40178404D01*
X401533376Y-40273642D01*
X401580995Y-40321261D01*
X401676233Y-40368880D01*
X401961947Y-40368880D01*
X402057185Y-40321261D01*
X402104804Y-40273642D01*
D10*
D11*
X15826823Y-40368880D02*
X15826823Y-39368880D01*
X15493490Y-40083166D01*
X15160157Y-39368880D01*
X15160157Y-40368880D01*
X14779204Y-39368880D02*
X14160157Y-39368880D01*
X14493490Y-39749833D01*
X14350633Y-39749833D01*
X14255395Y-39797452D01*
X14207776Y-39845071D01*
X14160157Y-39940309D01*
X14160157Y-40178404D01*
X14207776Y-40273642D01*
X14255395Y-40321261D01*
X14350633Y-40368880D01*
X14636347Y-40368880D01*
X14731585Y-40321261D01*
X14779204Y-40273642D01*
%TD*%
M02*
