%TF.GenerationSoftware,KiCad,Pcbnew,(6.0.0)*%
%TF.CreationDate,2022-03-08T10:50:49-05:00*%
%TF.ProjectId,custom_keyboard plate v3 - map,63757374-6f6d-45f6-9b65-79626f617264,rev?*%
%TF.SameCoordinates,Original*%
%TF.FileFunction,Legend,Bot*%
%TF.FilePolarity,Positive*%
%FSLAX46Y46*%
G04 Gerber Fmt 4.6, Leading zero omitted, Abs format (unit mm)*
G04 Created by KiCad (PCBNEW (6.0.0)) date 2022-03-08 10:50:49*
%MOMM*%
%LPD*%
G01*
G04 APERTURE LIST*
%ADD10C,0.120000*%
%ADD11C,0.150000*%
%ADD12C,3.200000*%
G04 APERTURE END LIST*
D10*
X397525000Y-193687199D02*
X24486000Y-193687200D01*
X21311200Y-190512400D02*
G75*
G03*
X24486000Y-193687200I3174799J-1D01*
G01*
X400699799Y-69870000D02*
G75*
G03*
X397524999Y-66695200I-3174799J1D01*
G01*
X400699799Y-190512400D02*
X400699799Y-69870000D01*
X397524999Y-66695200D02*
X24486000Y-66695200D01*
X21311200Y-69870000D02*
X21311200Y-190512400D01*
X24486000Y-66695200D02*
G75*
G03*
X21311200Y-69870000I-1J-3174799D01*
G01*
X397525000Y-193687199D02*
G75*
G03*
X400699800Y-190512399I1J3174799D01*
G01*
D11*
X360883405Y-167946881D02*
X360883405Y-166946881D01*
X360788167Y-167565929D02*
X360502453Y-167946881D01*
X360502453Y-167280215D02*
X360883405Y-167661167D01*
X360073881Y-167946881D02*
X360073881Y-166946881D01*
X360073881Y-167327834D02*
X359978643Y-167280215D01*
X359788167Y-167280215D01*
X359692929Y-167327834D01*
X359645310Y-167375453D01*
X359597691Y-167470691D01*
X359597691Y-167756405D01*
X359645310Y-167851643D01*
X359692929Y-167899262D01*
X359788167Y-167946881D01*
X359978643Y-167946881D01*
X360073881Y-167899262D01*
X359169120Y-167851643D02*
X359121501Y-167899262D01*
X359169120Y-167946881D01*
X359216739Y-167899262D01*
X359169120Y-167851643D01*
X359169120Y-167946881D01*
X358692929Y-167946881D02*
X358692929Y-166946881D01*
X358264358Y-167946881D02*
X358264358Y-167423072D01*
X358311977Y-167327834D01*
X358407215Y-167280215D01*
X358550072Y-167280215D01*
X358645310Y-167327834D01*
X358692929Y-167375453D01*
X357931024Y-167280215D02*
X357550072Y-167280215D01*
X357788167Y-166946881D02*
X357788167Y-167804024D01*
X357740548Y-167899262D01*
X357645310Y-167946881D01*
X357550072Y-167946881D01*
X356692929Y-167946881D02*
X357264358Y-167946881D01*
X356978643Y-167946881D02*
X356978643Y-166946881D01*
X357073881Y-167089739D01*
X357169120Y-167184977D01*
X357264358Y-167232596D01*
X356311977Y-167042120D02*
X356264358Y-166994501D01*
X356169120Y-166946881D01*
X355931024Y-166946881D01*
X355835786Y-166994501D01*
X355788167Y-167042120D01*
X355740548Y-167137358D01*
X355740548Y-167232596D01*
X355788167Y-167375453D01*
X356359596Y-167946881D01*
X355740548Y-167946881D01*
X355407215Y-166946881D02*
X354788167Y-166946881D01*
X355121501Y-167327834D01*
X354978643Y-167327834D01*
X354883405Y-167375453D01*
X354835786Y-167423072D01*
X354788167Y-167518310D01*
X354788167Y-167756405D01*
X354835786Y-167851643D01*
X354883405Y-167899262D01*
X354978643Y-167946881D01*
X355264358Y-167946881D01*
X355359596Y-167899262D01*
X355407215Y-167851643D01*
X353931024Y-167280215D02*
X353931024Y-167946881D01*
X354169120Y-166899262D02*
X354407215Y-167613548D01*
X353788167Y-167613548D01*
X352931024Y-166946881D02*
X353407215Y-166946881D01*
X353454834Y-167423072D01*
X353407215Y-167375453D01*
X353311977Y-167327834D01*
X353073881Y-167327834D01*
X352978643Y-167375453D01*
X352931024Y-167423072D01*
X352883405Y-167518310D01*
X352883405Y-167756405D01*
X352931024Y-167851643D01*
X352978643Y-167899262D01*
X353073881Y-167946881D01*
X353311977Y-167946881D01*
X353407215Y-167899262D01*
X353454834Y-167851643D01*
X352454834Y-167851643D02*
X352407215Y-167899262D01*
X352454834Y-167946881D01*
X352502453Y-167899262D01*
X352454834Y-167851643D01*
X352454834Y-167946881D01*
X352073881Y-167946881D02*
X351550072Y-167280215D01*
X352073881Y-167280215D02*
X351550072Y-167946881D01*
X351264358Y-167280215D02*
X351026262Y-167946881D01*
X350788167Y-167280215D02*
X351026262Y-167946881D01*
X351121501Y-168184977D01*
X351169120Y-168232596D01*
X351264358Y-168280215D01*
X350502453Y-167280215D02*
X349978643Y-167280215D01*
X350502453Y-167946881D01*
X349978643Y-167946881D01*
X348883405Y-166899262D02*
X349740548Y-168184977D01*
X348359596Y-166946881D02*
X348264358Y-166946881D01*
X348169120Y-166994501D01*
X348121501Y-167042120D01*
X348073881Y-167137358D01*
X348026262Y-167327834D01*
X348026262Y-167565929D01*
X348073881Y-167756405D01*
X348121501Y-167851643D01*
X348169120Y-167899262D01*
X348264358Y-167946881D01*
X348359596Y-167946881D01*
X348454834Y-167899262D01*
X348502453Y-167851643D01*
X348550072Y-167756405D01*
X348597691Y-167565929D01*
X348597691Y-167327834D01*
X348550072Y-167137358D01*
X348502453Y-167042120D01*
X348454834Y-166994501D01*
X348359596Y-166946881D01*
X360073881Y-168772377D02*
X360169120Y-168724758D01*
X360359596Y-168724758D01*
X360454834Y-168772377D01*
X360550072Y-168867615D01*
X360597691Y-168962853D01*
X360597691Y-169153329D01*
X360550072Y-169248567D01*
X360454834Y-169343805D01*
X360359596Y-169391424D01*
X360169120Y-169391424D01*
X360073881Y-169343805D01*
X360264358Y-168391424D02*
X360502453Y-168439043D01*
X360740548Y-168581901D01*
X360883405Y-168819996D01*
X360931024Y-169058091D01*
X360883405Y-169296186D01*
X360740548Y-169534281D01*
X360502453Y-169677139D01*
X360264358Y-169724758D01*
X360026262Y-169677139D01*
X359788167Y-169534281D01*
X359645310Y-169296186D01*
X359597691Y-169058091D01*
X359645310Y-168819996D01*
X359788167Y-168581901D01*
X360026262Y-168439043D01*
X360264358Y-168391424D01*
X358454834Y-168629520D02*
X358407215Y-168581901D01*
X358311977Y-168534281D01*
X358073881Y-168534281D01*
X357978643Y-168581901D01*
X357931024Y-168629520D01*
X357883405Y-168724758D01*
X357883405Y-168819996D01*
X357931024Y-168962853D01*
X358502453Y-169534281D01*
X357883405Y-169534281D01*
X357264358Y-168534281D02*
X357169120Y-168534281D01*
X357073881Y-168581901D01*
X357026262Y-168629520D01*
X356978643Y-168724758D01*
X356931024Y-168915234D01*
X356931024Y-169153329D01*
X356978643Y-169343805D01*
X357026262Y-169439043D01*
X357073881Y-169486662D01*
X357169120Y-169534281D01*
X357264358Y-169534281D01*
X357359596Y-169486662D01*
X357407215Y-169439043D01*
X357454834Y-169343805D01*
X357502453Y-169153329D01*
X357502453Y-168915234D01*
X357454834Y-168724758D01*
X357407215Y-168629520D01*
X357359596Y-168581901D01*
X357264358Y-168534281D01*
X356550072Y-168629520D02*
X356502453Y-168581901D01*
X356407215Y-168534281D01*
X356169120Y-168534281D01*
X356073881Y-168581901D01*
X356026262Y-168629520D01*
X355978643Y-168724758D01*
X355978643Y-168819996D01*
X356026262Y-168962853D01*
X356597691Y-169534281D01*
X355978643Y-169534281D01*
X355597691Y-168629520D02*
X355550072Y-168581901D01*
X355454834Y-168534281D01*
X355216739Y-168534281D01*
X355121501Y-168581901D01*
X355073881Y-168629520D01*
X355026262Y-168724758D01*
X355026262Y-168819996D01*
X355073881Y-168962853D01*
X355645310Y-169534281D01*
X355026262Y-169534281D01*
X353835786Y-169534281D02*
X353835786Y-168534281D01*
X353835786Y-169010472D02*
X353264358Y-169010472D01*
X353264358Y-169534281D02*
X353264358Y-168534281D01*
X352645310Y-169534281D02*
X352740548Y-169486662D01*
X352788167Y-169439043D01*
X352835786Y-169343805D01*
X352835786Y-169058091D01*
X352788167Y-168962853D01*
X352740548Y-168915234D01*
X352645310Y-168867615D01*
X352502453Y-168867615D01*
X352407215Y-168915234D01*
X352359596Y-168962853D01*
X352311977Y-169058091D01*
X352311977Y-169343805D01*
X352359596Y-169439043D01*
X352407215Y-169486662D01*
X352502453Y-169534281D01*
X352645310Y-169534281D01*
X351978643Y-168867615D02*
X351788167Y-169534281D01*
X351597691Y-169058091D01*
X351407215Y-169534281D01*
X351216739Y-168867615D01*
X350407215Y-169534281D02*
X350407215Y-169010472D01*
X350454834Y-168915234D01*
X350550072Y-168867615D01*
X350740548Y-168867615D01*
X350835786Y-168915234D01*
X350407215Y-169486662D02*
X350502453Y-169534281D01*
X350740548Y-169534281D01*
X350835786Y-169486662D01*
X350883405Y-169391424D01*
X350883405Y-169296186D01*
X350835786Y-169200948D01*
X350740548Y-169153329D01*
X350502453Y-169153329D01*
X350407215Y-169105710D01*
X349931024Y-169534281D02*
X349931024Y-168867615D01*
X349931024Y-169058091D02*
X349883405Y-168962853D01*
X349835786Y-168915234D01*
X349740548Y-168867615D01*
X349645310Y-168867615D01*
X348883405Y-169534281D02*
X348883405Y-168534281D01*
X348883405Y-169486662D02*
X348978643Y-169534281D01*
X349169120Y-169534281D01*
X349264358Y-169486662D01*
X349311977Y-169439043D01*
X349359596Y-169343805D01*
X349359596Y-169058091D01*
X349311977Y-168962853D01*
X349264358Y-168915234D01*
X349169120Y-168867615D01*
X348978643Y-168867615D01*
X348883405Y-168915234D01*
X347788167Y-168534281D02*
X347216739Y-168534281D01*
X347502453Y-169534281D02*
X347502453Y-168534281D01*
X346931024Y-169486662D02*
X346835786Y-169534281D01*
X346645310Y-169534281D01*
X346550072Y-169486662D01*
X346502453Y-169391424D01*
X346502453Y-169343805D01*
X346550072Y-169248567D01*
X346645310Y-169200948D01*
X346788167Y-169200948D01*
X346883405Y-169153329D01*
X346931024Y-169058091D01*
X346931024Y-169010472D01*
X346883405Y-168915234D01*
X346788167Y-168867615D01*
X346645310Y-168867615D01*
X346550072Y-168915234D01*
X345692929Y-169486662D02*
X345788167Y-169534281D01*
X345978643Y-169534281D01*
X346073881Y-169486662D01*
X346121501Y-169391424D01*
X346121501Y-169010472D01*
X346073881Y-168915234D01*
X345978643Y-168867615D01*
X345788167Y-168867615D01*
X345692929Y-168915234D01*
X345645310Y-169010472D01*
X345645310Y-169105710D01*
X346121501Y-169200948D01*
X345216739Y-168867615D02*
X345216739Y-169534281D01*
X345216739Y-168962853D02*
X345169120Y-168915234D01*
X345073881Y-168867615D01*
X344931024Y-168867615D01*
X344835786Y-168915234D01*
X344788167Y-169010472D01*
X344788167Y-169534281D01*
X343883405Y-168867615D02*
X343883405Y-169677139D01*
X343931024Y-169772377D01*
X343978643Y-169819996D01*
X344073881Y-169867615D01*
X344216739Y-169867615D01*
X344311977Y-169819996D01*
X343883405Y-169486662D02*
X343978643Y-169534281D01*
X344169120Y-169534281D01*
X344264358Y-169486662D01*
X344311977Y-169439043D01*
X344359596Y-169343805D01*
X344359596Y-169058091D01*
X344311977Y-168962853D01*
X344264358Y-168915234D01*
X344169120Y-168867615D01*
X343978643Y-168867615D01*
X343883405Y-168915234D01*
X360883405Y-166359481D02*
X360883405Y-165359481D01*
X360788167Y-165978529D02*
X360502453Y-166359481D01*
X360502453Y-165692815D02*
X360883405Y-166073767D01*
X359692929Y-166311862D02*
X359788167Y-166359481D01*
X359978643Y-166359481D01*
X360073881Y-166311862D01*
X360121501Y-166216624D01*
X360121501Y-165835672D01*
X360073881Y-165740434D01*
X359978643Y-165692815D01*
X359788167Y-165692815D01*
X359692929Y-165740434D01*
X359645310Y-165835672D01*
X359645310Y-165930910D01*
X360121501Y-166026148D01*
X359311977Y-165692815D02*
X359073881Y-166359481D01*
X358835786Y-165692815D02*
X359073881Y-166359481D01*
X359169120Y-166597577D01*
X359216739Y-166645196D01*
X359311977Y-166692815D01*
X358454834Y-166359481D02*
X358454834Y-165359481D01*
X358454834Y-165740434D02*
X358359596Y-165692815D01*
X358169120Y-165692815D01*
X358073881Y-165740434D01*
X358026262Y-165788053D01*
X357978643Y-165883291D01*
X357978643Y-166169005D01*
X358026262Y-166264243D01*
X358073881Y-166311862D01*
X358169120Y-166359481D01*
X358359596Y-166359481D01*
X358454834Y-166311862D01*
X357407215Y-166359481D02*
X357502453Y-166311862D01*
X357550072Y-166264243D01*
X357597691Y-166169005D01*
X357597691Y-165883291D01*
X357550072Y-165788053D01*
X357502453Y-165740434D01*
X357407215Y-165692815D01*
X357264358Y-165692815D01*
X357169120Y-165740434D01*
X357121501Y-165788053D01*
X357073881Y-165883291D01*
X357073881Y-166169005D01*
X357121501Y-166264243D01*
X357169120Y-166311862D01*
X357264358Y-166359481D01*
X357407215Y-166359481D01*
X356216739Y-166359481D02*
X356216739Y-165835672D01*
X356264358Y-165740434D01*
X356359596Y-165692815D01*
X356550072Y-165692815D01*
X356645310Y-165740434D01*
X356216739Y-166311862D02*
X356311977Y-166359481D01*
X356550072Y-166359481D01*
X356645310Y-166311862D01*
X356692929Y-166216624D01*
X356692929Y-166121386D01*
X356645310Y-166026148D01*
X356550072Y-165978529D01*
X356311977Y-165978529D01*
X356216739Y-165930910D01*
X355740548Y-166359481D02*
X355740548Y-165692815D01*
X355740548Y-165883291D02*
X355692929Y-165788053D01*
X355645310Y-165740434D01*
X355550072Y-165692815D01*
X355454834Y-165692815D01*
X354692929Y-166359481D02*
X354692929Y-165359481D01*
X354692929Y-166311862D02*
X354788167Y-166359481D01*
X354978643Y-166359481D01*
X355073881Y-166311862D01*
X355121501Y-166264243D01*
X355169120Y-166169005D01*
X355169120Y-165883291D01*
X355121501Y-165788053D01*
X355073881Y-165740434D01*
X354978643Y-165692815D01*
X354788167Y-165692815D01*
X354692929Y-165740434D01*
X354026262Y-165359481D02*
X353931024Y-165359481D01*
X353835786Y-165407101D01*
X353788167Y-165454720D01*
X353740548Y-165549958D01*
X353692929Y-165740434D01*
X353692929Y-165978529D01*
X353740548Y-166169005D01*
X353788167Y-166264243D01*
X353835786Y-166311862D01*
X353931024Y-166359481D01*
X354026262Y-166359481D01*
X354121501Y-166311862D01*
X354169120Y-166264243D01*
X354216739Y-166169005D01*
X354264358Y-165978529D01*
X354264358Y-165740434D01*
X354216739Y-165549958D01*
X354169120Y-165454720D01*
X354121501Y-165407101D01*
X354026262Y-165359481D01*
X352169120Y-165835672D02*
X352502453Y-165835672D01*
X352502453Y-166359481D02*
X352502453Y-165359481D01*
X352026262Y-165359481D01*
X351073881Y-166359481D02*
X351407215Y-165883291D01*
X351645310Y-166359481D02*
X351645310Y-165359481D01*
X351264358Y-165359481D01*
X351169120Y-165407101D01*
X351121501Y-165454720D01*
X351073881Y-165549958D01*
X351073881Y-165692815D01*
X351121501Y-165788053D01*
X351169120Y-165835672D01*
X351264358Y-165883291D01*
X351645310Y-165883291D01*
X350216739Y-165692815D02*
X350216739Y-166359481D01*
X350454834Y-165311862D02*
X350692929Y-166026148D01*
X350073881Y-166026148D01*
X348931024Y-165692815D02*
X348931024Y-166692815D01*
X348931024Y-165740434D02*
X348835786Y-165692815D01*
X348645310Y-165692815D01*
X348550072Y-165740434D01*
X348502453Y-165788053D01*
X348454834Y-165883291D01*
X348454834Y-166169005D01*
X348502453Y-166264243D01*
X348550072Y-166311862D01*
X348645310Y-166359481D01*
X348835786Y-166359481D01*
X348931024Y-166311862D01*
X347883405Y-166359481D02*
X347978643Y-166311862D01*
X348026262Y-166216624D01*
X348026262Y-165359481D01*
X347073881Y-166359481D02*
X347073881Y-165835672D01*
X347121501Y-165740434D01*
X347216739Y-165692815D01*
X347407215Y-165692815D01*
X347502453Y-165740434D01*
X347073881Y-166311862D02*
X347169120Y-166359481D01*
X347407215Y-166359481D01*
X347502453Y-166311862D01*
X347550072Y-166216624D01*
X347550072Y-166121386D01*
X347502453Y-166026148D01*
X347407215Y-165978529D01*
X347169120Y-165978529D01*
X347073881Y-165930910D01*
X346740548Y-165692815D02*
X346359596Y-165692815D01*
X346597691Y-165359481D02*
X346597691Y-166216624D01*
X346550072Y-166311862D01*
X346454834Y-166359481D01*
X346359596Y-166359481D01*
X345645310Y-166311862D02*
X345740548Y-166359481D01*
X345931024Y-166359481D01*
X346026262Y-166311862D01*
X346073881Y-166216624D01*
X346073881Y-165835672D01*
X346026262Y-165740434D01*
X345931024Y-165692815D01*
X345740548Y-165692815D01*
X345645310Y-165740434D01*
X345597691Y-165835672D01*
X345597691Y-165930910D01*
X346073881Y-166026148D01*
X344502453Y-165692815D02*
X344264358Y-166359481D01*
X344026262Y-165692815D01*
X343692929Y-165454720D02*
X343645310Y-165407101D01*
X343550072Y-165359481D01*
X343311977Y-165359481D01*
X343216739Y-165407101D01*
X343169120Y-165454720D01*
X343121501Y-165549958D01*
X343121501Y-165645196D01*
X343169120Y-165788053D01*
X343740548Y-166359481D01*
X343121501Y-166359481D01*
X400687548Y-200147580D02*
X400687548Y-200861866D01*
X400735167Y-201004723D01*
X400830405Y-201099961D01*
X400973262Y-201147580D01*
X401068501Y-201147580D01*
X399735167Y-201147580D02*
X400211358Y-201147580D01*
X400211358Y-200147580D01*
X398830405Y-201052342D02*
X398878024Y-201099961D01*
X399020881Y-201147580D01*
X399116120Y-201147580D01*
X399258977Y-201099961D01*
X399354215Y-201004723D01*
X399401834Y-200909485D01*
X399449453Y-200719009D01*
X399449453Y-200576152D01*
X399401834Y-200385676D01*
X399354215Y-200290438D01*
X399258977Y-200195200D01*
X399116120Y-200147580D01*
X399020881Y-200147580D01*
X398878024Y-200195200D01*
X398830405Y-200242819D01*
X398116120Y-200147580D02*
X398116120Y-200861866D01*
X398163739Y-201004723D01*
X398258977Y-201099961D01*
X398401834Y-201147580D01*
X398497072Y-201147580D01*
X397163739Y-201147580D02*
X397639929Y-201147580D01*
X397639929Y-200147580D01*
X396258977Y-201052342D02*
X396306596Y-201099961D01*
X396449453Y-201147580D01*
X396544691Y-201147580D01*
X396687548Y-201099961D01*
X396782786Y-201004723D01*
X396830405Y-200909485D01*
X396878024Y-200719009D01*
X396878024Y-200576152D01*
X396830405Y-200385676D01*
X396782786Y-200290438D01*
X396687548Y-200195200D01*
X396544691Y-200147580D01*
X396449453Y-200147580D01*
X396306596Y-200195200D01*
X396258977Y-200242819D01*
X395544691Y-200147580D02*
X395544691Y-200861866D01*
X395592310Y-201004723D01*
X395687548Y-201099961D01*
X395830405Y-201147580D01*
X395925643Y-201147580D01*
X394592310Y-201147580D02*
X395068501Y-201147580D01*
X395068501Y-200147580D01*
X393687548Y-201052342D02*
X393735167Y-201099961D01*
X393878024Y-201147580D01*
X393973262Y-201147580D01*
X394116120Y-201099961D01*
X394211358Y-201004723D01*
X394258977Y-200909485D01*
X394306596Y-200719009D01*
X394306596Y-200576152D01*
X394258977Y-200385676D01*
X394211358Y-200290438D01*
X394116120Y-200195200D01*
X393973262Y-200147580D01*
X393878024Y-200147580D01*
X393735167Y-200195200D01*
X393687548Y-200242819D01*
X392973262Y-200147580D02*
X392973262Y-200861866D01*
X393020881Y-201004723D01*
X393116120Y-201099961D01*
X393258977Y-201147580D01*
X393354215Y-201147580D01*
X392020881Y-201147580D02*
X392497072Y-201147580D01*
X392497072Y-200147580D01*
X391116120Y-201052342D02*
X391163739Y-201099961D01*
X391306596Y-201147580D01*
X391401834Y-201147580D01*
X391544691Y-201099961D01*
X391639929Y-201004723D01*
X391687548Y-200909485D01*
X391735167Y-200719009D01*
X391735167Y-200576152D01*
X391687548Y-200385676D01*
X391639929Y-200290438D01*
X391544691Y-200195200D01*
X391401834Y-200147580D01*
X391306596Y-200147580D01*
X391163739Y-200195200D01*
X391116120Y-200242819D01*
X215291214Y-193345880D02*
X215291214Y-192345880D01*
X214910261Y-192345880D01*
X214815023Y-192393500D01*
X214767404Y-192441119D01*
X214719785Y-192536357D01*
X214719785Y-192679214D01*
X214767404Y-192774452D01*
X214815023Y-192822071D01*
X214910261Y-192869690D01*
X215291214Y-192869690D01*
X213719785Y-193250642D02*
X213767404Y-193298261D01*
X213910261Y-193345880D01*
X214005500Y-193345880D01*
X214148357Y-193298261D01*
X214243595Y-193203023D01*
X214291214Y-193107785D01*
X214338833Y-192917309D01*
X214338833Y-192774452D01*
X214291214Y-192583976D01*
X214243595Y-192488738D01*
X214148357Y-192393500D01*
X214005500Y-192345880D01*
X213910261Y-192345880D01*
X213767404Y-192393500D01*
X213719785Y-192441119D01*
X212957880Y-192822071D02*
X212815023Y-192869690D01*
X212767404Y-192917309D01*
X212719785Y-193012547D01*
X212719785Y-193155404D01*
X212767404Y-193250642D01*
X212815023Y-193298261D01*
X212910261Y-193345880D01*
X213291214Y-193345880D01*
X213291214Y-192345880D01*
X212957880Y-192345880D01*
X212862642Y-192393500D01*
X212815023Y-192441119D01*
X212767404Y-192536357D01*
X212767404Y-192631595D01*
X212815023Y-192726833D01*
X212862642Y-192774452D01*
X212957880Y-192822071D01*
X213291214Y-192822071D01*
X211338833Y-192345880D02*
X211148357Y-192345880D01*
X211053119Y-192393500D01*
X210957880Y-192488738D01*
X210910261Y-192679214D01*
X210910261Y-193012547D01*
X210957880Y-193203023D01*
X211053119Y-193298261D01*
X211148357Y-193345880D01*
X211338833Y-193345880D01*
X211434071Y-193298261D01*
X211529309Y-193203023D01*
X211576928Y-193012547D01*
X211576928Y-192679214D01*
X211529309Y-192488738D01*
X211434071Y-192393500D01*
X211338833Y-192345880D01*
X210053119Y-192679214D02*
X210053119Y-193345880D01*
X210481690Y-192679214D02*
X210481690Y-193203023D01*
X210434071Y-193298261D01*
X210338833Y-193345880D01*
X210195976Y-193345880D01*
X210100738Y-193298261D01*
X210053119Y-193250642D01*
X209719785Y-192679214D02*
X209338833Y-192679214D01*
X209576928Y-192345880D02*
X209576928Y-193203023D01*
X209529309Y-193298261D01*
X209434071Y-193345880D01*
X209338833Y-193345880D01*
X208862642Y-193345880D02*
X208957880Y-193298261D01*
X209005500Y-193203023D01*
X209005500Y-192345880D01*
X208481690Y-193345880D02*
X208481690Y-192679214D01*
X208481690Y-192345880D02*
X208529309Y-192393500D01*
X208481690Y-192441119D01*
X208434071Y-192393500D01*
X208481690Y-192345880D01*
X208481690Y-192441119D01*
X208005500Y-192679214D02*
X208005500Y-193345880D01*
X208005500Y-192774452D02*
X207957880Y-192726833D01*
X207862642Y-192679214D01*
X207719785Y-192679214D01*
X207624547Y-192726833D01*
X207576928Y-192822071D01*
X207576928Y-193345880D01*
X206719785Y-193298261D02*
X206815023Y-193345880D01*
X207005500Y-193345880D01*
X207100738Y-193298261D01*
X207148357Y-193203023D01*
X207148357Y-192822071D01*
X207100738Y-192726833D01*
X207005500Y-192679214D01*
X206815023Y-192679214D01*
X206719785Y-192726833D01*
X206672166Y-192822071D01*
X206672166Y-192917309D01*
X207148357Y-193012547D01*
%TO.C,logo*%
G36*
X353356184Y-157591797D02*
G01*
X351988288Y-158962339D01*
X353594309Y-160571005D01*
X354959559Y-159203109D01*
X355372309Y-159607922D01*
X352197309Y-162782922D01*
X351789851Y-162364880D01*
X353255643Y-160899089D01*
X351646976Y-159295714D01*
X350186476Y-160761505D01*
X349765788Y-160351401D01*
X352940788Y-157176401D01*
X353356184Y-157591797D01*
G37*
G36*
X350398143Y-159454464D02*
G01*
X349503851Y-160348755D01*
X352342830Y-163190380D01*
X351932726Y-163603130D01*
X349104330Y-160758859D01*
X348215330Y-161650505D01*
X347884601Y-161322422D01*
X350080643Y-159123734D01*
X350398143Y-159454464D01*
G37*
%TD*%
%LPC*%
D12*
%TO.C,M3*%
X17279700Y-121163700D03*
%TD*%
%TO.C,M3*%
X17342700Y-197655700D03*
%TD*%
%TO.C,M3*%
X120523700Y-62726700D03*
%TD*%
%TO.C,M3*%
X404668300Y-197655700D03*
%TD*%
%TO.C,M3*%
X301505500Y-197655700D03*
%TD*%
%TO.C,M3*%
X100505500Y-62726700D03*
%TD*%
%TO.C,M3*%
X321505500Y-62726700D03*
%TD*%
%TO.C,M3*%
X264505500Y-62726700D03*
%TD*%
%TO.C,M3*%
X225505500Y-62726700D03*
%TD*%
%TO.C,M3*%
X404668300Y-121163700D03*
%TD*%
%TO.C,M3*%
X404668300Y-84156600D03*
%TD*%
%TO.C,M3*%
X157505500Y-62726700D03*
%TD*%
%TO.C,M3*%
X301487300Y-62726700D03*
%TD*%
%TO.C,M3*%
X404668300Y-62726700D03*
%TD*%
%TO.C,M3*%
X64005500Y-62726700D03*
%TD*%
%TO.C,M3*%
X17311200Y-84163700D03*
%TD*%
%TO.C,M3*%
X358005500Y-62726700D03*
%TD*%
%TO.C,M3*%
X196505500Y-62726700D03*
%TD*%
%TO.C,M3*%
X120505500Y-197655700D03*
%TD*%
%TO.C,M3*%
X17342700Y-62726700D03*
%TD*%
M02*
