M48
; DRILL file {KiCad (6.0.0)} date Tue Mar  8 10:49:07 2022
; FORMAT={-:-/ absolute / metric / decimal}
; #@! TF.CreationDate,2022-03-08T10:49:07-05:00
; #@! TF.GenerationSoftware,Kicad,Pcbnew,(6.0.0)
; #@! TF.FileFunction,NonPlated,1,2,NPTH
FMAT,2
METRIC
; #@! TA.AperFunction,NonPlated,NPTH,ComponentDrill
T1C3.200
%
G90
G05
T1
X17.28Y-121.164
X17.311Y-84.164
X17.343Y-62.727
X17.343Y-197.656
X64.005Y-62.727
X100.505Y-62.727
X120.505Y-197.656
X120.524Y-62.727
X157.505Y-62.727
X196.505Y-62.727
X225.505Y-62.727
X264.505Y-62.727
X301.487Y-62.727
X301.505Y-197.656
X321.505Y-62.727
X358.005Y-62.727
X404.668Y-62.727
X404.668Y-84.157
X404.668Y-121.164
X404.668Y-197.656
T0
M30
