M48
; DRILL file {KiCad (6.0.0)} date Sun Mar  6 13:22:54 2022
; FORMAT={-:-/ absolute / metric / decimal}
; #@! TF.CreationDate,2022-03-06T13:22:54-05:00
; #@! TF.GenerationSoftware,Kicad,Pcbnew,(6.0.0)
; #@! TF.FileFunction,NonPlated,1,2,NPTH
FMAT,2
METRIC
; #@! TA.AperFunction,NonPlated,NPTH,ComponentDrill
T1C3.200
%
G90
G05
T1
X16.593Y-42.164
X16.593Y-63.594
X16.593Y-100.601
X16.593Y-177.093
X67.255Y-42.164
X103.755Y-42.164
X131.755Y-42.164
X131.755Y-177.093
X168.755Y-42.164
X195.755Y-42.164
X224.755Y-42.164
X252.255Y-42.164
X288.755Y-42.164
X288.755Y-177.093
X317.255Y-42.164
X354.255Y-42.164
X403.918Y-42.164
X403.918Y-177.093
X403.95Y-63.601
X403.981Y-100.601
T0
M30
