M48
; DRILL file {KiCad (6.0.0)} date Wed Mar  9 15:54:16 2022
; FORMAT={-:-/ absolute / metric / decimal}
; #@! TF.CreationDate,2022-03-09T15:54:16-05:00
; #@! TF.GenerationSoftware,Kicad,Pcbnew,(6.0.0)
; #@! TF.FileFunction,NonPlated,1,2,NPTH
FMAT,2
METRIC
; #@! TA.AperFunction,NonPlated,NPTH,ComponentDrill
T1C3.200
%
G90
G05
T1
X17.335Y-134.632
X17.367Y-97.632
X17.398Y-76.195
X17.398Y-211.124
X64.061Y-76.195
X100.561Y-76.195
X120.561Y-211.124
X120.579Y-76.195
X157.561Y-76.195
X196.561Y-76.195
X225.561Y-76.195
X264.561Y-76.195
X301.543Y-76.195
X301.561Y-211.124
X321.561Y-76.195
X358.061Y-76.195
X404.724Y-76.195
X404.724Y-97.625
X404.724Y-134.632
X404.724Y-211.124
T0
M30
