%TF.GenerationSoftware,KiCad,Pcbnew,(6.0.0)*%
%TF.CreationDate,2022-03-08T10:50:50-05:00*%
%TF.ProjectId,custom_keyboard plate v3 - map,63757374-6f6d-45f6-9b65-79626f617264,rev?*%
%TF.SameCoordinates,Original*%
%TF.FileFunction,Profile,NP*%
%FSLAX46Y46*%
G04 Gerber Fmt 4.6, Leading zero omitted, Abs format (unit mm)*
G04 Created by KiCad (PCBNEW (6.0.0)) date 2022-03-08 10:50:50*
%MOMM*%
%LPD*%
G01*
G04 APERTURE LIST*
%TA.AperFunction,Profile*%
%ADD10C,0.100000*%
%TD*%
%TA.AperFunction,Profile*%
%ADD11C,0.050000*%
%TD*%
G04 APERTURE END LIST*
D10*
X167039001Y-179561951D02*
X167039001Y-185561951D01*
X135871301Y-179061951D02*
X166539001Y-179061951D01*
X135371301Y-185561951D02*
X135371301Y-179561951D01*
X135871301Y-186061951D02*
X166539001Y-186061951D01*
X135371301Y-185561951D02*
G75*
G03*
X135871301Y-186061951I500001J1D01*
G01*
X135871301Y-179061951D02*
G75*
G03*
X135371301Y-179561951I1J-500001D01*
G01*
X167039001Y-179561951D02*
G75*
G03*
X166539001Y-179061951I-500001J-1D01*
G01*
X166539001Y-186061951D02*
G75*
G03*
X167039001Y-185561951I-1J500001D01*
G01*
X51821551Y-150984401D02*
G75*
G03*
X52321551Y-151484401I500001J1D01*
G01*
X52321551Y-151484401D02*
X70084051Y-151482001D01*
X52321551Y-137484401D02*
X70084051Y-137482001D01*
X51821551Y-137984401D02*
X51821551Y-150984401D01*
X52321551Y-137484401D02*
G75*
G03*
X51821551Y-137984401I1J-500001D01*
G01*
X219877301Y-179087651D02*
X189209601Y-179087651D01*
X220377301Y-179587651D02*
G75*
G03*
X219877301Y-179087651I-500001J-1D01*
G01*
X188709601Y-185587651D02*
X188709601Y-179587651D01*
X189209601Y-179087651D02*
G75*
G03*
X188709601Y-179587651I1J-500001D01*
G01*
X219877301Y-186087651D02*
G75*
G03*
X220377301Y-185587651I-1J500001D01*
G01*
X188709601Y-185587651D02*
G75*
G03*
X189209601Y-186087651I500001J1D01*
G01*
X220377301Y-179587651D02*
X220377301Y-185587651D01*
X219877301Y-186087651D02*
X189209601Y-186087651D01*
X344715301Y-118930801D02*
X344715301Y-131930801D01*
X345215301Y-118430801D02*
X358215301Y-118430801D01*
X363765301Y-118930801D02*
X363765301Y-131930801D01*
X396815301Y-118930801D02*
X396815301Y-131930801D01*
X377765301Y-118930801D02*
G75*
G03*
X377265301Y-118430801I-500001J-1D01*
G01*
X377265301Y-132430801D02*
G75*
G03*
X377765301Y-131930801I-1J500001D01*
G01*
X358715301Y-118930801D02*
G75*
G03*
X358215301Y-118430801I-500001J-1D01*
G01*
X396315301Y-132430801D02*
G75*
G03*
X396815301Y-131930801I-1J500001D01*
G01*
X382815301Y-118930801D02*
X382815301Y-131930801D01*
X383315301Y-118430801D02*
X396315301Y-118430801D01*
X358715301Y-118930801D02*
X358715301Y-131930801D01*
X345215301Y-132430801D02*
X358215301Y-132430801D01*
X396815301Y-118930801D02*
G75*
G03*
X396315301Y-118430801I-500001J-1D01*
G01*
X377765301Y-118930801D02*
X377765301Y-131930801D01*
X383315301Y-118430801D02*
G75*
G03*
X382815301Y-118930801I1J-500001D01*
G01*
X364265301Y-118430801D02*
X377265301Y-118430801D01*
X364265301Y-118430801D02*
G75*
G03*
X363765301Y-118930801I1J-500001D01*
G01*
X363765301Y-131930801D02*
G75*
G03*
X364265301Y-132430801I500001J1D01*
G01*
X364265301Y-132430801D02*
X377265301Y-132430801D01*
X383315301Y-132430801D02*
X396315301Y-132430801D01*
X358215301Y-132430801D02*
G75*
G03*
X358715301Y-131930801I-1J500001D01*
G01*
X344715301Y-131930801D02*
G75*
G03*
X345215301Y-132430801I500001J1D01*
G01*
X382815301Y-131930801D02*
G75*
G03*
X383315301Y-132430801I500001J1D01*
G01*
X345215301Y-118430801D02*
G75*
G03*
X344715301Y-118930801I1J-500001D01*
G01*
X363765301Y-71308801D02*
X363765301Y-84308801D01*
X377765301Y-71308801D02*
G75*
G03*
X377265301Y-70808801I-500001J-1D01*
G01*
X377265301Y-84808801D02*
G75*
G03*
X377765301Y-84308801I-1J500001D01*
G01*
X377765301Y-71308801D02*
X377765301Y-84308801D01*
X364265301Y-70808801D02*
X377265301Y-70808801D01*
X364265301Y-70808801D02*
G75*
G03*
X363765301Y-71308801I1J-500001D01*
G01*
X363765301Y-84308801D02*
G75*
G03*
X364265301Y-84808801I500001J1D01*
G01*
X364265301Y-84808801D02*
X377265301Y-84808801D01*
X305177301Y-97877201D02*
G75*
G03*
X304677301Y-97377201I-500001J-1D01*
G01*
X298677301Y-97377201D02*
G75*
G03*
X298177301Y-97877201I1J-500001D01*
G01*
X298177301Y-114882001D02*
X298177301Y-97877201D01*
X305177301Y-114882001D02*
X305177301Y-97877201D01*
X298677301Y-97377201D02*
X304677301Y-97377201D01*
X329053301Y-97877201D02*
G75*
G03*
X328553301Y-97377201I-500001J-1D01*
G01*
X322553301Y-97377201D02*
G75*
G03*
X322053301Y-97877201I1J-500001D01*
G01*
X322553301Y-97377201D02*
X328553301Y-97377201D01*
X61862001Y-170528401D02*
X74862001Y-170528401D01*
X61862001Y-156528401D02*
G75*
G03*
X61362001Y-157028401I1J-500001D01*
G01*
X61362001Y-157028401D02*
X61362001Y-170028401D01*
X61362001Y-170028401D02*
G75*
G03*
X61862001Y-170528401I500001J1D01*
G01*
X74862001Y-170528401D02*
G75*
G03*
X75362001Y-170028401I-1J500001D01*
G01*
X75362001Y-157028401D02*
G75*
G03*
X74862001Y-156528401I-500001J-1D01*
G01*
X75362001Y-157028401D02*
X75362001Y-170028401D01*
X61862001Y-156528401D02*
X74862001Y-156528401D01*
X130884051Y-173567601D02*
X124884051Y-173567601D01*
X131384051Y-174067601D02*
G75*
G03*
X130884051Y-173567601I-500001J-1D01*
G01*
X124884051Y-173567601D02*
G75*
G03*
X124384051Y-174067601I1J-500001D01*
G01*
X230884051Y-173567601D02*
X224884051Y-173567601D01*
X231384051Y-174067601D02*
G75*
G03*
X230884051Y-173567601I-500001J-1D01*
G01*
X224884051Y-173567601D02*
G75*
G03*
X224384051Y-174067601I1J-500001D01*
G01*
X70179951Y-175574202D02*
G75*
G03*
X69679951Y-176074202I1J-500001D01*
G01*
X71774451Y-189074201D02*
X71774451Y-176074202D01*
X70179951Y-175574202D02*
X71274451Y-175574202D01*
X69679951Y-189074201D02*
G75*
G03*
X70179951Y-189574201I500001J1D01*
G01*
X70179951Y-189574201D02*
X71274451Y-189574201D01*
X71274451Y-189574201D02*
G75*
G03*
X71774451Y-189074201I-1J500001D01*
G01*
X69679951Y-189074201D02*
X69679951Y-176074202D01*
X71774451Y-176074202D02*
G75*
G03*
X71274451Y-175574202I-500001J-1D01*
G01*
X93490951Y-189074201D02*
X93490951Y-176074202D01*
X93990951Y-175574202D02*
G75*
G03*
X93490951Y-176074202I1J-500001D01*
G01*
X95585451Y-176074202D02*
G75*
G03*
X95085451Y-175574202I-500001J-1D01*
G01*
X93490951Y-189074201D02*
G75*
G03*
X93990951Y-189574201I500001J1D01*
G01*
X93990951Y-189574201D02*
X95085451Y-189574201D01*
X95585451Y-189074201D02*
X95585451Y-176074202D01*
X93990951Y-175574202D02*
X95085451Y-175574202D01*
X95085451Y-189574201D02*
G75*
G03*
X95585451Y-189074201I-1J500001D01*
G01*
X117801951Y-175574202D02*
G75*
G03*
X117301951Y-176074202I1J-500001D01*
G01*
X119396451Y-176074202D02*
G75*
G03*
X118896451Y-175574202I-500001J-1D01*
G01*
X117301951Y-189074201D02*
G75*
G03*
X117801951Y-189574201I500001J1D01*
G01*
X119396451Y-189074201D02*
X119396451Y-176074202D01*
X117801951Y-189574201D02*
X118896451Y-189574201D01*
X117801951Y-175574202D02*
X118896451Y-175574202D01*
X117301951Y-189074201D02*
X117301951Y-176074202D01*
X118896451Y-189574201D02*
G75*
G03*
X119396451Y-189074201I-1J500001D01*
G01*
X309384451Y-189574201D02*
G75*
G03*
X309884451Y-189074201I-1J500001D01*
G01*
X308289951Y-175574202D02*
G75*
G03*
X307789951Y-176074202I1J-500001D01*
G01*
X309884451Y-189074201D02*
X309884451Y-176074202D01*
X308289951Y-189574201D02*
X309384451Y-189574201D01*
X309884451Y-176074202D02*
G75*
G03*
X309384451Y-175574202I-500001J-1D01*
G01*
X307789951Y-189074201D02*
X307789951Y-176074202D01*
X307789951Y-189074201D02*
G75*
G03*
X308289951Y-189574201I500001J1D01*
G01*
X308289951Y-175574202D02*
X309384451Y-175574202D01*
X284478951Y-175574202D02*
X285573451Y-175574202D01*
X283978951Y-189074201D02*
X283978951Y-176074202D01*
X283978951Y-189074201D02*
G75*
G03*
X284478951Y-189574201I500001J1D01*
G01*
X284478951Y-175574202D02*
G75*
G03*
X283978951Y-176074202I1J-500001D01*
G01*
X285573451Y-189574201D02*
G75*
G03*
X286073451Y-189074201I-1J500001D01*
G01*
X284478951Y-189574201D02*
X285573451Y-189574201D01*
X286073451Y-176074202D02*
G75*
G03*
X285573451Y-175574202I-500001J-1D01*
G01*
X286073451Y-189074201D02*
X286073451Y-176074202D01*
X260667951Y-175574202D02*
G75*
G03*
X260167951Y-176074202I1J-500001D01*
G01*
X260167951Y-189074201D02*
X260167951Y-176074202D01*
X262262451Y-189074201D02*
X262262451Y-176074202D01*
X262262451Y-176074202D02*
G75*
G03*
X261762451Y-175574202I-500001J-1D01*
G01*
X260667951Y-175574202D02*
X261762451Y-175574202D01*
X260167951Y-189074201D02*
G75*
G03*
X260667951Y-189574201I500001J1D01*
G01*
X261762451Y-189574201D02*
G75*
G03*
X262262451Y-189074201I-1J500001D01*
G01*
X260667951Y-189574201D02*
X261762451Y-189574201D01*
X82489101Y-71307001D02*
G75*
G03*
X81989101Y-70807001I-500001J-1D01*
G01*
X68489101Y-71307001D02*
X68489101Y-84307000D01*
X82489101Y-71307001D02*
X82489101Y-84307000D01*
X68989101Y-70807001D02*
G75*
G03*
X68489101Y-71307001I1J-500001D01*
G01*
X68989101Y-70807001D02*
X81989101Y-70807001D01*
X68989101Y-84807000D02*
X81989101Y-84807000D01*
X81989101Y-84807000D02*
G75*
G03*
X82489101Y-84307000I-1J500001D01*
G01*
X68489101Y-84307000D02*
G75*
G03*
X68989101Y-84807000I500001J1D01*
G01*
X77300001Y-154523601D02*
X83300001Y-154523601D01*
X53424001Y-172528401D02*
X59424001Y-172528401D01*
X77300001Y-172528401D02*
X83300001Y-172528401D01*
X83800001Y-155023601D02*
G75*
G03*
X83300001Y-154523601I-500001J-1D01*
G01*
X59924001Y-172028401D02*
X59924001Y-155023601D01*
X59424001Y-172528401D02*
G75*
G03*
X59924001Y-172028401I-1J500001D01*
G01*
X52924001Y-172028401D02*
G75*
G03*
X53424001Y-172528401I500001J1D01*
G01*
X76800001Y-172028401D02*
G75*
G03*
X77300001Y-172528401I500001J1D01*
G01*
X52924001Y-172028401D02*
X52924001Y-155023601D01*
X77300001Y-154523601D02*
G75*
G03*
X76800001Y-155023601I1J-500001D01*
G01*
X83300001Y-172528401D02*
G75*
G03*
X83800001Y-172028401I-1J500001D01*
G01*
X76800001Y-155023601D02*
X76800001Y-172028401D01*
X83800001Y-155023601D02*
X83800001Y-172028401D01*
X59924001Y-155023601D02*
G75*
G03*
X59424001Y-154523601I-500001J-1D01*
G01*
X53424001Y-154523601D02*
X59424001Y-154523601D01*
X53424001Y-154523601D02*
G75*
G03*
X52924001Y-155023601I1J-500001D01*
G01*
X130884051Y-191582001D02*
X124884051Y-191582001D01*
X130884051Y-191582001D02*
G75*
G03*
X131384051Y-191082001I-1J500001D01*
G01*
X124384051Y-191082001D02*
G75*
G03*
X124884051Y-191582001I500001J1D01*
G01*
X230884051Y-191582001D02*
G75*
G03*
X231384051Y-191082001I-1J500001D01*
G01*
X224384051Y-191082001D02*
G75*
G03*
X224884051Y-191582001I500001J1D01*
G01*
X230884051Y-191582001D02*
X224884051Y-191582001D01*
X304734201Y-151479601D02*
X317734201Y-151479601D01*
X318234201Y-137979601D02*
G75*
G03*
X317734201Y-137479601I-500001J-1D01*
G01*
X304734201Y-137479601D02*
X317734201Y-137479601D01*
X302296201Y-153479601D02*
G75*
G03*
X302796201Y-152979601I-1J500001D01*
G01*
X296296201Y-153479601D02*
X302296201Y-153479601D01*
X319672201Y-152979601D02*
G75*
G03*
X320172201Y-153479601I500001J1D01*
G01*
X319672201Y-135974801D02*
X319672201Y-152979601D01*
X326672201Y-135974801D02*
X326672201Y-152979601D01*
X320172201Y-153479601D02*
X326172201Y-153479601D01*
X317734201Y-151479601D02*
G75*
G03*
X318234201Y-150979601I-1J500001D01*
G01*
X304734201Y-137479601D02*
G75*
G03*
X304234201Y-137979601I1J-500001D01*
G01*
X326172201Y-153479601D02*
G75*
G03*
X326672201Y-152979601I-1J500001D01*
G01*
X318234201Y-137979601D02*
X318234201Y-150979601D01*
X295796201Y-152979601D02*
G75*
G03*
X296296201Y-153479601I500001J1D01*
G01*
X304234201Y-137979601D02*
X304234201Y-150979601D01*
X304234201Y-150979601D02*
G75*
G03*
X304734201Y-151479601I500001J1D01*
G01*
X320172201Y-135474801D02*
G75*
G03*
X319672201Y-135974801I1J-500001D01*
G01*
X302796201Y-152979601D02*
X302796201Y-135974801D01*
X296296201Y-135474801D02*
G75*
G03*
X295796201Y-135974801I1J-500001D01*
G01*
X326672201Y-135974801D02*
G75*
G03*
X326172201Y-135474801I-500001J-1D01*
G01*
X295796201Y-152979601D02*
X295796201Y-135974801D01*
X320172201Y-135474801D02*
X326172201Y-135474801D01*
X302796201Y-135974801D02*
G75*
G03*
X302296201Y-135474801I-500001J-1D01*
G01*
X296296201Y-135474801D02*
X302296201Y-135474801D01*
X299972001Y-156528401D02*
G75*
G03*
X299472001Y-157028401I1J-500001D01*
G01*
X315410001Y-154523601D02*
X321410001Y-154523601D01*
X298034001Y-155023601D02*
G75*
G03*
X297534001Y-154523601I-500001J-1D01*
G01*
X297534001Y-172528401D02*
G75*
G03*
X298034001Y-172028401I-1J500001D01*
G01*
X314910001Y-172028401D02*
G75*
G03*
X315410001Y-172528401I500001J1D01*
G01*
X315410001Y-172528401D02*
X321410001Y-172528401D01*
X313472001Y-157028401D02*
X313472001Y-170028401D01*
X315410001Y-154523601D02*
G75*
G03*
X314910001Y-155023601I1J-500001D01*
G01*
X291534001Y-154523601D02*
G75*
G03*
X291034001Y-155023601I1J-500001D01*
G01*
X291034001Y-172028401D02*
X291034001Y-155023601D01*
X291534001Y-154523601D02*
X297534001Y-154523601D01*
X299972001Y-156528401D02*
X312972001Y-156528401D01*
X291034001Y-172028401D02*
G75*
G03*
X291534001Y-172528401I500001J1D01*
G01*
X314910001Y-155023601D02*
X314910001Y-172028401D01*
X299472001Y-157028401D02*
X299472001Y-170028401D01*
X299472001Y-170028401D02*
G75*
G03*
X299972001Y-170528401I500001J1D01*
G01*
X312972001Y-170528401D02*
G75*
G03*
X313472001Y-170028401I-1J500001D01*
G01*
X291534001Y-172528401D02*
X297534001Y-172528401D01*
X298034001Y-172028401D02*
X298034001Y-155023601D01*
X321910001Y-155023601D02*
X321910001Y-172028401D01*
X299972001Y-170528401D02*
X312972001Y-170528401D01*
X321410001Y-172528401D02*
G75*
G03*
X321910001Y-172028401I-1J500001D01*
G01*
X313472001Y-157028401D02*
G75*
G03*
X312972001Y-156528401I-500001J-1D01*
G01*
X321910001Y-155023601D02*
G75*
G03*
X321410001Y-154523601I-500001J-1D01*
G01*
X263465301Y-118932001D02*
G75*
G03*
X262965301Y-118432001I-500001J-1D01*
G01*
X120090301Y-84807000D02*
G75*
G03*
X120590301Y-84307000I-1J500001D01*
G01*
X173765301Y-70807001D02*
G75*
G03*
X173265301Y-71307001I1J-500001D01*
G01*
X101040301Y-113382001D02*
G75*
G03*
X101540301Y-112882001I-1J500001D01*
G01*
X377765301Y-176082001D02*
G75*
G03*
X377265301Y-175582001I-500001J-1D01*
G01*
X26127801Y-156532001D02*
X39127800Y-156532001D01*
X173265301Y-131932001D02*
G75*
G03*
X173765301Y-132432001I500001J1D01*
G01*
X220602801Y-157032001D02*
G75*
G03*
X220102801Y-156532001I-500001J-1D01*
G01*
X111352801Y-157032001D02*
X111352801Y-170032001D01*
X164240301Y-99382001D02*
X177240301Y-99382001D01*
X306615301Y-99882001D02*
X306615301Y-112882001D01*
X245202801Y-156532001D02*
G75*
G03*
X244702801Y-157032001I1J-500001D01*
G01*
X120877801Y-150982001D02*
G75*
G03*
X121377801Y-151482001I500001J1D01*
G01*
D11*
X404668300Y-58758200D02*
X17342700Y-58758200D01*
D10*
X169002801Y-156532001D02*
X182002801Y-156532001D01*
X135165301Y-131932001D02*
G75*
G03*
X135665301Y-132432001I500001J1D01*
G01*
X236060851Y-175574202D02*
X237155351Y-175574202D01*
X316140301Y-84307000D02*
G75*
G03*
X316640301Y-84807000I500001J1D01*
G01*
X49102801Y-118432001D02*
G75*
G03*
X48602801Y-118932001I1J-500001D01*
G01*
X263752801Y-170032001D02*
G75*
G03*
X264252801Y-170532001I500001J1D01*
G01*
X88040301Y-70807001D02*
X101040301Y-70807001D01*
X192815301Y-132432001D02*
X205815301Y-132432001D01*
X39627800Y-137982001D02*
G75*
G03*
X39127800Y-137482001I-500001J-1D01*
G01*
X192815301Y-118432001D02*
G75*
G03*
X192315301Y-118932001I1J-500001D01*
G01*
X259490301Y-70807001D02*
G75*
G03*
X258990301Y-71307001I1J-500001D01*
G01*
X253940301Y-99882001D02*
G75*
G03*
X253440301Y-99382001I-500001J-1D01*
G01*
X234390301Y-113382001D02*
G75*
G03*
X234890301Y-112882001I-1J500001D01*
G01*
X244415301Y-71307001D02*
X244415301Y-84307000D01*
X397729201Y-172256701D02*
X397729201Y-154795301D01*
X320615301Y-99882001D02*
X320615301Y-112882001D01*
X169002801Y-156532001D02*
G75*
G03*
X168502801Y-157032001I1J-500001D01*
G01*
X25627801Y-189082001D02*
G75*
G03*
X26127801Y-189582001I500001J1D01*
G01*
X197577801Y-151482001D02*
X210577801Y-151482001D01*
X258990301Y-99882001D02*
X258990301Y-112882001D01*
X329477801Y-118432001D02*
X330477801Y-118432001D01*
X382815301Y-189082001D02*
G75*
G03*
X383315301Y-189582001I500001J1D01*
G01*
X224384051Y-174067601D02*
X224384051Y-191082001D01*
X329477801Y-132432001D02*
X330477801Y-132432001D01*
X239652801Y-157032001D02*
G75*
G03*
X239152801Y-156532001I-500001J-1D01*
G01*
X126140301Y-113382001D02*
X139140301Y-113382001D01*
X167715301Y-132432001D02*
G75*
G03*
X168215301Y-131932001I-1J500001D01*
G01*
X278540301Y-84807000D02*
X291540301Y-84807000D01*
X211865301Y-132432001D02*
X224865301Y-132432001D01*
X220602801Y-157032001D02*
X220602801Y-170032001D01*
X192315301Y-118932001D02*
X192315301Y-131932001D01*
X49596551Y-156532001D02*
X50596551Y-156532001D01*
X50602801Y-118932001D02*
G75*
G03*
X50102801Y-118432001I-500001J-1D01*
G01*
X363765301Y-170032001D02*
G75*
G03*
X364265301Y-170532001I500001J1D01*
G01*
X39627800Y-71307001D02*
G75*
G03*
X39127800Y-70807001I-500001J-1D01*
G01*
X396815301Y-99882001D02*
G75*
G03*
X396315301Y-99382001I-500001J-1D01*
G01*
X263465301Y-118932001D02*
X263465301Y-131932001D01*
X258990301Y-84307000D02*
G75*
G03*
X259490301Y-84807000I500001J1D01*
G01*
X126140301Y-84807000D02*
X139140301Y-84807000D01*
X364265301Y-170532001D02*
X377265301Y-170532001D01*
X201552801Y-157032001D02*
X201552801Y-170032001D01*
X187552801Y-157032001D02*
X187552801Y-170032001D01*
X235177801Y-150982001D02*
G75*
G03*
X235677801Y-151482001I500001J1D01*
G01*
X216627801Y-151482001D02*
X229627801Y-151482001D01*
X101827801Y-137982001D02*
X101827801Y-150982001D01*
X345215301Y-175582001D02*
X358215301Y-175582001D01*
X358715301Y-176082001D02*
X358715301Y-189082001D01*
X154715301Y-132432001D02*
X167715301Y-132432001D01*
X168215301Y-118932001D02*
G75*
G03*
X167715301Y-118432001I-500001J-1D01*
G01*
X391085902Y-137980801D02*
G75*
G03*
X390585902Y-137480801I-500001J-1D01*
G01*
X144690301Y-99882001D02*
X144690301Y-112882001D01*
X225365301Y-118932001D02*
G75*
G03*
X224865301Y-118432001I-500001J-1D01*
G01*
X78515301Y-118432001D02*
G75*
G03*
X78015301Y-118932001I1J-500001D01*
G01*
X363765301Y-112882001D02*
G75*
G03*
X364265301Y-113382001I500001J1D01*
G01*
X216127801Y-137982001D02*
X216127801Y-150982001D01*
X149165301Y-118932001D02*
X149165301Y-131932001D01*
X344715301Y-112882001D02*
G75*
G03*
X345215301Y-113382001I500001J1D01*
G01*
X207102801Y-156532001D02*
G75*
G03*
X206602801Y-157032001I1J-500001D01*
G01*
X235677801Y-151482001D02*
X248677801Y-151482001D01*
X311877801Y-118432001D02*
G75*
G03*
X311377801Y-118932001I1J-500001D01*
G01*
X25627801Y-150982001D02*
G75*
G03*
X26127801Y-151482001I500001J1D01*
G01*
X139640301Y-99882001D02*
G75*
G03*
X139140301Y-99382001I-500001J-1D01*
G01*
X92302801Y-170032001D02*
G75*
G03*
X92802801Y-170532001I500001J1D01*
G01*
X39627800Y-137982001D02*
X39627800Y-150982001D01*
X129615301Y-132432001D02*
G75*
G03*
X130115301Y-131932001I-1J500001D01*
G01*
X65821551Y-176082001D02*
X65821551Y-189082001D01*
X26127801Y-137482001D02*
X39127800Y-137482001D01*
X287565300Y-131932001D02*
G75*
G03*
X288065300Y-132432001I500001J1D01*
G01*
X163452801Y-157032001D02*
G75*
G03*
X162952801Y-156532001I-500001J-1D01*
G01*
X226152801Y-170532001D02*
X239152801Y-170532001D01*
X269015301Y-118432001D02*
G75*
G03*
X268515301Y-118932001I1J-500001D01*
G01*
X303446551Y-189582001D02*
G75*
G03*
X303946551Y-189082001I-1J500001D01*
G01*
X239940301Y-99882001D02*
X239940301Y-112882001D01*
X254727801Y-137482001D02*
G75*
G03*
X254227801Y-137982001I1J-500001D01*
G01*
X383315301Y-113382001D02*
X396315301Y-113382001D01*
X269015301Y-132432001D02*
X282015301Y-132432001D01*
X292484051Y-151482001D02*
X293484051Y-151482001D01*
X236060851Y-189574201D02*
X237155351Y-189574201D01*
X101540301Y-99882001D02*
X101540301Y-112882001D01*
X328553301Y-115382001D02*
G75*
G03*
X329053301Y-114882001I-1J500001D01*
G01*
X239152801Y-170532001D02*
G75*
G03*
X239652801Y-170032001I-1J500001D01*
G01*
X249965301Y-132432001D02*
X262965301Y-132432001D01*
X113446551Y-176082001D02*
G75*
G03*
X112946551Y-175582001I-500001J-1D01*
G01*
X39627800Y-157032001D02*
X39627800Y-170032001D01*
X225365301Y-71307001D02*
X225365301Y-84307000D01*
X280134051Y-176082001D02*
X280134051Y-189082001D01*
X235560851Y-189074201D02*
X235560851Y-176074202D01*
X278540301Y-70807001D02*
G75*
G03*
X278040301Y-71307001I1J-500001D01*
G01*
X140427801Y-151482001D02*
X153427800Y-151482001D01*
X272490301Y-113382001D02*
G75*
G03*
X272990301Y-112882001I-1J500001D01*
G01*
X183290301Y-99382001D02*
X196290301Y-99382001D01*
X291540301Y-113382001D02*
G75*
G03*
X292040301Y-112882001I-1J500001D01*
G01*
X303946551Y-176082001D02*
G75*
G03*
X303446551Y-175582001I-500001J-1D01*
G01*
X287221550Y-157032001D02*
X287221550Y-170032001D01*
X184384051Y-189582001D02*
G75*
G03*
X184884051Y-189082001I-1J500001D01*
G01*
X301565301Y-118932001D02*
X301565301Y-131932001D01*
X102327801Y-151482001D02*
X115327801Y-151482001D01*
X63440301Y-99882001D02*
G75*
G03*
X62940301Y-99382001I-500001J-1D01*
G01*
X130902801Y-156532001D02*
X143902801Y-156532001D01*
X106590301Y-71307001D02*
X106590301Y-84307000D01*
X26127801Y-70807001D02*
G75*
G03*
X25627801Y-71307001I1J-500001D01*
G01*
X311377801Y-131932001D02*
G75*
G03*
X311877801Y-132432001I500001J1D01*
G01*
X130115301Y-118932001D02*
X130115301Y-131932001D01*
X215840301Y-99882001D02*
G75*
G03*
X215340301Y-99382001I-500001J-1D01*
G01*
X351694600Y-151480801D02*
X390585902Y-151480801D01*
X216627801Y-137482001D02*
G75*
G03*
X216127801Y-137982001I1J-500001D01*
G01*
X243915301Y-132432001D02*
G75*
G03*
X244415301Y-131932001I-1J500001D01*
G01*
X139927801Y-150982001D02*
G75*
G03*
X140427801Y-151482001I500001J1D01*
G01*
X115827801Y-137982001D02*
X115827801Y-150982001D01*
X168502801Y-170032001D02*
G75*
G03*
X169002801Y-170532001I500001J1D01*
G01*
X272990301Y-71307001D02*
X272990301Y-84307000D01*
X134877801Y-137982001D02*
X134877801Y-150982001D01*
X111065301Y-118932001D02*
G75*
G03*
X110565301Y-118432001I-500001J-1D01*
G01*
X178527801Y-137482001D02*
X191527801Y-137482001D01*
X168215301Y-118932001D02*
X168215301Y-131932001D01*
X201052801Y-170532001D02*
G75*
G03*
X201552801Y-170032001I-1J500001D01*
G01*
X230915301Y-118432001D02*
X243915301Y-118432001D01*
D11*
X17342700Y-201624200D02*
X404668300Y-201624200D01*
D10*
X377765301Y-157032001D02*
G75*
G03*
X377265301Y-156532001I-500001J-1D01*
G01*
X196790301Y-99882001D02*
X196790301Y-112882001D01*
X26127801Y-175582001D02*
G75*
G03*
X25627801Y-176082001I1J-500001D01*
G01*
X205815301Y-84807000D02*
G75*
G03*
X206315301Y-84307000I-1J500001D01*
G01*
X158690301Y-71307001D02*
X158690301Y-84307000D01*
X266634051Y-175582001D02*
X279634051Y-175582001D01*
X145190301Y-70807001D02*
G75*
G03*
X144690301Y-71307001I1J-500001D01*
G01*
X330484051Y-137982001D02*
G75*
G03*
X329984051Y-137482001I-500001J-1D01*
G01*
X121377801Y-151482001D02*
X134377801Y-151482001D01*
X173765301Y-118432001D02*
X186765301Y-118432001D01*
X192815301Y-118432001D02*
X205815301Y-118432001D01*
X377265301Y-113382001D02*
G75*
G03*
X377765301Y-112882001I-1J500001D01*
G01*
X225365301Y-118932001D02*
X225365301Y-131932001D01*
X287277801Y-137982001D02*
G75*
G03*
X286777801Y-137482001I-500001J-1D01*
G01*
X272490301Y-84807000D02*
G75*
G03*
X272990301Y-84307000I-1J500001D01*
G01*
X329984051Y-151482001D02*
G75*
G03*
X330484051Y-150982001I-1J500001D01*
G01*
X63440301Y-99882001D02*
X63440301Y-112882001D01*
X49940301Y-99382001D02*
G75*
G03*
X49440301Y-99882001I1J-500001D01*
G01*
X211865301Y-118432001D02*
G75*
G03*
X211365301Y-118932001I1J-500001D01*
G01*
X54702801Y-118432001D02*
X67702801Y-118432001D01*
X290446551Y-175582001D02*
G75*
G03*
X289946551Y-176082001I1J-500001D01*
G01*
X65321551Y-189582001D02*
G75*
G03*
X65821551Y-189082001I-1J500001D01*
G01*
X278040301Y-99882001D02*
X278040301Y-112882001D01*
X325377801Y-118932001D02*
X325377801Y-131932001D01*
X75634051Y-176082001D02*
X75634051Y-189082001D01*
X382815301Y-71307001D02*
X382815301Y-84307000D01*
X120590301Y-99882001D02*
X120590301Y-112882001D01*
X256321551Y-176082001D02*
X256321551Y-189082001D01*
X116615301Y-118432001D02*
G75*
G03*
X116115301Y-118932001I1J-500001D01*
G01*
X272990301Y-71307001D02*
G75*
G03*
X272490301Y-70807001I-500001J-1D01*
G01*
X158977801Y-150982001D02*
G75*
G03*
X159477801Y-151482001I500001J1D01*
G01*
D11*
X17342700Y-58758200D02*
G75*
G03*
X13374200Y-62726700I1J-3968501D01*
G01*
D10*
X106590301Y-112882001D02*
G75*
G03*
X107090301Y-113382001I500001J1D01*
G01*
X258702801Y-157032001D02*
X258702801Y-170032001D01*
X110565301Y-132432001D02*
G75*
G03*
X111065301Y-131932001I-1J500001D01*
G01*
X39627800Y-118932001D02*
G75*
G03*
X39127800Y-118432001I-500001J-1D01*
G01*
X231384051Y-174067601D02*
X231384051Y-191082001D01*
X68490301Y-99882001D02*
X68490301Y-112882001D01*
X25627801Y-131932001D02*
G75*
G03*
X26127801Y-132432001I500001J1D01*
G01*
X49940301Y-70807001D02*
X62940301Y-70807001D01*
X170884051Y-189082001D02*
G75*
G03*
X171384051Y-189582001I500001J1D01*
G01*
X39627800Y-118932001D02*
X39627800Y-131932001D01*
X126140301Y-99382001D02*
X139140301Y-99382001D01*
X329640301Y-84807000D02*
G75*
G03*
X330140301Y-84307000I-1J500001D01*
G01*
X235177801Y-137982001D02*
X235177801Y-150982001D01*
X381855201Y-154795301D02*
X381855201Y-172256701D01*
X269015301Y-118432001D02*
X282015301Y-118432001D01*
X120590301Y-71307001D02*
X120590301Y-84307000D01*
X351694600Y-137480801D02*
G75*
G03*
X351194600Y-137980801I1J-500001D01*
G01*
X192815301Y-70807001D02*
X205815301Y-70807001D01*
X293984051Y-137982001D02*
X293984051Y-150982001D01*
X202340301Y-99382001D02*
X215340301Y-99382001D01*
X306277801Y-118432001D02*
X307277801Y-118432001D01*
X287277801Y-137982001D02*
X287277801Y-150982001D01*
X26127801Y-113382001D02*
X39127800Y-113382001D01*
X153927800Y-137982001D02*
G75*
G03*
X153427800Y-137482001I-500001J-1D01*
G01*
X49440301Y-99882001D02*
X49440301Y-112882001D01*
X62940301Y-113382001D02*
G75*
G03*
X63440301Y-112882001I-1J500001D01*
G01*
X279634051Y-189582001D02*
G75*
G03*
X280134051Y-189082001I-1J500001D01*
G01*
X26127801Y-99382001D02*
G75*
G03*
X25627801Y-99882001I1J-500001D01*
G01*
X92302801Y-157032001D02*
X92302801Y-170032001D01*
X364265301Y-156532001D02*
X377265301Y-156532001D01*
X266134051Y-189082001D02*
G75*
G03*
X266634051Y-189582001I500001J1D01*
G01*
X54202801Y-118932001D02*
X54202801Y-131932001D01*
X192027801Y-137982001D02*
X192027801Y-150982001D01*
X89634051Y-176082001D02*
G75*
G03*
X89134051Y-175582001I-500001J-1D01*
G01*
X358715301Y-71307001D02*
G75*
G03*
X358215301Y-70807001I-500001J-1D01*
G01*
X249965301Y-118432001D02*
X262965301Y-118432001D01*
X324221551Y-156532001D02*
X325221551Y-156532001D01*
X139640301Y-99882001D02*
X139640301Y-112882001D01*
X358715301Y-99882001D02*
X358715301Y-112882001D01*
X351194600Y-150980801D02*
G75*
G03*
X351694600Y-151480801I500001J1D01*
G01*
X145190301Y-99382001D02*
G75*
G03*
X144690301Y-99882001I1J-500001D01*
G01*
X159477801Y-151482001D02*
X172477801Y-151482001D01*
X273777801Y-137482001D02*
G75*
G03*
X273277801Y-137982001I1J-500001D01*
G01*
X158190301Y-113382001D02*
G75*
G03*
X158690301Y-112882001I-1J500001D01*
G01*
X107090301Y-99382001D02*
G75*
G03*
X106590301Y-99882001I1J-500001D01*
G01*
X206315301Y-118932001D02*
X206315301Y-131932001D01*
X245202801Y-156532001D02*
X258202801Y-156532001D01*
X163740301Y-112882001D02*
G75*
G03*
X164240301Y-113382001I500001J1D01*
G01*
X267727801Y-151482001D02*
G75*
G03*
X268227801Y-150982001I-1J500001D01*
G01*
X234890301Y-99882001D02*
G75*
G03*
X234390301Y-99382001I-500001J-1D01*
G01*
X186765301Y-84807000D02*
G75*
G03*
X187265301Y-84307000I-1J500001D01*
G01*
X75634051Y-189082001D02*
G75*
G03*
X76134051Y-189582001I500001J1D01*
G01*
X188052801Y-156532001D02*
G75*
G03*
X187552801Y-157032001I1J-500001D01*
G01*
X205815301Y-132432001D02*
G75*
G03*
X206315301Y-131932001I-1J500001D01*
G01*
X99946551Y-175582001D02*
G75*
G03*
X99446551Y-176082001I1J-500001D01*
G01*
X383315301Y-189582001D02*
X396315301Y-189582001D01*
X63440301Y-71307001D02*
G75*
G03*
X62940301Y-70807001I-500001J-1D01*
G01*
X377765301Y-99882001D02*
X377765301Y-112882001D01*
X293484051Y-151482001D02*
G75*
G03*
X293984051Y-150982001I-1J500001D01*
G01*
X211365301Y-131932001D02*
G75*
G03*
X211865301Y-132432001I500001J1D01*
G01*
X101827801Y-150982001D02*
G75*
G03*
X102327801Y-151482001I500001J1D01*
G01*
X278040301Y-84307000D02*
G75*
G03*
X278540301Y-84807000I500001J1D01*
G01*
X172977801Y-137982001D02*
X172977801Y-150982001D01*
X144690301Y-71307001D02*
X144690301Y-84307000D01*
X289221550Y-157032001D02*
G75*
G03*
X288721550Y-156532001I-500001J-1D01*
G01*
X49940301Y-70807001D02*
G75*
G03*
X49440301Y-71307001I1J-500001D01*
G01*
X26127801Y-170532001D02*
X39127800Y-170532001D01*
X26127801Y-175582001D02*
X39127800Y-175582001D01*
X106590301Y-99882001D02*
X106590301Y-112882001D01*
X86096551Y-156532001D02*
G75*
G03*
X85596551Y-157032001I1J-500001D01*
G01*
X381855201Y-172256701D02*
G75*
G03*
X382648901Y-173050401I793699J-1D01*
G01*
X304677301Y-115382001D02*
G75*
G03*
X305177301Y-114882001I-1J500001D01*
G01*
X330977801Y-118932001D02*
X330977801Y-131932001D01*
X97565301Y-118432001D02*
G75*
G03*
X97065301Y-118932001I1J-500001D01*
G01*
X262965301Y-132432001D02*
G75*
G03*
X263465301Y-131932001I-1J500001D01*
G01*
X68990301Y-99382001D02*
G75*
G03*
X68490301Y-99882001I1J-500001D01*
G01*
X186765301Y-132432001D02*
G75*
G03*
X187265301Y-131932001I-1J500001D01*
G01*
X330477801Y-132432001D02*
G75*
G03*
X330977801Y-131932001I-1J500001D01*
G01*
X263752801Y-157032001D02*
X263752801Y-170032001D01*
X310590301Y-84807000D02*
G75*
G03*
X311090301Y-84307000I-1J500001D01*
G01*
X70084051Y-151482001D02*
G75*
G03*
X70584051Y-150982001I-1J500001D01*
G01*
X115827801Y-137982001D02*
G75*
G03*
X115327801Y-137482001I-500001J-1D01*
G01*
X282515301Y-118932001D02*
X282515301Y-131932001D01*
X83277801Y-151482001D02*
X96277801Y-151482001D01*
X278540301Y-99382001D02*
X291540301Y-99382001D01*
X158690301Y-71307001D02*
G75*
G03*
X158190301Y-70807001I-500001J-1D01*
G01*
X25627801Y-112882001D02*
G75*
G03*
X26127801Y-113382001I500001J1D01*
G01*
X116615301Y-118432001D02*
X129615301Y-118432001D01*
X345215301Y-84807000D02*
X358215301Y-84807000D01*
X125640301Y-71307001D02*
X125640301Y-84307000D01*
X86096551Y-170532001D02*
X87096551Y-170532001D01*
X202340301Y-113382001D02*
X215340301Y-113382001D01*
X111852801Y-156532001D02*
G75*
G03*
X111352801Y-157032001I1J-500001D01*
G01*
X328984051Y-137482001D02*
G75*
G03*
X328484051Y-137982001I1J-500001D01*
G01*
X268515301Y-131932001D02*
G75*
G03*
X269015301Y-132432001I500001J1D01*
G01*
X211365301Y-71307001D02*
X211365301Y-84307000D01*
X237155351Y-189574201D02*
G75*
G03*
X237655351Y-189074201I-1J500001D01*
G01*
X107090301Y-99382001D02*
X120090301Y-99382001D01*
X286777801Y-151482001D02*
G75*
G03*
X287277801Y-150982001I-1J500001D01*
G01*
X328484051Y-137982001D02*
X328484051Y-150982001D01*
X282515301Y-118932001D02*
G75*
G03*
X282015301Y-118432001I-500001J-1D01*
G01*
X87096551Y-170532001D02*
G75*
G03*
X87596551Y-170032001I-1J500001D01*
G01*
X154715301Y-118432001D02*
G75*
G03*
X154215301Y-118932001I1J-500001D01*
G01*
X206315301Y-118932001D02*
G75*
G03*
X205815301Y-118432001I-500001J-1D01*
G01*
X26127801Y-151482001D02*
X39127800Y-151482001D01*
X364265301Y-99382001D02*
G75*
G03*
X363765301Y-99882001I1J-500001D01*
G01*
X311877801Y-118432001D02*
X324877801Y-118432001D01*
X91515301Y-132432001D02*
G75*
G03*
X92015301Y-131932001I-1J500001D01*
G01*
X345215301Y-189582001D02*
X358215301Y-189582001D01*
X382648901Y-154001601D02*
G75*
G03*
X381855201Y-154795301I-1J-793699D01*
G01*
X344715301Y-176082001D02*
X344715301Y-189082001D01*
X81990301Y-113382001D02*
G75*
G03*
X82490301Y-112882001I-1J500001D01*
G01*
X78515301Y-118432001D02*
X91515301Y-118432001D01*
X196790301Y-99882001D02*
G75*
G03*
X196290301Y-99382001I-500001J-1D01*
G01*
X215340301Y-113382001D02*
G75*
G03*
X215840301Y-112882001I-1J500001D01*
G01*
X230915301Y-70807001D02*
G75*
G03*
X230415301Y-71307001I1J-500001D01*
G01*
X125640301Y-84307000D02*
G75*
G03*
X126140301Y-84807000I500001J1D01*
G01*
X306277801Y-118432001D02*
G75*
G03*
X305777801Y-118932001I1J-500001D01*
G01*
X278540301Y-70807001D02*
X291540301Y-70807001D01*
X383315301Y-99382001D02*
G75*
G03*
X382815301Y-99882001I1J-500001D01*
G01*
X324221551Y-170532001D02*
X325221551Y-170532001D01*
X244415301Y-71307001D02*
G75*
G03*
X243915301Y-70807001I-500001J-1D01*
G01*
X184884051Y-176082001D02*
X184884051Y-189082001D01*
X211865301Y-118432001D02*
X224865301Y-118432001D01*
X311877801Y-132432001D02*
X324877801Y-132432001D01*
X290446551Y-189582001D02*
X303446551Y-189582001D01*
X344715301Y-99882001D02*
X344715301Y-112882001D01*
X49940301Y-113382001D02*
X62940301Y-113382001D01*
X377765301Y-157032001D02*
X377765301Y-170032001D01*
X290446551Y-175582001D02*
X303446551Y-175582001D01*
X188052801Y-156532001D02*
X201052801Y-156532001D01*
X325377801Y-118932001D02*
G75*
G03*
X324877801Y-118432001I-500001J-1D01*
G01*
X206602801Y-157032001D02*
X206602801Y-170032001D01*
X314259051Y-175582001D02*
G75*
G03*
X313759051Y-176082001I1J-500001D01*
G01*
X240440301Y-99382001D02*
G75*
G03*
X239940301Y-99882001I1J-500001D01*
G01*
X182790301Y-112882001D02*
G75*
G03*
X183290301Y-113382001I500001J1D01*
G01*
X328977801Y-131932001D02*
G75*
G03*
X329477801Y-132432001I500001J1D01*
G01*
X313759051Y-176082001D02*
X313759051Y-189082001D01*
X324221551Y-156532001D02*
G75*
G03*
X323721551Y-157032001I1J-500001D01*
G01*
X26127801Y-84807000D02*
X39127800Y-84807000D01*
X230915301Y-118432001D02*
G75*
G03*
X230415301Y-118932001I1J-500001D01*
G01*
X144690301Y-84307000D02*
G75*
G03*
X145190301Y-84807000I500001J1D01*
G01*
X96277801Y-151482001D02*
G75*
G03*
X96777801Y-150982001I-1J500001D01*
G01*
X316640301Y-70807001D02*
G75*
G03*
X316140301Y-71307001I1J-500001D01*
G01*
X377765301Y-176082001D02*
X377765301Y-189082001D01*
X116115301Y-118932001D02*
X116115301Y-131932001D01*
X327759051Y-176082001D02*
G75*
G03*
X327259051Y-175582001I-500001J-1D01*
G01*
X211077801Y-137982001D02*
G75*
G03*
X210577801Y-137482001I-500001J-1D01*
G01*
X49102801Y-118432001D02*
X50102801Y-118432001D01*
X243915301Y-84807000D02*
G75*
G03*
X244415301Y-84307000I-1J500001D01*
G01*
X178527801Y-137482001D02*
G75*
G03*
X178027801Y-137982001I1J-500001D01*
G01*
X87540301Y-71307001D02*
X87540301Y-84307000D01*
X293984051Y-137982001D02*
G75*
G03*
X293484051Y-137482001I-500001J-1D01*
G01*
X163740301Y-99882001D02*
X163740301Y-112882001D01*
X126140301Y-99382001D02*
G75*
G03*
X125640301Y-99882001I1J-500001D01*
G01*
X173265301Y-118932001D02*
X173265301Y-131932001D01*
X307115301Y-99382001D02*
G75*
G03*
X306615301Y-99882001I1J-500001D01*
G01*
X192315301Y-71307001D02*
X192315301Y-84307000D01*
X358715301Y-71307001D02*
X358715301Y-84307000D01*
X178027801Y-137982001D02*
X178027801Y-150982001D01*
X99946551Y-189582001D02*
X112946551Y-189582001D01*
X51096551Y-157032001D02*
G75*
G03*
X50596551Y-156532001I-500001J-1D01*
G01*
X97065301Y-118932001D02*
X97065301Y-131932001D01*
X215840301Y-99882001D02*
X215840301Y-112882001D01*
X39627800Y-99882001D02*
X39627800Y-112882001D01*
X202340301Y-99382001D02*
G75*
G03*
X201840301Y-99882001I1J-500001D01*
G01*
X26127801Y-70807001D02*
X39127800Y-70807001D01*
X162952801Y-170532001D02*
G75*
G03*
X163452801Y-170032001I-1J500001D01*
G01*
X242321551Y-176082001D02*
X242321551Y-189082001D01*
X256321551Y-176082001D02*
G75*
G03*
X255821551Y-175582001I-500001J-1D01*
G01*
X145190301Y-70807001D02*
X158190301Y-70807001D01*
X102327801Y-137482001D02*
X115327801Y-137482001D01*
X177240301Y-113382001D02*
G75*
G03*
X177740301Y-112882001I-1J500001D01*
G01*
X287721550Y-156532001D02*
X288721550Y-156532001D01*
X173765301Y-84807000D02*
X186765301Y-84807000D01*
X297590301Y-84807000D02*
X310590301Y-84807000D01*
X382815301Y-99882001D02*
X382815301Y-112882001D01*
X383315301Y-70807001D02*
X396315301Y-70807001D01*
X135665301Y-118432001D02*
X148665301Y-118432001D01*
X289946551Y-189082001D02*
G75*
G03*
X290446551Y-189582001I500001J1D01*
G01*
X307777801Y-118932001D02*
X307777801Y-131932001D01*
X192315301Y-84307000D02*
G75*
G03*
X192815301Y-84807000I500001J1D01*
G01*
X259490301Y-70807001D02*
X272490301Y-70807001D01*
X76134051Y-175582001D02*
G75*
G03*
X75634051Y-176082001I1J-500001D01*
G01*
X51821551Y-189082001D02*
G75*
G03*
X52321551Y-189582001I500001J1D01*
G01*
X125352801Y-157032001D02*
G75*
G03*
X124852801Y-156532001I-500001J-1D01*
G01*
X49596551Y-170532001D02*
X50596551Y-170532001D01*
X139140301Y-113382001D02*
G75*
G03*
X139640301Y-112882001I-1J500001D01*
G01*
X158690301Y-99882001D02*
G75*
G03*
X158190301Y-99382001I-500001J-1D01*
G01*
X178027801Y-150982001D02*
G75*
G03*
X178527801Y-151482001I500001J1D01*
G01*
X26127801Y-132432001D02*
X39127800Y-132432001D01*
X237655351Y-176074202D02*
G75*
G03*
X237155351Y-175574202I-500001J-1D01*
G01*
X297090301Y-71307001D02*
X297090301Y-84307000D01*
X62940301Y-84807000D02*
G75*
G03*
X63440301Y-84307000I-1J500001D01*
G01*
X277252801Y-170532001D02*
G75*
G03*
X277752801Y-170032001I-1J500001D01*
G01*
X244415301Y-118932001D02*
G75*
G03*
X243915301Y-118432001I-500001J-1D01*
G01*
X26127801Y-118432001D02*
X39127800Y-118432001D01*
X97065301Y-131932001D02*
G75*
G03*
X97565301Y-132432001I500001J1D01*
G01*
X120090301Y-113382001D02*
G75*
G03*
X120590301Y-112882001I-1J500001D01*
G01*
X220102801Y-170532001D02*
G75*
G03*
X220602801Y-170032001I-1J500001D01*
G01*
X272990301Y-99882001D02*
G75*
G03*
X272490301Y-99382001I-500001J-1D01*
G01*
X49096551Y-157032001D02*
X49096551Y-170032001D01*
X78015301Y-118932001D02*
X78015301Y-131932001D01*
X292484051Y-137482001D02*
G75*
G03*
X291984051Y-137982001I1J-500001D01*
G01*
X82777801Y-137982001D02*
X82777801Y-150982001D01*
X329477801Y-118432001D02*
G75*
G03*
X328977801Y-118932001I1J-500001D01*
G01*
X144690301Y-112882001D02*
G75*
G03*
X145190301Y-113382001I500001J1D01*
G01*
X266634051Y-175582001D02*
G75*
G03*
X266134051Y-176082001I1J-500001D01*
G01*
X197577801Y-137482001D02*
X210577801Y-137482001D01*
X221390301Y-99382001D02*
X234390301Y-99382001D01*
X39127800Y-132432001D02*
G75*
G03*
X39627800Y-131932001I-1J500001D01*
G01*
X52321551Y-175582001D02*
X65321551Y-175582001D01*
X364265301Y-175582001D02*
G75*
G03*
X363765301Y-176082001I1J-500001D01*
G01*
X99946551Y-175582001D02*
X112946551Y-175582001D01*
X125640301Y-99882001D02*
X125640301Y-112882001D01*
X87596551Y-157032001D02*
X87596551Y-170032001D01*
X88040301Y-99382001D02*
G75*
G03*
X87540301Y-99882001I1J-500001D01*
G01*
X249177801Y-137982001D02*
X249177801Y-150982001D01*
X287721550Y-170532001D02*
X288721550Y-170532001D01*
X345215301Y-175582001D02*
G75*
G03*
X344715301Y-176082001I1J-500001D01*
G01*
X88040301Y-99382001D02*
X101040301Y-99382001D01*
X277752801Y-157032001D02*
X277752801Y-170032001D01*
X111352801Y-170032001D02*
G75*
G03*
X111852801Y-170532001I500001J1D01*
G01*
X277752801Y-157032001D02*
G75*
G03*
X277252801Y-156532001I-500001J-1D01*
G01*
X25627801Y-176082001D02*
X25627801Y-189082001D01*
X254227801Y-150982001D02*
G75*
G03*
X254727801Y-151482001I500001J1D01*
G01*
X106590301Y-84307000D02*
G75*
G03*
X107090301Y-84807000I500001J1D01*
G01*
D11*
X408636800Y-197655700D02*
X408636800Y-62726700D01*
D10*
X242821551Y-175582001D02*
X255821551Y-175582001D01*
X396815301Y-99882001D02*
X396815301Y-112882001D01*
X383315301Y-84807000D02*
X396315301Y-84807000D01*
X206315301Y-71307001D02*
G75*
G03*
X205815301Y-70807001I-500001J-1D01*
G01*
X39627800Y-99882001D02*
G75*
G03*
X39127800Y-99382001I-500001J-1D01*
G01*
X68202801Y-118932001D02*
X68202801Y-131932001D01*
X242321551Y-189082001D02*
G75*
G03*
X242821551Y-189582001I500001J1D01*
G01*
X171384051Y-175582001D02*
X184384051Y-175582001D01*
X390585902Y-151480801D02*
G75*
G03*
X391085902Y-150980801I-1J500001D01*
G01*
X297590301Y-70807001D02*
G75*
G03*
X297090301Y-71307001I1J-500001D01*
G01*
X383315301Y-175582001D02*
G75*
G03*
X382815301Y-176082001I1J-500001D01*
G01*
X101540301Y-71307001D02*
G75*
G03*
X101040301Y-70807001I-500001J-1D01*
G01*
X71802801Y-118932001D02*
X71802801Y-131932001D01*
X377265301Y-189582001D02*
G75*
G03*
X377765301Y-189082001I-1J500001D01*
G01*
X288065300Y-132432001D02*
X301065301Y-132432001D01*
X173265301Y-71307001D02*
X173265301Y-84307000D01*
X87540301Y-84307000D02*
G75*
G03*
X88040301Y-84807000I500001J1D01*
G01*
X182502801Y-157032001D02*
G75*
G03*
X182002801Y-156532001I-500001J-1D01*
G01*
X307115301Y-113382001D02*
X320115301Y-113382001D01*
X139140301Y-84807000D02*
G75*
G03*
X139640301Y-84307000I-1J500001D01*
G01*
X39627800Y-176082001D02*
G75*
G03*
X39127800Y-175582001I-500001J-1D01*
G01*
X49440301Y-71307001D02*
X49440301Y-84307000D01*
X266134051Y-176082001D02*
X266134051Y-189082001D01*
X254227801Y-137982001D02*
X254227801Y-150982001D01*
X225365301Y-71307001D02*
G75*
G03*
X224865301Y-70807001I-500001J-1D01*
G01*
X226152801Y-156532001D02*
X239152801Y-156532001D01*
X125352801Y-157032001D02*
X125352801Y-170032001D01*
X328484051Y-150982001D02*
G75*
G03*
X328984051Y-151482001I500001J1D01*
G01*
X126140301Y-70807001D02*
G75*
G03*
X125640301Y-71307001I1J-500001D01*
G01*
X171384051Y-175582001D02*
G75*
G03*
X170884051Y-176082001I1J-500001D01*
G01*
X111065301Y-118932001D02*
X111065301Y-131932001D01*
X297090301Y-84307000D02*
G75*
G03*
X297590301Y-84807000I500001J1D01*
G01*
X134377801Y-151482001D02*
G75*
G03*
X134877801Y-150982001I-1J500001D01*
G01*
X264252801Y-170532001D02*
X277252801Y-170532001D01*
X101540301Y-99882001D02*
G75*
G03*
X101040301Y-99382001I-500001J-1D01*
G01*
X307277801Y-132432001D02*
G75*
G03*
X307777801Y-131932001I-1J500001D01*
G01*
X216127801Y-150982001D02*
G75*
G03*
X216627801Y-151482001I500001J1D01*
G01*
X344715301Y-189082001D02*
G75*
G03*
X345215301Y-189582001I500001J1D01*
G01*
X154215301Y-131932001D02*
G75*
G03*
X154715301Y-132432001I500001J1D01*
G01*
X131384051Y-174067601D02*
X131384051Y-191082001D01*
X164240301Y-113382001D02*
X177240301Y-113382001D01*
X39127800Y-170532001D02*
G75*
G03*
X39627800Y-170032001I-1J500001D01*
G01*
X49440301Y-112882001D02*
G75*
G03*
X49940301Y-113382001I500001J1D01*
G01*
X197077801Y-150982001D02*
G75*
G03*
X197577801Y-151482001I500001J1D01*
G01*
X67702801Y-132432001D02*
G75*
G03*
X68202801Y-131932001I-1J500001D01*
G01*
X358715301Y-176082001D02*
G75*
G03*
X358215301Y-175582001I-500001J-1D01*
G01*
X73802801Y-118932001D02*
G75*
G03*
X73302801Y-118432001I-500001J-1D01*
G01*
X111852801Y-156532001D02*
X124852801Y-156532001D01*
X314259051Y-175582001D02*
X327259051Y-175582001D01*
X184884051Y-176082001D02*
G75*
G03*
X184384051Y-175582001I-500001J-1D01*
G01*
X134877801Y-137982001D02*
G75*
G03*
X134377801Y-137482001I-500001J-1D01*
G01*
X264252801Y-156532001D02*
G75*
G03*
X263752801Y-157032001I1J-500001D01*
G01*
X92015301Y-118932001D02*
X92015301Y-131932001D01*
X139927801Y-137982001D02*
X139927801Y-150982001D01*
X101540301Y-71307001D02*
X101540301Y-84307000D01*
X187552801Y-170032001D02*
G75*
G03*
X188052801Y-170532001I500001J1D01*
G01*
X52321551Y-175582001D02*
G75*
G03*
X51821551Y-176082001I1J-500001D01*
G01*
X39127800Y-113382001D02*
G75*
G03*
X39627800Y-112882001I-1J500001D01*
G01*
X39127800Y-151482001D02*
G75*
G03*
X39627800Y-150982001I-1J500001D01*
G01*
X211365301Y-84307000D02*
G75*
G03*
X211865301Y-84807000I500001J1D01*
G01*
X153427800Y-151482001D02*
G75*
G03*
X153927800Y-150982001I-1J500001D01*
G01*
X301065301Y-132432001D02*
G75*
G03*
X301565301Y-131932001I-1J500001D01*
G01*
X92802801Y-156532001D02*
G75*
G03*
X92302801Y-157032001I1J-500001D01*
G01*
X82777801Y-150982001D02*
G75*
G03*
X83277801Y-151482001I500001J1D01*
G01*
X92015301Y-118932001D02*
G75*
G03*
X91515301Y-118432001I-500001J-1D01*
G01*
X145190301Y-84807000D02*
X158190301Y-84807000D01*
X307777801Y-118932001D02*
G75*
G03*
X307277801Y-118432001I-500001J-1D01*
G01*
X164240301Y-99382001D02*
G75*
G03*
X163740301Y-99882001I1J-500001D01*
G01*
X52321551Y-189582001D02*
X65321551Y-189582001D01*
X211077801Y-137982001D02*
X211077801Y-150982001D01*
X289221550Y-157032001D02*
X289221550Y-170032001D01*
X396815301Y-71307001D02*
G75*
G03*
X396315301Y-70807001I-500001J-1D01*
G01*
X288065300Y-118432001D02*
G75*
G03*
X287565300Y-118932001I1J-500001D01*
G01*
X82490301Y-99882001D02*
G75*
G03*
X81990301Y-99382001I-500001J-1D01*
G01*
X82490301Y-99882001D02*
X82490301Y-112882001D01*
X25627801Y-157032001D02*
X25627801Y-170032001D01*
X292040301Y-99882001D02*
X292040301Y-112882001D01*
X287565300Y-118932001D02*
X287565300Y-131932001D01*
X177740301Y-99882001D02*
X177740301Y-112882001D01*
X391085902Y-137980801D02*
X391085902Y-150980801D01*
X282015301Y-132432001D02*
G75*
G03*
X282515301Y-131932001I-1J500001D01*
G01*
X49440301Y-84307000D02*
G75*
G03*
X49940301Y-84807000I500001J1D01*
G01*
X258702801Y-157032001D02*
G75*
G03*
X258202801Y-156532001I-500001J-1D01*
G01*
X124384051Y-174067601D02*
X124384051Y-191082001D01*
X224865301Y-84807000D02*
G75*
G03*
X225365301Y-84307000I-1J500001D01*
G01*
X87540301Y-99882001D02*
X87540301Y-112882001D01*
X325221551Y-170532001D02*
G75*
G03*
X325721551Y-170032001I-1J500001D01*
G01*
X289946551Y-176082001D02*
X289946551Y-189082001D01*
X102327801Y-137482001D02*
G75*
G03*
X101827801Y-137982001I1J-500001D01*
G01*
X207102801Y-170532001D02*
X220102801Y-170532001D01*
X39627800Y-71307001D02*
X39627800Y-84307000D01*
X364265301Y-156532001D02*
G75*
G03*
X363765301Y-157032001I1J-500001D01*
G01*
X105802801Y-170532001D02*
G75*
G03*
X106302801Y-170032001I-1J500001D01*
G01*
D11*
X13374200Y-62726700D02*
X13374200Y-197655700D01*
D10*
X130402801Y-157032001D02*
X130402801Y-170032001D01*
X382815301Y-84307000D02*
G75*
G03*
X383315301Y-84807000I500001J1D01*
G01*
X268227801Y-137982001D02*
X268227801Y-150982001D01*
X26127801Y-99382001D02*
X39127800Y-99382001D01*
X330977801Y-118932001D02*
G75*
G03*
X330477801Y-118432001I-500001J-1D01*
G01*
X345215301Y-113382001D02*
X358215301Y-113382001D01*
X287721550Y-156532001D02*
G75*
G03*
X287221550Y-157032001I1J-500001D01*
G01*
X120877801Y-137982001D02*
X120877801Y-150982001D01*
X149952801Y-156532001D02*
G75*
G03*
X149452801Y-157032001I1J-500001D01*
G01*
X78015301Y-131932001D02*
G75*
G03*
X78515301Y-132432001I500001J1D01*
G01*
X65821551Y-176082001D02*
G75*
G03*
X65321551Y-175582001I-500001J-1D01*
G01*
X377765301Y-99882001D02*
G75*
G03*
X377265301Y-99382001I-500001J-1D01*
G01*
X329053301Y-97877201D02*
X329053301Y-114882001D01*
X306277801Y-132432001D02*
X307277801Y-132432001D01*
X240440301Y-113382001D02*
X253440301Y-113382001D01*
X173765301Y-118432001D02*
G75*
G03*
X173265301Y-118932001I1J-500001D01*
G01*
X149165301Y-118932001D02*
G75*
G03*
X148665301Y-118432001I-500001J-1D01*
G01*
X135665301Y-118432001D02*
G75*
G03*
X135165301Y-118932001I1J-500001D01*
G01*
X89134051Y-189582001D02*
G75*
G03*
X89634051Y-189082001I-1J500001D01*
G01*
X278040301Y-71307001D02*
X278040301Y-84307000D01*
X351194600Y-137980801D02*
X351194600Y-150980801D01*
X221390301Y-99382001D02*
G75*
G03*
X220890301Y-99882001I1J-500001D01*
G01*
X154715301Y-118432001D02*
X167715301Y-118432001D01*
X363765301Y-189082001D02*
G75*
G03*
X364265301Y-189582001I500001J1D01*
G01*
X396315301Y-84807000D02*
G75*
G03*
X396815301Y-84307000I-1J500001D01*
G01*
X54702801Y-118432001D02*
G75*
G03*
X54202801Y-118932001I1J-500001D01*
G01*
X259490301Y-84807000D02*
X272490301Y-84807000D01*
X328984051Y-151482001D02*
X329984051Y-151482001D01*
X230415301Y-131932001D02*
G75*
G03*
X230915301Y-132432001I500001J1D01*
G01*
X322053301Y-114882001D02*
G75*
G03*
X322553301Y-115382001I500001J1D01*
G01*
X258990301Y-71307001D02*
X258990301Y-84307000D01*
X268227801Y-137982001D02*
G75*
G03*
X267727801Y-137482001I-500001J-1D01*
G01*
X314259051Y-189582001D02*
X327259051Y-189582001D01*
X107090301Y-84807000D02*
X120090301Y-84807000D01*
X51821551Y-176082001D02*
X51821551Y-189082001D01*
X344715301Y-71307001D02*
X344715301Y-84307000D01*
X154215301Y-118932001D02*
X154215301Y-131932001D01*
X328984051Y-137482001D02*
X329984051Y-137482001D01*
X382648901Y-173050401D02*
X396935501Y-173050401D01*
X288721550Y-170532001D02*
G75*
G03*
X289221550Y-170032001I-1J500001D01*
G01*
X39127800Y-189582001D02*
G75*
G03*
X39627800Y-189082001I-1J500001D01*
G01*
X287221550Y-170032001D02*
G75*
G03*
X287721550Y-170532001I500001J1D01*
G01*
X255821551Y-189582001D02*
G75*
G03*
X256321551Y-189082001I-1J500001D01*
G01*
X197577801Y-137482001D02*
G75*
G03*
X197077801Y-137982001I1J-500001D01*
G01*
X229627801Y-151482001D02*
G75*
G03*
X230127801Y-150982001I-1J500001D01*
G01*
X264252801Y-156532001D02*
X277252801Y-156532001D01*
X320615301Y-99882001D02*
G75*
G03*
X320115301Y-99382001I-500001J-1D01*
G01*
X345215301Y-70807001D02*
G75*
G03*
X344715301Y-71307001I1J-500001D01*
G01*
X149952801Y-156532001D02*
X162952801Y-156532001D01*
X258202801Y-170532001D02*
G75*
G03*
X258702801Y-170032001I-1J500001D01*
G01*
X268515301Y-118932001D02*
X268515301Y-131932001D01*
X135165301Y-118932001D02*
X135165301Y-131932001D01*
X83277801Y-137482001D02*
X96277801Y-137482001D01*
X307115301Y-99382001D02*
X320115301Y-99382001D01*
X149452801Y-157032001D02*
X149452801Y-170032001D01*
X330484051Y-137982001D02*
X330484051Y-150982001D01*
X235560851Y-189074201D02*
G75*
G03*
X236060851Y-189574201I500001J1D01*
G01*
X297590301Y-70807001D02*
X310590301Y-70807001D01*
X183290301Y-99382001D02*
G75*
G03*
X182790301Y-99882001I1J-500001D01*
G01*
X87540301Y-112882001D02*
G75*
G03*
X88040301Y-113382001I500001J1D01*
G01*
X305777801Y-131932001D02*
G75*
G03*
X306277801Y-132432001I500001J1D01*
G01*
X316640301Y-70807001D02*
X329640301Y-70807001D01*
X253940301Y-99882001D02*
X253940301Y-112882001D01*
X72302801Y-118432001D02*
X73302801Y-118432001D01*
X39627800Y-176082001D02*
X39627800Y-189082001D01*
X121377801Y-137482001D02*
G75*
G03*
X120877801Y-137982001I1J-500001D01*
G01*
X192815301Y-84807000D02*
X205815301Y-84807000D01*
X323721551Y-157032001D02*
X323721551Y-170032001D01*
X171384051Y-189582001D02*
X184384051Y-189582001D01*
X144402801Y-157032001D02*
G75*
G03*
X143902801Y-156532001I-500001J-1D01*
G01*
X226152801Y-156532001D02*
G75*
G03*
X225652801Y-157032001I1J-500001D01*
G01*
X73302801Y-132432001D02*
G75*
G03*
X73802801Y-131932001I-1J500001D01*
G01*
X83277801Y-137482001D02*
G75*
G03*
X82777801Y-137982001I1J-500001D01*
G01*
X88040301Y-70807001D02*
G75*
G03*
X87540301Y-71307001I1J-500001D01*
G01*
X244415301Y-118932001D02*
X244415301Y-131932001D01*
X220890301Y-99882001D02*
X220890301Y-112882001D01*
X116615301Y-132432001D02*
X129615301Y-132432001D01*
X236060851Y-175574202D02*
G75*
G03*
X235560851Y-176074202I1J-500001D01*
G01*
X211865301Y-70807001D02*
G75*
G03*
X211365301Y-71307001I1J-500001D01*
G01*
X230127801Y-137982001D02*
G75*
G03*
X229627801Y-137482001I-500001J-1D01*
G01*
X187265301Y-71307001D02*
G75*
G03*
X186765301Y-70807001I-500001J-1D01*
G01*
X173765301Y-70807001D02*
X186765301Y-70807001D01*
X396315301Y-113382001D02*
G75*
G03*
X396815301Y-112882001I-1J500001D01*
G01*
X130902801Y-156532001D02*
G75*
G03*
X130402801Y-157032001I1J-500001D01*
G01*
X396935501Y-173050401D02*
G75*
G03*
X397729201Y-172256701I1J793699D01*
G01*
X273777801Y-151482001D02*
X286777801Y-151482001D01*
X182790301Y-99882001D02*
X182790301Y-112882001D01*
X345215301Y-99382001D02*
G75*
G03*
X344715301Y-99882001I1J-500001D01*
G01*
X68202801Y-118932001D02*
G75*
G03*
X67702801Y-118432001I-500001J-1D01*
G01*
X163452801Y-157032001D02*
X163452801Y-170032001D01*
X382648901Y-154001601D02*
X396935501Y-154001601D01*
X364265301Y-175582001D02*
X377265301Y-175582001D01*
X187265301Y-71307001D02*
X187265301Y-84307000D01*
X73802801Y-118932001D02*
X73802801Y-131932001D01*
X330140301Y-71307001D02*
G75*
G03*
X329640301Y-70807001I-500001J-1D01*
G01*
X187265301Y-118932001D02*
X187265301Y-131932001D01*
X54702801Y-132432001D02*
X67702801Y-132432001D01*
X280134051Y-176082001D02*
G75*
G03*
X279634051Y-175582001I-500001J-1D01*
G01*
X259490301Y-113382001D02*
X272490301Y-113382001D01*
X50596551Y-170532001D02*
G75*
G03*
X51096551Y-170032001I-1J500001D01*
G01*
X159477801Y-137482001D02*
X172477801Y-137482001D01*
X237655351Y-189074201D02*
X237655351Y-176074202D01*
X92802801Y-156532001D02*
X105802801Y-156532001D01*
X140427801Y-137482001D02*
G75*
G03*
X139927801Y-137982001I1J-500001D01*
G01*
X234890301Y-99882001D02*
X234890301Y-112882001D01*
X25627801Y-84307000D02*
G75*
G03*
X26127801Y-84807000I500001J1D01*
G01*
X358215301Y-84807000D02*
G75*
G03*
X358715301Y-84307000I-1J500001D01*
G01*
X99446551Y-189082001D02*
G75*
G03*
X99946551Y-189582001I500001J1D01*
G01*
X303946551Y-176082001D02*
X303946551Y-189082001D01*
X345215301Y-99382001D02*
X358215301Y-99382001D01*
X311090301Y-71307001D02*
X311090301Y-84307000D01*
X239652801Y-157032001D02*
X239652801Y-170032001D01*
X273277801Y-137982001D02*
X273277801Y-150982001D01*
X149452801Y-170032001D02*
G75*
G03*
X149952801Y-170532001I500001J1D01*
G01*
X230415301Y-84307000D02*
G75*
G03*
X230915301Y-84807000I500001J1D01*
G01*
X71802801Y-131932001D02*
G75*
G03*
X72302801Y-132432001I500001J1D01*
G01*
X183290301Y-113382001D02*
X196290301Y-113382001D01*
X87596551Y-157032001D02*
G75*
G03*
X87096551Y-156532001I-500001J-1D01*
G01*
X106302801Y-157032001D02*
X106302801Y-170032001D01*
D11*
X13374200Y-197655700D02*
G75*
G03*
X17342700Y-201624200I3968501J1D01*
G01*
D10*
X230415301Y-118932001D02*
X230415301Y-131932001D01*
X351694600Y-137480801D02*
X390585902Y-137480801D01*
X323721551Y-170032001D02*
G75*
G03*
X324221551Y-170532001I500001J1D01*
G01*
X298177301Y-114882001D02*
G75*
G03*
X298677301Y-115382001I500001J1D01*
G01*
X96777801Y-137982001D02*
G75*
G03*
X96277801Y-137482001I-500001J-1D01*
G01*
X230915301Y-70807001D02*
X243915301Y-70807001D01*
X172977801Y-137982001D02*
G75*
G03*
X172477801Y-137482001I-500001J-1D01*
G01*
X25627801Y-137982001D02*
X25627801Y-150982001D01*
X253440301Y-113382001D02*
G75*
G03*
X253940301Y-112882001I-1J500001D01*
G01*
X358715301Y-99882001D02*
G75*
G03*
X358215301Y-99382001I-500001J-1D01*
G01*
X70584051Y-137982001D02*
X70584051Y-150982001D01*
X172477801Y-151482001D02*
G75*
G03*
X172977801Y-150982001I-1J500001D01*
G01*
X192315301Y-131932001D02*
G75*
G03*
X192815301Y-132432001I500001J1D01*
G01*
X211865301Y-84807000D02*
X224865301Y-84807000D01*
X158190301Y-84807000D02*
G75*
G03*
X158690301Y-84307000I-1J500001D01*
G01*
X158690301Y-99882001D02*
X158690301Y-112882001D01*
X153927800Y-137982001D02*
X153927800Y-150982001D01*
X207102801Y-156532001D02*
X220102801Y-156532001D01*
X316640301Y-84807000D02*
X329640301Y-84807000D01*
X249465301Y-118932001D02*
X249465301Y-131932001D01*
X25627801Y-99882001D02*
X25627801Y-112882001D01*
X107090301Y-70807001D02*
G75*
G03*
X106590301Y-71307001I1J-500001D01*
G01*
X201840301Y-112882001D02*
G75*
G03*
X202340301Y-113382001I500001J1D01*
G01*
X99446551Y-176082001D02*
X99446551Y-189082001D01*
X170884051Y-176082001D02*
X170884051Y-189082001D01*
X230915301Y-84807000D02*
X243915301Y-84807000D01*
X324877801Y-132432001D02*
G75*
G03*
X325377801Y-131932001I-1J500001D01*
G01*
X182502801Y-157032001D02*
X182502801Y-170032001D01*
X254727801Y-151482001D02*
X267727801Y-151482001D01*
X26127801Y-137482001D02*
G75*
G03*
X25627801Y-137982001I1J-500001D01*
G01*
X89634051Y-176082001D02*
X89634051Y-189082001D01*
X211365301Y-118932001D02*
X211365301Y-131932001D01*
X291984051Y-137982001D02*
X291984051Y-150982001D01*
X76134051Y-175582001D02*
X89134051Y-175582001D01*
X327259051Y-189582001D02*
G75*
G03*
X327759051Y-189082001I-1J500001D01*
G01*
D11*
X404668300Y-201624200D02*
G75*
G03*
X408636800Y-197655700I-1J3968501D01*
G01*
D10*
X383315301Y-175582001D02*
X396315301Y-175582001D01*
X140427801Y-137482001D02*
X153427800Y-137482001D01*
X272990301Y-99882001D02*
X272990301Y-112882001D01*
X291540301Y-84807000D02*
G75*
G03*
X292040301Y-84307000I-1J500001D01*
G01*
X249965301Y-118432001D02*
G75*
G03*
X249465301Y-118932001I1J-500001D01*
G01*
X113446551Y-176082001D02*
X113446551Y-189082001D01*
X225652801Y-170032001D02*
G75*
G03*
X226152801Y-170532001I500001J1D01*
G01*
X258990301Y-112882001D02*
G75*
G03*
X259490301Y-113382001I500001J1D01*
G01*
X201840301Y-99882001D02*
X201840301Y-112882001D01*
X273277801Y-150982001D02*
G75*
G03*
X273777801Y-151482001I500001J1D01*
G01*
X364265301Y-189582001D02*
X377265301Y-189582001D01*
X145190301Y-99382001D02*
X158190301Y-99382001D01*
X235677801Y-137482001D02*
X248677801Y-137482001D01*
X259490301Y-99382001D02*
G75*
G03*
X258990301Y-99882001I1J-500001D01*
G01*
X120590301Y-71307001D02*
G75*
G03*
X120090301Y-70807001I-500001J-1D01*
G01*
X254727801Y-137482001D02*
X267727801Y-137482001D01*
X178527801Y-151482001D02*
X191527801Y-151482001D01*
X158977801Y-137982001D02*
X158977801Y-150982001D01*
X344715301Y-84307000D02*
G75*
G03*
X345215301Y-84807000I500001J1D01*
G01*
X148665301Y-132432001D02*
G75*
G03*
X149165301Y-131932001I-1J500001D01*
G01*
D11*
X408636800Y-62726700D02*
G75*
G03*
X404668300Y-58758200I-3968501J-1D01*
G01*
D10*
X70584051Y-137982001D02*
G75*
G03*
X70084051Y-137482001I-500001J-1D01*
G01*
X97565301Y-132432001D02*
X110565301Y-132432001D01*
X49940301Y-84807000D02*
X62940301Y-84807000D01*
X145190301Y-113382001D02*
X158190301Y-113382001D01*
X240440301Y-99382001D02*
X253440301Y-99382001D01*
X396815301Y-71307001D02*
X396815301Y-84307000D01*
X187265301Y-118932001D02*
G75*
G03*
X186765301Y-118432001I-500001J-1D01*
G01*
X78515301Y-132432001D02*
X91515301Y-132432001D01*
X68990301Y-99382001D02*
X81990301Y-99382001D01*
X182002801Y-170532001D02*
G75*
G03*
X182502801Y-170032001I-1J500001D01*
G01*
X130115301Y-118932001D02*
G75*
G03*
X129615301Y-118432001I-500001J-1D01*
G01*
X159477801Y-137482001D02*
G75*
G03*
X158977801Y-137982001I1J-500001D01*
G01*
X292484051Y-137482001D02*
X293484051Y-137482001D01*
X63440301Y-71307001D02*
X63440301Y-84307000D01*
X248677801Y-151482001D02*
G75*
G03*
X249177801Y-150982001I-1J500001D01*
G01*
X306615301Y-112882001D02*
G75*
G03*
X307115301Y-113382001I500001J1D01*
G01*
X139640301Y-71307001D02*
G75*
G03*
X139140301Y-70807001I-500001J-1D01*
G01*
X325721551Y-157032001D02*
X325721551Y-170032001D01*
X115327801Y-151482001D02*
G75*
G03*
X115827801Y-150982001I-1J500001D01*
G01*
X72302801Y-118432001D02*
G75*
G03*
X71802801Y-118932001I1J-500001D01*
G01*
X382815301Y-112882001D02*
G75*
G03*
X383315301Y-113382001I500001J1D01*
G01*
X106302801Y-157032001D02*
G75*
G03*
X105802801Y-156532001I-500001J-1D01*
G01*
X288065300Y-118432001D02*
X301065301Y-118432001D01*
X201552801Y-157032001D02*
G75*
G03*
X201052801Y-156532001I-500001J-1D01*
G01*
X130902801Y-170532001D02*
X143902801Y-170532001D01*
X112946551Y-189582001D02*
G75*
G03*
X113446551Y-189082001I-1J500001D01*
G01*
X273777801Y-137482001D02*
X286777801Y-137482001D01*
X221390301Y-113382001D02*
X234390301Y-113382001D01*
X206602801Y-170032001D02*
G75*
G03*
X207102801Y-170532001I500001J1D01*
G01*
X345215301Y-70807001D02*
X358215301Y-70807001D01*
X249465301Y-131932001D02*
G75*
G03*
X249965301Y-132432001I500001J1D01*
G01*
X363765301Y-176082001D02*
X363765301Y-189082001D01*
X144402801Y-157032001D02*
X144402801Y-170032001D01*
X25627801Y-118932001D02*
X25627801Y-131932001D01*
X72302801Y-132432001D02*
X73302801Y-132432001D01*
X26127801Y-189582001D02*
X39127800Y-189582001D01*
X143902801Y-170532001D02*
G75*
G03*
X144402801Y-170032001I-1J500001D01*
G01*
X320115301Y-113382001D02*
G75*
G03*
X320615301Y-112882001I-1J500001D01*
G01*
X192027801Y-137982001D02*
G75*
G03*
X191527801Y-137482001I-500001J-1D01*
G01*
X135665301Y-132432001D02*
X148665301Y-132432001D01*
X192815301Y-70807001D02*
G75*
G03*
X192315301Y-71307001I1J-500001D01*
G01*
X125640301Y-112882001D02*
G75*
G03*
X126140301Y-113382001I500001J1D01*
G01*
X322553301Y-115382001D02*
X328553301Y-115382001D01*
X101040301Y-84807000D02*
G75*
G03*
X101540301Y-84307000I-1J500001D01*
G01*
X242821551Y-175582001D02*
G75*
G03*
X242321551Y-176082001I1J-500001D01*
G01*
X292040301Y-99882001D02*
G75*
G03*
X291540301Y-99382001I-500001J-1D01*
G01*
X298677301Y-115382001D02*
X304677301Y-115382001D01*
X51096551Y-157032001D02*
X51096551Y-170032001D01*
X244702801Y-157032001D02*
X244702801Y-170032001D01*
X121377801Y-137482001D02*
X134377801Y-137482001D01*
X330140301Y-71307001D02*
X330140301Y-84307000D01*
X126140301Y-70807001D02*
X139140301Y-70807001D01*
X220890301Y-112882001D02*
G75*
G03*
X221390301Y-113382001I500001J1D01*
G01*
X301565301Y-118932001D02*
G75*
G03*
X301065301Y-118432001I-500001J-1D01*
G01*
X191527801Y-151482001D02*
G75*
G03*
X192027801Y-150982001I-1J500001D01*
G01*
X396315301Y-189582001D02*
G75*
G03*
X396815301Y-189082001I-1J500001D01*
G01*
X85596551Y-157032001D02*
X85596551Y-170032001D01*
X92802801Y-170532001D02*
X105802801Y-170532001D01*
X124852801Y-170532001D02*
G75*
G03*
X125352801Y-170032001I-1J500001D01*
G01*
X111852801Y-170532001D02*
X124852801Y-170532001D01*
X235677801Y-137482001D02*
G75*
G03*
X235177801Y-137982001I1J-500001D01*
G01*
X292040301Y-71307001D02*
X292040301Y-84307000D01*
X149952801Y-170532001D02*
X162952801Y-170532001D01*
X39127800Y-84807000D02*
G75*
G03*
X39627800Y-84307000I-1J500001D01*
G01*
X292040301Y-71307001D02*
G75*
G03*
X291540301Y-70807001I-500001J-1D01*
G01*
X363765301Y-99882001D02*
X363765301Y-112882001D01*
X49596551Y-156532001D02*
G75*
G03*
X49096551Y-157032001I1J-500001D01*
G01*
X311377801Y-118932001D02*
X311377801Y-131932001D01*
X266634051Y-189582001D02*
X279634051Y-189582001D01*
X130402801Y-170032001D02*
G75*
G03*
X130902801Y-170532001I500001J1D01*
G01*
X325721551Y-157032001D02*
G75*
G03*
X325221551Y-156532001I-500001J-1D01*
G01*
X383315301Y-70807001D02*
G75*
G03*
X382815301Y-71307001I1J-500001D01*
G01*
X168502801Y-157032001D02*
X168502801Y-170032001D01*
X68490301Y-112882001D02*
G75*
G03*
X68990301Y-113382001I500001J1D01*
G01*
X316140301Y-71307001D02*
X316140301Y-84307000D01*
X239940301Y-112882001D02*
G75*
G03*
X240440301Y-113382001I500001J1D01*
G01*
X188052801Y-170532001D02*
X201052801Y-170532001D01*
X382815301Y-176082001D02*
X382815301Y-189082001D01*
X173265301Y-84307000D02*
G75*
G03*
X173765301Y-84807000I500001J1D01*
G01*
X305777801Y-118932001D02*
X305777801Y-131932001D01*
X25627801Y-170032001D02*
G75*
G03*
X26127801Y-170532001I500001J1D01*
G01*
X291984051Y-150982001D02*
G75*
G03*
X292484051Y-151482001I500001J1D01*
G01*
X68990301Y-113382001D02*
X81990301Y-113382001D01*
X88040301Y-84807000D02*
X101040301Y-84807000D01*
X139640301Y-71307001D02*
X139640301Y-84307000D01*
X363765301Y-157032001D02*
X363765301Y-170032001D01*
X397729201Y-154795301D02*
G75*
G03*
X396935501Y-154001601I-793699J1D01*
G01*
X216627801Y-137482001D02*
X229627801Y-137482001D01*
X120590301Y-99882001D02*
G75*
G03*
X120090301Y-99382001I-500001J-1D01*
G01*
X86096551Y-156532001D02*
X87096551Y-156532001D01*
X48602801Y-131932001D02*
G75*
G03*
X49102801Y-132432001I500001J1D01*
G01*
X364265301Y-113382001D02*
X377265301Y-113382001D01*
X196290301Y-113382001D02*
G75*
G03*
X196790301Y-112882001I-1J500001D01*
G01*
X49096551Y-170032001D02*
G75*
G03*
X49596551Y-170532001I500001J1D01*
G01*
X97565301Y-118432001D02*
X110565301Y-118432001D01*
X278540301Y-113382001D02*
X291540301Y-113382001D01*
X396815301Y-176082001D02*
X396815301Y-189082001D01*
X177740301Y-99882001D02*
G75*
G03*
X177240301Y-99382001I-500001J-1D01*
G01*
X244702801Y-170032001D02*
G75*
G03*
X245202801Y-170532001I500001J1D01*
G01*
X197077801Y-137982001D02*
X197077801Y-150982001D01*
X396815301Y-176082001D02*
G75*
G03*
X396315301Y-175582001I-500001J-1D01*
G01*
X383315301Y-99382001D02*
X396315301Y-99382001D01*
X249177801Y-137982001D02*
G75*
G03*
X248677801Y-137482001I-500001J-1D01*
G01*
X322053301Y-97877201D02*
X322053301Y-114882001D01*
X85596551Y-170032001D02*
G75*
G03*
X86096551Y-170532001I500001J1D01*
G01*
X49102801Y-132432001D02*
X50102801Y-132432001D01*
X76134051Y-189582001D02*
X89134051Y-189582001D01*
X225652801Y-157032001D02*
X225652801Y-170032001D01*
X358215301Y-189582001D02*
G75*
G03*
X358715301Y-189082001I-1J500001D01*
G01*
X242821551Y-189582001D02*
X255821551Y-189582001D01*
X210577801Y-151482001D02*
G75*
G03*
X211077801Y-150982001I-1J500001D01*
G01*
X358215301Y-113382001D02*
G75*
G03*
X358715301Y-112882001I-1J500001D01*
G01*
X116115301Y-131932001D02*
G75*
G03*
X116615301Y-132432001I500001J1D01*
G01*
X48602801Y-118932001D02*
X48602801Y-131932001D01*
X169002801Y-170532001D02*
X182002801Y-170532001D01*
X50102801Y-132432001D02*
G75*
G03*
X50602801Y-131932001I-1J500001D01*
G01*
X230915301Y-132432001D02*
X243915301Y-132432001D01*
X206315301Y-71307001D02*
X206315301Y-84307000D01*
X364265301Y-99382001D02*
X377265301Y-99382001D01*
X313759051Y-189082001D02*
G75*
G03*
X314259051Y-189582001I500001J1D01*
G01*
X311090301Y-71307001D02*
G75*
G03*
X310590301Y-70807001I-500001J-1D01*
G01*
X328977801Y-118932001D02*
X328977801Y-131932001D01*
X26127801Y-118432001D02*
G75*
G03*
X25627801Y-118932001I1J-500001D01*
G01*
X327759051Y-176082001D02*
X327759051Y-189082001D01*
X26127801Y-156532001D02*
G75*
G03*
X25627801Y-157032001I1J-500001D01*
G01*
X259490301Y-99382001D02*
X272490301Y-99382001D01*
X245202801Y-170532001D02*
X258202801Y-170532001D01*
X54202801Y-131932001D02*
G75*
G03*
X54702801Y-132432001I500001J1D01*
G01*
X173765301Y-132432001D02*
X186765301Y-132432001D01*
X230415301Y-71307001D02*
X230415301Y-84307000D01*
X39627800Y-157032001D02*
G75*
G03*
X39127800Y-156532001I-500001J-1D01*
G01*
X107090301Y-113382001D02*
X120090301Y-113382001D01*
X96777801Y-137982001D02*
X96777801Y-150982001D01*
X25627801Y-71307001D02*
X25627801Y-84307000D01*
X49940301Y-99382001D02*
X62940301Y-99382001D01*
X377265301Y-170532001D02*
G75*
G03*
X377765301Y-170032001I-1J500001D01*
G01*
X278040301Y-112882001D02*
G75*
G03*
X278540301Y-113382001I500001J1D01*
G01*
X278540301Y-99382001D02*
G75*
G03*
X278040301Y-99882001I1J-500001D01*
G01*
X107090301Y-70807001D02*
X120090301Y-70807001D01*
X230127801Y-137982001D02*
X230127801Y-150982001D01*
X211865301Y-70807001D02*
X224865301Y-70807001D01*
X50602801Y-118932001D02*
X50602801Y-131932001D01*
X88040301Y-113382001D02*
X101040301Y-113382001D01*
X224865301Y-132432001D02*
G75*
G03*
X225365301Y-131932001I-1J500001D01*
G01*
M02*
