%TF.GenerationSoftware,KiCad,Pcbnew,(6.0.0)*%
%TF.CreationDate,2022-03-07T23:03:07-05:00*%
%TF.ProjectId,custom_keyboard plate v3 - map,63757374-6f6d-45f6-9b65-79626f617264,rev?*%
%TF.SameCoordinates,Original*%
%TF.FileFunction,Profile,NP*%
%FSLAX46Y46*%
G04 Gerber Fmt 4.6, Leading zero omitted, Abs format (unit mm)*
G04 Created by KiCad (PCBNEW (6.0.0)) date 2022-03-07 23:03:07*
%MOMM*%
%LPD*%
G01*
G04 APERTURE LIST*
%TA.AperFunction,Profile*%
%ADD10C,0.050000*%
%TD*%
%TA.AperFunction,Profile*%
%ADD11C,0.100000*%
%TD*%
G04 APERTURE END LIST*
D10*
X402405900Y-31748000D02*
X15080300Y-31748000D01*
X406374400Y-170645500D02*
X406374400Y-35716500D01*
X15080300Y-174614000D02*
X402405900Y-174614000D01*
D11*
X288184151Y-162571801D02*
X301184151Y-162571801D01*
X67417551Y-162064001D02*
G75*
G03*
X67917551Y-162564001I500001J1D01*
G01*
X294033801Y-108464601D02*
G75*
G03*
X293533801Y-108964601I1J-500001D01*
G01*
X181027901Y-86371801D02*
X194027901Y-86371801D01*
X68321651Y-110971801D02*
G75*
G03*
X67821651Y-110471801I-500001J-1D01*
G01*
X23365401Y-162071801D02*
G75*
G03*
X23865401Y-162571801I500001J1D01*
G01*
X181027901Y-72371801D02*
X194027901Y-72371801D01*
X321959151Y-129521801D02*
X322959151Y-129521801D01*
X242940401Y-129521801D02*
X255940401Y-129521801D01*
X37365400Y-130021801D02*
X37365400Y-143021801D01*
X23865401Y-129521801D02*
G75*
G03*
X23365401Y-130021801I1J-500001D01*
G01*
X113565401Y-110971801D02*
G75*
G03*
X113065401Y-110471801I-500001J-1D01*
G01*
X52440401Y-91421801D02*
G75*
G03*
X51940401Y-91921801I1J-500001D01*
G01*
X240059151Y-162071801D02*
G75*
G03*
X240559151Y-162571801I500001J1D01*
G01*
X257905551Y-162064001D02*
X257905551Y-149064002D01*
X300533801Y-108964601D02*
G75*
G03*
X300033801Y-108464601I-500001J-1D01*
G01*
X52440401Y-91421801D02*
X65440401Y-91421801D01*
X195315401Y-110471801D02*
X208315401Y-110471801D01*
X381052901Y-57796800D02*
X394052901Y-57796800D01*
X146902901Y-91921801D02*
G75*
G03*
X146402901Y-91421801I-500001J-1D01*
G01*
X63559151Y-149071801D02*
X63559151Y-162071801D01*
X118327901Y-44296801D02*
G75*
G03*
X117827901Y-43796801I-500001J-1D01*
G01*
X214365401Y-110471801D02*
G75*
G03*
X213865401Y-110971801I1J-500001D01*
G01*
X289277901Y-57796800D02*
G75*
G03*
X289777901Y-57296800I-1J500001D01*
G01*
X50661601Y-145018201D02*
X50661601Y-128013401D01*
X308327901Y-57796800D02*
G75*
G03*
X308827901Y-57296800I-1J500001D01*
G01*
X85334151Y-130021801D02*
X85334151Y-143021801D01*
X289777901Y-44296801D02*
X289777901Y-57296800D01*
X285802900Y-91421801D02*
X298802901Y-91421801D01*
X285015401Y-110971801D02*
X285015401Y-123971801D01*
X48340401Y-91921801D02*
G75*
G03*
X47840401Y-91421801I-500001J-1D01*
G01*
X295914901Y-87871801D02*
G75*
G03*
X296414901Y-88371801I500001J1D01*
G01*
X270227901Y-57796800D02*
G75*
G03*
X270727901Y-57296800I-1J500001D01*
G01*
X265965401Y-110971801D02*
X265965401Y-123971801D01*
X301184151Y-162571801D02*
G75*
G03*
X301684151Y-162071801I-1J500001D01*
G01*
X276277901Y-86371801D02*
X289277901Y-86371801D01*
X313877901Y-44296801D02*
X313877901Y-57296800D01*
X50059151Y-110474201D02*
X67821651Y-110471801D01*
X319147601Y-145518201D02*
G75*
G03*
X319647601Y-145018201I-1J500001D01*
G01*
X164776601Y-152551751D02*
G75*
G03*
X164276601Y-152051751I-500001J-1D01*
G01*
X302914901Y-70867001D02*
G75*
G03*
X302414901Y-70367001I-500001J-1D01*
G01*
X104827901Y-72371801D02*
X117827901Y-72371801D01*
X127852901Y-91921801D02*
G75*
G03*
X127352901Y-91421801I-500001J-1D01*
G01*
X123877901Y-43796801D02*
X136877901Y-43796801D01*
X355952901Y-86371801D02*
G75*
G03*
X356452901Y-85871801I-1J500001D01*
G01*
X108302901Y-105421801D02*
G75*
G03*
X108802901Y-104921801I-1J500001D01*
G01*
X57661601Y-145018201D02*
X57661601Y-128013401D01*
X295327901Y-57796800D02*
X308327901Y-57796800D01*
X228652901Y-105421801D02*
X241652901Y-105421801D01*
X291721651Y-110971801D02*
G75*
G03*
X291221651Y-110471801I-500001J-1D01*
G01*
X362002901Y-162571801D02*
X375002901Y-162571801D01*
X361502901Y-162071801D02*
G75*
G03*
X362002901Y-162571801I500001J1D01*
G01*
X23865401Y-143521801D02*
X36865400Y-143521801D01*
X200077901Y-72371801D02*
X213077901Y-72371801D01*
X23865401Y-43796801D02*
X36865400Y-43796801D01*
X113852901Y-91921801D02*
X113852901Y-104921801D01*
X204340401Y-143021801D02*
G75*
G03*
X204840401Y-143521801I500001J1D01*
G01*
X46834151Y-143021801D02*
G75*
G03*
X47334151Y-143521801I500001J1D01*
G01*
X297209601Y-143018201D02*
G75*
G03*
X297709601Y-143518201I500001J1D01*
G01*
X23865401Y-110471801D02*
G75*
G03*
X23365401Y-110971801I1J-500001D01*
G01*
X185002901Y-91921801D02*
X185002901Y-104921801D01*
X142427901Y-57296800D02*
G75*
G03*
X142927901Y-57796800I500001J1D01*
G01*
X289271601Y-127513401D02*
X295271601Y-127513401D01*
X266252901Y-104921801D02*
G75*
G03*
X266752901Y-105421801I500001J1D01*
G01*
X65940401Y-91921801D02*
G75*
G03*
X65440401Y-91421801I-500001J-1D01*
G01*
X284959150Y-143021801D02*
G75*
G03*
X285459150Y-143521801I500001J1D01*
G01*
X166240401Y-130021801D02*
X166240401Y-143021801D01*
X304852901Y-86371801D02*
X317852901Y-86371801D01*
X100065401Y-110471801D02*
G75*
G03*
X99565401Y-110971801I1J-500001D01*
G01*
X147690401Y-129521801D02*
G75*
G03*
X147190401Y-130021801I1J-500001D01*
G01*
X321459151Y-143021801D02*
G75*
G03*
X321959151Y-143521801I500001J1D01*
G01*
X290221651Y-110471801D02*
X291221651Y-110471801D01*
X223890401Y-143521801D02*
X236890401Y-143521801D01*
X327377901Y-57796800D02*
G75*
G03*
X327877901Y-57296800I-1J500001D01*
G01*
X182621651Y-149071801D02*
X182621651Y-162071801D01*
X61177901Y-72871801D02*
G75*
G03*
X60677901Y-72371801I-500001J-1D01*
G01*
X381052901Y-91420601D02*
G75*
G03*
X380552901Y-91920601I1J-500001D01*
G01*
X190052901Y-57296800D02*
G75*
G03*
X190552901Y-57796800I500001J1D01*
G01*
X232127901Y-86371801D02*
G75*
G03*
X232627901Y-85871801I-1J500001D01*
G01*
X233798451Y-148564002D02*
G75*
G03*
X233298451Y-149064002I1J-500001D01*
G01*
X23365401Y-110971801D02*
X23365401Y-123971801D01*
X375502901Y-149071801D02*
G75*
G03*
X375002901Y-148571801I-500001J-1D01*
G01*
X317852901Y-86371801D02*
G75*
G03*
X318352901Y-85871801I-1J500001D01*
G01*
X186947201Y-152077451D02*
G75*
G03*
X186447201Y-152577451I1J-500001D01*
G01*
X326715401Y-91921801D02*
X326715401Y-104921801D01*
X362002901Y-148571801D02*
X375002901Y-148571801D01*
X304352901Y-85871801D02*
G75*
G03*
X304852901Y-86371801I500001J1D01*
G01*
X76252901Y-91421801D02*
X89252901Y-91421801D01*
X137665401Y-110971801D02*
X137665401Y-123971801D01*
X157215401Y-110471801D02*
X170215401Y-110471801D01*
X81037601Y-145518201D02*
G75*
G03*
X81537601Y-145018201I-1J500001D01*
G01*
X23365401Y-130021801D02*
X23365401Y-143021801D01*
X311996651Y-148571801D02*
X324996651Y-148571801D01*
X380552901Y-104920601D02*
G75*
G03*
X381052901Y-105420601I500001J1D01*
G01*
X294033801Y-108464601D02*
X300033801Y-108464601D01*
X46840401Y-105421801D02*
X47840401Y-105421801D01*
X270227901Y-86371801D02*
G75*
G03*
X270727901Y-85871801I-1J500001D01*
G01*
X277871651Y-149071801D02*
G75*
G03*
X277371651Y-148571801I-500001J-1D01*
G01*
X168621651Y-162071801D02*
G75*
G03*
X169121651Y-162571801I500001J1D01*
G01*
X23865401Y-72371801D02*
X36865400Y-72371801D01*
X133608901Y-152051751D02*
X164276601Y-152051751D01*
X209602901Y-57796800D02*
X222602901Y-57796800D01*
X380552901Y-91920601D02*
X380552901Y-104920601D01*
X37365400Y-91921801D02*
G75*
G03*
X36865400Y-91421801I-500001J-1D01*
G01*
X227865401Y-110971801D02*
X227865401Y-123971801D01*
X356452901Y-44296801D02*
G75*
G03*
X355952901Y-43796801I-500001J-1D01*
G01*
X394552901Y-72871801D02*
G75*
G03*
X394052901Y-72371801I-500001J-1D01*
G01*
X85277901Y-72871801D02*
X85277901Y-85871801D01*
X147690401Y-129521801D02*
X160690401Y-129521801D01*
X258405551Y-148564002D02*
G75*
G03*
X257905551Y-149064002I1J-500001D01*
G01*
X260000051Y-162064001D02*
X260000051Y-149064002D01*
X103540401Y-143521801D02*
G75*
G03*
X104040401Y-143021801I-1J500001D01*
G01*
X123090401Y-130021801D02*
G75*
G03*
X122590401Y-129521801I-500001J-1D01*
G01*
X175765401Y-123971801D02*
G75*
G03*
X176265401Y-124471801I500001J1D01*
G01*
X324409801Y-108964601D02*
G75*
G03*
X323909801Y-108464601I-500001J-1D01*
G01*
X327721651Y-124471801D02*
G75*
G03*
X328221651Y-123971801I-1J500001D01*
G01*
X175765401Y-110971801D02*
X175765401Y-123971801D01*
X297709601Y-129518201D02*
X310709601Y-129518201D01*
X209602901Y-105421801D02*
X222602901Y-105421801D01*
X199577901Y-85871801D02*
G75*
G03*
X200077901Y-86371801I500001J1D01*
G01*
X309115401Y-104921801D02*
G75*
G03*
X309615401Y-105421801I500001J1D01*
G01*
X209602901Y-43796801D02*
G75*
G03*
X209102901Y-44296801I1J-500001D01*
G01*
X252465401Y-124471801D02*
X265465401Y-124471801D01*
X218114901Y-152577451D02*
G75*
G03*
X217614901Y-152077451I-500001J-1D01*
G01*
X209102901Y-104921801D02*
G75*
G03*
X209602901Y-105421801I500001J1D01*
G01*
X133108901Y-158551751D02*
X133108901Y-152551751D01*
X281716551Y-162064001D02*
G75*
G03*
X282216551Y-162564001I500001J1D01*
G01*
X46834151Y-130021801D02*
X46834151Y-143021801D01*
X36865400Y-143521801D02*
G75*
G03*
X37365400Y-143021801I-1J500001D01*
G01*
X170715401Y-110971801D02*
G75*
G03*
X170215401Y-110471801I-500001J-1D01*
G01*
X136877901Y-57796800D02*
G75*
G03*
X137377901Y-57296800I-1J500001D01*
G01*
X297709601Y-129518201D02*
G75*
G03*
X297209601Y-130018201I1J-500001D01*
G01*
X305527551Y-162064001D02*
G75*
G03*
X306027551Y-162564001I500001J1D01*
G01*
X286459150Y-143521801D02*
G75*
G03*
X286959150Y-143021801I-1J500001D01*
G01*
X86871651Y-162571801D02*
G75*
G03*
X87371651Y-162071801I-1J500001D01*
G01*
X228652901Y-43796801D02*
G75*
G03*
X228152901Y-44296801I1J-500001D01*
G01*
X63059151Y-162571801D02*
G75*
G03*
X63559151Y-162071801I-1J500001D01*
G01*
X297709601Y-143518201D02*
X310709601Y-143518201D01*
X104327901Y-85871801D02*
G75*
G03*
X104827901Y-86371801I500001J1D01*
G01*
X375002901Y-143521801D02*
G75*
G03*
X375502901Y-143021801I-1J500001D01*
G01*
X266752901Y-91421801D02*
G75*
G03*
X266252901Y-91921801I1J-500001D01*
G01*
X161477901Y-85871801D02*
G75*
G03*
X161977901Y-86371801I500001J1D01*
G01*
X228652901Y-57796800D02*
X241652901Y-57796800D01*
X342452901Y-162071801D02*
G75*
G03*
X342952901Y-162571801I500001J1D01*
G01*
X128140401Y-130021801D02*
X128140401Y-143021801D01*
X87371651Y-149071801D02*
X87371651Y-162071801D01*
X84834151Y-143521801D02*
G75*
G03*
X85334151Y-143021801I-1J500001D01*
G01*
X119115401Y-110471801D02*
X132115401Y-110471801D01*
X23365401Y-104921801D02*
G75*
G03*
X23865401Y-105421801I500001J1D01*
G01*
X115539551Y-162564001D02*
X116634051Y-162564001D01*
X36865400Y-105421801D02*
G75*
G03*
X37365400Y-104921801I-1J500001D01*
G01*
X65440401Y-105421801D02*
G75*
G03*
X65940401Y-104921801I-1J500001D01*
G01*
X228652901Y-91421801D02*
X241652901Y-91421801D01*
X182121651Y-162571801D02*
G75*
G03*
X182621651Y-162071801I-1J500001D01*
G01*
X304852901Y-72371801D02*
X317852901Y-72371801D01*
X104827901Y-43796801D02*
G75*
G03*
X104327901Y-44296801I1J-500001D01*
G01*
X104327901Y-44296801D02*
X104327901Y-57296800D01*
X348932200Y-110970601D02*
X348932200Y-123970601D01*
X265965401Y-110971801D02*
G75*
G03*
X265465401Y-110471801I-500001J-1D01*
G01*
X90040401Y-130021801D02*
X90040401Y-143021801D01*
X328715401Y-91921801D02*
G75*
G03*
X328215401Y-91421801I-500001J-1D01*
G01*
X301971801Y-123969401D02*
G75*
G03*
X302471801Y-124469401I500001J1D01*
G01*
X287684151Y-149071801D02*
X287684151Y-162071801D01*
X123377901Y-85871801D02*
G75*
G03*
X123877901Y-86371801I500001J1D01*
G01*
X222602901Y-57796800D02*
G75*
G03*
X223102901Y-57296800I-1J500001D01*
G01*
X286959150Y-130021801D02*
X286959150Y-143021801D01*
X233298451Y-162064001D02*
G75*
G03*
X233798451Y-162564001I500001J1D01*
G01*
X81537601Y-128013401D02*
G75*
G03*
X81037601Y-127513401I-500001J-1D01*
G01*
X319647601Y-128013401D02*
X319647601Y-145018201D01*
X49559151Y-110974201D02*
X49559151Y-123974201D01*
X73371651Y-149071801D02*
X73371651Y-162071801D01*
X37365400Y-44296801D02*
X37365400Y-57296800D01*
X23365401Y-143021801D02*
G75*
G03*
X23865401Y-143521801I500001J1D01*
G01*
X69012051Y-162564001D02*
G75*
G03*
X69512051Y-162064001I-1J500001D01*
G01*
X223890401Y-129521801D02*
X236890401Y-129521801D01*
X342952901Y-162571801D02*
X355952901Y-162571801D01*
X99277901Y-44296801D02*
X99277901Y-57296800D01*
X237390401Y-130021801D02*
X237390401Y-143021801D01*
X276277901Y-72371801D02*
X289277901Y-72371801D01*
X75037601Y-127513401D02*
X81037601Y-127513401D01*
X219127901Y-72371801D02*
X232127901Y-72371801D01*
X72599601Y-143518201D02*
G75*
G03*
X73099601Y-143018201I-1J500001D01*
G01*
X155927901Y-57796800D02*
G75*
G03*
X156427901Y-57296800I-1J500001D01*
G01*
X189265401Y-124471801D02*
G75*
G03*
X189765401Y-123971801I-1J500001D01*
G01*
X277871651Y-149071801D02*
X277871651Y-162071801D01*
X156427901Y-72871801D02*
X156427901Y-85871801D01*
X342952901Y-43796801D02*
X355952901Y-43796801D01*
X80227901Y-72871801D02*
G75*
G03*
X79727901Y-72371801I-500001J-1D01*
G01*
X236890401Y-143521801D02*
G75*
G03*
X237390401Y-143021801I-1J500001D01*
G01*
X256727901Y-57296800D02*
G75*
G03*
X257227901Y-57796800I500001J1D01*
G01*
X133402901Y-105421801D02*
X146402901Y-105421801D01*
X109590401Y-143521801D02*
X122590401Y-143521801D01*
X181027901Y-72371801D02*
G75*
G03*
X180527901Y-72871801I1J-500001D01*
G01*
X115539551Y-148564002D02*
X116634051Y-148564002D01*
X69512051Y-162064001D02*
X69512051Y-149064002D01*
X59099601Y-143018201D02*
G75*
G03*
X59599601Y-143518201I500001J1D01*
G01*
X227865401Y-110971801D02*
G75*
G03*
X227365401Y-110471801I-500001J-1D01*
G01*
X229121651Y-147057401D02*
G75*
G03*
X228621651Y-146557401I-500001J-1D01*
G01*
X322959151Y-143521801D02*
G75*
G03*
X323459151Y-143021801I-1J500001D01*
G01*
X295271601Y-145518201D02*
G75*
G03*
X295771601Y-145018201I-1J500001D01*
G01*
X288771601Y-145018201D02*
G75*
G03*
X289271601Y-145518201I500001J1D01*
G01*
X118615401Y-123971801D02*
G75*
G03*
X119115401Y-124471801I500001J1D01*
G01*
X194527901Y-72871801D02*
G75*
G03*
X194027901Y-72371801I-500001J-1D01*
G01*
X186447201Y-158577451D02*
X186447201Y-152577451D01*
X288184151Y-148571801D02*
G75*
G03*
X287684151Y-149071801I1J-500001D01*
G01*
X247202901Y-104921801D02*
G75*
G03*
X247702901Y-105421801I500001J1D01*
G01*
X142927901Y-43796801D02*
X155927901Y-43796801D01*
X317909801Y-108464601D02*
G75*
G03*
X317409801Y-108964601I1J-500001D01*
G01*
X47677901Y-43796801D02*
X60677901Y-43796801D01*
X128640401Y-129521801D02*
X141640401Y-129521801D01*
X171502901Y-57796800D02*
X184502901Y-57796800D01*
X118327901Y-44296801D02*
X118327901Y-57296800D01*
X132615401Y-110971801D02*
G75*
G03*
X132115401Y-110471801I-500001J-1D01*
G01*
X133608901Y-159051751D02*
X164276601Y-159051751D01*
X142427901Y-85871801D02*
G75*
G03*
X142927901Y-86371801I500001J1D01*
G01*
X222621651Y-146557401D02*
G75*
G03*
X222121651Y-147057401I1J-500001D01*
G01*
X190552901Y-43796801D02*
X203552901Y-43796801D01*
X270727901Y-72871801D02*
X270727901Y-85871801D01*
X66727901Y-72371801D02*
X79727901Y-72371801D01*
X318352901Y-72871801D02*
X318352901Y-85871801D01*
X152452901Y-105421801D02*
X165452901Y-105421801D01*
X59599601Y-143518201D02*
X72599601Y-143518201D01*
X127852901Y-91921801D02*
X127852901Y-104921801D01*
X313147601Y-127513401D02*
G75*
G03*
X312647601Y-128013401I1J-500001D01*
G01*
X47177901Y-72871801D02*
X47177901Y-85871801D01*
X275777901Y-85871801D02*
G75*
G03*
X276277901Y-86371801I500001J1D01*
G01*
X271015401Y-123971801D02*
G75*
G03*
X271515401Y-124471801I500001J1D01*
G01*
X342952901Y-148571801D02*
X355952901Y-148571801D01*
X286959150Y-130021801D02*
G75*
G03*
X286459150Y-129521801I-500001J-1D01*
G01*
X261490401Y-143021801D02*
G75*
G03*
X261990401Y-143521801I500001J1D01*
G01*
X204052901Y-44296801D02*
X204052901Y-57296800D01*
X176265401Y-124471801D02*
X189265401Y-124471801D01*
X356452901Y-72871801D02*
G75*
G03*
X355952901Y-72371801I-500001J-1D01*
G01*
X128621651Y-164571801D02*
G75*
G03*
X129121651Y-164071801I-1J500001D01*
G01*
X222602901Y-105421801D02*
G75*
G03*
X223102901Y-104921801I-1J500001D01*
G01*
X166740401Y-129521801D02*
X179740401Y-129521801D01*
X81537601Y-128013401D02*
X81537601Y-145018201D01*
X36865400Y-57796800D02*
G75*
G03*
X37365400Y-57296800I-1J500001D01*
G01*
X240059151Y-149071801D02*
X240059151Y-162071801D01*
X23365401Y-85871801D02*
G75*
G03*
X23865401Y-86371801I500001J1D01*
G01*
X306027551Y-148564002D02*
X307122051Y-148564002D01*
X228152901Y-104921801D02*
G75*
G03*
X228652901Y-105421801I500001J1D01*
G01*
D10*
X11111800Y-35716500D02*
X11111800Y-170645500D01*
D11*
X394552901Y-149071801D02*
X394552901Y-162071801D01*
X95302901Y-91421801D02*
G75*
G03*
X94802901Y-91921801I1J-500001D01*
G01*
X327215401Y-91421801D02*
G75*
G03*
X326715401Y-91921801I1J-500001D01*
G01*
X208315401Y-124471801D02*
G75*
G03*
X208815401Y-123971801I-1J500001D01*
G01*
X375502901Y-130021801D02*
G75*
G03*
X375002901Y-129521801I-500001J-1D01*
G01*
X285459150Y-129521801D02*
X286459150Y-129521801D01*
X295771601Y-145018201D02*
X295771601Y-128013401D01*
X47334151Y-129521801D02*
X48334151Y-129521801D01*
X317909801Y-126469401D02*
X323909801Y-126469401D01*
X270727901Y-44296801D02*
G75*
G03*
X270227901Y-43796801I-500001J-1D01*
G01*
X37365400Y-110971801D02*
G75*
G03*
X36865400Y-110471801I-500001J-1D01*
G01*
X97684151Y-162571801D02*
X110684151Y-162571801D01*
X132902901Y-91921801D02*
X132902901Y-104921801D01*
X213577901Y-72871801D02*
X213577901Y-85871801D01*
X94515401Y-110971801D02*
G75*
G03*
X94015401Y-110471801I-500001J-1D01*
G01*
X246415401Y-124471801D02*
G75*
G03*
X246915401Y-123971801I-1J500001D01*
G01*
X76252901Y-105421801D02*
X89252901Y-105421801D01*
X114352901Y-91421801D02*
X127352901Y-91421801D01*
X285015401Y-110971801D02*
G75*
G03*
X284515401Y-110471801I-500001J-1D01*
G01*
X92823051Y-162564001D02*
G75*
G03*
X93323051Y-162064001I-1J500001D01*
G01*
X23365401Y-44296801D02*
X23365401Y-57296800D01*
X66727901Y-86371801D02*
X79727901Y-86371801D01*
X251965401Y-110971801D02*
X251965401Y-123971801D01*
X228152901Y-91921801D02*
X228152901Y-104921801D01*
X257227901Y-57796800D02*
X270227901Y-57796800D01*
X209102901Y-44296801D02*
X209102901Y-57296800D01*
X165952901Y-91921801D02*
X165952901Y-104921801D01*
X104827901Y-72371801D02*
G75*
G03*
X104327901Y-72871801I1J-500001D01*
G01*
X232627901Y-72871801D02*
X232627901Y-85871801D01*
X394552901Y-91920601D02*
G75*
G03*
X394052901Y-91420601I-500001J-1D01*
G01*
X271515401Y-124471801D02*
X284515401Y-124471801D01*
X324996651Y-162571801D02*
G75*
G03*
X325496651Y-162071801I-1J500001D01*
G01*
X117827901Y-86371801D02*
G75*
G03*
X118327901Y-85871801I-1J500001D01*
G01*
X288184151Y-148571801D02*
X301184151Y-148571801D01*
X51161601Y-127513401D02*
G75*
G03*
X50661601Y-128013401I1J-500001D01*
G01*
X99277901Y-44296801D02*
G75*
G03*
X98777901Y-43796801I-500001J-1D01*
G01*
X89752901Y-91921801D02*
X89752901Y-104921801D01*
X185002901Y-91921801D02*
G75*
G03*
X184502901Y-91421801I-500001J-1D01*
G01*
X185290401Y-143021801D02*
G75*
G03*
X185790401Y-143521801I500001J1D01*
G01*
X147690401Y-143521801D02*
X160690401Y-143521801D01*
X195315401Y-124471801D02*
X208315401Y-124471801D01*
X142140401Y-130021801D02*
X142140401Y-143021801D01*
X223390401Y-130021801D02*
X223390401Y-143021801D01*
X204052901Y-91921801D02*
G75*
G03*
X203552901Y-91421801I-500001J-1D01*
G01*
X218340401Y-130021801D02*
G75*
G03*
X217840401Y-129521801I-500001J-1D01*
G01*
X85777901Y-43796801D02*
X98777901Y-43796801D01*
X85777901Y-86371801D02*
X98777901Y-86371801D01*
X123877901Y-72371801D02*
X136877901Y-72371801D01*
X118327901Y-72871801D02*
G75*
G03*
X117827901Y-72371801I-500001J-1D01*
G01*
X91228551Y-162064001D02*
G75*
G03*
X91728551Y-162564001I500001J1D01*
G01*
X275777901Y-72871801D02*
X275777901Y-85871801D01*
X142927901Y-43796801D02*
G75*
G03*
X142427901Y-44296801I1J-500001D01*
G01*
X266752901Y-91421801D02*
X279752901Y-91421801D01*
X261990401Y-143521801D02*
X274990401Y-143521801D01*
X228152901Y-57296800D02*
G75*
G03*
X228652901Y-57796800I500001J1D01*
G01*
X342952901Y-72371801D02*
X355952901Y-72371801D01*
X114352901Y-105421801D02*
X127352901Y-105421801D01*
X394052901Y-57796800D02*
G75*
G03*
X394552901Y-57296800I-1J500001D01*
G01*
X283811051Y-162064001D02*
X283811051Y-149064002D01*
X394552901Y-149071801D02*
G75*
G03*
X394052901Y-148571801I-500001J-1D01*
G01*
X263871651Y-162071801D02*
G75*
G03*
X264371651Y-162571801I500001J1D01*
G01*
X301684151Y-149071801D02*
X301684151Y-162071801D01*
X47334151Y-143521801D02*
X48334151Y-143521801D01*
X251677901Y-72871801D02*
G75*
G03*
X251177901Y-72371801I-500001J-1D01*
G01*
X46340401Y-91921801D02*
X46340401Y-104921801D01*
X380552901Y-44296801D02*
X380552901Y-57296800D01*
X223390401Y-143021801D02*
G75*
G03*
X223890401Y-143521801I500001J1D01*
G01*
X275490401Y-130021801D02*
X275490401Y-143021801D01*
X251965401Y-123971801D02*
G75*
G03*
X252465401Y-124471801I500001J1D01*
G01*
X23865401Y-91421801D02*
G75*
G03*
X23365401Y-91921801I1J-500001D01*
G01*
X50059151Y-110474201D02*
G75*
G03*
X49559151Y-110974201I1J-500001D01*
G01*
X342952901Y-91420601D02*
G75*
G03*
X342452901Y-91920601I1J-500001D01*
G01*
X169121651Y-148571801D02*
G75*
G03*
X168621651Y-149071801I1J-500001D01*
G01*
X180240401Y-130021801D02*
X180240401Y-143021801D01*
X326221651Y-110971801D02*
X326221651Y-123971801D01*
X23865401Y-148571801D02*
X36865400Y-148571801D01*
X311496651Y-149071801D02*
X311496651Y-162071801D01*
X127352901Y-105421801D02*
G75*
G03*
X127852901Y-104921801I-1J500001D01*
G01*
X97684151Y-148571801D02*
X110684151Y-148571801D01*
X388823502Y-110970601D02*
G75*
G03*
X388323502Y-110470601I-500001J-1D01*
G01*
X175477901Y-72871801D02*
X175477901Y-85871801D01*
X381052901Y-72371801D02*
X394052901Y-72371801D01*
X342452901Y-72871801D02*
X342452901Y-85871801D01*
X142427901Y-72871801D02*
X142427901Y-85871801D01*
X242940401Y-129521801D02*
G75*
G03*
X242440401Y-130021801I1J-500001D01*
G01*
X37365400Y-110971801D02*
X37365400Y-123971801D01*
X200077901Y-72371801D02*
G75*
G03*
X199577901Y-72871801I1J-500001D01*
G01*
X142927901Y-72371801D02*
G75*
G03*
X142427901Y-72871801I1J-500001D01*
G01*
X261202901Y-91921801D02*
G75*
G03*
X260702901Y-91421801I-500001J-1D01*
G01*
X185002901Y-44296801D02*
G75*
G03*
X184502901Y-43796801I-500001J-1D01*
G01*
X361502901Y-85871801D02*
G75*
G03*
X362002901Y-86371801I500001J1D01*
G01*
X228621651Y-146557401D02*
X222621651Y-146557401D01*
X327877901Y-44296801D02*
G75*
G03*
X327377901Y-43796801I-500001J-1D01*
G01*
X246915401Y-110971801D02*
G75*
G03*
X246415401Y-110471801I-500001J-1D01*
G01*
X85777901Y-72371801D02*
X98777901Y-72371801D01*
X184502901Y-57796800D02*
G75*
G03*
X185002901Y-57296800I-1J500001D01*
G01*
X380552901Y-85871801D02*
G75*
G03*
X381052901Y-86371801I500001J1D01*
G01*
X74537601Y-145018201D02*
G75*
G03*
X75037601Y-145518201I500001J1D01*
G01*
X204052901Y-91921801D02*
X204052901Y-104921801D01*
X246915401Y-110971801D02*
X246915401Y-123971801D01*
X208815401Y-110971801D02*
X208815401Y-123971801D01*
X342952901Y-72371801D02*
G75*
G03*
X342452901Y-72871801I1J-500001D01*
G01*
X319790901Y-87871801D02*
G75*
G03*
X320290901Y-88371801I500001J1D01*
G01*
X195315401Y-110471801D02*
G75*
G03*
X194815401Y-110971801I1J-500001D01*
G01*
X95302901Y-91421801D02*
X108302901Y-91421801D01*
X362002901Y-105420601D02*
X375002901Y-105420601D01*
X37365400Y-72871801D02*
X37365400Y-85871801D01*
X241652901Y-105421801D02*
G75*
G03*
X242152901Y-104921801I-1J500001D01*
G01*
X284515401Y-124471801D02*
G75*
G03*
X285015401Y-123971801I-1J500001D01*
G01*
X275777901Y-44296801D02*
X275777901Y-57296800D01*
X104040401Y-130021801D02*
G75*
G03*
X103540401Y-129521801I-500001J-1D01*
G01*
X23365401Y-91921801D02*
X23365401Y-104921801D01*
X264371651Y-162571801D02*
X277371651Y-162571801D01*
X151665400Y-110971801D02*
X151665400Y-123971801D01*
X204840401Y-143521801D02*
X217840401Y-143521801D01*
X302471801Y-110469401D02*
G75*
G03*
X301971801Y-110969401I1J-500001D01*
G01*
X295327901Y-43796801D02*
G75*
G03*
X294827901Y-44296801I1J-500001D01*
G01*
X118615401Y-110971801D02*
X118615401Y-123971801D01*
X118327901Y-72871801D02*
X118327901Y-85871801D01*
X98777901Y-86371801D02*
G75*
G03*
X99277901Y-85871801I-1J500001D01*
G01*
X161977901Y-72371801D02*
G75*
G03*
X161477901Y-72871801I1J-500001D01*
G01*
X310709601Y-143518201D02*
G75*
G03*
X311209601Y-143018201I-1J500001D01*
G01*
X356452901Y-72871801D02*
X356452901Y-85871801D01*
X37365400Y-149071801D02*
G75*
G03*
X36865400Y-148571801I-500001J-1D01*
G01*
X80515401Y-110971801D02*
X80515401Y-123971801D01*
X49559151Y-123974201D02*
G75*
G03*
X50059151Y-124474201I500001J1D01*
G01*
X83334151Y-130021801D02*
X83334151Y-143021801D01*
X50661601Y-145018201D02*
G75*
G03*
X51161601Y-145518201I500001J1D01*
G01*
X190052901Y-91921801D02*
X190052901Y-104921801D01*
X394052901Y-86371801D02*
G75*
G03*
X394552901Y-85871801I-1J500001D01*
G01*
X114352901Y-91421801D02*
G75*
G03*
X113852901Y-91921801I1J-500001D01*
G01*
X60677901Y-57796800D02*
G75*
G03*
X61177901Y-57296800I-1J500001D01*
G01*
X303515401Y-104921801D02*
G75*
G03*
X304015401Y-105421801I500001J1D01*
G01*
X302471801Y-124469401D02*
X315471801Y-124469401D01*
X47677901Y-72371801D02*
X60677901Y-72371801D01*
X228152901Y-44296801D02*
X228152901Y-57296800D01*
X166740401Y-129521801D02*
G75*
G03*
X166240401Y-130021801I1J-500001D01*
G01*
X264371651Y-148571801D02*
G75*
G03*
X263871651Y-149071801I1J-500001D01*
G01*
X238177901Y-72371801D02*
X251177901Y-72371801D01*
X311209601Y-130018201D02*
X311209601Y-143018201D01*
X115539551Y-148564002D02*
G75*
G03*
X115039551Y-149064002I1J-500001D01*
G01*
X235392951Y-162064001D02*
X235392951Y-149064002D01*
X138165401Y-110471801D02*
X151165400Y-110471801D01*
X381052901Y-43796801D02*
G75*
G03*
X380552901Y-44296801I1J-500001D01*
G01*
X256727901Y-85871801D02*
G75*
G03*
X257227901Y-86371801I500001J1D01*
G01*
X161477901Y-72871801D02*
X161477901Y-85871801D01*
X194815401Y-110971801D02*
X194815401Y-123971801D01*
X23865401Y-162571801D02*
X36865400Y-162571801D01*
X394052901Y-162571801D02*
G75*
G03*
X394552901Y-162071801I-1J500001D01*
G01*
X233798451Y-162564001D02*
X234892951Y-162564001D01*
X161190401Y-130021801D02*
X161190401Y-143021801D01*
X60677901Y-86371801D02*
G75*
G03*
X61177901Y-85871801I-1J500001D01*
G01*
X85277901Y-44296801D02*
X85277901Y-57296800D01*
X317409801Y-125969401D02*
G75*
G03*
X317909801Y-126469401I500001J1D01*
G01*
X166240401Y-143021801D02*
G75*
G03*
X166740401Y-143521801I500001J1D01*
G01*
X47677901Y-86371801D02*
X60677901Y-86371801D01*
X180240401Y-130021801D02*
G75*
G03*
X179740401Y-129521801I-500001J-1D01*
G01*
X50059151Y-162571801D02*
X63059151Y-162571801D01*
X190052901Y-44296801D02*
X190052901Y-57296800D01*
X66727901Y-72371801D02*
G75*
G03*
X66227901Y-72871801I1J-500001D01*
G01*
X213865401Y-110971801D02*
X213865401Y-123971801D01*
X171502901Y-91421801D02*
X184502901Y-91421801D01*
X240559151Y-148571801D02*
X253559151Y-148571801D01*
X217614901Y-159077451D02*
X186947201Y-159077451D01*
X151952901Y-91921801D02*
X151952901Y-104921801D01*
X394552901Y-72871801D02*
X394552901Y-85871801D01*
X90040401Y-143021801D02*
G75*
G03*
X90540401Y-143521801I500001J1D01*
G01*
X261990401Y-129521801D02*
X274990401Y-129521801D01*
X381052901Y-72371801D02*
G75*
G03*
X380552901Y-72871801I1J-500001D01*
G01*
X280252901Y-91921801D02*
G75*
G03*
X279752901Y-91421801I-500001J-1D01*
G01*
X302414901Y-88371801D02*
G75*
G03*
X302914901Y-87871801I-1J500001D01*
G01*
X23865401Y-110471801D02*
X36865400Y-110471801D01*
X94015401Y-124471801D02*
G75*
G03*
X94515401Y-123971801I-1J500001D01*
G01*
X252465401Y-110471801D02*
X265465401Y-110471801D01*
X129121651Y-147057401D02*
G75*
G03*
X128621651Y-146557401I-500001J-1D01*
G01*
X67917551Y-162564001D02*
X69012051Y-162564001D01*
X275490401Y-130021801D02*
G75*
G03*
X274990401Y-129521801I-500001J-1D01*
G01*
X256440401Y-130021801D02*
G75*
G03*
X255940401Y-129521801I-500001J-1D01*
G01*
X51161601Y-127513401D02*
X57161601Y-127513401D01*
X325496651Y-149071801D02*
X325496651Y-162071801D01*
X89752901Y-91921801D02*
G75*
G03*
X89252901Y-91421801I-500001J-1D01*
G01*
X123377901Y-57296800D02*
G75*
G03*
X123877901Y-57796800I500001J1D01*
G01*
X285802900Y-105421801D02*
X298802901Y-105421801D01*
X283811051Y-149064002D02*
G75*
G03*
X283311051Y-148564002I-500001J-1D01*
G01*
X157215401Y-124471801D02*
X170215401Y-124471801D01*
X349432200Y-110470601D02*
X388323502Y-110470601D01*
X291721651Y-110971801D02*
X291721651Y-123971801D01*
X209102901Y-91921801D02*
X209102901Y-104921801D01*
X129121651Y-147057401D02*
X129121651Y-164071801D01*
X324409801Y-108964601D02*
X324409801Y-125969401D01*
X361502901Y-143021801D02*
G75*
G03*
X362002901Y-143521801I500001J1D01*
G01*
X67417551Y-162064001D02*
X67417551Y-149064002D01*
X61177901Y-44296801D02*
X61177901Y-57296800D01*
X302471801Y-110469401D02*
X315471801Y-110469401D01*
X122121651Y-147057401D02*
X122121651Y-164071801D01*
X194815401Y-123971801D02*
G75*
G03*
X195315401Y-124471801I500001J1D01*
G01*
X194527901Y-72871801D02*
X194527901Y-85871801D01*
X123877901Y-86371801D02*
X136877901Y-86371801D01*
X97184151Y-162071801D02*
G75*
G03*
X97684151Y-162571801I500001J1D01*
G01*
X51161601Y-145518201D02*
X57161601Y-145518201D01*
X394552901Y-44296801D02*
X394552901Y-57296800D01*
X362002901Y-91420601D02*
G75*
G03*
X361502901Y-91920601I1J-500001D01*
G01*
X85334151Y-130021801D02*
G75*
G03*
X84834151Y-129521801I-500001J-1D01*
G01*
X256440401Y-130021801D02*
X256440401Y-143021801D01*
X73099601Y-130018201D02*
X73099601Y-143018201D01*
X238177901Y-86371801D02*
X251177901Y-86371801D01*
X23865401Y-91421801D02*
X36865400Y-91421801D01*
X94802901Y-91921801D02*
X94802901Y-104921801D01*
X232915401Y-110971801D02*
X232915401Y-123971801D01*
X128621651Y-146557401D02*
X122621651Y-146557401D01*
X138165401Y-124471801D02*
X151165400Y-124471801D01*
X299302901Y-91921801D02*
G75*
G03*
X298802901Y-91421801I-500001J-1D01*
G01*
X185790401Y-143521801D02*
X198790401Y-143521801D01*
X171002901Y-104921801D02*
G75*
G03*
X171502901Y-105421801I500001J1D01*
G01*
X123377901Y-72871801D02*
X123377901Y-85871801D01*
X375502901Y-72871801D02*
G75*
G03*
X375002901Y-72371801I-500001J-1D01*
G01*
X66227901Y-72871801D02*
X66227901Y-85871801D01*
X171002901Y-57296800D02*
G75*
G03*
X171502901Y-57796800I500001J1D01*
G01*
X296414901Y-70367001D02*
G75*
G03*
X295914901Y-70867001I1J-500001D01*
G01*
X229121651Y-147057401D02*
X229121651Y-164071801D01*
X342452901Y-104920601D02*
G75*
G03*
X342952901Y-105420601I500001J1D01*
G01*
X179740401Y-143521801D02*
G75*
G03*
X180240401Y-143021801I-1J500001D01*
G01*
X342952901Y-91420601D02*
X355952901Y-91420601D01*
X110684151Y-162571801D02*
G75*
G03*
X111184151Y-162071801I-1J500001D01*
G01*
X142140401Y-130021801D02*
G75*
G03*
X141640401Y-129521801I-500001J-1D01*
G01*
X37365400Y-72871801D02*
G75*
G03*
X36865400Y-72371801I-500001J-1D01*
G01*
X189765401Y-110971801D02*
G75*
G03*
X189265401Y-110471801I-500001J-1D01*
G01*
X320290901Y-70367001D02*
X326290901Y-70367001D01*
X362002901Y-129521801D02*
G75*
G03*
X361502901Y-130021801I1J-500001D01*
G01*
X94515401Y-110971801D02*
X94515401Y-123971801D01*
X261490401Y-130021801D02*
X261490401Y-143021801D01*
X174977901Y-86371801D02*
G75*
G03*
X175477901Y-85871801I-1J500001D01*
G01*
X317409801Y-108964601D02*
X317409801Y-125969401D01*
X356452901Y-91920601D02*
X356452901Y-104920601D01*
X57661601Y-128013401D02*
G75*
G03*
X57161601Y-127513401I-500001J-1D01*
G01*
X117827901Y-57796800D02*
G75*
G03*
X118327901Y-57296800I-1J500001D01*
G01*
X388823502Y-110970601D02*
X388823502Y-123970601D01*
X97184151Y-149071801D02*
X97184151Y-162071801D01*
X137377901Y-72871801D02*
G75*
G03*
X136877901Y-72371801I-500001J-1D01*
G01*
X218627901Y-72871801D02*
X218627901Y-85871801D01*
X394552901Y-44296801D02*
G75*
G03*
X394052901Y-43796801I-500001J-1D01*
G01*
X251677901Y-72871801D02*
X251677901Y-85871801D01*
X48340401Y-91921801D02*
X48340401Y-104921801D01*
X326221651Y-123971801D02*
G75*
G03*
X326721651Y-124471801I500001J1D01*
G01*
X305515401Y-91921801D02*
G75*
G03*
X305015401Y-91421801I-500001J-1D01*
G01*
X241652901Y-57796800D02*
G75*
G03*
X242152901Y-57296800I-1J500001D01*
G01*
X57161601Y-145518201D02*
G75*
G03*
X57661601Y-145018201I-1J500001D01*
G01*
X355952901Y-105420601D02*
G75*
G03*
X356452901Y-104920601I-1J500001D01*
G01*
X73871651Y-148571801D02*
G75*
G03*
X73371651Y-149071801I1J-500001D01*
G01*
X375502901Y-149071801D02*
X375502901Y-162071801D01*
X314377901Y-43796801D02*
G75*
G03*
X313877901Y-44296801I1J-500001D01*
G01*
X394552901Y-91920601D02*
X394552901Y-104920601D01*
X70040401Y-105421801D02*
X71040401Y-105421801D01*
X255940401Y-143521801D02*
G75*
G03*
X256440401Y-143021801I-1J500001D01*
G01*
X276277901Y-57796800D02*
X289277901Y-57796800D01*
X325496651Y-149071801D02*
G75*
G03*
X324996651Y-148571801I-500001J-1D01*
G01*
X146402901Y-105421801D02*
G75*
G03*
X146902901Y-104921801I-1J500001D01*
G01*
X238177901Y-72371801D02*
G75*
G03*
X237677901Y-72871801I1J-500001D01*
G01*
X168621651Y-149071801D02*
X168621651Y-162071801D01*
X319647601Y-128013401D02*
G75*
G03*
X319147601Y-127513401I-500001J-1D01*
G01*
X304352901Y-72871801D02*
X304352901Y-85871801D01*
X214365401Y-110471801D02*
X227365401Y-110471801D01*
X285459150Y-129521801D02*
G75*
G03*
X284959150Y-130021801I1J-500001D01*
G01*
X260000051Y-149064002D02*
G75*
G03*
X259500051Y-148564002I-500001J-1D01*
G01*
X142927901Y-86371801D02*
X155927901Y-86371801D01*
X50059151Y-148571801D02*
G75*
G03*
X49559151Y-149071801I1J-500001D01*
G01*
X307122051Y-162564001D02*
G75*
G03*
X307622051Y-162064001I-1J500001D01*
G01*
X315471801Y-124469401D02*
G75*
G03*
X315971801Y-123969401I-1J500001D01*
G01*
X47677901Y-57796800D02*
X60677901Y-57796800D01*
D10*
X11111800Y-170645500D02*
G75*
G03*
X15080300Y-174614000I3968501J1D01*
G01*
D11*
X109090401Y-143021801D02*
G75*
G03*
X109590401Y-143521801I500001J1D01*
G01*
X47177901Y-85871801D02*
G75*
G03*
X47677901Y-86371801I500001J1D01*
G01*
X242940401Y-143521801D02*
X255940401Y-143521801D01*
X222121651Y-164071801D02*
G75*
G03*
X222621651Y-164571801I500001J1D01*
G01*
X190552901Y-105421801D02*
X203552901Y-105421801D01*
X289277901Y-86371801D02*
G75*
G03*
X289777901Y-85871801I-1J500001D01*
G01*
X304852901Y-72371801D02*
G75*
G03*
X304352901Y-72871801I1J-500001D01*
G01*
X326715401Y-104921801D02*
G75*
G03*
X327215401Y-105421801I500001J1D01*
G01*
X80515401Y-123971801D02*
G75*
G03*
X81015401Y-124471801I500001J1D01*
G01*
X375502901Y-130021801D02*
X375502901Y-143021801D01*
X362002901Y-72371801D02*
G75*
G03*
X361502901Y-72871801I1J-500001D01*
G01*
X99565401Y-123971801D02*
G75*
G03*
X100065401Y-124471801I500001J1D01*
G01*
X284959150Y-130021801D02*
X284959150Y-143021801D01*
X73871651Y-148571801D02*
X86871651Y-148571801D01*
X104040401Y-130021801D02*
X104040401Y-143021801D01*
X362002901Y-143521801D02*
X375002901Y-143521801D01*
X61177901Y-44296801D02*
G75*
G03*
X60677901Y-43796801I-500001J-1D01*
G01*
X257905551Y-162064001D02*
G75*
G03*
X258405551Y-162564001I500001J1D01*
G01*
X276277901Y-43796801D02*
X289277901Y-43796801D01*
X47677901Y-72371801D02*
G75*
G03*
X47177901Y-72871801I1J-500001D01*
G01*
X171502901Y-43796801D02*
G75*
G03*
X171002901Y-44296801I1J-500001D01*
G01*
X59599601Y-129518201D02*
G75*
G03*
X59099601Y-130018201I1J-500001D01*
G01*
X90540401Y-129521801D02*
G75*
G03*
X90040401Y-130021801I1J-500001D01*
G01*
X326790901Y-70867001D02*
G75*
G03*
X326290901Y-70367001I-500001J-1D01*
G01*
X237677901Y-85871801D02*
G75*
G03*
X238177901Y-86371801I500001J1D01*
G01*
X52440401Y-105421801D02*
X65440401Y-105421801D01*
X119115401Y-110471801D02*
G75*
G03*
X118615401Y-110971801I1J-500001D01*
G01*
X48334151Y-143521801D02*
G75*
G03*
X48834151Y-143021801I-1J500001D01*
G01*
X208815401Y-110971801D02*
G75*
G03*
X208315401Y-110471801I-500001J-1D01*
G01*
X311996651Y-162571801D02*
X324996651Y-162571801D01*
X257227901Y-72371801D02*
G75*
G03*
X256727901Y-72871801I1J-500001D01*
G01*
X342952901Y-105420601D02*
X355952901Y-105420601D01*
X71540401Y-91921801D02*
G75*
G03*
X71040401Y-91421801I-500001J-1D01*
G01*
X169121651Y-162571801D02*
X182121651Y-162571801D01*
X312647601Y-128013401D02*
X312647601Y-145018201D01*
X199577901Y-72871801D02*
X199577901Y-85871801D01*
X309615401Y-91421801D02*
G75*
G03*
X309115401Y-91921801I1J-500001D01*
G01*
X361502901Y-130021801D02*
X361502901Y-143021801D01*
X37365400Y-149071801D02*
X37365400Y-162071801D01*
X213077901Y-86371801D02*
G75*
G03*
X213577901Y-85871801I-1J500001D01*
G01*
X156427901Y-44296801D02*
G75*
G03*
X155927901Y-43796801I-500001J-1D01*
G01*
X247702901Y-91421801D02*
X260702901Y-91421801D01*
X166740401Y-143521801D02*
X179740401Y-143521801D01*
X289721651Y-123971801D02*
G75*
G03*
X290221651Y-124471801I500001J1D01*
G01*
X214365401Y-124471801D02*
X227365401Y-124471801D01*
X142927901Y-57796800D02*
X155927901Y-57796800D01*
X254059151Y-149071801D02*
G75*
G03*
X253559151Y-148571801I-500001J-1D01*
G01*
X242152901Y-44296801D02*
G75*
G03*
X241652901Y-43796801I-500001J-1D01*
G01*
X68321651Y-110971801D02*
X68321651Y-123971801D01*
X160690401Y-143521801D02*
G75*
G03*
X161190401Y-143021801I-1J500001D01*
G01*
X151165400Y-124471801D02*
G75*
G03*
X151665400Y-123971801I-1J500001D01*
G01*
X132615401Y-110971801D02*
X132615401Y-123971801D01*
X247702901Y-91421801D02*
G75*
G03*
X247202901Y-91921801I1J-500001D01*
G01*
X36865400Y-86371801D02*
G75*
G03*
X37365400Y-85871801I-1J500001D01*
G01*
X308827901Y-44296801D02*
X308827901Y-57296800D01*
X138165401Y-110471801D02*
G75*
G03*
X137665401Y-110971801I1J-500001D01*
G01*
X291221651Y-124471801D02*
G75*
G03*
X291721651Y-123971801I-1J500001D01*
G01*
X361502901Y-149071801D02*
X361502901Y-162071801D01*
X81015401Y-110471801D02*
X94015401Y-110471801D01*
X117134051Y-149064002D02*
G75*
G03*
X116634051Y-148564002I-500001J-1D01*
G01*
X289777901Y-72871801D02*
G75*
G03*
X289277901Y-72371801I-500001J-1D01*
G01*
X328715401Y-91921801D02*
X328715401Y-104921801D01*
X204340401Y-130021801D02*
X204340401Y-143021801D01*
X326721651Y-124471801D02*
X327721651Y-124471801D01*
X190052901Y-104921801D02*
G75*
G03*
X190552901Y-105421801I500001J1D01*
G01*
X190552901Y-91421801D02*
X203552901Y-91421801D01*
X327877901Y-44296801D02*
X327877901Y-57296800D01*
X151952901Y-104921801D02*
G75*
G03*
X152452901Y-105421801I500001J1D01*
G01*
X113852901Y-104921801D02*
G75*
G03*
X114352901Y-105421801I500001J1D01*
G01*
X75752901Y-91921801D02*
X75752901Y-104921801D01*
X381052901Y-148571801D02*
X394052901Y-148571801D01*
X242152901Y-91921801D02*
G75*
G03*
X241652901Y-91421801I-500001J-1D01*
G01*
X254059151Y-149071801D02*
X254059151Y-162071801D01*
X171502901Y-91421801D02*
G75*
G03*
X171002901Y-91921801I1J-500001D01*
G01*
X301684151Y-149071801D02*
G75*
G03*
X301184151Y-148571801I-500001J-1D01*
G01*
X217840401Y-143521801D02*
G75*
G03*
X218340401Y-143021801I-1J500001D01*
G01*
X136877901Y-86371801D02*
G75*
G03*
X137377901Y-85871801I-1J500001D01*
G01*
X304015401Y-105421801D02*
X305015401Y-105421801D01*
X381052901Y-43796801D02*
X394052901Y-43796801D01*
X108802901Y-91921801D02*
X108802901Y-104921801D01*
X342452901Y-149071801D02*
X342452901Y-162071801D01*
X71540401Y-91921801D02*
X71540401Y-104921801D01*
X232915401Y-123971801D02*
G75*
G03*
X233415401Y-124471801I500001J1D01*
G01*
X155927901Y-86371801D02*
G75*
G03*
X156427901Y-85871801I-1J500001D01*
G01*
X362002901Y-91420601D02*
X375002901Y-91420601D01*
X327215401Y-91421801D02*
X328215401Y-91421801D01*
X47177901Y-44296801D02*
X47177901Y-57296800D01*
X185790401Y-129521801D02*
G75*
G03*
X185290401Y-130021801I1J-500001D01*
G01*
X170715401Y-110971801D02*
X170715401Y-123971801D01*
X342952901Y-43796801D02*
G75*
G03*
X342452901Y-44296801I1J-500001D01*
G01*
X295771601Y-128013401D02*
G75*
G03*
X295271601Y-127513401I-500001J-1D01*
G01*
X223102901Y-44296801D02*
X223102901Y-57296800D01*
X261990401Y-129521801D02*
G75*
G03*
X261490401Y-130021801I1J-500001D01*
G01*
X342952901Y-57796800D02*
X355952901Y-57796800D01*
X185290401Y-130021801D02*
X185290401Y-143021801D01*
X307622051Y-162064001D02*
X307622051Y-149064002D01*
X317909801Y-108464601D02*
X323909801Y-108464601D01*
X293533801Y-125969401D02*
G75*
G03*
X294033801Y-126469401I500001J1D01*
G01*
X312647601Y-145018201D02*
G75*
G03*
X313147601Y-145518201I500001J1D01*
G01*
X23365401Y-72871801D02*
X23365401Y-85871801D01*
X328221651Y-110971801D02*
X328221651Y-123971801D01*
X289777901Y-44296801D02*
G75*
G03*
X289277901Y-43796801I-500001J-1D01*
G01*
X233415401Y-110471801D02*
G75*
G03*
X232915401Y-110971801I1J-500001D01*
G01*
X99565401Y-110971801D02*
X99565401Y-123971801D01*
X362002901Y-148571801D02*
G75*
G03*
X361502901Y-149071801I1J-500001D01*
G01*
X296414901Y-88371801D02*
X302414901Y-88371801D01*
X46340401Y-104921801D02*
G75*
G03*
X46840401Y-105421801I500001J1D01*
G01*
X123877901Y-43796801D02*
G75*
G03*
X123377901Y-44296801I1J-500001D01*
G01*
X300033801Y-126469401D02*
G75*
G03*
X300533801Y-125969401I-1J500001D01*
G01*
X69540401Y-104921801D02*
G75*
G03*
X70040401Y-105421801I500001J1D01*
G01*
X116634051Y-162564001D02*
G75*
G03*
X117134051Y-162064001I-1J500001D01*
G01*
X189765401Y-110971801D02*
X189765401Y-123971801D01*
X356452901Y-149071801D02*
G75*
G03*
X355952901Y-148571801I-500001J-1D01*
G01*
X233415401Y-124471801D02*
X246415401Y-124471801D01*
X137377901Y-72871801D02*
X137377901Y-85871801D01*
X156427901Y-72871801D02*
G75*
G03*
X155927901Y-72371801I-500001J-1D01*
G01*
X296414901Y-70367001D02*
X302414901Y-70367001D01*
X47840401Y-105421801D02*
G75*
G03*
X48340401Y-104921801I-1J500001D01*
G01*
X198790401Y-143521801D02*
G75*
G03*
X199290401Y-143021801I-1J500001D01*
G01*
X184502901Y-105421801D02*
G75*
G03*
X185002901Y-104921801I-1J500001D01*
G01*
X217614901Y-159077451D02*
G75*
G03*
X218114901Y-158577451I-1J500001D01*
G01*
X307622051Y-149064002D02*
G75*
G03*
X307122051Y-148564002I-500001J-1D01*
G01*
X104827901Y-43796801D02*
X117827901Y-43796801D01*
X190552901Y-43796801D02*
G75*
G03*
X190052901Y-44296801I1J-500001D01*
G01*
X228652901Y-43796801D02*
X241652901Y-43796801D01*
X311996651Y-148571801D02*
G75*
G03*
X311496651Y-149071801I1J-500001D01*
G01*
X63559151Y-149071801D02*
G75*
G03*
X63059151Y-148571801I-500001J-1D01*
G01*
X297209601Y-130018201D02*
X297209601Y-143018201D01*
X100065401Y-124471801D02*
X113065401Y-124471801D01*
X122621651Y-146557401D02*
G75*
G03*
X122121651Y-147057401I1J-500001D01*
G01*
X194027901Y-86371801D02*
G75*
G03*
X194527901Y-85871801I-1J500001D01*
G01*
X311209601Y-130018201D02*
G75*
G03*
X310709601Y-129518201I-500001J-1D01*
G01*
X73871651Y-162571801D02*
X86871651Y-162571801D01*
X51940401Y-104921801D02*
G75*
G03*
X52440401Y-105421801I500001J1D01*
G01*
X285802900Y-91421801D02*
G75*
G03*
X285302900Y-91921801I1J-500001D01*
G01*
X109090401Y-130021801D02*
X109090401Y-143021801D01*
X218340401Y-130021801D02*
X218340401Y-143021801D01*
X294827901Y-57296800D02*
G75*
G03*
X295327901Y-57796800I500001J1D01*
G01*
X69512051Y-149064002D02*
G75*
G03*
X69012051Y-148564002I-500001J-1D01*
G01*
X128140401Y-143021801D02*
G75*
G03*
X128640401Y-143521801I500001J1D01*
G01*
X234892951Y-162564001D02*
G75*
G03*
X235392951Y-162064001I-1J500001D01*
G01*
X209602901Y-43796801D02*
X222602901Y-43796801D01*
X73371651Y-162071801D02*
G75*
G03*
X73871651Y-162571801I500001J1D01*
G01*
X223102901Y-91921801D02*
G75*
G03*
X222602901Y-91421801I-500001J-1D01*
G01*
X260702901Y-105421801D02*
G75*
G03*
X261202901Y-104921801I-1J500001D01*
G01*
X320290901Y-88371801D02*
X326290901Y-88371801D01*
X203552901Y-105421801D02*
G75*
G03*
X204052901Y-104921801I-1J500001D01*
G01*
D10*
X402405900Y-174614000D02*
G75*
G03*
X406374400Y-170645500I-1J3968501D01*
G01*
D11*
X152452901Y-91421801D02*
G75*
G03*
X151952901Y-91921801I1J-500001D01*
G01*
X67917551Y-148564002D02*
G75*
G03*
X67417551Y-149064002I1J-500001D01*
G01*
X326790901Y-70867001D02*
X326790901Y-87871801D01*
X283311051Y-162564001D02*
G75*
G03*
X283811051Y-162064001I-1J500001D01*
G01*
X375502901Y-72871801D02*
X375502901Y-85871801D01*
X356452901Y-44296801D02*
X356452901Y-57296800D01*
X75752901Y-104921801D02*
G75*
G03*
X76252901Y-105421801I500001J1D01*
G01*
X327215401Y-105421801D02*
X328215401Y-105421801D01*
X75037601Y-145518201D02*
X81037601Y-145518201D01*
X326290901Y-88371801D02*
G75*
G03*
X326790901Y-87871801I-1J500001D01*
G01*
X169121651Y-148571801D02*
X182121651Y-148571801D01*
X281716551Y-162064001D02*
X281716551Y-149064002D01*
X242440401Y-130021801D02*
X242440401Y-143021801D01*
X289271601Y-127513401D02*
G75*
G03*
X288771601Y-128013401I1J-500001D01*
G01*
X104327901Y-57296800D02*
G75*
G03*
X104827901Y-57796800I500001J1D01*
G01*
X109590401Y-129521801D02*
G75*
G03*
X109090401Y-130021801I1J-500001D01*
G01*
X228621651Y-164571801D02*
G75*
G03*
X229121651Y-164071801I-1J500001D01*
G01*
X89252901Y-105421801D02*
G75*
G03*
X89752901Y-104921801I-1J500001D01*
G01*
X111184151Y-149071801D02*
X111184151Y-162071801D01*
X289777901Y-72871801D02*
X289777901Y-85871801D01*
X109590401Y-129521801D02*
X122590401Y-129521801D01*
X123377901Y-44296801D02*
X123377901Y-57296800D01*
X90540401Y-129521801D02*
X103540401Y-129521801D01*
X342452901Y-57296800D02*
G75*
G03*
X342952901Y-57796800I500001J1D01*
G01*
X323909801Y-126469401D02*
G75*
G03*
X324409801Y-125969401I-1J500001D01*
G01*
X305527551Y-162064001D02*
X305527551Y-149064002D01*
X165952901Y-91921801D02*
G75*
G03*
X165452901Y-91421801I-500001J-1D01*
G01*
X375002901Y-105420601D02*
G75*
G03*
X375502901Y-104920601I-1J500001D01*
G01*
X95302901Y-105421801D02*
X108302901Y-105421801D01*
X142927901Y-72371801D02*
X155927901Y-72371801D01*
X23865401Y-124471801D02*
X36865400Y-124471801D01*
X47334151Y-129521801D02*
G75*
G03*
X46834151Y-130021801I1J-500001D01*
G01*
X146902901Y-91921801D02*
X146902901Y-104921801D01*
X204052901Y-44296801D02*
G75*
G03*
X203552901Y-43796801I-500001J-1D01*
G01*
X394052901Y-105420601D02*
G75*
G03*
X394552901Y-104920601I-1J500001D01*
G01*
X380552901Y-72871801D02*
X380552901Y-85871801D01*
X23865401Y-129521801D02*
X36865400Y-129521801D01*
X321959151Y-129521801D02*
G75*
G03*
X321459151Y-130021801I1J-500001D01*
G01*
X381052901Y-105420601D02*
X394052901Y-105420601D01*
X240559151Y-148571801D02*
G75*
G03*
X240059151Y-149071801I1J-500001D01*
G01*
X217614901Y-152077451D02*
X186947201Y-152077451D01*
X381052901Y-86371801D02*
X394052901Y-86371801D01*
X71040401Y-105421801D02*
G75*
G03*
X71540401Y-104921801I-1J500001D01*
G01*
X313877901Y-57296800D02*
G75*
G03*
X314377901Y-57796800I500001J1D01*
G01*
X48834151Y-130021801D02*
X48834151Y-143021801D01*
X247702901Y-105421801D02*
X260702901Y-105421801D01*
X67821651Y-124471801D02*
G75*
G03*
X68321651Y-123971801I-1J500001D01*
G01*
X128640401Y-143521801D02*
X141640401Y-143521801D01*
X277371651Y-162571801D02*
G75*
G03*
X277871651Y-162071801I-1J500001D01*
G01*
X132902901Y-104921801D02*
G75*
G03*
X133402901Y-105421801I500001J1D01*
G01*
X295914901Y-87871801D02*
X295914901Y-70867001D01*
X320290901Y-70367001D02*
G75*
G03*
X319790901Y-70867001I1J-500001D01*
G01*
X156715401Y-123971801D02*
G75*
G03*
X157215401Y-124471801I500001J1D01*
G01*
X276277901Y-72371801D02*
G75*
G03*
X275777901Y-72871801I1J-500001D01*
G01*
X199290401Y-130021801D02*
G75*
G03*
X198790401Y-129521801I-500001J-1D01*
G01*
X274990401Y-143521801D02*
G75*
G03*
X275490401Y-143021801I-1J500001D01*
G01*
X285459150Y-143521801D02*
X286459150Y-143521801D01*
X70040401Y-91421801D02*
G75*
G03*
X69540401Y-91921801I1J-500001D01*
G01*
X115039551Y-162064001D02*
X115039551Y-149064002D01*
X123090401Y-130021801D02*
X123090401Y-143021801D01*
X242152901Y-91921801D02*
X242152901Y-104921801D01*
X290221651Y-110471801D02*
G75*
G03*
X289721651Y-110971801I1J-500001D01*
G01*
X318352901Y-72871801D02*
G75*
G03*
X317852901Y-72371801I-500001J-1D01*
G01*
X156715401Y-110971801D02*
X156715401Y-123971801D01*
X37365400Y-130021801D02*
G75*
G03*
X36865400Y-129521801I-500001J-1D01*
G01*
X46840401Y-91421801D02*
G75*
G03*
X46340401Y-91921801I1J-500001D01*
G01*
X302914901Y-87871801D02*
X302914901Y-70867001D01*
X142427901Y-44296801D02*
X142427901Y-57296800D01*
X293533801Y-125969401D02*
X293533801Y-108964601D01*
X303515401Y-91921801D02*
X303515401Y-104921801D01*
X326721651Y-110471801D02*
X327721651Y-110471801D01*
X137377901Y-44296801D02*
X137377901Y-57296800D01*
X93323051Y-149064002D02*
G75*
G03*
X92823051Y-148564002I-500001J-1D01*
G01*
X342452901Y-85871801D02*
G75*
G03*
X342952901Y-86371801I500001J1D01*
G01*
X381052901Y-91420601D02*
X394052901Y-91420601D01*
X171502901Y-43796801D02*
X184502901Y-43796801D01*
X342952901Y-86371801D02*
X355952901Y-86371801D01*
X314377901Y-57796800D02*
X327377901Y-57796800D01*
X228652901Y-91421801D02*
G75*
G03*
X228152901Y-91921801I1J-500001D01*
G01*
X219127901Y-86371801D02*
X232127901Y-86371801D01*
X111184151Y-149071801D02*
G75*
G03*
X110684151Y-148571801I-500001J-1D01*
G01*
X361502901Y-104920601D02*
G75*
G03*
X362002901Y-105420601I500001J1D01*
G01*
X147190401Y-130021801D02*
X147190401Y-143021801D01*
X261202901Y-91921801D02*
X261202901Y-104921801D01*
X313147601Y-127513401D02*
X319147601Y-127513401D01*
X219127901Y-72371801D02*
G75*
G03*
X218627901Y-72871801I1J-500001D01*
G01*
X228621651Y-164571801D02*
X222621651Y-164571801D01*
X81015401Y-110471801D02*
G75*
G03*
X80515401Y-110971801I1J-500001D01*
G01*
X48834151Y-130021801D02*
G75*
G03*
X48334151Y-129521801I-500001J-1D01*
G01*
X321959151Y-143521801D02*
X322959151Y-143521801D01*
X199290401Y-130021801D02*
X199290401Y-143021801D01*
X122121651Y-164071801D02*
G75*
G03*
X122621651Y-164571801I500001J1D01*
G01*
X381052901Y-162571801D02*
X394052901Y-162571801D01*
X104827901Y-86371801D02*
X117827901Y-86371801D01*
X73099601Y-130018201D02*
G75*
G03*
X72599601Y-129518201I-500001J-1D01*
G01*
X309615401Y-105421801D02*
X322615401Y-105421801D01*
X232627901Y-72871801D02*
G75*
G03*
X232127901Y-72371801I-500001J-1D01*
G01*
X361502901Y-91920601D02*
X361502901Y-104920601D01*
X49559151Y-149071801D02*
X49559151Y-162071801D01*
X90540401Y-143521801D02*
X103540401Y-143521801D01*
X170215401Y-124471801D02*
G75*
G03*
X170715401Y-123971801I-1J500001D01*
G01*
X275777901Y-57296800D02*
G75*
G03*
X276277901Y-57796800I500001J1D01*
G01*
X99277901Y-72871801D02*
X99277901Y-85871801D01*
X132115401Y-124471801D02*
G75*
G03*
X132615401Y-123971801I-1J500001D01*
G01*
X75037601Y-127513401D02*
G75*
G03*
X74537601Y-128013401I1J-500001D01*
G01*
X67917551Y-148564002D02*
X69012051Y-148564002D01*
X190552901Y-91421801D02*
G75*
G03*
X190052901Y-91921801I1J-500001D01*
G01*
X305515401Y-91921801D02*
X305515401Y-104921801D01*
X348932200Y-123970601D02*
G75*
G03*
X349432200Y-124470601I500001J1D01*
G01*
X83334151Y-143021801D02*
G75*
G03*
X83834151Y-143521801I500001J1D01*
G01*
X237677901Y-72871801D02*
X237677901Y-85871801D01*
X164276601Y-159051751D02*
G75*
G03*
X164776601Y-158551751I-1J500001D01*
G01*
X222121651Y-147057401D02*
X222121651Y-164071801D01*
X355952901Y-162571801D02*
G75*
G03*
X356452901Y-162071801I-1J500001D01*
G01*
X85777901Y-57796800D02*
X98777901Y-57796800D01*
X218627901Y-85871801D02*
G75*
G03*
X219127901Y-86371801I500001J1D01*
G01*
X180527901Y-85871801D02*
G75*
G03*
X181027901Y-86371801I500001J1D01*
G01*
X76252901Y-91421801D02*
G75*
G03*
X75752901Y-91921801I1J-500001D01*
G01*
X289271601Y-145518201D02*
X295271601Y-145518201D01*
X282216551Y-162564001D02*
X283311051Y-162564001D01*
X97684151Y-148571801D02*
G75*
G03*
X97184151Y-149071801I1J-500001D01*
G01*
X285302900Y-91921801D02*
X285302900Y-104921801D01*
X91728551Y-148564002D02*
X92823051Y-148564002D01*
X305015401Y-105421801D02*
G75*
G03*
X305515401Y-104921801I-1J500001D01*
G01*
X123877901Y-57796800D02*
X136877901Y-57796800D01*
X349432200Y-124470601D02*
X388323502Y-124470601D01*
X69540401Y-91921801D02*
X69540401Y-104921801D01*
X237390401Y-130021801D02*
G75*
G03*
X236890401Y-129521801I-500001J-1D01*
G01*
X83834151Y-143521801D02*
X84834151Y-143521801D01*
X85777901Y-72371801D02*
G75*
G03*
X85277901Y-72871801I1J-500001D01*
G01*
X233298451Y-162064001D02*
X233298451Y-149064002D01*
X91728551Y-148564002D02*
G75*
G03*
X91228551Y-149064002I1J-500001D01*
G01*
X315971801Y-110969401D02*
G75*
G03*
X315471801Y-110469401I-500001J-1D01*
G01*
X115039551Y-162064001D02*
G75*
G03*
X115539551Y-162564001I500001J1D01*
G01*
X263871651Y-149071801D02*
X263871651Y-162071801D01*
X133402901Y-91421801D02*
X146402901Y-91421801D01*
X128640401Y-129521801D02*
G75*
G03*
X128140401Y-130021801I1J-500001D01*
G01*
X301971801Y-110969401D02*
X301971801Y-123969401D01*
X66227901Y-85871801D02*
G75*
G03*
X66727901Y-86371801I500001J1D01*
G01*
X270727901Y-72871801D02*
G75*
G03*
X270227901Y-72371801I-500001J-1D01*
G01*
X266252901Y-91921801D02*
X266252901Y-104921801D01*
X59099601Y-130018201D02*
X59099601Y-143018201D01*
X309615401Y-91421801D02*
X322615401Y-91421801D01*
X23865401Y-72371801D02*
G75*
G03*
X23365401Y-72871801I1J-500001D01*
G01*
X256727901Y-72871801D02*
X256727901Y-85871801D01*
X79727901Y-86371801D02*
G75*
G03*
X80227901Y-85871801I-1J500001D01*
G01*
X282216551Y-148564002D02*
X283311051Y-148564002D01*
X36865400Y-162571801D02*
G75*
G03*
X37365400Y-162071801I-1J500001D01*
G01*
X233415401Y-110471801D02*
X246415401Y-110471801D01*
X119115401Y-124471801D02*
X132115401Y-124471801D01*
X223102901Y-91921801D02*
X223102901Y-104921801D01*
X209602901Y-91421801D02*
X222602901Y-91421801D01*
X298802901Y-105421801D02*
G75*
G03*
X299302901Y-104921801I-1J500001D01*
G01*
X321459151Y-130021801D02*
X321459151Y-143021801D01*
X51940401Y-91921801D02*
X51940401Y-104921801D01*
X323459151Y-130021801D02*
G75*
G03*
X322959151Y-129521801I-500001J-1D01*
G01*
X294827901Y-44296801D02*
X294827901Y-57296800D01*
X91228551Y-162064001D02*
X91228551Y-149064002D01*
X315971801Y-110969401D02*
X315971801Y-123969401D01*
X349432200Y-110470601D02*
G75*
G03*
X348932200Y-110970601I1J-500001D01*
G01*
X80227901Y-72871801D02*
X80227901Y-85871801D01*
X91728551Y-162564001D02*
X92823051Y-162564001D01*
X314377901Y-43796801D02*
X327377901Y-43796801D01*
X104327901Y-72871801D02*
X104327901Y-85871801D01*
X257227901Y-86371801D02*
X270227901Y-86371801D01*
X356452901Y-149071801D02*
X356452901Y-162071801D01*
X375002901Y-162571801D02*
G75*
G03*
X375502901Y-162071801I-1J500001D01*
G01*
X104827901Y-57796800D02*
X117827901Y-57796800D01*
X203552901Y-57796800D02*
G75*
G03*
X204052901Y-57296800I-1J500001D01*
G01*
X242152901Y-44296801D02*
X242152901Y-57296800D01*
X182621651Y-149071801D02*
G75*
G03*
X182121651Y-148571801I-500001J-1D01*
G01*
X209102901Y-57296800D02*
G75*
G03*
X209602901Y-57796800I500001J1D01*
G01*
X247202901Y-91921801D02*
X247202901Y-104921801D01*
X171002901Y-91921801D02*
X171002901Y-104921801D01*
X252465401Y-110471801D02*
G75*
G03*
X251965401Y-110971801I1J-500001D01*
G01*
X233798451Y-148564002D02*
X234892951Y-148564002D01*
X74537601Y-128013401D02*
X74537601Y-145018201D01*
X326721651Y-110471801D02*
G75*
G03*
X326221651Y-110971801I1J-500001D01*
G01*
X49559151Y-162071801D02*
G75*
G03*
X50059151Y-162571801I500001J1D01*
G01*
X259500051Y-162564001D02*
G75*
G03*
X260000051Y-162064001I-1J500001D01*
G01*
X375502901Y-91920601D02*
X375502901Y-104920601D01*
X37365400Y-44296801D02*
G75*
G03*
X36865400Y-43796801I-500001J-1D01*
G01*
X375002901Y-86371801D02*
G75*
G03*
X375502901Y-85871801I-1J500001D01*
G01*
X37365400Y-91921801D02*
X37365400Y-104921801D01*
X342452901Y-44296801D02*
X342452901Y-57296800D01*
X171002901Y-44296801D02*
X171002901Y-57296800D01*
X133402901Y-91421801D02*
G75*
G03*
X132902901Y-91921801I1J-500001D01*
G01*
X362002901Y-129521801D02*
X375002901Y-129521801D01*
X46840401Y-91421801D02*
X47840401Y-91421801D01*
X156427901Y-44296801D02*
X156427901Y-57296800D01*
X85277901Y-57296800D02*
G75*
G03*
X85777901Y-57796800I500001J1D01*
G01*
X50059151Y-148571801D02*
X63059151Y-148571801D01*
X47177901Y-57296800D02*
G75*
G03*
X47677901Y-57796800I500001J1D01*
G01*
X380552901Y-57296800D02*
G75*
G03*
X381052901Y-57796800I500001J1D01*
G01*
X308827901Y-44296801D02*
G75*
G03*
X308327901Y-43796801I-500001J-1D01*
G01*
X258405551Y-162564001D02*
X259500051Y-162564001D01*
D10*
X15080300Y-31748000D02*
G75*
G03*
X11111800Y-35716500I1J-3968501D01*
G01*
D11*
X204840401Y-129521801D02*
G75*
G03*
X204340401Y-130021801I1J-500001D01*
G01*
X304015401Y-91421801D02*
X305015401Y-91421801D01*
X98777901Y-57796800D02*
G75*
G03*
X99277901Y-57296800I-1J500001D01*
G01*
X323459151Y-130021801D02*
X323459151Y-143021801D01*
X147190401Y-143021801D02*
G75*
G03*
X147690401Y-143521801I500001J1D01*
G01*
X304015401Y-91421801D02*
G75*
G03*
X303515401Y-91921801I1J-500001D01*
G01*
X362002901Y-86371801D02*
X375002901Y-86371801D01*
X23365401Y-123971801D02*
G75*
G03*
X23865401Y-124471801I500001J1D01*
G01*
X93323051Y-162064001D02*
X93323051Y-149064002D01*
X257227901Y-72371801D02*
X270227901Y-72371801D01*
X282216551Y-148564002D02*
G75*
G03*
X281716551Y-149064002I1J-500001D01*
G01*
X152452901Y-91421801D02*
X165452901Y-91421801D01*
X123877901Y-72371801D02*
G75*
G03*
X123377901Y-72871801I1J-500001D01*
G01*
X133608901Y-152051751D02*
G75*
G03*
X133108901Y-152551751I1J-500001D01*
G01*
X295327901Y-43796801D02*
X308327901Y-43796801D01*
X164776601Y-152551751D02*
X164776601Y-158551751D01*
X171502901Y-105421801D02*
X184502901Y-105421801D01*
X299302901Y-91921801D02*
X299302901Y-104921801D01*
X285302900Y-104921801D02*
G75*
G03*
X285802900Y-105421801I500001J1D01*
G01*
X271515401Y-110471801D02*
G75*
G03*
X271015401Y-110971801I1J-500001D01*
G01*
X323115401Y-91921801D02*
G75*
G03*
X322615401Y-91421801I-500001J-1D01*
G01*
X271015401Y-110971801D02*
X271015401Y-123971801D01*
X117134051Y-162064001D02*
X117134051Y-149064002D01*
X23865401Y-86371801D02*
X36865400Y-86371801D01*
X271515401Y-110471801D02*
X284515401Y-110471801D01*
X266752901Y-105421801D02*
X279752901Y-105421801D01*
X200077901Y-86371801D02*
X213077901Y-86371801D01*
X342452901Y-91920601D02*
X342452901Y-104920601D01*
X323115401Y-91921801D02*
X323115401Y-104921801D01*
X309115401Y-91921801D02*
X309115401Y-104921801D01*
X186447201Y-158577451D02*
G75*
G03*
X186947201Y-159077451I500001J1D01*
G01*
X185790401Y-129521801D02*
X198790401Y-129521801D01*
X265465401Y-124471801D02*
G75*
G03*
X265965401Y-123971801I-1J500001D01*
G01*
X306027551Y-148564002D02*
G75*
G03*
X305527551Y-149064002I1J-500001D01*
G01*
X59599601Y-129518201D02*
X72599601Y-129518201D01*
X251177901Y-86371801D02*
G75*
G03*
X251677901Y-85871801I-1J500001D01*
G01*
X322615401Y-105421801D02*
G75*
G03*
X323115401Y-104921801I-1J500001D01*
G01*
X165452901Y-105421801D02*
G75*
G03*
X165952901Y-104921801I-1J500001D01*
G01*
X355952901Y-57796800D02*
G75*
G03*
X356452901Y-57296800I-1J500001D01*
G01*
X23865401Y-148571801D02*
G75*
G03*
X23365401Y-149071801I1J-500001D01*
G01*
D10*
X406374400Y-35716500D02*
G75*
G03*
X402405900Y-31748000I-3968501J-1D01*
G01*
D11*
X362002901Y-72371801D02*
X375002901Y-72371801D01*
X328215401Y-105421801D02*
G75*
G03*
X328715401Y-104921801I-1J500001D01*
G01*
X100065401Y-110471801D02*
X113065401Y-110471801D01*
X300533801Y-125969401D02*
X300533801Y-108964601D01*
X175477901Y-72871801D02*
G75*
G03*
X174977901Y-72371801I-500001J-1D01*
G01*
X85777901Y-43796801D02*
G75*
G03*
X85277901Y-44296801I1J-500001D01*
G01*
X161977901Y-86371801D02*
X174977901Y-86371801D01*
X287684151Y-162071801D02*
G75*
G03*
X288184151Y-162571801I500001J1D01*
G01*
X113565401Y-110971801D02*
X113565401Y-123971801D01*
X361502901Y-72871801D02*
X361502901Y-85871801D01*
X85277901Y-85871801D02*
G75*
G03*
X85777901Y-86371801I500001J1D01*
G01*
X113065401Y-124471801D02*
G75*
G03*
X113565401Y-123971801I-1J500001D01*
G01*
X23865401Y-105421801D02*
X36865400Y-105421801D01*
X270727901Y-44296801D02*
X270727901Y-57296800D01*
X319790901Y-70867001D02*
X319790901Y-87871801D01*
X190552901Y-57796800D02*
X203552901Y-57796800D01*
X227365401Y-124471801D02*
G75*
G03*
X227865401Y-123971801I-1J500001D01*
G01*
X151665400Y-110971801D02*
G75*
G03*
X151165400Y-110471801I-500001J-1D01*
G01*
X242440401Y-143021801D02*
G75*
G03*
X242940401Y-143521801I500001J1D01*
G01*
X99277901Y-72871801D02*
G75*
G03*
X98777901Y-72371801I-500001J-1D01*
G01*
X23865401Y-57796800D02*
X36865400Y-57796800D01*
X87371651Y-149071801D02*
G75*
G03*
X86871651Y-148571801I-500001J-1D01*
G01*
X264371651Y-148571801D02*
X277371651Y-148571801D01*
X176265401Y-110471801D02*
G75*
G03*
X175765401Y-110971801I1J-500001D01*
G01*
X257227901Y-43796801D02*
G75*
G03*
X256727901Y-44296801I1J-500001D01*
G01*
X342952901Y-148571801D02*
G75*
G03*
X342452901Y-149071801I1J-500001D01*
G01*
X380552901Y-162071801D02*
G75*
G03*
X381052901Y-162571801I500001J1D01*
G01*
X380552901Y-149071801D02*
X380552901Y-162071801D01*
X83834151Y-129521801D02*
X84834151Y-129521801D01*
X294033801Y-126469401D02*
X300033801Y-126469401D01*
X223102901Y-44296801D02*
G75*
G03*
X222602901Y-43796801I-500001J-1D01*
G01*
X375502901Y-91920601D02*
G75*
G03*
X375002901Y-91420601I-500001J-1D01*
G01*
X180527901Y-72871801D02*
X180527901Y-85871801D01*
X36865400Y-124471801D02*
G75*
G03*
X37365400Y-123971801I-1J500001D01*
G01*
X240559151Y-162571801D02*
X253559151Y-162571801D01*
X137665401Y-123971801D02*
G75*
G03*
X138165401Y-124471801I500001J1D01*
G01*
X328221651Y-110971801D02*
G75*
G03*
X327721651Y-110471801I-500001J-1D01*
G01*
X289721651Y-110971801D02*
X289721651Y-123971801D01*
X235392951Y-149064002D02*
G75*
G03*
X234892951Y-148564002I-500001J-1D01*
G01*
X47677901Y-43796801D02*
G75*
G03*
X47177901Y-44296801I1J-500001D01*
G01*
X185002901Y-44296801D02*
X185002901Y-57296800D01*
X70040401Y-91421801D02*
X71040401Y-91421801D01*
X279752901Y-105421801D02*
G75*
G03*
X280252901Y-104921801I-1J500001D01*
G01*
X290221651Y-124471801D02*
X291221651Y-124471801D01*
X94802901Y-104921801D02*
G75*
G03*
X95302901Y-105421801I500001J1D01*
G01*
X313147601Y-145518201D02*
X319147601Y-145518201D01*
X381052901Y-148571801D02*
G75*
G03*
X380552901Y-149071801I1J-500001D01*
G01*
X157215401Y-110471801D02*
G75*
G03*
X156715401Y-110971801I1J-500001D01*
G01*
X213577901Y-72871801D02*
G75*
G03*
X213077901Y-72371801I-500001J-1D01*
G01*
X204840401Y-129521801D02*
X217840401Y-129521801D01*
X280252901Y-91921801D02*
X280252901Y-104921801D01*
X223890401Y-129521801D02*
G75*
G03*
X223390401Y-130021801I1J-500001D01*
G01*
X128621651Y-164571801D02*
X122621651Y-164571801D01*
X257227901Y-43796801D02*
X270227901Y-43796801D01*
X23365401Y-57296800D02*
G75*
G03*
X23865401Y-57796800I500001J1D01*
G01*
X122590401Y-143521801D02*
G75*
G03*
X123090401Y-143021801I-1J500001D01*
G01*
X108802901Y-91921801D02*
G75*
G03*
X108302901Y-91421801I-500001J-1D01*
G01*
X141640401Y-143521801D02*
G75*
G03*
X142140401Y-143021801I-1J500001D01*
G01*
X311496651Y-162071801D02*
G75*
G03*
X311996651Y-162571801I500001J1D01*
G01*
X356452901Y-91920601D02*
G75*
G03*
X355952901Y-91420601I-500001J-1D01*
G01*
X50059151Y-124474201D02*
X67821651Y-124471801D01*
X253559151Y-162571801D02*
G75*
G03*
X254059151Y-162071801I-1J500001D01*
G01*
X176265401Y-110471801D02*
X189265401Y-110471801D01*
X137377901Y-44296801D02*
G75*
G03*
X136877901Y-43796801I-500001J-1D01*
G01*
X133108901Y-158551751D02*
G75*
G03*
X133608901Y-159051751I500001J1D01*
G01*
X306027551Y-162564001D02*
X307122051Y-162564001D01*
X258405551Y-148564002D02*
X259500051Y-148564002D01*
X288771601Y-145018201D02*
X288771601Y-128013401D01*
X213865401Y-123971801D02*
G75*
G03*
X214365401Y-124471801I500001J1D01*
G01*
X23365401Y-149071801D02*
X23365401Y-162071801D01*
X209602901Y-91421801D02*
G75*
G03*
X209102901Y-91921801I1J-500001D01*
G01*
X388323502Y-124470601D02*
G75*
G03*
X388823502Y-123970601I-1J500001D01*
G01*
X81015401Y-124471801D02*
X94015401Y-124471801D01*
X161977901Y-72371801D02*
X174977901Y-72371801D01*
X256727901Y-44296801D02*
X256727901Y-57296800D01*
X61177901Y-72871801D02*
X61177901Y-85871801D01*
X65940401Y-91921801D02*
X65940401Y-104921801D01*
X23865401Y-43796801D02*
G75*
G03*
X23365401Y-44296801I1J-500001D01*
G01*
X276277901Y-43796801D02*
G75*
G03*
X275777901Y-44296801I1J-500001D01*
G01*
X218114901Y-152577451D02*
X218114901Y-158577451D01*
X83834151Y-129521801D02*
G75*
G03*
X83334151Y-130021801I1J-500001D01*
G01*
X161190401Y-130021801D02*
G75*
G03*
X160690401Y-129521801I-500001J-1D01*
G01*
M02*
