%FSLAX45Y45*%
G04 Gerber Fmt 4.5, Leading zero omitted, Abs format (unit mm)*
G04 Created by KiCad (PCBNEW (6.0.0)) date 2022-03-08 10:49:08*
%MOMM*%
%LPD*%
G01*
G04 APERTURE LIST*
%TA.AperFunction,Profile*%
%ADD10C,0.100000*%
%TD*%
%TA.AperFunction,Profile*%
%ADD11C,0.050000*%
%TD*%
%ADD12C,0.200000*%
G04 APERTURE END LIST*
D10*
X16703900Y-17956195D02*
X16703900Y-18556195D01*
X13587130Y-17906195D02*
X16653900Y-17906195D01*
X13537130Y-18556195D02*
X13537130Y-17956195D01*
X13587130Y-18606195D02*
X16653900Y-18606195D01*
X13537130Y-18556195D02*
G75*
G03*
X13587130Y-18606195I50000J0D01*
G01*
X13587130Y-17906195D02*
G75*
G03*
X13537130Y-17956195I0J-50000D01*
G01*
X16703900Y-17956195D02*
G75*
G03*
X16653900Y-17906195I-50000J0D01*
G01*
X16653900Y-18606195D02*
G75*
G03*
X16703900Y-18556195I0J50000D01*
G01*
X5182155Y-15098440D02*
G75*
G03*
X5232155Y-15148440I50000J0D01*
G01*
X5232155Y-15148440D02*
X7008405Y-15148200D01*
X5232155Y-13748440D02*
X7008405Y-13748200D01*
X5182155Y-13798440D02*
X5182155Y-15098440D01*
X5232155Y-13748440D02*
G75*
G03*
X5182155Y-13798440I0J-50000D01*
G01*
X21987730Y-17908765D02*
X18920960Y-17908765D01*
X22037730Y-17958765D02*
G75*
G03*
X21987730Y-17908765I-50000J0D01*
G01*
X18870960Y-18558765D02*
X18870960Y-17958765D01*
X18920960Y-17908765D02*
G75*
G03*
X18870960Y-17958765I0J-50000D01*
G01*
X21987730Y-18608765D02*
G75*
G03*
X22037730Y-18558765I0J50000D01*
G01*
X18870960Y-18558765D02*
G75*
G03*
X18920960Y-18608765I50000J0D01*
G01*
X22037730Y-17958765D02*
X22037730Y-18558765D01*
X21987730Y-18608765D02*
X18920960Y-18608765D01*
X34471530Y-11893080D02*
X34471530Y-13193080D01*
X34521530Y-11843080D02*
X35821530Y-11843080D01*
X36376530Y-11893080D02*
X36376530Y-13193080D01*
X39681530Y-11893080D02*
X39681530Y-13193080D01*
X37776530Y-11893080D02*
G75*
G03*
X37726530Y-11843080I-50000J0D01*
G01*
X37726530Y-13243080D02*
G75*
G03*
X37776530Y-13193080I0J50000D01*
G01*
X35871530Y-11893080D02*
G75*
G03*
X35821530Y-11843080I-50000J0D01*
G01*
X39631530Y-13243080D02*
G75*
G03*
X39681530Y-13193080I0J50000D01*
G01*
X38281530Y-11893080D02*
X38281530Y-13193080D01*
X38331530Y-11843080D02*
X39631530Y-11843080D01*
X35871530Y-11893080D02*
X35871530Y-13193080D01*
X34521530Y-13243080D02*
X35821530Y-13243080D01*
X39681530Y-11893080D02*
G75*
G03*
X39631530Y-11843080I-50000J0D01*
G01*
X37776530Y-11893080D02*
X37776530Y-13193080D01*
X38331530Y-11843080D02*
G75*
G03*
X38281530Y-11893080I0J-50000D01*
G01*
X36426530Y-11843080D02*
X37726530Y-11843080D01*
X36426530Y-11843080D02*
G75*
G03*
X36376530Y-11893080I0J-50000D01*
G01*
X36376530Y-13193080D02*
G75*
G03*
X36426530Y-13243080I50000J0D01*
G01*
X36426530Y-13243080D02*
X37726530Y-13243080D01*
X38331530Y-13243080D02*
X39631530Y-13243080D01*
X35821530Y-13243080D02*
G75*
G03*
X35871530Y-13193080I0J50000D01*
G01*
X34471530Y-13193080D02*
G75*
G03*
X34521530Y-13243080I50000J0D01*
G01*
X38281530Y-13193080D02*
G75*
G03*
X38331530Y-13243080I50000J0D01*
G01*
X34521530Y-11843080D02*
G75*
G03*
X34471530Y-11893080I0J-50000D01*
G01*
X36376530Y-7130880D02*
X36376530Y-8430880D01*
X37776530Y-7130880D02*
G75*
G03*
X37726530Y-7080880I-50000J0D01*
G01*
X37726530Y-8480880D02*
G75*
G03*
X37776530Y-8430880I0J50000D01*
G01*
X37776530Y-7130880D02*
X37776530Y-8430880D01*
X36426530Y-7080880D02*
X37726530Y-7080880D01*
X36426530Y-7080880D02*
G75*
G03*
X36376530Y-7130880I0J-50000D01*
G01*
X36376530Y-8430880D02*
G75*
G03*
X36426530Y-8480880I50000J0D01*
G01*
X36426530Y-8480880D02*
X37726530Y-8480880D01*
X30517730Y-9787720D02*
G75*
G03*
X30467730Y-9737720I-50000J0D01*
G01*
X29867730Y-9737720D02*
G75*
G03*
X29817730Y-9787720I0J-50000D01*
G01*
X29817730Y-11488200D02*
X29817730Y-9787720D01*
X30517730Y-11488200D02*
X30517730Y-9787720D01*
X29867730Y-9737720D02*
X30467730Y-9737720D01*
X32905330Y-9787720D02*
G75*
G03*
X32855330Y-9737720I-50000J0D01*
G01*
X32255330Y-9737720D02*
G75*
G03*
X32205330Y-9787720I0J-50000D01*
G01*
X32255330Y-9737720D02*
X32855330Y-9737720D01*
X6186200Y-17052840D02*
X7486200Y-17052840D01*
X6186200Y-15652840D02*
G75*
G03*
X6136200Y-15702840I0J-50000D01*
G01*
X6136200Y-15702840D02*
X6136200Y-17002840D01*
X6136200Y-17002840D02*
G75*
G03*
X6186200Y-17052840I50000J0D01*
G01*
X7486200Y-17052840D02*
G75*
G03*
X7536200Y-17002840I0J50000D01*
G01*
X7536200Y-15702840D02*
G75*
G03*
X7486200Y-15652840I-50000J0D01*
G01*
X7536200Y-15702840D02*
X7536200Y-17002840D01*
X6186200Y-15652840D02*
X7486200Y-15652840D01*
X13088405Y-17356760D02*
X12488405Y-17356760D01*
X13138405Y-17406760D02*
G75*
G03*
X13088405Y-17356760I-50000J0D01*
G01*
X12488405Y-17356760D02*
G75*
G03*
X12438405Y-17406760I0J-50000D01*
G01*
X23088405Y-17356760D02*
X22488405Y-17356760D01*
X23138405Y-17406760D02*
G75*
G03*
X23088405Y-17356760I-50000J0D01*
G01*
X22488405Y-17356760D02*
G75*
G03*
X22438405Y-17406760I0J-50000D01*
G01*
X7017995Y-17557420D02*
G75*
G03*
X6967995Y-17607420I0J-50000D01*
G01*
X7177445Y-18907420D02*
X7177445Y-17607420D01*
X7017995Y-17557420D02*
X7127445Y-17557420D01*
X6967995Y-18907420D02*
G75*
G03*
X7017995Y-18957420I50000J0D01*
G01*
X7017995Y-18957420D02*
X7127445Y-18957420D01*
X7127445Y-18957420D02*
G75*
G03*
X7177445Y-18907420I0J50000D01*
G01*
X6967995Y-18907420D02*
X6967995Y-17607420D01*
X7177445Y-17607420D02*
G75*
G03*
X7127445Y-17557420I-50000J0D01*
G01*
X9349095Y-18907420D02*
X9349095Y-17607420D01*
X9399095Y-17557420D02*
G75*
G03*
X9349095Y-17607420I0J-50000D01*
G01*
X9558545Y-17607420D02*
G75*
G03*
X9508545Y-17557420I-50000J0D01*
G01*
X9349095Y-18907420D02*
G75*
G03*
X9399095Y-18957420I50000J0D01*
G01*
X9399095Y-18957420D02*
X9508545Y-18957420D01*
X9558545Y-18907420D02*
X9558545Y-17607420D01*
X9399095Y-17557420D02*
X9508545Y-17557420D01*
X9508545Y-18957420D02*
G75*
G03*
X9558545Y-18907420I0J50000D01*
G01*
X11780195Y-17557420D02*
G75*
G03*
X11730195Y-17607420I0J-50000D01*
G01*
X11939645Y-17607420D02*
G75*
G03*
X11889645Y-17557420I-50000J0D01*
G01*
X11730195Y-18907420D02*
G75*
G03*
X11780195Y-18957420I50000J0D01*
G01*
X11939645Y-18907420D02*
X11939645Y-17607420D01*
X11780195Y-18957420D02*
X11889645Y-18957420D01*
X11780195Y-17557420D02*
X11889645Y-17557420D01*
X11730195Y-18907420D02*
X11730195Y-17607420D01*
X11889645Y-18957420D02*
G75*
G03*
X11939645Y-18907420I0J50000D01*
G01*
X30938445Y-18957420D02*
G75*
G03*
X30988445Y-18907420I0J50000D01*
G01*
X30828995Y-17557420D02*
G75*
G03*
X30778995Y-17607420I0J-50000D01*
G01*
X30988445Y-18907420D02*
X30988445Y-17607420D01*
X30828995Y-18957420D02*
X30938445Y-18957420D01*
X30988445Y-17607420D02*
G75*
G03*
X30938445Y-17557420I-50000J0D01*
G01*
X30778995Y-18907420D02*
X30778995Y-17607420D01*
X30778995Y-18907420D02*
G75*
G03*
X30828995Y-18957420I50000J0D01*
G01*
X30828995Y-17557420D02*
X30938445Y-17557420D01*
X28447895Y-17557420D02*
X28557345Y-17557420D01*
X28397895Y-18907420D02*
X28397895Y-17607420D01*
X28397895Y-18907420D02*
G75*
G03*
X28447895Y-18957420I50000J0D01*
G01*
X28447895Y-17557420D02*
G75*
G03*
X28397895Y-17607420I0J-50000D01*
G01*
X28557345Y-18957420D02*
G75*
G03*
X28607345Y-18907420I0J50000D01*
G01*
X28447895Y-18957420D02*
X28557345Y-18957420D01*
X28607345Y-17607420D02*
G75*
G03*
X28557345Y-17557420I-50000J0D01*
G01*
X28607345Y-18907420D02*
X28607345Y-17607420D01*
X26066795Y-17557420D02*
G75*
G03*
X26016795Y-17607420I0J-50000D01*
G01*
X26016795Y-18907420D02*
X26016795Y-17607420D01*
X26226245Y-18907420D02*
X26226245Y-17607420D01*
X26226245Y-17607420D02*
G75*
G03*
X26176245Y-17557420I-50000J0D01*
G01*
X26066795Y-17557420D02*
X26176245Y-17557420D01*
X26016795Y-18907420D02*
G75*
G03*
X26066795Y-18957420I50000J0D01*
G01*
X26176245Y-18957420D02*
G75*
G03*
X26226245Y-18907420I0J50000D01*
G01*
X26066795Y-18957420D02*
X26176245Y-18957420D01*
X8248910Y-7130700D02*
G75*
G03*
X8198910Y-7080700I-50000J0D01*
G01*
X6848910Y-7130700D02*
X6848910Y-8430700D01*
X8248910Y-7130700D02*
X8248910Y-8430700D01*
X6898910Y-7080700D02*
G75*
G03*
X6848910Y-7130700I0J-50000D01*
G01*
X6898910Y-7080700D02*
X8198910Y-7080700D01*
X6898910Y-8480700D02*
X8198910Y-8480700D01*
X8198910Y-8480700D02*
G75*
G03*
X8248910Y-8430700I0J50000D01*
G01*
X6848910Y-8430700D02*
G75*
G03*
X6898910Y-8480700I50000J0D01*
G01*
X7730000Y-15452360D02*
X8330000Y-15452360D01*
X5342400Y-17252840D02*
X5942400Y-17252840D01*
X7730000Y-17252840D02*
X8330000Y-17252840D01*
X8380000Y-15502360D02*
G75*
G03*
X8330000Y-15452360I-50000J0D01*
G01*
X5992400Y-17202840D02*
X5992400Y-15502360D01*
X5942400Y-17252840D02*
G75*
G03*
X5992400Y-17202840I0J50000D01*
G01*
X5292400Y-17202840D02*
G75*
G03*
X5342400Y-17252840I50000J0D01*
G01*
X7680000Y-17202840D02*
G75*
G03*
X7730000Y-17252840I50000J0D01*
G01*
X5292400Y-17202840D02*
X5292400Y-15502360D01*
X7730000Y-15452360D02*
G75*
G03*
X7680000Y-15502360I0J-50000D01*
G01*
X8330000Y-17252840D02*
G75*
G03*
X8380000Y-17202840I0J50000D01*
G01*
X7680000Y-15502360D02*
X7680000Y-17202840D01*
X8380000Y-15502360D02*
X8380000Y-17202840D01*
X5992400Y-15502360D02*
G75*
G03*
X5942400Y-15452360I-50000J0D01*
G01*
X5342400Y-15452360D02*
X5942400Y-15452360D01*
X5342400Y-15452360D02*
G75*
G03*
X5292400Y-15502360I0J-50000D01*
G01*
X13088405Y-19158200D02*
X12488405Y-19158200D01*
X13088405Y-19158200D02*
G75*
G03*
X13138405Y-19108200I0J50000D01*
G01*
X12438405Y-19108200D02*
G75*
G03*
X12488405Y-19158200I50000J0D01*
G01*
X23088405Y-19158200D02*
G75*
G03*
X23138405Y-19108200I0J50000D01*
G01*
X22438405Y-19108200D02*
G75*
G03*
X22488405Y-19158200I50000J0D01*
G01*
X23088405Y-19158200D02*
X22488405Y-19158200D01*
X30473420Y-15147960D02*
X31773420Y-15147960D01*
X31823420Y-13797960D02*
G75*
G03*
X31773420Y-13747960I-50000J0D01*
G01*
X30473420Y-13747960D02*
X31773420Y-13747960D01*
X30229620Y-15347960D02*
G75*
G03*
X30279620Y-15297960I0J50000D01*
G01*
X29629620Y-15347960D02*
X30229620Y-15347960D01*
X31967220Y-15297960D02*
G75*
G03*
X32017220Y-15347960I50000J0D01*
G01*
X31967220Y-13597480D02*
X31967220Y-15297960D01*
X32667220Y-13597480D02*
X32667220Y-15297960D01*
X32017220Y-15347960D02*
X32617220Y-15347960D01*
X31773420Y-15147960D02*
G75*
G03*
X31823420Y-15097960I0J50000D01*
G01*
X30473420Y-13747960D02*
G75*
G03*
X30423420Y-13797960I0J-50000D01*
G01*
X32617220Y-15347960D02*
G75*
G03*
X32667220Y-15297960I0J50000D01*
G01*
X31823420Y-13797960D02*
X31823420Y-15097960D01*
X29579620Y-15297960D02*
G75*
G03*
X29629620Y-15347960I50000J0D01*
G01*
X30423420Y-13797960D02*
X30423420Y-15097960D01*
X30423420Y-15097960D02*
G75*
G03*
X30473420Y-15147960I50000J0D01*
G01*
X32017220Y-13547480D02*
G75*
G03*
X31967220Y-13597480I0J-50000D01*
G01*
X30279620Y-15297960D02*
X30279620Y-13597480D01*
X29629620Y-13547480D02*
G75*
G03*
X29579620Y-13597480I0J-50000D01*
G01*
X32667220Y-13597480D02*
G75*
G03*
X32617220Y-13547480I-50000J0D01*
G01*
X29579620Y-15297960D02*
X29579620Y-13597480D01*
X32017220Y-13547480D02*
X32617220Y-13547480D01*
X30279620Y-13597480D02*
G75*
G03*
X30229620Y-13547480I-50000J0D01*
G01*
X29629620Y-13547480D02*
X30229620Y-13547480D01*
X29997200Y-15652840D02*
G75*
G03*
X29947200Y-15702840I0J-50000D01*
G01*
X31541000Y-15452360D02*
X32141000Y-15452360D01*
X29803400Y-15502360D02*
G75*
G03*
X29753400Y-15452360I-50000J0D01*
G01*
X29753400Y-17252840D02*
G75*
G03*
X29803400Y-17202840I0J50000D01*
G01*
X31491000Y-17202840D02*
G75*
G03*
X31541000Y-17252840I50000J0D01*
G01*
X31541000Y-17252840D02*
X32141000Y-17252840D01*
X31347200Y-15702840D02*
X31347200Y-17002840D01*
X31541000Y-15452360D02*
G75*
G03*
X31491000Y-15502360I0J-50000D01*
G01*
X29153400Y-15452360D02*
G75*
G03*
X29103400Y-15502360I0J-50000D01*
G01*
X29103400Y-17202840D02*
X29103400Y-15502360D01*
X29153400Y-15452360D02*
X29753400Y-15452360D01*
X29997200Y-15652840D02*
X31297200Y-15652840D01*
X29103400Y-17202840D02*
G75*
G03*
X29153400Y-17252840I50000J0D01*
G01*
X31491000Y-15502360D02*
X31491000Y-17202840D01*
X29947200Y-15702840D02*
X29947200Y-17002840D01*
X29947200Y-17002840D02*
G75*
G03*
X29997200Y-17052840I50000J0D01*
G01*
X31297200Y-17052840D02*
G75*
G03*
X31347200Y-17002840I0J50000D01*
G01*
X29153400Y-17252840D02*
X29753400Y-17252840D01*
X29803400Y-17202840D02*
X29803400Y-15502360D01*
X32191000Y-15502360D02*
X32191000Y-17202840D01*
X29997200Y-17052840D02*
X31297200Y-17052840D01*
X32141000Y-17252840D02*
G75*
G03*
X32191000Y-17202840I0J50000D01*
G01*
X31347200Y-15702840D02*
G75*
G03*
X31297200Y-15652840I-50000J0D01*
G01*
X32191000Y-15502360D02*
G75*
G03*
X32141000Y-15452360I-50000J0D01*
G01*
X26346530Y-11893200D02*
G75*
G03*
X26296530Y-11843200I-50000J0D01*
G01*
X12009030Y-8480700D02*
G75*
G03*
X12059030Y-8430700I0J50000D01*
G01*
X17376530Y-7080700D02*
G75*
G03*
X17326530Y-7130700I0J-50000D01*
G01*
X10104030Y-11338200D02*
G75*
G03*
X10154030Y-11288200I0J50000D01*
G01*
X37776530Y-17608200D02*
G75*
G03*
X37726530Y-17558200I-50000J0D01*
G01*
X2612780Y-15653200D02*
X3912780Y-15653200D01*
X17326530Y-13193200D02*
G75*
G03*
X17376530Y-13243200I50000J0D01*
G01*
X22060280Y-15703200D02*
G75*
G03*
X22010280Y-15653200I-50000J0D01*
G01*
X11135280Y-15703200D02*
X11135280Y-17003200D01*
X16424030Y-9938200D02*
X17724030Y-9938200D01*
X30661530Y-9988200D02*
X30661530Y-11288200D01*
X24520280Y-15653200D02*
G75*
G03*
X24470280Y-15703200I0J-50000D01*
G01*
X12087780Y-15098200D02*
G75*
G03*
X12137780Y-15148200I50000J0D01*
G01*
D11*
X40466830Y-5875820D02*
X1734270Y-5875820D01*
D10*
X16900280Y-15653200D02*
X18200280Y-15653200D01*
X13516530Y-13193200D02*
G75*
G03*
X13566530Y-13243200I50000J0D01*
G01*
X23606085Y-17557420D02*
X23715535Y-17557420D01*
X31614030Y-8430700D02*
G75*
G03*
X31664030Y-8480700I50000J0D01*
G01*
X4910280Y-11843200D02*
G75*
G03*
X4860280Y-11893200I0J-50000D01*
G01*
X26375280Y-17003200D02*
G75*
G03*
X26425280Y-17053200I50000J0D01*
G01*
X8804030Y-7080700D02*
X10104030Y-7080700D01*
X19281530Y-13243200D02*
X20581530Y-13243200D01*
X3962780Y-13798200D02*
G75*
G03*
X3912780Y-13748200I-50000J0D01*
G01*
X19281530Y-11843200D02*
G75*
G03*
X19231530Y-11893200I0J-50000D01*
G01*
X25949030Y-7080700D02*
G75*
G03*
X25899030Y-7130700I0J-50000D01*
G01*
X25394030Y-9988200D02*
G75*
G03*
X25344030Y-9938200I-50000J0D01*
G01*
X23439030Y-11338200D02*
G75*
G03*
X23489030Y-11288200I0J50000D01*
G01*
X24441530Y-7130700D02*
X24441530Y-8430700D01*
X39772920Y-17225670D02*
X39772920Y-15479530D01*
X32061530Y-9988200D02*
X32061530Y-11288200D01*
X16900280Y-15653200D02*
G75*
G03*
X16850280Y-15703200I0J-50000D01*
G01*
X2562780Y-18908200D02*
G75*
G03*
X2612780Y-18958200I50000J0D01*
G01*
X19757780Y-15148200D02*
X21057780Y-15148200D01*
X25899030Y-9988200D02*
X25899030Y-11288200D01*
X32947780Y-11843200D02*
X33047780Y-11843200D01*
X38281530Y-18908200D02*
G75*
G03*
X38331530Y-18958200I50000J0D01*
G01*
X22438405Y-17406760D02*
X22438405Y-19108200D01*
X32947780Y-13243200D02*
X33047780Y-13243200D01*
X23965280Y-15703200D02*
G75*
G03*
X23915280Y-15653200I-50000J0D01*
G01*
X12614030Y-11338200D02*
X13914030Y-11338200D01*
X16771530Y-13243200D02*
G75*
G03*
X16821530Y-13193200I0J50000D01*
G01*
X27854030Y-8480700D02*
X29154030Y-8480700D01*
X21186530Y-13243200D02*
X22486530Y-13243200D01*
X22060280Y-15703200D02*
X22060280Y-17003200D01*
X19231530Y-11893200D02*
X19231530Y-13193200D01*
X4959655Y-15653200D02*
X5059655Y-15653200D01*
X5060280Y-11893200D02*
G75*
G03*
X5010280Y-11843200I-50000J0D01*
G01*
X36376530Y-17003200D02*
G75*
G03*
X36426530Y-17053200I50000J0D01*
G01*
X3962780Y-7130700D02*
G75*
G03*
X3912780Y-7080700I-50000J0D01*
G01*
X39681530Y-9988200D02*
G75*
G03*
X39631530Y-9938200I-50000J0D01*
G01*
X26346530Y-11893200D02*
X26346530Y-13193200D01*
X25899030Y-8430700D02*
G75*
G03*
X25949030Y-8480700I50000J0D01*
G01*
X12614030Y-8480700D02*
X13914030Y-8480700D01*
X36426530Y-17053200D02*
X37726530Y-17053200D01*
X20155280Y-15703200D02*
X20155280Y-17003200D01*
X18755280Y-15703200D02*
X18755280Y-17003200D01*
X23517780Y-15098200D02*
G75*
G03*
X23567780Y-15148200I50000J0D01*
G01*
X21662780Y-15148200D02*
X22962780Y-15148200D01*
X10182780Y-13798200D02*
X10182780Y-15098200D01*
X34521530Y-17558200D02*
X35821530Y-17558200D01*
X35871530Y-17608200D02*
X35871530Y-18908200D01*
X15471530Y-13243200D02*
X16771530Y-13243200D01*
X16821530Y-11893200D02*
G75*
G03*
X16771530Y-11843200I-50000J0D01*
G01*
X39108590Y-13798080D02*
G75*
G03*
X39058590Y-13748080I-50000J0D01*
G01*
X14469030Y-9988200D02*
X14469030Y-11288200D01*
X22536530Y-11893200D02*
G75*
G03*
X22486530Y-11843200I-50000J0D01*
G01*
X7851530Y-11843200D02*
G75*
G03*
X7801530Y-11893200I0J-50000D01*
G01*
X36376530Y-11288200D02*
G75*
G03*
X36426530Y-11338200I50000J0D01*
G01*
X21612780Y-13798200D02*
X21612780Y-15098200D01*
X14916530Y-11893200D02*
X14916530Y-13193200D01*
X34471530Y-11288200D02*
G75*
G03*
X34521530Y-11338200I50000J0D01*
G01*
X20710280Y-15653200D02*
G75*
G03*
X20660280Y-15703200I0J-50000D01*
G01*
X23567780Y-15148200D02*
X24867780Y-15148200D01*
X31187780Y-11843200D02*
G75*
G03*
X31137780Y-11893200I0J-50000D01*
G01*
X2562780Y-15098200D02*
G75*
G03*
X2612780Y-15148200I50000J0D01*
G01*
X13964030Y-9988200D02*
G75*
G03*
X13914030Y-9938200I-50000J0D01*
G01*
X9230280Y-17003200D02*
G75*
G03*
X9280280Y-17053200I50000J0D01*
G01*
X3962780Y-13798200D02*
X3962780Y-15098200D01*
X12961530Y-13243200D02*
G75*
G03*
X13011530Y-13193200I0J50000D01*
G01*
X6582155Y-17608200D02*
X6582155Y-18908200D01*
X2612780Y-13748200D02*
X3912780Y-13748200D01*
X28756530Y-13193200D02*
G75*
G03*
X28806530Y-13243200I50000J0D01*
G01*
X16345280Y-15703200D02*
G75*
G03*
X16295280Y-15653200I-50000J0D01*
G01*
X22615280Y-17053200D02*
X23915280Y-17053200D01*
X26901530Y-11843200D02*
G75*
G03*
X26851530Y-11893200I0J-50000D01*
G01*
X30344655Y-18958200D02*
G75*
G03*
X30394655Y-18908200I0J50000D01*
G01*
X23994030Y-9988200D02*
X23994030Y-11288200D01*
X25472780Y-13748200D02*
G75*
G03*
X25422780Y-13798200I0J-50000D01*
G01*
X38331530Y-11338200D02*
X39631530Y-11338200D01*
X26901530Y-13243200D02*
X28201530Y-13243200D01*
X29248405Y-15148200D02*
X29348405Y-15148200D01*
X23606085Y-18957420D02*
X23715535Y-18957420D01*
X10154030Y-9988200D02*
X10154030Y-11288200D01*
X32855330Y-11538200D02*
G75*
G03*
X32905330Y-11488200I0J50000D01*
G01*
X23915280Y-17053200D02*
G75*
G03*
X23965280Y-17003200I0J50000D01*
G01*
X24996530Y-13243200D02*
X26296530Y-13243200D01*
X11344655Y-17608200D02*
G75*
G03*
X11294655Y-17558200I-50000J0D01*
G01*
X3962780Y-15703200D02*
X3962780Y-17003200D01*
X22536530Y-7130700D02*
X22536530Y-8430700D01*
X28013405Y-17608200D02*
X28013405Y-18908200D01*
X23556085Y-18907420D02*
X23556085Y-17607420D01*
X27854030Y-7080700D02*
G75*
G03*
X27804030Y-7130700I0J-50000D01*
G01*
X14042780Y-15148200D02*
X15342780Y-15148200D01*
X27249030Y-11338200D02*
G75*
G03*
X27299030Y-11288200I0J50000D01*
G01*
X18329030Y-9938200D02*
X19629030Y-9938200D01*
X29154030Y-11338200D02*
G75*
G03*
X29204030Y-11288200I0J50000D01*
G01*
X30394655Y-17608200D02*
G75*
G03*
X30344655Y-17558200I-50000J0D01*
G01*
X28722155Y-15703200D02*
X28722155Y-17003200D01*
X18438405Y-18958200D02*
G75*
G03*
X18488405Y-18908200I0J50000D01*
G01*
X30156530Y-11893200D02*
X30156530Y-13193200D01*
X10232780Y-15148200D02*
X11532780Y-15148200D01*
X6344030Y-9988200D02*
G75*
G03*
X6294030Y-9938200I-50000J0D01*
G01*
X13090280Y-15653200D02*
X14390280Y-15653200D01*
X10659030Y-7130700D02*
X10659030Y-8430700D01*
X2612780Y-7080700D02*
G75*
G03*
X2562780Y-7130700I0J-50000D01*
G01*
X31137780Y-13193200D02*
G75*
G03*
X31187780Y-13243200I50000J0D01*
G01*
X13011530Y-11893200D02*
X13011530Y-13193200D01*
X21584030Y-9988200D02*
G75*
G03*
X21534030Y-9938200I-50000J0D01*
G01*
X35169460Y-15148080D02*
X39058590Y-15148080D01*
X21662780Y-13748200D02*
G75*
G03*
X21612780Y-13798200I0J-50000D01*
G01*
X24391530Y-13243200D02*
G75*
G03*
X24441530Y-13193200I0J50000D01*
G01*
X13992780Y-15098200D02*
G75*
G03*
X14042780Y-15148200I50000J0D01*
G01*
X11582780Y-13798200D02*
X11582780Y-15098200D01*
X16850280Y-17003200D02*
G75*
G03*
X16900280Y-17053200I50000J0D01*
G01*
X27299030Y-7130700D02*
X27299030Y-8430700D01*
X13487780Y-13798200D02*
X13487780Y-15098200D01*
X11106530Y-11893200D02*
G75*
G03*
X11056530Y-11843200I-50000J0D01*
G01*
X17852780Y-13748200D02*
X19152780Y-13748200D01*
X16821530Y-11893200D02*
X16821530Y-13193200D01*
X20105280Y-17053200D02*
G75*
G03*
X20155280Y-17003200I0J50000D01*
G01*
X23091530Y-11843200D02*
X24391530Y-11843200D01*
D11*
X1734270Y-20162420D02*
X40466830Y-20162420D01*
D10*
X37776530Y-15703200D02*
G75*
G03*
X37726530Y-15653200I-50000J0D01*
G01*
X19679030Y-9988200D02*
X19679030Y-11288200D01*
X2612780Y-17558200D02*
G75*
G03*
X2562780Y-17608200I0J-50000D01*
G01*
X20581530Y-8480700D02*
G75*
G03*
X20631530Y-8430700I0J50000D01*
G01*
X15869030Y-7130700D02*
X15869030Y-8430700D01*
X26663405Y-17558200D02*
X27963405Y-17558200D01*
X14519030Y-7080700D02*
G75*
G03*
X14469030Y-7130700I0J-50000D01*
G01*
X33048405Y-13798200D02*
G75*
G03*
X32998405Y-13748200I-50000J0D01*
G01*
X12137780Y-15148200D02*
X13437780Y-15148200D01*
X17376530Y-11843200D02*
X18676530Y-11843200D01*
X19281530Y-11843200D02*
X20581530Y-11843200D01*
X37726530Y-11338200D02*
G75*
G03*
X37776530Y-11288200I0J50000D01*
G01*
X22536530Y-11893200D02*
X22536530Y-13193200D01*
X28727780Y-13798200D02*
G75*
G03*
X28677780Y-13748200I-50000J0D01*
G01*
X27249030Y-8480700D02*
G75*
G03*
X27299030Y-8430700I0J50000D01*
G01*
X32998405Y-15148200D02*
G75*
G03*
X33048405Y-15098200I0J50000D01*
G01*
X6344030Y-9988200D02*
X6344030Y-11288200D01*
X4994030Y-9938200D02*
G75*
G03*
X4944030Y-9988200I0J-50000D01*
G01*
X21186530Y-11843200D02*
G75*
G03*
X21136530Y-11893200I0J-50000D01*
G01*
X5470280Y-11843200D02*
X6770280Y-11843200D01*
X29044655Y-17558200D02*
G75*
G03*
X28994655Y-17608200I0J-50000D01*
G01*
X6532155Y-18958200D02*
G75*
G03*
X6582155Y-18908200I0J50000D01*
G01*
X27804030Y-9988200D02*
X27804030Y-11288200D01*
X32537780Y-11893200D02*
X32537780Y-13193200D01*
X7563405Y-17608200D02*
X7563405Y-18908200D01*
X38281530Y-7130700D02*
X38281530Y-8430700D01*
X12059030Y-9988200D02*
X12059030Y-11288200D01*
X25632155Y-17608200D02*
X25632155Y-18908200D01*
X11661530Y-11843200D02*
G75*
G03*
X11611530Y-11893200I0J-50000D01*
G01*
X27299030Y-7130700D02*
G75*
G03*
X27249030Y-7080700I-50000J0D01*
G01*
X15897780Y-15098200D02*
G75*
G03*
X15947780Y-15148200I50000J0D01*
G01*
D11*
X1734270Y-5875820D02*
G75*
G03*
X1337420Y-6272670I0J-396850D01*
G01*
D10*
X10659030Y-11288200D02*
G75*
G03*
X10709030Y-11338200I50000J0D01*
G01*
X25870280Y-15703200D02*
X25870280Y-17003200D01*
X11056530Y-13243200D02*
G75*
G03*
X11106530Y-13193200I0J50000D01*
G01*
X3962780Y-11893200D02*
G75*
G03*
X3912780Y-11843200I-50000J0D01*
G01*
X23138405Y-17406760D02*
X23138405Y-19108200D01*
X6849030Y-9988200D02*
X6849030Y-11288200D01*
X2562780Y-13193200D02*
G75*
G03*
X2612780Y-13243200I50000J0D01*
G01*
X4994030Y-7080700D02*
X6294030Y-7080700D01*
X17088405Y-18908200D02*
G75*
G03*
X17138405Y-18958200I50000J0D01*
G01*
X3962780Y-11893200D02*
X3962780Y-13193200D01*
X12614030Y-9938200D02*
X13914030Y-9938200D01*
X32964030Y-8480700D02*
G75*
G03*
X33014030Y-8430700I0J50000D01*
G01*
X23517780Y-13798200D02*
X23517780Y-15098200D01*
X38185520Y-15479530D02*
X38185520Y-17225670D01*
X26901530Y-11843200D02*
X28201530Y-11843200D01*
X12059030Y-7130700D02*
X12059030Y-8430700D01*
X35169460Y-13748080D02*
G75*
G03*
X35119460Y-13798080I0J-50000D01*
G01*
X19281530Y-7080700D02*
X20581530Y-7080700D01*
X29398405Y-13798200D02*
X29398405Y-15098200D01*
X20234030Y-9938200D02*
X21534030Y-9938200D01*
X30627780Y-11843200D02*
X30727780Y-11843200D01*
X28727780Y-13798200D02*
X28727780Y-15098200D01*
X2612780Y-11338200D02*
X3912780Y-11338200D01*
X15392780Y-13798200D02*
G75*
G03*
X15342780Y-13748200I-50000J0D01*
G01*
X4944030Y-9988200D02*
X4944030Y-11288200D01*
X6294030Y-11338200D02*
G75*
G03*
X6344030Y-11288200I0J50000D01*
G01*
X27963405Y-18958200D02*
G75*
G03*
X28013405Y-18908200I0J50000D01*
G01*
X2612780Y-9938200D02*
G75*
G03*
X2562780Y-9988200I0J-50000D01*
G01*
X9230280Y-15703200D02*
X9230280Y-17003200D01*
X36426530Y-15653200D02*
X37726530Y-15653200D01*
X26613405Y-18908200D02*
G75*
G03*
X26663405Y-18958200I50000J0D01*
G01*
X5420280Y-11893200D02*
X5420280Y-13193200D01*
X19202780Y-13798200D02*
X19202780Y-15098200D01*
X8963405Y-17608200D02*
G75*
G03*
X8913405Y-17558200I-50000J0D01*
G01*
X35871530Y-7130700D02*
G75*
G03*
X35821530Y-7080700I-50000J0D01*
G01*
X24996530Y-11843200D02*
X26296530Y-11843200D01*
X32422155Y-15653200D02*
X32522155Y-15653200D01*
X13964030Y-9988200D02*
X13964030Y-11288200D01*
X35871530Y-9988200D02*
X35871530Y-11288200D01*
X35119460Y-15098080D02*
G75*
G03*
X35169460Y-15148080I50000J0D01*
G01*
X14519030Y-9938200D02*
G75*
G03*
X14469030Y-9988200I0J-50000D01*
G01*
X15947780Y-15148200D02*
X17247780Y-15148200D01*
X27377780Y-13748200D02*
G75*
G03*
X27327780Y-13798200I0J-50000D01*
G01*
X15819030Y-11338200D02*
G75*
G03*
X15869030Y-11288200I0J50000D01*
G01*
X10709030Y-9938200D02*
G75*
G03*
X10659030Y-9988200I0J-50000D01*
G01*
X20631530Y-11893200D02*
X20631530Y-13193200D01*
X24520280Y-15653200D02*
X25820280Y-15653200D01*
X16374030Y-11288200D02*
G75*
G03*
X16424030Y-11338200I50000J0D01*
G01*
X26772780Y-15148200D02*
G75*
G03*
X26822780Y-15098200I0J50000D01*
G01*
X23489030Y-9988200D02*
G75*
G03*
X23439030Y-9938200I-50000J0D01*
G01*
X18676530Y-8480700D02*
G75*
G03*
X18726530Y-8430700I0J50000D01*
G01*
X7563405Y-18908200D02*
G75*
G03*
X7613405Y-18958200I50000J0D01*
G01*
X18805280Y-15653200D02*
G75*
G03*
X18755280Y-15703200I0J-50000D01*
G01*
X20581530Y-13243200D02*
G75*
G03*
X20631530Y-13193200I0J50000D01*
G01*
X9994655Y-17558200D02*
G75*
G03*
X9944655Y-17608200I0J-50000D01*
G01*
X38331530Y-18958200D02*
X39631530Y-18958200D01*
X6344030Y-7130700D02*
G75*
G03*
X6294030Y-7080700I-50000J0D01*
G01*
X37776530Y-9988200D02*
X37776530Y-11288200D01*
X29348405Y-15148200D02*
G75*
G03*
X29398405Y-15098200I0J50000D01*
G01*
X21136530Y-13193200D02*
G75*
G03*
X21186530Y-13243200I50000J0D01*
G01*
X10182780Y-15098200D02*
G75*
G03*
X10232780Y-15148200I50000J0D01*
G01*
X27804030Y-8430700D02*
G75*
G03*
X27854030Y-8480700I50000J0D01*
G01*
X17297780Y-13798200D02*
X17297780Y-15098200D01*
X14469030Y-7130700D02*
X14469030Y-8430700D01*
X28922155Y-15703200D02*
G75*
G03*
X28872155Y-15653200I-50000J0D01*
G01*
X4994030Y-7080700D02*
G75*
G03*
X4944030Y-7130700I0J-50000D01*
G01*
X2612780Y-17053200D02*
X3912780Y-17053200D01*
X2612780Y-17558200D02*
X3912780Y-17558200D01*
X10659030Y-9988200D02*
X10659030Y-11288200D01*
X8609655Y-15653200D02*
G75*
G03*
X8559655Y-15703200I0J-50000D01*
G01*
X38185520Y-17225670D02*
G75*
G03*
X38264890Y-17305040I79370J0D01*
G01*
X30467730Y-11538200D02*
G75*
G03*
X30517730Y-11488200I0J50000D01*
G01*
X33097780Y-11893200D02*
X33097780Y-13193200D01*
X9756530Y-11843200D02*
G75*
G03*
X9706530Y-11893200I0J-50000D01*
G01*
X26296530Y-13243200D02*
G75*
G03*
X26346530Y-13193200I0J50000D01*
G01*
X6899030Y-9938200D02*
G75*
G03*
X6849030Y-9988200I0J-50000D01*
G01*
X18676530Y-13243200D02*
G75*
G03*
X18726530Y-13193200I0J50000D01*
G01*
X33047780Y-13243200D02*
G75*
G03*
X33097780Y-13193200I0J50000D01*
G01*
X26375280Y-15703200D02*
X26375280Y-17003200D01*
X31059030Y-8480700D02*
G75*
G03*
X31109030Y-8430700I0J50000D01*
G01*
X7008405Y-15148200D02*
G75*
G03*
X7058405Y-15098200I0J50000D01*
G01*
X11582780Y-13798200D02*
G75*
G03*
X11532780Y-13748200I-50000J0D01*
G01*
X28251530Y-11893200D02*
X28251530Y-13193200D01*
X8327780Y-15148200D02*
X9627780Y-15148200D01*
X27854030Y-9938200D02*
X29154030Y-9938200D01*
X15869030Y-7130700D02*
G75*
G03*
X15819030Y-7080700I-50000J0D01*
G01*
X2562780Y-11288200D02*
G75*
G03*
X2612780Y-11338200I50000J0D01*
G01*
X11661530Y-11843200D02*
X12961530Y-11843200D01*
X34521530Y-8480700D02*
X35821530Y-8480700D01*
X12564030Y-7130700D02*
X12564030Y-8430700D01*
X8609655Y-17053200D02*
X8709655Y-17053200D01*
X20234030Y-11338200D02*
X21534030Y-11338200D01*
X11185280Y-15653200D02*
G75*
G03*
X11135280Y-15703200I0J-50000D01*
G01*
X32898405Y-13748200D02*
G75*
G03*
X32848405Y-13798200I0J-50000D01*
G01*
X26851530Y-13193200D02*
G75*
G03*
X26901530Y-13243200I50000J0D01*
G01*
X21136530Y-7130700D02*
X21136530Y-8430700D01*
X23715535Y-18957420D02*
G75*
G03*
X23765535Y-18907420I0J50000D01*
G01*
X10709030Y-9938200D02*
X12009030Y-9938200D01*
X28677780Y-15148200D02*
G75*
G03*
X28727780Y-15098200I0J50000D01*
G01*
X32848405Y-13798200D02*
X32848405Y-15098200D01*
X28251530Y-11893200D02*
G75*
G03*
X28201530Y-11843200I-50000J0D01*
G01*
X8709655Y-17053200D02*
G75*
G03*
X8759655Y-17003200I0J50000D01*
G01*
X15471530Y-11843200D02*
G75*
G03*
X15421530Y-11893200I0J-50000D01*
G01*
X20631530Y-11893200D02*
G75*
G03*
X20581530Y-11843200I-50000J0D01*
G01*
X2612780Y-15148200D02*
X3912780Y-15148200D01*
X36426530Y-9938200D02*
G75*
G03*
X36376530Y-9988200I0J-50000D01*
G01*
X31187780Y-11843200D02*
X32487780Y-11843200D01*
X9151530Y-13243200D02*
G75*
G03*
X9201530Y-13193200I0J50000D01*
G01*
X34521530Y-18958200D02*
X35821530Y-18958200D01*
X38264890Y-15400160D02*
G75*
G03*
X38185520Y-15479530I0J-79370D01*
G01*
X34471530Y-17608200D02*
X34471530Y-18908200D01*
X8199030Y-11338200D02*
G75*
G03*
X8249030Y-11288200I0J50000D01*
G01*
X7851530Y-11843200D02*
X9151530Y-11843200D01*
X19679030Y-9988200D02*
G75*
G03*
X19629030Y-9938200I-50000J0D01*
G01*
X21534030Y-11338200D02*
G75*
G03*
X21584030Y-11288200I0J50000D01*
G01*
X23091530Y-7080700D02*
G75*
G03*
X23041530Y-7130700I0J-50000D01*
G01*
X12564030Y-8430700D02*
G75*
G03*
X12614030Y-8480700I50000J0D01*
G01*
X30627780Y-11843200D02*
G75*
G03*
X30577780Y-11893200I0J-50000D01*
G01*
X27854030Y-7080700D02*
X29154030Y-7080700D01*
X38331530Y-9938200D02*
G75*
G03*
X38281530Y-9988200I0J-50000D01*
G01*
X32422155Y-17053200D02*
X32522155Y-17053200D01*
X24441530Y-7130700D02*
G75*
G03*
X24391530Y-7080700I-50000J0D01*
G01*
X18488405Y-17608200D02*
X18488405Y-18908200D01*
X21186530Y-11843200D02*
X22486530Y-11843200D01*
X31187780Y-13243200D02*
X32487780Y-13243200D01*
X29044655Y-18958200D02*
X30344655Y-18958200D01*
X34471530Y-9988200D02*
X34471530Y-11288200D01*
X4994030Y-11338200D02*
X6294030Y-11338200D01*
X37776530Y-15703200D02*
X37776530Y-17003200D01*
X29044655Y-17558200D02*
X30344655Y-17558200D01*
X18805280Y-15653200D02*
X20105280Y-15653200D01*
X32537780Y-11893200D02*
G75*
G03*
X32487780Y-11843200I-50000J0D01*
G01*
X20660280Y-15703200D02*
X20660280Y-17003200D01*
X31425905Y-17558200D02*
G75*
G03*
X31375905Y-17608200I0J-50000D01*
G01*
X24044030Y-9938200D02*
G75*
G03*
X23994030Y-9988200I0J-50000D01*
G01*
X18279030Y-11288200D02*
G75*
G03*
X18329030Y-11338200I50000J0D01*
G01*
X32897780Y-13193200D02*
G75*
G03*
X32947780Y-13243200I50000J0D01*
G01*
X31375905Y-17608200D02*
X31375905Y-18908200D01*
X32422155Y-15653200D02*
G75*
G03*
X32372155Y-15703200I0J-50000D01*
G01*
X2612780Y-8480700D02*
X3912780Y-8480700D01*
X23091530Y-11843200D02*
G75*
G03*
X23041530Y-11893200I0J-50000D01*
G01*
X14469030Y-8430700D02*
G75*
G03*
X14519030Y-8480700I50000J0D01*
G01*
X9627780Y-15148200D02*
G75*
G03*
X9677780Y-15098200I0J50000D01*
G01*
X31664030Y-7080700D02*
G75*
G03*
X31614030Y-7130700I0J-50000D01*
G01*
X37776530Y-17608200D02*
X37776530Y-18908200D01*
X11611530Y-11893200D02*
X11611530Y-13193200D01*
X32775905Y-17608200D02*
G75*
G03*
X32725905Y-17558200I-50000J0D01*
G01*
X21107780Y-13798200D02*
G75*
G03*
X21057780Y-13748200I-50000J0D01*
G01*
X4910280Y-11843200D02*
X5010280Y-11843200D01*
X24391530Y-8480700D02*
G75*
G03*
X24441530Y-8430700I0J50000D01*
G01*
X17852780Y-13748200D02*
G75*
G03*
X17802780Y-13798200I0J-50000D01*
G01*
X8754030Y-7130700D02*
X8754030Y-8430700D01*
X29398405Y-13798200D02*
G75*
G03*
X29348405Y-13748200I-50000J0D01*
G01*
X16374030Y-9988200D02*
X16374030Y-11288200D01*
X12614030Y-9938200D02*
G75*
G03*
X12564030Y-9988200I0J-50000D01*
G01*
X17326530Y-11893200D02*
X17326530Y-13193200D01*
X30711530Y-9938200D02*
G75*
G03*
X30661530Y-9988200I0J-50000D01*
G01*
X19231530Y-7130700D02*
X19231530Y-8430700D01*
X35871530Y-7130700D02*
X35871530Y-8430700D01*
X17802780Y-13798200D02*
X17802780Y-15098200D01*
X9994655Y-18958200D02*
X11294655Y-18958200D01*
X5109655Y-15703200D02*
G75*
G03*
X5059655Y-15653200I-50000J0D01*
G01*
X9706530Y-11893200D02*
X9706530Y-13193200D01*
X21584030Y-9988200D02*
X21584030Y-11288200D01*
X3962780Y-9988200D02*
X3962780Y-11288200D01*
X20234030Y-9938200D02*
G75*
G03*
X20184030Y-9988200I0J-50000D01*
G01*
X2612780Y-7080700D02*
X3912780Y-7080700D01*
X16295280Y-17053200D02*
G75*
G03*
X16345280Y-17003200I0J50000D01*
G01*
X24232155Y-17608200D02*
X24232155Y-18908200D01*
X25632155Y-17608200D02*
G75*
G03*
X25582155Y-17558200I-50000J0D01*
G01*
X14519030Y-7080700D02*
X15819030Y-7080700D01*
X10232780Y-13748200D02*
X11532780Y-13748200D01*
X17724030Y-11338200D02*
G75*
G03*
X17774030Y-11288200I0J50000D01*
G01*
X28772155Y-15653200D02*
X28872155Y-15653200D01*
X17376530Y-8480700D02*
X18676530Y-8480700D01*
X29759030Y-8480700D02*
X31059030Y-8480700D01*
X38281530Y-9988200D02*
X38281530Y-11288200D01*
X38331530Y-7080700D02*
X39631530Y-7080700D01*
X13566530Y-11843200D02*
X14866530Y-11843200D01*
X28994655Y-18908200D02*
G75*
G03*
X29044655Y-18958200I50000J0D01*
G01*
X30777780Y-11893200D02*
X30777780Y-13193200D01*
X19231530Y-8430700D02*
G75*
G03*
X19281530Y-8480700I50000J0D01*
G01*
X25949030Y-7080700D02*
X27249030Y-7080700D01*
X7613405Y-17558200D02*
G75*
G03*
X7563405Y-17608200I0J-50000D01*
G01*
X5182155Y-18908200D02*
G75*
G03*
X5232155Y-18958200I50000J0D01*
G01*
X12535280Y-15703200D02*
G75*
G03*
X12485280Y-15653200I-50000J0D01*
G01*
X4959655Y-17053200D02*
X5059655Y-17053200D01*
X13914030Y-11338200D02*
G75*
G03*
X13964030Y-11288200I0J50000D01*
G01*
X15869030Y-9988200D02*
G75*
G03*
X15819030Y-9938200I-50000J0D01*
G01*
X17802780Y-15098200D02*
G75*
G03*
X17852780Y-15148200I50000J0D01*
G01*
X2612780Y-13243200D02*
X3912780Y-13243200D01*
X23765535Y-17607420D02*
G75*
G03*
X23715535Y-17557420I-50000J0D01*
G01*
X29709030Y-7130700D02*
X29709030Y-8430700D01*
X6294030Y-8480700D02*
G75*
G03*
X6344030Y-8430700I0J50000D01*
G01*
X27725280Y-17053200D02*
G75*
G03*
X27775280Y-17003200I0J50000D01*
G01*
X24441530Y-11893200D02*
G75*
G03*
X24391530Y-11843200I-50000J0D01*
G01*
X2612780Y-11843200D02*
X3912780Y-11843200D01*
X9706530Y-13193200D02*
G75*
G03*
X9756530Y-13243200I50000J0D01*
G01*
X12009030Y-11338200D02*
G75*
G03*
X12059030Y-11288200I0J50000D01*
G01*
X22010280Y-17053200D02*
G75*
G03*
X22060280Y-17003200I0J50000D01*
G01*
X27299030Y-9988200D02*
G75*
G03*
X27249030Y-9938200I-50000J0D01*
G01*
X4909655Y-15703200D02*
X4909655Y-17003200D01*
X7801530Y-11893200D02*
X7801530Y-13193200D01*
X29248405Y-13748200D02*
G75*
G03*
X29198405Y-13798200I0J-50000D01*
G01*
X8277780Y-13798200D02*
X8277780Y-15098200D01*
X32947780Y-11843200D02*
G75*
G03*
X32897780Y-11893200I0J-50000D01*
G01*
X14469030Y-11288200D02*
G75*
G03*
X14519030Y-11338200I50000J0D01*
G01*
X26663405Y-17558200D02*
G75*
G03*
X26613405Y-17608200I0J-50000D01*
G01*
X19757780Y-13748200D02*
X21057780Y-13748200D01*
X22139030Y-9938200D02*
X23439030Y-9938200D01*
X3912780Y-13243200D02*
G75*
G03*
X3962780Y-13193200I0J50000D01*
G01*
X5232155Y-17558200D02*
X6532155Y-17558200D01*
X36426530Y-17558200D02*
G75*
G03*
X36376530Y-17608200I0J-50000D01*
G01*
X9994655Y-17558200D02*
X11294655Y-17558200D01*
X12564030Y-9988200D02*
X12564030Y-11288200D01*
X8759655Y-15703200D02*
X8759655Y-17003200D01*
X8804030Y-9938200D02*
G75*
G03*
X8754030Y-9988200I0J-50000D01*
G01*
X24917780Y-13798200D02*
X24917780Y-15098200D01*
X28772155Y-17053200D02*
X28872155Y-17053200D01*
X34521530Y-17558200D02*
G75*
G03*
X34471530Y-17608200I0J-50000D01*
G01*
X8804030Y-9938200D02*
X10104030Y-9938200D01*
X27775280Y-15703200D02*
X27775280Y-17003200D01*
X11135280Y-17003200D02*
G75*
G03*
X11185280Y-17053200I50000J0D01*
G01*
X27775280Y-15703200D02*
G75*
G03*
X27725280Y-15653200I-50000J0D01*
G01*
X2562780Y-17608200D02*
X2562780Y-18908200D01*
X25422780Y-15098200D02*
G75*
G03*
X25472780Y-15148200I50000J0D01*
G01*
X10659030Y-8430700D02*
G75*
G03*
X10709030Y-8480700I50000J0D01*
G01*
D11*
X40863680Y-19765570D02*
X40863680Y-6272670D01*
D10*
X24282155Y-17558200D02*
X25582155Y-17558200D01*
X39681530Y-9988200D02*
X39681530Y-11288200D01*
X38331530Y-8480700D02*
X39631530Y-8480700D01*
X20631530Y-7130700D02*
G75*
G03*
X20581530Y-7080700I-50000J0D01*
G01*
X3962780Y-9988200D02*
G75*
G03*
X3912780Y-9938200I-50000J0D01*
G01*
X6820280Y-11893200D02*
X6820280Y-13193200D01*
X24232155Y-18908200D02*
G75*
G03*
X24282155Y-18958200I50000J0D01*
G01*
X17138405Y-17558200D02*
X18438405Y-17558200D01*
X39058590Y-15148080D02*
G75*
G03*
X39108590Y-15098080I0J50000D01*
G01*
X29759030Y-7080700D02*
G75*
G03*
X29709030Y-7130700I0J-50000D01*
G01*
X38331530Y-17558200D02*
G75*
G03*
X38281530Y-17608200I0J-50000D01*
G01*
X10154030Y-7130700D02*
G75*
G03*
X10104030Y-7080700I-50000J0D01*
G01*
X7180280Y-11893200D02*
X7180280Y-13193200D01*
X37726530Y-18958200D02*
G75*
G03*
X37776530Y-18908200I0J50000D01*
G01*
X28806530Y-13243200D02*
X30106530Y-13243200D01*
X17326530Y-7130700D02*
X17326530Y-8430700D01*
X8754030Y-8430700D02*
G75*
G03*
X8804030Y-8480700I50000J0D01*
G01*
X18250280Y-15703200D02*
G75*
G03*
X18200280Y-15653200I-50000J0D01*
G01*
X30711530Y-11338200D02*
X32011530Y-11338200D01*
X13914030Y-8480700D02*
G75*
G03*
X13964030Y-8430700I0J50000D01*
G01*
X3962780Y-17608200D02*
G75*
G03*
X3912780Y-17558200I-50000J0D01*
G01*
X4944030Y-7130700D02*
X4944030Y-8430700D01*
X26613405Y-17608200D02*
X26613405Y-18908200D01*
X25422780Y-13798200D02*
X25422780Y-15098200D01*
X22536530Y-7130700D02*
G75*
G03*
X22486530Y-7080700I-50000J0D01*
G01*
X22615280Y-15653200D02*
X23915280Y-15653200D01*
X12535280Y-15703200D02*
X12535280Y-17003200D01*
X32848405Y-15098200D02*
G75*
G03*
X32898405Y-15148200I50000J0D01*
G01*
X12614030Y-7080700D02*
G75*
G03*
X12564030Y-7130700I0J-50000D01*
G01*
X17138405Y-17558200D02*
G75*
G03*
X17088405Y-17608200I0J-50000D01*
G01*
X11106530Y-11893200D02*
X11106530Y-13193200D01*
X29709030Y-8430700D02*
G75*
G03*
X29759030Y-8480700I50000J0D01*
G01*
X13437780Y-15148200D02*
G75*
G03*
X13487780Y-15098200I0J50000D01*
G01*
X26425280Y-17053200D02*
X27725280Y-17053200D01*
X10154030Y-9988200D02*
G75*
G03*
X10104030Y-9938200I-50000J0D01*
G01*
X30727780Y-13243200D02*
G75*
G03*
X30777780Y-13193200I0J50000D01*
G01*
X21612780Y-15098200D02*
G75*
G03*
X21662780Y-15148200I50000J0D01*
G01*
X34471530Y-18908200D02*
G75*
G03*
X34521530Y-18958200I50000J0D01*
G01*
X15421530Y-13193200D02*
G75*
G03*
X15471530Y-13243200I50000J0D01*
G01*
X13138405Y-17406760D02*
X13138405Y-19108200D01*
X16424030Y-11338200D02*
X17724030Y-11338200D01*
X3912780Y-17053200D02*
G75*
G03*
X3962780Y-17003200I0J50000D01*
G01*
X4944030Y-11288200D02*
G75*
G03*
X4994030Y-11338200I50000J0D01*
G01*
X19707780Y-15098200D02*
G75*
G03*
X19757780Y-15148200I50000J0D01*
G01*
X6770280Y-13243200D02*
G75*
G03*
X6820280Y-13193200I0J50000D01*
G01*
X35871530Y-17608200D02*
G75*
G03*
X35821530Y-17558200I-50000J0D01*
G01*
X7380280Y-11893200D02*
G75*
G03*
X7330280Y-11843200I-50000J0D01*
G01*
X11185280Y-15653200D02*
X12485280Y-15653200D01*
X31425905Y-17558200D02*
X32725905Y-17558200D01*
X18488405Y-17608200D02*
G75*
G03*
X18438405Y-17558200I-50000J0D01*
G01*
X13487780Y-13798200D02*
G75*
G03*
X13437780Y-13748200I-50000J0D01*
G01*
X26425280Y-15653200D02*
G75*
G03*
X26375280Y-15703200I0J-50000D01*
G01*
X9201530Y-11893200D02*
X9201530Y-13193200D01*
X13992780Y-13798200D02*
X13992780Y-15098200D01*
X10154030Y-7130700D02*
X10154030Y-8430700D01*
X18755280Y-17003200D02*
G75*
G03*
X18805280Y-17053200I50000J0D01*
G01*
X5232155Y-17558200D02*
G75*
G03*
X5182155Y-17608200I0J-50000D01*
G01*
X3912780Y-11338200D02*
G75*
G03*
X3962780Y-11288200I0J50000D01*
G01*
X3912780Y-15148200D02*
G75*
G03*
X3962780Y-15098200I0J50000D01*
G01*
X21136530Y-8430700D02*
G75*
G03*
X21186530Y-8480700I50000J0D01*
G01*
X15342780Y-15148200D02*
G75*
G03*
X15392780Y-15098200I0J50000D01*
G01*
X30106530Y-13243200D02*
G75*
G03*
X30156530Y-13193200I0J50000D01*
G01*
X9280280Y-15653200D02*
G75*
G03*
X9230280Y-15703200I0J-50000D01*
G01*
X8277780Y-15098200D02*
G75*
G03*
X8327780Y-15148200I50000J0D01*
G01*
X9201530Y-11893200D02*
G75*
G03*
X9151530Y-11843200I-50000J0D01*
G01*
X14519030Y-8480700D02*
X15819030Y-8480700D01*
X30777780Y-11893200D02*
G75*
G03*
X30727780Y-11843200I-50000J0D01*
G01*
X16424030Y-9938200D02*
G75*
G03*
X16374030Y-9988200I0J-50000D01*
G01*
X5232155Y-18958200D02*
X6532155Y-18958200D01*
X21107780Y-13798200D02*
X21107780Y-15098200D01*
X28922155Y-15703200D02*
X28922155Y-17003200D01*
X39681530Y-7130700D02*
G75*
G03*
X39631530Y-7080700I-50000J0D01*
G01*
X28806530Y-11843200D02*
G75*
G03*
X28756530Y-11893200I0J-50000D01*
G01*
X8249030Y-9988200D02*
G75*
G03*
X8199030Y-9938200I-50000J0D01*
G01*
X8249030Y-9988200D02*
X8249030Y-11288200D01*
X2562780Y-15703200D02*
X2562780Y-17003200D01*
X29204030Y-9988200D02*
X29204030Y-11288200D01*
X28756530Y-11893200D02*
X28756530Y-13193200D01*
X17774030Y-9988200D02*
X17774030Y-11288200D01*
X39108590Y-13798080D02*
X39108590Y-15098080D01*
X28201530Y-13243200D02*
G75*
G03*
X28251530Y-13193200I0J50000D01*
G01*
X4944030Y-8430700D02*
G75*
G03*
X4994030Y-8480700I50000J0D01*
G01*
X25870280Y-15703200D02*
G75*
G03*
X25820280Y-15653200I-50000J0D01*
G01*
X12438405Y-17406760D02*
X12438405Y-19108200D01*
X22486530Y-8480700D02*
G75*
G03*
X22536530Y-8430700I0J50000D01*
G01*
X8754030Y-9988200D02*
X8754030Y-11288200D01*
X32522155Y-17053200D02*
G75*
G03*
X32572155Y-17003200I0J50000D01*
G01*
X28994655Y-17608200D02*
X28994655Y-18908200D01*
X10232780Y-13748200D02*
G75*
G03*
X10182780Y-13798200I0J-50000D01*
G01*
X20710280Y-17053200D02*
X22010280Y-17053200D01*
X3962780Y-7130700D02*
X3962780Y-8430700D01*
X36426530Y-15653200D02*
G75*
G03*
X36376530Y-15703200I0J-50000D01*
G01*
X10580280Y-17053200D02*
G75*
G03*
X10630280Y-17003200I0J50000D01*
G01*
D11*
X1337420Y-6272670D02*
X1337420Y-19765570D01*
D10*
X13040280Y-15703200D02*
X13040280Y-17003200D01*
X38281530Y-8430700D02*
G75*
G03*
X38331530Y-8480700I50000J0D01*
G01*
X26822780Y-13798200D02*
X26822780Y-15098200D01*
X2612780Y-9938200D02*
X3912780Y-9938200D01*
X33097780Y-11893200D02*
G75*
G03*
X33047780Y-11843200I-50000J0D01*
G01*
X34521530Y-11338200D02*
X35821530Y-11338200D01*
X28772155Y-15653200D02*
G75*
G03*
X28722155Y-15703200I0J-50000D01*
G01*
X12087780Y-13798200D02*
X12087780Y-15098200D01*
X14995280Y-15653200D02*
G75*
G03*
X14945280Y-15703200I0J-50000D01*
G01*
X7801530Y-13193200D02*
G75*
G03*
X7851530Y-13243200I50000J0D01*
G01*
X6582155Y-17608200D02*
G75*
G03*
X6532155Y-17558200I-50000J0D01*
G01*
X37776530Y-9988200D02*
G75*
G03*
X37726530Y-9938200I-50000J0D01*
G01*
X32905330Y-9787720D02*
X32905330Y-11488200D01*
X30627780Y-13243200D02*
X30727780Y-13243200D01*
X24044030Y-11338200D02*
X25344030Y-11338200D01*
X17376530Y-11843200D02*
G75*
G03*
X17326530Y-11893200I0J-50000D01*
G01*
X14916530Y-11893200D02*
G75*
G03*
X14866530Y-11843200I-50000J0D01*
G01*
X13566530Y-11843200D02*
G75*
G03*
X13516530Y-11893200I0J-50000D01*
G01*
X8913405Y-18958200D02*
G75*
G03*
X8963405Y-18908200I0J50000D01*
G01*
X27804030Y-7130700D02*
X27804030Y-8430700D01*
X35119460Y-13798080D02*
X35119460Y-15098080D01*
X22139030Y-9938200D02*
G75*
G03*
X22089030Y-9988200I0J-50000D01*
G01*
X15471530Y-11843200D02*
X16771530Y-11843200D01*
X36376530Y-18908200D02*
G75*
G03*
X36426530Y-18958200I50000J0D01*
G01*
X39631530Y-8480700D02*
G75*
G03*
X39681530Y-8430700I0J50000D01*
G01*
X5470280Y-11843200D02*
G75*
G03*
X5420280Y-11893200I0J-50000D01*
G01*
X25949030Y-8480700D02*
X27249030Y-8480700D01*
X32898405Y-15148200D02*
X32998405Y-15148200D01*
X23041530Y-13193200D02*
G75*
G03*
X23091530Y-13243200I50000J0D01*
G01*
X32205330Y-11488200D02*
G75*
G03*
X32255330Y-11538200I50000J0D01*
G01*
X25899030Y-7130700D02*
X25899030Y-8430700D01*
X26822780Y-13798200D02*
G75*
G03*
X26772780Y-13748200I-50000J0D01*
G01*
X31425905Y-18958200D02*
X32725905Y-18958200D01*
X10709030Y-8480700D02*
X12009030Y-8480700D01*
X5182155Y-17608200D02*
X5182155Y-18908200D01*
X34471530Y-7130700D02*
X34471530Y-8430700D01*
X15421530Y-11893200D02*
X15421530Y-13193200D01*
X32898405Y-13748200D02*
X32998405Y-13748200D01*
X38264890Y-17305040D02*
X39693550Y-17305040D01*
X28872155Y-17053200D02*
G75*
G03*
X28922155Y-17003200I0J50000D01*
G01*
X3912780Y-18958200D02*
G75*
G03*
X3962780Y-18908200I0J50000D01*
G01*
X28722155Y-17003200D02*
G75*
G03*
X28772155Y-17053200I50000J0D01*
G01*
X25582155Y-18958200D02*
G75*
G03*
X25632155Y-18908200I0J50000D01*
G01*
X19757780Y-13748200D02*
G75*
G03*
X19707780Y-13798200I0J-50000D01*
G01*
X22962780Y-15148200D02*
G75*
G03*
X23012780Y-15098200I0J50000D01*
G01*
X26425280Y-15653200D02*
X27725280Y-15653200D01*
X32061530Y-9988200D02*
G75*
G03*
X32011530Y-9938200I-50000J0D01*
G01*
X34521530Y-7080700D02*
G75*
G03*
X34471530Y-7130700I0J-50000D01*
G01*
X14995280Y-15653200D02*
X16295280Y-15653200D01*
X25820280Y-17053200D02*
G75*
G03*
X25870280Y-17003200I0J50000D01*
G01*
X26851530Y-11893200D02*
X26851530Y-13193200D01*
X13516530Y-11893200D02*
X13516530Y-13193200D01*
X8327780Y-13748200D02*
X9627780Y-13748200D01*
X30711530Y-9938200D02*
X32011530Y-9938200D01*
X14945280Y-15703200D02*
X14945280Y-17003200D01*
X33048405Y-13798200D02*
X33048405Y-15098200D01*
X23556085Y-18907420D02*
G75*
G03*
X23606085Y-18957420I50000J0D01*
G01*
X29759030Y-7080700D02*
X31059030Y-7080700D01*
X18329030Y-9938200D02*
G75*
G03*
X18279030Y-9988200I0J-50000D01*
G01*
X8754030Y-11288200D02*
G75*
G03*
X8804030Y-11338200I50000J0D01*
G01*
X30577780Y-13193200D02*
G75*
G03*
X30627780Y-13243200I50000J0D01*
G01*
X31664030Y-7080700D02*
X32964030Y-7080700D01*
X25394030Y-9988200D02*
X25394030Y-11288200D01*
X7230280Y-11843200D02*
X7330280Y-11843200D01*
X3962780Y-17608200D02*
X3962780Y-18908200D01*
X12137780Y-13748200D02*
G75*
G03*
X12087780Y-13798200I0J-50000D01*
G01*
X19281530Y-8480700D02*
X20581530Y-8480700D01*
X32372155Y-15703200D02*
X32372155Y-17003200D01*
X17138405Y-18958200D02*
X18438405Y-18958200D01*
X14440280Y-15703200D02*
G75*
G03*
X14390280Y-15653200I-50000J0D01*
G01*
X22615280Y-15653200D02*
G75*
G03*
X22565280Y-15703200I0J-50000D01*
G01*
X7330280Y-13243200D02*
G75*
G03*
X7380280Y-13193200I0J50000D01*
G01*
X8327780Y-13748200D02*
G75*
G03*
X8277780Y-13798200I0J-50000D01*
G01*
X8804030Y-7080700D02*
G75*
G03*
X8754030Y-7130700I0J-50000D01*
G01*
X24441530Y-11893200D02*
X24441530Y-13193200D01*
X22089030Y-9988200D02*
X22089030Y-11288200D01*
X11661530Y-13243200D02*
X12961530Y-13243200D01*
X23606085Y-17557420D02*
G75*
G03*
X23556085Y-17607420I0J-50000D01*
G01*
X21186530Y-7080700D02*
G75*
G03*
X21136530Y-7130700I0J-50000D01*
G01*
X23012780Y-13798200D02*
G75*
G03*
X22962780Y-13748200I-50000J0D01*
G01*
X18726530Y-7130700D02*
G75*
G03*
X18676530Y-7080700I-50000J0D01*
G01*
X17376530Y-7080700D02*
X18676530Y-7080700D01*
X39631530Y-11338200D02*
G75*
G03*
X39681530Y-11288200I0J50000D01*
G01*
X13090280Y-15653200D02*
G75*
G03*
X13040280Y-15703200I0J-50000D01*
G01*
X39693550Y-17305040D02*
G75*
G03*
X39772920Y-17225670I0J79370D01*
G01*
X27377780Y-15148200D02*
X28677780Y-15148200D01*
X18279030Y-9988200D02*
X18279030Y-11288200D01*
X34521530Y-9938200D02*
G75*
G03*
X34471530Y-9988200I0J-50000D01*
G01*
X6820280Y-11893200D02*
G75*
G03*
X6770280Y-11843200I-50000J0D01*
G01*
X16345280Y-15703200D02*
X16345280Y-17003200D01*
X38264890Y-15400160D02*
X39693550Y-15400160D01*
X36426530Y-17558200D02*
X37726530Y-17558200D01*
X18726530Y-7130700D02*
X18726530Y-8430700D01*
X7380280Y-11893200D02*
X7380280Y-13193200D01*
X33014030Y-7130700D02*
G75*
G03*
X32964030Y-7080700I-50000J0D01*
G01*
X18726530Y-11893200D02*
X18726530Y-13193200D01*
X5470280Y-13243200D02*
X6770280Y-13243200D01*
X28013405Y-17608200D02*
G75*
G03*
X27963405Y-17558200I-50000J0D01*
G01*
X25949030Y-11338200D02*
X27249030Y-11338200D01*
X5059655Y-17053200D02*
G75*
G03*
X5109655Y-17003200I0J50000D01*
G01*
X15947780Y-13748200D02*
X17247780Y-13748200D01*
X23765535Y-18907420D02*
X23765535Y-17607420D01*
X9280280Y-15653200D02*
X10580280Y-15653200D01*
X14042780Y-13748200D02*
G75*
G03*
X13992780Y-13798200I0J-50000D01*
G01*
X23489030Y-9988200D02*
X23489030Y-11288200D01*
X2562780Y-8430700D02*
G75*
G03*
X2612780Y-8480700I50000J0D01*
G01*
X35821530Y-8480700D02*
G75*
G03*
X35871530Y-8430700I0J50000D01*
G01*
X9944655Y-18908200D02*
G75*
G03*
X9994655Y-18958200I50000J0D01*
G01*
X30394655Y-17608200D02*
X30394655Y-18908200D01*
X34521530Y-9938200D02*
X35821530Y-9938200D01*
X31109030Y-7130700D02*
X31109030Y-8430700D01*
X23965280Y-15703200D02*
X23965280Y-17003200D01*
X27327780Y-13798200D02*
X27327780Y-15098200D01*
X14945280Y-17003200D02*
G75*
G03*
X14995280Y-17053200I50000J0D01*
G01*
X23041530Y-8430700D02*
G75*
G03*
X23091530Y-8480700I50000J0D01*
G01*
X7180280Y-13193200D02*
G75*
G03*
X7230280Y-13243200I50000J0D01*
G01*
X18329030Y-11338200D02*
X19629030Y-11338200D01*
X8759655Y-15703200D02*
G75*
G03*
X8709655Y-15653200I-50000J0D01*
G01*
X10630280Y-15703200D02*
X10630280Y-17003200D01*
D11*
X1337420Y-19765570D02*
G75*
G03*
X1734270Y-20162420I396850J0D01*
G01*
D10*
X23041530Y-11893200D02*
X23041530Y-13193200D01*
X35169460Y-13748080D02*
X39058590Y-13748080D01*
X32372155Y-17003200D02*
G75*
G03*
X32422155Y-17053200I50000J0D01*
G01*
X29817730Y-11488200D02*
G75*
G03*
X29867730Y-11538200I50000J0D01*
G01*
X9677780Y-13798200D02*
G75*
G03*
X9627780Y-13748200I-50000J0D01*
G01*
X23091530Y-7080700D02*
X24391530Y-7080700D01*
X17297780Y-13798200D02*
G75*
G03*
X17247780Y-13748200I-50000J0D01*
G01*
X2562780Y-13798200D02*
X2562780Y-15098200D01*
X25344030Y-11338200D02*
G75*
G03*
X25394030Y-11288200I0J50000D01*
G01*
X35871530Y-9988200D02*
G75*
G03*
X35821530Y-9938200I-50000J0D01*
G01*
X7058405Y-13798200D02*
X7058405Y-15098200D01*
X17247780Y-15148200D02*
G75*
G03*
X17297780Y-15098200I0J50000D01*
G01*
X19231530Y-13193200D02*
G75*
G03*
X19281530Y-13243200I50000J0D01*
G01*
X21186530Y-8480700D02*
X22486530Y-8480700D01*
X15819030Y-8480700D02*
G75*
G03*
X15869030Y-8430700I0J50000D01*
G01*
X15869030Y-9988200D02*
X15869030Y-11288200D01*
X15392780Y-13798200D02*
X15392780Y-15098200D01*
X20710280Y-15653200D02*
X22010280Y-15653200D01*
X31664030Y-8480700D02*
X32964030Y-8480700D01*
X24946530Y-11893200D02*
X24946530Y-13193200D01*
X2562780Y-9988200D02*
X2562780Y-11288200D01*
X10709030Y-7080700D02*
G75*
G03*
X10659030Y-7130700I0J-50000D01*
G01*
X20184030Y-11288200D02*
G75*
G03*
X20234030Y-11338200I50000J0D01*
G01*
X9944655Y-17608200D02*
X9944655Y-18908200D01*
X17088405Y-17608200D02*
X17088405Y-18908200D01*
X23091530Y-8480700D02*
X24391530Y-8480700D01*
X32487780Y-13243200D02*
G75*
G03*
X32537780Y-13193200I0J50000D01*
G01*
X18250280Y-15703200D02*
X18250280Y-17003200D01*
X25472780Y-15148200D02*
X26772780Y-15148200D01*
X2612780Y-13748200D02*
G75*
G03*
X2562780Y-13798200I0J-50000D01*
G01*
X8963405Y-17608200D02*
X8963405Y-18908200D01*
X21136530Y-11893200D02*
X21136530Y-13193200D01*
X29198405Y-13798200D02*
X29198405Y-15098200D01*
X7613405Y-17558200D02*
X8913405Y-17558200D01*
X32725905Y-18958200D02*
G75*
G03*
X32775905Y-18908200I0J50000D01*
G01*
D11*
X40466830Y-20162420D02*
G75*
G03*
X40863680Y-19765570I0J396850D01*
G01*
D10*
X38331530Y-17558200D02*
X39631530Y-17558200D01*
X14042780Y-13748200D02*
X15342780Y-13748200D01*
X27299030Y-9988200D02*
X27299030Y-11288200D01*
X29154030Y-8480700D02*
G75*
G03*
X29204030Y-8430700I0J50000D01*
G01*
X24996530Y-11843200D02*
G75*
G03*
X24946530Y-11893200I0J-50000D01*
G01*
X11344655Y-17608200D02*
X11344655Y-18908200D01*
X22565280Y-17003200D02*
G75*
G03*
X22615280Y-17053200I50000J0D01*
G01*
X25899030Y-11288200D02*
G75*
G03*
X25949030Y-11338200I50000J0D01*
G01*
X20184030Y-9988200D02*
X20184030Y-11288200D01*
X27327780Y-15098200D02*
G75*
G03*
X27377780Y-15148200I50000J0D01*
G01*
X36426530Y-18958200D02*
X37726530Y-18958200D01*
X14519030Y-9938200D02*
X15819030Y-9938200D01*
X23567780Y-13748200D02*
X24867780Y-13748200D01*
X25949030Y-9938200D02*
G75*
G03*
X25899030Y-9988200I0J-50000D01*
G01*
X12059030Y-7130700D02*
G75*
G03*
X12009030Y-7080700I-50000J0D01*
G01*
X25472780Y-13748200D02*
X26772780Y-13748200D01*
X17852780Y-15148200D02*
X19152780Y-15148200D01*
X15897780Y-13798200D02*
X15897780Y-15098200D01*
X34471530Y-8430700D02*
G75*
G03*
X34521530Y-8480700I50000J0D01*
G01*
X14866530Y-13243200D02*
G75*
G03*
X14916530Y-13193200I0J50000D01*
G01*
D11*
X40863680Y-6272670D02*
G75*
G03*
X40466830Y-5875820I-396850J0D01*
G01*
D10*
X7058405Y-13798200D02*
G75*
G03*
X7008405Y-13748200I-50000J0D01*
G01*
X9756530Y-13243200D02*
X11056530Y-13243200D01*
X4994030Y-8480700D02*
X6294030Y-8480700D01*
X14519030Y-11338200D02*
X15819030Y-11338200D01*
X24044030Y-9938200D02*
X25344030Y-9938200D01*
X39681530Y-7130700D02*
X39681530Y-8430700D01*
X18726530Y-11893200D02*
G75*
G03*
X18676530Y-11843200I-50000J0D01*
G01*
X7851530Y-13243200D02*
X9151530Y-13243200D01*
X6899030Y-9938200D02*
X8199030Y-9938200D01*
X18200280Y-17053200D02*
G75*
G03*
X18250280Y-17003200I0J50000D01*
G01*
X13011530Y-11893200D02*
G75*
G03*
X12961530Y-11843200I-50000J0D01*
G01*
X15947780Y-13748200D02*
G75*
G03*
X15897780Y-13798200I0J-50000D01*
G01*
X29248405Y-13748200D02*
X29348405Y-13748200D01*
X6344030Y-7130700D02*
X6344030Y-8430700D01*
X24867780Y-15148200D02*
G75*
G03*
X24917780Y-15098200I0J50000D01*
G01*
X30661530Y-11288200D02*
G75*
G03*
X30711530Y-11338200I50000J0D01*
G01*
X13964030Y-7130700D02*
G75*
G03*
X13914030Y-7080700I-50000J0D01*
G01*
X32572155Y-15703200D02*
X32572155Y-17003200D01*
X11532780Y-15148200D02*
G75*
G03*
X11582780Y-15098200I0J50000D01*
G01*
X7230280Y-11843200D02*
G75*
G03*
X7180280Y-11893200I0J-50000D01*
G01*
X38281530Y-11288200D02*
G75*
G03*
X38331530Y-11338200I50000J0D01*
G01*
X10630280Y-15703200D02*
G75*
G03*
X10580280Y-15653200I-50000J0D01*
G01*
X28806530Y-11843200D02*
X30106530Y-11843200D01*
X20155280Y-15703200D02*
G75*
G03*
X20105280Y-15653200I-50000J0D01*
G01*
X13090280Y-17053200D02*
X14390280Y-17053200D01*
X11294655Y-18958200D02*
G75*
G03*
X11344655Y-18908200I0J50000D01*
G01*
X27377780Y-13748200D02*
X28677780Y-13748200D01*
X22139030Y-11338200D02*
X23439030Y-11338200D01*
X20660280Y-17003200D02*
G75*
G03*
X20710280Y-17053200I50000J0D01*
G01*
X34521530Y-7080700D02*
X35821530Y-7080700D01*
X24946530Y-13193200D02*
G75*
G03*
X24996530Y-13243200I50000J0D01*
G01*
X36376530Y-17608200D02*
X36376530Y-18908200D01*
X14440280Y-15703200D02*
X14440280Y-17003200D01*
X2562780Y-11893200D02*
X2562780Y-13193200D01*
X7230280Y-13243200D02*
X7330280Y-13243200D01*
X2612780Y-18958200D02*
X3912780Y-18958200D01*
X14390280Y-17053200D02*
G75*
G03*
X14440280Y-17003200I0J50000D01*
G01*
X32011530Y-11338200D02*
G75*
G03*
X32061530Y-11288200I0J50000D01*
G01*
X19202780Y-13798200D02*
G75*
G03*
X19152780Y-13748200I-50000J0D01*
G01*
X13566530Y-13243200D02*
X14866530Y-13243200D01*
X19281530Y-7080700D02*
G75*
G03*
X19231530Y-7130700I0J-50000D01*
G01*
X12564030Y-11288200D02*
G75*
G03*
X12614030Y-11338200I50000J0D01*
G01*
X32255330Y-11538200D02*
X32855330Y-11538200D01*
X10104030Y-8480700D02*
G75*
G03*
X10154030Y-8430700I0J50000D01*
G01*
X24282155Y-17558200D02*
G75*
G03*
X24232155Y-17608200I0J-50000D01*
G01*
X29204030Y-9988200D02*
G75*
G03*
X29154030Y-9938200I-50000J0D01*
G01*
X29867730Y-11538200D02*
X30467730Y-11538200D01*
X5109655Y-15703200D02*
X5109655Y-17003200D01*
X24470280Y-15703200D02*
X24470280Y-17003200D01*
X12137780Y-13748200D02*
X13437780Y-13748200D01*
X33014030Y-7130700D02*
X33014030Y-8430700D01*
X12614030Y-7080700D02*
X13914030Y-7080700D01*
X22089030Y-11288200D02*
G75*
G03*
X22139030Y-11338200I50000J0D01*
G01*
X30156530Y-11893200D02*
G75*
G03*
X30106530Y-11843200I-50000J0D01*
G01*
X19152780Y-15148200D02*
G75*
G03*
X19202780Y-15098200I0J50000D01*
G01*
X39631530Y-18958200D02*
G75*
G03*
X39681530Y-18908200I0J50000D01*
G01*
X8559655Y-15703200D02*
X8559655Y-17003200D01*
X9280280Y-17053200D02*
X10580280Y-17053200D01*
X12485280Y-17053200D02*
G75*
G03*
X12535280Y-17003200I0J50000D01*
G01*
X11185280Y-17053200D02*
X12485280Y-17053200D01*
X23567780Y-13748200D02*
G75*
G03*
X23517780Y-13798200I0J-50000D01*
G01*
X29204030Y-7130700D02*
X29204030Y-8430700D01*
X14995280Y-17053200D02*
X16295280Y-17053200D01*
X3912780Y-8480700D02*
G75*
G03*
X3962780Y-8430700I0J50000D01*
G01*
X29204030Y-7130700D02*
G75*
G03*
X29154030Y-7080700I-50000J0D01*
G01*
X36376530Y-9988200D02*
X36376530Y-11288200D01*
X4959655Y-15653200D02*
G75*
G03*
X4909655Y-15703200I0J-50000D01*
G01*
X31137780Y-11893200D02*
X31137780Y-13193200D01*
X26663405Y-18958200D02*
X27963405Y-18958200D01*
X13040280Y-17003200D02*
G75*
G03*
X13090280Y-17053200I50000J0D01*
G01*
X32572155Y-15703200D02*
G75*
G03*
X32522155Y-15653200I-50000J0D01*
G01*
X38331530Y-7080700D02*
G75*
G03*
X38281530Y-7130700I0J-50000D01*
G01*
X16850280Y-15703200D02*
X16850280Y-17003200D01*
X6849030Y-11288200D02*
G75*
G03*
X6899030Y-11338200I50000J0D01*
G01*
X31614030Y-7130700D02*
X31614030Y-8430700D01*
X23994030Y-11288200D02*
G75*
G03*
X24044030Y-11338200I50000J0D01*
G01*
X18805280Y-17053200D02*
X20105280Y-17053200D01*
X38281530Y-17608200D02*
X38281530Y-18908200D01*
X17326530Y-8430700D02*
G75*
G03*
X17376530Y-8480700I50000J0D01*
G01*
X30577780Y-11893200D02*
X30577780Y-13193200D01*
X2562780Y-17003200D02*
G75*
G03*
X2612780Y-17053200I50000J0D01*
G01*
X29198405Y-15098200D02*
G75*
G03*
X29248405Y-15148200I50000J0D01*
G01*
X6899030Y-11338200D02*
X8199030Y-11338200D01*
X8804030Y-8480700D02*
X10104030Y-8480700D01*
X13964030Y-7130700D02*
X13964030Y-8430700D01*
X36376530Y-15703200D02*
X36376530Y-17003200D01*
X39772920Y-15479530D02*
G75*
G03*
X39693550Y-15400160I-79370J0D01*
G01*
X21662780Y-13748200D02*
X22962780Y-13748200D01*
X12059030Y-9988200D02*
G75*
G03*
X12009030Y-9938200I-50000J0D01*
G01*
X8609655Y-15653200D02*
X8709655Y-15653200D01*
X4860280Y-13193200D02*
G75*
G03*
X4910280Y-13243200I50000J0D01*
G01*
X36426530Y-11338200D02*
X37726530Y-11338200D01*
X19629030Y-11338200D02*
G75*
G03*
X19679030Y-11288200I0J50000D01*
G01*
X4909655Y-17003200D02*
G75*
G03*
X4959655Y-17053200I50000J0D01*
G01*
X9756530Y-11843200D02*
X11056530Y-11843200D01*
X27854030Y-11338200D02*
X29154030Y-11338200D01*
X39681530Y-17608200D02*
X39681530Y-18908200D01*
X17774030Y-9988200D02*
G75*
G03*
X17724030Y-9938200I-50000J0D01*
G01*
X24470280Y-17003200D02*
G75*
G03*
X24520280Y-17053200I50000J0D01*
G01*
X19707780Y-13798200D02*
X19707780Y-15098200D01*
X39681530Y-17608200D02*
G75*
G03*
X39631530Y-17558200I-50000J0D01*
G01*
X38331530Y-9938200D02*
X39631530Y-9938200D01*
X24917780Y-13798200D02*
G75*
G03*
X24867780Y-13748200I-50000J0D01*
G01*
X32205330Y-9787720D02*
X32205330Y-11488200D01*
X8559655Y-17003200D02*
G75*
G03*
X8609655Y-17053200I50000J0D01*
G01*
X4910280Y-13243200D02*
X5010280Y-13243200D01*
X7613405Y-18958200D02*
X8913405Y-18958200D01*
X22565280Y-15703200D02*
X22565280Y-17003200D01*
X35821530Y-18958200D02*
G75*
G03*
X35871530Y-18908200I0J50000D01*
G01*
X24282155Y-18958200D02*
X25582155Y-18958200D01*
X21057780Y-15148200D02*
G75*
G03*
X21107780Y-15098200I0J50000D01*
G01*
X35821530Y-11338200D02*
G75*
G03*
X35871530Y-11288200I0J50000D01*
G01*
X11611530Y-13193200D02*
G75*
G03*
X11661530Y-13243200I50000J0D01*
G01*
X4860280Y-11893200D02*
X4860280Y-13193200D01*
X16900280Y-17053200D02*
X18200280Y-17053200D01*
X5010280Y-13243200D02*
G75*
G03*
X5060280Y-13193200I0J50000D01*
G01*
X23091530Y-13243200D02*
X24391530Y-13243200D01*
X20631530Y-7130700D02*
X20631530Y-8430700D01*
X36426530Y-9938200D02*
X37726530Y-9938200D01*
X31375905Y-18908200D02*
G75*
G03*
X31425905Y-18958200I50000J0D01*
G01*
X31109030Y-7130700D02*
G75*
G03*
X31059030Y-7080700I-50000J0D01*
G01*
X32897780Y-11893200D02*
X32897780Y-13193200D01*
X2612780Y-11843200D02*
G75*
G03*
X2562780Y-11893200I0J-50000D01*
G01*
X32775905Y-17608200D02*
X32775905Y-18908200D01*
X2612780Y-15653200D02*
G75*
G03*
X2562780Y-15703200I0J-50000D01*
G01*
X25949030Y-9938200D02*
X27249030Y-9938200D01*
X24520280Y-17053200D02*
X25820280Y-17053200D01*
X5420280Y-13193200D02*
G75*
G03*
X5470280Y-13243200I50000J0D01*
G01*
X17376530Y-13243200D02*
X18676530Y-13243200D01*
X23041530Y-7130700D02*
X23041530Y-8430700D01*
X3962780Y-15703200D02*
G75*
G03*
X3912780Y-15653200I-50000J0D01*
G01*
X10709030Y-11338200D02*
X12009030Y-11338200D01*
X9677780Y-13798200D02*
X9677780Y-15098200D01*
X2562780Y-7130700D02*
X2562780Y-8430700D01*
X4994030Y-9938200D02*
X6294030Y-9938200D01*
X37726530Y-17053200D02*
G75*
G03*
X37776530Y-17003200I0J50000D01*
G01*
X27804030Y-11288200D02*
G75*
G03*
X27854030Y-11338200I50000J0D01*
G01*
X27854030Y-9938200D02*
G75*
G03*
X27804030Y-9988200I0J-50000D01*
G01*
X10709030Y-7080700D02*
X12009030Y-7080700D01*
X23012780Y-13798200D02*
X23012780Y-15098200D01*
X21186530Y-7080700D02*
X22486530Y-7080700D01*
X5060280Y-11893200D02*
X5060280Y-13193200D01*
X8804030Y-11338200D02*
X10104030Y-11338200D01*
X22486530Y-13243200D02*
G75*
G03*
X22536530Y-13193200I0J50000D01*
G01*
D12*
X1592539Y-20475396D02*
X1592539Y-20275396D01*
X1640158Y-20275396D01*
X1668729Y-20284920D01*
X1687777Y-20303968D01*
X1697301Y-20323015D01*
X1706825Y-20361110D01*
X1706825Y-20389682D01*
X1697301Y-20427777D01*
X1687777Y-20446825D01*
X1668729Y-20465872D01*
X1640158Y-20475396D01*
X1592539Y-20475396D01*
X1792539Y-20475396D02*
X1792539Y-20342063D01*
X1792539Y-20380158D02*
X1802063Y-20361110D01*
X1811587Y-20351587D01*
X1830634Y-20342063D01*
X1849682Y-20342063D01*
X1916348Y-20475396D02*
X1916348Y-20342063D01*
X1916348Y-20275396D02*
X1906825Y-20284920D01*
X1916348Y-20294444D01*
X1925872Y-20284920D01*
X1916348Y-20275396D01*
X1916348Y-20294444D01*
X2040158Y-20475396D02*
X2021110Y-20465872D01*
X2011587Y-20446825D01*
X2011587Y-20275396D01*
X2144920Y-20475396D02*
X2125872Y-20465872D01*
X2116349Y-20446825D01*
X2116349Y-20275396D01*
X2373491Y-20475396D02*
X2373491Y-20275396D01*
X2440158Y-20418253D01*
X2506825Y-20275396D01*
X2506825Y-20475396D01*
X2687777Y-20475396D02*
X2687777Y-20370634D01*
X2678253Y-20351587D01*
X2659206Y-20342063D01*
X2621110Y-20342063D01*
X2602063Y-20351587D01*
X2687777Y-20465872D02*
X2668730Y-20475396D01*
X2621110Y-20475396D01*
X2602063Y-20465872D01*
X2592539Y-20446825D01*
X2592539Y-20427777D01*
X2602063Y-20408730D01*
X2621110Y-20399206D01*
X2668730Y-20399206D01*
X2687777Y-20389682D01*
X2783015Y-20342063D02*
X2783015Y-20542063D01*
X2783015Y-20351587D02*
X2802063Y-20342063D01*
X2840158Y-20342063D01*
X2859206Y-20351587D01*
X2868729Y-20361110D01*
X2878253Y-20380158D01*
X2878253Y-20437301D01*
X2868729Y-20456349D01*
X2859206Y-20465872D01*
X2840158Y-20475396D01*
X2802063Y-20475396D01*
X2783015Y-20465872D01*
X2963968Y-20456349D02*
X2973491Y-20465872D01*
X2963968Y-20475396D01*
X2954444Y-20465872D01*
X2963968Y-20456349D01*
X2963968Y-20475396D01*
X2963968Y-20351587D02*
X2973491Y-20361110D01*
X2963968Y-20370634D01*
X2954444Y-20361110D01*
X2963968Y-20351587D01*
X2963968Y-20370634D01*
M02*
