%TF.GenerationSoftware,KiCad,Pcbnew,(6.0.0)*%
%TF.CreationDate,2022-03-09T15:54:11-05:00*%
%TF.ProjectId,custom_keyboard plate v3,63757374-6f6d-45f6-9b65-79626f617264,rev?*%
%TF.SameCoordinates,Original*%
%TF.FileFunction,Legend,Top*%
%TF.FilePolarity,Positive*%
%FSLAX46Y46*%
G04 Gerber Fmt 4.6, Leading zero omitted, Abs format (unit mm)*
G04 Created by KiCad (PCBNEW (6.0.0)) date 2022-03-09 15:54:11*
%MOMM*%
%LPD*%
G01*
G04 APERTURE LIST*
%ADD10C,3.200000*%
G04 APERTURE END LIST*
%TO.C,logo*%
G36*
X353612967Y-177081137D02*
G01*
X353192279Y-177491241D01*
X351731779Y-176025450D01*
X350123112Y-177628825D01*
X351588904Y-179094616D01*
X351181446Y-179512658D01*
X348006446Y-176337658D01*
X348419196Y-175932845D01*
X349784446Y-177300741D01*
X351390467Y-175692075D01*
X350022571Y-174321533D01*
X350437967Y-173906137D01*
X353612967Y-177081137D01*
G37*
G36*
X355494154Y-178052158D02*
G01*
X355163425Y-178380241D01*
X354274425Y-177488595D01*
X351446029Y-180332866D01*
X351035925Y-179920116D01*
X353874904Y-177078491D01*
X352980612Y-176184200D01*
X353298112Y-175853470D01*
X355494154Y-178052158D01*
G37*
%TD*%
%LPC*%
D10*
%TO.C,M3*%
X17335399Y-134632200D03*
%TD*%
%TO.C,M3*%
X17398399Y-211124200D03*
%TD*%
%TO.C,M3*%
X120579399Y-76195200D03*
%TD*%
%TO.C,M3*%
X404723999Y-211124200D03*
%TD*%
%TO.C,M3*%
X301561199Y-211124200D03*
%TD*%
%TO.C,M3*%
X100561199Y-76195200D03*
%TD*%
%TO.C,M3*%
X321561199Y-76195200D03*
%TD*%
%TO.C,M3*%
X264561199Y-76195200D03*
%TD*%
%TO.C,M3*%
X225561199Y-76195200D03*
%TD*%
%TO.C,M3*%
X404723999Y-134632200D03*
%TD*%
%TO.C,M3*%
X404723999Y-97625100D03*
%TD*%
%TO.C,M3*%
X157561199Y-76195200D03*
%TD*%
%TO.C,M3*%
X301542999Y-76195200D03*
%TD*%
%TO.C,M3*%
X404723999Y-76195200D03*
%TD*%
%TO.C,M3*%
X64061199Y-76195200D03*
%TD*%
%TO.C,M3*%
X17366899Y-97632200D03*
%TD*%
%TO.C,M3*%
X358061199Y-76195200D03*
%TD*%
%TO.C,M3*%
X196561199Y-76195200D03*
%TD*%
%TO.C,M3*%
X120561199Y-211124200D03*
%TD*%
%TO.C,M3*%
X17398399Y-76195200D03*
%TD*%
M02*
