%TF.GenerationSoftware,KiCad,Pcbnew,(6.0.0)*%
%TF.CreationDate,2022-03-09T15:54:11-05:00*%
%TF.ProjectId,custom_keyboard plate v3,63757374-6f6d-45f6-9b65-79626f617264,rev?*%
%TF.SameCoordinates,Original*%
%TF.FileFunction,Profile,NP*%
%FSLAX46Y46*%
G04 Gerber Fmt 4.6, Leading zero omitted, Abs format (unit mm)*
G04 Created by KiCad (PCBNEW (6.0.0)) date 2022-03-09 15:54:11*
%MOMM*%
%LPD*%
G01*
G04 APERTURE LIST*
%TA.AperFunction,Profile*%
%ADD10C,0.100000*%
%TD*%
%TA.AperFunction,Profile*%
%ADD11C,0.050000*%
%TD*%
G04 APERTURE END LIST*
D10*
X167094700Y-193030451D02*
X167094700Y-199030451D01*
X135927000Y-192530451D02*
X166594700Y-192530451D01*
X135427000Y-199030451D02*
X135427000Y-193030451D01*
X135927000Y-199530451D02*
X166594700Y-199530451D01*
X135427000Y-199030451D02*
G75*
G03*
X135927000Y-199530451I500001J1D01*
G01*
X135927000Y-192530451D02*
G75*
G03*
X135427000Y-193030451I1J-500001D01*
G01*
X167094700Y-193030451D02*
G75*
G03*
X166594700Y-192530451I-500001J-1D01*
G01*
X166594700Y-199530451D02*
G75*
G03*
X167094700Y-199030451I-1J500001D01*
G01*
X51877250Y-164452901D02*
G75*
G03*
X52377250Y-164952901I500001J1D01*
G01*
X52377250Y-164952901D02*
X70139750Y-164950501D01*
X52377250Y-150952901D02*
X70139750Y-150950501D01*
X51877250Y-151452901D02*
X51877250Y-164452901D01*
X52377250Y-150952901D02*
G75*
G03*
X51877250Y-151452901I1J-500001D01*
G01*
X219933000Y-192556151D02*
X189265300Y-192556151D01*
X220433000Y-193056151D02*
G75*
G03*
X219933000Y-192556151I-500001J-1D01*
G01*
X188765300Y-199056151D02*
X188765300Y-193056151D01*
X189265300Y-192556151D02*
G75*
G03*
X188765300Y-193056151I1J-500001D01*
G01*
X219933000Y-199556151D02*
G75*
G03*
X220433000Y-199056151I-1J500001D01*
G01*
X188765300Y-199056151D02*
G75*
G03*
X189265300Y-199556151I500001J1D01*
G01*
X220433000Y-193056151D02*
X220433000Y-199056151D01*
X219933000Y-199556151D02*
X189265300Y-199556151D01*
X344771000Y-132399301D02*
X344771000Y-145399301D01*
X345271000Y-131899301D02*
X358271000Y-131899301D01*
X363821000Y-132399301D02*
X363821000Y-145399301D01*
X396871000Y-132399301D02*
X396871000Y-145399301D01*
X377821000Y-132399301D02*
G75*
G03*
X377321000Y-131899301I-500001J-1D01*
G01*
X377321000Y-145899301D02*
G75*
G03*
X377821000Y-145399301I-1J500001D01*
G01*
X358771000Y-132399301D02*
G75*
G03*
X358271000Y-131899301I-500001J-1D01*
G01*
X396371000Y-145899301D02*
G75*
G03*
X396871000Y-145399301I-1J500001D01*
G01*
X382871000Y-132399301D02*
X382871000Y-145399301D01*
X383371000Y-131899301D02*
X396371000Y-131899301D01*
X358771000Y-132399301D02*
X358771000Y-145399301D01*
X345271000Y-145899301D02*
X358271000Y-145899301D01*
X396871000Y-132399301D02*
G75*
G03*
X396371000Y-131899301I-500001J-1D01*
G01*
X377821000Y-132399301D02*
X377821000Y-145399301D01*
X383371000Y-131899301D02*
G75*
G03*
X382871000Y-132399301I1J-500001D01*
G01*
X364321000Y-131899301D02*
X377321000Y-131899301D01*
X364321000Y-131899301D02*
G75*
G03*
X363821000Y-132399301I1J-500001D01*
G01*
X363821000Y-145399301D02*
G75*
G03*
X364321000Y-145899301I500001J1D01*
G01*
X364321000Y-145899301D02*
X377321000Y-145899301D01*
X383371000Y-145899301D02*
X396371000Y-145899301D01*
X358271000Y-145899301D02*
G75*
G03*
X358771000Y-145399301I-1J500001D01*
G01*
X344771000Y-145399301D02*
G75*
G03*
X345271000Y-145899301I500001J1D01*
G01*
X382871000Y-145399301D02*
G75*
G03*
X383371000Y-145899301I500001J1D01*
G01*
X345271000Y-131899301D02*
G75*
G03*
X344771000Y-132399301I1J-500001D01*
G01*
X363821000Y-84777301D02*
X363821000Y-97777301D01*
X377821000Y-84777301D02*
G75*
G03*
X377321000Y-84277301I-500001J-1D01*
G01*
X377321000Y-98277301D02*
G75*
G03*
X377821000Y-97777301I-1J500001D01*
G01*
X377821000Y-84777301D02*
X377821000Y-97777301D01*
X364321000Y-84277301D02*
X377321000Y-84277301D01*
X364321000Y-84277301D02*
G75*
G03*
X363821000Y-84777301I1J-500001D01*
G01*
X363821000Y-97777301D02*
G75*
G03*
X364321000Y-98277301I500001J1D01*
G01*
X364321000Y-98277301D02*
X377321000Y-98277301D01*
X305233000Y-111345701D02*
G75*
G03*
X304733000Y-110845701I-500001J-1D01*
G01*
X298733000Y-110845701D02*
G75*
G03*
X298233000Y-111345701I1J-500001D01*
G01*
X298233000Y-128350501D02*
X298233000Y-111345701D01*
X305233000Y-128350501D02*
X305233000Y-111345701D01*
X298733000Y-110845701D02*
X304733000Y-110845701D01*
X329109000Y-111345701D02*
G75*
G03*
X328609000Y-110845701I-500001J-1D01*
G01*
X322609000Y-110845701D02*
G75*
G03*
X322109000Y-111345701I1J-500001D01*
G01*
X322609000Y-110845701D02*
X328609000Y-110845701D01*
X61917700Y-183996901D02*
X74917700Y-183996901D01*
X61917700Y-169996901D02*
G75*
G03*
X61417700Y-170496901I1J-500001D01*
G01*
X61417700Y-170496901D02*
X61417700Y-183496901D01*
X61417700Y-183496901D02*
G75*
G03*
X61917700Y-183996901I500001J1D01*
G01*
X74917700Y-183996901D02*
G75*
G03*
X75417700Y-183496901I-1J500001D01*
G01*
X75417700Y-170496901D02*
G75*
G03*
X74917700Y-169996901I-500001J-1D01*
G01*
X75417700Y-170496901D02*
X75417700Y-183496901D01*
X61917700Y-169996901D02*
X74917700Y-169996901D01*
X130939750Y-187036101D02*
X124939750Y-187036101D01*
X131439750Y-187536101D02*
G75*
G03*
X130939750Y-187036101I-500001J-1D01*
G01*
X124939750Y-187036101D02*
G75*
G03*
X124439750Y-187536101I1J-500001D01*
G01*
X230939750Y-187036101D02*
X224939750Y-187036101D01*
X231439750Y-187536101D02*
G75*
G03*
X230939750Y-187036101I-500001J-1D01*
G01*
X224939750Y-187036101D02*
G75*
G03*
X224439750Y-187536101I1J-500001D01*
G01*
X70235650Y-189042702D02*
G75*
G03*
X69735650Y-189542702I1J-500001D01*
G01*
X71830150Y-202542701D02*
X71830150Y-189542702D01*
X70235650Y-189042702D02*
X71330150Y-189042702D01*
X69735650Y-202542701D02*
G75*
G03*
X70235650Y-203042701I500001J1D01*
G01*
X70235650Y-203042701D02*
X71330150Y-203042701D01*
X71330150Y-203042701D02*
G75*
G03*
X71830150Y-202542701I-1J500001D01*
G01*
X69735650Y-202542701D02*
X69735650Y-189542702D01*
X71830150Y-189542702D02*
G75*
G03*
X71330150Y-189042702I-500001J-1D01*
G01*
X93546650Y-202542701D02*
X93546650Y-189542702D01*
X94046650Y-189042702D02*
G75*
G03*
X93546650Y-189542702I1J-500001D01*
G01*
X95641150Y-189542702D02*
G75*
G03*
X95141150Y-189042702I-500001J-1D01*
G01*
X93546650Y-202542701D02*
G75*
G03*
X94046650Y-203042701I500001J1D01*
G01*
X94046650Y-203042701D02*
X95141150Y-203042701D01*
X95641150Y-202542701D02*
X95641150Y-189542702D01*
X94046650Y-189042702D02*
X95141150Y-189042702D01*
X95141150Y-203042701D02*
G75*
G03*
X95641150Y-202542701I-1J500001D01*
G01*
X117857650Y-189042702D02*
G75*
G03*
X117357650Y-189542702I1J-500001D01*
G01*
X119452150Y-189542702D02*
G75*
G03*
X118952150Y-189042702I-500001J-1D01*
G01*
X117357650Y-202542701D02*
G75*
G03*
X117857650Y-203042701I500001J1D01*
G01*
X119452150Y-202542701D02*
X119452150Y-189542702D01*
X117857650Y-203042701D02*
X118952150Y-203042701D01*
X117857650Y-189042702D02*
X118952150Y-189042702D01*
X117357650Y-202542701D02*
X117357650Y-189542702D01*
X118952150Y-203042701D02*
G75*
G03*
X119452150Y-202542701I-1J500001D01*
G01*
X309440150Y-203042701D02*
G75*
G03*
X309940150Y-202542701I-1J500001D01*
G01*
X308345650Y-189042702D02*
G75*
G03*
X307845650Y-189542702I1J-500001D01*
G01*
X309940150Y-202542701D02*
X309940150Y-189542702D01*
X308345650Y-203042701D02*
X309440150Y-203042701D01*
X309940150Y-189542702D02*
G75*
G03*
X309440150Y-189042702I-500001J-1D01*
G01*
X307845650Y-202542701D02*
X307845650Y-189542702D01*
X307845650Y-202542701D02*
G75*
G03*
X308345650Y-203042701I500001J1D01*
G01*
X308345650Y-189042702D02*
X309440150Y-189042702D01*
X284534650Y-189042702D02*
X285629150Y-189042702D01*
X284034650Y-202542701D02*
X284034650Y-189542702D01*
X284034650Y-202542701D02*
G75*
G03*
X284534650Y-203042701I500001J1D01*
G01*
X284534650Y-189042702D02*
G75*
G03*
X284034650Y-189542702I1J-500001D01*
G01*
X285629150Y-203042701D02*
G75*
G03*
X286129150Y-202542701I-1J500001D01*
G01*
X284534650Y-203042701D02*
X285629150Y-203042701D01*
X286129150Y-189542702D02*
G75*
G03*
X285629150Y-189042702I-500001J-1D01*
G01*
X286129150Y-202542701D02*
X286129150Y-189542702D01*
X260723650Y-189042702D02*
G75*
G03*
X260223650Y-189542702I1J-500001D01*
G01*
X260223650Y-202542701D02*
X260223650Y-189542702D01*
X262318150Y-202542701D02*
X262318150Y-189542702D01*
X262318150Y-189542702D02*
G75*
G03*
X261818150Y-189042702I-500001J-1D01*
G01*
X260723650Y-189042702D02*
X261818150Y-189042702D01*
X260223650Y-202542701D02*
G75*
G03*
X260723650Y-203042701I500001J1D01*
G01*
X261818150Y-203042701D02*
G75*
G03*
X262318150Y-202542701I-1J500001D01*
G01*
X260723650Y-203042701D02*
X261818150Y-203042701D01*
X82544800Y-84775501D02*
G75*
G03*
X82044800Y-84275501I-500001J-1D01*
G01*
X68544800Y-84775501D02*
X68544800Y-97775500D01*
X82544800Y-84775501D02*
X82544800Y-97775500D01*
X69044800Y-84275501D02*
G75*
G03*
X68544800Y-84775501I1J-500001D01*
G01*
X69044800Y-84275501D02*
X82044800Y-84275501D01*
X69044800Y-98275500D02*
X82044800Y-98275500D01*
X82044800Y-98275500D02*
G75*
G03*
X82544800Y-97775500I-1J500001D01*
G01*
X68544800Y-97775500D02*
G75*
G03*
X69044800Y-98275500I500001J1D01*
G01*
X77355700Y-167992101D02*
X83355700Y-167992101D01*
X53479700Y-185996901D02*
X59479700Y-185996901D01*
X77355700Y-185996901D02*
X83355700Y-185996901D01*
X83855700Y-168492101D02*
G75*
G03*
X83355700Y-167992101I-500001J-1D01*
G01*
X59979700Y-185496901D02*
X59979700Y-168492101D01*
X59479700Y-185996901D02*
G75*
G03*
X59979700Y-185496901I-1J500001D01*
G01*
X52979700Y-185496901D02*
G75*
G03*
X53479700Y-185996901I500001J1D01*
G01*
X76855700Y-185496901D02*
G75*
G03*
X77355700Y-185996901I500001J1D01*
G01*
X52979700Y-185496901D02*
X52979700Y-168492101D01*
X77355700Y-167992101D02*
G75*
G03*
X76855700Y-168492101I1J-500001D01*
G01*
X83355700Y-185996901D02*
G75*
G03*
X83855700Y-185496901I-1J500001D01*
G01*
X76855700Y-168492101D02*
X76855700Y-185496901D01*
X83855700Y-168492101D02*
X83855700Y-185496901D01*
X59979700Y-168492101D02*
G75*
G03*
X59479700Y-167992101I-500001J-1D01*
G01*
X53479700Y-167992101D02*
X59479700Y-167992101D01*
X53479700Y-167992101D02*
G75*
G03*
X52979700Y-168492101I1J-500001D01*
G01*
X130939750Y-205050501D02*
X124939750Y-205050501D01*
X130939750Y-205050501D02*
G75*
G03*
X131439750Y-204550501I-1J500001D01*
G01*
X124439750Y-204550501D02*
G75*
G03*
X124939750Y-205050501I500001J1D01*
G01*
X230939750Y-205050501D02*
G75*
G03*
X231439750Y-204550501I-1J500001D01*
G01*
X224439750Y-204550501D02*
G75*
G03*
X224939750Y-205050501I500001J1D01*
G01*
X230939750Y-205050501D02*
X224939750Y-205050501D01*
X304789900Y-164948101D02*
X317789900Y-164948101D01*
X318289900Y-151448101D02*
G75*
G03*
X317789900Y-150948101I-500001J-1D01*
G01*
X304789900Y-150948101D02*
X317789900Y-150948101D01*
X302351900Y-166948101D02*
G75*
G03*
X302851900Y-166448101I-1J500001D01*
G01*
X296351900Y-166948101D02*
X302351900Y-166948101D01*
X319727900Y-166448101D02*
G75*
G03*
X320227900Y-166948101I500001J1D01*
G01*
X319727900Y-149443301D02*
X319727900Y-166448101D01*
X326727900Y-149443301D02*
X326727900Y-166448101D01*
X320227900Y-166948101D02*
X326227900Y-166948101D01*
X317789900Y-164948101D02*
G75*
G03*
X318289900Y-164448101I-1J500001D01*
G01*
X304789900Y-150948101D02*
G75*
G03*
X304289900Y-151448101I1J-500001D01*
G01*
X326227900Y-166948101D02*
G75*
G03*
X326727900Y-166448101I-1J500001D01*
G01*
X318289900Y-151448101D02*
X318289900Y-164448101D01*
X295851900Y-166448101D02*
G75*
G03*
X296351900Y-166948101I500001J1D01*
G01*
X304289900Y-151448101D02*
X304289900Y-164448101D01*
X304289900Y-164448101D02*
G75*
G03*
X304789900Y-164948101I500001J1D01*
G01*
X320227900Y-148943301D02*
G75*
G03*
X319727900Y-149443301I1J-500001D01*
G01*
X302851900Y-166448101D02*
X302851900Y-149443301D01*
X296351900Y-148943301D02*
G75*
G03*
X295851900Y-149443301I1J-500001D01*
G01*
X326727900Y-149443301D02*
G75*
G03*
X326227900Y-148943301I-500001J-1D01*
G01*
X295851900Y-166448101D02*
X295851900Y-149443301D01*
X320227900Y-148943301D02*
X326227900Y-148943301D01*
X302851900Y-149443301D02*
G75*
G03*
X302351900Y-148943301I-500001J-1D01*
G01*
X296351900Y-148943301D02*
X302351900Y-148943301D01*
X300027700Y-169996901D02*
G75*
G03*
X299527700Y-170496901I1J-500001D01*
G01*
X315465700Y-167992101D02*
X321465700Y-167992101D01*
X298089700Y-168492101D02*
G75*
G03*
X297589700Y-167992101I-500001J-1D01*
G01*
X297589700Y-185996901D02*
G75*
G03*
X298089700Y-185496901I-1J500001D01*
G01*
X314965700Y-185496901D02*
G75*
G03*
X315465700Y-185996901I500001J1D01*
G01*
X315465700Y-185996901D02*
X321465700Y-185996901D01*
X313527700Y-170496901D02*
X313527700Y-183496901D01*
X315465700Y-167992101D02*
G75*
G03*
X314965700Y-168492101I1J-500001D01*
G01*
X291589700Y-167992101D02*
G75*
G03*
X291089700Y-168492101I1J-500001D01*
G01*
X291089700Y-185496901D02*
X291089700Y-168492101D01*
X291589700Y-167992101D02*
X297589700Y-167992101D01*
X300027700Y-169996901D02*
X313027700Y-169996901D01*
X291089700Y-185496901D02*
G75*
G03*
X291589700Y-185996901I500001J1D01*
G01*
X314965700Y-168492101D02*
X314965700Y-185496901D01*
X299527700Y-170496901D02*
X299527700Y-183496901D01*
X299527700Y-183496901D02*
G75*
G03*
X300027700Y-183996901I500001J1D01*
G01*
X313027700Y-183996901D02*
G75*
G03*
X313527700Y-183496901I-1J500001D01*
G01*
X291589700Y-185996901D02*
X297589700Y-185996901D01*
X298089700Y-185496901D02*
X298089700Y-168492101D01*
X321965700Y-168492101D02*
X321965700Y-185496901D01*
X300027700Y-183996901D02*
X313027700Y-183996901D01*
X321465700Y-185996901D02*
G75*
G03*
X321965700Y-185496901I-1J500001D01*
G01*
X313527700Y-170496901D02*
G75*
G03*
X313027700Y-169996901I-500001J-1D01*
G01*
X321965700Y-168492101D02*
G75*
G03*
X321465700Y-167992101I-500001J-1D01*
G01*
X263521000Y-132400501D02*
G75*
G03*
X263021000Y-131900501I-500001J-1D01*
G01*
X120146000Y-98275500D02*
G75*
G03*
X120646000Y-97775500I-1J500001D01*
G01*
X173821000Y-84275501D02*
G75*
G03*
X173321000Y-84775501I1J-500001D01*
G01*
X101096000Y-126850501D02*
G75*
G03*
X101596000Y-126350501I-1J500001D01*
G01*
X377821000Y-189550501D02*
G75*
G03*
X377321000Y-189050501I-500001J-1D01*
G01*
X26183500Y-170000501D02*
X39183499Y-170000501D01*
X173321000Y-145400501D02*
G75*
G03*
X173821000Y-145900501I500001J1D01*
G01*
X220658500Y-170500501D02*
G75*
G03*
X220158500Y-170000501I-500001J-1D01*
G01*
X111408500Y-170500501D02*
X111408500Y-183500501D01*
X164296000Y-112850501D02*
X177296000Y-112850501D01*
X306671000Y-113350501D02*
X306671000Y-126350501D01*
X245258500Y-170000501D02*
G75*
G03*
X244758500Y-170500501I1J-500001D01*
G01*
X120933500Y-164450501D02*
G75*
G03*
X121433500Y-164950501I500001J1D01*
G01*
D11*
X404723999Y-72226700D02*
X17398399Y-72226700D01*
D10*
X169058500Y-170000501D02*
X182058500Y-170000501D01*
X135221000Y-145400501D02*
G75*
G03*
X135721000Y-145900501I500001J1D01*
G01*
X236116550Y-189042702D02*
X237211050Y-189042702D01*
X316196000Y-97775500D02*
G75*
G03*
X316696000Y-98275500I500001J1D01*
G01*
X49158500Y-131900501D02*
G75*
G03*
X48658500Y-132400501I1J-500001D01*
G01*
X263808500Y-183500501D02*
G75*
G03*
X264308500Y-184000501I500001J1D01*
G01*
X88096000Y-84275501D02*
X101096000Y-84275501D01*
X192871000Y-145900501D02*
X205871000Y-145900501D01*
X39683499Y-151450501D02*
G75*
G03*
X39183499Y-150950501I-500001J-1D01*
G01*
X192871000Y-131900501D02*
G75*
G03*
X192371000Y-132400501I1J-500001D01*
G01*
X259546000Y-84275501D02*
G75*
G03*
X259046000Y-84775501I1J-500001D01*
G01*
X253996000Y-113350501D02*
G75*
G03*
X253496000Y-112850501I-500001J-1D01*
G01*
X234446000Y-126850501D02*
G75*
G03*
X234946000Y-126350501I-1J500001D01*
G01*
X244471000Y-84775501D02*
X244471000Y-97775500D01*
X397784900Y-185725201D02*
X397784900Y-168263801D01*
X320671000Y-113350501D02*
X320671000Y-126350501D01*
X169058500Y-170000501D02*
G75*
G03*
X168558500Y-170500501I1J-500001D01*
G01*
X25683500Y-202550501D02*
G75*
G03*
X26183500Y-203050501I500001J1D01*
G01*
X197633500Y-164950501D02*
X210633500Y-164950501D01*
X259046000Y-113350501D02*
X259046000Y-126350501D01*
X329533500Y-131900501D02*
X330533500Y-131900501D01*
X382871000Y-202550501D02*
G75*
G03*
X383371000Y-203050501I500001J1D01*
G01*
X224439750Y-187536101D02*
X224439750Y-204550501D01*
X329533500Y-145900501D02*
X330533500Y-145900501D01*
X239708500Y-170500501D02*
G75*
G03*
X239208500Y-170000501I-500001J-1D01*
G01*
X126196000Y-126850501D02*
X139196000Y-126850501D01*
X167771000Y-145900501D02*
G75*
G03*
X168271000Y-145400501I-1J500001D01*
G01*
X278596000Y-98275500D02*
X291596000Y-98275500D01*
X211921000Y-145900501D02*
X224921000Y-145900501D01*
X220658500Y-170500501D02*
X220658500Y-183500501D01*
X192371000Y-132400501D02*
X192371000Y-145400501D01*
X49652250Y-170000501D02*
X50652250Y-170000501D01*
X50658500Y-132400501D02*
G75*
G03*
X50158500Y-131900501I-500001J-1D01*
G01*
X363821000Y-183500501D02*
G75*
G03*
X364321000Y-184000501I500001J1D01*
G01*
X39683499Y-84775501D02*
G75*
G03*
X39183499Y-84275501I-500001J-1D01*
G01*
X396871000Y-113350501D02*
G75*
G03*
X396371000Y-112850501I-500001J-1D01*
G01*
X263521000Y-132400501D02*
X263521000Y-145400501D01*
X259046000Y-97775500D02*
G75*
G03*
X259546000Y-98275500I500001J1D01*
G01*
X126196000Y-98275500D02*
X139196000Y-98275500D01*
X364321000Y-184000501D02*
X377321000Y-184000501D01*
X201608500Y-170500501D02*
X201608500Y-183500501D01*
X187608500Y-170500501D02*
X187608500Y-183500501D01*
X235233500Y-164450501D02*
G75*
G03*
X235733500Y-164950501I500001J1D01*
G01*
X216683500Y-164950501D02*
X229683500Y-164950501D01*
X101883500Y-151450501D02*
X101883500Y-164450501D01*
X345271000Y-189050501D02*
X358271000Y-189050501D01*
X358771000Y-189550501D02*
X358771000Y-202550501D01*
X154771000Y-145900501D02*
X167771000Y-145900501D01*
X168271000Y-132400501D02*
G75*
G03*
X167771000Y-131900501I-500001J-1D01*
G01*
X391141601Y-151449301D02*
G75*
G03*
X390641601Y-150949301I-500001J-1D01*
G01*
X144746000Y-113350501D02*
X144746000Y-126350501D01*
X225421000Y-132400501D02*
G75*
G03*
X224921000Y-131900501I-500001J-1D01*
G01*
X78571000Y-131900501D02*
G75*
G03*
X78071000Y-132400501I1J-500001D01*
G01*
X363821000Y-126350501D02*
G75*
G03*
X364321000Y-126850501I500001J1D01*
G01*
X216183500Y-151450501D02*
X216183500Y-164450501D01*
X149221000Y-132400501D02*
X149221000Y-145400501D01*
X344771000Y-126350501D02*
G75*
G03*
X345271000Y-126850501I500001J1D01*
G01*
X207158500Y-170000501D02*
G75*
G03*
X206658500Y-170500501I1J-500001D01*
G01*
X235733500Y-164950501D02*
X248733500Y-164950501D01*
X311933500Y-131900501D02*
G75*
G03*
X311433500Y-132400501I1J-500001D01*
G01*
X25683500Y-164450501D02*
G75*
G03*
X26183500Y-164950501I500001J1D01*
G01*
X139696000Y-113350501D02*
G75*
G03*
X139196000Y-112850501I-500001J-1D01*
G01*
X92358500Y-183500501D02*
G75*
G03*
X92858500Y-184000501I500001J1D01*
G01*
X39683499Y-151450501D02*
X39683499Y-164450501D01*
X129671000Y-145900501D02*
G75*
G03*
X130171000Y-145400501I-1J500001D01*
G01*
X65877250Y-189550501D02*
X65877250Y-202550501D01*
X26183500Y-150950501D02*
X39183499Y-150950501D01*
X287620999Y-145400501D02*
G75*
G03*
X288120999Y-145900501I500001J1D01*
G01*
X163508500Y-170500501D02*
G75*
G03*
X163008500Y-170000501I-500001J-1D01*
G01*
X226208500Y-184000501D02*
X239208500Y-184000501D01*
X269071000Y-131900501D02*
G75*
G03*
X268571000Y-132400501I1J-500001D01*
G01*
X303502250Y-203050501D02*
G75*
G03*
X304002250Y-202550501I-1J500001D01*
G01*
X239996000Y-113350501D02*
X239996000Y-126350501D01*
X254783500Y-150950501D02*
G75*
G03*
X254283500Y-151450501I1J-500001D01*
G01*
X383371000Y-126850501D02*
X396371000Y-126850501D01*
X269071000Y-145900501D02*
X282071000Y-145900501D01*
X292539750Y-164950501D02*
X293539750Y-164950501D01*
X236116550Y-203042701D02*
X237211050Y-203042701D01*
X101596000Y-113350501D02*
X101596000Y-126350501D01*
X328609000Y-128850501D02*
G75*
G03*
X329109000Y-128350501I-1J500001D01*
G01*
X239208500Y-184000501D02*
G75*
G03*
X239708500Y-183500501I-1J500001D01*
G01*
X250021000Y-145900501D02*
X263021000Y-145900501D01*
X113502250Y-189550501D02*
G75*
G03*
X113002250Y-189050501I-500001J-1D01*
G01*
X39683499Y-170500501D02*
X39683499Y-183500501D01*
X225421000Y-84775501D02*
X225421000Y-97775500D01*
X280189750Y-189550501D02*
X280189750Y-202550501D01*
X235616550Y-202542701D02*
X235616550Y-189542702D01*
X278596000Y-84275501D02*
G75*
G03*
X278096000Y-84775501I1J-500001D01*
G01*
X140483500Y-164950501D02*
X153483499Y-164950501D01*
X272546000Y-126850501D02*
G75*
G03*
X273046000Y-126350501I-1J500001D01*
G01*
X183346000Y-112850501D02*
X196346000Y-112850501D01*
X291596000Y-126850501D02*
G75*
G03*
X292096000Y-126350501I-1J500001D01*
G01*
X304002250Y-189550501D02*
G75*
G03*
X303502250Y-189050501I-500001J-1D01*
G01*
X287277249Y-170500501D02*
X287277249Y-183500501D01*
X184439750Y-203050501D02*
G75*
G03*
X184939750Y-202550501I-1J500001D01*
G01*
X301621000Y-132400501D02*
X301621000Y-145400501D01*
X102383500Y-164950501D02*
X115383500Y-164950501D01*
X63496000Y-113350501D02*
G75*
G03*
X62996000Y-112850501I-500001J-1D01*
G01*
X130958500Y-170000501D02*
X143958500Y-170000501D01*
X106646000Y-84775501D02*
X106646000Y-97775500D01*
X26183500Y-84275501D02*
G75*
G03*
X25683500Y-84775501I1J-500001D01*
G01*
X311433500Y-145400501D02*
G75*
G03*
X311933500Y-145900501I500001J1D01*
G01*
X130171000Y-132400501D02*
X130171000Y-145400501D01*
X215896000Y-113350501D02*
G75*
G03*
X215396000Y-112850501I-500001J-1D01*
G01*
X351750299Y-164949301D02*
X390641601Y-164949301D01*
X216683500Y-150950501D02*
G75*
G03*
X216183500Y-151450501I1J-500001D01*
G01*
X243971000Y-145900501D02*
G75*
G03*
X244471000Y-145400501I-1J500001D01*
G01*
X139983500Y-164450501D02*
G75*
G03*
X140483500Y-164950501I500001J1D01*
G01*
X115883500Y-151450501D02*
X115883500Y-164450501D01*
X168558500Y-183500501D02*
G75*
G03*
X169058500Y-184000501I500001J1D01*
G01*
X273046000Y-84775501D02*
X273046000Y-97775500D01*
X134933500Y-151450501D02*
X134933500Y-164450501D01*
X111121000Y-132400501D02*
G75*
G03*
X110621000Y-131900501I-500001J-1D01*
G01*
X178583500Y-150950501D02*
X191583500Y-150950501D01*
X168271000Y-132400501D02*
X168271000Y-145400501D01*
X201108500Y-184000501D02*
G75*
G03*
X201608500Y-183500501I-1J500001D01*
G01*
X230971000Y-131900501D02*
X243971000Y-131900501D01*
D11*
X17398399Y-215092700D02*
X404723999Y-215092700D01*
D10*
X377821000Y-170500501D02*
G75*
G03*
X377321000Y-170000501I-500001J-1D01*
G01*
X196846000Y-113350501D02*
X196846000Y-126350501D01*
X26183500Y-189050501D02*
G75*
G03*
X25683500Y-189550501I1J-500001D01*
G01*
X205871000Y-98275500D02*
G75*
G03*
X206371000Y-97775500I-1J500001D01*
G01*
X158746000Y-84775501D02*
X158746000Y-97775500D01*
X266689750Y-189050501D02*
X279689750Y-189050501D01*
X145246000Y-84275501D02*
G75*
G03*
X144746000Y-84775501I1J-500001D01*
G01*
X330539750Y-151450501D02*
G75*
G03*
X330039750Y-150950501I-500001J-1D01*
G01*
X121433500Y-164950501D02*
X134433500Y-164950501D01*
X173821000Y-131900501D02*
X186821000Y-131900501D01*
X192871000Y-131900501D02*
X205871000Y-131900501D01*
X377321000Y-126850501D02*
G75*
G03*
X377821000Y-126350501I-1J500001D01*
G01*
X225421000Y-132400501D02*
X225421000Y-145400501D01*
X287333500Y-151450501D02*
G75*
G03*
X286833500Y-150950501I-500001J-1D01*
G01*
X272546000Y-98275500D02*
G75*
G03*
X273046000Y-97775500I-1J500001D01*
G01*
X330039750Y-164950501D02*
G75*
G03*
X330539750Y-164450501I-1J500001D01*
G01*
X63496000Y-113350501D02*
X63496000Y-126350501D01*
X49996000Y-112850501D02*
G75*
G03*
X49496000Y-113350501I1J-500001D01*
G01*
X211921000Y-131900501D02*
G75*
G03*
X211421000Y-132400501I1J-500001D01*
G01*
X54758500Y-131900501D02*
X67758500Y-131900501D01*
X290502250Y-189050501D02*
G75*
G03*
X290002250Y-189550501I1J-500001D01*
G01*
X65377250Y-203050501D02*
G75*
G03*
X65877250Y-202550501I-1J500001D01*
G01*
X278096000Y-113350501D02*
X278096000Y-126350501D01*
X325433500Y-132400501D02*
X325433500Y-145400501D01*
X75689750Y-189550501D02*
X75689750Y-202550501D01*
X382871000Y-84775501D02*
X382871000Y-97775500D01*
X120646000Y-113350501D02*
X120646000Y-126350501D01*
X256377250Y-189550501D02*
X256377250Y-202550501D01*
X116671000Y-131900501D02*
G75*
G03*
X116171000Y-132400501I1J-500001D01*
G01*
X273046000Y-84775501D02*
G75*
G03*
X272546000Y-84275501I-500001J-1D01*
G01*
X159033500Y-164450501D02*
G75*
G03*
X159533500Y-164950501I500001J1D01*
G01*
D11*
X17398399Y-72226700D02*
G75*
G03*
X13429899Y-76195200I1J-3968501D01*
G01*
D10*
X106646000Y-126350501D02*
G75*
G03*
X107146000Y-126850501I500001J1D01*
G01*
X258758500Y-170500501D02*
X258758500Y-183500501D01*
X110621000Y-145900501D02*
G75*
G03*
X111121000Y-145400501I-1J500001D01*
G01*
X39683499Y-132400501D02*
G75*
G03*
X39183499Y-131900501I-500001J-1D01*
G01*
X231439750Y-187536101D02*
X231439750Y-204550501D01*
X68546000Y-113350501D02*
X68546000Y-126350501D01*
X25683500Y-145400501D02*
G75*
G03*
X26183500Y-145900501I500001J1D01*
G01*
X49996000Y-84275501D02*
X62996000Y-84275501D01*
X170939750Y-202550501D02*
G75*
G03*
X171439750Y-203050501I500001J1D01*
G01*
X39683499Y-132400501D02*
X39683499Y-145400501D01*
X126196000Y-112850501D02*
X139196000Y-112850501D01*
X329696000Y-98275500D02*
G75*
G03*
X330196000Y-97775500I-1J500001D01*
G01*
X235233500Y-151450501D02*
X235233500Y-164450501D01*
X381910900Y-168263801D02*
X381910900Y-185725201D01*
X269071000Y-131900501D02*
X282071000Y-131900501D01*
X120646000Y-84775501D02*
X120646000Y-97775500D01*
X351750299Y-150949301D02*
G75*
G03*
X351250299Y-151449301I1J-500001D01*
G01*
X192871000Y-84275501D02*
X205871000Y-84275501D01*
X294039750Y-151450501D02*
X294039750Y-164450501D01*
X202396000Y-112850501D02*
X215396000Y-112850501D01*
X306333500Y-131900501D02*
X307333500Y-131900501D01*
X287333500Y-151450501D02*
X287333500Y-164450501D01*
X26183500Y-126850501D02*
X39183499Y-126850501D01*
X153983499Y-151450501D02*
G75*
G03*
X153483499Y-150950501I-500001J-1D01*
G01*
X49496000Y-113350501D02*
X49496000Y-126350501D01*
X62996000Y-126850501D02*
G75*
G03*
X63496000Y-126350501I-1J500001D01*
G01*
X279689750Y-203050501D02*
G75*
G03*
X280189750Y-202550501I-1J500001D01*
G01*
X26183500Y-112850501D02*
G75*
G03*
X25683500Y-113350501I1J-500001D01*
G01*
X92358500Y-170500501D02*
X92358500Y-183500501D01*
X364321000Y-170000501D02*
X377321000Y-170000501D01*
X266189750Y-202550501D02*
G75*
G03*
X266689750Y-203050501I500001J1D01*
G01*
X54258500Y-132400501D02*
X54258500Y-145400501D01*
X192083500Y-151450501D02*
X192083500Y-164450501D01*
X89689750Y-189550501D02*
G75*
G03*
X89189750Y-189050501I-500001J-1D01*
G01*
X358771000Y-84775501D02*
G75*
G03*
X358271000Y-84275501I-500001J-1D01*
G01*
X250021000Y-131900501D02*
X263021000Y-131900501D01*
X324277250Y-170000501D02*
X325277250Y-170000501D01*
X139696000Y-113350501D02*
X139696000Y-126350501D01*
X358771000Y-113350501D02*
X358771000Y-126350501D01*
X351250299Y-164449301D02*
G75*
G03*
X351750299Y-164949301I500001J1D01*
G01*
X145246000Y-112850501D02*
G75*
G03*
X144746000Y-113350501I1J-500001D01*
G01*
X159533500Y-164950501D02*
X172533500Y-164950501D01*
X273833500Y-150950501D02*
G75*
G03*
X273333500Y-151450501I1J-500001D01*
G01*
X158246000Y-126850501D02*
G75*
G03*
X158746000Y-126350501I-1J500001D01*
G01*
X107146000Y-112850501D02*
G75*
G03*
X106646000Y-113350501I1J-500001D01*
G01*
X206371000Y-132400501D02*
X206371000Y-145400501D01*
X245258500Y-170000501D02*
X258258500Y-170000501D01*
X163796000Y-126350501D02*
G75*
G03*
X164296000Y-126850501I500001J1D01*
G01*
X267783500Y-164950501D02*
G75*
G03*
X268283500Y-164450501I-1J500001D01*
G01*
X234946000Y-113350501D02*
G75*
G03*
X234446000Y-112850501I-500001J-1D01*
G01*
X186821000Y-98275500D02*
G75*
G03*
X187321000Y-97775500I-1J500001D01*
G01*
X75689750Y-202550501D02*
G75*
G03*
X76189750Y-203050501I500001J1D01*
G01*
X188108500Y-170000501D02*
G75*
G03*
X187608500Y-170500501I1J-500001D01*
G01*
X205871000Y-145900501D02*
G75*
G03*
X206371000Y-145400501I-1J500001D01*
G01*
X100002250Y-189050501D02*
G75*
G03*
X99502250Y-189550501I1J-500001D01*
G01*
X383371000Y-203050501D02*
X396371000Y-203050501D01*
X63496000Y-84775501D02*
G75*
G03*
X62996000Y-84275501I-500001J-1D01*
G01*
X377821000Y-113350501D02*
X377821000Y-126350501D01*
X293539750Y-164950501D02*
G75*
G03*
X294039750Y-164450501I-1J500001D01*
G01*
X211421000Y-145400501D02*
G75*
G03*
X211921000Y-145900501I500001J1D01*
G01*
X101883500Y-164450501D02*
G75*
G03*
X102383500Y-164950501I500001J1D01*
G01*
X278096000Y-97775500D02*
G75*
G03*
X278596000Y-98275500I500001J1D01*
G01*
X173033500Y-151450501D02*
X173033500Y-164450501D01*
X144746000Y-84775501D02*
X144746000Y-97775500D01*
X289277249Y-170500501D02*
G75*
G03*
X288777249Y-170000501I-500001J-1D01*
G01*
X49996000Y-84275501D02*
G75*
G03*
X49496000Y-84775501I1J-500001D01*
G01*
X26183500Y-184000501D02*
X39183499Y-184000501D01*
X26183500Y-189050501D02*
X39183499Y-189050501D01*
X106646000Y-113350501D02*
X106646000Y-126350501D01*
X86152250Y-170000501D02*
G75*
G03*
X85652250Y-170500501I1J-500001D01*
G01*
X381910900Y-185725201D02*
G75*
G03*
X382704600Y-186518901I793699J-1D01*
G01*
X304733000Y-128850501D02*
G75*
G03*
X305233000Y-128350501I-1J500001D01*
G01*
X331033500Y-132400501D02*
X331033500Y-145400501D01*
X97621000Y-131900501D02*
G75*
G03*
X97121000Y-132400501I1J-500001D01*
G01*
X263021000Y-145900501D02*
G75*
G03*
X263521000Y-145400501I-1J500001D01*
G01*
X69046000Y-112850501D02*
G75*
G03*
X68546000Y-113350501I1J-500001D01*
G01*
X186821000Y-145900501D02*
G75*
G03*
X187321000Y-145400501I-1J500001D01*
G01*
X330533500Y-145900501D02*
G75*
G03*
X331033500Y-145400501I-1J500001D01*
G01*
X263808500Y-170500501D02*
X263808500Y-183500501D01*
X310646000Y-98275500D02*
G75*
G03*
X311146000Y-97775500I-1J500001D01*
G01*
X70139750Y-164950501D02*
G75*
G03*
X70639750Y-164450501I-1J500001D01*
G01*
X115883500Y-151450501D02*
G75*
G03*
X115383500Y-150950501I-500001J-1D01*
G01*
X282571000Y-132400501D02*
X282571000Y-145400501D01*
X83333500Y-164950501D02*
X96333500Y-164950501D01*
X278596000Y-112850501D02*
X291596000Y-112850501D01*
X158746000Y-84775501D02*
G75*
G03*
X158246000Y-84275501I-500001J-1D01*
G01*
X25683500Y-126350501D02*
G75*
G03*
X26183500Y-126850501I500001J1D01*
G01*
X116671000Y-131900501D02*
X129671000Y-131900501D01*
X345271000Y-98275500D02*
X358271000Y-98275500D01*
X125696000Y-84775501D02*
X125696000Y-97775500D01*
X86152250Y-184000501D02*
X87152250Y-184000501D01*
X202396000Y-126850501D02*
X215396000Y-126850501D01*
X111908500Y-170000501D02*
G75*
G03*
X111408500Y-170500501I1J-500001D01*
G01*
X329039750Y-150950501D02*
G75*
G03*
X328539750Y-151450501I1J-500001D01*
G01*
X268571000Y-145400501D02*
G75*
G03*
X269071000Y-145900501I500001J1D01*
G01*
X211421000Y-84775501D02*
X211421000Y-97775500D01*
X237211050Y-203042701D02*
G75*
G03*
X237711050Y-202542701I-1J500001D01*
G01*
X107146000Y-112850501D02*
X120146000Y-112850501D01*
X286833500Y-164950501D02*
G75*
G03*
X287333500Y-164450501I-1J500001D01*
G01*
X328539750Y-151450501D02*
X328539750Y-164450501D01*
X282571000Y-132400501D02*
G75*
G03*
X282071000Y-131900501I-500001J-1D01*
G01*
X87152250Y-184000501D02*
G75*
G03*
X87652250Y-183500501I-1J500001D01*
G01*
X154771000Y-131900501D02*
G75*
G03*
X154271000Y-132400501I1J-500001D01*
G01*
X206371000Y-132400501D02*
G75*
G03*
X205871000Y-131900501I-500001J-1D01*
G01*
X26183500Y-164950501D02*
X39183499Y-164950501D01*
X364321000Y-112850501D02*
G75*
G03*
X363821000Y-113350501I1J-500001D01*
G01*
X311933500Y-131900501D02*
X324933500Y-131900501D01*
X91571000Y-145900501D02*
G75*
G03*
X92071000Y-145400501I-1J500001D01*
G01*
X345271000Y-203050501D02*
X358271000Y-203050501D01*
X382704600Y-167470101D02*
G75*
G03*
X381910900Y-168263801I-1J-793699D01*
G01*
X344771000Y-189550501D02*
X344771000Y-202550501D01*
X82046000Y-126850501D02*
G75*
G03*
X82546000Y-126350501I-1J500001D01*
G01*
X78571000Y-131900501D02*
X91571000Y-131900501D01*
X196846000Y-113350501D02*
G75*
G03*
X196346000Y-112850501I-500001J-1D01*
G01*
X215396000Y-126850501D02*
G75*
G03*
X215896000Y-126350501I-1J500001D01*
G01*
X230971000Y-84275501D02*
G75*
G03*
X230471000Y-84775501I1J-500001D01*
G01*
X125696000Y-97775500D02*
G75*
G03*
X126196000Y-98275500I500001J1D01*
G01*
X306333500Y-131900501D02*
G75*
G03*
X305833500Y-132400501I1J-500001D01*
G01*
X278596000Y-84275501D02*
X291596000Y-84275501D01*
X383371000Y-112850501D02*
G75*
G03*
X382871000Y-113350501I1J-500001D01*
G01*
X324277250Y-184000501D02*
X325277250Y-184000501D01*
X244471000Y-84775501D02*
G75*
G03*
X243971000Y-84275501I-500001J-1D01*
G01*
X184939750Y-189550501D02*
X184939750Y-202550501D01*
X211921000Y-131900501D02*
X224921000Y-131900501D01*
X311933500Y-145900501D02*
X324933500Y-145900501D01*
X290502250Y-203050501D02*
X303502250Y-203050501D01*
X344771000Y-113350501D02*
X344771000Y-126350501D01*
X49996000Y-126850501D02*
X62996000Y-126850501D01*
X377821000Y-170500501D02*
X377821000Y-183500501D01*
X290502250Y-189050501D02*
X303502250Y-189050501D01*
X188108500Y-170000501D02*
X201108500Y-170000501D01*
X325433500Y-132400501D02*
G75*
G03*
X324933500Y-131900501I-500001J-1D01*
G01*
X206658500Y-170500501D02*
X206658500Y-183500501D01*
X314314750Y-189050501D02*
G75*
G03*
X313814750Y-189550501I1J-500001D01*
G01*
X240496000Y-112850501D02*
G75*
G03*
X239996000Y-113350501I1J-500001D01*
G01*
X182846000Y-126350501D02*
G75*
G03*
X183346000Y-126850501I500001J1D01*
G01*
X329033500Y-145400501D02*
G75*
G03*
X329533500Y-145900501I500001J1D01*
G01*
X313814750Y-189550501D02*
X313814750Y-202550501D01*
X324277250Y-170000501D02*
G75*
G03*
X323777250Y-170500501I1J-500001D01*
G01*
X26183500Y-98275500D02*
X39183499Y-98275500D01*
X230971000Y-131900501D02*
G75*
G03*
X230471000Y-132400501I1J-500001D01*
G01*
X144746000Y-97775500D02*
G75*
G03*
X145246000Y-98275500I500001J1D01*
G01*
X96333500Y-164950501D02*
G75*
G03*
X96833500Y-164450501I-1J500001D01*
G01*
X316696000Y-84275501D02*
G75*
G03*
X316196000Y-84775501I1J-500001D01*
G01*
X377821000Y-189550501D02*
X377821000Y-202550501D01*
X116171000Y-132400501D02*
X116171000Y-145400501D01*
X327814750Y-189550501D02*
G75*
G03*
X327314750Y-189050501I-500001J-1D01*
G01*
X211133500Y-151450501D02*
G75*
G03*
X210633500Y-150950501I-500001J-1D01*
G01*
X49158500Y-131900501D02*
X50158500Y-131900501D01*
X243971000Y-98275500D02*
G75*
G03*
X244471000Y-97775500I-1J500001D01*
G01*
X178583500Y-150950501D02*
G75*
G03*
X178083500Y-151450501I1J-500001D01*
G01*
X87596000Y-84775501D02*
X87596000Y-97775500D01*
X294039750Y-151450501D02*
G75*
G03*
X293539750Y-150950501I-500001J-1D01*
G01*
X163796000Y-113350501D02*
X163796000Y-126350501D01*
X126196000Y-112850501D02*
G75*
G03*
X125696000Y-113350501I1J-500001D01*
G01*
X173321000Y-132400501D02*
X173321000Y-145400501D01*
X307171000Y-112850501D02*
G75*
G03*
X306671000Y-113350501I1J-500001D01*
G01*
X192371000Y-84775501D02*
X192371000Y-97775500D01*
X358771000Y-84775501D02*
X358771000Y-97775500D01*
X178083500Y-151450501D02*
X178083500Y-164450501D01*
X100002250Y-203050501D02*
X113002250Y-203050501D01*
X51152250Y-170500501D02*
G75*
G03*
X50652250Y-170000501I-500001J-1D01*
G01*
X97121000Y-132400501D02*
X97121000Y-145400501D01*
X215896000Y-113350501D02*
X215896000Y-126350501D01*
X39683499Y-113350501D02*
X39683499Y-126350501D01*
X202396000Y-112850501D02*
G75*
G03*
X201896000Y-113350501I1J-500001D01*
G01*
X26183500Y-84275501D02*
X39183499Y-84275501D01*
X163008500Y-184000501D02*
G75*
G03*
X163508500Y-183500501I-1J500001D01*
G01*
X242377250Y-189550501D02*
X242377250Y-202550501D01*
X256377250Y-189550501D02*
G75*
G03*
X255877250Y-189050501I-500001J-1D01*
G01*
X145246000Y-84275501D02*
X158246000Y-84275501D01*
X102383500Y-150950501D02*
X115383500Y-150950501D01*
X177296000Y-126850501D02*
G75*
G03*
X177796000Y-126350501I-1J500001D01*
G01*
X287777249Y-170000501D02*
X288777249Y-170000501D01*
X173821000Y-98275500D02*
X186821000Y-98275500D01*
X297646000Y-98275500D02*
X310646000Y-98275500D01*
X382871000Y-113350501D02*
X382871000Y-126350501D01*
X383371000Y-84275501D02*
X396371000Y-84275501D01*
X135721000Y-131900501D02*
X148721000Y-131900501D01*
X290002250Y-202550501D02*
G75*
G03*
X290502250Y-203050501I500001J1D01*
G01*
X307833500Y-132400501D02*
X307833500Y-145400501D01*
X192371000Y-97775500D02*
G75*
G03*
X192871000Y-98275500I500001J1D01*
G01*
X259546000Y-84275501D02*
X272546000Y-84275501D01*
X76189750Y-189050501D02*
G75*
G03*
X75689750Y-189550501I1J-500001D01*
G01*
X51877250Y-202550501D02*
G75*
G03*
X52377250Y-203050501I500001J1D01*
G01*
X125408500Y-170500501D02*
G75*
G03*
X124908500Y-170000501I-500001J-1D01*
G01*
X49652250Y-184000501D02*
X50652250Y-184000501D01*
X139196000Y-126850501D02*
G75*
G03*
X139696000Y-126350501I-1J500001D01*
G01*
X158746000Y-113350501D02*
G75*
G03*
X158246000Y-112850501I-500001J-1D01*
G01*
X178083500Y-164450501D02*
G75*
G03*
X178583500Y-164950501I500001J1D01*
G01*
X26183500Y-145900501D02*
X39183499Y-145900501D01*
X237711050Y-189542702D02*
G75*
G03*
X237211050Y-189042702I-500001J-1D01*
G01*
X297146000Y-84775501D02*
X297146000Y-97775500D01*
X62996000Y-98275500D02*
G75*
G03*
X63496000Y-97775500I-1J500001D01*
G01*
X277308500Y-184000501D02*
G75*
G03*
X277808500Y-183500501I-1J500001D01*
G01*
X244471000Y-132400501D02*
G75*
G03*
X243971000Y-131900501I-500001J-1D01*
G01*
X26183500Y-131900501D02*
X39183499Y-131900501D01*
X97121000Y-145400501D02*
G75*
G03*
X97621000Y-145900501I500001J1D01*
G01*
X120146000Y-126850501D02*
G75*
G03*
X120646000Y-126350501I-1J500001D01*
G01*
X220158500Y-184000501D02*
G75*
G03*
X220658500Y-183500501I-1J500001D01*
G01*
X273046000Y-113350501D02*
G75*
G03*
X272546000Y-112850501I-500001J-1D01*
G01*
X49152250Y-170500501D02*
X49152250Y-183500501D01*
X78071000Y-132400501D02*
X78071000Y-145400501D01*
X292539750Y-150950501D02*
G75*
G03*
X292039750Y-151450501I1J-500001D01*
G01*
X82833500Y-151450501D02*
X82833500Y-164450501D01*
X329533500Y-131900501D02*
G75*
G03*
X329033500Y-132400501I1J-500001D01*
G01*
X144746000Y-126350501D02*
G75*
G03*
X145246000Y-126850501I500001J1D01*
G01*
X266689750Y-189050501D02*
G75*
G03*
X266189750Y-189550501I1J-500001D01*
G01*
X197633500Y-150950501D02*
X210633500Y-150950501D01*
X221446000Y-112850501D02*
X234446000Y-112850501D01*
X39183499Y-145900501D02*
G75*
G03*
X39683499Y-145400501I-1J500001D01*
G01*
X52377250Y-189050501D02*
X65377250Y-189050501D01*
X364321000Y-189050501D02*
G75*
G03*
X363821000Y-189550501I1J-500001D01*
G01*
X100002250Y-189050501D02*
X113002250Y-189050501D01*
X125696000Y-113350501D02*
X125696000Y-126350501D01*
X87652250Y-170500501D02*
X87652250Y-183500501D01*
X88096000Y-112850501D02*
G75*
G03*
X87596000Y-113350501I1J-500001D01*
G01*
X249233500Y-151450501D02*
X249233500Y-164450501D01*
X287777249Y-184000501D02*
X288777249Y-184000501D01*
X345271000Y-189050501D02*
G75*
G03*
X344771000Y-189550501I1J-500001D01*
G01*
X88096000Y-112850501D02*
X101096000Y-112850501D01*
X277808500Y-170500501D02*
X277808500Y-183500501D01*
X111408500Y-183500501D02*
G75*
G03*
X111908500Y-184000501I500001J1D01*
G01*
X277808500Y-170500501D02*
G75*
G03*
X277308500Y-170000501I-500001J-1D01*
G01*
X25683500Y-189550501D02*
X25683500Y-202550501D01*
X254283500Y-164450501D02*
G75*
G03*
X254783500Y-164950501I500001J1D01*
G01*
X106646000Y-97775500D02*
G75*
G03*
X107146000Y-98275500I500001J1D01*
G01*
D11*
X408692499Y-211124200D02*
X408692499Y-76195200D01*
D10*
X242877250Y-189050501D02*
X255877250Y-189050501D01*
X396871000Y-113350501D02*
X396871000Y-126350501D01*
X383371000Y-98275500D02*
X396371000Y-98275500D01*
X206371000Y-84775501D02*
G75*
G03*
X205871000Y-84275501I-500001J-1D01*
G01*
X39683499Y-113350501D02*
G75*
G03*
X39183499Y-112850501I-500001J-1D01*
G01*
X68258500Y-132400501D02*
X68258500Y-145400501D01*
X242377250Y-202550501D02*
G75*
G03*
X242877250Y-203050501I500001J1D01*
G01*
X171439750Y-189050501D02*
X184439750Y-189050501D01*
X390641601Y-164949301D02*
G75*
G03*
X391141601Y-164449301I-1J500001D01*
G01*
X297646000Y-84275501D02*
G75*
G03*
X297146000Y-84775501I1J-500001D01*
G01*
X383371000Y-189050501D02*
G75*
G03*
X382871000Y-189550501I1J-500001D01*
G01*
X101596000Y-84775501D02*
G75*
G03*
X101096000Y-84275501I-500001J-1D01*
G01*
X71858500Y-132400501D02*
X71858500Y-145400501D01*
X377321000Y-203050501D02*
G75*
G03*
X377821000Y-202550501I-1J500001D01*
G01*
X288120999Y-145900501D02*
X301121000Y-145900501D01*
X173321000Y-84775501D02*
X173321000Y-97775500D01*
X87596000Y-97775500D02*
G75*
G03*
X88096000Y-98275500I500001J1D01*
G01*
X182558500Y-170500501D02*
G75*
G03*
X182058500Y-170000501I-500001J-1D01*
G01*
X307171000Y-126850501D02*
X320171000Y-126850501D01*
X139196000Y-98275500D02*
G75*
G03*
X139696000Y-97775500I-1J500001D01*
G01*
X39683499Y-189550501D02*
G75*
G03*
X39183499Y-189050501I-500001J-1D01*
G01*
X49496000Y-84775501D02*
X49496000Y-97775500D01*
X266189750Y-189550501D02*
X266189750Y-202550501D01*
X254283500Y-151450501D02*
X254283500Y-164450501D01*
X225421000Y-84775501D02*
G75*
G03*
X224921000Y-84275501I-500001J-1D01*
G01*
X226208500Y-170000501D02*
X239208500Y-170000501D01*
X125408500Y-170500501D02*
X125408500Y-183500501D01*
X328539750Y-164450501D02*
G75*
G03*
X329039750Y-164950501I500001J1D01*
G01*
X126196000Y-84275501D02*
G75*
G03*
X125696000Y-84775501I1J-500001D01*
G01*
X171439750Y-189050501D02*
G75*
G03*
X170939750Y-189550501I1J-500001D01*
G01*
X111121000Y-132400501D02*
X111121000Y-145400501D01*
X297146000Y-97775500D02*
G75*
G03*
X297646000Y-98275500I500001J1D01*
G01*
X134433500Y-164950501D02*
G75*
G03*
X134933500Y-164450501I-1J500001D01*
G01*
X264308500Y-184000501D02*
X277308500Y-184000501D01*
X101596000Y-113350501D02*
G75*
G03*
X101096000Y-112850501I-500001J-1D01*
G01*
X307333500Y-145900501D02*
G75*
G03*
X307833500Y-145400501I-1J500001D01*
G01*
X216183500Y-164450501D02*
G75*
G03*
X216683500Y-164950501I500001J1D01*
G01*
X344771000Y-202550501D02*
G75*
G03*
X345271000Y-203050501I500001J1D01*
G01*
X154271000Y-145400501D02*
G75*
G03*
X154771000Y-145900501I500001J1D01*
G01*
X131439750Y-187536101D02*
X131439750Y-204550501D01*
X164296000Y-126850501D02*
X177296000Y-126850501D01*
X39183499Y-184000501D02*
G75*
G03*
X39683499Y-183500501I-1J500001D01*
G01*
X49496000Y-126350501D02*
G75*
G03*
X49996000Y-126850501I500001J1D01*
G01*
X197133500Y-164450501D02*
G75*
G03*
X197633500Y-164950501I500001J1D01*
G01*
X67758500Y-145900501D02*
G75*
G03*
X68258500Y-145400501I-1J500001D01*
G01*
X358771000Y-189550501D02*
G75*
G03*
X358271000Y-189050501I-500001J-1D01*
G01*
X73858500Y-132400501D02*
G75*
G03*
X73358500Y-131900501I-500001J-1D01*
G01*
X111908500Y-170000501D02*
X124908500Y-170000501D01*
X314314750Y-189050501D02*
X327314750Y-189050501D01*
X184939750Y-189550501D02*
G75*
G03*
X184439750Y-189050501I-500001J-1D01*
G01*
X134933500Y-151450501D02*
G75*
G03*
X134433500Y-150950501I-500001J-1D01*
G01*
X264308500Y-170000501D02*
G75*
G03*
X263808500Y-170500501I1J-500001D01*
G01*
X92071000Y-132400501D02*
X92071000Y-145400501D01*
X139983500Y-151450501D02*
X139983500Y-164450501D01*
X101596000Y-84775501D02*
X101596000Y-97775500D01*
X187608500Y-183500501D02*
G75*
G03*
X188108500Y-184000501I500001J1D01*
G01*
X52377250Y-189050501D02*
G75*
G03*
X51877250Y-189550501I1J-500001D01*
G01*
X39183499Y-126850501D02*
G75*
G03*
X39683499Y-126350501I-1J500001D01*
G01*
X39183499Y-164950501D02*
G75*
G03*
X39683499Y-164450501I-1J500001D01*
G01*
X211421000Y-97775500D02*
G75*
G03*
X211921000Y-98275500I500001J1D01*
G01*
X153483499Y-164950501D02*
G75*
G03*
X153983499Y-164450501I-1J500001D01*
G01*
X301121000Y-145900501D02*
G75*
G03*
X301621000Y-145400501I-1J500001D01*
G01*
X92858500Y-170000501D02*
G75*
G03*
X92358500Y-170500501I1J-500001D01*
G01*
X82833500Y-164450501D02*
G75*
G03*
X83333500Y-164950501I500001J1D01*
G01*
X92071000Y-132400501D02*
G75*
G03*
X91571000Y-131900501I-500001J-1D01*
G01*
X145246000Y-98275500D02*
X158246000Y-98275500D01*
X307833500Y-132400501D02*
G75*
G03*
X307333500Y-131900501I-500001J-1D01*
G01*
X164296000Y-112850501D02*
G75*
G03*
X163796000Y-113350501I1J-500001D01*
G01*
X52377250Y-203050501D02*
X65377250Y-203050501D01*
X211133500Y-151450501D02*
X211133500Y-164450501D01*
X289277249Y-170500501D02*
X289277249Y-183500501D01*
X396871000Y-84775501D02*
G75*
G03*
X396371000Y-84275501I-500001J-1D01*
G01*
X288120999Y-131900501D02*
G75*
G03*
X287620999Y-132400501I1J-500001D01*
G01*
X82546000Y-113350501D02*
G75*
G03*
X82046000Y-112850501I-500001J-1D01*
G01*
X82546000Y-113350501D02*
X82546000Y-126350501D01*
X25683500Y-170500501D02*
X25683500Y-183500501D01*
X292096000Y-113350501D02*
X292096000Y-126350501D01*
X287620999Y-132400501D02*
X287620999Y-145400501D01*
X177796000Y-113350501D02*
X177796000Y-126350501D01*
X391141601Y-151449301D02*
X391141601Y-164449301D01*
X282071000Y-145900501D02*
G75*
G03*
X282571000Y-145400501I-1J500001D01*
G01*
X49496000Y-97775500D02*
G75*
G03*
X49996000Y-98275500I500001J1D01*
G01*
X258758500Y-170500501D02*
G75*
G03*
X258258500Y-170000501I-500001J-1D01*
G01*
X124439750Y-187536101D02*
X124439750Y-204550501D01*
X224921000Y-98275500D02*
G75*
G03*
X225421000Y-97775500I-1J500001D01*
G01*
X87596000Y-113350501D02*
X87596000Y-126350501D01*
X325277250Y-184000501D02*
G75*
G03*
X325777250Y-183500501I-1J500001D01*
G01*
X290002250Y-189550501D02*
X290002250Y-202550501D01*
X102383500Y-150950501D02*
G75*
G03*
X101883500Y-151450501I1J-500001D01*
G01*
X207158500Y-184000501D02*
X220158500Y-184000501D01*
X39683499Y-84775501D02*
X39683499Y-97775500D01*
X364321000Y-170000501D02*
G75*
G03*
X363821000Y-170500501I1J-500001D01*
G01*
X105858500Y-184000501D02*
G75*
G03*
X106358500Y-183500501I-1J500001D01*
G01*
D11*
X13429899Y-76195200D02*
X13429899Y-211124200D01*
D10*
X130458500Y-170500501D02*
X130458500Y-183500501D01*
X382871000Y-97775500D02*
G75*
G03*
X383371000Y-98275500I500001J1D01*
G01*
X268283500Y-151450501D02*
X268283500Y-164450501D01*
X26183500Y-112850501D02*
X39183499Y-112850501D01*
X331033500Y-132400501D02*
G75*
G03*
X330533500Y-131900501I-500001J-1D01*
G01*
X345271000Y-126850501D02*
X358271000Y-126850501D01*
X287777249Y-170000501D02*
G75*
G03*
X287277249Y-170500501I1J-500001D01*
G01*
X120933500Y-151450501D02*
X120933500Y-164450501D01*
X150008500Y-170000501D02*
G75*
G03*
X149508500Y-170500501I1J-500001D01*
G01*
X78071000Y-145400501D02*
G75*
G03*
X78571000Y-145900501I500001J1D01*
G01*
X65877250Y-189550501D02*
G75*
G03*
X65377250Y-189050501I-500001J-1D01*
G01*
X377821000Y-113350501D02*
G75*
G03*
X377321000Y-112850501I-500001J-1D01*
G01*
X329109000Y-111345701D02*
X329109000Y-128350501D01*
X306333500Y-145900501D02*
X307333500Y-145900501D01*
X240496000Y-126850501D02*
X253496000Y-126850501D01*
X173821000Y-131900501D02*
G75*
G03*
X173321000Y-132400501I1J-500001D01*
G01*
X149221000Y-132400501D02*
G75*
G03*
X148721000Y-131900501I-500001J-1D01*
G01*
X135721000Y-131900501D02*
G75*
G03*
X135221000Y-132400501I1J-500001D01*
G01*
X89189750Y-203050501D02*
G75*
G03*
X89689750Y-202550501I-1J500001D01*
G01*
X278096000Y-84775501D02*
X278096000Y-97775500D01*
X351250299Y-151449301D02*
X351250299Y-164449301D01*
X221446000Y-112850501D02*
G75*
G03*
X220946000Y-113350501I1J-500001D01*
G01*
X154771000Y-131900501D02*
X167771000Y-131900501D01*
X363821000Y-202550501D02*
G75*
G03*
X364321000Y-203050501I500001J1D01*
G01*
X396371000Y-98275500D02*
G75*
G03*
X396871000Y-97775500I-1J500001D01*
G01*
X54758500Y-131900501D02*
G75*
G03*
X54258500Y-132400501I1J-500001D01*
G01*
X259546000Y-98275500D02*
X272546000Y-98275500D01*
X329039750Y-164950501D02*
X330039750Y-164950501D01*
X230471000Y-145400501D02*
G75*
G03*
X230971000Y-145900501I500001J1D01*
G01*
X322109000Y-128350501D02*
G75*
G03*
X322609000Y-128850501I500001J1D01*
G01*
X259046000Y-84775501D02*
X259046000Y-97775500D01*
X268283500Y-151450501D02*
G75*
G03*
X267783500Y-150950501I-500001J-1D01*
G01*
X314314750Y-203050501D02*
X327314750Y-203050501D01*
X107146000Y-98275500D02*
X120146000Y-98275500D01*
X51877250Y-189550501D02*
X51877250Y-202550501D01*
X344771000Y-84775501D02*
X344771000Y-97775500D01*
X154271000Y-132400501D02*
X154271000Y-145400501D01*
X329039750Y-150950501D02*
X330039750Y-150950501D01*
X382704600Y-186518901D02*
X396991200Y-186518901D01*
X288777249Y-184000501D02*
G75*
G03*
X289277249Y-183500501I-1J500001D01*
G01*
X39183499Y-203050501D02*
G75*
G03*
X39683499Y-202550501I-1J500001D01*
G01*
X287277249Y-183500501D02*
G75*
G03*
X287777249Y-184000501I500001J1D01*
G01*
X255877250Y-203050501D02*
G75*
G03*
X256377250Y-202550501I-1J500001D01*
G01*
X197633500Y-150950501D02*
G75*
G03*
X197133500Y-151450501I1J-500001D01*
G01*
X229683500Y-164950501D02*
G75*
G03*
X230183500Y-164450501I-1J500001D01*
G01*
X264308500Y-170000501D02*
X277308500Y-170000501D01*
X320671000Y-113350501D02*
G75*
G03*
X320171000Y-112850501I-500001J-1D01*
G01*
X345271000Y-84275501D02*
G75*
G03*
X344771000Y-84775501I1J-500001D01*
G01*
X150008500Y-170000501D02*
X163008500Y-170000501D01*
X258258500Y-184000501D02*
G75*
G03*
X258758500Y-183500501I-1J500001D01*
G01*
X268571000Y-132400501D02*
X268571000Y-145400501D01*
X135221000Y-132400501D02*
X135221000Y-145400501D01*
X83333500Y-150950501D02*
X96333500Y-150950501D01*
X307171000Y-112850501D02*
X320171000Y-112850501D01*
X149508500Y-170500501D02*
X149508500Y-183500501D01*
X330539750Y-151450501D02*
X330539750Y-164450501D01*
X235616550Y-202542701D02*
G75*
G03*
X236116550Y-203042701I500001J1D01*
G01*
X297646000Y-84275501D02*
X310646000Y-84275501D01*
X183346000Y-112850501D02*
G75*
G03*
X182846000Y-113350501I1J-500001D01*
G01*
X87596000Y-126350501D02*
G75*
G03*
X88096000Y-126850501I500001J1D01*
G01*
X305833500Y-145400501D02*
G75*
G03*
X306333500Y-145900501I500001J1D01*
G01*
X316696000Y-84275501D02*
X329696000Y-84275501D01*
X253996000Y-113350501D02*
X253996000Y-126350501D01*
X72358500Y-131900501D02*
X73358500Y-131900501D01*
X39683499Y-189550501D02*
X39683499Y-202550501D01*
X121433500Y-150950501D02*
G75*
G03*
X120933500Y-151450501I1J-500001D01*
G01*
X192871000Y-98275500D02*
X205871000Y-98275500D01*
X323777250Y-170500501D02*
X323777250Y-183500501D01*
X171439750Y-203050501D02*
X184439750Y-203050501D01*
X144458500Y-170500501D02*
G75*
G03*
X143958500Y-170000501I-500001J-1D01*
G01*
X226208500Y-170000501D02*
G75*
G03*
X225708500Y-170500501I1J-500001D01*
G01*
X73358500Y-145900501D02*
G75*
G03*
X73858500Y-145400501I-1J500001D01*
G01*
X83333500Y-150950501D02*
G75*
G03*
X82833500Y-151450501I1J-500001D01*
G01*
X88096000Y-84275501D02*
G75*
G03*
X87596000Y-84775501I1J-500001D01*
G01*
X244471000Y-132400501D02*
X244471000Y-145400501D01*
X220946000Y-113350501D02*
X220946000Y-126350501D01*
X116671000Y-145900501D02*
X129671000Y-145900501D01*
X236116550Y-189042702D02*
G75*
G03*
X235616550Y-189542702I1J-500001D01*
G01*
X211921000Y-84275501D02*
G75*
G03*
X211421000Y-84775501I1J-500001D01*
G01*
X230183500Y-151450501D02*
G75*
G03*
X229683500Y-150950501I-500001J-1D01*
G01*
X187321000Y-84775501D02*
G75*
G03*
X186821000Y-84275501I-500001J-1D01*
G01*
X173821000Y-84275501D02*
X186821000Y-84275501D01*
X396371000Y-126850501D02*
G75*
G03*
X396871000Y-126350501I-1J500001D01*
G01*
X130958500Y-170000501D02*
G75*
G03*
X130458500Y-170500501I1J-500001D01*
G01*
X396991200Y-186518901D02*
G75*
G03*
X397784900Y-185725201I1J793699D01*
G01*
X273833500Y-164950501D02*
X286833500Y-164950501D01*
X182846000Y-113350501D02*
X182846000Y-126350501D01*
X345271000Y-112850501D02*
G75*
G03*
X344771000Y-113350501I1J-500001D01*
G01*
X68258500Y-132400501D02*
G75*
G03*
X67758500Y-131900501I-500001J-1D01*
G01*
X163508500Y-170500501D02*
X163508500Y-183500501D01*
X382704600Y-167470101D02*
X396991200Y-167470101D01*
X364321000Y-189050501D02*
X377321000Y-189050501D01*
X187321000Y-84775501D02*
X187321000Y-97775500D01*
X73858500Y-132400501D02*
X73858500Y-145400501D01*
X330196000Y-84775501D02*
G75*
G03*
X329696000Y-84275501I-500001J-1D01*
G01*
X187321000Y-132400501D02*
X187321000Y-145400501D01*
X54758500Y-145900501D02*
X67758500Y-145900501D01*
X280189750Y-189550501D02*
G75*
G03*
X279689750Y-189050501I-500001J-1D01*
G01*
X259546000Y-126850501D02*
X272546000Y-126850501D01*
X50652250Y-184000501D02*
G75*
G03*
X51152250Y-183500501I-1J500001D01*
G01*
X159533500Y-150950501D02*
X172533500Y-150950501D01*
X237711050Y-202542701D02*
X237711050Y-189542702D01*
X92858500Y-170000501D02*
X105858500Y-170000501D01*
X140483500Y-150950501D02*
G75*
G03*
X139983500Y-151450501I1J-500001D01*
G01*
X234946000Y-113350501D02*
X234946000Y-126350501D01*
X25683500Y-97775500D02*
G75*
G03*
X26183500Y-98275500I500001J1D01*
G01*
X358271000Y-98275500D02*
G75*
G03*
X358771000Y-97775500I-1J500001D01*
G01*
X99502250Y-202550501D02*
G75*
G03*
X100002250Y-203050501I500001J1D01*
G01*
X304002250Y-189550501D02*
X304002250Y-202550501D01*
X345271000Y-112850501D02*
X358271000Y-112850501D01*
X311146000Y-84775501D02*
X311146000Y-97775500D01*
X239708500Y-170500501D02*
X239708500Y-183500501D01*
X273333500Y-151450501D02*
X273333500Y-164450501D01*
X149508500Y-183500501D02*
G75*
G03*
X150008500Y-184000501I500001J1D01*
G01*
X230471000Y-97775500D02*
G75*
G03*
X230971000Y-98275500I500001J1D01*
G01*
X71858500Y-145400501D02*
G75*
G03*
X72358500Y-145900501I500001J1D01*
G01*
X183346000Y-126850501D02*
X196346000Y-126850501D01*
X87652250Y-170500501D02*
G75*
G03*
X87152250Y-170000501I-500001J-1D01*
G01*
X106358500Y-170500501D02*
X106358500Y-183500501D01*
D11*
X13429899Y-211124200D02*
G75*
G03*
X17398399Y-215092700I3968501J1D01*
G01*
D10*
X230471000Y-132400501D02*
X230471000Y-145400501D01*
X351750299Y-150949301D02*
X390641601Y-150949301D01*
X323777250Y-183500501D02*
G75*
G03*
X324277250Y-184000501I500001J1D01*
G01*
X298233000Y-128350501D02*
G75*
G03*
X298733000Y-128850501I500001J1D01*
G01*
X96833500Y-151450501D02*
G75*
G03*
X96333500Y-150950501I-500001J-1D01*
G01*
X230971000Y-84275501D02*
X243971000Y-84275501D01*
X173033500Y-151450501D02*
G75*
G03*
X172533500Y-150950501I-500001J-1D01*
G01*
X25683500Y-151450501D02*
X25683500Y-164450501D01*
X253496000Y-126850501D02*
G75*
G03*
X253996000Y-126350501I-1J500001D01*
G01*
X358771000Y-113350501D02*
G75*
G03*
X358271000Y-112850501I-500001J-1D01*
G01*
X70639750Y-151450501D02*
X70639750Y-164450501D01*
X172533500Y-164950501D02*
G75*
G03*
X173033500Y-164450501I-1J500001D01*
G01*
X192371000Y-145400501D02*
G75*
G03*
X192871000Y-145900501I500001J1D01*
G01*
X211921000Y-98275500D02*
X224921000Y-98275500D01*
X158246000Y-98275500D02*
G75*
G03*
X158746000Y-97775500I-1J500001D01*
G01*
X158746000Y-113350501D02*
X158746000Y-126350501D01*
X153983499Y-151450501D02*
X153983499Y-164450501D01*
X207158500Y-170000501D02*
X220158500Y-170000501D01*
X316696000Y-98275500D02*
X329696000Y-98275500D01*
X249521000Y-132400501D02*
X249521000Y-145400501D01*
X25683500Y-113350501D02*
X25683500Y-126350501D01*
X107146000Y-84275501D02*
G75*
G03*
X106646000Y-84775501I1J-500001D01*
G01*
X201896000Y-126350501D02*
G75*
G03*
X202396000Y-126850501I500001J1D01*
G01*
X99502250Y-189550501D02*
X99502250Y-202550501D01*
X170939750Y-189550501D02*
X170939750Y-202550501D01*
X230971000Y-98275500D02*
X243971000Y-98275500D01*
X324933500Y-145900501D02*
G75*
G03*
X325433500Y-145400501I-1J500001D01*
G01*
X182558500Y-170500501D02*
X182558500Y-183500501D01*
X254783500Y-164950501D02*
X267783500Y-164950501D01*
X26183500Y-150950501D02*
G75*
G03*
X25683500Y-151450501I1J-500001D01*
G01*
X89689750Y-189550501D02*
X89689750Y-202550501D01*
X211421000Y-132400501D02*
X211421000Y-145400501D01*
X292039750Y-151450501D02*
X292039750Y-164450501D01*
X76189750Y-189050501D02*
X89189750Y-189050501D01*
X327314750Y-203050501D02*
G75*
G03*
X327814750Y-202550501I-1J500001D01*
G01*
D11*
X404723999Y-215092700D02*
G75*
G03*
X408692499Y-211124200I-1J3968501D01*
G01*
D10*
X383371000Y-189050501D02*
X396371000Y-189050501D01*
X140483500Y-150950501D02*
X153483499Y-150950501D01*
X273046000Y-113350501D02*
X273046000Y-126350501D01*
X291596000Y-98275500D02*
G75*
G03*
X292096000Y-97775500I-1J500001D01*
G01*
X250021000Y-131900501D02*
G75*
G03*
X249521000Y-132400501I1J-500001D01*
G01*
X113502250Y-189550501D02*
X113502250Y-202550501D01*
X225708500Y-183500501D02*
G75*
G03*
X226208500Y-184000501I500001J1D01*
G01*
X259046000Y-126350501D02*
G75*
G03*
X259546000Y-126850501I500001J1D01*
G01*
X201896000Y-113350501D02*
X201896000Y-126350501D01*
X273333500Y-164450501D02*
G75*
G03*
X273833500Y-164950501I500001J1D01*
G01*
X364321000Y-203050501D02*
X377321000Y-203050501D01*
X145246000Y-112850501D02*
X158246000Y-112850501D01*
X235733500Y-150950501D02*
X248733500Y-150950501D01*
X259546000Y-112850501D02*
G75*
G03*
X259046000Y-113350501I1J-500001D01*
G01*
X120646000Y-84775501D02*
G75*
G03*
X120146000Y-84275501I-500001J-1D01*
G01*
X254783500Y-150950501D02*
X267783500Y-150950501D01*
X178583500Y-164950501D02*
X191583500Y-164950501D01*
X159033500Y-151450501D02*
X159033500Y-164450501D01*
X344771000Y-97775500D02*
G75*
G03*
X345271000Y-98275500I500001J1D01*
G01*
X148721000Y-145900501D02*
G75*
G03*
X149221000Y-145400501I-1J500001D01*
G01*
D11*
X408692499Y-76195200D02*
G75*
G03*
X404723999Y-72226700I-3968501J-1D01*
G01*
D10*
X70639750Y-151450501D02*
G75*
G03*
X70139750Y-150950501I-500001J-1D01*
G01*
X97621000Y-145900501D02*
X110621000Y-145900501D01*
X49996000Y-98275500D02*
X62996000Y-98275500D01*
X145246000Y-126850501D02*
X158246000Y-126850501D01*
X240496000Y-112850501D02*
X253496000Y-112850501D01*
X396871000Y-84775501D02*
X396871000Y-97775500D01*
X187321000Y-132400501D02*
G75*
G03*
X186821000Y-131900501I-500001J-1D01*
G01*
X78571000Y-145900501D02*
X91571000Y-145900501D01*
X69046000Y-112850501D02*
X82046000Y-112850501D01*
X182058500Y-184000501D02*
G75*
G03*
X182558500Y-183500501I-1J500001D01*
G01*
X130171000Y-132400501D02*
G75*
G03*
X129671000Y-131900501I-500001J-1D01*
G01*
X159533500Y-150950501D02*
G75*
G03*
X159033500Y-151450501I1J-500001D01*
G01*
X292539750Y-150950501D02*
X293539750Y-150950501D01*
X63496000Y-84775501D02*
X63496000Y-97775500D01*
X248733500Y-164950501D02*
G75*
G03*
X249233500Y-164450501I-1J500001D01*
G01*
X306671000Y-126350501D02*
G75*
G03*
X307171000Y-126850501I500001J1D01*
G01*
X139696000Y-84775501D02*
G75*
G03*
X139196000Y-84275501I-500001J-1D01*
G01*
X325777250Y-170500501D02*
X325777250Y-183500501D01*
X115383500Y-164950501D02*
G75*
G03*
X115883500Y-164450501I-1J500001D01*
G01*
X72358500Y-131900501D02*
G75*
G03*
X71858500Y-132400501I1J-500001D01*
G01*
X382871000Y-126350501D02*
G75*
G03*
X383371000Y-126850501I500001J1D01*
G01*
X106358500Y-170500501D02*
G75*
G03*
X105858500Y-170000501I-500001J-1D01*
G01*
X288120999Y-131900501D02*
X301121000Y-131900501D01*
X201608500Y-170500501D02*
G75*
G03*
X201108500Y-170000501I-500001J-1D01*
G01*
X130958500Y-184000501D02*
X143958500Y-184000501D01*
X113002250Y-203050501D02*
G75*
G03*
X113502250Y-202550501I-1J500001D01*
G01*
X273833500Y-150950501D02*
X286833500Y-150950501D01*
X221446000Y-126850501D02*
X234446000Y-126850501D01*
X206658500Y-183500501D02*
G75*
G03*
X207158500Y-184000501I500001J1D01*
G01*
X345271000Y-84275501D02*
X358271000Y-84275501D01*
X249521000Y-145400501D02*
G75*
G03*
X250021000Y-145900501I500001J1D01*
G01*
X363821000Y-189550501D02*
X363821000Y-202550501D01*
X144458500Y-170500501D02*
X144458500Y-183500501D01*
X25683500Y-132400501D02*
X25683500Y-145400501D01*
X72358500Y-145900501D02*
X73358500Y-145900501D01*
X26183500Y-203050501D02*
X39183499Y-203050501D01*
X143958500Y-184000501D02*
G75*
G03*
X144458500Y-183500501I-1J500001D01*
G01*
X320171000Y-126850501D02*
G75*
G03*
X320671000Y-126350501I-1J500001D01*
G01*
X192083500Y-151450501D02*
G75*
G03*
X191583500Y-150950501I-500001J-1D01*
G01*
X135721000Y-145900501D02*
X148721000Y-145900501D01*
X192871000Y-84275501D02*
G75*
G03*
X192371000Y-84775501I1J-500001D01*
G01*
X125696000Y-126350501D02*
G75*
G03*
X126196000Y-126850501I500001J1D01*
G01*
X322609000Y-128850501D02*
X328609000Y-128850501D01*
X101096000Y-98275500D02*
G75*
G03*
X101596000Y-97775500I-1J500001D01*
G01*
X242877250Y-189050501D02*
G75*
G03*
X242377250Y-189550501I1J-500001D01*
G01*
X292096000Y-113350501D02*
G75*
G03*
X291596000Y-112850501I-500001J-1D01*
G01*
X298733000Y-128850501D02*
X304733000Y-128850501D01*
X51152250Y-170500501D02*
X51152250Y-183500501D01*
X244758500Y-170500501D02*
X244758500Y-183500501D01*
X121433500Y-150950501D02*
X134433500Y-150950501D01*
X330196000Y-84775501D02*
X330196000Y-97775500D01*
X126196000Y-84275501D02*
X139196000Y-84275501D01*
X220946000Y-126350501D02*
G75*
G03*
X221446000Y-126850501I500001J1D01*
G01*
X301621000Y-132400501D02*
G75*
G03*
X301121000Y-131900501I-500001J-1D01*
G01*
X191583500Y-164950501D02*
G75*
G03*
X192083500Y-164450501I-1J500001D01*
G01*
X396371000Y-203050501D02*
G75*
G03*
X396871000Y-202550501I-1J500001D01*
G01*
X85652250Y-170500501D02*
X85652250Y-183500501D01*
X92858500Y-184000501D02*
X105858500Y-184000501D01*
X124908500Y-184000501D02*
G75*
G03*
X125408500Y-183500501I-1J500001D01*
G01*
X111908500Y-184000501D02*
X124908500Y-184000501D01*
X235733500Y-150950501D02*
G75*
G03*
X235233500Y-151450501I1J-500001D01*
G01*
X292096000Y-84775501D02*
X292096000Y-97775500D01*
X150008500Y-184000501D02*
X163008500Y-184000501D01*
X39183499Y-98275500D02*
G75*
G03*
X39683499Y-97775500I-1J500001D01*
G01*
X292096000Y-84775501D02*
G75*
G03*
X291596000Y-84275501I-500001J-1D01*
G01*
X363821000Y-113350501D02*
X363821000Y-126350501D01*
X49652250Y-170000501D02*
G75*
G03*
X49152250Y-170500501I1J-500001D01*
G01*
X311433500Y-132400501D02*
X311433500Y-145400501D01*
X266689750Y-203050501D02*
X279689750Y-203050501D01*
X130458500Y-183500501D02*
G75*
G03*
X130958500Y-184000501I500001J1D01*
G01*
X325777250Y-170500501D02*
G75*
G03*
X325277250Y-170000501I-500001J-1D01*
G01*
X383371000Y-84275501D02*
G75*
G03*
X382871000Y-84775501I1J-500001D01*
G01*
X168558500Y-170500501D02*
X168558500Y-183500501D01*
X68546000Y-126350501D02*
G75*
G03*
X69046000Y-126850501I500001J1D01*
G01*
X316196000Y-84775501D02*
X316196000Y-97775500D01*
X239996000Y-126350501D02*
G75*
G03*
X240496000Y-126850501I500001J1D01*
G01*
X188108500Y-184000501D02*
X201108500Y-184000501D01*
X382871000Y-189550501D02*
X382871000Y-202550501D01*
X173321000Y-97775500D02*
G75*
G03*
X173821000Y-98275500I500001J1D01*
G01*
X305833500Y-132400501D02*
X305833500Y-145400501D01*
X25683500Y-183500501D02*
G75*
G03*
X26183500Y-184000501I500001J1D01*
G01*
X292039750Y-164450501D02*
G75*
G03*
X292539750Y-164950501I500001J1D01*
G01*
X69046000Y-126850501D02*
X82046000Y-126850501D01*
X88096000Y-98275500D02*
X101096000Y-98275500D01*
X139696000Y-84775501D02*
X139696000Y-97775500D01*
X363821000Y-170500501D02*
X363821000Y-183500501D01*
X397784900Y-168263801D02*
G75*
G03*
X396991200Y-167470101I-793699J1D01*
G01*
X216683500Y-150950501D02*
X229683500Y-150950501D01*
X120646000Y-113350501D02*
G75*
G03*
X120146000Y-112850501I-500001J-1D01*
G01*
X86152250Y-170000501D02*
X87152250Y-170000501D01*
X48658500Y-145400501D02*
G75*
G03*
X49158500Y-145900501I500001J1D01*
G01*
X364321000Y-126850501D02*
X377321000Y-126850501D01*
X196346000Y-126850501D02*
G75*
G03*
X196846000Y-126350501I-1J500001D01*
G01*
X49152250Y-183500501D02*
G75*
G03*
X49652250Y-184000501I500001J1D01*
G01*
X97621000Y-131900501D02*
X110621000Y-131900501D01*
X278596000Y-126850501D02*
X291596000Y-126850501D01*
X396871000Y-189550501D02*
X396871000Y-202550501D01*
X177796000Y-113350501D02*
G75*
G03*
X177296000Y-112850501I-500001J-1D01*
G01*
X244758500Y-183500501D02*
G75*
G03*
X245258500Y-184000501I500001J1D01*
G01*
X197133500Y-151450501D02*
X197133500Y-164450501D01*
X396871000Y-189550501D02*
G75*
G03*
X396371000Y-189050501I-500001J-1D01*
G01*
X383371000Y-112850501D02*
X396371000Y-112850501D01*
X249233500Y-151450501D02*
G75*
G03*
X248733500Y-150950501I-500001J-1D01*
G01*
X322109000Y-111345701D02*
X322109000Y-128350501D01*
X85652250Y-183500501D02*
G75*
G03*
X86152250Y-184000501I500001J1D01*
G01*
X49158500Y-145900501D02*
X50158500Y-145900501D01*
X76189750Y-203050501D02*
X89189750Y-203050501D01*
X225708500Y-170500501D02*
X225708500Y-183500501D01*
X358271000Y-203050501D02*
G75*
G03*
X358771000Y-202550501I-1J500001D01*
G01*
X242877250Y-203050501D02*
X255877250Y-203050501D01*
X210633500Y-164950501D02*
G75*
G03*
X211133500Y-164450501I-1J500001D01*
G01*
X358271000Y-126850501D02*
G75*
G03*
X358771000Y-126350501I-1J500001D01*
G01*
X116171000Y-145400501D02*
G75*
G03*
X116671000Y-145900501I500001J1D01*
G01*
X48658500Y-132400501D02*
X48658500Y-145400501D01*
X169058500Y-184000501D02*
X182058500Y-184000501D01*
X50158500Y-145900501D02*
G75*
G03*
X50658500Y-145400501I-1J500001D01*
G01*
X230971000Y-145900501D02*
X243971000Y-145900501D01*
X206371000Y-84775501D02*
X206371000Y-97775500D01*
X364321000Y-112850501D02*
X377321000Y-112850501D01*
X313814750Y-202550501D02*
G75*
G03*
X314314750Y-203050501I500001J1D01*
G01*
X311146000Y-84775501D02*
G75*
G03*
X310646000Y-84275501I-500001J-1D01*
G01*
X329033500Y-132400501D02*
X329033500Y-145400501D01*
X26183500Y-131900501D02*
G75*
G03*
X25683500Y-132400501I1J-500001D01*
G01*
X327814750Y-189550501D02*
X327814750Y-202550501D01*
X26183500Y-170000501D02*
G75*
G03*
X25683500Y-170500501I1J-500001D01*
G01*
X259546000Y-112850501D02*
X272546000Y-112850501D01*
X245258500Y-184000501D02*
X258258500Y-184000501D01*
X54258500Y-145400501D02*
G75*
G03*
X54758500Y-145900501I500001J1D01*
G01*
X173821000Y-145900501D02*
X186821000Y-145900501D01*
X230471000Y-84775501D02*
X230471000Y-97775500D01*
X39683499Y-170500501D02*
G75*
G03*
X39183499Y-170000501I-500001J-1D01*
G01*
X107146000Y-126850501D02*
X120146000Y-126850501D01*
X96833500Y-151450501D02*
X96833500Y-164450501D01*
X25683500Y-84775501D02*
X25683500Y-97775500D01*
X49996000Y-112850501D02*
X62996000Y-112850501D01*
X377321000Y-184000501D02*
G75*
G03*
X377821000Y-183500501I-1J500001D01*
G01*
X278096000Y-126350501D02*
G75*
G03*
X278596000Y-126850501I500001J1D01*
G01*
X278596000Y-112850501D02*
G75*
G03*
X278096000Y-113350501I1J-500001D01*
G01*
X107146000Y-84275501D02*
X120146000Y-84275501D01*
X230183500Y-151450501D02*
X230183500Y-164450501D01*
X211921000Y-84275501D02*
X224921000Y-84275501D01*
X50658500Y-132400501D02*
X50658500Y-145400501D01*
X88096000Y-126850501D02*
X101096000Y-126850501D01*
X224921000Y-145900501D02*
G75*
G03*
X225421000Y-145400501I-1J500001D01*
G01*
M02*
