<?xml version="1.0" standalone="no"?>
 <!DOCTYPE svg PUBLIC "-//W3C//DTD SVG 1.1//EN" 
 "http://www.w3.org/Graphics/SVG/1.1/DTD/svg11.dtd"> 
<svg
  xmlns:svg="http://www.w3.org/2000/svg"
  xmlns="http://www.w3.org/2000/svg"
  xmlns:xlink="http://www.w3.org/1999/xlink"
  version="1.1"
  width="41.998900cm" height="29.700220cm" viewBox="0 0 419989000 297002200">
<title>SVG Picture created as custom_keyboard plate v3 bottom-B_Silkscreen.svg date 2022/03/05 14:26:45 </title>
  <desc>Picture generated by PCBNEW </desc>
<g style="fill:#000000; fill-opacity:1.000000;stroke:#000000; stroke-opacity:1.000000;
stroke-linecap:round; stroke-linejoin:round;"
 transform="translate(0 0) scale(1 1)">
</g>
<g style="fill:#000000; fill-opacity:0.0; 
stroke:#000000; stroke-width:0.000000; stroke-opacity:1; 
stroke-linecap:round; stroke-linejoin:round;">
</g>
<g style="fill:#000000; fill-opacity:0.0; 
stroke:#000000; stroke-width:21200.000000; stroke-opacity:1; 
stroke-linecap:round; stroke-linejoin:round;">
</g>
<g style="fill:#000000; fill-opacity:0.0; 
stroke:#000000; stroke-width:150000.000000; stroke-opacity:1; 
stroke-linecap:round; stroke-linejoin:round;">
<rect x="299989000.000000" y="253002200.000000" width="108000000.000000" height="32000000.000000" rx="0.000000" />
</g>
<g style="fill:#000000; fill-opacity:0.0; 
stroke:#000000; stroke-width:21200.000000; stroke-opacity:1; 
stroke-linecap:round; stroke-linejoin:round;">
</g>
<g style="fill:#000000; fill-opacity:0.0; 
stroke:#000000; stroke-width:150000.000000; stroke-opacity:1; 
stroke-linecap:round; stroke-linejoin:round;">
<rect x="10000000.000000" y="10000000.000000" width="399989000.000000" height="277002200.000000" rx="0.000000" />
</g>
<g style="fill:#000000; fill-opacity:0.0; 
stroke:#000000; stroke-width:21200.000000; stroke-opacity:1; 
stroke-linecap:round; stroke-linejoin:round;">
</g>
<g style="fill:#000000; fill-opacity:0.0; 
stroke:#000000; stroke-width:150000.000000; stroke-opacity:1; 
stroke-linecap:round; stroke-linejoin:round;">
<rect x="12000000.000000" y="12000000.000000" width="395989000.000000" height="273002200.000000" rx="0.000000" />
</g>
<g style="fill:#000000; fill-opacity:0.0; 
stroke:#000000; stroke-width:21200.000000; stroke-opacity:1; 
stroke-linecap:round; stroke-linejoin:round;">
</g>
<g style="fill:#000000; fill-opacity:0.0; 
stroke:#000000; stroke-width:150000.000000; stroke-opacity:1; 
stroke-linecap:round; stroke-linejoin:round;">
<path d="M60000000 12000000
L60000000 10000000
" />
</g>
<g style="fill:#000000; fill-opacity:0.0; 
stroke:#000000; stroke-width:21200.000000; stroke-opacity:1; 
stroke-linecap:round; stroke-linejoin:round;">
</g>
<g style="fill:#000000; fill-opacity:0.0; 
stroke:#000000; stroke-width:150000.000000; stroke-opacity:1; 
stroke-linecap:round; stroke-linejoin:round;">
<path d="M110000000 12000000
L110000000 10000000
" />
</g>
<g style="fill:#000000; fill-opacity:0.0; 
stroke:#000000; stroke-width:21200.000000; stroke-opacity:1; 
stroke-linecap:round; stroke-linejoin:round;">
</g>
<g style="fill:#000000; fill-opacity:0.0; 
stroke:#000000; stroke-width:150000.000000; stroke-opacity:1; 
stroke-linecap:round; stroke-linejoin:round;">
<path d="M160000000 12000000
L160000000 10000000
" />
</g>
<g style="fill:#000000; fill-opacity:0.0; 
stroke:#000000; stroke-width:21200.000000; stroke-opacity:1; 
stroke-linecap:round; stroke-linejoin:round;">
</g>
<g style="fill:#000000; fill-opacity:0.0; 
stroke:#000000; stroke-width:150000.000000; stroke-opacity:1; 
stroke-linecap:round; stroke-linejoin:round;">
<path d="M210000000 12000000
L210000000 10000000
" />
</g>
<g style="fill:#000000; fill-opacity:0.0; 
stroke:#000000; stroke-width:21200.000000; stroke-opacity:1; 
stroke-linecap:round; stroke-linejoin:round;">
</g>
<g style="fill:#000000; fill-opacity:0.0; 
stroke:#000000; stroke-width:150000.000000; stroke-opacity:1; 
stroke-linecap:round; stroke-linejoin:round;">
<path d="M260000000 12000000
L260000000 10000000
" />
</g>
<g style="fill:#000000; fill-opacity:0.0; 
stroke:#000000; stroke-width:21200.000000; stroke-opacity:1; 
stroke-linecap:round; stroke-linejoin:round;">
</g>
<g style="fill:#000000; fill-opacity:0.0; 
stroke:#000000; stroke-width:150000.000000; stroke-opacity:1; 
stroke-linecap:round; stroke-linejoin:round;">
<path d="M310000000 12000000
L310000000 10000000
" />
</g>
<g style="fill:#000000; fill-opacity:0.0; 
stroke:#000000; stroke-width:21200.000000; stroke-opacity:1; 
stroke-linecap:round; stroke-linejoin:round;">
</g>
<g style="fill:#000000; fill-opacity:0.0; 
stroke:#000000; stroke-width:150000.000000; stroke-opacity:1; 
stroke-linecap:round; stroke-linejoin:round;">
<path d="M360000000 12000000
L360000000 10000000
" />
</g>
<g style="fill:#000000; fill-opacity:0.0; 
stroke:#000000; stroke-width:21200.000000; stroke-opacity:1; 
stroke-linecap:round; stroke-linejoin:round;">
</g>
<g style="fill:#000000; fill-opacity:0.0; 
stroke:#000000; stroke-width:150000.000000; stroke-opacity:1; 
stroke-linecap:round; stroke-linejoin:round;">
<text x="35000000.000000" y="11650000.000000"
textLength="1388095.000000" font-size="1733333.000000" lengthAdjust="spacingAndGlyphs"
text-anchor="start" opacity="0">1</text>
<g class="stroked-text"><desc>1</desc>
<path d="M36065476 11588095
L35322619 11588095
" />
<path d="M35694047 11588095
L35694047 10288095
L35570238 10473809
L35446428 10597619
L35322619 10659523
" />
</g></g>
<g style="fill:#000000; fill-opacity:0.0; 
stroke:#000000; stroke-width:21200.000000; stroke-opacity:1; 
stroke-linecap:round; stroke-linejoin:round;">
</g>
<g style="fill:#000000; fill-opacity:0.0; 
stroke:#000000; stroke-width:150000.000000; stroke-opacity:1; 
stroke-linecap:round; stroke-linejoin:round;">
<text x="85000000.000000" y="11650000.000000"
textLength="1388095.000000" font-size="1733333.000000" lengthAdjust="spacingAndGlyphs"
text-anchor="start" opacity="0">2</text>
<g class="stroked-text"><desc>2</desc>
<path d="M85322619 10411904
L85384523 10350000
L85508333 10288095
L85817857 10288095
L85941666 10350000
L86003571 10411904
L86065476 10535714
L86065476 10659523
L86003571 10845238
L85260714 11588095
L86065476 11588095
" />
</g></g>
<g style="fill:#000000; fill-opacity:0.0; 
stroke:#000000; stroke-width:21200.000000; stroke-opacity:1; 
stroke-linecap:round; stroke-linejoin:round;">
</g>
<g style="fill:#000000; fill-opacity:0.0; 
stroke:#000000; stroke-width:150000.000000; stroke-opacity:1; 
stroke-linecap:round; stroke-linejoin:round;">
<text x="135000000.000000" y="11650000.000000"
textLength="1388095.000000" font-size="1733333.000000" lengthAdjust="spacingAndGlyphs"
text-anchor="start" opacity="0">3</text>
<g class="stroked-text"><desc>3</desc>
<path d="M135260714 10288095
L136065476 10288095
L135632142 10783333
L135817857 10783333
L135941666 10845238
L136003571 10907142
L136065476 11030952
L136065476 11340476
L136003571 11464285
L135941666 11526190
L135817857 11588095
L135446428 11588095
L135322619 11526190
L135260714 11464285
" />
</g></g>
<g style="fill:#000000; fill-opacity:0.0; 
stroke:#000000; stroke-width:21200.000000; stroke-opacity:1; 
stroke-linecap:round; stroke-linejoin:round;">
</g>
<g style="fill:#000000; fill-opacity:0.0; 
stroke:#000000; stroke-width:150000.000000; stroke-opacity:1; 
stroke-linecap:round; stroke-linejoin:round;">
<text x="185000000.000000" y="11650000.000000"
textLength="1388095.000000" font-size="1733333.000000" lengthAdjust="spacingAndGlyphs"
text-anchor="start" opacity="0">4</text>
<g class="stroked-text"><desc>4</desc>
<path d="M185941666 10721428
L185941666 11588095
" />
<path d="M185632142 10226190
L185322619 11154761
L186127380 11154761
" />
</g></g>
<g style="fill:#000000; fill-opacity:0.0; 
stroke:#000000; stroke-width:21200.000000; stroke-opacity:1; 
stroke-linecap:round; stroke-linejoin:round;">
</g>
<g style="fill:#000000; fill-opacity:0.0; 
stroke:#000000; stroke-width:150000.000000; stroke-opacity:1; 
stroke-linecap:round; stroke-linejoin:round;">
<text x="235000000.000000" y="11650000.000000"
textLength="1388095.000000" font-size="1733333.000000" lengthAdjust="spacingAndGlyphs"
text-anchor="start" opacity="0">5</text>
<g class="stroked-text"><desc>5</desc>
<path d="M236003571 10288095
L235384523 10288095
L235322619 10907142
L235384523 10845238
L235508333 10783333
L235817857 10783333
L235941666 10845238
L236003571 10907142
L236065476 11030952
L236065476 11340476
L236003571 11464285
L235941666 11526190
L235817857 11588095
L235508333 11588095
L235384523 11526190
L235322619 11464285
" />
</g></g>
<g style="fill:#000000; fill-opacity:0.0; 
stroke:#000000; stroke-width:21200.000000; stroke-opacity:1; 
stroke-linecap:round; stroke-linejoin:round;">
</g>
<g style="fill:#000000; fill-opacity:0.0; 
stroke:#000000; stroke-width:150000.000000; stroke-opacity:1; 
stroke-linecap:round; stroke-linejoin:round;">
<text x="285000000.000000" y="11650000.000000"
textLength="1388095.000000" font-size="1733333.000000" lengthAdjust="spacingAndGlyphs"
text-anchor="start" opacity="0">6</text>
<g class="stroked-text"><desc>6</desc>
<path d="M285941666 10288095
L285694047 10288095
L285570238 10350000
L285508333 10411904
L285384523 10597619
L285322619 10845238
L285322619 11340476
L285384523 11464285
L285446428 11526190
L285570238 11588095
L285817857 11588095
L285941666 11526190
L286003571 11464285
L286065476 11340476
L286065476 11030952
L286003571 10907142
L285941666 10845238
L285817857 10783333
L285570238 10783333
L285446428 10845238
L285384523 10907142
L285322619 11030952
" />
</g></g>
<g style="fill:#000000; fill-opacity:0.0; 
stroke:#000000; stroke-width:21200.000000; stroke-opacity:1; 
stroke-linecap:round; stroke-linejoin:round;">
</g>
<g style="fill:#000000; fill-opacity:0.0; 
stroke:#000000; stroke-width:150000.000000; stroke-opacity:1; 
stroke-linecap:round; stroke-linejoin:round;">
<text x="335000000.000000" y="11650000.000000"
textLength="1388095.000000" font-size="1733333.000000" lengthAdjust="spacingAndGlyphs"
text-anchor="start" opacity="0">7</text>
<g class="stroked-text"><desc>7</desc>
<path d="M335260714 10288095
L336127380 10288095
L335570238 11588095
" />
</g></g>
<g style="fill:#000000; fill-opacity:0.0; 
stroke:#000000; stroke-width:21200.000000; stroke-opacity:1; 
stroke-linecap:round; stroke-linejoin:round;">
</g>
<g style="fill:#000000; fill-opacity:0.0; 
stroke:#000000; stroke-width:150000.000000; stroke-opacity:1; 
stroke-linecap:round; stroke-linejoin:round;">
<text x="385000000.000000" y="11650000.000000"
textLength="1388095.000000" font-size="1733333.000000" lengthAdjust="spacingAndGlyphs"
text-anchor="start" opacity="0">8</text>
<g class="stroked-text"><desc>8</desc>
<path d="M385570238 10845238
L385446428 10783333
L385384523 10721428
L385322619 10597619
L385322619 10535714
L385384523 10411904
L385446428 10350000
L385570238 10288095
L385817857 10288095
L385941666 10350000
L386003571 10411904
L386065476 10535714
L386065476 10597619
L386003571 10721428
L385941666 10783333
L385817857 10845238
L385570238 10845238
L385446428 10907142
L385384523 10969047
L385322619 11092857
L385322619 11340476
L385384523 11464285
L385446428 11526190
L385570238 11588095
L385817857 11588095
L385941666 11526190
L386003571 11464285
L386065476 11340476
L386065476 11092857
L386003571 10969047
L385941666 10907142
L385817857 10845238
" />
</g></g>
<g style="fill:#000000; fill-opacity:0.0; 
stroke:#000000; stroke-width:21200.000000; stroke-opacity:1; 
stroke-linecap:round; stroke-linejoin:round;">
</g>
<g style="fill:#000000; fill-opacity:0.0; 
stroke:#000000; stroke-width:150000.000000; stroke-opacity:1; 
stroke-linecap:round; stroke-linejoin:round;">
<path d="M60000000 285002200
L60000000 287002200
" />
</g>
<g style="fill:#000000; fill-opacity:0.0; 
stroke:#000000; stroke-width:21200.000000; stroke-opacity:1; 
stroke-linecap:round; stroke-linejoin:round;">
</g>
<g style="fill:#000000; fill-opacity:0.0; 
stroke:#000000; stroke-width:150000.000000; stroke-opacity:1; 
stroke-linecap:round; stroke-linejoin:round;">
<path d="M110000000 285002200
L110000000 287002200
" />
</g>
<g style="fill:#000000; fill-opacity:0.0; 
stroke:#000000; stroke-width:21200.000000; stroke-opacity:1; 
stroke-linecap:round; stroke-linejoin:round;">
</g>
<g style="fill:#000000; fill-opacity:0.0; 
stroke:#000000; stroke-width:150000.000000; stroke-opacity:1; 
stroke-linecap:round; stroke-linejoin:round;">
<path d="M160000000 285002200
L160000000 287002200
" />
</g>
<g style="fill:#000000; fill-opacity:0.0; 
stroke:#000000; stroke-width:21200.000000; stroke-opacity:1; 
stroke-linecap:round; stroke-linejoin:round;">
</g>
<g style="fill:#000000; fill-opacity:0.0; 
stroke:#000000; stroke-width:150000.000000; stroke-opacity:1; 
stroke-linecap:round; stroke-linejoin:round;">
<path d="M210000000 285002200
L210000000 287002200
" />
</g>
<g style="fill:#000000; fill-opacity:0.0; 
stroke:#000000; stroke-width:21200.000000; stroke-opacity:1; 
stroke-linecap:round; stroke-linejoin:round;">
</g>
<g style="fill:#000000; fill-opacity:0.0; 
stroke:#000000; stroke-width:150000.000000; stroke-opacity:1; 
stroke-linecap:round; stroke-linejoin:round;">
<path d="M260000000 285002200
L260000000 287002200
" />
</g>
<g style="fill:#000000; fill-opacity:0.0; 
stroke:#000000; stroke-width:21200.000000; stroke-opacity:1; 
stroke-linecap:round; stroke-linejoin:round;">
</g>
<g style="fill:#000000; fill-opacity:0.0; 
stroke:#000000; stroke-width:150000.000000; stroke-opacity:1; 
stroke-linecap:round; stroke-linejoin:round;">
<path d="M310000000 285002200
L310000000 287002200
" />
</g>
<g style="fill:#000000; fill-opacity:0.0; 
stroke:#000000; stroke-width:21200.000000; stroke-opacity:1; 
stroke-linecap:round; stroke-linejoin:round;">
</g>
<g style="fill:#000000; fill-opacity:0.0; 
stroke:#000000; stroke-width:150000.000000; stroke-opacity:1; 
stroke-linecap:round; stroke-linejoin:round;">
<path d="M360000000 285002200
L360000000 287002200
" />
</g>
<g style="fill:#000000; fill-opacity:0.0; 
stroke:#000000; stroke-width:21200.000000; stroke-opacity:1; 
stroke-linecap:round; stroke-linejoin:round;">
</g>
<g style="fill:#000000; fill-opacity:0.0; 
stroke:#000000; stroke-width:150000.000000; stroke-opacity:1; 
stroke-linecap:round; stroke-linejoin:round;">
<text x="35000000.000000" y="286652200.000000"
textLength="1388095.000000" font-size="1733333.000000" lengthAdjust="spacingAndGlyphs"
text-anchor="start" opacity="0">1</text>
<g class="stroked-text"><desc>1</desc>
<path d="M36065476 286590295
L35322619 286590295
" />
<path d="M35694047 286590295
L35694047 285290295
L35570238 285476009
L35446428 285599819
L35322619 285661723
" />
</g></g>
<g style="fill:#000000; fill-opacity:0.0; 
stroke:#000000; stroke-width:21200.000000; stroke-opacity:1; 
stroke-linecap:round; stroke-linejoin:round;">
</g>
<g style="fill:#000000; fill-opacity:0.0; 
stroke:#000000; stroke-width:150000.000000; stroke-opacity:1; 
stroke-linecap:round; stroke-linejoin:round;">
<text x="85000000.000000" y="286652200.000000"
textLength="1388095.000000" font-size="1733333.000000" lengthAdjust="spacingAndGlyphs"
text-anchor="start" opacity="0">2</text>
<g class="stroked-text"><desc>2</desc>
<path d="M85322619 285414104
L85384523 285352200
L85508333 285290295
L85817857 285290295
L85941666 285352200
L86003571 285414104
L86065476 285537914
L86065476 285661723
L86003571 285847438
L85260714 286590295
L86065476 286590295
" />
</g></g>
<g style="fill:#000000; fill-opacity:0.0; 
stroke:#000000; stroke-width:21200.000000; stroke-opacity:1; 
stroke-linecap:round; stroke-linejoin:round;">
</g>
<g style="fill:#000000; fill-opacity:0.0; 
stroke:#000000; stroke-width:150000.000000; stroke-opacity:1; 
stroke-linecap:round; stroke-linejoin:round;">
<text x="135000000.000000" y="286652200.000000"
textLength="1388095.000000" font-size="1733333.000000" lengthAdjust="spacingAndGlyphs"
text-anchor="start" opacity="0">3</text>
<g class="stroked-text"><desc>3</desc>
<path d="M135260714 285290295
L136065476 285290295
L135632142 285785533
L135817857 285785533
L135941666 285847438
L136003571 285909342
L136065476 286033152
L136065476 286342676
L136003571 286466485
L135941666 286528390
L135817857 286590295
L135446428 286590295
L135322619 286528390
L135260714 286466485
" />
</g></g>
<g style="fill:#000000; fill-opacity:0.0; 
stroke:#000000; stroke-width:21200.000000; stroke-opacity:1; 
stroke-linecap:round; stroke-linejoin:round;">
</g>
<g style="fill:#000000; fill-opacity:0.0; 
stroke:#000000; stroke-width:150000.000000; stroke-opacity:1; 
stroke-linecap:round; stroke-linejoin:round;">
<text x="185000000.000000" y="286652200.000000"
textLength="1388095.000000" font-size="1733333.000000" lengthAdjust="spacingAndGlyphs"
text-anchor="start" opacity="0">4</text>
<g class="stroked-text"><desc>4</desc>
<path d="M185941666 285723628
L185941666 286590295
" />
<path d="M185632142 285228390
L185322619 286156961
L186127380 286156961
" />
</g></g>
<g style="fill:#000000; fill-opacity:0.0; 
stroke:#000000; stroke-width:21200.000000; stroke-opacity:1; 
stroke-linecap:round; stroke-linejoin:round;">
</g>
<g style="fill:#000000; fill-opacity:0.0; 
stroke:#000000; stroke-width:150000.000000; stroke-opacity:1; 
stroke-linecap:round; stroke-linejoin:round;">
<text x="235000000.000000" y="286652200.000000"
textLength="1388095.000000" font-size="1733333.000000" lengthAdjust="spacingAndGlyphs"
text-anchor="start" opacity="0">5</text>
<g class="stroked-text"><desc>5</desc>
<path d="M236003571 285290295
L235384523 285290295
L235322619 285909342
L235384523 285847438
L235508333 285785533
L235817857 285785533
L235941666 285847438
L236003571 285909342
L236065476 286033152
L236065476 286342676
L236003571 286466485
L235941666 286528390
L235817857 286590295
L235508333 286590295
L235384523 286528390
L235322619 286466485
" />
</g></g>
<g style="fill:#000000; fill-opacity:0.0; 
stroke:#000000; stroke-width:21200.000000; stroke-opacity:1; 
stroke-linecap:round; stroke-linejoin:round;">
</g>
<g style="fill:#000000; fill-opacity:0.0; 
stroke:#000000; stroke-width:150000.000000; stroke-opacity:1; 
stroke-linecap:round; stroke-linejoin:round;">
<text x="285000000.000000" y="286652200.000000"
textLength="1388095.000000" font-size="1733333.000000" lengthAdjust="spacingAndGlyphs"
text-anchor="start" opacity="0">6</text>
<g class="stroked-text"><desc>6</desc>
<path d="M285941666 285290295
L285694047 285290295
L285570238 285352200
L285508333 285414104
L285384523 285599819
L285322619 285847438
L285322619 286342676
L285384523 286466485
L285446428 286528390
L285570238 286590295
L285817857 286590295
L285941666 286528390
L286003571 286466485
L286065476 286342676
L286065476 286033152
L286003571 285909342
L285941666 285847438
L285817857 285785533
L285570238 285785533
L285446428 285847438
L285384523 285909342
L285322619 286033152
" />
</g></g>
<g style="fill:#000000; fill-opacity:0.0; 
stroke:#000000; stroke-width:21200.000000; stroke-opacity:1; 
stroke-linecap:round; stroke-linejoin:round;">
</g>
<g style="fill:#000000; fill-opacity:0.0; 
stroke:#000000; stroke-width:150000.000000; stroke-opacity:1; 
stroke-linecap:round; stroke-linejoin:round;">
<text x="335000000.000000" y="286652200.000000"
textLength="1388095.000000" font-size="1733333.000000" lengthAdjust="spacingAndGlyphs"
text-anchor="start" opacity="0">7</text>
<g class="stroked-text"><desc>7</desc>
<path d="M335260714 285290295
L336127380 285290295
L335570238 286590295
" />
</g></g>
<g style="fill:#000000; fill-opacity:0.0; 
stroke:#000000; stroke-width:21200.000000; stroke-opacity:1; 
stroke-linecap:round; stroke-linejoin:round;">
</g>
<g style="fill:#000000; fill-opacity:0.0; 
stroke:#000000; stroke-width:150000.000000; stroke-opacity:1; 
stroke-linecap:round; stroke-linejoin:round;">
<text x="385000000.000000" y="286652200.000000"
textLength="1388095.000000" font-size="1733333.000000" lengthAdjust="spacingAndGlyphs"
text-anchor="start" opacity="0">8</text>
<g class="stroked-text"><desc>8</desc>
<path d="M385570238 285847438
L385446428 285785533
L385384523 285723628
L385322619 285599819
L385322619 285537914
L385384523 285414104
L385446428 285352200
L385570238 285290295
L385817857 285290295
L385941666 285352200
L386003571 285414104
L386065476 285537914
L386065476 285599819
L386003571 285723628
L385941666 285785533
L385817857 285847438
L385570238 285847438
L385446428 285909342
L385384523 285971247
L385322619 286095057
L385322619 286342676
L385384523 286466485
L385446428 286528390
L385570238 286590295
L385817857 286590295
L385941666 286528390
L386003571 286466485
L386065476 286342676
L386065476 286095057
L386003571 285971247
L385941666 285909342
L385817857 285847438
" />
</g></g>
<g style="fill:#000000; fill-opacity:0.0; 
stroke:#000000; stroke-width:21200.000000; stroke-opacity:1; 
stroke-linecap:round; stroke-linejoin:round;">
</g>
<g style="fill:#000000; fill-opacity:0.0; 
stroke:#000000; stroke-width:150000.000000; stroke-opacity:1; 
stroke-linecap:round; stroke-linejoin:round;">
<path d="M10000000 60000000
L12000000 60000000
" />
</g>
<g style="fill:#000000; fill-opacity:0.0; 
stroke:#000000; stroke-width:21200.000000; stroke-opacity:1; 
stroke-linecap:round; stroke-linejoin:round;">
</g>
<g style="fill:#000000; fill-opacity:0.0; 
stroke:#000000; stroke-width:150000.000000; stroke-opacity:1; 
stroke-linecap:round; stroke-linejoin:round;">
<path d="M10000000 110000000
L12000000 110000000
" />
</g>
<g style="fill:#000000; fill-opacity:0.0; 
stroke:#000000; stroke-width:21200.000000; stroke-opacity:1; 
stroke-linecap:round; stroke-linejoin:round;">
</g>
<g style="fill:#000000; fill-opacity:0.0; 
stroke:#000000; stroke-width:150000.000000; stroke-opacity:1; 
stroke-linecap:round; stroke-linejoin:round;">
<path d="M10000000 160000000
L12000000 160000000
" />
</g>
<g style="fill:#000000; fill-opacity:0.0; 
stroke:#000000; stroke-width:21200.000000; stroke-opacity:1; 
stroke-linecap:round; stroke-linejoin:round;">
</g>
<g style="fill:#000000; fill-opacity:0.0; 
stroke:#000000; stroke-width:150000.000000; stroke-opacity:1; 
stroke-linecap:round; stroke-linejoin:round;">
<path d="M10000000 210000000
L12000000 210000000
" />
</g>
<g style="fill:#000000; fill-opacity:0.0; 
stroke:#000000; stroke-width:21200.000000; stroke-opacity:1; 
stroke-linecap:round; stroke-linejoin:round;">
</g>
<g style="fill:#000000; fill-opacity:0.0; 
stroke:#000000; stroke-width:150000.000000; stroke-opacity:1; 
stroke-linecap:round; stroke-linejoin:round;">
<path d="M10000000 260000000
L12000000 260000000
" />
</g>
<g style="fill:#000000; fill-opacity:0.0; 
stroke:#000000; stroke-width:21200.000000; stroke-opacity:1; 
stroke-linecap:round; stroke-linejoin:round;">
</g>
<g style="fill:#000000; fill-opacity:0.0; 
stroke:#000000; stroke-width:150000.000000; stroke-opacity:1; 
stroke-linecap:round; stroke-linejoin:round;">
<text x="11000000.000000" y="35650000.000000"
textLength="1264286.000000" font-size="1733333.000000" lengthAdjust="spacingAndGlyphs"
text-anchor="middle" opacity="0">A</text>
<g class="stroked-text"><desc>A</desc>
<path d="M10690476 35216666
L11309523 35216666
" />
<path d="M10566666 35588095
L11000000 34288095
L11433333 35588095
" />
</g></g>
<g style="fill:#000000; fill-opacity:0.0; 
stroke:#000000; stroke-width:21200.000000; stroke-opacity:1; 
stroke-linecap:round; stroke-linejoin:round;">
</g>
<g style="fill:#000000; fill-opacity:0.0; 
stroke:#000000; stroke-width:150000.000000; stroke-opacity:1; 
stroke-linecap:round; stroke-linejoin:round;">
<text x="11000000.000000" y="85650000.000000"
textLength="1450000.000000" font-size="1733333.000000" lengthAdjust="spacingAndGlyphs"
text-anchor="middle" opacity="0">B</text>
<g class="stroked-text"><desc>B</desc>
<path d="M11092857 84907142
L11278571 84969047
L11340476 85030952
L11402380 85154761
L11402380 85340476
L11340476 85464285
L11278571 85526190
L11154761 85588095
L10659523 85588095
L10659523 84288095
L11092857 84288095
L11216666 84350000
L11278571 84411904
L11340476 84535714
L11340476 84659523
L11278571 84783333
L11216666 84845238
L11092857 84907142
L10659523 84907142
" />
</g></g>
<g style="fill:#000000; fill-opacity:0.0; 
stroke:#000000; stroke-width:21200.000000; stroke-opacity:1; 
stroke-linecap:round; stroke-linejoin:round;">
</g>
<g style="fill:#000000; fill-opacity:0.0; 
stroke:#000000; stroke-width:150000.000000; stroke-opacity:1; 
stroke-linecap:round; stroke-linejoin:round;">
<text x="11000000.000000" y="135650000.000000"
textLength="1450000.000000" font-size="1733333.000000" lengthAdjust="spacingAndGlyphs"
text-anchor="middle" opacity="0">C</text>
<g class="stroked-text"><desc>C</desc>
<path d="M11402380 135464285
L11340476 135526190
L11154761 135588095
L11030952 135588095
L10845238 135526190
L10721428 135402380
L10659523 135278571
L10597619 135030952
L10597619 134845238
L10659523 134597619
L10721428 134473809
L10845238 134350000
L11030952 134288095
L11154761 134288095
L11340476 134350000
L11402380 134411904
" />
</g></g>
<g style="fill:#000000; fill-opacity:0.0; 
stroke:#000000; stroke-width:21200.000000; stroke-opacity:1; 
stroke-linecap:round; stroke-linejoin:round;">
</g>
<g style="fill:#000000; fill-opacity:0.0; 
stroke:#000000; stroke-width:150000.000000; stroke-opacity:1; 
stroke-linecap:round; stroke-linejoin:round;">
<text x="11000000.000000" y="185650000.000000"
textLength="1450000.000000" font-size="1733333.000000" lengthAdjust="spacingAndGlyphs"
text-anchor="middle" opacity="0">D</text>
<g class="stroked-text"><desc>D</desc>
<path d="M10659523 185588095
L10659523 184288095
L10969047 184288095
L11154761 184350000
L11278571 184473809
L11340476 184597619
L11402380 184845238
L11402380 185030952
L11340476 185278571
L11278571 185402380
L11154761 185526190
L10969047 185588095
L10659523 185588095
" />
</g></g>
<g style="fill:#000000; fill-opacity:0.0; 
stroke:#000000; stroke-width:21200.000000; stroke-opacity:1; 
stroke-linecap:round; stroke-linejoin:round;">
</g>
<g style="fill:#000000; fill-opacity:0.0; 
stroke:#000000; stroke-width:150000.000000; stroke-opacity:1; 
stroke-linecap:round; stroke-linejoin:round;">
<text x="11000000.000000" y="235650000.000000"
textLength="1326190.000000" font-size="1733333.000000" lengthAdjust="spacingAndGlyphs"
text-anchor="middle" opacity="0">E</text>
<g class="stroked-text"><desc>E</desc>
<path d="M10721428 234907142
L11154761 234907142
" />
<path d="M11340476 235588095
L10721428 235588095
L10721428 234288095
L11340476 234288095
" />
</g></g>
<g style="fill:#000000; fill-opacity:0.0; 
stroke:#000000; stroke-width:21200.000000; stroke-opacity:1; 
stroke-linecap:round; stroke-linejoin:round;">
</g>
<g style="fill:#000000; fill-opacity:0.0; 
stroke:#000000; stroke-width:150000.000000; stroke-opacity:1; 
stroke-linecap:round; stroke-linejoin:round;">
<text x="11000000.000000" y="285650000.000000"
textLength="1264286.000000" font-size="1733333.000000" lengthAdjust="spacingAndGlyphs"
text-anchor="middle" opacity="0">F</text>
<g class="stroked-text"><desc>F</desc>
<path d="M11185714 284907142
L10752380 284907142
" />
<path d="M10752380 285588095
L10752380 284288095
L11371428 284288095
" />
</g></g>
<g style="fill:#000000; fill-opacity:0.0; 
stroke:#000000; stroke-width:21200.000000; stroke-opacity:1; 
stroke-linecap:round; stroke-linejoin:round;">
</g>
<g style="fill:#000000; fill-opacity:0.0; 
stroke:#000000; stroke-width:150000.000000; stroke-opacity:1; 
stroke-linecap:round; stroke-linejoin:round;">
<path d="M409989000 60000000
L407989000 60000000
" />
</g>
<g style="fill:#000000; fill-opacity:0.0; 
stroke:#000000; stroke-width:21200.000000; stroke-opacity:1; 
stroke-linecap:round; stroke-linejoin:round;">
</g>
<g style="fill:#000000; fill-opacity:0.0; 
stroke:#000000; stroke-width:150000.000000; stroke-opacity:1; 
stroke-linecap:round; stroke-linejoin:round;">
<path d="M409989000 110000000
L407989000 110000000
" />
</g>
<g style="fill:#000000; fill-opacity:0.0; 
stroke:#000000; stroke-width:21200.000000; stroke-opacity:1; 
stroke-linecap:round; stroke-linejoin:round;">
</g>
<g style="fill:#000000; fill-opacity:0.0; 
stroke:#000000; stroke-width:150000.000000; stroke-opacity:1; 
stroke-linecap:round; stroke-linejoin:round;">
<path d="M409989000 160000000
L407989000 160000000
" />
</g>
<g style="fill:#000000; fill-opacity:0.0; 
stroke:#000000; stroke-width:21200.000000; stroke-opacity:1; 
stroke-linecap:round; stroke-linejoin:round;">
</g>
<g style="fill:#000000; fill-opacity:0.0; 
stroke:#000000; stroke-width:150000.000000; stroke-opacity:1; 
stroke-linecap:round; stroke-linejoin:round;">
<path d="M409989000 210000000
L407989000 210000000
" />
</g>
<g style="fill:#000000; fill-opacity:0.0; 
stroke:#000000; stroke-width:21200.000000; stroke-opacity:1; 
stroke-linecap:round; stroke-linejoin:round;">
</g>
<g style="fill:#000000; fill-opacity:0.0; 
stroke:#000000; stroke-width:150000.000000; stroke-opacity:1; 
stroke-linecap:round; stroke-linejoin:round;">
<path d="M409989000 260000000
L407989000 260000000
" />
</g>
<g style="fill:#000000; fill-opacity:0.0; 
stroke:#000000; stroke-width:21200.000000; stroke-opacity:1; 
stroke-linecap:round; stroke-linejoin:round;">
</g>
<g style="fill:#000000; fill-opacity:0.0; 
stroke:#000000; stroke-width:150000.000000; stroke-opacity:1; 
stroke-linecap:round; stroke-linejoin:round;">
<text x="408989000.000000" y="35650000.000000"
textLength="1264286.000000" font-size="1733333.000000" lengthAdjust="spacingAndGlyphs"
text-anchor="middle" opacity="0">A</text>
<g class="stroked-text"><desc>A</desc>
<path d="M408679476 35216666
L409298523 35216666
" />
<path d="M408555666 35588095
L408989000 34288095
L409422333 35588095
" />
</g></g>
<g style="fill:#000000; fill-opacity:0.0; 
stroke:#000000; stroke-width:21200.000000; stroke-opacity:1; 
stroke-linecap:round; stroke-linejoin:round;">
</g>
<g style="fill:#000000; fill-opacity:0.0; 
stroke:#000000; stroke-width:150000.000000; stroke-opacity:1; 
stroke-linecap:round; stroke-linejoin:round;">
<text x="408989000.000000" y="85650000.000000"
textLength="1450000.000000" font-size="1733333.000000" lengthAdjust="spacingAndGlyphs"
text-anchor="middle" opacity="0">B</text>
<g class="stroked-text"><desc>B</desc>
<path d="M409081857 84907142
L409267571 84969047
L409329476 85030952
L409391380 85154761
L409391380 85340476
L409329476 85464285
L409267571 85526190
L409143761 85588095
L408648523 85588095
L408648523 84288095
L409081857 84288095
L409205666 84350000
L409267571 84411904
L409329476 84535714
L409329476 84659523
L409267571 84783333
L409205666 84845238
L409081857 84907142
L408648523 84907142
" />
</g></g>
<g style="fill:#000000; fill-opacity:0.0; 
stroke:#000000; stroke-width:21200.000000; stroke-opacity:1; 
stroke-linecap:round; stroke-linejoin:round;">
</g>
<g style="fill:#000000; fill-opacity:0.0; 
stroke:#000000; stroke-width:150000.000000; stroke-opacity:1; 
stroke-linecap:round; stroke-linejoin:round;">
<text x="408989000.000000" y="135650000.000000"
textLength="1450000.000000" font-size="1733333.000000" lengthAdjust="spacingAndGlyphs"
text-anchor="middle" opacity="0">C</text>
<g class="stroked-text"><desc>C</desc>
<path d="M409391380 135464285
L409329476 135526190
L409143761 135588095
L409019952 135588095
L408834238 135526190
L408710428 135402380
L408648523 135278571
L408586619 135030952
L408586619 134845238
L408648523 134597619
L408710428 134473809
L408834238 134350000
L409019952 134288095
L409143761 134288095
L409329476 134350000
L409391380 134411904
" />
</g></g>
<g style="fill:#000000; fill-opacity:0.0; 
stroke:#000000; stroke-width:21200.000000; stroke-opacity:1; 
stroke-linecap:round; stroke-linejoin:round;">
</g>
<g style="fill:#000000; fill-opacity:0.0; 
stroke:#000000; stroke-width:150000.000000; stroke-opacity:1; 
stroke-linecap:round; stroke-linejoin:round;">
<text x="408989000.000000" y="185650000.000000"
textLength="1450000.000000" font-size="1733333.000000" lengthAdjust="spacingAndGlyphs"
text-anchor="middle" opacity="0">D</text>
<g class="stroked-text"><desc>D</desc>
<path d="M408648523 185588095
L408648523 184288095
L408958047 184288095
L409143761 184350000
L409267571 184473809
L409329476 184597619
L409391380 184845238
L409391380 185030952
L409329476 185278571
L409267571 185402380
L409143761 185526190
L408958047 185588095
L408648523 185588095
" />
</g></g>
<g style="fill:#000000; fill-opacity:0.0; 
stroke:#000000; stroke-width:21200.000000; stroke-opacity:1; 
stroke-linecap:round; stroke-linejoin:round;">
</g>
<g style="fill:#000000; fill-opacity:0.0; 
stroke:#000000; stroke-width:150000.000000; stroke-opacity:1; 
stroke-linecap:round; stroke-linejoin:round;">
<text x="408989000.000000" y="235650000.000000"
textLength="1326190.000000" font-size="1733333.000000" lengthAdjust="spacingAndGlyphs"
text-anchor="middle" opacity="0">E</text>
<g class="stroked-text"><desc>E</desc>
<path d="M408710428 234907142
L409143761 234907142
" />
<path d="M409329476 235588095
L408710428 235588095
L408710428 234288095
L409329476 234288095
" />
</g></g>
<g style="fill:#000000; fill-opacity:0.0; 
stroke:#000000; stroke-width:21200.000000; stroke-opacity:1; 
stroke-linecap:round; stroke-linejoin:round;">
</g>
<g style="fill:#000000; fill-opacity:0.0; 
stroke:#000000; stroke-width:150000.000000; stroke-opacity:1; 
stroke-linecap:round; stroke-linejoin:round;">
<text x="408989000.000000" y="285650000.000000"
textLength="1264286.000000" font-size="1733333.000000" lengthAdjust="spacingAndGlyphs"
text-anchor="middle" opacity="0">F</text>
<g class="stroked-text"><desc>F</desc>
<path d="M409174714 284907142
L408741380 284907142
" />
<path d="M408741380 285588095
L408741380 284288095
L409360428 284288095
" />
</g></g>
<g style="fill:#000000; fill-opacity:0.0; 
stroke:#000000; stroke-width:21200.000000; stroke-opacity:1; 
stroke-linecap:round; stroke-linejoin:round;">
</g>
<g style="fill:#000000; fill-opacity:0.0; 
stroke:#000000; stroke-width:150000.000000; stroke-opacity:1; 
stroke-linecap:round; stroke-linejoin:round;">
<text x="322989000.000000" y="280852200.000000"
textLength="7007143.000000" font-size="2000000.000000" lengthAdjust="spacingAndGlyphs"
text-anchor="start" opacity="0">Date: </text>
<g class="stroked-text"><desc>Date: </desc>
<path d="M323421142 280780771
L323421142 279280771
L323778285 279280771
L323992571 279352200
L324135428 279495057
L324206857 279637914
L324278285 279923628
L324278285 280137914
L324206857 280423628
L324135428 280566485
L323992571 280709342
L323778285 280780771
L323421142 280780771
" />
<path d="M325564000 280780771
L325564000 279995057
L325492571 279852200
L325349714 279780771
L325064000 279780771
L324921142 279852200
" />
<path d="M325564000 280709342
L325421142 280780771
L325064000 280780771
L324921142 280709342
L324849714 280566485
L324849714 280423628
L324921142 280280771
L325064000 280209342
L325421142 280209342
L325564000 280137914
" />
<path d="M326064000 279780771
L326635428 279780771
" />
<path d="M326278285 279280771
L326278285 280566485
L326349714 280709342
L326492571 280780771
L326635428 280780771
" />
<path d="M327706857 280709342
L327564000 280780771
L327278285 280780771
L327135428 280709342
L327064000 280566485
L327064000 279995057
L327135428 279852200
L327278285 279780771
L327564000 279780771
L327706857 279852200
L327778285 279995057
L327778285 280137914
L327064000 280280771
" />
<path d="M328421142 280637914
L328492571 280709342
L328421142 280780771
L328349714 280709342
L328421142 280637914
L328421142 280780771
" />
<path d="M328421142 279852200
L328492571 279923628
L328421142 279995057
L328349714 279923628
L328421142 279852200
L328421142 279995057
" />
</g></g>
<g style="fill:#000000; fill-opacity:0.0; 
stroke:#000000; stroke-width:21200.000000; stroke-opacity:1; 
stroke-linecap:round; stroke-linejoin:round;">
</g>
<g style="fill:#000000; fill-opacity:0.0; 
stroke:#000000; stroke-width:150000.000000; stroke-opacity:1; 
stroke-linecap:round; stroke-linejoin:round;">
<path d="M299989000 281502200
L407989000 281502200
" />
</g>
<g style="fill:#000000; fill-opacity:0.0; 
stroke:#000000; stroke-width:21200.000000; stroke-opacity:1; 
stroke-linecap:round; stroke-linejoin:round;">
</g>
<g style="fill:#000000; fill-opacity:0.0; 
stroke:#000000; stroke-width:150000.000000; stroke-opacity:1; 
stroke-linecap:round; stroke-linejoin:round;">
<text x="300989000.000000" y="283652200.000000"
textLength="33364286.000000" font-size="2000000.000000" lengthAdjust="spacingAndGlyphs"
text-anchor="start" opacity="0">KiCad E.D.A.  pcbnew (6.0.0)</text>
<g class="stroked-text"><desc>KiCad E.D.A.  pcbnew (6.0.0)</desc>
<path d="M301421142 283580771
L301421142 282080771
" />
<path d="M302278285 283580771
L301635428 282723628
" />
<path d="M302278285 282080771
L301421142 282937914
" />
<path d="M302921142 283580771
L302921142 282580771
" />
<path d="M302921142 282080771
L302849714 282152200
L302921142 282223628
L302992571 282152200
L302921142 282080771
L302921142 282223628
" />
<path d="M304492571 283437914
L304421142 283509342
L304206857 283580771
L304064000 283580771
L303849714 283509342
L303706857 283366485
L303635428 283223628
L303564000 282937914
L303564000 282723628
L303635428 282437914
L303706857 282295057
L303849714 282152200
L304064000 282080771
L304206857 282080771
L304421142 282152200
L304492571 282223628
" />
<path d="M305778285 283580771
L305778285 282795057
L305706857 282652200
L305564000 282580771
L305278285 282580771
L305135428 282652200
" />
<path d="M305778285 283509342
L305635428 283580771
L305278285 283580771
L305135428 283509342
L305064000 283366485
L305064000 283223628
L305135428 283080771
L305278285 283009342
L305635428 283009342
L305778285 282937914
" />
<path d="M307135428 283580771
L307135428 282080771
" />
<path d="M307135428 283509342
L306992571 283580771
L306706857 283580771
L306564000 283509342
L306492571 283437914
L306421142 283295057
L306421142 282866485
L306492571 282723628
L306564000 282652200
L306706857 282580771
L306992571 282580771
L307135428 282652200
" />
<path d="M308992571 282795057
L309492571 282795057
" />
<path d="M309706857 283580771
L308992571 283580771
L308992571 282080771
L309706857 282080771
" />
<path d="M310349714 283437914
L310421142 283509342
L310349714 283580771
L310278285 283509342
L310349714 283437914
L310349714 283580771
" />
<path d="M311064000 283580771
L311064000 282080771
L311421142 282080771
L311635428 282152200
L311778285 282295057
L311849714 282437914
L311921142 282723628
L311921142 282937914
L311849714 283223628
L311778285 283366485
L311635428 283509342
L311421142 283580771
L311064000 283580771
" />
<path d="M312564000 283437914
L312635428 283509342
L312564000 283580771
L312492571 283509342
L312564000 283437914
L312564000 283580771
" />
<path d="M313206857 283152200
L313921142 283152200
" />
<path d="M313064000 283580771
L313564000 282080771
L314064000 283580771
" />
<path d="M314564000 283437914
L314635428 283509342
L314564000 283580771
L314492571 283509342
L314564000 283437914
L314564000 283580771
" />
<path d="M317564000 282580771
L317564000 284080771
" />
<path d="M317564000 282652200
L317706857 282580771
L317992571 282580771
L318135428 282652200
L318206857 282723628
L318278285 282866485
L318278285 283295057
L318206857 283437914
L318135428 283509342
L317992571 283580771
L317706857 283580771
L317564000 283509342
" />
<path d="M319564000 283509342
L319421142 283580771
L319135428 283580771
L318992571 283509342
L318921142 283437914
L318849714 283295057
L318849714 282866485
L318921142 282723628
L318992571 282652200
L319135428 282580771
L319421142 282580771
L319564000 282652200
" />
<path d="M320206857 283580771
L320206857 282080771
" />
<path d="M320206857 282652200
L320349714 282580771
L320635428 282580771
L320778285 282652200
L320849714 282723628
L320921142 282866485
L320921142 283295057
L320849714 283437914
L320778285 283509342
L320635428 283580771
L320349714 283580771
L320206857 283509342
" />
<path d="M321564000 282580771
L321564000 283580771
" />
<path d="M321564000 282723628
L321635428 282652200
L321778285 282580771
L321992571 282580771
L322135428 282652200
L322206857 282795057
L322206857 283580771
" />
<path d="M323492571 283509342
L323349714 283580771
L323064000 283580771
L322921142 283509342
L322849714 283366485
L322849714 282795057
L322921142 282652200
L323064000 282580771
L323349714 282580771
L323492571 282652200
L323564000 282795057
L323564000 282937914
L322849714 283080771
" />
<path d="M324064000 282580771
L324349714 283580771
L324635428 282866485
L324921142 283580771
L325206857 282580771
" />
<path d="M327349714 284152200
L327278285 284080771
L327135428 283866485
L327064000 283723628
L326992571 283509342
L326921142 283152200
L326921142 282866485
L326992571 282509342
L327064000 282295057
L327135428 282152200
L327278285 281937914
L327349714 281866485
" />
<path d="M328564000 282080771
L328278285 282080771
L328135428 282152200
L328064000 282223628
L327921142 282437914
L327849714 282723628
L327849714 283295057
L327921142 283437914
L327992571 283509342
L328135428 283580771
L328421142 283580771
L328564000 283509342
L328635428 283437914
L328706857 283295057
L328706857 282937914
L328635428 282795057
L328564000 282723628
L328421142 282652200
L328135428 282652200
L327992571 282723628
L327921142 282795057
L327849714 282937914
" />
<path d="M329349714 283437914
L329421142 283509342
L329349714 283580771
L329278285 283509342
L329349714 283437914
L329349714 283580771
" />
<path d="M330349714 282080771
L330492571 282080771
L330635428 282152200
L330706857 282223628
L330778285 282366485
L330849714 282652200
L330849714 283009342
L330778285 283295057
L330706857 283437914
L330635428 283509342
L330492571 283580771
L330349714 283580771
L330206857 283509342
L330135428 283437914
L330064000 283295057
L329992571 283009342
L329992571 282652200
L330064000 282366485
L330135428 282223628
L330206857 282152200
L330349714 282080771
" />
<path d="M331492571 283437914
L331564000 283509342
L331492571 283580771
L331421142 283509342
L331492571 283437914
L331492571 283580771
" />
<path d="M332492571 282080771
L332635428 282080771
L332778285 282152200
L332849714 282223628
L332921142 282366485
L332992571 282652200
L332992571 283009342
L332921142 283295057
L332849714 283437914
L332778285 283509342
L332635428 283580771
L332492571 283580771
L332349714 283509342
L332278285 283437914
L332206857 283295057
L332135428 283009342
L332135428 282652200
L332206857 282366485
L332278285 282223628
L332349714 282152200
L332492571 282080771
" />
<path d="M333492571 284152200
L333564000 284080771
L333706857 283866485
L333778285 283723628
L333849714 283509342
L333921142 283152200
L333921142 282866485
L333849714 282509342
L333778285 282295057
L333706857 282152200
L333564000 281937914
L333492571 281866485
" />
</g></g>
<g style="fill:#000000; fill-opacity:0.0; 
stroke:#000000; stroke-width:21200.000000; stroke-opacity:1; 
stroke-linecap:round; stroke-linejoin:round;">
</g>
<g style="fill:#000000; fill-opacity:0.0; 
stroke:#000000; stroke-width:150000.000000; stroke-opacity:1; 
stroke-linecap:round; stroke-linejoin:round;">
<path d="M299989000 278502200
L407989000 278502200
" />
</g>
<g style="fill:#000000; fill-opacity:0.0; 
stroke:#000000; stroke-width:21200.000000; stroke-opacity:1; 
stroke-linecap:round; stroke-linejoin:round;">
</g>
<g style="fill:#000000; fill-opacity:0.0; 
stroke:#000000; stroke-width:300000.000000; stroke-opacity:1; 
stroke-linecap:round; stroke-linejoin:round;">
<text x="385989000.000000" y="280852200.000000"
textLength="5935714.000000" font-size="2000000.000000" lengthAdjust="spacingAndGlyphs"
text-anchor="start" opacity="0">Rev: </text>
<g class="stroked-text"><desc>Rev: </desc>
<path d="M387398285 280780771
L386898285 280066485
" />
<path d="M386541142 280780771
L386541142 279280771
L387112571 279280771
L387255428 279352200
L387326857 279423628
L387398285 279566485
L387398285 279780771
L387326857 279923628
L387255428 279995057
L387112571 280066485
L386541142 280066485
" />
<path d="M388612571 280709342
L388469714 280780771
L388184000 280780771
L388041142 280709342
L387969714 280566485
L387969714 279995057
L388041142 279852200
L388184000 279780771
L388469714 279780771
L388612571 279852200
L388684000 279995057
L388684000 280137914
L387969714 280280771
" />
<path d="M389184000 279780771
L389541142 280780771
L389898285 279780771
" />
<path d="M390469714 280637914
L390541142 280709342
L390469714 280780771
L390398285 280709342
L390469714 280637914
L390469714 280780771
" />
<path d="M390469714 279852200
L390541142 279923628
L390469714 279995057
L390398285 279923628
L390469714 279852200
L390469714 279995057
" />
</g></g>
<g style="fill:#000000; fill-opacity:0.0; 
stroke:#000000; stroke-width:21200.000000; stroke-opacity:1; 
stroke-linecap:round; stroke-linejoin:round;">
</g>
<g style="fill:#000000; fill-opacity:0.0; 
stroke:#000000; stroke-width:150000.000000; stroke-opacity:1; 
stroke-linecap:round; stroke-linejoin:round;">
<text x="300989000.000000" y="280852200.000000"
textLength="9604286.000000" font-size="2000000.000000" lengthAdjust="spacingAndGlyphs"
text-anchor="start" opacity="0">Size: A3</text>
<g class="stroked-text"><desc>Size: A3</desc>
<path d="M301349714 280709342
L301564000 280780771
L301921142 280780771
L302064000 280709342
L302135428 280637914
L302206857 280495057
L302206857 280352200
L302135428 280209342
L302064000 280137914
L301921142 280066485
L301635428 279995057
L301492571 279923628
L301421142 279852200
L301349714 279709342
L301349714 279566485
L301421142 279423628
L301492571 279352200
L301635428 279280771
L301992571 279280771
L302206857 279352200
" />
<path d="M302849714 280780771
L302849714 279780771
" />
<path d="M302849714 279280771
L302778285 279352200
L302849714 279423628
L302921142 279352200
L302849714 279280771
L302849714 279423628
" />
<path d="M303421142 279780771
L304206857 279780771
L303421142 280780771
L304206857 280780771
" />
<path d="M305349714 280709342
L305206857 280780771
L304921142 280780771
L304778285 280709342
L304706857 280566485
L304706857 279995057
L304778285 279852200
L304921142 279780771
L305206857 279780771
L305349714 279852200
L305421142 279995057
L305421142 280137914
L304706857 280280771
" />
<path d="M306064000 280637914
L306135428 280709342
L306064000 280780771
L305992571 280709342
L306064000 280637914
L306064000 280780771
" />
<path d="M306064000 279852200
L306135428 279923628
L306064000 279995057
L305992571 279923628
L306064000 279852200
L306064000 279995057
" />
<path d="M307849714 280352200
L308564000 280352200
" />
<path d="M307706857 280780771
L308206857 279280771
L308706857 280780771
" />
<path d="M309064000 279280771
L309992571 279280771
L309492571 279852200
L309706857 279852200
L309849714 279923628
L309921142 279995057
L309992571 280137914
L309992571 280495057
L309921142 280637914
L309849714 280709342
L309706857 280780771
L309278285 280780771
L309135428 280709342
L309064000 280637914
" />
</g></g>
<g style="fill:#000000; fill-opacity:0.0; 
stroke:#000000; stroke-width:21200.000000; stroke-opacity:1; 
stroke-linecap:round; stroke-linejoin:round;">
</g>
<g style="fill:#000000; fill-opacity:0.0; 
stroke:#000000; stroke-width:150000.000000; stroke-opacity:1; 
stroke-linecap:round; stroke-linejoin:round;">
<text x="385989000.000000" y="283652200.000000"
textLength="8507143.000000" font-size="2000000.000000" lengthAdjust="spacingAndGlyphs"
text-anchor="start" opacity="0">Id: 1/1</text>
<g class="stroked-text"><desc>Id: 1/1</desc>
<path d="M386421142 283580771
L386421142 282080771
" />
<path d="M387778285 283580771
L387778285 282080771
" />
<path d="M387778285 283509342
L387635428 283580771
L387349714 283580771
L387206857 283509342
L387135428 283437914
L387064000 283295057
L387064000 282866485
L387135428 282723628
L387206857 282652200
L387349714 282580771
L387635428 282580771
L387778285 282652200
" />
<path d="M388492571 283437914
L388564000 283509342
L388492571 283580771
L388421142 283509342
L388492571 283437914
L388492571 283580771
" />
<path d="M388492571 282652200
L388564000 282723628
L388492571 282795057
L388421142 282723628
L388492571 282652200
L388492571 282795057
" />
<path d="M391135428 283580771
L390278285 283580771
" />
<path d="M390706857 283580771
L390706857 282080771
L390564000 282295057
L390421142 282437914
L390278285 282509342
" />
<path d="M392849714 282009342
L391564000 283937914
" />
<path d="M394135428 283580771
L393278285 283580771
" />
<path d="M393706857 283580771
L393706857 282080771
L393564000 282295057
L393421142 282437914
L393278285 282509342
" />
</g></g>
<g style="fill:#000000; fill-opacity:0.0; 
stroke:#000000; stroke-width:21200.000000; stroke-opacity:1; 
stroke-linecap:round; stroke-linejoin:round;">
</g>
<g style="fill:#000000; fill-opacity:0.0; 
stroke:#000000; stroke-width:150000.000000; stroke-opacity:1; 
stroke-linecap:round; stroke-linejoin:round;">
<path d="M299989000 274502200
L407989000 274502200
" />
</g>
<g style="fill:#000000; fill-opacity:0.0; 
stroke:#000000; stroke-width:21200.000000; stroke-opacity:1; 
stroke-linecap:round; stroke-linejoin:round;">
</g>
<g style="fill:#000000; fill-opacity:0.0; 
stroke:#000000; stroke-width:400000.000000; stroke-opacity:1; 
stroke-linecap:round; stroke-linejoin:round;">
<text x="300989000.000000" y="277302200.000000"
textLength="9409643.000000" font-size="2666666.000000" lengthAdjust="spacingAndGlyphs"
text-anchor="start" opacity="0">Title: </text>
<g class="stroked-text"><desc>Title: </desc>
<path d="M301701380 275206961
L302844238 275206961
" />
<path d="M302022809 277206961
L302272809 275206961
" />
<path d="M303260904 277206961
L303427571 275873628
" />
<path d="M303510904 275206961
L303403761 275302200
L303487095 275397438
L303594238 275302200
L303510904 275206961
L303487095 275397438
" />
<path d="M304094238 275873628
L304856142 275873628
" />
<path d="M304463285 275206961
L304249000 276921247
L304320428 277111723
L304499000 277206961
L304689476 277206961
" />
<path d="M305641857 277206961
L305463285 277111723
L305391857 276921247
L305606142 275206961
" />
<path d="M307177571 277111723
L306975190 277206961
L306594238 277206961
L306415666 277111723
L306344238 276921247
L306439476 276159342
L306558523 275968866
L306760904 275873628
L307141857 275873628
L307320428 275968866
L307391857 276159342
L307368047 276349819
L306391857 276540295
" />
<path d="M308141857 277016485
L308225190 277111723
L308118047 277206961
L308034714 277111723
L308141857 277016485
L308118047 277206961
" />
<path d="M308272809 275968866
L308356142 276064104
L308249000 276159342
L308165666 276064104
L308272809 275968866
L308249000 276159342
" />
</g></g>
<g style="fill:#000000; fill-opacity:0.0; 
stroke:#000000; stroke-width:21200.000000; stroke-opacity:1; 
stroke-linecap:round; stroke-linejoin:round;">
</g>
<g style="fill:#000000; fill-opacity:0.0; 
stroke:#000000; stroke-width:150000.000000; stroke-opacity:1; 
stroke-linecap:round; stroke-linejoin:round;">
<text x="300989000.000000" y="273452200.000000"
textLength="56877143.000000" font-size="2000000.000000" lengthAdjust="spacingAndGlyphs"
text-anchor="start" opacity="0">File: custom_keyboard plate v3 bottom.kicad_pcb</text>
<g class="stroked-text"><desc>File: custom_keyboard plate v3 bottom.kicad_pcb</desc>
<path d="M301921142 272595057
L301421142 272595057
" />
<path d="M301421142 273380771
L301421142 271880771
L302135428 271880771
" />
<path d="M302706857 273380771
L302706857 272380771
" />
<path d="M302706857 271880771
L302635428 271952200
L302706857 272023628
L302778285 271952200
L302706857 271880771
L302706857 272023628
" />
<path d="M303635428 273380771
L303492571 273309342
L303421142 273166485
L303421142 271880771
" />
<path d="M304778285 273309342
L304635428 273380771
L304349714 273380771
L304206857 273309342
L304135428 273166485
L304135428 272595057
L304206857 272452200
L304349714 272380771
L304635428 272380771
L304778285 272452200
L304849714 272595057
L304849714 272737914
L304135428 272880771
" />
<path d="M305492571 273237914
L305564000 273309342
L305492571 273380771
L305421142 273309342
L305492571 273237914
L305492571 273380771
" />
<path d="M305492571 272452200
L305564000 272523628
L305492571 272595057
L305421142 272523628
L305492571 272452200
L305492571 272595057
" />
<path d="M307992571 273309342
L307849714 273380771
L307564000 273380771
L307421142 273309342
L307349714 273237914
L307278285 273095057
L307278285 272666485
L307349714 272523628
L307421142 272452200
L307564000 272380771
L307849714 272380771
L307992571 272452200
" />
<path d="M309278285 272380771
L309278285 273380771
" />
<path d="M308635428 272380771
L308635428 273166485
L308706857 273309342
L308849714 273380771
L309064000 273380771
L309206857 273309342
L309278285 273237914
" />
<path d="M309921142 273309342
L310064000 273380771
L310349714 273380771
L310492571 273309342
L310564000 273166485
L310564000 273095057
L310492571 272952200
L310349714 272880771
L310135428 272880771
L309992571 272809342
L309921142 272666485
L309921142 272595057
L309992571 272452200
L310135428 272380771
L310349714 272380771
L310492571 272452200
" />
<path d="M310992571 272380771
L311564000 272380771
" />
<path d="M311206857 271880771
L311206857 273166485
L311278285 273309342
L311421142 273380771
L311564000 273380771
" />
<path d="M312278285 273380771
L312135428 273309342
L312064000 273237914
L311992571 273095057
L311992571 272666485
L312064000 272523628
L312135428 272452200
L312278285 272380771
L312492571 272380771
L312635428 272452200
L312706857 272523628
L312778285 272666485
L312778285 273095057
L312706857 273237914
L312635428 273309342
L312492571 273380771
L312278285 273380771
" />
<path d="M313421142 273380771
L313421142 272380771
" />
<path d="M313421142 272523628
L313492571 272452200
L313635428 272380771
L313849714 272380771
L313992571 272452200
L314064000 272595057
L314064000 273380771
" />
<path d="M314064000 272595057
L314135428 272452200
L314278285 272380771
L314492571 272380771
L314635428 272452200
L314706857 272595057
L314706857 273380771
" />
<path d="M315064000 273523628
L316206857 273523628
" />
<path d="M316564000 273380771
L316564000 271880771
" />
<path d="M316706857 272809342
L317135428 273380771
" />
<path d="M317135428 272380771
L316564000 272952200
" />
<path d="M318349714 273309342
L318206857 273380771
L317921142 273380771
L317778285 273309342
L317706857 273166485
L317706857 272595057
L317778285 272452200
L317921142 272380771
L318206857 272380771
L318349714 272452200
L318421142 272595057
L318421142 272737914
L317706857 272880771
" />
<path d="M318921142 272380771
L319278285 273380771
" />
<path d="M319635428 272380771
L319278285 273380771
L319135428 273737914
L319064000 273809342
L318921142 273880771
" />
<path d="M320206857 273380771
L320206857 271880771
" />
<path d="M320206857 272452200
L320349714 272380771
L320635428 272380771
L320778285 272452200
L320849714 272523628
L320921142 272666485
L320921142 273095057
L320849714 273237914
L320778285 273309342
L320635428 273380771
L320349714 273380771
L320206857 273309342
" />
<path d="M321778285 273380771
L321635428 273309342
L321564000 273237914
L321492571 273095057
L321492571 272666485
L321564000 272523628
L321635428 272452200
L321778285 272380771
L321992571 272380771
L322135428 272452200
L322206857 272523628
L322278285 272666485
L322278285 273095057
L322206857 273237914
L322135428 273309342
L321992571 273380771
L321778285 273380771
" />
<path d="M323564000 273380771
L323564000 272595057
L323492571 272452200
L323349714 272380771
L323064000 272380771
L322921142 272452200
" />
<path d="M323564000 273309342
L323421142 273380771
L323064000 273380771
L322921142 273309342
L322849714 273166485
L322849714 273023628
L322921142 272880771
L323064000 272809342
L323421142 272809342
L323564000 272737914
" />
<path d="M324278285 273380771
L324278285 272380771
" />
<path d="M324278285 272666485
L324349714 272523628
L324421142 272452200
L324564000 272380771
L324706857 272380771
" />
<path d="M325849714 273380771
L325849714 271880771
" />
<path d="M325849714 273309342
L325706857 273380771
L325421142 273380771
L325278285 273309342
L325206857 273237914
L325135428 273095057
L325135428 272666485
L325206857 272523628
L325278285 272452200
L325421142 272380771
L325706857 272380771
L325849714 272452200
" />
<path d="M327706857 272380771
L327706857 273880771
" />
<path d="M327706857 272452200
L327849714 272380771
L328135428 272380771
L328278285 272452200
L328349714 272523628
L328421142 272666485
L328421142 273095057
L328349714 273237914
L328278285 273309342
L328135428 273380771
L327849714 273380771
L327706857 273309342
" />
<path d="M329278285 273380771
L329135428 273309342
L329064000 273166485
L329064000 271880771
" />
<path d="M330492571 273380771
L330492571 272595057
L330421142 272452200
L330278285 272380771
L329992571 272380771
L329849714 272452200
" />
<path d="M330492571 273309342
L330349714 273380771
L329992571 273380771
L329849714 273309342
L329778285 273166485
L329778285 273023628
L329849714 272880771
L329992571 272809342
L330349714 272809342
L330492571 272737914
" />
<path d="M330992571 272380771
L331564000 272380771
" />
<path d="M331206857 271880771
L331206857 273166485
L331278285 273309342
L331421142 273380771
L331564000 273380771
" />
<path d="M332635428 273309342
L332492571 273380771
L332206857 273380771
L332064000 273309342
L331992571 273166485
L331992571 272595057
L332064000 272452200
L332206857 272380771
L332492571 272380771
L332635428 272452200
L332706857 272595057
L332706857 272737914
L331992571 272880771
" />
<path d="M334349714 272380771
L334706857 273380771
L335064000 272380771
" />
<path d="M335492571 271880771
L336421142 271880771
L335921142 272452200
L336135428 272452200
L336278285 272523628
L336349714 272595057
L336421142 272737914
L336421142 273095057
L336349714 273237914
L336278285 273309342
L336135428 273380771
L335706857 273380771
L335564000 273309342
L335492571 273237914
" />
<path d="M338206857 273380771
L338206857 271880771
" />
<path d="M338206857 272452200
L338349714 272380771
L338635428 272380771
L338778285 272452200
L338849714 272523628
L338921142 272666485
L338921142 273095057
L338849714 273237914
L338778285 273309342
L338635428 273380771
L338349714 273380771
L338206857 273309342
" />
<path d="M339778285 273380771
L339635428 273309342
L339564000 273237914
L339492571 273095057
L339492571 272666485
L339564000 272523628
L339635428 272452200
L339778285 272380771
L339992571 272380771
L340135428 272452200
L340206857 272523628
L340278285 272666485
L340278285 273095057
L340206857 273237914
L340135428 273309342
L339992571 273380771
L339778285 273380771
" />
<path d="M340706857 272380771
L341278285 272380771
" />
<path d="M340921142 271880771
L340921142 273166485
L340992571 273309342
L341135428 273380771
L341278285 273380771
" />
<path d="M341564000 272380771
L342135428 272380771
" />
<path d="M341778285 271880771
L341778285 273166485
L341849714 273309342
L341992571 273380771
L342135428 273380771
" />
<path d="M342849714 273380771
L342706857 273309342
L342635428 273237914
L342564000 273095057
L342564000 272666485
L342635428 272523628
L342706857 272452200
L342849714 272380771
L343064000 272380771
L343206857 272452200
L343278285 272523628
L343349714 272666485
L343349714 273095057
L343278285 273237914
L343206857 273309342
L343064000 273380771
L342849714 273380771
" />
<path d="M343992571 273380771
L343992571 272380771
" />
<path d="M343992571 272523628
L344064000 272452200
L344206857 272380771
L344421142 272380771
L344564000 272452200
L344635428 272595057
L344635428 273380771
" />
<path d="M344635428 272595057
L344706857 272452200
L344849714 272380771
L345064000 272380771
L345206857 272452200
L345278285 272595057
L345278285 273380771
" />
<path d="M345992571 273237914
L346064000 273309342
L345992571 273380771
L345921142 273309342
L345992571 273237914
L345992571 273380771
" />
<path d="M346706857 273380771
L346706857 271880771
" />
<path d="M346849714 272809342
L347278285 273380771
" />
<path d="M347278285 272380771
L346706857 272952200
" />
<path d="M347921142 273380771
L347921142 272380771
" />
<path d="M347921142 271880771
L347849714 271952200
L347921142 272023628
L347992571 271952200
L347921142 271880771
L347921142 272023628
" />
<path d="M349278285 273309342
L349135428 273380771
L348849714 273380771
L348706857 273309342
L348635428 273237914
L348564000 273095057
L348564000 272666485
L348635428 272523628
L348706857 272452200
L348849714 272380771
L349135428 272380771
L349278285 272452200
" />
<path d="M350564000 273380771
L350564000 272595057
L350492571 272452200
L350349714 272380771
L350064000 272380771
L349921142 272452200
" />
<path d="M350564000 273309342
L350421142 273380771
L350064000 273380771
L349921142 273309342
L349849714 273166485
L349849714 273023628
L349921142 272880771
L350064000 272809342
L350421142 272809342
L350564000 272737914
" />
<path d="M351921142 273380771
L351921142 271880771
" />
<path d="M351921142 273309342
L351778285 273380771
L351492571 273380771
L351349714 273309342
L351278285 273237914
L351206857 273095057
L351206857 272666485
L351278285 272523628
L351349714 272452200
L351492571 272380771
L351778285 272380771
L351921142 272452200
" />
<path d="M352278285 273523628
L353421142 273523628
" />
<path d="M353778285 272380771
L353778285 273880771
" />
<path d="M353778285 272452200
L353921142 272380771
L354206857 272380771
L354349714 272452200
L354421142 272523628
L354492571 272666485
L354492571 273095057
L354421142 273237914
L354349714 273309342
L354206857 273380771
L353921142 273380771
L353778285 273309342
" />
<path d="M355778285 273309342
L355635428 273380771
L355349714 273380771
L355206857 273309342
L355135428 273237914
L355064000 273095057
L355064000 272666485
L355135428 272523628
L355206857 272452200
L355349714 272380771
L355635428 272380771
L355778285 272452200
" />
<path d="M356421142 273380771
L356421142 271880771
" />
<path d="M356421142 272452200
L356564000 272380771
L356849714 272380771
L356992571 272452200
L357064000 272523628
L357135428 272666485
L357135428 273095057
L357064000 273237914
L356992571 273309342
L356849714 273380771
L356564000 273380771
L356421142 273309342
" />
</g></g>
<g style="fill:#000000; fill-opacity:0.0; 
stroke:#000000; stroke-width:21200.000000; stroke-opacity:1; 
stroke-linecap:round; stroke-linejoin:round;">
</g>
<g style="fill:#000000; fill-opacity:0.0; 
stroke:#000000; stroke-width:150000.000000; stroke-opacity:1; 
stroke-linecap:round; stroke-linejoin:round;">
<path d="M299989000 268502200
L407989000 268502200
" />
</g>
<g style="fill:#000000; fill-opacity:0.0; 
stroke:#000000; stroke-width:21200.000000; stroke-opacity:1; 
stroke-linecap:round; stroke-linejoin:round;">
</g>
<g style="fill:#000000; fill-opacity:0.0; 
stroke:#000000; stroke-width:150000.000000; stroke-opacity:1; 
stroke-linecap:round; stroke-linejoin:round;">
<text x="300989000.000000" y="270752200.000000"
textLength="8221429.000000" font-size="2000000.000000" lengthAdjust="spacingAndGlyphs"
text-anchor="start" opacity="0">Sheet: </text>
<g class="stroked-text"><desc>Sheet: </desc>
<path d="M301349714 270609342
L301564000 270680771
L301921142 270680771
L302064000 270609342
L302135428 270537914
L302206857 270395057
L302206857 270252200
L302135428 270109342
L302064000 270037914
L301921142 269966485
L301635428 269895057
L301492571 269823628
L301421142 269752200
L301349714 269609342
L301349714 269466485
L301421142 269323628
L301492571 269252200
L301635428 269180771
L301992571 269180771
L302206857 269252200
" />
<path d="M302849714 270680771
L302849714 269180771
" />
<path d="M303492571 270680771
L303492571 269895057
L303421142 269752200
L303278285 269680771
L303064000 269680771
L302921142 269752200
L302849714 269823628
" />
<path d="M304778285 270609342
L304635428 270680771
L304349714 270680771
L304206857 270609342
L304135428 270466485
L304135428 269895057
L304206857 269752200
L304349714 269680771
L304635428 269680771
L304778285 269752200
L304849714 269895057
L304849714 270037914
L304135428 270180771
" />
<path d="M306064000 270609342
L305921142 270680771
L305635428 270680771
L305492571 270609342
L305421142 270466485
L305421142 269895057
L305492571 269752200
L305635428 269680771
L305921142 269680771
L306064000 269752200
L306135428 269895057
L306135428 270037914
L305421142 270180771
" />
<path d="M306564000 269680771
L307135428 269680771
" />
<path d="M306778285 269180771
L306778285 270466485
L306849714 270609342
L306992571 270680771
L307135428 270680771
" />
<path d="M307635428 270537914
L307706857 270609342
L307635428 270680771
L307564000 270609342
L307635428 270537914
L307635428 270680771
" />
<path d="M307635428 269752200
L307706857 269823628
L307635428 269895057
L307564000 269823628
L307635428 269752200
L307635428 269895057
" />
</g></g>
<g style="fill:#000000; fill-opacity:0.0; 
stroke:#000000; stroke-width:21200.000000; stroke-opacity:1; 
stroke-linecap:round; stroke-linejoin:round;">
</g>
<g style="fill:#000000; fill-opacity:0.0; 
stroke:#000000; stroke-width:300000.000000; stroke-opacity:1; 
stroke-linecap:round; stroke-linejoin:round;">
<text x="300989000.000000" y="267752200.000000"
textLength="150000.000000" font-size="2000000.000000" lengthAdjust="spacingAndGlyphs"
text-anchor="start" opacity="0"></text>
<g class="stroked-text"><desc></desc>
</g></g>
<g style="fill:#000000; fill-opacity:0.0; 
stroke:#000000; stroke-width:21200.000000; stroke-opacity:1; 
stroke-linecap:round; stroke-linejoin:round;">
</g>
<g style="fill:#000000; fill-opacity:0.0; 
stroke:#000000; stroke-width:150000.000000; stroke-opacity:1; 
stroke-linecap:round; stroke-linejoin:round;">
<text x="300989000.000000" y="264752200.000000"
textLength="300000.000000" font-size="2000000.000000" lengthAdjust="spacingAndGlyphs"
text-anchor="start" opacity="0"></text>
<g class="stroked-text"><desc></desc>
</g></g>
<g style="fill:#000000; fill-opacity:0.0; 
stroke:#000000; stroke-width:21200.000000; stroke-opacity:1; 
stroke-linecap:round; stroke-linejoin:round;">
</g>
<g style="fill:#000000; fill-opacity:0.0; 
stroke:#000000; stroke-width:150000.000000; stroke-opacity:1; 
stroke-linecap:round; stroke-linejoin:round;">
<text x="300989000.000000" y="261752200.000000"
textLength="150000.000000" font-size="2000000.000000" lengthAdjust="spacingAndGlyphs"
text-anchor="start" opacity="0"></text>
<g class="stroked-text"><desc></desc>
</g></g>
<g style="fill:#000000; fill-opacity:0.0; 
stroke:#000000; stroke-width:21200.000000; stroke-opacity:1; 
stroke-linecap:round; stroke-linejoin:round;">
</g>
<g style="fill:#000000; fill-opacity:0.0; 
stroke:#000000; stroke-width:150000.000000; stroke-opacity:1; 
stroke-linecap:round; stroke-linejoin:round;">
<text x="300989000.000000" y="258752200.000000"
textLength="150000.000000" font-size="2000000.000000" lengthAdjust="spacingAndGlyphs"
text-anchor="start" opacity="0"></text>
<g class="stroked-text"><desc></desc>
</g></g>
<g style="fill:#000000; fill-opacity:0.0; 
stroke:#000000; stroke-width:21200.000000; stroke-opacity:1; 
stroke-linecap:round; stroke-linejoin:round;">
</g>
<g style="fill:#000000; fill-opacity:0.0; 
stroke:#000000; stroke-width:150000.000000; stroke-opacity:1; 
stroke-linecap:round; stroke-linejoin:round;">
<text x="300989000.000000" y="255752200.000000"
textLength="150000.000000" font-size="2000000.000000" lengthAdjust="spacingAndGlyphs"
text-anchor="start" opacity="0"></text>
<g class="stroked-text"><desc></desc>
</g></g>
<g style="fill:#000000; fill-opacity:0.0; 
stroke:#000000; stroke-width:21200.000000; stroke-opacity:1; 
stroke-linecap:round; stroke-linejoin:round;">
</g>
<g style="fill:#000000; fill-opacity:0.0; 
stroke:#000000; stroke-width:150000.000000; stroke-opacity:1; 
stroke-linecap:round; stroke-linejoin:round;">
<path d="M319989000 278502200
L319989000 281502200
" />
</g>
<g style="fill:#000000; fill-opacity:0.0; 
stroke:#000000; stroke-width:21200.000000; stroke-opacity:1; 
stroke-linecap:round; stroke-linejoin:round;">
</g>
<g style="fill:#000000; fill-opacity:0.0; 
stroke:#000000; stroke-width:150000.000000; stroke-opacity:1; 
stroke-linecap:round; stroke-linejoin:round;">
<path d="M383989000 278502200
L383989000 285002200
" />
<path d="M107124200 80163700
L55624200 80163700
" />
<path d="M308124200 80163700
L114124200 80163700
" />
<path d="M366624200 80163700
L315124200 80163700
" />
</g>
<g style="fill:#000000; fill-opacity:0.0; 
stroke:#000000; stroke-width:200000.000000; stroke-opacity:1; 
stroke-linecap:round; stroke-linejoin:round;">
<path d="M397643700 80163700
L373624201 80163700
" />
<path d="M48624200 80163700
L24604701 80163700
" />
<path d="M400818499 203980900
L400818499 83338500
" />
<path d="M21429900.000000 203980900.000000 A3174799.000000 3174799.000000 0.0 0 0 24604700.000000 207155700.000000" />
<path d="M397643700 207155699
L24604700 207155700
" />
<path d="M21429900 83338500
L21429900 203980900
" />
<path d="M397643700.000000 207155699.000000 A3174799.000000 3174799.000000 0.0 0 0 400818500.000000 203980899.000000" />
<path d="M24604700.000000 80163700.000000 A3174799.000000 3174799.000000 0.0 0 0 21429900.000000 83338500.000000" />
<path d="M400818499.000000 83338500.000000 A3174799.000000 3174799.000000 0.0 0 0 397643699.000000 80163700.000000" />
</g>
<g style="fill:#000000; fill-opacity:0.0; 
stroke:#000000; stroke-width:150000.000000; stroke-opacity:1; 
stroke-linecap:round; stroke-linejoin:round;">
<text x="44715134.000000" y="205068300.000000"
transform="scale(-1 1) translate(-89430268.000000 0)"
textLength="13135714.000000" font-size="1333333.000000" lengthAdjust="spacingAndGlyphs"
text-anchor="start" opacity="0">kb.ht12345.xyz/0</text>
<g class="stroked-text"><desc>kb.ht12345.xyz/0</desc>
<path d="M44379538 205020680
L44379538 204020680
" />
<path d="M44284300 204639728
L43998586 205020680
" />
<path d="M43998586 204354014
L44379538 204734966
" />
<path d="M43570014 205020680
L43570014 204020680
" />
<path d="M43570014 204401633
L43474776 204354014
L43284300 204354014
L43189062 204401633
L43141443 204449252
L43093824 204544490
L43093824 204830204
L43141443 204925442
L43189062 204973061
L43284300 205020680
L43474776 205020680
L43570014 204973061
" />
<path d="M42665253 204925442
L42617634 204973061
L42665253 205020680
L42712872 204973061
L42665253 204925442
L42665253 205020680
" />
<path d="M42189062 205020680
L42189062 204020680
" />
<path d="M41760491 205020680
L41760491 204496871
L41808110 204401633
L41903348 204354014
L42046205 204354014
L42141443 204401633
L42189062 204449252
" />
<path d="M41427157 204354014
L41046205 204354014
" />
<path d="M41284300 204020680
L41284300 204877823
L41236681 204973061
L41141443 205020680
L41046205 205020680
" />
<path d="M40189062 205020680
L40760491 205020680
" />
<path d="M40474776 205020680
L40474776 204020680
L40570014 204163538
L40665253 204258776
L40760491 204306395
" />
<path d="M39808110 204115919
L39760491 204068300
L39665253 204020680
L39427157 204020680
L39331919 204068300
L39284300 204115919
L39236681 204211157
L39236681 204306395
L39284300 204449252
L39855729 205020680
L39236681 205020680
" />
<path d="M38903348 204020680
L38284300 204020680
L38617634 204401633
L38474776 204401633
L38379538 204449252
L38331919 204496871
L38284300 204592109
L38284300 204830204
L38331919 204925442
L38379538 204973061
L38474776 205020680
L38760491 205020680
L38855729 204973061
L38903348 204925442
" />
<path d="M37427157 204354014
L37427157 205020680
" />
<path d="M37665253 203973061
L37903348 204687347
L37284300 204687347
" />
<path d="M36427157 204020680
L36903348 204020680
L36950967 204496871
L36903348 204449252
L36808110 204401633
L36570014 204401633
L36474776 204449252
L36427157 204496871
L36379538 204592109
L36379538 204830204
L36427157 204925442
L36474776 204973061
L36570014 205020680
L36808110 205020680
L36903348 204973061
L36950967 204925442
" />
<path d="M35950967 204925442
L35903348 204973061
L35950967 205020680
L35998586 204973061
L35950967 204925442
L35950967 205020680
" />
<path d="M35570014 205020680
L35046205 204354014
" />
<path d="M35570014 204354014
L35046205 205020680
" />
<path d="M34760491 204354014
L34522395 205020680
" />
<path d="M34284300 204354014
L34522395 205020680
L34617634 205258776
L34665253 205306395
L34760491 205354014
" />
<path d="M33998586 204354014
L33474776 204354014
L33998586 205020680
L33474776 205020680
" />
<path d="M32379538 203973061
L33236681 205258776
" />
<path d="M31855729 204020680
L31760491 204020680
L31665253 204068300
L31617634 204115919
L31570014 204211157
L31522395 204401633
L31522395 204639728
L31570014 204830204
L31617634 204925442
L31665253 204973061
L31760491 205020680
L31855729 205020680
L31950967 204973061
L31998586 204925442
L32046205 204830204
L32093824 204639728
L32093824 204401633
L32046205 204211157
L31998586 204115919
L31950967 204068300
L31855729 204020680
" />
</g><text x="44715134.000000" y="203480900.000000"
transform="scale(-1 1) translate(-89430268.000000 0)"
textLength="20376429.000000" font-size="1333333.000000" lengthAdjust="spacingAndGlyphs"
text-anchor="start" opacity="0">keyboard0 FR4 bottom TPE</text>
<g class="stroked-text"><desc>keyboard0 FR4 bottom TPE</desc>
<path d="M44379538 203433280
L44379538 202433280
" />
<path d="M44284300 203052328
L43998586 203433280
" />
<path d="M43998586 202766614
L44379538 203147566
" />
<path d="M43189062 203385661
L43284300 203433280
L43474776 203433280
L43570014 203385661
L43617634 203290423
L43617634 202909471
L43570014 202814233
L43474776 202766614
L43284300 202766614
L43189062 202814233
L43141443 202909471
L43141443 203004709
L43617634 203099947
" />
<path d="M42808110 202766614
L42570014 203433280
" />
<path d="M42331919 202766614
L42570014 203433280
L42665253 203671376
L42712872 203718995
L42808110 203766614
" />
<path d="M41950967 203433280
L41950967 202433280
" />
<path d="M41950967 202814233
L41855729 202766614
L41665253 202766614
L41570014 202814233
L41522395 202861852
L41474776 202957090
L41474776 203242804
L41522395 203338042
L41570014 203385661
L41665253 203433280
L41855729 203433280
L41950967 203385661
" />
<path d="M40903348 203433280
L40998586 203385661
L41046205 203338042
L41093824 203242804
L41093824 202957090
L41046205 202861852
L40998586 202814233
L40903348 202766614
L40760491 202766614
L40665253 202814233
L40617634 202861852
L40570014 202957090
L40570014 203242804
L40617634 203338042
L40665253 203385661
L40760491 203433280
L40903348 203433280
" />
<path d="M39712872 203433280
L39712872 202909471
L39760491 202814233
L39855729 202766614
L40046205 202766614
L40141443 202814233
" />
<path d="M39712872 203385661
L39808110 203433280
L40046205 203433280
L40141443 203385661
L40189062 203290423
L40189062 203195185
L40141443 203099947
L40046205 203052328
L39808110 203052328
L39712872 203004709
" />
<path d="M39236681 203433280
L39236681 202766614
" />
<path d="M39236681 202957090
L39189062 202861852
L39141443 202814233
L39046205 202766614
L38950967 202766614
" />
<path d="M38189062 203433280
L38189062 202433280
" />
<path d="M38189062 203385661
L38284300 203433280
L38474776 203433280
L38570014 203385661
L38617634 203338042
L38665253 203242804
L38665253 202957090
L38617634 202861852
L38570014 202814233
L38474776 202766614
L38284300 202766614
L38189062 202814233
" />
<path d="M37522395 202433280
L37427157 202433280
L37331919 202480900
L37284300 202528519
L37236681 202623757
L37189062 202814233
L37189062 203052328
L37236681 203242804
L37284300 203338042
L37331919 203385661
L37427157 203433280
L37522395 203433280
L37617634 203385661
L37665253 203338042
L37712872 203242804
L37760491 203052328
L37760491 202814233
L37712872 202623757
L37665253 202528519
L37617634 202480900
L37522395 202433280
" />
<path d="M35665253 202909471
L35998586 202909471
" />
<path d="M35998586 203433280
L35998586 202433280
L35522395 202433280
" />
<path d="M34570014 203433280
L34903348 202957090
" />
<path d="M35141443 203433280
L35141443 202433280
L34760491 202433280
L34665253 202480900
L34617634 202528519
L34570014 202623757
L34570014 202766614
L34617634 202861852
L34665253 202909471
L34760491 202957090
L35141443 202957090
" />
<path d="M33712872 202766614
L33712872 203433280
" />
<path d="M33950967 202385661
L34189062 203099947
L33570014 203099947
" />
<path d="M32427157 203433280
L32427157 202433280
" />
<path d="M32427157 202814233
L32331919 202766614
L32141443 202766614
L32046205 202814233
L31998586 202861852
L31950967 202957090
L31950967 203242804
L31998586 203338042
L32046205 203385661
L32141443 203433280
L32331919 203433280
L32427157 203385661
" />
<path d="M31379538 203433280
L31474776 203385661
L31522395 203338042
L31570014 203242804
L31570014 202957090
L31522395 202861852
L31474776 202814233
L31379538 202766614
L31236681 202766614
L31141443 202814233
L31093824 202861852
L31046205 202957090
L31046205 203242804
L31093824 203338042
L31141443 203385661
L31236681 203433280
L31379538 203433280
" />
<path d="M30760491 202766614
L30379538 202766614
" />
<path d="M30617634 202433280
L30617634 203290423
L30570014 203385661
L30474776 203433280
L30379538 203433280
" />
<path d="M30189062 202766614
L29808110 202766614
" />
<path d="M30046205 202433280
L30046205 203290423
L29998586 203385661
L29903348 203433280
L29808110 203433280
" />
<path d="M29331919 203433280
L29427157 203385661
L29474776 203338042
L29522395 203242804
L29522395 202957090
L29474776 202861852
L29427157 202814233
L29331919 202766614
L29189062 202766614
L29093824 202814233
L29046205 202861852
L28998586 202957090
L28998586 203242804
L29046205 203338042
L29093824 203385661
L29189062 203433280
L29331919 203433280
" />
<path d="M28570014 203433280
L28570014 202766614
" />
<path d="M28570014 202861852
L28522395 202814233
L28427157 202766614
L28284300 202766614
L28189062 202814233
L28141443 202909471
L28141443 203433280
" />
<path d="M28141443 202909471
L28093824 202814233
L27998586 202766614
L27855729 202766614
L27760491 202814233
L27712872 202909471
L27712872 203433280
" />
<path d="M26617634 202433280
L26046205 202433280
" />
<path d="M26331919 203433280
L26331919 202433280
" />
<path d="M25712872 203433280
L25712872 202433280
L25331919 202433280
L25236681 202480900
L25189062 202528519
L25141443 202623757
L25141443 202766614
L25189062 202861852
L25236681 202909471
L25331919 202957090
L25712872 202957090
" />
<path d="M24712872 202909471
L24379538 202909471
" />
<path d="M24236681 203433280
L24712872 203433280
L24712872 202433280
L24236681 202433280
" />
</g></g>
<g style="fill:#000000; fill-opacity:1.0; 
stroke:#000000; stroke-width:1.000000; stroke-opacity:1; 
stroke-linecap:round; stroke-linejoin:round;">
<path style="fill:#000000; fill-opacity:1.0; 
stroke:#000000; stroke-width:1.000000; stroke-opacity:1; 
stroke-linecap:round; stroke-linejoin:round;fill-rule:evenodd;"
d="M 46971905.000000,203369931.000000
46524759.000000,203817077.000000
47944249.000000,205237890.000000
47739196.000000,205444265.000000
46324999.000000,204022129.000000
45880499.000000,204467952.000000
45715134.000000,204303910.000000
46813155.000000,203204567.000000
Z" /> 
<path style="fill:#000000; fill-opacity:1.0; 
stroke:#000000; stroke-width:1.000000; stroke-opacity:1; 
stroke-linecap:round; stroke-linejoin:round;fill-rule:evenodd;"
d="M 48450926.000000,202438598.000000
47766978.000000,203123869.000000
48569988.000000,203928202.000000
49252613.000000,203244254.000000
49458988.000000,203446660.000000
47871488.000000,205034160.000000
47667759.000000,204825140.000000
48400655.000000,204092244.000000
47596321.000000,203290556.000000
46866071.000000,204023452.000000
46655728.000000,203818400.000000
48243228.000000,202230900.000000
Z" /> 
<g >
</g>
<g >
</g>
<g >
</g>
<g >
</g>
<g >
</g>
<g >
</g>
<g >
</g>
<g >
</g>
<g >
</g>
<g >
</g>
<g >
</g>
<g >
</g>
<g >
</g>
<g >
</g>
<g >
</g>
<g >
</g>
<g >
</g>
<g >
</g>
<g >
</g>
<g >
</g>
<g >
</g>
<g >
</g>
<g >
</g>
<g >
</g>
<g >
</g>
<g >
</g>
<g >
</g>
<g >
</g>
<g >
</g>
<g >
</g>
<g >
</g>
<g >
</g>
<g >
</g>
<g >
</g>
<g >
</g>
<g >
</g>
<g >
</g>
<g >
</g>
<g >
</g>
<g >
</g>
<g >
</g>
<g >
</g>
<g >
</g>
<g >
</g>
<g >
</g>
<g >
</g>
<g >
</g>
<g >
</g>
<g >
</g>
<g >
</g>
<g >
</g>
<g >
</g>
<g >
</g>
<g >
</g>
<g >
</g>
<g >
</g>
<g >
</g>
<g >
</g>
<g >
</g>
<g >
</g>
<g >
</g>
</g>
<g style="fill:#000000; fill-opacity:1.0; 
stroke:#000000; stroke-width:1.000000; stroke-opacity:1; 
stroke-linecap:round; stroke-linejoin:round;">
</g>
<g style="fill:#000000; fill-opacity:1.0; 
stroke:#000000; stroke-width:200000.000000; stroke-opacity:1; 
stroke-linecap:round; stroke-linejoin:round;">
</g>
<g style="fill:#000000; fill-opacity:0.0; 
stroke:#000000; stroke-width:200000.000000; stroke-opacity:1; 
stroke-linecap:round; stroke-linejoin:round;">
<path d="M367124200 72226700
L367124200 122226700
" />
<path d="M404787000.000000 215092700.000000 A3968501.000000 3968501.000000 0.0 0 0 408755500.000000 211124200.000000" />
<path d="M17461400.000000 72226700.000000 A3968501.000000 3968501.000000 0.0 0 0 13492900.000000 76195200.000000" />
<path d="M113624200 72226700
L308624200 72226700
" />
<path d="M367124200 122226700
L373124200 122226700
" />
<path d="M314624200 72226700
L314624200 122226700
" />
<path d="M49124200 72226700
L17461400 72226700
" />
<path d="M408755500 211124200
L408755500 76195200
" />
<path d="M55124200 72226700
L55124200 122226700
" />
<path d="M113624200 122226700
L107624200 122226700
" />
<path d="M113624200 72226700
L113624200 122226700
" />
<path d="M314624200 72226700
L367124200 72226700
" />
<path d="M55124200 72226700
L107624200 72226700
" />
<path d="M314624200 122226700
L308624200 122226700
" />
<path d="M373124200 72226700
L404787000 72226700
" />
<path d="M13492900.000000 211124200.000000 A3968501.000000 3968501.000000 0.0 0 0 17461400.000000 215092700.000000" />
<path d="M55124200 122226700
L49124200 122226700
" />
<path d="M17461400 215092700
L404787000 215092700
" />
<path d="M107624200 122226700
L107624200 72226700
" />
<path d="M373124200 122226700
L373124200 72226700
" />
<path d="M13492900 76195200
L13492900 211124200
" />
<path d="M408755500.000000 76195200.000000 A3968501.000000 3968501.000000 0.0 0 0 404787000.000000 72226700.000000" />
<path d="M49124200 122226700
L49124200 72226700
" />
<path d="M308624200 122226700
L308624200 72226700
" />
<g >
</g>
<g >
</g>
<g >
</g>
<g >
</g>
<g >
</g>
<g >
</g>
<g >
</g>
<g >
</g>
<g >
</g>
<g >
</g>
<g >
</g>
<g >
</g>
<g >
</g>
<g >
</g>
<g >
</g>
<g >
</g>
<g >
</g>
<g >
</g>
<g >
</g>
<g >
</g>
<g >
</g>
<g >
</g>
<g >
</g>
<g >
</g>
<g >
</g>
<g >
</g>
<g >
</g>
<g >
</g>
<g >
</g>
<g >
</g>
<g >
</g>
<g >
</g>
<g >
</g>
<g >
</g>
<g >
</g>
<g >
</g>
<g >
</g>
<g >
</g>
<g >
</g>
<g >
</g>
<g >
</g>
<g >
</g>
<g >
</g>
<g >
</g>
<g >
</g>
<g >
</g>
<g >
</g>
<g >
</g>
<g >
</g>
<g >
</g>
<g >
</g>
<g >
</g>
<g >
</g>
<g >
</g>
<g >
</g>
<g >
</g>
<g >
</g>
<g >
</g>
<g >
</g>
<g >
</g>
<g >
</g>
</g> 
</svg>
