M48
; DRILL file {KiCad (5.1.10)-1} date 10/29/21 20:38:59
; FORMAT={-:-/ absolute / metric / decimal}
; #@! TF.CreationDate,2021-10-29T20:38:59-04:00
; #@! TF.GenerationSoftware,Kicad,Pcbnew,(5.1.10)-1
; #@! TF.FileFunction,Plated,1,2,PTH
FMAT,2
METRIC
T1C0.400
T2C0.500
T3C0.600
T4C0.813
T5C0.900
T6C1.000
T7C1.500
T8C2.100
T9C3.200
%
G90
G05
T1
X72.227Y-180.964
X72.227Y-184.138
X73.02Y-182.551
X77.783Y-191.282
X78.576Y-184.932
X79.37Y-186.519
X80.214Y-179.326
X80.957Y-196.838
X80.957Y-210.331
X80.957Y-229.379
X80.957Y-248.428
X80.957Y-267.477
X83.338Y-203.187
X83.338Y-222.236
X83.338Y-241.285
X83.338Y-260.334
X83.338Y-275.811
X84.926Y-206.362
X84.926Y-225.411
X84.926Y-244.46
X84.926Y-263.508
X85.72Y-199.219
X85.72Y-218.267
X85.72Y-237.316
X85.72Y-256.365
X85.72Y-275.414
X87.307Y-189.694
X89.291Y-168.661
X96.831Y-185.726
X98.419Y-161.121
X98.419Y-174.614
X98.419Y-185.726
X98.419Y-203.187
X98.419Y-221.839
X98.419Y-240.888
X98.419Y-260.334
X98.419Y-265.096
X98.419Y-278.986
X99.212Y-173.027
X99.212Y-276.208
X99.609Y-257.159
X100.006Y-238.11
X100.8Y-183.345
X100.8Y-188.107
X100.8Y-200.012
X100.8Y-219.061
X101.594Y-163.502
X101.594Y-171.439
X101.594Y-180.964
X103.975Y-157.946
X103.975Y-176.201
X104.768Y-159.534
X104.768Y-162.708
X104.768Y-191.282
X106.356Y-183.345
X106.356Y-188.107
X107.149Y-267.477
X107.943Y-172.233
X108.34Y-201.203
X109.531Y-210.331
X109.927Y-240.888
X110.721Y-277.398
X111.912Y-229.379
X113.102Y-220.252
X115.483Y-239.301
X116.674Y-248.428
X117.468Y-260.334
X120.246Y-258.349
X122.23Y-202.79
X123.817Y-171.439
X123.817Y-172.439
X123.817Y-176.201
X123.817Y-191.282
X124.611Y-169.852
X124.611Y-173.82
X126.992Y-263.508
X126.992Y-278.986
X127.389Y-201.203
X128.579Y-173.82
X129.77Y-157.946
X129.77Y-240.888
X130.96Y-267.477
X131.754Y-157.153
X131.754Y-165.883
X131.754Y-221.839
X133.342Y-210.331
X133.738Y-157.946
X133.738Y-259.54
X134.532Y-277.398
X136.516Y-240.888
X136.913Y-220.252
X138.104Y-229.379
X138.897Y-169.852
X138.897Y-173.82
X139.691Y-171.439
X139.691Y-172.439
X139.691Y-176.201
X141.279Y-179.376
X141.279Y-202.79
X141.675Y-239.301
X142.866Y-162.708
X142.866Y-191.282
X146.041Y-259.937
X146.041Y-264.302
X146.438Y-172.63
X146.438Y-201.203
X147.628Y-248.428
X150.803Y-222.236
X150.803Y-278.986
X151.2Y-258.349
X152.39Y-210.331
X155.565Y-240.888
X155.962Y-220.252
X157.153Y-229.379
X158.343Y-277.398
X158.74Y-264.302
X160.327Y-158.74
X160.327Y-174.614
X160.327Y-179.376
X160.327Y-202.79
X160.724Y-239.301
X161.915Y-162.708
X161.915Y-191.282
X165.09Y-259.937
X165.486Y-172.63
X165.486Y-201.203
X166.677Y-248.428
X169.852Y-222.236
X170.249Y-258.349
X171.439Y-210.331
X174.614Y-240.888
X174.614Y-278.589
X175.011Y-220.252
X175.408Y-276.208
X175.408Y-277.208
X176.201Y-229.379
X179.376Y-174.614
X179.376Y-179.376
X179.376Y-202.79
X179.773Y-239.301
X180.964Y-162.708
X180.964Y-191.282
X184.138Y-259.937
X184.535Y-172.63
X184.535Y-201.203
X185.726Y-248.428
X188.901Y-222.236
X189.297Y-258.349
X190.488Y-210.331
X193.663Y-240.888
X194.06Y-220.252
X195.25Y-229.379
X198.425Y-158.74
X198.425Y-174.614
X198.425Y-179.376
X198.425Y-202.79
X198.822Y-239.301
X200.012Y-162.708
X200.012Y-191.282
X203.187Y-259.937
X203.584Y-172.63
X203.584Y-201.203
X204.775Y-248.428
X207.949Y-222.236
X208.346Y-258.349
X209.537Y-210.331
X212.712Y-240.888
X212.712Y-280.138
X213.108Y-220.252
X214.299Y-229.379
X217.474Y-171.439
X217.474Y-172.439
X217.474Y-176.201
X217.474Y-202.79
X217.871Y-239.301
X219.061Y-191.282
X219.061Y-267.477
X220.649Y-151.597
X221.045Y-170.249
X221.045Y-177.392
X222.236Y-152.39
X222.236Y-259.937
X222.633Y-201.203
X223.427Y-170.249
X223.427Y-177.392
X223.823Y-151.597
X223.823Y-248.428
X223.823Y-263.508
X224.617Y-273.827
X225.411Y-279.382
X226.204Y-277.795
X226.998Y-171.439
X226.998Y-172.439
X226.998Y-176.201
X226.998Y-222.236
X226.998Y-277.001
X227.395Y-258.349
X228.586Y-162.708
X228.586Y-210.331
X228.586Y-277.795
X230.173Y-174.614
X231.76Y-240.888
X232.157Y-172.63
X232.157Y-220.252
X233.348Y-229.379
X236.523Y-202.79
X236.919Y-239.301
X238.11Y-191.282
X241.285Y-259.937
X241.682Y-201.203
X242.872Y-248.428
X243.666Y-277.001
X243.666Y-281.763
X245.253Y-273.033
X246.047Y-158.74
X246.047Y-174.614
X246.047Y-179.376
X246.047Y-222.236
X246.444Y-258.349
X247.634Y-162.708
X247.634Y-210.331
X247.634Y-281.763
X248.428Y-279.382
X250.809Y-240.888
X250.809Y-270.652
X251.206Y-172.63
X251.206Y-220.252
X251.603Y-277.001
X252.397Y-229.379
X255.571Y-202.79
X255.571Y-270.652
X255.968Y-239.301
X257.159Y-191.282
X259.558Y-275.486
X260.334Y-259.937
X260.449Y-270.536
X260.73Y-201.203
X260.73Y-254.778
X261.157Y-269.829
X261.921Y-248.428
X261.921Y-269.064
X261.921Y-277.001
X263.508Y-268.271
X264.877Y-280.163
X265.096Y-174.614
X265.096Y-179.376
X265.096Y-222.236
X265.096Y-257.952
X265.096Y-266.683
X265.108Y-265.671
X265.889Y-273.033
X265.889Y-280.176
X265.914Y-265.078
X266.683Y-162.708
X266.683Y-210.331
X266.683Y-255.968
X266.683Y-263.508
X267.477Y-275.414
X267.477Y-280.97
X267.63Y-271.783
X268.271Y-263.508
X268.489Y-280.983
X269.064Y-271.445
X269.082Y-281.788
X269.858Y-240.888
X269.858Y-270.652
X270.082Y-281.756
X270.255Y-172.63
X270.255Y-220.252
X270.662Y-282.571
X271.445Y-229.379
X271.445Y-279.382
X271.532Y-281.763
X273.033Y-280.176
X274.62Y-202.79
X274.62Y-266.683
X274.73Y-281.874
X275.017Y-239.301
X275.414Y-268.271
X275.414Y-275.414
X275.414Y-277.001
X276.208Y-191.282
X278.37Y-264.289
X279.779Y-201.203
X280.97Y-248.428
X280.97Y-265.889
X280.97Y-273.827
X280.97Y-279.382
X282.557Y-260.334
X283.351Y-277.001
X284.145Y-158.74
X284.145Y-174.614
X284.145Y-179.376
X284.145Y-222.236
X284.541Y-258.349
X284.968Y-271.416
X285.283Y-268.256
X285.732Y-162.708
X285.732Y-210.331
X286.012Y-271.409
X286.307Y-268.258
X286.923Y-265.096
X287.319Y-268.271
X287.319Y-271.445
X288.907Y-240.888
X288.907Y-282.557
X289.304Y-172.63
X289.304Y-220.252
X289.7Y-272.239
X290.494Y-229.379
X293.669Y-202.79
X294.066Y-239.301
X295.256Y-191.282
X295.679Y-273.455
X296.05Y-267.477
X296.421Y-274.198
X298.431Y-259.937
X298.828Y-201.203
X300.019Y-248.428
X300.019Y-263.508
X300.019Y-277.795
X300.812Y-280.045
X301.606Y-157.946
X302.4Y-274.62
X303.193Y-171.439
X303.193Y-172.439
X303.193Y-176.201
X303.193Y-179.376
X303.193Y-222.236
X303.193Y-258.349
X303.987Y-157.946
X304.781Y-210.331
X306.368Y-151.597
X306.765Y-170.249
X306.765Y-173.423
X307.956Y-152.39
X307.956Y-240.888
X308.352Y-220.252
X309.146Y-170.249
X309.146Y-173.423
X309.543Y-151.597
X309.543Y-229.379
X312.718Y-171.439
X312.718Y-172.439
X312.718Y-176.201
X312.718Y-202.79
X313.115Y-239.301
X314.305Y-162.708
X314.305Y-191.282
X317.48Y-155.565
X317.48Y-259.937
X317.48Y-271.445
X317.48Y-278.986
X317.877Y-172.63
X317.877Y-201.203
X319.067Y-155.565
X319.067Y-248.428
X319.067Y-263.508
X322.242Y-222.236
X322.639Y-258.349
X323.83Y-210.331
X324.623Y-277.001
X327.004Y-240.888
X327.401Y-220.252
X328.592Y-229.379
X331.767Y-158.74
X331.767Y-202.79
X332.163Y-239.301
X333.354Y-162.708
X333.354Y-191.282
X335.338Y-174.614
X336.529Y-259.937
X336.926Y-172.63
X336.926Y-201.203
X341.291Y-222.236
X341.291Y-271.445
X341.291Y-278.986
X342.878Y-210.331
X342.878Y-264.302
X346.053Y-240.888
X346.45Y-220.252
X348.434Y-277.001
X351.212Y-202.79
X352.403Y-162.708
X353.99Y-174.614
X354.784Y-248.428
X355.578Y-235.729
X355.974Y-172.63
X357.165Y-260.334
X358.356Y-258.349
X359.546Y-229.379
X360.34Y-221.839
X361.53Y-241.285
X361.927Y-191.282
X363.118Y-239.301
X363.515Y-203.187
X365.102Y-263.508
X365.102Y-278.986
X365.499Y-201.203
X365.896Y-228.586
X366.689Y-210.331
X369.07Y-267.477
X369.864Y-158.74
X370.261Y-220.252
X371.452Y-162.708
X371.452Y-260.334
X372.245Y-277.001
X373.039Y-258.349
X373.436Y-174.614
X373.833Y-254.778
X375.023Y-172.63
X375.42Y-251.603
X375.42Y-257.159
X377.007Y-204.775
X377.801Y-259.54
X378.595Y-238.904
X378.992Y-203.187
X379.526Y-236.204
X379.526Y-237.254
X380.182Y-232.554
X382.563Y-240.76
X382.563Y-241.81
X383.357Y-200.012
X383.357Y-202.393
X383.357Y-221.442
X384.151Y-224.617
X384.945Y-187.313
X384.945Y-203.981
X384.945Y-217.474
X384.945Y-218.474
X386.007Y-261.921
X386.532Y-219.855
X387.057Y-261.921
X387.326Y-206.362
X387.748Y-222.658
X388.119Y-225.411
X388.491Y-223.401
X388.913Y-174.614
X388.913Y-278.986
X389.707Y-261.127
X389.975Y-221.105
X390.104Y-231.364
X391.025Y-221.105
X392.881Y-235.729
X392.925Y-237.273
X393.675Y-223.03
X394.469Y-247.634
X395.263Y-238.11
X396.85Y-179.376
X397.119Y-225.411
X397.644Y-231.76
X397.644Y-240.491
X397.644Y-247.238
X398.169Y-225.411
X398.437Y-158.74
X398.775Y-229.8
X398.775Y-230.85
X399.231Y-257.159
X399.231Y-258.54
X399.231Y-259.54
X399.231Y-280.176
X399.628Y-228.982
X399.628Y-244.46
X400.025Y-225.411
X400.818Y-217.474
X400.818Y-219.061
X400.818Y-220.649
X400.818Y-222.236
X401.612Y-161.915
X401.612Y-191.282
X401.612Y-200.012
X401.612Y-202.393
X401.612Y-204.775
X401.612Y-206.362
X401.612Y-210.331
X401.612Y-267.477
X402.406Y-245.253
X403.2Y-200.806
X403.596Y-172.63
X403.596Y-220.252
X403.596Y-277.398
X403.993Y-255.571
X404.787Y-198.425
X404.787Y-217.474
X406.374Y-239.697
X411.93Y-240.491
X412.724Y-230.173
X414.989Y-234.819
X415.105Y-172.233
X415.105Y-250.809
X417.486Y-246.047
X417.486Y-278.986
X418.28Y-235.729
X419.074Y-191.282
X419.074Y-210.331
X419.074Y-253.984
X419.074Y-267.477
X420.661Y-203.187
X421.058Y-222.236
X421.455Y-171.439
X421.455Y-230.967
X421.455Y-246.047
X422.248Y-173.423
X422.645Y-201.203
X422.645Y-220.252
X422.645Y-258.349
X422.645Y-277.398
X423.836Y-186.519
X425.026Y-157.946
X425.423Y-246.047
X427.011Y-157.153
X427.011Y-165.883
X427.011Y-234.141
X427.011Y-235.729
X428.995Y-157.946
X430.979Y-251.603
X432.566Y-171.439
X433.36Y-228.586
X434.154Y-181.757
X434.154Y-186.519
X434.154Y-258.746
X434.154Y-264.302
X434.948Y-236.523
X435.741Y-165.883
X435.741Y-260.334
X435.741Y-264.302
X436.535Y-190.488
X436.535Y-209.537
X436.535Y-266.683
X438.122Y-169.058
X439.71Y-169.058
X439.71Y-203.187
X439.71Y-227.792
X439.71Y-260.334
X439.71Y-264.302
X440.503Y-186.519
X440.503Y-222.236
X440.503Y-250.809
X440.503Y-279.779
X441.694Y-201.203
X441.694Y-220.252
X441.694Y-277.398
X442.091Y-168.264
X442.091Y-283.351
X442.885Y-233.348
X447.647Y-229.379
X447.647Y-231.76
X447.647Y-234.935
X448.44Y-155.565
X448.837Y-252.397
X449.234Y-240.491
X453.996Y-201.203
X453.996Y-206.362
X455.584Y-252.397
X455.584Y-255.571
X456.377Y-178.582
X456.377Y-253.984
X457.965Y-240.491
X461.933Y-182.551
X462.727Y-180.964
X462.727Y-184.138
T2
X79.37Y-169.058
X99.212Y-250.809
X99.212Y-269.858
X100.006Y-212.712
X100.006Y-231.76
X100.8Y-193.663
X101.594Y-169.852
X104.768Y-189.694
X107.149Y-174.614
X123.817Y-189.694
X142.866Y-189.694
X161.915Y-189.694
X180.964Y-189.694
X200.012Y-189.694
X210.331Y-274.62
X219.061Y-189.694
X238.11Y-189.694
X254.778Y-272.239
X257.159Y-189.694
X257.159Y-274.62
X265.889Y-281.763
X269.858Y-264.302
X272.239Y-264.302
X274.62Y-264.302
X276.208Y-189.694
X277.001Y-272.239
X277.001Y-282.557
X279.382Y-265.096
X279.382Y-282.557
X295.256Y-189.694
X314.305Y-189.694
X333.354Y-189.694
X361.927Y-189.694
X401.612Y-189.694
X419.074Y-189.694
X427.011Y-227.792
X441.297Y-189.694
X441.297Y-235.729
T4
X445.266Y-231.125
X445.266Y-233.665
X445.266Y-236.205
X445.266Y-238.745
T5
X128.254Y-161.915
X130.754Y-161.915
X132.754Y-161.915
X135.254Y-161.915
X423.511Y-161.121
X426.011Y-161.121
X428.011Y-161.121
X430.511Y-161.121
X452.409Y-250.484
X452.409Y-252.984
X452.409Y-254.984
X452.409Y-257.484
T6
X82.331Y-166.439
X82.331Y-171.439
X96.831Y-166.439
X96.831Y-168.939
X96.831Y-171.439
X213.505Y-271.445
X216.045Y-271.445
X218.585Y-271.445
X221.125Y-271.445
X437.909Y-166.439
X437.909Y-171.439
X452.409Y-166.439
X452.409Y-168.939
X452.409Y-171.439
T8
X124.754Y-159.205
X138.754Y-159.205
X420.011Y-158.411
X434.011Y-158.411
X455.119Y-246.984
X455.119Y-260.984
T9
X79.37Y-158.74
X79.37Y-282.557
X455.584Y-158.74
X455.584Y-282.557
T3
X71.352Y-178.231G85X71.952Y-178.231
G05
X71.352Y-186.871G85X71.952Y-186.871
G05
X75.282Y-178.231G85X76.382Y-178.231
G05
X75.282Y-186.871G85X76.382Y-186.871
G05
X217.916Y-150.722G85X217.916Y-151.322
G05
X217.916Y-154.652G85X217.916Y-155.752
G05
X226.556Y-150.722G85X226.556Y-151.322
G05
X226.556Y-154.652G85X226.556Y-155.752
G05
X303.636Y-150.722G85X303.636Y-151.322
G05
X303.636Y-154.652G85X303.636Y-155.752
G05
X312.276Y-150.722G85X312.276Y-151.322
G05
X312.276Y-154.652G85X312.276Y-155.752
G05
X459.672Y-178.231G85X458.572Y-178.231
G05
X459.672Y-186.871G85X458.572Y-186.871
G05
X463.602Y-178.231G85X463.002Y-178.231
G05
X463.602Y-186.871G85X463.002Y-186.871
G05
T7
X89.981Y-163.339G85X88.681Y-163.339
G05
X89.981Y-174.539G85X88.681Y-174.539
G05
X445.559Y-163.339G85X444.259Y-163.339
G05
X445.559Y-174.539G85X444.259Y-174.539
G05
T0
M30
