<?xml version="1.0" standalone="no"?>
 <!DOCTYPE svg PUBLIC "-//W3C//DTD SVG 1.1//EN" 
 "http://www.w3.org/Graphics/SVG/1.1/DTD/svg11.dtd"> 
<svg
  xmlns:svg="http://www.w3.org/2000/svg"
  xmlns="http://www.w3.org/2000/svg"
  xmlns:xlink="http://www.w3.org/1999/xlink"
  version="1.1"
  width="39.911020cm" height="15.130780cm" viewBox="0 0 157130 59570">
<title>SVG Picture created as custom_keyboard plate v2-Edge_Cuts.svg date 2022/01/09 15:49:13 </title>
  <desc>Picture generated by PCBNEW </desc>
<g style="fill:#000000; fill-opacity:1;stroke:#000000; stroke-opacity:1;
stroke-linecap:round; stroke-linejoin:round;"
 transform="translate(0 0) scale(1 1)">
</g>
<g style="fill:#000000; fill-opacity:0.0; 
stroke:#000000; stroke-width:-0.000393701; stroke-opacity:1; 
stroke-linecap:round; stroke-linejoin:round;">
</g>
<g style="fill:#C2C200; fill-opacity:0.0; 
stroke:#C2C200; stroke-width:-0.000393701; stroke-opacity:1; 
stroke-linecap:round; stroke-linejoin:round;">
</g>
<g style="fill:#C2C200; fill-opacity:0.0; 
stroke:#C2C200; stroke-width:39.3701; stroke-opacity:1; 
stroke-linecap:round; stroke-linejoin:round;">
<path d="M46069.9 57993.9 A196.85 196.85 0.0 0 0 46266.8 58190.8" />
<path d="M102513 58190
L82514 58190
" />
<path d="M29080 58190
L9081 58190
" />
<path d="M29277.2 57993.9 A196.85 196.85 0.0 0 0 29080.4 57797.1" />
<path d="M102513 58190.8 A196.85 196.85 0.0 0 0 102710 57993.9" />
<path d="M119700 57797.1 A196.85 196.85 0.0 0 0 119503 57993.9" />
<path d="M46266.8 57797.1 A196.85 196.85 0.0 0 0 46069.9 57993.9" />
<path d="M119503 57993.9 A196.85 196.85 0.0 0 0 119700 58190.8" />
<path d="M29080.4 58190.8 A196.85 196.85 0.0 0 0 29277.2 57993.9" />
<path d="M102710 57993.9 A196.85 196.85 0.0 0 0 102513 57797.1" />
<path d="M139698 58190
L119699 58190
" />
<path d="M66265 58190
L46266 58190
" />
<path d="M119699 57797
L139698 57797
" />
<path d="M82514 57797
L102513 57797
" />
<path d="M82317.6 57993.9 A196.85 196.85 0.0 0 0 82514.5 58190.8" />
<path d="M82514.5 57797.1 A196.85 196.85 0.0 0 0 82317.6 57993.9" />
<path d="M139698 58190.8 A196.85 196.85 0.0 0 0 139895 57993.9" />
<path d="M139895 57993.9 A196.85 196.85 0.0 0 0 139698 57797.1" />
<path d="M66265.5 58190.8 A196.85 196.85 0.0 0 0 66462.4 57993.9" />
<path d="M9081.61 57797.1 A196.85 196.85 0.0 0 0 8884.76 57993.9" />
<path d="M9081 57797
L29080 57797
" />
<path d="M8884.76 57993.9 A196.85 196.85 0.0 0 0 9081.61 58190.8" />
<path d="M46266 57797
L66265 57797
" />
<path d="M66462.4 57993.9 A196.85 196.85 0.0 0 0 66265.5 57797.1" />
<path d="M102710 8622.05 A196.85 196.85 0.0 0 0 102513 8425.2" />
<path d="M119699 8425
L139698 8425
" />
<path d="M119503 8622.05 A196.85 196.85 0.0 0 0 119700 8818.9" />
<path d="M102513 8818.9 A196.85 196.85 0.0 0 0 102710 8622.05" />
<path d="M119700 8425.2 A196.85 196.85 0.0 0 0 119503 8622.05" />
<path d="M82514 8425
L102513 8425
" />
<path d="M82514.5 8425.2 A196.85 196.85 0.0 0 0 82317.6 8622.05" />
<path d="M139698 8818.9 A196.85 196.85 0.0 0 0 139895 8622.05" />
<path d="M139698 8818
L119699 8818
" />
<path d="M139895 8622.05 A196.85 196.85 0.0 0 0 139698 8425.2" />
<path d="M102513 8818
L82514 8818
" />
<path d="M82317.6 8622.05 A196.85 196.85 0.0 0 0 82514.5 8818.9" />
<path d="M66265 8818
L46266 8818
" />
<path d="M66462.4 8622.05 A196.85 196.85 0.0 0 0 66265.5 8425.2" />
<path d="M66265.5 8818.9 A196.85 196.85 0.0 0 0 66462.4 8622.05" />
<path d="M46266.8 8425.2 A196.85 196.85 0.0 0 0 46069.9 8622.05" />
<path d="M46266 8425
L66265 8425
" />
<path d="M46069.9 8622.05 A196.85 196.85 0.0 0 0 46266.8 8818.9" />
<path d="M29080 8818
L9081 8818
" />
<path d="M9081 8425
L29080 8425
" />
<path d="M29080.4 8818.9 A196.85 196.85 0.0 0 0 29277.2 8622.05" />
<path d="M29277.2 8622.05 A196.85 196.85 0.0 0 0 29080.4 8425.2" />
<path d="M8884.76 8622.05 A196.85 196.85 0.0 0 0 9081.61 8818.9" />
<path d="M9081.61 8425.2 A196.85 196.85 0.0 0 0 8884.76 8622.05" />
<path d="M1269 57993
L6894 57993
" />
<path d="M31267 57993
L44079 57993
" />
<path d="M141885 57993
L147510 57993
" />
<path d="M104700 57993
L117512 57993
" />
<path d="M80327 57993
L68452 57993
" />
<path d="M80639 58931
L80639 58306
" />
<path d="M103763 59556
L81264 59556
" />
<path d="M104701 57993.9 A312.48 312.48 0.0 0 0 104388 58306.4" />
<path d="M104388 58306
L104388 58931
" />
<path d="M80639.6 58931.4 A624.961 624.961 0.0 0 0 81264.6 59556.3" />
<path d="M103763 59556.3 A624.961 624.961 0.0 0 0 104388 58931.4" />
<path d="M80639.6 58306.4 A312.48 312.48 0.0 0 0 80327.1 57993.9" />
<path d="M117824 58931
L117824 58306
" />
<path d="M44391.9 58931.4 A624.961 624.961 0.0 0 0 45016.9 59556.3" />
<path d="M30330.3 59556.3 A624.961 624.961 0.0 0 0 30955.2 58931.4" />
<path d="M30955 58306
L30955 58931
" />
<path d="M44391 58931
L44391 58306
" />
<path d="M141573 58306
L141573 58931
" />
<path d="M140948 59556
L118449 59556
" />
<path d="M141886 57993.9 A312.48 312.48 0.0 0 0 141573 58306.4" />
<path d="M140948 59556.3 A624.961 624.961 0.0 0 0 141573 58931.4" />
<path d="M68452.9 57993.9 A312.48 312.48 0.0 0 0 68140.4 58306.4" />
<path d="M117825 58931.4 A624.961 624.961 0.0 0 0 118450 59556.3" />
<path d="M31267.7 57993.9 A312.48 312.48 0.0 0 0 30955.2 58306.4" />
<path d="M30330 59556
L7831 59556
" />
<path d="M68140 58306
L68140 58931
" />
<path d="M7206.73 58306.4 A312.48 312.48 0.0 0 0 6894.25 57993.9" />
<path d="M117825 58306.4 A312.48 312.48 0.0 0 0 117512 57993.9" />
<path d="M67515 59556
L45016 59556
" />
<path d="M7206 58931
L7206 58306
" />
<path d="M7206.73 58931.4 A624.961 624.961 0.0 0 0 7831.69 59556.3" />
<path d="M67515.4 59556.3 A624.961 624.961 0.0 0 0 68140.4 58931.4" />
<path d="M44391.9 58306.4 A312.48 312.48 0.0 0 0 44079.4 57993.9" />
<path d="M1269 8622
L6894 8622
" />
<path d="M31267 8622
L44079 8622
" />
<path d="M141885 8622
L147510 8622
" />
<path d="M104700 8622
L117512 8622
" />
<path d="M82135 57477
L79773 57477
" />
<path d="M79576.8 57281 A196.85 196.85 0.0 0 0 79773.6 57477.8" />
<path d="M82135.8 57477.8 A196.85 196.85 0.0 0 0 82332.7 57281" />
<path d="M40206.7 57281 A196.85 196.85 0.0 0 0 40403.5 57477.8" />
<path d="M42765.7 57477.8 A196.85 196.85 0.0 0 0 42962.6 57281" />
<path d="M42765 57477
L40403 57477
" />
<path d="M80327 8622
L68452 8622
" />
<path d="M81264.6 7059.65 A624.961 624.961 0.0 0 0 80639.6 7684.61" />
<path d="M80639 7684
L80639 8309
" />
<path d="M104388 8309.57 A312.48 312.48 0.0 0 0 104701 8622.05" />
<path d="M104388 8309
L104388 7684
" />
<path d="M103763 7059
L81264 7059
" />
<path d="M104388 7684.61 A624.961 624.961 0.0 0 0 103763 7059.65" />
<path d="M80327.1 8622.05 A312.48 312.48 0.0 0 0 80639.6 8309.57" />
<path d="M19 56744
L19 9871
" />
<path d="M148760 56744
L148760 9871
" />
<path d="M25448.9 48992.6 A196.85 196.85 0.0 0 0 25645.7 49189.5" />
<path d="M26236 43874
L26236 48992
" />
<path d="M10656 49189.5 A196.85 196.85 0.0 0 0 10852.8 48992.6" />
<path d="M26236.3 43874.5 A196.85 196.85 0.0 0 0 26039.4 43677.7" />
<path d="M25645 43677
L26039 43677
" />
<path d="M10065 43874
L10065 48992
" />
<path d="M25645 49189
L26039 49189
" />
<path d="M10262.3 43677.7 A196.85 196.85 0.0 0 0 10065.4 43874.5" />
<path d="M25645.7 43677.7 A196.85 196.85 0.0 0 0 25448.9 43874.5" />
<path d="M10065.4 48992.6 A196.85 196.85 0.0 0 0 10262.3 49189.5" />
<path d="M10852.8 43874.5 A196.85 196.85 0.0 0 0 10656 43677.7" />
<path d="M26039.4 49189.5 A196.85 196.85 0.0 0 0 26236.3 48992.6" />
<path d="M25448 43874
L25448 48992
" />
<path d="M10262 43677
L10655 43677
" />
<path d="M10262 49189
L10655 49189
" />
<path d="M10852 43874
L10852 48992
" />
<path d="M12269.6 42887.9 A196.85 196.85 0.0 0 0 12072.8 43084.8" />
<path d="M12269 42887
L14631 42887
" />
<path d="M14828.7 43084.8 A196.85 196.85 0.0 0 0 14631.9 42887.9" />
<path d="M24228 43084
L24228 49779
" />
<path d="M21472 43084
L21472 49779
" />
<path d="M24031.9 49976.4 A196.85 196.85 0.0 0 0 24228.7 49779.6" />
<path d="M21669.6 42887.9 A196.85 196.85 0.0 0 0 21472.8 43084.8" />
<path d="M12072 49779
L12072 43084
" />
<path d="M21472.8 49779.6 A196.85 196.85 0.0 0 0 21669.6 49976.4" />
<path d="M12072.8 49779.6 A196.85 196.85 0.0 0 0 12269.6 49976.4" />
<path d="M14631.9 49976.4 A196.85 196.85 0.0 0 0 14828.7 49779.6" />
<path d="M14828 49779
L14828 43084
" />
<path d="M24228.7 43084.8 A196.85 196.85 0.0 0 0 24031.9 42887.9" />
<path d="M21669 49976
L24031 49976
" />
<path d="M12269 49976
L14631 49976
" />
<path d="M21669 42887
L24031 42887
" />
<path d="M18200.8 15243.6 A196.85 196.85 0.0 0 0 18397.6 15440.4" />
<path d="M23515.7 15440.4 A196.85 196.85 0.0 0 0 23712.6 15243.6" />
<path d="M18397 15440
L23515 15440
" />
<path d="M18397 9928
L23515 9928
" />
<path d="M18397.6 9928.62 A196.85 196.85 0.0 0 0 18200.8 10125.5" />
<path d="M23712 10125
L23712 15243
" />
<path d="M18200 10125
L18200 15243
" />
<path d="M23712.6 10125.5 A196.85 196.85 0.0 0 0 23515.7 9928.62" />
<path d="M89915.1 14930.6 A196.85 196.85 0.0 0 0 90112 15127.5" />
<path d="M89915 14930
L89915 10437
" />
<path d="M88980.5 14190 A196.85 196.85 0.0 0 0 89177.3 13993.2" />
<path d="M90112 10240.6 A196.85 196.85 0.0 0 0 89915.1 10437.5" />
<path d="M89177 13993
L89177 11374
" />
<path d="M92105.3 14190 A196.85 196.85 0.0 0 0 92302.1 13993.2" />
<path d="M89177.3 11374.9 A196.85 196.85 0.0 0 0 88980.5 11178.1" />
<path d="M88549 14190
L88980 14190
" />
<path d="M88352 13993
L88352 11374
" />
<path d="M91674 11178
L92105 11178
" />
<path d="M91674 14190
L92105 14190
" />
<path d="M91477 13993
L91477 11374
" />
<path d="M91674.4 11178.1 A196.85 196.85 0.0 0 0 91477.5 11374.9" />
<path d="M90111 10240
L90542 10240
" />
<path d="M91477.5 13993.2 A196.85 196.85 0.0 0 0 91674.4 14190" />
<path d="M90542.9 15127.5 A196.85 196.85 0.0 0 0 90739.7 14930.6" />
<path d="M88352.7 13993.2 A196.85 196.85 0.0 0 0 88549.6 14190" />
<path d="M90111 15127
L90542 15127
" />
<path d="M88549.6 11178.1 A196.85 196.85 0.0 0 0 88352.7 11374.9" />
<path d="M88549 11178
L88980 11178
" />
<path d="M90739.7 10437.5 A196.85 196.85 0.0 0 0 90542.9 10240.6" />
<path d="M90739 14930
L90739 10437
" />
<path d="M92302.1 11374.9 A196.85 196.85 0.0 0 0 92105.3 11178.1" />
<path d="M92302 13993
L92302 11374
" />
<path d="M56795 15127.5 A196.85 196.85 0.0 0 0 56991.9 14930.6" />
<path d="M54801 14190
L55232 14190
" />
<path d="M56364 10240
L56795 10240
" />
<path d="M56167.3 14930.6 A196.85 196.85 0.0 0 0 56364.1 15127.5" />
<path d="M54604 13993
L54604 11374
" />
<path d="M54801.7 11178.1 A196.85 196.85 0.0 0 0 54604.9 11374.9" />
<path d="M56991.9 10437.5 A196.85 196.85 0.0 0 0 56795 10240.6" />
<path d="M56167 14930
L56167 10437
" />
<path d="M56991 14930
L56991 10437
" />
<path d="M56364.1 10240.6 A196.85 196.85 0.0 0 0 56167.3 10437.5" />
<path d="M55232.6 14190 A196.85 196.85 0.0 0 0 55429.5 13993.2" />
<path d="M54801 11178
L55232 11178
" />
<path d="M54604.9 13993.2 A196.85 196.85 0.0 0 0 54801.7 14190" />
<path d="M55429.5 11374.9 A196.85 196.85 0.0 0 0 55232.6 11178.1" />
<path d="M55429 13993
L55429 11374
" />
<path d="M56364 15127
L56795 15127
" />
<path d="M57926 14190
L58357 14190
" />
<path d="M57729 13993
L57729 11374
" />
<path d="M57926 11178
L58357 11178
" />
<path d="M57729.7 13993.2 A196.85 196.85 0.0 0 0 57926.5 14190" />
<path d="M58554.3 11374.9 A196.85 196.85 0.0 0 0 58357.4 11178.1" />
<path d="M58357.4 14190 A196.85 196.85 0.0 0 0 58554.3 13993.2" />
<path d="M57926.5 11178.1 A196.85 196.85 0.0 0 0 57729.7 11374.9" />
<path d="M58554 13993
L58554 11374
" />
<path d="M93861 56687
L94292 56687
" />
<path d="M94292.7 56687.4 A196.85 196.85 0.0 0 0 94489.5 56490.5" />
<path d="M93664.9 56490.5 A196.85 196.85 0.0 0 0 93861.8 56687.4" />
<path d="M93861 51175
L94292 51175
" />
<path d="M94489.5 51372.4 A196.85 196.85 0.0 0 0 94292.7 51175.6" />
<path d="M94489 56490
L94489 51372
" />
<path d="M93664 56490
L93664 51372
" />
<path d="M93861.8 51175.6 A196.85 196.85 0.0 0 0 93664.9 51372.4" />
<path d="M103863 56490
L103863 51372
" />
<path d="M103864 51372.4 A196.85 196.85 0.0 0 0 103667 51175.6" />
<path d="M103236 56687
L103667 56687
" />
<path d="M103667 56687.4 A196.85 196.85 0.0 0 0 103864 56490.5" />
<path d="M103236 51175.6 A196.85 196.85 0.0 0 0 103039 51372.4" />
<path d="M103039 56490.5 A196.85 196.85 0.0 0 0 103236 56687.4" />
<path d="M103039 56490
L103039 51372
" />
<path d="M103236 51175
L103667 51175
" />
<path d="M112610 51175
L113041 51175
" />
<path d="M112414 56490.5 A196.85 196.85 0.0 0 0 112611 56687.4" />
<path d="M112413 56490
L112413 51372
" />
<path d="M113238 51372.4 A196.85 196.85 0.0 0 0 113041 51175.6" />
<path d="M112610 56687
L113041 56687
" />
<path d="M113238 56490
L113238 51372
" />
<path d="M112611 51175.6 A196.85 196.85 0.0 0 0 112414 51372.4" />
<path d="M113041 56687.4 A196.85 196.85 0.0 0 0 113238 56490.5" />
<path d="M38046.2 56687.4 A196.85 196.85 0.0 0 0 38243.1 56490.5" />
<path d="M37418 56490
L37418 51372
" />
<path d="M37615 51175
L38046 51175
" />
<path d="M37615 56687
L38046 56687
" />
<path d="M38243 56490
L38243 51372
" />
<path d="M37418.4 56490.5 A196.85 196.85 0.0 0 0 37615.3 56687.4" />
<path d="M38243.1 51372.4 A196.85 196.85 0.0 0 0 38046.2 51175.6" />
<path d="M37615.3 51175.6 A196.85 196.85 0.0 0 0 37418.4 51372.4" />
<path d="M28671.8 56687.4 A196.85 196.85 0.0 0 0 28868.6 56490.5" />
<path d="M28240 51175
L28671 51175
" />
<path d="M28868 56490
L28868 51372
" />
<path d="M28240 56687
L28671 56687
" />
<path d="M28044 56490.5 A196.85 196.85 0.0 0 0 28240.9 56687.4" />
<path d="M28868.6 51372.4 A196.85 196.85 0.0 0 0 28671.8 51175.6" />
<path d="M28240.9 51175.6 A196.85 196.85 0.0 0 0 28044 51372.4" />
<path d="M28044 56490
L28044 51372
" />
<path d="M19494.2 51372.4 A196.85 196.85 0.0 0 0 19297.4 51175.6" />
<path d="M18669 56490
L18669 51372
" />
<path d="M19297.4 56687.4 A196.85 196.85 0.0 0 0 19494.2 56490.5" />
<path d="M18866 56687
L19297 56687
" />
<path d="M18669.6 56490.5 A196.85 196.85 0.0 0 0 18866.5 56687.4" />
<path d="M18866 51175
L19297 51175
" />
<path d="M19494 56490
L19494 51372
" />
<path d="M18866.5 51175.6 A196.85 196.85 0.0 0 0 18669.6 51372.4" />
<path d="M8554 19189
L8985 19189
" />
<path d="M8357 18992
L8357 17624
" />
<path d="M8554.63 17427.7 A196.85 196.85 0.0 0 0 8357.78 17624.5" />
<path d="M8985.53 19189.7 A196.85 196.85 0.0 0 0 9182.38 18992.9" />
<path d="M8554 17427
L8985 17427
" />
<path d="M8357.78 18992.9 A196.85 196.85 0.0 0 0 8554.63 19189.7" />
<path d="M9182.38 17624.5 A196.85 196.85 0.0 0 0 8985.53 17427.7" />
<path d="M9182 18992
L9182 17624
" />
<path d="M6641.93 19189.7 A196.85 196.85 0.0 0 0 6838.78 18992.9" />
<path d="M1326.97 18992.9 A196.85 196.85 0.0 0 0 1523.82 19189.7" />
<path d="M6838.78 17624.5 A196.85 196.85 0.0 0 0 6641.93 17427.7" />
<path d="M1523.82 17427.7 A196.85 196.85 0.0 0 0 1326.97 17624.5" />
<path d="M6838 18992
L6838 17624
" />
<path d="M1326 18992
L1326 17624
" />
<path d="M1523 19189
L6641 19189
" />
<path d="M1523 17427
L6641 17427
" />
<path d="M121855 36375 A196.85 196.85 0.0 0 0 121658 36178.1" />
<path d="M121658 41690 A196.85 196.85 0.0 0 0 121855 41493.1" />
<path d="M121068 41493.1 A196.85 196.85 0.0 0 0 121265 41690" />
<path d="M121067 36375
L121067 41493
" />
<path d="M121264 41689
L121658 41689
" />
<path d="M121264 36178
L121658 36178
" />
<path d="M121265 36178.1 A196.85 196.85 0.0 0 0 121068 36375" />
<path d="M121855 36375
L121855 41493
" />
<path d="M105881 36178.1 A196.85 196.85 0.0 0 0 105684 36375" />
<path d="M105684 36375
L105684 41493
" />
<path d="M105684 41493.1 A196.85 196.85 0.0 0 0 105881 41690" />
<path d="M106275 41690 A196.85 196.85 0.0 0 0 106472 41493.1" />
<path d="M106472 36375 A196.85 196.85 0.0 0 0 106275 36178.1" />
<path d="M105881 36178
L106274 36178
" />
<path d="M105881 41689
L106274 41689
" />
<path d="M106471 36375
L106471 41493
" />
<path d="M119505 43874
L119505 48992
" />
<path d="M119505 48992.6 A196.85 196.85 0.0 0 0 119702 49189.5" />
<path d="M119702 43677.7 A196.85 196.85 0.0 0 0 119505 43874.5" />
<path d="M120293 43874.5 A196.85 196.85 0.0 0 0 120096 43677.7" />
<path d="M120292 43874
L120292 48992
" />
<path d="M119702 43677
L120096 43677
" />
<path d="M119702 49189
L120096 49189
" />
<path d="M120096 49189.5 A196.85 196.85 0.0 0 0 120293 48992.6" />
<path d="M104284 43874.5 A196.85 196.85 0.0 0 0 104088 43677.7" />
<path d="M103497 48992.6 A196.85 196.85 0.0 0 0 103694 49189.5" />
<path d="M103693 49189
L104087 49189
" />
<path d="M103694 43677.7 A196.85 196.85 0.0 0 0 103497 43874.5" />
<path d="M103497 43874
L103497 48992
" />
<path d="M104284 43874
L104284 48992
" />
<path d="M103693 43677
L104087 43677
" />
<path d="M104088 49189.5 A196.85 196.85 0.0 0 0 104284 48992.6" />
<path d="M8554.63 9928.15 A196.85 196.85 0.0 0 0 8357.78 10125" />
<path d="M9182 15243
L9182 10125
" />
<path d="M9182.38 10125 A196.85 196.85 0.0 0 0 8985.53 9928.15" />
<path d="M8357 15243
L8357 10125
" />
<path d="M8985.53 15440 A196.85 196.85 0.0 0 0 9182.38 15243.1" />
<path d="M8357.78 15243.1 A196.85 196.85 0.0 0 0 8554.63 15440" />
<path d="M8554 9928
L8985 9928
" />
<path d="M8554 15439
L8985 15439
" />
<path d="M114651 43874.1 A196.85 196.85 0.0 0 0 114454 43677.2" />
<path d="M79773.6 50385.6 A196.85 196.85 0.0 0 0 79576.8 50582.4" />
<path d="M82332.7 50582.4 A196.85 196.85 0.0 0 0 82135.8 50385.6" />
<path d="M82135 50385
L79773 50385
" />
<path d="M40403.5 50385.6 A196.85 196.85 0.0 0 0 40206.7 50582.4" />
<path d="M42962.6 50582.4 A196.85 196.85 0.0 0 0 42765.7 50385.6" />
<path d="M42765 50385
L40403 50385
" />
<path d="M15591 43677
L20709 43677
" />
<path d="M20906 43874
L20906 48992
" />
<path d="M20906.7 43874.1 A196.85 196.85 0.0 0 0 20709.8 43677.2" />
<path d="M20709.8 49189 A196.85 196.85 0.0 0 0 20906.7 48992.2" />
<path d="M15394.8 48992.2 A196.85 196.85 0.0 0 0 15591.7 49189" />
<path d="M15394 43874
L15394 48992
" />
<path d="M15591.7 43677.2 A196.85 196.85 0.0 0 0 15394.8 43874.1" />
<path d="M15591 49189
L20709 49189
" />
<path d="M106014 42887.9 A196.85 196.85 0.0 0 0 105817 43084.8" />
<path d="M106013 42887
L108375 42887
" />
<path d="M108573 43084.8 A196.85 196.85 0.0 0 0 108376 42887.9" />
<path d="M109336 43677.2 A196.85 196.85 0.0 0 0 109139 43874.1" />
<path d="M117972 43084
L117972 49779
" />
<path d="M109139 48992.2 A196.85 196.85 0.0 0 0 109336 49189" />
<path d="M109335 49189
L114453 49189
" />
<path d="M109138 43874
L109138 48992
" />
<path d="M115216 43084
L115216 49779
" />
<path d="M117776 49976.4 A196.85 196.85 0.0 0 0 117973 49779.6" />
<path d="M115414 42887.9 A196.85 196.85 0.0 0 0 115217 43084.8" />
<path d="M105816 49779
L105816 43084
" />
<path d="M115217 49779.6 A196.85 196.85 0.0 0 0 115414 49976.4" />
<path d="M105817 49779.6 A196.85 196.85 0.0 0 0 106014 49976.4" />
<path d="M108376 49976.4 A196.85 196.85 0.0 0 0 108573 49779.6" />
<path d="M108572 49779
L108572 43084
" />
<path d="M114454 49189 A196.85 196.85 0.0 0 0 114651 48992.2" />
<path d="M109335 43677
L114453 43677
" />
<path d="M117973 43084.8 A196.85 196.85 0.0 0 0 117776 42887.9" />
<path d="M115413 49976
L117775 49976
" />
<path d="M106013 49976
L108375 49976
" />
<path d="M115413 42887
L117775 42887
" />
<path d="M114650 43874
L114650 48992
" />
<path d="M107888 42476
L110250 42476
" />
<path d="M110251 42476.9 A196.85 196.85 0.0 0 0 110448 42280" />
<path d="M107692 42280 A196.85 196.85 0.0 0 0 107889 42476.9" />
<path d="M107889 35388.4 A196.85 196.85 0.0 0 0 107692 35585.2" />
<path d="M107691 42280
L107691 35585
" />
<path d="M107888 35388
L110250 35388
" />
<path d="M110447 42280
L110447 35585
" />
<path d="M110448 35585.2 A196.85 196.85 0.0 0 0 110251 35388.4" />
<path d="M117289 35388.4 A196.85 196.85 0.0 0 0 117092 35585.2" />
<path d="M119848 35585.2 A196.85 196.85 0.0 0 0 119651 35388.4" />
<path d="M117288 35388
L119650 35388
" />
<path d="M116526 36374.5 A196.85 196.85 0.0 0 0 116329 36177.7" />
<path d="M111211 36177.7 A196.85 196.85 0.0 0 0 111014 36374.5" />
<path d="M111210 41689
L116328 41689
" />
<path d="M117288 42476
L119650 42476
" />
<path d="M117091 35585
L117091 42280
" />
<path d="M116525 36374
L116525 41492
" />
<path d="M111013 36374
L111013 41492
" />
<path d="M111014 41492.6 A196.85 196.85 0.0 0 0 111211 41689.5" />
<path d="M119847 35585
L119847 42280
" />
<path d="M116329 41689.5 A196.85 196.85 0.0 0 0 116526 41492.6" />
<path d="M117092 42280 A196.85 196.85 0.0 0 0 117289 42476.9" />
<path d="M111210 36177
L116328 36177
" />
<path d="M119651 42476.9 A196.85 196.85 0.0 0 0 119848 42280" />
<path d="M118226 20389
L120588 20389
" />
<path d="M118226 20389.3 A196.85 196.85 0.0 0 0 118029 20586.2" />
<path d="M120785 20586.2 A196.85 196.85 0.0 0 0 120588 20389.3" />
<path d="M108826 20389
L111188 20389
" />
<path d="M111385 27280
L111385 20586
" />
<path d="M108629 27280
L108629 20586
" />
<path d="M108826 20389.3 A196.85 196.85 0.0 0 0 108629 20586.2" />
<path d="M111385 20586.2 A196.85 196.85 0.0 0 0 111188 20389.3" />
<path d="M134648 15441
L139766 15441
" />
<path d="M134451 15244.3 A196.85 196.85 0.0 0 0 134648 15441.1" />
<path d="M134648 9929.33 A196.85 196.85 0.0 0 0 134451 10126.2" />
<path d="M134648 9929
L139766 9929
" />
<path d="M139963 10126
L139963 15244
" />
<path d="M139766 15441.1 A196.85 196.85 0.0 0 0 139963 15244.3" />
<path d="M139963 10126.2 A196.85 196.85 0.0 0 0 139766 9929.33" />
<path d="M134451 10126
L134451 15244
" />
<path d="M9182 56490
L9182 21374
" />
<path d="M9182.38 21374.3 A196.85 196.85 0.0 0 0 8985.53 21177.4" />
<path d="M8554 21177
L8985 21177
" />
<path d="M8357 56490
L8357 21374
" />
<path d="M8554.63 21177.4 A196.85 196.85 0.0 0 0 8357.78 21374.3" />
<path d="M8357.78 56490.5 A196.85 196.85 0.0 0 0 8554.63 56687.4" />
<path d="M8554 56687
L8985 56687
" />
<path d="M8985.53 56687.4 A196.85 196.85 0.0 0 0 9182.38 56490.5" />
<path d="M142148 43679
L147266 43679
" />
<path d="M141951 48994.1 A196.85 196.85 0.0 0 0 142148 49190.9" />
<path d="M141951 43875
L141951 48994
" />
<path d="M147463 43875.9 A196.85 196.85 0.0 0 0 147266 43679.1" />
<path d="M147266 49190.9 A196.85 196.85 0.0 0 0 147463 48994.1" />
<path d="M147463 43875
L147463 48994
" />
<path d="M142148 49190
L147266 49190
" />
<path d="M142148 43679.1 A196.85 196.85 0.0 0 0 141951 43875.9" />
<path d="M127148 28678.1 A196.85 196.85 0.0 0 0 126951 28875" />
<path d="M141951 33993.1 A196.85 196.85 0.0 0 0 142148 34190" />
<path d="M126951 33993.1 A196.85 196.85 0.0 0 0 127148 34190" />
<path d="M132266 34190 A196.85 196.85 0.0 0 0 132463 33993.1" />
<path d="M142148 34189
L147266 34189
" />
<path d="M134648 34189
L139766 34189
" />
<path d="M134451 33993.1 A196.85 196.85 0.0 0 0 134648 34190" />
<path d="M134648 28678.1 A196.85 196.85 0.0 0 0 134451 28875" />
<path d="M134648 28678
L139766 28678
" />
<path d="M142148 28678.1 A196.85 196.85 0.0 0 0 141951 28875" />
<path d="M139963 28875
L139963 33993
" />
<path d="M147463 28875 A196.85 196.85 0.0 0 0 147266 28678.1" />
<path d="M127148 34189
L132266 34189
" />
<path d="M132463 28875
L132463 33993
" />
<path d="M142148 28678
L147266 28678
" />
<path d="M141951 28875
L141951 33993
" />
<path d="M147266 34190 A196.85 196.85 0.0 0 0 147463 33993.1" />
<path d="M132463 28875 A196.85 196.85 0.0 0 0 132266 28678.1" />
<path d="M139766 34190 A196.85 196.85 0.0 0 0 139963 33993.1" />
<path d="M139963 28875 A196.85 196.85 0.0 0 0 139766 28678.1" />
<path d="M147463 28875
L147463 33993
" />
<path d="M134451 28875
L134451 33993
" />
<path d="M127148 28678
L132266 28678
" />
<path d="M126951 28875
L126951 33993
" />
<path d="M123391 19189
L124759 19189
" />
<path d="M123391 17427
L124759 17427
" />
<path d="M124956 18992
L124956 17624
" />
<path d="M123194 18992
L123194 17624
" />
<path d="M123194 18992.9 A196.85 196.85 0.0 0 0 123391 19189.7" />
<path d="M124956 17624.5 A196.85 196.85 0.0 0 0 124759 17427.7" />
<path d="M123391 17427.7 A196.85 196.85 0.0 0 0 123194 17624.5" />
<path d="M124759 19189.7 A196.85 196.85 0.0 0 0 124956 18992.9" />
<path d="M147453 18992
L147453 17623
" />
<path d="M126942 18992
L126942 17623
" />
<path d="M147256 17426
L127139 17426
" />
<path d="M147256 19189
L127139 19189
" />
<path d="M147257 19189 A196.85 196.85 0.0 0 0 147454 18992.2" />
<path d="M127140 17427 A196.85 196.85 0.0 0 0 126943 17623.8" />
<path d="M126943 18992.2 A196.85 196.85 0.0 0 0 127140 19189" />
<path d="M147454 17623.8 A196.85 196.85 0.0 0 0 147257 17427" />
<path d="M123391 56687
L124759 56687
" />
<path d="M123391 21177
L124759 21177
" />
<path d="M124956 56490
L124956 21374
" />
<path d="M123194 56490
L123194 21374
" />
<path d="M123194 56490.5 A196.85 196.85 0.0 0 0 123391 56687.4" />
<path d="M124956 21374.3 A196.85 196.85 0.0 0 0 124759 21177.4" />
<path d="M123391 21177.4 A196.85 196.85 0.0 0 0 123194 21374.3" />
<path d="M124759 56687.4 A196.85 196.85 0.0 0 0 124956 56490.5" />
<path d="M123391 9928.15 A196.85 196.85 0.0 0 0 123194 10125" />
<path d="M123391 9928
L124759 9928
" />
<path d="M124956 15243
L124956 10125
" />
<path d="M123194 15243
L123194 10125
" />
<path d="M124956 10125 A196.85 196.85 0.0 0 0 124759 9928.15" />
<path d="M123391 15439
L124759 15439
" />
<path d="M123194 15243.1 A196.85 196.85 0.0 0 0 123391 15440" />
<path d="M124759 15440 A196.85 196.85 0.0 0 0 124956 15243.1" />
<path d="M10700 17625
L10700 18994
" />
<path d="M121205 17625
L121205 18994
" />
<path d="M10897.5 17428.9 A196.85 196.85 0.0 0 0 10700.7 17625.7" />
<path d="M10897 17428
L121009 17428
" />
<path d="M10700.7 18994.1 A196.85 196.85 0.0 0 0 10897.5 19190.9" />
<path d="M10897 19190
L121009 19190
" />
<path d="M121206 17625.7 A196.85 196.85 0.0 0 0 121009 17428.9" />
<path d="M121009 19190.9 A196.85 196.85 0.0 0 0 121206 18994.1" />
<path d="M6641.22 15440.4 A196.85 196.85 0.0 0 0 6838.07 15243.6" />
<path d="M6838 10125
L6838 15243
" />
<path d="M1326 10125
L1326 15243
" />
<path d="M1523 15440
L6641 15440
" />
<path d="M1523.11 9928.62 A196.85 196.85 0.0 0 0 1326.26 10125.5" />
<path d="M1523 9928
L6641 9928
" />
<path d="M1326.26 15243.6 A196.85 196.85 0.0 0 0 1523.11 15440.4" />
<path d="M6838.07 10125.5 A196.85 196.85 0.0 0 0 6641.22 9928.62" />
<path d="M77802 55314
L65728 55314
" />
<path d="M77999 52755
L77999 55117
" />
<path d="M65531.7 55117.9 A196.85 196.85 0.0 0 0 65728.5 55314.7" />
<path d="M77802.4 55314.7 A196.85 196.85 0.0 0 0 77999.3 55117.9" />
<path d="M65728.5 52558.8 A196.85 196.85 0.0 0 0 65531.7 52755.6" />
<path d="M65531 55117
L65531 52755
" />
<path d="M77999.3 52755.6 A196.85 196.85 0.0 0 0 77802.4 52558.8" />
<path d="M77802 52558
L65728 52558
" />
<path d="M11835 41691
L18828 41690
" />
<path d="M11835 36179
L18828 36178
" />
<path d="M11835.6 36179.6 A196.85 196.85 0.0 0 0 11638.8 36376.4" />
<path d="M11638 36376
L11638 41494
" />
<path d="M11638.8 41494.5 A196.85 196.85 0.0 0 0 11835.6 41691.4" />
<path d="M56803.1 55304.6 A196.85 196.85 0.0 0 0 57000 55107.7" />
<path d="M57000 52745.5 A196.85 196.85 0.0 0 0 56803.1 52548.7" />
<path d="M44729.2 52548.7 A196.85 196.85 0.0 0 0 44532.4 52745.5" />
<path d="M44532.4 55107.7 A196.85 196.85 0.0 0 0 44729.2 55304.6" />
<path d="M44729 55304
L56803 55304
" />
<path d="M44532 55107
L44532 52745
" />
<path d="M44729 52548
L56803 52548
" />
<path d="M56999 52745
L56999 55107
" />
<path d="M147266 56690.4 A196.85 196.85 0.0 0 0 147463 56493.6" />
<path d="M141951 56493.6 A196.85 196.85 0.0 0 0 142148 56690.4" />
<path d="M147463 51375.5 A196.85 196.85 0.0 0 0 147266 51178.6" />
<path d="M142148 51178.6 A196.85 196.85 0.0 0 0 141951 51375.5" />
<path d="M147463 51375
L147463 56493
" />
<path d="M141951 51375
L141951 56493
" />
<path d="M142148 56690
L147266 56690
" />
<path d="M142148 51178
L147266 51178
" />
<path d="M139766 56690.4 A196.85 196.85 0.0 0 0 139963 56493.6" />
<path d="M134451 56493.6 A196.85 196.85 0.0 0 0 134648 56690.4" />
<path d="M139963 51375.5 A196.85 196.85 0.0 0 0 139766 51178.6" />
<path d="M134648 51178.6 A196.85 196.85 0.0 0 0 134451 51375.5" />
<path d="M139963 51375
L139963 56493
" />
<path d="M134451 51375
L134451 56493
" />
<path d="M134648 56690
L139766 56690
" />
<path d="M134648 51178
L139766 51178
" />
<path d="M132266 56690.4 A196.85 196.85 0.0 0 0 132463 56493.6" />
<path d="M126951 56493.6 A196.85 196.85 0.0 0 0 127148 56690.4" />
<path d="M132463 51375.5 A196.85 196.85 0.0 0 0 132266 51178.6" />
<path d="M127148 51178.6 A196.85 196.85 0.0 0 0 126951 51375.5" />
<path d="M132463 51375
L132463 56493
" />
<path d="M126951 51375
L126951 56493
" />
<path d="M127148 56690
L132266 56690
" />
<path d="M127148 51178
L132266 51178
" />
<path d="M120079 56690.4 A196.85 196.85 0.0 0 0 120276 56493.6" />
<path d="M114764 56493.6 A196.85 196.85 0.0 0 0 114961 56690.4" />
<path d="M120276 51375.5 A196.85 196.85 0.0 0 0 120079 51178.6" />
<path d="M114961 51178.6 A196.85 196.85 0.0 0 0 114764 51375.5" />
<path d="M120275 51375
L120275 56493
" />
<path d="M114763 51375
L114763 56493
" />
<path d="M114960 56690
L120078 56690
" />
<path d="M114960 51178
L120078 51178
" />
<path d="M110704 56690.4 A196.85 196.85 0.0 0 0 110901 56493.6" />
<path d="M105389 56493.6 A196.85 196.85 0.0 0 0 105586 56690.4" />
<path d="M110901 51375.5 A196.85 196.85 0.0 0 0 110704 51178.6" />
<path d="M105586 51178.6 A196.85 196.85 0.0 0 0 105389 51375.5" />
<path d="M110900 51375
L110900 56493
" />
<path d="M105388 51375
L105388 56493
" />
<path d="M105585 56690
L110703 56690
" />
<path d="M105585 51178
L110703 51178
" />
<path d="M101329 56690.4 A196.85 196.85 0.0 0 0 101526 56493.6" />
<path d="M96013.8 56493.6 A196.85 196.85 0.0 0 0 96210.6 56690.4" />
<path d="M101526 51375.5 A196.85 196.85 0.0 0 0 101329 51178.6" />
<path d="M96210.6 51178.6 A196.85 196.85 0.0 0 0 96013.8 51375.5" />
<path d="M101525 51375
L101525 56493
" />
<path d="M96013 51375
L96013 56493
" />
<path d="M96210 56690
L101328 56690
" />
<path d="M96210 51178
L101328 51178
" />
<path d="M91953.7 56690.4 A196.85 196.85 0.0 0 0 92150.6 56493.6" />
<path d="M86638.8 56493.6 A196.85 196.85 0.0 0 0 86835.6 56690.4" />
<path d="M92150.6 51375.5 A196.85 196.85 0.0 0 0 91953.7 51178.6" />
<path d="M86835.6 51178.6 A196.85 196.85 0.0 0 0 86638.8 51375.5" />
<path d="M92150 51375
L92150 56493
" />
<path d="M86638 51375
L86638 56493
" />
<path d="M86835 56690
L91953 56690
" />
<path d="M86835 51178
L91953 51178
" />
<path d="M42962 50582
L42962 57280
" />
<path d="M40206 50582
L40206 57280
" />
<path d="M82332 50582
L82332 57280
" />
<path d="M79576 50582
L79576 57280
" />
<path d="M63828.7 56690.4 A196.85 196.85 0.0 0 0 64025.6 56493.6" />
<path d="M58513.8 56493.6 A196.85 196.85 0.0 0 0 58710.6 56690.4" />
<path d="M64025.6 51375.5 A196.85 196.85 0.0 0 0 63828.7 51178.6" />
<path d="M58710.6 51178.6 A196.85 196.85 0.0 0 0 58513.8 51375.5" />
<path d="M64025 51375
L64025 56493
" />
<path d="M58513 51375
L58513 56493
" />
<path d="M58710 56690
L63828 56690
" />
<path d="M58710 51178
L63828 51178
" />
<path d="M35703.7 56690.4 A196.85 196.85 0.0 0 0 35900.6 56493.6" />
<path d="M30388.8 56493.6 A196.85 196.85 0.0 0 0 30585.6 56690.4" />
<path d="M35900.6 51375.5 A196.85 196.85 0.0 0 0 35703.7 51178.6" />
<path d="M30585.6 51178.6 A196.85 196.85 0.0 0 0 30388.8 51375.5" />
<path d="M35900 51375
L35900 56493
" />
<path d="M30388 51375
L30388 56493
" />
<path d="M30585 56690
L35703 56690
" />
<path d="M30585 51178
L35703 51178
" />
<path d="M26328.7 56690.4 A196.85 196.85 0.0 0 0 26525.6 56493.6" />
<path d="M21013.8 56493.6 A196.85 196.85 0.0 0 0 21210.6 56690.4" />
<path d="M26525.6 51375.5 A196.85 196.85 0.0 0 0 26328.7 51178.6" />
<path d="M21210.6 51178.6 A196.85 196.85 0.0 0 0 21013.8 51375.5" />
<path d="M26525 51375
L26525 56493
" />
<path d="M21013 51375
L21013 56493
" />
<path d="M21210 56690
L26328 56690
" />
<path d="M21210 51178
L26328 51178
" />
<path d="M16953.7 56690.4 A196.85 196.85 0.0 0 0 17150.6 56493.6" />
<path d="M11638.8 56493.6 A196.85 196.85 0.0 0 0 11835.6 56690.4" />
<path d="M17150.6 51375.5 A196.85 196.85 0.0 0 0 16953.7 51178.6" />
<path d="M11835.6 51178.6 A196.85 196.85 0.0 0 0 11638.8 51375.5" />
<path d="M17150 51375
L17150 56493
" />
<path d="M11638 51375
L11638 56493
" />
<path d="M11835 56690
L16953 56690
" />
<path d="M11835 51178
L16953 51178
" />
<path d="M6641.22 56690.4 A196.85 196.85 0.0 0 0 6838.07 56493.6" />
<path d="M1326.26 56493.6 A196.85 196.85 0.0 0 0 1523.11 56690.4" />
<path d="M6838.07 51375.5 A196.85 196.85 0.0 0 0 6641.22 51178.6" />
<path d="M1523.11 51178.6 A196.85 196.85 0.0 0 0 1326.26 51375.5" />
<path d="M6838 51375
L6838 56493
" />
<path d="M1326 51375
L1326 56493
" />
<path d="M1523 56690
L6641 56690
" />
<path d="M1523 51178
L6641 51178
" />
<path d="M139766 49190.4 A196.85 196.85 0.0 0 0 139963 48993.6" />
<path d="M134451 48993.6 A196.85 196.85 0.0 0 0 134648 49190.4" />
<path d="M139963 43875.5 A196.85 196.85 0.0 0 0 139766 43678.6" />
<path d="M134648 43678.6 A196.85 196.85 0.0 0 0 134451 43875.5" />
<path d="M139963 43875
L139963 48993
" />
<path d="M134451 43875
L134451 48993
" />
<path d="M134648 49190
L139766 49190
" />
<path d="M134648 43678
L139766 43678
" />
<path d="M100391 49190.4 A196.85 196.85 0.0 0 0 100588 48993.6" />
<path d="M95076.3 48993.6 A196.85 196.85 0.0 0 0 95273.1 49190.4" />
<path d="M100588 43875.5 A196.85 196.85 0.0 0 0 100391 43678.6" />
<path d="M95273.1 43678.6 A196.85 196.85 0.0 0 0 95076.3 43875.5" />
<path d="M100588 43875
L100588 48993
" />
<path d="M95076 43875
L95076 48993
" />
<path d="M95273 49190
L100391 49190
" />
<path d="M95273 43678
L100391 43678
" />
<path d="M92891.2 49190.4 A196.85 196.85 0.0 0 0 93088.1 48993.6" />
<path d="M87576.3 48993.6 A196.85 196.85 0.0 0 0 87773.1 49190.4" />
<path d="M93088.1 43875.5 A196.85 196.85 0.0 0 0 92891.2 43678.6" />
<path d="M87773.1 43678.6 A196.85 196.85 0.0 0 0 87576.3 43875.5" />
<path d="M93088 43875
L93088 48993
" />
<path d="M87576 43875
L87576 48993
" />
<path d="M87773 49190
L92891 49190
" />
<path d="M87773 43678
L92891 43678
" />
<path d="M85391.2 49190.4 A196.85 196.85 0.0 0 0 85588.1 48993.6" />
<path d="M80076.3 48993.6 A196.85 196.85 0.0 0 0 80273.1 49190.4" />
<path d="M85588.1 43875.5 A196.85 196.85 0.0 0 0 85391.2 43678.6" />
<path d="M80273.1 43678.6 A196.85 196.85 0.0 0 0 80076.3 43875.5" />
<path d="M85588 43875
L85588 48993
" />
<path d="M80076 43875
L80076 48993
" />
<path d="M80273 49190
L85391 49190
" />
<path d="M80273 43678
L85391 43678
" />
<path d="M77891.2 49190.4 A196.85 196.85 0.0 0 0 78088.1 48993.6" />
<path d="M72576.3 48993.6 A196.85 196.85 0.0 0 0 72773.1 49190.4" />
<path d="M78088.1 43875.5 A196.85 196.85 0.0 0 0 77891.2 43678.6" />
<path d="M72773.1 43678.6 A196.85 196.85 0.0 0 0 72576.3 43875.5" />
<path d="M78088 43875
L78088 48993
" />
<path d="M72576 43875
L72576 48993
" />
<path d="M72773 49190
L77891 49190
" />
<path d="M72773 43678
L77891 43678
" />
<path d="M70391.2 49190.4 A196.85 196.85 0.0 0 0 70588.1 48993.6" />
<path d="M65076.3 48993.6 A196.85 196.85 0.0 0 0 65273.1 49190.4" />
<path d="M70588.1 43875.5 A196.85 196.85 0.0 0 0 70391.2 43678.6" />
<path d="M65273.1 43678.6 A196.85 196.85 0.0 0 0 65076.3 43875.5" />
<path d="M70588 43875
L70588 48993
" />
<path d="M65076 43875
L65076 48993
" />
<path d="M65273 49190
L70391 49190
" />
<path d="M65273 43678
L70391 43678
" />
<path d="M62891.2 49190.4 A196.85 196.85 0.0 0 0 63088.1 48993.6" />
<path d="M57576.3 48993.6 A196.85 196.85 0.0 0 0 57773.1 49190.4" />
<path d="M63088.1 43875.5 A196.85 196.85 0.0 0 0 62891.2 43678.6" />
<path d="M57773.1 43678.6 A196.85 196.85 0.0 0 0 57576.3 43875.5" />
<path d="M63088 43875
L63088 48993
" />
<path d="M57576 43875
L57576 48993
" />
<path d="M57773 49190
L62891 49190
" />
<path d="M57773 43678
L62891 43678
" />
<path d="M55391.2 49190.4 A196.85 196.85 0.0 0 0 55588.1 48993.6" />
<path d="M50076.3 48993.6 A196.85 196.85 0.0 0 0 50273.1 49190.4" />
<path d="M55588.1 43875.5 A196.85 196.85 0.0 0 0 55391.2 43678.6" />
<path d="M50273.1 43678.6 A196.85 196.85 0.0 0 0 50076.3 43875.5" />
<path d="M55588 43875
L55588 48993
" />
<path d="M50076 43875
L50076 48993
" />
<path d="M50273 49190
L55391 49190
" />
<path d="M50273 43678
L55391 43678
" />
<path d="M47891.2 49190.4 A196.85 196.85 0.0 0 0 48088.1 48993.6" />
<path d="M42576.3 48993.6 A196.85 196.85 0.0 0 0 42773.1 49190.4" />
<path d="M48088.1 43875.5 A196.85 196.85 0.0 0 0 47891.2 43678.6" />
<path d="M42773.1 43678.6 A196.85 196.85 0.0 0 0 42576.3 43875.5" />
<path d="M48088 43875
L48088 48993
" />
<path d="M42576 43875
L42576 48993
" />
<path d="M42773 49190
L47891 49190
" />
<path d="M42773 43678
L47891 43678
" />
<path d="M40391.2 49190.4 A196.85 196.85 0.0 0 0 40588.1 48993.6" />
<path d="M35076.3 48993.6 A196.85 196.85 0.0 0 0 35273.1 49190.4" />
<path d="M40588.1 43875.5 A196.85 196.85 0.0 0 0 40391.2 43678.6" />
<path d="M35273.1 43678.6 A196.85 196.85 0.0 0 0 35076.3 43875.5" />
<path d="M40588 43875
L40588 48993
" />
<path d="M35076 43875
L35076 48993
" />
<path d="M35273 49190
L40391 49190
" />
<path d="M35273 43678
L40391 43678
" />
<path d="M32891.2 49190.4 A196.85 196.85 0.0 0 0 33088.1 48993.6" />
<path d="M27576.3 48993.6 A196.85 196.85 0.0 0 0 27773.1 49190.4" />
<path d="M33088.1 43875.5 A196.85 196.85 0.0 0 0 32891.2 43678.6" />
<path d="M27773.1 43678.6 A196.85 196.85 0.0 0 0 27576.3 43875.5" />
<path d="M33088 43875
L33088 48993
" />
<path d="M27576 43875
L27576 48993
" />
<path d="M27773 49190
L32891 49190
" />
<path d="M27773 43678
L32891 43678
" />
<path d="M6641.22 49190.4 A196.85 196.85 0.0 0 0 6838.07 48993.6" />
<path d="M1326.26 48993.6 A196.85 196.85 0.0 0 0 1523.11 49190.4" />
<path d="M6838.07 43875.5 A196.85 196.85 0.0 0 0 6641.22 43678.6" />
<path d="M1523.11 43678.6 A196.85 196.85 0.0 0 0 1326.26 43875.5" />
<path d="M6838 43875
L6838 48993
" />
<path d="M1326 43875
L1326 48993
" />
<path d="M1523 49190
L6641 49190
" />
<path d="M1523 43678
L6641 43678
" />
<path d="M104141 41690.4 A196.85 196.85 0.0 0 0 104338 41493.6" />
<path d="M98826.3 41493.6 A196.85 196.85 0.0 0 0 99023.1 41690.4" />
<path d="M104338 36375.5 A196.85 196.85 0.0 0 0 104141 36178.6" />
<path d="M99023.1 36178.6 A196.85 196.85 0.0 0 0 98826.3 36375.5" />
<path d="M104338 36375
L104338 41493
" />
<path d="M98826 36375
L98826 41493
" />
<path d="M99023 41690
L104141 41690
" />
<path d="M99023 36178
L104141 36178
" />
<path d="M96641.2 41690.4 A196.85 196.85 0.0 0 0 96838.1 41493.6" />
<path d="M91326.3 41493.6 A196.85 196.85 0.0 0 0 91523.1 41690.4" />
<path d="M96838.1 36375.5 A196.85 196.85 0.0 0 0 96641.2 36178.6" />
<path d="M91523.1 36178.6 A196.85 196.85 0.0 0 0 91326.3 36375.5" />
<path d="M96838 36375
L96838 41493
" />
<path d="M91326 36375
L91326 41493
" />
<path d="M91523 41690
L96641 41690
" />
<path d="M91523 36178
L96641 36178
" />
<path d="M89141.2 41690.4 A196.85 196.85 0.0 0 0 89338.1 41493.6" />
<path d="M83826.3 41493.6 A196.85 196.85 0.0 0 0 84023.1 41690.4" />
<path d="M89338.1 36375.5 A196.85 196.85 0.0 0 0 89141.2 36178.6" />
<path d="M84023.1 36178.6 A196.85 196.85 0.0 0 0 83826.3 36375.5" />
<path d="M89338 36375
L89338 41493
" />
<path d="M83826 36375
L83826 41493
" />
<path d="M84023 41690
L89141 41690
" />
<path d="M84023 36178
L89141 36178
" />
<path d="M81641.2 41690.4 A196.85 196.85 0.0 0 0 81838.1 41493.6" />
<path d="M76326.3 41493.6 A196.85 196.85 0.0 0 0 76523.1 41690.4" />
<path d="M81838.1 36375.5 A196.85 196.85 0.0 0 0 81641.2 36178.6" />
<path d="M76523.1 36178.6 A196.85 196.85 0.0 0 0 76326.3 36375.5" />
<path d="M81838 36375
L81838 41493
" />
<path d="M76326 36375
L76326 41493
" />
<path d="M76523 41690
L81641 41690
" />
<path d="M76523 36178
L81641 36178
" />
<path d="M74141.2 41690.4 A196.85 196.85 0.0 0 0 74338.1 41493.6" />
<path d="M68826.3 41493.6 A196.85 196.85 0.0 0 0 69023.1 41690.4" />
<path d="M74338.1 36375.5 A196.85 196.85 0.0 0 0 74141.2 36178.6" />
<path d="M69023.1 36178.6 A196.85 196.85 0.0 0 0 68826.3 36375.5" />
<path d="M74338 36375
L74338 41493
" />
<path d="M68826 36375
L68826 41493
" />
<path d="M69023 41690
L74141 41690
" />
<path d="M69023 36178
L74141 36178
" />
<path d="M66641.2 41690.4 A196.85 196.85 0.0 0 0 66838.1 41493.6" />
<path d="M61326.3 41493.6 A196.85 196.85 0.0 0 0 61523.1 41690.4" />
<path d="M66838.1 36375.5 A196.85 196.85 0.0 0 0 66641.2 36178.6" />
<path d="M61523.1 36178.6 A196.85 196.85 0.0 0 0 61326.3 36375.5" />
<path d="M66838 36375
L66838 41493
" />
<path d="M61326 36375
L61326 41493
" />
<path d="M61523 41690
L66641 41690
" />
<path d="M61523 36178
L66641 36178
" />
<path d="M59141.2 41690.4 A196.85 196.85 0.0 0 0 59338.1 41493.6" />
<path d="M53826.3 41493.6 A196.85 196.85 0.0 0 0 54023.1 41690.4" />
<path d="M59338.1 36375.5 A196.85 196.85 0.0 0 0 59141.2 36178.6" />
<path d="M54023.1 36178.6 A196.85 196.85 0.0 0 0 53826.3 36375.5" />
<path d="M59338 36375
L59338 41493
" />
<path d="M53826 36375
L53826 41493
" />
<path d="M54023 41690
L59141 41690
" />
<path d="M54023 36178
L59141 36178
" />
<path d="M51641.2 41690.4 A196.85 196.85 0.0 0 0 51838.1 41493.6" />
<path d="M46326.3 41493.6 A196.85 196.85 0.0 0 0 46523.1 41690.4" />
<path d="M51838.1 36375.5 A196.85 196.85 0.0 0 0 51641.2 36178.6" />
<path d="M46523.1 36178.6 A196.85 196.85 0.0 0 0 46326.3 36375.5" />
<path d="M51838 36375
L51838 41493
" />
<path d="M46326 36375
L46326 41493
" />
<path d="M46523 41690
L51641 41690
" />
<path d="M46523 36178
L51641 36178
" />
<path d="M44141.2 41690.4 A196.85 196.85 0.0 0 0 44338.1 41493.6" />
<path d="M38826.3 41493.6 A196.85 196.85 0.0 0 0 39023.1 41690.4" />
<path d="M44338.1 36375.5 A196.85 196.85 0.0 0 0 44141.2 36178.6" />
<path d="M39023.1 36178.6 A196.85 196.85 0.0 0 0 38826.3 36375.5" />
<path d="M44338 36375
L44338 41493
" />
<path d="M38826 36375
L38826 41493
" />
<path d="M39023 41690
L44141 41690
" />
<path d="M39023 36178
L44141 36178
" />
<path d="M36641.2 41690.4 A196.85 196.85 0.0 0 0 36838.1 41493.6" />
<path d="M31326.3 41493.6 A196.85 196.85 0.0 0 0 31523.1 41690.4" />
<path d="M36838.1 36375.5 A196.85 196.85 0.0 0 0 36641.2 36178.6" />
<path d="M31523.1 36178.6 A196.85 196.85 0.0 0 0 31326.3 36375.5" />
<path d="M36838 36375
L36838 41493
" />
<path d="M31326 36375
L31326 41493
" />
<path d="M31523 41690
L36641 41690
" />
<path d="M31523 36178
L36641 36178
" />
<path d="M29141.2 41690.4 A196.85 196.85 0.0 0 0 29338.1 41493.6" />
<path d="M23826.3 41493.6 A196.85 196.85 0.0 0 0 24023.1 41690.4" />
<path d="M29338.1 36375.5 A196.85 196.85 0.0 0 0 29141.2 36178.6" />
<path d="M24023.1 36178.6 A196.85 196.85 0.0 0 0 23826.3 36375.5" />
<path d="M29338 36375
L29338 41493
" />
<path d="M23826 36375
L23826 41493
" />
<path d="M24023 41690
L29141 41690
" />
<path d="M24023 36178
L29141 36178
" />
<path d="M21033.4 41690.4 A196.85 196.85 0.0 0 0 21230.3 41493.6" />
<path d="M20442.9 41493.6 A196.85 196.85 0.0 0 0 20639.7 41690.4" />
<path d="M21230.3 36375.5 A196.85 196.85 0.0 0 0 21033.4 36178.6" />
<path d="M20639.7 36178.6 A196.85 196.85 0.0 0 0 20442.9 36375.5" />
<path d="M21230 36375
L21230 41493
" />
<path d="M20442 36375
L20442 41493
" />
<path d="M20639 41690
L21033 41690
" />
<path d="M20639 36178
L21033 36178
" />
<path d="M18828.7 41690.4 A196.85 196.85 0.0 0 0 19025.6 41493.6" />
<path d="M19025.6 36375.5 A196.85 196.85 0.0 0 0 18828.7 36178.6" />
<path d="M19025 36375
L19025 41493
" />
<path d="M6641.22 41690.4 A196.85 196.85 0.0 0 0 6838.07 41493.6" />
<path d="M1326.26 41493.6 A196.85 196.85 0.0 0 0 1523.11 41690.4" />
<path d="M6838.07 36375.5 A196.85 196.85 0.0 0 0 6641.22 36178.6" />
<path d="M1523.11 36178.6 A196.85 196.85 0.0 0 0 1326.26 36375.5" />
<path d="M6838 36375
L6838 41493
" />
<path d="M1326 36375
L1326 41493
" />
<path d="M1523 41690
L6641 41690
" />
<path d="M1523 36178
L6641 36178
" />
<path d="M147266 41690 A196.85 196.85 0.0 0 0 147463 41493.1" />
<path d="M147463 36375 A196.85 196.85 0.0 0 0 147266 36178.1" />
<path d="M147463 36375
L147463 41493
" />
<path d="M127148 41689
L147266 41689
" />
<path d="M127148 36178
L147266 36178
" />
<path d="M126951 41493.1 A196.85 196.85 0.0 0 0 127148 41690" />
<path d="M127148 36178.1 A196.85 196.85 0.0 0 0 126951 36375" />
<path d="M126951 36375
L126951 41493
" />
<path d="M112212 34190.4 A196.85 196.85 0.0 0 0 112409 33993.6" />
<path d="M111622 33993.6 A196.85 196.85 0.0 0 0 111818 34190.4" />
<path d="M112409 28875.5 A196.85 196.85 0.0 0 0 112212 28678.6" />
<path d="M111818 28678.6 A196.85 196.85 0.0 0 0 111622 28875.5" />
<path d="M112408 28875
L112408 33993
" />
<path d="M111621 28875
L111621 33993
" />
<path d="M111818 34190
L112212 34190
" />
<path d="M111818 28678
L112212 28678
" />
<path d="M121346 34190.4 A196.85 196.85 0.0 0 0 121543 33993.6" />
<path d="M120755 33993.6 A196.85 196.85 0.0 0 0 120952 34190.4" />
<path d="M121543 28875.5 A196.85 196.85 0.0 0 0 121346 28678.6" />
<path d="M120952 28678.6 A196.85 196.85 0.0 0 0 120755 28875.5" />
<path d="M121542 28875
L121542 33993
" />
<path d="M120755 28875
L120755 33993
" />
<path d="M120952 34190
L121345 34190
" />
<path d="M120952 28678
L121345 28678
" />
<path d="M119141 34190.4 A196.85 196.85 0.0 0 0 119338 33993.6" />
<path d="M113826 33993.6 A196.85 196.85 0.0 0 0 114023 34190.4" />
<path d="M119338 28875.5 A196.85 196.85 0.0 0 0 119141 28678.6" />
<path d="M114023 28678.6 A196.85 196.85 0.0 0 0 113826 28875.5" />
<path d="M119338 28875
L119338 33993
" />
<path d="M113826 28875
L113826 33993
" />
<path d="M114023 34190
L119141 34190
" />
<path d="M114023 28678
L119141 28678
" />
<path d="M109766 34190.4 A196.85 196.85 0.0 0 0 109963 33993.6" />
<path d="M104451 33993.6 A196.85 196.85 0.0 0 0 104648 34190.4" />
<path d="M109963 28875.5 A196.85 196.85 0.0 0 0 109766 28678.6" />
<path d="M104648 28678.6 A196.85 196.85 0.0 0 0 104451 28875.5" />
<path d="M109963 28875
L109963 33993
" />
<path d="M104451 28875
L104451 33993
" />
<path d="M104648 34190
L109766 34190
" />
<path d="M104648 28678
L109766 28678
" />
<path d="M102266 34190.4 A196.85 196.85 0.0 0 0 102463 33993.6" />
<path d="M96951.3 33993.6 A196.85 196.85 0.0 0 0 97148.1 34190.4" />
<path d="M102463 28875.5 A196.85 196.85 0.0 0 0 102266 28678.6" />
<path d="M97148.1 28678.6 A196.85 196.85 0.0 0 0 96951.3 28875.5" />
<path d="M102463 28875
L102463 33993
" />
<path d="M96951 28875
L96951 33993
" />
<path d="M97148 34190
L102266 34190
" />
<path d="M97148 28678
L102266 28678
" />
<path d="M94766.2 34190.4 A196.85 196.85 0.0 0 0 94963.1 33993.6" />
<path d="M89451.3 33993.6 A196.85 196.85 0.0 0 0 89648.1 34190.4" />
<path d="M94963.1 28875.5 A196.85 196.85 0.0 0 0 94766.2 28678.6" />
<path d="M89648.1 28678.6 A196.85 196.85 0.0 0 0 89451.3 28875.5" />
<path d="M94963 28875
L94963 33993
" />
<path d="M89451 28875
L89451 33993
" />
<path d="M89648 34190
L94766 34190
" />
<path d="M89648 28678
L94766 28678
" />
<path d="M87266.2 34190.4 A196.85 196.85 0.0 0 0 87463.1 33993.6" />
<path d="M81951.3 33993.6 A196.85 196.85 0.0 0 0 82148.1 34190.4" />
<path d="M87463.1 28875.5 A196.85 196.85 0.0 0 0 87266.2 28678.6" />
<path d="M82148.1 28678.6 A196.85 196.85 0.0 0 0 81951.3 28875.5" />
<path d="M87463 28875
L87463 33993
" />
<path d="M81951 28875
L81951 33993
" />
<path d="M82148 34190
L87266 34190
" />
<path d="M82148 28678
L87266 28678
" />
<path d="M79766.2 34190.4 A196.85 196.85 0.0 0 0 79963.1 33993.6" />
<path d="M74451.3 33993.6 A196.85 196.85 0.0 0 0 74648.1 34190.4" />
<path d="M79963.1 28875.5 A196.85 196.85 0.0 0 0 79766.2 28678.6" />
<path d="M74648.1 28678.6 A196.85 196.85 0.0 0 0 74451.3 28875.5" />
<path d="M79963 28875
L79963 33993
" />
<path d="M74451 28875
L74451 33993
" />
<path d="M74648 34190
L79766 34190
" />
<path d="M74648 28678
L79766 28678
" />
<path d="M72266.2 34190.4 A196.85 196.85 0.0 0 0 72463.1 33993.6" />
<path d="M66951.3 33993.6 A196.85 196.85 0.0 0 0 67148.1 34190.4" />
<path d="M72463.1 28875.5 A196.85 196.85 0.0 0 0 72266.2 28678.6" />
<path d="M67148.1 28678.6 A196.85 196.85 0.0 0 0 66951.3 28875.5" />
<path d="M72463 28875
L72463 33993
" />
<path d="M66951 28875
L66951 33993
" />
<path d="M67148 34190
L72266 34190
" />
<path d="M67148 28678
L72266 28678
" />
<path d="M64766.2 34190.4 A196.85 196.85 0.0 0 0 64963.1 33993.6" />
<path d="M59451.3 33993.6 A196.85 196.85 0.0 0 0 59648.1 34190.4" />
<path d="M64963.1 28875.5 A196.85 196.85 0.0 0 0 64766.2 28678.6" />
<path d="M59648.1 28678.6 A196.85 196.85 0.0 0 0 59451.3 28875.5" />
<path d="M64963 28875
L64963 33993
" />
<path d="M59451 28875
L59451 33993
" />
<path d="M59648 34190
L64766 34190
" />
<path d="M59648 28678
L64766 28678
" />
<path d="M57266.2 34190.4 A196.85 196.85 0.0 0 0 57463.1 33993.6" />
<path d="M51951.3 33993.6 A196.85 196.85 0.0 0 0 52148.1 34190.4" />
<path d="M57463.1 28875.5 A196.85 196.85 0.0 0 0 57266.2 28678.6" />
<path d="M52148.1 28678.6 A196.85 196.85 0.0 0 0 51951.3 28875.5" />
<path d="M57463 28875
L57463 33993
" />
<path d="M51951 28875
L51951 33993
" />
<path d="M52148 34190
L57266 34190
" />
<path d="M52148 28678
L57266 28678
" />
<path d="M49766.2 34190.4 A196.85 196.85 0.0 0 0 49963.1 33993.6" />
<path d="M44451.3 33993.6 A196.85 196.85 0.0 0 0 44648.1 34190.4" />
<path d="M49963.1 28875.5 A196.85 196.85 0.0 0 0 49766.2 28678.6" />
<path d="M44648.1 28678.6 A196.85 196.85 0.0 0 0 44451.3 28875.5" />
<path d="M49963 28875
L49963 33993
" />
<path d="M44451 28875
L44451 33993
" />
<path d="M44648 34190
L49766 34190
" />
<path d="M44648 28678
L49766 28678
" />
<path d="M42266.2 34190.4 A196.85 196.85 0.0 0 0 42463.1 33993.6" />
<path d="M36951.3 33993.6 A196.85 196.85 0.0 0 0 37148.1 34190.4" />
<path d="M42463.1 28875.5 A196.85 196.85 0.0 0 0 42266.2 28678.6" />
<path d="M37148.1 28678.6 A196.85 196.85 0.0 0 0 36951.3 28875.5" />
<path d="M42463 28875
L42463 33993
" />
<path d="M36951 28875
L36951 33993
" />
<path d="M37148 34190
L42266 34190
" />
<path d="M37148 28678
L42266 28678
" />
<path d="M34766.2 34190.4 A196.85 196.85 0.0 0 0 34963.1 33993.6" />
<path d="M29451.3 33993.6 A196.85 196.85 0.0 0 0 29648.1 34190.4" />
<path d="M34963.1 28875.5 A196.85 196.85 0.0 0 0 34766.2 28678.6" />
<path d="M29648.1 28678.6 A196.85 196.85 0.0 0 0 29451.3 28875.5" />
<path d="M34963 28875
L34963 33993
" />
<path d="M29451 28875
L29451 33993
" />
<path d="M29648 34190
L34766 34190
" />
<path d="M29648 28678
L34766 28678
" />
<path d="M27266.2 34190.4 A196.85 196.85 0.0 0 0 27463.1 33993.6" />
<path d="M21951.3 33993.6 A196.85 196.85 0.0 0 0 22148.1 34190.4" />
<path d="M27463.1 28875.5 A196.85 196.85 0.0 0 0 27266.2 28678.6" />
<path d="M22148.1 28678.6 A196.85 196.85 0.0 0 0 21951.3 28875.5" />
<path d="M27463 28875
L27463 33993
" />
<path d="M21951 28875
L21951 33993
" />
<path d="M22148 34190
L27266 34190
" />
<path d="M22148 28678
L27266 28678
" />
<path d="M10962.1 34190.4 A196.85 196.85 0.0 0 0 11158.9 33993.6" />
<path d="M10371.5 33993.6 A196.85 196.85 0.0 0 0 10568.4 34190.4" />
<path d="M11158.9 28875.5 A196.85 196.85 0.0 0 0 10962.1 28678.6" />
<path d="M10568.4 28678.6 A196.85 196.85 0.0 0 0 10371.5 28875.5" />
<path d="M11158 28875
L11158 33993
" />
<path d="M10371 28875
L10371 33993
" />
<path d="M10568 34190
L10962 34190
" />
<path d="M10568 28678
L10962 28678
" />
<path d="M20095.9 34190.4 A196.85 196.85 0.0 0 0 20292.8 33993.6" />
<path d="M19505.4 33993.6 A196.85 196.85 0.0 0 0 19702.2 34190.4" />
<path d="M20292.8 28875.5 A196.85 196.85 0.0 0 0 20095.9 28678.6" />
<path d="M19702.2 28678.6 A196.85 196.85 0.0 0 0 19505.4 28875.5" />
<path d="M20292 28875
L20292 33993
" />
<path d="M19505 28875
L19505 33993
" />
<path d="M19702 34190
L20095 34190
" />
<path d="M19702 28678
L20095 28678
" />
<path d="M17891.2 34190.4 A196.85 196.85 0.0 0 0 18088.1 33993.6" />
<path d="M12576.3 33993.6 A196.85 196.85 0.0 0 0 12773.1 34190.4" />
<path d="M18088.1 28875.5 A196.85 196.85 0.0 0 0 17891.2 28678.6" />
<path d="M12773.1 28678.6 A196.85 196.85 0.0 0 0 12576.3 28875.5" />
<path d="M18088 28875
L18088 33993
" />
<path d="M12576 28875
L12576 33993
" />
<path d="M12773 34190
L17891 34190
" />
<path d="M12773 28678
L17891 28678
" />
<path d="M6641.22 34190.4 A196.85 196.85 0.0 0 0 6838.07 33993.6" />
<path d="M1326.26 33993.6 A196.85 196.85 0.0 0 0 1523.11 34190.4" />
<path d="M6838.07 28875.5 A196.85 196.85 0.0 0 0 6641.22 28678.6" />
<path d="M1523.11 28678.6 A196.85 196.85 0.0 0 0 1326.26 28875.5" />
<path d="M6838 28875
L6838 33993
" />
<path d="M1326 28875
L1326 33993
" />
<path d="M1523 34190
L6641 34190
" />
<path d="M1523 28678
L6641 28678
" />
<path d="M147266 26690.4 A196.85 196.85 0.0 0 0 147463 26493.6" />
<path d="M141951 26493.6 A196.85 196.85 0.0 0 0 142148 26690.4" />
<path d="M147463 21375.5 A196.85 196.85 0.0 0 0 147266 21178.6" />
<path d="M142148 21178.6 A196.85 196.85 0.0 0 0 141951 21375.5" />
<path d="M147463 21375
L147463 26493
" />
<path d="M141951 21375
L141951 26493
" />
<path d="M142148 26690
L147266 26690
" />
<path d="M142148 21178
L147266 21178
" />
<path d="M139766 26690.4 A196.85 196.85 0.0 0 0 139963 26493.6" />
<path d="M134451 26493.6 A196.85 196.85 0.0 0 0 134648 26690.4" />
<path d="M139963 21375.5 A196.85 196.85 0.0 0 0 139766 21178.6" />
<path d="M134648 21178.6 A196.85 196.85 0.0 0 0 134451 21375.5" />
<path d="M139963 21375
L139963 26493
" />
<path d="M134451 21375
L134451 26493
" />
<path d="M134648 26690
L139766 26690
" />
<path d="M134648 21178
L139766 21178
" />
<path d="M132266 26690.4 A196.85 196.85 0.0 0 0 132463 26493.6" />
<path d="M126951 26493.6 A196.85 196.85 0.0 0 0 127148 26690.4" />
<path d="M132463 21375.5 A196.85 196.85 0.0 0 0 132266 21178.6" />
<path d="M127148 21178.6 A196.85 196.85 0.0 0 0 126951 21375.5" />
<path d="M132463 21375
L132463 26493
" />
<path d="M126951 21375
L126951 26493
" />
<path d="M127148 26690
L132266 26690
" />
<path d="M127148 21178
L132266 21178
" />
<path d="M111188 27477.8 A196.85 196.85 0.0 0 0 111385 27281" />
<path d="M108629 27281 A196.85 196.85 0.0 0 0 108826 27477.8" />
<path d="M108826 27477
L111188 27477
" />
<path d="M120588 27477.8 A196.85 196.85 0.0 0 0 120785 27281" />
<path d="M118029 27281 A196.85 196.85 0.0 0 0 118226 27477.8" />
<path d="M120785 20586
L120785 27280
" />
<path d="M118029 20586
L118029 27280
" />
<path d="M118226 27477
L120588 27477
" />
<path d="M117266 26690.4 A196.85 196.85 0.0 0 0 117463 26493.6" />
<path d="M111951 26493.6 A196.85 196.85 0.0 0 0 112148 26690.4" />
<path d="M117463 21375.5 A196.85 196.85 0.0 0 0 117266 21178.6" />
<path d="M112148 21178.6 A196.85 196.85 0.0 0 0 111951 21375.5" />
<path d="M117463 21375
L117463 26493
" />
<path d="M111951 21375
L111951 26493
" />
<path d="M112148 26690
L117266 26690
" />
<path d="M112148 21178
L117266 21178
" />
<path d="M106016 26690.4 A196.85 196.85 0.0 0 0 106213 26493.6" />
<path d="M100701 26493.6 A196.85 196.85 0.0 0 0 100898 26690.4" />
<path d="M106213 21375.5 A196.85 196.85 0.0 0 0 106016 21178.6" />
<path d="M100898 21178.6 A196.85 196.85 0.0 0 0 100701 21375.5" />
<path d="M106213 21375
L106213 26493
" />
<path d="M100701 21375
L100701 26493
" />
<path d="M100898 26690
L106016 26690
" />
<path d="M100898 21178
L106016 21178
" />
<path d="M98516.2 26690.4 A196.85 196.85 0.0 0 0 98713.1 26493.6" />
<path d="M93201.3 26493.6 A196.85 196.85 0.0 0 0 93398.1 26690.4" />
<path d="M98713.1 21375.5 A196.85 196.85 0.0 0 0 98516.2 21178.6" />
<path d="M93398.1 21178.6 A196.85 196.85 0.0 0 0 93201.3 21375.5" />
<path d="M98713 21375
L98713 26493
" />
<path d="M93201 21375
L93201 26493
" />
<path d="M93398 26690
L98516 26690
" />
<path d="M93398 21178
L98516 21178
" />
<path d="M91016.2 26690.4 A196.85 196.85 0.0 0 0 91213.1 26493.6" />
<path d="M85701.3 26493.6 A196.85 196.85 0.0 0 0 85898.1 26690.4" />
<path d="M91213.1 21375.5 A196.85 196.85 0.0 0 0 91016.2 21178.6" />
<path d="M85898.1 21178.6 A196.85 196.85 0.0 0 0 85701.3 21375.5" />
<path d="M91213 21375
L91213 26493
" />
<path d="M85701 21375
L85701 26493
" />
<path d="M85898 26690
L91016 26690
" />
<path d="M85898 21178
L91016 21178
" />
<path d="M83516.2 26690.4 A196.85 196.85 0.0 0 0 83713.1 26493.6" />
<path d="M78201.3 26493.6 A196.85 196.85 0.0 0 0 78398.1 26690.4" />
<path d="M83713.1 21375.5 A196.85 196.85 0.0 0 0 83516.2 21178.6" />
<path d="M78398.1 21178.6 A196.85 196.85 0.0 0 0 78201.3 21375.5" />
<path d="M83713 21375
L83713 26493
" />
<path d="M78201 21375
L78201 26493
" />
<path d="M78398 26690
L83516 26690
" />
<path d="M78398 21178
L83516 21178
" />
<path d="M76016.2 26690.4 A196.85 196.85 0.0 0 0 76213.1 26493.6" />
<path d="M70701.3 26493.6 A196.85 196.85 0.0 0 0 70898.1 26690.4" />
<path d="M76213.1 21375.5 A196.85 196.85 0.0 0 0 76016.2 21178.6" />
<path d="M70898.1 21178.6 A196.85 196.85 0.0 0 0 70701.3 21375.5" />
<path d="M76213 21375
L76213 26493
" />
<path d="M70701 21375
L70701 26493
" />
<path d="M70898 26690
L76016 26690
" />
<path d="M70898 21178
L76016 21178
" />
<path d="M68516.2 26690.4 A196.85 196.85 0.0 0 0 68713.1 26493.6" />
<path d="M63201.3 26493.6 A196.85 196.85 0.0 0 0 63398.1 26690.4" />
<path d="M68713.1 21375.5 A196.85 196.85 0.0 0 0 68516.2 21178.6" />
<path d="M63398.1 21178.6 A196.85 196.85 0.0 0 0 63201.3 21375.5" />
<path d="M68713 21375
L68713 26493
" />
<path d="M63201 21375
L63201 26493
" />
<path d="M63398 26690
L68516 26690
" />
<path d="M63398 21178
L68516 21178
" />
<path d="M61016.2 26690.4 A196.85 196.85 0.0 0 0 61213.1 26493.6" />
<path d="M55701.3 26493.6 A196.85 196.85 0.0 0 0 55898.1 26690.4" />
<path d="M61213.1 21375.5 A196.85 196.85 0.0 0 0 61016.2 21178.6" />
<path d="M55898.1 21178.6 A196.85 196.85 0.0 0 0 55701.3 21375.5" />
<path d="M61213 21375
L61213 26493
" />
<path d="M55701 21375
L55701 26493
" />
<path d="M55898 26690
L61016 26690
" />
<path d="M55898 21178
L61016 21178
" />
<path d="M53516.2 26690.4 A196.85 196.85 0.0 0 0 53713.1 26493.6" />
<path d="M48201.3 26493.6 A196.85 196.85 0.0 0 0 48398.1 26690.4" />
<path d="M53713.1 21375.5 A196.85 196.85 0.0 0 0 53516.2 21178.6" />
<path d="M48398.1 21178.6 A196.85 196.85 0.0 0 0 48201.3 21375.5" />
<path d="M53713 21375
L53713 26493
" />
<path d="M48201 21375
L48201 26493
" />
<path d="M48398 26690
L53516 26690
" />
<path d="M48398 21178
L53516 21178
" />
<path d="M46016.2 26690.4 A196.85 196.85 0.0 0 0 46213.1 26493.6" />
<path d="M40701.3 26493.6 A196.85 196.85 0.0 0 0 40898.1 26690.4" />
<path d="M46213.1 21375.5 A196.85 196.85 0.0 0 0 46016.2 21178.6" />
<path d="M40898.1 21178.6 A196.85 196.85 0.0 0 0 40701.3 21375.5" />
<path d="M46213 21375
L46213 26493
" />
<path d="M40701 21375
L40701 26493
" />
<path d="M40898 26690
L46016 26690
" />
<path d="M40898 21178
L46016 21178
" />
<path d="M38516.2 26690.4 A196.85 196.85 0.0 0 0 38713.1 26493.6" />
<path d="M33201.3 26493.6 A196.85 196.85 0.0 0 0 33398.1 26690.4" />
<path d="M38713.1 21375.5 A196.85 196.85 0.0 0 0 38516.2 21178.6" />
<path d="M33398.1 21178.6 A196.85 196.85 0.0 0 0 33201.3 21375.5" />
<path d="M38713 21375
L38713 26493
" />
<path d="M33201 21375
L33201 26493
" />
<path d="M33398 26690
L38516 26690
" />
<path d="M33398 21178
L38516 21178
" />
<path d="M31016.2 26690.4 A196.85 196.85 0.0 0 0 31213.1 26493.6" />
<path d="M25701.3 26493.6 A196.85 196.85 0.0 0 0 25898.1 26690.4" />
<path d="M31213.1 21375.5 A196.85 196.85 0.0 0 0 31016.2 21178.6" />
<path d="M25898.1 21178.6 A196.85 196.85 0.0 0 0 25701.3 21375.5" />
<path d="M31213 21375
L31213 26493
" />
<path d="M25701 21375
L25701 26493
" />
<path d="M25898 26690
L31016 26690
" />
<path d="M25898 21178
L31016 21178
" />
<path d="M23516.2 26690.4 A196.85 196.85 0.0 0 0 23713.1 26493.6" />
<path d="M18201.3 26493.6 A196.85 196.85 0.0 0 0 18398.1 26690.4" />
<path d="M23713.1 21375.5 A196.85 196.85 0.0 0 0 23516.2 21178.6" />
<path d="M18398.1 21178.6 A196.85 196.85 0.0 0 0 18201.3 21375.5" />
<path d="M23713 21375
L23713 26493
" />
<path d="M18201 21375
L18201 26493
" />
<path d="M18398 26690
L23516 26690
" />
<path d="M18398 21178
L23516 21178
" />
<path d="M16016.2 26690.4 A196.85 196.85 0.0 0 0 16213.1 26493.6" />
<path d="M10701.3 26493.6 A196.85 196.85 0.0 0 0 10898.1 26690.4" />
<path d="M16213.1 21375.5 A196.85 196.85 0.0 0 0 16016.2 21178.6" />
<path d="M10898.1 21178.6 A196.85 196.85 0.0 0 0 10701.3 21375.5" />
<path d="M16213 21375
L16213 26493
" />
<path d="M10701 21375
L10701 26493
" />
<path d="M10898 26690
L16016 26690
" />
<path d="M10898 21178
L16016 21178
" />
<path d="M6641.22 26690.4 A196.85 196.85 0.0 0 0 6838.07 26493.6" />
<path d="M1326.26 26493.6 A196.85 196.85 0.0 0 0 1523.11 26690.4" />
<path d="M6838.07 21375.5 A196.85 196.85 0.0 0 0 6641.22 21178.6" />
<path d="M1523.11 21178.6 A196.85 196.85 0.0 0 0 1326.26 21375.5" />
<path d="M6838 21375
L6838 26493
" />
<path d="M1326 21375
L1326 26493
" />
<path d="M1523 26690
L6641 26690
" />
<path d="M1523 21178
L6641 21178
" />
<path d="M147266 15440.4 A196.85 196.85 0.0 0 0 147463 15243.6" />
<path d="M141951 15243.6 A196.85 196.85 0.0 0 0 142148 15440.4" />
<path d="M147463 10125.5 A196.85 196.85 0.0 0 0 147266 9928.62" />
<path d="M142148 9928.62 A196.85 196.85 0.0 0 0 141951 10125.5" />
<path d="M147463 10125
L147463 15243
" />
<path d="M141951 10125
L141951 15243
" />
<path d="M142148 15440
L147266 15440
" />
<path d="M142148 9928
L147266 9928
" />
<path d="M132266 15440.4 A196.85 196.85 0.0 0 0 132463 15243.6" />
<path d="M126951 15243.6 A196.85 196.85 0.0 0 0 127148 15440.4" />
<path d="M132463 10125.5 A196.85 196.85 0.0 0 0 132266 9928.62" />
<path d="M127148 9928.62 A196.85 196.85 0.0 0 0 126951 10125.5" />
<path d="M132463 10125
L132463 15243
" />
<path d="M126951 10125
L126951 15243
" />
<path d="M127148 15440
L132266 15440
" />
<path d="M127148 9928
L132266 9928
" />
<path d="M121016 15440.4 A196.85 196.85 0.0 0 0 121213 15243.6" />
<path d="M115701 15243.6 A196.85 196.85 0.0 0 0 115898 15440.4" />
<path d="M121213 10125.5 A196.85 196.85 0.0 0 0 121016 9928.62" />
<path d="M115898 9928.62 A196.85 196.85 0.0 0 0 115701 10125.5" />
<path d="M121213 10125
L121213 15243
" />
<path d="M115701 10125
L115701 15243
" />
<path d="M115898 15440
L121016 15440
" />
<path d="M115898 9928
L121016 9928
" />
<path d="M113516 15440.4 A196.85 196.85 0.0 0 0 113713 15243.6" />
<path d="M108201 15243.6 A196.85 196.85 0.0 0 0 108398 15440.4" />
<path d="M113713 10125.5 A196.85 196.85 0.0 0 0 113516 9928.62" />
<path d="M108398 9928.62 A196.85 196.85 0.0 0 0 108201 10125.5" />
<path d="M113713 10125
L113713 15243
" />
<path d="M108201 10125
L108201 15243
" />
<path d="M108398 15440
L113516 15440
" />
<path d="M108398 9928
L113516 9928
" />
<path d="M106016 15440.4 A196.85 196.85 0.0 0 0 106213 15243.6" />
<path d="M100701 15243.6 A196.85 196.85 0.0 0 0 100898 15440.4" />
<path d="M106213 10125.5 A196.85 196.85 0.0 0 0 106016 9928.62" />
<path d="M100898 9928.62 A196.85 196.85 0.0 0 0 100701 10125.5" />
<path d="M106213 10125
L106213 15243
" />
<path d="M100701 10125
L100701 15243
" />
<path d="M100898 15440
L106016 15440
" />
<path d="M100898 9928
L106016 9928
" />
<path d="M98516.2 15440.4 A196.85 196.85 0.0 0 0 98713.1 15243.6" />
<path d="M93201.3 15243.6 A196.85 196.85 0.0 0 0 93398.1 15440.4" />
<path d="M98713.1 10125.5 A196.85 196.85 0.0 0 0 98516.2 9928.62" />
<path d="M93398.1 9928.62 A196.85 196.85 0.0 0 0 93201.3 10125.5" />
<path d="M98713 10125
L98713 15243
" />
<path d="M93201 10125
L93201 15243
" />
<path d="M93398 15440
L98516 15440
" />
<path d="M93398 9928
L98516 9928
" />
<path d="M87266.2 15440.4 A196.85 196.85 0.0 0 0 87463.1 15243.6" />
<path d="M81951.3 15243.6 A196.85 196.85 0.0 0 0 82148.1 15440.4" />
<path d="M87463.1 10125.5 A196.85 196.85 0.0 0 0 87266.2 9928.62" />
<path d="M82148.1 9928.62 A196.85 196.85 0.0 0 0 81951.3 10125.5" />
<path d="M87463 10125
L87463 15243
" />
<path d="M81951 10125
L81951 15243
" />
<path d="M82148 15440
L87266 15440
" />
<path d="M82148 9928
L87266 9928
" />
<path d="M79766.2 15440.4 A196.85 196.85 0.0 0 0 79963.1 15243.6" />
<path d="M74451.3 15243.6 A196.85 196.85 0.0 0 0 74648.1 15440.4" />
<path d="M79963.1 10125.5 A196.85 196.85 0.0 0 0 79766.2 9928.62" />
<path d="M74648.1 9928.62 A196.85 196.85 0.0 0 0 74451.3 10125.5" />
<path d="M79963 10125
L79963 15243
" />
<path d="M74451 10125
L74451 15243
" />
<path d="M74648 15440
L79766 15440
" />
<path d="M74648 9928
L79766 9928
" />
<path d="M72266.2 15440.4 A196.85 196.85 0.0 0 0 72463.1 15243.6" />
<path d="M66951.3 15243.6 A196.85 196.85 0.0 0 0 67148.1 15440.4" />
<path d="M72463.1 10125.5 A196.85 196.85 0.0 0 0 72266.2 9928.62" />
<path d="M67148.1 9928.62 A196.85 196.85 0.0 0 0 66951.3 10125.5" />
<path d="M72463 10125
L72463 15243
" />
<path d="M66951 10125
L66951 15243
" />
<path d="M67148 15440
L72266 15440
" />
<path d="M67148 9928
L72266 9928
" />
<path d="M64766.2 15440.4 A196.85 196.85 0.0 0 0 64963.1 15243.6" />
<path d="M59451.3 15243.6 A196.85 196.85 0.0 0 0 59648.1 15440.4" />
<path d="M64963.1 10125.5 A196.85 196.85 0.0 0 0 64766.2 9928.62" />
<path d="M59648.1 9928.62 A196.85 196.85 0.0 0 0 59451.3 10125.5" />
<path d="M64963 10125
L64963 15243
" />
<path d="M59451 10125
L59451 15243
" />
<path d="M59648 15440
L64766 15440
" />
<path d="M59648 9928
L64766 9928
" />
<path d="M53516.2 15440.4 A196.85 196.85 0.0 0 0 53713.1 15243.6" />
<path d="M48201.3 15243.6 A196.85 196.85 0.0 0 0 48398.1 15440.4" />
<path d="M53713.1 10125.5 A196.85 196.85 0.0 0 0 53516.2 9928.62" />
<path d="M48398.1 9928.62 A196.85 196.85 0.0 0 0 48201.3 10125.5" />
<path d="M53713 10125
L53713 15243
" />
<path d="M48201 10125
L48201 15243
" />
<path d="M48398 15440
L53516 15440
" />
<path d="M48398 9928
L53516 9928
" />
<path d="M46016.2 15440.4 A196.85 196.85 0.0 0 0 46213.1 15243.6" />
<path d="M40701.3 15243.6 A196.85 196.85 0.0 0 0 40898.1 15440.4" />
<path d="M46213.1 10125.5 A196.85 196.85 0.0 0 0 46016.2 9928.62" />
<path d="M40898.1 9928.62 A196.85 196.85 0.0 0 0 40701.3 10125.5" />
<path d="M46213 10125
L46213 15243
" />
<path d="M40701 10125
L40701 15243
" />
<path d="M40898 15440
L46016 15440
" />
<path d="M40898 9928
L46016 9928
" />
<path d="M38516.2 15440.4 A196.85 196.85 0.0 0 0 38713.1 15243.6" />
<path d="M33201.3 15243.6 A196.85 196.85 0.0 0 0 33398.1 15440.4" />
<path d="M38713.1 10125.5 A196.85 196.85 0.0 0 0 38516.2 9928.62" />
<path d="M33398.1 9928.62 A196.85 196.85 0.0 0 0 33201.3 10125.5" />
<path d="M38713 10125
L38713 15243
" />
<path d="M33201 10125
L33201 15243
" />
<path d="M33398 15440
L38516 15440
" />
<path d="M33398 9928
L38516 9928
" />
<path d="M31016.2 15440.4 A196.85 196.85 0.0 0 0 31213.1 15243.6" />
<path d="M25701.3 15243.6 A196.85 196.85 0.0 0 0 25898.1 15440.4" />
<path d="M31213.1 10125.5 A196.85 196.85 0.0 0 0 31016.2 9928.62" />
<path d="M25898.1 9928.62 A196.85 196.85 0.0 0 0 25701.3 10125.5" />
<path d="M31213 10125
L31213 15243
" />
<path d="M25701 10125
L25701 15243
" />
<path d="M25898 15440
L31016 15440
" />
<path d="M25898 9928
L31016 9928
" />
<path d="M16016.2 15440.4 A196.85 196.85 0.0 0 0 16213.1 15243.6" />
<path d="M10701.3 15243.6 A196.85 196.85 0.0 0 0 10898.1 15440.4" />
<path d="M16213.1 10125.5 A196.85 196.85 0.0 0 0 16016.2 9928.62" />
<path d="M10898.1 9928.62 A196.85 196.85 0.0 0 0 10701.3 10125.5" />
<path d="M16213 10125
L16213 15243
" />
<path d="M10701 10125
L10701 15243
" />
<path d="M10898 15440
L16016 15440
" />
<path d="M10898 9928
L16016 9928
" />
<path d="M19.6854 56744 A1249.92 1249.92 0.0 0 0 1269.61 57993.9" />
<path d="M1269.61 8622.05 A1249.92 1249.92 0.0 0 0 19.6854 9871.97" />
<path d="M148760 9871.97 A1249.92 1249.92 0.0 0 0 147510 8622.05" />
<path d="M147510 57993.9 A1249.92 1249.92 0.0 0 0 148760 56744" />
<path d="M118450 7059.65 A624.961 624.961 0.0 0 0 117825 7684.61" />
<path d="M117824 7684
L117824 8309
" />
<path d="M141573 8309
L141573 7684
" />
<path d="M141573 7684.61 A624.961 624.961 0.0 0 0 140948 7059.65" />
<path d="M141573 8309.57 A312.48 312.48 0.0 0 0 141886 8622.05" />
<path d="M117512 8622.05 A312.48 312.48 0.0 0 0 117825 8309.57" />
<path d="M140948 7059
L118449 7059
" />
<path d="M30955.2 7684.61 A624.961 624.961 0.0 0 0 30330.3 7059.65" />
<path d="M30955 8309
L30955 7684
" />
<path d="M6894.25 8622.05 A312.48 312.48 0.0 0 0 7206.73 8309.57" />
<path d="M30330 7059
L7831 7059
" />
<path d="M7206 7684
L7206 8309
" />
<path d="M30955.2 8309.57 A312.48 312.48 0.0 0 0 31267.7 8622.05" />
<path d="M7831.69 7059.65 A624.961 624.961 0.0 0 0 7206.73 7684.61" />
<path d="M67515 7059
L45016 7059
" />
<path d="M68140 8309
L68140 7684
" />
<path d="M45016.9 7059.65 A624.961 624.961 0.0 0 0 44391.9 7684.61" />
<path d="M44079.4 8622.05 A312.48 312.48 0.0 0 0 44391.9 8309.57" />
<path d="M44391 7684
L44391 8309
" />
<path d="M68140.4 8309.57 A312.48 312.48 0.0 0 0 68452.9 8622.05" />
<path d="M68140.4 7684.61 A624.961 624.961 0.0 0 0 67515.4 7059.65" />
<g >
</g>
<g >
</g>
</g> 
</svg>
