%FSLAX45Y45*%
G04 Gerber Fmt 4.5, Leading zero omitted, Abs format (unit mm)*
G04 Created by KiCad (PCBNEW (5.1.10)-1) date 2021-10-23 23:06:07*
%MOMM*%
%LPD*%
G01*
G04 APERTURE LIST*
%TA.AperFunction,Profile*%
%ADD10C,0.100000*%
%TD*%
%ADD11C,0.200000*%
%ADD12C,0.300000*%
G04 APERTURE END LIST*
D10*
X6984560Y-18810690D02*
X7222670Y-18810690D01*
X7460780Y-28255720D02*
X7460780Y-19048800D01*
X7460780Y-15874000D02*
X7460780Y-17461400D01*
X7222670Y-17699510D02*
X6984560Y-17699510D01*
X7460780Y-17461400D02*
G75*
G02*
X7222670Y-17699510I-238110J0D01*
G01*
X7222670Y-18810690D02*
G75*
G02*
X7460780Y-19048800I0J-238110D01*
G01*
X31351150Y-15159670D02*
X31351150Y-14921560D01*
X30239970Y-15159670D02*
X30239970Y-14921560D01*
X31589260Y-15397780D02*
X45558380Y-15397780D01*
X23017300Y-15397780D02*
X30001860Y-15397780D01*
X30239970Y-15159670D02*
G75*
G02*
X30001860Y-15397780I-238110J0D01*
G01*
X31589260Y-15397780D02*
G75*
G02*
X31351150Y-15159670I0J238110D01*
G01*
X22779190Y-14921560D02*
X22779190Y-15159670D01*
X21668010Y-14921560D02*
X22779190Y-14921560D01*
X21668010Y-15159670D02*
X21668010Y-14921560D01*
X7937000Y-15397780D02*
X21429900Y-15397780D01*
X21668010Y-15159670D02*
G75*
G02*
X21429900Y-15397780I-238110J0D01*
G01*
X23017300Y-15397780D02*
G75*
G02*
X22779190Y-15159670I0J238110D01*
G01*
X46510820Y-17699510D02*
X46272710Y-17699510D01*
X46510820Y-18810690D02*
X46510820Y-17699510D01*
X46272710Y-18810690D02*
X46510820Y-18810690D01*
X46034600Y-19048800D02*
G75*
G02*
X46272710Y-18810690I238110J0D01*
G01*
X46272710Y-17699510D02*
G75*
G02*
X46034600Y-17461400I0J238110D01*
G01*
X46034600Y-17461400D02*
X46034600Y-15874000D01*
X46034600Y-28255720D02*
X46034600Y-19048800D01*
X6984560Y-17699510D02*
X6984560Y-18810690D01*
X31351150Y-14921560D02*
X30239970Y-14921560D01*
X7937000Y-28731940D02*
X45558380Y-28731940D01*
X46034600Y-28255720D02*
G75*
G02*
X45558380Y-28731940I-476220J0D01*
G01*
X45558380Y-15397780D02*
G75*
G02*
X46034600Y-15874000I0J-476220D01*
G01*
X7460780Y-15874000D02*
G75*
G02*
X7937000Y-15397780I476220J0D01*
G01*
X7937000Y-28731940D02*
G75*
G02*
X7460780Y-28255720I0J476220D01*
G01*
D11*
X7123300Y-18076360D02*
X7163300Y-18116360D01*
X7163300Y-18076360D02*
X7123300Y-18116360D01*
X7123300Y-18393840D02*
X7163300Y-18433840D01*
X7163300Y-18393840D02*
X7123300Y-18433840D01*
X7202670Y-18235100D02*
X7242670Y-18275100D01*
X7242670Y-18235100D02*
X7202670Y-18275100D01*
X7917000Y-18142600D02*
X7957000Y-18182600D01*
X7957000Y-18142600D02*
X7917000Y-18182600D01*
X7917000Y-18327600D02*
X7957000Y-18367600D01*
X7957000Y-18327600D02*
X7917000Y-18367600D01*
X8075740Y-19663760D02*
X8115740Y-19703760D01*
X8115740Y-19663760D02*
X8075740Y-19703760D01*
X8075740Y-21013050D02*
X8115740Y-21053050D01*
X8115740Y-21013050D02*
X8075740Y-21053050D01*
X8075740Y-22917930D02*
X8115740Y-22957930D01*
X8115740Y-22917930D02*
X8075740Y-22957930D01*
X8075740Y-24822810D02*
X8115740Y-24862810D01*
X8115740Y-24822810D02*
X8075740Y-24862810D01*
X8075740Y-26727690D02*
X8115740Y-26767690D01*
X8115740Y-26727690D02*
X8075740Y-26767690D01*
X8313850Y-20298720D02*
X8353850Y-20338720D01*
X8353850Y-20298720D02*
X8313850Y-20338720D01*
X8313850Y-22203600D02*
X8353850Y-22243600D01*
X8353850Y-22203600D02*
X8313850Y-22243600D01*
X8313850Y-24108480D02*
X8353850Y-24148480D01*
X8353850Y-24108480D02*
X8313850Y-24148480D01*
X8313850Y-26013360D02*
X8353850Y-26053360D01*
X8353850Y-26013360D02*
X8313850Y-26053360D01*
X8313850Y-27561075D02*
X8353850Y-27601075D01*
X8353850Y-27561075D02*
X8313850Y-27601075D01*
X8472590Y-20616200D02*
X8512590Y-20656200D01*
X8512590Y-20616200D02*
X8472590Y-20656200D01*
X8472590Y-22521080D02*
X8512590Y-22561080D01*
X8512590Y-22521080D02*
X8472590Y-22561080D01*
X8472590Y-24425960D02*
X8512590Y-24465960D01*
X8512590Y-24425960D02*
X8472590Y-24465960D01*
X8472590Y-26330840D02*
X8512590Y-26370840D01*
X8512590Y-26330840D02*
X8472590Y-26370840D01*
X8591645Y-19901870D02*
X8631645Y-19941870D01*
X8631645Y-19901870D02*
X8591645Y-19941870D01*
X8591645Y-23671945D02*
X8631645Y-23711945D01*
X8631645Y-23671945D02*
X8591645Y-23711945D01*
X8591645Y-25616510D02*
X8631645Y-25656510D01*
X8631645Y-25616510D02*
X8591645Y-25656510D01*
X8591645Y-27521390D02*
X8631645Y-27561390D01*
X8631645Y-27521390D02*
X8591645Y-27561390D01*
X8909125Y-16846125D02*
X8949125Y-16886125D01*
X8949125Y-16846125D02*
X8909125Y-16886125D01*
X9425030Y-18552580D02*
X9465030Y-18592580D01*
X9465030Y-18552580D02*
X9425030Y-18592580D01*
X9821880Y-16092110D02*
X9861880Y-16132110D01*
X9861880Y-16092110D02*
X9821880Y-16132110D01*
X9821880Y-17441400D02*
X9861880Y-17481400D01*
X9861880Y-17441400D02*
X9821880Y-17481400D01*
X9821880Y-26330840D02*
X9861880Y-26370840D01*
X9861880Y-26330840D02*
X9821880Y-26370840D01*
X9861565Y-20259035D02*
X9901565Y-20299035D01*
X9901565Y-20259035D02*
X9861565Y-20299035D01*
X9861565Y-22163915D02*
X9901565Y-22203915D01*
X9901565Y-22163915D02*
X9861565Y-22203915D01*
X9861565Y-24068795D02*
X9901565Y-24108795D01*
X9901565Y-24068795D02*
X9861565Y-24108795D01*
X9861565Y-25973675D02*
X9901565Y-26013675D01*
X9901565Y-25973675D02*
X9861565Y-26013675D01*
X9861565Y-27878555D02*
X9901565Y-27918555D01*
X9901565Y-27878555D02*
X9861565Y-27918555D01*
X9901250Y-17282660D02*
X9941250Y-17322660D01*
X9941250Y-17282660D02*
X9901250Y-17322660D01*
X9901250Y-27600760D02*
X9941250Y-27640760D01*
X9941250Y-27600760D02*
X9901250Y-27640760D01*
X9940935Y-25695880D02*
X9980935Y-25735880D01*
X9980935Y-25695880D02*
X9940935Y-25735880D01*
X9980620Y-23791000D02*
X10020620Y-23831000D01*
X10020620Y-23791000D02*
X9980620Y-23831000D01*
X10059990Y-17996990D02*
X10099990Y-18036990D01*
X10099990Y-17996990D02*
X10059990Y-18036990D01*
X10059990Y-18393840D02*
X10099990Y-18433840D01*
X10099990Y-18393840D02*
X10059990Y-18433840D01*
X10059990Y-18790690D02*
X10099990Y-18830690D01*
X10099990Y-18790690D02*
X10059990Y-18830690D01*
X10059990Y-19981240D02*
X10099990Y-20021240D01*
X10099990Y-19981240D02*
X10059990Y-20021240D01*
X10059990Y-21886120D02*
X10099990Y-21926120D01*
X10099990Y-21886120D02*
X10059990Y-21926120D01*
X10139360Y-16330220D02*
X10179360Y-16370220D01*
X10179360Y-16330220D02*
X10139360Y-16370220D01*
X10139360Y-17123920D02*
X10179360Y-17163920D01*
X10179360Y-17123920D02*
X10139360Y-17163920D01*
X10456840Y-15933370D02*
X10496840Y-15973370D01*
X10496840Y-15933370D02*
X10456840Y-15973370D01*
X10456840Y-16250850D02*
X10496840Y-16290850D01*
X10496840Y-16250850D02*
X10456840Y-16290850D01*
X10456840Y-19108170D02*
X10496840Y-19148170D01*
X10496840Y-19108170D02*
X10456840Y-19148170D01*
X10456840Y-26330840D02*
X10496840Y-26370840D01*
X10496840Y-26330840D02*
X10456840Y-26370840D01*
X10615580Y-18393840D02*
X10655580Y-18433840D01*
X10655580Y-18393840D02*
X10615580Y-18433840D01*
X10615580Y-18790690D02*
X10655580Y-18830690D01*
X10655580Y-18790690D02*
X10615580Y-18830690D01*
X10694950Y-17242975D02*
X10734950Y-17282975D01*
X10734950Y-17242975D02*
X10694950Y-17282975D01*
X10694950Y-26727690D02*
X10734950Y-26767690D01*
X10734950Y-26727690D02*
X10694950Y-26767690D01*
X10814005Y-20100295D02*
X10854005Y-20140295D01*
X10854005Y-20100295D02*
X10814005Y-20140295D01*
X10933060Y-21013050D02*
X10973060Y-21053050D01*
X10973060Y-21013050D02*
X10933060Y-21053050D01*
X10972745Y-24068795D02*
X11012745Y-24108795D01*
X11012745Y-24068795D02*
X10972745Y-24108795D01*
X11052115Y-27719815D02*
X11092115Y-27759815D01*
X11092115Y-27719815D02*
X11052115Y-27759815D01*
X11171170Y-22917930D02*
X11211170Y-22957930D01*
X11211170Y-22917930D02*
X11171170Y-22957930D01*
X11290225Y-22005175D02*
X11330225Y-22045175D01*
X11330225Y-22005175D02*
X11290225Y-22045175D01*
X11528335Y-23910055D02*
X11568335Y-23950055D01*
X11568335Y-23910055D02*
X11528335Y-23950055D01*
X11647390Y-24822810D02*
X11687390Y-24862810D01*
X11687390Y-24822810D02*
X11647390Y-24862810D01*
X11726760Y-26013360D02*
X11766760Y-26053360D01*
X11766760Y-26013360D02*
X11726760Y-26053360D01*
X12004555Y-25814935D02*
X12044555Y-25854935D01*
X12044555Y-25814935D02*
X12004555Y-25854935D01*
X12242665Y-17401715D02*
X12282665Y-17441715D01*
X12282665Y-17401715D02*
X12242665Y-17441715D01*
X12242665Y-20259035D02*
X12282665Y-20299035D01*
X12282665Y-20259035D02*
X12242665Y-20299035D01*
X12361720Y-19108170D02*
X12401720Y-19148170D01*
X12401720Y-19108170D02*
X12361720Y-19148170D01*
X12679200Y-26330840D02*
X12719200Y-26370840D01*
X12719200Y-26330840D02*
X12679200Y-26370840D01*
X12718885Y-20100295D02*
X12758885Y-20140295D01*
X12758885Y-20100295D02*
X12718885Y-20140295D01*
X12718885Y-22163915D02*
X12758885Y-22203915D01*
X12758885Y-22163915D02*
X12718885Y-22203915D01*
X12718885Y-27878555D02*
X12758885Y-27918555D01*
X12758885Y-27878555D02*
X12718885Y-27918555D01*
X12758570Y-17123920D02*
X12798570Y-17163920D01*
X12798570Y-17123920D02*
X12758570Y-17163920D01*
X12758570Y-17223920D02*
X12798570Y-17263920D01*
X12798570Y-17223920D02*
X12758570Y-17263920D01*
X12877625Y-17004865D02*
X12917625Y-17044865D01*
X12917625Y-17004865D02*
X12877625Y-17044865D01*
X12877625Y-17322345D02*
X12917625Y-17362345D01*
X12917625Y-17322345D02*
X12877625Y-17362345D01*
X12956995Y-15774630D02*
X12996995Y-15814630D01*
X12996995Y-15774630D02*
X12956995Y-15814630D01*
X12956995Y-24068795D02*
X12996995Y-24108795D01*
X12996995Y-24068795D02*
X12956995Y-24108795D01*
X13076050Y-26727690D02*
X13116050Y-26767690D01*
X13116050Y-26727690D02*
X13076050Y-26767690D01*
X13155420Y-15695260D02*
X13195420Y-15735260D01*
X13195420Y-15695260D02*
X13155420Y-15735260D01*
X13314160Y-21013050D02*
X13354160Y-21053050D01*
X13354160Y-21013050D02*
X13314160Y-21053050D01*
X13353845Y-15774630D02*
X13393845Y-15814630D01*
X13393845Y-15774630D02*
X13353845Y-15814630D01*
X13353845Y-25933990D02*
X13393845Y-25973990D01*
X13393845Y-25933990D02*
X13353845Y-25973990D01*
X13433215Y-17004865D02*
X13473215Y-17044865D01*
X13473215Y-17004865D02*
X13433215Y-17044865D01*
X13433215Y-17322345D02*
X13473215Y-17362345D01*
X13473215Y-17322345D02*
X13433215Y-17362345D01*
X13433215Y-27719815D02*
X13473215Y-27759815D01*
X13473215Y-27719815D02*
X13433215Y-27759815D01*
X13512585Y-22203600D02*
X13552585Y-22243600D01*
X13552585Y-22203600D02*
X13512585Y-22243600D01*
X13552270Y-17123920D02*
X13592270Y-17163920D01*
X13592270Y-17123920D02*
X13552270Y-17163920D01*
X13552270Y-17223920D02*
X13592270Y-17263920D01*
X13592270Y-17223920D02*
X13552270Y-17263920D01*
X13671325Y-22005175D02*
X13711325Y-22045175D01*
X13711325Y-22005175D02*
X13671325Y-22045175D01*
X13671325Y-24068795D02*
X13711325Y-24108795D01*
X13711325Y-24068795D02*
X13671325Y-24108795D01*
X13790380Y-22917930D02*
X13830380Y-22957930D01*
X13830380Y-22917930D02*
X13790380Y-22957930D01*
X14068175Y-26330840D02*
X14108175Y-26370840D01*
X14108175Y-26330840D02*
X14068175Y-26370840D01*
X14107860Y-17917620D02*
X14147860Y-17957620D01*
X14147860Y-17917620D02*
X14107860Y-17957620D01*
X14147545Y-20259035D02*
X14187545Y-20299035D01*
X14187545Y-20259035D02*
X14147545Y-20299035D01*
X14147545Y-23910055D02*
X14187545Y-23950055D01*
X14187545Y-23910055D02*
X14147545Y-23950055D01*
X14266600Y-16250850D02*
X14306600Y-16290850D01*
X14306600Y-16250850D02*
X14266600Y-16290850D01*
X14266600Y-19108170D02*
X14306600Y-19148170D01*
X14306600Y-19108170D02*
X14266600Y-19148170D01*
X14584080Y-25973675D02*
X14624080Y-26013675D01*
X14624080Y-25973675D02*
X14584080Y-26013675D01*
X14623765Y-17242975D02*
X14663765Y-17282975D01*
X14663765Y-17242975D02*
X14623765Y-17282975D01*
X14623765Y-20100295D02*
X14663765Y-20140295D01*
X14663765Y-20100295D02*
X14623765Y-20140295D01*
X14742820Y-24822810D02*
X14782820Y-24862810D01*
X14782820Y-24822810D02*
X14742820Y-24862810D01*
X15099985Y-25814935D02*
X15139985Y-25854935D01*
X15139985Y-25814935D02*
X15099985Y-25854935D01*
X15099985Y-27878555D02*
X15139985Y-27918555D01*
X15139985Y-27878555D02*
X15099985Y-27918555D01*
X15219040Y-21013050D02*
X15259040Y-21053050D01*
X15259040Y-21013050D02*
X15219040Y-21053050D01*
X15417465Y-22203600D02*
X15457465Y-22243600D01*
X15457465Y-22203600D02*
X15417465Y-22243600D01*
X15576205Y-22005175D02*
X15616205Y-22045175D01*
X15616205Y-22005175D02*
X15576205Y-22045175D01*
X15576205Y-24068795D02*
X15616205Y-24108795D01*
X15616205Y-24068795D02*
X15576205Y-24108795D01*
X15695260Y-22917930D02*
X15735260Y-22957930D01*
X15735260Y-22917930D02*
X15695260Y-22957930D01*
X15814315Y-27719815D02*
X15854315Y-27759815D01*
X15854315Y-27719815D02*
X15814315Y-27759815D01*
X15854000Y-26410210D02*
X15894000Y-26450210D01*
X15894000Y-26410210D02*
X15854000Y-26450210D01*
X16012740Y-15854000D02*
X16052740Y-15894000D01*
X16052740Y-15854000D02*
X16012740Y-15894000D01*
X16012740Y-17917620D02*
X16052740Y-17957620D01*
X16052740Y-17917620D02*
X16012740Y-17957620D01*
X16052425Y-20259035D02*
X16092425Y-20299035D01*
X16092425Y-20259035D02*
X16052425Y-20299035D01*
X16052425Y-23910055D02*
X16092425Y-23950055D01*
X16092425Y-23910055D02*
X16052425Y-23950055D01*
X16171480Y-16250850D02*
X16211480Y-16290850D01*
X16211480Y-16250850D02*
X16171480Y-16290850D01*
X16171480Y-19108170D02*
X16211480Y-19148170D01*
X16211480Y-19108170D02*
X16171480Y-19148170D01*
X16369905Y-17441400D02*
X16409905Y-17481400D01*
X16409905Y-17441400D02*
X16369905Y-17481400D01*
X16528645Y-17242975D02*
X16568645Y-17282975D01*
X16568645Y-17242975D02*
X16528645Y-17282975D01*
X16528645Y-20100295D02*
X16568645Y-20140295D01*
X16568645Y-20100295D02*
X16528645Y-20140295D01*
X16528645Y-25973675D02*
X16568645Y-26013675D01*
X16568645Y-25973675D02*
X16528645Y-26013675D01*
X16647700Y-24822810D02*
X16687700Y-24862810D01*
X16687700Y-24822810D02*
X16647700Y-24862810D01*
X17004865Y-25814935D02*
X17044865Y-25854935D01*
X17044865Y-25814935D02*
X17004865Y-25854935D01*
X17123920Y-21013050D02*
X17163920Y-21053050D01*
X17163920Y-21013050D02*
X17123920Y-21053050D01*
X17322345Y-22203600D02*
X17362345Y-22243600D01*
X17362345Y-22203600D02*
X17322345Y-22243600D01*
X17481085Y-22005175D02*
X17521085Y-22045175D01*
X17521085Y-22005175D02*
X17481085Y-22045175D01*
X17481085Y-24068795D02*
X17521085Y-24108795D01*
X17521085Y-24068795D02*
X17481085Y-24108795D01*
X17520770Y-27600760D02*
X17560770Y-27640760D01*
X17560770Y-27600760D02*
X17520770Y-27640760D01*
X17520770Y-27700760D02*
X17560770Y-27740760D01*
X17560770Y-27700760D02*
X17520770Y-27740760D01*
X17600140Y-22917930D02*
X17640140Y-22957930D01*
X17640140Y-22917930D02*
X17600140Y-22957930D01*
X17679510Y-27838870D02*
X17719510Y-27878870D01*
X17719510Y-27838870D02*
X17679510Y-27878870D01*
X17917620Y-17917620D02*
X17957620Y-17957620D01*
X17957620Y-17917620D02*
X17917620Y-17957620D01*
X17957305Y-20259035D02*
X17997305Y-20299035D01*
X17997305Y-20259035D02*
X17957305Y-20299035D01*
X17957305Y-23910055D02*
X17997305Y-23950055D01*
X17997305Y-23910055D02*
X17957305Y-23950055D01*
X18076360Y-16250850D02*
X18116360Y-16290850D01*
X18116360Y-16250850D02*
X18076360Y-16290850D01*
X18076360Y-19108170D02*
X18116360Y-19148170D01*
X18116360Y-19108170D02*
X18076360Y-19148170D01*
X18274785Y-17441400D02*
X18314785Y-17481400D01*
X18314785Y-17441400D02*
X18274785Y-17481400D01*
X18433525Y-17242975D02*
X18473525Y-17282975D01*
X18473525Y-17242975D02*
X18433525Y-17282975D01*
X18433525Y-20100295D02*
X18473525Y-20140295D01*
X18473525Y-20100295D02*
X18433525Y-20140295D01*
X18433525Y-25973675D02*
X18473525Y-26013675D01*
X18473525Y-25973675D02*
X18433525Y-26013675D01*
X18552580Y-24822810D02*
X18592580Y-24862810D01*
X18592580Y-24822810D02*
X18552580Y-24862810D01*
X18909745Y-25814935D02*
X18949745Y-25854935D01*
X18949745Y-25814935D02*
X18909745Y-25854935D01*
X19028800Y-21013050D02*
X19068800Y-21053050D01*
X19068800Y-21013050D02*
X19028800Y-21053050D01*
X19227225Y-22203600D02*
X19267225Y-22243600D01*
X19267225Y-22203600D02*
X19227225Y-22243600D01*
X19385965Y-22005175D02*
X19425965Y-22045175D01*
X19425965Y-22005175D02*
X19385965Y-22045175D01*
X19385965Y-24068795D02*
X19425965Y-24108795D01*
X19425965Y-24068795D02*
X19385965Y-24108795D01*
X19505020Y-22917930D02*
X19545020Y-22957930D01*
X19545020Y-22917930D02*
X19505020Y-22957930D01*
X19822500Y-15854000D02*
X19862500Y-15894000D01*
X19862500Y-15854000D02*
X19822500Y-15894000D01*
X19822500Y-17917620D02*
X19862500Y-17957620D01*
X19862500Y-17917620D02*
X19822500Y-17957620D01*
X19862185Y-20259035D02*
X19902185Y-20299035D01*
X19902185Y-20259035D02*
X19862185Y-20299035D01*
X19862185Y-23910055D02*
X19902185Y-23950055D01*
X19902185Y-23910055D02*
X19862185Y-23950055D01*
X19981240Y-16250850D02*
X20021240Y-16290850D01*
X20021240Y-16250850D02*
X19981240Y-16290850D01*
X19981240Y-19108170D02*
X20021240Y-19148170D01*
X20021240Y-19108170D02*
X19981240Y-19148170D01*
X20179665Y-17441400D02*
X20219665Y-17481400D01*
X20219665Y-17441400D02*
X20179665Y-17481400D01*
X20338405Y-17242975D02*
X20378405Y-17282975D01*
X20378405Y-17242975D02*
X20338405Y-17282975D01*
X20338405Y-20100295D02*
X20378405Y-20140295D01*
X20378405Y-20100295D02*
X20338405Y-20140295D01*
X20338405Y-25973675D02*
X20378405Y-26013675D01*
X20378405Y-25973675D02*
X20338405Y-26013675D01*
X20457460Y-24822810D02*
X20497460Y-24862810D01*
X20497460Y-24822810D02*
X20457460Y-24862810D01*
X20814625Y-25814935D02*
X20854625Y-25854935D01*
X20854625Y-25814935D02*
X20814625Y-25854935D01*
X20933680Y-21013050D02*
X20973680Y-21053050D01*
X20973680Y-21013050D02*
X20933680Y-21053050D01*
X21132105Y-22203600D02*
X21172105Y-22243600D01*
X21172105Y-22203600D02*
X21132105Y-22243600D01*
X21290845Y-22005175D02*
X21330845Y-22045175D01*
X21330845Y-22005175D02*
X21290845Y-22045175D01*
X21290845Y-24068795D02*
X21330845Y-24108795D01*
X21330845Y-24068795D02*
X21290845Y-24108795D01*
X21409900Y-22917930D02*
X21449900Y-22957930D01*
X21449900Y-22917930D02*
X21409900Y-22957930D01*
X21727380Y-17123920D02*
X21767380Y-17163920D01*
X21767380Y-17123920D02*
X21727380Y-17163920D01*
X21727380Y-17223920D02*
X21767380Y-17263920D01*
X21767380Y-17223920D02*
X21727380Y-17263920D01*
X21727380Y-17600140D02*
X21767380Y-17640140D01*
X21767380Y-17600140D02*
X21727380Y-17640140D01*
X21727380Y-17917620D02*
X21767380Y-17957620D01*
X21767380Y-17917620D02*
X21727380Y-17957620D01*
X21767065Y-20259035D02*
X21807065Y-20299035D01*
X21807065Y-20259035D02*
X21767065Y-20299035D01*
X21767065Y-23910055D02*
X21807065Y-23950055D01*
X21807065Y-23910055D02*
X21767065Y-23950055D01*
X21886120Y-19108170D02*
X21926120Y-19148170D01*
X21926120Y-19108170D02*
X21886120Y-19148170D01*
X22044860Y-15060300D02*
X22084860Y-15100300D01*
X22084860Y-15060300D02*
X22044860Y-15100300D01*
X22044860Y-15933370D02*
X22084860Y-15973370D01*
X22084860Y-15933370D02*
X22044860Y-15973370D01*
X22044860Y-27442020D02*
X22084860Y-27482020D01*
X22084860Y-27442020D02*
X22044860Y-27482020D01*
X22084545Y-17004865D02*
X22124545Y-17044865D01*
X22124545Y-17004865D02*
X22084545Y-17044865D01*
X22084545Y-17719195D02*
X22124545Y-17759195D01*
X22124545Y-17719195D02*
X22084545Y-17759195D01*
X22203600Y-15139670D02*
X22243600Y-15179670D01*
X22243600Y-15139670D02*
X22203600Y-15179670D01*
X22243285Y-20100295D02*
X22283285Y-20140295D01*
X22283285Y-20100295D02*
X22243285Y-20140295D01*
X22243285Y-25973675D02*
X22283285Y-26013675D01*
X22283285Y-25973675D02*
X22243285Y-26013675D01*
X22322655Y-17004865D02*
X22362655Y-17044865D01*
X22362655Y-17004865D02*
X22322655Y-17044865D01*
X22322655Y-17719195D02*
X22362655Y-17759195D01*
X22362655Y-17719195D02*
X22322655Y-17759195D01*
X22362340Y-15060300D02*
X22402340Y-15100300D01*
X22402340Y-15060300D02*
X22362340Y-15100300D01*
X22362340Y-15933370D02*
X22402340Y-15973370D01*
X22402340Y-15933370D02*
X22362340Y-15973370D01*
X22362340Y-24822810D02*
X22402340Y-24862810D01*
X22402340Y-24822810D02*
X22362340Y-24862810D01*
X22560765Y-26489580D02*
X22600765Y-26529580D01*
X22600765Y-26489580D02*
X22560765Y-26529580D01*
X22600450Y-27362650D02*
X22640450Y-27402650D01*
X22640450Y-27362650D02*
X22600450Y-27402650D01*
X22679820Y-17123920D02*
X22719820Y-17163920D01*
X22719820Y-17123920D02*
X22679820Y-17163920D01*
X22679820Y-17223920D02*
X22719820Y-17263920D01*
X22719820Y-17223920D02*
X22679820Y-17263920D01*
X22679820Y-17600140D02*
X22719820Y-17640140D01*
X22719820Y-17600140D02*
X22679820Y-17640140D01*
X22679820Y-17917620D02*
X22719820Y-17957620D01*
X22719820Y-17917620D02*
X22679820Y-17957620D01*
X22719505Y-25814935D02*
X22759505Y-25854935D01*
X22759505Y-25814935D02*
X22719505Y-25854935D01*
X22838560Y-16250850D02*
X22878560Y-16290850D01*
X22878560Y-16250850D02*
X22838560Y-16290850D01*
X22838560Y-21013050D02*
X22878560Y-21053050D01*
X22878560Y-21013050D02*
X22838560Y-21053050D01*
X22838560Y-27680130D02*
X22878560Y-27720130D01*
X22878560Y-27680130D02*
X22838560Y-27720130D01*
X22838560Y-27799185D02*
X22878560Y-27839185D01*
X22878560Y-27799185D02*
X22838560Y-27839185D01*
X22957615Y-27759500D02*
X22997615Y-27799500D01*
X22997615Y-27759500D02*
X22957615Y-27799500D01*
X22997300Y-17441400D02*
X23037300Y-17481400D01*
X23037300Y-17441400D02*
X22997300Y-17481400D01*
X23036985Y-22203600D02*
X23076985Y-22243600D01*
X23076985Y-22203600D02*
X23036985Y-22243600D01*
X23156040Y-26727690D02*
X23196040Y-26767690D01*
X23196040Y-26727690D02*
X23156040Y-26767690D01*
X23195725Y-17242975D02*
X23235725Y-17282975D01*
X23235725Y-17242975D02*
X23195725Y-17282975D01*
X23195725Y-22005175D02*
X23235725Y-22045175D01*
X23235725Y-22005175D02*
X23195725Y-22045175D01*
X23195725Y-24068795D02*
X23235725Y-24108795D01*
X23235725Y-24068795D02*
X23195725Y-24108795D01*
X23314780Y-22917930D02*
X23354780Y-22957930D01*
X23354780Y-22917930D02*
X23314780Y-22957930D01*
X23314780Y-26965800D02*
X23354780Y-27005800D01*
X23354780Y-26965800D02*
X23314780Y-27005800D01*
X23671945Y-20259035D02*
X23711945Y-20299035D01*
X23711945Y-20259035D02*
X23671945Y-20299035D01*
X23671945Y-23910055D02*
X23711945Y-23950055D01*
X23711945Y-23910055D02*
X23671945Y-23950055D01*
X23791000Y-19108170D02*
X23831000Y-19148170D01*
X23831000Y-19108170D02*
X23791000Y-19148170D01*
X24148165Y-20100295D02*
X24188165Y-20140295D01*
X24188165Y-20100295D02*
X24148165Y-20140295D01*
X24148165Y-25457770D02*
X24188165Y-25497770D01*
X24188165Y-25457770D02*
X24148165Y-25497770D01*
X24148165Y-25973675D02*
X24188165Y-26013675D01*
X24188165Y-25973675D02*
X24148165Y-26013675D01*
X24267220Y-24822810D02*
X24307220Y-24862810D01*
X24307220Y-24822810D02*
X24267220Y-24862810D01*
X24267220Y-28076980D02*
X24307220Y-28116980D01*
X24307220Y-28076980D02*
X24267220Y-28116980D01*
X24425960Y-27680130D02*
X24465960Y-27720130D01*
X24465960Y-27680130D02*
X24425960Y-27720130D01*
X24545015Y-27600760D02*
X24585015Y-27640760D01*
X24585015Y-27600760D02*
X24545015Y-27640760D01*
X24584700Y-15854000D02*
X24624700Y-15894000D01*
X24624700Y-15854000D02*
X24584700Y-15894000D01*
X24584700Y-17917620D02*
X24624700Y-17957620D01*
X24624700Y-17917620D02*
X24584700Y-17957620D01*
X24584700Y-28076980D02*
X24624700Y-28116980D01*
X24624700Y-28076980D02*
X24584700Y-28116980D01*
X24624385Y-25814935D02*
X24664385Y-25854935D01*
X24664385Y-25814935D02*
X24624385Y-25854935D01*
X24743440Y-16250850D02*
X24783440Y-16290850D01*
X24783440Y-16250850D02*
X24743440Y-16290850D01*
X24743440Y-21013050D02*
X24783440Y-21053050D01*
X24783440Y-21013050D02*
X24743440Y-21053050D01*
X24902180Y-17441400D02*
X24942180Y-17481400D01*
X24942180Y-17441400D02*
X24902180Y-17481400D01*
X24941865Y-22203600D02*
X24981865Y-22243600D01*
X24981865Y-22203600D02*
X24941865Y-22243600D01*
X25100605Y-17242975D02*
X25140605Y-17282975D01*
X25140605Y-17242975D02*
X25100605Y-17282975D01*
X25100605Y-22005175D02*
X25140605Y-22045175D01*
X25140605Y-22005175D02*
X25100605Y-22045175D01*
X25100605Y-24068795D02*
X25140605Y-24108795D01*
X25140605Y-24068795D02*
X25100605Y-24108795D01*
X25219660Y-22917930D02*
X25259660Y-22957930D01*
X25259660Y-22917930D02*
X25219660Y-22957930D01*
X25576825Y-20259035D02*
X25616825Y-20299035D01*
X25616825Y-20259035D02*
X25576825Y-20299035D01*
X25576825Y-23910055D02*
X25616825Y-23950055D01*
X25616825Y-23910055D02*
X25576825Y-23950055D01*
X25695880Y-19108170D02*
X25735880Y-19148170D01*
X25735880Y-19108170D02*
X25695880Y-19148170D01*
X25695880Y-26965800D02*
X25735880Y-27005800D01*
X25735880Y-26965800D02*
X25695880Y-27005800D01*
X25695880Y-28076980D02*
X25735880Y-28116980D01*
X25735880Y-28076980D02*
X25695880Y-28116980D01*
X25814935Y-27600760D02*
X25854935Y-27640760D01*
X25854935Y-27600760D02*
X25814935Y-27640760D01*
X26024940Y-27033590D02*
X26064940Y-27073590D01*
X26064940Y-27033590D02*
X26024940Y-27073590D01*
X26053045Y-20100295D02*
X26093045Y-20140295D01*
X26093045Y-20100295D02*
X26053045Y-20140295D01*
X26053045Y-25457770D02*
X26093045Y-25497770D01*
X26093045Y-25457770D02*
X26053045Y-25497770D01*
X26053045Y-25973675D02*
X26093045Y-26013675D01*
X26093045Y-25973675D02*
X26053045Y-26013675D01*
X26095044Y-26859741D02*
X26135044Y-26899741D01*
X26135044Y-26859741D02*
X26095044Y-26899741D01*
X26095651Y-26962879D02*
X26135651Y-27002879D01*
X26135651Y-26962879D02*
X26095651Y-27002879D01*
X26172100Y-24822810D02*
X26212100Y-24862810D01*
X26212100Y-24822810D02*
X26172100Y-24862810D01*
X26330840Y-26807060D02*
X26370840Y-26847060D01*
X26370840Y-26807060D02*
X26330840Y-26847060D01*
X26410210Y-26648320D02*
X26450210Y-26688320D01*
X26450210Y-26648320D02*
X26410210Y-26688320D01*
X26489580Y-17917620D02*
X26529580Y-17957620D01*
X26529580Y-17917620D02*
X26489580Y-17957620D01*
X26489580Y-26410210D02*
X26529580Y-26450210D01*
X26529580Y-26410210D02*
X26489580Y-26450210D01*
X26489580Y-26568950D02*
X26529580Y-26608950D01*
X26529580Y-26568950D02*
X26489580Y-26608950D01*
X26529265Y-25814935D02*
X26569265Y-25854935D01*
X26569265Y-25814935D02*
X26529265Y-25854935D01*
X26554600Y-27962729D02*
X26594600Y-28002729D01*
X26594600Y-27962729D02*
X26554600Y-28002729D01*
X26568950Y-27442020D02*
X26608950Y-27482020D01*
X26608950Y-27442020D02*
X26568950Y-27482020D01*
X26568950Y-28076980D02*
X26608950Y-28116980D01*
X26608950Y-28076980D02*
X26568950Y-28116980D01*
X26632060Y-26393950D02*
X26672060Y-26433950D01*
X26672060Y-26393950D02*
X26632060Y-26433950D01*
X26648320Y-16250850D02*
X26688320Y-16290850D01*
X26688320Y-16250850D02*
X26648320Y-16290850D01*
X26648320Y-21013050D02*
X26688320Y-21053050D01*
X26688320Y-21013050D02*
X26648320Y-21053050D01*
X26648320Y-25576825D02*
X26688320Y-25616825D01*
X26688320Y-25576825D02*
X26648320Y-25616825D01*
X26727690Y-28156350D02*
X26767690Y-28196350D01*
X26767690Y-28156350D02*
X26727690Y-28196350D01*
X26807060Y-28235720D02*
X26847060Y-28275720D01*
X26847060Y-28235720D02*
X26807060Y-28275720D01*
X26846745Y-17441400D02*
X26886745Y-17481400D01*
X26886745Y-17441400D02*
X26846745Y-17481400D01*
X26846745Y-22203600D02*
X26886745Y-22243600D01*
X26886745Y-22203600D02*
X26846745Y-22243600D01*
X26861287Y-26417882D02*
X26901287Y-26457882D01*
X26901287Y-26417882D02*
X26861287Y-26457882D01*
X26886430Y-27045170D02*
X26926430Y-27085170D01*
X26926430Y-27045170D02*
X26886430Y-27085170D01*
X26886430Y-28315090D02*
X26926430Y-28355090D01*
X26926430Y-28315090D02*
X26886430Y-28355090D01*
X26965800Y-26403340D02*
X27005800Y-26443340D01*
X27005800Y-26403340D02*
X26965800Y-26443340D01*
X26965800Y-27362650D02*
X27005800Y-27402650D01*
X27005800Y-27362650D02*
X26965800Y-27402650D01*
X26965800Y-28235720D02*
X27005800Y-28275720D01*
X27005800Y-28235720D02*
X26965800Y-28275720D01*
X27005485Y-17242975D02*
X27045485Y-17282975D01*
X27045485Y-17242975D02*
X27005485Y-17282975D01*
X27005485Y-22005175D02*
X27045485Y-22045175D01*
X27045485Y-22005175D02*
X27005485Y-22045175D01*
X27005485Y-24068795D02*
X27045485Y-24108795D01*
X27045485Y-24068795D02*
X27005485Y-24108795D01*
X27065428Y-26411963D02*
X27105428Y-26451963D01*
X27105428Y-26411963D02*
X27065428Y-26451963D01*
X27124540Y-22917930D02*
X27164540Y-22957930D01*
X27164540Y-22917930D02*
X27124540Y-22957930D01*
X27124540Y-28076980D02*
X27164540Y-28116980D01*
X27164540Y-28076980D02*
X27124540Y-28116980D01*
X27203910Y-27997610D02*
X27243910Y-28037610D01*
X27243910Y-27997610D02*
X27203910Y-28037610D01*
X27203910Y-28394460D02*
X27243910Y-28434460D01*
X27243910Y-28394460D02*
X27203910Y-28434460D01*
X27481705Y-20259035D02*
X27521705Y-20299035D01*
X27521705Y-20259035D02*
X27481705Y-20299035D01*
X27481705Y-23910055D02*
X27521705Y-23950055D01*
X27521705Y-23910055D02*
X27481705Y-23950055D01*
X27521390Y-26727690D02*
X27561390Y-26767690D01*
X27561390Y-26727690D02*
X27521390Y-26767690D01*
X27600760Y-19108170D02*
X27640760Y-19148170D01*
X27640760Y-19108170D02*
X27600760Y-19148170D01*
X27600760Y-26410210D02*
X27640760Y-26450210D01*
X27640760Y-26410210D02*
X27600760Y-26450210D01*
X27600760Y-27600760D02*
X27640760Y-27640760D01*
X27640760Y-27600760D02*
X27600760Y-27640760D01*
X27838870Y-26807060D02*
X27878870Y-26847060D01*
X27878870Y-26807060D02*
X27838870Y-26847060D01*
X27838870Y-26970510D02*
X27878870Y-27010510D01*
X27878870Y-26970510D02*
X27838870Y-27010510D01*
X27838870Y-28076980D02*
X27878870Y-28116980D01*
X27878870Y-28076980D02*
X27838870Y-28116980D01*
X27918240Y-27124540D02*
X27958240Y-27164540D01*
X27958240Y-27124540D02*
X27918240Y-27164540D01*
X27957925Y-20100295D02*
X27997925Y-20140295D01*
X27997925Y-20100295D02*
X27957925Y-20140295D01*
X27997610Y-27045170D02*
X28037610Y-27085170D01*
X28037610Y-27045170D02*
X27997610Y-27085170D01*
X28076980Y-24822810D02*
X28116980Y-24862810D01*
X28116980Y-24822810D02*
X28076980Y-24862810D01*
X28076980Y-26965800D02*
X28116980Y-27005800D01*
X28116980Y-26965800D02*
X28076980Y-27005800D01*
X28156350Y-25537140D02*
X28196350Y-25577140D01*
X28196350Y-25537140D02*
X28156350Y-25577140D01*
X28178245Y-26964535D02*
X28218245Y-27004535D01*
X28218245Y-26964535D02*
X28178245Y-27004535D01*
X28235720Y-26013360D02*
X28275720Y-26053360D01*
X28275720Y-26013360D02*
X28235720Y-26053360D01*
X28280599Y-26964358D02*
X28320599Y-27004358D01*
X28320599Y-26964358D02*
X28280599Y-27004358D01*
X28394460Y-15854000D02*
X28434460Y-15894000D01*
X28434460Y-15854000D02*
X28394460Y-15894000D01*
X28394460Y-17917620D02*
X28434460Y-17957620D01*
X28434460Y-17917620D02*
X28394460Y-17957620D01*
X28394460Y-26965800D02*
X28434460Y-27005800D01*
X28434460Y-26965800D02*
X28394460Y-27005800D01*
X28434145Y-25814935D02*
X28474145Y-25854935D01*
X28474145Y-25814935D02*
X28434145Y-25854935D01*
X28494460Y-26965800D02*
X28534460Y-27005800D01*
X28534460Y-26965800D02*
X28494460Y-27005800D01*
X28553200Y-16250850D02*
X28593200Y-16290850D01*
X28593200Y-16250850D02*
X28553200Y-16290850D01*
X28553200Y-21013050D02*
X28593200Y-21053050D01*
X28593200Y-21013050D02*
X28553200Y-21053050D01*
X28711940Y-17441400D02*
X28751940Y-17481400D01*
X28751940Y-17441400D02*
X28711940Y-17481400D01*
X28751625Y-22203600D02*
X28791625Y-22243600D01*
X28791625Y-22203600D02*
X28751625Y-22243600D01*
X28791310Y-27045170D02*
X28831310Y-27085170D01*
X28831310Y-27045170D02*
X28791310Y-27085170D01*
X28870680Y-28394460D02*
X28910680Y-28434460D01*
X28910680Y-28394460D02*
X28870680Y-28434460D01*
X28910365Y-17242975D02*
X28950365Y-17282975D01*
X28950365Y-17242975D02*
X28910365Y-17282975D01*
X28910365Y-22005175D02*
X28950365Y-22045175D01*
X28950365Y-22005175D02*
X28910365Y-22045175D01*
X28910365Y-24068795D02*
X28950365Y-24108795D01*
X28950365Y-24068795D02*
X28910365Y-24108795D01*
X29029420Y-22917930D02*
X29069420Y-22957930D01*
X29069420Y-22917930D02*
X29029420Y-22957930D01*
X29108790Y-27045170D02*
X29148790Y-27085170D01*
X29148790Y-27045170D02*
X29108790Y-27085170D01*
X29267530Y-26807060D02*
X29307530Y-26847060D01*
X29307530Y-26807060D02*
X29267530Y-26847060D01*
X29386585Y-20259035D02*
X29426585Y-20299035D01*
X29426585Y-20259035D02*
X29386585Y-20299035D01*
X29386585Y-23910055D02*
X29426585Y-23950055D01*
X29426585Y-23910055D02*
X29386585Y-23950055D01*
X29453140Y-27283280D02*
X29493140Y-27323280D01*
X29493140Y-27283280D02*
X29453140Y-27323280D01*
X29505640Y-19108170D02*
X29545640Y-19148170D01*
X29545640Y-19108170D02*
X29505640Y-19148170D01*
X29558140Y-27283280D02*
X29598140Y-27323280D01*
X29598140Y-27283280D02*
X29558140Y-27323280D01*
X29585010Y-26727690D02*
X29625010Y-26767690D01*
X29625010Y-26727690D02*
X29585010Y-26767690D01*
X29664380Y-27918240D02*
X29704380Y-27958240D01*
X29704380Y-27918240D02*
X29664380Y-27958240D01*
X29862805Y-20100295D02*
X29902805Y-20140295D01*
X29902805Y-20100295D02*
X29862805Y-20140295D01*
X29862805Y-25973675D02*
X29902805Y-26013675D01*
X29902805Y-25973675D02*
X29862805Y-26013675D01*
X29981860Y-24822810D02*
X30021860Y-24862810D01*
X30021860Y-24822810D02*
X29981860Y-24862810D01*
X29981860Y-26330840D02*
X30021860Y-26370840D01*
X30021860Y-26330840D02*
X29981860Y-26370840D01*
X30100915Y-27673260D02*
X30140915Y-27713260D01*
X30140915Y-27673260D02*
X30100915Y-27713260D01*
X30299340Y-17917620D02*
X30339340Y-17957620D01*
X30339340Y-17917620D02*
X30299340Y-17957620D01*
X30299340Y-25814935D02*
X30339340Y-25854935D01*
X30339340Y-25814935D02*
X30299340Y-25854935D01*
X30458080Y-21013050D02*
X30498080Y-21053050D01*
X30498080Y-21013050D02*
X30458080Y-21053050D01*
X30537450Y-17123920D02*
X30577450Y-17163920D01*
X30577450Y-17123920D02*
X30537450Y-17163920D01*
X30537450Y-17223920D02*
X30577450Y-17263920D01*
X30577450Y-17223920D02*
X30537450Y-17263920D01*
X30616820Y-15060300D02*
X30656820Y-15100300D01*
X30656820Y-15060300D02*
X30616820Y-15100300D01*
X30656505Y-17004865D02*
X30696505Y-17044865D01*
X30696505Y-17004865D02*
X30656505Y-17044865D01*
X30656505Y-17322345D02*
X30696505Y-17362345D01*
X30696505Y-17322345D02*
X30656505Y-17362345D01*
X30656505Y-22203600D02*
X30696505Y-22243600D01*
X30696505Y-22203600D02*
X30656505Y-22243600D01*
X30670960Y-15933370D02*
X30710960Y-15973370D01*
X30710960Y-15933370D02*
X30670960Y-15973370D01*
X30775560Y-15139670D02*
X30815560Y-15179670D01*
X30815560Y-15139670D02*
X30775560Y-15179670D01*
X30815245Y-22005175D02*
X30855245Y-22045175D01*
X30855245Y-22005175D02*
X30815245Y-22045175D01*
X30815245Y-24068795D02*
X30855245Y-24108795D01*
X30855245Y-24068795D02*
X30815245Y-24108795D01*
X30894615Y-15933370D02*
X30934615Y-15973370D01*
X30934615Y-15933370D02*
X30894615Y-15973370D01*
X30894615Y-17004865D02*
X30934615Y-17044865D01*
X30934615Y-17004865D02*
X30894615Y-17044865D01*
X30894615Y-17322345D02*
X30934615Y-17362345D01*
X30934615Y-17322345D02*
X30894615Y-17362345D01*
X30934300Y-15060300D02*
X30974300Y-15100300D01*
X30974300Y-15060300D02*
X30934300Y-15100300D01*
X30934300Y-22917930D02*
X30974300Y-22957930D01*
X30974300Y-22917930D02*
X30934300Y-22957930D01*
X31013670Y-17123920D02*
X31053670Y-17163920D01*
X31053670Y-17123920D02*
X31013670Y-17163920D01*
X31013670Y-17223920D02*
X31053670Y-17263920D01*
X31053670Y-17223920D02*
X31013670Y-17263920D01*
X31291465Y-20259035D02*
X31331465Y-20299035D01*
X31331465Y-20259035D02*
X31291465Y-20299035D01*
X31291465Y-23910055D02*
X31331465Y-23950055D01*
X31331465Y-23910055D02*
X31291465Y-23950055D01*
X31410520Y-16250850D02*
X31450520Y-16290850D01*
X31450520Y-16250850D02*
X31410520Y-16290850D01*
X31410520Y-19108170D02*
X31450520Y-19148170D01*
X31450520Y-19108170D02*
X31410520Y-19148170D01*
X31728000Y-27124540D02*
X31768000Y-27164540D01*
X31768000Y-27124540D02*
X31728000Y-27164540D01*
X31767685Y-17242975D02*
X31807685Y-17282975D01*
X31807685Y-17242975D02*
X31767685Y-17282975D01*
X31767685Y-20100295D02*
X31807685Y-20140295D01*
X31807685Y-20100295D02*
X31767685Y-20140295D01*
X31767685Y-25973675D02*
X31807685Y-26013675D01*
X31807685Y-25973675D02*
X31767685Y-26013675D01*
X31767685Y-27878555D02*
X31807685Y-27918555D01*
X31807685Y-27878555D02*
X31767685Y-27918555D01*
X31886740Y-24822810D02*
X31926740Y-24862810D01*
X31926740Y-24822810D02*
X31886740Y-24862810D01*
X31886740Y-26330840D02*
X31926740Y-26370840D01*
X31926740Y-26330840D02*
X31886740Y-26370840D01*
X32243905Y-25814935D02*
X32283905Y-25854935D01*
X32283905Y-25814935D02*
X32243905Y-25854935D01*
X32362960Y-21013050D02*
X32402960Y-21053050D01*
X32402960Y-21013050D02*
X32362960Y-21053050D01*
X32442330Y-27680130D02*
X32482330Y-27720130D01*
X32482330Y-27680130D02*
X32442330Y-27720130D01*
X32561385Y-22203600D02*
X32601385Y-22243600D01*
X32601385Y-22203600D02*
X32561385Y-22243600D01*
X32720125Y-22005175D02*
X32760125Y-22045175D01*
X32760125Y-22005175D02*
X32720125Y-22045175D01*
X32720125Y-24068795D02*
X32760125Y-24108795D01*
X32760125Y-24068795D02*
X32720125Y-24108795D01*
X32839180Y-22917930D02*
X32879180Y-22957930D01*
X32879180Y-22917930D02*
X32839180Y-22957930D01*
X33156660Y-15854000D02*
X33196660Y-15894000D01*
X33196660Y-15854000D02*
X33156660Y-15894000D01*
X33196345Y-20259035D02*
X33236345Y-20299035D01*
X33236345Y-20259035D02*
X33196345Y-20299035D01*
X33196345Y-23910055D02*
X33236345Y-23950055D01*
X33236345Y-23910055D02*
X33196345Y-23950055D01*
X33315400Y-16250850D02*
X33355400Y-16290850D01*
X33355400Y-16250850D02*
X33315400Y-16290850D01*
X33315400Y-19108170D02*
X33355400Y-19148170D01*
X33355400Y-19108170D02*
X33315400Y-19148170D01*
X33513825Y-17441400D02*
X33553825Y-17481400D01*
X33553825Y-17441400D02*
X33513825Y-17481400D01*
X33672565Y-17242975D02*
X33712565Y-17282975D01*
X33712565Y-17242975D02*
X33672565Y-17282975D01*
X33672565Y-20100295D02*
X33712565Y-20140295D01*
X33712565Y-20100295D02*
X33672565Y-20140295D01*
X33870990Y-25973675D02*
X33910990Y-26013675D01*
X33910990Y-25973675D02*
X33870990Y-26013675D01*
X34109100Y-27124540D02*
X34149100Y-27164540D01*
X34149100Y-27124540D02*
X34109100Y-27164540D01*
X34148785Y-27878555D02*
X34188785Y-27918555D01*
X34188785Y-27878555D02*
X34148785Y-27918555D01*
X34267840Y-21013050D02*
X34307840Y-21053050D01*
X34307840Y-21013050D02*
X34267840Y-21053050D01*
X34267840Y-26410210D02*
X34307840Y-26450210D01*
X34307840Y-26410210D02*
X34267840Y-26450210D01*
X34426580Y-22203600D02*
X34466580Y-22243600D01*
X34466580Y-22203600D02*
X34426580Y-22243600D01*
X34625005Y-22005175D02*
X34665005Y-22045175D01*
X34665005Y-22005175D02*
X34625005Y-22045175D01*
X34625005Y-24068795D02*
X34665005Y-24108795D01*
X34665005Y-24068795D02*
X34625005Y-24108795D01*
X34823430Y-27680130D02*
X34863430Y-27720130D01*
X34863430Y-27680130D02*
X34823430Y-27720130D01*
X35101225Y-20259035D02*
X35141225Y-20299035D01*
X35141225Y-20259035D02*
X35101225Y-20299035D01*
X35220280Y-16250850D02*
X35260280Y-16290850D01*
X35260280Y-16250850D02*
X35220280Y-16290850D01*
X35379020Y-17441400D02*
X35419020Y-17481400D01*
X35419020Y-17441400D02*
X35379020Y-17481400D01*
X35458390Y-24822810D02*
X35498390Y-24862810D01*
X35498390Y-24822810D02*
X35458390Y-24862810D01*
X35577445Y-17242975D02*
X35617445Y-17282975D01*
X35617445Y-17242975D02*
X35577445Y-17282975D01*
X35617130Y-23552890D02*
X35657130Y-23592890D01*
X35657130Y-23552890D02*
X35617130Y-23592890D01*
X35696500Y-26013360D02*
X35736500Y-26053360D01*
X35736500Y-26013360D02*
X35696500Y-26053360D01*
X35815555Y-25814935D02*
X35855555Y-25854935D01*
X35855555Y-25814935D02*
X35815555Y-25854935D01*
X35934610Y-22917930D02*
X35974610Y-22957930D01*
X35974610Y-22917930D02*
X35934610Y-22957930D01*
X36053665Y-22163915D02*
X36093665Y-22203915D01*
X36093665Y-22163915D02*
X36053665Y-22203915D01*
X36133035Y-24108480D02*
X36173035Y-24148480D01*
X36173035Y-24108480D02*
X36133035Y-24148480D01*
X36172720Y-19108170D02*
X36212720Y-19148170D01*
X36212720Y-19108170D02*
X36172720Y-19148170D01*
X36291775Y-23910055D02*
X36331775Y-23950055D01*
X36331775Y-23910055D02*
X36291775Y-23950055D01*
X36490200Y-26330840D02*
X36530200Y-26370840D01*
X36530200Y-26330840D02*
X36490200Y-26370840D01*
X36529885Y-20100295D02*
X36569885Y-20140295D01*
X36569885Y-20100295D02*
X36529885Y-20140295D01*
X36529885Y-27878555D02*
X36569885Y-27918555D01*
X36569885Y-27878555D02*
X36529885Y-27918555D01*
X36648940Y-21013050D02*
X36688940Y-21053050D01*
X36688940Y-21013050D02*
X36648940Y-21053050D01*
X36807680Y-22203600D02*
X36847680Y-22243600D01*
X36847680Y-22203600D02*
X36807680Y-22243600D01*
X36887050Y-26727690D02*
X36927050Y-26767690D01*
X36927050Y-26727690D02*
X36887050Y-26767690D01*
X36966420Y-15854000D02*
X37006420Y-15894000D01*
X37006420Y-15854000D02*
X36966420Y-15894000D01*
X37006105Y-22005175D02*
X37046105Y-22045175D01*
X37046105Y-22005175D02*
X37006105Y-22045175D01*
X37125160Y-16250850D02*
X37165160Y-16290850D01*
X37165160Y-16250850D02*
X37125160Y-16290850D01*
X37125160Y-26013360D02*
X37165160Y-26053360D01*
X37165160Y-26013360D02*
X37125160Y-26053360D01*
X37244215Y-27719815D02*
X37284215Y-27759815D01*
X37284215Y-27719815D02*
X37244215Y-27759815D01*
X37283900Y-25814935D02*
X37323900Y-25854935D01*
X37323900Y-25814935D02*
X37283900Y-25854935D01*
X37323585Y-17441400D02*
X37363585Y-17481400D01*
X37363585Y-17441400D02*
X37323585Y-17481400D01*
X37363270Y-25457770D02*
X37403270Y-25497770D01*
X37403270Y-25457770D02*
X37363270Y-25497770D01*
X37482325Y-17242975D02*
X37522325Y-17282975D01*
X37522325Y-17242975D02*
X37482325Y-17282975D01*
X37522010Y-25695880D02*
X37562010Y-25735880D01*
X37562010Y-25695880D02*
X37522010Y-25735880D01*
X37680750Y-20457460D02*
X37720750Y-20497460D01*
X37720750Y-20457460D02*
X37680750Y-20497460D01*
X37680750Y-25060920D02*
X37720750Y-25100920D01*
X37720750Y-25060920D02*
X37680750Y-25100920D01*
X37760120Y-25933990D02*
X37800120Y-25973990D01*
X37800120Y-25933990D02*
X37760120Y-25973990D01*
X37879175Y-20298720D02*
X37919175Y-20338720D01*
X37919175Y-20298720D02*
X37879175Y-20338720D01*
X38236340Y-23659130D02*
X38276340Y-23699130D01*
X38276340Y-23659130D02*
X38236340Y-23699130D01*
X38236340Y-23764130D02*
X38276340Y-23804130D01*
X38276340Y-23764130D02*
X38236340Y-23804130D01*
X38236340Y-24545015D02*
X38276340Y-24585015D01*
X38276340Y-24545015D02*
X38236340Y-24585015D01*
X38276025Y-23195725D02*
X38316025Y-23235725D01*
X38316025Y-23195725D02*
X38276025Y-23235725D01*
X38315710Y-19981240D02*
X38355710Y-20021240D01*
X38355710Y-19981240D02*
X38315710Y-20021240D01*
X38315710Y-20219350D02*
X38355710Y-20259350D01*
X38355710Y-20219350D02*
X38315710Y-20259350D01*
X38315710Y-22124230D02*
X38355710Y-22164230D01*
X38355710Y-22124230D02*
X38315710Y-22164230D01*
X38315710Y-25457770D02*
X38355710Y-25497770D01*
X38355710Y-25457770D02*
X38315710Y-25497770D01*
X38315710Y-26132415D02*
X38355710Y-26172415D01*
X38355710Y-26132415D02*
X38315710Y-26172415D01*
X38315710Y-26489580D02*
X38355710Y-26529580D01*
X38355710Y-26489580D02*
X38315710Y-26529580D01*
X38395080Y-22441710D02*
X38435080Y-22481710D01*
X38435080Y-22441710D02*
X38395080Y-22481710D01*
X38474450Y-18711320D02*
X38514450Y-18751320D01*
X38514450Y-18711320D02*
X38474450Y-18751320D01*
X38474450Y-20378090D02*
X38514450Y-20418090D01*
X38514450Y-20378090D02*
X38474450Y-20418090D01*
X38474450Y-21727380D02*
X38514450Y-21767380D01*
X38514450Y-21727380D02*
X38474450Y-21767380D01*
X38474450Y-21827380D02*
X38514450Y-21867380D01*
X38514450Y-21827380D02*
X38474450Y-21867380D01*
X38553820Y-20616200D02*
X38593820Y-20656200D01*
X38593820Y-20616200D02*
X38553820Y-20656200D01*
X38553820Y-25140290D02*
X38593820Y-25180290D01*
X38593820Y-25140290D02*
X38553820Y-25180290D01*
X38596067Y-23912617D02*
X38636067Y-23952617D01*
X38636067Y-23912617D02*
X38596067Y-23952617D01*
X38633190Y-21965490D02*
X38673190Y-22005490D01*
X38673190Y-21965490D02*
X38633190Y-22005490D01*
X38633190Y-26053045D02*
X38673190Y-26093045D01*
X38673190Y-26053045D02*
X38633190Y-26093045D01*
X38670313Y-23986863D02*
X38710313Y-24026863D01*
X38710313Y-23986863D02*
X38670313Y-24026863D01*
X38739430Y-26172100D02*
X38779430Y-26212100D01*
X38779430Y-26172100D02*
X38739430Y-26212100D01*
X38752245Y-19782815D02*
X38792245Y-19822815D01*
X38792245Y-19782815D02*
X38752245Y-19822815D01*
X38752245Y-20814625D02*
X38792245Y-20854625D01*
X38792245Y-20814625D02*
X38752245Y-20854625D01*
X38752245Y-21648010D02*
X38792245Y-21688010D01*
X38792245Y-21648010D02*
X38752245Y-21688010D01*
X38752245Y-22322655D02*
X38792245Y-22362655D01*
X38792245Y-22322655D02*
X38752245Y-22362655D01*
X38844430Y-26172100D02*
X38884430Y-26212100D01*
X38884430Y-26172100D02*
X38844430Y-26212100D01*
X38858485Y-22294615D02*
X38898485Y-22334615D01*
X38898485Y-22294615D02*
X38858485Y-22334615D01*
X38871300Y-24902180D02*
X38911300Y-24942180D01*
X38911300Y-24902180D02*
X38871300Y-24942180D01*
X38910985Y-17401715D02*
X38950985Y-17441715D01*
X38950985Y-17401715D02*
X38910985Y-17441715D01*
X38910985Y-27878555D02*
X38950985Y-27918555D01*
X38950985Y-27878555D02*
X38910985Y-27918555D01*
X38950670Y-25537140D02*
X38990670Y-25577140D01*
X38990670Y-25537140D02*
X38950670Y-25577140D01*
X38950670Y-26053045D02*
X38990670Y-26093045D01*
X38990670Y-26053045D02*
X38950670Y-26093045D01*
X38963485Y-22294615D02*
X39003485Y-22334615D01*
X39003485Y-22294615D02*
X38963485Y-22334615D01*
X38990355Y-23116355D02*
X39030355Y-23156355D01*
X39030355Y-23116355D02*
X38990355Y-23156355D01*
X39056910Y-22175326D02*
X39096910Y-22215326D01*
X39096910Y-22175326D02*
X39056910Y-22215326D01*
X39161910Y-22175326D02*
X39201910Y-22215326D01*
X39201910Y-22175326D02*
X39161910Y-22215326D01*
X39188780Y-23552890D02*
X39228780Y-23592890D01*
X39228780Y-23552890D02*
X39188780Y-23592890D01*
X39268150Y-25537140D02*
X39308150Y-25577140D01*
X39308150Y-25537140D02*
X39268150Y-25577140D01*
X39347520Y-22282970D02*
X39387520Y-22322970D01*
X39387520Y-22282970D02*
X39347520Y-22322970D01*
X39347520Y-25695880D02*
X39387520Y-25735880D01*
X39387520Y-25695880D02*
X39347520Y-25735880D01*
X39426890Y-24743440D02*
X39466890Y-24783440D01*
X39466890Y-24743440D02*
X39426890Y-24783440D01*
X39506260Y-23791000D02*
X39546260Y-23831000D01*
X39546260Y-23791000D02*
X39506260Y-23831000D01*
X39506260Y-25933990D02*
X39546260Y-25973990D01*
X39546260Y-25933990D02*
X39506260Y-25973990D01*
X39665000Y-17917620D02*
X39705000Y-17957620D01*
X39705000Y-17917620D02*
X39665000Y-17957620D01*
X39717815Y-22454786D02*
X39757815Y-22494786D01*
X39757815Y-22454786D02*
X39717815Y-22494786D01*
X39744370Y-24703755D02*
X39784370Y-24743755D01*
X39784370Y-24703755D02*
X39744370Y-24743755D01*
X39784055Y-24029110D02*
X39824055Y-24069110D01*
X39824055Y-24029110D02*
X39784055Y-24069110D01*
X39822815Y-22454786D02*
X39862815Y-22494786D01*
X39862815Y-22454786D02*
X39822815Y-22494786D01*
X39823740Y-15854000D02*
X39863740Y-15894000D01*
X39863740Y-15854000D02*
X39823740Y-15894000D01*
X39823740Y-25814935D02*
X39863740Y-25854935D01*
X39863740Y-25814935D02*
X39823740Y-25854935D01*
X39857480Y-22960050D02*
X39897480Y-23000050D01*
X39897480Y-22960050D02*
X39857480Y-23000050D01*
X39857480Y-23065050D02*
X39897480Y-23105050D01*
X39897480Y-23065050D02*
X39857480Y-23105050D01*
X39863425Y-21648010D02*
X39903425Y-21688010D01*
X39903425Y-21648010D02*
X39863425Y-21688010D01*
X39863425Y-22322655D02*
X39903425Y-22362655D01*
X39903425Y-22322655D02*
X39863425Y-22362655D01*
X39903110Y-19822500D02*
X39943110Y-19862500D01*
X39943110Y-19822500D02*
X39903110Y-19862500D01*
X39903110Y-20814625D02*
X39943110Y-20854625D01*
X39943110Y-20814625D02*
X39903110Y-20854625D01*
X39942795Y-22878245D02*
X39982795Y-22918245D01*
X39982795Y-22878245D02*
X39942795Y-22918245D01*
X39942795Y-24425960D02*
X39982795Y-24465960D01*
X39982795Y-24425960D02*
X39942795Y-24465960D01*
X39977848Y-22128862D02*
X40017848Y-22168862D01*
X40017848Y-22128862D02*
X39977848Y-22168862D01*
X39982480Y-19981240D02*
X40022480Y-20021240D01*
X40022480Y-19981240D02*
X39982480Y-20021240D01*
X39982480Y-20219350D02*
X40022480Y-20259350D01*
X40022480Y-20219350D02*
X39982480Y-20259350D01*
X39982480Y-20457460D02*
X40022480Y-20497460D01*
X40022480Y-20457460D02*
X39982480Y-20497460D01*
X39982480Y-20616200D02*
X40022480Y-20656200D01*
X40022480Y-20616200D02*
X39982480Y-20656200D01*
X39982480Y-21727380D02*
X40022480Y-21767380D01*
X40022480Y-21727380D02*
X39982480Y-21767380D01*
X39982480Y-21827380D02*
X40022480Y-21867380D01*
X40022480Y-21827380D02*
X39982480Y-21867380D01*
X39982480Y-21965490D02*
X40022480Y-22005490D01*
X40022480Y-21965490D02*
X39982480Y-22005490D01*
X40061850Y-16250850D02*
X40101850Y-16290850D01*
X40101850Y-16250850D02*
X40061850Y-16290850D01*
X40061850Y-19108170D02*
X40101850Y-19148170D01*
X40101850Y-19108170D02*
X40061850Y-19148170D01*
X40061850Y-21013050D02*
X40101850Y-21053050D01*
X40101850Y-21013050D02*
X40061850Y-21053050D01*
X40061850Y-26727690D02*
X40101850Y-26767690D01*
X40101850Y-26727690D02*
X40061850Y-26767690D01*
X40220590Y-24505330D02*
X40260590Y-24545330D01*
X40260590Y-24505330D02*
X40220590Y-24545330D01*
X40260275Y-20100295D02*
X40300275Y-20140295D01*
X40300275Y-20100295D02*
X40260275Y-20140295D01*
X40260275Y-21925805D02*
X40300275Y-21965805D01*
X40300275Y-21925805D02*
X40260275Y-21965805D01*
X40339645Y-17242975D02*
X40379645Y-17282975D01*
X40379645Y-17242975D02*
X40339645Y-17282975D01*
X40339645Y-27719815D02*
X40379645Y-27759815D01*
X40379645Y-27719815D02*
X40339645Y-27759815D01*
X41173030Y-22600450D02*
X41213030Y-22640450D01*
X41213030Y-22600450D02*
X41173030Y-22640450D01*
X41173030Y-24029110D02*
X41213030Y-24069110D01*
X41213030Y-24029110D02*
X41173030Y-24069110D01*
X41252400Y-22997300D02*
X41292400Y-23037300D01*
X41292400Y-22997300D02*
X41252400Y-23037300D01*
X41343350Y-22691400D02*
X41383350Y-22731400D01*
X41383350Y-22691400D02*
X41343350Y-22731400D01*
X41490510Y-17203290D02*
X41530510Y-17243290D01*
X41530510Y-17203290D02*
X41490510Y-17243290D01*
X41490510Y-25060920D02*
X41530510Y-25100920D01*
X41530510Y-25060920D02*
X41490510Y-25100920D01*
X41728620Y-24505330D02*
X41768620Y-24545330D01*
X41768620Y-24505330D02*
X41728620Y-24545330D01*
X41728620Y-27878555D02*
X41768620Y-27918555D01*
X41768620Y-27878555D02*
X41728620Y-27918555D01*
X41887360Y-19108170D02*
X41927360Y-19148170D01*
X41927360Y-19108170D02*
X41887360Y-19148170D01*
X41887360Y-21013050D02*
X41927360Y-21053050D01*
X41927360Y-21013050D02*
X41887360Y-21053050D01*
X41887360Y-25378400D02*
X41927360Y-25418400D01*
X41927360Y-25378400D02*
X41887360Y-25418400D01*
X41887360Y-26727690D02*
X41927360Y-26767690D01*
X41927360Y-26727690D02*
X41887360Y-26767690D01*
X41967394Y-22678467D02*
X42007394Y-22718467D01*
X42007394Y-22678467D02*
X41967394Y-22718467D01*
X42046100Y-20298720D02*
X42086100Y-20338720D01*
X42086100Y-20298720D02*
X42046100Y-20338720D01*
X42085785Y-22203600D02*
X42125785Y-22243600D01*
X42125785Y-22203600D02*
X42085785Y-22243600D01*
X42125470Y-17123920D02*
X42165470Y-17163920D01*
X42165470Y-17123920D02*
X42125470Y-17163920D01*
X42125470Y-23314780D02*
X42165470Y-23354780D01*
X42165470Y-23314780D02*
X42125470Y-23354780D01*
X42125470Y-24505330D02*
X42165470Y-24545330D01*
X42165470Y-24505330D02*
X42125470Y-24545330D01*
X42204840Y-17322345D02*
X42244840Y-17362345D01*
X42244840Y-17322345D02*
X42204840Y-17362345D01*
X42244525Y-20100295D02*
X42284525Y-20140295D01*
X42284525Y-20100295D02*
X42244525Y-20140295D01*
X42244525Y-22005175D02*
X42284525Y-22045175D01*
X42284525Y-22005175D02*
X42244525Y-22045175D01*
X42244525Y-25814935D02*
X42284525Y-25854935D01*
X42284525Y-25814935D02*
X42244525Y-25854935D01*
X42244525Y-27719815D02*
X42284525Y-27759815D01*
X42284525Y-27719815D02*
X42244525Y-27759815D01*
X42482635Y-15774630D02*
X42522635Y-15814630D01*
X42522635Y-15774630D02*
X42482635Y-15814630D01*
X42522320Y-24505330D02*
X42562320Y-24545330D01*
X42562320Y-24505330D02*
X42522320Y-24545330D01*
X42681060Y-15695260D02*
X42721060Y-15735260D01*
X42721060Y-15695260D02*
X42681060Y-15735260D01*
X42681060Y-22759190D02*
X42721060Y-22799190D01*
X42721060Y-22759190D02*
X42681060Y-22799190D01*
X42760430Y-22997300D02*
X42800430Y-23037300D01*
X42800430Y-22997300D02*
X42760430Y-23037300D01*
X42879485Y-15774630D02*
X42919485Y-15814630D01*
X42919485Y-15774630D02*
X42879485Y-15814630D01*
X43077910Y-25140290D02*
X43117910Y-25180290D01*
X43117910Y-25140290D02*
X43077910Y-25180290D01*
X43236650Y-17123920D02*
X43276650Y-17163920D01*
X43276650Y-17123920D02*
X43236650Y-17163920D01*
X43316020Y-22838560D02*
X43356020Y-22878560D01*
X43356020Y-22838560D02*
X43316020Y-22878560D01*
X43395390Y-16647700D02*
X43435390Y-16687700D01*
X43435390Y-16647700D02*
X43395390Y-16687700D01*
X43474760Y-18116045D02*
X43514760Y-18156045D01*
X43514760Y-18116045D02*
X43474760Y-18156045D01*
X43474760Y-18671635D02*
X43514760Y-18711635D01*
X43514760Y-18671635D02*
X43474760Y-18711635D01*
X43474760Y-23632260D02*
X43514760Y-23672260D01*
X43514760Y-23632260D02*
X43474760Y-23672260D01*
X43554130Y-22362340D02*
X43594130Y-22402340D01*
X43594130Y-22362340D02*
X43554130Y-22402340D01*
X43554130Y-26053045D02*
X43594130Y-26093045D01*
X43594130Y-26053045D02*
X43554130Y-26093045D01*
X43554130Y-26410210D02*
X43594130Y-26450210D01*
X43594130Y-26410210D02*
X43554130Y-26450210D01*
X43633500Y-19028800D02*
X43673500Y-19068800D01*
X43673500Y-19028800D02*
X43633500Y-19068800D01*
X43633500Y-20933680D02*
X43673500Y-20973680D01*
X43673500Y-20933680D02*
X43633500Y-20973680D01*
X43633500Y-26648320D02*
X43673500Y-26688320D01*
X43673500Y-26648320D02*
X43633500Y-26688320D01*
X43712870Y-17600140D02*
X43752870Y-17640140D01*
X43752870Y-17600140D02*
X43712870Y-17640140D01*
X43950980Y-16885810D02*
X43990980Y-16925810D01*
X43990980Y-16885810D02*
X43950980Y-16925810D01*
X43950980Y-26053045D02*
X43990980Y-26093045D01*
X43990980Y-26053045D02*
X43950980Y-26093045D01*
X43950980Y-26410210D02*
X43990980Y-26450210D01*
X43990980Y-26410210D02*
X43950980Y-26450210D01*
X43990665Y-18116045D02*
X44030665Y-18156045D01*
X44030665Y-18116045D02*
X43990665Y-18156045D01*
X43990665Y-18671635D02*
X44030665Y-18711635D01*
X44030665Y-18671635D02*
X43990665Y-18711635D01*
X44030350Y-20298720D02*
X44070350Y-20338720D01*
X44070350Y-20298720D02*
X44030350Y-20338720D01*
X44030350Y-22203600D02*
X44070350Y-22243600D01*
X44070350Y-22203600D02*
X44030350Y-22243600D01*
X44030350Y-22759190D02*
X44070350Y-22799190D01*
X44070350Y-22759190D02*
X44030350Y-22799190D01*
X44030350Y-27957925D02*
X44070350Y-27997925D01*
X44070350Y-27957925D02*
X44030350Y-27997925D01*
X44109720Y-23552890D02*
X44149720Y-23592890D01*
X44149720Y-23552890D02*
X44109720Y-23592890D01*
X44109720Y-25219660D02*
X44149720Y-25259660D01*
X44149720Y-25219660D02*
X44109720Y-25259660D01*
X44149405Y-20100295D02*
X44189405Y-20140295D01*
X44189405Y-20100295D02*
X44149405Y-20140295D01*
X44149405Y-22005175D02*
X44189405Y-22045175D01*
X44189405Y-22005175D02*
X44149405Y-22045175D01*
X44149405Y-27719815D02*
X44189405Y-27759815D01*
X44189405Y-27719815D02*
X44149405Y-27759815D01*
X44189090Y-16806440D02*
X44229090Y-16846440D01*
X44229090Y-16806440D02*
X44189090Y-16846440D01*
X44189090Y-28235720D02*
X44229090Y-28275720D01*
X44229090Y-28235720D02*
X44189090Y-28275720D01*
X44268460Y-26092730D02*
X44308460Y-26132730D01*
X44308460Y-26092730D02*
X44268460Y-26132730D01*
X45379640Y-18142600D02*
X45419640Y-18182600D01*
X45419640Y-18142600D02*
X45379640Y-18182600D01*
X45379640Y-18327600D02*
X45419640Y-18367600D01*
X45419640Y-18327600D02*
X45379640Y-18367600D01*
X45379640Y-20100295D02*
X45419640Y-20140295D01*
X45419640Y-20100295D02*
X45379640Y-20140295D01*
X45379640Y-20655885D02*
X45419640Y-20695885D01*
X45419640Y-20655885D02*
X45379640Y-20695885D01*
X45538380Y-25219660D02*
X45578380Y-25259660D01*
X45578380Y-25219660D02*
X45538380Y-25259660D01*
X45538380Y-25537140D02*
X45578380Y-25577140D01*
X45578380Y-25537140D02*
X45538380Y-25577140D01*
X45617750Y-25378400D02*
X45657750Y-25418400D01*
X45657750Y-25378400D02*
X45617750Y-25418400D01*
X46252710Y-18235100D02*
X46292710Y-18275100D01*
X46292710Y-18235100D02*
X46252710Y-18275100D01*
X46332080Y-18076360D02*
X46372080Y-18116360D01*
X46372080Y-18076360D02*
X46332080Y-18116360D01*
X46332080Y-18393840D02*
X46372080Y-18433840D01*
X46372080Y-18393840D02*
X46332080Y-18433840D01*
X7195190Y-17823100D02*
G75*
G03*
X7195190Y-17823100I-30000J0D01*
G01*
X7135190Y-17843100D02*
X7195190Y-17843100D01*
X7135190Y-17803100D02*
X7195190Y-17803100D01*
X7195190Y-17843100D02*
G75*
G03*
X7195190Y-17803100I0J20000D01*
G01*
X7135190Y-17803100D02*
G75*
G03*
X7135190Y-17843100I0J-20000D01*
G01*
X7195190Y-18687100D02*
G75*
G03*
X7195190Y-18687100I-30000J0D01*
G01*
X7135190Y-18707100D02*
X7195190Y-18707100D01*
X7135190Y-18667100D02*
X7195190Y-18667100D01*
X7195190Y-18707100D02*
G75*
G03*
X7195190Y-18667100I0J20000D01*
G01*
X7135190Y-18667100D02*
G75*
G03*
X7135190Y-18707100I0J-20000D01*
G01*
X7613190Y-17823100D02*
G75*
G03*
X7613190Y-17823100I-30000J0D01*
G01*
X7528190Y-17843100D02*
X7638190Y-17843100D01*
X7528190Y-17803100D02*
X7638190Y-17803100D01*
X7638190Y-17843100D02*
G75*
G03*
X7638190Y-17803100I0J20000D01*
G01*
X7528190Y-17803100D02*
G75*
G03*
X7528190Y-17843100I0J-20000D01*
G01*
X7613190Y-18687100D02*
G75*
G03*
X7613190Y-18687100I-30000J0D01*
G01*
X7528190Y-18707100D02*
X7638190Y-18707100D01*
X7528190Y-18667100D02*
X7638190Y-18667100D01*
X7638190Y-18707100D02*
G75*
G03*
X7638190Y-18667100I0J20000D01*
G01*
X7528190Y-18667100D02*
G75*
G03*
X7528190Y-18707100I0J-20000D01*
G01*
X21821600Y-15102190D02*
G75*
G03*
X21821600Y-15102190I-30000J0D01*
G01*
X21771600Y-15072190D02*
X21771600Y-15132190D01*
X21811600Y-15072190D02*
X21811600Y-15132190D01*
X21771600Y-15132190D02*
G75*
G03*
X21811600Y-15132190I20000J0D01*
G01*
X21811600Y-15072190D02*
G75*
G03*
X21771600Y-15072190I-20000J0D01*
G01*
X21821600Y-15520190D02*
G75*
G03*
X21821600Y-15520190I-30000J0D01*
G01*
X21771600Y-15465190D02*
X21771600Y-15575190D01*
X21811600Y-15465190D02*
X21811600Y-15575190D01*
X21771600Y-15575190D02*
G75*
G03*
X21811600Y-15575190I20000J0D01*
G01*
X21811600Y-15465190D02*
G75*
G03*
X21771600Y-15465190I-20000J0D01*
G01*
X22685600Y-15102190D02*
G75*
G03*
X22685600Y-15102190I-30000J0D01*
G01*
X22635600Y-15072190D02*
X22635600Y-15132190D01*
X22675600Y-15072190D02*
X22675600Y-15132190D01*
X22635600Y-15132190D02*
G75*
G03*
X22675600Y-15132190I20000J0D01*
G01*
X22675600Y-15072190D02*
G75*
G03*
X22635600Y-15072190I-20000J0D01*
G01*
X22685600Y-15520190D02*
G75*
G03*
X22685600Y-15520190I-30000J0D01*
G01*
X22635600Y-15465190D02*
X22635600Y-15575190D01*
X22675600Y-15465190D02*
X22675600Y-15575190D01*
X22635600Y-15575190D02*
G75*
G03*
X22675600Y-15575190I20000J0D01*
G01*
X22675600Y-15465190D02*
G75*
G03*
X22635600Y-15465190I-20000J0D01*
G01*
X30393560Y-15102190D02*
G75*
G03*
X30393560Y-15102190I-30000J0D01*
G01*
X30343560Y-15072190D02*
X30343560Y-15132190D01*
X30383560Y-15072190D02*
X30383560Y-15132190D01*
X30343560Y-15132190D02*
G75*
G03*
X30383560Y-15132190I20000J0D01*
G01*
X30383560Y-15072190D02*
G75*
G03*
X30343560Y-15072190I-20000J0D01*
G01*
X30393560Y-15520190D02*
G75*
G03*
X30393560Y-15520190I-30000J0D01*
G01*
X30343560Y-15465190D02*
X30343560Y-15575190D01*
X30383560Y-15465190D02*
X30383560Y-15575190D01*
X30343560Y-15575190D02*
G75*
G03*
X30383560Y-15575190I20000J0D01*
G01*
X30383560Y-15465190D02*
G75*
G03*
X30343560Y-15465190I-20000J0D01*
G01*
X31257560Y-15102190D02*
G75*
G03*
X31257560Y-15102190I-30000J0D01*
G01*
X31207560Y-15072190D02*
X31207560Y-15132190D01*
X31247560Y-15072190D02*
X31247560Y-15132190D01*
X31207560Y-15132190D02*
G75*
G03*
X31247560Y-15132190I20000J0D01*
G01*
X31247560Y-15072190D02*
G75*
G03*
X31207560Y-15072190I-20000J0D01*
G01*
X31257560Y-15520190D02*
G75*
G03*
X31257560Y-15520190I-30000J0D01*
G01*
X31207560Y-15465190D02*
X31207560Y-15575190D01*
X31247560Y-15465190D02*
X31247560Y-15575190D01*
X31207560Y-15575190D02*
G75*
G03*
X31247560Y-15575190I20000J0D01*
G01*
X31247560Y-15465190D02*
G75*
G03*
X31207560Y-15465190I-20000J0D01*
G01*
X45942190Y-17823100D02*
G75*
G03*
X45942190Y-17823100I-30000J0D01*
G01*
X45967190Y-17803100D02*
X45857190Y-17803100D01*
X45967190Y-17843100D02*
X45857190Y-17843100D01*
X45857190Y-17803100D02*
G75*
G03*
X45857190Y-17843100I0J-20000D01*
G01*
X45967190Y-17843100D02*
G75*
G03*
X45967190Y-17803100I0J20000D01*
G01*
X45942190Y-18687100D02*
G75*
G03*
X45942190Y-18687100I-30000J0D01*
G01*
X45967190Y-18667100D02*
X45857190Y-18667100D01*
X45967190Y-18707100D02*
X45857190Y-18707100D01*
X45857190Y-18667100D02*
G75*
G03*
X45857190Y-18707100I0J-20000D01*
G01*
X45967190Y-18707100D02*
G75*
G03*
X45967190Y-18667100I0J20000D01*
G01*
X46360190Y-17823100D02*
G75*
G03*
X46360190Y-17823100I-30000J0D01*
G01*
X46360190Y-17803100D02*
X46300190Y-17803100D01*
X46360190Y-17843100D02*
X46300190Y-17843100D01*
X46300190Y-17803100D02*
G75*
G03*
X46300190Y-17843100I0J-20000D01*
G01*
X46360190Y-17843100D02*
G75*
G03*
X46360190Y-17803100I0J20000D01*
G01*
X46360190Y-18687100D02*
G75*
G03*
X46360190Y-18687100I-30000J0D01*
G01*
X46360190Y-18667100D02*
X46300190Y-18667100D01*
X46360190Y-18707100D02*
X46300190Y-18707100D01*
X46300190Y-18667100D02*
G75*
G03*
X46300190Y-18707100I0J-20000D01*
G01*
X46360190Y-18707100D02*
G75*
G03*
X46360190Y-18667100I0J20000D01*
G01*
X44526570Y-23071880D02*
X44526570Y-23153160D01*
X44485930Y-23112520D02*
X44567210Y-23112520D01*
X44526570Y-23325880D02*
X44526570Y-23407160D01*
X44485930Y-23366520D02*
X44567210Y-23366520D01*
X44526570Y-23579880D02*
X44526570Y-23661160D01*
X44485930Y-23620520D02*
X44567210Y-23620520D01*
X44526570Y-23833880D02*
X44526570Y-23915160D01*
X44485930Y-23874520D02*
X44567210Y-23874520D01*
X12857240Y-16223300D02*
X12857240Y-16159660D01*
X12793600Y-16159660D01*
X12793600Y-16223300D01*
X12857240Y-16223300D01*
X13107240Y-16223300D02*
X13107240Y-16159660D01*
X13043600Y-16159660D01*
X13043600Y-16223300D01*
X13107240Y-16223300D01*
X13307240Y-16223300D02*
X13307240Y-16159660D01*
X13243600Y-16159660D01*
X13243600Y-16223300D01*
X13307240Y-16223300D01*
X13557240Y-16223300D02*
X13557240Y-16159660D01*
X13493600Y-16159660D01*
X13493600Y-16223300D01*
X13557240Y-16223300D01*
X42382880Y-16143930D02*
X42382880Y-16080290D01*
X42319240Y-16080290D01*
X42319240Y-16143930D01*
X42382880Y-16143930D01*
X42632880Y-16143930D02*
X42632880Y-16080290D01*
X42569240Y-16080290D01*
X42569240Y-16143930D01*
X42632880Y-16143930D01*
X42832880Y-16143930D02*
X42832880Y-16080290D01*
X42769240Y-16080290D01*
X42769240Y-16143930D01*
X42832880Y-16143930D01*
X43082880Y-16143930D02*
X43082880Y-16080290D01*
X43019240Y-16080290D01*
X43019240Y-16143930D01*
X43082880Y-16143930D01*
X45272720Y-25080220D02*
X45272720Y-25016580D01*
X45209080Y-25016580D01*
X45209080Y-25080220D01*
X45272720Y-25080220D01*
X45272720Y-25330220D02*
X45272720Y-25266580D01*
X45209080Y-25266580D01*
X45209080Y-25330220D01*
X45272720Y-25330220D01*
X45272720Y-25530220D02*
X45272720Y-25466580D01*
X45209080Y-25466580D01*
X45209080Y-25530220D01*
X45272720Y-25530220D01*
X45272720Y-25780220D02*
X45272720Y-25716580D01*
X45209080Y-25716580D01*
X45209080Y-25780220D01*
X45272720Y-25780220D01*
X8233140Y-16693920D02*
X8283140Y-16643920D01*
X8233140Y-16593920D01*
X8183140Y-16643920D01*
X8233140Y-16693920D01*
X8233140Y-17193920D02*
X8283140Y-17143920D01*
X8233140Y-17093920D01*
X8183140Y-17143920D01*
X8233140Y-17193920D01*
X9683140Y-16693920D02*
X9733140Y-16643920D01*
X9683140Y-16593920D01*
X9633140Y-16643920D01*
X9683140Y-16693920D01*
X9683140Y-16943920D02*
X9733140Y-16893920D01*
X9683140Y-16843920D01*
X9633140Y-16893920D01*
X9683140Y-16943920D01*
X9683140Y-17193920D02*
X9733140Y-17143920D01*
X9683140Y-17093920D01*
X9633140Y-17143920D01*
X9683140Y-17193920D01*
X20906050Y-26980225D02*
X20956050Y-26930225D01*
X20906050Y-26880225D01*
X20856050Y-26930225D01*
X20906050Y-26980225D01*
X20906050Y-27234225D02*
X20956050Y-27184225D01*
X20906050Y-27134225D01*
X20856050Y-27184225D01*
X20906050Y-27234225D01*
X20906050Y-27488225D02*
X20956050Y-27438225D01*
X20906050Y-27388225D01*
X20856050Y-27438225D01*
X20906050Y-27488225D01*
X21160050Y-26980225D02*
X21210050Y-26930225D01*
X21160050Y-26880225D01*
X21110050Y-26930225D01*
X21160050Y-26980225D01*
X21160050Y-27234225D02*
X21210050Y-27184225D01*
X21160050Y-27134225D01*
X21110050Y-27184225D01*
X21160050Y-27234225D01*
X21160050Y-27488225D02*
X21210050Y-27438225D01*
X21160050Y-27388225D01*
X21110050Y-27438225D01*
X21160050Y-27488225D01*
X43790900Y-16693920D02*
X43840900Y-16643920D01*
X43790900Y-16593920D01*
X43740900Y-16643920D01*
X43790900Y-16693920D01*
X43790900Y-17193920D02*
X43840900Y-17143920D01*
X43790900Y-17093920D01*
X43740900Y-17143920D01*
X43790900Y-17193920D01*
X45240900Y-16693920D02*
X45290900Y-16643920D01*
X45240900Y-16593920D01*
X45190900Y-16643920D01*
X45240900Y-16693920D01*
X45240900Y-16943920D02*
X45290900Y-16893920D01*
X45240900Y-16843920D01*
X45190900Y-16893920D01*
X45240900Y-16943920D01*
X45240900Y-17193920D02*
X45290900Y-17143920D01*
X45240900Y-17093920D01*
X45190900Y-17143920D01*
X45240900Y-17193920D01*
X8858140Y-16258920D02*
X9008140Y-16408920D01*
X9008140Y-16258920D02*
X8858140Y-16408920D01*
X9008140Y-16333920D02*
G75*
G03*
X9008140Y-16333920I-75000J0D01*
G01*
X8998140Y-16268920D02*
X8868140Y-16268920D01*
X8998140Y-16398920D02*
X8868140Y-16398920D01*
X8868140Y-16268920D02*
G75*
G03*
X8868140Y-16398920I0J-65000D01*
G01*
X8998140Y-16398920D02*
G75*
G03*
X8998140Y-16268920I0J65000D01*
G01*
X8858140Y-17378920D02*
X9008140Y-17528920D01*
X9008140Y-17378920D02*
X8858140Y-17528920D01*
X9008140Y-17453920D02*
G75*
G03*
X9008140Y-17453920I-75000J0D01*
G01*
X8998140Y-17388920D02*
X8868140Y-17388920D01*
X8998140Y-17518920D02*
X8868140Y-17518920D01*
X8868140Y-17388920D02*
G75*
G03*
X8868140Y-17518920I0J-65000D01*
G01*
X8998140Y-17518920D02*
G75*
G03*
X8998140Y-17388920I0J65000D01*
G01*
X44415900Y-16258920D02*
X44565900Y-16408920D01*
X44565900Y-16258920D02*
X44415900Y-16408920D01*
X44565900Y-16333920D02*
G75*
G03*
X44565900Y-16333920I-75000J0D01*
G01*
X44555900Y-16268920D02*
X44425900Y-16268920D01*
X44555900Y-16398920D02*
X44425900Y-16398920D01*
X44425900Y-16268920D02*
G75*
G03*
X44425900Y-16398920I0J-65000D01*
G01*
X44555900Y-16398920D02*
G75*
G03*
X44555900Y-16268920I0J65000D01*
G01*
X44415900Y-17378920D02*
X44565900Y-17528920D01*
X44565900Y-17378920D02*
X44415900Y-17528920D01*
X44565900Y-17453920D02*
G75*
G03*
X44565900Y-17453920I-75000J0D01*
G01*
X44555900Y-17388920D02*
X44425900Y-17388920D01*
X44555900Y-17518920D02*
X44425900Y-17518920D01*
X44425900Y-17388920D02*
G75*
G03*
X44425900Y-17518920I0J-65000D01*
G01*
X44555900Y-17518920D02*
G75*
G03*
X44555900Y-17388920I0J65000D01*
G01*
X12370420Y-15815480D02*
X12580420Y-16025480D01*
X12580420Y-15815480D02*
X12370420Y-16025480D01*
X12475420Y-15815480D02*
X12475420Y-16025480D01*
X12370420Y-15920480D02*
X12580420Y-15920480D01*
X13770420Y-15815480D02*
X13980420Y-16025480D01*
X13980420Y-15815480D02*
X13770420Y-16025480D01*
X13875420Y-15815480D02*
X13875420Y-16025480D01*
X13770420Y-15920480D02*
X13980420Y-15920480D01*
X41896060Y-15736110D02*
X42106060Y-15946110D01*
X42106060Y-15736110D02*
X41896060Y-15946110D01*
X42001060Y-15736110D02*
X42001060Y-15946110D01*
X41896060Y-15841110D02*
X42106060Y-15841110D01*
X43296060Y-15736110D02*
X43506060Y-15946110D01*
X43506060Y-15736110D02*
X43296060Y-15946110D01*
X43401060Y-15736110D02*
X43401060Y-15946110D01*
X43296060Y-15841110D02*
X43506060Y-15841110D01*
X45406900Y-24593400D02*
X45616900Y-24803400D01*
X45616900Y-24593400D02*
X45406900Y-24803400D01*
X45511900Y-24593400D02*
X45511900Y-24803400D01*
X45406900Y-24698400D02*
X45616900Y-24698400D01*
X45406900Y-25993400D02*
X45616900Y-26203400D01*
X45616900Y-25993400D02*
X45406900Y-26203400D01*
X45511900Y-25993400D02*
X45511900Y-26203400D01*
X45406900Y-26098400D02*
X45616900Y-26098400D01*
X7777000Y-15714000D02*
X8097000Y-16034000D01*
X8097000Y-15714000D02*
X7777000Y-16034000D01*
X8050138Y-15987138D02*
X8050138Y-15760862D01*
X7823862Y-15760862D01*
X7823862Y-15987138D01*
X8050138Y-15987138D01*
X7777000Y-28095720D02*
X8097000Y-28415720D01*
X8097000Y-28095720D02*
X7777000Y-28415720D01*
X8050138Y-28368858D02*
X8050138Y-28142582D01*
X7823862Y-28142582D01*
X7823862Y-28368858D01*
X8050138Y-28368858D01*
X45398380Y-15714000D02*
X45718380Y-16034000D01*
X45718380Y-15714000D02*
X45398380Y-16034000D01*
X45671518Y-15987138D02*
X45671518Y-15760862D01*
X45445242Y-15760862D01*
X45445242Y-15987138D01*
X45671518Y-15987138D01*
X45398380Y-28095720D02*
X45718380Y-28415720D01*
X45718380Y-28095720D02*
X45398380Y-28415720D01*
X45671518Y-28368858D02*
X45671518Y-28142582D01*
X45445242Y-28142582D01*
X45445242Y-28368858D01*
X45671518Y-28368858D01*
D12*
X7265988Y-29202654D02*
X7265988Y-28902654D01*
X7337417Y-28902654D01*
X7380274Y-28916940D01*
X7408846Y-28945511D01*
X7423131Y-28974083D01*
X7437417Y-29031226D01*
X7437417Y-29074083D01*
X7423131Y-29131226D01*
X7408846Y-29159797D01*
X7380274Y-29188369D01*
X7337417Y-29202654D01*
X7265988Y-29202654D01*
X7565988Y-29202654D02*
X7565988Y-29002654D01*
X7565988Y-29059797D02*
X7580274Y-29031226D01*
X7594560Y-29016940D01*
X7623131Y-29002654D01*
X7651703Y-29002654D01*
X7751703Y-29202654D02*
X7751703Y-29002654D01*
X7751703Y-28902654D02*
X7737417Y-28916940D01*
X7751703Y-28931226D01*
X7765988Y-28916940D01*
X7751703Y-28902654D01*
X7751703Y-28931226D01*
X7937417Y-29202654D02*
X7908846Y-29188369D01*
X7894560Y-29159797D01*
X7894560Y-28902654D01*
X8094560Y-29202654D02*
X8065988Y-29188369D01*
X8051703Y-29159797D01*
X8051703Y-28902654D01*
X8437417Y-29202654D02*
X8437417Y-28902654D01*
X8537417Y-29116940D01*
X8637417Y-28902654D01*
X8637417Y-29202654D01*
X8908846Y-29202654D02*
X8908846Y-29045511D01*
X8894560Y-29016940D01*
X8865988Y-29002654D01*
X8808846Y-29002654D01*
X8780274Y-29016940D01*
X8908846Y-29188369D02*
X8880274Y-29202654D01*
X8808846Y-29202654D01*
X8780274Y-29188369D01*
X8765988Y-29159797D01*
X8765988Y-29131226D01*
X8780274Y-29102654D01*
X8808846Y-29088369D01*
X8880274Y-29088369D01*
X8908846Y-29074083D01*
X9051703Y-29002654D02*
X9051703Y-29302654D01*
X9051703Y-29016940D02*
X9080274Y-29002654D01*
X9137417Y-29002654D01*
X9165988Y-29016940D01*
X9180274Y-29031226D01*
X9194560Y-29059797D01*
X9194560Y-29145511D01*
X9180274Y-29174083D01*
X9165988Y-29188369D01*
X9137417Y-29202654D01*
X9080274Y-29202654D01*
X9051703Y-29188369D01*
X9323131Y-29174083D02*
X9337417Y-29188369D01*
X9323131Y-29202654D01*
X9308846Y-29188369D01*
X9323131Y-29174083D01*
X9323131Y-29202654D01*
X9323131Y-29016940D02*
X9337417Y-29031226D01*
X9323131Y-29045511D01*
X9308846Y-29031226D01*
X9323131Y-29016940D01*
X9323131Y-29045511D01*
X6939560Y-29676940D02*
X6979560Y-29716940D01*
X6979560Y-29676940D02*
X6939560Y-29716940D01*
X7323131Y-29532654D02*
X7351703Y-29532654D01*
X7380274Y-29546940D01*
X7394560Y-29561226D01*
X7408846Y-29589797D01*
X7423131Y-29646940D01*
X7423131Y-29718369D01*
X7408846Y-29775511D01*
X7394560Y-29804083D01*
X7380274Y-29818369D01*
X7351703Y-29832654D01*
X7323131Y-29832654D01*
X7294560Y-29818369D01*
X7280274Y-29804083D01*
X7265988Y-29775511D01*
X7251703Y-29718369D01*
X7251703Y-29646940D01*
X7265988Y-29589797D01*
X7280274Y-29561226D01*
X7294560Y-29546940D01*
X7323131Y-29532654D01*
X7551703Y-29804083D02*
X7565988Y-29818369D01*
X7551703Y-29832654D01*
X7537417Y-29818369D01*
X7551703Y-29804083D01*
X7551703Y-29832654D01*
X7823131Y-29632654D02*
X7823131Y-29832654D01*
X7751703Y-29518369D02*
X7680274Y-29732654D01*
X7865988Y-29732654D01*
X8037417Y-29532654D02*
X8065988Y-29532654D01*
X8094560Y-29546940D01*
X8108846Y-29561226D01*
X8123131Y-29589797D01*
X8137417Y-29646940D01*
X8137417Y-29718369D01*
X8123131Y-29775511D01*
X8108846Y-29804083D01*
X8094560Y-29818369D01*
X8065988Y-29832654D01*
X8037417Y-29832654D01*
X8008846Y-29818369D01*
X7994560Y-29804083D01*
X7980274Y-29775511D01*
X7965988Y-29718369D01*
X7965988Y-29646940D01*
X7980274Y-29589797D01*
X7994560Y-29561226D01*
X8008846Y-29546940D01*
X8037417Y-29532654D01*
X8323131Y-29532654D02*
X8351703Y-29532654D01*
X8380274Y-29546940D01*
X8394560Y-29561226D01*
X8408846Y-29589797D01*
X8423131Y-29646940D01*
X8423131Y-29718369D01*
X8408846Y-29775511D01*
X8394560Y-29804083D01*
X8380274Y-29818369D01*
X8351703Y-29832654D01*
X8323131Y-29832654D01*
X8294560Y-29818369D01*
X8280274Y-29804083D01*
X8265988Y-29775511D01*
X8251703Y-29718369D01*
X8251703Y-29646940D01*
X8265988Y-29589797D01*
X8280274Y-29561226D01*
X8294560Y-29546940D01*
X8323131Y-29532654D01*
X8551703Y-29832654D02*
X8551703Y-29632654D01*
X8551703Y-29661226D02*
X8565988Y-29646940D01*
X8594560Y-29632654D01*
X8637417Y-29632654D01*
X8665988Y-29646940D01*
X8680274Y-29675511D01*
X8680274Y-29832654D01*
X8680274Y-29675511D02*
X8694560Y-29646940D01*
X8723131Y-29632654D01*
X8765988Y-29632654D01*
X8794560Y-29646940D01*
X8808846Y-29675511D01*
X8808846Y-29832654D01*
X8951703Y-29832654D02*
X8951703Y-29632654D01*
X8951703Y-29661226D02*
X8965988Y-29646940D01*
X8994560Y-29632654D01*
X9037417Y-29632654D01*
X9065988Y-29646940D01*
X9080274Y-29675511D01*
X9080274Y-29832654D01*
X9080274Y-29675511D02*
X9094560Y-29646940D01*
X9123131Y-29632654D01*
X9165988Y-29632654D01*
X9194560Y-29646940D01*
X9208846Y-29675511D01*
X9208846Y-29832654D01*
X9794560Y-29518369D02*
X9537417Y-29904083D01*
X10180274Y-29532654D02*
X10208846Y-29532654D01*
X10237417Y-29546940D01*
X10251703Y-29561226D01*
X10265988Y-29589797D01*
X10280274Y-29646940D01*
X10280274Y-29718369D01*
X10265988Y-29775511D01*
X10251703Y-29804083D01*
X10237417Y-29818369D01*
X10208846Y-29832654D01*
X10180274Y-29832654D01*
X10151703Y-29818369D01*
X10137417Y-29804083D01*
X10123131Y-29775511D01*
X10108846Y-29718369D01*
X10108846Y-29646940D01*
X10123131Y-29589797D01*
X10137417Y-29561226D01*
X10151703Y-29546940D01*
X10180274Y-29532654D01*
X10408846Y-29804083D02*
X10423131Y-29818369D01*
X10408846Y-29832654D01*
X10394560Y-29818369D01*
X10408846Y-29804083D01*
X10408846Y-29832654D01*
X10608846Y-29532654D02*
X10637417Y-29532654D01*
X10665988Y-29546940D01*
X10680274Y-29561226D01*
X10694560Y-29589797D01*
X10708846Y-29646940D01*
X10708846Y-29718369D01*
X10694560Y-29775511D01*
X10680274Y-29804083D01*
X10665988Y-29818369D01*
X10637417Y-29832654D01*
X10608846Y-29832654D01*
X10580274Y-29818369D01*
X10565988Y-29804083D01*
X10551703Y-29775511D01*
X10537417Y-29718369D01*
X10537417Y-29646940D01*
X10551703Y-29589797D01*
X10565988Y-29561226D01*
X10580274Y-29546940D01*
X10608846Y-29532654D01*
X10994560Y-29832654D02*
X10823131Y-29832654D01*
X10908846Y-29832654D02*
X10908846Y-29532654D01*
X10880274Y-29575511D01*
X10851703Y-29604083D01*
X10823131Y-29618369D01*
X11265988Y-29532654D02*
X11123131Y-29532654D01*
X11108846Y-29675511D01*
X11123131Y-29661226D01*
X11151703Y-29646940D01*
X11223131Y-29646940D01*
X11251703Y-29661226D01*
X11265988Y-29675511D01*
X11280274Y-29704083D01*
X11280274Y-29775511D01*
X11265988Y-29804083D01*
X11251703Y-29818369D01*
X11223131Y-29832654D01*
X11151703Y-29832654D01*
X11123131Y-29818369D01*
X11108846Y-29804083D01*
X11380274Y-29532654D02*
X11580274Y-29532654D01*
X11451703Y-29832654D01*
X11680274Y-29532654D02*
X11680274Y-29589797D01*
X11794560Y-29532654D02*
X11794560Y-29589797D01*
X12237417Y-29946940D02*
X12223131Y-29932654D01*
X12194560Y-29889797D01*
X12180274Y-29861226D01*
X12165988Y-29818369D01*
X12151703Y-29746940D01*
X12151703Y-29689797D01*
X12165988Y-29618369D01*
X12180274Y-29575511D01*
X12194560Y-29546940D01*
X12223131Y-29504083D01*
X12237417Y-29489797D01*
X12494560Y-29532654D02*
X12351703Y-29532654D01*
X12337417Y-29675511D01*
X12351703Y-29661226D01*
X12380274Y-29646940D01*
X12451703Y-29646940D01*
X12480274Y-29661226D01*
X12494560Y-29675511D01*
X12508846Y-29704083D01*
X12508846Y-29775511D01*
X12494560Y-29804083D01*
X12480274Y-29818369D01*
X12451703Y-29832654D01*
X12380274Y-29832654D01*
X12351703Y-29818369D01*
X12337417Y-29804083D01*
X12765988Y-29632654D02*
X12765988Y-29832654D01*
X12694560Y-29518369D02*
X12623131Y-29732654D01*
X12808846Y-29732654D01*
X12965988Y-29661226D02*
X12937417Y-29646940D01*
X12923131Y-29632654D01*
X12908846Y-29604083D01*
X12908846Y-29589797D01*
X12923131Y-29561226D01*
X12937417Y-29546940D01*
X12965988Y-29532654D01*
X13023131Y-29532654D01*
X13051703Y-29546940D01*
X13065988Y-29561226D01*
X13080274Y-29589797D01*
X13080274Y-29604083D01*
X13065988Y-29632654D01*
X13051703Y-29646940D01*
X13023131Y-29661226D01*
X12965988Y-29661226D01*
X12937417Y-29675511D01*
X12923131Y-29689797D01*
X12908846Y-29718369D01*
X12908846Y-29775511D01*
X12923131Y-29804083D01*
X12937417Y-29818369D01*
X12965988Y-29832654D01*
X13023131Y-29832654D01*
X13051703Y-29818369D01*
X13065988Y-29804083D01*
X13080274Y-29775511D01*
X13080274Y-29718369D01*
X13065988Y-29689797D01*
X13051703Y-29675511D01*
X13023131Y-29661226D01*
X13437417Y-29832654D02*
X13437417Y-29532654D01*
X13565988Y-29832654D02*
X13565988Y-29675511D01*
X13551703Y-29646940D01*
X13523131Y-29632654D01*
X13480274Y-29632654D01*
X13451703Y-29646940D01*
X13437417Y-29661226D01*
X13751703Y-29832654D02*
X13723131Y-29818369D01*
X13708846Y-29804083D01*
X13694560Y-29775511D01*
X13694560Y-29689797D01*
X13708846Y-29661226D01*
X13723131Y-29646940D01*
X13751703Y-29632654D01*
X13794560Y-29632654D01*
X13823131Y-29646940D01*
X13837417Y-29661226D01*
X13851703Y-29689797D01*
X13851703Y-29775511D01*
X13837417Y-29804083D01*
X13823131Y-29818369D01*
X13794560Y-29832654D01*
X13751703Y-29832654D01*
X14023131Y-29832654D02*
X13994560Y-29818369D01*
X13980274Y-29789797D01*
X13980274Y-29532654D01*
X14251703Y-29818369D02*
X14223131Y-29832654D01*
X14165988Y-29832654D01*
X14137417Y-29818369D01*
X14123131Y-29789797D01*
X14123131Y-29675511D01*
X14137417Y-29646940D01*
X14165988Y-29632654D01*
X14223131Y-29632654D01*
X14251703Y-29646940D01*
X14265988Y-29675511D01*
X14265988Y-29704083D01*
X14123131Y-29732654D01*
X14380274Y-29818369D02*
X14408846Y-29832654D01*
X14465988Y-29832654D01*
X14494560Y-29818369D01*
X14508846Y-29789797D01*
X14508846Y-29775511D01*
X14494560Y-29746940D01*
X14465988Y-29732654D01*
X14423131Y-29732654D01*
X14394560Y-29718369D01*
X14380274Y-29689797D01*
X14380274Y-29675511D01*
X14394560Y-29646940D01*
X14423131Y-29632654D01*
X14465988Y-29632654D01*
X14494560Y-29646940D01*
X14608846Y-29946940D02*
X14623131Y-29932654D01*
X14651703Y-29889797D01*
X14665988Y-29861226D01*
X14680274Y-29818369D01*
X14694560Y-29746940D01*
X14694560Y-29689797D01*
X14680274Y-29618369D01*
X14665988Y-29575511D01*
X14651703Y-29546940D01*
X14623131Y-29504083D01*
X14608846Y-29489797D01*
X6979560Y-30092940D02*
G75*
G03*
X6979560Y-30092940I-30000J0D01*
G01*
X7323131Y-29928654D02*
X7351703Y-29928654D01*
X7380274Y-29942940D01*
X7394560Y-29957226D01*
X7408846Y-29985797D01*
X7423131Y-30042940D01*
X7423131Y-30114369D01*
X7408846Y-30171511D01*
X7394560Y-30200083D01*
X7380274Y-30214369D01*
X7351703Y-30228654D01*
X7323131Y-30228654D01*
X7294560Y-30214369D01*
X7280274Y-30200083D01*
X7265988Y-30171511D01*
X7251703Y-30114369D01*
X7251703Y-30042940D01*
X7265988Y-29985797D01*
X7280274Y-29957226D01*
X7294560Y-29942940D01*
X7323131Y-29928654D01*
X7551703Y-30200083D02*
X7565988Y-30214369D01*
X7551703Y-30228654D01*
X7537417Y-30214369D01*
X7551703Y-30200083D01*
X7551703Y-30228654D01*
X7823131Y-29928654D02*
X7765988Y-29928654D01*
X7737417Y-29942940D01*
X7723131Y-29957226D01*
X7694560Y-30000083D01*
X7680274Y-30057226D01*
X7680274Y-30171511D01*
X7694560Y-30200083D01*
X7708846Y-30214369D01*
X7737417Y-30228654D01*
X7794560Y-30228654D01*
X7823131Y-30214369D01*
X7837417Y-30200083D01*
X7851703Y-30171511D01*
X7851703Y-30100083D01*
X7837417Y-30071511D01*
X7823131Y-30057226D01*
X7794560Y-30042940D01*
X7737417Y-30042940D01*
X7708846Y-30057226D01*
X7694560Y-30071511D01*
X7680274Y-30100083D01*
X8037417Y-29928654D02*
X8065988Y-29928654D01*
X8094560Y-29942940D01*
X8108846Y-29957226D01*
X8123131Y-29985797D01*
X8137417Y-30042940D01*
X8137417Y-30114369D01*
X8123131Y-30171511D01*
X8108846Y-30200083D01*
X8094560Y-30214369D01*
X8065988Y-30228654D01*
X8037417Y-30228654D01*
X8008846Y-30214369D01*
X7994560Y-30200083D01*
X7980274Y-30171511D01*
X7965988Y-30114369D01*
X7965988Y-30042940D01*
X7980274Y-29985797D01*
X7994560Y-29957226D01*
X8008846Y-29942940D01*
X8037417Y-29928654D01*
X8323131Y-29928654D02*
X8351703Y-29928654D01*
X8380274Y-29942940D01*
X8394560Y-29957226D01*
X8408846Y-29985797D01*
X8423131Y-30042940D01*
X8423131Y-30114369D01*
X8408846Y-30171511D01*
X8394560Y-30200083D01*
X8380274Y-30214369D01*
X8351703Y-30228654D01*
X8323131Y-30228654D01*
X8294560Y-30214369D01*
X8280274Y-30200083D01*
X8265988Y-30171511D01*
X8251703Y-30114369D01*
X8251703Y-30042940D01*
X8265988Y-29985797D01*
X8280274Y-29957226D01*
X8294560Y-29942940D01*
X8323131Y-29928654D01*
X8551703Y-30228654D02*
X8551703Y-30028654D01*
X8551703Y-30057226D02*
X8565988Y-30042940D01*
X8594560Y-30028654D01*
X8637417Y-30028654D01*
X8665988Y-30042940D01*
X8680274Y-30071511D01*
X8680274Y-30228654D01*
X8680274Y-30071511D02*
X8694560Y-30042940D01*
X8723131Y-30028654D01*
X8765988Y-30028654D01*
X8794560Y-30042940D01*
X8808846Y-30071511D01*
X8808846Y-30228654D01*
X8951703Y-30228654D02*
X8951703Y-30028654D01*
X8951703Y-30057226D02*
X8965988Y-30042940D01*
X8994560Y-30028654D01*
X9037417Y-30028654D01*
X9065988Y-30042940D01*
X9080274Y-30071511D01*
X9080274Y-30228654D01*
X9080274Y-30071511D02*
X9094560Y-30042940D01*
X9123131Y-30028654D01*
X9165988Y-30028654D01*
X9194560Y-30042940D01*
X9208846Y-30071511D01*
X9208846Y-30228654D01*
X9794560Y-29914369D02*
X9537417Y-30300083D01*
X10180274Y-29928654D02*
X10208846Y-29928654D01*
X10237417Y-29942940D01*
X10251703Y-29957226D01*
X10265988Y-29985797D01*
X10280274Y-30042940D01*
X10280274Y-30114369D01*
X10265988Y-30171511D01*
X10251703Y-30200083D01*
X10237417Y-30214369D01*
X10208846Y-30228654D01*
X10180274Y-30228654D01*
X10151703Y-30214369D01*
X10137417Y-30200083D01*
X10123131Y-30171511D01*
X10108846Y-30114369D01*
X10108846Y-30042940D01*
X10123131Y-29985797D01*
X10137417Y-29957226D01*
X10151703Y-29942940D01*
X10180274Y-29928654D01*
X10408846Y-30200083D02*
X10423131Y-30214369D01*
X10408846Y-30228654D01*
X10394560Y-30214369D01*
X10408846Y-30200083D01*
X10408846Y-30228654D01*
X10608846Y-29928654D02*
X10637417Y-29928654D01*
X10665988Y-29942940D01*
X10680274Y-29957226D01*
X10694560Y-29985797D01*
X10708846Y-30042940D01*
X10708846Y-30114369D01*
X10694560Y-30171511D01*
X10680274Y-30200083D01*
X10665988Y-30214369D01*
X10637417Y-30228654D01*
X10608846Y-30228654D01*
X10580274Y-30214369D01*
X10565988Y-30200083D01*
X10551703Y-30171511D01*
X10537417Y-30114369D01*
X10537417Y-30042940D01*
X10551703Y-29985797D01*
X10565988Y-29957226D01*
X10580274Y-29942940D01*
X10608846Y-29928654D01*
X10823131Y-29957226D02*
X10837417Y-29942940D01*
X10865988Y-29928654D01*
X10937417Y-29928654D01*
X10965988Y-29942940D01*
X10980274Y-29957226D01*
X10994560Y-29985797D01*
X10994560Y-30014369D01*
X10980274Y-30057226D01*
X10808846Y-30228654D01*
X10994560Y-30228654D01*
X11094560Y-29928654D02*
X11280274Y-29928654D01*
X11180274Y-30042940D01*
X11223131Y-30042940D01*
X11251703Y-30057226D01*
X11265988Y-30071511D01*
X11280274Y-30100083D01*
X11280274Y-30171511D01*
X11265988Y-30200083D01*
X11251703Y-30214369D01*
X11223131Y-30228654D01*
X11137417Y-30228654D01*
X11108846Y-30214369D01*
X11094560Y-30200083D01*
X11537417Y-29928654D02*
X11480274Y-29928654D01*
X11451703Y-29942940D01*
X11437417Y-29957226D01*
X11408846Y-30000083D01*
X11394560Y-30057226D01*
X11394560Y-30171511D01*
X11408846Y-30200083D01*
X11423131Y-30214369D01*
X11451703Y-30228654D01*
X11508846Y-30228654D01*
X11537417Y-30214369D01*
X11551703Y-30200083D01*
X11565988Y-30171511D01*
X11565988Y-30100083D01*
X11551703Y-30071511D01*
X11537417Y-30057226D01*
X11508846Y-30042940D01*
X11451703Y-30042940D01*
X11423131Y-30057226D01*
X11408846Y-30071511D01*
X11394560Y-30100083D01*
X11680274Y-29928654D02*
X11680274Y-29985797D01*
X11794560Y-29928654D02*
X11794560Y-29985797D01*
X12237417Y-30342940D02*
X12223131Y-30328654D01*
X12194560Y-30285797D01*
X12180274Y-30257226D01*
X12165988Y-30214369D01*
X12151703Y-30142940D01*
X12151703Y-30085797D01*
X12165988Y-30014369D01*
X12180274Y-29971511D01*
X12194560Y-29942940D01*
X12223131Y-29900083D01*
X12237417Y-29885797D01*
X12408846Y-29928654D02*
X12437417Y-29928654D01*
X12465988Y-29942940D01*
X12480274Y-29957226D01*
X12494560Y-29985797D01*
X12508846Y-30042940D01*
X12508846Y-30114369D01*
X12494560Y-30171511D01*
X12480274Y-30200083D01*
X12465988Y-30214369D01*
X12437417Y-30228654D01*
X12408846Y-30228654D01*
X12380274Y-30214369D01*
X12365988Y-30200083D01*
X12351703Y-30171511D01*
X12337417Y-30114369D01*
X12337417Y-30042940D01*
X12351703Y-29985797D01*
X12365988Y-29957226D01*
X12380274Y-29942940D01*
X12408846Y-29928654D01*
X12865988Y-30228654D02*
X12865988Y-29928654D01*
X12994560Y-30228654D02*
X12994560Y-30071511D01*
X12980274Y-30042940D01*
X12951703Y-30028654D01*
X12908846Y-30028654D01*
X12880274Y-30042940D01*
X12865988Y-30057226D01*
X13180274Y-30228654D02*
X13151703Y-30214369D01*
X13137417Y-30200083D01*
X13123131Y-30171511D01*
X13123131Y-30085797D01*
X13137417Y-30057226D01*
X13151703Y-30042940D01*
X13180274Y-30028654D01*
X13223131Y-30028654D01*
X13251703Y-30042940D01*
X13265988Y-30057226D01*
X13280274Y-30085797D01*
X13280274Y-30171511D01*
X13265988Y-30200083D01*
X13251703Y-30214369D01*
X13223131Y-30228654D01*
X13180274Y-30228654D01*
X13451703Y-30228654D02*
X13423131Y-30214369D01*
X13408846Y-30185797D01*
X13408846Y-29928654D01*
X13680274Y-30214369D02*
X13651703Y-30228654D01*
X13594560Y-30228654D01*
X13565988Y-30214369D01*
X13551703Y-30185797D01*
X13551703Y-30071511D01*
X13565988Y-30042940D01*
X13594560Y-30028654D01*
X13651703Y-30028654D01*
X13680274Y-30042940D01*
X13694560Y-30071511D01*
X13694560Y-30100083D01*
X13551703Y-30128654D01*
X13808846Y-30214369D02*
X13837417Y-30228654D01*
X13894560Y-30228654D01*
X13923131Y-30214369D01*
X13937417Y-30185797D01*
X13937417Y-30171511D01*
X13923131Y-30142940D01*
X13894560Y-30128654D01*
X13851703Y-30128654D01*
X13823131Y-30114369D01*
X13808846Y-30085797D01*
X13808846Y-30071511D01*
X13823131Y-30042940D01*
X13851703Y-30028654D01*
X13894560Y-30028654D01*
X13923131Y-30042940D01*
X14294560Y-30114369D02*
X14523131Y-30114369D01*
X14408846Y-30228654D02*
X14408846Y-30000083D01*
X15051703Y-30228654D02*
X14880274Y-30228654D01*
X14965988Y-30228654D02*
X14965988Y-29928654D01*
X14937417Y-29971511D01*
X14908846Y-30000083D01*
X14880274Y-30014369D01*
X15308846Y-29928654D02*
X15251703Y-29928654D01*
X15223131Y-29942940D01*
X15208846Y-29957226D01*
X15180274Y-30000083D01*
X15165988Y-30057226D01*
X15165988Y-30171511D01*
X15180274Y-30200083D01*
X15194560Y-30214369D01*
X15223131Y-30228654D01*
X15280274Y-30228654D01*
X15308846Y-30214369D01*
X15323131Y-30200083D01*
X15337417Y-30171511D01*
X15337417Y-30100083D01*
X15323131Y-30071511D01*
X15308846Y-30057226D01*
X15280274Y-30042940D01*
X15223131Y-30042940D01*
X15194560Y-30057226D01*
X15180274Y-30071511D01*
X15165988Y-30100083D01*
X15680274Y-30214369D02*
X15708846Y-30228654D01*
X15765988Y-30228654D01*
X15794560Y-30214369D01*
X15808846Y-30185797D01*
X15808846Y-30171511D01*
X15794560Y-30142940D01*
X15765988Y-30128654D01*
X15723131Y-30128654D01*
X15694560Y-30114369D01*
X15680274Y-30085797D01*
X15680274Y-30071511D01*
X15694560Y-30042940D01*
X15723131Y-30028654D01*
X15765988Y-30028654D01*
X15794560Y-30042940D01*
X15980274Y-30228654D02*
X15951703Y-30214369D01*
X15937417Y-30185797D01*
X15937417Y-29928654D01*
X16137417Y-30228654D02*
X16108846Y-30214369D01*
X16094560Y-30200083D01*
X16080274Y-30171511D01*
X16080274Y-30085797D01*
X16094560Y-30057226D01*
X16108846Y-30042940D01*
X16137417Y-30028654D01*
X16180274Y-30028654D01*
X16208846Y-30042940D01*
X16223131Y-30057226D01*
X16237417Y-30085797D01*
X16237417Y-30171511D01*
X16223131Y-30200083D01*
X16208846Y-30214369D01*
X16180274Y-30228654D01*
X16137417Y-30228654D01*
X16323131Y-30028654D02*
X16437417Y-30028654D01*
X16365988Y-29928654D02*
X16365988Y-30185797D01*
X16380274Y-30214369D01*
X16408846Y-30228654D01*
X16437417Y-30228654D01*
X16523131Y-30214369D02*
X16551703Y-30228654D01*
X16608846Y-30228654D01*
X16637417Y-30214369D01*
X16651703Y-30185797D01*
X16651703Y-30171511D01*
X16637417Y-30142940D01*
X16608846Y-30128654D01*
X16565988Y-30128654D01*
X16537417Y-30114369D01*
X16523131Y-30085797D01*
X16523131Y-30071511D01*
X16537417Y-30042940D01*
X16565988Y-30028654D01*
X16608846Y-30028654D01*
X16637417Y-30042940D01*
X16751703Y-30342940D02*
X16765988Y-30328654D01*
X16794560Y-30285797D01*
X16808846Y-30257226D01*
X16823131Y-30214369D01*
X16837417Y-30142940D01*
X16837417Y-30085797D01*
X16823131Y-30014369D01*
X16808846Y-29971511D01*
X16794560Y-29942940D01*
X16765988Y-29900083D01*
X16751703Y-29885797D01*
X6938920Y-30448300D02*
X6938920Y-30529580D01*
X6898280Y-30488940D02*
X6979560Y-30488940D01*
X7323131Y-30324654D02*
X7351703Y-30324654D01*
X7380274Y-30338940D01*
X7394560Y-30353226D01*
X7408846Y-30381797D01*
X7423131Y-30438940D01*
X7423131Y-30510369D01*
X7408846Y-30567511D01*
X7394560Y-30596083D01*
X7380274Y-30610369D01*
X7351703Y-30624654D01*
X7323131Y-30624654D01*
X7294560Y-30610369D01*
X7280274Y-30596083D01*
X7265988Y-30567511D01*
X7251703Y-30510369D01*
X7251703Y-30438940D01*
X7265988Y-30381797D01*
X7280274Y-30353226D01*
X7294560Y-30338940D01*
X7323131Y-30324654D01*
X7551703Y-30596083D02*
X7565988Y-30610369D01*
X7551703Y-30624654D01*
X7537417Y-30610369D01*
X7551703Y-30596083D01*
X7551703Y-30624654D01*
X7737417Y-30453226D02*
X7708846Y-30438940D01*
X7694560Y-30424654D01*
X7680274Y-30396083D01*
X7680274Y-30381797D01*
X7694560Y-30353226D01*
X7708846Y-30338940D01*
X7737417Y-30324654D01*
X7794560Y-30324654D01*
X7823131Y-30338940D01*
X7837417Y-30353226D01*
X7851703Y-30381797D01*
X7851703Y-30396083D01*
X7837417Y-30424654D01*
X7823131Y-30438940D01*
X7794560Y-30453226D01*
X7737417Y-30453226D01*
X7708846Y-30467511D01*
X7694560Y-30481797D01*
X7680274Y-30510369D01*
X7680274Y-30567511D01*
X7694560Y-30596083D01*
X7708846Y-30610369D01*
X7737417Y-30624654D01*
X7794560Y-30624654D01*
X7823131Y-30610369D01*
X7837417Y-30596083D01*
X7851703Y-30567511D01*
X7851703Y-30510369D01*
X7837417Y-30481797D01*
X7823131Y-30467511D01*
X7794560Y-30453226D01*
X8137417Y-30624654D02*
X7965988Y-30624654D01*
X8051703Y-30624654D02*
X8051703Y-30324654D01*
X8023131Y-30367511D01*
X7994560Y-30396083D01*
X7965988Y-30410369D01*
X8237417Y-30324654D02*
X8423131Y-30324654D01*
X8323131Y-30438940D01*
X8365988Y-30438940D01*
X8394560Y-30453226D01*
X8408846Y-30467511D01*
X8423131Y-30496083D01*
X8423131Y-30567511D01*
X8408846Y-30596083D01*
X8394560Y-30610369D01*
X8365988Y-30624654D01*
X8280274Y-30624654D01*
X8251703Y-30610369D01*
X8237417Y-30596083D01*
X8551703Y-30624654D02*
X8551703Y-30424654D01*
X8551703Y-30453226D02*
X8565988Y-30438940D01*
X8594560Y-30424654D01*
X8637417Y-30424654D01*
X8665988Y-30438940D01*
X8680274Y-30467511D01*
X8680274Y-30624654D01*
X8680274Y-30467511D02*
X8694560Y-30438940D01*
X8723131Y-30424654D01*
X8765988Y-30424654D01*
X8794560Y-30438940D01*
X8808846Y-30467511D01*
X8808846Y-30624654D01*
X8951703Y-30624654D02*
X8951703Y-30424654D01*
X8951703Y-30453226D02*
X8965988Y-30438940D01*
X8994560Y-30424654D01*
X9037417Y-30424654D01*
X9065988Y-30438940D01*
X9080274Y-30467511D01*
X9080274Y-30624654D01*
X9080274Y-30467511D02*
X9094560Y-30438940D01*
X9123131Y-30424654D01*
X9165988Y-30424654D01*
X9194560Y-30438940D01*
X9208846Y-30467511D01*
X9208846Y-30624654D01*
X9794560Y-30310369D02*
X9537417Y-30696083D01*
X10180274Y-30324654D02*
X10208846Y-30324654D01*
X10237417Y-30338940D01*
X10251703Y-30353226D01*
X10265988Y-30381797D01*
X10280274Y-30438940D01*
X10280274Y-30510369D01*
X10265988Y-30567511D01*
X10251703Y-30596083D01*
X10237417Y-30610369D01*
X10208846Y-30624654D01*
X10180274Y-30624654D01*
X10151703Y-30610369D01*
X10137417Y-30596083D01*
X10123131Y-30567511D01*
X10108846Y-30510369D01*
X10108846Y-30438940D01*
X10123131Y-30381797D01*
X10137417Y-30353226D01*
X10151703Y-30338940D01*
X10180274Y-30324654D01*
X10408846Y-30596083D02*
X10423131Y-30610369D01*
X10408846Y-30624654D01*
X10394560Y-30610369D01*
X10408846Y-30596083D01*
X10408846Y-30624654D01*
X10608846Y-30324654D02*
X10637417Y-30324654D01*
X10665988Y-30338940D01*
X10680274Y-30353226D01*
X10694560Y-30381797D01*
X10708846Y-30438940D01*
X10708846Y-30510369D01*
X10694560Y-30567511D01*
X10680274Y-30596083D01*
X10665988Y-30610369D01*
X10637417Y-30624654D01*
X10608846Y-30624654D01*
X10580274Y-30610369D01*
X10565988Y-30596083D01*
X10551703Y-30567511D01*
X10537417Y-30510369D01*
X10537417Y-30438940D01*
X10551703Y-30381797D01*
X10565988Y-30353226D01*
X10580274Y-30338940D01*
X10608846Y-30324654D01*
X10808846Y-30324654D02*
X10994560Y-30324654D01*
X10894560Y-30438940D01*
X10937417Y-30438940D01*
X10965988Y-30453226D01*
X10980274Y-30467511D01*
X10994560Y-30496083D01*
X10994560Y-30567511D01*
X10980274Y-30596083D01*
X10965988Y-30610369D01*
X10937417Y-30624654D01*
X10851703Y-30624654D01*
X10823131Y-30610369D01*
X10808846Y-30596083D01*
X11108846Y-30353226D02*
X11123131Y-30338940D01*
X11151703Y-30324654D01*
X11223131Y-30324654D01*
X11251703Y-30338940D01*
X11265988Y-30353226D01*
X11280274Y-30381797D01*
X11280274Y-30410369D01*
X11265988Y-30453226D01*
X11094560Y-30624654D01*
X11280274Y-30624654D01*
X11465988Y-30324654D02*
X11494560Y-30324654D01*
X11523131Y-30338940D01*
X11537417Y-30353226D01*
X11551703Y-30381797D01*
X11565988Y-30438940D01*
X11565988Y-30510369D01*
X11551703Y-30567511D01*
X11537417Y-30596083D01*
X11523131Y-30610369D01*
X11494560Y-30624654D01*
X11465988Y-30624654D01*
X11437417Y-30610369D01*
X11423131Y-30596083D01*
X11408846Y-30567511D01*
X11394560Y-30510369D01*
X11394560Y-30438940D01*
X11408846Y-30381797D01*
X11423131Y-30353226D01*
X11437417Y-30338940D01*
X11465988Y-30324654D01*
X11680274Y-30324654D02*
X11680274Y-30381797D01*
X11794560Y-30324654D02*
X11794560Y-30381797D01*
X12237417Y-30738940D02*
X12223131Y-30724654D01*
X12194560Y-30681797D01*
X12180274Y-30653226D01*
X12165988Y-30610369D01*
X12151703Y-30538940D01*
X12151703Y-30481797D01*
X12165988Y-30410369D01*
X12180274Y-30367511D01*
X12194560Y-30338940D01*
X12223131Y-30296083D01*
X12237417Y-30281797D01*
X12480274Y-30424654D02*
X12480274Y-30624654D01*
X12408846Y-30310369D02*
X12337417Y-30524654D01*
X12523131Y-30524654D01*
X12865988Y-30624654D02*
X12865988Y-30324654D01*
X12994560Y-30624654D02*
X12994560Y-30467511D01*
X12980274Y-30438940D01*
X12951703Y-30424654D01*
X12908846Y-30424654D01*
X12880274Y-30438940D01*
X12865988Y-30453226D01*
X13180274Y-30624654D02*
X13151703Y-30610369D01*
X13137417Y-30596083D01*
X13123131Y-30567511D01*
X13123131Y-30481797D01*
X13137417Y-30453226D01*
X13151703Y-30438940D01*
X13180274Y-30424654D01*
X13223131Y-30424654D01*
X13251703Y-30438940D01*
X13265988Y-30453226D01*
X13280274Y-30481797D01*
X13280274Y-30567511D01*
X13265988Y-30596083D01*
X13251703Y-30610369D01*
X13223131Y-30624654D01*
X13180274Y-30624654D01*
X13451703Y-30624654D02*
X13423131Y-30610369D01*
X13408846Y-30581797D01*
X13408846Y-30324654D01*
X13680274Y-30610369D02*
X13651703Y-30624654D01*
X13594560Y-30624654D01*
X13565988Y-30610369D01*
X13551703Y-30581797D01*
X13551703Y-30467511D01*
X13565988Y-30438940D01*
X13594560Y-30424654D01*
X13651703Y-30424654D01*
X13680274Y-30438940D01*
X13694560Y-30467511D01*
X13694560Y-30496083D01*
X13551703Y-30524654D01*
X13808846Y-30610369D02*
X13837417Y-30624654D01*
X13894560Y-30624654D01*
X13923131Y-30610369D01*
X13937417Y-30581797D01*
X13937417Y-30567511D01*
X13923131Y-30538940D01*
X13894560Y-30524654D01*
X13851703Y-30524654D01*
X13823131Y-30510369D01*
X13808846Y-30481797D01*
X13808846Y-30467511D01*
X13823131Y-30438940D01*
X13851703Y-30424654D01*
X13894560Y-30424654D01*
X13923131Y-30438940D01*
X14037417Y-30738940D02*
X14051703Y-30724654D01*
X14080274Y-30681797D01*
X14094560Y-30653226D01*
X14108846Y-30610369D01*
X14123131Y-30538940D01*
X14123131Y-30481797D01*
X14108846Y-30410369D01*
X14094560Y-30367511D01*
X14080274Y-30338940D01*
X14051703Y-30296083D01*
X14037417Y-30281797D01*
X6966380Y-30916760D02*
X6966380Y-30853120D01*
X6902740Y-30853120D01*
X6902740Y-30916760D01*
X6966380Y-30916760D01*
X7323131Y-30720654D02*
X7351703Y-30720654D01*
X7380274Y-30734940D01*
X7394560Y-30749226D01*
X7408846Y-30777797D01*
X7423131Y-30834940D01*
X7423131Y-30906369D01*
X7408846Y-30963511D01*
X7394560Y-30992083D01*
X7380274Y-31006369D01*
X7351703Y-31020654D01*
X7323131Y-31020654D01*
X7294560Y-31006369D01*
X7280274Y-30992083D01*
X7265988Y-30963511D01*
X7251703Y-30906369D01*
X7251703Y-30834940D01*
X7265988Y-30777797D01*
X7280274Y-30749226D01*
X7294560Y-30734940D01*
X7323131Y-30720654D01*
X7551703Y-30992083D02*
X7565988Y-31006369D01*
X7551703Y-31020654D01*
X7537417Y-31006369D01*
X7551703Y-30992083D01*
X7551703Y-31020654D01*
X7708846Y-31020654D02*
X7765988Y-31020654D01*
X7794560Y-31006369D01*
X7808846Y-30992083D01*
X7837417Y-30949226D01*
X7851703Y-30892083D01*
X7851703Y-30777797D01*
X7837417Y-30749226D01*
X7823131Y-30734940D01*
X7794560Y-30720654D01*
X7737417Y-30720654D01*
X7708846Y-30734940D01*
X7694560Y-30749226D01*
X7680274Y-30777797D01*
X7680274Y-30849226D01*
X7694560Y-30877797D01*
X7708846Y-30892083D01*
X7737417Y-30906369D01*
X7794560Y-30906369D01*
X7823131Y-30892083D01*
X7837417Y-30877797D01*
X7851703Y-30849226D01*
X8037417Y-30720654D02*
X8065988Y-30720654D01*
X8094560Y-30734940D01*
X8108846Y-30749226D01*
X8123131Y-30777797D01*
X8137417Y-30834940D01*
X8137417Y-30906369D01*
X8123131Y-30963511D01*
X8108846Y-30992083D01*
X8094560Y-31006369D01*
X8065988Y-31020654D01*
X8037417Y-31020654D01*
X8008846Y-31006369D01*
X7994560Y-30992083D01*
X7980274Y-30963511D01*
X7965988Y-30906369D01*
X7965988Y-30834940D01*
X7980274Y-30777797D01*
X7994560Y-30749226D01*
X8008846Y-30734940D01*
X8037417Y-30720654D01*
X8323131Y-30720654D02*
X8351703Y-30720654D01*
X8380274Y-30734940D01*
X8394560Y-30749226D01*
X8408846Y-30777797D01*
X8423131Y-30834940D01*
X8423131Y-30906369D01*
X8408846Y-30963511D01*
X8394560Y-30992083D01*
X8380274Y-31006369D01*
X8351703Y-31020654D01*
X8323131Y-31020654D01*
X8294560Y-31006369D01*
X8280274Y-30992083D01*
X8265988Y-30963511D01*
X8251703Y-30906369D01*
X8251703Y-30834940D01*
X8265988Y-30777797D01*
X8280274Y-30749226D01*
X8294560Y-30734940D01*
X8323131Y-30720654D01*
X8551703Y-31020654D02*
X8551703Y-30820654D01*
X8551703Y-30849226D02*
X8565988Y-30834940D01*
X8594560Y-30820654D01*
X8637417Y-30820654D01*
X8665988Y-30834940D01*
X8680274Y-30863511D01*
X8680274Y-31020654D01*
X8680274Y-30863511D02*
X8694560Y-30834940D01*
X8723131Y-30820654D01*
X8765988Y-30820654D01*
X8794560Y-30834940D01*
X8808846Y-30863511D01*
X8808846Y-31020654D01*
X8951703Y-31020654D02*
X8951703Y-30820654D01*
X8951703Y-30849226D02*
X8965988Y-30834940D01*
X8994560Y-30820654D01*
X9037417Y-30820654D01*
X9065988Y-30834940D01*
X9080274Y-30863511D01*
X9080274Y-31020654D01*
X9080274Y-30863511D02*
X9094560Y-30834940D01*
X9123131Y-30820654D01*
X9165988Y-30820654D01*
X9194560Y-30834940D01*
X9208846Y-30863511D01*
X9208846Y-31020654D01*
X9794560Y-30706369D02*
X9537417Y-31092083D01*
X10180274Y-30720654D02*
X10208846Y-30720654D01*
X10237417Y-30734940D01*
X10251703Y-30749226D01*
X10265988Y-30777797D01*
X10280274Y-30834940D01*
X10280274Y-30906369D01*
X10265988Y-30963511D01*
X10251703Y-30992083D01*
X10237417Y-31006369D01*
X10208846Y-31020654D01*
X10180274Y-31020654D01*
X10151703Y-31006369D01*
X10137417Y-30992083D01*
X10123131Y-30963511D01*
X10108846Y-30906369D01*
X10108846Y-30834940D01*
X10123131Y-30777797D01*
X10137417Y-30749226D01*
X10151703Y-30734940D01*
X10180274Y-30720654D01*
X10408846Y-30992083D02*
X10423131Y-31006369D01*
X10408846Y-31020654D01*
X10394560Y-31006369D01*
X10408846Y-30992083D01*
X10408846Y-31020654D01*
X10608846Y-30720654D02*
X10637417Y-30720654D01*
X10665988Y-30734940D01*
X10680274Y-30749226D01*
X10694560Y-30777797D01*
X10708846Y-30834940D01*
X10708846Y-30906369D01*
X10694560Y-30963511D01*
X10680274Y-30992083D01*
X10665988Y-31006369D01*
X10637417Y-31020654D01*
X10608846Y-31020654D01*
X10580274Y-31006369D01*
X10565988Y-30992083D01*
X10551703Y-30963511D01*
X10537417Y-30906369D01*
X10537417Y-30834940D01*
X10551703Y-30777797D01*
X10565988Y-30749226D01*
X10580274Y-30734940D01*
X10608846Y-30720654D01*
X10808846Y-30720654D02*
X10994560Y-30720654D01*
X10894560Y-30834940D01*
X10937417Y-30834940D01*
X10965988Y-30849226D01*
X10980274Y-30863511D01*
X10994560Y-30892083D01*
X10994560Y-30963511D01*
X10980274Y-30992083D01*
X10965988Y-31006369D01*
X10937417Y-31020654D01*
X10851703Y-31020654D01*
X10823131Y-31006369D01*
X10808846Y-30992083D01*
X11265988Y-30720654D02*
X11123131Y-30720654D01*
X11108846Y-30863511D01*
X11123131Y-30849226D01*
X11151703Y-30834940D01*
X11223131Y-30834940D01*
X11251703Y-30849226D01*
X11265988Y-30863511D01*
X11280274Y-30892083D01*
X11280274Y-30963511D01*
X11265988Y-30992083D01*
X11251703Y-31006369D01*
X11223131Y-31020654D01*
X11151703Y-31020654D01*
X11123131Y-31006369D01*
X11108846Y-30992083D01*
X11537417Y-30820654D02*
X11537417Y-31020654D01*
X11465988Y-30706369D02*
X11394560Y-30920654D01*
X11580274Y-30920654D01*
X11680274Y-30720654D02*
X11680274Y-30777797D01*
X11794560Y-30720654D02*
X11794560Y-30777797D01*
X12237417Y-31134940D02*
X12223131Y-31120654D01*
X12194560Y-31077797D01*
X12180274Y-31049226D01*
X12165988Y-31006369D01*
X12151703Y-30934940D01*
X12151703Y-30877797D01*
X12165988Y-30806369D01*
X12180274Y-30763511D01*
X12194560Y-30734940D01*
X12223131Y-30692083D01*
X12237417Y-30677797D01*
X12508846Y-31020654D02*
X12337417Y-31020654D01*
X12423131Y-31020654D02*
X12423131Y-30720654D01*
X12394560Y-30763511D01*
X12365988Y-30792083D01*
X12337417Y-30806369D01*
X12623131Y-30749226D02*
X12637417Y-30734940D01*
X12665988Y-30720654D01*
X12737417Y-30720654D01*
X12765988Y-30734940D01*
X12780274Y-30749226D01*
X12794560Y-30777797D01*
X12794560Y-30806369D01*
X12780274Y-30849226D01*
X12608846Y-31020654D01*
X12794560Y-31020654D01*
X13151703Y-31020654D02*
X13151703Y-30720654D01*
X13280274Y-31020654D02*
X13280274Y-30863511D01*
X13265988Y-30834940D01*
X13237417Y-30820654D01*
X13194560Y-30820654D01*
X13165988Y-30834940D01*
X13151703Y-30849226D01*
X13465988Y-31020654D02*
X13437417Y-31006369D01*
X13423131Y-30992083D01*
X13408846Y-30963511D01*
X13408846Y-30877797D01*
X13423131Y-30849226D01*
X13437417Y-30834940D01*
X13465988Y-30820654D01*
X13508846Y-30820654D01*
X13537417Y-30834940D01*
X13551703Y-30849226D01*
X13565988Y-30877797D01*
X13565988Y-30963511D01*
X13551703Y-30992083D01*
X13537417Y-31006369D01*
X13508846Y-31020654D01*
X13465988Y-31020654D01*
X13737417Y-31020654D02*
X13708846Y-31006369D01*
X13694560Y-30977797D01*
X13694560Y-30720654D01*
X13965988Y-31006369D02*
X13937417Y-31020654D01*
X13880274Y-31020654D01*
X13851703Y-31006369D01*
X13837417Y-30977797D01*
X13837417Y-30863511D01*
X13851703Y-30834940D01*
X13880274Y-30820654D01*
X13937417Y-30820654D01*
X13965988Y-30834940D01*
X13980274Y-30863511D01*
X13980274Y-30892083D01*
X13837417Y-30920654D01*
X14094560Y-31006369D02*
X14123131Y-31020654D01*
X14180274Y-31020654D01*
X14208846Y-31006369D01*
X14223131Y-30977797D01*
X14223131Y-30963511D01*
X14208846Y-30934940D01*
X14180274Y-30920654D01*
X14137417Y-30920654D01*
X14108846Y-30906369D01*
X14094560Y-30877797D01*
X14094560Y-30863511D01*
X14108846Y-30834940D01*
X14137417Y-30820654D01*
X14180274Y-30820654D01*
X14208846Y-30834940D01*
X14323131Y-31134940D02*
X14337417Y-31120654D01*
X14365988Y-31077797D01*
X14380274Y-31049226D01*
X14394560Y-31006369D01*
X14408846Y-30934940D01*
X14408846Y-30877797D01*
X14394560Y-30806369D01*
X14380274Y-30763511D01*
X14365988Y-30734940D01*
X14337417Y-30692083D01*
X14323131Y-30677797D01*
X6929560Y-31330940D02*
X6979560Y-31280940D01*
X6929560Y-31230940D01*
X6879560Y-31280940D01*
X6929560Y-31330940D01*
X7423131Y-31416654D02*
X7251703Y-31416654D01*
X7337417Y-31416654D02*
X7337417Y-31116654D01*
X7308846Y-31159511D01*
X7280274Y-31188083D01*
X7251703Y-31202369D01*
X7551703Y-31388083D02*
X7565988Y-31402369D01*
X7551703Y-31416654D01*
X7537417Y-31402369D01*
X7551703Y-31388083D01*
X7551703Y-31416654D01*
X7751703Y-31116654D02*
X7780274Y-31116654D01*
X7808846Y-31130940D01*
X7823131Y-31145226D01*
X7837417Y-31173797D01*
X7851703Y-31230940D01*
X7851703Y-31302369D01*
X7837417Y-31359511D01*
X7823131Y-31388083D01*
X7808846Y-31402369D01*
X7780274Y-31416654D01*
X7751703Y-31416654D01*
X7723131Y-31402369D01*
X7708846Y-31388083D01*
X7694560Y-31359511D01*
X7680274Y-31302369D01*
X7680274Y-31230940D01*
X7694560Y-31173797D01*
X7708846Y-31145226D01*
X7723131Y-31130940D01*
X7751703Y-31116654D01*
X8037417Y-31116654D02*
X8065988Y-31116654D01*
X8094560Y-31130940D01*
X8108846Y-31145226D01*
X8123131Y-31173797D01*
X8137417Y-31230940D01*
X8137417Y-31302369D01*
X8123131Y-31359511D01*
X8108846Y-31388083D01*
X8094560Y-31402369D01*
X8065988Y-31416654D01*
X8037417Y-31416654D01*
X8008846Y-31402369D01*
X7994560Y-31388083D01*
X7980274Y-31359511D01*
X7965988Y-31302369D01*
X7965988Y-31230940D01*
X7980274Y-31173797D01*
X7994560Y-31145226D01*
X8008846Y-31130940D01*
X8037417Y-31116654D01*
X8323131Y-31116654D02*
X8351703Y-31116654D01*
X8380274Y-31130940D01*
X8394560Y-31145226D01*
X8408846Y-31173797D01*
X8423131Y-31230940D01*
X8423131Y-31302369D01*
X8408846Y-31359511D01*
X8394560Y-31388083D01*
X8380274Y-31402369D01*
X8351703Y-31416654D01*
X8323131Y-31416654D01*
X8294560Y-31402369D01*
X8280274Y-31388083D01*
X8265988Y-31359511D01*
X8251703Y-31302369D01*
X8251703Y-31230940D01*
X8265988Y-31173797D01*
X8280274Y-31145226D01*
X8294560Y-31130940D01*
X8323131Y-31116654D01*
X8551703Y-31416654D02*
X8551703Y-31216654D01*
X8551703Y-31245226D02*
X8565988Y-31230940D01*
X8594560Y-31216654D01*
X8637417Y-31216654D01*
X8665988Y-31230940D01*
X8680274Y-31259511D01*
X8680274Y-31416654D01*
X8680274Y-31259511D02*
X8694560Y-31230940D01*
X8723131Y-31216654D01*
X8765988Y-31216654D01*
X8794560Y-31230940D01*
X8808846Y-31259511D01*
X8808846Y-31416654D01*
X8951703Y-31416654D02*
X8951703Y-31216654D01*
X8951703Y-31245226D02*
X8965988Y-31230940D01*
X8994560Y-31216654D01*
X9037417Y-31216654D01*
X9065988Y-31230940D01*
X9080274Y-31259511D01*
X9080274Y-31416654D01*
X9080274Y-31259511D02*
X9094560Y-31230940D01*
X9123131Y-31216654D01*
X9165988Y-31216654D01*
X9194560Y-31230940D01*
X9208846Y-31259511D01*
X9208846Y-31416654D01*
X9794560Y-31102369D02*
X9537417Y-31488083D01*
X10180274Y-31116654D02*
X10208846Y-31116654D01*
X10237417Y-31130940D01*
X10251703Y-31145226D01*
X10265988Y-31173797D01*
X10280274Y-31230940D01*
X10280274Y-31302369D01*
X10265988Y-31359511D01*
X10251703Y-31388083D01*
X10237417Y-31402369D01*
X10208846Y-31416654D01*
X10180274Y-31416654D01*
X10151703Y-31402369D01*
X10137417Y-31388083D01*
X10123131Y-31359511D01*
X10108846Y-31302369D01*
X10108846Y-31230940D01*
X10123131Y-31173797D01*
X10137417Y-31145226D01*
X10151703Y-31130940D01*
X10180274Y-31116654D01*
X10408846Y-31388083D02*
X10423131Y-31402369D01*
X10408846Y-31416654D01*
X10394560Y-31402369D01*
X10408846Y-31388083D01*
X10408846Y-31416654D01*
X10608846Y-31116654D02*
X10637417Y-31116654D01*
X10665988Y-31130940D01*
X10680274Y-31145226D01*
X10694560Y-31173797D01*
X10708846Y-31230940D01*
X10708846Y-31302369D01*
X10694560Y-31359511D01*
X10680274Y-31388083D01*
X10665988Y-31402369D01*
X10637417Y-31416654D01*
X10608846Y-31416654D01*
X10580274Y-31402369D01*
X10565988Y-31388083D01*
X10551703Y-31359511D01*
X10537417Y-31302369D01*
X10537417Y-31230940D01*
X10551703Y-31173797D01*
X10565988Y-31145226D01*
X10580274Y-31130940D01*
X10608846Y-31116654D01*
X10808846Y-31116654D02*
X10994560Y-31116654D01*
X10894560Y-31230940D01*
X10937417Y-31230940D01*
X10965988Y-31245226D01*
X10980274Y-31259511D01*
X10994560Y-31288083D01*
X10994560Y-31359511D01*
X10980274Y-31388083D01*
X10965988Y-31402369D01*
X10937417Y-31416654D01*
X10851703Y-31416654D01*
X10823131Y-31402369D01*
X10808846Y-31388083D01*
X11137417Y-31416654D02*
X11194560Y-31416654D01*
X11223131Y-31402369D01*
X11237417Y-31388083D01*
X11265988Y-31345226D01*
X11280274Y-31288083D01*
X11280274Y-31173797D01*
X11265988Y-31145226D01*
X11251703Y-31130940D01*
X11223131Y-31116654D01*
X11165988Y-31116654D01*
X11137417Y-31130940D01*
X11123131Y-31145226D01*
X11108846Y-31173797D01*
X11108846Y-31245226D01*
X11123131Y-31273797D01*
X11137417Y-31288083D01*
X11165988Y-31302369D01*
X11223131Y-31302369D01*
X11251703Y-31288083D01*
X11265988Y-31273797D01*
X11280274Y-31245226D01*
X11537417Y-31216654D02*
X11537417Y-31416654D01*
X11465988Y-31102369D02*
X11394560Y-31316654D01*
X11580274Y-31316654D01*
X11680274Y-31116654D02*
X11680274Y-31173797D01*
X11794560Y-31116654D02*
X11794560Y-31173797D01*
X12237417Y-31530940D02*
X12223131Y-31516654D01*
X12194560Y-31473797D01*
X12180274Y-31445226D01*
X12165988Y-31402369D01*
X12151703Y-31330940D01*
X12151703Y-31273797D01*
X12165988Y-31202369D01*
X12180274Y-31159511D01*
X12194560Y-31130940D01*
X12223131Y-31088083D01*
X12237417Y-31073797D01*
X12508846Y-31416654D02*
X12337417Y-31416654D01*
X12423131Y-31416654D02*
X12423131Y-31116654D01*
X12394560Y-31159511D01*
X12365988Y-31188083D01*
X12337417Y-31202369D01*
X12765988Y-31116654D02*
X12708846Y-31116654D01*
X12680274Y-31130940D01*
X12665988Y-31145226D01*
X12637417Y-31188083D01*
X12623131Y-31245226D01*
X12623131Y-31359511D01*
X12637417Y-31388083D01*
X12651703Y-31402369D01*
X12680274Y-31416654D01*
X12737417Y-31416654D01*
X12765988Y-31402369D01*
X12780274Y-31388083D01*
X12794560Y-31359511D01*
X12794560Y-31288083D01*
X12780274Y-31259511D01*
X12765988Y-31245226D01*
X12737417Y-31230940D01*
X12680274Y-31230940D01*
X12651703Y-31245226D01*
X12637417Y-31259511D01*
X12623131Y-31288083D01*
X13151703Y-31416654D02*
X13151703Y-31116654D01*
X13280274Y-31416654D02*
X13280274Y-31259511D01*
X13265988Y-31230940D01*
X13237417Y-31216654D01*
X13194560Y-31216654D01*
X13165988Y-31230940D01*
X13151703Y-31245226D01*
X13465988Y-31416654D02*
X13437417Y-31402369D01*
X13423131Y-31388083D01*
X13408846Y-31359511D01*
X13408846Y-31273797D01*
X13423131Y-31245226D01*
X13437417Y-31230940D01*
X13465988Y-31216654D01*
X13508846Y-31216654D01*
X13537417Y-31230940D01*
X13551703Y-31245226D01*
X13565988Y-31273797D01*
X13565988Y-31359511D01*
X13551703Y-31388083D01*
X13537417Y-31402369D01*
X13508846Y-31416654D01*
X13465988Y-31416654D01*
X13737417Y-31416654D02*
X13708846Y-31402369D01*
X13694560Y-31373797D01*
X13694560Y-31116654D01*
X13965988Y-31402369D02*
X13937417Y-31416654D01*
X13880274Y-31416654D01*
X13851703Y-31402369D01*
X13837417Y-31373797D01*
X13837417Y-31259511D01*
X13851703Y-31230940D01*
X13880274Y-31216654D01*
X13937417Y-31216654D01*
X13965988Y-31230940D01*
X13980274Y-31259511D01*
X13980274Y-31288083D01*
X13837417Y-31316654D01*
X14094560Y-31402369D02*
X14123131Y-31416654D01*
X14180274Y-31416654D01*
X14208846Y-31402369D01*
X14223131Y-31373797D01*
X14223131Y-31359511D01*
X14208846Y-31330940D01*
X14180274Y-31316654D01*
X14137417Y-31316654D01*
X14108846Y-31302369D01*
X14094560Y-31273797D01*
X14094560Y-31259511D01*
X14108846Y-31230940D01*
X14137417Y-31216654D01*
X14180274Y-31216654D01*
X14208846Y-31230940D01*
X14323131Y-31530940D02*
X14337417Y-31516654D01*
X14365988Y-31473797D01*
X14380274Y-31445226D01*
X14394560Y-31402369D01*
X14408846Y-31330940D01*
X14408846Y-31273797D01*
X14394560Y-31202369D01*
X14380274Y-31159511D01*
X14365988Y-31130940D01*
X14337417Y-31088083D01*
X14323131Y-31073797D01*
X6829560Y-31601940D02*
X6979560Y-31751940D01*
X6979560Y-31601940D02*
X6829560Y-31751940D01*
X6979560Y-31676940D02*
G75*
G03*
X6979560Y-31676940I-75000J0D01*
G01*
X7423131Y-31812654D02*
X7251703Y-31812654D01*
X7337417Y-31812654D02*
X7337417Y-31512654D01*
X7308846Y-31555511D01*
X7280274Y-31584083D01*
X7251703Y-31598369D01*
X7551703Y-31784083D02*
X7565988Y-31798369D01*
X7551703Y-31812654D01*
X7537417Y-31798369D01*
X7551703Y-31784083D01*
X7551703Y-31812654D01*
X7837417Y-31512654D02*
X7694560Y-31512654D01*
X7680274Y-31655511D01*
X7694560Y-31641226D01*
X7723131Y-31626940D01*
X7794560Y-31626940D01*
X7823131Y-31641226D01*
X7837417Y-31655511D01*
X7851703Y-31684083D01*
X7851703Y-31755511D01*
X7837417Y-31784083D01*
X7823131Y-31798369D01*
X7794560Y-31812654D01*
X7723131Y-31812654D01*
X7694560Y-31798369D01*
X7680274Y-31784083D01*
X8037417Y-31512654D02*
X8065988Y-31512654D01*
X8094560Y-31526940D01*
X8108846Y-31541226D01*
X8123131Y-31569797D01*
X8137417Y-31626940D01*
X8137417Y-31698369D01*
X8123131Y-31755511D01*
X8108846Y-31784083D01*
X8094560Y-31798369D01*
X8065988Y-31812654D01*
X8037417Y-31812654D01*
X8008846Y-31798369D01*
X7994560Y-31784083D01*
X7980274Y-31755511D01*
X7965988Y-31698369D01*
X7965988Y-31626940D01*
X7980274Y-31569797D01*
X7994560Y-31541226D01*
X8008846Y-31526940D01*
X8037417Y-31512654D01*
X8323131Y-31512654D02*
X8351703Y-31512654D01*
X8380274Y-31526940D01*
X8394560Y-31541226D01*
X8408846Y-31569797D01*
X8423131Y-31626940D01*
X8423131Y-31698369D01*
X8408846Y-31755511D01*
X8394560Y-31784083D01*
X8380274Y-31798369D01*
X8351703Y-31812654D01*
X8323131Y-31812654D01*
X8294560Y-31798369D01*
X8280274Y-31784083D01*
X8265988Y-31755511D01*
X8251703Y-31698369D01*
X8251703Y-31626940D01*
X8265988Y-31569797D01*
X8280274Y-31541226D01*
X8294560Y-31526940D01*
X8323131Y-31512654D01*
X8551703Y-31812654D02*
X8551703Y-31612654D01*
X8551703Y-31641226D02*
X8565988Y-31626940D01*
X8594560Y-31612654D01*
X8637417Y-31612654D01*
X8665988Y-31626940D01*
X8680274Y-31655511D01*
X8680274Y-31812654D01*
X8680274Y-31655511D02*
X8694560Y-31626940D01*
X8723131Y-31612654D01*
X8765988Y-31612654D01*
X8794560Y-31626940D01*
X8808846Y-31655511D01*
X8808846Y-31812654D01*
X8951703Y-31812654D02*
X8951703Y-31612654D01*
X8951703Y-31641226D02*
X8965988Y-31626940D01*
X8994560Y-31612654D01*
X9037417Y-31612654D01*
X9065988Y-31626940D01*
X9080274Y-31655511D01*
X9080274Y-31812654D01*
X9080274Y-31655511D02*
X9094560Y-31626940D01*
X9123131Y-31612654D01*
X9165988Y-31612654D01*
X9194560Y-31626940D01*
X9208846Y-31655511D01*
X9208846Y-31812654D01*
X9794560Y-31498369D02*
X9537417Y-31884083D01*
X10180274Y-31512654D02*
X10208846Y-31512654D01*
X10237417Y-31526940D01*
X10251703Y-31541226D01*
X10265988Y-31569797D01*
X10280274Y-31626940D01*
X10280274Y-31698369D01*
X10265988Y-31755511D01*
X10251703Y-31784083D01*
X10237417Y-31798369D01*
X10208846Y-31812654D01*
X10180274Y-31812654D01*
X10151703Y-31798369D01*
X10137417Y-31784083D01*
X10123131Y-31755511D01*
X10108846Y-31698369D01*
X10108846Y-31626940D01*
X10123131Y-31569797D01*
X10137417Y-31541226D01*
X10151703Y-31526940D01*
X10180274Y-31512654D01*
X10408846Y-31784083D02*
X10423131Y-31798369D01*
X10408846Y-31812654D01*
X10394560Y-31798369D01*
X10408846Y-31784083D01*
X10408846Y-31812654D01*
X10608846Y-31512654D02*
X10637417Y-31512654D01*
X10665988Y-31526940D01*
X10680274Y-31541226D01*
X10694560Y-31569797D01*
X10708846Y-31626940D01*
X10708846Y-31698369D01*
X10694560Y-31755511D01*
X10680274Y-31784083D01*
X10665988Y-31798369D01*
X10637417Y-31812654D01*
X10608846Y-31812654D01*
X10580274Y-31798369D01*
X10565988Y-31784083D01*
X10551703Y-31755511D01*
X10537417Y-31698369D01*
X10537417Y-31626940D01*
X10551703Y-31569797D01*
X10565988Y-31541226D01*
X10580274Y-31526940D01*
X10608846Y-31512654D01*
X10980274Y-31512654D02*
X10837417Y-31512654D01*
X10823131Y-31655511D01*
X10837417Y-31641226D01*
X10865988Y-31626940D01*
X10937417Y-31626940D01*
X10965988Y-31641226D01*
X10980274Y-31655511D01*
X10994560Y-31684083D01*
X10994560Y-31755511D01*
X10980274Y-31784083D01*
X10965988Y-31798369D01*
X10937417Y-31812654D01*
X10865988Y-31812654D01*
X10837417Y-31798369D01*
X10823131Y-31784083D01*
X11137417Y-31812654D02*
X11194560Y-31812654D01*
X11223131Y-31798369D01*
X11237417Y-31784083D01*
X11265988Y-31741226D01*
X11280274Y-31684083D01*
X11280274Y-31569797D01*
X11265988Y-31541226D01*
X11251703Y-31526940D01*
X11223131Y-31512654D01*
X11165988Y-31512654D01*
X11137417Y-31526940D01*
X11123131Y-31541226D01*
X11108846Y-31569797D01*
X11108846Y-31641226D01*
X11123131Y-31669797D01*
X11137417Y-31684083D01*
X11165988Y-31698369D01*
X11223131Y-31698369D01*
X11251703Y-31684083D01*
X11265988Y-31669797D01*
X11280274Y-31641226D01*
X11565988Y-31812654D02*
X11394560Y-31812654D01*
X11480274Y-31812654D02*
X11480274Y-31512654D01*
X11451703Y-31555511D01*
X11423131Y-31584083D01*
X11394560Y-31598369D01*
X11680274Y-31512654D02*
X11680274Y-31569797D01*
X11794560Y-31512654D02*
X11794560Y-31569797D01*
X12237417Y-31926940D02*
X12223131Y-31912654D01*
X12194560Y-31869797D01*
X12180274Y-31841226D01*
X12165988Y-31798369D01*
X12151703Y-31726940D01*
X12151703Y-31669797D01*
X12165988Y-31598369D01*
X12180274Y-31555511D01*
X12194560Y-31526940D01*
X12223131Y-31484083D01*
X12237417Y-31469797D01*
X12408846Y-31512654D02*
X12437417Y-31512654D01*
X12465988Y-31526940D01*
X12480274Y-31541226D01*
X12494560Y-31569797D01*
X12508846Y-31626940D01*
X12508846Y-31698369D01*
X12494560Y-31755511D01*
X12480274Y-31784083D01*
X12465988Y-31798369D01*
X12437417Y-31812654D01*
X12408846Y-31812654D01*
X12380274Y-31798369D01*
X12365988Y-31784083D01*
X12351703Y-31755511D01*
X12337417Y-31698369D01*
X12337417Y-31626940D01*
X12351703Y-31569797D01*
X12365988Y-31541226D01*
X12380274Y-31526940D01*
X12408846Y-31512654D01*
X12865988Y-31812654D02*
X12865988Y-31512654D01*
X12994560Y-31812654D02*
X12994560Y-31655511D01*
X12980274Y-31626940D01*
X12951703Y-31612654D01*
X12908846Y-31612654D01*
X12880274Y-31626940D01*
X12865988Y-31641226D01*
X13180274Y-31812654D02*
X13151703Y-31798369D01*
X13137417Y-31784083D01*
X13123131Y-31755511D01*
X13123131Y-31669797D01*
X13137417Y-31641226D01*
X13151703Y-31626940D01*
X13180274Y-31612654D01*
X13223131Y-31612654D01*
X13251703Y-31626940D01*
X13265988Y-31641226D01*
X13280274Y-31669797D01*
X13280274Y-31755511D01*
X13265988Y-31784083D01*
X13251703Y-31798369D01*
X13223131Y-31812654D01*
X13180274Y-31812654D01*
X13451703Y-31812654D02*
X13423131Y-31798369D01*
X13408846Y-31769797D01*
X13408846Y-31512654D01*
X13680274Y-31798369D02*
X13651703Y-31812654D01*
X13594560Y-31812654D01*
X13565988Y-31798369D01*
X13551703Y-31769797D01*
X13551703Y-31655511D01*
X13565988Y-31626940D01*
X13594560Y-31612654D01*
X13651703Y-31612654D01*
X13680274Y-31626940D01*
X13694560Y-31655511D01*
X13694560Y-31684083D01*
X13551703Y-31712654D01*
X13808846Y-31798369D02*
X13837417Y-31812654D01*
X13894560Y-31812654D01*
X13923131Y-31798369D01*
X13937417Y-31769797D01*
X13937417Y-31755511D01*
X13923131Y-31726940D01*
X13894560Y-31712654D01*
X13851703Y-31712654D01*
X13823131Y-31698369D01*
X13808846Y-31669797D01*
X13808846Y-31655511D01*
X13823131Y-31626940D01*
X13851703Y-31612654D01*
X13894560Y-31612654D01*
X13923131Y-31626940D01*
X14294560Y-31698369D02*
X14523131Y-31698369D01*
X14408846Y-31812654D02*
X14408846Y-31584083D01*
X15023131Y-31612654D02*
X15023131Y-31812654D01*
X14951703Y-31498369D02*
X14880274Y-31712654D01*
X15065988Y-31712654D01*
X15394560Y-31798369D02*
X15423131Y-31812654D01*
X15480274Y-31812654D01*
X15508846Y-31798369D01*
X15523131Y-31769797D01*
X15523131Y-31755511D01*
X15508846Y-31726940D01*
X15480274Y-31712654D01*
X15437417Y-31712654D01*
X15408846Y-31698369D01*
X15394560Y-31669797D01*
X15394560Y-31655511D01*
X15408846Y-31626940D01*
X15437417Y-31612654D01*
X15480274Y-31612654D01*
X15508846Y-31626940D01*
X15694560Y-31812654D02*
X15665988Y-31798369D01*
X15651703Y-31769797D01*
X15651703Y-31512654D01*
X15851703Y-31812654D02*
X15823131Y-31798369D01*
X15808846Y-31784083D01*
X15794560Y-31755511D01*
X15794560Y-31669797D01*
X15808846Y-31641226D01*
X15823131Y-31626940D01*
X15851703Y-31612654D01*
X15894560Y-31612654D01*
X15923131Y-31626940D01*
X15937417Y-31641226D01*
X15951703Y-31669797D01*
X15951703Y-31755511D01*
X15937417Y-31784083D01*
X15923131Y-31798369D01*
X15894560Y-31812654D01*
X15851703Y-31812654D01*
X16037417Y-31612654D02*
X16151703Y-31612654D01*
X16080274Y-31512654D02*
X16080274Y-31769797D01*
X16094560Y-31798369D01*
X16123131Y-31812654D01*
X16151703Y-31812654D01*
X16237417Y-31798369D02*
X16265988Y-31812654D01*
X16323131Y-31812654D01*
X16351703Y-31798369D01*
X16365988Y-31769797D01*
X16365988Y-31755511D01*
X16351703Y-31726940D01*
X16323131Y-31712654D01*
X16280274Y-31712654D01*
X16251703Y-31698369D01*
X16237417Y-31669797D01*
X16237417Y-31655511D01*
X16251703Y-31626940D01*
X16280274Y-31612654D01*
X16323131Y-31612654D01*
X16351703Y-31626940D01*
X16465988Y-31926940D02*
X16480274Y-31912654D01*
X16508846Y-31869797D01*
X16523131Y-31841226D01*
X16537417Y-31798369D01*
X16551703Y-31726940D01*
X16551703Y-31669797D01*
X16537417Y-31598369D01*
X16523131Y-31555511D01*
X16508846Y-31526940D01*
X16480274Y-31484083D01*
X16465988Y-31469797D01*
X6769560Y-31967940D02*
X6979560Y-32177940D01*
X6979560Y-31967940D02*
X6769560Y-32177940D01*
X6874560Y-31967940D02*
X6874560Y-32177940D01*
X6769560Y-32072940D02*
X6979560Y-32072940D01*
X7251703Y-31937226D02*
X7265988Y-31922940D01*
X7294560Y-31908654D01*
X7365988Y-31908654D01*
X7394560Y-31922940D01*
X7408846Y-31937226D01*
X7423131Y-31965797D01*
X7423131Y-31994369D01*
X7408846Y-32037226D01*
X7237417Y-32208654D01*
X7423131Y-32208654D01*
X7551703Y-32180083D02*
X7565988Y-32194369D01*
X7551703Y-32208654D01*
X7537417Y-32194369D01*
X7551703Y-32180083D01*
X7551703Y-32208654D01*
X7851703Y-32208654D02*
X7680274Y-32208654D01*
X7765988Y-32208654D02*
X7765988Y-31908654D01*
X7737417Y-31951511D01*
X7708846Y-31980083D01*
X7680274Y-31994369D01*
X8037417Y-31908654D02*
X8065988Y-31908654D01*
X8094560Y-31922940D01*
X8108846Y-31937226D01*
X8123131Y-31965797D01*
X8137417Y-32022940D01*
X8137417Y-32094369D01*
X8123131Y-32151511D01*
X8108846Y-32180083D01*
X8094560Y-32194369D01*
X8065988Y-32208654D01*
X8037417Y-32208654D01*
X8008846Y-32194369D01*
X7994560Y-32180083D01*
X7980274Y-32151511D01*
X7965988Y-32094369D01*
X7965988Y-32022940D01*
X7980274Y-31965797D01*
X7994560Y-31937226D01*
X8008846Y-31922940D01*
X8037417Y-31908654D01*
X8323131Y-31908654D02*
X8351703Y-31908654D01*
X8380274Y-31922940D01*
X8394560Y-31937226D01*
X8408846Y-31965797D01*
X8423131Y-32022940D01*
X8423131Y-32094369D01*
X8408846Y-32151511D01*
X8394560Y-32180083D01*
X8380274Y-32194369D01*
X8351703Y-32208654D01*
X8323131Y-32208654D01*
X8294560Y-32194369D01*
X8280274Y-32180083D01*
X8265988Y-32151511D01*
X8251703Y-32094369D01*
X8251703Y-32022940D01*
X8265988Y-31965797D01*
X8280274Y-31937226D01*
X8294560Y-31922940D01*
X8323131Y-31908654D01*
X8551703Y-32208654D02*
X8551703Y-32008654D01*
X8551703Y-32037226D02*
X8565988Y-32022940D01*
X8594560Y-32008654D01*
X8637417Y-32008654D01*
X8665988Y-32022940D01*
X8680274Y-32051511D01*
X8680274Y-32208654D01*
X8680274Y-32051511D02*
X8694560Y-32022940D01*
X8723131Y-32008654D01*
X8765988Y-32008654D01*
X8794560Y-32022940D01*
X8808846Y-32051511D01*
X8808846Y-32208654D01*
X8951703Y-32208654D02*
X8951703Y-32008654D01*
X8951703Y-32037226D02*
X8965988Y-32022940D01*
X8994560Y-32008654D01*
X9037417Y-32008654D01*
X9065988Y-32022940D01*
X9080274Y-32051511D01*
X9080274Y-32208654D01*
X9080274Y-32051511D02*
X9094560Y-32022940D01*
X9123131Y-32008654D01*
X9165988Y-32008654D01*
X9194560Y-32022940D01*
X9208846Y-32051511D01*
X9208846Y-32208654D01*
X9794560Y-31894369D02*
X9537417Y-32280083D01*
X10180274Y-31908654D02*
X10208846Y-31908654D01*
X10237417Y-31922940D01*
X10251703Y-31937226D01*
X10265988Y-31965797D01*
X10280274Y-32022940D01*
X10280274Y-32094369D01*
X10265988Y-32151511D01*
X10251703Y-32180083D01*
X10237417Y-32194369D01*
X10208846Y-32208654D01*
X10180274Y-32208654D01*
X10151703Y-32194369D01*
X10137417Y-32180083D01*
X10123131Y-32151511D01*
X10108846Y-32094369D01*
X10108846Y-32022940D01*
X10123131Y-31965797D01*
X10137417Y-31937226D01*
X10151703Y-31922940D01*
X10180274Y-31908654D01*
X10408846Y-32180083D02*
X10423131Y-32194369D01*
X10408846Y-32208654D01*
X10394560Y-32194369D01*
X10408846Y-32180083D01*
X10408846Y-32208654D01*
X10608846Y-31908654D02*
X10637417Y-31908654D01*
X10665988Y-31922940D01*
X10680274Y-31937226D01*
X10694560Y-31965797D01*
X10708846Y-32022940D01*
X10708846Y-32094369D01*
X10694560Y-32151511D01*
X10680274Y-32180083D01*
X10665988Y-32194369D01*
X10637417Y-32208654D01*
X10608846Y-32208654D01*
X10580274Y-32194369D01*
X10565988Y-32180083D01*
X10551703Y-32151511D01*
X10537417Y-32094369D01*
X10537417Y-32022940D01*
X10551703Y-31965797D01*
X10565988Y-31937226D01*
X10580274Y-31922940D01*
X10608846Y-31908654D01*
X10880274Y-32037226D02*
X10851703Y-32022940D01*
X10837417Y-32008654D01*
X10823131Y-31980083D01*
X10823131Y-31965797D01*
X10837417Y-31937226D01*
X10851703Y-31922940D01*
X10880274Y-31908654D01*
X10937417Y-31908654D01*
X10965988Y-31922940D01*
X10980274Y-31937226D01*
X10994560Y-31965797D01*
X10994560Y-31980083D01*
X10980274Y-32008654D01*
X10965988Y-32022940D01*
X10937417Y-32037226D01*
X10880274Y-32037226D01*
X10851703Y-32051511D01*
X10837417Y-32065797D01*
X10823131Y-32094369D01*
X10823131Y-32151511D01*
X10837417Y-32180083D01*
X10851703Y-32194369D01*
X10880274Y-32208654D01*
X10937417Y-32208654D01*
X10965988Y-32194369D01*
X10980274Y-32180083D01*
X10994560Y-32151511D01*
X10994560Y-32094369D01*
X10980274Y-32065797D01*
X10965988Y-32051511D01*
X10937417Y-32037226D01*
X11108846Y-31937226D02*
X11123131Y-31922940D01*
X11151703Y-31908654D01*
X11223131Y-31908654D01*
X11251703Y-31922940D01*
X11265988Y-31937226D01*
X11280274Y-31965797D01*
X11280274Y-31994369D01*
X11265988Y-32037226D01*
X11094560Y-32208654D01*
X11280274Y-32208654D01*
X11380274Y-31908654D02*
X11580274Y-31908654D01*
X11451703Y-32208654D01*
X11680274Y-31908654D02*
X11680274Y-31965797D01*
X11794560Y-31908654D02*
X11794560Y-31965797D01*
X12237417Y-32322940D02*
X12223131Y-32308654D01*
X12194560Y-32265797D01*
X12180274Y-32237226D01*
X12165988Y-32194369D01*
X12151703Y-32122940D01*
X12151703Y-32065797D01*
X12165988Y-31994369D01*
X12180274Y-31951511D01*
X12194560Y-31922940D01*
X12223131Y-31880083D01*
X12237417Y-31865797D01*
X12480274Y-31908654D02*
X12423131Y-31908654D01*
X12394560Y-31922940D01*
X12380274Y-31937226D01*
X12351703Y-31980083D01*
X12337417Y-32037226D01*
X12337417Y-32151511D01*
X12351703Y-32180083D01*
X12365988Y-32194369D01*
X12394560Y-32208654D01*
X12451703Y-32208654D01*
X12480274Y-32194369D01*
X12494560Y-32180083D01*
X12508846Y-32151511D01*
X12508846Y-32080083D01*
X12494560Y-32051511D01*
X12480274Y-32037226D01*
X12451703Y-32022940D01*
X12394560Y-32022940D01*
X12365988Y-32037226D01*
X12351703Y-32051511D01*
X12337417Y-32080083D01*
X12865988Y-32208654D02*
X12865988Y-31908654D01*
X12994560Y-32208654D02*
X12994560Y-32051511D01*
X12980274Y-32022940D01*
X12951703Y-32008654D01*
X12908846Y-32008654D01*
X12880274Y-32022940D01*
X12865988Y-32037226D01*
X13180274Y-32208654D02*
X13151703Y-32194369D01*
X13137417Y-32180083D01*
X13123131Y-32151511D01*
X13123131Y-32065797D01*
X13137417Y-32037226D01*
X13151703Y-32022940D01*
X13180274Y-32008654D01*
X13223131Y-32008654D01*
X13251703Y-32022940D01*
X13265988Y-32037226D01*
X13280274Y-32065797D01*
X13280274Y-32151511D01*
X13265988Y-32180083D01*
X13251703Y-32194369D01*
X13223131Y-32208654D01*
X13180274Y-32208654D01*
X13451703Y-32208654D02*
X13423131Y-32194369D01*
X13408846Y-32165797D01*
X13408846Y-31908654D01*
X13680274Y-32194369D02*
X13651703Y-32208654D01*
X13594560Y-32208654D01*
X13565988Y-32194369D01*
X13551703Y-32165797D01*
X13551703Y-32051511D01*
X13565988Y-32022940D01*
X13594560Y-32008654D01*
X13651703Y-32008654D01*
X13680274Y-32022940D01*
X13694560Y-32051511D01*
X13694560Y-32080083D01*
X13551703Y-32108654D01*
X13808846Y-32194369D02*
X13837417Y-32208654D01*
X13894560Y-32208654D01*
X13923131Y-32194369D01*
X13937417Y-32165797D01*
X13937417Y-32151511D01*
X13923131Y-32122940D01*
X13894560Y-32108654D01*
X13851703Y-32108654D01*
X13823131Y-32094369D01*
X13808846Y-32065797D01*
X13808846Y-32051511D01*
X13823131Y-32022940D01*
X13851703Y-32008654D01*
X13894560Y-32008654D01*
X13923131Y-32022940D01*
X14037417Y-32322940D02*
X14051703Y-32308654D01*
X14080274Y-32265797D01*
X14094560Y-32237226D01*
X14108846Y-32194369D01*
X14123131Y-32122940D01*
X14123131Y-32065797D01*
X14108846Y-31994369D01*
X14094560Y-31951511D01*
X14080274Y-31922940D01*
X14051703Y-31880083D01*
X14037417Y-31865797D01*
X6659560Y-32308940D02*
X6979560Y-32628940D01*
X6979560Y-32308940D02*
X6659560Y-32628940D01*
X6932698Y-32582078D02*
X6932698Y-32355802D01*
X6706422Y-32355802D01*
X6706422Y-32582078D01*
X6932698Y-32582078D01*
X7237417Y-32304654D02*
X7423131Y-32304654D01*
X7323131Y-32418940D01*
X7365988Y-32418940D01*
X7394560Y-32433226D01*
X7408846Y-32447511D01*
X7423131Y-32476083D01*
X7423131Y-32547511D01*
X7408846Y-32576083D01*
X7394560Y-32590369D01*
X7365988Y-32604654D01*
X7280274Y-32604654D01*
X7251703Y-32590369D01*
X7237417Y-32576083D01*
X7551703Y-32576083D02*
X7565988Y-32590369D01*
X7551703Y-32604654D01*
X7537417Y-32590369D01*
X7551703Y-32576083D01*
X7551703Y-32604654D01*
X7680274Y-32333226D02*
X7694560Y-32318940D01*
X7723131Y-32304654D01*
X7794560Y-32304654D01*
X7823131Y-32318940D01*
X7837417Y-32333226D01*
X7851703Y-32361797D01*
X7851703Y-32390369D01*
X7837417Y-32433226D01*
X7665988Y-32604654D01*
X7851703Y-32604654D01*
X8037417Y-32304654D02*
X8065988Y-32304654D01*
X8094560Y-32318940D01*
X8108846Y-32333226D01*
X8123131Y-32361797D01*
X8137417Y-32418940D01*
X8137417Y-32490369D01*
X8123131Y-32547511D01*
X8108846Y-32576083D01*
X8094560Y-32590369D01*
X8065988Y-32604654D01*
X8037417Y-32604654D01*
X8008846Y-32590369D01*
X7994560Y-32576083D01*
X7980274Y-32547511D01*
X7965988Y-32490369D01*
X7965988Y-32418940D01*
X7980274Y-32361797D01*
X7994560Y-32333226D01*
X8008846Y-32318940D01*
X8037417Y-32304654D01*
X8323131Y-32304654D02*
X8351703Y-32304654D01*
X8380274Y-32318940D01*
X8394560Y-32333226D01*
X8408846Y-32361797D01*
X8423131Y-32418940D01*
X8423131Y-32490369D01*
X8408846Y-32547511D01*
X8394560Y-32576083D01*
X8380274Y-32590369D01*
X8351703Y-32604654D01*
X8323131Y-32604654D01*
X8294560Y-32590369D01*
X8280274Y-32576083D01*
X8265988Y-32547511D01*
X8251703Y-32490369D01*
X8251703Y-32418940D01*
X8265988Y-32361797D01*
X8280274Y-32333226D01*
X8294560Y-32318940D01*
X8323131Y-32304654D01*
X8551703Y-32604654D02*
X8551703Y-32404654D01*
X8551703Y-32433226D02*
X8565988Y-32418940D01*
X8594560Y-32404654D01*
X8637417Y-32404654D01*
X8665988Y-32418940D01*
X8680274Y-32447511D01*
X8680274Y-32604654D01*
X8680274Y-32447511D02*
X8694560Y-32418940D01*
X8723131Y-32404654D01*
X8765988Y-32404654D01*
X8794560Y-32418940D01*
X8808846Y-32447511D01*
X8808846Y-32604654D01*
X8951703Y-32604654D02*
X8951703Y-32404654D01*
X8951703Y-32433226D02*
X8965988Y-32418940D01*
X8994560Y-32404654D01*
X9037417Y-32404654D01*
X9065988Y-32418940D01*
X9080274Y-32447511D01*
X9080274Y-32604654D01*
X9080274Y-32447511D02*
X9094560Y-32418940D01*
X9123131Y-32404654D01*
X9165988Y-32404654D01*
X9194560Y-32418940D01*
X9208846Y-32447511D01*
X9208846Y-32604654D01*
X9794560Y-32290369D02*
X9537417Y-32676083D01*
X10180274Y-32304654D02*
X10208846Y-32304654D01*
X10237417Y-32318940D01*
X10251703Y-32333226D01*
X10265988Y-32361797D01*
X10280274Y-32418940D01*
X10280274Y-32490369D01*
X10265988Y-32547511D01*
X10251703Y-32576083D01*
X10237417Y-32590369D01*
X10208846Y-32604654D01*
X10180274Y-32604654D01*
X10151703Y-32590369D01*
X10137417Y-32576083D01*
X10123131Y-32547511D01*
X10108846Y-32490369D01*
X10108846Y-32418940D01*
X10123131Y-32361797D01*
X10137417Y-32333226D01*
X10151703Y-32318940D01*
X10180274Y-32304654D01*
X10408846Y-32576083D02*
X10423131Y-32590369D01*
X10408846Y-32604654D01*
X10394560Y-32590369D01*
X10408846Y-32576083D01*
X10408846Y-32604654D01*
X10708846Y-32604654D02*
X10537417Y-32604654D01*
X10623131Y-32604654D02*
X10623131Y-32304654D01*
X10594560Y-32347511D01*
X10565988Y-32376083D01*
X10537417Y-32390369D01*
X10823131Y-32333226D02*
X10837417Y-32318940D01*
X10865988Y-32304654D01*
X10937417Y-32304654D01*
X10965988Y-32318940D01*
X10980274Y-32333226D01*
X10994560Y-32361797D01*
X10994560Y-32390369D01*
X10980274Y-32433226D01*
X10808846Y-32604654D01*
X10994560Y-32604654D01*
X11251703Y-32304654D02*
X11194560Y-32304654D01*
X11165988Y-32318940D01*
X11151703Y-32333226D01*
X11123131Y-32376083D01*
X11108846Y-32433226D01*
X11108846Y-32547511D01*
X11123131Y-32576083D01*
X11137417Y-32590369D01*
X11165988Y-32604654D01*
X11223131Y-32604654D01*
X11251703Y-32590369D01*
X11265988Y-32576083D01*
X11280274Y-32547511D01*
X11280274Y-32476083D01*
X11265988Y-32447511D01*
X11251703Y-32433226D01*
X11223131Y-32418940D01*
X11165988Y-32418940D01*
X11137417Y-32433226D01*
X11123131Y-32447511D01*
X11108846Y-32476083D01*
X11465988Y-32304654D02*
X11494560Y-32304654D01*
X11523131Y-32318940D01*
X11537417Y-32333226D01*
X11551703Y-32361797D01*
X11565988Y-32418940D01*
X11565988Y-32490369D01*
X11551703Y-32547511D01*
X11537417Y-32576083D01*
X11523131Y-32590369D01*
X11494560Y-32604654D01*
X11465988Y-32604654D01*
X11437417Y-32590369D01*
X11423131Y-32576083D01*
X11408846Y-32547511D01*
X11394560Y-32490369D01*
X11394560Y-32418940D01*
X11408846Y-32361797D01*
X11423131Y-32333226D01*
X11437417Y-32318940D01*
X11465988Y-32304654D01*
X11680274Y-32304654D02*
X11680274Y-32361797D01*
X11794560Y-32304654D02*
X11794560Y-32361797D01*
X12237417Y-32718940D02*
X12223131Y-32704654D01*
X12194560Y-32661797D01*
X12180274Y-32633226D01*
X12165988Y-32590369D01*
X12151703Y-32518940D01*
X12151703Y-32461797D01*
X12165988Y-32390369D01*
X12180274Y-32347511D01*
X12194560Y-32318940D01*
X12223131Y-32276083D01*
X12237417Y-32261797D01*
X12480274Y-32404654D02*
X12480274Y-32604654D01*
X12408846Y-32290369D02*
X12337417Y-32504654D01*
X12523131Y-32504654D01*
X12865988Y-32604654D02*
X12865988Y-32304654D01*
X12994560Y-32604654D02*
X12994560Y-32447511D01*
X12980274Y-32418940D01*
X12951703Y-32404654D01*
X12908846Y-32404654D01*
X12880274Y-32418940D01*
X12865988Y-32433226D01*
X13180274Y-32604654D02*
X13151703Y-32590369D01*
X13137417Y-32576083D01*
X13123131Y-32547511D01*
X13123131Y-32461797D01*
X13137417Y-32433226D01*
X13151703Y-32418940D01*
X13180274Y-32404654D01*
X13223131Y-32404654D01*
X13251703Y-32418940D01*
X13265988Y-32433226D01*
X13280274Y-32461797D01*
X13280274Y-32547511D01*
X13265988Y-32576083D01*
X13251703Y-32590369D01*
X13223131Y-32604654D01*
X13180274Y-32604654D01*
X13451703Y-32604654D02*
X13423131Y-32590369D01*
X13408846Y-32561797D01*
X13408846Y-32304654D01*
X13680274Y-32590369D02*
X13651703Y-32604654D01*
X13594560Y-32604654D01*
X13565988Y-32590369D01*
X13551703Y-32561797D01*
X13551703Y-32447511D01*
X13565988Y-32418940D01*
X13594560Y-32404654D01*
X13651703Y-32404654D01*
X13680274Y-32418940D01*
X13694560Y-32447511D01*
X13694560Y-32476083D01*
X13551703Y-32504654D01*
X13808846Y-32590369D02*
X13837417Y-32604654D01*
X13894560Y-32604654D01*
X13923131Y-32590369D01*
X13937417Y-32561797D01*
X13937417Y-32547511D01*
X13923131Y-32518940D01*
X13894560Y-32504654D01*
X13851703Y-32504654D01*
X13823131Y-32490369D01*
X13808846Y-32461797D01*
X13808846Y-32447511D01*
X13823131Y-32418940D01*
X13851703Y-32404654D01*
X13894560Y-32404654D01*
X13923131Y-32418940D01*
X14037417Y-32718940D02*
X14051703Y-32704654D01*
X14080274Y-32661797D01*
X14094560Y-32633226D01*
X14108846Y-32590369D01*
X14123131Y-32518940D01*
X14123131Y-32461797D01*
X14108846Y-32390369D01*
X14094560Y-32347511D01*
X14080274Y-32318940D01*
X14051703Y-32276083D01*
X14037417Y-32261797D01*
M02*
