%TF.GenerationSoftware,KiCad,Pcbnew,(5.1.10)-1*%
%TF.CreationDate,2021-10-26T21:51:47-04:00*%
%TF.ProjectId,custom_keyboard (f303_ fe2.1),63757374-6f6d-45f6-9b65-79626f617264,rev?*%
%TF.SameCoordinates,Original*%
%TF.FileFunction,Soldermask,Top*%
%TF.FilePolarity,Negative*%
%FSLAX46Y46*%
G04 Gerber Fmt 4.6, Leading zero omitted, Abs format (unit mm)*
G04 Created by KiCad (PCBNEW (5.1.10)-1) date 2021-10-26 21:51:47*
%MOMM*%
%LPD*%
G01*
G04 APERTURE LIST*
%ADD10C,1.000000*%
%ADD11C,3.000000*%
%ADD12C,1.750000*%
%ADD13C,4.000000*%
%ADD14C,0.650000*%
%ADD15O,2.100000X1.000000*%
%ADD16O,1.600000X1.000000*%
%ADD17C,3.500000*%
%ADD18O,1.500000X2.000000*%
%ADD19O,1.000000X2.100000*%
%ADD20O,1.000000X1.600000*%
%ADD21C,3.048000*%
%ADD22C,3.987800*%
%ADD23O,2.000000X1.500000*%
%ADD24R,2.000000X2.000000*%
%ADD25C,2.000000*%
%ADD26R,3.200000X2.000000*%
%ADD27C,1.397000*%
%ADD28C,6.400000*%
%ADD29C,0.800000*%
G04 APERTURE END LIST*
D10*
%TO.C,TP54*%
X107149500Y-174614000D03*
%TD*%
%TO.C,TP53*%
X427010600Y-227791900D03*
%TD*%
%TO.C,TP52*%
X441297200Y-235728900D03*
%TD*%
%TO.C,TP51*%
X442090900Y-185725800D03*
%TD*%
%TO.C,TP50*%
X442090900Y-181757300D03*
%TD*%
%TO.C,TP49*%
X426216900Y-174614000D03*
%TD*%
%TO.C,TP48*%
X430979100Y-174614000D03*
%TD*%
%TO.C,TP47*%
X311924100Y-174614000D03*
%TD*%
%TO.C,TP46*%
X303987100Y-174614000D03*
%TD*%
%TO.C,TP45*%
X440503500Y-253190300D03*
%TD*%
%TO.C,TP44*%
X445265700Y-257158800D03*
%TD*%
%TO.C,TP25*%
X92069200Y-180963600D03*
%TD*%
%TO.C,TP23*%
X92069200Y-184138400D03*
%TD*%
%TO.C,TP22*%
X130960500Y-173820300D03*
%TD*%
%TO.C,TP21*%
X137310100Y-173820300D03*
%TD*%
%TO.C,TP1*%
X220648600Y-179376200D03*
%TD*%
%TO.C,TP4*%
X221442300Y-278588700D03*
%TD*%
%TO.C,TP2*%
X223823400Y-179376200D03*
%TD*%
%TO.C,TP3*%
X253984000Y-273032800D03*
%TD*%
%TO.C,TP20*%
X292875300Y-272239100D03*
%TD*%
%TO.C,TP43*%
X104768400Y-189694300D03*
%TD*%
%TO.C,TP42*%
X123817200Y-189694300D03*
%TD*%
%TO.C,TP41*%
X142866000Y-189694300D03*
%TD*%
%TO.C,TP40*%
X297637500Y-276207600D03*
%TD*%
%TO.C,TP39*%
X296050100Y-273826500D03*
%TD*%
%TO.C,TP38*%
X277001300Y-282557200D03*
%TD*%
%TO.C,TP37*%
X279382400Y-282557200D03*
%TD*%
%TO.C,TP36*%
X292081600Y-269858000D03*
%TD*%
%TO.C,TP35*%
X295256400Y-189694300D03*
%TD*%
%TO.C,TP34*%
X276207600Y-189694300D03*
%TD*%
%TO.C,TP33*%
X257158800Y-189694300D03*
%TD*%
%TO.C,TP32*%
X238110000Y-189694300D03*
%TD*%
%TO.C,TP31*%
X219061200Y-189694300D03*
%TD*%
%TO.C,TP30*%
X200012400Y-189694300D03*
%TD*%
%TO.C,TP29*%
X180963600Y-189694300D03*
%TD*%
%TO.C,TP28*%
X161914800Y-189694300D03*
%TD*%
%TO.C,TP27*%
X249221800Y-273826500D03*
%TD*%
%TO.C,TP26*%
X257952500Y-276207600D03*
%TD*%
%TO.C,TP24*%
X256365100Y-272239100D03*
%TD*%
%TO.C,TP19*%
X289700500Y-269858000D03*
%TD*%
%TO.C,TP18*%
X287319400Y-269858000D03*
%TD*%
%TO.C,TP17*%
X441297200Y-189694300D03*
%TD*%
%TO.C,TP16*%
X419073600Y-189694300D03*
%TD*%
%TO.C,TP15*%
X400818500Y-189694300D03*
%TD*%
%TO.C,TP14*%
X101593600Y-169851800D03*
%TD*%
%TO.C,TP13*%
X100799900Y-193662800D03*
%TD*%
%TO.C,TP12*%
X100006200Y-212711600D03*
%TD*%
%TO.C,TP11*%
X100006200Y-231760400D03*
%TD*%
%TO.C,TP10*%
X99212500Y-250809200D03*
%TD*%
%TO.C,TP9*%
X99212500Y-269858000D03*
%TD*%
%TO.C,TP8*%
X79370000Y-169058100D03*
%TD*%
%TO.C,TP7*%
X361927200Y-189694300D03*
%TD*%
%TO.C,TP6*%
X333354000Y-189694300D03*
%TD*%
%TO.C,TP5*%
X314305200Y-189694300D03*
%TD*%
D11*
%TO.C,MX7*%
X258111400Y-163184400D03*
X251761400Y-165724400D03*
D12*
X260651400Y-168264400D03*
X250491400Y-168264400D03*
D13*
X255571400Y-168264400D03*
%TD*%
D11*
%TO.C,MX6*%
X239062600Y-163184400D03*
X232712600Y-165724400D03*
D12*
X241602600Y-168264400D03*
X231442600Y-168264400D03*
D13*
X236522600Y-168264400D03*
%TD*%
D14*
%TO.C,USB2*%
X75301900Y-179661000D03*
X75301900Y-185441000D03*
D15*
X75831900Y-186871000D03*
X75831900Y-178231000D03*
D16*
X71651900Y-186871000D03*
X71651900Y-178231000D03*
%TD*%
D17*
%TO.C,USB3*%
X124754200Y-159204800D03*
D18*
X135254200Y-161914800D03*
X132754200Y-161914800D03*
X130754200Y-161914800D03*
D17*
X138754200Y-159204800D03*
D18*
X128254200Y-161914800D03*
%TD*%
D17*
%TO.C,USB6*%
X420010600Y-158411100D03*
D18*
X430510600Y-161121100D03*
X428010600Y-161121100D03*
X426010600Y-161121100D03*
D17*
X434010600Y-158411100D03*
D18*
X423510600Y-161121100D03*
%TD*%
D11*
%TO.C,MX78*%
X429550600Y-248904000D03*
X423200600Y-251444000D03*
D12*
X432090600Y-253984000D03*
X421930600Y-253984000D03*
D13*
X427010600Y-253984000D03*
%TD*%
D11*
%TO.C,MX19*%
X172391800Y-191757600D03*
X166041800Y-194297600D03*
D12*
X174931800Y-196837600D03*
X164771800Y-196837600D03*
D13*
X169851800Y-196837600D03*
%TD*%
D14*
%TO.C,USB1*%
X225126000Y-154671900D03*
X219346000Y-154671900D03*
D19*
X217916000Y-155201900D03*
X226556000Y-155201900D03*
D20*
X217916000Y-151021900D03*
X226556000Y-151021900D03*
%TD*%
D21*
%TO.C,MX83*%
X284135050Y-266073200D03*
D22*
X284135050Y-281313200D03*
D21*
X184135250Y-266073200D03*
D22*
X184135250Y-281313200D03*
D11*
X236681500Y-267952800D03*
X230331500Y-270492800D03*
D12*
X239221500Y-273032800D03*
X229061500Y-273032800D03*
D13*
X234141500Y-273032800D03*
%TD*%
D11*
%TO.C,MX84*%
X308114500Y-267952800D03*
X301764500Y-270492800D03*
D12*
X310654500Y-273032800D03*
X300494500Y-273032800D03*
D13*
X305574500Y-273032800D03*
%TD*%
D17*
%TO.C,USB4*%
X455119000Y-246984000D03*
D23*
X452409000Y-257484000D03*
X452409000Y-254984000D03*
X452409000Y-252984000D03*
D17*
X455119000Y-260984000D03*
D23*
X452409000Y-250484000D03*
%TD*%
D11*
%TO.C,MX32*%
X448599400Y-191757600D03*
X442249400Y-194297600D03*
D12*
X451139400Y-196837600D03*
X440979400Y-196837600D03*
D13*
X446059400Y-196837600D03*
%TD*%
D14*
%TO.C,USB7*%
X459651900Y-185441000D03*
X459651900Y-179661000D03*
D15*
X459121900Y-178231000D03*
X459121900Y-186871000D03*
D16*
X463301900Y-178231000D03*
X463301900Y-186871000D03*
%TD*%
D24*
%TO.C,ROT1*%
X96831400Y-171439200D03*
D25*
X96831400Y-168939200D03*
X96831400Y-166439200D03*
D26*
X89331400Y-174539200D03*
X89331400Y-163339200D03*
D25*
X82331400Y-171439200D03*
X82331400Y-166439200D03*
%TD*%
D24*
%TO.C,ROT2*%
X452409000Y-171439200D03*
D25*
X452409000Y-168939200D03*
X452409000Y-166439200D03*
D26*
X444909000Y-174539200D03*
X444909000Y-163339200D03*
D25*
X437909000Y-171439200D03*
X437909000Y-166439200D03*
%TD*%
D14*
%TO.C,USB5*%
X310845600Y-154671900D03*
X305065600Y-154671900D03*
D19*
X303635600Y-155201900D03*
X312275600Y-155201900D03*
D20*
X303635600Y-151021900D03*
X312275600Y-151021900D03*
%TD*%
D27*
%TO.C,OL1*%
X445265700Y-238745200D03*
X445265700Y-236205200D03*
X445265700Y-233665200D03*
X445265700Y-231125200D03*
%TD*%
D11*
%TO.C,MX1*%
X115245400Y-163184400D03*
X108895400Y-165724400D03*
D12*
X117785400Y-168264400D03*
X107625400Y-168264400D03*
D13*
X112705400Y-168264400D03*
%TD*%
D11*
%TO.C,MX2*%
X153343000Y-163184400D03*
X146993000Y-165724400D03*
D12*
X155883000Y-168264400D03*
X145723000Y-168264400D03*
D13*
X150803000Y-168264400D03*
%TD*%
D11*
%TO.C,MX3*%
X172391800Y-163184400D03*
X166041800Y-165724400D03*
D12*
X174931800Y-168264400D03*
X164771800Y-168264400D03*
D13*
X169851800Y-168264400D03*
%TD*%
D11*
%TO.C,MX4*%
X191440600Y-163184400D03*
X185090600Y-165724400D03*
D12*
X193980600Y-168264400D03*
X183820600Y-168264400D03*
D13*
X188900600Y-168264400D03*
%TD*%
D11*
%TO.C,MX5*%
X210489400Y-163184400D03*
X204139400Y-165724400D03*
D12*
X213029400Y-168264400D03*
X202869400Y-168264400D03*
D13*
X207949400Y-168264400D03*
%TD*%
D11*
%TO.C,MX8*%
X277160200Y-163184400D03*
X270810200Y-165724400D03*
D12*
X279700200Y-168264400D03*
X269540200Y-168264400D03*
D13*
X274620200Y-168264400D03*
%TD*%
D11*
%TO.C,MX9*%
X296209000Y-163184400D03*
X289859000Y-165724400D03*
D12*
X298749000Y-168264400D03*
X288589000Y-168264400D03*
D13*
X293669000Y-168264400D03*
%TD*%
D11*
%TO.C,MX10*%
X324782200Y-163184400D03*
X318432200Y-165724400D03*
D12*
X327322200Y-168264400D03*
X317162200Y-168264400D03*
D13*
X322242200Y-168264400D03*
%TD*%
D11*
%TO.C,MX11*%
X343831000Y-163184400D03*
X337481000Y-165724400D03*
D12*
X346371000Y-168264400D03*
X336211000Y-168264400D03*
D13*
X341291000Y-168264400D03*
%TD*%
D11*
%TO.C,MX12*%
X362879800Y-163184400D03*
X356529800Y-165724400D03*
D12*
X365419800Y-168264400D03*
X355259800Y-168264400D03*
D13*
X360339800Y-168264400D03*
%TD*%
D11*
%TO.C,MX13*%
X381928600Y-163184400D03*
X375578600Y-165724400D03*
D12*
X384468600Y-168264400D03*
X374308600Y-168264400D03*
D13*
X379388600Y-168264400D03*
%TD*%
D11*
%TO.C,MX14*%
X410501800Y-163184400D03*
X404151800Y-165724400D03*
D12*
X413041800Y-168264400D03*
X402881800Y-168264400D03*
D13*
X407961800Y-168264400D03*
%TD*%
D11*
%TO.C,MX15*%
X91434400Y-191757600D03*
X85084400Y-194297600D03*
D12*
X93974400Y-196837600D03*
X83814400Y-196837600D03*
D13*
X88894400Y-196837600D03*
%TD*%
D11*
%TO.C,MX16*%
X115245400Y-191757600D03*
X108895400Y-194297600D03*
D12*
X117785400Y-196837600D03*
X107625400Y-196837600D03*
D13*
X112705400Y-196837600D03*
%TD*%
D11*
%TO.C,MX17*%
X134294200Y-191757600D03*
X127944200Y-194297600D03*
D12*
X136834200Y-196837600D03*
X126674200Y-196837600D03*
D13*
X131754200Y-196837600D03*
%TD*%
D11*
%TO.C,MX18*%
X153343000Y-191757600D03*
X146993000Y-194297600D03*
D12*
X155883000Y-196837600D03*
X145723000Y-196837600D03*
D13*
X150803000Y-196837600D03*
%TD*%
D11*
%TO.C,MX20*%
X191440600Y-191757600D03*
X185090600Y-194297600D03*
D12*
X193980600Y-196837600D03*
X183820600Y-196837600D03*
D13*
X188900600Y-196837600D03*
%TD*%
D11*
%TO.C,MX21*%
X210489400Y-191757600D03*
X204139400Y-194297600D03*
D12*
X213029400Y-196837600D03*
X202869400Y-196837600D03*
D13*
X207949400Y-196837600D03*
%TD*%
D11*
%TO.C,MX22*%
X229538200Y-191757600D03*
X223188200Y-194297600D03*
D12*
X232078200Y-196837600D03*
X221918200Y-196837600D03*
D13*
X226998200Y-196837600D03*
%TD*%
D11*
%TO.C,MX23*%
X248587000Y-191757600D03*
X242237000Y-194297600D03*
D12*
X251127000Y-196837600D03*
X240967000Y-196837600D03*
D13*
X246047000Y-196837600D03*
%TD*%
D11*
%TO.C,MX24*%
X267635800Y-191757600D03*
X261285800Y-194297600D03*
D12*
X270175800Y-196837600D03*
X260015800Y-196837600D03*
D13*
X265095800Y-196837600D03*
%TD*%
D11*
%TO.C,MX25*%
X286684600Y-191757600D03*
X280334600Y-194297600D03*
D12*
X289224600Y-196837600D03*
X279064600Y-196837600D03*
D13*
X284144600Y-196837600D03*
%TD*%
D11*
%TO.C,MX26*%
X305733400Y-191757600D03*
X299383400Y-194297600D03*
D12*
X308273400Y-196837600D03*
X298113400Y-196837600D03*
D13*
X303193400Y-196837600D03*
%TD*%
D11*
%TO.C,MX27*%
X324782200Y-191757600D03*
X318432200Y-194297600D03*
D12*
X327322200Y-196837600D03*
X317162200Y-196837600D03*
D13*
X322242200Y-196837600D03*
%TD*%
D11*
%TO.C,MX28*%
X343831000Y-191757600D03*
X337481000Y-194297600D03*
D12*
X346371000Y-196837600D03*
X336211000Y-196837600D03*
D13*
X341291000Y-196837600D03*
%TD*%
D21*
%TO.C,MX29*%
X381802200Y-189852600D03*
D22*
X381802200Y-205092600D03*
X357926200Y-205092600D03*
D21*
X357926200Y-189852600D03*
D11*
X372404200Y-191757600D03*
X366054200Y-194297600D03*
D12*
X374944200Y-196837600D03*
X364784200Y-196837600D03*
D13*
X369864200Y-196837600D03*
%TD*%
D11*
%TO.C,MX30*%
X410501800Y-191757600D03*
X404151800Y-194297600D03*
D12*
X413041800Y-196837600D03*
X402881800Y-196837600D03*
D13*
X407961800Y-196837600D03*
%TD*%
D11*
%TO.C,MX31*%
X429550600Y-191757600D03*
X423200600Y-194297600D03*
D12*
X432090600Y-196837600D03*
X421930600Y-196837600D03*
D13*
X427010600Y-196837600D03*
%TD*%
D11*
%TO.C,MX33*%
X91434400Y-210806400D03*
X85084400Y-213346400D03*
D12*
X93974400Y-215886400D03*
X83814400Y-215886400D03*
D13*
X88894400Y-215886400D03*
%TD*%
D11*
%TO.C,MX34*%
X120007600Y-210806400D03*
X113657600Y-213346400D03*
D12*
X122547600Y-215886400D03*
X112387600Y-215886400D03*
D13*
X117467600Y-215886400D03*
%TD*%
D11*
%TO.C,MX35*%
X143818600Y-210806400D03*
X137468600Y-213346400D03*
D12*
X146358600Y-215886400D03*
X136198600Y-215886400D03*
D13*
X141278600Y-215886400D03*
%TD*%
D11*
%TO.C,MX36*%
X162867400Y-210806400D03*
X156517400Y-213346400D03*
D12*
X165407400Y-215886400D03*
X155247400Y-215886400D03*
D13*
X160327400Y-215886400D03*
%TD*%
D11*
%TO.C,MX37*%
X181916200Y-210806400D03*
X175566200Y-213346400D03*
D12*
X184456200Y-215886400D03*
X174296200Y-215886400D03*
D13*
X179376200Y-215886400D03*
%TD*%
D11*
%TO.C,MX38*%
X200965000Y-210806400D03*
X194615000Y-213346400D03*
D12*
X203505000Y-215886400D03*
X193345000Y-215886400D03*
D13*
X198425000Y-215886400D03*
%TD*%
D11*
%TO.C,MX39*%
X220013800Y-210806400D03*
X213663800Y-213346400D03*
D12*
X222553800Y-215886400D03*
X212393800Y-215886400D03*
D13*
X217473800Y-215886400D03*
%TD*%
D11*
%TO.C,MX40*%
X239062600Y-210806400D03*
X232712600Y-213346400D03*
D12*
X241602600Y-215886400D03*
X231442600Y-215886400D03*
D13*
X236522600Y-215886400D03*
%TD*%
D11*
%TO.C,MX41*%
X258111400Y-210806400D03*
X251761400Y-213346400D03*
D12*
X260651400Y-215886400D03*
X250491400Y-215886400D03*
D13*
X255571400Y-215886400D03*
%TD*%
D11*
%TO.C,MX42*%
X277160200Y-210806400D03*
X270810200Y-213346400D03*
D12*
X279700200Y-215886400D03*
X269540200Y-215886400D03*
D13*
X274620200Y-215886400D03*
%TD*%
D11*
%TO.C,MX43*%
X296209000Y-210806400D03*
X289859000Y-213346400D03*
D12*
X298749000Y-215886400D03*
X288589000Y-215886400D03*
D13*
X293669000Y-215886400D03*
%TD*%
D11*
%TO.C,MX45*%
X334306600Y-210806400D03*
X327956600Y-213346400D03*
D12*
X336846600Y-215886400D03*
X326686600Y-215886400D03*
D13*
X331766600Y-215886400D03*
%TD*%
D11*
%TO.C,MX46*%
X353355400Y-210806400D03*
X347005400Y-213346400D03*
D12*
X355895400Y-215886400D03*
X345735400Y-215886400D03*
D13*
X350815400Y-215886400D03*
%TD*%
D11*
%TO.C,MX48*%
X410501800Y-210806400D03*
X404151800Y-213346400D03*
D12*
X413041800Y-215886400D03*
X402881800Y-215886400D03*
D13*
X407961800Y-215886400D03*
%TD*%
D11*
%TO.C,MX49*%
X429550600Y-210806400D03*
X423200600Y-213346400D03*
D12*
X432090600Y-215886400D03*
X421930600Y-215886400D03*
D13*
X427010600Y-215886400D03*
%TD*%
D11*
%TO.C,MX51*%
X91434400Y-229855200D03*
X85084400Y-232395200D03*
D12*
X93974400Y-234935200D03*
X83814400Y-234935200D03*
D13*
X88894400Y-234935200D03*
%TD*%
D11*
%TO.C,MX52*%
X122388700Y-229855200D03*
X116038700Y-232395200D03*
D12*
X124928700Y-234935200D03*
X114768700Y-234935200D03*
D13*
X119848700Y-234935200D03*
%TD*%
D11*
%TO.C,MX53*%
X148522500Y-229855200D03*
X142172500Y-232395200D03*
D12*
X151062500Y-234935200D03*
X140902500Y-234935200D03*
D13*
X145982500Y-234935200D03*
%TD*%
D11*
%TO.C,MX54*%
X167629600Y-229855200D03*
X161279600Y-232395200D03*
D12*
X170169600Y-234935200D03*
X160009600Y-234935200D03*
D13*
X165089600Y-234935200D03*
%TD*%
D11*
%TO.C,MX55*%
X186678400Y-229855200D03*
X180328400Y-232395200D03*
D12*
X189218400Y-234935200D03*
X179058400Y-234935200D03*
D13*
X184138400Y-234935200D03*
%TD*%
D11*
%TO.C,MX56*%
X205727200Y-229855200D03*
X199377200Y-232395200D03*
D12*
X208267200Y-234935200D03*
X198107200Y-234935200D03*
D13*
X203187200Y-234935200D03*
%TD*%
D11*
%TO.C,MX57*%
X224776000Y-229855200D03*
X218426000Y-232395200D03*
D12*
X227316000Y-234935200D03*
X217156000Y-234935200D03*
D13*
X222236000Y-234935200D03*
%TD*%
D11*
%TO.C,MX59*%
X262873600Y-229855200D03*
X256523600Y-232395200D03*
D12*
X265413600Y-234935200D03*
X255253600Y-234935200D03*
D13*
X260333600Y-234935200D03*
%TD*%
D11*
%TO.C,MX60*%
X281922400Y-229855200D03*
X275572400Y-232395200D03*
D12*
X284462400Y-234935200D03*
X274302400Y-234935200D03*
D13*
X279382400Y-234935200D03*
%TD*%
D11*
%TO.C,MX61*%
X300971200Y-229855200D03*
X294621200Y-232395200D03*
D12*
X303511200Y-234935200D03*
X293351200Y-234935200D03*
D13*
X298431200Y-234935200D03*
%TD*%
D11*
%TO.C,MX63*%
X339068800Y-229855200D03*
X332718800Y-232395200D03*
D12*
X341608800Y-234935200D03*
X331448800Y-234935200D03*
D13*
X336528800Y-234935200D03*
%TD*%
D11*
%TO.C,MX65*%
X91434400Y-248904000D03*
X85084400Y-251444000D03*
D12*
X93974400Y-253984000D03*
X83814400Y-253984000D03*
D13*
X88894400Y-253984000D03*
%TD*%
D21*
%TO.C,MX66*%
X136548900Y-246999000D03*
X112672900Y-246999000D03*
D22*
X136548900Y-262239000D03*
X112672900Y-262239000D03*
D11*
X127150900Y-248904000D03*
X120800900Y-251444000D03*
D12*
X129690900Y-253984000D03*
X119530900Y-253984000D03*
D13*
X124610900Y-253984000D03*
%TD*%
D11*
%TO.C,MX67*%
X158105200Y-248904000D03*
X151755200Y-251444000D03*
D12*
X160645200Y-253984000D03*
X150485200Y-253984000D03*
D13*
X155565200Y-253984000D03*
%TD*%
D11*
%TO.C,MX68*%
X177154000Y-248904000D03*
X170804000Y-251444000D03*
D12*
X179694000Y-253984000D03*
X169534000Y-253984000D03*
D13*
X174614000Y-253984000D03*
%TD*%
D11*
%TO.C,MX69*%
X196202800Y-248904000D03*
X189852800Y-251444000D03*
D12*
X198742800Y-253984000D03*
X188582800Y-253984000D03*
D13*
X193662800Y-253984000D03*
%TD*%
D11*
%TO.C,MX70*%
X215251600Y-248904000D03*
X208901600Y-251444000D03*
D12*
X217791600Y-253984000D03*
X207631600Y-253984000D03*
D13*
X212711600Y-253984000D03*
%TD*%
D11*
%TO.C,MX71*%
X234300400Y-248904000D03*
X227950400Y-251444000D03*
D12*
X236840400Y-253984000D03*
X226680400Y-253984000D03*
D13*
X231760400Y-253984000D03*
%TD*%
D11*
%TO.C,MX72*%
X253349200Y-248904000D03*
X246999200Y-251444000D03*
D12*
X255889200Y-253984000D03*
X245729200Y-253984000D03*
D13*
X250809200Y-253984000D03*
%TD*%
D11*
%TO.C,MX73*%
X272398000Y-248904000D03*
X266048000Y-251444000D03*
D12*
X274938000Y-253984000D03*
X264778000Y-253984000D03*
D13*
X269858000Y-253984000D03*
%TD*%
D11*
%TO.C,MX74*%
X291446800Y-248904000D03*
X285096800Y-251444000D03*
D12*
X293986800Y-253984000D03*
X283826800Y-253984000D03*
D13*
X288906800Y-253984000D03*
%TD*%
D11*
%TO.C,MX75*%
X310495600Y-248904000D03*
X304145600Y-251444000D03*
D12*
X313035600Y-253984000D03*
X302875600Y-253984000D03*
D13*
X307955600Y-253984000D03*
%TD*%
D11*
%TO.C,MX76*%
X329544400Y-248904000D03*
X323194400Y-251444000D03*
D12*
X332084400Y-253984000D03*
X321924400Y-253984000D03*
D13*
X327004400Y-253984000D03*
%TD*%
%TO.C,MX77*%
X362720900Y-253984000D03*
D12*
X357640900Y-253984000D03*
X367800900Y-253984000D03*
D11*
X358910900Y-251444000D03*
X365260900Y-248904000D03*
D22*
X350814650Y-262239000D03*
X374690650Y-262239000D03*
D21*
X350814650Y-246999000D03*
X374690650Y-246999000D03*
%TD*%
D11*
%TO.C,MX79*%
X91434400Y-267952800D03*
X85084400Y-270492800D03*
D12*
X93974400Y-273032800D03*
X83814400Y-273032800D03*
D13*
X88894400Y-273032800D03*
%TD*%
D11*
%TO.C,MX80*%
X117626500Y-267952800D03*
X111276500Y-270492800D03*
D12*
X120166500Y-273032800D03*
X110006500Y-273032800D03*
D13*
X115086500Y-273032800D03*
%TD*%
D11*
%TO.C,MX81*%
X141437500Y-267952800D03*
X135087500Y-270492800D03*
D12*
X143977500Y-273032800D03*
X133817500Y-273032800D03*
D13*
X138897500Y-273032800D03*
%TD*%
D11*
%TO.C,MX82*%
X165248500Y-267952800D03*
X158898500Y-270492800D03*
D12*
X167788500Y-273032800D03*
X157628500Y-273032800D03*
D13*
X162708500Y-273032800D03*
%TD*%
D11*
%TO.C,MX85*%
X331925500Y-267952800D03*
X325575500Y-270492800D03*
D12*
X334465500Y-273032800D03*
X324305500Y-273032800D03*
D13*
X329385500Y-273032800D03*
%TD*%
D11*
%TO.C,MX86*%
X355736500Y-267952800D03*
X349386500Y-270492800D03*
D12*
X358276500Y-273032800D03*
X348116500Y-273032800D03*
D13*
X353196500Y-273032800D03*
%TD*%
D11*
%TO.C,MX89*%
X429550600Y-267952800D03*
X423200600Y-270492800D03*
D12*
X432090600Y-273032800D03*
X421930600Y-273032800D03*
D13*
X427010600Y-273032800D03*
%TD*%
D21*
%TO.C,MX64*%
X379421100Y-227950200D03*
X355545100Y-227950200D03*
D22*
X379421100Y-243190200D03*
X355545100Y-243190200D03*
D11*
X370023100Y-229855200D03*
X363673100Y-232395200D03*
D12*
X372563100Y-234935200D03*
X362403100Y-234935200D03*
D13*
X367483100Y-234935200D03*
%TD*%
D11*
%TO.C,MX47*%
X377166400Y-210806400D03*
X370816400Y-213346400D03*
D12*
X379706400Y-215886400D03*
X369546400Y-215886400D03*
D13*
X374626400Y-215886400D03*
%TD*%
D11*
%TO.C,MX44*%
X315257800Y-210806400D03*
X308907800Y-213346400D03*
D12*
X317797800Y-215886400D03*
X307637800Y-215886400D03*
D13*
X312717800Y-215886400D03*
%TD*%
D28*
%TO.C,H1*%
X79370000Y-158740000D03*
%TD*%
%TO.C,H2*%
X79370000Y-282557200D03*
%TD*%
%TO.C,H3*%
X455583800Y-158740000D03*
%TD*%
%TO.C,H4*%
X455583800Y-282557200D03*
%TD*%
D11*
%TO.C,MX88*%
X410501800Y-267952800D03*
X404151800Y-270492800D03*
D12*
X413041800Y-273032800D03*
X402881800Y-273032800D03*
D13*
X407961800Y-273032800D03*
%TD*%
D11*
%TO.C,MX87*%
X379547500Y-267952800D03*
X373197500Y-270492800D03*
D12*
X382087500Y-273032800D03*
X371927500Y-273032800D03*
D13*
X377007500Y-273032800D03*
%TD*%
D11*
%TO.C,MX50*%
X448599400Y-210806400D03*
X442249400Y-213346400D03*
D12*
X451139400Y-215886400D03*
X440979400Y-215886400D03*
D13*
X446059400Y-215886400D03*
%TD*%
D11*
%TO.C,MX90*%
X448599400Y-267952800D03*
X442249400Y-270492800D03*
D12*
X451139400Y-273032800D03*
X440979400Y-273032800D03*
D13*
X446059400Y-273032800D03*
%TD*%
D11*
%TO.C,MX58*%
X243824800Y-229855200D03*
X237474800Y-232395200D03*
D12*
X246364800Y-234935200D03*
X236204800Y-234935200D03*
D13*
X241284800Y-234935200D03*
%TD*%
D11*
%TO.C,MX62*%
X320020000Y-229855200D03*
X313670000Y-232395200D03*
D12*
X322560000Y-234935200D03*
X312400000Y-234935200D03*
D13*
X317480000Y-234935200D03*
%TD*%
D29*
X141675450Y-239300550D03*
X387722450Y-223426550D03*
X387722450Y-216680100D03*
X387722450Y-208346250D03*
X387722450Y-198028150D03*
X241284800Y-259936750D03*
X260333600Y-259936750D03*
X348434300Y-277001300D03*
X324623300Y-277001300D03*
X300018600Y-277795000D03*
X383357100Y-221442300D03*
X265492650Y-258349350D03*
X241681650Y-254777700D03*
X260730450Y-254777700D03*
X266683200Y-255968250D03*
X99212500Y-173026600D03*
X275413900Y-267476900D03*
X399231100Y-198425000D03*
X399231100Y-208346250D03*
X306765050Y-170248650D03*
X309146150Y-170248650D03*
X306765050Y-173423450D03*
X309146150Y-173423450D03*
X435741300Y-264302100D03*
X439709800Y-264302100D03*
X383357100Y-254777700D03*
X386531900Y-260730450D03*
X389706700Y-260730450D03*
X422248400Y-173423450D03*
X223426550Y-177391950D03*
X221045450Y-170248650D03*
X223426550Y-170248650D03*
X389706700Y-255571400D03*
X221045450Y-177391950D03*
X385738200Y-251602900D03*
X265095800Y-264302100D03*
X242872200Y-280969800D03*
X246047000Y-280969800D03*
X174614000Y-278588700D03*
X282557200Y-260333600D03*
X365102000Y-263508400D03*
X442884600Y-261127300D03*
X440503500Y-250809200D03*
X430979100Y-251602900D03*
X83338500Y-222236000D03*
X396850000Y-179376200D03*
X317480000Y-271445400D03*
X341291000Y-271445400D03*
X296050100Y-267476900D03*
X269064300Y-270651700D03*
X265889500Y-274620200D03*
X146040800Y-259936750D03*
X117467600Y-260333600D03*
X361530350Y-241284800D03*
X356371300Y-235728900D03*
X83338500Y-241284800D03*
X83338500Y-260333600D03*
X83338500Y-275810750D03*
X146040800Y-264302100D03*
X126992000Y-263508400D03*
X98418800Y-260333600D03*
X98418800Y-265095800D03*
X83338500Y-203187200D03*
X89291250Y-168661250D03*
X84925900Y-263508400D03*
X84925900Y-244459600D03*
X84925900Y-225410800D03*
X84925900Y-206362000D03*
X303193400Y-179376200D03*
X284144600Y-179376200D03*
X265095800Y-179376200D03*
X246047000Y-179376200D03*
X198425000Y-179376200D03*
X179376200Y-179376200D03*
X160327400Y-179376200D03*
X141278600Y-179376200D03*
X101593600Y-163502200D03*
X203584050Y-172629750D03*
X146437650Y-172629750D03*
X358355550Y-258349350D03*
X363117750Y-239300550D03*
X422645250Y-258349350D03*
X120245550Y-258349350D03*
X107943200Y-172232900D03*
X441694050Y-277398150D03*
X422645250Y-277398150D03*
X403596450Y-277398150D03*
X158343150Y-277398150D03*
X284541450Y-258349350D03*
X303193400Y-258349350D03*
X322639050Y-258349350D03*
X371451600Y-260333600D03*
X246443850Y-258349350D03*
X227395050Y-258349350D03*
X208346250Y-258349350D03*
X189297450Y-258349350D03*
X170248650Y-258349350D03*
X151199850Y-258349350D03*
X251206050Y-220251750D03*
X246047000Y-222236000D03*
X232157250Y-220251750D03*
X226998200Y-222236000D03*
X213108450Y-220251750D03*
X207949400Y-222236000D03*
X194059650Y-220251750D03*
X188900600Y-222236000D03*
X175010850Y-220251750D03*
X169851800Y-222236000D03*
X155962050Y-220251750D03*
X150803000Y-222236000D03*
X136913250Y-220251750D03*
X131754200Y-221839150D03*
X113102250Y-220251750D03*
X86116450Y-236919450D03*
X109927450Y-240887950D03*
X115483350Y-239300550D03*
X129769950Y-240887950D03*
X360339800Y-221839150D03*
X265095800Y-222236000D03*
X270254850Y-220251750D03*
X284144600Y-222236000D03*
X289303650Y-220251750D03*
X303193400Y-222236000D03*
X308352450Y-220251750D03*
X322242200Y-222236000D03*
X327401250Y-220251750D03*
X346450050Y-220251750D03*
X341291000Y-222236000D03*
X370261050Y-220251750D03*
X421057850Y-222236000D03*
X402802750Y-219458050D03*
X422645250Y-220251750D03*
X440503500Y-222236000D03*
X441694050Y-220251750D03*
X453996400Y-206758850D03*
X453996400Y-201202950D03*
X441694050Y-201202950D03*
X439709800Y-203187200D03*
X422645250Y-201202950D03*
X420661000Y-203187200D03*
X402802750Y-201202950D03*
X146437650Y-201202950D03*
X378991750Y-203187200D03*
X365498850Y-201202950D03*
X351212250Y-202790350D03*
X336925650Y-201202950D03*
X331766600Y-202790350D03*
X317876850Y-201202950D03*
X312717800Y-202790350D03*
X298828050Y-201202950D03*
X293669000Y-202790350D03*
X279779250Y-201202950D03*
X274620200Y-202790350D03*
X260730450Y-201202950D03*
X255571400Y-202790350D03*
X241681650Y-201202950D03*
X236522600Y-202790350D03*
X222632850Y-201202950D03*
X203584050Y-201202950D03*
X217473800Y-202790350D03*
X198425000Y-202790350D03*
X184535250Y-201202950D03*
X179376200Y-202790350D03*
X165486450Y-201202950D03*
X160327400Y-202790350D03*
X141278600Y-202790350D03*
X127388850Y-201202950D03*
X122229800Y-202790350D03*
X86116450Y-199218700D03*
X108340050Y-201202950D03*
X388913000Y-174217150D03*
X403596450Y-172629750D03*
X375023250Y-172629750D03*
X198425000Y-174614000D03*
X184535250Y-172629750D03*
X179376200Y-174614000D03*
X165486450Y-172629750D03*
X160327400Y-174614000D03*
X335338250Y-174614000D03*
X317876850Y-172629750D03*
X353990200Y-174614000D03*
X336925650Y-172629750D03*
X373435850Y-174614000D03*
X355974450Y-172629750D03*
X284144600Y-174614000D03*
X289303650Y-172629750D03*
X265095800Y-174614000D03*
X270254850Y-172629750D03*
X251206050Y-172629750D03*
X232157250Y-172629750D03*
X246047000Y-174614000D03*
X86116450Y-275413900D03*
X110721150Y-277398150D03*
X134532150Y-277398150D03*
X377007500Y-250809200D03*
X373832700Y-254777700D03*
X86116450Y-256365100D03*
X160724250Y-239300550D03*
X179773050Y-239300550D03*
X198821850Y-239300550D03*
X217870650Y-239300550D03*
X236919450Y-239300550D03*
X255968250Y-239300550D03*
X275017050Y-239300550D03*
X294065850Y-239300550D03*
X313114650Y-239300550D03*
X332163450Y-239300550D03*
X397643700Y-247237550D03*
X440503500Y-279779250D03*
X417486200Y-278985550D03*
X388913000Y-278985550D03*
X365102000Y-278985550D03*
X341291000Y-278985550D03*
X317480000Y-278985550D03*
X150803000Y-278985550D03*
X126992000Y-278985550D03*
X98418800Y-278985550D03*
X98418800Y-202790350D03*
X98418800Y-221839150D03*
X346053200Y-240887950D03*
X327004400Y-240887950D03*
X307955600Y-240887950D03*
X288906800Y-240887950D03*
X269858000Y-240887950D03*
X250809200Y-240887950D03*
X231760400Y-240887950D03*
X212711600Y-240887950D03*
X193662800Y-240887950D03*
X174614000Y-240887950D03*
X155565200Y-240887950D03*
X136516400Y-240887950D03*
X98418800Y-240887950D03*
X133738450Y-259539900D03*
X165089600Y-259936750D03*
X338909900Y-259936750D03*
X317876850Y-259936750D03*
X298828050Y-259936750D03*
X222236000Y-259936750D03*
X203187200Y-259936750D03*
X184138400Y-259936750D03*
X257158800Y-280969800D03*
X246047000Y-158740000D03*
X284144600Y-158740000D03*
X160327400Y-158740000D03*
X198425000Y-158740000D03*
X331766600Y-158740000D03*
X369864200Y-158740000D03*
X398437400Y-158740000D03*
X437328700Y-176201400D03*
X384944500Y-203980900D03*
X231760400Y-267476900D03*
X233347800Y-269858000D03*
X357165000Y-260333600D03*
X100799900Y-188106900D03*
X106355800Y-188106900D03*
X100799900Y-183344700D03*
X106355800Y-183344700D03*
X395262600Y-238110000D03*
X226204500Y-273826500D03*
X382960250Y-232157250D03*
X392881500Y-255571400D03*
X230173000Y-174614000D03*
X398834250Y-216680100D03*
X398834250Y-223426550D03*
X394468900Y-247634400D03*
X412724000Y-230173000D03*
X421454700Y-233347800D03*
X411930300Y-240491100D03*
X402405900Y-245253300D03*
X417486200Y-245253300D03*
X421454700Y-245253300D03*
X425423200Y-245253300D03*
X415105100Y-250809200D03*
X440503500Y-227791900D03*
X433360200Y-228585600D03*
X263508400Y-268270600D03*
X288906800Y-282557200D03*
X442090900Y-283350900D03*
X79370000Y-186519500D03*
X80213900Y-179326000D03*
X303987100Y-157946300D03*
X406374400Y-239697400D03*
X203187200Y-278588700D03*
X434153900Y-186519500D03*
X440503500Y-186519500D03*
X440503500Y-181757300D03*
X434153900Y-181757300D03*
X302399700Y-274620200D03*
X447646800Y-234935200D03*
X447646800Y-231760400D03*
X435741300Y-260333600D03*
X439709800Y-260333600D03*
X386531900Y-265095800D03*
X228585600Y-277795000D03*
X243665900Y-277001300D03*
X363514600Y-203187200D03*
X98418800Y-185725800D03*
X372245300Y-277001300D03*
X131754200Y-165883300D03*
X87307000Y-189694300D03*
X427010600Y-165883300D03*
X422248400Y-162708500D03*
X456377500Y-178582500D03*
X300812300Y-280044800D03*
X274620200Y-282557200D03*
X289700500Y-272239100D03*
X278588700Y-277795000D03*
X124610900Y-169851800D03*
X124610900Y-173820300D03*
X138897500Y-169851800D03*
X138897500Y-173820300D03*
X261921000Y-277001300D03*
X245253300Y-273032800D03*
X227791900Y-157946300D03*
X317480000Y-155565200D03*
X448440500Y-155565200D03*
X128579400Y-173820300D03*
X397643700Y-231760400D03*
X401612200Y-230173000D03*
X392881500Y-235728900D03*
X399627950Y-244459600D03*
X399627950Y-228982450D03*
X390103550Y-231363550D03*
X411930300Y-226204500D03*
X427804300Y-230173000D03*
X419873937Y-226984667D03*
X413633503Y-227114003D03*
X434947600Y-236522600D03*
X129769950Y-157946300D03*
X133738450Y-157946300D03*
X425026350Y-157946300D03*
X428994850Y-157946300D03*
X222236000Y-151596700D03*
X220648600Y-150803000D03*
X223823400Y-150803000D03*
X306368200Y-150803000D03*
X309543000Y-150803000D03*
X427010600Y-157152600D03*
X463520800Y-180963600D03*
X463520800Y-184138400D03*
X71433000Y-184138400D03*
X71433000Y-180963600D03*
X455583800Y-255571400D03*
X455583800Y-252396600D03*
X462727100Y-182551000D03*
X307955600Y-151596700D03*
X131754200Y-157152600D03*
X72226700Y-182551000D03*
X456377500Y-253984000D03*
X257158800Y-269858000D03*
X123817200Y-191281700D03*
X133341600Y-210330500D03*
X138103800Y-229379300D03*
X147628200Y-248428100D03*
X130960500Y-267476900D03*
X272239100Y-280176100D03*
X107149500Y-267476900D03*
X116673900Y-248428100D03*
X111911700Y-229379300D03*
X109530600Y-210330500D03*
X104768400Y-191281700D03*
X104768400Y-162708500D03*
X271445400Y-280969800D03*
X166677000Y-248428100D03*
X157152600Y-229379300D03*
X152390400Y-210330500D03*
X142866000Y-191281700D03*
X142866000Y-162708500D03*
X276207600Y-276207600D03*
X158740000Y-264302100D03*
X100799900Y-219061200D03*
X384944500Y-217473800D03*
X400024800Y-217473800D03*
X267476900Y-281763500D03*
X393675200Y-257158800D03*
X375420100Y-257158800D03*
X99609350Y-257158800D03*
X269064300Y-283350900D03*
X421454700Y-171439200D03*
X101593600Y-171439200D03*
X226998200Y-171439200D03*
X217473800Y-171439200D03*
X432566500Y-171439200D03*
X265746005Y-279827289D03*
X123817200Y-171439200D03*
X139691200Y-171439200D03*
X303193400Y-171439200D03*
X312717800Y-171439200D03*
X100006200Y-238110000D03*
X268270600Y-282557200D03*
X175407700Y-276207600D03*
X99212500Y-276207600D03*
X269858000Y-282557200D03*
X292875300Y-268270600D03*
X226998200Y-277001300D03*
X415105100Y-172232900D03*
X384944500Y-187313200D03*
X400024800Y-206362000D03*
X385738200Y-206362000D03*
X384150800Y-224617100D03*
X399978484Y-221488616D03*
X80957400Y-210330500D03*
X80957400Y-229379300D03*
X80957400Y-248428100D03*
X80957400Y-267476900D03*
X80957400Y-196837600D03*
X273032800Y-283350900D03*
X161914800Y-162708500D03*
X161914800Y-191281700D03*
X171439200Y-210330500D03*
X176201400Y-229379300D03*
X185725800Y-248428100D03*
X260449403Y-270535897D03*
X204774600Y-248428100D03*
X195250200Y-229379300D03*
X190488000Y-210330500D03*
X180963600Y-191281700D03*
X180963600Y-162708500D03*
X261156511Y-269828789D03*
X223823400Y-248428100D03*
X214299000Y-229379300D03*
X209536800Y-210330500D03*
X200012400Y-191281700D03*
X200012400Y-162708500D03*
X261150436Y-268797409D03*
X225807650Y-265095800D03*
X242872200Y-248428100D03*
X233347800Y-229379300D03*
X228585600Y-210330500D03*
X219061200Y-191281700D03*
X228585600Y-162708500D03*
X264302100Y-266683200D03*
X261921000Y-248428100D03*
X252396600Y-229379300D03*
X247634400Y-210330500D03*
X238110000Y-191281700D03*
X247634400Y-162708500D03*
X265095800Y-265889500D03*
X279382400Y-271445400D03*
X280176100Y-270651700D03*
X292083395Y-282555405D03*
X439709800Y-169058100D03*
X104768400Y-159533700D03*
X281982454Y-269845349D03*
X98418800Y-161121100D03*
X278588700Y-268270600D03*
X387594300Y-261921000D03*
X388644300Y-261921000D03*
X398774800Y-230850500D03*
X397378150Y-224747865D03*
X398774800Y-229800500D03*
X398428150Y-224747865D03*
X389834850Y-223146153D03*
X382563400Y-236791300D03*
X388784850Y-223146153D03*
X382563400Y-237841300D03*
X386160668Y-239326168D03*
X391819100Y-221953260D03*
X386903132Y-240068632D03*
X390769100Y-221953260D03*
X245650150Y-276207600D03*
X436535000Y-190488000D03*
X436535000Y-209536800D03*
X436535000Y-266683200D03*
X283005990Y-269843579D03*
X419073600Y-267476900D03*
X419073600Y-210330500D03*
X419073600Y-191281700D03*
X419073600Y-253984000D03*
X284144600Y-269858000D03*
X220648600Y-273826500D03*
X259539900Y-275485740D03*
X100799900Y-200012400D03*
X400024800Y-200012400D03*
X383357100Y-200012400D03*
X265889500Y-280969800D03*
X280969800Y-248428100D03*
X271445400Y-229379300D03*
X266683200Y-210330500D03*
X257158800Y-191281700D03*
X266683200Y-162708500D03*
X266520600Y-264139500D03*
X285732000Y-162708500D03*
X276207600Y-191281700D03*
X285732000Y-210330500D03*
X290494200Y-229379300D03*
X300018600Y-248428100D03*
X300018600Y-263508400D03*
X319067400Y-248428100D03*
X309543000Y-229379300D03*
X304780800Y-210330500D03*
X295256400Y-191281700D03*
X314305200Y-162708500D03*
X319067400Y-263508400D03*
X268835313Y-264287988D03*
X333354000Y-162708500D03*
X314305200Y-191281700D03*
X323829600Y-210330500D03*
X328591800Y-229379300D03*
X269850499Y-264298107D03*
X342878400Y-210330500D03*
X333354000Y-191281700D03*
X352402800Y-162708500D03*
X342878400Y-264302100D03*
X270854277Y-264319634D03*
X354783900Y-248428100D03*
X359546100Y-229379300D03*
X361927200Y-191281700D03*
X366689400Y-210330500D03*
X371451600Y-162708500D03*
X369070500Y-267476900D03*
X271875621Y-264323595D03*
X400818500Y-162708500D03*
X400818500Y-191281700D03*
X400818500Y-210330500D03*
X400818500Y-267476900D03*
X285144603Y-269858000D03*
X442090900Y-168264400D03*
X280969800Y-269858000D03*
X98418800Y-174614000D03*
X278588700Y-269905103D03*
X123817200Y-172439203D03*
X139691200Y-172439203D03*
X226998200Y-172439203D03*
X217473800Y-172439203D03*
X303193400Y-172439203D03*
X312717800Y-172439203D03*
X400024800Y-202393500D03*
X383357100Y-202393500D03*
X400024800Y-218473803D03*
X384944500Y-218473803D03*
X373039000Y-258349350D03*
X399231100Y-258539897D03*
X175407700Y-277207603D03*
X226204500Y-277795000D03*
X457964900Y-240491100D03*
X449234200Y-240491100D03*
X212711600Y-279238460D03*
X272239100Y-278588700D03*
X280969800Y-277001300D03*
X400024800Y-204774600D03*
X377007500Y-204774600D03*
X217473800Y-176201400D03*
X226998200Y-176201400D03*
X393675200Y-223029700D03*
X377801200Y-259539900D03*
X386531900Y-219854900D03*
X400024800Y-219854900D03*
X399231100Y-259539900D03*
X392925200Y-237272600D03*
X399231100Y-280176100D03*
X78576300Y-184932100D03*
X280969800Y-273826500D03*
X96831400Y-185725800D03*
X101593600Y-180963600D03*
X103974700Y-176201400D03*
X103974700Y-157946300D03*
X434153900Y-166677000D03*
X319067400Y-155565200D03*
X301606000Y-157946300D03*
X77782600Y-191281700D03*
M02*
