%FSLAX45Y45*%
G04 Gerber Fmt 4.5, Leading zero omitted, Abs format (unit mm)*
G04 Created by KiCad (PCBNEW (5.1.10)-1) date 2021-10-23 23:06:07*
%MOMM*%
%LPD*%
G01*
G04 APERTURE LIST*
%TA.AperFunction,Profile*%
%ADD10C,0.100000*%
%TD*%
%ADD11C,0.200000*%
%ADD12C,0.300000*%
G04 APERTURE END LIST*
D10*
X6984560Y-18810690D02*
X7222670Y-18810690D01*
X7460780Y-28255720D02*
X7460780Y-19048800D01*
X7460780Y-15874000D02*
X7460780Y-17461400D01*
X7222670Y-17699510D02*
X6984560Y-17699510D01*
X7460780Y-17461400D02*
G75*
G02*
X7222670Y-17699510I-238110J0D01*
G01*
X7222670Y-18810690D02*
G75*
G02*
X7460780Y-19048800I0J-238110D01*
G01*
X31351150Y-15159670D02*
X31351150Y-14921560D01*
X30239970Y-15159670D02*
X30239970Y-14921560D01*
X31589260Y-15397780D02*
X45558380Y-15397780D01*
X23017300Y-15397780D02*
X30001860Y-15397780D01*
X30239970Y-15159670D02*
G75*
G02*
X30001860Y-15397780I-238110J0D01*
G01*
X31589260Y-15397780D02*
G75*
G02*
X31351150Y-15159670I0J238110D01*
G01*
X22779190Y-14921560D02*
X22779190Y-15159670D01*
X21668010Y-14921560D02*
X22779190Y-14921560D01*
X21668010Y-15159670D02*
X21668010Y-14921560D01*
X7937000Y-15397780D02*
X21429900Y-15397780D01*
X21668010Y-15159670D02*
G75*
G02*
X21429900Y-15397780I-238110J0D01*
G01*
X23017300Y-15397780D02*
G75*
G02*
X22779190Y-15159670I0J238110D01*
G01*
X46510820Y-17699510D02*
X46272710Y-17699510D01*
X46510820Y-18810690D02*
X46510820Y-17699510D01*
X46272710Y-18810690D02*
X46510820Y-18810690D01*
X46034600Y-19048800D02*
G75*
G02*
X46272710Y-18810690I238110J0D01*
G01*
X46272710Y-17699510D02*
G75*
G02*
X46034600Y-17461400I0J238110D01*
G01*
X46034600Y-17461400D02*
X46034600Y-15874000D01*
X46034600Y-28255720D02*
X46034600Y-19048800D01*
X6984560Y-17699510D02*
X6984560Y-18810690D01*
X31351150Y-14921560D02*
X30239970Y-14921560D01*
X7937000Y-28731940D02*
X45558380Y-28731940D01*
X46034600Y-28255720D02*
G75*
G02*
X45558380Y-28731940I-476220J0D01*
G01*
X45558380Y-15397780D02*
G75*
G02*
X46034600Y-15874000I0J-476220D01*
G01*
X7460780Y-15874000D02*
G75*
G02*
X7937000Y-15397780I476220J0D01*
G01*
X7937000Y-28731940D02*
G75*
G02*
X7460780Y-28255720I0J476220D01*
G01*
D11*
X7497690Y-17933600D02*
X7562690Y-17998600D01*
X7562690Y-17933600D02*
X7497690Y-17998600D01*
X7497690Y-18511600D02*
X7562690Y-18576600D01*
X7562690Y-18511600D02*
X7497690Y-18576600D01*
X21902100Y-15434690D02*
X21967100Y-15499690D01*
X21967100Y-15434690D02*
X21902100Y-15499690D01*
X22480100Y-15434690D02*
X22545100Y-15499690D01*
X22545100Y-15434690D02*
X22480100Y-15499690D01*
X30474060Y-15434690D02*
X30539060Y-15499690D01*
X30539060Y-15434690D02*
X30474060Y-15499690D01*
X31052060Y-15434690D02*
X31117060Y-15499690D01*
X31117060Y-15434690D02*
X31052060Y-15499690D01*
X45932690Y-17933600D02*
X45997690Y-17998600D01*
X45997690Y-17933600D02*
X45932690Y-17998600D01*
X45932690Y-18511600D02*
X45997690Y-18576600D01*
X45997690Y-18511600D02*
X45932690Y-18576600D01*
X8468940Y-19683760D02*
G75*
G03*
X8468940Y-19683760I-87500J0D01*
G01*
X8468940Y-21588640D02*
G75*
G03*
X8468940Y-21588640I-87500J0D01*
G01*
X8468940Y-23493520D02*
G75*
G03*
X8468940Y-23493520I-87500J0D01*
G01*
X8468940Y-25398400D02*
G75*
G03*
X8468940Y-25398400I-87500J0D01*
G01*
X8468940Y-27303280D02*
G75*
G03*
X8468940Y-27303280I-87500J0D01*
G01*
X9484940Y-19683760D02*
G75*
G03*
X9484940Y-19683760I-87500J0D01*
G01*
X9484940Y-21588640D02*
G75*
G03*
X9484940Y-21588640I-87500J0D01*
G01*
X9484940Y-23493520D02*
G75*
G03*
X9484940Y-23493520I-87500J0D01*
G01*
X9484940Y-25398400D02*
G75*
G03*
X9484940Y-25398400I-87500J0D01*
G01*
X9484940Y-27303280D02*
G75*
G03*
X9484940Y-27303280I-87500J0D01*
G01*
X10850040Y-16826440D02*
G75*
G03*
X10850040Y-16826440I-87500J0D01*
G01*
X10850040Y-19683760D02*
G75*
G03*
X10850040Y-19683760I-87500J0D01*
G01*
X11088150Y-27303280D02*
G75*
G03*
X11088150Y-27303280I-87500J0D01*
G01*
X11326260Y-21588640D02*
G75*
G03*
X11326260Y-21588640I-87500J0D01*
G01*
X11564370Y-23493520D02*
G75*
G03*
X11564370Y-23493520I-87500J0D01*
G01*
X11866040Y-16826440D02*
G75*
G03*
X11866040Y-16826440I-87500J0D01*
G01*
X11866040Y-19683760D02*
G75*
G03*
X11866040Y-19683760I-87500J0D01*
G01*
X12040590Y-25398400D02*
G75*
G03*
X12040590Y-25398400I-87500J0D01*
G01*
X12104150Y-27303280D02*
G75*
G03*
X12104150Y-27303280I-87500J0D01*
G01*
X12342260Y-21588640D02*
G75*
G03*
X12342260Y-21588640I-87500J0D01*
G01*
X12580370Y-23493520D02*
G75*
G03*
X12580370Y-23493520I-87500J0D01*
G01*
X12754920Y-19683760D02*
G75*
G03*
X12754920Y-19683760I-87500J0D01*
G01*
X13056590Y-25398400D02*
G75*
G03*
X13056590Y-25398400I-87500J0D01*
G01*
X13469250Y-27303280D02*
G75*
G03*
X13469250Y-27303280I-87500J0D01*
G01*
X13707360Y-21588640D02*
G75*
G03*
X13707360Y-21588640I-87500J0D01*
G01*
X13770920Y-19683760D02*
G75*
G03*
X13770920Y-19683760I-87500J0D01*
G01*
X14177750Y-23493520D02*
G75*
G03*
X14177750Y-23493520I-87500J0D01*
G01*
X14485250Y-27303280D02*
G75*
G03*
X14485250Y-27303280I-87500J0D01*
G01*
X14659800Y-16826440D02*
G75*
G03*
X14659800Y-16826440I-87500J0D01*
G01*
X14659800Y-19683760D02*
G75*
G03*
X14659800Y-19683760I-87500J0D01*
G01*
X14723360Y-21588640D02*
G75*
G03*
X14723360Y-21588640I-87500J0D01*
G01*
X15136020Y-25398400D02*
G75*
G03*
X15136020Y-25398400I-87500J0D01*
G01*
X15193750Y-23493520D02*
G75*
G03*
X15193750Y-23493520I-87500J0D01*
G01*
X15612240Y-21588640D02*
G75*
G03*
X15612240Y-21588640I-87500J0D01*
G01*
X15675800Y-16826440D02*
G75*
G03*
X15675800Y-16826440I-87500J0D01*
G01*
X15675800Y-19683760D02*
G75*
G03*
X15675800Y-19683760I-87500J0D01*
G01*
X15850350Y-27303280D02*
G75*
G03*
X15850350Y-27303280I-87500J0D01*
G01*
X16088460Y-23493520D02*
G75*
G03*
X16088460Y-23493520I-87500J0D01*
G01*
X16152020Y-25398400D02*
G75*
G03*
X16152020Y-25398400I-87500J0D01*
G01*
X16564680Y-16826440D02*
G75*
G03*
X16564680Y-16826440I-87500J0D01*
G01*
X16564680Y-19683760D02*
G75*
G03*
X16564680Y-19683760I-87500J0D01*
G01*
X16628240Y-21588640D02*
G75*
G03*
X16628240Y-21588640I-87500J0D01*
G01*
X16866350Y-27303280D02*
G75*
G03*
X16866350Y-27303280I-87500J0D01*
G01*
X17040900Y-25398400D02*
G75*
G03*
X17040900Y-25398400I-87500J0D01*
G01*
X17104460Y-23493520D02*
G75*
G03*
X17104460Y-23493520I-87500J0D01*
G01*
X17517120Y-21588640D02*
G75*
G03*
X17517120Y-21588640I-87500J0D01*
G01*
X17580680Y-16826440D02*
G75*
G03*
X17580680Y-16826440I-87500J0D01*
G01*
X17580680Y-19683760D02*
G75*
G03*
X17580680Y-19683760I-87500J0D01*
G01*
X17993340Y-23493520D02*
G75*
G03*
X17993340Y-23493520I-87500J0D01*
G01*
X18056900Y-25398400D02*
G75*
G03*
X18056900Y-25398400I-87500J0D01*
G01*
X18469560Y-16826440D02*
G75*
G03*
X18469560Y-16826440I-87500J0D01*
G01*
X18469560Y-19683760D02*
G75*
G03*
X18469560Y-19683760I-87500J0D01*
G01*
X18533120Y-21588640D02*
G75*
G03*
X18533120Y-21588640I-87500J0D01*
G01*
X18945780Y-25398400D02*
G75*
G03*
X18945780Y-25398400I-87500J0D01*
G01*
X19009340Y-23493520D02*
G75*
G03*
X19009340Y-23493520I-87500J0D01*
G01*
X19422000Y-21588640D02*
G75*
G03*
X19422000Y-21588640I-87500J0D01*
G01*
X19485560Y-16826440D02*
G75*
G03*
X19485560Y-16826440I-87500J0D01*
G01*
X19485560Y-19683760D02*
G75*
G03*
X19485560Y-19683760I-87500J0D01*
G01*
X19898220Y-23493520D02*
G75*
G03*
X19898220Y-23493520I-87500J0D01*
G01*
X19961780Y-25398400D02*
G75*
G03*
X19961780Y-25398400I-87500J0D01*
G01*
X20374440Y-16826440D02*
G75*
G03*
X20374440Y-16826440I-87500J0D01*
G01*
X20374440Y-19683760D02*
G75*
G03*
X20374440Y-19683760I-87500J0D01*
G01*
X20438000Y-21588640D02*
G75*
G03*
X20438000Y-21588640I-87500J0D01*
G01*
X20850660Y-25398400D02*
G75*
G03*
X20850660Y-25398400I-87500J0D01*
G01*
X20914220Y-23493520D02*
G75*
G03*
X20914220Y-23493520I-87500J0D01*
G01*
X21326880Y-21588640D02*
G75*
G03*
X21326880Y-21588640I-87500J0D01*
G01*
X21390440Y-16826440D02*
G75*
G03*
X21390440Y-16826440I-87500J0D01*
G01*
X21390440Y-19683760D02*
G75*
G03*
X21390440Y-19683760I-87500J0D01*
G01*
X21803100Y-23493520D02*
G75*
G03*
X21803100Y-23493520I-87500J0D01*
G01*
X21866660Y-25398400D02*
G75*
G03*
X21866660Y-25398400I-87500J0D01*
G01*
X22279320Y-19683760D02*
G75*
G03*
X22279320Y-19683760I-87500J0D01*
G01*
X22342880Y-21588640D02*
G75*
G03*
X22342880Y-21588640I-87500J0D01*
G01*
X22755540Y-25398400D02*
G75*
G03*
X22755540Y-25398400I-87500J0D01*
G01*
X22819100Y-23493520D02*
G75*
G03*
X22819100Y-23493520I-87500J0D01*
G01*
X22993650Y-27303280D02*
G75*
G03*
X22993650Y-27303280I-87500J0D01*
G01*
X23231760Y-16826440D02*
G75*
G03*
X23231760Y-16826440I-87500J0D01*
G01*
X23231760Y-21588640D02*
G75*
G03*
X23231760Y-21588640I-87500J0D01*
G01*
X23295320Y-19683760D02*
G75*
G03*
X23295320Y-19683760I-87500J0D01*
G01*
X23707980Y-23493520D02*
G75*
G03*
X23707980Y-23493520I-87500J0D01*
G01*
X23771540Y-25398400D02*
G75*
G03*
X23771540Y-25398400I-87500J0D01*
G01*
X24009650Y-27303280D02*
G75*
G03*
X24009650Y-27303280I-87500J0D01*
G01*
X24184200Y-19683760D02*
G75*
G03*
X24184200Y-19683760I-87500J0D01*
G01*
X24247760Y-16826440D02*
G75*
G03*
X24247760Y-16826440I-87500J0D01*
G01*
X24247760Y-21588640D02*
G75*
G03*
X24247760Y-21588640I-87500J0D01*
G01*
X24660420Y-25398400D02*
G75*
G03*
X24660420Y-25398400I-87500J0D01*
G01*
X24723980Y-23493520D02*
G75*
G03*
X24723980Y-23493520I-87500J0D01*
G01*
X25136640Y-16826440D02*
G75*
G03*
X25136640Y-16826440I-87500J0D01*
G01*
X25136640Y-21588640D02*
G75*
G03*
X25136640Y-21588640I-87500J0D01*
G01*
X25200200Y-19683760D02*
G75*
G03*
X25200200Y-19683760I-87500J0D01*
G01*
X25612860Y-23493520D02*
G75*
G03*
X25612860Y-23493520I-87500J0D01*
G01*
X25676420Y-25398400D02*
G75*
G03*
X25676420Y-25398400I-87500J0D01*
G01*
X26089080Y-19683760D02*
G75*
G03*
X26089080Y-19683760I-87500J0D01*
G01*
X26152640Y-16826440D02*
G75*
G03*
X26152640Y-16826440I-87500J0D01*
G01*
X26152640Y-21588640D02*
G75*
G03*
X26152640Y-21588640I-87500J0D01*
G01*
X26565300Y-25398400D02*
G75*
G03*
X26565300Y-25398400I-87500J0D01*
G01*
X26628860Y-23493520D02*
G75*
G03*
X26628860Y-23493520I-87500J0D01*
G01*
X27041520Y-16826440D02*
G75*
G03*
X27041520Y-16826440I-87500J0D01*
G01*
X27041520Y-21588640D02*
G75*
G03*
X27041520Y-21588640I-87500J0D01*
G01*
X27105080Y-19683760D02*
G75*
G03*
X27105080Y-19683760I-87500J0D01*
G01*
X27517740Y-23493520D02*
G75*
G03*
X27517740Y-23493520I-87500J0D01*
G01*
X27581300Y-25398400D02*
G75*
G03*
X27581300Y-25398400I-87500J0D01*
G01*
X27993960Y-19683760D02*
G75*
G03*
X27993960Y-19683760I-87500J0D01*
G01*
X28057520Y-16826440D02*
G75*
G03*
X28057520Y-16826440I-87500J0D01*
G01*
X28057520Y-21588640D02*
G75*
G03*
X28057520Y-21588640I-87500J0D01*
G01*
X28470180Y-25398400D02*
G75*
G03*
X28470180Y-25398400I-87500J0D01*
G01*
X28533740Y-23493520D02*
G75*
G03*
X28533740Y-23493520I-87500J0D01*
G01*
X28946400Y-16826440D02*
G75*
G03*
X28946400Y-16826440I-87500J0D01*
G01*
X28946400Y-21588640D02*
G75*
G03*
X28946400Y-21588640I-87500J0D01*
G01*
X29009960Y-19683760D02*
G75*
G03*
X29009960Y-19683760I-87500J0D01*
G01*
X29422620Y-23493520D02*
G75*
G03*
X29422620Y-23493520I-87500J0D01*
G01*
X29486180Y-25398400D02*
G75*
G03*
X29486180Y-25398400I-87500J0D01*
G01*
X29898840Y-19683760D02*
G75*
G03*
X29898840Y-19683760I-87500J0D01*
G01*
X29962400Y-16826440D02*
G75*
G03*
X29962400Y-16826440I-87500J0D01*
G01*
X29962400Y-21588640D02*
G75*
G03*
X29962400Y-21588640I-87500J0D01*
G01*
X30136950Y-27303280D02*
G75*
G03*
X30136950Y-27303280I-87500J0D01*
G01*
X30375060Y-25398400D02*
G75*
G03*
X30375060Y-25398400I-87500J0D01*
G01*
X30438620Y-23493520D02*
G75*
G03*
X30438620Y-23493520I-87500J0D01*
G01*
X30851280Y-21588640D02*
G75*
G03*
X30851280Y-21588640I-87500J0D01*
G01*
X30914840Y-19683760D02*
G75*
G03*
X30914840Y-19683760I-87500J0D01*
G01*
X31152950Y-27303280D02*
G75*
G03*
X31152950Y-27303280I-87500J0D01*
G01*
X31327500Y-23493520D02*
G75*
G03*
X31327500Y-23493520I-87500J0D01*
G01*
X31391060Y-25398400D02*
G75*
G03*
X31391060Y-25398400I-87500J0D01*
G01*
X31803720Y-16826440D02*
G75*
G03*
X31803720Y-16826440I-87500J0D01*
G01*
X31803720Y-19683760D02*
G75*
G03*
X31803720Y-19683760I-87500J0D01*
G01*
X31867280Y-21588640D02*
G75*
G03*
X31867280Y-21588640I-87500J0D01*
G01*
X32279940Y-25398400D02*
G75*
G03*
X32279940Y-25398400I-87500J0D01*
G01*
X32343500Y-23493520D02*
G75*
G03*
X32343500Y-23493520I-87500J0D01*
G01*
X32518050Y-27303280D02*
G75*
G03*
X32518050Y-27303280I-87500J0D01*
G01*
X32756160Y-21588640D02*
G75*
G03*
X32756160Y-21588640I-87500J0D01*
G01*
X32819720Y-16826440D02*
G75*
G03*
X32819720Y-16826440I-87500J0D01*
G01*
X32819720Y-19683760D02*
G75*
G03*
X32819720Y-19683760I-87500J0D01*
G01*
X33232380Y-23493520D02*
G75*
G03*
X33232380Y-23493520I-87500J0D01*
G01*
X33295940Y-25398400D02*
G75*
G03*
X33295940Y-25398400I-87500J0D01*
G01*
X33534050Y-27303280D02*
G75*
G03*
X33534050Y-27303280I-87500J0D01*
G01*
X33708600Y-16826440D02*
G75*
G03*
X33708600Y-16826440I-87500J0D01*
G01*
X33708600Y-19683760D02*
G75*
G03*
X33708600Y-19683760I-87500J0D01*
G01*
X33772160Y-21588640D02*
G75*
G03*
X33772160Y-21588640I-87500J0D01*
G01*
X34248380Y-23493520D02*
G75*
G03*
X34248380Y-23493520I-87500J0D01*
G01*
X34661040Y-21588640D02*
G75*
G03*
X34661040Y-21588640I-87500J0D01*
G01*
X34724600Y-16826440D02*
G75*
G03*
X34724600Y-16826440I-87500J0D01*
G01*
X34724600Y-19683760D02*
G75*
G03*
X34724600Y-19683760I-87500J0D01*
G01*
X34899150Y-27303280D02*
G75*
G03*
X34899150Y-27303280I-87500J0D01*
G01*
X35613480Y-16826440D02*
G75*
G03*
X35613480Y-16826440I-87500J0D01*
G01*
X35677040Y-21588640D02*
G75*
G03*
X35677040Y-21588640I-87500J0D01*
G01*
X35851590Y-25398400D02*
G75*
G03*
X35851590Y-25398400I-87500J0D01*
G01*
X35915150Y-27303280D02*
G75*
G03*
X35915150Y-27303280I-87500J0D01*
G01*
X36327810Y-23493520D02*
G75*
G03*
X36327810Y-23493520I-87500J0D01*
G01*
X36565920Y-19683760D02*
G75*
G03*
X36565920Y-19683760I-87500J0D01*
G01*
X36629480Y-16826440D02*
G75*
G03*
X36629480Y-16826440I-87500J0D01*
G01*
X36867590Y-25398400D02*
G75*
G03*
X36867590Y-25398400I-87500J0D01*
G01*
X37042140Y-21588640D02*
G75*
G03*
X37042140Y-21588640I-87500J0D01*
G01*
X37280250Y-27303280D02*
G75*
G03*
X37280250Y-27303280I-87500J0D01*
G01*
X37343810Y-23493520D02*
G75*
G03*
X37343810Y-23493520I-87500J0D01*
G01*
X37518360Y-16826440D02*
G75*
G03*
X37518360Y-16826440I-87500J0D01*
G01*
X37581920Y-19683760D02*
G75*
G03*
X37581920Y-19683760I-87500J0D01*
G01*
X38058140Y-21588640D02*
G75*
G03*
X38058140Y-21588640I-87500J0D01*
G01*
X38296250Y-27303280D02*
G75*
G03*
X38296250Y-27303280I-87500J0D01*
G01*
X38534360Y-16826440D02*
G75*
G03*
X38534360Y-16826440I-87500J0D01*
G01*
X40375680Y-16826440D02*
G75*
G03*
X40375680Y-16826440I-87500J0D01*
G01*
X40375680Y-19683760D02*
G75*
G03*
X40375680Y-19683760I-87500J0D01*
G01*
X40375680Y-21588640D02*
G75*
G03*
X40375680Y-21588640I-87500J0D01*
G01*
X40375680Y-27303280D02*
G75*
G03*
X40375680Y-27303280I-87500J0D01*
G01*
X41391680Y-16826440D02*
G75*
G03*
X41391680Y-16826440I-87500J0D01*
G01*
X41391680Y-19683760D02*
G75*
G03*
X41391680Y-19683760I-87500J0D01*
G01*
X41391680Y-21588640D02*
G75*
G03*
X41391680Y-21588640I-87500J0D01*
G01*
X41391680Y-27303280D02*
G75*
G03*
X41391680Y-27303280I-87500J0D01*
G01*
X42280560Y-19683760D02*
G75*
G03*
X42280560Y-19683760I-87500J0D01*
G01*
X42280560Y-21588640D02*
G75*
G03*
X42280560Y-21588640I-87500J0D01*
G01*
X42280560Y-25398400D02*
G75*
G03*
X42280560Y-25398400I-87500J0D01*
G01*
X42280560Y-27303280D02*
G75*
G03*
X42280560Y-27303280I-87500J0D01*
G01*
X43296560Y-19683760D02*
G75*
G03*
X43296560Y-19683760I-87500J0D01*
G01*
X43296560Y-21588640D02*
G75*
G03*
X43296560Y-21588640I-87500J0D01*
G01*
X43296560Y-25398400D02*
G75*
G03*
X43296560Y-25398400I-87500J0D01*
G01*
X43296560Y-27303280D02*
G75*
G03*
X43296560Y-27303280I-87500J0D01*
G01*
X44185440Y-19683760D02*
G75*
G03*
X44185440Y-19683760I-87500J0D01*
G01*
X44185440Y-21588640D02*
G75*
G03*
X44185440Y-21588640I-87500J0D01*
G01*
X44185440Y-27303280D02*
G75*
G03*
X44185440Y-27303280I-87500J0D01*
G01*
X45201440Y-19683760D02*
G75*
G03*
X45201440Y-19683760I-87500J0D01*
G01*
X45201440Y-21588640D02*
G75*
G03*
X45201440Y-21588640I-87500J0D01*
G01*
X45201440Y-27303280D02*
G75*
G03*
X45201440Y-27303280I-87500J0D01*
G01*
X8508440Y-19279760D02*
X8508440Y-19579760D01*
X8358440Y-19429760D02*
X8658440Y-19429760D01*
X8508440Y-21184640D02*
X8508440Y-21484640D01*
X8358440Y-21334640D02*
X8658440Y-21334640D01*
X8508440Y-23089520D02*
X8508440Y-23389520D01*
X8358440Y-23239520D02*
X8658440Y-23239520D01*
X8508440Y-24994400D02*
X8508440Y-25294400D01*
X8358440Y-25144400D02*
X8658440Y-25144400D01*
X8508440Y-26899280D02*
X8508440Y-27199280D01*
X8358440Y-27049280D02*
X8658440Y-27049280D01*
X9143440Y-19025760D02*
X9143440Y-19325760D01*
X8993440Y-19175760D02*
X9293440Y-19175760D01*
X9143440Y-20930640D02*
X9143440Y-21230640D01*
X8993440Y-21080640D02*
X9293440Y-21080640D01*
X9143440Y-22835520D02*
X9143440Y-23135520D01*
X8993440Y-22985520D02*
X9293440Y-22985520D01*
X9143440Y-24740400D02*
X9143440Y-25040400D01*
X8993440Y-24890400D02*
X9293440Y-24890400D01*
X9143440Y-26645280D02*
X9143440Y-26945280D01*
X8993440Y-26795280D02*
X9293440Y-26795280D01*
X10889540Y-16422440D02*
X10889540Y-16722440D01*
X10739540Y-16572440D02*
X11039540Y-16572440D01*
X10889540Y-19279760D02*
X10889540Y-19579760D01*
X10739540Y-19429760D02*
X11039540Y-19429760D01*
X11127650Y-26899280D02*
X11127650Y-27199280D01*
X10977650Y-27049280D02*
X11277650Y-27049280D01*
X11365760Y-21184640D02*
X11365760Y-21484640D01*
X11215760Y-21334640D02*
X11515760Y-21334640D01*
X11524540Y-16168440D02*
X11524540Y-16468440D01*
X11374540Y-16318440D02*
X11674540Y-16318440D01*
X11524540Y-19025760D02*
X11524540Y-19325760D01*
X11374540Y-19175760D02*
X11674540Y-19175760D01*
X11603870Y-23089520D02*
X11603870Y-23389520D01*
X11453870Y-23239520D02*
X11753870Y-23239520D01*
X11762650Y-26645280D02*
X11762650Y-26945280D01*
X11612650Y-26795280D02*
X11912650Y-26795280D01*
X12000760Y-20930640D02*
X12000760Y-21230640D01*
X11850760Y-21080640D02*
X12150760Y-21080640D01*
X12080090Y-24994400D02*
X12080090Y-25294400D01*
X11930090Y-25144400D02*
X12230090Y-25144400D01*
X12238870Y-22835520D02*
X12238870Y-23135520D01*
X12088870Y-22985520D02*
X12388870Y-22985520D01*
X12715090Y-24740400D02*
X12715090Y-25040400D01*
X12565090Y-24890400D02*
X12865090Y-24890400D01*
X12794420Y-19279760D02*
X12794420Y-19579760D01*
X12644420Y-19429760D02*
X12944420Y-19429760D01*
X13429420Y-19025760D02*
X13429420Y-19325760D01*
X13279420Y-19175760D02*
X13579420Y-19175760D01*
X13508750Y-26899280D02*
X13508750Y-27199280D01*
X13358750Y-27049280D02*
X13658750Y-27049280D01*
X13746860Y-21184640D02*
X13746860Y-21484640D01*
X13596860Y-21334640D02*
X13896860Y-21334640D01*
X14143750Y-26645280D02*
X14143750Y-26945280D01*
X13993750Y-26795280D02*
X14293750Y-26795280D01*
X14217250Y-23089520D02*
X14217250Y-23389520D01*
X14067250Y-23239520D02*
X14367250Y-23239520D01*
X14381860Y-20930640D02*
X14381860Y-21230640D01*
X14231860Y-21080640D02*
X14531860Y-21080640D01*
X14699300Y-16422440D02*
X14699300Y-16722440D01*
X14549300Y-16572440D02*
X14849300Y-16572440D01*
X14699300Y-19279760D02*
X14699300Y-19579760D01*
X14549300Y-19429760D02*
X14849300Y-19429760D01*
X14852250Y-22835520D02*
X14852250Y-23135520D01*
X14702250Y-22985520D02*
X15002250Y-22985520D01*
X15175520Y-24994400D02*
X15175520Y-25294400D01*
X15025520Y-25144400D02*
X15325520Y-25144400D01*
X15334300Y-16168440D02*
X15334300Y-16468440D01*
X15184300Y-16318440D02*
X15484300Y-16318440D01*
X15334300Y-19025760D02*
X15334300Y-19325760D01*
X15184300Y-19175760D02*
X15484300Y-19175760D01*
X15651740Y-21184640D02*
X15651740Y-21484640D01*
X15501740Y-21334640D02*
X15801740Y-21334640D01*
X15810520Y-24740400D02*
X15810520Y-25040400D01*
X15660520Y-24890400D02*
X15960520Y-24890400D01*
X15889850Y-26899280D02*
X15889850Y-27199280D01*
X15739850Y-27049280D02*
X16039850Y-27049280D01*
X16127960Y-23089520D02*
X16127960Y-23389520D01*
X15977960Y-23239520D02*
X16277960Y-23239520D01*
X16286740Y-20930640D02*
X16286740Y-21230640D01*
X16136740Y-21080640D02*
X16436740Y-21080640D01*
X16524850Y-26645280D02*
X16524850Y-26945280D01*
X16374850Y-26795280D02*
X16674850Y-26795280D01*
X16604180Y-16422440D02*
X16604180Y-16722440D01*
X16454180Y-16572440D02*
X16754180Y-16572440D01*
X16604180Y-19279760D02*
X16604180Y-19579760D01*
X16454180Y-19429760D02*
X16754180Y-19429760D01*
X16762960Y-22835520D02*
X16762960Y-23135520D01*
X16612960Y-22985520D02*
X16912960Y-22985520D01*
X17080400Y-24994400D02*
X17080400Y-25294400D01*
X16930400Y-25144400D02*
X17230400Y-25144400D01*
X17239180Y-16168440D02*
X17239180Y-16468440D01*
X17089180Y-16318440D02*
X17389180Y-16318440D01*
X17239180Y-19025760D02*
X17239180Y-19325760D01*
X17089180Y-19175760D02*
X17389180Y-19175760D01*
X17556620Y-21184640D02*
X17556620Y-21484640D01*
X17406620Y-21334640D02*
X17706620Y-21334640D01*
X17715400Y-24740400D02*
X17715400Y-25040400D01*
X17565400Y-24890400D02*
X17865400Y-24890400D01*
X18032840Y-23089520D02*
X18032840Y-23389520D01*
X17882840Y-23239520D02*
X18182840Y-23239520D01*
X18191620Y-20930640D02*
X18191620Y-21230640D01*
X18041620Y-21080640D02*
X18341620Y-21080640D01*
X18509060Y-16422440D02*
X18509060Y-16722440D01*
X18359060Y-16572440D02*
X18659060Y-16572440D01*
X18509060Y-19279760D02*
X18509060Y-19579760D01*
X18359060Y-19429760D02*
X18659060Y-19429760D01*
X18667840Y-22835520D02*
X18667840Y-23135520D01*
X18517840Y-22985520D02*
X18817840Y-22985520D01*
X18985280Y-24994400D02*
X18985280Y-25294400D01*
X18835280Y-25144400D02*
X19135280Y-25144400D01*
X19144060Y-16168440D02*
X19144060Y-16468440D01*
X18994060Y-16318440D02*
X19294060Y-16318440D01*
X19144060Y-19025760D02*
X19144060Y-19325760D01*
X18994060Y-19175760D02*
X19294060Y-19175760D01*
X19461500Y-21184640D02*
X19461500Y-21484640D01*
X19311500Y-21334640D02*
X19611500Y-21334640D01*
X19620280Y-24740400D02*
X19620280Y-25040400D01*
X19470280Y-24890400D02*
X19770280Y-24890400D01*
X19937720Y-23089520D02*
X19937720Y-23389520D01*
X19787720Y-23239520D02*
X20087720Y-23239520D01*
X20096500Y-20930640D02*
X20096500Y-21230640D01*
X19946500Y-21080640D02*
X20246500Y-21080640D01*
X20413940Y-16422440D02*
X20413940Y-16722440D01*
X20263940Y-16572440D02*
X20563940Y-16572440D01*
X20413940Y-19279760D02*
X20413940Y-19579760D01*
X20263940Y-19429760D02*
X20563940Y-19429760D01*
X20572720Y-22835520D02*
X20572720Y-23135520D01*
X20422720Y-22985520D02*
X20722720Y-22985520D01*
X20890160Y-24994400D02*
X20890160Y-25294400D01*
X20740160Y-25144400D02*
X21040160Y-25144400D01*
X21048940Y-16168440D02*
X21048940Y-16468440D01*
X20898940Y-16318440D02*
X21198940Y-16318440D01*
X21048940Y-19025760D02*
X21048940Y-19325760D01*
X20898940Y-19175760D02*
X21198940Y-19175760D01*
X21366380Y-21184640D02*
X21366380Y-21484640D01*
X21216380Y-21334640D02*
X21516380Y-21334640D01*
X21525160Y-24740400D02*
X21525160Y-25040400D01*
X21375160Y-24890400D02*
X21675160Y-24890400D01*
X21842600Y-23089520D02*
X21842600Y-23389520D01*
X21692600Y-23239520D02*
X21992600Y-23239520D01*
X22001380Y-20930640D02*
X22001380Y-21230640D01*
X21851380Y-21080640D02*
X22151380Y-21080640D01*
X22318820Y-19279760D02*
X22318820Y-19579760D01*
X22168820Y-19429760D02*
X22468820Y-19429760D01*
X22477600Y-22835520D02*
X22477600Y-23135520D01*
X22327600Y-22985520D02*
X22627600Y-22985520D01*
X22795040Y-24994400D02*
X22795040Y-25294400D01*
X22645040Y-25144400D02*
X22945040Y-25144400D01*
X22953820Y-19025760D02*
X22953820Y-19325760D01*
X22803820Y-19175760D02*
X23103820Y-19175760D01*
X23033150Y-26899280D02*
X23033150Y-27199280D01*
X22883150Y-27049280D02*
X23183150Y-27049280D01*
X23271260Y-16422440D02*
X23271260Y-16722440D01*
X23121260Y-16572440D02*
X23421260Y-16572440D01*
X23271260Y-21184640D02*
X23271260Y-21484640D01*
X23121260Y-21334640D02*
X23421260Y-21334640D01*
X23430040Y-24740400D02*
X23430040Y-25040400D01*
X23280040Y-24890400D02*
X23580040Y-24890400D01*
X23668150Y-26645280D02*
X23668150Y-26945280D01*
X23518150Y-26795280D02*
X23818150Y-26795280D01*
X23747480Y-23089520D02*
X23747480Y-23389520D01*
X23597480Y-23239520D02*
X23897480Y-23239520D01*
X23906260Y-16168440D02*
X23906260Y-16468440D01*
X23756260Y-16318440D02*
X24056260Y-16318440D01*
X23906260Y-20930640D02*
X23906260Y-21230640D01*
X23756260Y-21080640D02*
X24056260Y-21080640D01*
X24223700Y-19279760D02*
X24223700Y-19579760D01*
X24073700Y-19429760D02*
X24373700Y-19429760D01*
X24382480Y-22835520D02*
X24382480Y-23135520D01*
X24232480Y-22985520D02*
X24532480Y-22985520D01*
X24699920Y-24994400D02*
X24699920Y-25294400D01*
X24549920Y-25144400D02*
X24849920Y-25144400D01*
X24858700Y-19025760D02*
X24858700Y-19325760D01*
X24708700Y-19175760D02*
X25008700Y-19175760D01*
X25176140Y-16422440D02*
X25176140Y-16722440D01*
X25026140Y-16572440D02*
X25326140Y-16572440D01*
X25176140Y-21184640D02*
X25176140Y-21484640D01*
X25026140Y-21334640D02*
X25326140Y-21334640D01*
X25334920Y-24740400D02*
X25334920Y-25040400D01*
X25184920Y-24890400D02*
X25484920Y-24890400D01*
X25652360Y-23089520D02*
X25652360Y-23389520D01*
X25502360Y-23239520D02*
X25802360Y-23239520D01*
X25811140Y-16168440D02*
X25811140Y-16468440D01*
X25661140Y-16318440D02*
X25961140Y-16318440D01*
X25811140Y-20930640D02*
X25811140Y-21230640D01*
X25661140Y-21080640D02*
X25961140Y-21080640D01*
X26128580Y-19279760D02*
X26128580Y-19579760D01*
X25978580Y-19429760D02*
X26278580Y-19429760D01*
X26287360Y-22835520D02*
X26287360Y-23135520D01*
X26137360Y-22985520D02*
X26437360Y-22985520D01*
X26604800Y-24994400D02*
X26604800Y-25294400D01*
X26454800Y-25144400D02*
X26754800Y-25144400D01*
X26763580Y-19025760D02*
X26763580Y-19325760D01*
X26613580Y-19175760D02*
X26913580Y-19175760D01*
X27081020Y-16422440D02*
X27081020Y-16722440D01*
X26931020Y-16572440D02*
X27231020Y-16572440D01*
X27081020Y-21184640D02*
X27081020Y-21484640D01*
X26931020Y-21334640D02*
X27231020Y-21334640D01*
X27239800Y-24740400D02*
X27239800Y-25040400D01*
X27089800Y-24890400D02*
X27389800Y-24890400D01*
X27557240Y-23089520D02*
X27557240Y-23389520D01*
X27407240Y-23239520D02*
X27707240Y-23239520D01*
X27716020Y-16168440D02*
X27716020Y-16468440D01*
X27566020Y-16318440D02*
X27866020Y-16318440D01*
X27716020Y-20930640D02*
X27716020Y-21230640D01*
X27566020Y-21080640D02*
X27866020Y-21080640D01*
X28033460Y-19279760D02*
X28033460Y-19579760D01*
X27883460Y-19429760D02*
X28183460Y-19429760D01*
X28192240Y-22835520D02*
X28192240Y-23135520D01*
X28042240Y-22985520D02*
X28342240Y-22985520D01*
X28509680Y-24994400D02*
X28509680Y-25294400D01*
X28359680Y-25144400D02*
X28659680Y-25144400D01*
X28668460Y-19025760D02*
X28668460Y-19325760D01*
X28518460Y-19175760D02*
X28818460Y-19175760D01*
X28985900Y-16422440D02*
X28985900Y-16722440D01*
X28835900Y-16572440D02*
X29135900Y-16572440D01*
X28985900Y-21184640D02*
X28985900Y-21484640D01*
X28835900Y-21334640D02*
X29135900Y-21334640D01*
X29144680Y-24740400D02*
X29144680Y-25040400D01*
X28994680Y-24890400D02*
X29294680Y-24890400D01*
X29462120Y-23089520D02*
X29462120Y-23389520D01*
X29312120Y-23239520D02*
X29612120Y-23239520D01*
X29620900Y-16168440D02*
X29620900Y-16468440D01*
X29470900Y-16318440D02*
X29770900Y-16318440D01*
X29620900Y-20930640D02*
X29620900Y-21230640D01*
X29470900Y-21080640D02*
X29770900Y-21080640D01*
X29938340Y-19279760D02*
X29938340Y-19579760D01*
X29788340Y-19429760D02*
X30088340Y-19429760D01*
X30097120Y-22835520D02*
X30097120Y-23135520D01*
X29947120Y-22985520D02*
X30247120Y-22985520D01*
X30176450Y-26899280D02*
X30176450Y-27199280D01*
X30026450Y-27049280D02*
X30326450Y-27049280D01*
X30414560Y-24994400D02*
X30414560Y-25294400D01*
X30264560Y-25144400D02*
X30564560Y-25144400D01*
X30573340Y-19025760D02*
X30573340Y-19325760D01*
X30423340Y-19175760D02*
X30723340Y-19175760D01*
X30811450Y-26645280D02*
X30811450Y-26945280D01*
X30661450Y-26795280D02*
X30961450Y-26795280D01*
X30890780Y-21184640D02*
X30890780Y-21484640D01*
X30740780Y-21334640D02*
X31040780Y-21334640D01*
X31049560Y-24740400D02*
X31049560Y-25040400D01*
X30899560Y-24890400D02*
X31199560Y-24890400D01*
X31367000Y-23089520D02*
X31367000Y-23389520D01*
X31217000Y-23239520D02*
X31517000Y-23239520D01*
X31525780Y-20930640D02*
X31525780Y-21230640D01*
X31375780Y-21080640D02*
X31675780Y-21080640D01*
X31843220Y-16422440D02*
X31843220Y-16722440D01*
X31693220Y-16572440D02*
X31993220Y-16572440D01*
X31843220Y-19279760D02*
X31843220Y-19579760D01*
X31693220Y-19429760D02*
X31993220Y-19429760D01*
X32002000Y-22835520D02*
X32002000Y-23135520D01*
X31852000Y-22985520D02*
X32152000Y-22985520D01*
X32319440Y-24994400D02*
X32319440Y-25294400D01*
X32169440Y-25144400D02*
X32469440Y-25144400D01*
X32478220Y-16168440D02*
X32478220Y-16468440D01*
X32328220Y-16318440D02*
X32628220Y-16318440D01*
X32478220Y-19025760D02*
X32478220Y-19325760D01*
X32328220Y-19175760D02*
X32628220Y-19175760D01*
X32557550Y-26899280D02*
X32557550Y-27199280D01*
X32407550Y-27049280D02*
X32707550Y-27049280D01*
X32795660Y-21184640D02*
X32795660Y-21484640D01*
X32645660Y-21334640D02*
X32945660Y-21334640D01*
X32954440Y-24740400D02*
X32954440Y-25040400D01*
X32804440Y-24890400D02*
X33104440Y-24890400D01*
X33192550Y-26645280D02*
X33192550Y-26945280D01*
X33042550Y-26795280D02*
X33342550Y-26795280D01*
X33271880Y-23089520D02*
X33271880Y-23389520D01*
X33121880Y-23239520D02*
X33421880Y-23239520D01*
X33430660Y-20930640D02*
X33430660Y-21230640D01*
X33280660Y-21080640D02*
X33580660Y-21080640D01*
X33748100Y-16422440D02*
X33748100Y-16722440D01*
X33598100Y-16572440D02*
X33898100Y-16572440D01*
X33748100Y-19279760D02*
X33748100Y-19579760D01*
X33598100Y-19429760D02*
X33898100Y-19429760D01*
X33906880Y-22835520D02*
X33906880Y-23135520D01*
X33756880Y-22985520D02*
X34056880Y-22985520D01*
X34383100Y-16168440D02*
X34383100Y-16468440D01*
X34233100Y-16318440D02*
X34533100Y-16318440D01*
X34383100Y-19025760D02*
X34383100Y-19325760D01*
X34233100Y-19175760D02*
X34533100Y-19175760D01*
X34700540Y-21184640D02*
X34700540Y-21484640D01*
X34550540Y-21334640D02*
X34850540Y-21334640D01*
X34938650Y-26899280D02*
X34938650Y-27199280D01*
X34788650Y-27049280D02*
X35088650Y-27049280D01*
X35335540Y-20930640D02*
X35335540Y-21230640D01*
X35185540Y-21080640D02*
X35485540Y-21080640D01*
X35573650Y-26645280D02*
X35573650Y-26945280D01*
X35423650Y-26795280D02*
X35723650Y-26795280D01*
X35652980Y-16422440D02*
X35652980Y-16722440D01*
X35502980Y-16572440D02*
X35802980Y-16572440D01*
X35891090Y-24994400D02*
X35891090Y-25294400D01*
X35741090Y-25144400D02*
X36041090Y-25144400D01*
X36287980Y-16168440D02*
X36287980Y-16468440D01*
X36137980Y-16318440D02*
X36437980Y-16318440D01*
X36367310Y-23089520D02*
X36367310Y-23389520D01*
X36217310Y-23239520D02*
X36517310Y-23239520D01*
X36526090Y-24740400D02*
X36526090Y-25040400D01*
X36376090Y-24890400D02*
X36676090Y-24890400D01*
X36605420Y-19279760D02*
X36605420Y-19579760D01*
X36455420Y-19429760D02*
X36755420Y-19429760D01*
X37002310Y-22835520D02*
X37002310Y-23135520D01*
X36852310Y-22985520D02*
X37152310Y-22985520D01*
X37081640Y-21184640D02*
X37081640Y-21484640D01*
X36931640Y-21334640D02*
X37231640Y-21334640D01*
X37240420Y-19025760D02*
X37240420Y-19325760D01*
X37090420Y-19175760D02*
X37390420Y-19175760D01*
X37319750Y-26899280D02*
X37319750Y-27199280D01*
X37169750Y-27049280D02*
X37469750Y-27049280D01*
X37557860Y-16422440D02*
X37557860Y-16722440D01*
X37407860Y-16572440D02*
X37707860Y-16572440D01*
X37716640Y-20930640D02*
X37716640Y-21230640D01*
X37566640Y-21080640D02*
X37866640Y-21080640D01*
X37954750Y-26645280D02*
X37954750Y-26945280D01*
X37804750Y-26795280D02*
X38104750Y-26795280D01*
X38192860Y-16168440D02*
X38192860Y-16468440D01*
X38042860Y-16318440D02*
X38342860Y-16318440D01*
X40415180Y-16422440D02*
X40415180Y-16722440D01*
X40265180Y-16572440D02*
X40565180Y-16572440D01*
X40415180Y-19279760D02*
X40415180Y-19579760D01*
X40265180Y-19429760D02*
X40565180Y-19429760D01*
X40415180Y-21184640D02*
X40415180Y-21484640D01*
X40265180Y-21334640D02*
X40565180Y-21334640D01*
X40415180Y-26899280D02*
X40415180Y-27199280D01*
X40265180Y-27049280D02*
X40565180Y-27049280D01*
X41050180Y-16168440D02*
X41050180Y-16468440D01*
X40900180Y-16318440D02*
X41200180Y-16318440D01*
X41050180Y-19025760D02*
X41050180Y-19325760D01*
X40900180Y-19175760D02*
X41200180Y-19175760D01*
X41050180Y-20930640D02*
X41050180Y-21230640D01*
X40900180Y-21080640D02*
X41200180Y-21080640D01*
X41050180Y-26645280D02*
X41050180Y-26945280D01*
X40900180Y-26795280D02*
X41200180Y-26795280D01*
X42320060Y-19279760D02*
X42320060Y-19579760D01*
X42170060Y-19429760D02*
X42470060Y-19429760D01*
X42320060Y-21184640D02*
X42320060Y-21484640D01*
X42170060Y-21334640D02*
X42470060Y-21334640D01*
X42320060Y-24994400D02*
X42320060Y-25294400D01*
X42170060Y-25144400D02*
X42470060Y-25144400D01*
X42320060Y-26899280D02*
X42320060Y-27199280D01*
X42170060Y-27049280D02*
X42470060Y-27049280D01*
X42955060Y-19025760D02*
X42955060Y-19325760D01*
X42805060Y-19175760D02*
X43105060Y-19175760D01*
X42955060Y-20930640D02*
X42955060Y-21230640D01*
X42805060Y-21080640D02*
X43105060Y-21080640D01*
X42955060Y-24740400D02*
X42955060Y-25040400D01*
X42805060Y-24890400D02*
X43105060Y-24890400D01*
X42955060Y-26645280D02*
X42955060Y-26945280D01*
X42805060Y-26795280D02*
X43105060Y-26795280D01*
X44224940Y-19279760D02*
X44224940Y-19579760D01*
X44074940Y-19429760D02*
X44374940Y-19429760D01*
X44224940Y-21184640D02*
X44224940Y-21484640D01*
X44074940Y-21334640D02*
X44374940Y-21334640D01*
X44224940Y-26899280D02*
X44224940Y-27199280D01*
X44074940Y-27049280D02*
X44374940Y-27049280D01*
X44859940Y-19025760D02*
X44859940Y-19325760D01*
X44709940Y-19175760D02*
X45009940Y-19175760D01*
X44859940Y-20930640D02*
X44859940Y-21230640D01*
X44709940Y-21080640D02*
X45009940Y-21080640D01*
X44859940Y-26645280D02*
X44859940Y-26945280D01*
X44709940Y-26795280D02*
X45009940Y-26795280D01*
X11375054Y-24807664D02*
X11375054Y-24592136D01*
X11159526Y-24592136D01*
X11159526Y-24807664D01*
X11375054Y-24807664D01*
X13762654Y-24807664D02*
X13762654Y-24592136D01*
X13547126Y-24592136D01*
X13547126Y-24807664D01*
X13762654Y-24807664D01*
X18521289Y-26715084D02*
X18521289Y-26499556D01*
X18305761Y-26499556D01*
X18305761Y-26715084D01*
X18521289Y-26715084D01*
X28521269Y-26715084D02*
X28521269Y-26499556D01*
X28305741Y-26499556D01*
X28305741Y-26715084D01*
X28521269Y-26715084D01*
X35189229Y-24807664D02*
X35189229Y-24592136D01*
X34973701Y-24592136D01*
X34973701Y-24807664D01*
X35189229Y-24807664D01*
X35662274Y-22902784D02*
X35662274Y-22687256D01*
X35446746Y-22687256D01*
X35446746Y-22902784D01*
X35662274Y-22902784D01*
X35900384Y-19093024D02*
X35900384Y-18877496D01*
X35684856Y-18877496D01*
X35684856Y-19093024D01*
X35900384Y-19093024D01*
X37576829Y-24807664D02*
X37576829Y-24592136D01*
X37361301Y-24592136D01*
X37361301Y-24807664D01*
X37576829Y-24807664D01*
X38049874Y-22902784D02*
X38049874Y-22687256D01*
X37834346Y-22687256D01*
X37834346Y-22902784D01*
X38049874Y-22902784D01*
X38287984Y-19093024D02*
X38287984Y-18877496D01*
X38072456Y-18877496D01*
X38072456Y-19093024D01*
X38287984Y-19093024D01*
X11267290Y-26423290D02*
X11466680Y-26223900D01*
X11267290Y-26024510D01*
X11067900Y-26223900D01*
X11267290Y-26423290D01*
X13654890Y-26423290D02*
X13854280Y-26223900D01*
X13654890Y-26024510D01*
X13455500Y-26223900D01*
X13654890Y-26423290D01*
X18413525Y-28330710D02*
X18612915Y-28131320D01*
X18413525Y-27931930D01*
X18214135Y-28131320D01*
X18413525Y-28330710D01*
X28413505Y-28330710D02*
X28612895Y-28131320D01*
X28413505Y-27931930D01*
X28214115Y-28131320D01*
X28413505Y-28330710D01*
X35081465Y-26423290D02*
X35280855Y-26223900D01*
X35081465Y-26024510D01*
X34882075Y-26223900D01*
X35081465Y-26423290D01*
X35554510Y-24518410D02*
X35753900Y-24319020D01*
X35554510Y-24119630D01*
X35355120Y-24319020D01*
X35554510Y-24518410D01*
X35792620Y-20708650D02*
X35992010Y-20509260D01*
X35792620Y-20309870D01*
X35593230Y-20509260D01*
X35792620Y-20708650D01*
X37469065Y-26423290D02*
X37668455Y-26223900D01*
X37469065Y-26024510D01*
X37269675Y-26223900D01*
X37469065Y-26423290D01*
X37942110Y-24518410D02*
X38141500Y-24319020D01*
X37942110Y-24119630D01*
X37742720Y-24319020D01*
X37942110Y-24518410D01*
X38180220Y-20708650D02*
X38379610Y-20509260D01*
X38180220Y-20309870D01*
X37980830Y-20509260D01*
X38180220Y-20708650D01*
X8689440Y-19483760D02*
X9089440Y-19883760D01*
X9089440Y-19483760D02*
X8689440Y-19883760D01*
X9089440Y-19683760D02*
G75*
G03*
X9089440Y-19683760I-200000J0D01*
G01*
X8689440Y-21388640D02*
X9089440Y-21788640D01*
X9089440Y-21388640D02*
X8689440Y-21788640D01*
X9089440Y-21588640D02*
G75*
G03*
X9089440Y-21588640I-200000J0D01*
G01*
X8689440Y-23293520D02*
X9089440Y-23693520D01*
X9089440Y-23293520D02*
X8689440Y-23693520D01*
X9089440Y-23493520D02*
G75*
G03*
X9089440Y-23493520I-200000J0D01*
G01*
X8689440Y-25198400D02*
X9089440Y-25598400D01*
X9089440Y-25198400D02*
X8689440Y-25598400D01*
X9089440Y-25398400D02*
G75*
G03*
X9089440Y-25398400I-200000J0D01*
G01*
X8689440Y-27103280D02*
X9089440Y-27503280D01*
X9089440Y-27103280D02*
X8689440Y-27503280D01*
X9089440Y-27303280D02*
G75*
G03*
X9089440Y-27303280I-200000J0D01*
G01*
X11070540Y-16626440D02*
X11470540Y-17026440D01*
X11470540Y-16626440D02*
X11070540Y-17026440D01*
X11470540Y-16826440D02*
G75*
G03*
X11470540Y-16826440I-200000J0D01*
G01*
X11070540Y-19483760D02*
X11470540Y-19883760D01*
X11470540Y-19483760D02*
X11070540Y-19883760D01*
X11470540Y-19683760D02*
G75*
G03*
X11470540Y-19683760I-200000J0D01*
G01*
X11308650Y-27103280D02*
X11708650Y-27503280D01*
X11708650Y-27103280D02*
X11308650Y-27503280D01*
X11708650Y-27303280D02*
G75*
G03*
X11708650Y-27303280I-200000J0D01*
G01*
X11546760Y-21388640D02*
X11946760Y-21788640D01*
X11946760Y-21388640D02*
X11546760Y-21788640D01*
X11946760Y-21588640D02*
G75*
G03*
X11946760Y-21588640I-200000J0D01*
G01*
X11784870Y-23293520D02*
X12184870Y-23693520D01*
X12184870Y-23293520D02*
X11784870Y-23693520D01*
X12184870Y-23493520D02*
G75*
G03*
X12184870Y-23493520I-200000J0D01*
G01*
X12261090Y-25198400D02*
X12661090Y-25598400D01*
X12661090Y-25198400D02*
X12261090Y-25598400D01*
X12661090Y-25398400D02*
G75*
G03*
X12661090Y-25398400I-200000J0D01*
G01*
X12975420Y-19483760D02*
X13375420Y-19883760D01*
X13375420Y-19483760D02*
X12975420Y-19883760D01*
X13375420Y-19683760D02*
G75*
G03*
X13375420Y-19683760I-200000J0D01*
G01*
X13689750Y-27103280D02*
X14089750Y-27503280D01*
X14089750Y-27103280D02*
X13689750Y-27503280D01*
X14089750Y-27303280D02*
G75*
G03*
X14089750Y-27303280I-200000J0D01*
G01*
X13927860Y-21388640D02*
X14327860Y-21788640D01*
X14327860Y-21388640D02*
X13927860Y-21788640D01*
X14327860Y-21588640D02*
G75*
G03*
X14327860Y-21588640I-200000J0D01*
G01*
X14398250Y-23293520D02*
X14798250Y-23693520D01*
X14798250Y-23293520D02*
X14398250Y-23693520D01*
X14798250Y-23493520D02*
G75*
G03*
X14798250Y-23493520I-200000J0D01*
G01*
X14880300Y-16626440D02*
X15280300Y-17026440D01*
X15280300Y-16626440D02*
X14880300Y-17026440D01*
X15280300Y-16826440D02*
G75*
G03*
X15280300Y-16826440I-200000J0D01*
G01*
X14880300Y-19483760D02*
X15280300Y-19883760D01*
X15280300Y-19483760D02*
X14880300Y-19883760D01*
X15280300Y-19683760D02*
G75*
G03*
X15280300Y-19683760I-200000J0D01*
G01*
X15356520Y-25198400D02*
X15756520Y-25598400D01*
X15756520Y-25198400D02*
X15356520Y-25598400D01*
X15756520Y-25398400D02*
G75*
G03*
X15756520Y-25398400I-200000J0D01*
G01*
X15832740Y-21388640D02*
X16232740Y-21788640D01*
X16232740Y-21388640D02*
X15832740Y-21788640D01*
X16232740Y-21588640D02*
G75*
G03*
X16232740Y-21588640I-200000J0D01*
G01*
X16070850Y-27103280D02*
X16470850Y-27503280D01*
X16470850Y-27103280D02*
X16070850Y-27503280D01*
X16470850Y-27303280D02*
G75*
G03*
X16470850Y-27303280I-200000J0D01*
G01*
X16308960Y-23293520D02*
X16708960Y-23693520D01*
X16708960Y-23293520D02*
X16308960Y-23693520D01*
X16708960Y-23493520D02*
G75*
G03*
X16708960Y-23493520I-200000J0D01*
G01*
X16785180Y-16626440D02*
X17185180Y-17026440D01*
X17185180Y-16626440D02*
X16785180Y-17026440D01*
X17185180Y-16826440D02*
G75*
G03*
X17185180Y-16826440I-200000J0D01*
G01*
X16785180Y-19483760D02*
X17185180Y-19883760D01*
X17185180Y-19483760D02*
X16785180Y-19883760D01*
X17185180Y-19683760D02*
G75*
G03*
X17185180Y-19683760I-200000J0D01*
G01*
X17261400Y-25198400D02*
X17661400Y-25598400D01*
X17661400Y-25198400D02*
X17261400Y-25598400D01*
X17661400Y-25398400D02*
G75*
G03*
X17661400Y-25398400I-200000J0D01*
G01*
X17737620Y-21388640D02*
X18137620Y-21788640D01*
X18137620Y-21388640D02*
X17737620Y-21788640D01*
X18137620Y-21588640D02*
G75*
G03*
X18137620Y-21588640I-200000J0D01*
G01*
X18213840Y-23293520D02*
X18613840Y-23693520D01*
X18613840Y-23293520D02*
X18213840Y-23693520D01*
X18613840Y-23493520D02*
G75*
G03*
X18613840Y-23493520I-200000J0D01*
G01*
X18690060Y-16626440D02*
X19090060Y-17026440D01*
X19090060Y-16626440D02*
X18690060Y-17026440D01*
X19090060Y-16826440D02*
G75*
G03*
X19090060Y-16826440I-200000J0D01*
G01*
X18690060Y-19483760D02*
X19090060Y-19883760D01*
X19090060Y-19483760D02*
X18690060Y-19883760D01*
X19090060Y-19683760D02*
G75*
G03*
X19090060Y-19683760I-200000J0D01*
G01*
X19166280Y-25198400D02*
X19566280Y-25598400D01*
X19566280Y-25198400D02*
X19166280Y-25598400D01*
X19566280Y-25398400D02*
G75*
G03*
X19566280Y-25398400I-200000J0D01*
G01*
X19642500Y-21388640D02*
X20042500Y-21788640D01*
X20042500Y-21388640D02*
X19642500Y-21788640D01*
X20042500Y-21588640D02*
G75*
G03*
X20042500Y-21588640I-200000J0D01*
G01*
X20118720Y-23293520D02*
X20518720Y-23693520D01*
X20518720Y-23293520D02*
X20118720Y-23693520D01*
X20518720Y-23493520D02*
G75*
G03*
X20518720Y-23493520I-200000J0D01*
G01*
X20594940Y-16626440D02*
X20994940Y-17026440D01*
X20994940Y-16626440D02*
X20594940Y-17026440D01*
X20994940Y-16826440D02*
G75*
G03*
X20994940Y-16826440I-200000J0D01*
G01*
X20594940Y-19483760D02*
X20994940Y-19883760D01*
X20994940Y-19483760D02*
X20594940Y-19883760D01*
X20994940Y-19683760D02*
G75*
G03*
X20994940Y-19683760I-200000J0D01*
G01*
X21071160Y-25198400D02*
X21471160Y-25598400D01*
X21471160Y-25198400D02*
X21071160Y-25598400D01*
X21471160Y-25398400D02*
G75*
G03*
X21471160Y-25398400I-200000J0D01*
G01*
X21547380Y-21388640D02*
X21947380Y-21788640D01*
X21947380Y-21388640D02*
X21547380Y-21788640D01*
X21947380Y-21588640D02*
G75*
G03*
X21947380Y-21588640I-200000J0D01*
G01*
X22023600Y-23293520D02*
X22423600Y-23693520D01*
X22423600Y-23293520D02*
X22023600Y-23693520D01*
X22423600Y-23493520D02*
G75*
G03*
X22423600Y-23493520I-200000J0D01*
G01*
X22499820Y-19483760D02*
X22899820Y-19883760D01*
X22899820Y-19483760D02*
X22499820Y-19883760D01*
X22899820Y-19683760D02*
G75*
G03*
X22899820Y-19683760I-200000J0D01*
G01*
X22976040Y-25198400D02*
X23376040Y-25598400D01*
X23376040Y-25198400D02*
X22976040Y-25598400D01*
X23376040Y-25398400D02*
G75*
G03*
X23376040Y-25398400I-200000J0D01*
G01*
X23214150Y-27103280D02*
X23614150Y-27503280D01*
X23614150Y-27103280D02*
X23214150Y-27503280D01*
X23614150Y-27303280D02*
G75*
G03*
X23614150Y-27303280I-200000J0D01*
G01*
X23452260Y-16626440D02*
X23852260Y-17026440D01*
X23852260Y-16626440D02*
X23452260Y-17026440D01*
X23852260Y-16826440D02*
G75*
G03*
X23852260Y-16826440I-200000J0D01*
G01*
X23452260Y-21388640D02*
X23852260Y-21788640D01*
X23852260Y-21388640D02*
X23452260Y-21788640D01*
X23852260Y-21588640D02*
G75*
G03*
X23852260Y-21588640I-200000J0D01*
G01*
X23928480Y-23293520D02*
X24328480Y-23693520D01*
X24328480Y-23293520D02*
X23928480Y-23693520D01*
X24328480Y-23493520D02*
G75*
G03*
X24328480Y-23493520I-200000J0D01*
G01*
X24404700Y-19483760D02*
X24804700Y-19883760D01*
X24804700Y-19483760D02*
X24404700Y-19883760D01*
X24804700Y-19683760D02*
G75*
G03*
X24804700Y-19683760I-200000J0D01*
G01*
X24880920Y-25198400D02*
X25280920Y-25598400D01*
X25280920Y-25198400D02*
X24880920Y-25598400D01*
X25280920Y-25398400D02*
G75*
G03*
X25280920Y-25398400I-200000J0D01*
G01*
X25357140Y-16626440D02*
X25757140Y-17026440D01*
X25757140Y-16626440D02*
X25357140Y-17026440D01*
X25757140Y-16826440D02*
G75*
G03*
X25757140Y-16826440I-200000J0D01*
G01*
X25357140Y-21388640D02*
X25757140Y-21788640D01*
X25757140Y-21388640D02*
X25357140Y-21788640D01*
X25757140Y-21588640D02*
G75*
G03*
X25757140Y-21588640I-200000J0D01*
G01*
X25833360Y-23293520D02*
X26233360Y-23693520D01*
X26233360Y-23293520D02*
X25833360Y-23693520D01*
X26233360Y-23493520D02*
G75*
G03*
X26233360Y-23493520I-200000J0D01*
G01*
X26309580Y-19483760D02*
X26709580Y-19883760D01*
X26709580Y-19483760D02*
X26309580Y-19883760D01*
X26709580Y-19683760D02*
G75*
G03*
X26709580Y-19683760I-200000J0D01*
G01*
X26785800Y-25198400D02*
X27185800Y-25598400D01*
X27185800Y-25198400D02*
X26785800Y-25598400D01*
X27185800Y-25398400D02*
G75*
G03*
X27185800Y-25398400I-200000J0D01*
G01*
X27262020Y-16626440D02*
X27662020Y-17026440D01*
X27662020Y-16626440D02*
X27262020Y-17026440D01*
X27662020Y-16826440D02*
G75*
G03*
X27662020Y-16826440I-200000J0D01*
G01*
X27262020Y-21388640D02*
X27662020Y-21788640D01*
X27662020Y-21388640D02*
X27262020Y-21788640D01*
X27662020Y-21588640D02*
G75*
G03*
X27662020Y-21588640I-200000J0D01*
G01*
X27738240Y-23293520D02*
X28138240Y-23693520D01*
X28138240Y-23293520D02*
X27738240Y-23693520D01*
X28138240Y-23493520D02*
G75*
G03*
X28138240Y-23493520I-200000J0D01*
G01*
X28214460Y-19483760D02*
X28614460Y-19883760D01*
X28614460Y-19483760D02*
X28214460Y-19883760D01*
X28614460Y-19683760D02*
G75*
G03*
X28614460Y-19683760I-200000J0D01*
G01*
X28690680Y-25198400D02*
X29090680Y-25598400D01*
X29090680Y-25198400D02*
X28690680Y-25598400D01*
X29090680Y-25398400D02*
G75*
G03*
X29090680Y-25398400I-200000J0D01*
G01*
X29166900Y-16626440D02*
X29566900Y-17026440D01*
X29566900Y-16626440D02*
X29166900Y-17026440D01*
X29566900Y-16826440D02*
G75*
G03*
X29566900Y-16826440I-200000J0D01*
G01*
X29166900Y-21388640D02*
X29566900Y-21788640D01*
X29566900Y-21388640D02*
X29166900Y-21788640D01*
X29566900Y-21588640D02*
G75*
G03*
X29566900Y-21588640I-200000J0D01*
G01*
X29643120Y-23293520D02*
X30043120Y-23693520D01*
X30043120Y-23293520D02*
X29643120Y-23693520D01*
X30043120Y-23493520D02*
G75*
G03*
X30043120Y-23493520I-200000J0D01*
G01*
X30119340Y-19483760D02*
X30519340Y-19883760D01*
X30519340Y-19483760D02*
X30119340Y-19883760D01*
X30519340Y-19683760D02*
G75*
G03*
X30519340Y-19683760I-200000J0D01*
G01*
X30357450Y-27103280D02*
X30757450Y-27503280D01*
X30757450Y-27103280D02*
X30357450Y-27503280D01*
X30757450Y-27303280D02*
G75*
G03*
X30757450Y-27303280I-200000J0D01*
G01*
X30595560Y-25198400D02*
X30995560Y-25598400D01*
X30995560Y-25198400D02*
X30595560Y-25598400D01*
X30995560Y-25398400D02*
G75*
G03*
X30995560Y-25398400I-200000J0D01*
G01*
X31071780Y-21388640D02*
X31471780Y-21788640D01*
X31471780Y-21388640D02*
X31071780Y-21788640D01*
X31471780Y-21588640D02*
G75*
G03*
X31471780Y-21588640I-200000J0D01*
G01*
X31548000Y-23293520D02*
X31948000Y-23693520D01*
X31948000Y-23293520D02*
X31548000Y-23693520D01*
X31948000Y-23493520D02*
G75*
G03*
X31948000Y-23493520I-200000J0D01*
G01*
X32024220Y-16626440D02*
X32424220Y-17026440D01*
X32424220Y-16626440D02*
X32024220Y-17026440D01*
X32424220Y-16826440D02*
G75*
G03*
X32424220Y-16826440I-200000J0D01*
G01*
X32024220Y-19483760D02*
X32424220Y-19883760D01*
X32424220Y-19483760D02*
X32024220Y-19883760D01*
X32424220Y-19683760D02*
G75*
G03*
X32424220Y-19683760I-200000J0D01*
G01*
X32500440Y-25198400D02*
X32900440Y-25598400D01*
X32900440Y-25198400D02*
X32500440Y-25598400D01*
X32900440Y-25398400D02*
G75*
G03*
X32900440Y-25398400I-200000J0D01*
G01*
X32738550Y-27103280D02*
X33138550Y-27503280D01*
X33138550Y-27103280D02*
X32738550Y-27503280D01*
X33138550Y-27303280D02*
G75*
G03*
X33138550Y-27303280I-200000J0D01*
G01*
X32976660Y-21388640D02*
X33376660Y-21788640D01*
X33376660Y-21388640D02*
X32976660Y-21788640D01*
X33376660Y-21588640D02*
G75*
G03*
X33376660Y-21588640I-200000J0D01*
G01*
X33452880Y-23293520D02*
X33852880Y-23693520D01*
X33852880Y-23293520D02*
X33452880Y-23693520D01*
X33852880Y-23493520D02*
G75*
G03*
X33852880Y-23493520I-200000J0D01*
G01*
X33929100Y-16626440D02*
X34329100Y-17026440D01*
X34329100Y-16626440D02*
X33929100Y-17026440D01*
X34329100Y-16826440D02*
G75*
G03*
X34329100Y-16826440I-200000J0D01*
G01*
X33929100Y-19483760D02*
X34329100Y-19883760D01*
X34329100Y-19483760D02*
X33929100Y-19883760D01*
X34329100Y-19683760D02*
G75*
G03*
X34329100Y-19683760I-200000J0D01*
G01*
X34881540Y-21388640D02*
X35281540Y-21788640D01*
X35281540Y-21388640D02*
X34881540Y-21788640D01*
X35281540Y-21588640D02*
G75*
G03*
X35281540Y-21588640I-200000J0D01*
G01*
X35119650Y-27103280D02*
X35519650Y-27503280D01*
X35519650Y-27103280D02*
X35119650Y-27503280D01*
X35519650Y-27303280D02*
G75*
G03*
X35519650Y-27303280I-200000J0D01*
G01*
X35833980Y-16626440D02*
X36233980Y-17026440D01*
X36233980Y-16626440D02*
X35833980Y-17026440D01*
X36233980Y-16826440D02*
G75*
G03*
X36233980Y-16826440I-200000J0D01*
G01*
X36072090Y-25198400D02*
X36472090Y-25598400D01*
X36472090Y-25198400D02*
X36072090Y-25598400D01*
X36472090Y-25398400D02*
G75*
G03*
X36472090Y-25398400I-200000J0D01*
G01*
X36548310Y-23293520D02*
X36948310Y-23693520D01*
X36948310Y-23293520D02*
X36548310Y-23693520D01*
X36948310Y-23493520D02*
G75*
G03*
X36948310Y-23493520I-200000J0D01*
G01*
X36786420Y-19483760D02*
X37186420Y-19883760D01*
X37186420Y-19483760D02*
X36786420Y-19883760D01*
X37186420Y-19683760D02*
G75*
G03*
X37186420Y-19683760I-200000J0D01*
G01*
X37262640Y-21388640D02*
X37662640Y-21788640D01*
X37662640Y-21388640D02*
X37262640Y-21788640D01*
X37662640Y-21588640D02*
G75*
G03*
X37662640Y-21588640I-200000J0D01*
G01*
X37500750Y-27103280D02*
X37900750Y-27503280D01*
X37900750Y-27103280D02*
X37500750Y-27503280D01*
X37900750Y-27303280D02*
G75*
G03*
X37900750Y-27303280I-200000J0D01*
G01*
X37738860Y-16626440D02*
X38138860Y-17026440D01*
X38138860Y-16626440D02*
X37738860Y-17026440D01*
X38138860Y-16826440D02*
G75*
G03*
X38138860Y-16826440I-200000J0D01*
G01*
X40596180Y-16626440D02*
X40996180Y-17026440D01*
X40996180Y-16626440D02*
X40596180Y-17026440D01*
X40996180Y-16826440D02*
G75*
G03*
X40996180Y-16826440I-200000J0D01*
G01*
X40596180Y-19483760D02*
X40996180Y-19883760D01*
X40996180Y-19483760D02*
X40596180Y-19883760D01*
X40996180Y-19683760D02*
G75*
G03*
X40996180Y-19683760I-200000J0D01*
G01*
X40596180Y-21388640D02*
X40996180Y-21788640D01*
X40996180Y-21388640D02*
X40596180Y-21788640D01*
X40996180Y-21588640D02*
G75*
G03*
X40996180Y-21588640I-200000J0D01*
G01*
X40596180Y-27103280D02*
X40996180Y-27503280D01*
X40996180Y-27103280D02*
X40596180Y-27503280D01*
X40996180Y-27303280D02*
G75*
G03*
X40996180Y-27303280I-200000J0D01*
G01*
X42501060Y-19483760D02*
X42901060Y-19883760D01*
X42901060Y-19483760D02*
X42501060Y-19883760D01*
X42901060Y-19683760D02*
G75*
G03*
X42901060Y-19683760I-200000J0D01*
G01*
X42501060Y-21388640D02*
X42901060Y-21788640D01*
X42901060Y-21388640D02*
X42501060Y-21788640D01*
X42901060Y-21588640D02*
G75*
G03*
X42901060Y-21588640I-200000J0D01*
G01*
X42501060Y-25198400D02*
X42901060Y-25598400D01*
X42901060Y-25198400D02*
X42501060Y-25598400D01*
X42901060Y-25398400D02*
G75*
G03*
X42901060Y-25398400I-200000J0D01*
G01*
X42501060Y-27103280D02*
X42901060Y-27503280D01*
X42901060Y-27103280D02*
X42501060Y-27503280D01*
X42901060Y-27303280D02*
G75*
G03*
X42901060Y-27303280I-200000J0D01*
G01*
X44405940Y-19483760D02*
X44805940Y-19883760D01*
X44805940Y-19483760D02*
X44405940Y-19883760D01*
X44805940Y-19683760D02*
G75*
G03*
X44805940Y-19683760I-200000J0D01*
G01*
X44405940Y-21388640D02*
X44805940Y-21788640D01*
X44805940Y-21388640D02*
X44405940Y-21788640D01*
X44805940Y-21588640D02*
G75*
G03*
X44805940Y-21588640I-200000J0D01*
G01*
X44405940Y-27103280D02*
X44805940Y-27503280D01*
X44805940Y-27103280D02*
X44405940Y-27503280D01*
X44805940Y-27303280D02*
G75*
G03*
X44805940Y-27303280I-200000J0D01*
G01*
D12*
X7265988Y-29202654D02*
X7265988Y-28902654D01*
X7337417Y-28902654D01*
X7380274Y-28916940D01*
X7408846Y-28945511D01*
X7423131Y-28974083D01*
X7437417Y-29031226D01*
X7437417Y-29074083D01*
X7423131Y-29131226D01*
X7408846Y-29159797D01*
X7380274Y-29188369D01*
X7337417Y-29202654D01*
X7265988Y-29202654D01*
X7565988Y-29202654D02*
X7565988Y-29002654D01*
X7565988Y-29059797D02*
X7580274Y-29031226D01*
X7594560Y-29016940D01*
X7623131Y-29002654D01*
X7651703Y-29002654D01*
X7751703Y-29202654D02*
X7751703Y-29002654D01*
X7751703Y-28902654D02*
X7737417Y-28916940D01*
X7751703Y-28931226D01*
X7765988Y-28916940D01*
X7751703Y-28902654D01*
X7751703Y-28931226D01*
X7937417Y-29202654D02*
X7908846Y-29188369D01*
X7894560Y-29159797D01*
X7894560Y-28902654D01*
X8094560Y-29202654D02*
X8065988Y-29188369D01*
X8051703Y-29159797D01*
X8051703Y-28902654D01*
X8437417Y-29202654D02*
X8437417Y-28902654D01*
X8537417Y-29116940D01*
X8637417Y-28902654D01*
X8637417Y-29202654D01*
X8908846Y-29202654D02*
X8908846Y-29045511D01*
X8894560Y-29016940D01*
X8865988Y-29002654D01*
X8808846Y-29002654D01*
X8780274Y-29016940D01*
X8908846Y-29188369D02*
X8880274Y-29202654D01*
X8808846Y-29202654D01*
X8780274Y-29188369D01*
X8765988Y-29159797D01*
X8765988Y-29131226D01*
X8780274Y-29102654D01*
X8808846Y-29088369D01*
X8880274Y-29088369D01*
X8908846Y-29074083D01*
X9051703Y-29002654D02*
X9051703Y-29302654D01*
X9051703Y-29016940D02*
X9080274Y-29002654D01*
X9137417Y-29002654D01*
X9165988Y-29016940D01*
X9180274Y-29031226D01*
X9194560Y-29059797D01*
X9194560Y-29145511D01*
X9180274Y-29174083D01*
X9165988Y-29188369D01*
X9137417Y-29202654D01*
X9080274Y-29202654D01*
X9051703Y-29188369D01*
X9323131Y-29174083D02*
X9337417Y-29188369D01*
X9323131Y-29202654D01*
X9308846Y-29188369D01*
X9323131Y-29174083D01*
X9323131Y-29202654D01*
X9323131Y-29016940D02*
X9337417Y-29031226D01*
X9323131Y-29045511D01*
X9308846Y-29031226D01*
X9323131Y-29016940D01*
X9323131Y-29045511D01*
X6914560Y-29664440D02*
X6979560Y-29729440D01*
X6979560Y-29664440D02*
X6914560Y-29729440D01*
X7323131Y-29532654D02*
X7351703Y-29532654D01*
X7380274Y-29546940D01*
X7394560Y-29561226D01*
X7408846Y-29589797D01*
X7423131Y-29646940D01*
X7423131Y-29718369D01*
X7408846Y-29775511D01*
X7394560Y-29804083D01*
X7380274Y-29818369D01*
X7351703Y-29832654D01*
X7323131Y-29832654D01*
X7294560Y-29818369D01*
X7280274Y-29804083D01*
X7265988Y-29775511D01*
X7251703Y-29718369D01*
X7251703Y-29646940D01*
X7265988Y-29589797D01*
X7280274Y-29561226D01*
X7294560Y-29546940D01*
X7323131Y-29532654D01*
X7551703Y-29804083D02*
X7565988Y-29818369D01*
X7551703Y-29832654D01*
X7537417Y-29818369D01*
X7551703Y-29804083D01*
X7551703Y-29832654D01*
X7823131Y-29532654D02*
X7765988Y-29532654D01*
X7737417Y-29546940D01*
X7723131Y-29561226D01*
X7694560Y-29604083D01*
X7680274Y-29661226D01*
X7680274Y-29775511D01*
X7694560Y-29804083D01*
X7708846Y-29818369D01*
X7737417Y-29832654D01*
X7794560Y-29832654D01*
X7823131Y-29818369D01*
X7837417Y-29804083D01*
X7851703Y-29775511D01*
X7851703Y-29704083D01*
X7837417Y-29675511D01*
X7823131Y-29661226D01*
X7794560Y-29646940D01*
X7737417Y-29646940D01*
X7708846Y-29661226D01*
X7694560Y-29675511D01*
X7680274Y-29704083D01*
X8123131Y-29532654D02*
X7980274Y-29532654D01*
X7965988Y-29675511D01*
X7980274Y-29661226D01*
X8008846Y-29646940D01*
X8080274Y-29646940D01*
X8108846Y-29661226D01*
X8123131Y-29675511D01*
X8137417Y-29704083D01*
X8137417Y-29775511D01*
X8123131Y-29804083D01*
X8108846Y-29818369D01*
X8080274Y-29832654D01*
X8008846Y-29832654D01*
X7980274Y-29818369D01*
X7965988Y-29804083D01*
X8323131Y-29532654D02*
X8351703Y-29532654D01*
X8380274Y-29546940D01*
X8394560Y-29561226D01*
X8408846Y-29589797D01*
X8423131Y-29646940D01*
X8423131Y-29718369D01*
X8408846Y-29775511D01*
X8394560Y-29804083D01*
X8380274Y-29818369D01*
X8351703Y-29832654D01*
X8323131Y-29832654D01*
X8294560Y-29818369D01*
X8280274Y-29804083D01*
X8265988Y-29775511D01*
X8251703Y-29718369D01*
X8251703Y-29646940D01*
X8265988Y-29589797D01*
X8280274Y-29561226D01*
X8294560Y-29546940D01*
X8323131Y-29532654D01*
X8551703Y-29832654D02*
X8551703Y-29632654D01*
X8551703Y-29661226D02*
X8565988Y-29646940D01*
X8594560Y-29632654D01*
X8637417Y-29632654D01*
X8665988Y-29646940D01*
X8680274Y-29675511D01*
X8680274Y-29832654D01*
X8680274Y-29675511D02*
X8694560Y-29646940D01*
X8723131Y-29632654D01*
X8765988Y-29632654D01*
X8794560Y-29646940D01*
X8808846Y-29675511D01*
X8808846Y-29832654D01*
X8951703Y-29832654D02*
X8951703Y-29632654D01*
X8951703Y-29661226D02*
X8965988Y-29646940D01*
X8994560Y-29632654D01*
X9037417Y-29632654D01*
X9065988Y-29646940D01*
X9080274Y-29675511D01*
X9080274Y-29832654D01*
X9080274Y-29675511D02*
X9094560Y-29646940D01*
X9123131Y-29632654D01*
X9165988Y-29632654D01*
X9194560Y-29646940D01*
X9208846Y-29675511D01*
X9208846Y-29832654D01*
X9794560Y-29518369D02*
X9537417Y-29904083D01*
X10180274Y-29532654D02*
X10208846Y-29532654D01*
X10237417Y-29546940D01*
X10251703Y-29561226D01*
X10265988Y-29589797D01*
X10280274Y-29646940D01*
X10280274Y-29718369D01*
X10265988Y-29775511D01*
X10251703Y-29804083D01*
X10237417Y-29818369D01*
X10208846Y-29832654D01*
X10180274Y-29832654D01*
X10151703Y-29818369D01*
X10137417Y-29804083D01*
X10123131Y-29775511D01*
X10108846Y-29718369D01*
X10108846Y-29646940D01*
X10123131Y-29589797D01*
X10137417Y-29561226D01*
X10151703Y-29546940D01*
X10180274Y-29532654D01*
X10408846Y-29804083D02*
X10423131Y-29818369D01*
X10408846Y-29832654D01*
X10394560Y-29818369D01*
X10408846Y-29804083D01*
X10408846Y-29832654D01*
X10608846Y-29532654D02*
X10637417Y-29532654D01*
X10665988Y-29546940D01*
X10680274Y-29561226D01*
X10694560Y-29589797D01*
X10708846Y-29646940D01*
X10708846Y-29718369D01*
X10694560Y-29775511D01*
X10680274Y-29804083D01*
X10665988Y-29818369D01*
X10637417Y-29832654D01*
X10608846Y-29832654D01*
X10580274Y-29818369D01*
X10565988Y-29804083D01*
X10551703Y-29775511D01*
X10537417Y-29718369D01*
X10537417Y-29646940D01*
X10551703Y-29589797D01*
X10565988Y-29561226D01*
X10580274Y-29546940D01*
X10608846Y-29532654D01*
X10823131Y-29561226D02*
X10837417Y-29546940D01*
X10865988Y-29532654D01*
X10937417Y-29532654D01*
X10965988Y-29546940D01*
X10980274Y-29561226D01*
X10994560Y-29589797D01*
X10994560Y-29618369D01*
X10980274Y-29661226D01*
X10808846Y-29832654D01*
X10994560Y-29832654D01*
X11265988Y-29532654D02*
X11123131Y-29532654D01*
X11108846Y-29675511D01*
X11123131Y-29661226D01*
X11151703Y-29646940D01*
X11223131Y-29646940D01*
X11251703Y-29661226D01*
X11265988Y-29675511D01*
X11280274Y-29704083D01*
X11280274Y-29775511D01*
X11265988Y-29804083D01*
X11251703Y-29818369D01*
X11223131Y-29832654D01*
X11151703Y-29832654D01*
X11123131Y-29818369D01*
X11108846Y-29804083D01*
X11537417Y-29532654D02*
X11480274Y-29532654D01*
X11451703Y-29546940D01*
X11437417Y-29561226D01*
X11408846Y-29604083D01*
X11394560Y-29661226D01*
X11394560Y-29775511D01*
X11408846Y-29804083D01*
X11423131Y-29818369D01*
X11451703Y-29832654D01*
X11508846Y-29832654D01*
X11537417Y-29818369D01*
X11551703Y-29804083D01*
X11565988Y-29775511D01*
X11565988Y-29704083D01*
X11551703Y-29675511D01*
X11537417Y-29661226D01*
X11508846Y-29646940D01*
X11451703Y-29646940D01*
X11423131Y-29661226D01*
X11408846Y-29675511D01*
X11394560Y-29704083D01*
X11680274Y-29532654D02*
X11680274Y-29589797D01*
X11794560Y-29532654D02*
X11794560Y-29589797D01*
X12237417Y-29946940D02*
X12223131Y-29932654D01*
X12194560Y-29889797D01*
X12180274Y-29861226D01*
X12165988Y-29818369D01*
X12151703Y-29746940D01*
X12151703Y-29689797D01*
X12165988Y-29618369D01*
X12180274Y-29575511D01*
X12194560Y-29546940D01*
X12223131Y-29504083D01*
X12237417Y-29489797D01*
X12394560Y-29661226D02*
X12365988Y-29646940D01*
X12351703Y-29632654D01*
X12337417Y-29604083D01*
X12337417Y-29589797D01*
X12351703Y-29561226D01*
X12365988Y-29546940D01*
X12394560Y-29532654D01*
X12451703Y-29532654D01*
X12480274Y-29546940D01*
X12494560Y-29561226D01*
X12508846Y-29589797D01*
X12508846Y-29604083D01*
X12494560Y-29632654D01*
X12480274Y-29646940D01*
X12451703Y-29661226D01*
X12394560Y-29661226D01*
X12365988Y-29675511D01*
X12351703Y-29689797D01*
X12337417Y-29718369D01*
X12337417Y-29775511D01*
X12351703Y-29804083D01*
X12365988Y-29818369D01*
X12394560Y-29832654D01*
X12451703Y-29832654D01*
X12480274Y-29818369D01*
X12494560Y-29804083D01*
X12508846Y-29775511D01*
X12508846Y-29718369D01*
X12494560Y-29689797D01*
X12480274Y-29675511D01*
X12451703Y-29661226D01*
X12865988Y-29832654D02*
X12865988Y-29532654D01*
X12994560Y-29832654D02*
X12994560Y-29675511D01*
X12980274Y-29646940D01*
X12951703Y-29632654D01*
X12908846Y-29632654D01*
X12880274Y-29646940D01*
X12865988Y-29661226D01*
X13180274Y-29832654D02*
X13151703Y-29818369D01*
X13137417Y-29804083D01*
X13123131Y-29775511D01*
X13123131Y-29689797D01*
X13137417Y-29661226D01*
X13151703Y-29646940D01*
X13180274Y-29632654D01*
X13223131Y-29632654D01*
X13251703Y-29646940D01*
X13265988Y-29661226D01*
X13280274Y-29689797D01*
X13280274Y-29775511D01*
X13265988Y-29804083D01*
X13251703Y-29818369D01*
X13223131Y-29832654D01*
X13180274Y-29832654D01*
X13451703Y-29832654D02*
X13423131Y-29818369D01*
X13408846Y-29789797D01*
X13408846Y-29532654D01*
X13680274Y-29818369D02*
X13651703Y-29832654D01*
X13594560Y-29832654D01*
X13565988Y-29818369D01*
X13551703Y-29789797D01*
X13551703Y-29675511D01*
X13565988Y-29646940D01*
X13594560Y-29632654D01*
X13651703Y-29632654D01*
X13680274Y-29646940D01*
X13694560Y-29675511D01*
X13694560Y-29704083D01*
X13551703Y-29732654D01*
X13808846Y-29818369D02*
X13837417Y-29832654D01*
X13894560Y-29832654D01*
X13923131Y-29818369D01*
X13937417Y-29789797D01*
X13937417Y-29775511D01*
X13923131Y-29746940D01*
X13894560Y-29732654D01*
X13851703Y-29732654D01*
X13823131Y-29718369D01*
X13808846Y-29689797D01*
X13808846Y-29675511D01*
X13823131Y-29646940D01*
X13851703Y-29632654D01*
X13894560Y-29632654D01*
X13923131Y-29646940D01*
X14037417Y-29946940D02*
X14051703Y-29932654D01*
X14080274Y-29889797D01*
X14094560Y-29861226D01*
X14108846Y-29818369D01*
X14123131Y-29746940D01*
X14123131Y-29689797D01*
X14108846Y-29618369D01*
X14094560Y-29575511D01*
X14080274Y-29546940D01*
X14051703Y-29504083D01*
X14037417Y-29489797D01*
X14580274Y-29946940D02*
X14565988Y-29932654D01*
X14537417Y-29889797D01*
X14523131Y-29861226D01*
X14508846Y-29818369D01*
X14494560Y-29746940D01*
X14494560Y-29689797D01*
X14508846Y-29618369D01*
X14523131Y-29575511D01*
X14537417Y-29546940D01*
X14565988Y-29504083D01*
X14580274Y-29489797D01*
X14694560Y-29632654D02*
X14694560Y-29832654D01*
X14694560Y-29661226D02*
X14708846Y-29646940D01*
X14737417Y-29632654D01*
X14780274Y-29632654D01*
X14808846Y-29646940D01*
X14823131Y-29675511D01*
X14823131Y-29832654D01*
X15008846Y-29832654D02*
X14980274Y-29818369D01*
X14965988Y-29804083D01*
X14951703Y-29775511D01*
X14951703Y-29689797D01*
X14965988Y-29661226D01*
X14980274Y-29646940D01*
X15008846Y-29632654D01*
X15051703Y-29632654D01*
X15080274Y-29646940D01*
X15094560Y-29661226D01*
X15108846Y-29689797D01*
X15108846Y-29775511D01*
X15094560Y-29804083D01*
X15080274Y-29818369D01*
X15051703Y-29832654D01*
X15008846Y-29832654D01*
X15194560Y-29632654D02*
X15308846Y-29632654D01*
X15237417Y-29532654D02*
X15237417Y-29789797D01*
X15251703Y-29818369D01*
X15280274Y-29832654D01*
X15308846Y-29832654D01*
X15637417Y-29632654D02*
X15637417Y-29932654D01*
X15637417Y-29646940D02*
X15665988Y-29632654D01*
X15723131Y-29632654D01*
X15751703Y-29646940D01*
X15765988Y-29661226D01*
X15780274Y-29689797D01*
X15780274Y-29775511D01*
X15765988Y-29804083D01*
X15751703Y-29818369D01*
X15723131Y-29832654D01*
X15665988Y-29832654D01*
X15637417Y-29818369D01*
X15951703Y-29832654D02*
X15923131Y-29818369D01*
X15908846Y-29789797D01*
X15908846Y-29532654D01*
X16194560Y-29832654D02*
X16194560Y-29675511D01*
X16180274Y-29646940D01*
X16151703Y-29632654D01*
X16094560Y-29632654D01*
X16065988Y-29646940D01*
X16194560Y-29818369D02*
X16165988Y-29832654D01*
X16094560Y-29832654D01*
X16065988Y-29818369D01*
X16051703Y-29789797D01*
X16051703Y-29761226D01*
X16065988Y-29732654D01*
X16094560Y-29718369D01*
X16165988Y-29718369D01*
X16194560Y-29704083D01*
X16294560Y-29632654D02*
X16408846Y-29632654D01*
X16337417Y-29532654D02*
X16337417Y-29789797D01*
X16351703Y-29818369D01*
X16380274Y-29832654D01*
X16408846Y-29832654D01*
X16623131Y-29818369D02*
X16594560Y-29832654D01*
X16537417Y-29832654D01*
X16508846Y-29818369D01*
X16494560Y-29789797D01*
X16494560Y-29675511D01*
X16508846Y-29646940D01*
X16537417Y-29632654D01*
X16594560Y-29632654D01*
X16623131Y-29646940D01*
X16637417Y-29675511D01*
X16637417Y-29704083D01*
X16494560Y-29732654D01*
X16894560Y-29832654D02*
X16894560Y-29532654D01*
X16894560Y-29818369D02*
X16865988Y-29832654D01*
X16808846Y-29832654D01*
X16780274Y-29818369D01*
X16765988Y-29804083D01*
X16751703Y-29775511D01*
X16751703Y-29689797D01*
X16765988Y-29661226D01*
X16780274Y-29646940D01*
X16808846Y-29632654D01*
X16865988Y-29632654D01*
X16894560Y-29646940D01*
X17008846Y-29946940D02*
X17023131Y-29932654D01*
X17051703Y-29889797D01*
X17065988Y-29861226D01*
X17080274Y-29818369D01*
X17094560Y-29746940D01*
X17094560Y-29689797D01*
X17080274Y-29618369D01*
X17065988Y-29575511D01*
X17051703Y-29546940D01*
X17023131Y-29504083D01*
X17008846Y-29489797D01*
X6979560Y-30092940D02*
G75*
G03*
X6979560Y-30092940I-87500J0D01*
G01*
X7423131Y-30228654D02*
X7251703Y-30228654D01*
X7337417Y-30228654D02*
X7337417Y-29928654D01*
X7308846Y-29971511D01*
X7280274Y-30000083D01*
X7251703Y-30014369D01*
X7551703Y-30200083D02*
X7565988Y-30214369D01*
X7551703Y-30228654D01*
X7537417Y-30214369D01*
X7551703Y-30200083D01*
X7551703Y-30228654D01*
X7665988Y-29928654D02*
X7865988Y-29928654D01*
X7737417Y-30228654D01*
X8123131Y-29928654D02*
X7980274Y-29928654D01*
X7965988Y-30071511D01*
X7980274Y-30057226D01*
X8008846Y-30042940D01*
X8080274Y-30042940D01*
X8108846Y-30057226D01*
X8123131Y-30071511D01*
X8137417Y-30100083D01*
X8137417Y-30171511D01*
X8123131Y-30200083D01*
X8108846Y-30214369D01*
X8080274Y-30228654D01*
X8008846Y-30228654D01*
X7980274Y-30214369D01*
X7965988Y-30200083D01*
X8323131Y-29928654D02*
X8351703Y-29928654D01*
X8380274Y-29942940D01*
X8394560Y-29957226D01*
X8408846Y-29985797D01*
X8423131Y-30042940D01*
X8423131Y-30114369D01*
X8408846Y-30171511D01*
X8394560Y-30200083D01*
X8380274Y-30214369D01*
X8351703Y-30228654D01*
X8323131Y-30228654D01*
X8294560Y-30214369D01*
X8280274Y-30200083D01*
X8265988Y-30171511D01*
X8251703Y-30114369D01*
X8251703Y-30042940D01*
X8265988Y-29985797D01*
X8280274Y-29957226D01*
X8294560Y-29942940D01*
X8323131Y-29928654D01*
X8551703Y-30228654D02*
X8551703Y-30028654D01*
X8551703Y-30057226D02*
X8565988Y-30042940D01*
X8594560Y-30028654D01*
X8637417Y-30028654D01*
X8665988Y-30042940D01*
X8680274Y-30071511D01*
X8680274Y-30228654D01*
X8680274Y-30071511D02*
X8694560Y-30042940D01*
X8723131Y-30028654D01*
X8765988Y-30028654D01*
X8794560Y-30042940D01*
X8808846Y-30071511D01*
X8808846Y-30228654D01*
X8951703Y-30228654D02*
X8951703Y-30028654D01*
X8951703Y-30057226D02*
X8965988Y-30042940D01*
X8994560Y-30028654D01*
X9037417Y-30028654D01*
X9065988Y-30042940D01*
X9080274Y-30071511D01*
X9080274Y-30228654D01*
X9080274Y-30071511D02*
X9094560Y-30042940D01*
X9123131Y-30028654D01*
X9165988Y-30028654D01*
X9194560Y-30042940D01*
X9208846Y-30071511D01*
X9208846Y-30228654D01*
X9794560Y-29914369D02*
X9537417Y-30300083D01*
X10180274Y-29928654D02*
X10208846Y-29928654D01*
X10237417Y-29942940D01*
X10251703Y-29957226D01*
X10265988Y-29985797D01*
X10280274Y-30042940D01*
X10280274Y-30114369D01*
X10265988Y-30171511D01*
X10251703Y-30200083D01*
X10237417Y-30214369D01*
X10208846Y-30228654D01*
X10180274Y-30228654D01*
X10151703Y-30214369D01*
X10137417Y-30200083D01*
X10123131Y-30171511D01*
X10108846Y-30114369D01*
X10108846Y-30042940D01*
X10123131Y-29985797D01*
X10137417Y-29957226D01*
X10151703Y-29942940D01*
X10180274Y-29928654D01*
X10408846Y-30200083D02*
X10423131Y-30214369D01*
X10408846Y-30228654D01*
X10394560Y-30214369D01*
X10408846Y-30200083D01*
X10408846Y-30228654D01*
X10608846Y-29928654D02*
X10637417Y-29928654D01*
X10665988Y-29942940D01*
X10680274Y-29957226D01*
X10694560Y-29985797D01*
X10708846Y-30042940D01*
X10708846Y-30114369D01*
X10694560Y-30171511D01*
X10680274Y-30200083D01*
X10665988Y-30214369D01*
X10637417Y-30228654D01*
X10608846Y-30228654D01*
X10580274Y-30214369D01*
X10565988Y-30200083D01*
X10551703Y-30171511D01*
X10537417Y-30114369D01*
X10537417Y-30042940D01*
X10551703Y-29985797D01*
X10565988Y-29957226D01*
X10580274Y-29942940D01*
X10608846Y-29928654D01*
X10965988Y-29928654D02*
X10908846Y-29928654D01*
X10880274Y-29942940D01*
X10865988Y-29957226D01*
X10837417Y-30000083D01*
X10823131Y-30057226D01*
X10823131Y-30171511D01*
X10837417Y-30200083D01*
X10851703Y-30214369D01*
X10880274Y-30228654D01*
X10937417Y-30228654D01*
X10965988Y-30214369D01*
X10980274Y-30200083D01*
X10994560Y-30171511D01*
X10994560Y-30100083D01*
X10980274Y-30071511D01*
X10965988Y-30057226D01*
X10937417Y-30042940D01*
X10880274Y-30042940D01*
X10851703Y-30057226D01*
X10837417Y-30071511D01*
X10823131Y-30100083D01*
X11165988Y-30057226D02*
X11137417Y-30042940D01*
X11123131Y-30028654D01*
X11108846Y-30000083D01*
X11108846Y-29985797D01*
X11123131Y-29957226D01*
X11137417Y-29942940D01*
X11165988Y-29928654D01*
X11223131Y-29928654D01*
X11251703Y-29942940D01*
X11265988Y-29957226D01*
X11280274Y-29985797D01*
X11280274Y-30000083D01*
X11265988Y-30028654D01*
X11251703Y-30042940D01*
X11223131Y-30057226D01*
X11165988Y-30057226D01*
X11137417Y-30071511D01*
X11123131Y-30085797D01*
X11108846Y-30114369D01*
X11108846Y-30171511D01*
X11123131Y-30200083D01*
X11137417Y-30214369D01*
X11165988Y-30228654D01*
X11223131Y-30228654D01*
X11251703Y-30214369D01*
X11265988Y-30200083D01*
X11280274Y-30171511D01*
X11280274Y-30114369D01*
X11265988Y-30085797D01*
X11251703Y-30071511D01*
X11223131Y-30057226D01*
X11423131Y-30228654D02*
X11480274Y-30228654D01*
X11508846Y-30214369D01*
X11523131Y-30200083D01*
X11551703Y-30157226D01*
X11565988Y-30100083D01*
X11565988Y-29985797D01*
X11551703Y-29957226D01*
X11537417Y-29942940D01*
X11508846Y-29928654D01*
X11451703Y-29928654D01*
X11423131Y-29942940D01*
X11408846Y-29957226D01*
X11394560Y-29985797D01*
X11394560Y-30057226D01*
X11408846Y-30085797D01*
X11423131Y-30100083D01*
X11451703Y-30114369D01*
X11508846Y-30114369D01*
X11537417Y-30100083D01*
X11551703Y-30085797D01*
X11565988Y-30057226D01*
X11680274Y-29928654D02*
X11680274Y-29985797D01*
X11794560Y-29928654D02*
X11794560Y-29985797D01*
X12237417Y-30342940D02*
X12223131Y-30328654D01*
X12194560Y-30285797D01*
X12180274Y-30257226D01*
X12165988Y-30214369D01*
X12151703Y-30142940D01*
X12151703Y-30085797D01*
X12165988Y-30014369D01*
X12180274Y-29971511D01*
X12194560Y-29942940D01*
X12223131Y-29900083D01*
X12237417Y-29885797D01*
X12508846Y-30228654D02*
X12337417Y-30228654D01*
X12423131Y-30228654D02*
X12423131Y-29928654D01*
X12394560Y-29971511D01*
X12365988Y-30000083D01*
X12337417Y-30014369D01*
X12680274Y-30057226D02*
X12651703Y-30042940D01*
X12637417Y-30028654D01*
X12623131Y-30000083D01*
X12623131Y-29985797D01*
X12637417Y-29957226D01*
X12651703Y-29942940D01*
X12680274Y-29928654D01*
X12737417Y-29928654D01*
X12765988Y-29942940D01*
X12780274Y-29957226D01*
X12794560Y-29985797D01*
X12794560Y-30000083D01*
X12780274Y-30028654D01*
X12765988Y-30042940D01*
X12737417Y-30057226D01*
X12680274Y-30057226D01*
X12651703Y-30071511D01*
X12637417Y-30085797D01*
X12623131Y-30114369D01*
X12623131Y-30171511D01*
X12637417Y-30200083D01*
X12651703Y-30214369D01*
X12680274Y-30228654D01*
X12737417Y-30228654D01*
X12765988Y-30214369D01*
X12780274Y-30200083D01*
X12794560Y-30171511D01*
X12794560Y-30114369D01*
X12780274Y-30085797D01*
X12765988Y-30071511D01*
X12737417Y-30057226D01*
X12980274Y-29928654D02*
X13008846Y-29928654D01*
X13037417Y-29942940D01*
X13051703Y-29957226D01*
X13065988Y-29985797D01*
X13080274Y-30042940D01*
X13080274Y-30114369D01*
X13065988Y-30171511D01*
X13051703Y-30200083D01*
X13037417Y-30214369D01*
X13008846Y-30228654D01*
X12980274Y-30228654D01*
X12951703Y-30214369D01*
X12937417Y-30200083D01*
X12923131Y-30171511D01*
X12908846Y-30114369D01*
X12908846Y-30042940D01*
X12923131Y-29985797D01*
X12937417Y-29957226D01*
X12951703Y-29942940D01*
X12980274Y-29928654D01*
X13437417Y-30228654D02*
X13437417Y-29928654D01*
X13565988Y-30228654D02*
X13565988Y-30071511D01*
X13551703Y-30042940D01*
X13523131Y-30028654D01*
X13480274Y-30028654D01*
X13451703Y-30042940D01*
X13437417Y-30057226D01*
X13751703Y-30228654D02*
X13723131Y-30214369D01*
X13708846Y-30200083D01*
X13694560Y-30171511D01*
X13694560Y-30085797D01*
X13708846Y-30057226D01*
X13723131Y-30042940D01*
X13751703Y-30028654D01*
X13794560Y-30028654D01*
X13823131Y-30042940D01*
X13837417Y-30057226D01*
X13851703Y-30085797D01*
X13851703Y-30171511D01*
X13837417Y-30200083D01*
X13823131Y-30214369D01*
X13794560Y-30228654D01*
X13751703Y-30228654D01*
X14023131Y-30228654D02*
X13994560Y-30214369D01*
X13980274Y-30185797D01*
X13980274Y-29928654D01*
X14251703Y-30214369D02*
X14223131Y-30228654D01*
X14165988Y-30228654D01*
X14137417Y-30214369D01*
X14123131Y-30185797D01*
X14123131Y-30071511D01*
X14137417Y-30042940D01*
X14165988Y-30028654D01*
X14223131Y-30028654D01*
X14251703Y-30042940D01*
X14265988Y-30071511D01*
X14265988Y-30100083D01*
X14123131Y-30128654D01*
X14380274Y-30214369D02*
X14408846Y-30228654D01*
X14465988Y-30228654D01*
X14494560Y-30214369D01*
X14508846Y-30185797D01*
X14508846Y-30171511D01*
X14494560Y-30142940D01*
X14465988Y-30128654D01*
X14423131Y-30128654D01*
X14394560Y-30114369D01*
X14380274Y-30085797D01*
X14380274Y-30071511D01*
X14394560Y-30042940D01*
X14423131Y-30028654D01*
X14465988Y-30028654D01*
X14494560Y-30042940D01*
X14608846Y-30342940D02*
X14623131Y-30328654D01*
X14651703Y-30285797D01*
X14665988Y-30257226D01*
X14680274Y-30214369D01*
X14694560Y-30142940D01*
X14694560Y-30085797D01*
X14680274Y-30014369D01*
X14665988Y-29971511D01*
X14651703Y-29942940D01*
X14623131Y-29900083D01*
X14608846Y-29885797D01*
X15151703Y-30342940D02*
X15137417Y-30328654D01*
X15108846Y-30285797D01*
X15094560Y-30257226D01*
X15080274Y-30214369D01*
X15065988Y-30142940D01*
X15065988Y-30085797D01*
X15080274Y-30014369D01*
X15094560Y-29971511D01*
X15108846Y-29942940D01*
X15137417Y-29900083D01*
X15151703Y-29885797D01*
X15265988Y-30028654D02*
X15265988Y-30228654D01*
X15265988Y-30057226D02*
X15280274Y-30042940D01*
X15308846Y-30028654D01*
X15351703Y-30028654D01*
X15380274Y-30042940D01*
X15394560Y-30071511D01*
X15394560Y-30228654D01*
X15580274Y-30228654D02*
X15551703Y-30214369D01*
X15537417Y-30200083D01*
X15523131Y-30171511D01*
X15523131Y-30085797D01*
X15537417Y-30057226D01*
X15551703Y-30042940D01*
X15580274Y-30028654D01*
X15623131Y-30028654D01*
X15651703Y-30042940D01*
X15665988Y-30057226D01*
X15680274Y-30085797D01*
X15680274Y-30171511D01*
X15665988Y-30200083D01*
X15651703Y-30214369D01*
X15623131Y-30228654D01*
X15580274Y-30228654D01*
X15765988Y-30028654D02*
X15880274Y-30028654D01*
X15808846Y-29928654D02*
X15808846Y-30185797D01*
X15823131Y-30214369D01*
X15851703Y-30228654D01*
X15880274Y-30228654D01*
X16208846Y-30028654D02*
X16208846Y-30328654D01*
X16208846Y-30042940D02*
X16237417Y-30028654D01*
X16294560Y-30028654D01*
X16323131Y-30042940D01*
X16337417Y-30057226D01*
X16351703Y-30085797D01*
X16351703Y-30171511D01*
X16337417Y-30200083D01*
X16323131Y-30214369D01*
X16294560Y-30228654D01*
X16237417Y-30228654D01*
X16208846Y-30214369D01*
X16523131Y-30228654D02*
X16494560Y-30214369D01*
X16480274Y-30185797D01*
X16480274Y-29928654D01*
X16765988Y-30228654D02*
X16765988Y-30071511D01*
X16751703Y-30042940D01*
X16723131Y-30028654D01*
X16665988Y-30028654D01*
X16637417Y-30042940D01*
X16765988Y-30214369D02*
X16737417Y-30228654D01*
X16665988Y-30228654D01*
X16637417Y-30214369D01*
X16623131Y-30185797D01*
X16623131Y-30157226D01*
X16637417Y-30128654D01*
X16665988Y-30114369D01*
X16737417Y-30114369D01*
X16765988Y-30100083D01*
X16865988Y-30028654D02*
X16980274Y-30028654D01*
X16908846Y-29928654D02*
X16908846Y-30185797D01*
X16923131Y-30214369D01*
X16951703Y-30228654D01*
X16980274Y-30228654D01*
X17194560Y-30214369D02*
X17165988Y-30228654D01*
X17108846Y-30228654D01*
X17080274Y-30214369D01*
X17065988Y-30185797D01*
X17065988Y-30071511D01*
X17080274Y-30042940D01*
X17108846Y-30028654D01*
X17165988Y-30028654D01*
X17194560Y-30042940D01*
X17208846Y-30071511D01*
X17208846Y-30100083D01*
X17065988Y-30128654D01*
X17465988Y-30228654D02*
X17465988Y-29928654D01*
X17465988Y-30214369D02*
X17437417Y-30228654D01*
X17380274Y-30228654D01*
X17351703Y-30214369D01*
X17337417Y-30200083D01*
X17323131Y-30171511D01*
X17323131Y-30085797D01*
X17337417Y-30057226D01*
X17351703Y-30042940D01*
X17380274Y-30028654D01*
X17437417Y-30028654D01*
X17465988Y-30042940D01*
X17580274Y-30342940D02*
X17594560Y-30328654D01*
X17623131Y-30285797D01*
X17637417Y-30257226D01*
X17651703Y-30214369D01*
X17665988Y-30142940D01*
X17665988Y-30085797D01*
X17651703Y-30014369D01*
X17637417Y-29971511D01*
X17623131Y-29942940D01*
X17594560Y-29900083D01*
X17580274Y-29885797D01*
X6829560Y-30338940D02*
X6829560Y-30638940D01*
X6679560Y-30488940D02*
X6979560Y-30488940D01*
X7237417Y-30324654D02*
X7423131Y-30324654D01*
X7323131Y-30438940D01*
X7365988Y-30438940D01*
X7394560Y-30453226D01*
X7408846Y-30467511D01*
X7423131Y-30496083D01*
X7423131Y-30567511D01*
X7408846Y-30596083D01*
X7394560Y-30610369D01*
X7365988Y-30624654D01*
X7280274Y-30624654D01*
X7251703Y-30610369D01*
X7237417Y-30596083D01*
X7551703Y-30596083D02*
X7565988Y-30610369D01*
X7551703Y-30624654D01*
X7537417Y-30610369D01*
X7551703Y-30596083D01*
X7551703Y-30624654D01*
X7751703Y-30324654D02*
X7780274Y-30324654D01*
X7808846Y-30338940D01*
X7823131Y-30353226D01*
X7837417Y-30381797D01*
X7851703Y-30438940D01*
X7851703Y-30510369D01*
X7837417Y-30567511D01*
X7823131Y-30596083D01*
X7808846Y-30610369D01*
X7780274Y-30624654D01*
X7751703Y-30624654D01*
X7723131Y-30610369D01*
X7708846Y-30596083D01*
X7694560Y-30567511D01*
X7680274Y-30510369D01*
X7680274Y-30438940D01*
X7694560Y-30381797D01*
X7708846Y-30353226D01*
X7723131Y-30338940D01*
X7751703Y-30324654D01*
X8037417Y-30324654D02*
X8065988Y-30324654D01*
X8094560Y-30338940D01*
X8108846Y-30353226D01*
X8123131Y-30381797D01*
X8137417Y-30438940D01*
X8137417Y-30510369D01*
X8123131Y-30567511D01*
X8108846Y-30596083D01*
X8094560Y-30610369D01*
X8065988Y-30624654D01*
X8037417Y-30624654D01*
X8008846Y-30610369D01*
X7994560Y-30596083D01*
X7980274Y-30567511D01*
X7965988Y-30510369D01*
X7965988Y-30438940D01*
X7980274Y-30381797D01*
X7994560Y-30353226D01*
X8008846Y-30338940D01*
X8037417Y-30324654D01*
X8323131Y-30324654D02*
X8351703Y-30324654D01*
X8380274Y-30338940D01*
X8394560Y-30353226D01*
X8408846Y-30381797D01*
X8423131Y-30438940D01*
X8423131Y-30510369D01*
X8408846Y-30567511D01*
X8394560Y-30596083D01*
X8380274Y-30610369D01*
X8351703Y-30624654D01*
X8323131Y-30624654D01*
X8294560Y-30610369D01*
X8280274Y-30596083D01*
X8265988Y-30567511D01*
X8251703Y-30510369D01*
X8251703Y-30438940D01*
X8265988Y-30381797D01*
X8280274Y-30353226D01*
X8294560Y-30338940D01*
X8323131Y-30324654D01*
X8551703Y-30624654D02*
X8551703Y-30424654D01*
X8551703Y-30453226D02*
X8565988Y-30438940D01*
X8594560Y-30424654D01*
X8637417Y-30424654D01*
X8665988Y-30438940D01*
X8680274Y-30467511D01*
X8680274Y-30624654D01*
X8680274Y-30467511D02*
X8694560Y-30438940D01*
X8723131Y-30424654D01*
X8765988Y-30424654D01*
X8794560Y-30438940D01*
X8808846Y-30467511D01*
X8808846Y-30624654D01*
X8951703Y-30624654D02*
X8951703Y-30424654D01*
X8951703Y-30453226D02*
X8965988Y-30438940D01*
X8994560Y-30424654D01*
X9037417Y-30424654D01*
X9065988Y-30438940D01*
X9080274Y-30467511D01*
X9080274Y-30624654D01*
X9080274Y-30467511D02*
X9094560Y-30438940D01*
X9123131Y-30424654D01*
X9165988Y-30424654D01*
X9194560Y-30438940D01*
X9208846Y-30467511D01*
X9208846Y-30624654D01*
X9794560Y-30310369D02*
X9537417Y-30696083D01*
X10180274Y-30324654D02*
X10208846Y-30324654D01*
X10237417Y-30338940D01*
X10251703Y-30353226D01*
X10265988Y-30381797D01*
X10280274Y-30438940D01*
X10280274Y-30510369D01*
X10265988Y-30567511D01*
X10251703Y-30596083D01*
X10237417Y-30610369D01*
X10208846Y-30624654D01*
X10180274Y-30624654D01*
X10151703Y-30610369D01*
X10137417Y-30596083D01*
X10123131Y-30567511D01*
X10108846Y-30510369D01*
X10108846Y-30438940D01*
X10123131Y-30381797D01*
X10137417Y-30353226D01*
X10151703Y-30338940D01*
X10180274Y-30324654D01*
X10408846Y-30596083D02*
X10423131Y-30610369D01*
X10408846Y-30624654D01*
X10394560Y-30610369D01*
X10408846Y-30596083D01*
X10408846Y-30624654D01*
X10708846Y-30624654D02*
X10537417Y-30624654D01*
X10623131Y-30624654D02*
X10623131Y-30324654D01*
X10594560Y-30367511D01*
X10565988Y-30396083D01*
X10537417Y-30410369D01*
X10994560Y-30624654D02*
X10823131Y-30624654D01*
X10908846Y-30624654D02*
X10908846Y-30324654D01*
X10880274Y-30367511D01*
X10851703Y-30396083D01*
X10823131Y-30410369D01*
X11165988Y-30453226D02*
X11137417Y-30438940D01*
X11123131Y-30424654D01*
X11108846Y-30396083D01*
X11108846Y-30381797D01*
X11123131Y-30353226D01*
X11137417Y-30338940D01*
X11165988Y-30324654D01*
X11223131Y-30324654D01*
X11251703Y-30338940D01*
X11265988Y-30353226D01*
X11280274Y-30381797D01*
X11280274Y-30396083D01*
X11265988Y-30424654D01*
X11251703Y-30438940D01*
X11223131Y-30453226D01*
X11165988Y-30453226D01*
X11137417Y-30467511D01*
X11123131Y-30481797D01*
X11108846Y-30510369D01*
X11108846Y-30567511D01*
X11123131Y-30596083D01*
X11137417Y-30610369D01*
X11165988Y-30624654D01*
X11223131Y-30624654D01*
X11251703Y-30610369D01*
X11265988Y-30596083D01*
X11280274Y-30567511D01*
X11280274Y-30510369D01*
X11265988Y-30481797D01*
X11251703Y-30467511D01*
X11223131Y-30453226D01*
X11565988Y-30624654D02*
X11394560Y-30624654D01*
X11480274Y-30624654D02*
X11480274Y-30324654D01*
X11451703Y-30367511D01*
X11423131Y-30396083D01*
X11394560Y-30410369D01*
X11680274Y-30324654D02*
X11680274Y-30381797D01*
X11794560Y-30324654D02*
X11794560Y-30381797D01*
X12237417Y-30738940D02*
X12223131Y-30724654D01*
X12194560Y-30681797D01*
X12180274Y-30653226D01*
X12165988Y-30610369D01*
X12151703Y-30538940D01*
X12151703Y-30481797D01*
X12165988Y-30410369D01*
X12180274Y-30367511D01*
X12194560Y-30338940D01*
X12223131Y-30296083D01*
X12237417Y-30281797D01*
X12508846Y-30624654D02*
X12337417Y-30624654D01*
X12423131Y-30624654D02*
X12423131Y-30324654D01*
X12394560Y-30367511D01*
X12365988Y-30396083D01*
X12337417Y-30410369D01*
X12680274Y-30453226D02*
X12651703Y-30438940D01*
X12637417Y-30424654D01*
X12623131Y-30396083D01*
X12623131Y-30381797D01*
X12637417Y-30353226D01*
X12651703Y-30338940D01*
X12680274Y-30324654D01*
X12737417Y-30324654D01*
X12765988Y-30338940D01*
X12780274Y-30353226D01*
X12794560Y-30381797D01*
X12794560Y-30396083D01*
X12780274Y-30424654D01*
X12765988Y-30438940D01*
X12737417Y-30453226D01*
X12680274Y-30453226D01*
X12651703Y-30467511D01*
X12637417Y-30481797D01*
X12623131Y-30510369D01*
X12623131Y-30567511D01*
X12637417Y-30596083D01*
X12651703Y-30610369D01*
X12680274Y-30624654D01*
X12737417Y-30624654D01*
X12765988Y-30610369D01*
X12780274Y-30596083D01*
X12794560Y-30567511D01*
X12794560Y-30510369D01*
X12780274Y-30481797D01*
X12765988Y-30467511D01*
X12737417Y-30453226D01*
X12980274Y-30324654D02*
X13008846Y-30324654D01*
X13037417Y-30338940D01*
X13051703Y-30353226D01*
X13065988Y-30381797D01*
X13080274Y-30438940D01*
X13080274Y-30510369D01*
X13065988Y-30567511D01*
X13051703Y-30596083D01*
X13037417Y-30610369D01*
X13008846Y-30624654D01*
X12980274Y-30624654D01*
X12951703Y-30610369D01*
X12937417Y-30596083D01*
X12923131Y-30567511D01*
X12908846Y-30510369D01*
X12908846Y-30438940D01*
X12923131Y-30381797D01*
X12937417Y-30353226D01*
X12951703Y-30338940D01*
X12980274Y-30324654D01*
X13437417Y-30624654D02*
X13437417Y-30324654D01*
X13565988Y-30624654D02*
X13565988Y-30467511D01*
X13551703Y-30438940D01*
X13523131Y-30424654D01*
X13480274Y-30424654D01*
X13451703Y-30438940D01*
X13437417Y-30453226D01*
X13751703Y-30624654D02*
X13723131Y-30610369D01*
X13708846Y-30596083D01*
X13694560Y-30567511D01*
X13694560Y-30481797D01*
X13708846Y-30453226D01*
X13723131Y-30438940D01*
X13751703Y-30424654D01*
X13794560Y-30424654D01*
X13823131Y-30438940D01*
X13837417Y-30453226D01*
X13851703Y-30481797D01*
X13851703Y-30567511D01*
X13837417Y-30596083D01*
X13823131Y-30610369D01*
X13794560Y-30624654D01*
X13751703Y-30624654D01*
X14023131Y-30624654D02*
X13994560Y-30610369D01*
X13980274Y-30581797D01*
X13980274Y-30324654D01*
X14251703Y-30610369D02*
X14223131Y-30624654D01*
X14165988Y-30624654D01*
X14137417Y-30610369D01*
X14123131Y-30581797D01*
X14123131Y-30467511D01*
X14137417Y-30438940D01*
X14165988Y-30424654D01*
X14223131Y-30424654D01*
X14251703Y-30438940D01*
X14265988Y-30467511D01*
X14265988Y-30496083D01*
X14123131Y-30524654D01*
X14380274Y-30610369D02*
X14408846Y-30624654D01*
X14465988Y-30624654D01*
X14494560Y-30610369D01*
X14508846Y-30581797D01*
X14508846Y-30567511D01*
X14494560Y-30538940D01*
X14465988Y-30524654D01*
X14423131Y-30524654D01*
X14394560Y-30510369D01*
X14380274Y-30481797D01*
X14380274Y-30467511D01*
X14394560Y-30438940D01*
X14423131Y-30424654D01*
X14465988Y-30424654D01*
X14494560Y-30438940D01*
X14608846Y-30738940D02*
X14623131Y-30724654D01*
X14651703Y-30681797D01*
X14665988Y-30653226D01*
X14680274Y-30610369D01*
X14694560Y-30538940D01*
X14694560Y-30481797D01*
X14680274Y-30410369D01*
X14665988Y-30367511D01*
X14651703Y-30338940D01*
X14623131Y-30296083D01*
X14608846Y-30281797D01*
X15151703Y-30738940D02*
X15137417Y-30724654D01*
X15108846Y-30681797D01*
X15094560Y-30653226D01*
X15080274Y-30610369D01*
X15065988Y-30538940D01*
X15065988Y-30481797D01*
X15080274Y-30410369D01*
X15094560Y-30367511D01*
X15108846Y-30338940D01*
X15137417Y-30296083D01*
X15151703Y-30281797D01*
X15265988Y-30424654D02*
X15265988Y-30624654D01*
X15265988Y-30453226D02*
X15280274Y-30438940D01*
X15308846Y-30424654D01*
X15351703Y-30424654D01*
X15380274Y-30438940D01*
X15394560Y-30467511D01*
X15394560Y-30624654D01*
X15580274Y-30624654D02*
X15551703Y-30610369D01*
X15537417Y-30596083D01*
X15523131Y-30567511D01*
X15523131Y-30481797D01*
X15537417Y-30453226D01*
X15551703Y-30438940D01*
X15580274Y-30424654D01*
X15623131Y-30424654D01*
X15651703Y-30438940D01*
X15665988Y-30453226D01*
X15680274Y-30481797D01*
X15680274Y-30567511D01*
X15665988Y-30596083D01*
X15651703Y-30610369D01*
X15623131Y-30624654D01*
X15580274Y-30624654D01*
X15765988Y-30424654D02*
X15880274Y-30424654D01*
X15808846Y-30324654D02*
X15808846Y-30581797D01*
X15823131Y-30610369D01*
X15851703Y-30624654D01*
X15880274Y-30624654D01*
X16208846Y-30424654D02*
X16208846Y-30724654D01*
X16208846Y-30438940D02*
X16237417Y-30424654D01*
X16294560Y-30424654D01*
X16323131Y-30438940D01*
X16337417Y-30453226D01*
X16351703Y-30481797D01*
X16351703Y-30567511D01*
X16337417Y-30596083D01*
X16323131Y-30610369D01*
X16294560Y-30624654D01*
X16237417Y-30624654D01*
X16208846Y-30610369D01*
X16523131Y-30624654D02*
X16494560Y-30610369D01*
X16480274Y-30581797D01*
X16480274Y-30324654D01*
X16765988Y-30624654D02*
X16765988Y-30467511D01*
X16751703Y-30438940D01*
X16723131Y-30424654D01*
X16665988Y-30424654D01*
X16637417Y-30438940D01*
X16765988Y-30610369D02*
X16737417Y-30624654D01*
X16665988Y-30624654D01*
X16637417Y-30610369D01*
X16623131Y-30581797D01*
X16623131Y-30553226D01*
X16637417Y-30524654D01*
X16665988Y-30510369D01*
X16737417Y-30510369D01*
X16765988Y-30496083D01*
X16865988Y-30424654D02*
X16980274Y-30424654D01*
X16908846Y-30324654D02*
X16908846Y-30581797D01*
X16923131Y-30610369D01*
X16951703Y-30624654D01*
X16980274Y-30624654D01*
X17194560Y-30610369D02*
X17165988Y-30624654D01*
X17108846Y-30624654D01*
X17080274Y-30610369D01*
X17065988Y-30581797D01*
X17065988Y-30467511D01*
X17080274Y-30438940D01*
X17108846Y-30424654D01*
X17165988Y-30424654D01*
X17194560Y-30438940D01*
X17208846Y-30467511D01*
X17208846Y-30496083D01*
X17065988Y-30524654D01*
X17465988Y-30624654D02*
X17465988Y-30324654D01*
X17465988Y-30610369D02*
X17437417Y-30624654D01*
X17380274Y-30624654D01*
X17351703Y-30610369D01*
X17337417Y-30596083D01*
X17323131Y-30567511D01*
X17323131Y-30481797D01*
X17337417Y-30453226D01*
X17351703Y-30438940D01*
X17380274Y-30424654D01*
X17437417Y-30424654D01*
X17465988Y-30438940D01*
X17580274Y-30738940D02*
X17594560Y-30724654D01*
X17623131Y-30681797D01*
X17637417Y-30653226D01*
X17651703Y-30610369D01*
X17665988Y-30538940D01*
X17665988Y-30481797D01*
X17651703Y-30410369D01*
X17637417Y-30367511D01*
X17623131Y-30338940D01*
X17594560Y-30296083D01*
X17580274Y-30281797D01*
X6934924Y-31026704D02*
X6934924Y-30811176D01*
X6719396Y-30811176D01*
X6719396Y-31026704D01*
X6934924Y-31026704D01*
X7237417Y-30754654D02*
X7423131Y-30754654D01*
X7323131Y-30868940D01*
X7365988Y-30868940D01*
X7394560Y-30883226D01*
X7408846Y-30897511D01*
X7423131Y-30926083D01*
X7423131Y-30997511D01*
X7408846Y-31026083D01*
X7394560Y-31040369D01*
X7365988Y-31054654D01*
X7280274Y-31054654D01*
X7251703Y-31040369D01*
X7237417Y-31026083D01*
X7551703Y-31026083D02*
X7565988Y-31040369D01*
X7551703Y-31054654D01*
X7537417Y-31040369D01*
X7551703Y-31026083D01*
X7551703Y-31054654D01*
X7751703Y-30754654D02*
X7780274Y-30754654D01*
X7808846Y-30768940D01*
X7823131Y-30783226D01*
X7837417Y-30811797D01*
X7851703Y-30868940D01*
X7851703Y-30940369D01*
X7837417Y-30997511D01*
X7823131Y-31026083D01*
X7808846Y-31040369D01*
X7780274Y-31054654D01*
X7751703Y-31054654D01*
X7723131Y-31040369D01*
X7708846Y-31026083D01*
X7694560Y-30997511D01*
X7680274Y-30940369D01*
X7680274Y-30868940D01*
X7694560Y-30811797D01*
X7708846Y-30783226D01*
X7723131Y-30768940D01*
X7751703Y-30754654D01*
X8108846Y-30854654D02*
X8108846Y-31054654D01*
X8037417Y-30740369D02*
X7965988Y-30954654D01*
X8151703Y-30954654D01*
X8308846Y-30883226D02*
X8280274Y-30868940D01*
X8265988Y-30854654D01*
X8251703Y-30826083D01*
X8251703Y-30811797D01*
X8265988Y-30783226D01*
X8280274Y-30768940D01*
X8308846Y-30754654D01*
X8365988Y-30754654D01*
X8394560Y-30768940D01*
X8408846Y-30783226D01*
X8423131Y-30811797D01*
X8423131Y-30826083D01*
X8408846Y-30854654D01*
X8394560Y-30868940D01*
X8365988Y-30883226D01*
X8308846Y-30883226D01*
X8280274Y-30897511D01*
X8265988Y-30911797D01*
X8251703Y-30940369D01*
X8251703Y-30997511D01*
X8265988Y-31026083D01*
X8280274Y-31040369D01*
X8308846Y-31054654D01*
X8365988Y-31054654D01*
X8394560Y-31040369D01*
X8408846Y-31026083D01*
X8423131Y-30997511D01*
X8423131Y-30940369D01*
X8408846Y-30911797D01*
X8394560Y-30897511D01*
X8365988Y-30883226D01*
X8551703Y-31054654D02*
X8551703Y-30854654D01*
X8551703Y-30883226D02*
X8565988Y-30868940D01*
X8594560Y-30854654D01*
X8637417Y-30854654D01*
X8665988Y-30868940D01*
X8680274Y-30897511D01*
X8680274Y-31054654D01*
X8680274Y-30897511D02*
X8694560Y-30868940D01*
X8723131Y-30854654D01*
X8765988Y-30854654D01*
X8794560Y-30868940D01*
X8808846Y-30897511D01*
X8808846Y-31054654D01*
X8951703Y-31054654D02*
X8951703Y-30854654D01*
X8951703Y-30883226D02*
X8965988Y-30868940D01*
X8994560Y-30854654D01*
X9037417Y-30854654D01*
X9065988Y-30868940D01*
X9080274Y-30897511D01*
X9080274Y-31054654D01*
X9080274Y-30897511D02*
X9094560Y-30868940D01*
X9123131Y-30854654D01*
X9165988Y-30854654D01*
X9194560Y-30868940D01*
X9208846Y-30897511D01*
X9208846Y-31054654D01*
X9794560Y-30740369D02*
X9537417Y-31126083D01*
X10180274Y-30754654D02*
X10208846Y-30754654D01*
X10237417Y-30768940D01*
X10251703Y-30783226D01*
X10265988Y-30811797D01*
X10280274Y-30868940D01*
X10280274Y-30940369D01*
X10265988Y-30997511D01*
X10251703Y-31026083D01*
X10237417Y-31040369D01*
X10208846Y-31054654D01*
X10180274Y-31054654D01*
X10151703Y-31040369D01*
X10137417Y-31026083D01*
X10123131Y-30997511D01*
X10108846Y-30940369D01*
X10108846Y-30868940D01*
X10123131Y-30811797D01*
X10137417Y-30783226D01*
X10151703Y-30768940D01*
X10180274Y-30754654D01*
X10408846Y-31026083D02*
X10423131Y-31040369D01*
X10408846Y-31054654D01*
X10394560Y-31040369D01*
X10408846Y-31026083D01*
X10408846Y-31054654D01*
X10708846Y-31054654D02*
X10537417Y-31054654D01*
X10623131Y-31054654D02*
X10623131Y-30754654D01*
X10594560Y-30797511D01*
X10565988Y-30826083D01*
X10537417Y-30840369D01*
X10823131Y-30783226D02*
X10837417Y-30768940D01*
X10865988Y-30754654D01*
X10937417Y-30754654D01*
X10965988Y-30768940D01*
X10980274Y-30783226D01*
X10994560Y-30811797D01*
X10994560Y-30840369D01*
X10980274Y-30883226D01*
X10808846Y-31054654D01*
X10994560Y-31054654D01*
X11180274Y-30754654D02*
X11208846Y-30754654D01*
X11237417Y-30768940D01*
X11251703Y-30783226D01*
X11265988Y-30811797D01*
X11280274Y-30868940D01*
X11280274Y-30940369D01*
X11265988Y-30997511D01*
X11251703Y-31026083D01*
X11237417Y-31040369D01*
X11208846Y-31054654D01*
X11180274Y-31054654D01*
X11151703Y-31040369D01*
X11137417Y-31026083D01*
X11123131Y-30997511D01*
X11108846Y-30940369D01*
X11108846Y-30868940D01*
X11123131Y-30811797D01*
X11137417Y-30783226D01*
X11151703Y-30768940D01*
X11180274Y-30754654D01*
X11465988Y-30754654D02*
X11494560Y-30754654D01*
X11523131Y-30768940D01*
X11537417Y-30783226D01*
X11551703Y-30811797D01*
X11565988Y-30868940D01*
X11565988Y-30940369D01*
X11551703Y-30997511D01*
X11537417Y-31026083D01*
X11523131Y-31040369D01*
X11494560Y-31054654D01*
X11465988Y-31054654D01*
X11437417Y-31040369D01*
X11423131Y-31026083D01*
X11408846Y-30997511D01*
X11394560Y-30940369D01*
X11394560Y-30868940D01*
X11408846Y-30811797D01*
X11423131Y-30783226D01*
X11437417Y-30768940D01*
X11465988Y-30754654D01*
X11680274Y-30754654D02*
X11680274Y-30811797D01*
X11794560Y-30754654D02*
X11794560Y-30811797D01*
X12237417Y-31168940D02*
X12223131Y-31154654D01*
X12194560Y-31111797D01*
X12180274Y-31083226D01*
X12165988Y-31040369D01*
X12151703Y-30968940D01*
X12151703Y-30911797D01*
X12165988Y-30840369D01*
X12180274Y-30797511D01*
X12194560Y-30768940D01*
X12223131Y-30726083D01*
X12237417Y-30711797D01*
X12508846Y-31054654D02*
X12337417Y-31054654D01*
X12423131Y-31054654D02*
X12423131Y-30754654D01*
X12394560Y-30797511D01*
X12365988Y-30826083D01*
X12337417Y-30840369D01*
X12694560Y-30754654D02*
X12723131Y-30754654D01*
X12751703Y-30768940D01*
X12765988Y-30783226D01*
X12780274Y-30811797D01*
X12794560Y-30868940D01*
X12794560Y-30940369D01*
X12780274Y-30997511D01*
X12765988Y-31026083D01*
X12751703Y-31040369D01*
X12723131Y-31054654D01*
X12694560Y-31054654D01*
X12665988Y-31040369D01*
X12651703Y-31026083D01*
X12637417Y-30997511D01*
X12623131Y-30940369D01*
X12623131Y-30868940D01*
X12637417Y-30811797D01*
X12651703Y-30783226D01*
X12665988Y-30768940D01*
X12694560Y-30754654D01*
X13151703Y-31054654D02*
X13151703Y-30754654D01*
X13280274Y-31054654D02*
X13280274Y-30897511D01*
X13265988Y-30868940D01*
X13237417Y-30854654D01*
X13194560Y-30854654D01*
X13165988Y-30868940D01*
X13151703Y-30883226D01*
X13465988Y-31054654D02*
X13437417Y-31040369D01*
X13423131Y-31026083D01*
X13408846Y-30997511D01*
X13408846Y-30911797D01*
X13423131Y-30883226D01*
X13437417Y-30868940D01*
X13465988Y-30854654D01*
X13508846Y-30854654D01*
X13537417Y-30868940D01*
X13551703Y-30883226D01*
X13565988Y-30911797D01*
X13565988Y-30997511D01*
X13551703Y-31026083D01*
X13537417Y-31040369D01*
X13508846Y-31054654D01*
X13465988Y-31054654D01*
X13737417Y-31054654D02*
X13708846Y-31040369D01*
X13694560Y-31011797D01*
X13694560Y-30754654D01*
X13965988Y-31040369D02*
X13937417Y-31054654D01*
X13880274Y-31054654D01*
X13851703Y-31040369D01*
X13837417Y-31011797D01*
X13837417Y-30897511D01*
X13851703Y-30868940D01*
X13880274Y-30854654D01*
X13937417Y-30854654D01*
X13965988Y-30868940D01*
X13980274Y-30897511D01*
X13980274Y-30926083D01*
X13837417Y-30954654D01*
X14094560Y-31040369D02*
X14123131Y-31054654D01*
X14180274Y-31054654D01*
X14208846Y-31040369D01*
X14223131Y-31011797D01*
X14223131Y-30997511D01*
X14208846Y-30968940D01*
X14180274Y-30954654D01*
X14137417Y-30954654D01*
X14108846Y-30940369D01*
X14094560Y-30911797D01*
X14094560Y-30897511D01*
X14108846Y-30868940D01*
X14137417Y-30854654D01*
X14180274Y-30854654D01*
X14208846Y-30868940D01*
X14323131Y-31168940D02*
X14337417Y-31154654D01*
X14365988Y-31111797D01*
X14380274Y-31083226D01*
X14394560Y-31040369D01*
X14408846Y-30968940D01*
X14408846Y-30911797D01*
X14394560Y-30840369D01*
X14380274Y-30797511D01*
X14365988Y-30768940D01*
X14337417Y-30726083D01*
X14323131Y-30711797D01*
X14865988Y-31168940D02*
X14851703Y-31154654D01*
X14823131Y-31111797D01*
X14808846Y-31083226D01*
X14794560Y-31040369D01*
X14780274Y-30968940D01*
X14780274Y-30911797D01*
X14794560Y-30840369D01*
X14808846Y-30797511D01*
X14823131Y-30768940D01*
X14851703Y-30726083D01*
X14865988Y-30711797D01*
X14980274Y-30854654D02*
X14980274Y-31054654D01*
X14980274Y-30883226D02*
X14994560Y-30868940D01*
X15023131Y-30854654D01*
X15065988Y-30854654D01*
X15094560Y-30868940D01*
X15108846Y-30897511D01*
X15108846Y-31054654D01*
X15294560Y-31054654D02*
X15265988Y-31040369D01*
X15251703Y-31026083D01*
X15237417Y-30997511D01*
X15237417Y-30911797D01*
X15251703Y-30883226D01*
X15265988Y-30868940D01*
X15294560Y-30854654D01*
X15337417Y-30854654D01*
X15365988Y-30868940D01*
X15380274Y-30883226D01*
X15394560Y-30911797D01*
X15394560Y-30997511D01*
X15380274Y-31026083D01*
X15365988Y-31040369D01*
X15337417Y-31054654D01*
X15294560Y-31054654D01*
X15480274Y-30854654D02*
X15594560Y-30854654D01*
X15523131Y-30754654D02*
X15523131Y-31011797D01*
X15537417Y-31040369D01*
X15565988Y-31054654D01*
X15594560Y-31054654D01*
X15923131Y-30854654D02*
X15923131Y-31154654D01*
X15923131Y-30868940D02*
X15951703Y-30854654D01*
X16008846Y-30854654D01*
X16037417Y-30868940D01*
X16051703Y-30883226D01*
X16065988Y-30911797D01*
X16065988Y-30997511D01*
X16051703Y-31026083D01*
X16037417Y-31040369D01*
X16008846Y-31054654D01*
X15951703Y-31054654D01*
X15923131Y-31040369D01*
X16237417Y-31054654D02*
X16208846Y-31040369D01*
X16194560Y-31011797D01*
X16194560Y-30754654D01*
X16480274Y-31054654D02*
X16480274Y-30897511D01*
X16465988Y-30868940D01*
X16437417Y-30854654D01*
X16380274Y-30854654D01*
X16351703Y-30868940D01*
X16480274Y-31040369D02*
X16451703Y-31054654D01*
X16380274Y-31054654D01*
X16351703Y-31040369D01*
X16337417Y-31011797D01*
X16337417Y-30983226D01*
X16351703Y-30954654D01*
X16380274Y-30940369D01*
X16451703Y-30940369D01*
X16480274Y-30926083D01*
X16580274Y-30854654D02*
X16694560Y-30854654D01*
X16623131Y-30754654D02*
X16623131Y-31011797D01*
X16637417Y-31040369D01*
X16665988Y-31054654D01*
X16694560Y-31054654D01*
X16908846Y-31040369D02*
X16880274Y-31054654D01*
X16823131Y-31054654D01*
X16794560Y-31040369D01*
X16780274Y-31011797D01*
X16780274Y-30897511D01*
X16794560Y-30868940D01*
X16823131Y-30854654D01*
X16880274Y-30854654D01*
X16908846Y-30868940D01*
X16923131Y-30897511D01*
X16923131Y-30926083D01*
X16780274Y-30954654D01*
X17180274Y-31054654D02*
X17180274Y-30754654D01*
X17180274Y-31040369D02*
X17151703Y-31054654D01*
X17094560Y-31054654D01*
X17065988Y-31040369D01*
X17051703Y-31026083D01*
X17037417Y-30997511D01*
X17037417Y-30911797D01*
X17051703Y-30883226D01*
X17065988Y-30868940D01*
X17094560Y-30854654D01*
X17151703Y-30854654D01*
X17180274Y-30868940D01*
X17294560Y-31168940D02*
X17308846Y-31154654D01*
X17337417Y-31111797D01*
X17351703Y-31083226D01*
X17365988Y-31040369D01*
X17380274Y-30968940D01*
X17380274Y-30911797D01*
X17365988Y-30840369D01*
X17351703Y-30797511D01*
X17337417Y-30768940D01*
X17308846Y-30726083D01*
X17294560Y-30711797D01*
X6780170Y-31553130D02*
X6979560Y-31353740D01*
X6780170Y-31154350D01*
X6580780Y-31353740D01*
X6780170Y-31553130D01*
X7237417Y-31189454D02*
X7423131Y-31189454D01*
X7323131Y-31303740D01*
X7365988Y-31303740D01*
X7394560Y-31318026D01*
X7408846Y-31332311D01*
X7423131Y-31360883D01*
X7423131Y-31432311D01*
X7408846Y-31460883D01*
X7394560Y-31475169D01*
X7365988Y-31489454D01*
X7280274Y-31489454D01*
X7251703Y-31475169D01*
X7237417Y-31460883D01*
X7551703Y-31460883D02*
X7565988Y-31475169D01*
X7551703Y-31489454D01*
X7537417Y-31475169D01*
X7551703Y-31460883D01*
X7551703Y-31489454D01*
X7708846Y-31489454D02*
X7765988Y-31489454D01*
X7794560Y-31475169D01*
X7808846Y-31460883D01*
X7837417Y-31418026D01*
X7851703Y-31360883D01*
X7851703Y-31246597D01*
X7837417Y-31218026D01*
X7823131Y-31203740D01*
X7794560Y-31189454D01*
X7737417Y-31189454D01*
X7708846Y-31203740D01*
X7694560Y-31218026D01*
X7680274Y-31246597D01*
X7680274Y-31318026D01*
X7694560Y-31346597D01*
X7708846Y-31360883D01*
X7737417Y-31375169D01*
X7794560Y-31375169D01*
X7823131Y-31360883D01*
X7837417Y-31346597D01*
X7851703Y-31318026D01*
X8023131Y-31318026D02*
X7994560Y-31303740D01*
X7980274Y-31289454D01*
X7965988Y-31260883D01*
X7965988Y-31246597D01*
X7980274Y-31218026D01*
X7994560Y-31203740D01*
X8023131Y-31189454D01*
X8080274Y-31189454D01*
X8108846Y-31203740D01*
X8123131Y-31218026D01*
X8137417Y-31246597D01*
X8137417Y-31260883D01*
X8123131Y-31289454D01*
X8108846Y-31303740D01*
X8080274Y-31318026D01*
X8023131Y-31318026D01*
X7994560Y-31332311D01*
X7980274Y-31346597D01*
X7965988Y-31375169D01*
X7965988Y-31432311D01*
X7980274Y-31460883D01*
X7994560Y-31475169D01*
X8023131Y-31489454D01*
X8080274Y-31489454D01*
X8108846Y-31475169D01*
X8123131Y-31460883D01*
X8137417Y-31432311D01*
X8137417Y-31375169D01*
X8123131Y-31346597D01*
X8108846Y-31332311D01*
X8080274Y-31318026D01*
X8308846Y-31318026D02*
X8280274Y-31303740D01*
X8265988Y-31289454D01*
X8251703Y-31260883D01*
X8251703Y-31246597D01*
X8265988Y-31218026D01*
X8280274Y-31203740D01*
X8308846Y-31189454D01*
X8365988Y-31189454D01*
X8394560Y-31203740D01*
X8408846Y-31218026D01*
X8423131Y-31246597D01*
X8423131Y-31260883D01*
X8408846Y-31289454D01*
X8394560Y-31303740D01*
X8365988Y-31318026D01*
X8308846Y-31318026D01*
X8280274Y-31332311D01*
X8265988Y-31346597D01*
X8251703Y-31375169D01*
X8251703Y-31432311D01*
X8265988Y-31460883D01*
X8280274Y-31475169D01*
X8308846Y-31489454D01*
X8365988Y-31489454D01*
X8394560Y-31475169D01*
X8408846Y-31460883D01*
X8423131Y-31432311D01*
X8423131Y-31375169D01*
X8408846Y-31346597D01*
X8394560Y-31332311D01*
X8365988Y-31318026D01*
X8551703Y-31489454D02*
X8551703Y-31289454D01*
X8551703Y-31318026D02*
X8565988Y-31303740D01*
X8594560Y-31289454D01*
X8637417Y-31289454D01*
X8665988Y-31303740D01*
X8680274Y-31332311D01*
X8680274Y-31489454D01*
X8680274Y-31332311D02*
X8694560Y-31303740D01*
X8723131Y-31289454D01*
X8765988Y-31289454D01*
X8794560Y-31303740D01*
X8808846Y-31332311D01*
X8808846Y-31489454D01*
X8951703Y-31489454D02*
X8951703Y-31289454D01*
X8951703Y-31318026D02*
X8965988Y-31303740D01*
X8994560Y-31289454D01*
X9037417Y-31289454D01*
X9065988Y-31303740D01*
X9080274Y-31332311D01*
X9080274Y-31489454D01*
X9080274Y-31332311D02*
X9094560Y-31303740D01*
X9123131Y-31289454D01*
X9165988Y-31289454D01*
X9194560Y-31303740D01*
X9208846Y-31332311D01*
X9208846Y-31489454D01*
X9794560Y-31175169D02*
X9537417Y-31560883D01*
X10180274Y-31189454D02*
X10208846Y-31189454D01*
X10237417Y-31203740D01*
X10251703Y-31218026D01*
X10265988Y-31246597D01*
X10280274Y-31303740D01*
X10280274Y-31375169D01*
X10265988Y-31432311D01*
X10251703Y-31460883D01*
X10237417Y-31475169D01*
X10208846Y-31489454D01*
X10180274Y-31489454D01*
X10151703Y-31475169D01*
X10137417Y-31460883D01*
X10123131Y-31432311D01*
X10108846Y-31375169D01*
X10108846Y-31303740D01*
X10123131Y-31246597D01*
X10137417Y-31218026D01*
X10151703Y-31203740D01*
X10180274Y-31189454D01*
X10408846Y-31460883D02*
X10423131Y-31475169D01*
X10408846Y-31489454D01*
X10394560Y-31475169D01*
X10408846Y-31460883D01*
X10408846Y-31489454D01*
X10708846Y-31489454D02*
X10537417Y-31489454D01*
X10623131Y-31489454D02*
X10623131Y-31189454D01*
X10594560Y-31232311D01*
X10565988Y-31260883D01*
X10537417Y-31275169D01*
X10980274Y-31189454D02*
X10837417Y-31189454D01*
X10823131Y-31332311D01*
X10837417Y-31318026D01*
X10865988Y-31303740D01*
X10937417Y-31303740D01*
X10965988Y-31318026D01*
X10980274Y-31332311D01*
X10994560Y-31360883D01*
X10994560Y-31432311D01*
X10980274Y-31460883D01*
X10965988Y-31475169D01*
X10937417Y-31489454D01*
X10865988Y-31489454D01*
X10837417Y-31475169D01*
X10823131Y-31460883D01*
X11094560Y-31189454D02*
X11294560Y-31189454D01*
X11165988Y-31489454D01*
X11465988Y-31189454D02*
X11494560Y-31189454D01*
X11523131Y-31203740D01*
X11537417Y-31218026D01*
X11551703Y-31246597D01*
X11565988Y-31303740D01*
X11565988Y-31375169D01*
X11551703Y-31432311D01*
X11537417Y-31460883D01*
X11523131Y-31475169D01*
X11494560Y-31489454D01*
X11465988Y-31489454D01*
X11437417Y-31475169D01*
X11423131Y-31460883D01*
X11408846Y-31432311D01*
X11394560Y-31375169D01*
X11394560Y-31303740D01*
X11408846Y-31246597D01*
X11423131Y-31218026D01*
X11437417Y-31203740D01*
X11465988Y-31189454D01*
X11680274Y-31189454D02*
X11680274Y-31246597D01*
X11794560Y-31189454D02*
X11794560Y-31246597D01*
X12237417Y-31603740D02*
X12223131Y-31589454D01*
X12194560Y-31546597D01*
X12180274Y-31518026D01*
X12165988Y-31475169D01*
X12151703Y-31403740D01*
X12151703Y-31346597D01*
X12165988Y-31275169D01*
X12180274Y-31232311D01*
X12194560Y-31203740D01*
X12223131Y-31160883D01*
X12237417Y-31146597D01*
X12508846Y-31489454D02*
X12337417Y-31489454D01*
X12423131Y-31489454D02*
X12423131Y-31189454D01*
X12394560Y-31232311D01*
X12365988Y-31260883D01*
X12337417Y-31275169D01*
X12694560Y-31189454D02*
X12723131Y-31189454D01*
X12751703Y-31203740D01*
X12765988Y-31218026D01*
X12780274Y-31246597D01*
X12794560Y-31303740D01*
X12794560Y-31375169D01*
X12780274Y-31432311D01*
X12765988Y-31460883D01*
X12751703Y-31475169D01*
X12723131Y-31489454D01*
X12694560Y-31489454D01*
X12665988Y-31475169D01*
X12651703Y-31460883D01*
X12637417Y-31432311D01*
X12623131Y-31375169D01*
X12623131Y-31303740D01*
X12637417Y-31246597D01*
X12651703Y-31218026D01*
X12665988Y-31203740D01*
X12694560Y-31189454D01*
X13151703Y-31489454D02*
X13151703Y-31189454D01*
X13280274Y-31489454D02*
X13280274Y-31332311D01*
X13265988Y-31303740D01*
X13237417Y-31289454D01*
X13194560Y-31289454D01*
X13165988Y-31303740D01*
X13151703Y-31318026D01*
X13465988Y-31489454D02*
X13437417Y-31475169D01*
X13423131Y-31460883D01*
X13408846Y-31432311D01*
X13408846Y-31346597D01*
X13423131Y-31318026D01*
X13437417Y-31303740D01*
X13465988Y-31289454D01*
X13508846Y-31289454D01*
X13537417Y-31303740D01*
X13551703Y-31318026D01*
X13565988Y-31346597D01*
X13565988Y-31432311D01*
X13551703Y-31460883D01*
X13537417Y-31475169D01*
X13508846Y-31489454D01*
X13465988Y-31489454D01*
X13737417Y-31489454D02*
X13708846Y-31475169D01*
X13694560Y-31446597D01*
X13694560Y-31189454D01*
X13965988Y-31475169D02*
X13937417Y-31489454D01*
X13880274Y-31489454D01*
X13851703Y-31475169D01*
X13837417Y-31446597D01*
X13837417Y-31332311D01*
X13851703Y-31303740D01*
X13880274Y-31289454D01*
X13937417Y-31289454D01*
X13965988Y-31303740D01*
X13980274Y-31332311D01*
X13980274Y-31360883D01*
X13837417Y-31389454D01*
X14094560Y-31475169D02*
X14123131Y-31489454D01*
X14180274Y-31489454D01*
X14208846Y-31475169D01*
X14223131Y-31446597D01*
X14223131Y-31432311D01*
X14208846Y-31403740D01*
X14180274Y-31389454D01*
X14137417Y-31389454D01*
X14108846Y-31375169D01*
X14094560Y-31346597D01*
X14094560Y-31332311D01*
X14108846Y-31303740D01*
X14137417Y-31289454D01*
X14180274Y-31289454D01*
X14208846Y-31303740D01*
X14323131Y-31603740D02*
X14337417Y-31589454D01*
X14365988Y-31546597D01*
X14380274Y-31518026D01*
X14394560Y-31475169D01*
X14408846Y-31403740D01*
X14408846Y-31346597D01*
X14394560Y-31275169D01*
X14380274Y-31232311D01*
X14365988Y-31203740D01*
X14337417Y-31160883D01*
X14323131Y-31146597D01*
X14865988Y-31603740D02*
X14851703Y-31589454D01*
X14823131Y-31546597D01*
X14808846Y-31518026D01*
X14794560Y-31475169D01*
X14780274Y-31403740D01*
X14780274Y-31346597D01*
X14794560Y-31275169D01*
X14808846Y-31232311D01*
X14823131Y-31203740D01*
X14851703Y-31160883D01*
X14865988Y-31146597D01*
X14980274Y-31289454D02*
X14980274Y-31489454D01*
X14980274Y-31318026D02*
X14994560Y-31303740D01*
X15023131Y-31289454D01*
X15065988Y-31289454D01*
X15094560Y-31303740D01*
X15108846Y-31332311D01*
X15108846Y-31489454D01*
X15294560Y-31489454D02*
X15265988Y-31475169D01*
X15251703Y-31460883D01*
X15237417Y-31432311D01*
X15237417Y-31346597D01*
X15251703Y-31318026D01*
X15265988Y-31303740D01*
X15294560Y-31289454D01*
X15337417Y-31289454D01*
X15365988Y-31303740D01*
X15380274Y-31318026D01*
X15394560Y-31346597D01*
X15394560Y-31432311D01*
X15380274Y-31460883D01*
X15365988Y-31475169D01*
X15337417Y-31489454D01*
X15294560Y-31489454D01*
X15480274Y-31289454D02*
X15594560Y-31289454D01*
X15523131Y-31189454D02*
X15523131Y-31446597D01*
X15537417Y-31475169D01*
X15565988Y-31489454D01*
X15594560Y-31489454D01*
X15923131Y-31289454D02*
X15923131Y-31589454D01*
X15923131Y-31303740D02*
X15951703Y-31289454D01*
X16008846Y-31289454D01*
X16037417Y-31303740D01*
X16051703Y-31318026D01*
X16065988Y-31346597D01*
X16065988Y-31432311D01*
X16051703Y-31460883D01*
X16037417Y-31475169D01*
X16008846Y-31489454D01*
X15951703Y-31489454D01*
X15923131Y-31475169D01*
X16237417Y-31489454D02*
X16208846Y-31475169D01*
X16194560Y-31446597D01*
X16194560Y-31189454D01*
X16480274Y-31489454D02*
X16480274Y-31332311D01*
X16465988Y-31303740D01*
X16437417Y-31289454D01*
X16380274Y-31289454D01*
X16351703Y-31303740D01*
X16480274Y-31475169D02*
X16451703Y-31489454D01*
X16380274Y-31489454D01*
X16351703Y-31475169D01*
X16337417Y-31446597D01*
X16337417Y-31418026D01*
X16351703Y-31389454D01*
X16380274Y-31375169D01*
X16451703Y-31375169D01*
X16480274Y-31360883D01*
X16580274Y-31289454D02*
X16694560Y-31289454D01*
X16623131Y-31189454D02*
X16623131Y-31446597D01*
X16637417Y-31475169D01*
X16665988Y-31489454D01*
X16694560Y-31489454D01*
X16908846Y-31475169D02*
X16880274Y-31489454D01*
X16823131Y-31489454D01*
X16794560Y-31475169D01*
X16780274Y-31446597D01*
X16780274Y-31332311D01*
X16794560Y-31303740D01*
X16823131Y-31289454D01*
X16880274Y-31289454D01*
X16908846Y-31303740D01*
X16923131Y-31332311D01*
X16923131Y-31360883D01*
X16780274Y-31389454D01*
X17180274Y-31489454D02*
X17180274Y-31189454D01*
X17180274Y-31475169D02*
X17151703Y-31489454D01*
X17094560Y-31489454D01*
X17065988Y-31475169D01*
X17051703Y-31460883D01*
X17037417Y-31432311D01*
X17037417Y-31346597D01*
X17051703Y-31318026D01*
X17065988Y-31303740D01*
X17094560Y-31289454D01*
X17151703Y-31289454D01*
X17180274Y-31303740D01*
X17294560Y-31603740D02*
X17308846Y-31589454D01*
X17337417Y-31546597D01*
X17351703Y-31518026D01*
X17365988Y-31475169D01*
X17380274Y-31403740D01*
X17380274Y-31346597D01*
X17365988Y-31275169D01*
X17351703Y-31232311D01*
X17337417Y-31203740D01*
X17308846Y-31160883D01*
X17294560Y-31146597D01*
X6579560Y-31682520D02*
X6979560Y-32082520D01*
X6979560Y-31682520D02*
X6579560Y-32082520D01*
X6979560Y-31882520D02*
G75*
G03*
X6979560Y-31882520I-200000J0D01*
G01*
X7394560Y-31818234D02*
X7394560Y-32018234D01*
X7323131Y-31703949D02*
X7251703Y-31918234D01*
X7437417Y-31918234D01*
X7551703Y-31989663D02*
X7565988Y-32003949D01*
X7551703Y-32018234D01*
X7537417Y-32003949D01*
X7551703Y-31989663D01*
X7551703Y-32018234D01*
X7751703Y-31718234D02*
X7780274Y-31718234D01*
X7808846Y-31732520D01*
X7823131Y-31746806D01*
X7837417Y-31775377D01*
X7851703Y-31832520D01*
X7851703Y-31903949D01*
X7837417Y-31961091D01*
X7823131Y-31989663D01*
X7808846Y-32003949D01*
X7780274Y-32018234D01*
X7751703Y-32018234D01*
X7723131Y-32003949D01*
X7708846Y-31989663D01*
X7694560Y-31961091D01*
X7680274Y-31903949D01*
X7680274Y-31832520D01*
X7694560Y-31775377D01*
X7708846Y-31746806D01*
X7723131Y-31732520D01*
X7751703Y-31718234D01*
X8037417Y-31718234D02*
X8065988Y-31718234D01*
X8094560Y-31732520D01*
X8108846Y-31746806D01*
X8123131Y-31775377D01*
X8137417Y-31832520D01*
X8137417Y-31903949D01*
X8123131Y-31961091D01*
X8108846Y-31989663D01*
X8094560Y-32003949D01*
X8065988Y-32018234D01*
X8037417Y-32018234D01*
X8008846Y-32003949D01*
X7994560Y-31989663D01*
X7980274Y-31961091D01*
X7965988Y-31903949D01*
X7965988Y-31832520D01*
X7980274Y-31775377D01*
X7994560Y-31746806D01*
X8008846Y-31732520D01*
X8037417Y-31718234D01*
X8323131Y-31718234D02*
X8351703Y-31718234D01*
X8380274Y-31732520D01*
X8394560Y-31746806D01*
X8408846Y-31775377D01*
X8423131Y-31832520D01*
X8423131Y-31903949D01*
X8408846Y-31961091D01*
X8394560Y-31989663D01*
X8380274Y-32003949D01*
X8351703Y-32018234D01*
X8323131Y-32018234D01*
X8294560Y-32003949D01*
X8280274Y-31989663D01*
X8265988Y-31961091D01*
X8251703Y-31903949D01*
X8251703Y-31832520D01*
X8265988Y-31775377D01*
X8280274Y-31746806D01*
X8294560Y-31732520D01*
X8323131Y-31718234D01*
X8551703Y-32018234D02*
X8551703Y-31818234D01*
X8551703Y-31846806D02*
X8565988Y-31832520D01*
X8594560Y-31818234D01*
X8637417Y-31818234D01*
X8665988Y-31832520D01*
X8680274Y-31861091D01*
X8680274Y-32018234D01*
X8680274Y-31861091D02*
X8694560Y-31832520D01*
X8723131Y-31818234D01*
X8765988Y-31818234D01*
X8794560Y-31832520D01*
X8808846Y-31861091D01*
X8808846Y-32018234D01*
X8951703Y-32018234D02*
X8951703Y-31818234D01*
X8951703Y-31846806D02*
X8965988Y-31832520D01*
X8994560Y-31818234D01*
X9037417Y-31818234D01*
X9065988Y-31832520D01*
X9080274Y-31861091D01*
X9080274Y-32018234D01*
X9080274Y-31861091D02*
X9094560Y-31832520D01*
X9123131Y-31818234D01*
X9165988Y-31818234D01*
X9194560Y-31832520D01*
X9208846Y-31861091D01*
X9208846Y-32018234D01*
X9794560Y-31703949D02*
X9537417Y-32089663D01*
X10180274Y-31718234D02*
X10208846Y-31718234D01*
X10237417Y-31732520D01*
X10251703Y-31746806D01*
X10265988Y-31775377D01*
X10280274Y-31832520D01*
X10280274Y-31903949D01*
X10265988Y-31961091D01*
X10251703Y-31989663D01*
X10237417Y-32003949D01*
X10208846Y-32018234D01*
X10180274Y-32018234D01*
X10151703Y-32003949D01*
X10137417Y-31989663D01*
X10123131Y-31961091D01*
X10108846Y-31903949D01*
X10108846Y-31832520D01*
X10123131Y-31775377D01*
X10137417Y-31746806D01*
X10151703Y-31732520D01*
X10180274Y-31718234D01*
X10408846Y-31989663D02*
X10423131Y-32003949D01*
X10408846Y-32018234D01*
X10394560Y-32003949D01*
X10408846Y-31989663D01*
X10408846Y-32018234D01*
X10708846Y-32018234D02*
X10537417Y-32018234D01*
X10623131Y-32018234D02*
X10623131Y-31718234D01*
X10594560Y-31761091D01*
X10565988Y-31789663D01*
X10537417Y-31803949D01*
X10980274Y-31718234D02*
X10837417Y-31718234D01*
X10823131Y-31861091D01*
X10837417Y-31846806D01*
X10865988Y-31832520D01*
X10937417Y-31832520D01*
X10965988Y-31846806D01*
X10980274Y-31861091D01*
X10994560Y-31889663D01*
X10994560Y-31961091D01*
X10980274Y-31989663D01*
X10965988Y-32003949D01*
X10937417Y-32018234D01*
X10865988Y-32018234D01*
X10837417Y-32003949D01*
X10823131Y-31989663D01*
X11094560Y-31718234D02*
X11294560Y-31718234D01*
X11165988Y-32018234D01*
X11551703Y-31718234D02*
X11408846Y-31718234D01*
X11394560Y-31861091D01*
X11408846Y-31846806D01*
X11437417Y-31832520D01*
X11508846Y-31832520D01*
X11537417Y-31846806D01*
X11551703Y-31861091D01*
X11565988Y-31889663D01*
X11565988Y-31961091D01*
X11551703Y-31989663D01*
X11537417Y-32003949D01*
X11508846Y-32018234D01*
X11437417Y-32018234D01*
X11408846Y-32003949D01*
X11394560Y-31989663D01*
X11680274Y-31718234D02*
X11680274Y-31775377D01*
X11794560Y-31718234D02*
X11794560Y-31775377D01*
X12237417Y-32132520D02*
X12223131Y-32118234D01*
X12194560Y-32075377D01*
X12180274Y-32046806D01*
X12165988Y-32003949D01*
X12151703Y-31932520D01*
X12151703Y-31875377D01*
X12165988Y-31803949D01*
X12180274Y-31761091D01*
X12194560Y-31732520D01*
X12223131Y-31689663D01*
X12237417Y-31675377D01*
X12365988Y-32018234D02*
X12423131Y-32018234D01*
X12451703Y-32003949D01*
X12465988Y-31989663D01*
X12494560Y-31946806D01*
X12508846Y-31889663D01*
X12508846Y-31775377D01*
X12494560Y-31746806D01*
X12480274Y-31732520D01*
X12451703Y-31718234D01*
X12394560Y-31718234D01*
X12365988Y-31732520D01*
X12351703Y-31746806D01*
X12337417Y-31775377D01*
X12337417Y-31846806D01*
X12351703Y-31875377D01*
X12365988Y-31889663D01*
X12394560Y-31903949D01*
X12451703Y-31903949D01*
X12480274Y-31889663D01*
X12494560Y-31875377D01*
X12508846Y-31846806D01*
X12694560Y-31718234D02*
X12723131Y-31718234D01*
X12751703Y-31732520D01*
X12765988Y-31746806D01*
X12780274Y-31775377D01*
X12794560Y-31832520D01*
X12794560Y-31903949D01*
X12780274Y-31961091D01*
X12765988Y-31989663D01*
X12751703Y-32003949D01*
X12723131Y-32018234D01*
X12694560Y-32018234D01*
X12665988Y-32003949D01*
X12651703Y-31989663D01*
X12637417Y-31961091D01*
X12623131Y-31903949D01*
X12623131Y-31832520D01*
X12637417Y-31775377D01*
X12651703Y-31746806D01*
X12665988Y-31732520D01*
X12694560Y-31718234D01*
X13151703Y-32018234D02*
X13151703Y-31718234D01*
X13280274Y-32018234D02*
X13280274Y-31861091D01*
X13265988Y-31832520D01*
X13237417Y-31818234D01*
X13194560Y-31818234D01*
X13165988Y-31832520D01*
X13151703Y-31846806D01*
X13465988Y-32018234D02*
X13437417Y-32003949D01*
X13423131Y-31989663D01*
X13408846Y-31961091D01*
X13408846Y-31875377D01*
X13423131Y-31846806D01*
X13437417Y-31832520D01*
X13465988Y-31818234D01*
X13508846Y-31818234D01*
X13537417Y-31832520D01*
X13551703Y-31846806D01*
X13565988Y-31875377D01*
X13565988Y-31961091D01*
X13551703Y-31989663D01*
X13537417Y-32003949D01*
X13508846Y-32018234D01*
X13465988Y-32018234D01*
X13737417Y-32018234D02*
X13708846Y-32003949D01*
X13694560Y-31975377D01*
X13694560Y-31718234D01*
X13965988Y-32003949D02*
X13937417Y-32018234D01*
X13880274Y-32018234D01*
X13851703Y-32003949D01*
X13837417Y-31975377D01*
X13837417Y-31861091D01*
X13851703Y-31832520D01*
X13880274Y-31818234D01*
X13937417Y-31818234D01*
X13965988Y-31832520D01*
X13980274Y-31861091D01*
X13980274Y-31889663D01*
X13837417Y-31918234D01*
X14094560Y-32003949D02*
X14123131Y-32018234D01*
X14180274Y-32018234D01*
X14208846Y-32003949D01*
X14223131Y-31975377D01*
X14223131Y-31961091D01*
X14208846Y-31932520D01*
X14180274Y-31918234D01*
X14137417Y-31918234D01*
X14108846Y-31903949D01*
X14094560Y-31875377D01*
X14094560Y-31861091D01*
X14108846Y-31832520D01*
X14137417Y-31818234D01*
X14180274Y-31818234D01*
X14208846Y-31832520D01*
X14323131Y-32132520D02*
X14337417Y-32118234D01*
X14365988Y-32075377D01*
X14380274Y-32046806D01*
X14394560Y-32003949D01*
X14408846Y-31932520D01*
X14408846Y-31875377D01*
X14394560Y-31803949D01*
X14380274Y-31761091D01*
X14365988Y-31732520D01*
X14337417Y-31689663D01*
X14323131Y-31675377D01*
X14865988Y-32132520D02*
X14851703Y-32118234D01*
X14823131Y-32075377D01*
X14808846Y-32046806D01*
X14794560Y-32003949D01*
X14780274Y-31932520D01*
X14780274Y-31875377D01*
X14794560Y-31803949D01*
X14808846Y-31761091D01*
X14823131Y-31732520D01*
X14851703Y-31689663D01*
X14865988Y-31675377D01*
X14980274Y-31818234D02*
X14980274Y-32018234D01*
X14980274Y-31846806D02*
X14994560Y-31832520D01*
X15023131Y-31818234D01*
X15065988Y-31818234D01*
X15094560Y-31832520D01*
X15108846Y-31861091D01*
X15108846Y-32018234D01*
X15294560Y-32018234D02*
X15265988Y-32003949D01*
X15251703Y-31989663D01*
X15237417Y-31961091D01*
X15237417Y-31875377D01*
X15251703Y-31846806D01*
X15265988Y-31832520D01*
X15294560Y-31818234D01*
X15337417Y-31818234D01*
X15365988Y-31832520D01*
X15380274Y-31846806D01*
X15394560Y-31875377D01*
X15394560Y-31961091D01*
X15380274Y-31989663D01*
X15365988Y-32003949D01*
X15337417Y-32018234D01*
X15294560Y-32018234D01*
X15480274Y-31818234D02*
X15594560Y-31818234D01*
X15523131Y-31718234D02*
X15523131Y-31975377D01*
X15537417Y-32003949D01*
X15565988Y-32018234D01*
X15594560Y-32018234D01*
X15923131Y-31818234D02*
X15923131Y-32118234D01*
X15923131Y-31832520D02*
X15951703Y-31818234D01*
X16008846Y-31818234D01*
X16037417Y-31832520D01*
X16051703Y-31846806D01*
X16065988Y-31875377D01*
X16065988Y-31961091D01*
X16051703Y-31989663D01*
X16037417Y-32003949D01*
X16008846Y-32018234D01*
X15951703Y-32018234D01*
X15923131Y-32003949D01*
X16237417Y-32018234D02*
X16208846Y-32003949D01*
X16194560Y-31975377D01*
X16194560Y-31718234D01*
X16480274Y-32018234D02*
X16480274Y-31861091D01*
X16465988Y-31832520D01*
X16437417Y-31818234D01*
X16380274Y-31818234D01*
X16351703Y-31832520D01*
X16480274Y-32003949D02*
X16451703Y-32018234D01*
X16380274Y-32018234D01*
X16351703Y-32003949D01*
X16337417Y-31975377D01*
X16337417Y-31946806D01*
X16351703Y-31918234D01*
X16380274Y-31903949D01*
X16451703Y-31903949D01*
X16480274Y-31889663D01*
X16580274Y-31818234D02*
X16694560Y-31818234D01*
X16623131Y-31718234D02*
X16623131Y-31975377D01*
X16637417Y-32003949D01*
X16665988Y-32018234D01*
X16694560Y-32018234D01*
X16908846Y-32003949D02*
X16880274Y-32018234D01*
X16823131Y-32018234D01*
X16794560Y-32003949D01*
X16780274Y-31975377D01*
X16780274Y-31861091D01*
X16794560Y-31832520D01*
X16823131Y-31818234D01*
X16880274Y-31818234D01*
X16908846Y-31832520D01*
X16923131Y-31861091D01*
X16923131Y-31889663D01*
X16780274Y-31918234D01*
X17180274Y-32018234D02*
X17180274Y-31718234D01*
X17180274Y-32003949D02*
X17151703Y-32018234D01*
X17094560Y-32018234D01*
X17065988Y-32003949D01*
X17051703Y-31989663D01*
X17037417Y-31961091D01*
X17037417Y-31875377D01*
X17051703Y-31846806D01*
X17065988Y-31832520D01*
X17094560Y-31818234D01*
X17151703Y-31818234D01*
X17180274Y-31832520D01*
X17294560Y-32132520D02*
X17308846Y-32118234D01*
X17337417Y-32075377D01*
X17351703Y-32046806D01*
X17365988Y-32003949D01*
X17380274Y-31932520D01*
X17380274Y-31875377D01*
X17365988Y-31803949D01*
X17351703Y-31761091D01*
X17337417Y-31732520D01*
X17308846Y-31689663D01*
X17294560Y-31675377D01*
M02*
