%TF.GenerationSoftware,KiCad,Pcbnew,(5.1.10)-1*%
%TF.CreationDate,2021-11-03T19:39:02-04:00*%
%TF.ProjectId,custom_keyboard plate,63757374-6f6d-45f6-9b65-79626f617264,rev?*%
%TF.SameCoordinates,Original*%
%TF.FileFunction,Profile,NP*%
%FSLAX46Y46*%
G04 Gerber Fmt 4.6, Leading zero omitted, Abs format (unit mm)*
G04 Created by KiCad (PCBNEW (5.1.10)-1) date 2021-11-03 19:39:02*
%MOMM*%
%LPD*%
G01*
G04 APERTURE LIST*
%TA.AperFunction,Profile*%
%ADD10C,0.200000*%
%TD*%
%TA.AperFunction,Profile*%
%ADD11C,0.100000*%
%TD*%
G04 APERTURE END LIST*
D10*
X239057200Y-233202200D02*
G75*
G02*
X239557200Y-232702200I500000J0D01*
G01*
X252557200Y-232702200D02*
G75*
G02*
X253057200Y-233202200I0J-500000D01*
G01*
X220007200Y-233202200D02*
G75*
G02*
X220507200Y-232702200I500000J0D01*
G01*
X253057200Y-233202200D02*
X253057200Y-246202200D01*
X234007200Y-246202200D02*
G75*
G02*
X233507200Y-246702200I-500000J0D01*
G01*
X239557200Y-232702200D02*
X252557200Y-232702200D01*
X239057200Y-233202200D02*
X239057200Y-246202200D01*
X239557200Y-246702200D02*
X252557200Y-246702200D01*
X220507200Y-246702200D02*
G75*
G02*
X220007200Y-246202200I0J500000D01*
G01*
X233507200Y-232702200D02*
G75*
G02*
X234007200Y-233202200I0J-500000D01*
G01*
X192413450Y-286302200D02*
G75*
G02*
X191913450Y-286802200I-500000J0D01*
G01*
X303850950Y-284802200D02*
X316850950Y-284802200D01*
X303350950Y-271302200D02*
X303350950Y-284302200D01*
X150663450Y-271302200D02*
X150663450Y-284302200D01*
X303850950Y-270802200D02*
X316850950Y-270802200D01*
X86657200Y-271302200D02*
X86657200Y-284302200D01*
X137163450Y-284802200D02*
X150163450Y-284802200D01*
X136663450Y-271302200D02*
G75*
G02*
X137163450Y-270802200I500000J0D01*
G01*
X232413450Y-270802200D02*
X245413450Y-270802200D01*
X113350950Y-270802200D02*
X126350950Y-270802200D01*
X137163450Y-284802200D02*
G75*
G02*
X136663450Y-284302200I0J500000D01*
G01*
X150163450Y-270802200D02*
G75*
G02*
X150663450Y-271302200I0J-500000D01*
G01*
X87157200Y-284802200D02*
X100157199Y-284802200D01*
X87157200Y-270802200D02*
X100157199Y-270802200D01*
X438294700Y-251752200D02*
G75*
G02*
X438794700Y-252252200I0J-500000D01*
G01*
X136663450Y-271302200D02*
X136663450Y-284302200D01*
X160975950Y-270802200D02*
X173975950Y-270802200D01*
X174475950Y-284302200D02*
G75*
G02*
X173975950Y-284802200I-500000J0D01*
G01*
X232413450Y-284802200D02*
X245413450Y-284802200D01*
X231913450Y-271302200D02*
X231913450Y-284302200D01*
X285913450Y-286802200D02*
X291913450Y-286802200D01*
X285913450Y-286802200D02*
G75*
G02*
X285413450Y-286302200I0J500000D01*
G01*
X424794700Y-252252200D02*
G75*
G02*
X425294700Y-251752200I500000J0D01*
G01*
X425294700Y-265752200D02*
G75*
G02*
X424794700Y-265252200I0J500000D01*
G01*
X100657199Y-271302200D02*
X100657199Y-284302200D01*
X137163450Y-270802200D02*
X150163450Y-270802200D01*
X160475950Y-271302200D02*
X160475950Y-284302200D01*
X245413450Y-270802200D02*
G75*
G02*
X245913450Y-271302200I0J-500000D01*
G01*
X126850950Y-271302200D02*
X126850950Y-284302200D01*
X113350950Y-284802200D02*
X126350950Y-284802200D01*
X126350950Y-270802200D02*
G75*
G02*
X126850950Y-271302200I0J-500000D01*
G01*
X150663450Y-284302200D02*
G75*
G02*
X150163450Y-284802200I-500000J0D01*
G01*
X292413450Y-272302200D02*
X292413450Y-286302200D01*
X113350950Y-284802200D02*
G75*
G02*
X112850950Y-284302200I0J500000D01*
G01*
X160475950Y-271302200D02*
G75*
G02*
X160975950Y-270802200I500000J0D01*
G01*
X292413450Y-286302200D02*
G75*
G02*
X291913450Y-286802200I-500000J0D01*
G01*
X291913450Y-271802200D02*
G75*
G02*
X292413450Y-272302200I0J-500000D01*
G01*
X185913450Y-271802200D02*
X191913450Y-271802200D01*
X100157199Y-270802200D02*
G75*
G02*
X100657199Y-271302200I0J-500000D01*
G01*
X87157200Y-284802200D02*
G75*
G02*
X86657200Y-284302200I0J500000D01*
G01*
X231913450Y-271302200D02*
G75*
G02*
X232413450Y-270802200I500000J0D01*
G01*
X438794700Y-252252200D02*
X438794700Y-265252200D01*
X126850950Y-284302200D02*
G75*
G02*
X126350950Y-284802200I-500000J0D01*
G01*
X285413450Y-272302200D02*
G75*
G02*
X285913450Y-271802200I500000J0D01*
G01*
X100657199Y-284302200D02*
G75*
G02*
X100157199Y-284802200I-500000J0D01*
G01*
X245913450Y-284302200D02*
G75*
G02*
X245413450Y-284802200I-500000J0D01*
G01*
X185413450Y-272302200D02*
X185413450Y-286302200D01*
X112850950Y-271302200D02*
X112850950Y-284302200D01*
X86657200Y-271302200D02*
G75*
G02*
X87157200Y-270802200I500000J0D01*
G01*
X112850950Y-271302200D02*
G75*
G02*
X113350950Y-270802200I500000J0D01*
G01*
X174475950Y-271302200D02*
X174475950Y-284302200D01*
X160975950Y-284802200D02*
G75*
G02*
X160475950Y-284302200I0J500000D01*
G01*
X245913450Y-271302200D02*
X245913450Y-284302200D01*
X232413450Y-284802200D02*
G75*
G02*
X231913450Y-284302200I0J500000D01*
G01*
X285913450Y-271802200D02*
X291913450Y-271802200D01*
X160975950Y-284802200D02*
X173975950Y-284802200D01*
X285413450Y-272302200D02*
X285413450Y-286302200D01*
X438794700Y-265252200D02*
G75*
G02*
X438294700Y-265752200I-500000J0D01*
G01*
X185913450Y-286802200D02*
X191913450Y-286802200D01*
X192413450Y-272302200D02*
X192413450Y-286302200D01*
X185413450Y-272302200D02*
G75*
G02*
X185913450Y-271802200I500000J0D01*
G01*
X191913450Y-271802200D02*
G75*
G02*
X192413450Y-272302200I0J-500000D01*
G01*
X185913450Y-286802200D02*
G75*
G02*
X185413450Y-286302200I0J500000D01*
G01*
X173975950Y-270802200D02*
G75*
G02*
X174475950Y-271302200I0J-500000D01*
G01*
X425294700Y-284802200D02*
G75*
G02*
X424794700Y-284302200I0J500000D01*
G01*
X457344700Y-270802200D02*
G75*
G02*
X457844700Y-271302200I0J-500000D01*
G01*
X375288450Y-284802200D02*
X388288450Y-284802200D01*
X351475950Y-270802200D02*
X364475950Y-270802200D01*
X317350950Y-284302200D02*
G75*
G02*
X316850950Y-284802200I-500000J0D01*
G01*
X327663450Y-284802200D02*
G75*
G02*
X327163450Y-284302200I0J500000D01*
G01*
X364975950Y-284302200D02*
G75*
G02*
X364475950Y-284802200I-500000J0D01*
G01*
X438294700Y-270802200D02*
G75*
G02*
X438794700Y-271302200I0J-500000D01*
G01*
X341163450Y-284302200D02*
G75*
G02*
X340663450Y-284802200I-500000J0D01*
G01*
X388788450Y-284302200D02*
G75*
G02*
X388288450Y-284802200I-500000J0D01*
G01*
X374788450Y-271302200D02*
G75*
G02*
X375288450Y-270802200I500000J0D01*
G01*
X340663450Y-270802200D02*
G75*
G02*
X341163450Y-271302200I0J-500000D01*
G01*
X425294700Y-270802200D02*
X438294700Y-270802200D01*
X443844700Y-271302200D02*
G75*
G02*
X444344700Y-270802200I500000J0D01*
G01*
X375288450Y-270802200D02*
X388288450Y-270802200D01*
X405744700Y-271302200D02*
X405744700Y-284302200D01*
X375288450Y-284802200D02*
G75*
G02*
X374788450Y-284302200I0J500000D01*
G01*
X457844700Y-271302200D02*
X457844700Y-284302200D01*
X327663450Y-284802200D02*
X340663450Y-284802200D01*
X374788450Y-271302200D02*
X374788450Y-284302200D01*
X438794700Y-271302200D02*
X438794700Y-284302200D01*
X405744700Y-271302200D02*
G75*
G02*
X406244700Y-270802200I500000J0D01*
G01*
X327163450Y-271302200D02*
X327163450Y-284302200D01*
X327163450Y-271302200D02*
G75*
G02*
X327663450Y-270802200I500000J0D01*
G01*
X443844700Y-271302200D02*
X443844700Y-284302200D01*
X419744700Y-284302200D02*
G75*
G02*
X419244700Y-284802200I-500000J0D01*
G01*
X444344700Y-284802200D02*
X457344700Y-284802200D01*
X350975950Y-271302200D02*
G75*
G02*
X351475950Y-270802200I500000J0D01*
G01*
X317350950Y-271302200D02*
X317350950Y-284302200D01*
X327663450Y-270802200D02*
X340663450Y-270802200D01*
X316850950Y-270802200D02*
G75*
G02*
X317350950Y-271302200I0J-500000D01*
G01*
X341163450Y-271302200D02*
X341163450Y-284302200D01*
X406244700Y-270802200D02*
X419244700Y-270802200D01*
X425294700Y-284802200D02*
X438294700Y-284802200D01*
X364975950Y-271302200D02*
X364975950Y-284302200D01*
X424794700Y-271302200D02*
G75*
G02*
X425294700Y-270802200I500000J0D01*
G01*
X419744700Y-271302200D02*
X419744700Y-284302200D01*
X419244700Y-270802200D02*
G75*
G02*
X419744700Y-271302200I0J-500000D01*
G01*
X406244700Y-284802200D02*
X419244700Y-284802200D01*
X438794700Y-284302200D02*
G75*
G02*
X438294700Y-284802200I-500000J0D01*
G01*
X388288450Y-270802200D02*
G75*
G02*
X388788450Y-271302200I0J-500000D01*
G01*
X424794700Y-271302200D02*
X424794700Y-284302200D01*
X444344700Y-270802200D02*
X457344700Y-270802200D01*
X350975950Y-271302200D02*
X350975950Y-284302200D01*
X351475950Y-284802200D02*
X364475950Y-284802200D01*
X351475950Y-284802200D02*
G75*
G02*
X350975950Y-284302200I0J500000D01*
G01*
X388788450Y-271302200D02*
X388788450Y-284302200D01*
X457844700Y-284302200D02*
G75*
G02*
X457344700Y-284802200I-500000J0D01*
G01*
X303350950Y-271302200D02*
G75*
G02*
X303850950Y-270802200I500000J0D01*
G01*
X406244700Y-284802200D02*
G75*
G02*
X405744700Y-284302200I0J500000D01*
G01*
X303850950Y-284802200D02*
G75*
G02*
X303350950Y-284302200I0J500000D01*
G01*
X444344700Y-284802200D02*
G75*
G02*
X443844700Y-284302200I0J500000D01*
G01*
X364475950Y-270802200D02*
G75*
G02*
X364975950Y-271302200I0J-500000D01*
G01*
X195407200Y-232702200D02*
G75*
G02*
X195907200Y-233202200I0J-500000D01*
G01*
X200957200Y-233202200D02*
G75*
G02*
X201457200Y-232702200I500000J0D01*
G01*
X182407200Y-246702200D02*
G75*
G02*
X181907200Y-246202200I0J500000D01*
G01*
X214957199Y-246202200D02*
G75*
G02*
X214457199Y-246702200I-500000J0D01*
G01*
X214457199Y-232702200D02*
G75*
G02*
X214957199Y-233202200I0J-500000D01*
G01*
X220507200Y-232702200D02*
X233507200Y-232702200D01*
X220507200Y-246702200D02*
X233507200Y-246702200D01*
X220007200Y-233202200D02*
X220007200Y-246202200D01*
X234007200Y-233202200D02*
X234007200Y-246202200D01*
X195907200Y-233202200D02*
X195907200Y-246202200D01*
X195907200Y-246202200D02*
G75*
G02*
X195407200Y-246702200I-500000J0D01*
G01*
X201457200Y-232702200D02*
X214457199Y-232702200D01*
X201457200Y-246702200D02*
X214457199Y-246702200D01*
X181907200Y-233202200D02*
G75*
G02*
X182407200Y-232702200I500000J0D01*
G01*
X214957199Y-233202200D02*
X214957199Y-246202200D01*
X200957200Y-233202200D02*
X200957200Y-246202200D01*
X201457200Y-246702200D02*
G75*
G02*
X200957200Y-246202200I0J500000D01*
G01*
X310207200Y-233202200D02*
X310207200Y-246202200D01*
X315757200Y-246702200D02*
X328757200Y-246702200D01*
X348307200Y-233202200D02*
X348307200Y-246202200D01*
X277657200Y-246702200D02*
G75*
G02*
X277157200Y-246202200I0J500000D01*
G01*
X296207200Y-233202200D02*
G75*
G02*
X296707200Y-232702200I500000J0D01*
G01*
X334307200Y-233202200D02*
G75*
G02*
X334807200Y-232702200I500000J0D01*
G01*
X329257200Y-233202200D02*
X329257200Y-246202200D01*
X258607200Y-246702200D02*
G75*
G02*
X258107200Y-246202200I0J500000D01*
G01*
X309707200Y-232702200D02*
G75*
G02*
X310207200Y-233202200I0J-500000D01*
G01*
X365263450Y-233202200D02*
G75*
G02*
X365763450Y-232702200I500000J0D01*
G01*
X365763450Y-246702200D02*
G75*
G02*
X365263450Y-246202200I0J500000D01*
G01*
X296707200Y-232702200D02*
X309707200Y-232702200D01*
X380701450Y-234202200D02*
X380701450Y-248202200D01*
X315757200Y-246702200D02*
G75*
G02*
X315257200Y-246202200I0J500000D01*
G01*
X291157200Y-246202200D02*
G75*
G02*
X290657200Y-246702200I-500000J0D01*
G01*
X379263450Y-233202200D02*
X379263450Y-246202200D01*
X378763450Y-232702200D02*
G75*
G02*
X379263450Y-233202200I0J-500000D01*
G01*
X387201450Y-233702200D02*
G75*
G02*
X387701450Y-234202200I0J-500000D01*
G01*
X356825450Y-234202200D02*
X356825450Y-248202200D01*
X290657200Y-232702200D02*
G75*
G02*
X291157200Y-233202200I0J-500000D01*
G01*
X365763450Y-232702200D02*
X378763450Y-232702200D01*
X277157200Y-233202200D02*
X277157200Y-246202200D01*
X291157200Y-233202200D02*
X291157200Y-246202200D01*
X277157200Y-233202200D02*
G75*
G02*
X277657200Y-232702200I500000J0D01*
G01*
X381201450Y-248702200D02*
G75*
G02*
X380701450Y-248202200I0J500000D01*
G01*
X356825450Y-234202200D02*
G75*
G02*
X357325450Y-233702200I500000J0D01*
G01*
X100657199Y-252252200D02*
X100657199Y-265252200D01*
X86657200Y-252252200D02*
G75*
G02*
X87157200Y-251752200I500000J0D01*
G01*
X100157199Y-251752200D02*
G75*
G02*
X100657199Y-252252200I0J-500000D01*
G01*
X334307200Y-233202200D02*
X334307200Y-246202200D01*
X334807200Y-246702200D02*
G75*
G02*
X334307200Y-246202200I0J500000D01*
G01*
X363825450Y-234202200D02*
X363825450Y-248202200D01*
X296207200Y-233202200D02*
X296207200Y-246202200D01*
X363825450Y-248202200D02*
G75*
G02*
X363325450Y-248702200I-500000J0D01*
G01*
X334807200Y-232702200D02*
X347807200Y-232702200D01*
X357325450Y-248702200D02*
G75*
G02*
X356825450Y-248202200I0J500000D01*
G01*
X315757200Y-232702200D02*
X328757200Y-232702200D01*
X315257200Y-233202200D02*
X315257200Y-246202200D01*
X348307200Y-246202200D02*
G75*
G02*
X347807200Y-246702200I-500000J0D01*
G01*
X347807200Y-232702200D02*
G75*
G02*
X348307200Y-233202200I0J-500000D01*
G01*
X334807200Y-246702200D02*
X347807200Y-246702200D01*
X296707200Y-246702200D02*
G75*
G02*
X296207200Y-246202200I0J500000D01*
G01*
X365763450Y-246702200D02*
X378763450Y-246702200D01*
X365263450Y-233202200D02*
X365263450Y-246202200D01*
X277657200Y-246702200D02*
X290657200Y-246702200D01*
X381201450Y-248702200D02*
X387201450Y-248702200D01*
X387701450Y-234202200D02*
X387701450Y-248202200D01*
X329257200Y-246202200D02*
G75*
G02*
X328757200Y-246702200I-500000J0D01*
G01*
X328757200Y-232702200D02*
G75*
G02*
X329257200Y-233202200I0J-500000D01*
G01*
X379263450Y-246202200D02*
G75*
G02*
X378763450Y-246702200I-500000J0D01*
G01*
X381201450Y-233702200D02*
X387201450Y-233702200D01*
X380701450Y-234202200D02*
G75*
G02*
X381201450Y-233702200I500000J0D01*
G01*
X387701450Y-248202200D02*
G75*
G02*
X387201450Y-248702200I-500000J0D01*
G01*
X357325450Y-233702200D02*
X363325450Y-233702200D01*
X357325450Y-248702200D02*
X363325450Y-248702200D01*
X315257200Y-233202200D02*
G75*
G02*
X315757200Y-232702200I500000J0D01*
G01*
X363325450Y-233702200D02*
G75*
G02*
X363825450Y-234202200I0J-500000D01*
G01*
X87157200Y-251752200D02*
X100157199Y-251752200D01*
X87157200Y-265752200D02*
X100157199Y-265752200D01*
X296707200Y-246702200D02*
X309707200Y-246702200D01*
X86657200Y-252252200D02*
X86657200Y-265252200D01*
X272107200Y-246202200D02*
G75*
G02*
X271607200Y-246702200I-500000J0D01*
G01*
X310207200Y-246202200D02*
G75*
G02*
X309707200Y-246702200I-500000J0D01*
G01*
X277657200Y-232702200D02*
X290657200Y-232702200D01*
X205432200Y-265252200D02*
G75*
G02*
X204932200Y-265752200I-500000J0D01*
G01*
X87157200Y-265752200D02*
G75*
G02*
X86657200Y-265252200I0J500000D01*
G01*
X229532200Y-252252200D02*
G75*
G02*
X230032200Y-251752200I500000J0D01*
G01*
X153832200Y-265752200D02*
X166832200Y-265752200D01*
X243032200Y-251752200D02*
G75*
G02*
X243532200Y-252252200I0J-500000D01*
G01*
X138313950Y-252752200D02*
X144313950Y-252752200D01*
X120937949Y-267252200D02*
G75*
G02*
X120437949Y-267752200I-500000J0D01*
G01*
X153332200Y-252252200D02*
X153332200Y-265252200D01*
X172882200Y-265752200D02*
G75*
G02*
X172382200Y-265252200I0J500000D01*
G01*
X138313950Y-267752200D02*
G75*
G02*
X137813950Y-267252200I0J500000D01*
G01*
X153332200Y-252252200D02*
G75*
G02*
X153832200Y-251752200I500000J0D01*
G01*
X167332200Y-252252200D02*
X167332200Y-265252200D01*
X122375950Y-252252200D02*
X122375950Y-265252200D01*
X122875950Y-265752200D02*
G75*
G02*
X122375950Y-265252200I0J500000D01*
G01*
X136375950Y-265252200D02*
G75*
G02*
X135875950Y-265752200I-500000J0D01*
G01*
X153832200Y-251752200D02*
X166832200Y-251752200D01*
X153832200Y-265752200D02*
G75*
G02*
X153332200Y-265252200I0J500000D01*
G01*
X185882200Y-251752200D02*
G75*
G02*
X186382200Y-252252200I0J-500000D01*
G01*
X186382200Y-265252200D02*
G75*
G02*
X185882200Y-265752200I-500000J0D01*
G01*
X191932200Y-251752200D02*
X204932200Y-251752200D01*
X210482200Y-252252200D02*
G75*
G02*
X210982200Y-251752200I500000J0D01*
G01*
X223982200Y-251752200D02*
G75*
G02*
X224482200Y-252252200I0J-500000D01*
G01*
X122375950Y-252252200D02*
G75*
G02*
X122875950Y-251752200I500000J0D01*
G01*
X210982200Y-265752200D02*
G75*
G02*
X210482200Y-265252200I0J500000D01*
G01*
X138313950Y-267752200D02*
X144313950Y-267752200D01*
X114437950Y-267752200D02*
G75*
G02*
X113937950Y-267252200I0J500000D01*
G01*
X172882200Y-251752200D02*
X185882200Y-251752200D01*
X230032200Y-251752200D02*
X243032200Y-251752200D01*
X114437950Y-267752200D02*
X120437949Y-267752200D01*
X100657199Y-265252200D02*
G75*
G02*
X100157199Y-265752200I-500000J0D01*
G01*
X122875950Y-251752200D02*
X135875950Y-251752200D01*
X136375950Y-252252200D02*
X136375950Y-265252200D01*
X144813950Y-267252200D02*
G75*
G02*
X144313950Y-267752200I-500000J0D01*
G01*
X120937949Y-253252200D02*
X120937949Y-267252200D01*
X113937950Y-253252200D02*
G75*
G02*
X114437950Y-252752200I500000J0D01*
G01*
X166832200Y-251752200D02*
G75*
G02*
X167332200Y-252252200I0J-500000D01*
G01*
X172382200Y-252252200D02*
X172382200Y-265252200D01*
X191432200Y-252252200D02*
G75*
G02*
X191932200Y-251752200I500000J0D01*
G01*
X144813950Y-253252200D02*
X144813950Y-267252200D01*
X137813950Y-253252200D02*
G75*
G02*
X138313950Y-252752200I500000J0D01*
G01*
X204932200Y-251752200D02*
G75*
G02*
X205432200Y-252252200I0J-500000D01*
G01*
X120437949Y-252752200D02*
G75*
G02*
X120937949Y-253252200I0J-500000D01*
G01*
X191932200Y-265752200D02*
G75*
G02*
X191432200Y-265252200I0J500000D01*
G01*
X210982200Y-265752200D02*
X223982200Y-265752200D01*
X144313950Y-252752200D02*
G75*
G02*
X144813950Y-253252200I0J-500000D01*
G01*
X210482200Y-252252200D02*
X210482200Y-265252200D01*
X224482200Y-252252200D02*
X224482200Y-265252200D01*
X114437950Y-252752200D02*
X120437949Y-252752200D01*
X137813950Y-253252200D02*
X137813950Y-267252200D01*
X113937950Y-253252200D02*
X113937950Y-267252200D01*
X172882200Y-265752200D02*
X185882200Y-265752200D01*
X172382200Y-252252200D02*
G75*
G02*
X172882200Y-251752200I500000J0D01*
G01*
X191932200Y-265752200D02*
X204932200Y-265752200D01*
X205432200Y-252252200D02*
X205432200Y-265252200D01*
X230032200Y-265752200D02*
X243032200Y-265752200D01*
X167332200Y-265252200D02*
G75*
G02*
X166832200Y-265752200I-500000J0D01*
G01*
X229532200Y-252252200D02*
X229532200Y-265252200D01*
X135875950Y-251752200D02*
G75*
G02*
X136375950Y-252252200I0J-500000D01*
G01*
X224482200Y-265252200D02*
G75*
G02*
X223982200Y-265752200I-500000J0D01*
G01*
X243532200Y-252252200D02*
X243532200Y-265252200D01*
X210982200Y-251752200D02*
X223982200Y-251752200D01*
X191432200Y-252252200D02*
X191432200Y-265252200D01*
X122875950Y-265752200D02*
X135875950Y-265752200D01*
X186382200Y-252252200D02*
X186382200Y-265252200D01*
X281132200Y-251752200D02*
G75*
G02*
X281632200Y-252252200I0J-500000D01*
G01*
X352562950Y-252752200D02*
X358562950Y-252752200D01*
X352062950Y-253252200D02*
X352062950Y-267252200D01*
X268132200Y-265752200D02*
G75*
G02*
X267632200Y-265252200I0J500000D01*
G01*
X306232200Y-265752200D02*
G75*
G02*
X305732200Y-265252200I0J500000D01*
G01*
X300182200Y-251752200D02*
G75*
G02*
X300682200Y-252252200I0J-500000D01*
G01*
X305732200Y-252252200D02*
G75*
G02*
X306232200Y-251752200I500000J0D01*
G01*
X338282200Y-251752200D02*
G75*
G02*
X338782200Y-252252200I0J-500000D01*
G01*
X243532200Y-265252200D02*
G75*
G02*
X243032200Y-265752200I-500000J0D01*
G01*
X319232200Y-251752200D02*
G75*
G02*
X319732200Y-252252200I0J-500000D01*
G01*
X338782200Y-265252200D02*
G75*
G02*
X338282200Y-265752200I-500000J0D01*
G01*
X248582200Y-252252200D02*
G75*
G02*
X249082200Y-251752200I500000J0D01*
G01*
X268132200Y-251752200D02*
X281132200Y-251752200D01*
X319732200Y-252252200D02*
X319732200Y-265252200D01*
X360500950Y-252252200D02*
X360500950Y-265252200D01*
X325282200Y-265752200D02*
G75*
G02*
X324782200Y-265252200I0J500000D01*
G01*
X374000950Y-251752200D02*
G75*
G02*
X374500950Y-252252200I0J-500000D01*
G01*
X376438950Y-252752200D02*
X382438950Y-252752200D01*
X376438950Y-267752200D02*
G75*
G02*
X375938950Y-267252200I0J500000D01*
G01*
X359062950Y-253252200D02*
X359062950Y-267252200D01*
X360500950Y-252252200D02*
G75*
G02*
X361000950Y-251752200I500000J0D01*
G01*
X352062950Y-253252200D02*
G75*
G02*
X352562950Y-252752200I500000J0D01*
G01*
X300682200Y-265252200D02*
G75*
G02*
X300182200Y-265752200I-500000J0D01*
G01*
X361000950Y-251752200D02*
X374000950Y-251752200D01*
X249082200Y-265752200D02*
X262082200Y-265752200D01*
X262082200Y-251752200D02*
G75*
G02*
X262582200Y-252252200I0J-500000D01*
G01*
X375938950Y-253252200D02*
X375938950Y-267252200D01*
X352562950Y-267752200D02*
X358562950Y-267752200D01*
X358562950Y-252752200D02*
G75*
G02*
X359062950Y-253252200I0J-500000D01*
G01*
X268132200Y-265752200D02*
X281132200Y-265752200D01*
X249082200Y-265752200D02*
G75*
G02*
X248582200Y-265252200I0J500000D01*
G01*
X306232200Y-251752200D02*
X319232200Y-251752200D01*
X305732200Y-252252200D02*
X305732200Y-265252200D01*
X382438950Y-252752200D02*
G75*
G02*
X382938950Y-253252200I0J-500000D01*
G01*
X324782200Y-252252200D02*
X324782200Y-265252200D01*
X287182200Y-265752200D02*
X300182200Y-265752200D01*
X262582200Y-252252200D02*
X262582200Y-265252200D01*
X281632200Y-265252200D02*
G75*
G02*
X281132200Y-265752200I-500000J0D01*
G01*
X267632200Y-252252200D02*
X267632200Y-265252200D01*
X281632200Y-252252200D02*
X281632200Y-265252200D01*
X287182200Y-251752200D02*
X300182200Y-251752200D01*
X300682200Y-252252200D02*
X300682200Y-265252200D01*
X248582200Y-252252200D02*
X248582200Y-265252200D01*
X287182200Y-265752200D02*
G75*
G02*
X286682200Y-265252200I0J500000D01*
G01*
X306232200Y-265752200D02*
X319232200Y-265752200D01*
X325282200Y-265752200D02*
X338282200Y-265752200D01*
X361000950Y-265752200D02*
G75*
G02*
X360500950Y-265252200I0J500000D01*
G01*
X249082200Y-251752200D02*
X262082200Y-251752200D01*
X267632200Y-252252200D02*
G75*
G02*
X268132200Y-251752200I500000J0D01*
G01*
X374500950Y-252252200D02*
X374500950Y-265252200D01*
X325282200Y-251752200D02*
X338282200Y-251752200D01*
X319732200Y-265252200D02*
G75*
G02*
X319232200Y-265752200I-500000J0D01*
G01*
X230032200Y-265752200D02*
G75*
G02*
X229532200Y-265252200I0J500000D01*
G01*
X324782200Y-252252200D02*
G75*
G02*
X325282200Y-251752200I500000J0D01*
G01*
X361000950Y-265752200D02*
X374000950Y-265752200D01*
X286682200Y-252252200D02*
X286682200Y-265252200D01*
X374500950Y-265252200D02*
G75*
G02*
X374000950Y-265752200I-500000J0D01*
G01*
X262582200Y-265252200D02*
G75*
G02*
X262082200Y-265752200I-500000J0D01*
G01*
X286682200Y-252252200D02*
G75*
G02*
X287182200Y-251752200I500000J0D01*
G01*
X376438950Y-267752200D02*
X382438950Y-267752200D01*
X382938950Y-253252200D02*
X382938950Y-267252200D01*
X338782200Y-252252200D02*
X338782200Y-265252200D01*
X375938950Y-253252200D02*
G75*
G02*
X376438950Y-252752200I500000J0D01*
G01*
X382938950Y-267252200D02*
G75*
G02*
X382438950Y-267752200I-500000J0D01*
G01*
X424794700Y-252252200D02*
X424794700Y-265252200D01*
X425294700Y-265752200D02*
X438294700Y-265752200D01*
X352562950Y-267752200D02*
G75*
G02*
X352062950Y-267252200I0J500000D01*
G01*
X359062950Y-267252200D02*
G75*
G02*
X358562950Y-267752200I-500000J0D01*
G01*
X425294700Y-251752200D02*
X438294700Y-251752200D01*
X258107200Y-233202200D02*
X258107200Y-246202200D01*
X239557200Y-246702200D02*
G75*
G02*
X239057200Y-246202200I0J500000D01*
G01*
X258107200Y-233202200D02*
G75*
G02*
X258607200Y-232702200I500000J0D01*
G01*
X258607200Y-246702200D02*
X271607200Y-246702200D01*
X253057200Y-246202200D02*
G75*
G02*
X252557200Y-246702200I-500000J0D01*
G01*
X258607200Y-232702200D02*
X271607200Y-232702200D01*
X271607200Y-232702200D02*
G75*
G02*
X272107200Y-233202200I0J-500000D01*
G01*
X272107200Y-233202200D02*
X272107200Y-246202200D01*
X272394700Y-166527200D02*
G75*
G02*
X272894700Y-166027200I500000J0D01*
G01*
X266844700Y-166027200D02*
G75*
G02*
X267344700Y-166527200I0J-500000D01*
G01*
X267344700Y-179527199D02*
G75*
G02*
X266844700Y-180027199I-500000J0D01*
G01*
X285894700Y-166027200D02*
G75*
G02*
X286394700Y-166527200I0J-500000D01*
G01*
X272894700Y-180027199D02*
G75*
G02*
X272394700Y-179527199I0J500000D01*
G01*
X247794700Y-166027200D02*
G75*
G02*
X248294700Y-166527200I0J-500000D01*
G01*
X291944700Y-166027200D02*
X304944700Y-166027200D01*
X291944700Y-180027199D02*
X304944700Y-180027199D01*
X253844700Y-180027199D02*
G75*
G02*
X253344700Y-179527199I0J500000D01*
G01*
X253344700Y-166527200D02*
G75*
G02*
X253844700Y-166027200I500000J0D01*
G01*
X291444700Y-166527200D02*
X291444700Y-179527199D01*
X253844700Y-180027199D02*
X266844700Y-180027199D01*
X248294700Y-179527199D02*
G75*
G02*
X247794700Y-180027199I-500000J0D01*
G01*
X286394700Y-179527199D02*
G75*
G02*
X285894700Y-180027199I-500000J0D01*
G01*
X305444700Y-166527200D02*
X305444700Y-179527199D01*
X291444700Y-166527200D02*
G75*
G02*
X291944700Y-166027200I500000J0D01*
G01*
X253844700Y-166027200D02*
X266844700Y-166027200D01*
X234794700Y-180027199D02*
G75*
G02*
X234294700Y-179527199I0J500000D01*
G01*
X253344700Y-166527200D02*
X253344700Y-179527199D01*
X267344700Y-166527200D02*
X267344700Y-179527199D01*
X272894700Y-166027200D02*
X285894700Y-166027200D01*
X272894700Y-180027199D02*
X285894700Y-180027199D01*
X272394700Y-166527200D02*
X272394700Y-179527199D01*
X286394700Y-166527200D02*
X286394700Y-179527199D01*
X100157199Y-194602200D02*
G75*
G02*
X100657199Y-195102200I0J-500000D01*
G01*
X334019700Y-179527199D02*
G75*
G02*
X333519700Y-180027199I-500000J0D01*
G01*
X377669700Y-180027199D02*
G75*
G02*
X377169700Y-179527199I0J500000D01*
G01*
X444344700Y-166027200D02*
X457344700Y-166027200D01*
X377669700Y-180027199D02*
X390669700Y-180027199D01*
X358619700Y-180027199D02*
X371619700Y-180027199D01*
X406244700Y-166027200D02*
X419244700Y-166027200D01*
X444344700Y-180027199D02*
X457344700Y-180027199D01*
X377169700Y-166527200D02*
X377169700Y-179527199D01*
X87157200Y-208602200D02*
X100157199Y-208602200D01*
X100657199Y-195102200D02*
X100657199Y-208102200D01*
X304944700Y-166027200D02*
G75*
G02*
X305444700Y-166527200I0J-500000D01*
G01*
X353069700Y-166527200D02*
X353069700Y-179527199D01*
X353069700Y-179527199D02*
G75*
G02*
X352569700Y-180027199I-500000J0D01*
G01*
X358619700Y-166027200D02*
X371619700Y-166027200D01*
X371619700Y-166027200D02*
G75*
G02*
X372119700Y-166527200I0J-500000D01*
G01*
X419744700Y-166527200D02*
X419744700Y-179527199D01*
X87157200Y-194602200D02*
X100157199Y-194602200D01*
X86657200Y-195102200D02*
X86657200Y-208102200D01*
X87157200Y-208602200D02*
G75*
G02*
X86657200Y-208102200I0J500000D01*
G01*
X457344700Y-166027200D02*
G75*
G02*
X457844700Y-166527200I0J-500000D01*
G01*
X100657199Y-208102200D02*
G75*
G02*
X100157199Y-208602200I-500000J0D01*
G01*
X352569700Y-166027200D02*
G75*
G02*
X353069700Y-166527200I0J-500000D01*
G01*
X110969700Y-194602200D02*
X123969700Y-194602200D01*
X358119700Y-166527200D02*
X358119700Y-179527199D01*
X110969700Y-208602200D02*
X123969700Y-208602200D01*
X110469700Y-195102200D02*
X110469700Y-208102200D01*
X124469700Y-195102200D02*
X124469700Y-208102200D01*
X110469700Y-195102200D02*
G75*
G02*
X110969700Y-194602200I500000J0D01*
G01*
X339569700Y-166027200D02*
X352569700Y-166027200D01*
X320019700Y-166527200D02*
X320019700Y-179527199D01*
X339569700Y-180027199D02*
X352569700Y-180027199D01*
X339069700Y-166527200D02*
G75*
G02*
X339569700Y-166027200I500000J0D01*
G01*
X320519700Y-166027200D02*
X333519700Y-166027200D01*
X305444700Y-179527199D02*
G75*
G02*
X304944700Y-180027199I-500000J0D01*
G01*
X320019700Y-166527200D02*
G75*
G02*
X320519700Y-166027200I500000J0D01*
G01*
X372119700Y-179527199D02*
G75*
G02*
X371619700Y-180027199I-500000J0D01*
G01*
X390669700Y-166027200D02*
G75*
G02*
X391169700Y-166527200I0J-500000D01*
G01*
X358119700Y-166527200D02*
G75*
G02*
X358619700Y-166027200I500000J0D01*
G01*
X391169700Y-179527199D02*
G75*
G02*
X390669700Y-180027199I-500000J0D01*
G01*
X419244700Y-166027200D02*
G75*
G02*
X419744700Y-166527200I0J-500000D01*
G01*
X391169700Y-166527200D02*
X391169700Y-179527199D01*
X320519700Y-180027199D02*
G75*
G02*
X320019700Y-179527199I0J500000D01*
G01*
X406244700Y-180027199D02*
G75*
G02*
X405744700Y-179527199I0J500000D01*
G01*
X419744700Y-179527199D02*
G75*
G02*
X419244700Y-180027199I-500000J0D01*
G01*
X443844700Y-166527200D02*
X443844700Y-179527199D01*
X457844700Y-166527200D02*
X457844700Y-179527199D01*
X333519700Y-166027200D02*
G75*
G02*
X334019700Y-166527200I0J-500000D01*
G01*
X372119700Y-166527200D02*
X372119700Y-179527199D01*
X405744700Y-166527200D02*
X405744700Y-179527199D01*
X405744700Y-166527200D02*
G75*
G02*
X406244700Y-166027200I500000J0D01*
G01*
X291944700Y-180027199D02*
G75*
G02*
X291444700Y-179527199I0J500000D01*
G01*
X320519700Y-180027199D02*
X333519700Y-180027199D01*
X443844700Y-166527200D02*
G75*
G02*
X444344700Y-166027200I500000J0D01*
G01*
X444344700Y-180027199D02*
G75*
G02*
X443844700Y-179527199I0J500000D01*
G01*
X406244700Y-180027199D02*
X419244700Y-180027199D01*
X457844700Y-179527199D02*
G75*
G02*
X457344700Y-180027199I-500000J0D01*
G01*
X339569700Y-180027199D02*
G75*
G02*
X339069700Y-179527199I0J500000D01*
G01*
X86657200Y-195102200D02*
G75*
G02*
X87157200Y-194602200I500000J0D01*
G01*
X358619700Y-180027199D02*
G75*
G02*
X358119700Y-179527199I0J500000D01*
G01*
X334019700Y-166527200D02*
X334019700Y-179527199D01*
X377169700Y-166527200D02*
G75*
G02*
X377669700Y-166027200I500000J0D01*
G01*
X339069700Y-166527200D02*
X339069700Y-179527199D01*
X377669700Y-166027200D02*
X390669700Y-166027200D01*
X100657199Y-179527199D02*
G75*
G02*
X100157199Y-180027199I-500000J0D01*
G01*
X87157200Y-180027199D02*
G75*
G02*
X86657200Y-179527199I0J500000D01*
G01*
X168119700Y-180027199D02*
X181119700Y-180027199D01*
X162569700Y-166527200D02*
X162569700Y-179527199D01*
X186669700Y-166527200D02*
X186669700Y-179527199D01*
X148569700Y-166527200D02*
G75*
G02*
X149069700Y-166027200I500000J0D01*
G01*
X123969700Y-166027200D02*
G75*
G02*
X124469700Y-166527200I0J-500000D01*
G01*
X162069700Y-166027200D02*
G75*
G02*
X162569700Y-166527200I0J-500000D01*
G01*
X168119700Y-166027200D02*
X181119700Y-166027200D01*
X181619700Y-179527199D02*
G75*
G02*
X181119700Y-180027199I-500000J0D01*
G01*
X186669700Y-166527200D02*
G75*
G02*
X187169700Y-166027200I500000J0D01*
G01*
X206219700Y-166027200D02*
X219219700Y-166027200D01*
X87157200Y-166027200D02*
X100157199Y-166027200D01*
X110469700Y-166527200D02*
X110469700Y-179527199D01*
X87157200Y-180027199D02*
X100157199Y-180027199D01*
X124469700Y-179527199D02*
G75*
G02*
X123969700Y-180027199I-500000J0D01*
G01*
X149069700Y-166027200D02*
X162069700Y-166027200D01*
X149069700Y-180027199D02*
G75*
G02*
X148569700Y-179527199I0J500000D01*
G01*
X187169700Y-166027200D02*
X200169700Y-166027200D01*
X168119700Y-180027199D02*
G75*
G02*
X167619700Y-179527199I0J500000D01*
G01*
X167619700Y-166527200D02*
G75*
G02*
X168119700Y-166027200I500000J0D01*
G01*
X110969700Y-180027199D02*
X123969700Y-180027199D01*
X181619700Y-166527200D02*
X181619700Y-179527199D01*
X181119700Y-166027200D02*
G75*
G02*
X181619700Y-166527200I0J-500000D01*
G01*
X100157199Y-166027200D02*
G75*
G02*
X100657199Y-166527200I0J-500000D01*
G01*
X124469700Y-166527200D02*
X124469700Y-179527199D01*
X110469700Y-166527200D02*
G75*
G02*
X110969700Y-166027200I500000J0D01*
G01*
X187169700Y-180027199D02*
X200169700Y-180027199D01*
X200169700Y-166027200D02*
G75*
G02*
X200669700Y-166527200I0J-500000D01*
G01*
X187169700Y-180027199D02*
G75*
G02*
X186669700Y-179527199I0J500000D01*
G01*
X206219700Y-180027199D02*
X219219700Y-180027199D01*
X219719700Y-166527200D02*
X219719700Y-179527199D01*
X205719700Y-166527200D02*
X205719700Y-179527199D01*
X219219700Y-166027200D02*
G75*
G02*
X219719700Y-166527200I0J-500000D01*
G01*
X110969700Y-166027200D02*
X123969700Y-166027200D01*
X206219700Y-180027199D02*
G75*
G02*
X205719700Y-179527199I0J500000D01*
G01*
X234794700Y-166027200D02*
X247794700Y-166027200D01*
X234794700Y-180027199D02*
X247794700Y-180027199D01*
X200669700Y-166527200D02*
X200669700Y-179527199D01*
X205719700Y-166527200D02*
G75*
G02*
X206219700Y-166027200I500000J0D01*
G01*
X86657200Y-166527200D02*
G75*
G02*
X87157200Y-166027200I500000J0D01*
G01*
X86657200Y-166527200D02*
X86657200Y-179527199D01*
X110969700Y-180027199D02*
G75*
G02*
X110469700Y-179527199I0J500000D01*
G01*
X167619700Y-166527200D02*
X167619700Y-179527199D01*
X234294700Y-166527200D02*
X234294700Y-179527199D01*
X248294700Y-166527200D02*
X248294700Y-179527199D01*
X200669700Y-179527199D02*
G75*
G02*
X200169700Y-180027199I-500000J0D01*
G01*
X162569700Y-179527199D02*
G75*
G02*
X162069700Y-180027199I-500000J0D01*
G01*
X219719700Y-179527199D02*
G75*
G02*
X219219700Y-180027199I-500000J0D01*
G01*
X149069700Y-180027199D02*
X162069700Y-180027199D01*
X234294700Y-166527200D02*
G75*
G02*
X234794700Y-166027200I500000J0D01*
G01*
X100657199Y-166527200D02*
X100657199Y-179527199D01*
X148569700Y-166527200D02*
X148569700Y-179527199D01*
X191144700Y-214152200D02*
X191144700Y-227152200D01*
X158594700Y-227652200D02*
G75*
G02*
X158094700Y-227152200I0J500000D01*
G01*
X190644700Y-213652200D02*
G75*
G02*
X191144700Y-214152200I0J-500000D01*
G01*
X139044700Y-214152200D02*
G75*
G02*
X139544700Y-213652200I500000J0D01*
G01*
X129232200Y-214152200D02*
X129232200Y-227152200D01*
X152544700Y-213652200D02*
G75*
G02*
X153044700Y-214152200I0J-500000D01*
G01*
X139544700Y-227652200D02*
G75*
G02*
X139044700Y-227152200I0J500000D01*
G01*
X177144700Y-214152200D02*
X177144700Y-227152200D01*
X100657199Y-227152200D02*
G75*
G02*
X100157199Y-227652200I-500000J0D01*
G01*
X139544700Y-227652200D02*
X152544700Y-227652200D01*
X139044700Y-214152200D02*
X139044700Y-227152200D01*
X172094700Y-214152200D02*
X172094700Y-227152200D01*
X177644700Y-227652200D02*
G75*
G02*
X177144700Y-227152200I0J500000D01*
G01*
X100657199Y-214152200D02*
X100657199Y-227152200D01*
X196694700Y-213652200D02*
X209694700Y-213652200D01*
X215244700Y-214152200D02*
X215244700Y-227152200D01*
X215744700Y-227652200D02*
X228744700Y-227652200D01*
X229244700Y-214152200D02*
X229244700Y-227152200D01*
X86657200Y-214152200D02*
X86657200Y-227152200D01*
X215244700Y-214152200D02*
G75*
G02*
X215744700Y-213652200I500000J0D01*
G01*
X228744700Y-213652200D02*
G75*
G02*
X229244700Y-214152200I0J-500000D01*
G01*
X153044700Y-214152200D02*
X153044700Y-227152200D01*
X115732200Y-213652200D02*
X128732200Y-213652200D01*
X115732200Y-227652200D02*
X128732200Y-227652200D01*
X177144700Y-214152200D02*
G75*
G02*
X177644700Y-213652200I500000J0D01*
G01*
X129232200Y-227152200D02*
G75*
G02*
X128732200Y-227652200I-500000J0D01*
G01*
X234794700Y-213652200D02*
X247794700Y-213652200D01*
X196694700Y-227652200D02*
G75*
G02*
X196194700Y-227152200I0J500000D01*
G01*
X139544700Y-213652200D02*
X152544700Y-213652200D01*
X196194700Y-214152200D02*
X196194700Y-227152200D01*
X171594700Y-213652200D02*
G75*
G02*
X172094700Y-214152200I0J-500000D01*
G01*
X210194700Y-227152200D02*
G75*
G02*
X209694700Y-227652200I-500000J0D01*
G01*
X234294700Y-214152200D02*
G75*
G02*
X234794700Y-213652200I500000J0D01*
G01*
X172094700Y-227152200D02*
G75*
G02*
X171594700Y-227652200I-500000J0D01*
G01*
X247794700Y-213652200D02*
G75*
G02*
X248294700Y-214152200I0J-500000D01*
G01*
X248294700Y-227152200D02*
G75*
G02*
X247794700Y-227652200I-500000J0D01*
G01*
X153044700Y-227152200D02*
G75*
G02*
X152544700Y-227652200I-500000J0D01*
G01*
X253844700Y-213652200D02*
X266844700Y-213652200D01*
X158094700Y-214152200D02*
G75*
G02*
X158594700Y-213652200I500000J0D01*
G01*
X115732200Y-227652200D02*
G75*
G02*
X115232200Y-227152200I0J500000D01*
G01*
X158594700Y-213652200D02*
X171594700Y-213652200D01*
X210194700Y-214152200D02*
X210194700Y-227152200D01*
X215744700Y-213652200D02*
X228744700Y-213652200D01*
X215744700Y-227652200D02*
G75*
G02*
X215244700Y-227152200I0J500000D01*
G01*
X229244700Y-227152200D02*
G75*
G02*
X228744700Y-227652200I-500000J0D01*
G01*
X234294700Y-214152200D02*
X234294700Y-227152200D01*
X87157200Y-227652200D02*
G75*
G02*
X86657200Y-227152200I0J500000D01*
G01*
X128732200Y-213652200D02*
G75*
G02*
X129232200Y-214152200I0J-500000D01*
G01*
X86657200Y-214152200D02*
G75*
G02*
X87157200Y-213652200I500000J0D01*
G01*
X191144700Y-227152200D02*
G75*
G02*
X190644700Y-227652200I-500000J0D01*
G01*
X248294700Y-214152200D02*
X248294700Y-227152200D01*
X234794700Y-227652200D02*
G75*
G02*
X234294700Y-227152200I0J500000D01*
G01*
X177644700Y-227652200D02*
X190644700Y-227652200D01*
X234794700Y-227652200D02*
X247794700Y-227652200D01*
X100157199Y-213652200D02*
G75*
G02*
X100657199Y-214152200I0J-500000D01*
G01*
X115232200Y-214152200D02*
X115232200Y-227152200D01*
X115232200Y-214152200D02*
G75*
G02*
X115732200Y-213652200I500000J0D01*
G01*
X158594700Y-227652200D02*
X171594700Y-227652200D01*
X177644700Y-213652200D02*
X190644700Y-213652200D01*
X196694700Y-227652200D02*
X209694700Y-227652200D01*
X196194700Y-214152200D02*
G75*
G02*
X196694700Y-213652200I500000J0D01*
G01*
X209694700Y-213652200D02*
G75*
G02*
X210194700Y-214152200I0J-500000D01*
G01*
X158094700Y-214152200D02*
X158094700Y-227152200D01*
X444344700Y-208602200D02*
X457344700Y-208602200D01*
X457344700Y-194602200D02*
G75*
G02*
X457844700Y-195102200I0J-500000D01*
G01*
X444344700Y-194602200D02*
X457344700Y-194602200D01*
X457844700Y-208102200D02*
G75*
G02*
X457344700Y-208602200I-500000J0D01*
G01*
X405744700Y-195102200D02*
X405744700Y-208102200D01*
X366206700Y-210102200D02*
G75*
G02*
X365706700Y-210602200I-500000J0D01*
G01*
X438794700Y-195102200D02*
X438794700Y-208102200D01*
X419244700Y-194602200D02*
G75*
G02*
X419744700Y-195102200I0J-500000D01*
G01*
X406244700Y-208602200D02*
X419244700Y-208602200D01*
X87157200Y-213652200D02*
X100157199Y-213652200D01*
X419744700Y-208102200D02*
G75*
G02*
X419244700Y-208602200I-500000J0D01*
G01*
X425294700Y-208602200D02*
G75*
G02*
X424794700Y-208102200I0J500000D01*
G01*
X444344700Y-208602200D02*
G75*
G02*
X443844700Y-208102200I0J500000D01*
G01*
X87157200Y-227652200D02*
X100157199Y-227652200D01*
X424794700Y-195102200D02*
X424794700Y-208102200D01*
X424794700Y-195102200D02*
G75*
G02*
X425294700Y-194602200I500000J0D01*
G01*
X419744700Y-195102200D02*
X419744700Y-208102200D01*
X457844700Y-195102200D02*
X457844700Y-208102200D01*
X406244700Y-208602200D02*
G75*
G02*
X405744700Y-208102200I0J500000D01*
G01*
X405744700Y-195102200D02*
G75*
G02*
X406244700Y-194602200I500000J0D01*
G01*
X406244700Y-194602200D02*
X419244700Y-194602200D01*
X425294700Y-194602200D02*
X438294700Y-194602200D01*
X359706700Y-210602200D02*
G75*
G02*
X359206700Y-210102200I0J500000D01*
G01*
X438294700Y-194602200D02*
G75*
G02*
X438794700Y-195102200I0J-500000D01*
G01*
X425294700Y-208602200D02*
X438294700Y-208602200D01*
X438794700Y-208102200D02*
G75*
G02*
X438294700Y-208602200I-500000J0D01*
G01*
X443844700Y-195102200D02*
X443844700Y-208102200D01*
X443844700Y-195102200D02*
G75*
G02*
X444344700Y-194602200I500000J0D01*
G01*
X424794700Y-214152200D02*
G75*
G02*
X425294700Y-213652200I500000J0D01*
G01*
X438294700Y-213652200D02*
G75*
G02*
X438794700Y-214152200I0J-500000D01*
G01*
X419744700Y-227152200D02*
G75*
G02*
X419244700Y-227652200I-500000J0D01*
G01*
X372907200Y-227652200D02*
G75*
G02*
X372407200Y-227152200I0J500000D01*
G01*
X425294700Y-213652200D02*
X438294700Y-213652200D01*
X405744700Y-214152200D02*
G75*
G02*
X406244700Y-213652200I500000J0D01*
G01*
X419244700Y-213652200D02*
G75*
G02*
X419744700Y-214152200I0J-500000D01*
G01*
X425294700Y-227652200D02*
X438294700Y-227652200D01*
X425294700Y-227652200D02*
G75*
G02*
X424794700Y-227152200I0J500000D01*
G01*
X444344700Y-227652200D02*
X457344700Y-227652200D01*
X457844700Y-214152200D02*
X457844700Y-227152200D01*
X457344700Y-213652200D02*
G75*
G02*
X457844700Y-214152200I0J-500000D01*
G01*
X444344700Y-227652200D02*
G75*
G02*
X443844700Y-227152200I0J500000D01*
G01*
X87157200Y-232702200D02*
X100157199Y-232702200D01*
X406244700Y-227652200D02*
G75*
G02*
X405744700Y-227152200I0J500000D01*
G01*
X457844700Y-227152200D02*
G75*
G02*
X457344700Y-227652200I-500000J0D01*
G01*
X87157200Y-246702200D02*
X100157199Y-246702200D01*
X405744700Y-214152200D02*
X405744700Y-227152200D01*
X100657199Y-233202200D02*
X100657199Y-246202200D01*
X419744700Y-214152200D02*
X419744700Y-227152200D01*
X444344700Y-213652200D02*
X457344700Y-213652200D01*
X86657200Y-233202200D02*
G75*
G02*
X87157200Y-232702200I500000J0D01*
G01*
X443844700Y-214152200D02*
X443844700Y-227152200D01*
X100157199Y-232702200D02*
G75*
G02*
X100657199Y-233202200I0J-500000D01*
G01*
X87157200Y-246702200D02*
G75*
G02*
X86657200Y-246202200I0J500000D01*
G01*
X424794700Y-214152200D02*
X424794700Y-227152200D01*
X406244700Y-227652200D02*
X419244700Y-227652200D01*
X406244700Y-213652200D02*
X419244700Y-213652200D01*
X438794700Y-214152200D02*
X438794700Y-227152200D01*
X438794700Y-227152200D02*
G75*
G02*
X438294700Y-227652200I-500000J0D01*
G01*
X443844700Y-214152200D02*
G75*
G02*
X444344700Y-213652200I500000J0D01*
G01*
X86657200Y-233202200D02*
X86657200Y-246202200D01*
X385907200Y-213652200D02*
G75*
G02*
X386407200Y-214152200I0J-500000D01*
G01*
X386407200Y-227152200D02*
G75*
G02*
X385907200Y-227652200I-500000J0D01*
G01*
X329544700Y-214152200D02*
G75*
G02*
X330044700Y-213652200I500000J0D01*
G01*
X348594699Y-214152200D02*
G75*
G02*
X349094699Y-213652200I500000J0D01*
G01*
X286394700Y-227152200D02*
G75*
G02*
X285894700Y-227652200I-500000J0D01*
G01*
X253844700Y-227652200D02*
G75*
G02*
X253344700Y-227152200I0J500000D01*
G01*
X285894700Y-213652200D02*
G75*
G02*
X286394700Y-214152200I0J-500000D01*
G01*
X343544700Y-214152200D02*
X343544700Y-227152200D01*
X266844700Y-213652200D02*
G75*
G02*
X267344700Y-214152200I0J-500000D01*
G01*
X253844700Y-227652200D02*
X266844700Y-227652200D01*
X291444700Y-214152200D02*
X291444700Y-227152200D01*
X304944700Y-213652200D02*
G75*
G02*
X305444700Y-214152200I0J-500000D01*
G01*
X310994700Y-227652200D02*
G75*
G02*
X310494700Y-227152200I0J500000D01*
G01*
X272894700Y-227652200D02*
G75*
G02*
X272394700Y-227152200I0J500000D01*
G01*
X310994700Y-213652200D02*
X323994700Y-213652200D01*
X362594700Y-227152200D02*
G75*
G02*
X362094700Y-227652200I-500000J0D01*
G01*
X372907200Y-213652200D02*
X385907200Y-213652200D01*
X372907200Y-227652200D02*
X385907200Y-227652200D01*
X291444700Y-214152200D02*
G75*
G02*
X291944700Y-213652200I500000J0D01*
G01*
X291944700Y-213652200D02*
X304944700Y-213652200D01*
X330044700Y-227652200D02*
X343044700Y-227652200D01*
X253344700Y-214152200D02*
X253344700Y-227152200D01*
X310494700Y-214152200D02*
X310494700Y-227152200D01*
X349094699Y-227652200D02*
X362094700Y-227652200D01*
X372407200Y-214152200D02*
G75*
G02*
X372907200Y-213652200I500000J0D01*
G01*
X267344700Y-214152200D02*
X267344700Y-227152200D01*
X323994700Y-213652200D02*
G75*
G02*
X324494700Y-214152200I0J-500000D01*
G01*
X349094699Y-213652200D02*
X362094700Y-213652200D01*
X272394700Y-214152200D02*
X272394700Y-227152200D01*
X324494700Y-227152200D02*
G75*
G02*
X323994700Y-227652200I-500000J0D01*
G01*
X343544700Y-227152200D02*
G75*
G02*
X343044700Y-227652200I-500000J0D01*
G01*
X330044700Y-227652200D02*
G75*
G02*
X329544700Y-227152200I0J500000D01*
G01*
X291944700Y-227652200D02*
G75*
G02*
X291444700Y-227152200I0J500000D01*
G01*
X362594700Y-214152200D02*
X362594700Y-227152200D01*
X272894700Y-227652200D02*
X285894700Y-227652200D01*
X329544700Y-214152200D02*
X329544700Y-227152200D01*
X310994700Y-227652200D02*
X323994700Y-227652200D01*
X324494700Y-214152200D02*
X324494700Y-227152200D01*
X305444700Y-227152200D02*
G75*
G02*
X304944700Y-227652200I-500000J0D01*
G01*
X362094700Y-213652200D02*
G75*
G02*
X362594700Y-214152200I0J-500000D01*
G01*
X305444700Y-214152200D02*
X305444700Y-227152200D01*
X330044700Y-213652200D02*
X343044700Y-213652200D01*
X272894700Y-213652200D02*
X285894700Y-213652200D01*
X267344700Y-227152200D02*
G75*
G02*
X266844700Y-227652200I-500000J0D01*
G01*
X272394700Y-214152200D02*
G75*
G02*
X272894700Y-213652200I500000J0D01*
G01*
X291944700Y-227652200D02*
X304944700Y-227652200D01*
X343044700Y-213652200D02*
G75*
G02*
X343544700Y-214152200I0J-500000D01*
G01*
X348594699Y-214152200D02*
X348594699Y-227152200D01*
X253344700Y-214152200D02*
G75*
G02*
X253844700Y-213652200I500000J0D01*
G01*
X310494700Y-214152200D02*
G75*
G02*
X310994700Y-213652200I500000J0D01*
G01*
X349094699Y-227652200D02*
G75*
G02*
X348594699Y-227152200I0J500000D01*
G01*
X372407200Y-214152200D02*
X372407200Y-227152200D01*
X286394700Y-214152200D02*
X286394700Y-227152200D01*
X386407200Y-214152200D02*
X386407200Y-227152200D01*
X314469700Y-194602200D02*
G75*
G02*
X314969700Y-195102200I0J-500000D01*
G01*
X262869700Y-195102200D02*
X262869700Y-208102200D01*
X295919700Y-208102200D02*
G75*
G02*
X295419700Y-208602200I-500000J0D01*
G01*
X334019700Y-195102200D02*
X334019700Y-208102200D01*
X282419700Y-208602200D02*
X295419700Y-208602200D01*
X301469700Y-194602200D02*
X314469700Y-194602200D01*
X300969700Y-195102200D02*
G75*
G02*
X301469700Y-194602200I500000J0D01*
G01*
X301469700Y-208602200D02*
X314469700Y-208602200D01*
X339069700Y-195102200D02*
X339069700Y-208102200D01*
X353069700Y-195102200D02*
X353069700Y-208102200D01*
X367644700Y-195102200D02*
X367644700Y-208102200D01*
X333519700Y-194602200D02*
G75*
G02*
X334019700Y-195102200I0J-500000D01*
G01*
X383582700Y-195602200D02*
X389582700Y-195602200D01*
X383582700Y-210602200D02*
X389582700Y-210602200D01*
X320019700Y-195102200D02*
G75*
G02*
X320519700Y-194602200I500000J0D01*
G01*
X263369700Y-208602200D02*
G75*
G02*
X262869700Y-208102200I0J500000D01*
G01*
X383082700Y-196102200D02*
X383082700Y-210102200D01*
X295919700Y-195102200D02*
X295919700Y-208102200D01*
X300969700Y-195102200D02*
X300969700Y-208102200D01*
X281919700Y-195102200D02*
G75*
G02*
X282419700Y-194602200I500000J0D01*
G01*
X320019700Y-195102200D02*
X320019700Y-208102200D01*
X314969700Y-208102200D02*
G75*
G02*
X314469700Y-208602200I-500000J0D01*
G01*
X320519700Y-194602200D02*
X333519700Y-194602200D01*
X320519700Y-208602200D02*
X333519700Y-208602200D01*
X276369700Y-194602200D02*
G75*
G02*
X276869700Y-195102200I0J-500000D01*
G01*
X367644700Y-195102200D02*
G75*
G02*
X368144700Y-194602200I500000J0D01*
G01*
X390082700Y-196102200D02*
X390082700Y-210102200D01*
X359206700Y-196102200D02*
X359206700Y-210102200D01*
X276869700Y-208102200D02*
G75*
G02*
X276369700Y-208602200I-500000J0D01*
G01*
X263369700Y-208602200D02*
X276369700Y-208602200D01*
X282419700Y-194602200D02*
X295419700Y-194602200D01*
X320519700Y-208602200D02*
G75*
G02*
X320019700Y-208102200I0J500000D01*
G01*
X381144700Y-194602200D02*
G75*
G02*
X381644700Y-195102200I0J-500000D01*
G01*
X381644700Y-208102200D02*
G75*
G02*
X381144700Y-208602200I-500000J0D01*
G01*
X390082700Y-210102200D02*
G75*
G02*
X389582700Y-210602200I-500000J0D01*
G01*
X339569700Y-208602200D02*
G75*
G02*
X339069700Y-208102200I0J500000D01*
G01*
X339069700Y-195102200D02*
G75*
G02*
X339569700Y-194602200I500000J0D01*
G01*
X368144700Y-194602200D02*
X381144700Y-194602200D01*
X262869700Y-195102200D02*
G75*
G02*
X263369700Y-194602200I500000J0D01*
G01*
X334019700Y-208102200D02*
G75*
G02*
X333519700Y-208602200I-500000J0D01*
G01*
X339569700Y-194602200D02*
X352569700Y-194602200D01*
X352569700Y-194602200D02*
G75*
G02*
X353069700Y-195102200I0J-500000D01*
G01*
X381644700Y-195102200D02*
X381644700Y-208102200D01*
X368144700Y-208602200D02*
G75*
G02*
X367644700Y-208102200I0J500000D01*
G01*
X301469700Y-208602200D02*
G75*
G02*
X300969700Y-208102200I0J500000D01*
G01*
X383582700Y-210602200D02*
G75*
G02*
X383082700Y-210102200I0J500000D01*
G01*
X366206700Y-196102200D02*
X366206700Y-210102200D01*
X263369700Y-194602200D02*
X276369700Y-194602200D01*
X281919700Y-195102200D02*
X281919700Y-208102200D01*
X339569700Y-208602200D02*
X352569700Y-208602200D01*
X244319700Y-208602200D02*
G75*
G02*
X243819700Y-208102200I0J500000D01*
G01*
X383082700Y-196102200D02*
G75*
G02*
X383582700Y-195602200I500000J0D01*
G01*
X389582700Y-195602200D02*
G75*
G02*
X390082700Y-196102200I0J-500000D01*
G01*
X359706700Y-210602200D02*
X365706700Y-210602200D01*
X359206700Y-196102200D02*
G75*
G02*
X359706700Y-195602200I500000J0D01*
G01*
X314969700Y-195102200D02*
X314969700Y-208102200D01*
X353069700Y-208102200D02*
G75*
G02*
X352569700Y-208602200I-500000J0D01*
G01*
X295419700Y-194602200D02*
G75*
G02*
X295919700Y-195102200I0J-500000D01*
G01*
X368144700Y-208602200D02*
X381144700Y-208602200D01*
X365706700Y-195602200D02*
G75*
G02*
X366206700Y-196102200I0J-500000D01*
G01*
X282419700Y-208602200D02*
G75*
G02*
X281919700Y-208102200I0J500000D01*
G01*
X257819700Y-208102200D02*
G75*
G02*
X257319700Y-208602200I-500000J0D01*
G01*
X359706700Y-195602200D02*
X365706700Y-195602200D01*
X276869700Y-195102200D02*
X276869700Y-208102200D01*
X162569700Y-195102200D02*
X162569700Y-208102200D01*
X238769700Y-208102200D02*
G75*
G02*
X238269700Y-208602200I-500000J0D01*
G01*
X244319700Y-194602200D02*
X257319700Y-194602200D01*
X206219700Y-208602200D02*
G75*
G02*
X205719700Y-208102200I0J500000D01*
G01*
X244319700Y-208602200D02*
X257319700Y-208602200D01*
X181119700Y-194602200D02*
G75*
G02*
X181619700Y-195102200I0J-500000D01*
G01*
X205719700Y-195102200D02*
G75*
G02*
X206219700Y-194602200I500000J0D01*
G01*
X219719700Y-208102200D02*
G75*
G02*
X219219700Y-208602200I-500000J0D01*
G01*
X257319700Y-194602200D02*
G75*
G02*
X257819700Y-195102200I0J-500000D01*
G01*
X130019700Y-208602200D02*
X143019700Y-208602200D01*
X200669700Y-195102200D02*
X200669700Y-208102200D01*
X124469700Y-208102200D02*
G75*
G02*
X123969700Y-208602200I-500000J0D01*
G01*
X162569700Y-208102200D02*
G75*
G02*
X162069700Y-208602200I-500000J0D01*
G01*
X181619700Y-195102200D02*
X181619700Y-208102200D01*
X167619700Y-195102200D02*
G75*
G02*
X168119700Y-194602200I500000J0D01*
G01*
X219219700Y-194602200D02*
G75*
G02*
X219719700Y-195102200I0J-500000D01*
G01*
X225269700Y-194602200D02*
X238269700Y-194602200D01*
X225269700Y-208602200D02*
X238269700Y-208602200D01*
X238769700Y-195102200D02*
X238769700Y-208102200D01*
X243819700Y-195102200D02*
X243819700Y-208102200D01*
X257819700Y-195102200D02*
X257819700Y-208102200D01*
X168119700Y-208602200D02*
X181119700Y-208602200D01*
X168119700Y-208602200D02*
G75*
G02*
X167619700Y-208102200I0J500000D01*
G01*
X219719700Y-195102200D02*
X219719700Y-208102200D01*
X238269700Y-194602200D02*
G75*
G02*
X238769700Y-195102200I0J-500000D01*
G01*
X243819700Y-195102200D02*
G75*
G02*
X244319700Y-194602200I500000J0D01*
G01*
X186669700Y-195102200D02*
G75*
G02*
X187169700Y-194602200I500000J0D01*
G01*
X130019700Y-194602200D02*
X143019700Y-194602200D01*
X130019700Y-208602200D02*
G75*
G02*
X129519700Y-208102200I0J500000D01*
G01*
X129519700Y-195102200D02*
G75*
G02*
X130019700Y-194602200I500000J0D01*
G01*
X143519700Y-195102200D02*
X143519700Y-208102200D01*
X149069700Y-194602200D02*
X162069700Y-194602200D01*
X148569700Y-195102200D02*
G75*
G02*
X149069700Y-194602200I500000J0D01*
G01*
X162069700Y-194602200D02*
G75*
G02*
X162569700Y-195102200I0J-500000D01*
G01*
X168119700Y-194602200D02*
X181119700Y-194602200D01*
X187169700Y-194602200D02*
X200169700Y-194602200D01*
X123969700Y-194602200D02*
G75*
G02*
X124469700Y-195102200I0J-500000D01*
G01*
X148569700Y-195102200D02*
X148569700Y-208102200D01*
X187169700Y-208602200D02*
X200169700Y-208602200D01*
X187169700Y-208602200D02*
G75*
G02*
X186669700Y-208102200I0J500000D01*
G01*
X110969700Y-208602200D02*
G75*
G02*
X110469700Y-208102200I0J500000D01*
G01*
X149069700Y-208602200D02*
X162069700Y-208602200D01*
X186669700Y-195102200D02*
X186669700Y-208102200D01*
X181619700Y-208102200D02*
G75*
G02*
X181119700Y-208602200I-500000J0D01*
G01*
X200169700Y-194602200D02*
G75*
G02*
X200669700Y-195102200I0J-500000D01*
G01*
X129519700Y-195102200D02*
X129519700Y-208102200D01*
X143019700Y-194602200D02*
G75*
G02*
X143519700Y-195102200I0J-500000D01*
G01*
X200669700Y-208102200D02*
G75*
G02*
X200169700Y-208602200I-500000J0D01*
G01*
X206219700Y-194602200D02*
X219219700Y-194602200D01*
X206219700Y-208602200D02*
X219219700Y-208602200D01*
X205719700Y-195102200D02*
X205719700Y-208102200D01*
X224769700Y-195102200D02*
X224769700Y-208102200D01*
X167619700Y-195102200D02*
X167619700Y-208102200D01*
X143519700Y-208102200D02*
G75*
G02*
X143019700Y-208602200I-500000J0D01*
G01*
X224769700Y-195102200D02*
G75*
G02*
X225269700Y-194602200I500000J0D01*
G01*
X225269700Y-208602200D02*
G75*
G02*
X224769700Y-208102200I0J500000D01*
G01*
X149069700Y-208602200D02*
G75*
G02*
X148569700Y-208102200I0J500000D01*
G01*
X100657199Y-246202200D02*
G75*
G02*
X100157199Y-246702200I-500000J0D01*
G01*
X176857200Y-233202200D02*
X176857200Y-246202200D01*
X176357200Y-232702200D02*
G75*
G02*
X176857200Y-233202200I0J-500000D01*
G01*
X163357200Y-246702200D02*
G75*
G02*
X162857200Y-246202200I0J500000D01*
G01*
X176857200Y-246202200D02*
G75*
G02*
X176357200Y-246702200I-500000J0D01*
G01*
X182407200Y-246702200D02*
X195407200Y-246702200D01*
X181907200Y-233202200D02*
X181907200Y-246202200D01*
X131113450Y-232702200D02*
G75*
G02*
X131613450Y-233202200I0J-500000D01*
G01*
X118113450Y-246702200D02*
G75*
G02*
X117613450Y-246202200I0J500000D01*
G01*
X163357200Y-232702200D02*
X176357200Y-232702200D01*
X117613450Y-233202200D02*
G75*
G02*
X118113450Y-232702200I500000J0D01*
G01*
X144307200Y-232702200D02*
X157307200Y-232702200D01*
X162857200Y-233202200D02*
G75*
G02*
X163357200Y-232702200I500000J0D01*
G01*
X182407200Y-232702200D02*
X195407200Y-232702200D01*
X157807200Y-246202200D02*
G75*
G02*
X157307200Y-246702200I-500000J0D01*
G01*
X157807200Y-233202200D02*
X157807200Y-246202200D01*
X118113450Y-246702200D02*
X131113450Y-246702200D01*
X117613450Y-233202200D02*
X117613450Y-246202200D01*
X144307200Y-246702200D02*
X157307200Y-246702200D01*
X131613450Y-233202200D02*
X131613450Y-246202200D01*
X143807200Y-233202200D02*
X143807200Y-246202200D01*
X157307200Y-232702200D02*
G75*
G02*
X157807200Y-233202200I0J-500000D01*
G01*
X144307200Y-246702200D02*
G75*
G02*
X143807200Y-246202200I0J500000D01*
G01*
X162857200Y-233202200D02*
X162857200Y-246202200D01*
X163357200Y-246702200D02*
X176357200Y-246702200D01*
X143807200Y-233202200D02*
G75*
G02*
X144307200Y-232702200I500000J0D01*
G01*
X131613450Y-246202200D02*
G75*
G02*
X131113450Y-246702200I-500000J0D01*
G01*
X118113450Y-232702200D02*
X131113450Y-232702200D01*
D11*
X451615300Y-233347800D02*
X412724000Y-233347800D01*
X451615300Y-246047000D02*
X451615300Y-233347800D01*
X412724000Y-246047000D02*
X451615300Y-246047000D01*
X412724000Y-233347800D02*
X412724000Y-246047000D01*
X465108200Y-287319400D02*
X465108200Y-256365100D01*
X465108200Y-195250200D02*
X465108200Y-163502200D01*
X465901900Y-196043900D02*
G75*
G02*
X465108200Y-195250200I0J793700D01*
G01*
X467489300Y-196043900D02*
X465901900Y-196043900D01*
X465901900Y-255571400D02*
X467489300Y-255571400D01*
X465108200Y-256365100D02*
G75*
G02*
X465901900Y-255571400I793700J0D01*
G01*
X469076700Y-253984000D02*
G75*
G02*
X467489300Y-255571400I-1587400J0D01*
G01*
X469076700Y-197631300D02*
X469076700Y-253984000D01*
X467489300Y-196043900D02*
G75*
G02*
X469076700Y-197631300I0J-1587400D01*
G01*
X79370000Y-287319400D02*
X79370000Y-256365100D01*
X79370000Y-195250200D02*
X79370000Y-163502200D01*
X78576300Y-255571400D02*
G75*
G02*
X79370000Y-256365100I0J-793700D01*
G01*
X75401500Y-253984000D02*
X75401500Y-197631300D01*
X79370000Y-195250200D02*
G75*
G02*
X78576300Y-196043900I-793700J0D01*
G01*
X78576300Y-196043900D02*
X76988900Y-196043900D01*
X75401500Y-197631300D02*
G75*
G02*
X76988900Y-196043900I1587400J0D01*
G01*
X76988900Y-255571400D02*
X78576300Y-255571400D01*
X76988900Y-255571400D02*
G75*
G02*
X75401500Y-253984000I0J1587400D01*
G01*
X121436100Y-294462700D02*
G75*
G03*
X123023500Y-296050100I1587400J0D01*
G01*
X460346000Y-292081600D02*
X412724000Y-292081600D01*
X298431200Y-296050100D02*
G75*
G03*
X300018600Y-294462700I0J1587400D01*
G01*
X182551000Y-292081600D02*
X238903700Y-292081600D01*
X412724000Y-292081600D02*
G75*
G03*
X411930300Y-292875300I0J-793700D01*
G01*
X121436100Y-294462700D02*
X121436100Y-292875300D01*
X181757300Y-292875300D02*
X181757300Y-294462700D01*
X300018600Y-292875300D02*
X300018600Y-294462700D01*
X239697400Y-292875300D02*
G75*
G03*
X238903700Y-292081600I-793700J0D01*
G01*
X411930300Y-292875300D02*
X411930300Y-294462700D01*
X410342900Y-296050100D02*
G75*
G03*
X411930300Y-294462700I0J1587400D01*
G01*
X298431200Y-296050100D02*
X241284800Y-296050100D01*
X351609100Y-292875300D02*
G75*
G03*
X350815400Y-292081600I-793700J0D01*
G01*
X351609100Y-294462700D02*
X351609100Y-292875300D01*
X239697400Y-294462700D02*
X239697400Y-292875300D01*
X300812300Y-292081600D02*
G75*
G03*
X300018600Y-292875300I0J-793700D01*
G01*
X410342900Y-296050100D02*
X353196500Y-296050100D01*
X180169900Y-296050100D02*
G75*
G03*
X181757300Y-294462700I0J1587400D01*
G01*
X84132200Y-292081600D02*
X120642400Y-292081600D01*
X350815400Y-292081600D02*
X300812300Y-292081600D01*
X351609100Y-294462700D02*
G75*
G03*
X353196500Y-296050100I1587400J0D01*
G01*
X182551000Y-292081600D02*
G75*
G03*
X181757300Y-292875300I0J-793700D01*
G01*
X121436100Y-292875300D02*
G75*
G03*
X120642400Y-292081600I-793700J0D01*
G01*
X180169900Y-296050100D02*
X123023500Y-296050100D01*
X239697400Y-294462700D02*
G75*
G03*
X241284800Y-296050100I1587400J0D01*
G01*
X84132200Y-158740000D02*
X120642400Y-158740000D01*
X182551000Y-158740000D02*
X238903700Y-158740000D01*
X350815400Y-158740000D02*
X300812300Y-158740000D01*
X460346000Y-158740000D02*
X412724000Y-158740000D01*
X351609100Y-156358900D02*
G75*
G02*
X353196500Y-154771500I1587400J0D01*
G01*
X351609100Y-156358900D02*
X351609100Y-157946300D01*
X411930300Y-157946300D02*
X411930300Y-156358900D01*
X410342900Y-154771500D02*
G75*
G02*
X411930300Y-156358900I0J-1587400D01*
G01*
X412724000Y-158740000D02*
G75*
G02*
X411930300Y-157946300I0J793700D01*
G01*
X351609100Y-157946300D02*
G75*
G02*
X350815400Y-158740000I-793700J0D01*
G01*
X410342900Y-154771500D02*
X353196500Y-154771500D01*
X180169900Y-154771500D02*
G75*
G02*
X181757300Y-156358900I0J-1587400D01*
G01*
X181757300Y-157946300D02*
X181757300Y-156358900D01*
X121436100Y-157946300D02*
G75*
G02*
X120642400Y-158740000I-793700J0D01*
G01*
X180169900Y-154771500D02*
X123023500Y-154771500D01*
X121436100Y-156358900D02*
X121436100Y-157946300D01*
X182551000Y-158740000D02*
G75*
G02*
X181757300Y-157946300I0J793700D01*
G01*
X121436100Y-156358900D02*
G75*
G02*
X123023500Y-154771500I1587400J0D01*
G01*
X298431200Y-154771500D02*
X241284800Y-154771500D01*
X300018600Y-157946300D02*
X300018600Y-156358900D01*
X239697400Y-156358900D02*
G75*
G02*
X241284800Y-154771500I1587400J0D01*
G01*
X239697400Y-157946300D02*
G75*
G02*
X238903700Y-158740000I-793700J0D01*
G01*
X239697400Y-156358900D02*
X239697400Y-157946300D01*
X300812300Y-158740000D02*
G75*
G02*
X300018600Y-157946300I0J793700D01*
G01*
X298431200Y-154771500D02*
G75*
G02*
X300018600Y-156358900I0J-1587400D01*
G01*
X465108200Y-287319400D02*
G75*
G02*
X460346000Y-292081600I-4762200J0D01*
G01*
X460346000Y-158740000D02*
G75*
G02*
X465108200Y-163502200I0J-4762200D01*
G01*
X79370000Y-163502200D02*
G75*
G02*
X84132200Y-158740000I4762200J0D01*
G01*
X84132200Y-292081600D02*
G75*
G02*
X79370000Y-287319400I0J4762200D01*
G01*
M02*
