%TF.GenerationSoftware,KiCad,Pcbnew,(5.1.10)-1*%
%TF.CreationDate,2021-11-05T16:32:18-04:00*%
%TF.ProjectId,custom_keyboard plate,63757374-6f6d-45f6-9b65-79626f617264,rev?*%
%TF.SameCoordinates,Original*%
%TF.FileFunction,Legend,Bot*%
%TF.FilePolarity,Positive*%
%FSLAX46Y46*%
G04 Gerber Fmt 4.6, Leading zero omitted, Abs format (unit mm)*
G04 Created by KiCad (PCBNEW (5.1.10)-1) date 2021-11-05 16:32:18*
%MOMM*%
%LPD*%
G01*
G04 APERTURE LIST*
%ADD10C,0.150000*%
%ADD11C,0.100000*%
%ADD12C,0.800000*%
G04 APERTURE END LIST*
D10*
X410785180Y-260024076D02*
X410880419Y-259976457D01*
X411070895Y-259976457D01*
X411166133Y-260024076D01*
X411261371Y-260119314D01*
X411308990Y-260214552D01*
X411308990Y-260405028D01*
X411261371Y-260500266D01*
X411166133Y-260595504D01*
X411070895Y-260643123D01*
X410880419Y-260643123D01*
X410785180Y-260595504D01*
X410975657Y-259643123D02*
X411213752Y-259690742D01*
X411451847Y-259833600D01*
X411594704Y-260071695D01*
X411642323Y-260309790D01*
X411594704Y-260547885D01*
X411451847Y-260785980D01*
X411213752Y-260928838D01*
X410975657Y-260976457D01*
X410737561Y-260928838D01*
X410499466Y-260785980D01*
X410356609Y-260547885D01*
X410308990Y-260309790D01*
X410356609Y-260071695D01*
X410499466Y-259833600D01*
X410737561Y-259690742D01*
X410975657Y-259643123D01*
X409166133Y-259881219D02*
X409118514Y-259833600D01*
X409023276Y-259785980D01*
X408785180Y-259785980D01*
X408689942Y-259833600D01*
X408642323Y-259881219D01*
X408594704Y-259976457D01*
X408594704Y-260071695D01*
X408642323Y-260214552D01*
X409213752Y-260785980D01*
X408594704Y-260785980D01*
X407975657Y-259785980D02*
X407880419Y-259785980D01*
X407785180Y-259833600D01*
X407737561Y-259881219D01*
X407689942Y-259976457D01*
X407642323Y-260166933D01*
X407642323Y-260405028D01*
X407689942Y-260595504D01*
X407737561Y-260690742D01*
X407785180Y-260738361D01*
X407880419Y-260785980D01*
X407975657Y-260785980D01*
X408070895Y-260738361D01*
X408118514Y-260690742D01*
X408166133Y-260595504D01*
X408213752Y-260405028D01*
X408213752Y-260166933D01*
X408166133Y-259976457D01*
X408118514Y-259881219D01*
X408070895Y-259833600D01*
X407975657Y-259785980D01*
X407261371Y-259881219D02*
X407213752Y-259833600D01*
X407118514Y-259785980D01*
X406880419Y-259785980D01*
X406785180Y-259833600D01*
X406737561Y-259881219D01*
X406689942Y-259976457D01*
X406689942Y-260071695D01*
X406737561Y-260214552D01*
X407308990Y-260785980D01*
X406689942Y-260785980D01*
X405737561Y-260785980D02*
X406308990Y-260785980D01*
X406023276Y-260785980D02*
X406023276Y-259785980D01*
X406118514Y-259928838D01*
X406213752Y-260024076D01*
X406308990Y-260071695D01*
X404547085Y-260785980D02*
X404547085Y-259785980D01*
X404547085Y-260262171D02*
X403975657Y-260262171D01*
X403975657Y-260785980D02*
X403975657Y-259785980D01*
X403356609Y-260785980D02*
X403451847Y-260738361D01*
X403499466Y-260690742D01*
X403547085Y-260595504D01*
X403547085Y-260309790D01*
X403499466Y-260214552D01*
X403451847Y-260166933D01*
X403356609Y-260119314D01*
X403213752Y-260119314D01*
X403118514Y-260166933D01*
X403070895Y-260214552D01*
X403023276Y-260309790D01*
X403023276Y-260595504D01*
X403070895Y-260690742D01*
X403118514Y-260738361D01*
X403213752Y-260785980D01*
X403356609Y-260785980D01*
X402689942Y-260119314D02*
X402499466Y-260785980D01*
X402308990Y-260309790D01*
X402118514Y-260785980D01*
X401928038Y-260119314D01*
X401118514Y-260785980D02*
X401118514Y-260262171D01*
X401166133Y-260166933D01*
X401261371Y-260119314D01*
X401451847Y-260119314D01*
X401547085Y-260166933D01*
X401118514Y-260738361D02*
X401213752Y-260785980D01*
X401451847Y-260785980D01*
X401547085Y-260738361D01*
X401594704Y-260643123D01*
X401594704Y-260547885D01*
X401547085Y-260452647D01*
X401451847Y-260405028D01*
X401213752Y-260405028D01*
X401118514Y-260357409D01*
X400642323Y-260785980D02*
X400642323Y-260119314D01*
X400642323Y-260309790D02*
X400594704Y-260214552D01*
X400547085Y-260166933D01*
X400451847Y-260119314D01*
X400356609Y-260119314D01*
X399594704Y-260785980D02*
X399594704Y-259785980D01*
X399594704Y-260738361D02*
X399689942Y-260785980D01*
X399880419Y-260785980D01*
X399975657Y-260738361D01*
X400023276Y-260690742D01*
X400070895Y-260595504D01*
X400070895Y-260309790D01*
X400023276Y-260214552D01*
X399975657Y-260166933D01*
X399880419Y-260119314D01*
X399689942Y-260119314D01*
X399594704Y-260166933D01*
X398499466Y-259785980D02*
X397928038Y-259785980D01*
X398213752Y-260785980D02*
X398213752Y-259785980D01*
X397642323Y-260738361D02*
X397547085Y-260785980D01*
X397356609Y-260785980D01*
X397261371Y-260738361D01*
X397213752Y-260643123D01*
X397213752Y-260595504D01*
X397261371Y-260500266D01*
X397356609Y-260452647D01*
X397499466Y-260452647D01*
X397594704Y-260405028D01*
X397642323Y-260309790D01*
X397642323Y-260262171D01*
X397594704Y-260166933D01*
X397499466Y-260119314D01*
X397356609Y-260119314D01*
X397261371Y-260166933D01*
X396404228Y-260738361D02*
X396499466Y-260785980D01*
X396689942Y-260785980D01*
X396785180Y-260738361D01*
X396832800Y-260643123D01*
X396832800Y-260262171D01*
X396785180Y-260166933D01*
X396689942Y-260119314D01*
X396499466Y-260119314D01*
X396404228Y-260166933D01*
X396356609Y-260262171D01*
X396356609Y-260357409D01*
X396832800Y-260452647D01*
X395928038Y-260119314D02*
X395928038Y-260785980D01*
X395928038Y-260214552D02*
X395880419Y-260166933D01*
X395785180Y-260119314D01*
X395642323Y-260119314D01*
X395547085Y-260166933D01*
X395499466Y-260262171D01*
X395499466Y-260785980D01*
X394594704Y-260119314D02*
X394594704Y-260928838D01*
X394642323Y-261024076D01*
X394689942Y-261071695D01*
X394785180Y-261119314D01*
X394928038Y-261119314D01*
X395023276Y-261071695D01*
X394594704Y-260738361D02*
X394689942Y-260785980D01*
X394880419Y-260785980D01*
X394975657Y-260738361D01*
X395023276Y-260690742D01*
X395070895Y-260595504D01*
X395070895Y-260309790D01*
X395023276Y-260214552D01*
X394975657Y-260166933D01*
X394880419Y-260119314D01*
X394689942Y-260119314D01*
X394594704Y-260166933D01*
X411594704Y-259198580D02*
X411594704Y-258198580D01*
X411499466Y-258817628D02*
X411213752Y-259198580D01*
X411213752Y-258531914D02*
X411594704Y-258912866D01*
X410785180Y-259198580D02*
X410785180Y-258198580D01*
X410785180Y-258579533D02*
X410689942Y-258531914D01*
X410499466Y-258531914D01*
X410404228Y-258579533D01*
X410356609Y-258627152D01*
X410308990Y-258722390D01*
X410308990Y-259008104D01*
X410356609Y-259103342D01*
X410404228Y-259150961D01*
X410499466Y-259198580D01*
X410689942Y-259198580D01*
X410785180Y-259150961D01*
X409880419Y-259103342D02*
X409832800Y-259150961D01*
X409880419Y-259198580D01*
X409928038Y-259150961D01*
X409880419Y-259103342D01*
X409880419Y-259198580D01*
X409404228Y-259198580D02*
X409404228Y-258198580D01*
X408975657Y-259198580D02*
X408975657Y-258674771D01*
X409023276Y-258579533D01*
X409118514Y-258531914D01*
X409261371Y-258531914D01*
X409356609Y-258579533D01*
X409404228Y-258627152D01*
X408642323Y-258531914D02*
X408261371Y-258531914D01*
X408499466Y-258198580D02*
X408499466Y-259055723D01*
X408451847Y-259150961D01*
X408356609Y-259198580D01*
X408261371Y-259198580D01*
X407404228Y-259198580D02*
X407975657Y-259198580D01*
X407689942Y-259198580D02*
X407689942Y-258198580D01*
X407785180Y-258341438D01*
X407880419Y-258436676D01*
X407975657Y-258484295D01*
X407023276Y-258293819D02*
X406975657Y-258246200D01*
X406880419Y-258198580D01*
X406642323Y-258198580D01*
X406547085Y-258246200D01*
X406499466Y-258293819D01*
X406451847Y-258389057D01*
X406451847Y-258484295D01*
X406499466Y-258627152D01*
X407070895Y-259198580D01*
X406451847Y-259198580D01*
X406118514Y-258198580D02*
X405499466Y-258198580D01*
X405832800Y-258579533D01*
X405689942Y-258579533D01*
X405594704Y-258627152D01*
X405547085Y-258674771D01*
X405499466Y-258770009D01*
X405499466Y-259008104D01*
X405547085Y-259103342D01*
X405594704Y-259150961D01*
X405689942Y-259198580D01*
X405975657Y-259198580D01*
X406070895Y-259150961D01*
X406118514Y-259103342D01*
X404642323Y-258531914D02*
X404642323Y-259198580D01*
X404880419Y-258150961D02*
X405118514Y-258865247D01*
X404499466Y-258865247D01*
X403642323Y-258198580D02*
X404118514Y-258198580D01*
X404166133Y-258674771D01*
X404118514Y-258627152D01*
X404023276Y-258579533D01*
X403785180Y-258579533D01*
X403689942Y-258627152D01*
X403642323Y-258674771D01*
X403594704Y-258770009D01*
X403594704Y-259008104D01*
X403642323Y-259103342D01*
X403689942Y-259150961D01*
X403785180Y-259198580D01*
X404023276Y-259198580D01*
X404118514Y-259150961D01*
X404166133Y-259103342D01*
X403166133Y-259103342D02*
X403118514Y-259150961D01*
X403166133Y-259198580D01*
X403213752Y-259150961D01*
X403166133Y-259103342D01*
X403166133Y-259198580D01*
X402785180Y-259198580D02*
X402261371Y-258531914D01*
X402785180Y-258531914D02*
X402261371Y-259198580D01*
X401975657Y-258531914D02*
X401737561Y-259198580D01*
X401499466Y-258531914D02*
X401737561Y-259198580D01*
X401832800Y-259436676D01*
X401880419Y-259484295D01*
X401975657Y-259531914D01*
X401213752Y-258531914D02*
X400689942Y-258531914D01*
X401213752Y-259198580D01*
X400689942Y-259198580D01*
X399594704Y-258150961D02*
X400451847Y-259436676D01*
X399070895Y-258198580D02*
X398975657Y-258198580D01*
X398880419Y-258246200D01*
X398832800Y-258293819D01*
X398785180Y-258389057D01*
X398737561Y-258579533D01*
X398737561Y-258817628D01*
X398785180Y-259008104D01*
X398832800Y-259103342D01*
X398880419Y-259150961D01*
X398975657Y-259198580D01*
X399070895Y-259198580D01*
X399166133Y-259150961D01*
X399213752Y-259103342D01*
X399261371Y-259008104D01*
X399308990Y-258817628D01*
X399308990Y-258579533D01*
X399261371Y-258389057D01*
X399213752Y-258293819D01*
X399166133Y-258246200D01*
X399070895Y-258198580D01*
X411594704Y-257611180D02*
X411594704Y-256611180D01*
X411499466Y-257230228D02*
X411213752Y-257611180D01*
X411213752Y-256944514D02*
X411594704Y-257325466D01*
X410404228Y-257563561D02*
X410499466Y-257611180D01*
X410689942Y-257611180D01*
X410785180Y-257563561D01*
X410832800Y-257468323D01*
X410832800Y-257087371D01*
X410785180Y-256992133D01*
X410689942Y-256944514D01*
X410499466Y-256944514D01*
X410404228Y-256992133D01*
X410356609Y-257087371D01*
X410356609Y-257182609D01*
X410832800Y-257277847D01*
X410023276Y-256944514D02*
X409785180Y-257611180D01*
X409547085Y-256944514D02*
X409785180Y-257611180D01*
X409880419Y-257849276D01*
X409928038Y-257896895D01*
X410023276Y-257944514D01*
X409166133Y-257611180D02*
X409166133Y-256611180D01*
X409166133Y-256992133D02*
X409070895Y-256944514D01*
X408880419Y-256944514D01*
X408785180Y-256992133D01*
X408737561Y-257039752D01*
X408689942Y-257134990D01*
X408689942Y-257420704D01*
X408737561Y-257515942D01*
X408785180Y-257563561D01*
X408880419Y-257611180D01*
X409070895Y-257611180D01*
X409166133Y-257563561D01*
X408118514Y-257611180D02*
X408213752Y-257563561D01*
X408261371Y-257515942D01*
X408308990Y-257420704D01*
X408308990Y-257134990D01*
X408261371Y-257039752D01*
X408213752Y-256992133D01*
X408118514Y-256944514D01*
X407975657Y-256944514D01*
X407880419Y-256992133D01*
X407832800Y-257039752D01*
X407785180Y-257134990D01*
X407785180Y-257420704D01*
X407832800Y-257515942D01*
X407880419Y-257563561D01*
X407975657Y-257611180D01*
X408118514Y-257611180D01*
X406928038Y-257611180D02*
X406928038Y-257087371D01*
X406975657Y-256992133D01*
X407070895Y-256944514D01*
X407261371Y-256944514D01*
X407356609Y-256992133D01*
X406928038Y-257563561D02*
X407023276Y-257611180D01*
X407261371Y-257611180D01*
X407356609Y-257563561D01*
X407404228Y-257468323D01*
X407404228Y-257373085D01*
X407356609Y-257277847D01*
X407261371Y-257230228D01*
X407023276Y-257230228D01*
X406928038Y-257182609D01*
X406451847Y-257611180D02*
X406451847Y-256944514D01*
X406451847Y-257134990D02*
X406404228Y-257039752D01*
X406356609Y-256992133D01*
X406261371Y-256944514D01*
X406166133Y-256944514D01*
X405404228Y-257611180D02*
X405404228Y-256611180D01*
X405404228Y-257563561D02*
X405499466Y-257611180D01*
X405689942Y-257611180D01*
X405785180Y-257563561D01*
X405832800Y-257515942D01*
X405880419Y-257420704D01*
X405880419Y-257134990D01*
X405832800Y-257039752D01*
X405785180Y-256992133D01*
X405689942Y-256944514D01*
X405499466Y-256944514D01*
X405404228Y-256992133D01*
X404737561Y-256611180D02*
X404642323Y-256611180D01*
X404547085Y-256658800D01*
X404499466Y-256706419D01*
X404451847Y-256801657D01*
X404404228Y-256992133D01*
X404404228Y-257230228D01*
X404451847Y-257420704D01*
X404499466Y-257515942D01*
X404547085Y-257563561D01*
X404642323Y-257611180D01*
X404737561Y-257611180D01*
X404832800Y-257563561D01*
X404880419Y-257515942D01*
X404928038Y-257420704D01*
X404975657Y-257230228D01*
X404975657Y-256992133D01*
X404928038Y-256801657D01*
X404880419Y-256706419D01*
X404832800Y-256658800D01*
X404737561Y-256611180D01*
X402880419Y-257087371D02*
X403213752Y-257087371D01*
X403213752Y-257611180D02*
X403213752Y-256611180D01*
X402737561Y-256611180D01*
X401785180Y-257611180D02*
X402118514Y-257134990D01*
X402356609Y-257611180D02*
X402356609Y-256611180D01*
X401975657Y-256611180D01*
X401880419Y-256658800D01*
X401832800Y-256706419D01*
X401785180Y-256801657D01*
X401785180Y-256944514D01*
X401832800Y-257039752D01*
X401880419Y-257087371D01*
X401975657Y-257134990D01*
X402356609Y-257134990D01*
X400928038Y-256944514D02*
X400928038Y-257611180D01*
X401166133Y-256563561D02*
X401404228Y-257277847D01*
X400785180Y-257277847D01*
X399642323Y-256944514D02*
X399642323Y-257944514D01*
X399642323Y-256992133D02*
X399547085Y-256944514D01*
X399356609Y-256944514D01*
X399261371Y-256992133D01*
X399213752Y-257039752D01*
X399166133Y-257134990D01*
X399166133Y-257420704D01*
X399213752Y-257515942D01*
X399261371Y-257563561D01*
X399356609Y-257611180D01*
X399547085Y-257611180D01*
X399642323Y-257563561D01*
X398594704Y-257611180D02*
X398689942Y-257563561D01*
X398737561Y-257468323D01*
X398737561Y-256611180D01*
X397785180Y-257611180D02*
X397785180Y-257087371D01*
X397832800Y-256992133D01*
X397928038Y-256944514D01*
X398118514Y-256944514D01*
X398213752Y-256992133D01*
X397785180Y-257563561D02*
X397880419Y-257611180D01*
X398118514Y-257611180D01*
X398213752Y-257563561D01*
X398261371Y-257468323D01*
X398261371Y-257373085D01*
X398213752Y-257277847D01*
X398118514Y-257230228D01*
X397880419Y-257230228D01*
X397785180Y-257182609D01*
X397451847Y-256944514D02*
X397070895Y-256944514D01*
X397308990Y-256611180D02*
X397308990Y-257468323D01*
X397261371Y-257563561D01*
X397166133Y-257611180D01*
X397070895Y-257611180D01*
X396356609Y-257563561D02*
X396451847Y-257611180D01*
X396642323Y-257611180D01*
X396737561Y-257563561D01*
X396785180Y-257468323D01*
X396785180Y-257087371D01*
X396737561Y-256992133D01*
X396642323Y-256944514D01*
X396451847Y-256944514D01*
X396356609Y-256992133D01*
X396308990Y-257087371D01*
X396308990Y-257182609D01*
X396785180Y-257277847D01*
X410199747Y-293915080D02*
X410199747Y-294629366D01*
X410247366Y-294772223D01*
X410342604Y-294867461D01*
X410485461Y-294915080D01*
X410580700Y-294915080D01*
X409247366Y-294915080D02*
X409723557Y-294915080D01*
X409723557Y-293915080D01*
X408342604Y-294819842D02*
X408390223Y-294867461D01*
X408533080Y-294915080D01*
X408628319Y-294915080D01*
X408771176Y-294867461D01*
X408866414Y-294772223D01*
X408914033Y-294676985D01*
X408961652Y-294486509D01*
X408961652Y-294343652D01*
X408914033Y-294153176D01*
X408866414Y-294057938D01*
X408771176Y-293962700D01*
X408628319Y-293915080D01*
X408533080Y-293915080D01*
X408390223Y-293962700D01*
X408342604Y-294010319D01*
X407628319Y-293915080D02*
X407628319Y-294629366D01*
X407675938Y-294772223D01*
X407771176Y-294867461D01*
X407914033Y-294915080D01*
X408009271Y-294915080D01*
X406675938Y-294915080D02*
X407152128Y-294915080D01*
X407152128Y-293915080D01*
X405771176Y-294819842D02*
X405818795Y-294867461D01*
X405961652Y-294915080D01*
X406056890Y-294915080D01*
X406199747Y-294867461D01*
X406294985Y-294772223D01*
X406342604Y-294676985D01*
X406390223Y-294486509D01*
X406390223Y-294343652D01*
X406342604Y-294153176D01*
X406294985Y-294057938D01*
X406199747Y-293962700D01*
X406056890Y-293915080D01*
X405961652Y-293915080D01*
X405818795Y-293962700D01*
X405771176Y-294010319D01*
X405056890Y-293915080D02*
X405056890Y-294629366D01*
X405104509Y-294772223D01*
X405199747Y-294867461D01*
X405342604Y-294915080D01*
X405437842Y-294915080D01*
X404104509Y-294915080D02*
X404580700Y-294915080D01*
X404580700Y-293915080D01*
X403199747Y-294819842D02*
X403247366Y-294867461D01*
X403390223Y-294915080D01*
X403485461Y-294915080D01*
X403628319Y-294867461D01*
X403723557Y-294772223D01*
X403771176Y-294676985D01*
X403818795Y-294486509D01*
X403818795Y-294343652D01*
X403771176Y-294153176D01*
X403723557Y-294057938D01*
X403628319Y-293962700D01*
X403485461Y-293915080D01*
X403390223Y-293915080D01*
X403247366Y-293962700D01*
X403199747Y-294010319D01*
X402485461Y-293915080D02*
X402485461Y-294629366D01*
X402533080Y-294772223D01*
X402628319Y-294867461D01*
X402771176Y-294915080D01*
X402866414Y-294915080D01*
X401533080Y-294915080D02*
X402009271Y-294915080D01*
X402009271Y-293915080D01*
X400628319Y-294819842D02*
X400675938Y-294867461D01*
X400818795Y-294915080D01*
X400914033Y-294915080D01*
X401056890Y-294867461D01*
X401152128Y-294772223D01*
X401199747Y-294676985D01*
X401247366Y-294486509D01*
X401247366Y-294343652D01*
X401199747Y-294153176D01*
X401152128Y-294057938D01*
X401056890Y-293962700D01*
X400914033Y-293915080D01*
X400818795Y-293915080D01*
X400675938Y-293962700D01*
X400628319Y-294010319D01*
D11*
%TO.C,logo*%
G36*
X417195208Y-261177921D02*
G01*
X420370208Y-258002921D01*
X419957458Y-257598108D01*
X418592208Y-258966004D01*
X416986187Y-257357338D01*
X418354083Y-255986796D01*
X417938687Y-255571400D01*
X414763687Y-258746400D01*
X415184375Y-259156504D01*
X416644875Y-257690713D01*
X418253542Y-259294088D01*
X416787750Y-260759879D01*
X417195208Y-261177921D01*
G37*
G36*
X414501750Y-258743754D02*
G01*
X415396042Y-257849463D01*
X415078542Y-257518733D01*
X412882500Y-259717421D01*
X413213229Y-260045504D01*
X414102229Y-259153858D01*
X416930625Y-261998129D01*
X417340729Y-261585379D01*
X414501750Y-258743754D01*
G37*
%TD*%
%LPC*%
G36*
X315892600Y-194456500D02*
G01*
X315892600Y-208743100D01*
X315098900Y-209536800D01*
X300812300Y-209536800D01*
X300018600Y-208743100D01*
X300018600Y-194456500D01*
X300812300Y-193662800D01*
X315098900Y-193662800D01*
X315892600Y-194456500D01*
G37*
X315892600Y-194456500D02*
X315892600Y-208743100D01*
X315098900Y-209536800D01*
X300812300Y-209536800D01*
X300018600Y-208743100D01*
X300018600Y-194456500D01*
X300812300Y-193662800D01*
X315098900Y-193662800D01*
X315892600Y-194456500D01*
G36*
X130166800Y-213505300D02*
G01*
X130166800Y-227791900D01*
X129373100Y-228585600D01*
X115086500Y-228585600D01*
X114292800Y-227791900D01*
X114292800Y-213505300D01*
X115086500Y-212711600D01*
X129373100Y-212711600D01*
X130166800Y-213505300D01*
G37*
X130166800Y-213505300D02*
X130166800Y-227791900D01*
X129373100Y-228585600D01*
X115086500Y-228585600D01*
X114292800Y-227791900D01*
X114292800Y-213505300D01*
X115086500Y-212711600D01*
X129373100Y-212711600D01*
X130166800Y-213505300D01*
G36*
X192075400Y-213505300D02*
G01*
X192075400Y-227791900D01*
X191281700Y-228585600D01*
X176995100Y-228585600D01*
X176201400Y-227791900D01*
X176201400Y-213505300D01*
X176995100Y-212711600D01*
X191281700Y-212711600D01*
X192075400Y-213505300D01*
G37*
X192075400Y-213505300D02*
X192075400Y-227791900D01*
X191281700Y-228585600D01*
X176995100Y-228585600D01*
X176201400Y-227791900D01*
X176201400Y-213505300D01*
X176995100Y-212711600D01*
X191281700Y-212711600D01*
X192075400Y-213505300D01*
G36*
X220648600Y-194456500D02*
G01*
X220648600Y-208743100D01*
X219854900Y-209536800D01*
X205568300Y-209536800D01*
X204774600Y-208743100D01*
X204774600Y-194456500D01*
X205568300Y-193662800D01*
X219854900Y-193662800D01*
X220648600Y-194456500D01*
G37*
X220648600Y-194456500D02*
X220648600Y-208743100D01*
X219854900Y-209536800D01*
X205568300Y-209536800D01*
X204774600Y-208743100D01*
X204774600Y-194456500D01*
X205568300Y-193662800D01*
X219854900Y-193662800D01*
X220648600Y-194456500D01*
G36*
X127785700Y-270651700D02*
G01*
X127785700Y-284938300D01*
X126992000Y-285732000D01*
X112705400Y-285732000D01*
X111911700Y-284938300D01*
X111911700Y-270651700D01*
X112705400Y-269858000D01*
X126992000Y-269858000D01*
X127785700Y-270651700D01*
G37*
X127785700Y-270651700D02*
X127785700Y-284938300D01*
X126992000Y-285732000D01*
X112705400Y-285732000D01*
X111911700Y-284938300D01*
X111911700Y-270651700D01*
X112705400Y-269858000D01*
X126992000Y-269858000D01*
X127785700Y-270651700D01*
G36*
X349228000Y-232554100D02*
G01*
X349228000Y-246840700D01*
X348434300Y-247634400D01*
X334147700Y-247634400D01*
X333354000Y-246840700D01*
X333354000Y-232554100D01*
X334147700Y-231760400D01*
X348434300Y-231760400D01*
X349228000Y-232554100D01*
G37*
X349228000Y-232554100D02*
X349228000Y-246840700D01*
X348434300Y-247634400D01*
X334147700Y-247634400D01*
X333354000Y-246840700D01*
X333354000Y-232554100D01*
X334147700Y-231760400D01*
X348434300Y-231760400D01*
X349228000Y-232554100D01*
G36*
X296843800Y-194456500D02*
G01*
X296843800Y-208743100D01*
X296050100Y-209536800D01*
X281763500Y-209536800D01*
X280969800Y-208743100D01*
X280969800Y-194456500D01*
X281763500Y-193662800D01*
X296050100Y-193662800D01*
X296843800Y-194456500D01*
G37*
X296843800Y-194456500D02*
X296843800Y-208743100D01*
X296050100Y-209536800D01*
X281763500Y-209536800D01*
X280969800Y-208743100D01*
X280969800Y-194456500D01*
X281763500Y-193662800D01*
X296050100Y-193662800D01*
X296843800Y-194456500D01*
G36*
X277795000Y-194456500D02*
G01*
X277795000Y-208743100D01*
X277001300Y-209536800D01*
X262714700Y-209536800D01*
X261921000Y-208743100D01*
X261921000Y-194456500D01*
X262714700Y-193662800D01*
X277001300Y-193662800D01*
X277795000Y-194456500D01*
G37*
X277795000Y-194456500D02*
X277795000Y-208743100D01*
X277001300Y-209536800D01*
X262714700Y-209536800D01*
X261921000Y-208743100D01*
X261921000Y-194456500D01*
X262714700Y-193662800D01*
X277001300Y-193662800D01*
X277795000Y-194456500D01*
G36*
X196837600Y-232554100D02*
G01*
X196837600Y-246840700D01*
X196043900Y-247634400D01*
X181757300Y-247634400D01*
X180963600Y-246840700D01*
X180963600Y-232554100D01*
X181757300Y-231760400D01*
X196043900Y-231760400D01*
X196837600Y-232554100D01*
G37*
X196837600Y-232554100D02*
X196837600Y-246840700D01*
X196043900Y-247634400D01*
X181757300Y-247634400D01*
X180963600Y-246840700D01*
X180963600Y-232554100D01*
X181757300Y-231760400D01*
X196043900Y-231760400D01*
X196837600Y-232554100D01*
G36*
X375420100Y-251602900D02*
G01*
X375420100Y-265889500D01*
X374626400Y-266683200D01*
X360339800Y-266683200D01*
X359546100Y-265889500D01*
X359546100Y-251602900D01*
X360339800Y-250809200D01*
X374626400Y-250809200D01*
X375420100Y-251602900D01*
G37*
X375420100Y-251602900D02*
X375420100Y-265889500D01*
X374626400Y-266683200D01*
X360339800Y-266683200D01*
X359546100Y-265889500D01*
X359546100Y-251602900D01*
X360339800Y-250809200D01*
X374626400Y-250809200D01*
X375420100Y-251602900D01*
G36*
X458758600Y-270651700D02*
G01*
X458758600Y-284938300D01*
X457964900Y-285732000D01*
X443678300Y-285732000D01*
X442884600Y-284938300D01*
X442884600Y-270651700D01*
X443678300Y-269858000D01*
X457964900Y-269858000D01*
X458758600Y-270651700D01*
G37*
X458758600Y-270651700D02*
X458758600Y-284938300D01*
X457964900Y-285732000D01*
X443678300Y-285732000D01*
X442884600Y-284938300D01*
X442884600Y-270651700D01*
X443678300Y-269858000D01*
X457964900Y-269858000D01*
X458758600Y-270651700D01*
G36*
X458758600Y-165883300D02*
G01*
X458758600Y-180169900D01*
X457964900Y-180963600D01*
X443678300Y-180963600D01*
X442884600Y-180169900D01*
X442884600Y-165883300D01*
X443678300Y-165089600D01*
X457964900Y-165089600D01*
X458758600Y-165883300D01*
G37*
X458758600Y-165883300D02*
X458758600Y-180169900D01*
X457964900Y-180963600D01*
X443678300Y-180963600D01*
X442884600Y-180169900D01*
X442884600Y-165883300D01*
X443678300Y-165089600D01*
X457964900Y-165089600D01*
X458758600Y-165883300D01*
G36*
X230173000Y-213505300D02*
G01*
X230173000Y-227791900D01*
X229379300Y-228585600D01*
X215092700Y-228585600D01*
X214299000Y-227791900D01*
X214299000Y-213505300D01*
X215092700Y-212711600D01*
X229379300Y-212711600D01*
X230173000Y-213505300D01*
G37*
X230173000Y-213505300D02*
X230173000Y-227791900D01*
X229379300Y-228585600D01*
X215092700Y-228585600D01*
X214299000Y-227791900D01*
X214299000Y-213505300D01*
X215092700Y-212711600D01*
X229379300Y-212711600D01*
X230173000Y-213505300D01*
G36*
X339703600Y-251602900D02*
G01*
X339703600Y-265889500D01*
X338909900Y-266683200D01*
X324623300Y-266683200D01*
X323829600Y-265889500D01*
X323829600Y-251602900D01*
X324623300Y-250809200D01*
X338909900Y-250809200D01*
X339703600Y-251602900D01*
G37*
X339703600Y-251602900D02*
X339703600Y-265889500D01*
X338909900Y-266683200D01*
X324623300Y-266683200D01*
X323829600Y-265889500D01*
X323829600Y-251602900D01*
X324623300Y-250809200D01*
X338909900Y-250809200D01*
X339703600Y-251602900D01*
G36*
X325417000Y-213505300D02*
G01*
X325417000Y-227791900D01*
X324623300Y-228585600D01*
X310336700Y-228585600D01*
X309543000Y-227791900D01*
X309543000Y-213505300D01*
X310336700Y-212711600D01*
X324623300Y-212711600D01*
X325417000Y-213505300D01*
G37*
X325417000Y-213505300D02*
X325417000Y-227791900D01*
X324623300Y-228585600D01*
X310336700Y-228585600D01*
X309543000Y-227791900D01*
X309543000Y-213505300D01*
X310336700Y-212711600D01*
X324623300Y-212711600D01*
X325417000Y-213505300D01*
G36*
X268270600Y-213505300D02*
G01*
X268270600Y-227791900D01*
X267476900Y-228585600D01*
X253190300Y-228585600D01*
X252396600Y-227791900D01*
X252396600Y-213505300D01*
X253190300Y-212711600D01*
X267476900Y-212711600D01*
X268270600Y-213505300D01*
G37*
X268270600Y-213505300D02*
X268270600Y-227791900D01*
X267476900Y-228585600D01*
X253190300Y-228585600D01*
X252396600Y-227791900D01*
X252396600Y-213505300D01*
X253190300Y-212711600D01*
X267476900Y-212711600D01*
X268270600Y-213505300D01*
G36*
X344465800Y-213505300D02*
G01*
X344465800Y-227791900D01*
X343672100Y-228585600D01*
X329385500Y-228585600D01*
X328591800Y-227791900D01*
X328591800Y-213505300D01*
X329385500Y-212711600D01*
X343672100Y-212711600D01*
X344465800Y-213505300D01*
G37*
X344465800Y-213505300D02*
X344465800Y-227791900D01*
X343672100Y-228585600D01*
X329385500Y-228585600D01*
X328591800Y-227791900D01*
X328591800Y-213505300D01*
X329385500Y-212711600D01*
X343672100Y-212711600D01*
X344465800Y-213505300D01*
G36*
X387325600Y-213505300D02*
G01*
X387325600Y-227791900D01*
X386531900Y-228585600D01*
X372245300Y-228585600D01*
X371451600Y-227791900D01*
X371451600Y-213505300D01*
X372245300Y-212711600D01*
X386531900Y-212711600D01*
X387325600Y-213505300D01*
G37*
X387325600Y-213505300D02*
X387325600Y-227791900D01*
X386531900Y-228585600D01*
X372245300Y-228585600D01*
X371451600Y-227791900D01*
X371451600Y-213505300D01*
X372245300Y-212711600D01*
X386531900Y-212711600D01*
X387325600Y-213505300D01*
G36*
X287319400Y-213505300D02*
G01*
X287319400Y-227791900D01*
X286525700Y-228585600D01*
X272239100Y-228585600D01*
X271445400Y-227791900D01*
X271445400Y-213505300D01*
X272239100Y-212711600D01*
X286525700Y-212711600D01*
X287319400Y-213505300D01*
G37*
X287319400Y-213505300D02*
X287319400Y-227791900D01*
X286525700Y-228585600D01*
X272239100Y-228585600D01*
X271445400Y-227791900D01*
X271445400Y-213505300D01*
X272239100Y-212711600D01*
X286525700Y-212711600D01*
X287319400Y-213505300D01*
G36*
X234935200Y-232554100D02*
G01*
X234935200Y-246840700D01*
X234141500Y-247634400D01*
X219854900Y-247634400D01*
X219061200Y-246840700D01*
X219061200Y-232554100D01*
X219854900Y-231760400D01*
X234141500Y-231760400D01*
X234935200Y-232554100D01*
G37*
X234935200Y-232554100D02*
X234935200Y-246840700D01*
X234141500Y-247634400D01*
X219854900Y-247634400D01*
X219061200Y-246840700D01*
X219061200Y-232554100D01*
X219854900Y-231760400D01*
X234141500Y-231760400D01*
X234935200Y-232554100D01*
G36*
X382563400Y-194456500D02*
G01*
X382563400Y-208743100D01*
X381769700Y-209536800D01*
X367483100Y-209536800D01*
X366689400Y-208743100D01*
X366689400Y-194456500D01*
X367483100Y-193662800D01*
X381769700Y-193662800D01*
X382563400Y-194456500D01*
G37*
X382563400Y-194456500D02*
X382563400Y-208743100D01*
X381769700Y-209536800D01*
X367483100Y-209536800D01*
X366689400Y-208743100D01*
X366689400Y-194456500D01*
X367483100Y-193662800D01*
X381769700Y-193662800D01*
X382563400Y-194456500D01*
G36*
X263508400Y-251602900D02*
G01*
X263508400Y-265889500D01*
X262714700Y-266683200D01*
X248428100Y-266683200D01*
X247634400Y-265889500D01*
X247634400Y-251602900D01*
X248428100Y-250809200D01*
X262714700Y-250809200D01*
X263508400Y-251602900D01*
G37*
X263508400Y-251602900D02*
X263508400Y-265889500D01*
X262714700Y-266683200D01*
X248428100Y-266683200D01*
X247634400Y-265889500D01*
X247634400Y-251602900D01*
X248428100Y-250809200D01*
X262714700Y-250809200D01*
X263508400Y-251602900D01*
G36*
X458758600Y-213505300D02*
G01*
X458758600Y-227791900D01*
X457964900Y-228585600D01*
X443678300Y-228585600D01*
X442884600Y-227791900D01*
X442884600Y-213505300D01*
X443678300Y-212711600D01*
X457964900Y-212711600D01*
X458758600Y-213505300D01*
G37*
X458758600Y-213505300D02*
X458758600Y-227791900D01*
X457964900Y-228585600D01*
X443678300Y-228585600D01*
X442884600Y-227791900D01*
X442884600Y-213505300D01*
X443678300Y-212711600D01*
X457964900Y-212711600D01*
X458758600Y-213505300D01*
G36*
X249221800Y-213505300D02*
G01*
X249221800Y-227791900D01*
X248428100Y-228585600D01*
X234141500Y-228585600D01*
X233347800Y-227791900D01*
X233347800Y-213505300D01*
X234141500Y-212711600D01*
X248428100Y-212711600D01*
X249221800Y-213505300D01*
G37*
X249221800Y-213505300D02*
X249221800Y-227791900D01*
X248428100Y-228585600D01*
X234141500Y-228585600D01*
X233347800Y-227791900D01*
X233347800Y-213505300D01*
X234141500Y-212711600D01*
X248428100Y-212711600D01*
X249221800Y-213505300D01*
G36*
X153977800Y-213505300D02*
G01*
X153977800Y-227791900D01*
X153184100Y-228585600D01*
X138897500Y-228585600D01*
X138103800Y-227791900D01*
X138103800Y-213505300D01*
X138897500Y-212711600D01*
X153184100Y-212711600D01*
X153977800Y-213505300D01*
G37*
X153977800Y-213505300D02*
X153977800Y-227791900D01*
X153184100Y-228585600D01*
X138897500Y-228585600D01*
X138103800Y-227791900D01*
X138103800Y-213505300D01*
X138897500Y-212711600D01*
X153184100Y-212711600D01*
X153977800Y-213505300D01*
G36*
X318273700Y-270651700D02*
G01*
X318273700Y-284938300D01*
X317480000Y-285732000D01*
X303193400Y-285732000D01*
X302399700Y-284938300D01*
X302399700Y-270651700D01*
X303193400Y-269858000D01*
X317480000Y-269858000D01*
X318273700Y-270651700D01*
G37*
X318273700Y-270651700D02*
X318273700Y-284938300D01*
X317480000Y-285732000D01*
X303193400Y-285732000D01*
X302399700Y-284938300D01*
X302399700Y-270651700D01*
X303193400Y-269858000D01*
X317480000Y-269858000D01*
X318273700Y-270651700D01*
G36*
X301606000Y-251602900D02*
G01*
X301606000Y-265889500D01*
X300812300Y-266683200D01*
X286525700Y-266683200D01*
X285732000Y-265889500D01*
X285732000Y-251602900D01*
X286525700Y-250809200D01*
X300812300Y-250809200D01*
X301606000Y-251602900D01*
G37*
X301606000Y-251602900D02*
X301606000Y-265889500D01*
X300812300Y-266683200D01*
X286525700Y-266683200D01*
X285732000Y-265889500D01*
X285732000Y-251602900D01*
X286525700Y-250809200D01*
X300812300Y-250809200D01*
X301606000Y-251602900D01*
G36*
X249221800Y-165883300D02*
G01*
X249221800Y-180169900D01*
X248428100Y-180963600D01*
X234141500Y-180963600D01*
X233347800Y-180169900D01*
X233347800Y-165883300D01*
X234141500Y-165089600D01*
X248428100Y-165089600D01*
X249221800Y-165883300D01*
G37*
X249221800Y-165883300D02*
X249221800Y-180169900D01*
X248428100Y-180963600D01*
X234141500Y-180963600D01*
X233347800Y-180169900D01*
X233347800Y-165883300D01*
X234141500Y-165089600D01*
X248428100Y-165089600D01*
X249221800Y-165883300D01*
G36*
X334941400Y-194456500D02*
G01*
X334941400Y-208743100D01*
X334147700Y-209536800D01*
X319861100Y-209536800D01*
X319067400Y-208743100D01*
X319067400Y-194456500D01*
X319861100Y-193662800D01*
X334147700Y-193662800D01*
X334941400Y-194456500D01*
G37*
X334941400Y-194456500D02*
X334941400Y-208743100D01*
X334147700Y-209536800D01*
X319861100Y-209536800D01*
X319067400Y-208743100D01*
X319067400Y-194456500D01*
X319861100Y-193662800D01*
X334147700Y-193662800D01*
X334941400Y-194456500D01*
G36*
X342084700Y-270651700D02*
G01*
X342084700Y-284938300D01*
X341291000Y-285732000D01*
X327004400Y-285732000D01*
X326210700Y-284938300D01*
X326210700Y-270651700D01*
X327004400Y-269858000D01*
X341291000Y-269858000D01*
X342084700Y-270651700D01*
G37*
X342084700Y-270651700D02*
X342084700Y-284938300D01*
X341291000Y-285732000D01*
X327004400Y-285732000D01*
X326210700Y-284938300D01*
X326210700Y-270651700D01*
X327004400Y-269858000D01*
X341291000Y-269858000D01*
X342084700Y-270651700D01*
G36*
X359942950Y-252793450D02*
G01*
X359942950Y-267873750D01*
X359149250Y-268667450D01*
X352005950Y-268667450D01*
X351212250Y-267873750D01*
X351212250Y-252793450D01*
X352005950Y-251999750D01*
X359149250Y-251999750D01*
X359942950Y-252793450D01*
G37*
X359942950Y-252793450D02*
X359942950Y-267873750D01*
X359149250Y-268667450D01*
X352005950Y-268667450D01*
X351212250Y-267873750D01*
X351212250Y-252793450D01*
X352005950Y-251999750D01*
X359149250Y-251999750D01*
X359942950Y-252793450D01*
G36*
X306368200Y-213505300D02*
G01*
X306368200Y-227791900D01*
X305574500Y-228585600D01*
X291287900Y-228585600D01*
X290494200Y-227791900D01*
X290494200Y-213505300D01*
X291287900Y-212711600D01*
X305574500Y-212711600D01*
X306368200Y-213505300D01*
G37*
X306368200Y-213505300D02*
X306368200Y-227791900D01*
X305574500Y-228585600D01*
X291287900Y-228585600D01*
X290494200Y-227791900D01*
X290494200Y-213505300D01*
X291287900Y-212711600D01*
X305574500Y-212711600D01*
X306368200Y-213505300D01*
G36*
X439709800Y-213505300D02*
G01*
X439709800Y-227791900D01*
X438916100Y-228585600D01*
X424629500Y-228585600D01*
X423835800Y-227791900D01*
X423835800Y-213505300D01*
X424629500Y-212711600D01*
X438916100Y-212711600D01*
X439709800Y-213505300D01*
G37*
X439709800Y-213505300D02*
X439709800Y-227791900D01*
X438916100Y-228585600D01*
X424629500Y-228585600D01*
X423835800Y-227791900D01*
X423835800Y-213505300D01*
X424629500Y-212711600D01*
X438916100Y-212711600D01*
X439709800Y-213505300D01*
G36*
X311130400Y-232554100D02*
G01*
X311130400Y-246840700D01*
X310336700Y-247634400D01*
X296050100Y-247634400D01*
X295256400Y-246840700D01*
X295256400Y-232554100D01*
X296050100Y-231760400D01*
X310336700Y-231760400D01*
X311130400Y-232554100D01*
G37*
X311130400Y-232554100D02*
X311130400Y-246840700D01*
X310336700Y-247634400D01*
X296050100Y-247634400D01*
X295256400Y-246840700D01*
X295256400Y-232554100D01*
X296050100Y-231760400D01*
X310336700Y-231760400D01*
X311130400Y-232554100D01*
G36*
X182551000Y-165883300D02*
G01*
X182551000Y-180169900D01*
X181757300Y-180963600D01*
X167470700Y-180963600D01*
X166677000Y-180169900D01*
X166677000Y-165883300D01*
X167470700Y-165089600D01*
X181757300Y-165089600D01*
X182551000Y-165883300D01*
G37*
X182551000Y-165883300D02*
X182551000Y-180169900D01*
X181757300Y-180963600D01*
X167470700Y-180963600D01*
X166677000Y-180169900D01*
X166677000Y-165883300D01*
X167470700Y-165089600D01*
X181757300Y-165089600D01*
X182551000Y-165883300D01*
G36*
X177788800Y-232554100D02*
G01*
X177788800Y-246840700D01*
X176995100Y-247634400D01*
X162708500Y-247634400D01*
X161914800Y-246840700D01*
X161914800Y-232554100D01*
X162708500Y-231760400D01*
X176995100Y-231760400D01*
X177788800Y-232554100D01*
G37*
X177788800Y-232554100D02*
X177788800Y-246840700D01*
X176995100Y-247634400D01*
X162708500Y-247634400D01*
X161914800Y-246840700D01*
X161914800Y-232554100D01*
X162708500Y-231760400D01*
X176995100Y-231760400D01*
X177788800Y-232554100D01*
G36*
X287319400Y-165883300D02*
G01*
X287319400Y-180169900D01*
X286525700Y-180963600D01*
X272239100Y-180963600D01*
X271445400Y-180169900D01*
X271445400Y-165883300D01*
X272239100Y-165089600D01*
X286525700Y-165089600D01*
X287319400Y-165883300D01*
G37*
X287319400Y-165883300D02*
X287319400Y-180169900D01*
X286525700Y-180963600D01*
X272239100Y-180963600D01*
X271445400Y-180169900D01*
X271445400Y-165883300D01*
X272239100Y-165089600D01*
X286525700Y-165089600D01*
X287319400Y-165883300D01*
G36*
X330179200Y-232554100D02*
G01*
X330179200Y-246840700D01*
X329385500Y-247634400D01*
X315098900Y-247634400D01*
X314305200Y-246840700D01*
X314305200Y-232554100D01*
X315098900Y-231760400D01*
X329385500Y-231760400D01*
X330179200Y-232554100D01*
G37*
X330179200Y-232554100D02*
X330179200Y-246840700D01*
X329385500Y-247634400D01*
X315098900Y-247634400D01*
X314305200Y-246840700D01*
X314305200Y-232554100D01*
X315098900Y-231760400D01*
X329385500Y-231760400D01*
X330179200Y-232554100D01*
G36*
X125404600Y-165883300D02*
G01*
X125404600Y-180169900D01*
X124610900Y-180963600D01*
X110324300Y-180963600D01*
X109530600Y-180169900D01*
X109530600Y-165883300D01*
X110324300Y-165089600D01*
X124610900Y-165089600D01*
X125404600Y-165883300D01*
G37*
X125404600Y-165883300D02*
X125404600Y-180169900D01*
X124610900Y-180963600D01*
X110324300Y-180963600D01*
X109530600Y-180169900D01*
X109530600Y-165883300D01*
X110324300Y-165089600D01*
X124610900Y-165089600D01*
X125404600Y-165883300D01*
G36*
X211124200Y-213505300D02*
G01*
X211124200Y-227791900D01*
X210330500Y-228585600D01*
X196043900Y-228585600D01*
X195250200Y-227791900D01*
X195250200Y-213505300D01*
X196043900Y-212711600D01*
X210330500Y-212711600D01*
X211124200Y-213505300D01*
G37*
X211124200Y-213505300D02*
X211124200Y-227791900D01*
X210330500Y-228585600D01*
X196043900Y-228585600D01*
X195250200Y-227791900D01*
X195250200Y-213505300D01*
X196043900Y-212711600D01*
X210330500Y-212711600D01*
X211124200Y-213505300D01*
G36*
X273032800Y-232554100D02*
G01*
X273032800Y-246840700D01*
X272239100Y-247634400D01*
X257952500Y-247634400D01*
X257158800Y-246840700D01*
X257158800Y-232554100D01*
X257952500Y-231760400D01*
X272239100Y-231760400D01*
X273032800Y-232554100D01*
G37*
X273032800Y-232554100D02*
X273032800Y-246840700D01*
X272239100Y-247634400D01*
X257952500Y-247634400D01*
X257158800Y-246840700D01*
X257158800Y-232554100D01*
X257952500Y-231760400D01*
X272239100Y-231760400D01*
X273032800Y-232554100D01*
G36*
X353990200Y-194456500D02*
G01*
X353990200Y-208743100D01*
X353196500Y-209536800D01*
X338909900Y-209536800D01*
X338116200Y-208743100D01*
X338116200Y-194456500D01*
X338909900Y-193662800D01*
X353196500Y-193662800D01*
X353990200Y-194456500D01*
G37*
X353990200Y-194456500D02*
X353990200Y-208743100D01*
X353196500Y-209536800D01*
X338909900Y-209536800D01*
X338116200Y-208743100D01*
X338116200Y-194456500D01*
X338909900Y-193662800D01*
X353196500Y-193662800D01*
X353990200Y-194456500D01*
G36*
X201599800Y-165883300D02*
G01*
X201599800Y-180169900D01*
X200806100Y-180963600D01*
X186519500Y-180963600D01*
X185725800Y-180169900D01*
X185725800Y-165883300D01*
X186519500Y-165089600D01*
X200806100Y-165089600D01*
X201599800Y-165883300D01*
G37*
X201599800Y-165883300D02*
X201599800Y-180169900D01*
X200806100Y-180963600D01*
X186519500Y-180963600D01*
X185725800Y-180169900D01*
X185725800Y-165883300D01*
X186519500Y-165089600D01*
X200806100Y-165089600D01*
X201599800Y-165883300D01*
G36*
X452409000Y-233347800D02*
G01*
X452409000Y-246047000D01*
X451615300Y-246840700D01*
X412724000Y-246840700D01*
X411930300Y-246047000D01*
X411930300Y-233347800D01*
X412724000Y-232554100D01*
X451615300Y-232554100D01*
X452409000Y-233347800D01*
G37*
X452409000Y-233347800D02*
X452409000Y-246047000D01*
X451615300Y-246840700D01*
X412724000Y-246840700D01*
X411930300Y-246047000D01*
X411930300Y-233347800D01*
X412724000Y-232554100D01*
X451615300Y-232554100D01*
X452409000Y-233347800D01*
G36*
X320654800Y-251602900D02*
G01*
X320654800Y-265889500D01*
X319861100Y-266683200D01*
X305574500Y-266683200D01*
X304780800Y-265889500D01*
X304780800Y-251602900D01*
X305574500Y-250809200D01*
X319861100Y-250809200D01*
X320654800Y-251602900D01*
G37*
X320654800Y-251602900D02*
X320654800Y-265889500D01*
X319861100Y-266683200D01*
X305574500Y-266683200D01*
X304780800Y-265889500D01*
X304780800Y-251602900D01*
X305574500Y-250809200D01*
X319861100Y-250809200D01*
X320654800Y-251602900D01*
G36*
X225410800Y-251602900D02*
G01*
X225410800Y-265889500D01*
X224617100Y-266683200D01*
X210330500Y-266683200D01*
X209536800Y-265889500D01*
X209536800Y-251602900D01*
X210330500Y-250809200D01*
X224617100Y-250809200D01*
X225410800Y-251602900D01*
G37*
X225410800Y-251602900D02*
X225410800Y-265889500D01*
X224617100Y-266683200D01*
X210330500Y-266683200D01*
X209536800Y-265889500D01*
X209536800Y-251602900D01*
X210330500Y-250809200D01*
X224617100Y-250809200D01*
X225410800Y-251602900D01*
G36*
X363514600Y-213505300D02*
G01*
X363514600Y-227791900D01*
X362720900Y-228585600D01*
X348434300Y-228585600D01*
X347640600Y-227791900D01*
X347640600Y-213505300D01*
X348434300Y-212711600D01*
X362720900Y-212711600D01*
X363514600Y-213505300D01*
G37*
X363514600Y-213505300D02*
X363514600Y-227791900D01*
X362720900Y-228585600D01*
X348434300Y-228585600D01*
X347640600Y-227791900D01*
X347640600Y-213505300D01*
X348434300Y-212711600D01*
X362720900Y-212711600D01*
X363514600Y-213505300D01*
G36*
X215886400Y-232554100D02*
G01*
X215886400Y-246840700D01*
X215092700Y-247634400D01*
X200806100Y-247634400D01*
X200012400Y-246840700D01*
X200012400Y-232554100D01*
X200806100Y-231760400D01*
X215092700Y-231760400D01*
X215886400Y-232554100D01*
G37*
X215886400Y-232554100D02*
X215886400Y-246840700D01*
X215092700Y-247634400D01*
X200806100Y-247634400D01*
X200012400Y-246840700D01*
X200012400Y-232554100D01*
X200806100Y-231760400D01*
X215092700Y-231760400D01*
X215886400Y-232554100D01*
G36*
X373039000Y-165883300D02*
G01*
X373039000Y-180169900D01*
X372245300Y-180963600D01*
X357958700Y-180963600D01*
X357165000Y-180169900D01*
X357165000Y-165883300D01*
X357958700Y-165089600D01*
X372245300Y-165089600D01*
X373039000Y-165883300D01*
G37*
X373039000Y-165883300D02*
X373039000Y-180169900D01*
X372245300Y-180963600D01*
X357958700Y-180963600D01*
X357165000Y-180169900D01*
X357165000Y-165883300D01*
X357958700Y-165089600D01*
X372245300Y-165089600D01*
X373039000Y-165883300D01*
G36*
X334941400Y-165883300D02*
G01*
X334941400Y-180169900D01*
X334147700Y-180963600D01*
X319861100Y-180963600D01*
X319067400Y-180169900D01*
X319067400Y-165883300D01*
X319861100Y-165089600D01*
X334147700Y-165089600D01*
X334941400Y-165883300D01*
G37*
X334941400Y-165883300D02*
X334941400Y-180169900D01*
X334147700Y-180963600D01*
X319861100Y-180963600D01*
X319067400Y-180169900D01*
X319067400Y-165883300D01*
X319861100Y-165089600D01*
X334147700Y-165089600D01*
X334941400Y-165883300D01*
G36*
X101593600Y-213505300D02*
G01*
X101593600Y-227791900D01*
X100799900Y-228585600D01*
X86513300Y-228585600D01*
X85719600Y-227791900D01*
X85719600Y-213505300D01*
X86513300Y-212711600D01*
X100799900Y-212711600D01*
X101593600Y-213505300D01*
G37*
X101593600Y-213505300D02*
X101593600Y-227791900D01*
X100799900Y-228585600D01*
X86513300Y-228585600D01*
X85719600Y-227791900D01*
X85719600Y-213505300D01*
X86513300Y-212711600D01*
X100799900Y-212711600D01*
X101593600Y-213505300D01*
G36*
X144453400Y-194456500D02*
G01*
X144453400Y-208743100D01*
X143659700Y-209536800D01*
X129373100Y-209536800D01*
X128579400Y-208743100D01*
X128579400Y-194456500D01*
X129373100Y-193662800D01*
X143659700Y-193662800D01*
X144453400Y-194456500D01*
G37*
X144453400Y-194456500D02*
X144453400Y-208743100D01*
X143659700Y-209536800D01*
X129373100Y-209536800D01*
X128579400Y-208743100D01*
X128579400Y-194456500D01*
X129373100Y-193662800D01*
X143659700Y-193662800D01*
X144453400Y-194456500D01*
G36*
X239697400Y-194456500D02*
G01*
X239697400Y-208743100D01*
X238903700Y-209536800D01*
X224617100Y-209536800D01*
X223823400Y-208743100D01*
X223823400Y-194456500D01*
X224617100Y-193662800D01*
X238903700Y-193662800D01*
X239697400Y-194456500D01*
G37*
X239697400Y-194456500D02*
X239697400Y-208743100D01*
X238903700Y-209536800D01*
X224617100Y-209536800D01*
X223823400Y-208743100D01*
X223823400Y-194456500D01*
X224617100Y-193662800D01*
X238903700Y-193662800D01*
X239697400Y-194456500D01*
G36*
X158740000Y-232554100D02*
G01*
X158740000Y-246840700D01*
X157946300Y-247634400D01*
X143659700Y-247634400D01*
X142866000Y-246840700D01*
X142866000Y-232554100D01*
X143659700Y-231760400D01*
X157946300Y-231760400D01*
X158740000Y-232554100D01*
G37*
X158740000Y-232554100D02*
X158740000Y-246840700D01*
X157946300Y-247634400D01*
X143659700Y-247634400D01*
X142866000Y-246840700D01*
X142866000Y-232554100D01*
X143659700Y-231760400D01*
X157946300Y-231760400D01*
X158740000Y-232554100D01*
G36*
X175407700Y-270651700D02*
G01*
X175407700Y-284938300D01*
X174614000Y-285732000D01*
X160327400Y-285732000D01*
X159533700Y-284938300D01*
X159533700Y-270651700D01*
X160327400Y-269858000D01*
X174614000Y-269858000D01*
X175407700Y-270651700D01*
G37*
X175407700Y-270651700D02*
X175407700Y-284938300D01*
X174614000Y-285732000D01*
X160327400Y-285732000D01*
X159533700Y-284938300D01*
X159533700Y-270651700D01*
X160327400Y-269858000D01*
X174614000Y-269858000D01*
X175407700Y-270651700D01*
G36*
X268270600Y-165883300D02*
G01*
X268270600Y-180169900D01*
X267476900Y-180963600D01*
X253190300Y-180963600D01*
X252396600Y-180169900D01*
X252396600Y-165883300D01*
X253190300Y-165089600D01*
X267476900Y-165089600D01*
X268270600Y-165883300D01*
G37*
X268270600Y-165883300D02*
X268270600Y-180169900D01*
X267476900Y-180963600D01*
X253190300Y-180963600D01*
X252396600Y-180169900D01*
X252396600Y-165883300D01*
X253190300Y-165089600D01*
X267476900Y-165089600D01*
X268270600Y-165883300D01*
G36*
X389706700Y-270651700D02*
G01*
X389706700Y-284938300D01*
X388913000Y-285732000D01*
X374626400Y-285732000D01*
X373832700Y-284938300D01*
X373832700Y-270651700D01*
X374626400Y-269858000D01*
X388913000Y-269858000D01*
X389706700Y-270651700D01*
G37*
X389706700Y-270651700D02*
X389706700Y-284938300D01*
X388913000Y-285732000D01*
X374626400Y-285732000D01*
X373832700Y-284938300D01*
X373832700Y-270651700D01*
X374626400Y-269858000D01*
X388913000Y-269858000D01*
X389706700Y-270651700D01*
G36*
X246840700Y-270651700D02*
G01*
X246840700Y-284938300D01*
X246047000Y-285732000D01*
X231760400Y-285732000D01*
X230966700Y-284938300D01*
X230966700Y-270651700D01*
X231760400Y-269858000D01*
X246047000Y-269858000D01*
X246840700Y-270651700D01*
G37*
X246840700Y-270651700D02*
X246840700Y-284938300D01*
X246047000Y-285732000D01*
X231760400Y-285732000D01*
X230966700Y-284938300D01*
X230966700Y-270651700D01*
X231760400Y-269858000D01*
X246047000Y-269858000D01*
X246840700Y-270651700D01*
G36*
X282557200Y-251602900D02*
G01*
X282557200Y-265889500D01*
X281763500Y-266683200D01*
X267476900Y-266683200D01*
X266683200Y-265889500D01*
X266683200Y-251602900D01*
X267476900Y-250809200D01*
X281763500Y-250809200D01*
X282557200Y-251602900D01*
G37*
X282557200Y-251602900D02*
X282557200Y-265889500D01*
X281763500Y-266683200D01*
X267476900Y-266683200D01*
X266683200Y-265889500D01*
X266683200Y-251602900D01*
X267476900Y-250809200D01*
X281763500Y-250809200D01*
X282557200Y-251602900D01*
G36*
X458758600Y-194456500D02*
G01*
X458758600Y-208743100D01*
X457964900Y-209536800D01*
X443678300Y-209536800D01*
X442884600Y-208743100D01*
X442884600Y-194456500D01*
X443678300Y-193662800D01*
X457964900Y-193662800D01*
X458758600Y-194456500D01*
G37*
X458758600Y-194456500D02*
X458758600Y-208743100D01*
X457964900Y-209536800D01*
X443678300Y-209536800D01*
X442884600Y-208743100D01*
X442884600Y-194456500D01*
X443678300Y-193662800D01*
X457964900Y-193662800D01*
X458758600Y-194456500D01*
G36*
X420661000Y-165883300D02*
G01*
X420661000Y-180169900D01*
X419867300Y-180963600D01*
X405580700Y-180963600D01*
X404787000Y-180169900D01*
X404787000Y-165883300D01*
X405580700Y-165089600D01*
X419867300Y-165089600D01*
X420661000Y-165883300D01*
G37*
X420661000Y-165883300D02*
X420661000Y-180169900D01*
X419867300Y-180963600D01*
X405580700Y-180963600D01*
X404787000Y-180169900D01*
X404787000Y-165883300D01*
X405580700Y-165089600D01*
X419867300Y-165089600D01*
X420661000Y-165883300D01*
G36*
X201599800Y-194456500D02*
G01*
X201599800Y-208743100D01*
X200806100Y-209536800D01*
X186519500Y-209536800D01*
X185725800Y-208743100D01*
X185725800Y-194456500D01*
X186519500Y-193662800D01*
X200806100Y-193662800D01*
X201599800Y-194456500D01*
G37*
X201599800Y-194456500D02*
X201599800Y-208743100D01*
X200806100Y-209536800D01*
X186519500Y-209536800D01*
X185725800Y-208743100D01*
X185725800Y-194456500D01*
X186519500Y-193662800D01*
X200806100Y-193662800D01*
X201599800Y-194456500D01*
G36*
X125404600Y-194456500D02*
G01*
X125404600Y-208743100D01*
X124610900Y-209536800D01*
X110324300Y-209536800D01*
X109530600Y-208743100D01*
X109530600Y-194456500D01*
X110324300Y-193662800D01*
X124610900Y-193662800D01*
X125404600Y-194456500D01*
G37*
X125404600Y-194456500D02*
X125404600Y-208743100D01*
X124610900Y-209536800D01*
X110324300Y-209536800D01*
X109530600Y-208743100D01*
X109530600Y-194456500D01*
X110324300Y-193662800D01*
X124610900Y-193662800D01*
X125404600Y-194456500D01*
G36*
X380182300Y-232554100D02*
G01*
X380182300Y-246840700D01*
X379388600Y-247634400D01*
X365102000Y-247634400D01*
X364308300Y-246840700D01*
X364308300Y-232554100D01*
X365102000Y-231760400D01*
X379388600Y-231760400D01*
X380182300Y-232554100D01*
G37*
X380182300Y-232554100D02*
X380182300Y-246840700D01*
X379388600Y-247634400D01*
X365102000Y-247634400D01*
X364308300Y-246840700D01*
X364308300Y-232554100D01*
X365102000Y-231760400D01*
X379388600Y-231760400D01*
X380182300Y-232554100D01*
G36*
X121832950Y-252793450D02*
G01*
X121832950Y-267873750D01*
X121039250Y-268667450D01*
X113895950Y-268667450D01*
X113102250Y-267873750D01*
X113102250Y-252793450D01*
X113895950Y-251999750D01*
X121039250Y-251999750D01*
X121832950Y-252793450D01*
G37*
X121832950Y-252793450D02*
X121832950Y-267873750D01*
X121039250Y-268667450D01*
X113895950Y-268667450D01*
X113102250Y-267873750D01*
X113102250Y-252793450D01*
X113895950Y-251999750D01*
X121039250Y-251999750D01*
X121832950Y-252793450D01*
G36*
X388516150Y-233744650D02*
G01*
X388516150Y-248824950D01*
X387722450Y-249618650D01*
X380579150Y-249618650D01*
X379785450Y-248824950D01*
X379785450Y-233744650D01*
X380579150Y-232950950D01*
X387722450Y-232950950D01*
X388516150Y-233744650D01*
G37*
X388516150Y-233744650D02*
X388516150Y-248824950D01*
X387722450Y-249618650D01*
X380579150Y-249618650D01*
X379785450Y-248824950D01*
X379785450Y-233744650D01*
X380579150Y-232950950D01*
X387722450Y-232950950D01*
X388516150Y-233744650D01*
G36*
X383753950Y-252793450D02*
G01*
X383753950Y-267873750D01*
X382960250Y-268667450D01*
X375816950Y-268667450D01*
X375023250Y-267873750D01*
X375023250Y-252793450D01*
X375816950Y-251999750D01*
X382960250Y-251999750D01*
X383753950Y-252793450D01*
G37*
X383753950Y-252793450D02*
X383753950Y-267873750D01*
X382960250Y-268667450D01*
X375816950Y-268667450D01*
X375023250Y-267873750D01*
X375023250Y-252793450D01*
X375816950Y-251999750D01*
X382960250Y-251999750D01*
X383753950Y-252793450D01*
G36*
X168264400Y-251602900D02*
G01*
X168264400Y-265889500D01*
X167470700Y-266683200D01*
X153184100Y-266683200D01*
X152390400Y-265889500D01*
X152390400Y-251602900D01*
X153184100Y-250809200D01*
X167470700Y-250809200D01*
X168264400Y-251602900D01*
G37*
X168264400Y-251602900D02*
X168264400Y-265889500D01*
X167470700Y-266683200D01*
X153184100Y-266683200D01*
X152390400Y-265889500D01*
X152390400Y-251602900D01*
X153184100Y-250809200D01*
X167470700Y-250809200D01*
X168264400Y-251602900D01*
G36*
X439709800Y-251602900D02*
G01*
X439709800Y-265889500D01*
X438916100Y-266683200D01*
X424629500Y-266683200D01*
X423835800Y-265889500D01*
X423835800Y-251602900D01*
X424629500Y-250809200D01*
X438916100Y-250809200D01*
X439709800Y-251602900D01*
G37*
X439709800Y-251602900D02*
X439709800Y-265889500D01*
X438916100Y-266683200D01*
X424629500Y-266683200D01*
X423835800Y-265889500D01*
X423835800Y-251602900D01*
X424629500Y-250809200D01*
X438916100Y-250809200D01*
X439709800Y-251602900D01*
G36*
X220648600Y-165883300D02*
G01*
X220648600Y-180169900D01*
X219854900Y-180963600D01*
X205568300Y-180963600D01*
X204774600Y-180169900D01*
X204774600Y-165883300D01*
X205568300Y-165089600D01*
X219854900Y-165089600D01*
X220648600Y-165883300D01*
G37*
X220648600Y-165883300D02*
X220648600Y-180169900D01*
X219854900Y-180963600D01*
X205568300Y-180963600D01*
X204774600Y-180169900D01*
X204774600Y-165883300D01*
X205568300Y-165089600D01*
X219854900Y-165089600D01*
X220648600Y-165883300D01*
G36*
X420661000Y-194456500D02*
G01*
X420661000Y-208743100D01*
X419867300Y-209536800D01*
X405580700Y-209536800D01*
X404787000Y-208743100D01*
X404787000Y-194456500D01*
X405580700Y-193662800D01*
X419867300Y-193662800D01*
X420661000Y-194456500D01*
G37*
X420661000Y-194456500D02*
X420661000Y-208743100D01*
X419867300Y-209536800D01*
X405580700Y-209536800D01*
X404787000Y-208743100D01*
X404787000Y-194456500D01*
X405580700Y-193662800D01*
X419867300Y-193662800D01*
X420661000Y-194456500D01*
G36*
X253984000Y-232554100D02*
G01*
X253984000Y-246840700D01*
X253190300Y-247634400D01*
X238903700Y-247634400D01*
X238110000Y-246840700D01*
X238110000Y-232554100D01*
X238903700Y-231760400D01*
X253190300Y-231760400D01*
X253984000Y-232554100D01*
G37*
X253984000Y-232554100D02*
X253984000Y-246840700D01*
X253190300Y-247634400D01*
X238903700Y-247634400D01*
X238110000Y-246840700D01*
X238110000Y-232554100D01*
X238903700Y-231760400D01*
X253190300Y-231760400D01*
X253984000Y-232554100D01*
G36*
X292081600Y-232554100D02*
G01*
X292081600Y-246840700D01*
X291287900Y-247634400D01*
X277001300Y-247634400D01*
X276207600Y-246840700D01*
X276207600Y-232554100D01*
X277001300Y-231760400D01*
X291287900Y-231760400D01*
X292081600Y-232554100D01*
G37*
X292081600Y-232554100D02*
X292081600Y-246840700D01*
X291287900Y-247634400D01*
X277001300Y-247634400D01*
X276207600Y-246840700D01*
X276207600Y-232554100D01*
X277001300Y-231760400D01*
X291287900Y-231760400D01*
X292081600Y-232554100D01*
G36*
X365895700Y-270651700D02*
G01*
X365895700Y-284938300D01*
X365102000Y-285732000D01*
X350815400Y-285732000D01*
X350021700Y-284938300D01*
X350021700Y-270651700D01*
X350815400Y-269858000D01*
X365102000Y-269858000D01*
X365895700Y-270651700D01*
G37*
X365895700Y-270651700D02*
X365895700Y-284938300D01*
X365102000Y-285732000D01*
X350815400Y-285732000D01*
X350021700Y-284938300D01*
X350021700Y-270651700D01*
X350815400Y-269858000D01*
X365102000Y-269858000D01*
X365895700Y-270651700D01*
G36*
X137310100Y-251602900D02*
G01*
X137310100Y-265889500D01*
X136516400Y-266683200D01*
X122229800Y-266683200D01*
X121436100Y-265889500D01*
X121436100Y-251602900D01*
X122229800Y-250809200D01*
X136516400Y-250809200D01*
X137310100Y-251602900D01*
G37*
X137310100Y-251602900D02*
X137310100Y-265889500D01*
X136516400Y-266683200D01*
X122229800Y-266683200D01*
X121436100Y-265889500D01*
X121436100Y-251602900D01*
X122229800Y-250809200D01*
X136516400Y-250809200D01*
X137310100Y-251602900D01*
G36*
X132547900Y-232554100D02*
G01*
X132547900Y-246840700D01*
X131754200Y-247634400D01*
X117467600Y-247634400D01*
X116673900Y-246840700D01*
X116673900Y-232554100D01*
X117467600Y-231760400D01*
X131754200Y-231760400D01*
X132547900Y-232554100D01*
G37*
X132547900Y-232554100D02*
X132547900Y-246840700D01*
X131754200Y-247634400D01*
X117467600Y-247634400D01*
X116673900Y-246840700D01*
X116673900Y-232554100D01*
X117467600Y-231760400D01*
X131754200Y-231760400D01*
X132547900Y-232554100D01*
G36*
X101593600Y-165883300D02*
G01*
X101593600Y-180169900D01*
X100799900Y-180963600D01*
X86513300Y-180963600D01*
X85719600Y-180169900D01*
X85719600Y-165883300D01*
X86513300Y-165089600D01*
X100799900Y-165089600D01*
X101593600Y-165883300D01*
G37*
X101593600Y-165883300D02*
X101593600Y-180169900D01*
X100799900Y-180963600D01*
X86513300Y-180963600D01*
X85719600Y-180169900D01*
X85719600Y-165883300D01*
X86513300Y-165089600D01*
X100799900Y-165089600D01*
X101593600Y-165883300D01*
G36*
X420661000Y-270651700D02*
G01*
X420661000Y-284938300D01*
X419867300Y-285732000D01*
X405580700Y-285732000D01*
X404787000Y-284938300D01*
X404787000Y-270651700D01*
X405580700Y-269858000D01*
X419867300Y-269858000D01*
X420661000Y-270651700D01*
G37*
X420661000Y-270651700D02*
X420661000Y-284938300D01*
X419867300Y-285732000D01*
X405580700Y-285732000D01*
X404787000Y-284938300D01*
X404787000Y-270651700D01*
X405580700Y-269858000D01*
X419867300Y-269858000D01*
X420661000Y-270651700D01*
G36*
X182551000Y-194456500D02*
G01*
X182551000Y-208743100D01*
X181757300Y-209536800D01*
X167470700Y-209536800D01*
X166677000Y-208743100D01*
X166677000Y-194456500D01*
X167470700Y-193662800D01*
X181757300Y-193662800D01*
X182551000Y-194456500D01*
G37*
X182551000Y-194456500D02*
X182551000Y-208743100D01*
X181757300Y-209536800D01*
X167470700Y-209536800D01*
X166677000Y-208743100D01*
X166677000Y-194456500D01*
X167470700Y-193662800D01*
X181757300Y-193662800D01*
X182551000Y-194456500D01*
G36*
X163502200Y-194456500D02*
G01*
X163502200Y-208743100D01*
X162708500Y-209536800D01*
X148421900Y-209536800D01*
X147628200Y-208743100D01*
X147628200Y-194456500D01*
X148421900Y-193662800D01*
X162708500Y-193662800D01*
X163502200Y-194456500D01*
G37*
X163502200Y-194456500D02*
X163502200Y-208743100D01*
X162708500Y-209536800D01*
X148421900Y-209536800D01*
X147628200Y-208743100D01*
X147628200Y-194456500D01*
X148421900Y-193662800D01*
X162708500Y-193662800D01*
X163502200Y-194456500D01*
G36*
X163502200Y-165883300D02*
G01*
X163502200Y-180169900D01*
X162708500Y-180963600D01*
X148421900Y-180963600D01*
X147628200Y-180169900D01*
X147628200Y-165883300D01*
X148421900Y-165089600D01*
X162708500Y-165089600D01*
X163502200Y-165883300D01*
G37*
X163502200Y-165883300D02*
X163502200Y-180169900D01*
X162708500Y-180963600D01*
X148421900Y-180963600D01*
X147628200Y-180169900D01*
X147628200Y-165883300D01*
X148421900Y-165089600D01*
X162708500Y-165089600D01*
X163502200Y-165883300D01*
G36*
X101593600Y-194456500D02*
G01*
X101593600Y-208743100D01*
X100799900Y-209536800D01*
X86513300Y-209536800D01*
X85719600Y-208743100D01*
X85719600Y-194456500D01*
X86513300Y-193662800D01*
X100799900Y-193662800D01*
X101593600Y-194456500D01*
G37*
X101593600Y-194456500D02*
X101593600Y-208743100D01*
X100799900Y-209536800D01*
X86513300Y-209536800D01*
X85719600Y-208743100D01*
X85719600Y-194456500D01*
X86513300Y-193662800D01*
X100799900Y-193662800D01*
X101593600Y-194456500D01*
G36*
X258746200Y-194456500D02*
G01*
X258746200Y-208743100D01*
X257952500Y-209536800D01*
X243665900Y-209536800D01*
X242872200Y-208743100D01*
X242872200Y-194456500D01*
X243665900Y-193662800D01*
X257952500Y-193662800D01*
X258746200Y-194456500D01*
G37*
X258746200Y-194456500D02*
X258746200Y-208743100D01*
X257952500Y-209536800D01*
X243665900Y-209536800D01*
X242872200Y-208743100D01*
X242872200Y-194456500D01*
X243665900Y-193662800D01*
X257952500Y-193662800D01*
X258746200Y-194456500D01*
G36*
X101593600Y-251602900D02*
G01*
X101593600Y-265889500D01*
X100799900Y-266683200D01*
X86513300Y-266683200D01*
X85719600Y-265889500D01*
X85719600Y-251602900D01*
X86513300Y-250809200D01*
X100799900Y-250809200D01*
X101593600Y-251602900D01*
G37*
X101593600Y-251602900D02*
X101593600Y-265889500D01*
X100799900Y-266683200D01*
X86513300Y-266683200D01*
X85719600Y-265889500D01*
X85719600Y-251602900D01*
X86513300Y-250809200D01*
X100799900Y-250809200D01*
X101593600Y-251602900D01*
G36*
X173026600Y-213505300D02*
G01*
X173026600Y-227791900D01*
X172232900Y-228585600D01*
X157946300Y-228585600D01*
X157152600Y-227791900D01*
X157152600Y-213505300D01*
X157946300Y-212711600D01*
X172232900Y-212711600D01*
X173026600Y-213505300D01*
G37*
X173026600Y-213505300D02*
X173026600Y-227791900D01*
X172232900Y-228585600D01*
X157946300Y-228585600D01*
X157152600Y-227791900D01*
X157152600Y-213505300D01*
X157946300Y-212711600D01*
X172232900Y-212711600D01*
X173026600Y-213505300D01*
G36*
X206362000Y-251602900D02*
G01*
X206362000Y-265889500D01*
X205568300Y-266683200D01*
X191281700Y-266683200D01*
X190488000Y-265889500D01*
X190488000Y-251602900D01*
X191281700Y-250809200D01*
X205568300Y-250809200D01*
X206362000Y-251602900D01*
G37*
X206362000Y-251602900D02*
X206362000Y-265889500D01*
X205568300Y-266683200D01*
X191281700Y-266683200D01*
X190488000Y-265889500D01*
X190488000Y-251602900D01*
X191281700Y-250809200D01*
X205568300Y-250809200D01*
X206362000Y-251602900D01*
G36*
X392087800Y-165883300D02*
G01*
X392087800Y-180169900D01*
X391294100Y-180963600D01*
X377007500Y-180963600D01*
X376213800Y-180169900D01*
X376213800Y-165883300D01*
X377007500Y-165089600D01*
X391294100Y-165089600D01*
X392087800Y-165883300D01*
G37*
X392087800Y-165883300D02*
X392087800Y-180169900D01*
X391294100Y-180963600D01*
X377007500Y-180963600D01*
X376213800Y-180169900D01*
X376213800Y-165883300D01*
X377007500Y-165089600D01*
X391294100Y-165089600D01*
X392087800Y-165883300D01*
G36*
X364705150Y-233744650D02*
G01*
X364705150Y-248824950D01*
X363911450Y-249618650D01*
X356768150Y-249618650D01*
X355974450Y-248824950D01*
X355974450Y-233744650D01*
X356768150Y-232950950D01*
X363911450Y-232950950D01*
X364705150Y-233744650D01*
G37*
X364705150Y-233744650D02*
X364705150Y-248824950D01*
X363911450Y-249618650D01*
X356768150Y-249618650D01*
X355974450Y-248824950D01*
X355974450Y-233744650D01*
X356768150Y-232950950D01*
X363911450Y-232950950D01*
X364705150Y-233744650D01*
G36*
X151596700Y-270651700D02*
G01*
X151596700Y-284938300D01*
X150803000Y-285732000D01*
X136516400Y-285732000D01*
X135722700Y-284938300D01*
X135722700Y-270651700D01*
X136516400Y-269858000D01*
X150803000Y-269858000D01*
X151596700Y-270651700D01*
G37*
X151596700Y-270651700D02*
X151596700Y-284938300D01*
X150803000Y-285732000D01*
X136516400Y-285732000D01*
X135722700Y-284938300D01*
X135722700Y-270651700D01*
X136516400Y-269858000D01*
X150803000Y-269858000D01*
X151596700Y-270651700D01*
G36*
X353990200Y-165883300D02*
G01*
X353990200Y-180169900D01*
X353196500Y-180963600D01*
X338909900Y-180963600D01*
X338116200Y-180169900D01*
X338116200Y-165883300D01*
X338909900Y-165089600D01*
X353196500Y-165089600D01*
X353990200Y-165883300D01*
G37*
X353990200Y-165883300D02*
X353990200Y-180169900D01*
X353196500Y-180963600D01*
X338909900Y-180963600D01*
X338116200Y-180169900D01*
X338116200Y-165883300D01*
X338909900Y-165089600D01*
X353196500Y-165089600D01*
X353990200Y-165883300D01*
G36*
X101593600Y-232554100D02*
G01*
X101593600Y-246840700D01*
X100799900Y-247634400D01*
X86513300Y-247634400D01*
X85719600Y-246840700D01*
X85719600Y-232554100D01*
X86513300Y-231760400D01*
X100799900Y-231760400D01*
X101593600Y-232554100D01*
G37*
X101593600Y-232554100D02*
X101593600Y-246840700D01*
X100799900Y-247634400D01*
X86513300Y-247634400D01*
X85719600Y-246840700D01*
X85719600Y-232554100D01*
X86513300Y-231760400D01*
X100799900Y-231760400D01*
X101593600Y-232554100D01*
G36*
X187313200Y-251602900D02*
G01*
X187313200Y-265889500D01*
X186519500Y-266683200D01*
X172232900Y-266683200D01*
X171439200Y-265889500D01*
X171439200Y-251602900D01*
X172232900Y-250809200D01*
X186519500Y-250809200D01*
X187313200Y-251602900D01*
G37*
X187313200Y-251602900D02*
X187313200Y-265889500D01*
X186519500Y-266683200D01*
X172232900Y-266683200D01*
X171439200Y-265889500D01*
X171439200Y-251602900D01*
X172232900Y-250809200D01*
X186519500Y-250809200D01*
X187313200Y-251602900D01*
G36*
X420661000Y-213505300D02*
G01*
X420661000Y-227791900D01*
X419867300Y-228585600D01*
X405580700Y-228585600D01*
X404787000Y-227791900D01*
X404787000Y-213505300D01*
X405580700Y-212711600D01*
X419867300Y-212711600D01*
X420661000Y-213505300D01*
G37*
X420661000Y-213505300D02*
X420661000Y-227791900D01*
X419867300Y-228585600D01*
X405580700Y-228585600D01*
X404787000Y-227791900D01*
X404787000Y-213505300D01*
X405580700Y-212711600D01*
X419867300Y-212711600D01*
X420661000Y-213505300D01*
G36*
X306368200Y-165883300D02*
G01*
X306368200Y-180169900D01*
X305574500Y-180963600D01*
X291287900Y-180963600D01*
X290494200Y-180169900D01*
X290494200Y-165883300D01*
X291287900Y-165089600D01*
X305574500Y-165089600D01*
X306368200Y-165883300D01*
G37*
X306368200Y-165883300D02*
X306368200Y-180169900D01*
X305574500Y-180963600D01*
X291287900Y-180963600D01*
X290494200Y-180169900D01*
X290494200Y-165883300D01*
X291287900Y-165089600D01*
X305574500Y-165089600D01*
X306368200Y-165883300D01*
G36*
X145643950Y-252793450D02*
G01*
X145643950Y-267873750D01*
X144850250Y-268667450D01*
X137706950Y-268667450D01*
X136913250Y-267873750D01*
X136913250Y-252793450D01*
X137706950Y-251999750D01*
X144850250Y-251999750D01*
X145643950Y-252793450D01*
G37*
X145643950Y-252793450D02*
X145643950Y-267873750D01*
X144850250Y-268667450D01*
X137706950Y-268667450D01*
X136913250Y-267873750D01*
X136913250Y-252793450D01*
X137706950Y-251999750D01*
X144850250Y-251999750D01*
X145643950Y-252793450D01*
G36*
X293272150Y-271842250D02*
G01*
X293272150Y-286922550D01*
X292478450Y-287716250D01*
X285335150Y-287716250D01*
X284541450Y-286922550D01*
X284541450Y-271842250D01*
X285335150Y-271048550D01*
X292478450Y-271048550D01*
X293272150Y-271842250D01*
G37*
X293272150Y-271842250D02*
X293272150Y-286922550D01*
X292478450Y-287716250D01*
X285335150Y-287716250D01*
X284541450Y-286922550D01*
X284541450Y-271842250D01*
X285335150Y-271048550D01*
X292478450Y-271048550D01*
X293272150Y-271842250D01*
G36*
X101593600Y-270651700D02*
G01*
X101593600Y-284938300D01*
X100799900Y-285732000D01*
X86513300Y-285732000D01*
X85719600Y-284938300D01*
X85719600Y-270651700D01*
X86513300Y-269858000D01*
X100799900Y-269858000D01*
X101593600Y-270651700D01*
G37*
X101593600Y-270651700D02*
X101593600Y-284938300D01*
X100799900Y-285732000D01*
X86513300Y-285732000D01*
X85719600Y-284938300D01*
X85719600Y-270651700D01*
X86513300Y-269858000D01*
X100799900Y-269858000D01*
X101593600Y-270651700D01*
G36*
X439709800Y-270651700D02*
G01*
X439709800Y-284938300D01*
X438916100Y-285732000D01*
X424629500Y-285732000D01*
X423835800Y-284938300D01*
X423835800Y-270651700D01*
X424629500Y-269858000D01*
X438916100Y-269858000D01*
X439709800Y-270651700D01*
G37*
X439709800Y-270651700D02*
X439709800Y-284938300D01*
X438916100Y-285732000D01*
X424629500Y-285732000D01*
X423835800Y-284938300D01*
X423835800Y-270651700D01*
X424629500Y-269858000D01*
X438916100Y-269858000D01*
X439709800Y-270651700D01*
G36*
X367086250Y-195647050D02*
G01*
X367086250Y-210727350D01*
X366292550Y-211521050D01*
X359149250Y-211521050D01*
X358355550Y-210727350D01*
X358355550Y-195647050D01*
X359149250Y-194853350D01*
X366292550Y-194853350D01*
X367086250Y-195647050D01*
G37*
X367086250Y-195647050D02*
X367086250Y-210727350D01*
X366292550Y-211521050D01*
X359149250Y-211521050D01*
X358355550Y-210727350D01*
X358355550Y-195647050D01*
X359149250Y-194853350D01*
X366292550Y-194853350D01*
X367086250Y-195647050D01*
G36*
X244459600Y-251602900D02*
G01*
X244459600Y-265889500D01*
X243665900Y-266683200D01*
X229379300Y-266683200D01*
X228585600Y-265889500D01*
X228585600Y-251602900D01*
X229379300Y-250809200D01*
X243665900Y-250809200D01*
X244459600Y-251602900D01*
G37*
X244459600Y-251602900D02*
X244459600Y-265889500D01*
X243665900Y-266683200D01*
X229379300Y-266683200D01*
X228585600Y-265889500D01*
X228585600Y-251602900D01*
X229379300Y-250809200D01*
X243665900Y-250809200D01*
X244459600Y-251602900D01*
G36*
X439709800Y-194456500D02*
G01*
X439709800Y-208743100D01*
X438916100Y-209536800D01*
X424629500Y-209536800D01*
X423835800Y-208743100D01*
X423835800Y-194456500D01*
X424629500Y-193662800D01*
X438916100Y-193662800D01*
X439709800Y-194456500D01*
G37*
X439709800Y-194456500D02*
X439709800Y-208743100D01*
X438916100Y-209536800D01*
X424629500Y-209536800D01*
X423835800Y-208743100D01*
X423835800Y-194456500D01*
X424629500Y-193662800D01*
X438916100Y-193662800D01*
X439709800Y-194456500D01*
G36*
X390897250Y-195647050D02*
G01*
X390897250Y-210727350D01*
X390103550Y-211521050D01*
X382960250Y-211521050D01*
X382166550Y-210727350D01*
X382166550Y-195647050D01*
X382960250Y-194853350D01*
X390103550Y-194853350D01*
X390897250Y-195647050D01*
G37*
X390897250Y-195647050D02*
X390897250Y-210727350D01*
X390103550Y-211521050D01*
X382960250Y-211521050D01*
X382166550Y-210727350D01*
X382166550Y-195647050D01*
X382960250Y-194853350D01*
X390103550Y-194853350D01*
X390897250Y-195647050D01*
G36*
X193265950Y-271842250D02*
G01*
X193265950Y-286922550D01*
X192472250Y-287716250D01*
X185328950Y-287716250D01*
X184535250Y-286922550D01*
X184535250Y-271842250D01*
X185328950Y-271048550D01*
X192472250Y-271048550D01*
X193265950Y-271842250D01*
G37*
X193265950Y-271842250D02*
X193265950Y-286922550D01*
X192472250Y-287716250D01*
X185328950Y-287716250D01*
X184535250Y-286922550D01*
X184535250Y-271842250D01*
X185328950Y-271048550D01*
X192472250Y-271048550D01*
X193265950Y-271842250D01*
D12*
X353990200Y-293669000D03*
M02*
