%TF.GenerationSoftware,KiCad,Pcbnew,(5.1.10)-1*%
%TF.CreationDate,2021-11-05T16:32:18-04:00*%
%TF.ProjectId,custom_keyboard plate,63757374-6f6d-45f6-9b65-79626f617264,rev?*%
%TF.SameCoordinates,Original*%
%TF.FileFunction,Legend,Top*%
%TF.FilePolarity,Positive*%
%FSLAX46Y46*%
G04 Gerber Fmt 4.6, Leading zero omitted, Abs format (unit mm)*
G04 Created by KiCad (PCBNEW (5.1.10)-1) date 2021-11-05 16:32:18*
%MOMM*%
%LPD*%
G01*
G04 APERTURE LIST*
%ADD10C,0.100000*%
%ADD11C,0.800000*%
G04 APERTURE END LIST*
%LPC*%
D10*
G36*
X287319400Y-213505300D02*
G01*
X287319400Y-227791900D01*
X286525700Y-228585600D01*
X272239100Y-228585600D01*
X271445400Y-227791900D01*
X271445400Y-213505300D01*
X272239100Y-212711600D01*
X286525700Y-212711600D01*
X287319400Y-213505300D01*
G37*
X287319400Y-213505300D02*
X287319400Y-227791900D01*
X286525700Y-228585600D01*
X272239100Y-228585600D01*
X271445400Y-227791900D01*
X271445400Y-213505300D01*
X272239100Y-212711600D01*
X286525700Y-212711600D01*
X287319400Y-213505300D01*
G36*
X220648600Y-194456500D02*
G01*
X220648600Y-208743100D01*
X219854900Y-209536800D01*
X205568300Y-209536800D01*
X204774600Y-208743100D01*
X204774600Y-194456500D01*
X205568300Y-193662800D01*
X219854900Y-193662800D01*
X220648600Y-194456500D01*
G37*
X220648600Y-194456500D02*
X220648600Y-208743100D01*
X219854900Y-209536800D01*
X205568300Y-209536800D01*
X204774600Y-208743100D01*
X204774600Y-194456500D01*
X205568300Y-193662800D01*
X219854900Y-193662800D01*
X220648600Y-194456500D01*
G36*
X239697400Y-194456500D02*
G01*
X239697400Y-208743100D01*
X238903700Y-209536800D01*
X224617100Y-209536800D01*
X223823400Y-208743100D01*
X223823400Y-194456500D01*
X224617100Y-193662800D01*
X238903700Y-193662800D01*
X239697400Y-194456500D01*
G37*
X239697400Y-194456500D02*
X239697400Y-208743100D01*
X238903700Y-209536800D01*
X224617100Y-209536800D01*
X223823400Y-208743100D01*
X223823400Y-194456500D01*
X224617100Y-193662800D01*
X238903700Y-193662800D01*
X239697400Y-194456500D01*
G36*
X192075400Y-213505300D02*
G01*
X192075400Y-227791900D01*
X191281700Y-228585600D01*
X176995100Y-228585600D01*
X176201400Y-227791900D01*
X176201400Y-213505300D01*
X176995100Y-212711600D01*
X191281700Y-212711600D01*
X192075400Y-213505300D01*
G37*
X192075400Y-213505300D02*
X192075400Y-227791900D01*
X191281700Y-228585600D01*
X176995100Y-228585600D01*
X176201400Y-227791900D01*
X176201400Y-213505300D01*
X176995100Y-212711600D01*
X191281700Y-212711600D01*
X192075400Y-213505300D01*
G36*
X158740000Y-232554100D02*
G01*
X158740000Y-246840700D01*
X157946300Y-247634400D01*
X143659700Y-247634400D01*
X142866000Y-246840700D01*
X142866000Y-232554100D01*
X143659700Y-231760400D01*
X157946300Y-231760400D01*
X158740000Y-232554100D01*
G37*
X158740000Y-232554100D02*
X158740000Y-246840700D01*
X157946300Y-247634400D01*
X143659700Y-247634400D01*
X142866000Y-246840700D01*
X142866000Y-232554100D01*
X143659700Y-231760400D01*
X157946300Y-231760400D01*
X158740000Y-232554100D01*
G36*
X306368200Y-213505300D02*
G01*
X306368200Y-227791900D01*
X305574500Y-228585600D01*
X291287900Y-228585600D01*
X290494200Y-227791900D01*
X290494200Y-213505300D01*
X291287900Y-212711600D01*
X305574500Y-212711600D01*
X306368200Y-213505300D01*
G37*
X306368200Y-213505300D02*
X306368200Y-227791900D01*
X305574500Y-228585600D01*
X291287900Y-228585600D01*
X290494200Y-227791900D01*
X290494200Y-213505300D01*
X291287900Y-212711600D01*
X305574500Y-212711600D01*
X306368200Y-213505300D01*
G36*
X311130400Y-232554100D02*
G01*
X311130400Y-246840700D01*
X310336700Y-247634400D01*
X296050100Y-247634400D01*
X295256400Y-246840700D01*
X295256400Y-232554100D01*
X296050100Y-231760400D01*
X310336700Y-231760400D01*
X311130400Y-232554100D01*
G37*
X311130400Y-232554100D02*
X311130400Y-246840700D01*
X310336700Y-247634400D01*
X296050100Y-247634400D01*
X295256400Y-246840700D01*
X295256400Y-232554100D01*
X296050100Y-231760400D01*
X310336700Y-231760400D01*
X311130400Y-232554100D01*
G36*
X349228000Y-232554100D02*
G01*
X349228000Y-246840700D01*
X348434300Y-247634400D01*
X334147700Y-247634400D01*
X333354000Y-246840700D01*
X333354000Y-232554100D01*
X334147700Y-231760400D01*
X348434300Y-231760400D01*
X349228000Y-232554100D01*
G37*
X349228000Y-232554100D02*
X349228000Y-246840700D01*
X348434300Y-247634400D01*
X334147700Y-247634400D01*
X333354000Y-246840700D01*
X333354000Y-232554100D01*
X334147700Y-231760400D01*
X348434300Y-231760400D01*
X349228000Y-232554100D01*
G36*
X230173000Y-213505300D02*
G01*
X230173000Y-227791900D01*
X229379300Y-228585600D01*
X215092700Y-228585600D01*
X214299000Y-227791900D01*
X214299000Y-213505300D01*
X215092700Y-212711600D01*
X229379300Y-212711600D01*
X230173000Y-213505300D01*
G37*
X230173000Y-213505300D02*
X230173000Y-227791900D01*
X229379300Y-228585600D01*
X215092700Y-228585600D01*
X214299000Y-227791900D01*
X214299000Y-213505300D01*
X215092700Y-212711600D01*
X229379300Y-212711600D01*
X230173000Y-213505300D01*
G36*
X125404600Y-194456500D02*
G01*
X125404600Y-208743100D01*
X124610900Y-209536800D01*
X110324300Y-209536800D01*
X109530600Y-208743100D01*
X109530600Y-194456500D01*
X110324300Y-193662800D01*
X124610900Y-193662800D01*
X125404600Y-194456500D01*
G37*
X125404600Y-194456500D02*
X125404600Y-208743100D01*
X124610900Y-209536800D01*
X110324300Y-209536800D01*
X109530600Y-208743100D01*
X109530600Y-194456500D01*
X110324300Y-193662800D01*
X124610900Y-193662800D01*
X125404600Y-194456500D01*
G36*
X363514600Y-213505300D02*
G01*
X363514600Y-227791900D01*
X362720900Y-228585600D01*
X348434300Y-228585600D01*
X347640600Y-227791900D01*
X347640600Y-213505300D01*
X348434300Y-212711600D01*
X362720900Y-212711600D01*
X363514600Y-213505300D01*
G37*
X363514600Y-213505300D02*
X363514600Y-227791900D01*
X362720900Y-228585600D01*
X348434300Y-228585600D01*
X347640600Y-227791900D01*
X347640600Y-213505300D01*
X348434300Y-212711600D01*
X362720900Y-212711600D01*
X363514600Y-213505300D01*
G36*
X144453400Y-194456500D02*
G01*
X144453400Y-208743100D01*
X143659700Y-209536800D01*
X129373100Y-209536800D01*
X128579400Y-208743100D01*
X128579400Y-194456500D01*
X129373100Y-193662800D01*
X143659700Y-193662800D01*
X144453400Y-194456500D01*
G37*
X144453400Y-194456500D02*
X144453400Y-208743100D01*
X143659700Y-209536800D01*
X129373100Y-209536800D01*
X128579400Y-208743100D01*
X128579400Y-194456500D01*
X129373100Y-193662800D01*
X143659700Y-193662800D01*
X144453400Y-194456500D01*
G36*
X330179200Y-232554100D02*
G01*
X330179200Y-246840700D01*
X329385500Y-247634400D01*
X315098900Y-247634400D01*
X314305200Y-246840700D01*
X314305200Y-232554100D01*
X315098900Y-231760400D01*
X329385500Y-231760400D01*
X330179200Y-232554100D01*
G37*
X330179200Y-232554100D02*
X330179200Y-246840700D01*
X329385500Y-247634400D01*
X315098900Y-247634400D01*
X314305200Y-246840700D01*
X314305200Y-232554100D01*
X315098900Y-231760400D01*
X329385500Y-231760400D01*
X330179200Y-232554100D01*
G36*
X277795000Y-194456500D02*
G01*
X277795000Y-208743100D01*
X277001300Y-209536800D01*
X262714700Y-209536800D01*
X261921000Y-208743100D01*
X261921000Y-194456500D01*
X262714700Y-193662800D01*
X277001300Y-193662800D01*
X277795000Y-194456500D01*
G37*
X277795000Y-194456500D02*
X277795000Y-208743100D01*
X277001300Y-209536800D01*
X262714700Y-209536800D01*
X261921000Y-208743100D01*
X261921000Y-194456500D01*
X262714700Y-193662800D01*
X277001300Y-193662800D01*
X277795000Y-194456500D01*
G36*
X249221800Y-213505300D02*
G01*
X249221800Y-227791900D01*
X248428100Y-228585600D01*
X234141500Y-228585600D01*
X233347800Y-227791900D01*
X233347800Y-213505300D01*
X234141500Y-212711600D01*
X248428100Y-212711600D01*
X249221800Y-213505300D01*
G37*
X249221800Y-213505300D02*
X249221800Y-227791900D01*
X248428100Y-228585600D01*
X234141500Y-228585600D01*
X233347800Y-227791900D01*
X233347800Y-213505300D01*
X234141500Y-212711600D01*
X248428100Y-212711600D01*
X249221800Y-213505300D01*
G36*
X151596700Y-270651700D02*
G01*
X151596700Y-284938300D01*
X150803000Y-285732000D01*
X136516400Y-285732000D01*
X135722700Y-284938300D01*
X135722700Y-270651700D01*
X136516400Y-269858000D01*
X150803000Y-269858000D01*
X151596700Y-270651700D01*
G37*
X151596700Y-270651700D02*
X151596700Y-284938300D01*
X150803000Y-285732000D01*
X136516400Y-285732000D01*
X135722700Y-284938300D01*
X135722700Y-270651700D01*
X136516400Y-269858000D01*
X150803000Y-269858000D01*
X151596700Y-270651700D01*
G36*
X318273700Y-270651700D02*
G01*
X318273700Y-284938300D01*
X317480000Y-285732000D01*
X303193400Y-285732000D01*
X302399700Y-284938300D01*
X302399700Y-270651700D01*
X303193400Y-269858000D01*
X317480000Y-269858000D01*
X318273700Y-270651700D01*
G37*
X318273700Y-270651700D02*
X318273700Y-284938300D01*
X317480000Y-285732000D01*
X303193400Y-285732000D01*
X302399700Y-284938300D01*
X302399700Y-270651700D01*
X303193400Y-269858000D01*
X317480000Y-269858000D01*
X318273700Y-270651700D01*
G36*
X439709800Y-270651700D02*
G01*
X439709800Y-284938300D01*
X438916100Y-285732000D01*
X424629500Y-285732000D01*
X423835800Y-284938300D01*
X423835800Y-270651700D01*
X424629500Y-269858000D01*
X438916100Y-269858000D01*
X439709800Y-270651700D01*
G37*
X439709800Y-270651700D02*
X439709800Y-284938300D01*
X438916100Y-285732000D01*
X424629500Y-285732000D01*
X423835800Y-284938300D01*
X423835800Y-270651700D01*
X424629500Y-269858000D01*
X438916100Y-269858000D01*
X439709800Y-270651700D01*
G36*
X365895700Y-270651700D02*
G01*
X365895700Y-284938300D01*
X365102000Y-285732000D01*
X350815400Y-285732000D01*
X350021700Y-284938300D01*
X350021700Y-270651700D01*
X350815400Y-269858000D01*
X365102000Y-269858000D01*
X365895700Y-270651700D01*
G37*
X365895700Y-270651700D02*
X365895700Y-284938300D01*
X365102000Y-285732000D01*
X350815400Y-285732000D01*
X350021700Y-284938300D01*
X350021700Y-270651700D01*
X350815400Y-269858000D01*
X365102000Y-269858000D01*
X365895700Y-270651700D01*
G36*
X389706700Y-270651700D02*
G01*
X389706700Y-284938300D01*
X388913000Y-285732000D01*
X374626400Y-285732000D01*
X373832700Y-284938300D01*
X373832700Y-270651700D01*
X374626400Y-269858000D01*
X388913000Y-269858000D01*
X389706700Y-270651700D01*
G37*
X389706700Y-270651700D02*
X389706700Y-284938300D01*
X388913000Y-285732000D01*
X374626400Y-285732000D01*
X373832700Y-284938300D01*
X373832700Y-270651700D01*
X374626400Y-269858000D01*
X388913000Y-269858000D01*
X389706700Y-270651700D01*
G36*
X306368200Y-165883300D02*
G01*
X306368200Y-180169900D01*
X305574500Y-180963600D01*
X291287900Y-180963600D01*
X290494200Y-180169900D01*
X290494200Y-165883300D01*
X291287900Y-165089600D01*
X305574500Y-165089600D01*
X306368200Y-165883300D01*
G37*
X306368200Y-165883300D02*
X306368200Y-180169900D01*
X305574500Y-180963600D01*
X291287900Y-180963600D01*
X290494200Y-180169900D01*
X290494200Y-165883300D01*
X291287900Y-165089600D01*
X305574500Y-165089600D01*
X306368200Y-165883300D01*
G36*
X342084700Y-270651700D02*
G01*
X342084700Y-284938300D01*
X341291000Y-285732000D01*
X327004400Y-285732000D01*
X326210700Y-284938300D01*
X326210700Y-270651700D01*
X327004400Y-269858000D01*
X341291000Y-269858000D01*
X342084700Y-270651700D01*
G37*
X342084700Y-270651700D02*
X342084700Y-284938300D01*
X341291000Y-285732000D01*
X327004400Y-285732000D01*
X326210700Y-284938300D01*
X326210700Y-270651700D01*
X327004400Y-269858000D01*
X341291000Y-269858000D01*
X342084700Y-270651700D01*
G36*
X301606000Y-251602900D02*
G01*
X301606000Y-265889500D01*
X300812300Y-266683200D01*
X286525700Y-266683200D01*
X285732000Y-265889500D01*
X285732000Y-251602900D01*
X286525700Y-250809200D01*
X300812300Y-250809200D01*
X301606000Y-251602900D01*
G37*
X301606000Y-251602900D02*
X301606000Y-265889500D01*
X300812300Y-266683200D01*
X286525700Y-266683200D01*
X285732000Y-265889500D01*
X285732000Y-251602900D01*
X286525700Y-250809200D01*
X300812300Y-250809200D01*
X301606000Y-251602900D01*
G36*
X320654800Y-251602900D02*
G01*
X320654800Y-265889500D01*
X319861100Y-266683200D01*
X305574500Y-266683200D01*
X304780800Y-265889500D01*
X304780800Y-251602900D01*
X305574500Y-250809200D01*
X319861100Y-250809200D01*
X320654800Y-251602900D01*
G37*
X320654800Y-251602900D02*
X320654800Y-265889500D01*
X319861100Y-266683200D01*
X305574500Y-266683200D01*
X304780800Y-265889500D01*
X304780800Y-251602900D01*
X305574500Y-250809200D01*
X319861100Y-250809200D01*
X320654800Y-251602900D01*
G36*
X439709800Y-194456500D02*
G01*
X439709800Y-208743100D01*
X438916100Y-209536800D01*
X424629500Y-209536800D01*
X423835800Y-208743100D01*
X423835800Y-194456500D01*
X424629500Y-193662800D01*
X438916100Y-193662800D01*
X439709800Y-194456500D01*
G37*
X439709800Y-194456500D02*
X439709800Y-208743100D01*
X438916100Y-209536800D01*
X424629500Y-209536800D01*
X423835800Y-208743100D01*
X423835800Y-194456500D01*
X424629500Y-193662800D01*
X438916100Y-193662800D01*
X439709800Y-194456500D01*
G36*
X206362000Y-251602900D02*
G01*
X206362000Y-265889500D01*
X205568300Y-266683200D01*
X191281700Y-266683200D01*
X190488000Y-265889500D01*
X190488000Y-251602900D01*
X191281700Y-250809200D01*
X205568300Y-250809200D01*
X206362000Y-251602900D01*
G37*
X206362000Y-251602900D02*
X206362000Y-265889500D01*
X205568300Y-266683200D01*
X191281700Y-266683200D01*
X190488000Y-265889500D01*
X190488000Y-251602900D01*
X191281700Y-250809200D01*
X205568300Y-250809200D01*
X206362000Y-251602900D01*
G36*
X392087800Y-165883300D02*
G01*
X392087800Y-180169900D01*
X391294100Y-180963600D01*
X377007500Y-180963600D01*
X376213800Y-180169900D01*
X376213800Y-165883300D01*
X377007500Y-165089600D01*
X391294100Y-165089600D01*
X392087800Y-165883300D01*
G37*
X392087800Y-165883300D02*
X392087800Y-180169900D01*
X391294100Y-180963600D01*
X377007500Y-180963600D01*
X376213800Y-180169900D01*
X376213800Y-165883300D01*
X377007500Y-165089600D01*
X391294100Y-165089600D01*
X392087800Y-165883300D01*
G36*
X458758600Y-194456500D02*
G01*
X458758600Y-208743100D01*
X457964900Y-209536800D01*
X443678300Y-209536800D01*
X442884600Y-208743100D01*
X442884600Y-194456500D01*
X443678300Y-193662800D01*
X457964900Y-193662800D01*
X458758600Y-194456500D01*
G37*
X458758600Y-194456500D02*
X458758600Y-208743100D01*
X457964900Y-209536800D01*
X443678300Y-209536800D01*
X442884600Y-208743100D01*
X442884600Y-194456500D01*
X443678300Y-193662800D01*
X457964900Y-193662800D01*
X458758600Y-194456500D01*
G36*
X244459600Y-251602900D02*
G01*
X244459600Y-265889500D01*
X243665900Y-266683200D01*
X229379300Y-266683200D01*
X228585600Y-265889500D01*
X228585600Y-251602900D01*
X229379300Y-250809200D01*
X243665900Y-250809200D01*
X244459600Y-251602900D01*
G37*
X244459600Y-251602900D02*
X244459600Y-265889500D01*
X243665900Y-266683200D01*
X229379300Y-266683200D01*
X228585600Y-265889500D01*
X228585600Y-251602900D01*
X229379300Y-250809200D01*
X243665900Y-250809200D01*
X244459600Y-251602900D01*
G36*
X353990200Y-165883300D02*
G01*
X353990200Y-180169900D01*
X353196500Y-180963600D01*
X338909900Y-180963600D01*
X338116200Y-180169900D01*
X338116200Y-165883300D01*
X338909900Y-165089600D01*
X353196500Y-165089600D01*
X353990200Y-165883300D01*
G37*
X353990200Y-165883300D02*
X353990200Y-180169900D01*
X353196500Y-180963600D01*
X338909900Y-180963600D01*
X338116200Y-180169900D01*
X338116200Y-165883300D01*
X338909900Y-165089600D01*
X353196500Y-165089600D01*
X353990200Y-165883300D01*
G36*
X420661000Y-213505300D02*
G01*
X420661000Y-227791900D01*
X419867300Y-228585600D01*
X405580700Y-228585600D01*
X404787000Y-227791900D01*
X404787000Y-213505300D01*
X405580700Y-212711600D01*
X419867300Y-212711600D01*
X420661000Y-213505300D01*
G37*
X420661000Y-213505300D02*
X420661000Y-227791900D01*
X419867300Y-228585600D01*
X405580700Y-228585600D01*
X404787000Y-227791900D01*
X404787000Y-213505300D01*
X405580700Y-212711600D01*
X419867300Y-212711600D01*
X420661000Y-213505300D01*
G36*
X101593600Y-194456500D02*
G01*
X101593600Y-208743100D01*
X100799900Y-209536800D01*
X86513300Y-209536800D01*
X85719600Y-208743100D01*
X85719600Y-194456500D01*
X86513300Y-193662800D01*
X100799900Y-193662800D01*
X101593600Y-194456500D01*
G37*
X101593600Y-194456500D02*
X101593600Y-208743100D01*
X100799900Y-209536800D01*
X86513300Y-209536800D01*
X85719600Y-208743100D01*
X85719600Y-194456500D01*
X86513300Y-193662800D01*
X100799900Y-193662800D01*
X101593600Y-194456500D01*
G36*
X101593600Y-213505300D02*
G01*
X101593600Y-227791900D01*
X100799900Y-228585600D01*
X86513300Y-228585600D01*
X85719600Y-227791900D01*
X85719600Y-213505300D01*
X86513300Y-212711600D01*
X100799900Y-212711600D01*
X101593600Y-213505300D01*
G37*
X101593600Y-213505300D02*
X101593600Y-227791900D01*
X100799900Y-228585600D01*
X86513300Y-228585600D01*
X85719600Y-227791900D01*
X85719600Y-213505300D01*
X86513300Y-212711600D01*
X100799900Y-212711600D01*
X101593600Y-213505300D01*
G36*
X101593600Y-251602900D02*
G01*
X101593600Y-265889500D01*
X100799900Y-266683200D01*
X86513300Y-266683200D01*
X85719600Y-265889500D01*
X85719600Y-251602900D01*
X86513300Y-250809200D01*
X100799900Y-250809200D01*
X101593600Y-251602900D01*
G37*
X101593600Y-251602900D02*
X101593600Y-265889500D01*
X100799900Y-266683200D01*
X86513300Y-266683200D01*
X85719600Y-265889500D01*
X85719600Y-251602900D01*
X86513300Y-250809200D01*
X100799900Y-250809200D01*
X101593600Y-251602900D01*
G36*
X220648600Y-165883300D02*
G01*
X220648600Y-180169900D01*
X219854900Y-180963600D01*
X205568300Y-180963600D01*
X204774600Y-180169900D01*
X204774600Y-165883300D01*
X205568300Y-165089600D01*
X219854900Y-165089600D01*
X220648600Y-165883300D01*
G37*
X220648600Y-165883300D02*
X220648600Y-180169900D01*
X219854900Y-180963600D01*
X205568300Y-180963600D01*
X204774600Y-180169900D01*
X204774600Y-165883300D01*
X205568300Y-165089600D01*
X219854900Y-165089600D01*
X220648600Y-165883300D01*
G36*
X249221800Y-165883300D02*
G01*
X249221800Y-180169900D01*
X248428100Y-180963600D01*
X234141500Y-180963600D01*
X233347800Y-180169900D01*
X233347800Y-165883300D01*
X234141500Y-165089600D01*
X248428100Y-165089600D01*
X249221800Y-165883300D01*
G37*
X249221800Y-165883300D02*
X249221800Y-180169900D01*
X248428100Y-180963600D01*
X234141500Y-180963600D01*
X233347800Y-180169900D01*
X233347800Y-165883300D01*
X234141500Y-165089600D01*
X248428100Y-165089600D01*
X249221800Y-165883300D01*
G36*
X420661000Y-270651700D02*
G01*
X420661000Y-284938300D01*
X419867300Y-285732000D01*
X405580700Y-285732000D01*
X404787000Y-284938300D01*
X404787000Y-270651700D01*
X405580700Y-269858000D01*
X419867300Y-269858000D01*
X420661000Y-270651700D01*
G37*
X420661000Y-270651700D02*
X420661000Y-284938300D01*
X419867300Y-285732000D01*
X405580700Y-285732000D01*
X404787000Y-284938300D01*
X404787000Y-270651700D01*
X405580700Y-269858000D01*
X419867300Y-269858000D01*
X420661000Y-270651700D01*
G36*
X187313200Y-251602900D02*
G01*
X187313200Y-265889500D01*
X186519500Y-266683200D01*
X172232900Y-266683200D01*
X171439200Y-265889500D01*
X171439200Y-251602900D01*
X172232900Y-250809200D01*
X186519500Y-250809200D01*
X187313200Y-251602900D01*
G37*
X187313200Y-251602900D02*
X187313200Y-265889500D01*
X186519500Y-266683200D01*
X172232900Y-266683200D01*
X171439200Y-265889500D01*
X171439200Y-251602900D01*
X172232900Y-250809200D01*
X186519500Y-250809200D01*
X187313200Y-251602900D01*
G36*
X382563400Y-194456500D02*
G01*
X382563400Y-208743100D01*
X381769700Y-209536800D01*
X367483100Y-209536800D01*
X366689400Y-208743100D01*
X366689400Y-194456500D01*
X367483100Y-193662800D01*
X381769700Y-193662800D01*
X382563400Y-194456500D01*
G37*
X382563400Y-194456500D02*
X382563400Y-208743100D01*
X381769700Y-209536800D01*
X367483100Y-209536800D01*
X366689400Y-208743100D01*
X366689400Y-194456500D01*
X367483100Y-193662800D01*
X381769700Y-193662800D01*
X382563400Y-194456500D01*
G36*
X196837600Y-232554100D02*
G01*
X196837600Y-246840700D01*
X196043900Y-247634400D01*
X181757300Y-247634400D01*
X180963600Y-246840700D01*
X180963600Y-232554100D01*
X181757300Y-231760400D01*
X196043900Y-231760400D01*
X196837600Y-232554100D01*
G37*
X196837600Y-232554100D02*
X196837600Y-246840700D01*
X196043900Y-247634400D01*
X181757300Y-247634400D01*
X180963600Y-246840700D01*
X180963600Y-232554100D01*
X181757300Y-231760400D01*
X196043900Y-231760400D01*
X196837600Y-232554100D01*
G36*
X234935200Y-232554100D02*
G01*
X234935200Y-246840700D01*
X234141500Y-247634400D01*
X219854900Y-247634400D01*
X219061200Y-246840700D01*
X219061200Y-232554100D01*
X219854900Y-231760400D01*
X234141500Y-231760400D01*
X234935200Y-232554100D01*
G37*
X234935200Y-232554100D02*
X234935200Y-246840700D01*
X234141500Y-247634400D01*
X219854900Y-247634400D01*
X219061200Y-246840700D01*
X219061200Y-232554100D01*
X219854900Y-231760400D01*
X234141500Y-231760400D01*
X234935200Y-232554100D01*
G36*
X325417000Y-213505300D02*
G01*
X325417000Y-227791900D01*
X324623300Y-228585600D01*
X310336700Y-228585600D01*
X309543000Y-227791900D01*
X309543000Y-213505300D01*
X310336700Y-212711600D01*
X324623300Y-212711600D01*
X325417000Y-213505300D01*
G37*
X325417000Y-213505300D02*
X325417000Y-227791900D01*
X324623300Y-228585600D01*
X310336700Y-228585600D01*
X309543000Y-227791900D01*
X309543000Y-213505300D01*
X310336700Y-212711600D01*
X324623300Y-212711600D01*
X325417000Y-213505300D01*
G36*
X296843800Y-194456500D02*
G01*
X296843800Y-208743100D01*
X296050100Y-209536800D01*
X281763500Y-209536800D01*
X280969800Y-208743100D01*
X280969800Y-194456500D01*
X281763500Y-193662800D01*
X296050100Y-193662800D01*
X296843800Y-194456500D01*
G37*
X296843800Y-194456500D02*
X296843800Y-208743100D01*
X296050100Y-209536800D01*
X281763500Y-209536800D01*
X280969800Y-208743100D01*
X280969800Y-194456500D01*
X281763500Y-193662800D01*
X296050100Y-193662800D01*
X296843800Y-194456500D01*
G36*
X253984000Y-232554100D02*
G01*
X253984000Y-246840700D01*
X253190300Y-247634400D01*
X238903700Y-247634400D01*
X238110000Y-246840700D01*
X238110000Y-232554100D01*
X238903700Y-231760400D01*
X253190300Y-231760400D01*
X253984000Y-232554100D01*
G37*
X253984000Y-232554100D02*
X253984000Y-246840700D01*
X253190300Y-247634400D01*
X238903700Y-247634400D01*
X238110000Y-246840700D01*
X238110000Y-232554100D01*
X238903700Y-231760400D01*
X253190300Y-231760400D01*
X253984000Y-232554100D01*
G36*
X201599800Y-194456500D02*
G01*
X201599800Y-208743100D01*
X200806100Y-209536800D01*
X186519500Y-209536800D01*
X185725800Y-208743100D01*
X185725800Y-194456500D01*
X186519500Y-193662800D01*
X200806100Y-193662800D01*
X201599800Y-194456500D01*
G37*
X201599800Y-194456500D02*
X201599800Y-208743100D01*
X200806100Y-209536800D01*
X186519500Y-209536800D01*
X185725800Y-208743100D01*
X185725800Y-194456500D01*
X186519500Y-193662800D01*
X200806100Y-193662800D01*
X201599800Y-194456500D01*
G36*
X292081600Y-232554100D02*
G01*
X292081600Y-246840700D01*
X291287900Y-247634400D01*
X277001300Y-247634400D01*
X276207600Y-246840700D01*
X276207600Y-232554100D01*
X277001300Y-231760400D01*
X291287900Y-231760400D01*
X292081600Y-232554100D01*
G37*
X292081600Y-232554100D02*
X292081600Y-246840700D01*
X291287900Y-247634400D01*
X277001300Y-247634400D01*
X276207600Y-246840700D01*
X276207600Y-232554100D01*
X277001300Y-231760400D01*
X291287900Y-231760400D01*
X292081600Y-232554100D01*
G36*
X153977800Y-213505300D02*
G01*
X153977800Y-227791900D01*
X153184100Y-228585600D01*
X138897500Y-228585600D01*
X138103800Y-227791900D01*
X138103800Y-213505300D01*
X138897500Y-212711600D01*
X153184100Y-212711600D01*
X153977800Y-213505300D01*
G37*
X153977800Y-213505300D02*
X153977800Y-227791900D01*
X153184100Y-228585600D01*
X138897500Y-228585600D01*
X138103800Y-227791900D01*
X138103800Y-213505300D01*
X138897500Y-212711600D01*
X153184100Y-212711600D01*
X153977800Y-213505300D01*
G36*
X211124200Y-213505300D02*
G01*
X211124200Y-227791900D01*
X210330500Y-228585600D01*
X196043900Y-228585600D01*
X195250200Y-227791900D01*
X195250200Y-213505300D01*
X196043900Y-212711600D01*
X210330500Y-212711600D01*
X211124200Y-213505300D01*
G37*
X211124200Y-213505300D02*
X211124200Y-227791900D01*
X210330500Y-228585600D01*
X196043900Y-228585600D01*
X195250200Y-227791900D01*
X195250200Y-213505300D01*
X196043900Y-212711600D01*
X210330500Y-212711600D01*
X211124200Y-213505300D01*
G36*
X163502200Y-194456500D02*
G01*
X163502200Y-208743100D01*
X162708500Y-209536800D01*
X148421900Y-209536800D01*
X147628200Y-208743100D01*
X147628200Y-194456500D01*
X148421900Y-193662800D01*
X162708500Y-193662800D01*
X163502200Y-194456500D01*
G37*
X163502200Y-194456500D02*
X163502200Y-208743100D01*
X162708500Y-209536800D01*
X148421900Y-209536800D01*
X147628200Y-208743100D01*
X147628200Y-194456500D01*
X148421900Y-193662800D01*
X162708500Y-193662800D01*
X163502200Y-194456500D01*
G36*
X344465800Y-213505300D02*
G01*
X344465800Y-227791900D01*
X343672100Y-228585600D01*
X329385500Y-228585600D01*
X328591800Y-227791900D01*
X328591800Y-213505300D01*
X329385500Y-212711600D01*
X343672100Y-212711600D01*
X344465800Y-213505300D01*
G37*
X344465800Y-213505300D02*
X344465800Y-227791900D01*
X343672100Y-228585600D01*
X329385500Y-228585600D01*
X328591800Y-227791900D01*
X328591800Y-213505300D01*
X329385500Y-212711600D01*
X343672100Y-212711600D01*
X344465800Y-213505300D01*
G36*
X334941400Y-194456500D02*
G01*
X334941400Y-208743100D01*
X334147700Y-209536800D01*
X319861100Y-209536800D01*
X319067400Y-208743100D01*
X319067400Y-194456500D01*
X319861100Y-193662800D01*
X334147700Y-193662800D01*
X334941400Y-194456500D01*
G37*
X334941400Y-194456500D02*
X334941400Y-208743100D01*
X334147700Y-209536800D01*
X319861100Y-209536800D01*
X319067400Y-208743100D01*
X319067400Y-194456500D01*
X319861100Y-193662800D01*
X334147700Y-193662800D01*
X334941400Y-194456500D01*
G36*
X215886400Y-232554100D02*
G01*
X215886400Y-246840700D01*
X215092700Y-247634400D01*
X200806100Y-247634400D01*
X200012400Y-246840700D01*
X200012400Y-232554100D01*
X200806100Y-231760400D01*
X215092700Y-231760400D01*
X215886400Y-232554100D01*
G37*
X215886400Y-232554100D02*
X215886400Y-246840700D01*
X215092700Y-247634400D01*
X200806100Y-247634400D01*
X200012400Y-246840700D01*
X200012400Y-232554100D01*
X200806100Y-231760400D01*
X215092700Y-231760400D01*
X215886400Y-232554100D01*
G36*
X258746200Y-194456500D02*
G01*
X258746200Y-208743100D01*
X257952500Y-209536800D01*
X243665900Y-209536800D01*
X242872200Y-208743100D01*
X242872200Y-194456500D01*
X243665900Y-193662800D01*
X257952500Y-193662800D01*
X258746200Y-194456500D01*
G37*
X258746200Y-194456500D02*
X258746200Y-208743100D01*
X257952500Y-209536800D01*
X243665900Y-209536800D01*
X242872200Y-208743100D01*
X242872200Y-194456500D01*
X243665900Y-193662800D01*
X257952500Y-193662800D01*
X258746200Y-194456500D01*
G36*
X387325600Y-213505300D02*
G01*
X387325600Y-227791900D01*
X386531900Y-228585600D01*
X372245300Y-228585600D01*
X371451600Y-227791900D01*
X371451600Y-213505300D01*
X372245300Y-212711600D01*
X386531900Y-212711600D01*
X387325600Y-213505300D01*
G37*
X387325600Y-213505300D02*
X387325600Y-227791900D01*
X386531900Y-228585600D01*
X372245300Y-228585600D01*
X371451600Y-227791900D01*
X371451600Y-213505300D01*
X372245300Y-212711600D01*
X386531900Y-212711600D01*
X387325600Y-213505300D01*
G36*
X353990200Y-194456500D02*
G01*
X353990200Y-208743100D01*
X353196500Y-209536800D01*
X338909900Y-209536800D01*
X338116200Y-208743100D01*
X338116200Y-194456500D01*
X338909900Y-193662800D01*
X353196500Y-193662800D01*
X353990200Y-194456500D01*
G37*
X353990200Y-194456500D02*
X353990200Y-208743100D01*
X353196500Y-209536800D01*
X338909900Y-209536800D01*
X338116200Y-208743100D01*
X338116200Y-194456500D01*
X338909900Y-193662800D01*
X353196500Y-193662800D01*
X353990200Y-194456500D01*
G36*
X268270600Y-213505300D02*
G01*
X268270600Y-227791900D01*
X267476900Y-228585600D01*
X253190300Y-228585600D01*
X252396600Y-227791900D01*
X252396600Y-213505300D01*
X253190300Y-212711600D01*
X267476900Y-212711600D01*
X268270600Y-213505300D01*
G37*
X268270600Y-213505300D02*
X268270600Y-227791900D01*
X267476900Y-228585600D01*
X253190300Y-228585600D01*
X252396600Y-227791900D01*
X252396600Y-213505300D01*
X253190300Y-212711600D01*
X267476900Y-212711600D01*
X268270600Y-213505300D01*
G36*
X177788800Y-232554100D02*
G01*
X177788800Y-246840700D01*
X176995100Y-247634400D01*
X162708500Y-247634400D01*
X161914800Y-246840700D01*
X161914800Y-232554100D01*
X162708500Y-231760400D01*
X176995100Y-231760400D01*
X177788800Y-232554100D01*
G37*
X177788800Y-232554100D02*
X177788800Y-246840700D01*
X176995100Y-247634400D01*
X162708500Y-247634400D01*
X161914800Y-246840700D01*
X161914800Y-232554100D01*
X162708500Y-231760400D01*
X176995100Y-231760400D01*
X177788800Y-232554100D01*
G36*
X182551000Y-194456500D02*
G01*
X182551000Y-208743100D01*
X181757300Y-209536800D01*
X167470700Y-209536800D01*
X166677000Y-208743100D01*
X166677000Y-194456500D01*
X167470700Y-193662800D01*
X181757300Y-193662800D01*
X182551000Y-194456500D01*
G37*
X182551000Y-194456500D02*
X182551000Y-208743100D01*
X181757300Y-209536800D01*
X167470700Y-209536800D01*
X166677000Y-208743100D01*
X166677000Y-194456500D01*
X167470700Y-193662800D01*
X181757300Y-193662800D01*
X182551000Y-194456500D01*
G36*
X273032800Y-232554100D02*
G01*
X273032800Y-246840700D01*
X272239100Y-247634400D01*
X257952500Y-247634400D01*
X257158800Y-246840700D01*
X257158800Y-232554100D01*
X257952500Y-231760400D01*
X272239100Y-231760400D01*
X273032800Y-232554100D01*
G37*
X273032800Y-232554100D02*
X273032800Y-246840700D01*
X272239100Y-247634400D01*
X257952500Y-247634400D01*
X257158800Y-246840700D01*
X257158800Y-232554100D01*
X257952500Y-231760400D01*
X272239100Y-231760400D01*
X273032800Y-232554100D01*
G36*
X315892600Y-194456500D02*
G01*
X315892600Y-208743100D01*
X315098900Y-209536800D01*
X300812300Y-209536800D01*
X300018600Y-208743100D01*
X300018600Y-194456500D01*
X300812300Y-193662800D01*
X315098900Y-193662800D01*
X315892600Y-194456500D01*
G37*
X315892600Y-194456500D02*
X315892600Y-208743100D01*
X315098900Y-209536800D01*
X300812300Y-209536800D01*
X300018600Y-208743100D01*
X300018600Y-194456500D01*
X300812300Y-193662800D01*
X315098900Y-193662800D01*
X315892600Y-194456500D01*
G36*
X173026600Y-213505300D02*
G01*
X173026600Y-227791900D01*
X172232900Y-228585600D01*
X157946300Y-228585600D01*
X157152600Y-227791900D01*
X157152600Y-213505300D01*
X157946300Y-212711600D01*
X172232900Y-212711600D01*
X173026600Y-213505300D01*
G37*
X173026600Y-213505300D02*
X173026600Y-227791900D01*
X172232900Y-228585600D01*
X157946300Y-228585600D01*
X157152600Y-227791900D01*
X157152600Y-213505300D01*
X157946300Y-212711600D01*
X172232900Y-212711600D01*
X173026600Y-213505300D01*
G36*
X380182300Y-232554100D02*
G01*
X380182300Y-246840700D01*
X379388600Y-247634400D01*
X365102000Y-247634400D01*
X364308300Y-246840700D01*
X364308300Y-232554100D01*
X365102000Y-231760400D01*
X379388600Y-231760400D01*
X380182300Y-232554100D01*
G37*
X380182300Y-232554100D02*
X380182300Y-246840700D01*
X379388600Y-247634400D01*
X365102000Y-247634400D01*
X364308300Y-246840700D01*
X364308300Y-232554100D01*
X365102000Y-231760400D01*
X379388600Y-231760400D01*
X380182300Y-232554100D01*
G36*
X390897250Y-195647050D02*
G01*
X390897250Y-210727350D01*
X390103550Y-211521050D01*
X382960250Y-211521050D01*
X382166550Y-210727350D01*
X382166550Y-195647050D01*
X382960250Y-194853350D01*
X390103550Y-194853350D01*
X390897250Y-195647050D01*
G37*
X390897250Y-195647050D02*
X390897250Y-210727350D01*
X390103550Y-211521050D01*
X382960250Y-211521050D01*
X382166550Y-210727350D01*
X382166550Y-195647050D01*
X382960250Y-194853350D01*
X390103550Y-194853350D01*
X390897250Y-195647050D01*
G36*
X145643950Y-252793450D02*
G01*
X145643950Y-267873750D01*
X144850250Y-268667450D01*
X137706950Y-268667450D01*
X136913250Y-267873750D01*
X136913250Y-252793450D01*
X137706950Y-251999750D01*
X144850250Y-251999750D01*
X145643950Y-252793450D01*
G37*
X145643950Y-252793450D02*
X145643950Y-267873750D01*
X144850250Y-268667450D01*
X137706950Y-268667450D01*
X136913250Y-267873750D01*
X136913250Y-252793450D01*
X137706950Y-251999750D01*
X144850250Y-251999750D01*
X145643950Y-252793450D01*
G36*
X359942950Y-252793450D02*
G01*
X359942950Y-267873750D01*
X359149250Y-268667450D01*
X352005950Y-268667450D01*
X351212250Y-267873750D01*
X351212250Y-252793450D01*
X352005950Y-251999750D01*
X359149250Y-251999750D01*
X359942950Y-252793450D01*
G37*
X359942950Y-252793450D02*
X359942950Y-267873750D01*
X359149250Y-268667450D01*
X352005950Y-268667450D01*
X351212250Y-267873750D01*
X351212250Y-252793450D01*
X352005950Y-251999750D01*
X359149250Y-251999750D01*
X359942950Y-252793450D01*
G36*
X367086250Y-195647050D02*
G01*
X367086250Y-210727350D01*
X366292550Y-211521050D01*
X359149250Y-211521050D01*
X358355550Y-210727350D01*
X358355550Y-195647050D01*
X359149250Y-194853350D01*
X366292550Y-194853350D01*
X367086250Y-195647050D01*
G37*
X367086250Y-195647050D02*
X367086250Y-210727350D01*
X366292550Y-211521050D01*
X359149250Y-211521050D01*
X358355550Y-210727350D01*
X358355550Y-195647050D01*
X359149250Y-194853350D01*
X366292550Y-194853350D01*
X367086250Y-195647050D01*
G36*
X246840700Y-270651700D02*
G01*
X246840700Y-284938300D01*
X246047000Y-285732000D01*
X231760400Y-285732000D01*
X230966700Y-284938300D01*
X230966700Y-270651700D01*
X231760400Y-269858000D01*
X246047000Y-269858000D01*
X246840700Y-270651700D01*
G37*
X246840700Y-270651700D02*
X246840700Y-284938300D01*
X246047000Y-285732000D01*
X231760400Y-285732000D01*
X230966700Y-284938300D01*
X230966700Y-270651700D01*
X231760400Y-269858000D01*
X246047000Y-269858000D01*
X246840700Y-270651700D01*
G36*
X282557200Y-251602900D02*
G01*
X282557200Y-265889500D01*
X281763500Y-266683200D01*
X267476900Y-266683200D01*
X266683200Y-265889500D01*
X266683200Y-251602900D01*
X267476900Y-250809200D01*
X281763500Y-250809200D01*
X282557200Y-251602900D01*
G37*
X282557200Y-251602900D02*
X282557200Y-265889500D01*
X281763500Y-266683200D01*
X267476900Y-266683200D01*
X266683200Y-265889500D01*
X266683200Y-251602900D01*
X267476900Y-250809200D01*
X281763500Y-250809200D01*
X282557200Y-251602900D01*
G36*
X383753950Y-252793450D02*
G01*
X383753950Y-267873750D01*
X382960250Y-268667450D01*
X375816950Y-268667450D01*
X375023250Y-267873750D01*
X375023250Y-252793450D01*
X375816950Y-251999750D01*
X382960250Y-251999750D01*
X383753950Y-252793450D01*
G37*
X383753950Y-252793450D02*
X383753950Y-267873750D01*
X382960250Y-268667450D01*
X375816950Y-268667450D01*
X375023250Y-267873750D01*
X375023250Y-252793450D01*
X375816950Y-251999750D01*
X382960250Y-251999750D01*
X383753950Y-252793450D01*
G36*
X121832950Y-252793450D02*
G01*
X121832950Y-267873750D01*
X121039250Y-268667450D01*
X113895950Y-268667450D01*
X113102250Y-267873750D01*
X113102250Y-252793450D01*
X113895950Y-251999750D01*
X121039250Y-251999750D01*
X121832950Y-252793450D01*
G37*
X121832950Y-252793450D02*
X121832950Y-267873750D01*
X121039250Y-268667450D01*
X113895950Y-268667450D01*
X113102250Y-267873750D01*
X113102250Y-252793450D01*
X113895950Y-251999750D01*
X121039250Y-251999750D01*
X121832950Y-252793450D01*
G36*
X101593600Y-270651700D02*
G01*
X101593600Y-284938300D01*
X100799900Y-285732000D01*
X86513300Y-285732000D01*
X85719600Y-284938300D01*
X85719600Y-270651700D01*
X86513300Y-269858000D01*
X100799900Y-269858000D01*
X101593600Y-270651700D01*
G37*
X101593600Y-270651700D02*
X101593600Y-284938300D01*
X100799900Y-285732000D01*
X86513300Y-285732000D01*
X85719600Y-284938300D01*
X85719600Y-270651700D01*
X86513300Y-269858000D01*
X100799900Y-269858000D01*
X101593600Y-270651700D01*
G36*
X420661000Y-165883300D02*
G01*
X420661000Y-180169900D01*
X419867300Y-180963600D01*
X405580700Y-180963600D01*
X404787000Y-180169900D01*
X404787000Y-165883300D01*
X405580700Y-165089600D01*
X419867300Y-165089600D01*
X420661000Y-165883300D01*
G37*
X420661000Y-165883300D02*
X420661000Y-180169900D01*
X419867300Y-180963600D01*
X405580700Y-180963600D01*
X404787000Y-180169900D01*
X404787000Y-165883300D01*
X405580700Y-165089600D01*
X419867300Y-165089600D01*
X420661000Y-165883300D01*
G36*
X364705150Y-233744650D02*
G01*
X364705150Y-248824950D01*
X363911450Y-249618650D01*
X356768150Y-249618650D01*
X355974450Y-248824950D01*
X355974450Y-233744650D01*
X356768150Y-232950950D01*
X363911450Y-232950950D01*
X364705150Y-233744650D01*
G37*
X364705150Y-233744650D02*
X364705150Y-248824950D01*
X363911450Y-249618650D01*
X356768150Y-249618650D01*
X355974450Y-248824950D01*
X355974450Y-233744650D01*
X356768150Y-232950950D01*
X363911450Y-232950950D01*
X364705150Y-233744650D01*
G36*
X175407700Y-270651700D02*
G01*
X175407700Y-284938300D01*
X174614000Y-285732000D01*
X160327400Y-285732000D01*
X159533700Y-284938300D01*
X159533700Y-270651700D01*
X160327400Y-269858000D01*
X174614000Y-269858000D01*
X175407700Y-270651700D01*
G37*
X175407700Y-270651700D02*
X175407700Y-284938300D01*
X174614000Y-285732000D01*
X160327400Y-285732000D01*
X159533700Y-284938300D01*
X159533700Y-270651700D01*
X160327400Y-269858000D01*
X174614000Y-269858000D01*
X175407700Y-270651700D01*
G36*
X373039000Y-165883300D02*
G01*
X373039000Y-180169900D01*
X372245300Y-180963600D01*
X357958700Y-180963600D01*
X357165000Y-180169900D01*
X357165000Y-165883300D01*
X357958700Y-165089600D01*
X372245300Y-165089600D01*
X373039000Y-165883300D01*
G37*
X373039000Y-165883300D02*
X373039000Y-180169900D01*
X372245300Y-180963600D01*
X357958700Y-180963600D01*
X357165000Y-180169900D01*
X357165000Y-165883300D01*
X357958700Y-165089600D01*
X372245300Y-165089600D01*
X373039000Y-165883300D01*
G36*
X388516150Y-233744650D02*
G01*
X388516150Y-248824950D01*
X387722450Y-249618650D01*
X380579150Y-249618650D01*
X379785450Y-248824950D01*
X379785450Y-233744650D01*
X380579150Y-232950950D01*
X387722450Y-232950950D01*
X388516150Y-233744650D01*
G37*
X388516150Y-233744650D02*
X388516150Y-248824950D01*
X387722450Y-249618650D01*
X380579150Y-249618650D01*
X379785450Y-248824950D01*
X379785450Y-233744650D01*
X380579150Y-232950950D01*
X387722450Y-232950950D01*
X388516150Y-233744650D01*
G36*
X452409000Y-233347800D02*
G01*
X452409000Y-246047000D01*
X451615300Y-246840700D01*
X412724000Y-246840700D01*
X411930300Y-246047000D01*
X411930300Y-233347800D01*
X412724000Y-232554100D01*
X451615300Y-232554100D01*
X452409000Y-233347800D01*
G37*
X452409000Y-233347800D02*
X452409000Y-246047000D01*
X451615300Y-246840700D01*
X412724000Y-246840700D01*
X411930300Y-246047000D01*
X411930300Y-233347800D01*
X412724000Y-232554100D01*
X451615300Y-232554100D01*
X452409000Y-233347800D01*
G36*
X101593600Y-232554100D02*
G01*
X101593600Y-246840700D01*
X100799900Y-247634400D01*
X86513300Y-247634400D01*
X85719600Y-246840700D01*
X85719600Y-232554100D01*
X86513300Y-231760400D01*
X100799900Y-231760400D01*
X101593600Y-232554100D01*
G37*
X101593600Y-232554100D02*
X101593600Y-246840700D01*
X100799900Y-247634400D01*
X86513300Y-247634400D01*
X85719600Y-246840700D01*
X85719600Y-232554100D01*
X86513300Y-231760400D01*
X100799900Y-231760400D01*
X101593600Y-232554100D01*
G36*
X268270600Y-165883300D02*
G01*
X268270600Y-180169900D01*
X267476900Y-180963600D01*
X253190300Y-180963600D01*
X252396600Y-180169900D01*
X252396600Y-165883300D01*
X253190300Y-165089600D01*
X267476900Y-165089600D01*
X268270600Y-165883300D01*
G37*
X268270600Y-165883300D02*
X268270600Y-180169900D01*
X267476900Y-180963600D01*
X253190300Y-180963600D01*
X252396600Y-180169900D01*
X252396600Y-165883300D01*
X253190300Y-165089600D01*
X267476900Y-165089600D01*
X268270600Y-165883300D01*
G36*
X458758600Y-213505300D02*
G01*
X458758600Y-227791900D01*
X457964900Y-228585600D01*
X443678300Y-228585600D01*
X442884600Y-227791900D01*
X442884600Y-213505300D01*
X443678300Y-212711600D01*
X457964900Y-212711600D01*
X458758600Y-213505300D01*
G37*
X458758600Y-213505300D02*
X458758600Y-227791900D01*
X457964900Y-228585600D01*
X443678300Y-228585600D01*
X442884600Y-227791900D01*
X442884600Y-213505300D01*
X443678300Y-212711600D01*
X457964900Y-212711600D01*
X458758600Y-213505300D01*
G36*
X225410800Y-251602900D02*
G01*
X225410800Y-265889500D01*
X224617100Y-266683200D01*
X210330500Y-266683200D01*
X209536800Y-265889500D01*
X209536800Y-251602900D01*
X210330500Y-250809200D01*
X224617100Y-250809200D01*
X225410800Y-251602900D01*
G37*
X225410800Y-251602900D02*
X225410800Y-265889500D01*
X224617100Y-266683200D01*
X210330500Y-266683200D01*
X209536800Y-265889500D01*
X209536800Y-251602900D01*
X210330500Y-250809200D01*
X224617100Y-250809200D01*
X225410800Y-251602900D01*
G36*
X137310100Y-251602900D02*
G01*
X137310100Y-265889500D01*
X136516400Y-266683200D01*
X122229800Y-266683200D01*
X121436100Y-265889500D01*
X121436100Y-251602900D01*
X122229800Y-250809200D01*
X136516400Y-250809200D01*
X137310100Y-251602900D01*
G37*
X137310100Y-251602900D02*
X137310100Y-265889500D01*
X136516400Y-266683200D01*
X122229800Y-266683200D01*
X121436100Y-265889500D01*
X121436100Y-251602900D01*
X122229800Y-250809200D01*
X136516400Y-250809200D01*
X137310100Y-251602900D01*
G36*
X132547900Y-232554100D02*
G01*
X132547900Y-246840700D01*
X131754200Y-247634400D01*
X117467600Y-247634400D01*
X116673900Y-246840700D01*
X116673900Y-232554100D01*
X117467600Y-231760400D01*
X131754200Y-231760400D01*
X132547900Y-232554100D01*
G37*
X132547900Y-232554100D02*
X132547900Y-246840700D01*
X131754200Y-247634400D01*
X117467600Y-247634400D01*
X116673900Y-246840700D01*
X116673900Y-232554100D01*
X117467600Y-231760400D01*
X131754200Y-231760400D01*
X132547900Y-232554100D01*
G36*
X375420100Y-251602900D02*
G01*
X375420100Y-265889500D01*
X374626400Y-266683200D01*
X360339800Y-266683200D01*
X359546100Y-265889500D01*
X359546100Y-251602900D01*
X360339800Y-250809200D01*
X374626400Y-250809200D01*
X375420100Y-251602900D01*
G37*
X375420100Y-251602900D02*
X375420100Y-265889500D01*
X374626400Y-266683200D01*
X360339800Y-266683200D01*
X359546100Y-265889500D01*
X359546100Y-251602900D01*
X360339800Y-250809200D01*
X374626400Y-250809200D01*
X375420100Y-251602900D01*
G36*
X334941400Y-165883300D02*
G01*
X334941400Y-180169900D01*
X334147700Y-180963600D01*
X319861100Y-180963600D01*
X319067400Y-180169900D01*
X319067400Y-165883300D01*
X319861100Y-165089600D01*
X334147700Y-165089600D01*
X334941400Y-165883300D01*
G37*
X334941400Y-165883300D02*
X334941400Y-180169900D01*
X334147700Y-180963600D01*
X319861100Y-180963600D01*
X319067400Y-180169900D01*
X319067400Y-165883300D01*
X319861100Y-165089600D01*
X334147700Y-165089600D01*
X334941400Y-165883300D01*
G36*
X101593600Y-165883300D02*
G01*
X101593600Y-180169900D01*
X100799900Y-180963600D01*
X86513300Y-180963600D01*
X85719600Y-180169900D01*
X85719600Y-165883300D01*
X86513300Y-165089600D01*
X100799900Y-165089600D01*
X101593600Y-165883300D01*
G37*
X101593600Y-165883300D02*
X101593600Y-180169900D01*
X100799900Y-180963600D01*
X86513300Y-180963600D01*
X85719600Y-180169900D01*
X85719600Y-165883300D01*
X86513300Y-165089600D01*
X100799900Y-165089600D01*
X101593600Y-165883300D01*
G36*
X287319400Y-165883300D02*
G01*
X287319400Y-180169900D01*
X286525700Y-180963600D01*
X272239100Y-180963600D01*
X271445400Y-180169900D01*
X271445400Y-165883300D01*
X272239100Y-165089600D01*
X286525700Y-165089600D01*
X287319400Y-165883300D01*
G37*
X287319400Y-165883300D02*
X287319400Y-180169900D01*
X286525700Y-180963600D01*
X272239100Y-180963600D01*
X271445400Y-180169900D01*
X271445400Y-165883300D01*
X272239100Y-165089600D01*
X286525700Y-165089600D01*
X287319400Y-165883300D01*
G36*
X439709800Y-213505300D02*
G01*
X439709800Y-227791900D01*
X438916100Y-228585600D01*
X424629500Y-228585600D01*
X423835800Y-227791900D01*
X423835800Y-213505300D01*
X424629500Y-212711600D01*
X438916100Y-212711600D01*
X439709800Y-213505300D01*
G37*
X439709800Y-213505300D02*
X439709800Y-227791900D01*
X438916100Y-228585600D01*
X424629500Y-228585600D01*
X423835800Y-227791900D01*
X423835800Y-213505300D01*
X424629500Y-212711600D01*
X438916100Y-212711600D01*
X439709800Y-213505300D01*
G36*
X163502200Y-165883300D02*
G01*
X163502200Y-180169900D01*
X162708500Y-180963600D01*
X148421900Y-180963600D01*
X147628200Y-180169900D01*
X147628200Y-165883300D01*
X148421900Y-165089600D01*
X162708500Y-165089600D01*
X163502200Y-165883300D01*
G37*
X163502200Y-165883300D02*
X163502200Y-180169900D01*
X162708500Y-180963600D01*
X148421900Y-180963600D01*
X147628200Y-180169900D01*
X147628200Y-165883300D01*
X148421900Y-165089600D01*
X162708500Y-165089600D01*
X163502200Y-165883300D01*
G36*
X458758600Y-165883300D02*
G01*
X458758600Y-180169900D01*
X457964900Y-180963600D01*
X443678300Y-180963600D01*
X442884600Y-180169900D01*
X442884600Y-165883300D01*
X443678300Y-165089600D01*
X457964900Y-165089600D01*
X458758600Y-165883300D01*
G37*
X458758600Y-165883300D02*
X458758600Y-180169900D01*
X457964900Y-180963600D01*
X443678300Y-180963600D01*
X442884600Y-180169900D01*
X442884600Y-165883300D01*
X443678300Y-165089600D01*
X457964900Y-165089600D01*
X458758600Y-165883300D01*
G36*
X439709800Y-251602900D02*
G01*
X439709800Y-265889500D01*
X438916100Y-266683200D01*
X424629500Y-266683200D01*
X423835800Y-265889500D01*
X423835800Y-251602900D01*
X424629500Y-250809200D01*
X438916100Y-250809200D01*
X439709800Y-251602900D01*
G37*
X439709800Y-251602900D02*
X439709800Y-265889500D01*
X438916100Y-266683200D01*
X424629500Y-266683200D01*
X423835800Y-265889500D01*
X423835800Y-251602900D01*
X424629500Y-250809200D01*
X438916100Y-250809200D01*
X439709800Y-251602900D01*
G36*
X201599800Y-165883300D02*
G01*
X201599800Y-180169900D01*
X200806100Y-180963600D01*
X186519500Y-180963600D01*
X185725800Y-180169900D01*
X185725800Y-165883300D01*
X186519500Y-165089600D01*
X200806100Y-165089600D01*
X201599800Y-165883300D01*
G37*
X201599800Y-165883300D02*
X201599800Y-180169900D01*
X200806100Y-180963600D01*
X186519500Y-180963600D01*
X185725800Y-180169900D01*
X185725800Y-165883300D01*
X186519500Y-165089600D01*
X200806100Y-165089600D01*
X201599800Y-165883300D01*
G36*
X263508400Y-251602900D02*
G01*
X263508400Y-265889500D01*
X262714700Y-266683200D01*
X248428100Y-266683200D01*
X247634400Y-265889500D01*
X247634400Y-251602900D01*
X248428100Y-250809200D01*
X262714700Y-250809200D01*
X263508400Y-251602900D01*
G37*
X263508400Y-251602900D02*
X263508400Y-265889500D01*
X262714700Y-266683200D01*
X248428100Y-266683200D01*
X247634400Y-265889500D01*
X247634400Y-251602900D01*
X248428100Y-250809200D01*
X262714700Y-250809200D01*
X263508400Y-251602900D01*
G36*
X127785700Y-270651700D02*
G01*
X127785700Y-284938300D01*
X126992000Y-285732000D01*
X112705400Y-285732000D01*
X111911700Y-284938300D01*
X111911700Y-270651700D01*
X112705400Y-269858000D01*
X126992000Y-269858000D01*
X127785700Y-270651700D01*
G37*
X127785700Y-270651700D02*
X127785700Y-284938300D01*
X126992000Y-285732000D01*
X112705400Y-285732000D01*
X111911700Y-284938300D01*
X111911700Y-270651700D01*
X112705400Y-269858000D01*
X126992000Y-269858000D01*
X127785700Y-270651700D01*
G36*
X182551000Y-165883300D02*
G01*
X182551000Y-180169900D01*
X181757300Y-180963600D01*
X167470700Y-180963600D01*
X166677000Y-180169900D01*
X166677000Y-165883300D01*
X167470700Y-165089600D01*
X181757300Y-165089600D01*
X182551000Y-165883300D01*
G37*
X182551000Y-165883300D02*
X182551000Y-180169900D01*
X181757300Y-180963600D01*
X167470700Y-180963600D01*
X166677000Y-180169900D01*
X166677000Y-165883300D01*
X167470700Y-165089600D01*
X181757300Y-165089600D01*
X182551000Y-165883300D01*
G36*
X458758600Y-270651700D02*
G01*
X458758600Y-284938300D01*
X457964900Y-285732000D01*
X443678300Y-285732000D01*
X442884600Y-284938300D01*
X442884600Y-270651700D01*
X443678300Y-269858000D01*
X457964900Y-269858000D01*
X458758600Y-270651700D01*
G37*
X458758600Y-270651700D02*
X458758600Y-284938300D01*
X457964900Y-285732000D01*
X443678300Y-285732000D01*
X442884600Y-284938300D01*
X442884600Y-270651700D01*
X443678300Y-269858000D01*
X457964900Y-269858000D01*
X458758600Y-270651700D01*
G36*
X339703600Y-251602900D02*
G01*
X339703600Y-265889500D01*
X338909900Y-266683200D01*
X324623300Y-266683200D01*
X323829600Y-265889500D01*
X323829600Y-251602900D01*
X324623300Y-250809200D01*
X338909900Y-250809200D01*
X339703600Y-251602900D01*
G37*
X339703600Y-251602900D02*
X339703600Y-265889500D01*
X338909900Y-266683200D01*
X324623300Y-266683200D01*
X323829600Y-265889500D01*
X323829600Y-251602900D01*
X324623300Y-250809200D01*
X338909900Y-250809200D01*
X339703600Y-251602900D01*
G36*
X130166800Y-213505300D02*
G01*
X130166800Y-227791900D01*
X129373100Y-228585600D01*
X115086500Y-228585600D01*
X114292800Y-227791900D01*
X114292800Y-213505300D01*
X115086500Y-212711600D01*
X129373100Y-212711600D01*
X130166800Y-213505300D01*
G37*
X130166800Y-213505300D02*
X130166800Y-227791900D01*
X129373100Y-228585600D01*
X115086500Y-228585600D01*
X114292800Y-227791900D01*
X114292800Y-213505300D01*
X115086500Y-212711600D01*
X129373100Y-212711600D01*
X130166800Y-213505300D01*
G36*
X125404600Y-165883300D02*
G01*
X125404600Y-180169900D01*
X124610900Y-180963600D01*
X110324300Y-180963600D01*
X109530600Y-180169900D01*
X109530600Y-165883300D01*
X110324300Y-165089600D01*
X124610900Y-165089600D01*
X125404600Y-165883300D01*
G37*
X125404600Y-165883300D02*
X125404600Y-180169900D01*
X124610900Y-180963600D01*
X110324300Y-180963600D01*
X109530600Y-180169900D01*
X109530600Y-165883300D01*
X110324300Y-165089600D01*
X124610900Y-165089600D01*
X125404600Y-165883300D01*
G36*
X420661000Y-194456500D02*
G01*
X420661000Y-208743100D01*
X419867300Y-209536800D01*
X405580700Y-209536800D01*
X404787000Y-208743100D01*
X404787000Y-194456500D01*
X405580700Y-193662800D01*
X419867300Y-193662800D01*
X420661000Y-194456500D01*
G37*
X420661000Y-194456500D02*
X420661000Y-208743100D01*
X419867300Y-209536800D01*
X405580700Y-209536800D01*
X404787000Y-208743100D01*
X404787000Y-194456500D01*
X405580700Y-193662800D01*
X419867300Y-193662800D01*
X420661000Y-194456500D01*
G36*
X168264400Y-251602900D02*
G01*
X168264400Y-265889500D01*
X167470700Y-266683200D01*
X153184100Y-266683200D01*
X152390400Y-265889500D01*
X152390400Y-251602900D01*
X153184100Y-250809200D01*
X167470700Y-250809200D01*
X168264400Y-251602900D01*
G37*
X168264400Y-251602900D02*
X168264400Y-265889500D01*
X167470700Y-266683200D01*
X153184100Y-266683200D01*
X152390400Y-265889500D01*
X152390400Y-251602900D01*
X153184100Y-250809200D01*
X167470700Y-250809200D01*
X168264400Y-251602900D01*
G36*
X293272150Y-271842250D02*
G01*
X293272150Y-286922550D01*
X292478450Y-287716250D01*
X285335150Y-287716250D01*
X284541450Y-286922550D01*
X284541450Y-271842250D01*
X285335150Y-271048550D01*
X292478450Y-271048550D01*
X293272150Y-271842250D01*
G37*
X293272150Y-271842250D02*
X293272150Y-286922550D01*
X292478450Y-287716250D01*
X285335150Y-287716250D01*
X284541450Y-286922550D01*
X284541450Y-271842250D01*
X285335150Y-271048550D01*
X292478450Y-271048550D01*
X293272150Y-271842250D01*
G36*
X193265950Y-271842250D02*
G01*
X193265950Y-286922550D01*
X192472250Y-287716250D01*
X185328950Y-287716250D01*
X184535250Y-286922550D01*
X184535250Y-271842250D01*
X185328950Y-271048550D01*
X192472250Y-271048550D01*
X193265950Y-271842250D01*
G37*
X193265950Y-271842250D02*
X193265950Y-286922550D01*
X192472250Y-287716250D01*
X185328950Y-287716250D01*
X184535250Y-286922550D01*
X184535250Y-271842250D01*
X185328950Y-271048550D01*
X192472250Y-271048550D01*
X193265950Y-271842250D01*
D11*
X353990200Y-293669000D03*
M02*
